<svg version="1.1" xmlns="http://www.w3.org/2000/svg" xmlns:xlink="http://www.w3.org/1999/xlink" width="509.5781151872231" height="700.4630517959595"><defs/><g transform="translate(-159.46960667556988,-84.03124618530273)"><g><path fill="white" stroke="#505050" paint-order="fill stroke markers" d=" M 319.87145233154297 132.8046875 L 319.87145233154297 176.8046875 Q 319.87145233154297 184.8046875 327.87145233154297 184.8046875 L 462.29332733154297 184.8046875 Q 470.29332733154297 184.8046875 470.29332733154297 176.8046875 L 470.29332733154297 132.8046875 Q 470.29332733154297 124.8046875 462.29332733154297 124.8046875 L 327.87145233154297 124.8046875 Q 319.87145233154297 124.8046875 319.87145233154297 132.8046875" stroke-miterlimit="10" stroke-width="0.5" stroke-dasharray=""/><path fill="none" stroke="#505050" paint-order="fill stroke markers" d=" M 319.87145233154297 144.8046875 L 470.29332733154297 144.8046875" stroke-miterlimit="10" stroke-width="0.5" stroke-dasharray=""/><text fill="#505050" stroke="none" font-family="monospace" font-size="14px" font-style="normal" font-weight="normal" text-decoration="normal" x="327.87145233154297" y="138.8046875" text-anchor="start" dominant-baseline="alphabetic">Idle</text><text fill="#505050" stroke="none" font-family="monospace" font-size="14px" font-style="normal" font-weight="normal" text-decoration="normal" x="327.87145233154297" y="158.8046875" text-anchor="start" dominant-baseline="alphabetic">entry/ count = 0</text><path fill="#505050" stroke="#505050" paint-order="fill stroke markers" d=" M 306.03124046325684 93.03124618530273 A 8 8 0 1 1 306.0312364632572 93.02324618663606" stroke-miterlimit="10" stroke-width="0.25" stroke-dasharray=""/><path fill="white" stroke="#505050" paint-order="fill stroke markers" d=" M 500.82311248779297 257.3891906738281 L 500.82311248779297 301.3891906738281 Q 500.82311248779297 309.3891906738281 508.82311248779297 309.3891906738281 L 660.047721862793 309.3891906738281 Q 668.047721862793 309.3891906738281 668.047721862793 301.3891906738281 L 668.047721862793 257.3891906738281 Q 668.047721862793 249.38919067382812 660.047721862793 249.38919067382812 L 508.82311248779297 249.38919067382812 Q 500.82311248779297 249.38919067382812 500.82311248779297 257.3891906738281" stroke-miterlimit="10" stroke-width="0.5" stroke-dasharray=""/><path fill="none" stroke="#505050" paint-order="fill stroke markers" d=" M 500.82311248779297 269.3891906738281 L 668.047721862793 269.3891906738281" stroke-miterlimit="10" stroke-width="0.5" stroke-dasharray=""/><text fill="#505050" stroke="none" font-family="monospace" font-size="14px" font-style="normal" font-weight="normal" text-decoration="normal" x="508.82311248779297" y="263.3891906738281" text-anchor="start" dominant-baseline="alphabetic">Verification</text><text fill="#505050" stroke="none" font-family="monospace" font-size="14px" font-style="normal" font-weight="normal" text-decoration="normal" x="508.82311248779297" y="283.3891906738281" text-anchor="start" dominant-baseline="alphabetic">entry/ Ask for PIN</text><path fill="white" stroke="#505050" paint-order="fill stroke markers" d=" M 358.29119873046875 387.5596694946289 L 358.29119873046875 431.5596694946289 Q 358.29119873046875 439.5596694946289 366.29119873046875 439.5596694946289 L 483.91033935546875 439.5596694946289 Q 491.91033935546875 439.5596694946289 491.91033935546875 431.5596694946289 L 491.91033935546875 387.5596694946289 Q 491.91033935546875 379.5596694946289 483.91033935546875 379.5596694946289 L 366.29119873046875 379.5596694946289 Q 358.29119873046875 379.5596694946289 358.29119873046875 387.5596694946289" stroke-miterlimit="10" stroke-width="0.5" stroke-dasharray=""/><path fill="none" stroke="#505050" paint-order="fill stroke markers" d=" M 358.29119873046875 399.5596694946289 L 491.91033935546875 399.5596694946289" stroke-miterlimit="10" stroke-width="0.5" stroke-dasharray=""/><text fill="#505050" stroke="none" font-family="monospace" font-size="14px" font-style="normal" font-weight="normal" text-decoration="normal" x="366.29119873046875" y="393.5596694946289" text-anchor="start" dominant-baseline="alphabetic">Search PIN</text><text fill="#505050" stroke="none" font-family="monospace" font-size="14px" font-style="normal" font-weight="normal" text-decoration="normal" x="366.29119873046875" y="413.5596694946289" text-anchor="start" dominant-baseline="alphabetic">entry/ count++</text><path fill="white" stroke="#505050" paint-order="fill stroke markers" d=" M 327.0021209716797 494.10794830322266 L 327.0021209716797 679.6537151856006 Q 327.0021209716797 687.6537151856006 335.0021209716797 687.6537151856006 L 642.9857597351074 687.6537151856006 Q 650.9857597351074 687.6537151856006 650.9857597351074 679.6537151856006 L 650.9857597351074 494.10794830322266 Q 650.9857597351074 486.10794830322266 642.9857597351074 486.10794830322266 L 335.0021209716797 486.10794830322266 Q 327.0021209716797 486.10794830322266 327.0021209716797 494.10794830322266" stroke-miterlimit="10" stroke-width="0.5" stroke-dasharray=""/><path fill="none" stroke="#505050" paint-order="fill stroke markers" d=" M 327.0021209716797 506.10794830322266 L 650.9857597351074 506.10794830322266" stroke-miterlimit="10" stroke-width="0.5" stroke-dasharray=""/><text fill="#505050" stroke="none" font-family="monospace" font-size="14px" font-style="normal" font-weight="normal" text-decoration="normal" x="335.0021209716797" y="500.10794830322266" text-anchor="start" dominant-baseline="alphabetic">Transaction</text><text fill="#505050" stroke="none" font-family="monospace" font-size="14px" font-style="normal" font-weight="normal" text-decoration="normal" x="335.0021209716797" y="661.6537151856006" text-anchor="start" dominant-baseline="alphabetic">entry/ Select Transaction</text><text fill="#505050" stroke="none" font-family="monospace" font-size="14px" font-style="normal" font-weight="normal" text-decoration="normal" x="335.0021209716797" y="681.6537151856006" text-anchor="start" dominant-baseline="alphabetic">exit/ End Transaction</text><path fill="#505050" stroke="#505050" paint-order="fill stroke markers" d=" M 351.0021209716797 538.5035438537598 A 8 8 0 1 1 351.00211697168004 538.495543855093" stroke-miterlimit="10" stroke-width="0.25" stroke-dasharray=""/><path fill="white" stroke="#505050" paint-order="fill stroke markers" d=" M 370.0205078125 557.1156692504883 L 370.0205078125 601.1156692504883 Q 370.0205078125 609.1156692504883 378.0205078125 609.1156692504883 L 462.0205078125 609.1156692504883 Q 470.0205078125 609.1156692504883 470.0205078125 601.1156692504883 L 470.0205078125 557.1156692504883 Q 470.0205078125 549.1156692504883 462.0205078125 549.1156692504883 L 378.0205078125 549.1156692504883 Q 370.0205078125 549.1156692504883 370.0205078125 557.1156692504883" stroke-miterlimit="10" stroke-width="0.5" stroke-dasharray=""/><path fill="none" stroke="#505050" paint-order="fill stroke markers" d=" M 370.0205078125 569.1156692504883 L 470.0205078125 569.1156692504883" stroke-miterlimit="10" stroke-width="0.5" stroke-dasharray=""/><text fill="#505050" stroke="none" font-family="monospace" font-size="14px" font-style="normal" font-weight="normal" text-decoration="normal" x="378.0205078125" y="563.1156692504883" text-anchor="start" dominant-baseline="alphabetic">Prompt</text><path fill="white" stroke="#505050" paint-order="fill stroke markers" d=" M 542.9857597351074 559.8572387695312 L 542.9857597351074 603.8572387695312 Q 542.9857597351074 611.8572387695312 550.9857597351074 611.8572387695312 L 634.9857597351074 611.8572387695312 Q 642.9857597351074 611.8572387695312 642.9857597351074 603.8572387695312 L 642.9857597351074 559.8572387695312 Q 642.9857597351074 551.8572387695312 634.9857597351074 551.8572387695312 L 550.9857597351074 551.8572387695312 Q 542.9857597351074 551.8572387695312 542.9857597351074 559.8572387695312" stroke-miterlimit="10" stroke-width="0.5" stroke-dasharray=""/><path fill="none" stroke="#505050" paint-order="fill stroke markers" d=" M 542.9857597351074 571.8572387695312 L 642.9857597351074 571.8572387695312" stroke-miterlimit="10" stroke-width="0.5" stroke-dasharray=""/><text fill="#505050" stroke="none" font-family="monospace" font-size="14px" font-style="normal" font-weight="normal" text-decoration="normal" x="550.9857597351074" y="565.8572387695312" text-anchor="start" dominant-baseline="alphabetic">Verify</text><path fill="white" stroke="#505050" paint-order="fill stroke markers" d=" M 403.1101531982422 723.6569414138794 L 403.1101531982422 775.4942979812622 Q 403.1101531982422 783.4942979812622 411.1101531982422 783.4942979812622 L 598.4765472412109 783.4942979812622 Q 606.4765472412109 783.4942979812622 606.4765472412109 775.4942979812622 L 606.4765472412109 723.6569414138794 Q 606.4765472412109 715.6569414138794 598.4765472412109 715.6569414138794 L 411.1101531982422 715.6569414138794 Q 403.1101531982422 715.6569414138794 403.1101531982422 723.6569414138794" stroke-miterlimit="10" stroke-width="0.5" stroke-dasharray=""/><path fill="none" stroke="#505050" paint-order="fill stroke markers" d=" M 403.1101531982422 735.6569414138794 L 606.4765472412109 735.6569414138794" stroke-miterlimit="10" stroke-width="0.5" stroke-dasharray=""/><text fill="#505050" stroke="none" font-family="monospace" font-size="14px" font-style="normal" font-weight="normal" text-decoration="normal" x="411.1101531982422" y="729.6569414138794" text-anchor="start" dominant-baseline="alphabetic">Process Transaction</text><path fill="none" stroke="#505050" paint-order="fill stroke markers" d=" M 303.2896044173202 99.06030983786165 C 318.94334207118885 117.00836013261218 318.94334207118885 117.00836013261218 323.93507737622764 125.84013782244249 M 324.0084515037033 117.84065032402003 L 323.93507737622764 125.84013782244249 L 317.0439018261458 121.77702527933533" stroke-miterlimit="10" stroke-dasharray=""/><text fill="#505050" stroke="none" font-family="monospace" font-size="14px" font-style="normal" font-weight="normal" text-decoration="normal" x="325.6105917775851" y="129.86882605699714" text-anchor="start" dominant-baseline="alphabetic"></text><path fill="none" stroke="#505050" paint-order="fill stroke markers" d=" M 470.29332733154297 173.1706102165606 C 500.3098990662862 173.1706102165606 535.1144571242357 219.37261893908487 535.1144571242357 249.38919067382812 M 539.1144571242357 242.46119067382813 L 535.1144571242357 249.38919067382812 L 531.1144571242357 242.46119067382813" stroke-miterlimit="10" stroke-dasharray=""/><text fill="#505050" stroke="none" font-family="monospace" font-size="14px" font-style="normal" font-weight="normal" text-decoration="normal" x="521.9601066284181" y="214.02368604466562" text-anchor="start" dominant-baseline="alphabetic">Insert Card</text><path fill="none" stroke="#505050" paint-order="fill stroke markers" d=" M 491.91033935546875 418.7853771119807 C 534.3971638601784 418.7853771119807 581.851860594117 351.8760151785377 581.851860594117 309.3891906738281 M 577.851860594117 316.3171906738281 L 581.851860594117 309.3891906738281 L 585.851860594117 316.3171906738281" stroke-miterlimit="10" stroke-dasharray=""/><text fill="#505050" stroke="none" font-family="monospace" font-size="14px" font-style="normal" font-weight="normal" text-decoration="normal" x="560.813659164059" y="394.01984308217055" text-anchor="start" dominant-baseline="alphabetic">Invalid PIN[count &lt; 3]</text><path fill="none" stroke="#505050" paint-order="fill stroke markers" d=" M 500.82311248779297 292.10294628819827 C 465.6642842631981 292.10294628819827 422.8087161620715 344.40084127003405 422.8087161620715 379.5596694946289 M 426.8087161620715 372.6316694946289 L 422.8087161620715 379.5596694946289 L 418.8087161620715 372.6316694946289" stroke-miterlimit="10" stroke-dasharray=""/><text fill="#505050" stroke="none" font-family="monospace" font-size="14px" font-style="normal" font-weight="normal" text-decoration="normal" x="448.86836320432894" y="346.55307139993573" text-anchor="start" dominant-baseline="alphabetic">PIN Entered</text><path fill="none" stroke="#505050" paint-order="fill stroke markers" d=" M 358.29119873046875 419.3405018490757 C 280.85181959863195 419.3405018490757 242.43207319970617 164.08441000486607 319.87145233154297 164.08441000486607 M 312.94345233154297 160.08441000486607 L 319.87145233154297 164.08441000486607 L 312.94345233154297 168.08441000486607" stroke-miterlimit="10" stroke-dasharray=""/><text fill="#505050" stroke="none" font-family="monospace" font-size="14px" font-style="normal" font-weight="normal" text-decoration="normal" x="286.68358784078475" y="286.3263569696141" text-anchor="start" dominant-baseline="alphabetic">Invalid PIN[count == 3]</text><path fill="none" stroke="#505050" paint-order="fill stroke markers" d=" M 457.5773518300133 549.1156692504883 C 457.5773518300133 519.5514385528422 556.086645155575 522.2930080718852 556.086645155575 551.8572387695312 M 560.086645155575 544.9292387695313 L 556.086645155575 551.8572387695312 L 552.086645155575 544.9292387695313" stroke-miterlimit="10" stroke-dasharray=""/><text fill="#505050" stroke="none" font-family="monospace" font-size="14px" font-style="normal" font-weight="normal" text-decoration="normal" x="514.8319984927941" y="542.3132809867752" text-anchor="start" dominant-baseline="alphabetic"></text><path fill="none" stroke="#505050" paint-order="fill stroke markers" d=" M 555.7749615621703 611.8572387695312 C 555.7749615621703 639.6537151856006 467.1329851102322 636.5451809559349 463.1630732959423 609.0336578913015 M 460.19354068419676 616.4619187959668 L 463.1630732959423 609.0336578913015 L 468.11152932500994 615.3193533125245" stroke-miterlimit="10" stroke-dasharray=""/><text fill="#505050" stroke="none" font-family="monospace" font-size="14px" font-style="normal" font-weight="normal" text-decoration="normal" x="498.503654716358" y="642.5544131884308" text-anchor="start" dominant-baseline="alphabetic">Choose Transaction[isWithdrawal &amp;&amp; newBalance &lt; 0]/deny</text><path fill="none" stroke="#505050" paint-order="fill stroke markers" d=" M 349.89161198847535 542.5698583435025 C 363.9948257664904 550.8938553409113 363.9948257664904 550.8938553409113 370.70772952794727 553.8717096698255 M 365.996843323856 547.4060515306951 L 370.70772952794727 553.8717096698255 L 362.7528837431932 554.7188298152479" stroke-miterlimit="10" stroke-dasharray=""/><text fill="#505050" stroke="none" font-family="monospace" font-size="14px" font-style="normal" font-weight="normal" text-decoration="normal" x="371.07103701442065" y="564.2255875073495" text-anchor="start" dominant-baseline="alphabetic"></text><path fill="none" stroke="#505050" paint-order="fill stroke markers" d=" M 425.55318715820596 439.5596694946289 C 425.55318715820596 453.6362642845997 419.64300998733154 472.0313535132519 419.64300998733154 486.10794830322266 M 423.64300998733154 479.17994830322266 L 419.64300998733154 486.10794830322266 L 415.64300998733154 479.17994830322266" stroke-miterlimit="10" stroke-dasharray=""/><text fill="#505050" stroke="none" font-family="monospace" font-size="14px" font-style="normal" font-weight="normal" text-decoration="normal" x="432.55294777465633" y="465.3284205592977" text-anchor="start" dominant-baseline="alphabetic">Valid PIN</text><path fill="none" stroke="#505050" paint-order="fill stroke markers" d=" M 327.0903336307895 680.8384603364786 C 169.44614555885607 704.444780796719 160.46960667556988 149.54801564040616 319.87145233154297 149.54801564040616 M 312.94345233154297 145.54801564040616 L 319.87145233154297 149.54801564040616 L 312.94345233154297 153.54801564040616" stroke-miterlimit="10" stroke-dasharray=""/><text fill="#505050" stroke="none" font-family="monospace" font-size="14px" font-style="normal" font-weight="normal" text-decoration="normal" x="214.24516431396466" y="476.6614980385458" text-anchor="start" dominant-baseline="alphabetic">Card Removed</text><path fill="none" stroke="#505050" paint-order="fill stroke markers" d=" M 493.8717421748137 687.6537151856006 C 493.8717421748137 696.0691484948667 492.22770697848057 707.2415081046133 492.22770697848057 715.6569414138794 M 496.22770697848057 708.7289414138794 L 492.22770697848057 715.6569414138794 L 488.22770697848057 708.7289414138794" stroke-miterlimit="10" stroke-dasharray=""/><text fill="#505050" stroke="none" font-family="monospace" font-size="14px" font-style="normal" font-weight="normal" text-decoration="normal" x="501.0497245766471" y="715.65532829974" text-anchor="start" dominant-baseline="alphabetic">Choose Transaction[newBalance &gt;= 0]/approve</text></g></g></svg>