<svg version="1.1" xmlns="http://www.w3.org/2000/svg" xmlns:xlink="http://www.w3.org/1999/xlink" width="639.3364448547363" height="665.1711406707764"><defs/><g transform="translate(-280.8494415283203,-97.77768802642822)"><g><path fill="white" stroke="#505050" paint-order="fill stroke markers" d=" M 316.16761779785156 114.8501501083374 L 316.16761779785156 158.8501501083374 Q 316.16761779785156 166.8501501083374 324.16761779785156 166.8501501083374 L 408.16761779785156 166.8501501083374 Q 416.16761779785156 166.8501501083374 416.16761779785156 158.8501501083374 L 416.16761779785156 114.8501501083374 Q 416.16761779785156 106.8501501083374 408.16761779785156 106.8501501083374 L 324.16761779785156 106.8501501083374 Q 316.16761779785156 106.8501501083374 316.16761779785156 114.8501501083374" stroke-miterlimit="10" stroke-width="0.5" stroke-dasharray=""/><path fill="none" stroke="#505050" paint-order="fill stroke markers" d=" M 316.16761779785156 126.8501501083374 L 416.16761779785156 126.8501501083374" stroke-miterlimit="10" stroke-width="0.5" stroke-dasharray=""/><text fill="#505050" stroke="none" font-family="monospace" font-size="14px" font-style="normal" font-weight="normal" text-decoration="normal" x="324.16761779785156" y="120.8501501083374" text-anchor="start" dominant-baseline="alphabetic">Off</text><path fill="#505050" stroke="#505050" paint-order="fill stroke markers" d=" M 297.8494415283203 106.77768802642822 A 8 8 0 1 1 297.84943752832066 106.76968802776155" stroke-miterlimit="10" stroke-width="0.25" stroke-dasharray=""/><path fill="white" stroke="#505050" paint-order="fill stroke markers" d=" M 361.76063537597656 257.91120052337646 L 361.76063537597656 301.91120052337646 Q 361.76063537597656 309.91120052337646 369.76063537597656 309.91120052337646 L 453.76063537597656 309.91120052337646 Q 461.76063537597656 309.91120052337646 461.76063537597656 301.91120052337646 L 461.76063537597656 257.91120052337646 Q 461.76063537597656 249.91120052337646 453.76063537597656 249.91120052337646 L 369.76063537597656 249.91120052337646 Q 361.76063537597656 249.91120052337646 361.76063537597656 257.91120052337646" stroke-miterlimit="10" stroke-width="0.5" stroke-dasharray=""/><path fill="none" stroke="#505050" paint-order="fill stroke markers" d=" M 361.76063537597656 269.91120052337646 L 461.76063537597656 269.91120052337646" stroke-miterlimit="10" stroke-width="0.5" stroke-dasharray=""/><text fill="#505050" stroke="none" font-family="monospace" font-size="14px" font-style="normal" font-weight="normal" text-decoration="normal" x="369.76063537597656" y="263.91120052337646" text-anchor="start" dominant-baseline="alphabetic">Idle</text><path fill="white" stroke="#505050" paint-order="fill stroke markers" d=" M 551.6044158935547 177.4921636581421 L 551.6044158935547 221.4921636581421 Q 551.6044158935547 229.4921636581421 559.6044158935547 229.4921636581421 L 643.6044158935547 229.4921636581421 Q 651.6044158935547 229.4921636581421 651.6044158935547 221.4921636581421 L 651.6044158935547 177.4921636581421 Q 651.6044158935547 169.4921636581421 643.6044158935547 169.4921636581421 L 559.6044158935547 169.4921636581421 Q 551.6044158935547 169.4921636581421 551.6044158935547 177.4921636581421" stroke-miterlimit="10" stroke-width="0.5" stroke-dasharray=""/><path fill="none" stroke="#505050" paint-order="fill stroke markers" d=" M 551.6044158935547 189.4921636581421 L 651.6044158935547 189.4921636581421" stroke-miterlimit="10" stroke-width="0.5" stroke-dasharray=""/><text fill="#505050" stroke="none" font-family="monospace" font-size="14px" font-style="normal" font-weight="normal" text-decoration="normal" x="559.6044158935547" y="183.4921636581421" text-anchor="start" dominant-baseline="alphabetic">Self Test</text><path fill="white" stroke="#505050" paint-order="fill stroke markers" d=" M 568.8168792724609 265.27982234954834 L 568.8168792724609 309.27982234954834 Q 568.8168792724609 317.27982234954834 576.8168792724609 317.27982234954834 L 665.4440155029297 317.27982234954834 Q 673.4440155029297 317.27982234954834 673.4440155029297 309.27982234954834 L 673.4440155029297 265.27982234954834 Q 673.4440155029297 257.27982234954834 665.4440155029297 257.27982234954834 L 576.8168792724609 257.27982234954834 Q 568.8168792724609 257.27982234954834 568.8168792724609 265.27982234954834" stroke-miterlimit="10" stroke-width="0.5" stroke-dasharray=""/><path fill="none" stroke="#505050" paint-order="fill stroke markers" d=" M 568.8168792724609 277.27982234954834 L 673.4440155029297 277.27982234954834" stroke-miterlimit="10" stroke-width="0.5" stroke-dasharray=""/><text fill="#505050" stroke="none" font-family="monospace" font-size="14px" font-style="normal" font-weight="normal" text-decoration="normal" x="576.8168792724609" y="271.27982234954834" text-anchor="start" dominant-baseline="alphabetic">Maintenance</text><path fill="white" stroke="#505050" paint-order="fill stroke markers" d=" M 776.7072486877441 262.49571895599365 L 776.7072486877441 306.49571895599365 Q 776.7072486877441 314.49571895599365 784.7072486877441 314.49571895599365 L 911.1858863830566 314.49571895599365 Q 919.1858863830566 314.49571895599365 919.1858863830566 306.49571895599365 L 919.1858863830566 262.49571895599365 Q 919.1858863830566 254.49571895599365 911.1858863830566 254.49571895599365 L 784.7072486877441 254.49571895599365 Q 776.7072486877441 254.49571895599365 776.7072486877441 262.49571895599365" stroke-miterlimit="10" stroke-width="0.5" stroke-dasharray=""/><path fill="none" stroke="#505050" paint-order="fill stroke markers" d=" M 776.7072486877441 274.49571895599365 L 919.1858863830566 274.49571895599365" stroke-miterlimit="10" stroke-width="0.5" stroke-dasharray=""/><text fill="#505050" stroke="none" font-family="monospace" font-size="14px" font-style="normal" font-weight="normal" text-decoration="normal" x="784.7072486877441" y="268.49571895599365" text-anchor="start" dominant-baseline="alphabetic">Out of Service</text><path fill="white" stroke="#505050" paint-order="fill stroke markers" d=" M 421.97724533081055 425.3472661972046 L 421.97724533081055 753.9488286972046 Q 421.97724533081055 761.9488286972046 429.97724533081055 761.9488286972046 L 714.0976930053371 761.9488286972046 Q 722.0976930053371 761.9488286972046 722.0976930053371 753.9488286972046 L 722.0976930053371 425.3472661972046 Q 722.0976930053371 417.3472661972046 714.0976930053371 417.3472661972046 L 429.97724533081055 417.3472661972046 Q 421.97724533081055 417.3472661972046 421.97724533081055 425.3472661972046" stroke-miterlimit="10" stroke-width="0.5" stroke-dasharray=""/><path fill="none" stroke="#505050" paint-order="fill stroke markers" d=" M 421.97724533081055 437.3472661972046 L 722.0976930053371 437.3472661972046" stroke-miterlimit="10" stroke-width="0.5" stroke-dasharray=""/><text fill="#505050" stroke="none" font-family="monospace" font-size="14px" font-style="normal" font-weight="normal" text-decoration="normal" x="429.97724533081055" y="431.3472661972046" text-anchor="start" dominant-baseline="alphabetic">Serving Customer</text><text fill="#505050" stroke="none" font-family="monospace" font-size="14px" font-style="normal" font-weight="normal" text-decoration="normal" x="429.97724533081055" y="735.9488286972046" text-anchor="start" dominant-baseline="alphabetic">entry/ read card</text><text fill="#505050" stroke="none" font-family="monospace" font-size="14px" font-style="normal" font-weight="normal" text-decoration="normal" x="429.97724533081055" y="755.9488286972046" text-anchor="start" dominant-baseline="alphabetic">exit/ eject card</text><path fill="#505050" stroke="#505050" paint-order="fill stroke markers" d=" M 474.65218855894295 477.94599437713623 A 8 8 0 1 1 474.6521845589433 477.93799437846957" stroke-miterlimit="10" stroke-width="0.25" stroke-dasharray=""/><path fill="white" stroke="#505050" paint-order="fill stroke markers" d=" M 491.0740654662916 494.0901861190796 L 491.0740654662916 538.0901861190796 Q 491.0740654662916 546.0901861190796 499.0740654662916 546.0901861190796 L 693.7061760619947 546.0901861190796 Q 701.7061760619947 546.0901861190796 701.7061760619947 538.0901861190796 L 701.7061760619947 494.0901861190796 Q 701.7061760619947 486.0901861190796 693.7061760619947 486.0901861190796 L 499.0740654662916 486.0901861190796 Q 491.0740654662916 486.0901861190796 491.0740654662916 494.0901861190796" stroke-miterlimit="10" stroke-width="0.5" stroke-dasharray=""/><path fill="none" stroke="#505050" paint-order="fill stroke markers" d=" M 491.0740654662916 506.0901861190796 L 701.7061760619947 506.0901861190796" stroke-miterlimit="10" stroke-width="0.5" stroke-dasharray=""/><text fill="#505050" stroke="none" font-family="monospace" font-size="14px" font-style="normal" font-weight="normal" text-decoration="normal" x="499.0740654662916" y="500.0901861190796" text-anchor="start" dominant-baseline="alphabetic">Customer Authentication</text><path fill="white" stroke="#505050" paint-order="fill stroke markers" d=" M 529.6392510131666 661.9488286972046 L 529.6392510131666 705.9488286972046 Q 529.6392510131666 713.9488286972046 537.6392510131666 713.9488286972046 L 628.1094048217603 713.9488286972046 Q 636.1094048217603 713.9488286972046 636.1094048217603 705.9488286972046 L 636.1094048217603 661.9488286972046 Q 636.1094048217603 653.9488286972046 628.1094048217603 653.9488286972046 L 537.6392510131666 653.9488286972046 Q 529.6392510131666 653.9488286972046 529.6392510131666 661.9488286972046" stroke-miterlimit="10" stroke-width="0.5" stroke-dasharray=""/><path fill="none" stroke="#505050" paint-order="fill stroke markers" d=" M 529.6392510131666 673.9488286972046 L 636.1094048217603 673.9488286972046" stroke-miterlimit="10" stroke-width="0.5" stroke-dasharray=""/><text fill="#505050" stroke="none" font-family="monospace" font-size="14px" font-style="normal" font-weight="normal" text-decoration="normal" x="537.6392510131666" y="667.9488286972046" text-anchor="start" dominant-baseline="alphabetic">Transaction</text><path fill="white" stroke="#505050" paint-order="fill stroke markers" d=" M 489.4548027709791 578.7137823104858 L 489.4548027709791 622.7137823104858 Q 489.4548027709791 630.7137823104858 497.4548027709791 630.7137823104858 L 674.5229790405103 630.7137823104858 Q 682.5229790405103 630.7137823104858 682.5229790405103 622.7137823104858 L 682.5229790405103 578.7137823104858 Q 682.5229790405103 570.7137823104858 674.5229790405103 570.7137823104858 L 497.4548027709791 570.7137823104858 Q 489.4548027709791 570.7137823104858 489.4548027709791 578.7137823104858" stroke-miterlimit="10" stroke-width="0.5" stroke-dasharray=""/><path fill="none" stroke="#505050" paint-order="fill stroke markers" d=" M 489.4548027709791 590.7137823104858 L 682.5229790405103 590.7137823104858" stroke-miterlimit="10" stroke-width="0.5" stroke-dasharray=""/><text fill="#505050" stroke="none" font-family="monospace" font-size="14px" font-style="normal" font-weight="normal" text-decoration="normal" x="497.4548027709791" y="584.7137823104858" text-anchor="start" dominant-baseline="alphabetic">Selecting Transaction</text><path fill="white" stroke="#505050" paint-order="fill stroke markers" d=" M 698.9497521117994 664.9630041122437 A 8 8 0 1 1 698.9497481117997 664.9550041135769" stroke-miterlimit="10" stroke-width="0.25" stroke-dasharray=""/><path fill="#505050" stroke="none" paint-order="stroke fill markers" d=" M 694.9497521117994 664.9630041122437 A 4 4 0 1 1 694.9497501117995 664.9590041129103"/><path fill="none" stroke="#505050" paint-order="fill stroke markers" d=" M 416.16761779785156 137.15659217572914 C 458.6203336112266 137.15659217572914 518.6347884399327 148.04787458102896 553.1080952427229 172.82335031837616 M 549.8166882289855 165.53199764072298 L 553.1080952427229 172.82335031837616 L 545.1478748892196 172.02831829155477" stroke-miterlimit="10" stroke-dasharray=""/><text fill="#505050" stroke="none" font-family="monospace" font-size="14px" font-style="normal" font-weight="normal" text-decoration="normal" x="446.24544158576657" y="152.04581162959911" text-anchor="start" dominant-baseline="alphabetic">turn on / startup</text><path fill="none" stroke="#505050" paint-order="fill stroke markers" d=" M 295.7056139039071 112.2279398653265 C 308.5825154240714 124.2122790699175 308.5825154240714 124.2122790699175 316.16761779785156 124.2122790699175 M 309.23961779785157 120.2122790699175 L 316.16761779785156 124.2122790699175 L 309.23961779785157 128.21227906991749" stroke-miterlimit="10" stroke-dasharray=""/><text fill="#505050" stroke="none" font-family="monospace" font-size="14px" font-style="normal" font-weight="normal" text-decoration="normal" x="315.9210405307734" y="136.71423666934362" text-anchor="start" dominant-baseline="alphabetic"></text><path fill="none" stroke="#505050" paint-order="fill stroke markers" d=" M 553.2565896567961 226.36095222080527 C 527.8083838549916 245.87974947940734 493.8323460405702 281.6539853840453 461.76063537597656 281.6539853840453 M 468.68863537597656 285.6539853840453 L 461.76063537597656 281.6539853840453 L 468.68863537597656 277.6539853840453" stroke-miterlimit="10" stroke-dasharray=""/><text fill="#505050" stroke="none" font-family="monospace" font-size="14px" font-style="normal" font-weight="normal" text-decoration="normal" x="517.9924268399323" y="275.3270177744011" text-anchor="start" dominant-baseline="alphabetic"></text><path fill="none" stroke="#505050" paint-order="fill stroke markers" d=" M 651.6044158935547 205.5426514671114 C 702.9741021405439 205.5426514671114 815.6900443394202 203.12603270900445 815.6900443394202 254.49571895599365 M 819.6900443394202 247.56771895599366 L 815.6900443394202 254.49571895599365 L 811.6900443394202 247.56771895599366" stroke-miterlimit="10" stroke-dasharray=""/><text fill="#505050" stroke="none" font-family="monospace" font-size="14px" font-style="normal" font-weight="normal" text-decoration="normal" x="812.9468578949368" y="244.9002177005005" text-anchor="start" dominant-baseline="alphabetic">failure</text><path fill="none" stroke="#505050" paint-order="fill stroke markers" d=" M 776.7072486877441 306.21227864787767 C 745.7278265451007 306.21227864787767 704.4234376455731 306.7702192240347 673.4440155029297 306.7702192240347 M 680.3720155029297 310.7702192240347 L 673.4440155029297 306.7702192240347 L 680.3720155029297 302.7702192240347" stroke-miterlimit="10" stroke-dasharray=""/><text fill="#505050" stroke="none" font-family="monospace" font-size="14px" font-style="normal" font-weight="normal" text-decoration="normal" x="711.875283302215" y="320.64757810611553" text-anchor="start" dominant-baseline="alphabetic">service</text><path fill="none" stroke="#505050" paint-order="fill stroke markers" d=" M 603.6172844313511 257.27982234954834 C 603.6172844313511 248.94147908347958 603.0016490478599 237.83050692421085 603.0016490478599 229.4921636581421 M 599.0016490478599 236.4201636581421 L 603.0016490478599 229.4921636581421 L 607.0016490478599 236.4201636581421" stroke-miterlimit="10" stroke-dasharray=""/><text fill="#505050" stroke="none" font-family="monospace" font-size="14px" font-style="normal" font-weight="normal" text-decoration="normal" x="611.3094667396056" y="257.3859930038452" text-anchor="start" dominant-baseline="alphabetic"></text><path fill="none" stroke="#505050" paint-order="fill stroke markers" d=" M 673.4440155029297 285.213795567853 C 704.4239796758208 285.213795567853 745.7272845148531 284.3864796044733 776.7072486877441 284.3864796044733 M 769.7792486877441 280.3864796044733 L 776.7072486877441 284.3864796044733 L 769.7792486877441 288.3864796044733" stroke-miterlimit="10" stroke-dasharray=""/><text fill="#505050" stroke="none" font-family="monospace" font-size="14px" font-style="normal" font-weight="normal" text-decoration="normal" x="708.9489589116206" y="299.06019207998395" text-anchor="start" dominant-baseline="alphabetic">failure</text><path fill="none" stroke="#505050" paint-order="fill stroke markers" d=" M 877.784206409237 254.49571895599365 C 877.784206409237 110.01153703446275 560.6517997193824 117.15631430763662 416.16761779785156 117.15631430763662 M 423.09561779785156 121.15631430763662 L 416.16761779785156 117.15631430763662 L 423.09561779785156 113.15631430763662" stroke-miterlimit="10" stroke-dasharray=""/><text fill="#505050" stroke="none" font-family="monospace" font-size="14px" font-style="normal" font-weight="normal" text-decoration="normal" x="709.1574803241183" y="145.64444841124106" text-anchor="start" dominant-baseline="alphabetic">turn off / shutdown</text><path fill="none" stroke="#505050" paint-order="fill stroke markers" d=" M 361.76063537597656 284.32004043078905 C 325.26607551108606 284.32004043078905 330.1506619465377 203.34470997322794 330.1506619465377 166.8501501083374 M 326.1506619465377 173.7781501083374 L 330.1506619465377 166.8501501083374 L 334.1506619465377 173.7781501083374" stroke-miterlimit="10" stroke-dasharray=""/><text fill="#505050" stroke="none" font-family="monospace" font-size="14px" font-style="normal" font-weight="normal" text-decoration="normal" x="338.0413216308377" y="220.50112432298565" text-anchor="start" dominant-baseline="alphabetic">turn off / shutdown</text><path fill="none" stroke="#505050" paint-order="fill stroke markers" d=" M 461.76063537597656 292.4354279855072 C 493.9304989514669 292.4354279855072 536.6470156969706 298.5877358772575 568.8168792724609 298.5877358772575 M 561.8888792724609 294.5877358772575 L 568.8168792724609 298.5877358772575 L 561.8888792724609 302.5877358772575" stroke-miterlimit="10" stroke-dasharray=""/><text fill="#505050" stroke="none" font-family="monospace" font-size="14px" font-style="normal" font-weight="normal" text-decoration="normal" x="500.76554300406093" y="307.74839491269773" text-anchor="start" dominant-baseline="alphabetic">service</text><path fill="none" stroke="#505050" paint-order="fill stroke markers" d=" M 473.1282128679634 482.6429198767558 C 485.1103707262856 491.33332931620606 485.1103707262856 491.33332931620606 491.22556555202084 492.54065422341165 M 485.20353057409636 487.27450964462787 L 491.22556555202084 492.54065422341165 L 483.6539986784284 495.1230095588986" stroke-miterlimit="10" stroke-dasharray=""/><text fill="#505050" stroke="none" font-family="monospace" font-size="14px" font-style="normal" font-weight="normal" text-decoration="normal" x="492.37700034721223" y="504.3979437496755" text-anchor="start" dominant-baseline="alphabetic"></text><path fill="none" stroke="#505050" paint-order="fill stroke markers" d=" M 588.4847620124204 546.0901861190796 C 588.4847620124204 553.4789214547266 587.9632704074013 563.3250469748389 587.9632704074013 570.7137823104858 M 591.9632704074013 563.7857823104858 L 587.9632704074013 570.7137823104858 L 583.9632704074013 563.7857823104858" stroke-miterlimit="10" stroke-dasharray=""/><text fill="#505050" stroke="none" font-family="monospace" font-size="14px" font-style="normal" font-weight="normal" text-decoration="normal" x="596.2240162099108" y="572.4019842147827" text-anchor="start" dominant-baseline="alphabetic"></text><path fill="none" stroke="#505050" paint-order="fill stroke markers" d=" M 636.1094048217603 668.8190085097401 C 650.2732370231208 668.8190085097401 650.2732370231208 668.8190085097401 682.9854573942732 665.7179939481916 M 675.7108832509216 662.3896677873595 L 682.9854573942732 665.7179939481916 L 676.4658730868696 670.3539625048857" stroke-miterlimit="10" stroke-dasharray=""/><text fill="#505050" stroke="none" font-family="monospace" font-size="14px" font-style="normal" font-weight="normal" text-decoration="normal" x="660.5917855443448" y="682.4313816895466" text-anchor="start" dominant-baseline="alphabetic"></text><path fill="none" stroke="#505050" paint-order="fill stroke markers" d=" M 589.8966111271716 630.7137823104858 C 589.8966111271716 637.6844431424829 590.0474672532717 646.9781678652075 590.0474672532717 653.9488286972046 M 594.0474672532717 647.0208286972046 L 590.0474672532717 653.9488286972046 L 586.0474672532717 647.0208286972046" stroke-miterlimit="10" stroke-dasharray=""/><text fill="#505050" stroke="none" font-family="monospace" font-size="14px" font-style="normal" font-weight="normal" text-decoration="normal" x="597.9720391902217" y="656.3313055038452" text-anchor="start" dominant-baseline="alphabetic"></text><path fill="none" stroke="#505050" paint-order="fill stroke markers" d=" M 370.9470553956877 309.91120052337646 C 370.9470553956877 357.4556747371058 374.4327711170812 459.9522986941647 421.97724533081055 459.9522986941647 M 415.04924533081055 455.9522986941647 L 421.97724533081055 459.9522986941647 L 415.04924533081055 463.9522986941647" stroke-miterlimit="10" stroke-dasharray=""/><text fill="#505050" stroke="none" font-family="monospace" font-size="14px" font-style="normal" font-weight="normal" text-decoration="normal" x="380.4213675664214" y="370.14458889177826" text-anchor="start" dominant-baseline="alphabetic">cardInserted</text><path fill="none" stroke="#505050" paint-order="fill stroke markers" d=" M 479.58932856228256 417.3472661972046 C 479.58932856228256 384.03472355345536 478.51469208116487 334.98630984032235 458.55415426802836 308.3160562306928 M 459.502913774887 316.25942071925465 L 458.55415426802836 308.3160562306928 L 465.9077694822034 311.4659018272029" stroke-miterlimit="10" stroke-dasharray=""/><text fill="#505050" stroke="none" font-family="monospace" font-size="14px" font-style="normal" font-weight="normal" text-decoration="normal" x="482.7751427821984" y="363.60418363947656" text-anchor="start" dominant-baseline="alphabetic">cancel</text><path fill="none" stroke="#505050" paint-order="fill stroke markers" d=" M 573.5089037202046 417.3472661972046 C 573.5089037202046 369.238614103483 509.78708545982386 304.94727212603266 461.748914971824 302.34408514838367 M 468.4503227893243 306.7131030315636 L 461.748914971824 302.34408514838367 L 468.8832074143314 298.7248234357162" stroke-miterlimit="10" stroke-dasharray=""/><text fill="#505050" stroke="none" font-family="monospace" font-size="14px" font-style="normal" font-weight="normal" text-decoration="normal" x="543.6432232790143" y="356.7811262542669" text-anchor="start" dominant-baseline="alphabetic"></text></g></g></svg>