<svg version="1.1" xmlns="http://www.w3.org/2000/svg" xmlns:xlink="http://www.w3.org/1999/xlink" width="300.2437400817871" height="236.9937286376953"><defs/><g transform="scale(1.5,1.5) translate(-263.9312515258789,-130.7593765258789)"><g><path fill="white" stroke="#505050" paint-order="fill stroke markers" d=" M 265.9312515258789 140.7593765258789 L 265.9312515258789 241.25624084472656 Q 265.9312515258789 249.25624084472656 273.9312515258789 249.25624084472656 L 406.05312156677246 249.25624084472656 Q 414.05312156677246 249.25624084472656 414.05312156677246 241.25624084472656 L 414.05312156677246 140.7593765258789 Q 414.05312156677246 132.7593765258789 406.05312156677246 132.7593765258789 L 273.9312515258789 132.7593765258789 Q 265.9312515258789 132.7593765258789 265.9312515258789 140.7593765258789" stroke-miterlimit="10" stroke-width="0.5" stroke-dasharray=""/><path fill="none" stroke="#505050" paint-order="fill stroke markers" d=" M 265.9312515258789 152.7593765258789 L 414.05312156677246 152.7593765258789" stroke-miterlimit="10" stroke-width="0.5" stroke-dasharray=""/><text fill="#505050" stroke="none" font-family="monospace" font-size="14px" font-style="normal" font-weight="normal" text-decoration="normal" x="273.9312515258789" y="146.7593765258789" text-anchor="start" dominant-baseline="alphabetic">New State</text><path fill="white" stroke="#505050" paint-order="fill stroke markers" d=" M 306.05312156677246 189.25624084472656 L 306.05312156677246 233.25624084472656 Q 306.05312156677246 241.25624084472656 314.05312156677246 241.25624084472656 L 398.05312156677246 241.25624084472656 Q 406.05312156677246 241.25624084472656 406.05312156677246 233.25624084472656 L 406.05312156677246 189.25624084472656 Q 406.05312156677246 181.25624084472656 398.05312156677246 181.25624084472656 L 314.05312156677246 181.25624084472656 Q 306.05312156677246 181.25624084472656 306.05312156677246 189.25624084472656" stroke-miterlimit="10" stroke-width="0.5" stroke-dasharray=""/><path fill="none" stroke="#505050" paint-order="fill stroke markers" d=" M 306.05312156677246 201.25624084472656 L 406.05312156677246 201.25624084472656" stroke-miterlimit="10" stroke-width="0.5" stroke-dasharray=""/><text fill="#505050" stroke="none" font-family="monospace" font-size="14px" font-style="normal" font-weight="normal" text-decoration="normal" x="314.05312156677246" y="195.25624084472656" text-anchor="start" dominant-baseline="alphabetic">New State</text><path fill="#505050" stroke="#505050" paint-order="fill stroke markers" d=" M 289.9312515258789 165.92813301086426 A 8 8 0 1 1 289.93124752587926 165.9201330121976" stroke-miterlimit="10" stroke-width="0.25" stroke-dasharray=""/></g></g></svg>