<svg version="1.1" xmlns="http://www.w3.org/2000/svg" xmlns:xlink="http://www.w3.org/1999/xlink" width="603.7125244140625" height="263.86875915527344"><defs/><g transform="scale(1.5,1.5) translate(-266.0125198364258,-107.75626373291016)"><g><path fill="white" stroke="#505050" paint-order="fill stroke markers" d=" M 268.0125198364258 117.75626373291016 L 268.0125198364258 231.69064331054688 Q 268.0125198364258 239.69064331054688 276.0125198364258 239.69064331054688 L 559.868782043457 239.69064331054688 Q 567.868782043457 239.69064331054688 567.868782043457 231.69064331054688 L 567.868782043457 117.75626373291016 Q 567.868782043457 109.75626373291016 559.868782043457 109.75626373291016 L 276.0125198364258 109.75626373291016 Q 268.0125198364258 109.75626373291016 268.0125198364258 117.75626373291016" stroke-miterlimit="10" stroke-width="0.5" stroke-dasharray=""/><path fill="none" stroke="#505050" paint-order="fill stroke markers" d=" M 268.0125198364258 129.75626373291016 L 567.868782043457 129.75626373291016" stroke-miterlimit="10" stroke-width="0.5" stroke-dasharray=""/><text fill="#505050" stroke="none" font-family="monospace" font-size="14px" font-style="normal" font-weight="normal" text-decoration="normal" x="276.0125198364258" y="123.75626373291016" text-anchor="start" dominant-baseline="alphabetic">New State</text><path fill="white" stroke="#505050" paint-order="fill stroke markers" d=" M 308.13438987731934 166.2531280517578 L 308.13438987731934 210.2531280517578 Q 308.13438987731934 218.2531280517578 316.13438987731934 218.2531280517578 L 400.13438987731934 218.2531280517578 Q 408.13438987731934 218.2531280517578 408.13438987731934 210.2531280517578 L 408.13438987731934 166.2531280517578 Q 408.13438987731934 158.2531280517578 400.13438987731934 158.2531280517578 L 316.13438987731934 158.2531280517578 Q 308.13438987731934 158.2531280517578 308.13438987731934 166.2531280517578" stroke-miterlimit="10" stroke-width="0.5" stroke-dasharray=""/><path fill="none" stroke="#505050" paint-order="fill stroke markers" d=" M 308.13438987731934 178.2531280517578 L 408.13438987731934 178.2531280517578" stroke-miterlimit="10" stroke-width="0.5" stroke-dasharray=""/><text fill="#505050" stroke="none" font-family="monospace" font-size="14px" font-style="normal" font-weight="normal" text-decoration="normal" x="316.13438987731934" y="172.2531280517578" text-anchor="start" dominant-baseline="alphabetic">New State</text><path fill="#505050" stroke="#505050" paint-order="fill stroke markers" d=" M 292.0125198364258 142.9250202178955 A 8 8 0 1 1 292.01251583642613 142.91702021922885" stroke-miterlimit="10" stroke-width="0.25" stroke-dasharray=""/><path fill="white" stroke="#505050" paint-order="fill stroke markers" d=" M 459.86878204345703 179.69064331054688 L 459.86878204345703 223.69064331054688 Q 459.86878204345703 231.69064331054688 467.86878204345703 231.69064331054688 L 551.868782043457 231.69064331054688 Q 559.868782043457 231.69064331054688 559.868782043457 223.69064331054688 L 559.868782043457 179.69064331054688 Q 559.868782043457 171.69064331054688 551.868782043457 171.69064331054688 L 467.86878204345703 171.69064331054688 Q 459.86878204345703 171.69064331054688 459.86878204345703 179.69064331054688" stroke-miterlimit="10" stroke-width="0.5" stroke-dasharray=""/><path fill="none" stroke="#505050" paint-order="fill stroke markers" d=" M 459.86878204345703 191.69064331054688 L 559.868782043457 191.69064331054688" stroke-miterlimit="10" stroke-width="0.5" stroke-dasharray=""/><text fill="#505050" stroke="none" font-family="monospace" font-size="14px" font-style="normal" font-weight="normal" text-decoration="normal" x="467.86878204345703" y="185.69064331054688" text-anchor="start" dominant-baseline="alphabetic">New State</text><path fill="white" stroke="#505050" paint-order="fill stroke markers" d=" M 558.2375526428223 144.57813453674316 A 8 8 0 1 1 558.2375486428226 144.5701345380765" stroke-miterlimit="10" stroke-width="0.25" stroke-dasharray=""/><path fill="#505050" stroke="none" paint-order="stroke fill markers" d=" M 554.2375526428223 144.57813453674316 A 4 4 0 1 1 554.2375506428224 144.57413453740983"/><path fill="none" stroke="#505050" paint-order="fill stroke markers" d=" M 290.50219526371853 147.60306605439527 C 293.1042568130528 149.47874740911863 307.1879510233354 159.50240563255915 309.7484281472632 161.43446716077798 M 306.62751573452454 154.06852596416138 L 309.7484281472632 161.43446716077798 L 301.8088548435447 160.45448769421753" stroke-miterlimit="10" stroke-dasharray=""/><path fill="none" stroke="#505050" paint-order="fill stroke markers" d=" M 408.13438987731934 186.46539685006718 C 411.3343898773193 186.46539685006718 456.66878204345704 186.5352100160212 459.86878204345703 186.5352100160212 M 452.94078204345703 182.5352100160212 L 459.86878204345703 186.5352100160212 L 452.94078204345703 190.5352100160212" stroke-miterlimit="10" stroke-dasharray=""/><path fill="none" stroke="#505050" paint-order="fill stroke markers" d=" M 459.86878204345703 207.70759742502372 C 456.66878204345704 207.70759742502372 411.3343898773193 207.1072067713217 408.13438987731934 207.1072067713217 M 415.06238987731933 211.1072067713217 L 408.13438987731934 207.1072067713217 L 415.06238987731933 203.1072067713217" stroke-miterlimit="10" stroke-dasharray=""/><path fill="none" stroke="#505050" paint-order="fill stroke markers" d=" M 529.2082171552097 171.69064331054688 C 529.2082171552097 160.1693735722083 537.1065603766217 159.02309955234483 544.856348472312 150.4978171021585 M 537.2363843779424 152.93366011855304 L 544.856348472312 150.4978171021585 L 543.1560669433577 158.31486428906337" stroke-miterlimit="10" stroke-dasharray=""/></g></g></svg>