<svg version="1.1" xmlns="http://www.w3.org/2000/svg" xmlns:xlink="http://www.w3.org/1999/xlink" width="72" height="75.10866355895996"><defs/><g transform="translate(-460.9176139831543,-139.83026123046875)"><g><path fill="white" stroke="#505050" paint-order="fill stroke markers" d=" M 468.9176139831543 155.83026123046875 L 468.9176139831543 198.9389247894287 Q 468.9176139831543 206.9389247894287 476.9176139831543 206.9389247894287 L 516.9176139831543 206.9389247894287 Q 524.9176139831543 206.9389247894287 524.9176139831543 198.9389247894287 L 524.9176139831543 155.83026123046875 Q 524.9176139831543 147.83026123046875 516.9176139831543 147.83026123046875 L 476.9176139831543 147.83026123046875 Q 468.9176139831543 147.83026123046875 468.9176139831543 155.83026123046875" stroke-miterlimit="10" stroke-width="0.5" stroke-dasharray=""/><path fill="#F0F0F0" stroke="#505050" paint-order="fill stroke markers" d=" M 508.9176139831543 155.83026123046875 L 524.9176139831543 155.83026123046875 L 524.9176139831543 183.83026123046875 L 508.9176139831543 183.83026123046875 L 508.9176139831543 155.83026123046875 Z" stroke-miterlimit="10" stroke-width="0.5" stroke-dasharray="6,3"/><path fill="none" stroke="none"/><path fill="none" stroke="#505050" paint-order="fill stroke markers" d=" M 516.9176139831543 159.83026123046875 L 524.9176139831543 159.83026123046875 L 524.9176139831543 167.83026123046875 L 516.9176139831543 167.83026123046875 L 516.9176139831543 159.83026123046875 Z" stroke-miterlimit="10" stroke-width="0.5"/><path fill="none" stroke="#505050" paint-order="fill stroke markers" d=" M 516.9176139831543 171.83026123046875 L 524.9176139831543 171.83026123046875 L 524.9176139831543 179.83026123046875 L 516.9176139831543 179.83026123046875 L 516.9176139831543 171.83026123046875 Z" stroke-miterlimit="10" stroke-width="0.5"/><path fill="none" stroke="#505050" paint-order="fill stroke markers" d="" stroke-miterlimit="10"/><path fill="white" stroke="#505050" paint-order="fill stroke markers" d=" M 475.8458786010742 153.65696716308594 L 483.8458786010742 153.65696716308594 L 491.8458786010742 161.65696716308594 L 483.8458786010742 169.65696716308594 L 475.8458786010742 169.65696716308594 L 475.8458786010742 153.65696716308594" stroke-miterlimit="10" stroke-width="0.5"/><path fill="none" stroke="none"/><path fill="none" stroke="#505050" paint-order="fill stroke markers" d=" M 475.8458786010742 157.65696716308594 L 483.8458786010742 157.65696716308594 L 483.8458786010742 165.65696716308594 L 475.8458786010742 165.65696716308594 L 475.8458786010742 157.65696716308594 Z" stroke-miterlimit="10" stroke-width="0.5"/><path fill="white" stroke="#505050" paint-order="fill stroke markers" d=" M 475.2386074066162 173.9517116546631 L 483.2386074066162 173.9517116546631 L 491.2386074066162 181.9517116546631 L 483.2386074066162 189.9517116546631 L 475.2386074066162 189.9517116546631 L 475.2386074066162 173.9517116546631" stroke-miterlimit="10" stroke-width="0.5"/><path fill="none" stroke="none"/><path fill="none" stroke="#505050" paint-order="fill stroke markers" d=" M 475.2386074066162 177.9517116546631 L 483.2386074066162 177.9517116546631 L 483.2386074066162 185.9517116546631 L 475.2386074066162 185.9517116546631 L 475.2386074066162 177.9517116546631 Z" stroke-miterlimit="10" stroke-width="0.5"/></g></g></svg>