<svg version="1.1" xmlns="http://www.w3.org/2000/svg" xmlns:xlink="http://www.w3.org/1999/xlink" width="647.76953125" height="746.0003662109375"><defs/><g transform="translate(-405.9161682128906,-118.85867309570312)"><g><path fill="white" stroke="#505050" paint-order="fill stroke markers" d=" M 414.97412109375 343.19580459594727 L 414.97412109375 481.6951370239258 Q 414.97412109375 489.6951370239258 422.97412109375 489.6951370239258 L 750.5946960449219 489.6951370239258 Q 758.5946960449219 489.6951370239258 758.5946960449219 481.6951370239258 L 758.5946960449219 343.19580459594727 Q 758.5946960449219 335.19580459594727 750.5946960449219 335.19580459594727 L 422.97412109375 335.19580459594727 Q 414.97412109375 335.19580459594727 414.97412109375 343.19580459594727" stroke-miterlimit="10" stroke-width="0.5" stroke-dasharray=""/><path fill="#F0F0F0" stroke="#505050" paint-order="fill stroke markers" d=" M 708.5946960449219 343.19580459594727 L 758.5946960449219 343.19580459594727 L 758.5946960449219 425.19580459594727 L 708.5946960449219 425.19580459594727 L 708.5946960449219 343.19580459594727 Z" stroke-miterlimit="10" stroke-width="0.5" stroke-dasharray=""/><path fill="none" stroke="none"/><text fill="#505050" stroke="none" font-family="monospace" font-size="14px" font-style="normal" font-weight="normal" text-decoration="normal" x="733.5946960449219" y="361.19580459594727" text-anchor="middle" dominant-baseline="text-after-edge">split</text><path fill="none" stroke="#505050" paint-order="fill stroke markers" d=" M 708.5946960449219 361.19580459594727 L 724.5946960449219 361.19580459594727 L 724.5946960449219 389.19580459594727 L 708.5946960449219 389.19580459594727 L 708.5946960449219 361.19580459594727 Z" stroke-miterlimit="10" stroke-width="0.5" stroke-dasharray=""/><path fill="none" stroke="none"/><path fill="none" stroke="#505050" paint-order="fill stroke markers" d=" M 716.5946960449219 365.19580459594727 L 724.5946960449219 365.19580459594727 L 724.5946960449219 373.19580459594727 L 716.5946960449219 373.19580459594727 L 716.5946960449219 365.19580459594727 Z" stroke-miterlimit="10" stroke-width="0.5" stroke-dasharray=""/><path fill="none" stroke="#505050" paint-order="fill stroke markers" d=" M 716.5946960449219 377.19580459594727 L 724.5946960449219 377.19580459594727 L 724.5946960449219 385.19580459594727 L 716.5946960449219 385.19580459594727 L 716.5946960449219 377.19580459594727 Z" stroke-miterlimit="10" stroke-width="0.5" stroke-dasharray=""/><path fill="none" stroke="#505050" paint-order="fill stroke markers" d=" M 742.5946960449219 361.19580459594727 L 758.5946960449219 361.19580459594727 L 758.5946960449219 389.19580459594727 L 742.5946960449219 389.19580459594727 L 742.5946960449219 361.19580459594727 Z" stroke-miterlimit="10" stroke-width="0.5" stroke-dasharray=""/><path fill="none" stroke="none"/><path fill="none" stroke="#505050" paint-order="fill stroke markers" d=" M 750.5946960449219 365.19580459594727 L 758.5946960449219 365.19580459594727 L 758.5946960449219 373.19580459594727 L 750.5946960449219 373.19580459594727 L 750.5946960449219 365.19580459594727 Z" stroke-miterlimit="10" stroke-width="0.5" stroke-dasharray=""/><path fill="none" stroke="#505050" paint-order="fill stroke markers" d=" M 750.5946960449219 377.19580459594727 L 758.5946960449219 377.19580459594727 L 758.5946960449219 385.19580459594727 L 750.5946960449219 385.19580459594727 L 750.5946960449219 377.19580459594727 Z" stroke-miterlimit="10" stroke-width="0.5" stroke-dasharray=""/><path fill="none" stroke="#505050" paint-order="fill stroke markers" d=" M 742.5946960449219 393.19580459594727 L 758.5946960449219 393.19580459594727 L 758.5946960449219 421.19580459594727 L 742.5946960449219 421.19580459594727 L 742.5946960449219 393.19580459594727 Z" stroke-miterlimit="10" stroke-width="0.5" stroke-dasharray=""/><path fill="none" stroke="none"/><path fill="none" stroke="#505050" paint-order="fill stroke markers" d=" M 750.5946960449219 397.19580459594727 L 758.5946960449219 397.19580459594727 L 758.5946960449219 405.19580459594727 L 750.5946960449219 405.19580459594727 L 750.5946960449219 397.19580459594727 Z" stroke-miterlimit="10" stroke-width="0.5" stroke-dasharray=""/><path fill="none" stroke="#505050" paint-order="fill stroke markers" d=" M 750.5946960449219 409.19580459594727 L 758.5946960449219 409.19580459594727 L 758.5946960449219 417.19580459594727 L 750.5946960449219 417.19580459594727 L 750.5946960449219 409.19580459594727 Z" stroke-miterlimit="10" stroke-width="0.5" stroke-dasharray=""/><path fill="none" stroke="#505050" paint-order="fill stroke markers" d=" M 687.5127372741699 367.71943759918213 L 695.5127372741699 367.71943759918213 M 686.2378807067871 430.56389713287354 L 694.2378807067871 430.56389713287354" stroke-miterlimit="10" stroke-dasharray=""/><path fill="white" stroke="#505050" paint-order="fill stroke markers" d=" M 425.7670316696167 351.5845060348511 L 441.7670316696167 351.5845060348511 L 441.7670316696167 379.5845060348511 L 425.7670316696167 379.5845060348511 L 425.7670316696167 351.5845060348511 Z" stroke-miterlimit="10" stroke-width="0.5" stroke-dasharray="6,3"/><path fill="#F0F0F0" stroke="none" paint-order="stroke fill markers" d=""/><path fill="none" stroke="none"/><path fill="none" stroke="#505050" paint-order="fill stroke markers" d=" M 433.7670316696167 355.5845060348511 L 441.7670316696167 355.5845060348511 L 441.7670316696167 363.5845060348511 L 433.7670316696167 363.5845060348511 L 433.7670316696167 355.5845060348511 Z" stroke-miterlimit="10" stroke-width="0.5"/><path fill="none" stroke="#505050" paint-order="fill stroke markers" d=" M 433.7670316696167 367.5845060348511 L 441.7670316696167 367.5845060348511 L 441.7670316696167 375.5845060348511 L 433.7670316696167 375.5845060348511 L 433.7670316696167 367.5845060348511 Z" stroke-miterlimit="10" stroke-width="0.5"/><path fill="white" stroke="#505050" paint-order="fill stroke markers" d=" M 631.5127372741699 353.71943759918213 L 631.5127372741699 392.3994827270508 Q 631.5127372741699 400.3994827270508 639.5127372741699 400.3994827270508 L 679.5127372741699 400.3994827270508 Q 687.5127372741699 400.3994827270508 687.5127372741699 392.3994827270508 L 687.5127372741699 353.71943759918213 Q 687.5127372741699 345.71943759918213 679.5127372741699 345.71943759918213 L 639.5127372741699 345.71943759918213 Q 631.5127372741699 345.71943759918213 631.5127372741699 353.71943759918213" stroke-miterlimit="10" stroke-width="0.5"/><path fill="#F0F0F0" stroke="#505050" paint-order="fill stroke markers" d=" M 671.5127372741699 353.71943759918213 L 687.5127372741699 353.71943759918213 L 687.5127372741699 381.71943759918213 L 671.5127372741699 381.71943759918213 L 671.5127372741699 353.71943759918213 Z" stroke-miterlimit="10" stroke-width="0.5"/><path fill="none" stroke="none"/><path fill="none" stroke="#505050" paint-order="fill stroke markers" d=" M 679.5127372741699 357.71943759918213 L 687.5127372741699 357.71943759918213 L 687.5127372741699 365.71943759918213 L 679.5127372741699 365.71943759918213 L 679.5127372741699 357.71943759918213 Z" stroke-miterlimit="10" stroke-width="0.5"/><path fill="none" stroke="#505050" paint-order="fill stroke markers" d=" M 679.5127372741699 369.71943759918213 L 687.5127372741699 369.71943759918213 L 687.5127372741699 377.71943759918213 L 679.5127372741699 377.71943759918213 L 679.5127372741699 369.71943759918213 Z" stroke-miterlimit="10" stroke-width="0.5"/><path fill="white" stroke="#505050" paint-order="fill stroke markers" d=" M 641.2802429199219 352.178466796875 L 649.2802429199219 352.178466796875 L 657.2802429199219 360.178466796875 L 649.2802429199219 368.178466796875 L 641.2802429199219 368.178466796875 L 641.2802429199219 352.178466796875" stroke-miterlimit="10" stroke-width="0.5"/><path fill="none" stroke="none"/><path fill="none" stroke="#505050" paint-order="fill stroke markers" d=" M 641.2802429199219 356.178466796875 L 649.2802429199219 356.178466796875 L 649.2802429199219 364.178466796875 L 641.2802429199219 364.178466796875 L 641.2802429199219 356.178466796875 Z" stroke-miterlimit="10" stroke-width="0.5"/><path fill="white" stroke="#505050" paint-order="fill stroke markers" d=" M 639.9574890136719 368.3994827270508 L 647.9574890136719 368.3994827270508 L 655.9574890136719 376.3994827270508 L 647.9574890136719 384.3994827270508 L 639.9574890136719 384.3994827270508 L 639.9574890136719 368.3994827270508" stroke-miterlimit="10" stroke-width="0.5"/><path fill="none" stroke="none"/><path fill="none" stroke="#505050" paint-order="fill stroke markers" d=" M 639.9574890136719 372.3994827270508 L 647.9574890136719 372.3994827270508 L 647.9574890136719 380.3994827270508 L 639.9574890136719 380.3994827270508 L 639.9574890136719 372.3994827270508 Z" stroke-miterlimit="10" stroke-width="0.5"/><path fill="white" stroke="#505050" paint-order="fill stroke markers" d=" M 630.2378807067871 416.56389713287354 L 630.2378807067871 454.6754913330078 Q 630.2378807067871 462.6754913330078 638.2378807067871 462.6754913330078 L 678.2378807067871 462.6754913330078 Q 686.2378807067871 462.6754913330078 686.2378807067871 454.6754913330078 L 686.2378807067871 416.56389713287354 Q 686.2378807067871 408.56389713287354 678.2378807067871 408.56389713287354 L 638.2378807067871 408.56389713287354 Q 630.2378807067871 408.56389713287354 630.2378807067871 416.56389713287354" stroke-miterlimit="10" stroke-width="0.5"/><path fill="#F0F0F0" stroke="#505050" paint-order="fill stroke markers" d=" M 670.2378807067871 416.56389713287354 L 686.2378807067871 416.56389713287354 L 686.2378807067871 444.56389713287354 L 670.2378807067871 444.56389713287354 L 670.2378807067871 416.56389713287354 Z" stroke-miterlimit="10" stroke-width="0.5"/><path fill="none" stroke="none"/><path fill="none" stroke="#505050" paint-order="fill stroke markers" d=" M 678.2378807067871 420.56389713287354 L 686.2378807067871 420.56389713287354 L 686.2378807067871 428.56389713287354 L 678.2378807067871 428.56389713287354 L 678.2378807067871 420.56389713287354 Z" stroke-miterlimit="10" stroke-width="0.5"/><path fill="none" stroke="#505050" paint-order="fill stroke markers" d=" M 678.2378807067871 432.56389713287354 L 686.2378807067871 432.56389713287354 L 686.2378807067871 440.56389713287354 L 678.2378807067871 440.56389713287354 L 678.2378807067871 432.56389713287354 Z" stroke-miterlimit="10" stroke-width="0.5"/><path fill="white" stroke="#505050" paint-order="fill stroke markers" d=" M 635.8578491210938 430.6754913330078 L 643.8578491210938 430.6754913330078 L 651.8578491210938 438.6754913330078 L 643.8578491210938 446.6754913330078 L 635.8578491210938 446.6754913330078 L 635.8578491210938 430.6754913330078" stroke-miterlimit="10" stroke-width="0.5"/><path fill="none" stroke="none"/><path fill="none" stroke="#505050" paint-order="fill stroke markers" d=" M 635.8578491210938 434.6754913330078 L 643.8578491210938 434.6754913330078 L 643.8578491210938 442.6754913330078 L 635.8578491210938 442.6754913330078 L 635.8578491210938 434.6754913330078 Z" stroke-miterlimit="10" stroke-width="0.5"/><path fill="white" stroke="#505050" paint-order="fill stroke markers" d=" M 636.4971618652344 413.25575256347656 L 644.4971618652344 413.25575256347656 L 652.4971618652344 421.25575256347656 L 644.4971618652344 429.25575256347656 L 636.4971618652344 429.25575256347656 L 636.4971618652344 413.25575256347656" stroke-miterlimit="10" stroke-width="0.5"/><path fill="none" stroke="none"/><path fill="none" stroke="#505050" paint-order="fill stroke markers" d=" M 636.4971618652344 417.25575256347656 L 644.4971618652344 417.25575256347656 L 644.4971618652344 425.25575256347656 L 636.4971618652344 425.25575256347656 L 636.4971618652344 417.25575256347656 Z" stroke-miterlimit="10" stroke-width="0.5"/><path fill="white" stroke="#505050" paint-order="fill stroke markers" d=" M 483.85644817352295 393.07026290893555 L 516.856448173523 393.07026290893555 L 516.856448173523 435.07026290893555 L 483.85644817352295 435.07026290893555 L 483.85644817352295 393.07026290893555 Z" stroke-miterlimit="10" stroke-width="0.5"/><path fill="#F0F0F0" stroke="none" paint-order="stroke fill markers" d=""/><path fill="none" stroke="none"/><text fill="#505050" stroke="none" font-family="monospace" font-size="14px" font-style="normal" font-weight="normal" text-decoration="normal" x="500.35644817352295" y="411.07026290893555" text-anchor="middle" dominant-baseline="text-after-edge">mid</text><path fill="none" stroke="#505050" paint-order="fill stroke markers" d=" M 483.85644817352295 411.07026290893555 L 491.85644817352295 411.07026290893555 L 491.85644817352295 419.07026290893555 L 483.85644817352295 419.07026290893555 L 483.85644817352295 411.07026290893555 Z" stroke-miterlimit="10" stroke-width="0.5"/><path fill="none" stroke="#505050" paint-order="fill stroke markers" d=" M 483.85644817352295 423.07026290893555 L 491.85644817352295 423.07026290893555 L 491.85644817352295 431.07026290893555 L 483.85644817352295 431.07026290893555 L 483.85644817352295 423.07026290893555 Z" stroke-miterlimit="10" stroke-width="0.5"/><path fill="none" stroke="#505050" paint-order="fill stroke markers" d=" M 508.85644817352295 411.07026290893555 L 516.856448173523 411.07026290893555 L 516.856448173523 419.07026290893555 L 508.85644817352295 419.07026290893555 L 508.85644817352295 411.07026290893555 Z" stroke-miterlimit="10" stroke-width="0.5"/><path fill="white" stroke="#505050" paint-order="fill stroke markers" d=" M 546.5159683227539 428.46800231933594 L 570.5159683227539 428.46800231933594 L 570.5159683227539 470.46800231933594 L 546.5159683227539 470.46800231933594 L 546.5159683227539 428.46800231933594 Z" stroke-miterlimit="10" stroke-width="0.5"/><path fill="#F0F0F0" stroke="none" paint-order="stroke fill markers" d=""/><path fill="none" stroke="none"/><text fill="#505050" stroke="none" font-family="monospace" font-size="14px" font-style="normal" font-weight="normal" text-decoration="normal" x="558.5159683227539" y="446.46800231933594" text-anchor="middle" dominant-baseline="text-after-edge">+</text><path fill="none" stroke="#505050" paint-order="fill stroke markers" d=" M 546.5159683227539 446.46800231933594 L 554.5159683227539 446.46800231933594 L 554.5159683227539 454.46800231933594 L 546.5159683227539 454.46800231933594 L 546.5159683227539 446.46800231933594 Z" stroke-miterlimit="10" stroke-width="0.5"/><path fill="none" stroke="#505050" paint-order="fill stroke markers" d=" M 546.5159683227539 458.46800231933594 L 554.5159683227539 458.46800231933594 L 554.5159683227539 466.46800231933594 L 546.5159683227539 466.46800231933594 L 546.5159683227539 458.46800231933594 Z" stroke-miterlimit="10" stroke-width="0.5"/><path fill="none" stroke="#505050" paint-order="fill stroke markers" d=" M 562.5159683227539 446.46800231933594 L 570.5159683227539 446.46800231933594 L 570.5159683227539 454.46800231933594 L 562.5159683227539 454.46800231933594 L 562.5159683227539 446.46800231933594 Z" stroke-miterlimit="10" stroke-width="0.5"/><path fill="white" stroke="#505050" paint-order="fill stroke markers" d=" M 499.0722122192383 455.6951370239258 L 531.0722122192383 455.6951370239258 L 531.0722122192383 473.6951370239258 L 499.0722122192383 473.6951370239258 L 499.0722122192383 455.6951370239258 Z" stroke-miterlimit="10" stroke-width="0.5"/><path fill="#F0F0F0" stroke="none" paint-order="stroke fill markers" d=""/><path fill="none" stroke="none"/><path fill="none" stroke="#505050" paint-order="fill stroke markers" d=" M 523.0722122192383 459.6951370239258 L 531.0722122192383 459.6951370239258 L 531.0722122192383 467.6951370239258 L 523.0722122192383 467.6951370239258 L 523.0722122192383 459.6951370239258 Z" stroke-miterlimit="10" stroke-width="0.5"/><text fill="#505050" stroke="none" font-family="monospace" font-size="14px" font-style="normal" font-weight="normal" text-decoration="normal" x="515.0722122192383" y="473.6951370239258" text-anchor="end" dominant-baseline="text-after-edge">1</text><path fill="white" stroke="#505050" paint-order="fill stroke markers" d=" M 415.66546630859375 134.85867309570312 L 415.66546630859375 180.23297119140625 Q 415.66546630859375 188.23297119140625 423.66546630859375 188.23297119140625 L 460.1747169494629 188.23297119140625 Q 468.1747169494629 188.23297119140625 468.1747169494629 180.23297119140625 L 468.1747169494629 134.85867309570312 Q 468.1747169494629 126.85867309570312 460.1747169494629 126.85867309570312 L 423.66546630859375 126.85867309570312 Q 415.66546630859375 126.85867309570312 415.66546630859375 134.85867309570312" stroke-miterlimit="10" stroke-width="0.5"/><path fill="#F0F0F0" stroke="#505050" paint-order="fill stroke markers" d=" M 452.1747169494629 134.85867309570312 L 468.1747169494629 134.85867309570312 L 468.1747169494629 162.85867309570312 L 452.1747169494629 162.85867309570312 L 452.1747169494629 134.85867309570312 Z" stroke-miterlimit="10" stroke-width="0.5" stroke-dasharray="6,3"/><path fill="none" stroke="none"/><path fill="none" stroke="#505050" paint-order="fill stroke markers" d=" M 460.1747169494629 138.85867309570312 L 468.1747169494629 138.85867309570312 L 468.1747169494629 146.85867309570312 L 460.1747169494629 146.85867309570312 L 460.1747169494629 138.85867309570312 Z" stroke-miterlimit="10" stroke-width="0.5"/><path fill="none" stroke="#505050" paint-order="fill stroke markers" d=" M 460.1747169494629 150.85867309570312 L 468.1747169494629 150.85867309570312 L 468.1747169494629 158.85867309570312 L 460.1747169494629 158.85867309570312 L 460.1747169494629 150.85867309570312 Z" stroke-miterlimit="10" stroke-width="0.5"/><path fill="none" stroke="#505050" paint-order="fill stroke markers" d="" stroke-miterlimit="10"/><path fill="white" stroke="#505050" paint-order="fill stroke markers" d=" M 423.5116882324219 132.41549682617188 L 431.5116882324219 132.41549682617188 L 439.5116882324219 140.41549682617188 L 431.5116882324219 148.41549682617188 L 423.5116882324219 148.41549682617188 L 423.5116882324219 132.41549682617188" stroke-miterlimit="10" stroke-width="0.5"/><path fill="none" stroke="none"/><path fill="none" stroke="#505050" paint-order="fill stroke markers" d=" M 423.5116882324219 136.41549682617188 L 431.5116882324219 136.41549682617188 L 431.5116882324219 144.41549682617188 L 423.5116882324219 144.41549682617188 L 423.5116882324219 136.41549682617188 Z" stroke-miterlimit="10" stroke-width="0.5"/><path fill="white" stroke="#505050" paint-order="fill stroke markers" d=" M 422.13739013671875 156.23297119140625 L 430.13739013671875 156.23297119140625 L 438.13739013671875 164.23297119140625 L 430.13739013671875 172.23297119140625 L 422.13739013671875 172.23297119140625 L 422.13739013671875 156.23297119140625" stroke-miterlimit="10" stroke-width="0.5"/><path fill="none" stroke="none"/><path fill="none" stroke="#505050" paint-order="fill stroke markers" d=" M 422.13739013671875 160.23297119140625 L 430.13739013671875 160.23297119140625 L 430.13739013671875 168.23297119140625 L 422.13739013671875 168.23297119140625 L 422.13739013671875 160.23297119140625 Z" stroke-miterlimit="10" stroke-width="0.5"/><path fill="white" stroke="#505050" paint-order="fill stroke markers" d=" M 414.2002286911011 218.94893169403076 L 414.2002286911011 312.3315315246582 Q 414.2002286911011 320.3315315246582 422.2002286911011 320.3315315246582 L 739.3763580322266 320.3315315246582 Q 747.3763580322266 320.3315315246582 747.3763580322266 312.3315315246582 L 747.3763580322266 218.94893169403076 Q 747.3763580322266 210.94893169403076 739.3763580322266 210.94893169403076 L 422.2002286911011 210.94893169403076 Q 414.2002286911011 210.94893169403076 414.2002286911011 218.94893169403076" stroke-miterlimit="10" stroke-width="0.5"/><path fill="#F0F0F0" stroke="#505050" paint-order="fill stroke markers" d=" M 714.3763580322266 218.94893169403076 L 747.3763580322266 218.94893169403076 L 747.3763580322266 260.94893169403076 L 714.3763580322266 260.94893169403076 L 714.3763580322266 218.94893169403076 Z" stroke-miterlimit="10" stroke-width="0.5"/><path fill="none" stroke="none"/><text fill="#505050" stroke="none" font-family="monospace" font-size="14px" font-style="normal" font-weight="normal" text-decoration="normal" x="730.8763580322266" y="236.94893169403076" text-anchor="middle" dominant-baseline="text-after-edge">mid</text><path fill="none" stroke="#505050" paint-order="fill stroke markers" d=" M 714.3763580322266 236.94893169403076 L 722.3763580322266 236.94893169403076 L 722.3763580322266 244.94893169403076 L 714.3763580322266 244.94893169403076 L 714.3763580322266 236.94893169403076 Z" stroke-miterlimit="10" stroke-width="0.5"/><path fill="none" stroke="#505050" paint-order="fill stroke markers" d=" M 714.3763580322266 248.94893169403076 L 722.3763580322266 248.94893169403076 L 722.3763580322266 256.94893169403076 L 714.3763580322266 256.94893169403076 L 714.3763580322266 248.94893169403076 Z" stroke-miterlimit="10" stroke-width="0.5"/><path fill="none" stroke="#505050" paint-order="fill stroke markers" d=" M 739.3763580322266 236.94893169403076 L 747.3763580322266 236.94893169403076 L 747.3763580322266 244.94893169403076 L 739.3763580322266 244.94893169403076 L 739.3763580322266 236.94893169403076 Z" stroke-miterlimit="10" stroke-width="0.5"/><path fill="none" stroke="#505050" paint-order="fill stroke markers" d=" M 693.5426177978516 248.82738494873047 L 701.5426177978516 248.82738494873047" stroke-miterlimit="10"/><path fill="white" stroke="#505050" paint-order="fill stroke markers" d=" M 669.5426177978516 226.82738494873047 L 693.5426177978516 226.82738494873047 L 693.5426177978516 268.82738494873047 L 669.5426177978516 268.82738494873047 L 669.5426177978516 226.82738494873047 Z" stroke-miterlimit="10" stroke-width="0.5"/><path fill="#F0F0F0" stroke="none" paint-order="stroke fill markers" d=""/><path fill="none" stroke="none"/><text fill="#505050" stroke="none" font-family="monospace" font-size="14px" font-style="normal" font-weight="normal" text-decoration="normal" x="681.5426177978516" y="244.82738494873047" text-anchor="middle" dominant-baseline="text-after-edge">+</text><path fill="none" stroke="#505050" paint-order="fill stroke markers" d=" M 669.5426177978516 244.82738494873047 L 677.5426177978516 244.82738494873047 L 677.5426177978516 252.82738494873047 L 669.5426177978516 252.82738494873047 L 669.5426177978516 244.82738494873047 Z" stroke-miterlimit="10" stroke-width="0.5"/><path fill="none" stroke="#505050" paint-order="fill stroke markers" d=" M 669.5426177978516 256.82738494873047 L 677.5426177978516 256.82738494873047 L 677.5426177978516 264.82738494873047 L 669.5426177978516 264.82738494873047 L 669.5426177978516 256.82738494873047 Z" stroke-miterlimit="10" stroke-width="0.5"/><path fill="none" stroke="#505050" paint-order="fill stroke markers" d=" M 685.5426177978516 244.82738494873047 L 693.5426177978516 244.82738494873047 L 693.5426177978516 252.82738494873047 L 685.5426177978516 252.82738494873047 L 685.5426177978516 244.82738494873047 Z" stroke-miterlimit="10" stroke-width="0.5"/><path fill="white" stroke="#505050" paint-order="fill stroke markers" d=" M 561.8417053222656 250.29297637939453 L 653.8417053222656 250.29297637939453 L 653.8417053222656 280.29297637939453 L 561.8417053222656 280.29297637939453 L 561.8417053222656 250.29297637939453 Z" stroke-miterlimit="10" stroke-width="0.5"/><path fill="#F0F0F0" stroke="none" paint-order="stroke fill markers" d=""/><path fill="none" stroke="none"/><text fill="#505050" stroke="none" font-family="monospace" font-size="14px" font-style="normal" font-weight="normal" text-decoration="normal" x="607.8417053222656" y="268.29297637939453" text-anchor="middle" dominant-baseline="text-after-edge">Math.floor</text><path fill="none" stroke="#505050" paint-order="fill stroke markers" d=" M 561.8417053222656 268.29297637939453 L 569.8417053222656 268.29297637939453 L 569.8417053222656 276.29297637939453 L 561.8417053222656 276.29297637939453 L 561.8417053222656 268.29297637939453 Z" stroke-miterlimit="10" stroke-width="0.5"/><path fill="none" stroke="#505050" paint-order="fill stroke markers" d=" M 645.8417053222656 268.29297637939453 L 653.8417053222656 268.29297637939453 L 653.8417053222656 276.29297637939453 L 645.8417053222656 276.29297637939453 L 645.8417053222656 268.29297637939453 Z" stroke-miterlimit="10" stroke-width="0.5"/><path fill="white" stroke="#505050" paint-order="fill stroke markers" d=" M 518.3327407836914 250.8674201965332 L 542.3327407836914 250.8674201965332 L 542.3327407836914 292.8674201965332 L 518.3327407836914 292.8674201965332 L 518.3327407836914 250.8674201965332 Z" stroke-miterlimit="10" stroke-width="0.5"/><path fill="#F0F0F0" stroke="none" paint-order="stroke fill markers" d=""/><path fill="none" stroke="none"/><text fill="#505050" stroke="none" font-family="monospace" font-size="14px" font-style="normal" font-weight="normal" text-decoration="normal" x="530.3327407836914" y="268.8674201965332" text-anchor="middle" dominant-baseline="text-after-edge">/</text><path fill="none" stroke="#505050" paint-order="fill stroke markers" d=" M 518.3327407836914 268.8674201965332 L 526.3327407836914 268.8674201965332 L 526.3327407836914 276.8674201965332 L 518.3327407836914 276.8674201965332 L 518.3327407836914 268.8674201965332 Z" stroke-miterlimit="10" stroke-width="0.5"/><path fill="none" stroke="#505050" paint-order="fill stroke markers" d=" M 518.3327407836914 280.8674201965332 L 526.3327407836914 280.8674201965332 L 526.3327407836914 288.8674201965332 L 518.3327407836914 288.8674201965332 L 518.3327407836914 280.8674201965332 Z" stroke-miterlimit="10" stroke-width="0.5"/><path fill="none" stroke="#505050" paint-order="fill stroke markers" d=" M 534.3327407836914 268.8674201965332 L 542.3327407836914 268.8674201965332 L 542.3327407836914 276.8674201965332 L 534.3327407836914 276.8674201965332 L 534.3327407836914 268.8674201965332 Z" stroke-miterlimit="10" stroke-width="0.5"/><path fill="white" stroke="#505050" paint-order="fill stroke markers" d=" M 468.5105781555176 286.3315315246582 L 500.5105781555176 286.3315315246582 L 500.5105781555176 304.3315315246582 L 468.5105781555176 304.3315315246582 L 468.5105781555176 286.3315315246582 Z" stroke-miterlimit="10" stroke-width="0.5"/><path fill="#F0F0F0" stroke="none" paint-order="stroke fill markers" d=""/><path fill="none" stroke="none"/><path fill="none" stroke="#505050" paint-order="fill stroke markers" d=" M 492.5105781555176 290.3315315246582 L 500.5105781555176 290.3315315246582 L 500.5105781555176 298.3315315246582 L 492.5105781555176 298.3315315246582 L 492.5105781555176 290.3315315246582 Z" stroke-miterlimit="10" stroke-width="0.5"/><text fill="#505050" stroke="none" font-family="monospace" font-size="14px" font-style="normal" font-weight="normal" text-decoration="normal" x="484.5105781555176" y="304.3315315246582" text-anchor="end" dominant-baseline="text-after-edge">2</text><path fill="white" stroke="#505050" paint-order="fill stroke markers" d=" M 474.7786865234375 236.70293045043945 L 498.7786865234375 236.70293045043945 L 498.7786865234375 278.70293045043945 L 474.7786865234375 278.70293045043945 L 474.7786865234375 236.70293045043945 Z" stroke-miterlimit="10" stroke-width="0.5"/><path fill="#F0F0F0" stroke="none" paint-order="stroke fill markers" d=""/><path fill="none" stroke="none"/><text fill="#505050" stroke="none" font-family="monospace" font-size="14px" font-style="normal" font-weight="normal" text-decoration="normal" x="486.7786865234375" y="254.70293045043945" text-anchor="middle" dominant-baseline="text-after-edge">-</text><path fill="none" stroke="#505050" paint-order="fill stroke markers" d=" M 474.7786865234375 254.70293045043945 L 482.7786865234375 254.70293045043945 L 482.7786865234375 262.70293045043945 L 474.7786865234375 262.70293045043945 L 474.7786865234375 254.70293045043945 Z" stroke-miterlimit="10" stroke-width="0.5"/><path fill="none" stroke="#505050" paint-order="fill stroke markers" d=" M 474.7786865234375 266.70293045043945 L 482.7786865234375 266.70293045043945 L 482.7786865234375 274.70293045043945 L 474.7786865234375 274.70293045043945 L 474.7786865234375 266.70293045043945 Z" stroke-miterlimit="10" stroke-width="0.5"/><path fill="none" stroke="#505050" paint-order="fill stroke markers" d=" M 490.7786865234375 254.70293045043945 L 498.7786865234375 254.70293045043945 L 498.7786865234375 262.70293045043945 L 490.7786865234375 262.70293045043945 L 490.7786865234375 254.70293045043945 Z" stroke-miterlimit="10" stroke-width="0.5"/><path fill="white" stroke="#505050" paint-order="fill stroke markers" d=" M 421.798282623291 216.52411937713623 L 437.798282623291 216.52411937713623 L 437.798282623291 232.52411937713623 L 421.798282623291 232.52411937713623 L 429.798282623291 224.52411937713623 L 421.798282623291 216.52411937713623" stroke-miterlimit="10" stroke-width="0.5"/><path fill="none" stroke="none"/><path fill="none" stroke="#505050" paint-order="fill stroke markers" d=" M 429.798282623291 220.52411937713623 L 437.798282623291 220.52411937713623 L 437.798282623291 228.52411937713623 L 429.798282623291 228.52411937713623 L 429.798282623291 220.52411937713623 Z" stroke-miterlimit="10" stroke-width="0.5"/><path fill="white" stroke="#505050" paint-order="fill stroke markers" d=" M 422.384220123291 244.29043102264404 L 438.384220123291 244.29043102264404 L 438.384220123291 260.29043102264404 L 422.384220123291 260.29043102264404 L 430.384220123291 252.29043102264404 L 422.384220123291 244.29043102264404" stroke-miterlimit="10" stroke-width="0.5"/><path fill="none" stroke="none"/><path fill="none" stroke="#505050" paint-order="fill stroke markers" d=" M 430.384220123291 248.29043102264404 L 438.384220123291 248.29043102264404 L 438.384220123291 256.29043102264404 L 430.384220123291 256.29043102264404 L 430.384220123291 248.29043102264404 Z" stroke-miterlimit="10" stroke-width="0.5"/><path fill="white" stroke="#505050" paint-order="fill stroke markers" d=" M 413.9161682128906 520.3004455566406 L 413.9161682128906 848.8590393066406 Q 413.9161682128906 856.8590393066406 421.9161682128906 856.8590393066406 L 1037.6856994628906 856.8590393066406 Q 1045.6856994628906 856.8590393066406 1045.6856994628906 848.8590393066406 L 1045.6856994628906 520.3004455566406 Q 1045.6856994628906 512.3004455566406 1037.6856994628906 512.3004455566406 L 421.9161682128906 512.3004455566406 Q 413.9161682128906 512.3004455566406 413.9161682128906 520.3004455566406" stroke-miterlimit="10" stroke-width="0.5"/><path fill="#F0F0F0" stroke="#505050" paint-order="fill stroke markers" d=" M 961.6856994628906 520.3004455566406 L 1045.6856994628906 520.3004455566406 L 1045.6856994628906 590.3004455566406 L 961.6856994628906 590.3004455566406 L 961.6856994628906 520.3004455566406 Z" stroke-miterlimit="10" stroke-width="0.5"/><path fill="none" stroke="none"/><text fill="#505050" stroke="none" font-family="monospace" font-size="14px" font-style="normal" font-weight="normal" text-decoration="normal" x="1003.6856994628906" y="538.3004455566406" text-anchor="middle" dominant-baseline="text-after-edge">binSearch</text><path fill="none" stroke="#505050" paint-order="fill stroke markers" d=" M 961.6856994628906 538.3004455566406 L 977.6856994628906 538.3004455566406 L 977.6856994628906 566.3004455566406 L 961.6856994628906 566.3004455566406 L 961.6856994628906 538.3004455566406 Z" stroke-miterlimit="10" stroke-width="0.5"/><path fill="none" stroke="none"/><path fill="none" stroke="#505050" paint-order="fill stroke markers" d=" M 969.6856994628906 542.3004455566406 L 977.6856994628906 542.3004455566406 L 977.6856994628906 550.3004455566406 L 969.6856994628906 550.3004455566406 L 969.6856994628906 542.3004455566406 Z" stroke-miterlimit="10" stroke-width="0.5"/><path fill="none" stroke="#505050" paint-order="fill stroke markers" d=" M 969.6856994628906 554.3004455566406 L 977.6856994628906 554.3004455566406 L 977.6856994628906 562.3004455566406 L 969.6856994628906 562.3004455566406 L 969.6856994628906 554.3004455566406 Z" stroke-miterlimit="10" stroke-width="0.5"/><path fill="none" stroke="#505050" paint-order="fill stroke markers" d=" M 961.6856994628906 570.3004455566406 L 985.6856994628906 570.3004455566406 L 985.6856994628906 586.3004455566406 L 961.6856994628906 586.3004455566406 L 961.6856994628906 570.3004455566406 Z" stroke-miterlimit="10" stroke-width="0.5"/><path fill="none" stroke="none"/><path fill="none" stroke="#505050" paint-order="fill stroke markers" d=" M 961.6856994628906 574.3004455566406 L 969.6856994628906 574.3004455566406 L 969.6856994628906 582.3004455566406 L 961.6856994628906 582.3004455566406 L 961.6856994628906 574.3004455566406 Z" stroke-miterlimit="10" stroke-width="0.5"/><path fill="none" stroke="#505050" paint-order="fill stroke markers" d=" M 977.6856994628906 574.3004455566406 L 985.6856994628906 574.3004455566406 L 985.6856994628906 582.3004455566406 L 977.6856994628906 582.3004455566406 L 977.6856994628906 574.3004455566406 Z" stroke-miterlimit="10" stroke-width="0.5"/><text fill="#505050" stroke="none" font-family="monospace" font-size="14px" font-style="normal" font-weight="normal" text-decoration="normal" x="993.6856994628906" y="587.3004455566406" text-anchor="start" dominant-baseline="text-after-edge">test</text><path fill="none" stroke="#505050" paint-order="fill stroke markers" d=" M 1037.6856994628906 538.3004455566406 L 1045.6856994628906 538.3004455566406 L 1045.6856994628906 546.3004455566406 L 1037.6856994628906 546.3004455566406 L 1037.6856994628906 538.3004455566406 Z" stroke-miterlimit="10" stroke-width="0.5"/><path fill="white" stroke="#505050" paint-order="fill stroke markers" d=" M 497.4143981933594 531.9627380371094 L 497.4143981933594 657.7752380371094 Q 497.4143981933594 665.7752380371094 505.4143981933594 665.7752380371094 L 826.1643981933594 665.7752380371094 Q 834.1643981933594 665.7752380371094 834.1643981933594 657.7752380371094 L 834.1643981933594 531.9627380371094 Q 834.1643981933594 523.9627380371094 826.1643981933594 523.9627380371094 L 505.4143981933594 523.9627380371094 Q 497.4143981933594 523.9627380371094 497.4143981933594 531.9627380371094" stroke-miterlimit="10" stroke-width="0.5"/><path fill="#F0F0F0" stroke="#505050" paint-order="fill stroke markers" d=" M 794.1643981933594 531.9627380371094 L 834.1643981933594 531.9627380371094 L 834.1643981933594 581.9627380371094 L 794.1643981933594 581.9627380371094 L 794.1643981933594 531.9627380371094 Z" stroke-miterlimit="10" stroke-width="0.5"/><path fill="none" stroke="none"/><text fill="#505050" stroke="none" font-family="monospace" font-size="14px" font-style="normal" font-weight="normal" text-decoration="normal" x="814.1643981933594" y="549.9627380371094" text-anchor="middle" dominant-baseline="text-after-edge">div</text><path fill="none" stroke="#505050" paint-order="fill stroke markers" d=" M 794.1643981933594 549.9627380371094 L 810.1643981933594 549.9627380371094 L 810.1643981933594 577.9627380371094 L 794.1643981933594 577.9627380371094 L 794.1643981933594 549.9627380371094 Z" stroke-miterlimit="10" stroke-width="0.5"/><path fill="none" stroke="none"/><path fill="none" stroke="#505050" paint-order="fill stroke markers" d=" M 802.1643981933594 553.9627380371094 L 810.1643981933594 553.9627380371094 L 810.1643981933594 561.9627380371094 L 802.1643981933594 561.9627380371094 L 802.1643981933594 553.9627380371094 Z" stroke-miterlimit="10" stroke-width="0.5"/><path fill="none" stroke="#505050" paint-order="fill stroke markers" d=" M 802.1643981933594 565.9627380371094 L 810.1643981933594 565.9627380371094 L 810.1643981933594 573.9627380371094 L 802.1643981933594 573.9627380371094 L 802.1643981933594 565.9627380371094 Z" stroke-miterlimit="10" stroke-width="0.5"/><path fill="none" stroke="#505050" paint-order="fill stroke markers" d=" M 818.1643981933594 549.9627380371094 L 834.1643981933594 549.9627380371094 L 834.1643981933594 577.9627380371094 L 818.1643981933594 577.9627380371094 L 818.1643981933594 549.9627380371094 Z" stroke-miterlimit="10" stroke-width="0.5"/><path fill="none" stroke="none"/><path fill="none" stroke="#505050" paint-order="fill stroke markers" d=" M 826.1643981933594 553.9627380371094 L 834.1643981933594 553.9627380371094 L 834.1643981933594 561.9627380371094 L 826.1643981933594 561.9627380371094 L 826.1643981933594 553.9627380371094 Z" stroke-miterlimit="10" stroke-width="0.5"/><path fill="none" stroke="#505050" paint-order="fill stroke markers" d=" M 826.1643981933594 565.9627380371094 L 834.1643981933594 565.9627380371094 L 834.1643981933594 573.9627380371094 L 826.1643981933594 573.9627380371094 L 826.1643981933594 565.9627380371094 Z" stroke-miterlimit="10" stroke-width="0.5"/><path fill="white" stroke="#505050" paint-order="fill stroke markers" d=" M 541.8753356933594 545.8143005371094 L 591.8753356933594 545.8143005371094 L 591.8753356933594 627.8143005371094 L 541.8753356933594 627.8143005371094 L 541.8753356933594 545.8143005371094 Z" stroke-miterlimit="10" stroke-width="0.5"/><path fill="#F0F0F0" stroke="none" paint-order="stroke fill markers" d=" M 575.8753356933594 563.8143005371094 L 591.8753356933594 563.8143005371094 L 591.8753356933594 591.8143005371094 L 575.8753356933594 591.8143005371094 L 575.8753356933594 563.8143005371094 Z M 575.8753356933594 595.8143005371094 L 591.8753356933594 595.8143005371094 L 591.8753356933594 623.8143005371094 L 575.8753356933594 623.8143005371094 L 575.8753356933594 595.8143005371094 Z"/><path fill="none" stroke="none"/><text fill="#505050" stroke="none" font-family="monospace" font-size="14px" font-style="normal" font-weight="normal" text-decoration="normal" x="566.8753356933594" y="563.8143005371094" text-anchor="middle" dominant-baseline="text-after-edge">split</text><path fill="none" stroke="#505050" paint-order="fill stroke markers" d=" M 541.8753356933594 563.8143005371094 L 557.8753356933594 563.8143005371094 L 557.8753356933594 591.8143005371094 L 541.8753356933594 591.8143005371094 L 541.8753356933594 563.8143005371094 Z" stroke-miterlimit="10" stroke-width="0.5"/><path fill="none" stroke="none"/><path fill="none" stroke="#505050" paint-order="fill stroke markers" d=" M 549.8753356933594 567.8143005371094 L 557.8753356933594 567.8143005371094 L 557.8753356933594 575.8143005371094 L 549.8753356933594 575.8143005371094 L 549.8753356933594 567.8143005371094 Z" stroke-miterlimit="10" stroke-width="0.5"/><path fill="none" stroke="#505050" paint-order="fill stroke markers" d=" M 549.8753356933594 579.8143005371094 L 557.8753356933594 579.8143005371094 L 557.8753356933594 587.8143005371094 L 549.8753356933594 587.8143005371094 L 549.8753356933594 579.8143005371094 Z" stroke-miterlimit="10" stroke-width="0.5"/><path fill="none" stroke="#505050" paint-order="fill stroke markers" d=" M 575.8753356933594 563.8143005371094 L 591.8753356933594 563.8143005371094 L 591.8753356933594 591.8143005371094 L 575.8753356933594 591.8143005371094 L 575.8753356933594 563.8143005371094 Z" stroke-miterlimit="10" stroke-width="0.5"/><path fill="none" stroke="none"/><path fill="none" stroke="#505050" paint-order="fill stroke markers" d=" M 583.8753356933594 567.8143005371094 L 591.8753356933594 567.8143005371094 L 591.8753356933594 575.8143005371094 L 583.8753356933594 575.8143005371094 L 583.8753356933594 567.8143005371094 Z" stroke-miterlimit="10" stroke-width="0.5"/><path fill="none" stroke="#505050" paint-order="fill stroke markers" d=" M 583.8753356933594 579.8143005371094 L 591.8753356933594 579.8143005371094 L 591.8753356933594 587.8143005371094 L 583.8753356933594 587.8143005371094 L 583.8753356933594 579.8143005371094 Z" stroke-miterlimit="10" stroke-width="0.5"/><path fill="none" stroke="#505050" paint-order="fill stroke markers" d=" M 575.8753356933594 595.8143005371094 L 591.8753356933594 595.8143005371094 L 591.8753356933594 623.8143005371094 L 575.8753356933594 623.8143005371094 L 575.8753356933594 595.8143005371094 Z" stroke-miterlimit="10" stroke-width="0.5"/><path fill="none" stroke="none"/><path fill="none" stroke="#505050" paint-order="fill stroke markers" d=" M 583.8753356933594 599.8143005371094 L 591.8753356933594 599.8143005371094 L 591.8753356933594 607.8143005371094 L 583.8753356933594 607.8143005371094 L 583.8753356933594 599.8143005371094 Z" stroke-miterlimit="10" stroke-width="0.5"/><path fill="none" stroke="#505050" paint-order="fill stroke markers" d=" M 583.8753356933594 611.8143005371094 L 591.8753356933594 611.8143005371094 L 591.8753356933594 619.8143005371094 L 583.8753356933594 619.8143005371094 L 583.8753356933594 611.8143005371094 Z" stroke-miterlimit="10" stroke-width="0.5"/><path fill="white" stroke="#505050" paint-order="fill stroke markers" d=" M 617.5315856933594 548.7596130371094 L 633.5315856933594 548.7596130371094 L 633.5315856933594 576.7596130371094 L 617.5315856933594 576.7596130371094 L 617.5315856933594 548.7596130371094 Z" stroke-miterlimit="10" stroke-width="0.5"/><path fill="#F0F0F0" stroke="none" paint-order="stroke fill markers" d=""/><path fill="none" stroke="none"/><path fill="none" stroke="#505050" paint-order="fill stroke markers" d=" M 625.5315856933594 552.7596130371094 L 633.5315856933594 552.7596130371094 L 633.5315856933594 560.7596130371094 L 625.5315856933594 560.7596130371094 L 625.5315856933594 552.7596130371094 Z" stroke-miterlimit="10" stroke-width="0.5"/><path fill="none" stroke="#505050" paint-order="fill stroke markers" d=" M 625.5315856933594 564.7596130371094 L 633.5315856933594 564.7596130371094 L 633.5315856933594 572.7596130371094 L 625.5315856933594 572.7596130371094 L 625.5315856933594 564.7596130371094 Z" stroke-miterlimit="10" stroke-width="0.5"/><path fill="white" stroke="#505050" paint-order="fill stroke markers" d=" M 764.7034606933594 579.7713317871094 L 772.7034606933594 579.7713317871094 L 780.7034606933594 587.7713317871094 L 772.7034606933594 595.7713317871094 L 764.7034606933594 595.7713317871094 L 764.7034606933594 579.7713317871094" stroke-miterlimit="10" stroke-width="0.5"/><path fill="none" stroke="none"/><path fill="none" stroke="#505050" paint-order="fill stroke markers" d=" M 764.7034606933594 583.7713317871094 L 772.7034606933594 583.7713317871094 L 772.7034606933594 591.7713317871094 L 764.7034606933594 591.7713317871094 L 764.7034606933594 583.7713317871094 Z" stroke-miterlimit="10" stroke-width="0.5"/><path fill="none" stroke="none"/><path fill="white" stroke="#505050" paint-order="fill stroke markers" d=" M 500.2680997848511 559.5919981002808 L 532.2680997848511 559.5919981002808 L 532.2680997848511 595.5919981002808 L 500.2680997848511 595.5919981002808 L 508.2680997848511 577.5919981002808 L 500.2680997848511 559.5919981002808" stroke-miterlimit="10" stroke-width="0.5"/><path fill="#F0F0F0" stroke="none" paint-order="stroke fill markers" d=" M 516.2680997848511 563.5919981002808 L 532.2680997848511 563.5919981002808 L 532.2680997848511 591.5919981002808 L 516.2680997848511 591.5919981002808 L 516.2680997848511 563.5919981002808 Z"/><path fill="none" stroke="none"/><path fill="none" stroke="#505050" paint-order="fill stroke markers" d=" M 516.2680997848511 563.5919981002808 L 532.2680997848511 563.5919981002808 L 532.2680997848511 591.5919981002808 L 516.2680997848511 591.5919981002808 L 516.2680997848511 563.5919981002808 Z" stroke-miterlimit="10" stroke-width="0.5"/><path fill="none" stroke="none"/><path fill="none" stroke="#505050" paint-order="fill stroke markers" d=" M 524.2680997848511 567.5919981002808 L 532.2680997848511 567.5919981002808 L 532.2680997848511 575.5919981002808 L 524.2680997848511 575.5919981002808 L 524.2680997848511 567.5919981002808 Z" stroke-miterlimit="10" stroke-width="0.5"/><path fill="none" stroke="#505050" paint-order="fill stroke markers" d=" M 524.2680997848511 579.5919981002808 L 532.2680997848511 579.5919981002808 L 532.2680997848511 587.5919981002808 L 524.2680997848511 587.5919981002808 L 524.2680997848511 579.5919981002808 Z" stroke-miterlimit="10" stroke-width="0.5"/><path fill="white" stroke="#505050" paint-order="fill stroke markers" d=" M 650.3792419433594 547.7283630371094 L 692.3792419433594 547.7283630371094 L 692.3792419433594 577.7283630371094 L 650.3792419433594 577.7283630371094 L 650.3792419433594 547.7283630371094 Z" stroke-miterlimit="10" stroke-width="0.5"/><path fill="#F0F0F0" stroke="none" paint-order="stroke fill markers" d=""/><path fill="none" stroke="none"/><text fill="#505050" stroke="none" font-family="monospace" font-size="14px" font-style="normal" font-weight="normal" text-decoration="normal" x="671.3792419433594" y="565.7283630371094" text-anchor="middle" dominant-baseline="text-after-edge">test</text><path fill="none" stroke="#505050" paint-order="fill stroke markers" d=" M 650.3792419433594 565.7283630371094 L 658.3792419433594 565.7283630371094 L 658.3792419433594 573.7283630371094 L 650.3792419433594 573.7283630371094 L 650.3792419433594 565.7283630371094 Z" stroke-miterlimit="10" stroke-width="0.5"/><path fill="none" stroke="#505050" paint-order="fill stroke markers" d=" M 684.3792419433594 565.7283630371094 L 692.3792419433594 565.7283630371094 L 692.3792419433594 573.7283630371094 L 684.3792419433594 573.7283630371094 L 684.3792419433594 565.7283630371094 Z" stroke-miterlimit="10" stroke-width="0.5"/><path fill="white" stroke="#505050" paint-order="fill stroke markers" d=" M 712.0081481933594 555.7752380371094 L 752.0081481933594 555.7752380371094 L 752.0081481933594 649.7752380371094 L 712.0081481933594 649.7752380371094 L 712.0081481933594 555.7752380371094 Z" stroke-miterlimit="10" stroke-width="0.5"/><path fill="#F0F0F0" stroke="none" paint-order="stroke fill markers" d=" M 736.0081481933594 573.7752380371094 L 752.0081481933594 573.7752380371094 L 752.0081481933594 601.7752380371094 L 736.0081481933594 601.7752380371094 L 736.0081481933594 573.7752380371094 Z"/><path fill="none" stroke="none"/><text fill="#505050" stroke="none" font-family="monospace" font-size="14px" font-style="normal" font-weight="normal" text-decoration="normal" x="732.0081481933594" y="573.7752380371094" text-anchor="middle" dominant-baseline="text-after-edge">?</text><path fill="none" stroke="#505050" paint-order="fill stroke markers" d=" M 712.0081481933594 573.7752380371094 L 720.0081481933594 573.7752380371094 L 720.0081481933594 581.7752380371094 L 712.0081481933594 581.7752380371094 L 712.0081481933594 573.7752380371094 Z" stroke-miterlimit="10" stroke-width="0.5"/><path fill="none" stroke="#505050" paint-order="fill stroke markers" d=" M 712.0081481933594 585.7752380371094 L 728.0081481933594 585.7752380371094 L 728.0081481933594 613.7752380371094 L 712.0081481933594 613.7752380371094 L 712.0081481933594 585.7752380371094 Z" stroke-miterlimit="10" stroke-width="0.5"/><path fill="none" stroke="none"/><path fill="none" stroke="#505050" paint-order="fill stroke markers" d=" M 720.0081481933594 589.7752380371094 L 728.0081481933594 589.7752380371094 L 728.0081481933594 597.7752380371094 L 720.0081481933594 597.7752380371094 L 720.0081481933594 589.7752380371094 Z" stroke-miterlimit="10" stroke-width="0.5"/><path fill="none" stroke="#505050" paint-order="fill stroke markers" d=" M 720.0081481933594 601.7752380371094 L 728.0081481933594 601.7752380371094 L 728.0081481933594 609.7752380371094 L 720.0081481933594 609.7752380371094 L 720.0081481933594 601.7752380371094 Z" stroke-miterlimit="10" stroke-width="0.5"/><path fill="none" stroke="#505050" paint-order="fill stroke markers" d=" M 712.0081481933594 617.7752380371094 L 728.0081481933594 617.7752380371094 L 728.0081481933594 645.7752380371094 L 712.0081481933594 645.7752380371094 L 712.0081481933594 617.7752380371094 Z" stroke-miterlimit="10" stroke-width="0.5"/><path fill="none" stroke="none"/><path fill="none" stroke="#505050" paint-order="fill stroke markers" d=" M 720.0081481933594 621.7752380371094 L 728.0081481933594 621.7752380371094 L 728.0081481933594 629.7752380371094 L 720.0081481933594 629.7752380371094 L 720.0081481933594 621.7752380371094 Z" stroke-miterlimit="10" stroke-width="0.5"/><path fill="none" stroke="#505050" paint-order="fill stroke markers" d=" M 720.0081481933594 633.7752380371094 L 728.0081481933594 633.7752380371094 L 728.0081481933594 641.7752380371094 L 720.0081481933594 641.7752380371094 L 720.0081481933594 633.7752380371094 Z" stroke-miterlimit="10" stroke-width="0.5"/><path fill="none" stroke="#505050" paint-order="fill stroke markers" d=" M 736.0081481933594 573.7752380371094 L 752.0081481933594 573.7752380371094 L 752.0081481933594 601.7752380371094 L 736.0081481933594 601.7752380371094 L 736.0081481933594 573.7752380371094 Z" stroke-miterlimit="10" stroke-width="0.5"/><path fill="none" stroke="none"/><path fill="none" stroke="#505050" paint-order="fill stroke markers" d=" M 744.0081481933594 577.7752380371094 L 752.0081481933594 577.7752380371094 L 752.0081481933594 585.7752380371094 L 744.0081481933594 585.7752380371094 L 744.0081481933594 577.7752380371094 Z" stroke-miterlimit="10" stroke-width="0.5"/><path fill="none" stroke="#505050" paint-order="fill stroke markers" d=" M 744.0081481933594 589.7752380371094 L 752.0081481933594 589.7752380371094 L 752.0081481933594 597.7752380371094 L 744.0081481933594 597.7752380371094 L 744.0081481933594 589.7752380371094 Z" stroke-miterlimit="10" stroke-width="0.5"/><path fill="white" stroke="#505050" paint-order="fill stroke markers" d=" M 502.9140319824219 686.9293518066406 L 502.9140319824219 832.8590393066406 Q 502.9140319824219 840.8590393066406 510.9140319824219 840.8590393066406 L 803.4023132324219 840.8590393066406 Q 811.4023132324219 840.8590393066406 811.4023132324219 832.8590393066406 L 811.4023132324219 686.9293518066406 Q 811.4023132324219 678.9293518066406 803.4023132324219 678.9293518066406 L 510.9140319824219 678.9293518066406 Q 502.9140319824219 678.9293518066406 502.9140319824219 686.9293518066406" stroke-miterlimit="10" stroke-width="0.5"/><path fill="#F0F0F0" stroke="#505050" paint-order="fill stroke markers" d=" M 752.4023132324219 686.9293518066406 L 811.4023132324219 686.9293518066406 L 811.4023132324219 736.9293518066406 L 752.4023132324219 736.9293518066406 L 752.4023132324219 686.9293518066406 Z" stroke-miterlimit="10" stroke-width="0.5"/><path fill="none" stroke="none"/><text fill="#505050" stroke="none" font-family="monospace" font-size="14px" font-style="normal" font-weight="normal" text-decoration="normal" x="781.9023132324219" y="704.9293518066406" text-anchor="middle" dominant-baseline="text-after-edge">search</text><path fill="none" stroke="#505050" paint-order="fill stroke markers" d=" M 752.4023132324219 704.9293518066406 L 768.4023132324219 704.9293518066406 L 768.4023132324219 732.9293518066406 L 752.4023132324219 732.9293518066406 L 752.4023132324219 704.9293518066406 Z" stroke-miterlimit="10" stroke-width="0.5"/><path fill="none" stroke="none"/><path fill="none" stroke="#505050" paint-order="fill stroke markers" d=" M 760.4023132324219 708.9293518066406 L 768.4023132324219 708.9293518066406 L 768.4023132324219 716.9293518066406 L 760.4023132324219 716.9293518066406 L 760.4023132324219 708.9293518066406 Z" stroke-miterlimit="10" stroke-width="0.5"/><path fill="none" stroke="#505050" paint-order="fill stroke markers" d=" M 760.4023132324219 720.9293518066406 L 768.4023132324219 720.9293518066406 L 768.4023132324219 728.9293518066406 L 760.4023132324219 728.9293518066406 L 760.4023132324219 720.9293518066406 Z" stroke-miterlimit="10" stroke-width="0.5"/><path fill="none" stroke="#505050" paint-order="fill stroke markers" d=" M 803.4023132324219 704.9293518066406 L 811.4023132324219 704.9293518066406 L 811.4023132324219 712.9293518066406 L 803.4023132324219 712.9293518066406 L 803.4023132324219 704.9293518066406 Z" stroke-miterlimit="10" stroke-width="0.5"/><path fill="white" stroke="#505050" paint-order="fill stroke markers" d=" M 558.6405944824219 769.8121643066406 L 598.6405944824219 769.8121643066406 L 598.6405944824219 819.8121643066406 L 558.6405944824219 819.8121643066406 L 558.6405944824219 769.8121643066406 Z" stroke-miterlimit="10" stroke-width="0.5"/><path fill="#F0F0F0" stroke="none" paint-order="stroke fill markers" d=" M 582.6405944824219 787.8121643066406 L 598.6405944824219 787.8121643066406 L 598.6405944824219 815.8121643066406 L 582.6405944824219 815.8121643066406 L 582.6405944824219 787.8121643066406 Z"/><path fill="none" stroke="none"/><text fill="#505050" stroke="none" font-family="monospace" font-size="14px" font-style="normal" font-weight="normal" text-decoration="normal" x="578.6405944824219" y="787.8121643066406" text-anchor="middle" dominant-baseline="text-after-edge">div</text><path fill="none" stroke="#505050" paint-order="fill stroke markers" d=" M 558.6405944824219 787.8121643066406 L 574.6405944824219 787.8121643066406 L 574.6405944824219 815.8121643066406 L 558.6405944824219 815.8121643066406 L 558.6405944824219 787.8121643066406 Z" stroke-miterlimit="10" stroke-width="0.5"/><path fill="none" stroke="none"/><path fill="none" stroke="#505050" paint-order="fill stroke markers" d=" M 566.6405944824219 791.8121643066406 L 574.6405944824219 791.8121643066406 L 574.6405944824219 799.8121643066406 L 566.6405944824219 799.8121643066406 L 566.6405944824219 791.8121643066406 Z" stroke-miterlimit="10" stroke-width="0.5"/><path fill="none" stroke="#505050" paint-order="fill stroke markers" d=" M 566.6405944824219 803.8121643066406 L 574.6405944824219 803.8121643066406 L 574.6405944824219 811.8121643066406 L 566.6405944824219 811.8121643066406 L 566.6405944824219 803.8121643066406 Z" stroke-miterlimit="10" stroke-width="0.5"/><path fill="none" stroke="#505050" paint-order="fill stroke markers" d=" M 582.6405944824219 787.8121643066406 L 598.6405944824219 787.8121643066406 L 598.6405944824219 815.8121643066406 L 582.6405944824219 815.8121643066406 L 582.6405944824219 787.8121643066406 Z" stroke-miterlimit="10" stroke-width="0.5"/><path fill="none" stroke="none"/><path fill="none" stroke="#505050" paint-order="fill stroke markers" d=" M 590.6405944824219 791.8121643066406 L 598.6405944824219 791.8121643066406 L 598.6405944824219 799.8121643066406 L 590.6405944824219 799.8121643066406 L 590.6405944824219 791.8121643066406 Z" stroke-miterlimit="10" stroke-width="0.5"/><path fill="none" stroke="#505050" paint-order="fill stroke markers" d=" M 590.6405944824219 803.8121643066406 L 598.6405944824219 803.8121643066406 L 598.6405944824219 811.8121643066406 L 590.6405944824219 811.8121643066406 L 590.6405944824219 803.8121643066406 Z" stroke-miterlimit="10" stroke-width="0.5"/><path fill="none" stroke="none"/><path fill="white" stroke="#505050" paint-order="fill stroke markers" d=" M 512.9278898239136 698.851580619812 L 544.9278898239136 698.851580619812 L 544.9278898239136 734.851580619812 L 512.9278898239136 734.851580619812 L 520.9278898239136 716.851580619812 L 512.9278898239136 698.851580619812" stroke-miterlimit="10" stroke-width="0.5"/><path fill="#F0F0F0" stroke="none" paint-order="stroke fill markers" d=" M 528.9278898239136 702.851580619812 L 544.9278898239136 702.851580619812 L 544.9278898239136 730.851580619812 L 528.9278898239136 730.851580619812 L 528.9278898239136 702.851580619812 Z"/><path fill="none" stroke="none"/><path fill="none" stroke="#505050" paint-order="fill stroke markers" d=" M 528.9278898239136 702.851580619812 L 544.9278898239136 702.851580619812 L 544.9278898239136 730.851580619812 L 528.9278898239136 730.851580619812 L 528.9278898239136 702.851580619812 Z" stroke-miterlimit="10" stroke-width="0.5"/><path fill="none" stroke="none"/><path fill="none" stroke="#505050" paint-order="fill stroke markers" d=" M 536.9278898239136 706.851580619812 L 544.9278898239136 706.851580619812 L 544.9278898239136 714.851580619812 L 536.9278898239136 714.851580619812 L 536.9278898239136 706.851580619812 Z" stroke-miterlimit="10" stroke-width="0.5"/><path fill="none" stroke="#505050" paint-order="fill stroke markers" d=" M 536.9278898239136 718.851580619812 L 544.9278898239136 718.851580619812 L 544.9278898239136 726.851580619812 L 536.9278898239136 726.851580619812 L 536.9278898239136 718.851580619812 Z" stroke-miterlimit="10" stroke-width="0.5"/><path fill="white" stroke="#505050" paint-order="fill stroke markers" d=" M 616.5038757324219 774.8590393066406 L 675.5038757324219 774.8590393066406 L 675.5038757324219 824.8590393066406 L 616.5038757324219 824.8590393066406 L 616.5038757324219 774.8590393066406 Z" stroke-miterlimit="10" stroke-width="0.5"/><path fill="#F0F0F0" stroke="none" paint-order="stroke fill markers" d=""/><path fill="none" stroke="none"/><text fill="#505050" stroke="none" font-family="monospace" font-size="14px" font-style="normal" font-weight="normal" text-decoration="normal" x="646.0038757324219" y="792.8590393066406" text-anchor="middle" dominant-baseline="text-after-edge">search</text><path fill="none" stroke="#505050" paint-order="fill stroke markers" d=" M 616.5038757324219 792.8590393066406 L 632.5038757324219 792.8590393066406 L 632.5038757324219 820.8590393066406 L 616.5038757324219 820.8590393066406 L 616.5038757324219 792.8590393066406 Z" stroke-miterlimit="10" stroke-width="0.5"/><path fill="none" stroke="none"/><path fill="none" stroke="#505050" paint-order="fill stroke markers" d=" M 624.5038757324219 796.8590393066406 L 632.5038757324219 796.8590393066406 L 632.5038757324219 804.8590393066406 L 624.5038757324219 804.8590393066406 L 624.5038757324219 796.8590393066406 Z" stroke-miterlimit="10" stroke-width="0.5"/><path fill="none" stroke="#505050" paint-order="fill stroke markers" d=" M 624.5038757324219 808.8590393066406 L 632.5038757324219 808.8590393066406 L 632.5038757324219 816.8590393066406 L 624.5038757324219 816.8590393066406 L 624.5038757324219 808.8590393066406 Z" stroke-miterlimit="10" stroke-width="0.5"/><path fill="none" stroke="#505050" paint-order="fill stroke markers" d=" M 667.5038757324219 792.8590393066406 L 675.5038757324219 792.8590393066406 L 675.5038757324219 800.8590393066406 L 667.5038757324219 800.8590393066406 L 667.5038757324219 792.8590393066406 Z" stroke-miterlimit="10" stroke-width="0.5"/><path fill="white" stroke="#505050" paint-order="fill stroke markers" d=" M 609.1366882324219 683.8707580566406 L 634.1366882324219 683.8707580566406 L 634.1366882324219 725.8707580566406 L 609.1366882324219 725.8707580566406 L 609.1366882324219 683.8707580566406 Z" stroke-miterlimit="10" stroke-width="0.5"/><path fill="#F0F0F0" stroke="none" paint-order="stroke fill markers" d=""/><path fill="none" stroke="none"/><text fill="#505050" stroke="none" font-family="monospace" font-size="14px" font-style="normal" font-weight="normal" text-decoration="normal" x="621.6366882324219" y="701.8707580566406" text-anchor="middle" dominant-baseline="text-after-edge">&gt;=</text><path fill="none" stroke="#505050" paint-order="fill stroke markers" d=" M 609.1366882324219 701.8707580566406 L 617.1366882324219 701.8707580566406 L 617.1366882324219 709.8707580566406 L 609.1366882324219 709.8707580566406 L 609.1366882324219 701.8707580566406 Z" stroke-miterlimit="10" stroke-width="0.5"/><path fill="none" stroke="#505050" paint-order="fill stroke markers" d=" M 609.1366882324219 713.8707580566406 L 617.1366882324219 713.8707580566406 L 617.1366882324219 721.8707580566406 L 609.1366882324219 721.8707580566406 L 609.1366882324219 713.8707580566406 Z" stroke-miterlimit="10" stroke-width="0.5"/><path fill="none" stroke="#505050" paint-order="fill stroke markers" d=" M 626.1366882324219 701.8707580566406 L 634.1366882324219 701.8707580566406 L 634.1366882324219 709.8707580566406 L 626.1366882324219 709.8707580566406 L 626.1366882324219 701.8707580566406 Z" stroke-miterlimit="10" stroke-width="0.5"/><path fill="white" stroke="#505050" paint-order="fill stroke markers" d=" M 577.5038757324219 698.5035705566406 L 593.5038757324219 698.5035705566406 L 593.5038757324219 726.5035705566406 L 577.5038757324219 726.5035705566406 L 577.5038757324219 698.5035705566406 Z" stroke-miterlimit="10" stroke-width="0.5"/><path fill="#F0F0F0" stroke="none" paint-order="stroke fill markers" d=""/><path fill="none" stroke="none"/><path fill="none" stroke="#505050" paint-order="fill stroke markers" d=" M 585.5038757324219 702.5035705566406 L 593.5038757324219 702.5035705566406 L 593.5038757324219 710.5035705566406 L 585.5038757324219 710.5035705566406 L 585.5038757324219 702.5035705566406 Z" stroke-miterlimit="10" stroke-width="0.5"/><path fill="none" stroke="#505050" paint-order="fill stroke markers" d=" M 585.5038757324219 714.5035705566406 L 593.5038757324219 714.5035705566406 L 593.5038757324219 722.5035705566406 L 585.5038757324219 722.5035705566406 L 585.5038757324219 714.5035705566406 Z" stroke-miterlimit="10" stroke-width="0.5"/><path fill="white" stroke="#505050" paint-order="fill stroke markers" d=" M 663.2187194824219 696.5231018066406 L 687.2187194824219 696.5231018066406 L 687.2187194824219 750.5231018066406 L 663.2187194824219 750.5231018066406 L 663.2187194824219 696.5231018066406 Z" stroke-miterlimit="10" stroke-width="0.5"/><path fill="#F0F0F0" stroke="none" paint-order="stroke fill markers" d=""/><path fill="none" stroke="none"/><text fill="#505050" stroke="none" font-family="monospace" font-size="14px" font-style="normal" font-weight="normal" text-decoration="normal" x="675.2187194824219" y="714.5231018066406" text-anchor="middle" dominant-baseline="text-after-edge">?</text><path fill="none" stroke="#505050" paint-order="fill stroke markers" d=" M 663.2187194824219 714.5231018066406 L 671.2187194824219 714.5231018066406 L 671.2187194824219 722.5231018066406 L 663.2187194824219 722.5231018066406 L 663.2187194824219 714.5231018066406 Z" stroke-miterlimit="10" stroke-width="0.5"/><path fill="none" stroke="#505050" paint-order="fill stroke markers" d=" M 663.2187194824219 726.5231018066406 L 671.2187194824219 726.5231018066406 L 671.2187194824219 734.5231018066406 L 663.2187194824219 734.5231018066406 L 663.2187194824219 726.5231018066406 Z" stroke-miterlimit="10" stroke-width="0.5"/><path fill="none" stroke="#505050" paint-order="fill stroke markers" d=" M 663.2187194824219 738.5231018066406 L 671.2187194824219 738.5231018066406 L 671.2187194824219 746.5231018066406 L 663.2187194824219 746.5231018066406 L 663.2187194824219 738.5231018066406 Z" stroke-miterlimit="10" stroke-width="0.5"/><path fill="none" stroke="#505050" paint-order="fill stroke markers" d=" M 679.2187194824219 714.5231018066406 L 687.2187194824219 714.5231018066406 L 687.2187194824219 722.5231018066406 L 679.2187194824219 722.5231018066406 L 679.2187194824219 714.5231018066406 Z" stroke-miterlimit="10" stroke-width="0.5"/><path fill="white" stroke="#505050" paint-order="fill stroke markers" d=" M 703.1210632324219 710.6324768066406 L 711.1210632324219 710.6324768066406 L 719.1210632324219 718.6324768066406 L 711.1210632324219 726.6324768066406 L 703.1210632324219 726.6324768066406 L 703.1210632324219 710.6324768066406" stroke-miterlimit="10" stroke-width="0.5"/><path fill="none" stroke="none"/><path fill="none" stroke="#505050" paint-order="fill stroke markers" d=" M 703.1210632324219 714.6324768066406 L 711.1210632324219 714.6324768066406 L 711.1210632324219 722.6324768066406 L 703.1210632324219 722.6324768066406 L 703.1210632324219 714.6324768066406 Z" stroke-miterlimit="10" stroke-width="0.5"/><path fill="none" stroke="none"/><path fill="white" stroke="#505050" paint-order="fill stroke markers" d=" M 422.8692932128906 693.3356018066406 L 480.8692932128906 693.3356018066406 L 480.8692932128906 731.3356018066406 L 422.8692932128906 731.3356018066406 L 430.8692932128906 712.3356018066406 L 422.8692932128906 693.3356018066406" stroke-miterlimit="10" stroke-width="0.5"/><path fill="#F0F0F0" stroke="none" paint-order="stroke fill markers" d=" M 438.8692932128906 697.3356018066406 L 480.8692932128906 697.3356018066406 L 480.8692932128906 727.3356018066406 L 438.8692932128906 727.3356018066406 L 438.8692932128906 697.3356018066406 Z"/><path fill="none" stroke="none"/><path fill="none" stroke="#505050" paint-order="fill stroke markers" d=" M 438.8692932128906 697.3356018066406 L 480.8692932128906 697.3356018066406 L 480.8692932128906 727.3356018066406 L 438.8692932128906 727.3356018066406 L 438.8692932128906 697.3356018066406 Z" stroke-miterlimit="10" stroke-width="0.5"/><path fill="none" stroke="none"/><text fill="#505050" stroke="none" font-family="monospace" font-size="14px" font-style="normal" font-weight="normal" text-decoration="normal" x="459.8692932128906" y="715.3356018066406" text-anchor="middle" dominant-baseline="text-after-edge">test</text><path fill="none" stroke="#505050" paint-order="fill stroke markers" d=" M 438.8692932128906 715.3356018066406 L 446.8692932128906 715.3356018066406 L 446.8692932128906 723.3356018066406 L 438.8692932128906 723.3356018066406 L 438.8692932128906 715.3356018066406 Z" stroke-miterlimit="10" stroke-width="0.5"/><path fill="none" stroke="#505050" paint-order="fill stroke markers" d=" M 472.8692932128906 715.3356018066406 L 480.8692932128906 715.3356018066406 L 480.8692932128906 723.3356018066406 L 472.8692932128906 723.3356018066406 L 472.8692932128906 715.3356018066406 Z" stroke-miterlimit="10" stroke-width="0.5"/><path fill="none" stroke="none"/><path fill="white" stroke="#505050" paint-order="fill stroke markers" d=" M 881.7776823043823 655.523455619812 L 913.7776823043823 655.523455619812 L 913.7776823043823 691.523455619812 L 881.7776823043823 691.523455619812 L 889.7776823043823 673.523455619812 L 881.7776823043823 655.523455619812" stroke-miterlimit="10" stroke-width="0.5"/><path fill="#F0F0F0" stroke="none" paint-order="stroke fill markers" d=" M 897.7776823043823 659.523455619812 L 913.7776823043823 659.523455619812 L 913.7776823043823 687.523455619812 L 897.7776823043823 687.523455619812 L 897.7776823043823 659.523455619812 Z"/><path fill="none" stroke="none"/><path fill="none" stroke="#505050" paint-order="fill stroke markers" d=" M 897.7776823043823 659.523455619812 L 913.7776823043823 659.523455619812 L 913.7776823043823 687.523455619812 L 897.7776823043823 687.523455619812 L 897.7776823043823 659.523455619812 Z" stroke-miterlimit="10" stroke-width="0.5"/><path fill="none" stroke="none"/><path fill="none" stroke="#505050" paint-order="fill stroke markers" d=" M 905.7776823043823 663.523455619812 L 913.7776823043823 663.523455619812 L 913.7776823043823 671.523455619812 L 905.7776823043823 671.523455619812 L 905.7776823043823 663.523455619812 Z" stroke-miterlimit="10" stroke-width="0.5"/><path fill="none" stroke="#505050" paint-order="fill stroke markers" d=" M 905.7776823043823 675.523455619812 L 913.7776823043823 675.523455619812 L 913.7776823043823 683.523455619812 L 905.7776823043823 683.523455619812 L 905.7776823043823 675.523455619812 Z" stroke-miterlimit="10" stroke-width="0.5"/><path fill="white" stroke="#505050" paint-order="fill stroke markers" d=" M 937.9044494628906 641.8824768066406 L 996.9044494628906 641.8824768066406 L 996.9044494628906 691.8824768066406 L 937.9044494628906 691.8824768066406 L 937.9044494628906 641.8824768066406 Z" stroke-miterlimit="10" stroke-width="0.5"/><path fill="#F0F0F0" stroke="none" paint-order="stroke fill markers" d=""/><path fill="none" stroke="none"/><text fill="#505050" stroke="none" font-family="monospace" font-size="14px" font-style="normal" font-weight="normal" text-decoration="normal" x="967.4044494628906" y="659.8824768066406" text-anchor="middle" dominant-baseline="text-after-edge">search</text><path fill="none" stroke="#505050" paint-order="fill stroke markers" d=" M 937.9044494628906 659.8824768066406 L 953.9044494628906 659.8824768066406 L 953.9044494628906 687.8824768066406 L 937.9044494628906 687.8824768066406 L 937.9044494628906 659.8824768066406 Z" stroke-miterlimit="10" stroke-width="0.5"/><path fill="none" stroke="none"/><path fill="none" stroke="#505050" paint-order="fill stroke markers" d=" M 945.9044494628906 663.8824768066406 L 953.9044494628906 663.8824768066406 L 953.9044494628906 671.8824768066406 L 945.9044494628906 671.8824768066406 L 945.9044494628906 663.8824768066406 Z" stroke-miterlimit="10" stroke-width="0.5"/><path fill="none" stroke="#505050" paint-order="fill stroke markers" d=" M 945.9044494628906 675.8824768066406 L 953.9044494628906 675.8824768066406 L 953.9044494628906 683.8824768066406 L 945.9044494628906 683.8824768066406 L 945.9044494628906 675.8824768066406 Z" stroke-miterlimit="10" stroke-width="0.5"/><path fill="none" stroke="#505050" paint-order="fill stroke markers" d=" M 988.9044494628906 659.8824768066406 L 996.9044494628906 659.8824768066406 L 996.9044494628906 667.8824768066406 L 988.9044494628906 667.8824768066406 L 988.9044494628906 659.8824768066406 Z" stroke-miterlimit="10" stroke-width="0.5"/><path fill="white" stroke="#505050" paint-order="fill stroke markers" d=" M 1011.9552307128906 655.5465393066406 L 1019.9552307128906 655.5465393066406 L 1027.9552307128906 663.5465393066406 L 1019.9552307128906 671.5465393066406 L 1011.9552307128906 671.5465393066406 L 1011.9552307128906 655.5465393066406" stroke-miterlimit="10" stroke-width="0.5"/><path fill="none" stroke="none"/><path fill="none" stroke="#505050" paint-order="fill stroke markers" d=" M 1011.9552307128906 659.5465393066406 L 1019.9552307128906 659.5465393066406 L 1019.9552307128906 667.5465393066406 L 1011.9552307128906 667.5465393066406 L 1011.9552307128906 659.5465393066406 Z" stroke-miterlimit="10" stroke-width="0.5"/><path fill="white" stroke="#505050" paint-order="fill stroke markers" d=" M 495.44879150390625 135.85153198242188 L 495.44879150390625 181.37852478027344 Q 495.44879150390625 189.37852478027344 503.44879150390625 189.37852478027344 L 565.4182434082031 189.37852478027344 Q 573.4182434082031 189.37852478027344 573.4182434082031 181.37852478027344 L 573.4182434082031 135.85153198242188 Q 573.4182434082031 127.85153198242188 565.4182434082031 127.85153198242188 L 503.44879150390625 127.85153198242188 Q 495.44879150390625 127.85153198242188 495.44879150390625 135.85153198242188" stroke-miterlimit="10" stroke-width="0.5"/><path fill="#F0F0F0" stroke="#505050" paint-order="fill stroke markers" d=" M 531.4182434082031 135.85153198242188 L 573.4182434082031 135.85153198242188 L 573.4182434082031 165.85153198242188 L 531.4182434082031 165.85153198242188 L 531.4182434082031 135.85153198242188 Z" stroke-miterlimit="10" stroke-width="0.5" stroke-dasharray="6,3"/><path fill="none" stroke="none"/><text fill="#505050" stroke="none" font-family="monospace" font-size="14px" font-style="normal" font-weight="normal" text-decoration="normal" x="552.4182434082031" y="153.85153198242188" text-anchor="middle" dominant-baseline="text-after-edge">test</text><path fill="none" stroke="#505050" paint-order="fill stroke markers" d=" M 531.4182434082031 153.85153198242188 L 539.4182434082031 153.85153198242188 L 539.4182434082031 161.85153198242188 L 531.4182434082031 161.85153198242188 L 531.4182434082031 153.85153198242188 Z" stroke-miterlimit="10" stroke-width="0.5"/><path fill="none" stroke="#505050" paint-order="fill stroke markers" d=" M 565.4182434082031 153.85153198242188 L 573.4182434082031 153.85153198242188 L 573.4182434082031 161.85153198242188 L 565.4182434082031 161.85153198242188 L 565.4182434082031 153.85153198242188 Z" stroke-miterlimit="10" stroke-width="0.5"/><path fill="none" stroke="#505050" paint-order="fill stroke markers" d="" stroke-miterlimit="10"/><path fill="white" stroke="#505050" paint-order="fill stroke markers" d=" M 499.5521240234375 157.37852478027344 L 507.5521240234375 157.37852478027344 L 515.5521240234375 165.37852478027344 L 507.5521240234375 173.37852478027344 L 499.5521240234375 173.37852478027344 L 499.5521240234375 157.37852478027344" stroke-miterlimit="10" stroke-width="0.5"/><path fill="none" stroke="none"/><path fill="none" stroke="#505050" paint-order="fill stroke markers" d=" M 499.5521240234375 161.37852478027344 L 507.5521240234375 161.37852478027344 L 507.5521240234375 169.37852478027344 L 499.5521240234375 169.37852478027344 L 499.5521240234375 161.37852478027344 Z" stroke-miterlimit="10" stroke-width="0.5"/><path fill="white" stroke="#505050" paint-order="fill stroke markers" d=" M 495.44879150390625 134.00671577453613 L 511.44879150390625 134.00671577453613 L 511.44879150390625 150.00671577453613 L 495.44879150390625 150.00671577453613 L 503.44879150390625 142.00671577453613 L 495.44879150390625 134.00671577453613" stroke-miterlimit="10" stroke-width="0.5"/><path fill="none" stroke="none"/><path fill="none" stroke="#505050" paint-order="fill stroke markers" d=" M 503.44879150390625 138.00671577453613 L 511.44879150390625 138.00671577453613 L 511.44879150390625 146.00671577453613 L 503.44879150390625 146.00671577453613 L 503.44879150390625 138.00671577453613 Z" stroke-miterlimit="10" stroke-width="0.5"/><path fill="none" stroke="none"/><path fill="none" stroke="#e0e0e0" paint-order="fill stroke markers" d=" M 595.8753356933594 577.8143005371094 C 601.2079561965139 577.8143005371094 608.1989651902048 575.7596130371094 613.5315856933594 575.7596130371094" stroke-miterlimit="10" stroke-width="2"/><path fill="none" stroke="none"/><path fill="none" stroke="#e0e0e0" paint-order="fill stroke markers" d=" M 484.8692932128906 712.3356018066406 C 548.1364316585749 712.3356018066406 583.1121034976751 576.7283630371094 646.3792419433594 576.7283630371094" stroke-miterlimit="10" stroke-width="2"/><path fill="none" stroke="none"/><path fill="none" stroke="#e0e0e0" paint-order="fill stroke markers" d=" M 838.1643981933594 556.9627380371094 C 953.9468590315886 556.9627380371094 438.85813364419266 818.8121643066406 554.6405944824219 818.8121643066406" stroke-miterlimit="10" stroke-width="2"/><path fill="none" stroke="none"/><path fill="none" stroke="#e0e0e0" paint-order="fill stroke markers" d=" M 815.4023132324219 711.9293518066406 C 884.9195253423808 711.9293518066406 542.986663622463 823.8590393066406 612.5038757324219 823.8590393066406" stroke-miterlimit="10" stroke-width="2"/><path fill="none" stroke="none"/><path fill="none" stroke="#e0e0e0" paint-order="fill stroke markers" d=" M 548.9278898239136 716.851580619812 C 556.7442343142618 716.851580619812 565.6875312420736 725.5035705566406 573.5038757324219 725.5035705566406" stroke-miterlimit="10" stroke-width="2"/><path fill="none" stroke="none"/><path fill="none" stroke="#e0e0e0" paint-order="fill stroke markers" d=" M 815.4023132324219 711.9293518066406 C 851.5093132664945 711.9293518066406 897.797449428818 690.8824768066406 933.9044494628906 690.8824768066406" stroke-miterlimit="10" stroke-width="2"/><path fill="none" stroke="#505050" paint-order="fill stroke markers" d=" M 441.7670316696167 359.5845060348511 C 501.6212602817341 359.5845060348511 581.4260143078045 360.178466796875 641.2802429199219 360.178466796875" stroke-miterlimit="10"/><path fill="none" stroke="#505050" paint-order="fill stroke markers" d=" M 441.7670316696167 371.5845060348511 C 503.37482432162955 371.5845060348511 574.250056469081 438.6754913330078 635.8578491210938 438.6754913330078" stroke-miterlimit="10"/><path fill="none" stroke="#505050" paint-order="fill stroke markers" d=" M 441.7670316696167 359.5845060348511 C 462.66001943531546 359.5845060348511 462.9634604078242 415.07026290893555 483.85644817352295 415.07026290893555" stroke-miterlimit="10"/><path fill="none" stroke="#505050" paint-order="fill stroke markers" d=" M 441.7670316696167 371.5845060348511 C 462.66001943531546 371.5845060348511 462.9634604078242 427.07026290893555 483.85644817352295 427.07026290893555" stroke-miterlimit="10"/><path fill="none" stroke="#505050" paint-order="fill stroke markers" d=" M 516.856448173523 415.07026290893555 C 555.5660928970583 415.07026290893555 601.2478442901365 376.3994827270508 639.9574890136719 376.3994827270508" stroke-miterlimit="10"/><path fill="none" stroke="#505050" paint-order="fill stroke markers" d=" M 531.0722122192383 463.6951370239258 C 535.7199419440747 463.6951370239258 541.8682385979175 462.46800231933594 546.5159683227539 462.46800231933594" stroke-miterlimit="10"/><path fill="none" stroke="#505050" paint-order="fill stroke markers" d=" M 570.5159683227539 450.46800231933594 C 592.163568867341 450.46800231933594 614.8495613206472 421.25575256347656 636.4971618652344 421.25575256347656" stroke-miterlimit="10"/><path fill="none" stroke="#505050" paint-order="fill stroke markers" d=" M 516.856448173523 415.07026290893555 C 530.7107557410787 415.07026290893555 532.6616607551981 450.46800231933594 546.5159683227539 450.46800231933594" stroke-miterlimit="10"/><path fill="none" stroke="#505050" paint-order="fill stroke markers" d=" M 500.5105781555176 294.3315315246582 C 506.5643290223653 294.3315315246582 512.2789899168437 284.8674201965332 518.3327407836914 284.8674201965332" stroke-miterlimit="10"/><path fill="none" stroke="#505050" paint-order="fill stroke markers" d=" M 498.7786865234375 258.70293045043945 C 506.02226593559374 258.70293045043945 511.08916137153517 272.8674201965332 518.3327407836914 272.8674201965332" stroke-miterlimit="10"/><path fill="none" stroke="#505050" paint-order="fill stroke markers" d=" M 542.3327407836914 272.8674201965332 C 548.1879667806941 272.8674201965332 555.986479325263 272.29297637939453 561.8417053222656 272.29297637939453" stroke-miterlimit="10"/><path fill="none" stroke="#505050" paint-order="fill stroke markers" d=" M 653.8417053222656 272.29297637939453 C 659.6742056049817 272.29297637939453 663.7101175151355 260.82738494873047 669.5426177978516 260.82738494873047" stroke-miterlimit="10"/><path fill="none" stroke="#505050" paint-order="fill stroke markers" d=" M 437.798282623291 224.52411937713623 C 455.54660529977406 224.52411937713623 457.03036384695446 270.70293045043945 474.7786865234375 270.70293045043945" stroke-miterlimit="10"/><path fill="none" stroke="#505050" paint-order="fill stroke markers" d=" M 438.384220123291 252.29043102264404 C 449.4707416702713 252.29043102264404 463.6921649764572 258.70293045043945 474.7786865234375 258.70293045043945" stroke-miterlimit="10"/><path fill="none" stroke="#505050" paint-order="fill stroke markers" d=" M 437.798282623291 224.52411937713623 C 507.7028440214203 224.52411937713623 599.6380563997222 248.82738494873047 669.5426177978516 248.82738494873047" stroke-miterlimit="10"/><path fill="none" stroke="#505050" paint-order="fill stroke markers" d=" M 913.7776823043823 673.523455619812 C 921.0165137761056 673.523455619812 930.6656179911673 673.8824768066406 937.9044494628906 673.8824768066406" stroke-miterlimit="10"/><path fill="none" stroke="#505050" paint-order="fill stroke markers" d=" M 996.9044494628906 663.8824768066406 C 1001.4208084301931 663.8824768066406 1007.4388717455881 663.5465393066406 1011.9552307128906 663.5465393066406" stroke-miterlimit="10"/><path fill="none" stroke="#505050" paint-order="fill stroke markers" d=" M 591.8753356933594 577.8143005371094 C 628.512417828179 577.8143005371094 675.3710660585398 599.7752380371094 712.0081481933594 599.7752380371094" stroke-miterlimit="10"/><path fill="none" stroke="#505050" paint-order="fill stroke markers" d=" M 591.8753356933594 609.8143005371094 C 628.512417828179 609.8143005371094 675.3710660585398 631.7752380371094 712.0081481933594 631.7752380371094" stroke-miterlimit="10"/><path fill="none" stroke="#505050" paint-order="fill stroke markers" d=" M 752.0081481933594 587.7752380371094 C 755.8167421236478 587.7752380371094 760.8948667630709 587.7713317871094 764.7034606933594 587.7713317871094" stroke-miterlimit="10"/><path fill="none" stroke="#505050" paint-order="fill stroke markers" d=" M 532.2680997848511 577.5919981002808 C 535.1510420346652 577.5919981002808 538.9923934435452 577.8143005371094 541.8753356933594 577.8143005371094" stroke-miterlimit="10"/><path fill="none" stroke="#505050" paint-order="fill stroke markers" d=" M 633.5315856933594 568.7596130371094 C 638.5942312262068 568.7596130371094 645.3165964105119 569.7283630371094 650.3792419433594 569.7283630371094" stroke-miterlimit="10"/><path fill="none" stroke="#505050" paint-order="fill stroke markers" d=" M 692.3792419433594 569.7283630371094 C 698.743529350864 569.7283630371094 705.6438607858547 577.7752380371094 712.0081481933594 577.7752380371094" stroke-miterlimit="10"/><path fill="none" stroke="#505050" paint-order="fill stroke markers" d=" M 544.9278898239136 716.851580619812 C 570.7459167518418 716.851580619812 532.8225675544936 801.8121643066406 558.6405944824219 801.8121643066406" stroke-miterlimit="10"/><path fill="none" stroke="#505050" paint-order="fill stroke markers" d=" M 598.6405944824219 801.8121643066406 C 604.2093554564088 801.8121643066406 610.9351147584349 806.8590393066406 616.5038757324219 806.8590393066406" stroke-miterlimit="10"/><path fill="none" stroke="#505050" paint-order="fill stroke markers" d=" M 593.5038757324219 706.5035705566406 C 598.1975603243845 706.5035705566406 604.4430036404592 705.8707580566406 609.1366882324219 705.8707580566406" stroke-miterlimit="10"/><path fill="none" stroke="#505050" paint-order="fill stroke markers" d=" M 593.5038757324219 718.5035705566406 C 598.1975603243845 718.5035705566406 604.4430036404592 717.8707580566406 609.1366882324219 717.8707580566406" stroke-miterlimit="10"/><path fill="none" stroke="#505050" paint-order="fill stroke markers" d=" M 634.1366882324219 705.8707580566406 C 643.6512124433045 705.8707580566406 653.7041952715392 718.5231018066406 663.2187194824219 718.5231018066406" stroke-miterlimit="10"/><path fill="none" stroke="#505050" paint-order="fill stroke markers" d=" M 593.5038757324219 706.5035705566406 C 615.6248783961823 706.5035705566406 641.0977168186614 730.5231018066406 663.2187194824219 730.5231018066406" stroke-miterlimit="10"/><path fill="none" stroke="#505050" paint-order="fill stroke markers" d=" M 687.2187194824219 718.5231018066406 C 691.9895354469128 718.5231018066406 698.350247267931 718.6324768066406 703.1210632324219 718.6324768066406" stroke-miterlimit="10"/><path fill="none" stroke="#505050" paint-order="fill stroke markers" d=" M 675.5038757324219 796.8590393066406 C 692.216108531428 796.8590393066406 646.5064866834158 742.5231018066406 663.2187194824219 742.5231018066406" stroke-miterlimit="10"/></g></g></svg>