<svg version="1.1" xmlns="http://www.w3.org/2000/svg" xmlns:xlink="http://www.w3.org/1999/xlink" width="431.9871530532837" height="168.55935955047607"><defs/><g transform="translate(-403.32634449005127,-256.6579866409302)"><g><path fill="white" stroke="#505050" paint-order="fill stroke markers" d=" M 404.32634449005127 265.6579866409302 L 404.32634449005127 416.21734619140625 Q 404.32634449005127 424.21734619140625 412.32634449005127 424.21734619140625 L 826.313497543335 424.21734619140625 Q 834.313497543335 424.21734619140625 834.313497543335 416.21734619140625 L 834.313497543335 265.6579866409302 Q 834.313497543335 257.6579866409302 826.313497543335 257.6579866409302 L 412.32634449005127 257.6579866409302 Q 404.32634449005127 257.6579866409302 404.32634449005127 265.6579866409302" stroke-miterlimit="10" stroke-width="0.5" stroke-dasharray=""/><path fill="#F0F0F0" stroke="#505050" paint-order="fill stroke markers" d=" M 725.313497543335 265.6579866409302 L 834.313497543335 265.6579866409302 L 834.313497543335 367.6579866409302 L 725.313497543335 367.6579866409302 L 725.313497543335 265.6579866409302 Z" stroke-miterlimit="10" stroke-width="0.5" stroke-dasharray=""/><path fill="none" stroke="none"/><text fill="#505050" stroke="none" font-family="monospace" font-size="14px" font-style="normal" font-weight="normal" text-decoration="normal" x="779.813497543335" y="283.6579866409302" text-anchor="middle" dominant-baseline="text-after-edge">Array.search</text><path fill="none" stroke="#505050" paint-order="fill stroke markers" d=" M 725.313497543335 283.6579866409302 L 800.313497543335 283.6579866409302 L 800.313497543335 349.6579866409302 L 725.313497543335 349.6579866409302 L 725.313497543335 283.6579866409302 Z" stroke-miterlimit="10" stroke-width="0.5" stroke-dasharray=""/><path fill="none" stroke="none"/><text fill="#505050" stroke="none" font-family="monospace" font-size="14px" font-style="normal" font-weight="normal" text-decoration="normal" x="762.813497543335" y="301.6579866409302" text-anchor="middle" dominant-baseline="text-after-edge">Array</text><path fill="none" stroke="#505050" paint-order="fill stroke markers" d=" M 792.313497543335 301.6579866409302 L 800.313497543335 301.6579866409302 L 800.313497543335 309.6579866409302 L 792.313497543335 309.6579866409302 L 792.313497543335 301.6579866409302 Z" stroke-miterlimit="10" stroke-width="0.5" stroke-dasharray=""/><text fill="#505050" stroke="none" font-family="monospace" font-size="14px" font-style="normal" font-weight="normal" text-decoration="normal" x="784.313497543335" y="315.6579866409302" text-anchor="end" dominant-baseline="text-after-edge">length</text><path fill="none" stroke="#505050" paint-order="fill stroke markers" d=" M 767.313497543335 315.6579866409302 L 800.313497543335 315.6579866409302 L 800.313497543335 345.6579866409302 L 767.313497543335 345.6579866409302 L 767.313497543335 315.6579866409302 Z" stroke-miterlimit="10" stroke-width="0.5" stroke-dasharray=""/><path fill="none" stroke="none"/><text fill="#505050" stroke="none" font-family="monospace" font-size="14px" font-style="normal" font-weight="normal" text-decoration="normal" x="783.813497543335" y="333.6579866409302" text-anchor="middle" dominant-baseline="text-after-edge">[i]</text><path fill="none" stroke="#505050" paint-order="fill stroke markers" d=" M 767.313497543335 333.6579866409302 L 775.313497543335 333.6579866409302 L 775.313497543335 341.6579866409302 L 767.313497543335 341.6579866409302 L 767.313497543335 333.6579866409302 Z" stroke-miterlimit="10" stroke-width="0.5" stroke-dasharray=""/><path fill="none" stroke="#505050" paint-order="fill stroke markers" d=" M 792.313497543335 333.6579866409302 L 800.313497543335 333.6579866409302 L 800.313497543335 341.6579866409302 L 792.313497543335 341.6579866409302 L 792.313497543335 333.6579866409302 Z" stroke-miterlimit="10" stroke-width="0.5" stroke-dasharray=""/><path fill="none" stroke="#505050" paint-order="fill stroke markers" d=" M 725.313497543335 353.6579866409302 L 733.313497543335 353.6579866409302 L 733.313497543335 361.6579866409302 L 725.313497543335 361.6579866409302 L 725.313497543335 353.6579866409302 Z" stroke-miterlimit="10" stroke-width="0.5" stroke-dasharray=""/><text fill="#505050" stroke="none" font-family="monospace" font-size="14px" font-style="normal" font-weight="normal" text-decoration="normal" x="741.313497543335" y="367.6579866409302" text-anchor="start" dominant-baseline="text-after-edge">t</text><path fill="none" stroke="#505050" paint-order="fill stroke markers" d=" M 826.313497543335 283.6579866409302 L 834.313497543335 283.6579866409302 L 834.313497543335 291.6579866409302 L 826.313497543335 291.6579866409302 L 826.313497543335 283.6579866409302 Z" stroke-miterlimit="10" stroke-width="0.5" stroke-dasharray=""/><path fill="white" stroke="#505050" paint-order="fill stroke markers" d=" M 550.1582937240601 272.66814136505127 L 582.1582937240601 272.66814136505127 L 582.1582937240601 290.66814136505127 L 550.1582937240601 290.66814136505127 L 550.1582937240601 272.66814136505127 Z" stroke-miterlimit="10" stroke-width="0.5" stroke-dasharray=""/><path fill="#F0F0F0" stroke="none" paint-order="stroke fill markers" d=""/><path fill="none" stroke="none"/><path fill="none" stroke="#505050" paint-order="fill stroke markers" d=" M 574.1582937240601 276.66814136505127 L 582.1582937240601 276.66814136505127 L 582.1582937240601 284.66814136505127 L 574.1582937240601 284.66814136505127 L 574.1582937240601 276.66814136505127 Z" stroke-miterlimit="10" stroke-width="0.5" stroke-dasharray=""/><text fill="#505050" stroke="none" font-family="monospace" font-size="14px" font-style="normal" font-weight="normal" text-decoration="normal" x="566.1582937240601" y="290.66814136505127" text-anchor="end" dominant-baseline="text-after-edge">0</text><path fill="white" stroke="#505050" paint-order="fill stroke markers" d=" M 696.6743984222412 286.6999053955078 L 704.6743984222412 286.6999053955078 L 712.6743984222412 294.6999053955078 L 704.6743984222412 302.6999053955078 L 696.6743984222412 302.6999053955078 L 696.6743984222412 286.6999053955078" stroke-miterlimit="10" stroke-width="0.5" stroke-dasharray=""/><path fill="none" stroke="none"/><path fill="none" stroke="#505050" paint-order="fill stroke markers" d=" M 696.6743984222412 290.6999053955078 L 704.6743984222412 290.6999053955078 L 704.6743984222412 298.6999053955078 L 696.6743984222412 298.6999053955078 L 696.6743984222412 290.6999053955078 Z" stroke-miterlimit="10" stroke-width="0.5" stroke-dasharray=""/><path fill="white" stroke="#505050" paint-order="fill stroke markers" d=" M 411.39166259765625 267.2397356033325 L 486.39166259765625 267.2397356033325 L 486.39166259765625 333.2397356033325 L 411.39166259765625 333.2397356033325 L 411.39166259765625 267.2397356033325 Z" stroke-miterlimit="10" stroke-width="0.5" stroke-dasharray="6,3"/><path fill="#F0F0F0" stroke="none" paint-order="stroke fill markers" d=" M 453.39166259765625 299.2397356033325 L 486.39166259765625 299.2397356033325 L 486.39166259765625 329.2397356033325 L 453.39166259765625 329.2397356033325 L 453.39166259765625 299.2397356033325 Z"/><path fill="none" stroke="none"/><text fill="#505050" stroke="none" font-family="monospace" font-size="14px" font-style="normal" font-weight="normal" text-decoration="normal" x="448.89166259765625" y="285.2397356033325" text-anchor="middle" dominant-baseline="text-after-edge">Array</text><path fill="none" stroke="#505050" paint-order="fill stroke markers" d=" M 478.39166259765625 285.2397356033325 L 486.39166259765625 285.2397356033325 L 486.39166259765625 293.2397356033325 L 478.39166259765625 293.2397356033325 L 478.39166259765625 285.2397356033325 Z" stroke-miterlimit="10" stroke-width="0.5" stroke-dasharray="0"/><text fill="#505050" stroke="none" font-family="monospace" font-size="14px" font-style="normal" font-weight="normal" text-decoration="normal" x="470.39166259765625" y="299.2397356033325" text-anchor="end" dominant-baseline="text-after-edge">length</text><path fill="none" stroke="#505050" paint-order="fill stroke markers" d=" M 453.39166259765625 299.2397356033325 L 486.39166259765625 299.2397356033325 L 486.39166259765625 329.2397356033325 L 453.39166259765625 329.2397356033325 L 453.39166259765625 299.2397356033325 Z" stroke-miterlimit="10" stroke-width="0.5" stroke-dasharray="0"/><path fill="none" stroke="none"/><text fill="#505050" stroke="none" font-family="monospace" font-size="14px" font-style="normal" font-weight="normal" text-decoration="normal" x="469.89166259765625" y="317.2397356033325" text-anchor="middle" dominant-baseline="text-after-edge">[i]</text><path fill="none" stroke="#505050" paint-order="fill stroke markers" d=" M 453.39166259765625 317.2397356033325 L 461.39166259765625 317.2397356033325 L 461.39166259765625 325.2397356033325 L 453.39166259765625 325.2397356033325 L 453.39166259765625 317.2397356033325 Z" stroke-miterlimit="10" stroke-width="0.5" stroke-dasharray="0"/><path fill="none" stroke="#505050" paint-order="fill stroke markers" d=" M 478.39166259765625 317.2397356033325 L 486.39166259765625 317.2397356033325 L 486.39166259765625 325.2397356033325 L 478.39166259765625 325.2397356033325 L 478.39166259765625 317.2397356033325 Z" stroke-miterlimit="10" stroke-width="0.5" stroke-dasharray="0"/><path fill="white" stroke="#505050" paint-order="fill stroke markers" d=" M 411.15871143341064 350.07275104522705 L 443.15871143341064 350.07275104522705 L 443.15871143341064 368.07275104522705 L 411.15871143341064 368.07275104522705 L 419.15871143341064 359.07275104522705 L 411.15871143341064 350.07275104522705" stroke-miterlimit="10" stroke-width="0.5" stroke-dasharray="0"/><path fill="none" stroke="none"/><path fill="none" stroke="#505050" paint-order="fill stroke markers" d=" M 435.15871143341064 354.07275104522705 L 443.15871143341064 354.07275104522705 L 443.15871143341064 362.07275104522705 L 435.15871143341064 362.07275104522705 L 435.15871143341064 354.07275104522705 Z" stroke-miterlimit="10" stroke-width="0.5" stroke-dasharray="0"/><text fill="#505050" stroke="none" font-family="monospace" font-size="14px" font-style="normal" font-weight="normal" text-decoration="normal" x="427.15871143341064" y="368.07275104522705" text-anchor="end" dominant-baseline="text-after-edge">t</text><path fill="white" stroke="#505050" paint-order="fill stroke markers" d=" M 498.5060625076294 349.899169921875 L 637.5060625076294 349.899169921875 L 637.5060625076294 403.899169921875 L 498.5060625076294 403.899169921875 L 498.5060625076294 349.899169921875 Z" stroke-miterlimit="10" stroke-width="0.5" stroke-dasharray="0"/><path fill="#F0F0F0" stroke="none" paint-order="stroke fill markers" d=" M 563.5060625076294 353.899169921875 L 637.5060625076294 353.899169921875 L 637.5060625076294 399.899169921875 L 563.5060625076294 399.899169921875 L 563.5060625076294 353.899169921875 Z"/><path fill="none" stroke="none"/><path fill="none" stroke="#505050" paint-order="fill stroke markers" d=" M 498.5060625076294 353.899169921875 L 506.5060625076294 353.899169921875 L 506.5060625076294 361.899169921875 L 498.5060625076294 361.899169921875 L 498.5060625076294 353.899169921875 Z" stroke-miterlimit="10" stroke-width="0.5" stroke-dasharray="0"/><text fill="#505050" stroke="none" font-family="monospace" font-size="14px" font-style="normal" font-weight="normal" text-decoration="normal" x="514.5060625076294" y="367.899169921875" text-anchor="start" dominant-baseline="text-after-edge">t</text><path fill="none" stroke="#505050" paint-order="fill stroke markers" d=" M 498.5060625076294 367.899169921875 L 522.5060625076294 367.899169921875 L 522.5060625076294 383.899169921875 L 498.5060625076294 383.899169921875 L 498.5060625076294 367.899169921875 Z" stroke-miterlimit="10" stroke-width="0.5" stroke-dasharray="0"/><path fill="none" stroke="none"/><path fill="none" stroke="#505050" paint-order="fill stroke markers" d=" M 498.5060625076294 371.899169921875 L 506.5060625076294 371.899169921875 L 506.5060625076294 379.899169921875 L 498.5060625076294 379.899169921875 L 498.5060625076294 371.899169921875 Z" stroke-miterlimit="10" stroke-width="0.5" stroke-dasharray="0"/><path fill="none" stroke="#505050" paint-order="fill stroke markers" d=" M 514.5060625076294 371.899169921875 L 522.5060625076294 371.899169921875 L 522.5060625076294 379.899169921875 L 514.5060625076294 379.899169921875 L 514.5060625076294 371.899169921875 Z" stroke-miterlimit="10" stroke-width="0.5" stroke-dasharray="0"/><text fill="#505050" stroke="none" font-family="monospace" font-size="14px" font-style="normal" font-weight="normal" text-decoration="normal" x="530.5060625076294" y="384.899169921875" text-anchor="start" dominant-baseline="text-after-edge">[i]</text><path fill="none" stroke="#505050" paint-order="fill stroke markers" d=" M 563.5060625076294 353.899169921875 L 637.5060625076294 353.899169921875 L 637.5060625076294 399.899169921875 L 563.5060625076294 399.899169921875 L 563.5060625076294 353.899169921875 Z" stroke-miterlimit="10" stroke-width="0.5" stroke-dasharray="0"/><path fill="none" stroke="none"/><text fill="#505050" stroke="none" font-family="monospace" font-size="14px" font-style="normal" font-weight="normal" text-decoration="normal" x="600.5060625076294" y="371.899169921875" text-anchor="middle" dominant-baseline="text-after-edge">search</text><path fill="none" stroke="#505050" paint-order="fill stroke markers" d=" M 563.5060625076294 371.899169921875 L 571.5060625076294 371.899169921875 L 571.5060625076294 379.899169921875 L 563.5060625076294 379.899169921875 L 563.5060625076294 371.899169921875 Z" stroke-miterlimit="10" stroke-width="0.5" stroke-dasharray="0"/><text fill="#505050" stroke="none" font-family="monospace" font-size="14px" font-style="normal" font-weight="normal" text-decoration="normal" x="579.5060625076294" y="385.899169921875" text-anchor="start" dominant-baseline="text-after-edge">lo</text><path fill="none" stroke="#505050" paint-order="fill stroke markers" d=" M 563.5060625076294 385.899169921875 L 571.5060625076294 385.899169921875 L 571.5060625076294 393.899169921875 L 563.5060625076294 393.899169921875 L 563.5060625076294 385.899169921875 Z" stroke-miterlimit="10" stroke-width="0.5" stroke-dasharray="0"/><text fill="#505050" stroke="none" font-family="monospace" font-size="14px" font-style="normal" font-weight="normal" text-decoration="normal" x="579.5060625076294" y="399.899169921875" text-anchor="start" dominant-baseline="text-after-edge">hi</text><path fill="none" stroke="#505050" paint-order="fill stroke markers" d=" M 629.5060625076294 371.899169921875 L 637.5060625076294 371.899169921875 L 637.5060625076294 379.899169921875 L 629.5060625076294 379.899169921875 L 629.5060625076294 371.899169921875 Z" stroke-miterlimit="10" stroke-width="0.5" stroke-dasharray="0"/><text fill="#505050" stroke="none" font-family="monospace" font-size="14px" font-style="normal" font-weight="normal" text-decoration="normal" x="621.5060625076294" y="385.899169921875" text-anchor="end" dominant-baseline="text-after-edge">lo</text><path fill="none" stroke="#505050" paint-order="fill stroke markers" d=" M 629.5060625076294 385.899169921875 L 637.5060625076294 385.899169921875 L 637.5060625076294 393.899169921875 L 629.5060625076294 393.899169921875 L 629.5060625076294 385.899169921875 Z" stroke-miterlimit="10" stroke-width="0.5" stroke-dasharray="0"/><text fill="#505050" stroke="none" font-family="monospace" font-size="14px" font-style="normal" font-weight="normal" text-decoration="normal" x="621.5060625076294" y="399.899169921875" text-anchor="end" dominant-baseline="text-after-edge">hi</text><path fill="white" stroke="#505050" paint-order="fill stroke markers" d=" M 609.8375244140625 270.8687286376953 L 683.8375244140625 270.8687286376953 L 683.8375244140625 316.8687286376953 L 609.8375244140625 316.8687286376953 L 609.8375244140625 270.8687286376953 Z" stroke-miterlimit="10" stroke-width="0.5" stroke-dasharray="0"/><path fill="#F0F0F0" stroke="none" paint-order="stroke fill markers" d=""/><path fill="none" stroke="none"/><text fill="#505050" stroke="none" font-family="monospace" font-size="14px" font-style="normal" font-weight="normal" text-decoration="normal" x="646.8375244140625" y="288.8687286376953" text-anchor="middle" dominant-baseline="text-after-edge">search</text><path fill="none" stroke="#505050" paint-order="fill stroke markers" d=" M 609.8375244140625 288.8687286376953 L 617.8375244140625 288.8687286376953 L 617.8375244140625 296.8687286376953 L 609.8375244140625 296.8687286376953 L 609.8375244140625 288.8687286376953 Z" stroke-miterlimit="10" stroke-width="0.5" stroke-dasharray="0"/><text fill="#505050" stroke="none" font-family="monospace" font-size="14px" font-style="normal" font-weight="normal" text-decoration="normal" x="625.8375244140625" y="302.8687286376953" text-anchor="start" dominant-baseline="text-after-edge">lo</text><path fill="none" stroke="#505050" paint-order="fill stroke markers" d=" M 609.8375244140625 302.8687286376953 L 617.8375244140625 302.8687286376953 L 617.8375244140625 310.8687286376953 L 609.8375244140625 310.8687286376953 L 609.8375244140625 302.8687286376953 Z" stroke-miterlimit="10" stroke-width="0.5" stroke-dasharray="0"/><text fill="#505050" stroke="none" font-family="monospace" font-size="14px" font-style="normal" font-weight="normal" text-decoration="normal" x="625.8375244140625" y="316.8687286376953" text-anchor="start" dominant-baseline="text-after-edge">hi</text><path fill="none" stroke="#505050" paint-order="fill stroke markers" d=" M 675.8375244140625 288.8687286376953 L 683.8375244140625 288.8687286376953 L 683.8375244140625 296.8687286376953 L 675.8375244140625 296.8687286376953 L 675.8375244140625 288.8687286376953 Z" stroke-miterlimit="10" stroke-width="0.5" stroke-dasharray="0"/><text fill="#505050" stroke="none" font-family="monospace" font-size="14px" font-style="normal" font-weight="normal" text-decoration="normal" x="667.8375244140625" y="302.8687286376953" text-anchor="end" dominant-baseline="text-after-edge">lo</text><path fill="none" stroke="#505050" paint-order="fill stroke markers" d=" M 675.8375244140625 302.8687286376953 L 683.8375244140625 302.8687286376953 L 683.8375244140625 310.8687286376953 L 675.8375244140625 310.8687286376953 L 675.8375244140625 302.8687286376953 Z" stroke-miterlimit="10" stroke-width="0.5" stroke-dasharray="0"/><text fill="#505050" stroke="none" font-family="monospace" font-size="14px" font-style="normal" font-weight="normal" text-decoration="normal" x="667.8375244140625" y="316.8687286376953" text-anchor="end" dominant-baseline="text-after-edge">hi</text><path fill="#e0e0e0" stroke="none" paint-order="stroke fill markers" d=" M 645.5060625076294 376.899169921875 L 637.5060625076294 353.899169921875 L 637.5060625076294 399.899169921875 Z M 601.8375244140625 293.8687286376953 L 609.8375244140625 270.8687286376953 L 609.8375244140625 316.8687286376953 Z"/><path fill="none" stroke="none"/><path fill="none" stroke="#e0e0e0" paint-order="fill stroke markers" d=" M 645.5060625076294 376.899169921875 C 673.650148670032 376.899169921875 573.6934382516599 293.8687286376953 601.8375244140625 293.8687286376953" stroke-miterlimit="10" stroke-width="2" stroke-dasharray="0"/><path fill="none" stroke="#505050" paint-order="fill stroke markers" d=" M 486.39166259765625 314.2397356033325 C 505.2431348825874 314.2397356033325 479.65459022269823 375.899169921875 498.5060625076294 375.899169921875" stroke-miterlimit="10" stroke-dasharray="0"/><path fill="none" stroke="#505050" paint-order="fill stroke markers" d=" M 443.15871143341064 358.07275104522705 C 459.7629984136013 358.07275104522705 481.90177552743876 357.899169921875 498.5060625076294 357.899169921875" stroke-miterlimit="10" stroke-dasharray="0"/><path fill="none" stroke="#505050" paint-order="fill stroke markers" d=" M 582.1582937240601 280.66814136505127 C 591.2329547494041 280.66814136505127 600.7628633887184 292.8687286376953 609.8375244140625 292.8687286376953" stroke-miterlimit="10" stroke-dasharray="0"/><path fill="none" stroke="#505050" paint-order="fill stroke markers" d=" M 683.8375244140625 292.8687286376953 C 687.7275718219765 292.8687286376953 692.7843510143272 294.6999053955078 696.6743984222412 294.6999053955078" stroke-miterlimit="10" stroke-dasharray="0"/><path fill="none" stroke="#505050" paint-order="fill stroke markers" d=" M 486.39166259765625 289.2397356033325 C 523.8011479930753 289.2397356033325 572.4280390186434 306.8687286376953 609.8375244140625 306.8687286376953" stroke-miterlimit="10" stroke-dasharray="0"/></g></g></svg>