<svg version="1.1" xmlns="http://www.w3.org/2000/svg" xmlns:xlink="http://www.w3.org/1999/xlink" width="437.6902780532837" height="176.37286376953125"><defs/><g transform="translate(-460.08769702911377,-96.87817096710205)"><g><path fill="white" stroke="#505050" paint-order="fill stroke markers" d=" M 461.08769702911377 105.87817096710205 L 461.08769702911377 264.2510347366333 Q 461.08769702911377 272.2510347366333 469.08769702911377 272.2510347366333 L 888.7779750823975 272.2510347366333 Q 896.7779750823975 272.2510347366333 896.7779750823975 264.2510347366333 L 896.7779750823975 105.87817096710205 Q 896.7779750823975 97.87817096710205 888.7779750823975 97.87817096710205 L 469.08769702911377 97.87817096710205 Q 461.08769702911377 97.87817096710205 461.08769702911377 105.87817096710205" stroke-miterlimit="10" stroke-width="0.5" stroke-dasharray=""/><path fill="#F0F0F0" stroke="#505050" paint-order="fill stroke markers" d=" M 787.7779750823975 105.87817096710205 L 896.7779750823975 105.87817096710205 L 896.7779750823975 207.87817096710205 L 787.7779750823975 207.87817096710205 L 787.7779750823975 105.87817096710205 Z" stroke-miterlimit="10" stroke-width="0.5" stroke-dasharray=""/><path fill="none" stroke="none"/><text fill="#505050" stroke="none" font-family="monospace" font-size="14px" font-style="normal" font-weight="normal" text-decoration="normal" x="842.2779750823975" y="123.87817096710205" text-anchor="middle" dominant-baseline="text-after-edge">Array.search</text><path fill="none" stroke="#505050" paint-order="fill stroke markers" d=" M 787.7779750823975 123.87817096710205 L 862.7779750823975 123.87817096710205 L 862.7779750823975 189.87817096710205 L 787.7779750823975 189.87817096710205 L 787.7779750823975 123.87817096710205 Z" stroke-miterlimit="10" stroke-width="0.5" stroke-dasharray=""/><path fill="none" stroke="none"/><text fill="#505050" stroke="none" font-family="monospace" font-size="14px" font-style="normal" font-weight="normal" text-decoration="normal" x="825.2779750823975" y="141.87817096710205" text-anchor="middle" dominant-baseline="text-after-edge">Array</text><path fill="none" stroke="#505050" paint-order="fill stroke markers" d=" M 854.7779750823975 141.87817096710205 L 862.7779750823975 141.87817096710205 L 862.7779750823975 149.87817096710205 L 854.7779750823975 149.87817096710205 L 854.7779750823975 141.87817096710205 Z" stroke-miterlimit="10" stroke-width="0.5" stroke-dasharray=""/><text fill="#505050" stroke="none" font-family="monospace" font-size="14px" font-style="normal" font-weight="normal" text-decoration="normal" x="846.7779750823975" y="155.87817096710205" text-anchor="end" dominant-baseline="text-after-edge">length</text><path fill="none" stroke="#505050" paint-order="fill stroke markers" d=" M 829.7779750823975 155.87817096710205 L 862.7779750823975 155.87817096710205 L 862.7779750823975 185.87817096710205 L 829.7779750823975 185.87817096710205 L 829.7779750823975 155.87817096710205 Z" stroke-miterlimit="10" stroke-width="0.5" stroke-dasharray=""/><path fill="none" stroke="none"/><text fill="#505050" stroke="none" font-family="monospace" font-size="14px" font-style="normal" font-weight="normal" text-decoration="normal" x="846.2779750823975" y="173.87817096710205" text-anchor="middle" dominant-baseline="text-after-edge">[i]</text><path fill="none" stroke="#505050" paint-order="fill stroke markers" d=" M 829.7779750823975 173.87817096710205 L 837.7779750823975 173.87817096710205 L 837.7779750823975 181.87817096710205 L 829.7779750823975 181.87817096710205 L 829.7779750823975 173.87817096710205 Z" stroke-miterlimit="10" stroke-width="0.5" stroke-dasharray=""/><path fill="none" stroke="#505050" paint-order="fill stroke markers" d=" M 854.7779750823975 173.87817096710205 L 862.7779750823975 173.87817096710205 L 862.7779750823975 181.87817096710205 L 854.7779750823975 181.87817096710205 L 854.7779750823975 173.87817096710205 Z" stroke-miterlimit="10" stroke-width="0.5" stroke-dasharray=""/><path fill="none" stroke="#505050" paint-order="fill stroke markers" d=" M 787.7779750823975 193.87817096710205 L 795.7779750823975 193.87817096710205 L 795.7779750823975 201.87817096710205 L 787.7779750823975 201.87817096710205 L 787.7779750823975 193.87817096710205 Z" stroke-miterlimit="10" stroke-width="0.5" stroke-dasharray=""/><text fill="#505050" stroke="none" font-family="monospace" font-size="14px" font-style="normal" font-weight="normal" text-decoration="normal" x="803.7779750823975" y="207.87817096710205" text-anchor="start" dominant-baseline="text-after-edge">t</text><path fill="none" stroke="#505050" paint-order="fill stroke markers" d=" M 888.7779750823975 123.87817096710205 L 896.7779750823975 123.87817096710205 L 896.7779750823975 131.87817096710205 L 888.7779750823975 131.87817096710205 L 888.7779750823975 123.87817096710205 Z" stroke-miterlimit="10" stroke-width="0.5" stroke-dasharray=""/><path fill="white" stroke="#505050" paint-order="fill stroke markers" d=" M 576.3301687240601 106.9295244216919 L 608.3301687240601 106.9295244216919 L 608.3301687240601 124.9295244216919 L 576.3301687240601 124.9295244216919 L 576.3301687240601 106.9295244216919 Z" stroke-miterlimit="10" stroke-width="0.5" stroke-dasharray=""/><path fill="#F0F0F0" stroke="none" paint-order="stroke fill markers" d=""/><path fill="none" stroke="none"/><path fill="none" stroke="#505050" paint-order="fill stroke markers" d=" M 600.3301687240601 110.9295244216919 L 608.3301687240601 110.9295244216919 L 608.3301687240601 118.9295244216919 L 600.3301687240601 118.9295244216919 L 600.3301687240601 110.9295244216919 Z" stroke-miterlimit="10" stroke-width="0.5" stroke-dasharray=""/><text fill="#505050" stroke="none" font-family="monospace" font-size="14px" font-style="normal" font-weight="normal" text-decoration="normal" x="592.3301687240601" y="124.9295244216919" text-anchor="end" dominant-baseline="text-after-edge">0</text><path fill="white" stroke="#505050" paint-order="fill stroke markers" d=" M 734.224142074585 119.78938293457031 L 742.224142074585 119.78938293457031 L 750.224142074585 127.78938293457031 L 742.224142074585 135.7893829345703 L 734.224142074585 135.7893829345703 L 734.224142074585 119.78938293457031" stroke-miterlimit="10" stroke-width="0.5" stroke-dasharray=""/><path fill="none" stroke="none"/><path fill="none" stroke="#505050" paint-order="fill stroke markers" d=" M 734.224142074585 123.78938293457031 L 742.224142074585 123.78938293457031 L 742.224142074585 131.7893829345703 L 734.224142074585 131.7893829345703 L 734.224142074585 123.78938293457031 Z" stroke-miterlimit="10" stroke-width="0.5" stroke-dasharray=""/><path fill="white" stroke="#505050" paint-order="fill stroke markers" d=" M 468.15301513671875 107.4599199295044 L 543.1530151367188 107.4599199295044 L 543.1530151367188 173.4599199295044 L 468.15301513671875 173.4599199295044 L 468.15301513671875 107.4599199295044 Z" stroke-miterlimit="10" stroke-width="0.5" stroke-dasharray="6,3"/><path fill="#F0F0F0" stroke="none" paint-order="stroke fill markers" d=" M 510.15301513671875 139.4599199295044 L 543.1530151367188 139.4599199295044 L 543.1530151367188 169.4599199295044 L 510.15301513671875 169.4599199295044 L 510.15301513671875 139.4599199295044 Z"/><path fill="none" stroke="none"/><text fill="#505050" stroke="none" font-family="monospace" font-size="14px" font-style="normal" font-weight="normal" text-decoration="normal" x="505.65301513671875" y="125.4599199295044" text-anchor="middle" dominant-baseline="text-after-edge">Array</text><path fill="none" stroke="#505050" paint-order="fill stroke markers" d=" M 535.1530151367188 125.4599199295044 L 543.1530151367188 125.4599199295044 L 543.1530151367188 133.4599199295044 L 535.1530151367188 133.4599199295044 L 535.1530151367188 125.4599199295044 Z" stroke-miterlimit="10" stroke-width="0.5" stroke-dasharray="0"/><text fill="#505050" stroke="none" font-family="monospace" font-size="14px" font-style="normal" font-weight="normal" text-decoration="normal" x="527.1530151367188" y="139.4599199295044" text-anchor="end" dominant-baseline="text-after-edge">length</text><path fill="none" stroke="#505050" paint-order="fill stroke markers" d=" M 510.15301513671875 139.4599199295044 L 543.1530151367188 139.4599199295044 L 543.1530151367188 169.4599199295044 L 510.15301513671875 169.4599199295044 L 510.15301513671875 139.4599199295044 Z" stroke-miterlimit="10" stroke-width="0.5" stroke-dasharray="0"/><path fill="none" stroke="none"/><text fill="#505050" stroke="none" font-family="monospace" font-size="14px" font-style="normal" font-weight="normal" text-decoration="normal" x="526.6530151367188" y="157.4599199295044" text-anchor="middle" dominant-baseline="text-after-edge">[i]</text><path fill="none" stroke="#505050" paint-order="fill stroke markers" d=" M 510.15301513671875 157.4599199295044 L 518.1530151367188 157.4599199295044 L 518.1530151367188 165.4599199295044 L 510.15301513671875 165.4599199295044 L 510.15301513671875 157.4599199295044 Z" stroke-miterlimit="10" stroke-width="0.5" stroke-dasharray="0"/><path fill="none" stroke="#505050" paint-order="fill stroke markers" d=" M 535.1530151367188 157.4599199295044 L 543.1530151367188 157.4599199295044 L 543.1530151367188 165.4599199295044 L 535.1530151367188 165.4599199295044 L 535.1530151367188 157.4599199295044 Z" stroke-miterlimit="10" stroke-width="0.5" stroke-dasharray="0"/><path fill="white" stroke="#505050" paint-order="fill stroke markers" d=" M 508.09755420684814 238.2510347366333 L 540.0975542068481 238.2510347366333 L 540.0975542068481 256.2510347366333 L 508.09755420684814 256.2510347366333 L 516.0975542068481 247.2510347366333 L 508.09755420684814 238.2510347366333" stroke-miterlimit="10" stroke-width="0.5" stroke-dasharray="0"/><path fill="none" stroke="none"/><path fill="none" stroke="#505050" paint-order="fill stroke markers" d=" M 532.0975542068481 242.2510347366333 L 540.0975542068481 242.2510347366333 L 540.0975542068481 250.2510347366333 L 532.0975542068481 250.2510347366333 L 532.0975542068481 242.2510347366333 Z" stroke-miterlimit="10" stroke-width="0.5" stroke-dasharray="0"/><text fill="#505050" stroke="none" font-family="monospace" font-size="14px" font-style="normal" font-weight="normal" text-decoration="normal" x="524.0975542068481" y="256.2510347366333" text-anchor="end" dominant-baseline="text-after-edge">t</text><path fill="white" stroke="#505050" paint-order="fill stroke markers" d=" M 633.3535766601562 105.6363722383976 L 717.3535766601562 105.6363722383976 L 717.3535766601562 217.6363722383976 L 633.3535766601562 217.6363722383976 L 633.3535766601562 105.6363722383976 Z" stroke-miterlimit="10" stroke-width="0.5" stroke-dasharray="0"/><path fill="#F0F0F0" stroke="none" paint-order="stroke fill markers" d=""/><path fill="none" stroke="none"/><text fill="#505050" stroke="none" font-family="monospace" font-size="14px" font-style="normal" font-weight="normal" text-decoration="normal" x="675.3535766601562" y="123.6363722383976" text-anchor="middle" dominant-baseline="text-after-edge">binSearch</text><path fill="none" stroke="#505050" paint-order="fill stroke markers" d=" M 633.3535766601562 123.6363722383976 L 641.3535766601562 123.6363722383976 L 641.3535766601562 131.6363722383976 L 633.3535766601562 131.6363722383976 L 633.3535766601562 123.6363722383976 Z" stroke-miterlimit="10" stroke-width="0.5" stroke-dasharray="0"/><text fill="#505050" stroke="none" font-family="monospace" font-size="14px" font-style="normal" font-weight="normal" text-decoration="normal" x="649.3535766601562" y="137.6363722383976" text-anchor="start" dominant-baseline="text-after-edge">lo</text><path fill="none" stroke="#505050" paint-order="fill stroke markers" d=" M 633.3535766601562 137.6363722383976 L 641.3535766601562 137.6363722383976 L 641.3535766601562 145.6363722383976 L 633.3535766601562 145.6363722383976 L 633.3535766601562 137.6363722383976 Z" stroke-miterlimit="10" stroke-width="0.5" stroke-dasharray="0"/><text fill="#505050" stroke="none" font-family="monospace" font-size="14px" font-style="normal" font-weight="normal" text-decoration="normal" x="649.3535766601562" y="151.6363722383976" text-anchor="start" dominant-baseline="text-after-edge">hi</text><path fill="none" stroke="#505050" paint-order="fill stroke markers" d=" M 633.3535766601562 151.6363722383976 L 657.3535766601562 151.6363722383976 L 657.3535766601562 167.6363722383976 L 633.3535766601562 167.6363722383976 L 633.3535766601562 151.6363722383976 Z" stroke-miterlimit="10" stroke-width="0.5" stroke-dasharray="0"/><path fill="none" stroke="none"/><path fill="none" stroke="#505050" paint-order="fill stroke markers" d=" M 633.3535766601562 155.6363722383976 L 641.3535766601562 155.6363722383976 L 641.3535766601562 163.6363722383976 L 633.3535766601562 163.6363722383976 L 633.3535766601562 155.6363722383976 Z" stroke-miterlimit="10" stroke-width="0.5" stroke-dasharray="0"/><path fill="none" stroke="#505050" paint-order="fill stroke markers" d=" M 649.3535766601562 155.6363722383976 L 657.3535766601562 155.6363722383976 L 657.3535766601562 163.6363722383976 L 649.3535766601562 163.6363722383976 L 649.3535766601562 155.6363722383976 Z" stroke-miterlimit="10" stroke-width="0.5" stroke-dasharray="0"/><text fill="#505050" stroke="none" font-family="monospace" font-size="14px" font-style="normal" font-weight="normal" text-decoration="normal" x="665.3535766601562" y="168.6363722383976" text-anchor="start" dominant-baseline="text-after-edge">[i]</text><path fill="none" stroke="#505050" paint-order="fill stroke markers" d=" M 633.3535766601562 171.6363722383976 L 657.3535766601562 171.6363722383976 L 657.3535766601562 199.6363722383976 L 633.3535766601562 199.6363722383976 L 633.3535766601562 171.6363722383976 Z" stroke-miterlimit="10" stroke-width="0.5" stroke-dasharray="0"/><path fill="none" stroke="none"/><path fill="none" stroke="#505050" paint-order="fill stroke markers" d=" M 633.3535766601562 175.6363722383976 L 641.3535766601562 175.6363722383976 L 641.3535766601562 183.6363722383976 L 633.3535766601562 183.6363722383976 L 633.3535766601562 175.6363722383976 Z" stroke-miterlimit="10" stroke-width="0.5" stroke-dasharray="0"/><path fill="none" stroke="#505050" paint-order="fill stroke markers" d=" M 633.3535766601562 187.6363722383976 L 641.3535766601562 187.6363722383976 L 641.3535766601562 195.6363722383976 L 633.3535766601562 195.6363722383976 L 633.3535766601562 187.6363722383976 Z" stroke-miterlimit="10" stroke-width="0.5" stroke-dasharray="0"/><path fill="none" stroke="#505050" paint-order="fill stroke markers" d=" M 649.3535766601562 175.6363722383976 L 657.3535766601562 175.6363722383976 L 657.3535766601562 183.6363722383976 L 649.3535766601562 183.6363722383976 L 649.3535766601562 175.6363722383976 Z" stroke-miterlimit="10" stroke-width="0.5" stroke-dasharray="0"/><text fill="#505050" stroke="none" font-family="monospace" font-size="14px" font-style="normal" font-weight="normal" text-decoration="normal" x="665.3535766601562" y="194.6363722383976" text-anchor="start" dominant-baseline="text-after-edge">&lt;</text><path fill="none" stroke="#505050" paint-order="fill stroke markers" d=" M 633.3535766601562 203.6363722383976 L 641.3535766601562 203.6363722383976 L 641.3535766601562 211.6363722383976 L 633.3535766601562 211.6363722383976 L 633.3535766601562 203.6363722383976 Z" stroke-miterlimit="10" stroke-width="0.5" stroke-dasharray="0"/><text fill="#505050" stroke="none" font-family="monospace" font-size="14px" font-style="normal" font-weight="normal" text-decoration="normal" x="649.3535766601562" y="217.6363722383976" text-anchor="start" dominant-baseline="text-after-edge">t</text><path fill="none" stroke="#505050" paint-order="fill stroke markers" d=" M 709.3535766601562 123.6363722383976 L 717.3535766601562 123.6363722383976 L 717.3535766601562 131.6363722383976 L 709.3535766601562 131.6363722383976 L 709.3535766601562 123.6363722383976 Z" stroke-miterlimit="10" stroke-width="0.5" stroke-dasharray="0"/><path fill="none" stroke="#505050" paint-order="fill stroke markers" d=" M 709.3535766601562 135.6363722383976 L 717.3535766601562 135.6363722383976 L 717.3535766601562 143.6363722383976 L 709.3535766601562 143.6363722383976 L 709.3535766601562 135.6363722383976 Z" stroke-miterlimit="10" stroke-width="0.5" stroke-dasharray="0"/><path fill="none" stroke="none"/><path fill="white" stroke="#505050" paint-order="fill stroke markers" d=" M 506.7066650390625 181.32526397705078 L 538.7066650390625 181.32526397705078 L 546.7066650390625 206.32526397705078 L 538.7066650390625 231.32526397705078 L 506.7066650390625 231.32526397705078 L 506.7066650390625 181.32526397705078" stroke-miterlimit="10" stroke-width="0.5" stroke-dasharray="0"/><path fill="none" stroke="none"/><path fill="none" stroke="#505050" paint-order="fill stroke markers" d=" M 514.7066650390625 185.32526397705078 L 538.7066650390625 185.32526397705078 L 538.7066650390625 227.32526397705078 L 514.7066650390625 227.32526397705078 L 514.7066650390625 185.32526397705078 Z" stroke-miterlimit="10" stroke-width="0.5" stroke-dasharray="0"/><path fill="none" stroke="none"/><text fill="#505050" stroke="none" font-family="monospace" font-size="14px" font-style="normal" font-weight="normal" text-decoration="normal" x="526.7066650390625" y="203.32526397705078" text-anchor="middle" dominant-baseline="text-after-edge">&lt;</text><path fill="none" stroke="#505050" paint-order="fill stroke markers" d=" M 514.7066650390625 203.32526397705078 L 522.7066650390625 203.32526397705078 L 522.7066650390625 211.32526397705078 L 514.7066650390625 211.32526397705078 L 514.7066650390625 203.32526397705078 Z" stroke-miterlimit="10" stroke-width="0.5" stroke-dasharray="0"/><path fill="none" stroke="#505050" paint-order="fill stroke markers" d=" M 514.7066650390625 215.32526397705078 L 522.7066650390625 215.32526397705078 L 522.7066650390625 223.32526397705078 L 514.7066650390625 223.32526397705078 L 514.7066650390625 215.32526397705078 Z" stroke-miterlimit="10" stroke-width="0.5" stroke-dasharray="0"/><path fill="none" stroke="#505050" paint-order="fill stroke markers" d=" M 530.7066650390625 203.32526397705078 L 538.7066650390625 203.32526397705078 L 538.7066650390625 211.32526397705078 L 530.7066650390625 211.32526397705078 L 530.7066650390625 203.32526397705078 Z" stroke-miterlimit="10" stroke-width="0.5" stroke-dasharray="0"/><path fill="none" stroke="#505050" paint-order="fill stroke markers" d=" M 514.7066650390625 185.32526397705078 L 538.7066650390625 185.32526397705078 L 538.7066650390625 227.32526397705078 L 514.7066650390625 227.32526397705078 L 514.7066650390625 185.32526397705078 Z" stroke-miterlimit="10" stroke-width="0.5" stroke-dasharray="0"/><path fill="#F0F0F0" stroke="none" paint-order="stroke fill markers" d=""/><path fill="none" stroke="none"/><text fill="#505050" stroke="none" font-family="monospace" font-size="14px" font-style="normal" font-weight="normal" text-decoration="normal" x="526.7066650390625" y="203.32526397705078" text-anchor="middle" dominant-baseline="text-after-edge">&lt;</text><path fill="none" stroke="#505050" paint-order="fill stroke markers" d=" M 514.7066650390625 203.32526397705078 L 522.7066650390625 203.32526397705078 L 522.7066650390625 211.32526397705078 L 514.7066650390625 211.32526397705078 L 514.7066650390625 203.32526397705078 Z" stroke-miterlimit="10" stroke-width="0.5" stroke-dasharray="0"/><path fill="none" stroke="#505050" paint-order="fill stroke markers" d=" M 514.7066650390625 215.32526397705078 L 522.7066650390625 215.32526397705078 L 522.7066650390625 223.32526397705078 L 514.7066650390625 223.32526397705078 L 514.7066650390625 215.32526397705078 Z" stroke-miterlimit="10" stroke-width="0.5" stroke-dasharray="0"/><path fill="none" stroke="#505050" paint-order="fill stroke markers" d=" M 530.7066650390625 203.32526397705078 L 538.7066650390625 203.32526397705078 L 538.7066650390625 211.32526397705078 L 530.7066650390625 211.32526397705078 L 530.7066650390625 203.32526397705078 Z" stroke-miterlimit="10" stroke-width="0.5" stroke-dasharray="0"/><path fill="none" stroke="#505050" paint-order="fill stroke markers" d=" M 608.3301687240601 114.9295244216919 C 616.7496190241443 114.9295244216919 624.934126360072 127.6363722383976 633.3535766601562 127.6363722383976" stroke-miterlimit="10" stroke-dasharray="0"/><path fill="none" stroke="#505050" paint-order="fill stroke markers" d=" M 543.1530151367188 129.4599199295044 C 570.4586309711525 129.4599199295044 606.0479608257225 141.6363722383976 633.3535766601562 141.6363722383976" stroke-miterlimit="10" stroke-dasharray="0"/><path fill="none" stroke="#505050" paint-order="fill stroke markers" d=" M 543.1530151367188 154.4599199295044 C 570.2577070956485 154.4599199295044 606.2488847012265 159.6363722383976 633.3535766601562 159.6363722383976" stroke-miterlimit="10" stroke-dasharray="0"/><path fill="none" stroke="#505050" paint-order="fill stroke markers" d=" M 540.0975542068481 246.2510347366333 C 570.3779110331772 246.2510347366333 603.0732198338272 207.6363722383976 633.3535766601562 207.6363722383976" stroke-miterlimit="10" stroke-dasharray="0"/><path fill="none" stroke="#505050" paint-order="fill stroke markers" d=" M 717.3535766601562 127.6363722383976 C 722.4149544440022 127.6363722383976 729.162764290739 127.78938293457031 734.224142074585 127.78938293457031" stroke-miterlimit="10" stroke-dasharray="0"/><path fill="none" stroke="#505050" paint-order="fill stroke markers" d=" M 538.7066650390625 206.32526397705078 C 567.7711817367583 206.32526397705078 604.2890599624604 185.6363722383976 633.3535766601562 185.6363722383976" stroke-miterlimit="10" stroke-dasharray="0"/></g></g></svg>