<svg version="1.1" xmlns="http://www.w3.org/2000/svg" xmlns:xlink="http://www.w3.org/1999/xlink" width="683.0670387744904" height="709.5466918945312"><defs/><g transform="translate(-364.1369094848633,-19.4505615234375)"><g><path fill="white" stroke="#505050" paint-order="fill stroke markers" d=" M 492.9216003417969 592.1816596984863 L 492.9216003417969 719.9972534179688 Q 492.9216003417969 727.9972534179688 500.9216003417969 727.9972534179688 L 915.4747924804688 727.9972534179688 Q 923.4747924804688 727.9972534179688 923.4747924804688 719.9972534179688 L 923.4747924804688 592.1816596984863 Q 923.4747924804688 584.1816596984863 915.4747924804688 584.1816596984863 L 500.9216003417969 584.1816596984863 Q 492.9216003417969 584.1816596984863 492.9216003417969 592.1816596984863" stroke-miterlimit="10" stroke-width="0.5" stroke-dasharray=""/><path fill="#F0F0F0" stroke="#505050" paint-order="fill stroke markers" d=" M 824.4747924804688 592.1816596984863 L 923.4747924804688 592.1816596984863 L 923.4747924804688 666.1816596984863 L 824.4747924804688 666.1816596984863 L 824.4747924804688 592.1816596984863 Z" stroke-miterlimit="10" stroke-width="0.5" stroke-dasharray=""/><path fill="none" stroke="none"/><text fill="#505050" stroke="none" font-family="monospace" font-size="14px" font-style="normal" font-weight="normal" text-decoration="normal" x="873.9747924804688" y="610.1816596984863" text-anchor="middle" dominant-baseline="text-after-edge">divide</text><path fill="none" stroke="#505050" paint-order="fill stroke markers" d=" M 824.4747924804688 610.1816596984863 L 832.4747924804688 610.1816596984863 L 832.4747924804688 618.1816596984863 L 824.4747924804688 618.1816596984863 L 824.4747924804688 610.1816596984863 Z" stroke-miterlimit="10" stroke-width="0.5" stroke-dasharray=""/><text fill="#505050" stroke="none" font-family="monospace" font-size="14px" font-style="normal" font-weight="normal" text-decoration="normal" x="840.4747924804688" y="624.1816596984863" text-anchor="start" dominant-baseline="text-after-edge">lo</text><path fill="none" stroke="#505050" paint-order="fill stroke markers" d=" M 824.4747924804688 624.1816596984863 L 832.4747924804688 624.1816596984863 L 832.4747924804688 632.1816596984863 L 824.4747924804688 632.1816596984863 L 824.4747924804688 624.1816596984863 Z" stroke-miterlimit="10" stroke-width="0.5" stroke-dasharray=""/><text fill="#505050" stroke="none" font-family="monospace" font-size="14px" font-style="normal" font-weight="normal" text-decoration="normal" x="840.4747924804688" y="638.1816596984863" text-anchor="start" dominant-baseline="text-after-edge">hi</text><path fill="none" stroke="#505050" paint-order="fill stroke markers" d=" M 915.4747924804688 610.1816596984863 L 923.4747924804688 610.1816596984863 L 923.4747924804688 618.1816596984863 L 915.4747924804688 618.1816596984863 L 915.4747924804688 610.1816596984863 Z" stroke-miterlimit="10" stroke-width="0.5" stroke-dasharray=""/><text fill="#505050" stroke="none" font-family="monospace" font-size="14px" font-style="normal" font-weight="normal" text-decoration="normal" x="907.4747924804688" y="624.1816596984863" text-anchor="end" dominant-baseline="text-after-edge">lo</text><path fill="none" stroke="#505050" paint-order="fill stroke markers" d=" M 915.4747924804688 624.1816596984863 L 923.4747924804688 624.1816596984863 L 923.4747924804688 632.1816596984863 L 915.4747924804688 632.1816596984863 L 915.4747924804688 624.1816596984863 Z" stroke-miterlimit="10" stroke-width="0.5" stroke-dasharray=""/><text fill="#505050" stroke="none" font-family="monospace" font-size="14px" font-style="normal" font-weight="normal" text-decoration="normal" x="907.4747924804688" y="638.1816596984863" text-anchor="end" dominant-baseline="text-after-edge">mid</text><path fill="none" stroke="#505050" paint-order="fill stroke markers" d=" M 915.4747924804688 638.1816596984863 L 923.4747924804688 638.1816596984863 L 923.4747924804688 646.1816596984863 L 915.4747924804688 646.1816596984863 L 915.4747924804688 638.1816596984863 Z" stroke-miterlimit="10" stroke-width="0.5" stroke-dasharray=""/><text fill="#505050" stroke="none" font-family="monospace" font-size="14px" font-style="normal" font-weight="normal" text-decoration="normal" x="907.4747924804688" y="652.1816596984863" text-anchor="end" dominant-baseline="text-after-edge">mid+1</text><path fill="none" stroke="#505050" paint-order="fill stroke markers" d=" M 915.4747924804688 652.1816596984863 L 923.4747924804688 652.1816596984863 L 923.4747924804688 660.1816596984863 L 915.4747924804688 660.1816596984863 L 915.4747924804688 652.1816596984863 Z" stroke-miterlimit="10" stroke-width="0.5" stroke-dasharray=""/><text fill="#505050" stroke="none" font-family="monospace" font-size="14px" font-style="normal" font-weight="normal" text-decoration="normal" x="907.4747924804688" y="666.1816596984863" text-anchor="end" dominant-baseline="text-after-edge">hi</text><path fill="white" stroke="#505050" paint-order="fill stroke markers" d=" M 767.05908203125 625.4535140991211 L 808.05908203125 625.4535140991211 L 816.05908203125 634.4535140991211 L 808.05908203125 643.4535140991211 L 767.05908203125 643.4535140991211 L 767.05908203125 625.4535140991211" stroke-miterlimit="10" stroke-width="0.5" stroke-dasharray=""/><path fill="none" stroke="none"/><path fill="none" stroke="#505050" paint-order="fill stroke markers" d=" M 767.05908203125 629.4535140991211 L 775.05908203125 629.4535140991211 L 775.05908203125 637.4535140991211 L 767.05908203125 637.4535140991211 L 767.05908203125 629.4535140991211 Z" stroke-miterlimit="10" stroke-width="0.5" stroke-dasharray=""/><text fill="#505050" stroke="none" font-family="monospace" font-size="14px" font-style="normal" font-weight="normal" text-decoration="normal" x="783.05908203125" y="643.4535140991211" text-anchor="start" dominant-baseline="text-after-edge">mid</text><path fill="white" stroke="#505050" paint-order="fill stroke markers" d=" M 657.02783203125 622.8128890991211 L 749.02783203125 622.8128890991211 L 749.02783203125 652.8128890991211 L 657.02783203125 652.8128890991211 L 657.02783203125 622.8128890991211 Z" stroke-miterlimit="10" stroke-width="0.5" stroke-dasharray=""/><path fill="#F0F0F0" stroke="none" paint-order="stroke fill markers" d=""/><path fill="none" stroke="none"/><text fill="#505050" stroke="none" font-family="monospace" font-size="14px" font-style="normal" font-weight="normal" text-decoration="normal" x="703.02783203125" y="640.8128890991211" text-anchor="middle" dominant-baseline="text-after-edge">Math.floor</text><path fill="none" stroke="#505050" paint-order="fill stroke markers" d=" M 657.02783203125 640.8128890991211 L 665.02783203125 640.8128890991211 L 665.02783203125 648.8128890991211 L 657.02783203125 648.8128890991211 L 657.02783203125 640.8128890991211 Z" stroke-miterlimit="10" stroke-width="0.5" stroke-dasharray=""/><path fill="none" stroke="#505050" paint-order="fill stroke markers" d=" M 741.02783203125 640.8128890991211 L 749.02783203125 640.8128890991211 L 749.02783203125 648.8128890991211 L 741.02783203125 648.8128890991211 L 741.02783203125 640.8128890991211 Z" stroke-miterlimit="10" stroke-width="0.5" stroke-dasharray=""/><path fill="white" stroke="#505050" paint-order="fill stroke markers" d=" M 617.1090774536133 622.5066566467285 L 641.1090774536133 622.5066566467285 L 641.1090774536133 664.5066566467285 L 617.1090774536133 664.5066566467285 L 617.1090774536133 622.5066566467285 Z" stroke-miterlimit="10" stroke-width="0.5" stroke-dasharray=""/><path fill="#F0F0F0" stroke="none" paint-order="stroke fill markers" d=""/><path fill="none" stroke="none"/><text fill="#505050" stroke="none" font-family="monospace" font-size="14px" font-style="normal" font-weight="normal" text-decoration="normal" x="629.1090774536133" y="640.5066566467285" text-anchor="middle" dominant-baseline="text-after-edge">/</text><path fill="none" stroke="#505050" paint-order="fill stroke markers" d=" M 617.1090774536133 640.5066566467285 L 625.1090774536133 640.5066566467285 L 625.1090774536133 648.5066566467285 L 617.1090774536133 648.5066566467285 L 617.1090774536133 640.5066566467285 Z" stroke-miterlimit="10" stroke-width="0.5" stroke-dasharray=""/><path fill="none" stroke="#505050" paint-order="fill stroke markers" d=" M 617.1090774536133 652.5066566467285 L 625.1090774536133 652.5066566467285 L 625.1090774536133 660.5066566467285 L 617.1090774536133 660.5066566467285 L 617.1090774536133 652.5066566467285 Z" stroke-miterlimit="10" stroke-width="0.5" stroke-dasharray=""/><path fill="none" stroke="#505050" paint-order="fill stroke markers" d=" M 633.1090774536133 640.5066566467285 L 641.1090774536133 640.5066566467285 L 641.1090774536133 648.5066566467285 L 633.1090774536133 648.5066566467285 L 633.1090774536133 640.5066566467285 Z" stroke-miterlimit="10" stroke-width="0.5" stroke-dasharray=""/><path fill="white" stroke="#505050" paint-order="fill stroke markers" d=" M 562.2372016906738 662.2285499572754 L 594.2372016906738 662.2285499572754 L 594.2372016906738 680.2285499572754 L 562.2372016906738 680.2285499572754 L 562.2372016906738 662.2285499572754 Z" stroke-miterlimit="10" stroke-width="0.5" stroke-dasharray=""/><path fill="#F0F0F0" stroke="none" paint-order="stroke fill markers" d=""/><path fill="none" stroke="none"/><path fill="none" stroke="#505050" paint-order="fill stroke markers" d=" M 586.2372016906738 666.2285499572754 L 594.2372016906738 666.2285499572754 L 594.2372016906738 674.2285499572754 L 586.2372016906738 674.2285499572754 L 586.2372016906738 666.2285499572754 Z" stroke-miterlimit="10" stroke-width="0.5" stroke-dasharray=""/><text fill="#505050" stroke="none" font-family="monospace" font-size="14px" font-style="normal" font-weight="normal" text-decoration="normal" x="578.2372016906738" y="680.2285499572754" text-anchor="end" dominant-baseline="text-after-edge">2</text><path fill="white" stroke="#505050" paint-order="fill stroke markers" d=" M 565.6466064453125 611.3535499572754 L 589.6466064453125 611.3535499572754 L 589.6466064453125 653.3535499572754 L 565.6466064453125 653.3535499572754 L 565.6466064453125 611.3535499572754 Z" stroke-miterlimit="10" stroke-width="0.5" stroke-dasharray=""/><path fill="#F0F0F0" stroke="none" paint-order="stroke fill markers" d=""/><path fill="none" stroke="none"/><text fill="#505050" stroke="none" font-family="monospace" font-size="14px" font-style="normal" font-weight="normal" text-decoration="normal" x="577.6466064453125" y="629.3535499572754" text-anchor="middle" dominant-baseline="text-after-edge">+</text><path fill="none" stroke="#505050" paint-order="fill stroke markers" d=" M 565.6466064453125 629.3535499572754 L 573.6466064453125 629.3535499572754 L 573.6466064453125 637.3535499572754 L 565.6466064453125 637.3535499572754 L 565.6466064453125 629.3535499572754 Z" stroke-miterlimit="10" stroke-width="0.5" stroke-dasharray=""/><path fill="none" stroke="#505050" paint-order="fill stroke markers" d=" M 565.6466064453125 641.3535499572754 L 573.6466064453125 641.3535499572754 L 573.6466064453125 649.3535499572754 L 565.6466064453125 649.3535499572754 L 565.6466064453125 641.3535499572754 Z" stroke-miterlimit="10" stroke-width="0.5" stroke-dasharray=""/><path fill="none" stroke="#505050" paint-order="fill stroke markers" d=" M 581.6466064453125 629.3535499572754 L 589.6466064453125 629.3535499572754 L 589.6466064453125 637.3535499572754 L 581.6466064453125 637.3535499572754 L 581.6466064453125 629.3535499572754 Z" stroke-miterlimit="10" stroke-width="0.5" stroke-dasharray=""/><path fill="white" stroke="#505050" paint-order="fill stroke markers" d=" M 506.74037170410156 693.7941474914551 L 547.7403717041016 693.7941474914551 L 547.7403717041016 711.7941474914551 L 506.74037170410156 711.7941474914551 L 514.7403717041016 702.7941474914551 L 506.74037170410156 693.7941474914551" stroke-miterlimit="10" stroke-width="0.5" stroke-dasharray=""/><path fill="none" stroke="none"/><path fill="none" stroke="#505050" paint-order="fill stroke markers" d=" M 539.7403717041016 697.7941474914551 L 547.7403717041016 697.7941474914551 L 547.7403717041016 705.7941474914551 L 539.7403717041016 705.7941474914551 L 539.7403717041016 697.7941474914551 Z" stroke-miterlimit="10" stroke-width="0.5" stroke-dasharray=""/><text fill="#505050" stroke="none" font-family="monospace" font-size="14px" font-style="normal" font-weight="normal" text-decoration="normal" x="531.7403717041016" y="711.7941474914551" text-anchor="end" dominant-baseline="text-after-edge">hi</text><path fill="white" stroke="#505050" paint-order="fill stroke markers" d=" M 505.1528625488281 596.719165802002 L 546.1528625488281 596.719165802002 L 546.1528625488281 614.719165802002 L 505.1528625488281 614.719165802002 L 513.1528625488281 605.719165802002 L 505.1528625488281 596.719165802002" stroke-miterlimit="10" stroke-width="0.5" stroke-dasharray=""/><path fill="none" stroke="none"/><path fill="none" stroke="#505050" paint-order="fill stroke markers" d=" M 538.1528625488281 600.719165802002 L 546.1528625488281 600.719165802002 L 546.1528625488281 608.719165802002 L 538.1528625488281 608.719165802002 L 538.1528625488281 600.719165802002 Z" stroke-miterlimit="10" stroke-width="0.5" stroke-dasharray=""/><text fill="#505050" stroke="none" font-family="monospace" font-size="14px" font-style="normal" font-weight="normal" text-decoration="normal" x="530.1528625488281" y="614.719165802002" text-anchor="end" dominant-baseline="text-after-edge">lo</text><path fill="white" stroke="#505050" paint-order="fill stroke markers" d=" M 769.8591003417969 595.9441375732422 L 802.8591003417969 595.9441375732422 L 810.8591003417969 604.9441375732422 L 802.8591003417969 613.9441375732422 L 769.8591003417969 613.9441375732422 L 769.8591003417969 595.9441375732422" stroke-miterlimit="10" stroke-width="0.5" stroke-dasharray=""/><path fill="none" stroke="none"/><path fill="none" stroke="#505050" paint-order="fill stroke markers" d=" M 769.8591003417969 599.9441375732422 L 777.8591003417969 599.9441375732422 L 777.8591003417969 607.9441375732422 L 769.8591003417969 607.9441375732422 L 769.8591003417969 599.9441375732422 Z" stroke-miterlimit="10" stroke-width="0.5" stroke-dasharray=""/><text fill="#505050" stroke="none" font-family="monospace" font-size="14px" font-style="normal" font-weight="normal" text-decoration="normal" x="785.8591003417969" y="613.9441375732422" text-anchor="start" dominant-baseline="text-after-edge">lo</text><path fill="white" stroke="#505050" paint-order="fill stroke markers" d=" M 772.4090576171875 693.9972534179688 L 805.4090576171875 693.9972534179688 L 813.4090576171875 702.9972534179688 L 805.4090576171875 711.9972534179688 L 772.4090576171875 711.9972534179688 L 772.4090576171875 693.9972534179688" stroke-miterlimit="10" stroke-width="0.5" stroke-dasharray=""/><path fill="none" stroke="none"/><path fill="none" stroke="#505050" paint-order="fill stroke markers" d=" M 772.4090576171875 697.9972534179688 L 780.4090576171875 697.9972534179688 L 780.4090576171875 705.9972534179688 L 772.4090576171875 705.9972534179688 L 772.4090576171875 697.9972534179688 Z" stroke-miterlimit="10" stroke-width="0.5" stroke-dasharray=""/><text fill="#505050" stroke="none" font-family="monospace" font-size="14px" font-style="normal" font-weight="normal" text-decoration="normal" x="788.4090576171875" y="711.9972534179688" text-anchor="start" dominant-baseline="text-after-edge">hi</text><path fill="white" stroke="#505050" paint-order="fill stroke markers" d=" M 773.9965515136719 657.7035522460938 L 798.9965515136719 657.7035522460938 L 798.9965515136719 687.7035522460938 L 773.9965515136719 687.7035522460938 L 773.9965515136719 657.7035522460938 Z" stroke-miterlimit="10" stroke-width="0.5" stroke-dasharray=""/><path fill="#F0F0F0" stroke="none" paint-order="stroke fill markers" d=""/><path fill="none" stroke="none"/><text fill="#505050" stroke="none" font-family="monospace" font-size="14px" font-style="normal" font-weight="normal" text-decoration="normal" x="786.4965515136719" y="675.7035522460938" text-anchor="middle" dominant-baseline="text-after-edge">+1</text><path fill="none" stroke="#505050" paint-order="fill stroke markers" d=" M 773.9965515136719 675.7035522460938 L 781.9965515136719 675.7035522460938 L 781.9965515136719 683.7035522460938 L 773.9965515136719 683.7035522460938 L 773.9965515136719 675.7035522460938 Z" stroke-miterlimit="10" stroke-width="0.5" stroke-dasharray=""/><path fill="none" stroke="#505050" paint-order="fill stroke markers" d=" M 790.9965515136719 675.7035522460938 L 798.9965515136719 675.7035522460938 L 798.9965515136719 683.7035522460938 L 790.9965515136719 683.7035522460938 L 790.9965515136719 675.7035522460938 Z" stroke-miterlimit="10" stroke-width="0.5" stroke-dasharray=""/><path fill="white" stroke="#505050" paint-order="fill stroke markers" d=" M 810.6122436523438 671.7160339355469 L 868.6122436523438 671.7160339355469 L 876.6122436523438 680.7160339355469 L 868.6122436523438 689.7160339355469 L 810.6122436523438 689.7160339355469 L 810.6122436523438 671.7160339355469" stroke-miterlimit="10" stroke-width="0.5" stroke-dasharray=""/><path fill="none" stroke="none"/><path fill="none" stroke="#505050" paint-order="fill stroke markers" d=" M 810.6122436523438 675.7160339355469 L 818.6122436523438 675.7160339355469 L 818.6122436523438 683.7160339355469 L 810.6122436523438 683.7160339355469 L 810.6122436523438 675.7160339355469 Z" stroke-miterlimit="10" stroke-width="0.5" stroke-dasharray=""/><text fill="#505050" stroke="none" font-family="monospace" font-size="14px" font-style="normal" font-weight="normal" text-decoration="normal" x="826.6122436523438" y="689.7160339355469" text-anchor="start" dominant-baseline="text-after-edge">mid+1</text><path fill="white" stroke="#505050" paint-order="fill stroke markers" d=" M 555.3574295043945 30.536643981933594 L 555.3574295043945 82.04885864257812 Q 555.3574295043945 90.04885864257812 563.3574295043945 90.04885864257812 L 661.5801162719727 90.04885864257812 Q 669.5801162719727 90.04885864257812 669.5801162719727 82.04885864257812 L 669.5801162719727 30.536643981933594 Q 669.5801162719727 22.536643981933594 661.5801162719727 22.536643981933594 L 563.3574295043945 22.536643981933594 Q 555.3574295043945 22.536643981933594 555.3574295043945 30.536643981933594" stroke-miterlimit="10" stroke-width="0.5" stroke-dasharray=""/><path fill="#F0F0F0" stroke="#505050" paint-order="fill stroke markers" d=" M 644.5801162719727 30.536643981933594 L 669.5801162719727 30.536643981933594 L 669.5801162719727 60.536643981933594 L 644.5801162719727 60.536643981933594 L 644.5801162719727 30.536643981933594 Z" stroke-miterlimit="10" stroke-width="0.5" stroke-dasharray=""/><path fill="none" stroke="none"/><text fill="#505050" stroke="none" font-family="monospace" font-size="14px" font-style="normal" font-weight="normal" text-decoration="normal" x="657.0801162719727" y="48.536643981933594" text-anchor="middle" dominant-baseline="text-after-edge">+1</text><path fill="none" stroke="#505050" paint-order="fill stroke markers" d=" M 644.5801162719727 48.536643981933594 L 652.5801162719727 48.536643981933594 L 652.5801162719727 56.536643981933594 L 644.5801162719727 56.536643981933594 L 644.5801162719727 48.536643981933594 Z" stroke-miterlimit="10" stroke-width="0.5" stroke-dasharray=""/><path fill="none" stroke="#505050" paint-order="fill stroke markers" d=" M 661.5801162719727 48.536643981933594 L 669.5801162719727 48.536643981933594 L 669.5801162719727 56.536643981933594 L 661.5801162719727 56.536643981933594 L 661.5801162719727 48.536643981933594 Z" stroke-miterlimit="10" stroke-width="0.5" stroke-dasharray=""/><path fill="none" stroke="#505050" paint-order="fill stroke markers" d=" M 606.1136856079102 52.117897033691406 L 598.1136856079102 52.117897033691406 M 630.1136856079102 52.117897033691406 L 638.1136856079102 52.117897033691406" stroke-miterlimit="10" stroke-dasharray=""/><path fill="white" stroke="#505050" paint-order="fill stroke markers" d=" M 606.1136856079102 30.117897033691406 L 630.1136856079102 30.117897033691406 L 630.1136856079102 72.1178970336914 L 606.1136856079102 72.1178970336914 L 606.1136856079102 30.117897033691406 Z" stroke-miterlimit="10" stroke-width="0.5" stroke-dasharray=""/><path fill="#F0F0F0" stroke="none" paint-order="stroke fill markers" d=""/><path fill="none" stroke="none"/><text fill="#505050" stroke="none" font-family="monospace" font-size="14px" font-style="normal" font-weight="normal" text-decoration="normal" x="618.1136856079102" y="48.117897033691406" text-anchor="middle" dominant-baseline="text-after-edge">+</text><path fill="none" stroke="#505050" paint-order="fill stroke markers" d=" M 606.1136856079102 48.117897033691406 L 614.1136856079102 48.117897033691406 L 614.1136856079102 56.117897033691406 L 606.1136856079102 56.117897033691406 L 606.1136856079102 48.117897033691406 Z" stroke-miterlimit="10" stroke-width="0.5" stroke-dasharray=""/><path fill="none" stroke="#505050" paint-order="fill stroke markers" d=" M 606.1136856079102 60.117897033691406 L 614.1136856079102 60.117897033691406 L 614.1136856079102 68.1178970336914 L 606.1136856079102 68.1178970336914 L 606.1136856079102 60.117897033691406 Z" stroke-miterlimit="10" stroke-width="0.5" stroke-dasharray=""/><path fill="none" stroke="#505050" paint-order="fill stroke markers" d=" M 622.1136856079102 48.117897033691406 L 630.1136856079102 48.117897033691406 L 630.1136856079102 56.117897033691406 L 622.1136856079102 56.117897033691406 L 622.1136856079102 48.117897033691406 Z" stroke-miterlimit="10" stroke-width="0.5" stroke-dasharray=""/><path fill="white" stroke="#505050" paint-order="fill stroke markers" d=" M 561.361701965332 56.048858642578125 L 593.361701965332 56.048858642578125 L 593.361701965332 74.04885864257812 L 561.361701965332 74.04885864257812 L 561.361701965332 56.048858642578125 Z" stroke-miterlimit="10" stroke-width="0.5" stroke-dasharray=""/><path fill="#F0F0F0" stroke="none" paint-order="stroke fill markers" d=""/><path fill="none" stroke="none"/><path fill="none" stroke="#505050" paint-order="fill stroke markers" d=" M 585.361701965332 60.048858642578125 L 593.361701965332 60.048858642578125 L 593.361701965332 68.04885864257812 L 585.361701965332 68.04885864257812 L 585.361701965332 60.048858642578125 Z" stroke-miterlimit="10" stroke-width="0.5" stroke-dasharray=""/><text fill="#505050" stroke="none" font-family="monospace" font-size="14px" font-style="normal" font-weight="normal" text-decoration="normal" x="577.361701965332" y="74.04885864257812" text-anchor="end" dominant-baseline="text-after-edge">1</text><path fill="white" stroke="#505050" paint-order="fill stroke markers" d=" M 719.8455412387848 28.4505615234375 L 719.8455412387848 157.13809204101562 Q 719.8455412387848 165.13809204101562 727.8455412387848 165.13809204101562 L 851.136114358902 165.13809204101562 Q 859.136114358902 165.13809204101562 859.136114358902 157.13809204101562 L 859.136114358902 28.4505615234375 Q 859.136114358902 20.4505615234375 851.136114358902 20.4505615234375 L 727.8455412387848 20.4505615234375 Q 719.8455412387848 20.4505615234375 719.8455412387848 28.4505615234375" stroke-miterlimit="10" stroke-width="0.5" stroke-dasharray=""/><path fill="#F0F0F0" stroke="#505050" paint-order="fill stroke markers" d=" M 834.136114358902 28.4505615234375 L 859.136114358902 28.4505615234375 L 859.136114358902 106.4505615234375 L 834.136114358902 106.4505615234375 L 834.136114358902 28.4505615234375 Z" stroke-miterlimit="10" stroke-width="0.5" stroke-dasharray=""/><path fill="none" stroke="none"/><text fill="#505050" stroke="none" font-family="monospace" font-size="14px" font-style="normal" font-weight="normal" text-decoration="normal" x="846.636114358902" y="46.4505615234375" text-anchor="middle" dominant-baseline="text-after-edge">??</text><path fill="none" stroke="#505050" paint-order="fill stroke markers" d=" M 834.136114358902 46.4505615234375 L 842.136114358902 46.4505615234375 L 842.136114358902 54.4505615234375 L 834.136114358902 54.4505615234375 L 834.136114358902 46.4505615234375 Z" stroke-miterlimit="10" stroke-width="0.5" stroke-dasharray=""/><path fill="none" stroke="#505050" paint-order="fill stroke markers" d=" M 834.136114358902 58.4505615234375 L 842.136114358902 58.4505615234375 L 842.136114358902 66.4505615234375 L 834.136114358902 66.4505615234375 L 834.136114358902 58.4505615234375 Z" stroke-miterlimit="10" stroke-width="0.5" stroke-dasharray=""/><path fill="none" stroke="#505050" paint-order="fill stroke markers" d=" M 834.136114358902 70.4505615234375 L 842.136114358902 70.4505615234375 L 842.136114358902 78.4505615234375 L 834.136114358902 78.4505615234375 L 834.136114358902 70.4505615234375 Z" stroke-miterlimit="10" stroke-width="0.5" stroke-dasharray=""/><path fill="none" stroke="#505050" paint-order="fill stroke markers" d=" M 834.136114358902 82.4505615234375 L 842.136114358902 82.4505615234375 L 842.136114358902 90.4505615234375 L 834.136114358902 90.4505615234375 L 834.136114358902 82.4505615234375 Z" stroke-miterlimit="10" stroke-width="0.5" stroke-dasharray=""/><path fill="none" stroke="#505050" paint-order="fill stroke markers" d=" M 834.136114358902 94.4505615234375 L 842.136114358902 94.4505615234375 L 842.136114358902 102.4505615234375 L 834.136114358902 102.4505615234375 L 834.136114358902 94.4505615234375 Z" stroke-miterlimit="10" stroke-width="0.5" stroke-dasharray=""/><path fill="none" stroke="#505050" paint-order="fill stroke markers" d=" M 851.136114358902 46.4505615234375 L 859.136114358902 46.4505615234375 L 859.136114358902 54.4505615234375 L 851.136114358902 54.4505615234375 L 851.136114358902 46.4505615234375 Z" stroke-miterlimit="10" stroke-width="0.5" stroke-dasharray=""/><path fill="none" stroke="#505050" paint-order="fill stroke markers" d=" M 851.136114358902 58.4505615234375 L 859.136114358902 58.4505615234375 L 859.136114358902 66.4505615234375 L 851.136114358902 66.4505615234375 L 851.136114358902 58.4505615234375 Z" stroke-miterlimit="10" stroke-width="0.5" stroke-dasharray=""/><path fill="none" stroke="#505050" paint-order="fill stroke markers" d=" M 768.1642820835114 62.4505615234375 L 760.1642820835114 62.4505615234375 M 768.1642820835114 74.4505615234375 L 760.1642820835114 74.4505615234375 M 768.0580198764801 122.5224609375 L 760.0580198764801 122.5224609375 M 768.0580198764801 134.5224609375 L 760.0580198764801 134.5224609375 M 792.1642820835114 50.4505615234375 L 800.1642820835114 50.4505615234375 M 792.0580198764801 110.5224609375 L 800.0580198764801 110.5224609375" stroke-miterlimit="10" stroke-dasharray=""/><path fill="white" stroke="#505050" paint-order="fill stroke markers" d=" M 768.0580198764801 88.5224609375 L 792.0580198764801 88.5224609375 L 792.0580198764801 142.5224609375 L 768.0580198764801 142.5224609375 L 768.0580198764801 88.5224609375 Z" stroke-miterlimit="10" stroke-width="0.5" stroke-dasharray=""/><path fill="#F0F0F0" stroke="none" paint-order="stroke fill markers" d=""/><path fill="none" stroke="none"/><text fill="#505050" stroke="none" font-family="monospace" font-size="14px" font-style="normal" font-weight="normal" text-decoration="normal" x="780.0580198764801" y="106.5224609375" text-anchor="middle" dominant-baseline="text-after-edge">?</text><path fill="none" stroke="#505050" paint-order="fill stroke markers" d=" M 768.0580198764801 106.5224609375 L 776.0580198764801 106.5224609375 L 776.0580198764801 114.5224609375 L 768.0580198764801 114.5224609375 L 768.0580198764801 106.5224609375 Z" stroke-miterlimit="10" stroke-width="0.5" stroke-dasharray=""/><path fill="none" stroke="#505050" paint-order="fill stroke markers" d=" M 768.0580198764801 118.5224609375 L 776.0580198764801 118.5224609375 L 776.0580198764801 126.5224609375 L 768.0580198764801 126.5224609375 L 768.0580198764801 118.5224609375 Z" stroke-miterlimit="10" stroke-width="0.5" stroke-dasharray=""/><path fill="none" stroke="#505050" paint-order="fill stroke markers" d=" M 768.0580198764801 130.5224609375 L 776.0580198764801 130.5224609375 L 776.0580198764801 138.5224609375 L 768.0580198764801 138.5224609375 L 768.0580198764801 130.5224609375 Z" stroke-miterlimit="10" stroke-width="0.5" stroke-dasharray=""/><path fill="none" stroke="#505050" paint-order="fill stroke markers" d=" M 784.0580198764801 106.5224609375 L 792.0580198764801 106.5224609375 L 792.0580198764801 114.5224609375 L 784.0580198764801 114.5224609375 L 784.0580198764801 106.5224609375 Z" stroke-miterlimit="10" stroke-width="0.5" stroke-dasharray=""/><path fill="white" stroke="#505050" paint-order="fill stroke markers" d=" M 727.8455412387848 34.24742889404297 L 743.8455412387848 34.24742889404297 L 743.8455412387848 50.24742889404297 L 727.8455412387848 50.24742889404297 L 735.8455412387848 42.24742889404297 L 727.8455412387848 34.24742889404297" stroke-miterlimit="10" stroke-width="0.5" stroke-dasharray=""/><path fill="none" stroke="none"/><path fill="none" stroke="#505050" paint-order="fill stroke markers" d=" M 735.8455412387848 38.24742889404297 L 743.8455412387848 38.24742889404297 L 743.8455412387848 46.24742889404297 L 735.8455412387848 46.24742889404297 L 735.8455412387848 38.24742889404297 Z" stroke-miterlimit="10" stroke-width="0.5" stroke-dasharray=""/><path fill="white" stroke="#505050" paint-order="fill stroke markers" d=" M 768.1642820835114 28.4505615234375 L 792.1642820835114 28.4505615234375 L 792.1642820835114 82.4505615234375 L 768.1642820835114 82.4505615234375 L 768.1642820835114 28.4505615234375 Z" stroke-miterlimit="10" stroke-width="0.5" stroke-dasharray=""/><path fill="#F0F0F0" stroke="none" paint-order="stroke fill markers" d=""/><path fill="none" stroke="none"/><text fill="#505050" stroke="none" font-family="monospace" font-size="14px" font-style="normal" font-weight="normal" text-decoration="normal" x="780.1642820835114" y="46.4505615234375" text-anchor="middle" dominant-baseline="text-after-edge">?</text><path fill="none" stroke="#505050" paint-order="fill stroke markers" d=" M 768.1642820835114 46.4505615234375 L 776.1642820835114 46.4505615234375 L 776.1642820835114 54.4505615234375 L 768.1642820835114 54.4505615234375 L 768.1642820835114 46.4505615234375 Z" stroke-miterlimit="10" stroke-width="0.5" stroke-dasharray=""/><path fill="none" stroke="#505050" paint-order="fill stroke markers" d=" M 768.1642820835114 58.4505615234375 L 776.1642820835114 58.4505615234375 L 776.1642820835114 66.4505615234375 L 768.1642820835114 66.4505615234375 L 768.1642820835114 58.4505615234375 Z" stroke-miterlimit="10" stroke-width="0.5" stroke-dasharray=""/><path fill="none" stroke="#505050" paint-order="fill stroke markers" d=" M 768.1642820835114 70.4505615234375 L 776.1642820835114 70.4505615234375 L 776.1642820835114 78.4505615234375 L 768.1642820835114 78.4505615234375 L 768.1642820835114 70.4505615234375 Z" stroke-miterlimit="10" stroke-width="0.5" stroke-dasharray=""/><path fill="none" stroke="#505050" paint-order="fill stroke markers" d=" M 784.1642820835114 46.4505615234375 L 792.1642820835114 46.4505615234375 L 792.1642820835114 54.4505615234375 L 784.1642820835114 54.4505615234375 L 784.1642820835114 46.4505615234375 Z" stroke-miterlimit="10" stroke-width="0.5" stroke-dasharray=""/><path fill="white" stroke="#505050" paint-order="fill stroke markers" d=" M 365.1369094848633 200.83072662353516 L 365.1369094848633 547.4688720703125 Q 365.1369094848633 555.4688720703125 373.1369094848633 555.4688720703125 L 1038.2039482593536 555.4688720703125 Q 1046.2039482593536 555.4688720703125 1046.2039482593536 547.4688720703125 L 1046.2039482593536 200.83072662353516 Q 1046.2039482593536 192.83072662353516 1038.2039482593536 192.83072662353516 L 373.1369094848633 192.83072662353516 Q 365.1369094848633 192.83072662353516 365.1369094848633 200.83072662353516" stroke-miterlimit="10" stroke-width="0.5" stroke-dasharray=""/><path fill="#F0F0F0" stroke="#505050" paint-order="fill stroke markers" d=" M 962.2039482593536 200.83072662353516 L 1046.2039482593536 200.83072662353516 L 1046.2039482593536 312.83072662353516 L 962.2039482593536 312.83072662353516 L 962.2039482593536 200.83072662353516 Z" stroke-miterlimit="10" stroke-width="0.5" stroke-dasharray=""/><path fill="none" stroke="none"/><text fill="#505050" stroke="none" font-family="monospace" font-size="14px" font-style="normal" font-weight="normal" text-decoration="normal" x="1004.2039482593536" y="218.83072662353516" text-anchor="middle" dominant-baseline="text-after-edge">binSearch</text><path fill="none" stroke="#505050" paint-order="fill stroke markers" d=" M 962.2039482593536 218.83072662353516 L 970.2039482593536 218.83072662353516 L 970.2039482593536 226.83072662353516 L 962.2039482593536 226.83072662353516 L 962.2039482593536 218.83072662353516 Z" stroke-miterlimit="10" stroke-width="0.5" stroke-dasharray=""/><text fill="#505050" stroke="none" font-family="monospace" font-size="14px" font-style="normal" font-weight="normal" text-decoration="normal" x="978.2039482593536" y="232.83072662353516" text-anchor="start" dominant-baseline="text-after-edge">lo</text><path fill="none" stroke="#505050" paint-order="fill stroke markers" d=" M 962.2039482593536 232.83072662353516 L 970.2039482593536 232.83072662353516 L 970.2039482593536 240.83072662353516 L 962.2039482593536 240.83072662353516 L 962.2039482593536 232.83072662353516 Z" stroke-miterlimit="10" stroke-width="0.5" stroke-dasharray=""/><text fill="#505050" stroke="none" font-family="monospace" font-size="14px" font-style="normal" font-weight="normal" text-decoration="normal" x="978.2039482593536" y="246.83072662353516" text-anchor="start" dominant-baseline="text-after-edge">hi</text><path fill="none" stroke="#505050" paint-order="fill stroke markers" d=" M 962.2039482593536 246.83072662353516 L 986.2039482593536 246.83072662353516 L 986.2039482593536 262.83072662353516 L 962.2039482593536 262.83072662353516 L 962.2039482593536 246.83072662353516 Z" stroke-miterlimit="10" stroke-width="0.5" stroke-dasharray=""/><path fill="none" stroke="none"/><path fill="none" stroke="#505050" paint-order="fill stroke markers" d=" M 962.2039482593536 250.83072662353516 L 970.2039482593536 250.83072662353516 L 970.2039482593536 258.83072662353516 L 962.2039482593536 258.83072662353516 L 962.2039482593536 250.83072662353516 Z" stroke-miterlimit="10" stroke-width="0.5" stroke-dasharray=""/><path fill="none" stroke="#505050" paint-order="fill stroke markers" d=" M 978.2039482593536 250.83072662353516 L 986.2039482593536 250.83072662353516 L 986.2039482593536 258.83072662353516 L 978.2039482593536 258.83072662353516 L 978.2039482593536 250.83072662353516 Z" stroke-miterlimit="10" stroke-width="0.5" stroke-dasharray=""/><text fill="#505050" stroke="none" font-family="monospace" font-size="14px" font-style="normal" font-weight="normal" text-decoration="normal" x="994.2039482593536" y="263.83072662353516" text-anchor="start" dominant-baseline="text-after-edge">[i]</text><path fill="none" stroke="#505050" paint-order="fill stroke markers" d=" M 962.2039482593536 266.83072662353516 L 986.2039482593536 266.83072662353516 L 986.2039482593536 294.83072662353516 L 962.2039482593536 294.83072662353516 L 962.2039482593536 266.83072662353516 Z" stroke-miterlimit="10" stroke-width="0.5" stroke-dasharray=""/><path fill="none" stroke="none"/><path fill="none" stroke="#505050" paint-order="fill stroke markers" d=" M 962.2039482593536 270.83072662353516 L 970.2039482593536 270.83072662353516 L 970.2039482593536 278.83072662353516 L 962.2039482593536 278.83072662353516 L 962.2039482593536 270.83072662353516 Z" stroke-miterlimit="10" stroke-width="0.5" stroke-dasharray=""/><path fill="none" stroke="#505050" paint-order="fill stroke markers" d=" M 962.2039482593536 282.83072662353516 L 970.2039482593536 282.83072662353516 L 970.2039482593536 290.83072662353516 L 962.2039482593536 290.83072662353516 L 962.2039482593536 282.83072662353516 Z" stroke-miterlimit="10" stroke-width="0.5" stroke-dasharray=""/><path fill="none" stroke="#505050" paint-order="fill stroke markers" d=" M 978.2039482593536 270.83072662353516 L 986.2039482593536 270.83072662353516 L 986.2039482593536 278.83072662353516 L 978.2039482593536 278.83072662353516 L 978.2039482593536 270.83072662353516 Z" stroke-miterlimit="10" stroke-width="0.5" stroke-dasharray=""/><text fill="#505050" stroke="none" font-family="monospace" font-size="14px" font-style="normal" font-weight="normal" text-decoration="normal" x="994.2039482593536" y="289.83072662353516" text-anchor="start" dominant-baseline="text-after-edge">&lt;</text><path fill="none" stroke="#505050" paint-order="fill stroke markers" d=" M 962.2039482593536 298.83072662353516 L 970.2039482593536 298.83072662353516 L 970.2039482593536 306.83072662353516 L 962.2039482593536 306.83072662353516 L 962.2039482593536 298.83072662353516 Z" stroke-miterlimit="10" stroke-width="0.5" stroke-dasharray=""/><text fill="#505050" stroke="none" font-family="monospace" font-size="14px" font-style="normal" font-weight="normal" text-decoration="normal" x="978.2039482593536" y="312.83072662353516" text-anchor="start" dominant-baseline="text-after-edge">t</text><path fill="none" stroke="#505050" paint-order="fill stroke markers" d=" M 1038.2039482593536 218.83072662353516 L 1046.2039482593536 218.83072662353516 L 1046.2039482593536 226.83072662353516 L 1038.2039482593536 226.83072662353516 L 1038.2039482593536 218.83072662353516 Z" stroke-miterlimit="10" stroke-width="0.5" stroke-dasharray=""/><path fill="none" stroke="#505050" paint-order="fill stroke markers" d=" M 1038.2039482593536 230.83072662353516 L 1046.2039482593536 230.83072662353516 L 1046.2039482593536 238.83072662353516 L 1038.2039482593536 238.83072662353516 L 1038.2039482593536 230.83072662353516 Z" stroke-miterlimit="10" stroke-width="0.5" stroke-dasharray=""/><path fill="none" stroke="#505050" paint-order="fill stroke markers" d=" M 913.707278251648 350.2180709838867 L 905.707278251648 350.2180709838867 M 913.707278251648 364.2180709838867 L 905.707278251648 364.2180709838867 M 972.707278251648 350.2180709838867 L 980.707278251648 350.2180709838867 M 972.707278251648 362.2180709838867 L 980.707278251648 362.2180709838867" stroke-miterlimit="10" stroke-dasharray=""/><path fill="white" stroke="#505050" paint-order="fill stroke markers" d=" M 383.77518805861473 219.7256088256836 L 383.77518805861473 376.1578369140625 Q 383.77518805861473 384.1578369140625 391.77518805861473 384.1578369140625 L 858.2997734546661 384.1578369140625 Q 866.2997734546661 384.1578369140625 866.2997734546661 376.1578369140625 L 866.2997734546661 219.7256088256836 Q 866.2997734546661 211.7256088256836 858.2997734546661 211.7256088256836 L 391.77518805861473 211.7256088256836 Q 383.77518805861473 211.7256088256836 383.77518805861473 219.7256088256836" stroke-miterlimit="10" stroke-width="0.5" stroke-dasharray=""/><path fill="#F0F0F0" stroke="#505050" paint-order="fill stroke markers" d=" M 807.2997734546661 219.7256088256836 L 866.2997734546661 219.7256088256836 L 866.2997734546661 265.7256088256836 L 807.2997734546661 265.7256088256836 L 807.2997734546661 219.7256088256836 Z" stroke-miterlimit="10" stroke-width="0.5" stroke-dasharray=""/><path fill="none" stroke="none"/><text fill="#505050" stroke="none" font-family="monospace" font-size="14px" font-style="normal" font-weight="normal" text-decoration="normal" x="836.7997734546661" y="237.7256088256836" text-anchor="middle" dominant-baseline="text-after-edge">search</text><path fill="none" stroke="#505050" paint-order="fill stroke markers" d=" M 807.2997734546661 237.7256088256836 L 815.2997734546661 237.7256088256836 L 815.2997734546661 245.7256088256836 L 807.2997734546661 245.7256088256836 L 807.2997734546661 237.7256088256836 Z" stroke-miterlimit="10" stroke-width="0.5" stroke-dasharray=""/><text fill="#505050" stroke="none" font-family="monospace" font-size="14px" font-style="normal" font-weight="normal" text-decoration="normal" x="823.2997734546661" y="251.7256088256836" text-anchor="start" dominant-baseline="text-after-edge">lo</text><path fill="none" stroke="#505050" paint-order="fill stroke markers" d=" M 807.2997734546661 251.7256088256836 L 815.2997734546661 251.7256088256836 L 815.2997734546661 259.7256088256836 L 807.2997734546661 259.7256088256836 L 807.2997734546661 251.7256088256836 Z" stroke-miterlimit="10" stroke-width="0.5" stroke-dasharray=""/><text fill="#505050" stroke="none" font-family="monospace" font-size="14px" font-style="normal" font-weight="normal" text-decoration="normal" x="823.2997734546661" y="265.7256088256836" text-anchor="start" dominant-baseline="text-after-edge">hi</text><path fill="none" stroke="#505050" paint-order="fill stroke markers" d=" M 858.2997734546661 237.7256088256836 L 866.2997734546661 237.7256088256836 L 866.2997734546661 245.7256088256836 L 858.2997734546661 245.7256088256836 L 858.2997734546661 237.7256088256836 Z" stroke-miterlimit="10" stroke-width="0.5" stroke-dasharray=""/><path fill="none" stroke="#505050" paint-order="fill stroke markers" d=" M 858.2997734546661 249.7256088256836 L 866.2997734546661 249.7256088256836 L 866.2997734546661 257.7256088256836 L 858.2997734546661 257.7256088256836 L 858.2997734546661 249.7256088256836 Z" stroke-miterlimit="10" stroke-width="0.5" stroke-dasharray=""/><path fill="white" stroke="#505050" paint-order="fill stroke markers" d=" M 398.99470099806786 270.69677352905273 L 439.99470099806786 270.69677352905273 L 439.99470099806786 288.69677352905273 L 398.99470099806786 288.69677352905273 L 406.99470099806786 279.69677352905273 L 398.99470099806786 270.69677352905273" stroke-miterlimit="10" stroke-width="0.5" stroke-dasharray=""/><path fill="none" stroke="none"/><path fill="none" stroke="#505050" paint-order="fill stroke markers" d=" M 431.99470099806786 274.69677352905273 L 439.99470099806786 274.69677352905273 L 439.99470099806786 282.69677352905273 L 431.99470099806786 282.69677352905273 L 431.99470099806786 274.69677352905273 Z" stroke-miterlimit="10" stroke-width="0.5" stroke-dasharray=""/><text fill="#505050" stroke="none" font-family="monospace" font-size="14px" font-style="normal" font-weight="normal" text-decoration="normal" x="423.99470099806786" y="288.69677352905273" text-anchor="end" dominant-baseline="text-after-edge">hi</text><path fill="white" stroke="#505050" paint-order="fill stroke markers" d=" M 664.4703216552734 237.1974334716797 L 689.4703216552734 237.1974334716797 L 689.4703216552734 279.1974334716797 L 664.4703216552734 279.1974334716797 L 664.4703216552734 237.1974334716797 Z" stroke-miterlimit="10" stroke-width="0.5" stroke-dasharray=""/><path fill="#F0F0F0" stroke="none" paint-order="stroke fill markers" d=""/><path fill="none" stroke="none"/><text fill="#505050" stroke="none" font-family="monospace" font-size="14px" font-style="normal" font-weight="normal" text-decoration="normal" x="676.9703216552734" y="255.1974334716797" text-anchor="middle" dominant-baseline="text-after-edge">&gt;=</text><path fill="none" stroke="#505050" paint-order="fill stroke markers" d=" M 664.4703216552734 255.1974334716797 L 672.4703216552734 255.1974334716797 L 672.4703216552734 263.1974334716797 L 664.4703216552734 263.1974334716797 L 664.4703216552734 255.1974334716797 Z" stroke-miterlimit="10" stroke-width="0.5" stroke-dasharray=""/><path fill="none" stroke="#505050" paint-order="fill stroke markers" d=" M 664.4703216552734 267.1974334716797 L 672.4703216552734 267.1974334716797 L 672.4703216552734 275.1974334716797 L 664.4703216552734 275.1974334716797 L 664.4703216552734 267.1974334716797 Z" stroke-miterlimit="10" stroke-width="0.5" stroke-dasharray=""/><path fill="none" stroke="#505050" paint-order="fill stroke markers" d=" M 681.4703216552734 255.1974334716797 L 689.4703216552734 255.1974334716797 L 689.4703216552734 263.1974334716797 L 681.4703216552734 263.1974334716797 L 681.4703216552734 255.1974334716797 Z" stroke-miterlimit="10" stroke-width="0.5" stroke-dasharray=""/><path fill="white" stroke="#505050" paint-order="fill stroke markers" d=" M 396.14192509651184 236.28099060058594 L 437.14192509651184 236.28099060058594 L 437.14192509651184 254.28099060058594 L 396.14192509651184 254.28099060058594 L 404.14192509651184 245.28099060058594 L 396.14192509651184 236.28099060058594" stroke-miterlimit="10" stroke-width="0.5" stroke-dasharray=""/><path fill="none" stroke="none"/><path fill="none" stroke="#505050" paint-order="fill stroke markers" d=" M 429.14192509651184 240.28099060058594 L 437.14192509651184 240.28099060058594 L 437.14192509651184 248.28099060058594 L 429.14192509651184 248.28099060058594 L 429.14192509651184 240.28099060058594 Z" stroke-miterlimit="10" stroke-width="0.5" stroke-dasharray=""/><text fill="#505050" stroke="none" font-family="monospace" font-size="14px" font-style="normal" font-weight="normal" text-decoration="normal" x="421.14192509651184" y="254.28099060058594" text-anchor="end" dominant-baseline="text-after-edge">lo</text><path fill="white" stroke="#505050" paint-order="fill stroke markers" d=" M 771.531188249588 267.3341884613037 L 779.531188249588 267.3341884613037 L 787.531188249588 275.3341884613037 L 779.531188249588 283.3341884613037 L 771.531188249588 283.3341884613037 L 771.531188249588 267.3341884613037" stroke-miterlimit="10" stroke-width="0.5" stroke-dasharray=""/><path fill="none" stroke="none"/><path fill="none" stroke="#505050" paint-order="fill stroke markers" d=" M 771.531188249588 271.3341884613037 L 779.531188249588 271.3341884613037 L 779.531188249588 279.3341884613037 L 771.531188249588 279.3341884613037 L 771.531188249588 271.3341884613037 Z" stroke-miterlimit="10" stroke-width="0.5" stroke-dasharray=""/><path fill="white" stroke="#505050" paint-order="fill stroke markers" d=" M 771.3093016147614 290.3623046875 L 779.3093016147614 290.3623046875 L 787.3093016147614 298.3623046875 L 779.3093016147614 306.3623046875 L 771.3093016147614 306.3623046875 L 771.3093016147614 290.3623046875" stroke-miterlimit="10" stroke-width="0.5" stroke-dasharray=""/><path fill="none" stroke="none"/><path fill="none" stroke="#505050" paint-order="fill stroke markers" d=" M 771.3093016147614 294.3623046875 L 779.3093016147614 294.3623046875 L 779.3093016147614 302.3623046875 L 771.3093016147614 302.3623046875 L 771.3093016147614 294.3623046875 Z" stroke-miterlimit="10" stroke-width="0.5" stroke-dasharray=""/><path fill="white" stroke="#505050" paint-order="fill stroke markers" d=" M 731.6747283935547 259.7967224121094 L 756.6747283935547 259.7967224121094 L 756.6747283935547 337.7967224121094 L 731.6747283935547 337.7967224121094 L 731.6747283935547 259.7967224121094 Z" stroke-miterlimit="10" stroke-width="0.5" stroke-dasharray=""/><path fill="#F0F0F0" stroke="none" paint-order="stroke fill markers" d=""/><path fill="none" stroke="none"/><text fill="#505050" stroke="none" font-family="monospace" font-size="14px" font-style="normal" font-weight="normal" text-decoration="normal" x="744.1747283935547" y="277.7967224121094" text-anchor="middle" dominant-baseline="text-after-edge">??</text><path fill="none" stroke="#505050" paint-order="fill stroke markers" d=" M 731.6747283935547 277.7967224121094 L 739.6747283935547 277.7967224121094 L 739.6747283935547 285.7967224121094 L 731.6747283935547 285.7967224121094 L 731.6747283935547 277.7967224121094 Z" stroke-miterlimit="10" stroke-width="0.5" stroke-dasharray=""/><path fill="none" stroke="#505050" paint-order="fill stroke markers" d=" M 731.6747283935547 289.7967224121094 L 739.6747283935547 289.7967224121094 L 739.6747283935547 297.7967224121094 L 731.6747283935547 297.7967224121094 L 731.6747283935547 289.7967224121094 Z" stroke-miterlimit="10" stroke-width="0.5" stroke-dasharray=""/><path fill="none" stroke="#505050" paint-order="fill stroke markers" d=" M 731.6747283935547 301.7967224121094 L 739.6747283935547 301.7967224121094 L 739.6747283935547 309.7967224121094 L 731.6747283935547 309.7967224121094 L 731.6747283935547 301.7967224121094 Z" stroke-miterlimit="10" stroke-width="0.5" stroke-dasharray=""/><path fill="none" stroke="#505050" paint-order="fill stroke markers" d=" M 731.6747283935547 313.7967224121094 L 739.6747283935547 313.7967224121094 L 739.6747283935547 321.7967224121094 L 731.6747283935547 321.7967224121094 L 731.6747283935547 313.7967224121094 Z" stroke-miterlimit="10" stroke-width="0.5" stroke-dasharray=""/><path fill="none" stroke="#505050" paint-order="fill stroke markers" d=" M 731.6747283935547 325.7967224121094 L 739.6747283935547 325.7967224121094 L 739.6747283935547 333.7967224121094 L 731.6747283935547 333.7967224121094 L 731.6747283935547 325.7967224121094 Z" stroke-miterlimit="10" stroke-width="0.5" stroke-dasharray=""/><path fill="none" stroke="#505050" paint-order="fill stroke markers" d=" M 748.6747283935547 277.7967224121094 L 756.6747283935547 277.7967224121094 L 756.6747283935547 285.7967224121094 L 748.6747283935547 285.7967224121094 L 748.6747283935547 277.7967224121094 Z" stroke-miterlimit="10" stroke-width="0.5" stroke-dasharray=""/><path fill="none" stroke="#505050" paint-order="fill stroke markers" d=" M 748.6747283935547 289.7967224121094 L 756.6747283935547 289.7967224121094 L 756.6747283935547 297.7967224121094 L 748.6747283935547 297.7967224121094 L 748.6747283935547 289.7967224121094 Z" stroke-miterlimit="10" stroke-width="0.5" stroke-dasharray=""/><path fill="white" stroke="#505050" paint-order="fill stroke markers" d=" M 627.5700149536133 299.4718475341797 L 686.5700149536133 299.4718475341797 L 686.5700149536133 345.4718475341797 L 627.5700149536133 345.4718475341797 L 627.5700149536133 299.4718475341797 Z" stroke-miterlimit="10" stroke-width="0.5" stroke-dasharray=""/><path fill="#F0F0F0" stroke="none" paint-order="stroke fill markers" d=""/><path fill="none" stroke="none"/><text fill="#505050" stroke="none" font-family="monospace" font-size="14px" font-style="normal" font-weight="normal" text-decoration="normal" x="657.0700149536133" y="317.4718475341797" text-anchor="middle" dominant-baseline="text-after-edge">search</text><path fill="none" stroke="#505050" paint-order="fill stroke markers" d=" M 627.5700149536133 317.4718475341797 L 635.5700149536133 317.4718475341797 L 635.5700149536133 325.4718475341797 L 627.5700149536133 325.4718475341797 L 627.5700149536133 317.4718475341797 Z" stroke-miterlimit="10" stroke-width="0.5" stroke-dasharray=""/><text fill="#505050" stroke="none" font-family="monospace" font-size="14px" font-style="normal" font-weight="normal" text-decoration="normal" x="643.5700149536133" y="331.4718475341797" text-anchor="start" dominant-baseline="text-after-edge">lo</text><path fill="none" stroke="#505050" paint-order="fill stroke markers" d=" M 627.5700149536133 331.4718475341797 L 635.5700149536133 331.4718475341797 L 635.5700149536133 339.4718475341797 L 627.5700149536133 339.4718475341797 L 627.5700149536133 331.4718475341797 Z" stroke-miterlimit="10" stroke-width="0.5" stroke-dasharray=""/><text fill="#505050" stroke="none" font-family="monospace" font-size="14px" font-style="normal" font-weight="normal" text-decoration="normal" x="643.5700149536133" y="345.4718475341797" text-anchor="start" dominant-baseline="text-after-edge">hi</text><path fill="none" stroke="#505050" paint-order="fill stroke markers" d=" M 678.5700149536133 317.4718475341797 L 686.5700149536133 317.4718475341797 L 686.5700149536133 325.4718475341797 L 678.5700149536133 325.4718475341797 L 678.5700149536133 317.4718475341797 Z" stroke-miterlimit="10" stroke-width="0.5" stroke-dasharray=""/><path fill="none" stroke="#505050" paint-order="fill stroke markers" d=" M 678.5700149536133 329.4718475341797 L 686.5700149536133 329.4718475341797 L 686.5700149536133 337.4718475341797 L 678.5700149536133 337.4718475341797 L 678.5700149536133 329.4718475341797 Z" stroke-miterlimit="10" stroke-width="0.5" stroke-dasharray=""/><path fill="white" stroke="#505050" paint-order="fill stroke markers" d=" M 492.7186584472656 300.8353576660156 L 593.7186584472656 300.8353576660156 L 593.7186584472656 346.8353576660156 L 492.7186584472656 346.8353576660156 L 492.7186584472656 300.8353576660156 Z" stroke-miterlimit="10" stroke-width="0.5" stroke-dasharray=""/><path fill="#F0F0F0" stroke="none" paint-order="stroke fill markers" d=""/><path fill="none" stroke="none"/><text fill="#505050" stroke="none" font-family="monospace" font-size="14px" font-style="normal" font-weight="normal" text-decoration="normal" x="543.2186584472656" y="318.8353576660156" text-anchor="middle" dominant-baseline="text-after-edge">selectRange</text><path fill="none" stroke="#505050" paint-order="fill stroke markers" d=" M 492.7186584472656 318.8353576660156 L 500.7186584472656 318.8353576660156 L 500.7186584472656 326.8353576660156 L 492.7186584472656 326.8353576660156 L 492.7186584472656 318.8353576660156 Z" stroke-miterlimit="10" stroke-width="0.5" stroke-dasharray=""/><text fill="#505050" stroke="none" font-family="monospace" font-size="14px" font-style="normal" font-weight="normal" text-decoration="normal" x="508.7186584472656" y="332.8353576660156" text-anchor="start" dominant-baseline="text-after-edge">lo</text><path fill="none" stroke="#505050" paint-order="fill stroke markers" d=" M 492.7186584472656 332.8353576660156 L 500.7186584472656 332.8353576660156 L 500.7186584472656 340.8353576660156 L 492.7186584472656 340.8353576660156 L 492.7186584472656 332.8353576660156 Z" stroke-miterlimit="10" stroke-width="0.5" stroke-dasharray=""/><text fill="#505050" stroke="none" font-family="monospace" font-size="14px" font-style="normal" font-weight="normal" text-decoration="normal" x="508.7186584472656" y="346.8353576660156" text-anchor="start" dominant-baseline="text-after-edge">hi</text><path fill="none" stroke="#505050" paint-order="fill stroke markers" d=" M 585.7186584472656 318.8353576660156 L 593.7186584472656 318.8353576660156 L 593.7186584472656 326.8353576660156 L 585.7186584472656 326.8353576660156 L 585.7186584472656 318.8353576660156 Z" stroke-miterlimit="10" stroke-width="0.5" stroke-dasharray=""/><path fill="none" stroke="#505050" paint-order="fill stroke markers" d=" M 585.7186584472656 330.8353576660156 L 593.7186584472656 330.8353576660156 L 593.7186584472656 338.8353576660156 L 585.7186584472656 338.8353576660156 L 585.7186584472656 330.8353576660156 Z" stroke-miterlimit="10" stroke-width="0.5" stroke-dasharray=""/><path fill="white" stroke="#505050" paint-order="fill stroke markers" d=" M 389.59635162353516 500.40367126464844 L 421.59635162353516 500.40367126464844 L 421.59635162353516 518.4036712646484 L 389.59635162353516 518.4036712646484 L 397.59635162353516 509.40367126464844 L 389.59635162353516 500.40367126464844" stroke-miterlimit="10" stroke-width="0.5" stroke-dasharray=""/><path fill="none" stroke="none"/><path fill="none" stroke="#505050" paint-order="fill stroke markers" d=" M 413.59635162353516 504.40367126464844 L 421.59635162353516 504.40367126464844 L 421.59635162353516 512.4036712646484 L 413.59635162353516 512.4036712646484 L 413.59635162353516 504.40367126464844 Z" stroke-miterlimit="10" stroke-width="0.5" stroke-dasharray=""/><text fill="#505050" stroke="none" font-family="monospace" font-size="14px" font-style="normal" font-weight="normal" text-decoration="normal" x="405.59635162353516" y="518.4036712646484" text-anchor="end" dominant-baseline="text-after-edge">t</text><path fill="none" stroke="none"/><path fill="white" stroke="#505050" paint-order="fill stroke markers" d=" M 378.8407897949219 400.2105369567871 L 427.8407897949219 400.2105369567871 L 427.8407897949219 438.2105369567871 L 378.8407897949219 438.2105369567871 L 386.8407897949219 419.2105369567871 L 378.8407897949219 400.2105369567871" stroke-miterlimit="10" stroke-width="0.5" stroke-dasharray=""/><path fill="#F0F0F0" stroke="none" paint-order="stroke fill markers" d=" M 394.8407897949219 404.2105369567871 L 427.8407897949219 404.2105369567871 L 427.8407897949219 434.2105369567871 L 394.8407897949219 434.2105369567871 L 394.8407897949219 404.2105369567871 Z"/><path fill="none" stroke="none"/><path fill="none" stroke="#505050" paint-order="fill stroke markers" d=" M 394.8407897949219 404.2105369567871 L 427.8407897949219 404.2105369567871 L 427.8407897949219 434.2105369567871 L 394.8407897949219 434.2105369567871 L 394.8407897949219 404.2105369567871 Z" stroke-miterlimit="10" stroke-width="0.5" stroke-dasharray=""/><path fill="none" stroke="none"/><text fill="#505050" stroke="none" font-family="monospace" font-size="14px" font-style="normal" font-weight="normal" text-decoration="normal" x="411.3407897949219" y="422.2105369567871" text-anchor="middle" dominant-baseline="text-after-edge">[i]</text><path fill="none" stroke="#505050" paint-order="fill stroke markers" d=" M 394.8407897949219 422.2105369567871 L 402.8407897949219 422.2105369567871 L 402.8407897949219 430.2105369567871 L 394.8407897949219 430.2105369567871 L 394.8407897949219 422.2105369567871 Z" stroke-miterlimit="10" stroke-width="0.5" stroke-dasharray=""/><path fill="none" stroke="#505050" paint-order="fill stroke markers" d=" M 419.8407897949219 422.2105369567871 L 427.8407897949219 422.2105369567871 L 427.8407897949219 430.2105369567871 L 419.8407897949219 430.2105369567871 L 419.8407897949219 422.2105369567871 Z" stroke-miterlimit="10" stroke-width="0.5" stroke-dasharray=""/><path fill="none" stroke="#505050" paint-order="fill stroke markers" d=" M 394.8407897949219 404.2105369567871 L 427.8407897949219 404.2105369567871 L 427.8407897949219 434.2105369567871 L 394.8407897949219 434.2105369567871 L 394.8407897949219 404.2105369567871 Z" stroke-miterlimit="10" stroke-width="0.5" stroke-dasharray="6,3"/><path fill="#F0F0F0" stroke="none" paint-order="stroke fill markers" d=""/><path fill="none" stroke="none"/><text fill="#505050" stroke="none" font-family="monospace" font-size="14px" font-style="normal" font-weight="normal" text-decoration="normal" x="411.3407897949219" y="422.2105369567871" text-anchor="middle" dominant-baseline="text-after-edge">[i]</text><path fill="none" stroke="#505050" paint-order="fill stroke markers" d=" M 394.8407897949219 422.2105369567871 L 402.8407897949219 422.2105369567871 L 402.8407897949219 430.2105369567871 L 394.8407897949219 430.2105369567871 L 394.8407897949219 422.2105369567871 Z" stroke-miterlimit="10" stroke-width="0.5" stroke-dasharray="0"/><path fill="none" stroke="#505050" paint-order="fill stroke markers" d=" M 419.8407897949219 422.2105369567871 L 427.8407897949219 422.2105369567871 L 427.8407897949219 430.2105369567871 L 419.8407897949219 430.2105369567871 L 419.8407897949219 422.2105369567871 Z" stroke-miterlimit="10" stroke-width="0.5" stroke-dasharray="0"/><path fill="white" stroke="#505050" paint-order="fill stroke markers" d=" M 607.3985839784145 427.92932891845703 L 607.3985839784145 531.4688720703125 Q 607.3985839784145 539.4688720703125 615.3985839784145 539.4688720703125 L 980.9042656421661 539.4688720703125 Q 988.9042656421661 539.4688720703125 988.9042656421661 531.4688720703125 L 988.9042656421661 427.92932891845703 Q 988.9042656421661 419.92932891845703 980.9042656421661 419.92932891845703 L 615.3985839784145 419.92932891845703 Q 607.3985839784145 419.92932891845703 607.3985839784145 427.92932891845703" stroke-miterlimit="10" stroke-width="0.5" stroke-dasharray="0"/><path fill="#F0F0F0" stroke="#505050" paint-order="fill stroke markers" d=" M 887.9042656421661 427.92932891845703 L 988.9042656421661 427.92932891845703 L 988.9042656421661 473.92932891845703 L 887.9042656421661 473.92932891845703 L 887.9042656421661 427.92932891845703 Z" stroke-miterlimit="10" stroke-width="0.5" stroke-dasharray="0"/><path fill="none" stroke="none"/><text fill="#505050" stroke="none" font-family="monospace" font-size="14px" font-style="normal" font-weight="normal" text-decoration="normal" x="938.4042656421661" y="445.92932891845703" text-anchor="middle" dominant-baseline="text-after-edge">selectRange</text><path fill="none" stroke="#505050" paint-order="fill stroke markers" d=" M 887.9042656421661 445.92932891845703 L 895.9042656421661 445.92932891845703 L 895.9042656421661 453.92932891845703 L 887.9042656421661 453.92932891845703 L 887.9042656421661 445.92932891845703 Z" stroke-miterlimit="10" stroke-width="0.5" stroke-dasharray="0"/><text fill="#505050" stroke="none" font-family="monospace" font-size="14px" font-style="normal" font-weight="normal" text-decoration="normal" x="903.9042656421661" y="459.92932891845703" text-anchor="start" dominant-baseline="text-after-edge">lo</text><path fill="none" stroke="#505050" paint-order="fill stroke markers" d=" M 887.9042656421661 459.92932891845703 L 895.9042656421661 459.92932891845703 L 895.9042656421661 467.92932891845703 L 887.9042656421661 467.92932891845703 L 887.9042656421661 459.92932891845703 Z" stroke-miterlimit="10" stroke-width="0.5" stroke-dasharray="0"/><text fill="#505050" stroke="none" font-family="monospace" font-size="14px" font-style="normal" font-weight="normal" text-decoration="normal" x="903.9042656421661" y="473.92932891845703" text-anchor="start" dominant-baseline="text-after-edge">hi</text><path fill="none" stroke="#505050" paint-order="fill stroke markers" d=" M 980.9042656421661 445.92932891845703 L 988.9042656421661 445.92932891845703 L 988.9042656421661 453.92932891845703 L 980.9042656421661 453.92932891845703 L 980.9042656421661 445.92932891845703 Z" stroke-miterlimit="10" stroke-width="0.5" stroke-dasharray="0"/><path fill="none" stroke="#505050" paint-order="fill stroke markers" d=" M 980.9042656421661 457.92932891845703 L 988.9042656421661 457.92932891845703 L 988.9042656421661 465.92932891845703 L 980.9042656421661 465.92932891845703 L 980.9042656421661 457.92932891845703 Z" stroke-miterlimit="10" stroke-width="0.5" stroke-dasharray="0"/><path fill="none" stroke="#505050" paint-order="fill stroke markers" d=" M 618.1873779296875 471.4688720703125 L 610.1873779296875 471.4688720703125 M 618.1873779296875 485.4688720703125 L 610.1873779296875 485.4688720703125 M 858.8257811069489 462.466552734375 L 866.8257811069489 462.466552734375 M 858.8257811069489 474.466552734375 L 866.8257811069489 474.466552734375" stroke-miterlimit="10" stroke-dasharray="0"/><path fill="white" stroke="#505050" paint-order="fill stroke markers" d=" M 618.1873779296875 449.4688720703125 L 717.1873779296875 449.4688720703125 L 717.1873779296875 523.4688720703125 L 618.1873779296875 523.4688720703125 L 618.1873779296875 449.4688720703125 Z" stroke-miterlimit="10" stroke-width="0.5" stroke-dasharray="0"/><path fill="#F0F0F0" stroke="none" paint-order="stroke fill markers" d=""/><path fill="none" stroke="none"/><text fill="#505050" stroke="none" font-family="monospace" font-size="14px" font-style="normal" font-weight="normal" text-decoration="normal" x="667.6873779296875" y="467.4688720703125" text-anchor="middle" dominant-baseline="text-after-edge">divide</text><path fill="none" stroke="#505050" paint-order="fill stroke markers" d=" M 618.1873779296875 467.4688720703125 L 626.1873779296875 467.4688720703125 L 626.1873779296875 475.4688720703125 L 618.1873779296875 475.4688720703125 L 618.1873779296875 467.4688720703125 Z" stroke-miterlimit="10" stroke-width="0.5" stroke-dasharray="0"/><text fill="#505050" stroke="none" font-family="monospace" font-size="14px" font-style="normal" font-weight="normal" text-decoration="normal" x="634.1873779296875" y="481.4688720703125" text-anchor="start" dominant-baseline="text-after-edge">lo</text><path fill="none" stroke="#505050" paint-order="fill stroke markers" d=" M 618.1873779296875 481.4688720703125 L 626.1873779296875 481.4688720703125 L 626.1873779296875 489.4688720703125 L 618.1873779296875 489.4688720703125 L 618.1873779296875 481.4688720703125 Z" stroke-miterlimit="10" stroke-width="0.5" stroke-dasharray="0"/><text fill="#505050" stroke="none" font-family="monospace" font-size="14px" font-style="normal" font-weight="normal" text-decoration="normal" x="634.1873779296875" y="495.4688720703125" text-anchor="start" dominant-baseline="text-after-edge">hi</text><path fill="none" stroke="#505050" paint-order="fill stroke markers" d=" M 709.1873779296875 467.4688720703125 L 717.1873779296875 467.4688720703125 L 717.1873779296875 475.4688720703125 L 709.1873779296875 475.4688720703125 L 709.1873779296875 467.4688720703125 Z" stroke-miterlimit="10" stroke-width="0.5" stroke-dasharray="0"/><text fill="#505050" stroke="none" font-family="monospace" font-size="14px" font-style="normal" font-weight="normal" text-decoration="normal" x="701.1873779296875" y="481.4688720703125" text-anchor="end" dominant-baseline="text-after-edge">lo</text><path fill="none" stroke="#505050" paint-order="fill stroke markers" d=" M 709.1873779296875 481.4688720703125 L 717.1873779296875 481.4688720703125 L 717.1873779296875 489.4688720703125 L 709.1873779296875 489.4688720703125 L 709.1873779296875 481.4688720703125 Z" stroke-miterlimit="10" stroke-width="0.5" stroke-dasharray="0"/><text fill="#505050" stroke="none" font-family="monospace" font-size="14px" font-style="normal" font-weight="normal" text-decoration="normal" x="701.1873779296875" y="495.4688720703125" text-anchor="end" dominant-baseline="text-after-edge">mid</text><path fill="none" stroke="#505050" paint-order="fill stroke markers" d=" M 709.1873779296875 495.4688720703125 L 717.1873779296875 495.4688720703125 L 717.1873779296875 503.4688720703125 L 709.1873779296875 503.4688720703125 L 709.1873779296875 495.4688720703125 Z" stroke-miterlimit="10" stroke-width="0.5" stroke-dasharray="0"/><text fill="#505050" stroke="none" font-family="monospace" font-size="14px" font-style="normal" font-weight="normal" text-decoration="normal" x="701.1873779296875" y="509.4688720703125" text-anchor="end" dominant-baseline="text-after-edge">mid+1</text><path fill="none" stroke="#505050" paint-order="fill stroke markers" d=" M 709.1873779296875 509.4688720703125 L 717.1873779296875 509.4688720703125 L 717.1873779296875 517.4688720703125 L 709.1873779296875 517.4688720703125 L 709.1873779296875 509.4688720703125 Z" stroke-miterlimit="10" stroke-width="0.5" stroke-dasharray="0"/><text fill="#505050" stroke="none" font-family="monospace" font-size="14px" font-style="normal" font-weight="normal" text-decoration="normal" x="701.1873779296875" y="523.4688720703125" text-anchor="end" dominant-baseline="text-after-edge">hi</text><path fill="white" stroke="#505050" paint-order="fill stroke markers" d=" M 833.8257811069489 440.466552734375 L 858.8257811069489 440.466552734375 L 858.8257811069489 518.466552734375 L 833.8257811069489 518.466552734375 L 833.8257811069489 440.466552734375 Z" stroke-miterlimit="10" stroke-width="0.5" stroke-dasharray="0"/><path fill="#F0F0F0" stroke="none" paint-order="stroke fill markers" d=""/><path fill="none" stroke="none"/><text fill="#505050" stroke="none" font-family="monospace" font-size="14px" font-style="normal" font-weight="normal" text-decoration="normal" x="846.3257811069489" y="458.466552734375" text-anchor="middle" dominant-baseline="text-after-edge">??</text><path fill="none" stroke="#505050" paint-order="fill stroke markers" d=" M 833.8257811069489 458.466552734375 L 841.8257811069489 458.466552734375 L 841.8257811069489 466.466552734375 L 833.8257811069489 466.466552734375 L 833.8257811069489 458.466552734375 Z" stroke-miterlimit="10" stroke-width="0.5" stroke-dasharray="0"/><path fill="none" stroke="#505050" paint-order="fill stroke markers" d=" M 833.8257811069489 470.466552734375 L 841.8257811069489 470.466552734375 L 841.8257811069489 478.466552734375 L 833.8257811069489 478.466552734375 L 833.8257811069489 470.466552734375 Z" stroke-miterlimit="10" stroke-width="0.5" stroke-dasharray="0"/><path fill="none" stroke="#505050" paint-order="fill stroke markers" d=" M 833.8257811069489 482.466552734375 L 841.8257811069489 482.466552734375 L 841.8257811069489 490.466552734375 L 833.8257811069489 490.466552734375 L 833.8257811069489 482.466552734375 Z" stroke-miterlimit="10" stroke-width="0.5" stroke-dasharray="0"/><path fill="none" stroke="#505050" paint-order="fill stroke markers" d=" M 833.8257811069489 494.466552734375 L 841.8257811069489 494.466552734375 L 841.8257811069489 502.466552734375 L 833.8257811069489 502.466552734375 L 833.8257811069489 494.466552734375 Z" stroke-miterlimit="10" stroke-width="0.5" stroke-dasharray="0"/><path fill="none" stroke="#505050" paint-order="fill stroke markers" d=" M 833.8257811069489 506.466552734375 L 841.8257811069489 506.466552734375 L 841.8257811069489 514.466552734375 L 833.8257811069489 514.466552734375 L 833.8257811069489 506.466552734375 Z" stroke-miterlimit="10" stroke-width="0.5" stroke-dasharray="0"/><path fill="none" stroke="#505050" paint-order="fill stroke markers" d=" M 850.8257811069489 458.466552734375 L 858.8257811069489 458.466552734375 L 858.8257811069489 466.466552734375 L 850.8257811069489 466.466552734375 L 850.8257811069489 458.466552734375 Z" stroke-miterlimit="10" stroke-width="0.5" stroke-dasharray="0"/><path fill="none" stroke="#505050" paint-order="fill stroke markers" d=" M 850.8257811069489 470.466552734375 L 858.8257811069489 470.466552734375 L 858.8257811069489 478.466552734375 L 850.8257811069489 478.466552734375 L 850.8257811069489 470.466552734375 Z" stroke-miterlimit="10" stroke-width="0.5" stroke-dasharray="0"/><path fill="white" stroke="#505050" paint-order="fill stroke markers" d=" M 763.1994962692261 424.50284576416016 L 805.1994962692261 424.50284576416016 L 805.1994962692261 454.50284576416016 L 763.1994962692261 454.50284576416016 L 763.1994962692261 424.50284576416016 Z" stroke-miterlimit="10" stroke-width="0.5" stroke-dasharray="0"/><path fill="#F0F0F0" stroke="none" paint-order="stroke fill markers" d=""/><path fill="none" stroke="none"/><text fill="#505050" stroke="none" font-family="monospace" font-size="14px" font-style="normal" font-weight="normal" text-decoration="normal" x="784.1994962692261" y="442.50284576416016" text-anchor="middle" dominant-baseline="text-after-edge">test</text><path fill="none" stroke="#505050" paint-order="fill stroke markers" d=" M 763.1994962692261 442.50284576416016 L 771.1994962692261 442.50284576416016 L 771.1994962692261 450.50284576416016 L 763.1994962692261 450.50284576416016 L 763.1994962692261 442.50284576416016 Z" stroke-miterlimit="10" stroke-width="0.5" stroke-dasharray="0"/><path fill="none" stroke="#505050" paint-order="fill stroke markers" d=" M 797.1994962692261 442.50284576416016 L 805.1994962692261 442.50284576416016 L 805.1994962692261 450.50284576416016 L 797.1994962692261 450.50284576416016 L 797.1994962692261 442.50284576416016 Z" stroke-miterlimit="10" stroke-width="0.5" stroke-dasharray="0"/><path fill="none" stroke="none"/><path fill="white" stroke="#505050" paint-order="fill stroke markers" d=" M 382.8097839355469 441.1592025756836 L 422.8097839355469 441.1592025756836 L 422.8097839355469 491.1592025756836 L 382.8097839355469 491.1592025756836 L 390.8097839355469 466.1592025756836 L 382.8097839355469 441.1592025756836" stroke-miterlimit="10" stroke-width="0.5" stroke-dasharray="0"/><path fill="#F0F0F0" stroke="none" paint-order="stroke fill markers" d=" M 398.8097839355469 445.1592025756836 L 422.8097839355469 445.1592025756836 L 422.8097839355469 487.1592025756836 L 398.8097839355469 487.1592025756836 L 398.8097839355469 445.1592025756836 Z"/><path fill="none" stroke="none"/><path fill="none" stroke="#505050" paint-order="fill stroke markers" d=" M 398.8097839355469 445.1592025756836 L 422.8097839355469 445.1592025756836 L 422.8097839355469 487.1592025756836 L 398.8097839355469 487.1592025756836 L 398.8097839355469 445.1592025756836 Z" stroke-miterlimit="10" stroke-width="0.5" stroke-dasharray="0"/><path fill="none" stroke="none"/><text fill="#505050" stroke="none" font-family="monospace" font-size="14px" font-style="normal" font-weight="normal" text-decoration="normal" x="410.8097839355469" y="463.1592025756836" text-anchor="middle" dominant-baseline="text-after-edge">&lt;</text><path fill="none" stroke="#505050" paint-order="fill stroke markers" d=" M 398.8097839355469 463.1592025756836 L 406.8097839355469 463.1592025756836 L 406.8097839355469 471.1592025756836 L 398.8097839355469 471.1592025756836 L 398.8097839355469 463.1592025756836 Z" stroke-miterlimit="10" stroke-width="0.5" stroke-dasharray="0"/><path fill="none" stroke="#505050" paint-order="fill stroke markers" d=" M 398.8097839355469 475.1592025756836 L 406.8097839355469 475.1592025756836 L 406.8097839355469 483.1592025756836 L 398.8097839355469 483.1592025756836 L 398.8097839355469 475.1592025756836 Z" stroke-miterlimit="10" stroke-width="0.5" stroke-dasharray="0"/><path fill="none" stroke="#505050" paint-order="fill stroke markers" d=" M 414.8097839355469 463.1592025756836 L 422.8097839355469 463.1592025756836 L 422.8097839355469 471.1592025756836 L 414.8097839355469 471.1592025756836 L 414.8097839355469 463.1592025756836 Z" stroke-miterlimit="10" stroke-width="0.5" stroke-dasharray="0"/><path fill="none" stroke="#505050" paint-order="fill stroke markers" d=" M 398.8097839355469 445.1592025756836 L 422.8097839355469 445.1592025756836 L 422.8097839355469 487.1592025756836 L 398.8097839355469 487.1592025756836 L 398.8097839355469 445.1592025756836 Z" stroke-miterlimit="10" stroke-width="0.5" stroke-dasharray="6,3"/><path fill="#F0F0F0" stroke="none" paint-order="stroke fill markers" d=""/><path fill="none" stroke="none"/><text fill="#505050" stroke="none" font-family="monospace" font-size="14px" font-style="normal" font-weight="normal" text-decoration="normal" x="410.8097839355469" y="463.1592025756836" text-anchor="middle" dominant-baseline="text-after-edge">&lt;</text><path fill="none" stroke="#505050" paint-order="fill stroke markers" d=" M 398.8097839355469 463.1592025756836 L 406.8097839355469 463.1592025756836 L 406.8097839355469 471.1592025756836 L 398.8097839355469 471.1592025756836 L 398.8097839355469 463.1592025756836 Z" stroke-miterlimit="10" stroke-width="0.5" stroke-dasharray="0"/><path fill="none" stroke="#505050" paint-order="fill stroke markers" d=" M 398.8097839355469 475.1592025756836 L 406.8097839355469 475.1592025756836 L 406.8097839355469 483.1592025756836 L 398.8097839355469 483.1592025756836 L 398.8097839355469 475.1592025756836 Z" stroke-miterlimit="10" stroke-width="0.5" stroke-dasharray="0"/><path fill="none" stroke="#505050" paint-order="fill stroke markers" d=" M 414.8097839355469 463.1592025756836 L 422.8097839355469 463.1592025756836 L 422.8097839355469 471.1592025756836 L 414.8097839355469 471.1592025756836 L 414.8097839355469 463.1592025756836 Z" stroke-miterlimit="10" stroke-width="0.5" stroke-dasharray="0"/><path fill="white" stroke="#505050" paint-order="fill stroke markers" d=" M 453.58953857421875 413.3337984085083 L 453.58953857421875 474.31250762939453 Q 453.58953857421875 482.31250762939453 461.58953857421875 482.31250762939453 L 582.7387418746948 482.31250762939453 Q 590.7387418746948 482.31250762939453 590.7387418746948 474.31250762939453 L 590.7387418746948 413.3337984085083 Q 590.7387418746948 405.3337984085083 582.7387418746948 405.3337984085083 L 461.58953857421875 405.3337984085083 Q 453.58953857421875 405.3337984085083 453.58953857421875 413.3337984085083" stroke-miterlimit="10" stroke-width="0.5" stroke-dasharray="0"/><path fill="#F0F0F0" stroke="#505050" paint-order="fill stroke markers" d=" M 548.7387418746948 413.3337984085083 L 590.7387418746948 413.3337984085083 L 590.7387418746948 443.3337984085083 L 548.7387418746948 443.3337984085083 L 548.7387418746948 413.3337984085083 Z" stroke-miterlimit="10" stroke-width="0.5" stroke-dasharray="0"/><path fill="none" stroke="none"/><text fill="#505050" stroke="none" font-family="monospace" font-size="14px" font-style="normal" font-weight="normal" text-decoration="normal" x="569.7387418746948" y="431.3337984085083" text-anchor="middle" dominant-baseline="text-after-edge">test</text><path fill="none" stroke="#505050" paint-order="fill stroke markers" d=" M 548.7387418746948 431.3337984085083 L 556.7387418746948 431.3337984085083 L 556.7387418746948 439.3337984085083 L 548.7387418746948 439.3337984085083 L 548.7387418746948 431.3337984085083 Z" stroke-miterlimit="10" stroke-width="0.5" stroke-dasharray="0"/><path fill="none" stroke="#505050" paint-order="fill stroke markers" d=" M 582.7387418746948 431.3337984085083 L 590.7387418746948 431.3337984085083 L 590.7387418746948 439.3337984085083 L 582.7387418746948 439.3337984085083 L 582.7387418746948 431.3337984085083 Z" stroke-miterlimit="10" stroke-width="0.5" stroke-dasharray="0"/><path fill="none" stroke="#505050" paint-order="fill stroke markers" d=" M 466.39209270477295 433.4310989379883 L 458.39209270477295 433.4310989379883 M 539.9056119918823 446.31250762939453 L 547.9056119918823 446.31250762939453" stroke-miterlimit="10" stroke-dasharray="0"/><path fill="white" stroke="#505050" paint-order="fill stroke markers" d=" M 466.39209270477295 411.4310989379883 L 499.39209270477295 411.4310989379883 L 499.39209270477295 441.4310989379883 L 466.39209270477295 441.4310989379883 L 466.39209270477295 411.4310989379883 Z" stroke-miterlimit="10" stroke-width="0.5" stroke-dasharray="0"/><path fill="#F0F0F0" stroke="none" paint-order="stroke fill markers" d=""/><path fill="none" stroke="none"/><text fill="#505050" stroke="none" font-family="monospace" font-size="14px" font-style="normal" font-weight="normal" text-decoration="normal" x="482.89209270477295" y="429.4310989379883" text-anchor="middle" dominant-baseline="text-after-edge">[i]</text><path fill="none" stroke="#505050" paint-order="fill stroke markers" d=" M 466.39209270477295 429.4310989379883 L 474.39209270477295 429.4310989379883 L 474.39209270477295 437.4310989379883 L 466.39209270477295 437.4310989379883 L 466.39209270477295 429.4310989379883 Z" stroke-miterlimit="10" stroke-width="0.5" stroke-dasharray="0"/><path fill="none" stroke="#505050" paint-order="fill stroke markers" d=" M 491.39209270477295 429.4310989379883 L 499.39209270477295 429.4310989379883 L 499.39209270477295 437.4310989379883 L 491.39209270477295 437.4310989379883 L 491.39209270477295 429.4310989379883 Z" stroke-miterlimit="10" stroke-width="0.5" stroke-dasharray="0"/><path fill="white" stroke="#505050" paint-order="fill stroke markers" d=" M 515.9056119918823 424.31250762939453 L 539.9056119918823 424.31250762939453 L 539.9056119918823 466.31250762939453 L 515.9056119918823 466.31250762939453 L 515.9056119918823 424.31250762939453 Z" stroke-miterlimit="10" stroke-width="0.5" stroke-dasharray="0"/><path fill="#F0F0F0" stroke="none" paint-order="stroke fill markers" d=""/><path fill="none" stroke="none"/><text fill="#505050" stroke="none" font-family="monospace" font-size="14px" font-style="normal" font-weight="normal" text-decoration="normal" x="527.9056119918823" y="442.31250762939453" text-anchor="middle" dominant-baseline="text-after-edge">&lt;</text><path fill="none" stroke="#505050" paint-order="fill stroke markers" d=" M 515.9056119918823 442.31250762939453 L 523.9056119918823 442.31250762939453 L 523.9056119918823 450.31250762939453 L 515.9056119918823 450.31250762939453 L 515.9056119918823 442.31250762939453 Z" stroke-miterlimit="10" stroke-width="0.5" stroke-dasharray="0"/><path fill="none" stroke="#505050" paint-order="fill stroke markers" d=" M 515.9056119918823 454.31250762939453 L 523.9056119918823 454.31250762939453 L 523.9056119918823 462.31250762939453 L 515.9056119918823 462.31250762939453 L 515.9056119918823 454.31250762939453 Z" stroke-miterlimit="10" stroke-width="0.5" stroke-dasharray="0"/><path fill="none" stroke="#505050" paint-order="fill stroke markers" d=" M 531.9056119918823 442.31250762939453 L 539.9056119918823 442.31250762939453 L 539.9056119918823 450.31250762939453 L 531.9056119918823 450.31250762939453 L 531.9056119918823 442.31250762939453 Z" stroke-miterlimit="10" stroke-width="0.5" stroke-dasharray="0"/><path fill="white" stroke="#505050" paint-order="fill stroke markers" d=" M 913.707278251648 328.2180709838867 L 972.707278251648 328.2180709838867 L 972.707278251648 374.2180709838867 L 913.707278251648 374.2180709838867 L 913.707278251648 328.2180709838867 Z" stroke-miterlimit="10" stroke-width="0.5" stroke-dasharray="0"/><path fill="#F0F0F0" stroke="none" paint-order="stroke fill markers" d=""/><path fill="none" stroke="none"/><text fill="#505050" stroke="none" font-family="monospace" font-size="14px" font-style="normal" font-weight="normal" text-decoration="normal" x="943.207278251648" y="346.2180709838867" text-anchor="middle" dominant-baseline="text-after-edge">search</text><path fill="none" stroke="#505050" paint-order="fill stroke markers" d=" M 913.707278251648 346.2180709838867 L 921.707278251648 346.2180709838867 L 921.707278251648 354.2180709838867 L 913.707278251648 354.2180709838867 L 913.707278251648 346.2180709838867 Z" stroke-miterlimit="10" stroke-width="0.5" stroke-dasharray="0"/><text fill="#505050" stroke="none" font-family="monospace" font-size="14px" font-style="normal" font-weight="normal" text-decoration="normal" x="929.707278251648" y="360.2180709838867" text-anchor="start" dominant-baseline="text-after-edge">lo</text><path fill="none" stroke="#505050" paint-order="fill stroke markers" d=" M 913.707278251648 360.2180709838867 L 921.707278251648 360.2180709838867 L 921.707278251648 368.2180709838867 L 913.707278251648 368.2180709838867 L 913.707278251648 360.2180709838867 Z" stroke-miterlimit="10" stroke-width="0.5" stroke-dasharray="0"/><text fill="#505050" stroke="none" font-family="monospace" font-size="14px" font-style="normal" font-weight="normal" text-decoration="normal" x="929.707278251648" y="374.2180709838867" text-anchor="start" dominant-baseline="text-after-edge">hi</text><path fill="none" stroke="#505050" paint-order="fill stroke markers" d=" M 964.707278251648 346.2180709838867 L 972.707278251648 346.2180709838867 L 972.707278251648 354.2180709838867 L 964.707278251648 354.2180709838867 L 964.707278251648 346.2180709838867 Z" stroke-miterlimit="10" stroke-width="0.5" stroke-dasharray="0"/><path fill="none" stroke="#505050" paint-order="fill stroke markers" d=" M 964.707278251648 358.2180709838867 L 972.707278251648 358.2180709838867 L 972.707278251648 366.2180709838867 L 964.707278251648 366.2180709838867 L 964.707278251648 358.2180709838867 Z" stroke-miterlimit="10" stroke-width="0.5" stroke-dasharray="0"/><path fill="#e0e0e0" stroke="none" paint-order="stroke fill markers" d=" M 874.2997734546661 242.7256088256836 L 866.2997734546661 219.7256088256836 L 866.2997734546661 265.7256088256836 Z M 619.5700149536133 322.4718475341797 L 627.5700149536133 299.4718475341797 L 627.5700149536133 345.4718475341797 Z"/><path fill="none" stroke="none"/><path fill="none" stroke="#e0e0e0" paint-order="fill stroke markers" d=" M 874.2997734546661 242.7256088256836 C 954.376012882315 242.7256088256836 539.4937755259645 322.4718475341797 619.5700149536133 322.4718475341797" stroke-miterlimit="10" stroke-width="2" stroke-dasharray="0"/><path fill="#e0e0e0" stroke="none" paint-order="stroke fill markers" d=" M 996.9042656421661 450.92932891845703 L 988.9042656421661 427.92932891845703 L 988.9042656421661 473.92932891845703 Z M 484.7186584472656 323.8353576660156 L 492.7186584472656 300.8353576660156 L 492.7186584472656 346.8353576660156 Z"/><path fill="none" stroke="none"/><path fill="none" stroke="#e0e0e0" paint-order="fill stroke markers" d=" M 996.9042656421661 450.92932891845703 C 1155.2198606957465 450.92932891845703 326.4030633936851 323.8353576660156 484.7186584472656 323.8353576660156" stroke-miterlimit="10" stroke-width="2" stroke-dasharray="0"/><path fill="#e0e0e0" stroke="none" paint-order="stroke fill markers" d=" M 931.4747924804688 629.1816596984863 L 923.4747924804688 592.1816596984863 L 923.4747924804688 666.1816596984863 Z M 610.1873779296875 486.4688720703125 L 618.1873779296875 449.4688720703125 L 618.1873779296875 523.4688720703125 Z"/><path fill="none" stroke="none"/><path fill="none" stroke="#e0e0e0" paint-order="fill stroke markers" d=" M 931.4747924804688 629.1816596984863 C 1036.9419856028785 629.1816596984863 504.72018480727775 486.4688720703125 610.1873779296875 486.4688720703125" stroke-miterlimit="10" stroke-width="2" stroke-dasharray="0"/><path fill="#e0e0e0" stroke="none" paint-order="stroke fill markers" d=" M 598.7387418746948 428.3337984085083 L 590.7387418746948 413.3337984085083 L 590.7387418746948 443.3337984085083 Z M 755.1994962692261 439.50284576416016 L 763.1994962692261 424.50284576416016 L 763.1994962692261 454.50284576416016 Z"/><path fill="none" stroke="none"/><path fill="none" stroke="#e0e0e0" paint-order="fill stroke markers" d=" M 598.7387418746948 428.3337984085083 C 645.796412616121 428.3337984085083 708.1418255277999 439.50284576416016 755.1994962692261 439.50284576416016" stroke-miterlimit="10" stroke-width="2" stroke-dasharray="0"/><path fill="#e0e0e0" stroke="none" paint-order="stroke fill markers" d=" M 435.8407897949219 419.2105369567871 L 427.8407897949219 404.2105369567871 L 427.8407897949219 434.2105369567871 Z M 458.39209270477295 426.4310989379883 L 466.39209270477295 411.4310989379883 L 466.39209270477295 441.4310989379883 Z"/><path fill="none" stroke="none"/><path fill="none" stroke="#e0e0e0" paint-order="fill stroke markers" d=" M 435.8407897949219 419.2105369567871 C 442.94450713467154 419.2105369567871 451.2883753650233 426.4310989379883 458.39209270477295 426.4310989379883" stroke-miterlimit="10" stroke-width="2" stroke-dasharray="0"/><path fill="#e0e0e0" stroke="none" paint-order="stroke fill markers" d=" M 430.8097839355469 466.1592025756836 L 422.8097839355469 445.1592025756836 L 422.8097839355469 487.1592025756836 Z M 507.9056119918823 445.31250762939453 L 515.9056119918823 424.31250762939453 L 515.9056119918823 466.31250762939453 Z"/><path fill="none" stroke="none"/><path fill="none" stroke="#e0e0e0" paint-order="fill stroke markers" d=" M 430.8097839355469 466.1592025756836 C 454.76915841504467 466.1592025756836 483.9462375123845 445.31250762939453 507.9056119918823 445.31250762939453" stroke-miterlimit="10" stroke-width="2" stroke-dasharray="0"/><path fill="#e0e0e0" stroke="none" paint-order="stroke fill markers" d=" M 874.2997734546661 242.7256088256836 L 866.2997734546661 219.7256088256836 L 866.2997734546661 265.7256088256836 Z M 905.707278251648 351.2180709838867 L 913.707278251648 328.2180709838867 L 913.707278251648 374.2180709838867 Z"/><path fill="none" stroke="none"/><path fill="none" stroke="#e0e0e0" paint-order="fill stroke markers" d=" M 874.2997734546661 242.7256088256836 C 908.1839012026979 242.7256088256836 871.8231505036161 351.2180709838867 905.707278251648 351.2180709838867" stroke-miterlimit="10" stroke-width="2" stroke-dasharray="0"/><path fill="none" stroke="#505050" paint-order="fill stroke markers" d=" M 547.7403717041016 701.7941474914551 C 565.504258844478 701.7941474914551 547.882719304936 645.3535499572754 565.6466064453125 645.3535499572754" stroke-miterlimit="10" stroke-dasharray="0"/><path fill="none" stroke="#505050" paint-order="fill stroke markers" d=" M 546.1528625488281 604.719165802002 C 556.5448816324719 604.719165802002 555.2545873616688 633.3535499572754 565.6466064453125 633.3535499572754" stroke-miterlimit="10" stroke-dasharray="0"/><path fill="none" stroke="#505050" paint-order="fill stroke markers" d=" M 594.2372016906738 670.2285499572754 C 602.2388999557126 670.2285499572754 609.1073791885746 656.5066566467285 617.1090774536133 656.5066566467285" stroke-miterlimit="10" stroke-dasharray="0"/><path fill="none" stroke="#505050" paint-order="fill stroke markers" d=" M 589.6466064453125 633.3535499572754 C 598.5388569615614 633.3535499572754 608.2168269373644 644.5066566467285 617.1090774536133 644.5066566467285" stroke-miterlimit="10" stroke-dasharray="0"/><path fill="none" stroke="#505050" paint-order="fill stroke markers" d=" M 641.1090774536133 644.5066566467285 C 645.8855874039446 644.5066566467285 652.2513220809187 644.8128890991211 657.02783203125 644.8128890991211" stroke-miterlimit="10" stroke-dasharray="0"/><path fill="none" stroke="#505050" paint-order="fill stroke markers" d=" M 749.02783203125 644.8128890991211 C 755.4211507254636 644.8128890991211 760.6657633370364 633.4535140991211 767.05908203125 633.4535140991211" stroke-miterlimit="10" stroke-dasharray="0"/><path fill="none" stroke="#505050" paint-order="fill stroke markers" d=" M 546.1528625488281 604.719165802002 C 613.2651366472489 604.719165802002 702.7468262433761 603.9441375732422 769.8591003417969 603.9441375732422" stroke-miterlimit="10" stroke-dasharray="0"/><path fill="none" stroke="#505050" paint-order="fill stroke markers" d=" M 547.7403717041016 701.7941474914551 C 615.1410050199223 701.7941474914551 705.0084243013667 701.9972534179688 772.4090576171875 701.9972534179688" stroke-miterlimit="10" stroke-dasharray="0"/><path fill="none" stroke="#505050" paint-order="fill stroke markers" d=" M 749.02783203125 644.8128890991211 C 761.8991792594334 644.8128890991211 761.1252042854885 679.7035522460938 773.9965515136719 679.7035522460938" stroke-miterlimit="10" stroke-dasharray="0"/><path fill="none" stroke="#505050" paint-order="fill stroke markers" d=" M 798.9965515136719 679.7035522460938 C 802.4812611671105 679.7035522460938 807.1275339989052 679.7160339355469 810.6122436523438 679.7160339355469" stroke-miterlimit="10" stroke-dasharray="0"/><path fill="none" stroke="#505050" paint-order="fill stroke markers" d=" M 593.361701965332 64.04885864257812 C 597.1873531230832 64.04885864257812 602.288034450159 64.1178970336914 606.1136856079102 64.1178970336914" stroke-miterlimit="10" stroke-dasharray="0"/><path fill="none" stroke="#505050" paint-order="fill stroke markers" d=" M 743.8455412387848 42.24742889404297 C 751.5450430868758 42.24742889404297 760.4647802354203 50.4505615234375 768.1642820835114 50.4505615234375" stroke-miterlimit="10" stroke-dasharray="0"/><path fill="none" stroke="#505050" paint-order="fill stroke markers" d=" M 743.8455412387848 42.24742889404297 C 765.5778943329261 42.24742889404297 746.3256667823388 110.5224609375 768.0580198764801 110.5224609375" stroke-miterlimit="10" stroke-dasharray="0"/><path fill="none" stroke="#505050" paint-order="fill stroke markers" d=" M 421.59635162353516 508.40367126464844 C 453.6323082020465 508.40367126464844 483.869655413371 458.31250762939453 515.9056119918823 458.31250762939453" stroke-miterlimit="10" stroke-dasharray="0"/><path fill="none" stroke="#505050" paint-order="fill stroke markers" d=" M 689.4703216552734 259.1974334716797 C 703.8325841089016 259.1974334716797 717.3124659399265 281.7967224121094 731.6747283935547 281.7967224121094" stroke-miterlimit="10" stroke-dasharray="0"/><path fill="none" stroke="#505050" paint-order="fill stroke markers" d=" M 437.14192509651184 244.28099060058594 C 505.4871005918705 244.28099060058594 596.1251461599147 259.1974334716797 664.4703216552734 259.1974334716797" stroke-miterlimit="10" stroke-dasharray="0"/><path fill="none" stroke="#505050" paint-order="fill stroke markers" d=" M 439.99470099806786 278.69677352905273 C 507.37495770109655 278.69677352905273 597.0900649522448 271.1974334716797 664.4703216552734 271.1974334716797" stroke-miterlimit="10" stroke-dasharray="0"/><path fill="none" stroke="#505050" paint-order="fill stroke markers" d=" M 756.6747283935547 281.7967224121094 C 761.5350871258637 281.7967224121094 766.670829517279 275.3341884613037 771.531188249588 275.3341884613037" stroke-miterlimit="10" stroke-dasharray="0"/><path fill="none" stroke="#505050" paint-order="fill stroke markers" d=" M 756.6747283935547 293.7967224121094 C 761.2737907696504 293.7967224121094 766.7102392386656 298.3623046875 771.3093016147614 298.3623046875" stroke-miterlimit="10" stroke-dasharray="0"/><path fill="none" stroke="#505050" paint-order="fill stroke markers" d=" M 437.14192509651184 244.28099060058594 C 526.7417252767359 244.28099060058594 642.0749282133306 293.7967224121094 731.6747283935547 293.7967224121094" stroke-miterlimit="10" stroke-dasharray="0"/><path fill="none" stroke="#505050" paint-order="fill stroke markers" d=" M 439.99470099806786 278.69677352905273 C 527.8755755099926 278.69677352905273 643.79385388163 305.7967224121094 731.6747283935547 305.7967224121094" stroke-miterlimit="10" stroke-dasharray="0"/><path fill="none" stroke="#505050" paint-order="fill stroke markers" d=" M 686.5700149536133 321.4718475341797 C 700.1462719755096 321.4718475341797 718.0984713716583 317.7967224121094 731.6747283935547 317.7967224121094" stroke-miterlimit="10" stroke-dasharray="0"/><path fill="none" stroke="#505050" paint-order="fill stroke markers" d=" M 686.5700149536133 333.4718475341797 C 700.1462719755096 333.4718475341797 718.0984713716583 329.7967224121094 731.6747283935547 329.7967224121094" stroke-miterlimit="10" stroke-dasharray="0"/><path fill="none" stroke="#505050" paint-order="fill stroke markers" d=" M 593.7186584472656 322.8353576660156 C 603.8823002526399 322.8353576660156 617.406373148239 321.4718475341797 627.5700149536133 321.4718475341797" stroke-miterlimit="10" stroke-dasharray="0"/><path fill="none" stroke="#505050" paint-order="fill stroke markers" d=" M 437.14192509651184 244.28099060058594 C 466.0099102833792 244.28099060058594 463.85067326039825 322.8353576660156 492.7186584472656 322.8353576660156" stroke-miterlimit="10" stroke-dasharray="0"/><path fill="none" stroke="#505050" paint-order="fill stroke markers" d=" M 439.99470099806786 278.69677352905273 C 463.54023048691136 278.69677352905273 469.1731289584221 336.8353576660156 492.7186584472656 336.8353576660156" stroke-miterlimit="10" stroke-dasharray="0"/><path fill="none" stroke="#505050" paint-order="fill stroke markers" d=" M 593.7186584472656 334.8353576660156 C 603.8758603799089 334.8353576660156 617.41281302097 335.4718475341797 627.5700149536133 335.4718475341797" stroke-miterlimit="10" stroke-dasharray="0"/><path fill="none" stroke="#505050" paint-order="fill stroke markers" d=" M 717.1873779296875 471.4688720703125 C 752.1904533182795 471.4688720703125 798.8227057183568 474.466552734375 833.8257811069489 474.466552734375" stroke-miterlimit="10" stroke-dasharray="0"/><path fill="none" stroke="#505050" paint-order="fill stroke markers" d=" M 717.1873779296875 485.4688720703125 C 752.1801789267554 485.4688720703125 798.832980109881 486.466552734375 833.8257811069489 486.466552734375" stroke-miterlimit="10" stroke-dasharray="0"/><path fill="none" stroke="#505050" paint-order="fill stroke markers" d=" M 717.1873779296875 499.4688720703125 C 752.1801908572206 499.4688720703125 798.8329681794157 498.466552734375 833.8257811069489 498.466552734375" stroke-miterlimit="10" stroke-dasharray="0"/><path fill="none" stroke="#505050" paint-order="fill stroke markers" d=" M 717.1873779296875 513.4688720703125 C 752.1904890991574 513.4688720703125 798.822669937479 510.466552734375 833.8257811069489 510.466552734375" stroke-miterlimit="10" stroke-dasharray="0"/><path fill="none" stroke="#505050" paint-order="fill stroke markers" d=" M 717.1873779296875 485.4688720703125 C 735.2758262218023 485.4688720703125 745.1110479771113 446.50284576416016 763.1994962692261 446.50284576416016" stroke-miterlimit="10" stroke-dasharray="0"/><path fill="none" stroke="#505050" paint-order="fill stroke markers" d=" M 805.1994962692261 446.50284576416016 C 815.0324699367246 446.50284576416016 823.9928074394503 462.466552734375 833.8257811069489 462.466552734375" stroke-miterlimit="10" stroke-dasharray="0"/><path fill="none" stroke="#505050" paint-order="fill stroke markers" d=" M 499.39209270477295 433.4310989379883 C 505.67511990675683 433.4310989379883 509.62258478989844 446.31250762939453 515.9056119918823 446.31250762939453" stroke-miterlimit="10" stroke-dasharray="0"/></g></g></svg>