<svg version="1.1" xmlns="http://www.w3.org/2000/svg" xmlns:xlink="http://www.w3.org/1999/xlink" width="716.5177528858185" height="675.0225296020508"><defs/><g transform="translate(-265.8414993286133,-16.915054321289062)"><g><path fill="white" stroke="#505050" paint-order="fill stroke markers" d=" M 343.6283264160156 187.17811965942383 L 343.6283264160156 314.99371337890625 Q 343.6283264160156 322.99371337890625 351.6283264160156 322.99371337890625 L 766.1815185546875 322.99371337890625 Q 774.1815185546875 322.99371337890625 774.1815185546875 314.99371337890625 L 774.1815185546875 187.17811965942383 Q 774.1815185546875 179.17811965942383 766.1815185546875 179.17811965942383 L 351.6283264160156 179.17811965942383 Q 343.6283264160156 179.17811965942383 343.6283264160156 187.17811965942383" stroke-miterlimit="10" stroke-width="0.5" stroke-dasharray=""/><path fill="#F0F0F0" stroke="#505050" paint-order="fill stroke markers" d=" M 675.1815185546875 187.17811965942383 L 774.1815185546875 187.17811965942383 L 774.1815185546875 261.1781196594238 L 675.1815185546875 261.1781196594238 L 675.1815185546875 187.17811965942383 Z" stroke-miterlimit="10" stroke-width="0.5" stroke-dasharray=""/><path fill="none" stroke="none"/><text fill="#505050" stroke="none" font-family="monospace" font-size="14px" font-style="normal" font-weight="normal" text-decoration="normal" x="724.6815185546875" y="205.17811965942383" text-anchor="middle" dominant-baseline="text-after-edge">divide</text><path fill="none" stroke="#505050" paint-order="fill stroke markers" d=" M 675.1815185546875 205.17811965942383 L 683.1815185546875 205.17811965942383 L 683.1815185546875 213.17811965942383 L 675.1815185546875 213.17811965942383 L 675.1815185546875 205.17811965942383 Z" stroke-miterlimit="10" stroke-width="0.5" stroke-dasharray=""/><text fill="#505050" stroke="none" font-family="monospace" font-size="14px" font-style="normal" font-weight="normal" text-decoration="normal" x="691.1815185546875" y="219.17811965942383" text-anchor="start" dominant-baseline="text-after-edge">lo</text><path fill="none" stroke="#505050" paint-order="fill stroke markers" d=" M 675.1815185546875 219.17811965942383 L 683.1815185546875 219.17811965942383 L 683.1815185546875 227.17811965942383 L 675.1815185546875 227.17811965942383 L 675.1815185546875 219.17811965942383 Z" stroke-miterlimit="10" stroke-width="0.5" stroke-dasharray=""/><text fill="#505050" stroke="none" font-family="monospace" font-size="14px" font-style="normal" font-weight="normal" text-decoration="normal" x="691.1815185546875" y="233.17811965942383" text-anchor="start" dominant-baseline="text-after-edge">hi</text><path fill="none" stroke="#505050" paint-order="fill stroke markers" d=" M 766.1815185546875 205.17811965942383 L 774.1815185546875 205.17811965942383 L 774.1815185546875 213.17811965942383 L 766.1815185546875 213.17811965942383 L 766.1815185546875 205.17811965942383 Z" stroke-miterlimit="10" stroke-width="0.5" stroke-dasharray=""/><text fill="#505050" stroke="none" font-family="monospace" font-size="14px" font-style="normal" font-weight="normal" text-decoration="normal" x="758.1815185546875" y="219.17811965942383" text-anchor="end" dominant-baseline="text-after-edge">lo</text><path fill="none" stroke="#505050" paint-order="fill stroke markers" d=" M 766.1815185546875 219.17811965942383 L 774.1815185546875 219.17811965942383 L 774.1815185546875 227.17811965942383 L 766.1815185546875 227.17811965942383 L 766.1815185546875 219.17811965942383 Z" stroke-miterlimit="10" stroke-width="0.5" stroke-dasharray=""/><text fill="#505050" stroke="none" font-family="monospace" font-size="14px" font-style="normal" font-weight="normal" text-decoration="normal" x="758.1815185546875" y="233.17811965942383" text-anchor="end" dominant-baseline="text-after-edge">mid</text><path fill="none" stroke="#505050" paint-order="fill stroke markers" d=" M 766.1815185546875 233.17811965942383 L 774.1815185546875 233.17811965942383 L 774.1815185546875 241.17811965942383 L 766.1815185546875 241.17811965942383 L 766.1815185546875 233.17811965942383 Z" stroke-miterlimit="10" stroke-width="0.5" stroke-dasharray=""/><text fill="#505050" stroke="none" font-family="monospace" font-size="14px" font-style="normal" font-weight="normal" text-decoration="normal" x="758.1815185546875" y="247.17811965942383" text-anchor="end" dominant-baseline="text-after-edge">mid+1</text><path fill="none" stroke="#505050" paint-order="fill stroke markers" d=" M 766.1815185546875 247.17811965942383 L 774.1815185546875 247.17811965942383 L 774.1815185546875 255.17811965942383 L 766.1815185546875 255.17811965942383 L 766.1815185546875 247.17811965942383 Z" stroke-miterlimit="10" stroke-width="0.5" stroke-dasharray=""/><text fill="#505050" stroke="none" font-family="monospace" font-size="14px" font-style="normal" font-weight="normal" text-decoration="normal" x="758.1815185546875" y="261.1781196594238" text-anchor="end" dominant-baseline="text-after-edge">hi</text><path fill="white" stroke="#505050" paint-order="fill stroke markers" d=" M 617.7658081054688 220.4499740600586 L 658.7658081054688 220.4499740600586 L 666.7658081054688 229.4499740600586 L 658.7658081054688 238.4499740600586 L 617.7658081054688 238.4499740600586 L 617.7658081054688 220.4499740600586" stroke-miterlimit="10" stroke-width="0.5" stroke-dasharray=""/><path fill="none" stroke="none"/><path fill="none" stroke="#505050" paint-order="fill stroke markers" d=" M 617.7658081054688 224.4499740600586 L 625.7658081054688 224.4499740600586 L 625.7658081054688 232.4499740600586 L 617.7658081054688 232.4499740600586 L 617.7658081054688 224.4499740600586 Z" stroke-miterlimit="10" stroke-width="0.5" stroke-dasharray=""/><text fill="#505050" stroke="none" font-family="monospace" font-size="14px" font-style="normal" font-weight="normal" text-decoration="normal" x="633.7658081054688" y="238.4499740600586" text-anchor="start" dominant-baseline="text-after-edge">mid</text><path fill="white" stroke="#505050" paint-order="fill stroke markers" d=" M 507.73455810546875 217.8093490600586 L 599.7345581054688 217.8093490600586 L 599.7345581054688 247.8093490600586 L 507.73455810546875 247.8093490600586 L 507.73455810546875 217.8093490600586 Z" stroke-miterlimit="10" stroke-width="0.5" stroke-dasharray=""/><path fill="#F0F0F0" stroke="none" paint-order="stroke fill markers" d=""/><path fill="none" stroke="none"/><text fill="#505050" stroke="none" font-family="monospace" font-size="14px" font-style="normal" font-weight="normal" text-decoration="normal" x="553.7345581054688" y="235.8093490600586" text-anchor="middle" dominant-baseline="text-after-edge">Math.floor</text><path fill="none" stroke="#505050" paint-order="fill stroke markers" d=" M 507.73455810546875 235.8093490600586 L 515.7345581054688 235.8093490600586 L 515.7345581054688 243.8093490600586 L 507.73455810546875 243.8093490600586 L 507.73455810546875 235.8093490600586 Z" stroke-miterlimit="10" stroke-width="0.5" stroke-dasharray=""/><path fill="none" stroke="#505050" paint-order="fill stroke markers" d=" M 591.7345581054688 235.8093490600586 L 599.7345581054688 235.8093490600586 L 599.7345581054688 243.8093490600586 L 591.7345581054688 243.8093490600586 L 591.7345581054688 235.8093490600586 Z" stroke-miterlimit="10" stroke-width="0.5" stroke-dasharray=""/><path fill="white" stroke="#505050" paint-order="fill stroke markers" d=" M 467.81580352783203 217.50311660766602 L 491.81580352783203 217.50311660766602 L 491.81580352783203 259.503116607666 L 467.81580352783203 259.503116607666 L 467.81580352783203 217.50311660766602 Z" stroke-miterlimit="10" stroke-width="0.5" stroke-dasharray=""/><path fill="#F0F0F0" stroke="none" paint-order="stroke fill markers" d=""/><path fill="none" stroke="none"/><text fill="#505050" stroke="none" font-family="monospace" font-size="14px" font-style="normal" font-weight="normal" text-decoration="normal" x="479.81580352783203" y="235.50311660766602" text-anchor="middle" dominant-baseline="text-after-edge">/</text><path fill="none" stroke="#505050" paint-order="fill stroke markers" d=" M 467.81580352783203 235.50311660766602 L 475.81580352783203 235.50311660766602 L 475.81580352783203 243.50311660766602 L 467.81580352783203 243.50311660766602 L 467.81580352783203 235.50311660766602 Z" stroke-miterlimit="10" stroke-width="0.5" stroke-dasharray=""/><path fill="none" stroke="#505050" paint-order="fill stroke markers" d=" M 467.81580352783203 247.50311660766602 L 475.81580352783203 247.50311660766602 L 475.81580352783203 255.50311660766602 L 467.81580352783203 255.50311660766602 L 467.81580352783203 247.50311660766602 Z" stroke-miterlimit="10" stroke-width="0.5" stroke-dasharray=""/><path fill="none" stroke="#505050" paint-order="fill stroke markers" d=" M 483.81580352783203 235.50311660766602 L 491.81580352783203 235.50311660766602 L 491.81580352783203 243.50311660766602 L 483.81580352783203 243.50311660766602 L 483.81580352783203 235.50311660766602 Z" stroke-miterlimit="10" stroke-width="0.5" stroke-dasharray=""/><path fill="white" stroke="#505050" paint-order="fill stroke markers" d=" M 412.9439277648926 257.2250099182129 L 444.9439277648926 257.2250099182129 L 444.9439277648926 275.2250099182129 L 412.9439277648926 275.2250099182129 L 412.9439277648926 257.2250099182129 Z" stroke-miterlimit="10" stroke-width="0.5" stroke-dasharray=""/><path fill="#F0F0F0" stroke="none" paint-order="stroke fill markers" d=""/><path fill="none" stroke="none"/><path fill="none" stroke="#505050" paint-order="fill stroke markers" d=" M 436.9439277648926 261.2250099182129 L 444.9439277648926 261.2250099182129 L 444.9439277648926 269.2250099182129 L 436.9439277648926 269.2250099182129 L 436.9439277648926 261.2250099182129 Z" stroke-miterlimit="10" stroke-width="0.5" stroke-dasharray=""/><text fill="#505050" stroke="none" font-family="monospace" font-size="14px" font-style="normal" font-weight="normal" text-decoration="normal" x="428.9439277648926" y="275.2250099182129" text-anchor="end" dominant-baseline="text-after-edge">2</text><path fill="white" stroke="#505050" paint-order="fill stroke markers" d=" M 416.35333251953125 206.3500099182129 L 440.35333251953125 206.3500099182129 L 440.35333251953125 248.3500099182129 L 416.35333251953125 248.3500099182129 L 416.35333251953125 206.3500099182129 Z" stroke-miterlimit="10" stroke-width="0.5" stroke-dasharray=""/><path fill="#F0F0F0" stroke="none" paint-order="stroke fill markers" d=""/><path fill="none" stroke="none"/><text fill="#505050" stroke="none" font-family="monospace" font-size="14px" font-style="normal" font-weight="normal" text-decoration="normal" x="428.35333251953125" y="224.3500099182129" text-anchor="middle" dominant-baseline="text-after-edge">+</text><path fill="none" stroke="#505050" paint-order="fill stroke markers" d=" M 416.35333251953125 224.3500099182129 L 424.35333251953125 224.3500099182129 L 424.35333251953125 232.3500099182129 L 416.35333251953125 232.3500099182129 L 416.35333251953125 224.3500099182129 Z" stroke-miterlimit="10" stroke-width="0.5" stroke-dasharray=""/><path fill="none" stroke="#505050" paint-order="fill stroke markers" d=" M 416.35333251953125 236.3500099182129 L 424.35333251953125 236.3500099182129 L 424.35333251953125 244.3500099182129 L 416.35333251953125 244.3500099182129 L 416.35333251953125 236.3500099182129 Z" stroke-miterlimit="10" stroke-width="0.5" stroke-dasharray=""/><path fill="none" stroke="#505050" paint-order="fill stroke markers" d=" M 432.35333251953125 224.3500099182129 L 440.35333251953125 224.3500099182129 L 440.35333251953125 232.3500099182129 L 432.35333251953125 232.3500099182129 L 432.35333251953125 224.3500099182129 Z" stroke-miterlimit="10" stroke-width="0.5" stroke-dasharray=""/><path fill="white" stroke="#505050" paint-order="fill stroke markers" d=" M 357.4470977783203 288.7906074523926 L 398.4470977783203 288.7906074523926 L 398.4470977783203 306.7906074523926 L 357.4470977783203 306.7906074523926 L 365.4470977783203 297.7906074523926 L 357.4470977783203 288.7906074523926" stroke-miterlimit="10" stroke-width="0.5" stroke-dasharray=""/><path fill="none" stroke="none"/><path fill="none" stroke="#505050" paint-order="fill stroke markers" d=" M 390.4470977783203 292.7906074523926 L 398.4470977783203 292.7906074523926 L 398.4470977783203 300.7906074523926 L 390.4470977783203 300.7906074523926 L 390.4470977783203 292.7906074523926 Z" stroke-miterlimit="10" stroke-width="0.5" stroke-dasharray=""/><text fill="#505050" stroke="none" font-family="monospace" font-size="14px" font-style="normal" font-weight="normal" text-decoration="normal" x="382.4470977783203" y="306.7906074523926" text-anchor="end" dominant-baseline="text-after-edge">hi</text><path fill="white" stroke="#505050" paint-order="fill stroke markers" d=" M 355.8595886230469 191.71562576293945 L 396.8595886230469 191.71562576293945 L 396.8595886230469 209.71562576293945 L 355.8595886230469 209.71562576293945 L 363.8595886230469 200.71562576293945 L 355.8595886230469 191.71562576293945" stroke-miterlimit="10" stroke-width="0.5" stroke-dasharray=""/><path fill="none" stroke="none"/><path fill="none" stroke="#505050" paint-order="fill stroke markers" d=" M 388.8595886230469 195.71562576293945 L 396.8595886230469 195.71562576293945 L 396.8595886230469 203.71562576293945 L 388.8595886230469 203.71562576293945 L 388.8595886230469 195.71562576293945 Z" stroke-miterlimit="10" stroke-width="0.5" stroke-dasharray=""/><text fill="#505050" stroke="none" font-family="monospace" font-size="14px" font-style="normal" font-weight="normal" text-decoration="normal" x="380.8595886230469" y="209.71562576293945" text-anchor="end" dominant-baseline="text-after-edge">lo</text><path fill="white" stroke="#505050" paint-order="fill stroke markers" d=" M 620.5658264160156 190.9405975341797 L 653.5658264160156 190.9405975341797 L 661.5658264160156 199.9405975341797 L 653.5658264160156 208.9405975341797 L 620.5658264160156 208.9405975341797 L 620.5658264160156 190.9405975341797" stroke-miterlimit="10" stroke-width="0.5" stroke-dasharray=""/><path fill="none" stroke="none"/><path fill="none" stroke="#505050" paint-order="fill stroke markers" d=" M 620.5658264160156 194.9405975341797 L 628.5658264160156 194.9405975341797 L 628.5658264160156 202.9405975341797 L 620.5658264160156 202.9405975341797 L 620.5658264160156 194.9405975341797 Z" stroke-miterlimit="10" stroke-width="0.5" stroke-dasharray=""/><text fill="#505050" stroke="none" font-family="monospace" font-size="14px" font-style="normal" font-weight="normal" text-decoration="normal" x="636.5658264160156" y="208.9405975341797" text-anchor="start" dominant-baseline="text-after-edge">lo</text><path fill="white" stroke="#505050" paint-order="fill stroke markers" d=" M 623.1157836914062 288.99371337890625 L 656.1157836914062 288.99371337890625 L 664.1157836914062 297.99371337890625 L 656.1157836914062 306.99371337890625 L 623.1157836914062 306.99371337890625 L 623.1157836914062 288.99371337890625" stroke-miterlimit="10" stroke-width="0.5" stroke-dasharray=""/><path fill="none" stroke="none"/><path fill="none" stroke="#505050" paint-order="fill stroke markers" d=" M 623.1157836914062 292.99371337890625 L 631.1157836914062 292.99371337890625 L 631.1157836914062 300.99371337890625 L 623.1157836914062 300.99371337890625 L 623.1157836914062 292.99371337890625 Z" stroke-miterlimit="10" stroke-width="0.5" stroke-dasharray=""/><text fill="#505050" stroke="none" font-family="monospace" font-size="14px" font-style="normal" font-weight="normal" text-decoration="normal" x="639.1157836914062" y="306.99371337890625" text-anchor="start" dominant-baseline="text-after-edge">hi</text><path fill="white" stroke="#505050" paint-order="fill stroke markers" d=" M 624.7032775878906 252.70001220703125 L 649.7032775878906 252.70001220703125 L 649.7032775878906 282.70001220703125 L 624.7032775878906 282.70001220703125 L 624.7032775878906 252.70001220703125 Z" stroke-miterlimit="10" stroke-width="0.5" stroke-dasharray=""/><path fill="#F0F0F0" stroke="none" paint-order="stroke fill markers" d=""/><path fill="none" stroke="none"/><text fill="#505050" stroke="none" font-family="monospace" font-size="14px" font-style="normal" font-weight="normal" text-decoration="normal" x="637.2032775878906" y="270.70001220703125" text-anchor="middle" dominant-baseline="text-after-edge">+1</text><path fill="none" stroke="#505050" paint-order="fill stroke markers" d=" M 624.7032775878906 270.70001220703125 L 632.7032775878906 270.70001220703125 L 632.7032775878906 278.70001220703125 L 624.7032775878906 278.70001220703125 L 624.7032775878906 270.70001220703125 Z" stroke-miterlimit="10" stroke-width="0.5" stroke-dasharray=""/><path fill="none" stroke="#505050" paint-order="fill stroke markers" d=" M 641.7032775878906 270.70001220703125 L 649.7032775878906 270.70001220703125 L 649.7032775878906 278.70001220703125 L 641.7032775878906 278.70001220703125 L 641.7032775878906 270.70001220703125 Z" stroke-miterlimit="10" stroke-width="0.5" stroke-dasharray=""/><path fill="white" stroke="#505050" paint-order="fill stroke markers" d=" M 661.3189697265625 266.7124938964844 L 719.3189697265625 266.7124938964844 L 727.3189697265625 275.7124938964844 L 719.3189697265625 284.7124938964844 L 661.3189697265625 284.7124938964844 L 661.3189697265625 266.7124938964844" stroke-miterlimit="10" stroke-width="0.5" stroke-dasharray=""/><path fill="none" stroke="none"/><path fill="none" stroke="#505050" paint-order="fill stroke markers" d=" M 661.3189697265625 270.7124938964844 L 669.3189697265625 270.7124938964844 L 669.3189697265625 278.7124938964844 L 661.3189697265625 278.7124938964844 L 661.3189697265625 270.7124938964844 Z" stroke-miterlimit="10" stroke-width="0.5" stroke-dasharray=""/><text fill="#505050" stroke="none" font-family="monospace" font-size="14px" font-style="normal" font-weight="normal" text-decoration="normal" x="677.3189697265625" y="284.7124938964844" text-anchor="start" dominant-baseline="text-after-edge">mid+1</text><path fill="white" stroke="#505050" paint-order="fill stroke markers" d=" M 359.3986282348633 68.98480224609375 L 359.3986282348633 120.49701690673828 Q 359.3986282348633 128.49701690673828 367.3986282348633 128.49701690673828 L 465.6213150024414 128.49701690673828 Q 473.6213150024414 128.49701690673828 473.6213150024414 120.49701690673828 L 473.6213150024414 68.98480224609375 Q 473.6213150024414 60.98480224609375 465.6213150024414 60.98480224609375 L 367.3986282348633 60.98480224609375 Q 359.3986282348633 60.98480224609375 359.3986282348633 68.98480224609375" stroke-miterlimit="10" stroke-width="0.5" stroke-dasharray=""/><path fill="#F0F0F0" stroke="#505050" paint-order="fill stroke markers" d=" M 448.6213150024414 68.98480224609375 L 473.6213150024414 68.98480224609375 L 473.6213150024414 98.98480224609375 L 448.6213150024414 98.98480224609375 L 448.6213150024414 68.98480224609375 Z" stroke-miterlimit="10" stroke-width="0.5" stroke-dasharray=""/><path fill="none" stroke="none"/><text fill="#505050" stroke="none" font-family="monospace" font-size="14px" font-style="normal" font-weight="normal" text-decoration="normal" x="461.1213150024414" y="86.98480224609375" text-anchor="middle" dominant-baseline="text-after-edge">+1</text><path fill="none" stroke="#505050" paint-order="fill stroke markers" d=" M 448.6213150024414 86.98480224609375 L 456.6213150024414 86.98480224609375 L 456.6213150024414 94.98480224609375 L 448.6213150024414 94.98480224609375 L 448.6213150024414 86.98480224609375 Z" stroke-miterlimit="10" stroke-width="0.5" stroke-dasharray=""/><path fill="none" stroke="#505050" paint-order="fill stroke markers" d=" M 465.6213150024414 86.98480224609375 L 473.6213150024414 86.98480224609375 L 473.6213150024414 94.98480224609375 L 465.6213150024414 94.98480224609375 L 465.6213150024414 86.98480224609375 Z" stroke-miterlimit="10" stroke-width="0.5" stroke-dasharray=""/><path fill="none" stroke="#505050" paint-order="fill stroke markers" d=" M 410.1548843383789 90.56605529785156 L 402.1548843383789 90.56605529785156 M 434.1548843383789 90.56605529785156 L 442.1548843383789 90.56605529785156" stroke-miterlimit="10" stroke-dasharray=""/><path fill="white" stroke="#505050" paint-order="fill stroke markers" d=" M 410.1548843383789 68.56605529785156 L 434.1548843383789 68.56605529785156 L 434.1548843383789 110.56605529785156 L 410.1548843383789 110.56605529785156 L 410.1548843383789 68.56605529785156 Z" stroke-miterlimit="10" stroke-width="0.5" stroke-dasharray=""/><path fill="#F0F0F0" stroke="none" paint-order="stroke fill markers" d=""/><path fill="none" stroke="none"/><text fill="#505050" stroke="none" font-family="monospace" font-size="14px" font-style="normal" font-weight="normal" text-decoration="normal" x="422.1548843383789" y="86.56605529785156" text-anchor="middle" dominant-baseline="text-after-edge">+</text><path fill="none" stroke="#505050" paint-order="fill stroke markers" d=" M 410.1548843383789 86.56605529785156 L 418.1548843383789 86.56605529785156 L 418.1548843383789 94.56605529785156 L 410.1548843383789 94.56605529785156 L 410.1548843383789 86.56605529785156 Z" stroke-miterlimit="10" stroke-width="0.5" stroke-dasharray=""/><path fill="none" stroke="#505050" paint-order="fill stroke markers" d=" M 410.1548843383789 98.56605529785156 L 418.1548843383789 98.56605529785156 L 418.1548843383789 106.56605529785156 L 410.1548843383789 106.56605529785156 L 410.1548843383789 98.56605529785156 Z" stroke-miterlimit="10" stroke-width="0.5" stroke-dasharray=""/><path fill="none" stroke="#505050" paint-order="fill stroke markers" d=" M 426.1548843383789 86.56605529785156 L 434.1548843383789 86.56605529785156 L 434.1548843383789 94.56605529785156 L 426.1548843383789 94.56605529785156 L 426.1548843383789 86.56605529785156 Z" stroke-miterlimit="10" stroke-width="0.5" stroke-dasharray=""/><path fill="white" stroke="#505050" paint-order="fill stroke markers" d=" M 365.4029006958008 94.49701690673828 L 397.4029006958008 94.49701690673828 L 397.4029006958008 112.49701690673828 L 365.4029006958008 112.49701690673828 L 365.4029006958008 94.49701690673828 Z" stroke-miterlimit="10" stroke-width="0.5" stroke-dasharray=""/><path fill="#F0F0F0" stroke="none" paint-order="stroke fill markers" d=""/><path fill="none" stroke="none"/><path fill="none" stroke="#505050" paint-order="fill stroke markers" d=" M 389.4029006958008 98.49701690673828 L 397.4029006958008 98.49701690673828 L 397.4029006958008 106.49701690673828 L 389.4029006958008 106.49701690673828 L 389.4029006958008 98.49701690673828 Z" stroke-miterlimit="10" stroke-width="0.5" stroke-dasharray=""/><text fill="#505050" stroke="none" font-family="monospace" font-size="14px" font-style="normal" font-weight="normal" text-decoration="normal" x="381.4029006958008" y="112.49701690673828" text-anchor="end" dominant-baseline="text-after-edge">1</text><path fill="white" stroke="#505050" paint-order="fill stroke markers" d=" M 512.2034819126129 25.915054321289062 L 512.2034819126129 154.6025848388672 Q 512.2034819126129 162.6025848388672 520.2034819126129 162.6025848388672 L 643.4940550327301 162.6025848388672 Q 651.4940550327301 162.6025848388672 651.4940550327301 154.6025848388672 L 651.4940550327301 25.915054321289062 Q 651.4940550327301 17.915054321289062 643.4940550327301 17.915054321289062 L 520.2034819126129 17.915054321289062 Q 512.2034819126129 17.915054321289062 512.2034819126129 25.915054321289062" stroke-miterlimit="10" stroke-width="0.5" stroke-dasharray=""/><path fill="#F0F0F0" stroke="#505050" paint-order="fill stroke markers" d=" M 626.4940550327301 25.915054321289062 L 651.4940550327301 25.915054321289062 L 651.4940550327301 103.91505432128906 L 626.4940550327301 103.91505432128906 L 626.4940550327301 25.915054321289062 Z" stroke-miterlimit="10" stroke-width="0.5" stroke-dasharray=""/><path fill="none" stroke="none"/><text fill="#505050" stroke="none" font-family="monospace" font-size="14px" font-style="normal" font-weight="normal" text-decoration="normal" x="638.9940550327301" y="43.91505432128906" text-anchor="middle" dominant-baseline="text-after-edge">??</text><path fill="none" stroke="#505050" paint-order="fill stroke markers" d=" M 626.4940550327301 43.91505432128906 L 634.4940550327301 43.91505432128906 L 634.4940550327301 51.91505432128906 L 626.4940550327301 51.91505432128906 L 626.4940550327301 43.91505432128906 Z" stroke-miterlimit="10" stroke-width="0.5" stroke-dasharray=""/><path fill="none" stroke="#505050" paint-order="fill stroke markers" d=" M 626.4940550327301 55.91505432128906 L 634.4940550327301 55.91505432128906 L 634.4940550327301 63.91505432128906 L 626.4940550327301 63.91505432128906 L 626.4940550327301 55.91505432128906 Z" stroke-miterlimit="10" stroke-width="0.5" stroke-dasharray=""/><path fill="none" stroke="#505050" paint-order="fill stroke markers" d=" M 626.4940550327301 67.91505432128906 L 634.4940550327301 67.91505432128906 L 634.4940550327301 75.91505432128906 L 626.4940550327301 75.91505432128906 L 626.4940550327301 67.91505432128906 Z" stroke-miterlimit="10" stroke-width="0.5" stroke-dasharray=""/><path fill="none" stroke="#505050" paint-order="fill stroke markers" d=" M 626.4940550327301 79.91505432128906 L 634.4940550327301 79.91505432128906 L 634.4940550327301 87.91505432128906 L 626.4940550327301 87.91505432128906 L 626.4940550327301 79.91505432128906 Z" stroke-miterlimit="10" stroke-width="0.5" stroke-dasharray=""/><path fill="none" stroke="#505050" paint-order="fill stroke markers" d=" M 626.4940550327301 91.91505432128906 L 634.4940550327301 91.91505432128906 L 634.4940550327301 99.91505432128906 L 626.4940550327301 99.91505432128906 L 626.4940550327301 91.91505432128906 Z" stroke-miterlimit="10" stroke-width="0.5" stroke-dasharray=""/><path fill="none" stroke="#505050" paint-order="fill stroke markers" d=" M 643.4940550327301 43.91505432128906 L 651.4940550327301 43.91505432128906 L 651.4940550327301 51.91505432128906 L 643.4940550327301 51.91505432128906 L 643.4940550327301 43.91505432128906 Z" stroke-miterlimit="10" stroke-width="0.5" stroke-dasharray=""/><path fill="none" stroke="#505050" paint-order="fill stroke markers" d=" M 643.4940550327301 55.91505432128906 L 651.4940550327301 55.91505432128906 L 651.4940550327301 63.91505432128906 L 643.4940550327301 63.91505432128906 L 643.4940550327301 55.91505432128906 Z" stroke-miterlimit="10" stroke-width="0.5" stroke-dasharray=""/><path fill="none" stroke="#505050" paint-order="fill stroke markers" d=" M 560.5222227573395 59.91505432128906 L 552.5222227573395 59.91505432128906 M 560.5222227573395 71.91505432128906 L 552.5222227573395 71.91505432128906 M 560.4159605503082 119.98695373535156 L 552.4159605503082 119.98695373535156 M 560.4159605503082 131.98695373535156 L 552.4159605503082 131.98695373535156 M 584.5222227573395 47.91505432128906 L 592.5222227573395 47.91505432128906 M 584.4159605503082 107.98695373535156 L 592.4159605503082 107.98695373535156" stroke-miterlimit="10" stroke-dasharray=""/><path fill="white" stroke="#505050" paint-order="fill stroke markers" d=" M 560.4159605503082 85.98695373535156 L 584.4159605503082 85.98695373535156 L 584.4159605503082 139.98695373535156 L 560.4159605503082 139.98695373535156 L 560.4159605503082 85.98695373535156 Z" stroke-miterlimit="10" stroke-width="0.5" stroke-dasharray=""/><path fill="#F0F0F0" stroke="none" paint-order="stroke fill markers" d=""/><path fill="none" stroke="none"/><text fill="#505050" stroke="none" font-family="monospace" font-size="14px" font-style="normal" font-weight="normal" text-decoration="normal" x="572.4159605503082" y="103.98695373535156" text-anchor="middle" dominant-baseline="text-after-edge">?</text><path fill="none" stroke="#505050" paint-order="fill stroke markers" d=" M 560.4159605503082 103.98695373535156 L 568.4159605503082 103.98695373535156 L 568.4159605503082 111.98695373535156 L 560.4159605503082 111.98695373535156 L 560.4159605503082 103.98695373535156 Z" stroke-miterlimit="10" stroke-width="0.5" stroke-dasharray=""/><path fill="none" stroke="#505050" paint-order="fill stroke markers" d=" M 560.4159605503082 115.98695373535156 L 568.4159605503082 115.98695373535156 L 568.4159605503082 123.98695373535156 L 560.4159605503082 123.98695373535156 L 560.4159605503082 115.98695373535156 Z" stroke-miterlimit="10" stroke-width="0.5" stroke-dasharray=""/><path fill="none" stroke="#505050" paint-order="fill stroke markers" d=" M 560.4159605503082 127.98695373535156 L 568.4159605503082 127.98695373535156 L 568.4159605503082 135.98695373535156 L 560.4159605503082 135.98695373535156 L 560.4159605503082 127.98695373535156 Z" stroke-miterlimit="10" stroke-width="0.5" stroke-dasharray=""/><path fill="none" stroke="#505050" paint-order="fill stroke markers" d=" M 576.4159605503082 103.98695373535156 L 584.4159605503082 103.98695373535156 L 584.4159605503082 111.98695373535156 L 576.4159605503082 111.98695373535156 L 576.4159605503082 103.98695373535156 Z" stroke-miterlimit="10" stroke-width="0.5" stroke-dasharray=""/><path fill="white" stroke="#505050" paint-order="fill stroke markers" d=" M 520.2034819126129 31.71192169189453 L 536.2034819126129 31.71192169189453 L 536.2034819126129 47.71192169189453 L 520.2034819126129 47.71192169189453 L 528.2034819126129 39.71192169189453 L 520.2034819126129 31.71192169189453" stroke-miterlimit="10" stroke-width="0.5" stroke-dasharray=""/><path fill="none" stroke="none"/><path fill="none" stroke="#505050" paint-order="fill stroke markers" d=" M 528.2034819126129 35.71192169189453 L 536.2034819126129 35.71192169189453 L 536.2034819126129 43.71192169189453 L 528.2034819126129 43.71192169189453 L 528.2034819126129 35.71192169189453 Z" stroke-miterlimit="10" stroke-width="0.5" stroke-dasharray=""/><path fill="white" stroke="#505050" paint-order="fill stroke markers" d=" M 560.5222227573395 25.915054321289062 L 584.5222227573395 25.915054321289062 L 584.5222227573395 79.91505432128906 L 560.5222227573395 79.91505432128906 L 560.5222227573395 25.915054321289062 Z" stroke-miterlimit="10" stroke-width="0.5" stroke-dasharray=""/><path fill="#F0F0F0" stroke="none" paint-order="stroke fill markers" d=""/><path fill="none" stroke="none"/><text fill="#505050" stroke="none" font-family="monospace" font-size="14px" font-style="normal" font-weight="normal" text-decoration="normal" x="572.5222227573395" y="43.91505432128906" text-anchor="middle" dominant-baseline="text-after-edge">?</text><path fill="none" stroke="#505050" paint-order="fill stroke markers" d=" M 560.5222227573395 43.91505432128906 L 568.5222227573395 43.91505432128906 L 568.5222227573395 51.91505432128906 L 560.5222227573395 51.91505432128906 L 560.5222227573395 43.91505432128906 Z" stroke-miterlimit="10" stroke-width="0.5" stroke-dasharray=""/><path fill="none" stroke="#505050" paint-order="fill stroke markers" d=" M 560.5222227573395 55.91505432128906 L 568.5222227573395 55.91505432128906 L 568.5222227573395 63.91505432128906 L 560.5222227573395 63.91505432128906 L 560.5222227573395 55.91505432128906 Z" stroke-miterlimit="10" stroke-width="0.5" stroke-dasharray=""/><path fill="none" stroke="#505050" paint-order="fill stroke markers" d=" M 560.5222227573395 67.91505432128906 L 568.5222227573395 67.91505432128906 L 568.5222227573395 75.91505432128906 L 560.5222227573395 75.91505432128906 L 560.5222227573395 67.91505432128906 Z" stroke-miterlimit="10" stroke-width="0.5" stroke-dasharray=""/><path fill="none" stroke="#505050" paint-order="fill stroke markers" d=" M 576.5222227573395 43.91505432128906 L 584.5222227573395 43.91505432128906 L 584.5222227573395 51.91505432128906 L 576.5222227573395 51.91505432128906 L 576.5222227573395 43.91505432128906 Z" stroke-miterlimit="10" stroke-width="0.5" stroke-dasharray=""/><path fill="white" stroke="#505050" paint-order="fill stroke markers" d=" M 266.8414993286133 348.85626220703125 L 266.8414993286133 682.9375839233398 Q 266.8414993286133 690.9375839233398 274.8414993286133 690.9375839233398 L 973.3592522144318 690.9375839233398 Q 981.3592522144318 690.9375839233398 981.3592522144318 682.9375839233398 L 981.3592522144318 348.85626220703125 Q 981.3592522144318 340.85626220703125 973.3592522144318 340.85626220703125 L 274.8414993286133 340.85626220703125 Q 266.8414993286133 340.85626220703125 266.8414993286133 348.85626220703125" stroke-miterlimit="10" stroke-width="0.5" stroke-dasharray=""/><path fill="#F0F0F0" stroke="#505050" paint-order="fill stroke markers" d=" M 857.3592522144318 348.85626220703125 L 981.3592522144318 348.85626220703125 L 981.3592522144318 402.85626220703125 L 857.3592522144318 402.85626220703125 L 857.3592522144318 348.85626220703125 Z" stroke-miterlimit="10" stroke-width="0.5" stroke-dasharray=""/><path fill="none" stroke="none"/><path fill="none" stroke="#505050" paint-order="fill stroke markers" d=" M 857.3592522144318 352.85626220703125 L 881.3592522144318 352.85626220703125 L 881.3592522144318 368.85626220703125 L 857.3592522144318 368.85626220703125 L 857.3592522144318 352.85626220703125 Z" stroke-miterlimit="10" stroke-width="0.5" stroke-dasharray=""/><path fill="none" stroke="none"/><path fill="none" stroke="#505050" paint-order="fill stroke markers" d=" M 857.3592522144318 356.85626220703125 L 865.3592522144318 356.85626220703125 L 865.3592522144318 364.85626220703125 L 857.3592522144318 364.85626220703125 L 857.3592522144318 356.85626220703125 Z" stroke-miterlimit="10" stroke-width="0.5" stroke-dasharray=""/><path fill="none" stroke="#505050" paint-order="fill stroke markers" d=" M 873.3592522144318 356.85626220703125 L 881.3592522144318 356.85626220703125 L 881.3592522144318 364.85626220703125 L 873.3592522144318 364.85626220703125 L 873.3592522144318 356.85626220703125 Z" stroke-miterlimit="10" stroke-width="0.5" stroke-dasharray=""/><text fill="#505050" stroke="none" font-family="monospace" font-size="14px" font-style="normal" font-weight="normal" text-decoration="normal" x="889.3592522144318" y="369.85626220703125" text-anchor="start" dominant-baseline="text-after-edge">[i]</text><path fill="none" stroke="#505050" paint-order="fill stroke markers" d=" M 857.3592522144318 372.85626220703125 L 865.3592522144318 372.85626220703125 L 865.3592522144318 380.85626220703125 L 857.3592522144318 380.85626220703125 L 857.3592522144318 372.85626220703125 Z" stroke-miterlimit="10" stroke-width="0.5" stroke-dasharray=""/><text fill="#505050" stroke="none" font-family="monospace" font-size="14px" font-style="normal" font-weight="normal" text-decoration="normal" x="873.3592522144318" y="386.85626220703125" text-anchor="start" dominant-baseline="text-after-edge">t</text><path fill="none" stroke="#505050" paint-order="fill stroke markers" d=" M 922.3592522144318 352.85626220703125 L 981.3592522144318 352.85626220703125 L 981.3592522144318 398.85626220703125 L 922.3592522144318 398.85626220703125 L 922.3592522144318 352.85626220703125 Z" stroke-miterlimit="10" stroke-width="0.5" stroke-dasharray=""/><path fill="none" stroke="none"/><text fill="#505050" stroke="none" font-family="monospace" font-size="14px" font-style="normal" font-weight="normal" text-decoration="normal" x="951.8592522144318" y="370.85626220703125" text-anchor="middle" dominant-baseline="text-after-edge">search</text><path fill="none" stroke="#505050" paint-order="fill stroke markers" d=" M 922.3592522144318 370.85626220703125 L 930.3592522144318 370.85626220703125 L 930.3592522144318 378.85626220703125 L 922.3592522144318 378.85626220703125 L 922.3592522144318 370.85626220703125 Z" stroke-miterlimit="10" stroke-width="0.5" stroke-dasharray=""/><text fill="#505050" stroke="none" font-family="monospace" font-size="14px" font-style="normal" font-weight="normal" text-decoration="normal" x="938.3592522144318" y="384.85626220703125" text-anchor="start" dominant-baseline="text-after-edge">lo</text><path fill="none" stroke="#505050" paint-order="fill stroke markers" d=" M 922.3592522144318 384.85626220703125 L 930.3592522144318 384.85626220703125 L 930.3592522144318 392.85626220703125 L 922.3592522144318 392.85626220703125 L 922.3592522144318 384.85626220703125 Z" stroke-miterlimit="10" stroke-width="0.5" stroke-dasharray=""/><text fill="#505050" stroke="none" font-family="monospace" font-size="14px" font-style="normal" font-weight="normal" text-decoration="normal" x="938.3592522144318" y="398.85626220703125" text-anchor="start" dominant-baseline="text-after-edge">hi</text><path fill="none" stroke="#505050" paint-order="fill stroke markers" d=" M 973.3592522144318 370.85626220703125 L 981.3592522144318 370.85626220703125 L 981.3592522144318 378.85626220703125 L 973.3592522144318 378.85626220703125 L 973.3592522144318 370.85626220703125 Z" stroke-miterlimit="10" stroke-width="0.5" stroke-dasharray=""/><path fill="none" stroke="#505050" paint-order="fill stroke markers" d=" M 973.3592522144318 382.85626220703125 L 981.3592522144318 382.85626220703125 L 981.3592522144318 390.85626220703125 L 973.3592522144318 390.85626220703125 L 973.3592522144318 382.85626220703125 Z" stroke-miterlimit="10" stroke-width="0.5" stroke-dasharray=""/><path fill="none" stroke="#505050" paint-order="fill stroke markers" d="" stroke-miterlimit="10" stroke-dasharray=""/><path fill="white" stroke="#505050" paint-order="fill stroke markers" d=" M 279.62394294142723 360.29734802246094 L 279.62394294142723 494.1677780151367 Q 279.62394294142723 502.1677780151367 287.62394294142723 502.1677780151367 L 804.4113457202911 502.1677780151367 Q 812.4113457202911 502.1677780151367 812.4113457202911 494.1677780151367 L 812.4113457202911 360.29734802246094 Q 812.4113457202911 352.29734802246094 804.4113457202911 352.29734802246094 L 287.62394294142723 352.29734802246094 Q 279.62394294142723 352.29734802246094 279.62394294142723 360.29734802246094" stroke-miterlimit="10" stroke-width="0.5" stroke-dasharray=""/><path fill="#F0F0F0" stroke="#505050" paint-order="fill stroke markers" d=" M 753.4113457202911 360.29734802246094 L 812.4113457202911 360.29734802246094 L 812.4113457202911 406.29734802246094 L 753.4113457202911 406.29734802246094 L 753.4113457202911 360.29734802246094 Z" stroke-miterlimit="10" stroke-width="0.5" stroke-dasharray=""/><path fill="none" stroke="none"/><text fill="#505050" stroke="none" font-family="monospace" font-size="14px" font-style="normal" font-weight="normal" text-decoration="normal" x="782.9113457202911" y="378.29734802246094" text-anchor="middle" dominant-baseline="text-after-edge">search</text><path fill="none" stroke="#505050" paint-order="fill stroke markers" d=" M 753.4113457202911 378.29734802246094 L 761.4113457202911 378.29734802246094 L 761.4113457202911 386.29734802246094 L 753.4113457202911 386.29734802246094 L 753.4113457202911 378.29734802246094 Z" stroke-miterlimit="10" stroke-width="0.5" stroke-dasharray=""/><text fill="#505050" stroke="none" font-family="monospace" font-size="14px" font-style="normal" font-weight="normal" text-decoration="normal" x="769.4113457202911" y="392.29734802246094" text-anchor="start" dominant-baseline="text-after-edge">lo</text><path fill="none" stroke="#505050" paint-order="fill stroke markers" d=" M 753.4113457202911 392.29734802246094 L 761.4113457202911 392.29734802246094 L 761.4113457202911 400.29734802246094 L 753.4113457202911 400.29734802246094 L 753.4113457202911 392.29734802246094 Z" stroke-miterlimit="10" stroke-width="0.5" stroke-dasharray=""/><text fill="#505050" stroke="none" font-family="monospace" font-size="14px" font-style="normal" font-weight="normal" text-decoration="normal" x="769.4113457202911" y="406.29734802246094" text-anchor="start" dominant-baseline="text-after-edge">hi</text><path fill="none" stroke="#505050" paint-order="fill stroke markers" d=" M 804.4113457202911 378.29734802246094 L 812.4113457202911 378.29734802246094 L 812.4113457202911 386.29734802246094 L 804.4113457202911 386.29734802246094 L 804.4113457202911 378.29734802246094 Z" stroke-miterlimit="10" stroke-width="0.5" stroke-dasharray=""/><path fill="none" stroke="#505050" paint-order="fill stroke markers" d=" M 804.4113457202911 390.29734802246094 L 812.4113457202911 390.29734802246094 L 812.4113457202911 398.29734802246094 L 804.4113457202911 398.29734802246094 L 804.4113457202911 390.29734802246094 Z" stroke-miterlimit="10" stroke-width="0.5" stroke-dasharray=""/><path fill="white" stroke="#505050" paint-order="fill stroke markers" d=" M 299.2006946504116 403.5696601867676 L 340.2006946504116 403.5696601867676 L 340.2006946504116 421.5696601867676 L 299.2006946504116 421.5696601867676 L 307.2006946504116 412.5696601867676 L 299.2006946504116 403.5696601867676" stroke-miterlimit="10" stroke-width="0.5" stroke-dasharray=""/><path fill="none" stroke="none"/><path fill="none" stroke="#505050" paint-order="fill stroke markers" d=" M 332.2006946504116 407.5696601867676 L 340.2006946504116 407.5696601867676 L 340.2006946504116 415.5696601867676 L 332.2006946504116 415.5696601867676 L 332.2006946504116 407.5696601867676 Z" stroke-miterlimit="10" stroke-width="0.5" stroke-dasharray=""/><text fill="#505050" stroke="none" font-family="monospace" font-size="14px" font-style="normal" font-weight="normal" text-decoration="normal" x="324.2006946504116" y="421.5696601867676" text-anchor="end" dominant-baseline="text-after-edge">hi</text><path fill="white" stroke="#505050" paint-order="fill stroke markers" d=" M 584.5520172119141 368.4013137817383 L 609.5520172119141 368.4013137817383 L 609.5520172119141 410.4013137817383 L 584.5520172119141 410.4013137817383 L 584.5520172119141 368.4013137817383 Z" stroke-miterlimit="10" stroke-width="0.5" stroke-dasharray=""/><path fill="#F0F0F0" stroke="none" paint-order="stroke fill markers" d=""/><path fill="none" stroke="none"/><text fill="#505050" stroke="none" font-family="monospace" font-size="14px" font-style="normal" font-weight="normal" text-decoration="normal" x="597.0520172119141" y="386.4013137817383" text-anchor="middle" dominant-baseline="text-after-edge">&gt;=</text><path fill="none" stroke="#505050" paint-order="fill stroke markers" d=" M 584.5520172119141 386.4013137817383 L 592.5520172119141 386.4013137817383 L 592.5520172119141 394.4013137817383 L 584.5520172119141 394.4013137817383 L 584.5520172119141 386.4013137817383 Z" stroke-miterlimit="10" stroke-width="0.5" stroke-dasharray=""/><path fill="none" stroke="#505050" paint-order="fill stroke markers" d=" M 584.5520172119141 398.4013137817383 L 592.5520172119141 398.4013137817383 L 592.5520172119141 406.4013137817383 L 584.5520172119141 406.4013137817383 L 584.5520172119141 398.4013137817383 Z" stroke-miterlimit="10" stroke-width="0.5" stroke-dasharray=""/><path fill="none" stroke="#505050" paint-order="fill stroke markers" d=" M 601.5520172119141 386.4013137817383 L 609.5520172119141 386.4013137817383 L 609.5520172119141 394.4013137817383 L 601.5520172119141 394.4013137817383 L 601.5520172119141 386.4013137817383 Z" stroke-miterlimit="10" stroke-width="0.5" stroke-dasharray=""/><path fill="white" stroke="#505050" paint-order="fill stroke markers" d=" M 295.15120244026184 375.4926528930664 L 336.15120244026184 375.4926528930664 L 336.15120244026184 393.4926528930664 L 295.15120244026184 393.4926528930664 L 303.15120244026184 384.4926528930664 L 295.15120244026184 375.4926528930664" stroke-miterlimit="10" stroke-width="0.5" stroke-dasharray=""/><path fill="none" stroke="none"/><path fill="none" stroke="#505050" paint-order="fill stroke markers" d=" M 328.15120244026184 379.4926528930664 L 336.15120244026184 379.4926528930664 L 336.15120244026184 387.4926528930664 L 328.15120244026184 387.4926528930664 L 328.15120244026184 379.4926528930664 Z" stroke-miterlimit="10" stroke-width="0.5" stroke-dasharray=""/><text fill="#505050" stroke="none" font-family="monospace" font-size="14px" font-style="normal" font-weight="normal" text-decoration="normal" x="320.15120244026184" y="393.4926528930664" text-anchor="end" dominant-baseline="text-after-edge">lo</text><path fill="white" stroke="#505050" paint-order="fill stroke markers" d=" M 691.6128838062286 398.5380687713623 L 699.6128838062286 398.5380687713623 L 707.6128838062286 406.5380687713623 L 699.6128838062286 414.5380687713623 L 691.6128838062286 414.5380687713623 L 691.6128838062286 398.5380687713623" stroke-miterlimit="10" stroke-width="0.5" stroke-dasharray=""/><path fill="none" stroke="none"/><path fill="none" stroke="#505050" paint-order="fill stroke markers" d=" M 691.6128838062286 402.5380687713623 L 699.6128838062286 402.5380687713623 L 699.6128838062286 410.5380687713623 L 691.6128838062286 410.5380687713623 L 691.6128838062286 402.5380687713623 Z" stroke-miterlimit="10" stroke-width="0.5" stroke-dasharray=""/><path fill="white" stroke="#505050" paint-order="fill stroke markers" d=" M 691.390997171402 421.5661849975586 L 699.390997171402 421.5661849975586 L 707.390997171402 429.5661849975586 L 699.390997171402 437.5661849975586 L 691.390997171402 437.5661849975586 L 691.390997171402 421.5661849975586" stroke-miterlimit="10" stroke-width="0.5" stroke-dasharray=""/><path fill="none" stroke="none"/><path fill="none" stroke="#505050" paint-order="fill stroke markers" d=" M 691.390997171402 425.5661849975586 L 699.390997171402 425.5661849975586 L 699.390997171402 433.5661849975586 L 691.390997171402 433.5661849975586 L 691.390997171402 425.5661849975586 Z" stroke-miterlimit="10" stroke-width="0.5" stroke-dasharray=""/><path fill="white" stroke="#505050" paint-order="fill stroke markers" d=" M 651.7564239501953 391.00060272216797 L 676.7564239501953 391.00060272216797 L 676.7564239501953 469.00060272216797 L 651.7564239501953 469.00060272216797 L 651.7564239501953 391.00060272216797 Z" stroke-miterlimit="10" stroke-width="0.5" stroke-dasharray=""/><path fill="#F0F0F0" stroke="none" paint-order="stroke fill markers" d=""/><path fill="none" stroke="none"/><text fill="#505050" stroke="none" font-family="monospace" font-size="14px" font-style="normal" font-weight="normal" text-decoration="normal" x="664.2564239501953" y="409.00060272216797" text-anchor="middle" dominant-baseline="text-after-edge">??</text><path fill="none" stroke="#505050" paint-order="fill stroke markers" d=" M 651.7564239501953 409.00060272216797 L 659.7564239501953 409.00060272216797 L 659.7564239501953 417.00060272216797 L 651.7564239501953 417.00060272216797 L 651.7564239501953 409.00060272216797 Z" stroke-miterlimit="10" stroke-width="0.5" stroke-dasharray=""/><path fill="none" stroke="#505050" paint-order="fill stroke markers" d=" M 651.7564239501953 421.00060272216797 L 659.7564239501953 421.00060272216797 L 659.7564239501953 429.00060272216797 L 651.7564239501953 429.00060272216797 L 651.7564239501953 421.00060272216797 Z" stroke-miterlimit="10" stroke-width="0.5" stroke-dasharray=""/><path fill="none" stroke="#505050" paint-order="fill stroke markers" d=" M 651.7564239501953 433.00060272216797 L 659.7564239501953 433.00060272216797 L 659.7564239501953 441.00060272216797 L 651.7564239501953 441.00060272216797 L 651.7564239501953 433.00060272216797 Z" stroke-miterlimit="10" stroke-width="0.5" stroke-dasharray=""/><path fill="none" stroke="#505050" paint-order="fill stroke markers" d=" M 651.7564239501953 445.00060272216797 L 659.7564239501953 445.00060272216797 L 659.7564239501953 453.00060272216797 L 651.7564239501953 453.00060272216797 L 651.7564239501953 445.00060272216797 Z" stroke-miterlimit="10" stroke-width="0.5" stroke-dasharray=""/><path fill="none" stroke="#505050" paint-order="fill stroke markers" d=" M 651.7564239501953 457.00060272216797 L 659.7564239501953 457.00060272216797 L 659.7564239501953 465.00060272216797 L 651.7564239501953 465.00060272216797 L 651.7564239501953 457.00060272216797 Z" stroke-miterlimit="10" stroke-width="0.5" stroke-dasharray=""/><path fill="none" stroke="#505050" paint-order="fill stroke markers" d=" M 668.7564239501953 409.00060272216797 L 676.7564239501953 409.00060272216797 L 676.7564239501953 417.00060272216797 L 668.7564239501953 417.00060272216797 L 668.7564239501953 409.00060272216797 Z" stroke-miterlimit="10" stroke-width="0.5" stroke-dasharray=""/><path fill="none" stroke="#505050" paint-order="fill stroke markers" d=" M 668.7564239501953 421.00060272216797 L 676.7564239501953 421.00060272216797 L 676.7564239501953 429.00060272216797 L 668.7564239501953 429.00060272216797 L 668.7564239501953 421.00060272216797 Z" stroke-miterlimit="10" stroke-width="0.5" stroke-dasharray=""/><path fill="white" stroke="#505050" paint-order="fill stroke markers" d=" M 521.5721817016602 438.21121978759766 L 580.5721817016602 438.21121978759766 L 580.5721817016602 484.21121978759766 L 521.5721817016602 484.21121978759766 L 521.5721817016602 438.21121978759766 Z" stroke-miterlimit="10" stroke-width="0.5" stroke-dasharray=""/><path fill="#F0F0F0" stroke="none" paint-order="stroke fill markers" d=""/><path fill="none" stroke="none"/><text fill="#505050" stroke="none" font-family="monospace" font-size="14px" font-style="normal" font-weight="normal" text-decoration="normal" x="551.0721817016602" y="456.21121978759766" text-anchor="middle" dominant-baseline="text-after-edge">search</text><path fill="none" stroke="#505050" paint-order="fill stroke markers" d=" M 521.5721817016602 456.21121978759766 L 529.5721817016602 456.21121978759766 L 529.5721817016602 464.21121978759766 L 521.5721817016602 464.21121978759766 L 521.5721817016602 456.21121978759766 Z" stroke-miterlimit="10" stroke-width="0.5" stroke-dasharray=""/><text fill="#505050" stroke="none" font-family="monospace" font-size="14px" font-style="normal" font-weight="normal" text-decoration="normal" x="537.5721817016602" y="470.21121978759766" text-anchor="start" dominant-baseline="text-after-edge">lo</text><path fill="none" stroke="#505050" paint-order="fill stroke markers" d=" M 521.5721817016602 470.21121978759766 L 529.5721817016602 470.21121978759766 L 529.5721817016602 478.21121978759766 L 521.5721817016602 478.21121978759766 L 521.5721817016602 470.21121978759766 Z" stroke-miterlimit="10" stroke-width="0.5" stroke-dasharray=""/><text fill="#505050" stroke="none" font-family="monospace" font-size="14px" font-style="normal" font-weight="normal" text-decoration="normal" x="537.5721817016602" y="484.21121978759766" text-anchor="start" dominant-baseline="text-after-edge">hi</text><path fill="none" stroke="#505050" paint-order="fill stroke markers" d=" M 572.5721817016602 456.21121978759766 L 580.5721817016602 456.21121978759766 L 580.5721817016602 464.21121978759766 L 572.5721817016602 464.21121978759766 L 572.5721817016602 456.21121978759766 Z" stroke-miterlimit="10" stroke-width="0.5" stroke-dasharray=""/><path fill="none" stroke="#505050" paint-order="fill stroke markers" d=" M 572.5721817016602 468.21121978759766 L 580.5721817016602 468.21121978759766 L 580.5721817016602 476.21121978759766 L 572.5721817016602 476.21121978759766 L 572.5721817016602 468.21121978759766 Z" stroke-miterlimit="10" stroke-width="0.5" stroke-dasharray=""/><path fill="#e0e0e0" stroke="none" paint-order="stroke fill markers" d=" M 820.4113457202911 383.29734802246094 L 812.4113457202911 360.29734802246094 L 812.4113457202911 406.29734802246094 Z M 513.5721817016602 461.21121978759766 L 521.5721817016602 438.21121978759766 L 521.5721817016602 484.21121978759766 Z"/><path fill="none" stroke="none"/><path fill="none" stroke="#e0e0e0" paint-order="fill stroke markers" d=" M 820.4113457202911 383.29734802246094 C 915.3843732545221 383.29734802246094 418.5991541674292 461.21121978759766 513.5721817016602 461.21121978759766" stroke-miterlimit="10" stroke-width="2" stroke-dasharray=""/><path fill="white" stroke="#505050" paint-order="fill stroke markers" d=" M 422.54827880859375 440.1677780151367 L 481.54827880859375 440.1677780151367 L 481.54827880859375 486.1677780151367 L 422.54827880859375 486.1677780151367 L 422.54827880859375 440.1677780151367 Z" stroke-miterlimit="10" stroke-width="0.5" stroke-dasharray=""/><path fill="#F0F0F0" stroke="none" paint-order="stroke fill markers" d=""/><path fill="none" stroke="none"/><text fill="#505050" stroke="none" font-family="monospace" font-size="14px" font-style="normal" font-weight="normal" text-decoration="normal" x="452.04827880859375" y="458.1677780151367" text-anchor="middle" dominant-baseline="text-after-edge">select</text><path fill="none" stroke="#505050" paint-order="fill stroke markers" d=" M 422.54827880859375 458.1677780151367 L 430.54827880859375 458.1677780151367 L 430.54827880859375 466.1677780151367 L 422.54827880859375 466.1677780151367 L 422.54827880859375 458.1677780151367 Z" stroke-miterlimit="10" stroke-width="0.5" stroke-dasharray=""/><text fill="#505050" stroke="none" font-family="monospace" font-size="14px" font-style="normal" font-weight="normal" text-decoration="normal" x="438.54827880859375" y="472.1677780151367" text-anchor="start" dominant-baseline="text-after-edge">lo</text><path fill="none" stroke="#505050" paint-order="fill stroke markers" d=" M 422.54827880859375 472.1677780151367 L 430.54827880859375 472.1677780151367 L 430.54827880859375 480.1677780151367 L 422.54827880859375 480.1677780151367 L 422.54827880859375 472.1677780151367 Z" stroke-miterlimit="10" stroke-width="0.5" stroke-dasharray=""/><text fill="#505050" stroke="none" font-family="monospace" font-size="14px" font-style="normal" font-weight="normal" text-decoration="normal" x="438.54827880859375" y="486.1677780151367" text-anchor="start" dominant-baseline="text-after-edge">hi</text><path fill="none" stroke="#505050" paint-order="fill stroke markers" d=" M 473.54827880859375 458.1677780151367 L 481.54827880859375 458.1677780151367 L 481.54827880859375 466.1677780151367 L 473.54827880859375 466.1677780151367 L 473.54827880859375 458.1677780151367 Z" stroke-miterlimit="10" stroke-width="0.5" stroke-dasharray=""/><path fill="none" stroke="#505050" paint-order="fill stroke markers" d=" M 473.54827880859375 470.1677780151367 L 481.54827880859375 470.1677780151367 L 481.54827880859375 478.1677780151367 L 473.54827880859375 478.1677780151367 L 473.54827880859375 470.1677780151367 Z" stroke-miterlimit="10" stroke-width="0.5" stroke-dasharray=""/><path fill="#e0e0e0" stroke="none" paint-order="stroke fill markers" d=" M 826.0662529468536 558.1167907714844 L 818.0662529468536 535.1167907714844 L 818.0662529468536 581.1167907714844 Z M 414.54827880859375 463.1677780151367 L 422.54827880859375 440.1677780151367 L 422.54827880859375 486.1677780151367 Z"/><path fill="none" stroke="none"/><path fill="none" stroke="#e0e0e0" paint-order="fill stroke markers" d=" M 826.0662529468536 558.1167907714844 C 952.7651567527021 558.1167907714844 287.8493750027453 463.1677780151367 414.54827880859375 463.1677780151367" stroke-miterlimit="10" stroke-width="2" stroke-dasharray=""/><path fill="white" stroke="#505050" paint-order="fill stroke markers" d=" M 286.94010162353516 564.4128799438477 L 318.94010162353516 564.4128799438477 L 318.94010162353516 582.4128799438477 L 286.94010162353516 582.4128799438477 L 294.94010162353516 573.4128799438477 L 286.94010162353516 564.4128799438477" stroke-miterlimit="10" stroke-width="0.5" stroke-dasharray=""/><path fill="none" stroke="none"/><path fill="none" stroke="#505050" paint-order="fill stroke markers" d=" M 310.94010162353516 568.4128799438477 L 318.94010162353516 568.4128799438477 L 318.94010162353516 576.4128799438477 L 310.94010162353516 576.4128799438477 L 310.94010162353516 568.4128799438477 Z" stroke-miterlimit="10" stroke-width="0.5" stroke-dasharray=""/><text fill="#505050" stroke="none" font-family="monospace" font-size="14px" font-style="normal" font-weight="normal" text-decoration="normal" x="302.94010162353516" y="582.4128799438477" text-anchor="end" dominant-baseline="text-after-edge">t</text><path fill="none" stroke="none"/><path fill="white" stroke="#505050" paint-order="fill stroke markers" d=" M 283.7732849121094 517.4725532531738 L 332.7732849121094 517.4725532531738 L 332.7732849121094 555.4725532531738 L 283.7732849121094 555.4725532531738 L 291.7732849121094 536.4725532531738 L 283.7732849121094 517.4725532531738" stroke-miterlimit="10" stroke-width="0.5" stroke-dasharray=""/><path fill="#F0F0F0" stroke="none" paint-order="stroke fill markers" d=" M 299.7732849121094 521.4725532531738 L 332.7732849121094 521.4725532531738 L 332.7732849121094 551.4725532531738 L 299.7732849121094 551.4725532531738 L 299.7732849121094 521.4725532531738 Z"/><path fill="none" stroke="none"/><path fill="none" stroke="#505050" paint-order="fill stroke markers" d=" M 299.7732849121094 521.4725532531738 L 332.7732849121094 521.4725532531738 L 332.7732849121094 551.4725532531738 L 299.7732849121094 551.4725532531738 L 299.7732849121094 521.4725532531738 Z" stroke-miterlimit="10" stroke-width="0.5" stroke-dasharray=""/><path fill="none" stroke="none"/><text fill="#505050" stroke="none" font-family="monospace" font-size="14px" font-style="normal" font-weight="normal" text-decoration="normal" x="316.2732849121094" y="539.4725532531738" text-anchor="middle" dominant-baseline="text-after-edge">[i]</text><path fill="none" stroke="#505050" paint-order="fill stroke markers" d=" M 299.7732849121094 539.4725532531738 L 307.7732849121094 539.4725532531738 L 307.7732849121094 547.4725532531738 L 299.7732849121094 547.4725532531738 L 299.7732849121094 539.4725532531738 Z" stroke-miterlimit="10" stroke-width="0.5" stroke-dasharray=""/><path fill="none" stroke="#505050" paint-order="fill stroke markers" d=" M 324.7732849121094 539.4725532531738 L 332.7732849121094 539.4725532531738 L 332.7732849121094 547.4725532531738 L 324.7732849121094 547.4725532531738 L 324.7732849121094 539.4725532531738 Z" stroke-miterlimit="10" stroke-width="0.5" stroke-dasharray=""/><path fill="none" stroke="#505050" paint-order="fill stroke markers" d=" M 299.7732849121094 521.4725532531738 L 332.7732849121094 521.4725532531738 L 332.7732849121094 551.4725532531738 L 299.7732849121094 551.4725532531738 L 299.7732849121094 521.4725532531738 Z" stroke-miterlimit="10" stroke-width="0.5" stroke-dasharray="6,3"/><path fill="#F0F0F0" stroke="none" paint-order="stroke fill markers" d=""/><path fill="none" stroke="none"/><text fill="#505050" stroke="none" font-family="monospace" font-size="14px" font-style="normal" font-weight="normal" text-decoration="normal" x="316.2732849121094" y="539.4725532531738" text-anchor="middle" dominant-baseline="text-after-edge">[i]</text><path fill="none" stroke="#505050" paint-order="fill stroke markers" d=" M 299.7732849121094 539.4725532531738 L 307.7732849121094 539.4725532531738 L 307.7732849121094 547.4725532531738 L 299.7732849121094 547.4725532531738 L 299.7732849121094 539.4725532531738 Z" stroke-miterlimit="10" stroke-width="0.5" stroke-dasharray="0"/><path fill="none" stroke="#505050" paint-order="fill stroke markers" d=" M 324.7732849121094 539.4725532531738 L 332.7732849121094 539.4725532531738 L 332.7732849121094 547.4725532531738 L 324.7732849121094 547.4725532531738 L 324.7732849121094 539.4725532531738 Z" stroke-miterlimit="10" stroke-width="0.5" stroke-dasharray="0"/><path fill="white" stroke="#505050" paint-order="fill stroke markers" d=" M 830.0590507984161 374.2320098876953 L 838.0590507984161 374.2320098876953 L 846.0590507984161 382.2320098876953 L 838.0590507984161 390.2320098876953 L 830.0590507984161 390.2320098876953 L 830.0590507984161 374.2320098876953" stroke-miterlimit="10" stroke-width="0.5" stroke-dasharray="0"/><path fill="none" stroke="none"/><path fill="none" stroke="#505050" paint-order="fill stroke markers" d=" M 830.0590507984161 378.2320098876953 L 838.0590507984161 378.2320098876953 L 838.0590507984161 386.2320098876953 L 830.0590507984161 386.2320098876953 L 830.0590507984161 378.2320098876953 Z" stroke-miterlimit="10" stroke-width="0.5" stroke-dasharray="0"/><path fill="white" stroke="#505050" paint-order="fill stroke markers" d=" M 356.5285583436489 535.1167907714844 L 356.5285583436489 657.5448532104492 Q 356.5285583436489 665.5448532104492 364.5285583436489 665.5448532104492 L 810.0662529468536 665.5448532104492 Q 818.0662529468536 665.5448532104492 818.0662529468536 657.5448532104492 L 818.0662529468536 535.1167907714844 Q 818.0662529468536 527.1167907714844 810.0662529468536 527.1167907714844 L 364.5285583436489 527.1167907714844 Q 356.5285583436489 527.1167907714844 356.5285583436489 535.1167907714844" stroke-miterlimit="10" stroke-width="0.5" stroke-dasharray="0"/><path fill="#F0F0F0" stroke="#505050" paint-order="fill stroke markers" d=" M 759.0662529468536 535.1167907714844 L 818.0662529468536 535.1167907714844 L 818.0662529468536 581.1167907714844 L 759.0662529468536 581.1167907714844 L 759.0662529468536 535.1167907714844 Z" stroke-miterlimit="10" stroke-width="0.5" stroke-dasharray="0"/><path fill="none" stroke="none"/><text fill="#505050" stroke="none" font-family="monospace" font-size="14px" font-style="normal" font-weight="normal" text-decoration="normal" x="788.5662529468536" y="553.1167907714844" text-anchor="middle" dominant-baseline="text-after-edge">select</text><path fill="none" stroke="#505050" paint-order="fill stroke markers" d=" M 759.0662529468536 553.1167907714844 L 767.0662529468536 553.1167907714844 L 767.0662529468536 561.1167907714844 L 759.0662529468536 561.1167907714844 L 759.0662529468536 553.1167907714844 Z" stroke-miterlimit="10" stroke-width="0.5" stroke-dasharray="0"/><text fill="#505050" stroke="none" font-family="monospace" font-size="14px" font-style="normal" font-weight="normal" text-decoration="normal" x="775.0662529468536" y="567.1167907714844" text-anchor="start" dominant-baseline="text-after-edge">lo</text><path fill="none" stroke="#505050" paint-order="fill stroke markers" d=" M 759.0662529468536 567.1167907714844 L 767.0662529468536 567.1167907714844 L 767.0662529468536 575.1167907714844 L 759.0662529468536 575.1167907714844 L 759.0662529468536 567.1167907714844 Z" stroke-miterlimit="10" stroke-width="0.5" stroke-dasharray="0"/><text fill="#505050" stroke="none" font-family="monospace" font-size="14px" font-style="normal" font-weight="normal" text-decoration="normal" x="775.0662529468536" y="581.1167907714844" text-anchor="start" dominant-baseline="text-after-edge">hi</text><path fill="none" stroke="#505050" paint-order="fill stroke markers" d=" M 810.0662529468536 553.1167907714844 L 818.0662529468536 553.1167907714844 L 818.0662529468536 561.1167907714844 L 810.0662529468536 561.1167907714844 L 810.0662529468536 553.1167907714844 Z" stroke-miterlimit="10" stroke-width="0.5" stroke-dasharray="0"/><path fill="none" stroke="#505050" paint-order="fill stroke markers" d=" M 810.0662529468536 565.1167907714844 L 818.0662529468536 565.1167907714844 L 818.0662529468536 573.1167907714844 L 810.0662529468536 573.1167907714844 L 810.0662529468536 565.1167907714844 Z" stroke-miterlimit="10" stroke-width="0.5" stroke-dasharray="0"/><path fill="none" stroke="#505050" paint-order="fill stroke markers" d=" M 399.7817077636719 597.5448532104492 L 391.7817077636719 597.5448532104492 M 399.7817077636719 611.5448532104492 L 391.7817077636719 611.5448532104492 M 719.134649515152 578.3010482788086 L 727.134649515152 578.3010482788086 M 719.134649515152 590.3010482788086 L 727.134649515152 590.3010482788086" stroke-miterlimit="10" stroke-dasharray="0"/><path fill="white" stroke="#505050" paint-order="fill stroke markers" d=" M 399.7817077636719 575.5448532104492 L 498.7817077636719 575.5448532104492 L 498.7817077636719 649.5448532104492 L 399.7817077636719 649.5448532104492 L 399.7817077636719 575.5448532104492 Z" stroke-miterlimit="10" stroke-width="0.5" stroke-dasharray="0"/><path fill="#F0F0F0" stroke="none" paint-order="stroke fill markers" d=""/><path fill="none" stroke="none"/><text fill="#505050" stroke="none" font-family="monospace" font-size="14px" font-style="normal" font-weight="normal" text-decoration="normal" x="449.2817077636719" y="593.5448532104492" text-anchor="middle" dominant-baseline="text-after-edge">divide</text><path fill="none" stroke="#505050" paint-order="fill stroke markers" d=" M 399.7817077636719 593.5448532104492 L 407.7817077636719 593.5448532104492 L 407.7817077636719 601.5448532104492 L 399.7817077636719 601.5448532104492 L 399.7817077636719 593.5448532104492 Z" stroke-miterlimit="10" stroke-width="0.5" stroke-dasharray="0"/><text fill="#505050" stroke="none" font-family="monospace" font-size="14px" font-style="normal" font-weight="normal" text-decoration="normal" x="415.7817077636719" y="607.5448532104492" text-anchor="start" dominant-baseline="text-after-edge">lo</text><path fill="none" stroke="#505050" paint-order="fill stroke markers" d=" M 399.7817077636719 607.5448532104492 L 407.7817077636719 607.5448532104492 L 407.7817077636719 615.5448532104492 L 399.7817077636719 615.5448532104492 L 399.7817077636719 607.5448532104492 Z" stroke-miterlimit="10" stroke-width="0.5" stroke-dasharray="0"/><text fill="#505050" stroke="none" font-family="monospace" font-size="14px" font-style="normal" font-weight="normal" text-decoration="normal" x="415.7817077636719" y="621.5448532104492" text-anchor="start" dominant-baseline="text-after-edge">hi</text><path fill="none" stroke="#505050" paint-order="fill stroke markers" d=" M 490.7817077636719 593.5448532104492 L 498.7817077636719 593.5448532104492 L 498.7817077636719 601.5448532104492 L 490.7817077636719 601.5448532104492 L 490.7817077636719 593.5448532104492 Z" stroke-miterlimit="10" stroke-width="0.5" stroke-dasharray="0"/><text fill="#505050" stroke="none" font-family="monospace" font-size="14px" font-style="normal" font-weight="normal" text-decoration="normal" x="482.7817077636719" y="607.5448532104492" text-anchor="end" dominant-baseline="text-after-edge">lo</text><path fill="none" stroke="#505050" paint-order="fill stroke markers" d=" M 490.7817077636719 607.5448532104492 L 498.7817077636719 607.5448532104492 L 498.7817077636719 615.5448532104492 L 490.7817077636719 615.5448532104492 L 490.7817077636719 607.5448532104492 Z" stroke-miterlimit="10" stroke-width="0.5" stroke-dasharray="0"/><text fill="#505050" stroke="none" font-family="monospace" font-size="14px" font-style="normal" font-weight="normal" text-decoration="normal" x="482.7817077636719" y="621.5448532104492" text-anchor="end" dominant-baseline="text-after-edge">mid</text><path fill="none" stroke="#505050" paint-order="fill stroke markers" d=" M 490.7817077636719 621.5448532104492 L 498.7817077636719 621.5448532104492 L 498.7817077636719 629.5448532104492 L 490.7817077636719 629.5448532104492 L 490.7817077636719 621.5448532104492 Z" stroke-miterlimit="10" stroke-width="0.5" stroke-dasharray="0"/><text fill="#505050" stroke="none" font-family="monospace" font-size="14px" font-style="normal" font-weight="normal" text-decoration="normal" x="482.7817077636719" y="635.5448532104492" text-anchor="end" dominant-baseline="text-after-edge">mid+1</text><path fill="none" stroke="#505050" paint-order="fill stroke markers" d=" M 490.7817077636719 635.5448532104492 L 498.7817077636719 635.5448532104492 L 498.7817077636719 643.5448532104492 L 490.7817077636719 643.5448532104492 L 490.7817077636719 635.5448532104492 Z" stroke-miterlimit="10" stroke-width="0.5" stroke-dasharray="0"/><text fill="#505050" stroke="none" font-family="monospace" font-size="14px" font-style="normal" font-weight="normal" text-decoration="normal" x="482.7817077636719" y="649.5448532104492" text-anchor="end" dominant-baseline="text-after-edge">hi</text><path fill="white" stroke="#505050" paint-order="fill stroke markers" d=" M 694.134649515152 556.3010482788086 L 719.134649515152 556.3010482788086 L 719.134649515152 634.3010482788086 L 694.134649515152 634.3010482788086 L 694.134649515152 556.3010482788086 Z" stroke-miterlimit="10" stroke-width="0.5" stroke-dasharray="0"/><path fill="#F0F0F0" stroke="none" paint-order="stroke fill markers" d=""/><path fill="none" stroke="none"/><text fill="#505050" stroke="none" font-family="monospace" font-size="14px" font-style="normal" font-weight="normal" text-decoration="normal" x="706.634649515152" y="574.3010482788086" text-anchor="middle" dominant-baseline="text-after-edge">??</text><path fill="none" stroke="#505050" paint-order="fill stroke markers" d=" M 694.134649515152 574.3010482788086 L 702.134649515152 574.3010482788086 L 702.134649515152 582.3010482788086 L 694.134649515152 582.3010482788086 L 694.134649515152 574.3010482788086 Z" stroke-miterlimit="10" stroke-width="0.5" stroke-dasharray="0"/><path fill="none" stroke="#505050" paint-order="fill stroke markers" d=" M 694.134649515152 586.3010482788086 L 702.134649515152 586.3010482788086 L 702.134649515152 594.3010482788086 L 694.134649515152 594.3010482788086 L 694.134649515152 586.3010482788086 Z" stroke-miterlimit="10" stroke-width="0.5" stroke-dasharray="0"/><path fill="none" stroke="#505050" paint-order="fill stroke markers" d=" M 694.134649515152 598.3010482788086 L 702.134649515152 598.3010482788086 L 702.134649515152 606.3010482788086 L 694.134649515152 606.3010482788086 L 694.134649515152 598.3010482788086 Z" stroke-miterlimit="10" stroke-width="0.5" stroke-dasharray="0"/><path fill="none" stroke="#505050" paint-order="fill stroke markers" d=" M 694.134649515152 610.3010482788086 L 702.134649515152 610.3010482788086 L 702.134649515152 618.3010482788086 L 694.134649515152 618.3010482788086 L 694.134649515152 610.3010482788086 Z" stroke-miterlimit="10" stroke-width="0.5" stroke-dasharray="0"/><path fill="none" stroke="#505050" paint-order="fill stroke markers" d=" M 694.134649515152 622.3010482788086 L 702.134649515152 622.3010482788086 L 702.134649515152 630.3010482788086 L 694.134649515152 630.3010482788086 L 694.134649515152 622.3010482788086 Z" stroke-miterlimit="10" stroke-width="0.5" stroke-dasharray="0"/><path fill="none" stroke="#505050" paint-order="fill stroke markers" d=" M 711.134649515152 574.3010482788086 L 719.134649515152 574.3010482788086 L 719.134649515152 582.3010482788086 L 711.134649515152 582.3010482788086 L 711.134649515152 574.3010482788086 Z" stroke-miterlimit="10" stroke-width="0.5" stroke-dasharray="0"/><path fill="none" stroke="#505050" paint-order="fill stroke markers" d=" M 711.134649515152 586.3010482788086 L 719.134649515152 586.3010482788086 L 719.134649515152 594.3010482788086 L 711.134649515152 594.3010482788086 L 711.134649515152 586.3010482788086 Z" stroke-miterlimit="10" stroke-width="0.5" stroke-dasharray="0"/><path fill="white" stroke="#505050" paint-order="fill stroke markers" d=" M 523.3034362792969 533.7763252258301 L 556.3034362792969 533.7763252258301 L 556.3034362792969 563.7763252258301 L 523.3034362792969 563.7763252258301 L 523.3034362792969 533.7763252258301 Z" stroke-miterlimit="10" stroke-width="0.5" stroke-dasharray="0"/><path fill="#F0F0F0" stroke="none" paint-order="stroke fill markers" d=""/><path fill="none" stroke="none"/><text fill="#505050" stroke="none" font-family="monospace" font-size="14px" font-style="normal" font-weight="normal" text-decoration="normal" x="539.8034362792969" y="551.7763252258301" text-anchor="middle" dominant-baseline="text-after-edge">[i]</text><path fill="none" stroke="#505050" paint-order="fill stroke markers" d=" M 523.3034362792969 551.7763252258301 L 531.3034362792969 551.7763252258301 L 531.3034362792969 559.7763252258301 L 523.3034362792969 559.7763252258301 L 523.3034362792969 551.7763252258301 Z" stroke-miterlimit="10" stroke-width="0.5" stroke-dasharray="0"/><path fill="none" stroke="#505050" paint-order="fill stroke markers" d=" M 548.3034362792969 551.7763252258301 L 556.3034362792969 551.7763252258301 L 556.3034362792969 559.7763252258301 L 548.3034362792969 559.7763252258301 L 548.3034362792969 551.7763252258301 Z" stroke-miterlimit="10" stroke-width="0.5" stroke-dasharray="0"/><path fill="#e0e0e0" stroke="none" paint-order="stroke fill markers" d=" M 340.7732849121094 536.4725532531738 L 332.7732849121094 521.4725532531738 L 332.7732849121094 551.4725532531738 Z M 515.3034362792969 548.7763252258301 L 523.3034362792969 533.7763252258301 L 523.3034362792969 563.7763252258301 Z"/><path fill="none" stroke="none"/><path fill="none" stroke="#e0e0e0" paint-order="fill stroke markers" d=" M 340.7732849121094 536.4725532531738 C 393.26227507853156 536.4725532531738 462.8144461128747 548.7763252258301 515.3034362792969 548.7763252258301" stroke-miterlimit="10" stroke-width="2" stroke-dasharray="0"/><path fill="white" stroke="#505050" paint-order="fill stroke markers" d=" M 575.3267822265625 533.28271484375 L 599.3267822265625 533.28271484375 L 599.3267822265625 575.28271484375 L 575.3267822265625 575.28271484375 L 575.3267822265625 533.28271484375 Z" stroke-miterlimit="10" stroke-width="0.5" stroke-dasharray="0"/><path fill="#F0F0F0" stroke="none" paint-order="stroke fill markers" d=""/><path fill="none" stroke="none"/><text fill="#505050" stroke="none" font-family="monospace" font-size="14px" font-style="normal" font-weight="normal" text-decoration="normal" x="587.3267822265625" y="551.28271484375" text-anchor="middle" dominant-baseline="text-after-edge">&lt;</text><path fill="none" stroke="#505050" paint-order="fill stroke markers" d=" M 575.3267822265625 551.28271484375 L 583.3267822265625 551.28271484375 L 583.3267822265625 559.28271484375 L 575.3267822265625 559.28271484375 L 575.3267822265625 551.28271484375 Z" stroke-miterlimit="10" stroke-width="0.5" stroke-dasharray="0"/><path fill="none" stroke="#505050" paint-order="fill stroke markers" d=" M 575.3267822265625 563.28271484375 L 583.3267822265625 563.28271484375 L 583.3267822265625 571.28271484375 L 575.3267822265625 571.28271484375 L 575.3267822265625 563.28271484375 Z" stroke-miterlimit="10" stroke-width="0.5" stroke-dasharray="0"/><path fill="none" stroke="#505050" paint-order="fill stroke markers" d=" M 591.3267822265625 551.28271484375 L 599.3267822265625 551.28271484375 L 599.3267822265625 559.28271484375 L 591.3267822265625 559.28271484375 L 591.3267822265625 551.28271484375 Z" stroke-miterlimit="10" stroke-width="0.5" stroke-dasharray="0"/><path fill="none" stroke="#505050" paint-order="fill stroke markers" d=" M 398.4470977783203 296.7906074523926 C 416.2109849186968 296.7906074523926 398.58944537915477 240.3500099182129 416.35333251953125 240.3500099182129" stroke-miterlimit="10" stroke-dasharray="0"/><path fill="none" stroke="#505050" paint-order="fill stroke markers" d=" M 396.8595886230469 199.71562576293945 C 407.25160770669055 199.71562576293945 405.9613134358876 228.3500099182129 416.35333251953125 228.3500099182129" stroke-miterlimit="10" stroke-dasharray="0"/><path fill="none" stroke="#505050" paint-order="fill stroke markers" d=" M 444.9439277648926 265.2250099182129 C 452.94562602993125 265.2250099182129 459.81410526279336 251.50311660766602 467.81580352783203 251.50311660766602" stroke-miterlimit="10" stroke-dasharray="0"/><path fill="none" stroke="#505050" paint-order="fill stroke markers" d=" M 440.35333251953125 228.3500099182129 C 449.2455830357801 228.3500099182129 458.9235530115832 239.50311660766602 467.81580352783203 239.50311660766602" stroke-miterlimit="10" stroke-dasharray="0"/><path fill="none" stroke="#505050" paint-order="fill stroke markers" d=" M 491.81580352783203 239.50311660766602 C 496.5923134781633 239.50311660766602 502.9580481551375 239.8093490600586 507.73455810546875 239.8093490600586" stroke-miterlimit="10" stroke-dasharray="0"/><path fill="none" stroke="#505050" paint-order="fill stroke markers" d=" M 599.7345581054688 239.8093490600586 C 606.1278767996823 239.8093490600586 611.3724894112552 228.4499740600586 617.7658081054688 228.4499740600586" stroke-miterlimit="10" stroke-dasharray="0"/><path fill="none" stroke="#505050" paint-order="fill stroke markers" d=" M 396.8595886230469 199.71562576293945 C 463.9718627214677 199.71562576293945 553.4535523175948 198.9405975341797 620.5658264160156 198.9405975341797" stroke-miterlimit="10" stroke-dasharray="0"/><path fill="none" stroke="#505050" paint-order="fill stroke markers" d=" M 398.4470977783203 296.7906074523926 C 465.84773109414107 296.7906074523926 555.7151503755855 296.99371337890625 623.1157836914062 296.99371337890625" stroke-miterlimit="10" stroke-dasharray="0"/><path fill="none" stroke="#505050" paint-order="fill stroke markers" d=" M 599.7345581054688 239.8093490600586 C 612.6059053336521 239.8093490600586 611.8319303597073 274.70001220703125 624.7032775878906 274.70001220703125" stroke-miterlimit="10" stroke-dasharray="0"/><path fill="none" stroke="#505050" paint-order="fill stroke markers" d=" M 649.7032775878906 274.70001220703125 C 653.1879872413292 274.70001220703125 657.8342600731239 274.7124938964844 661.3189697265625 274.7124938964844" stroke-miterlimit="10" stroke-dasharray="0"/><path fill="none" stroke="#505050" paint-order="fill stroke markers" d=" M 397.4029006958008 102.49701690673828 C 401.2285518535519 102.49701690673828 406.3292331806278 102.56605529785156 410.1548843383789 102.56605529785156" stroke-miterlimit="10" stroke-dasharray="0"/><path fill="none" stroke="#505050" paint-order="fill stroke markers" d=" M 536.2034819126129 39.71192169189453 C 543.9029837607039 39.71192169189453 552.8227209092485 47.91505432128906 560.5222227573395 47.91505432128906" stroke-miterlimit="10" stroke-dasharray="0"/><path fill="none" stroke="#505050" paint-order="fill stroke markers" d=" M 536.2034819126129 39.71192169189453 C 557.9358350067542 39.71192169189453 538.6836074561669 107.98695373535156 560.4159605503082 107.98695373535156" stroke-miterlimit="10" stroke-dasharray="0"/><path fill="none" stroke="#505050" paint-order="fill stroke markers" d=" M 318.94010162353516 572.4128799438477 C 395.8715020567352 572.4128799438477 498.39538179336245 567.28271484375 575.3267822265625 567.28271484375" stroke-miterlimit="10" stroke-dasharray="0"/><path fill="none" stroke="#505050" paint-order="fill stroke markers" d=" M 812.4113457202911 383.29734802246094 C 817.7152951533012 383.29734802246094 824.7551013654061 382.2320098876953 830.0590507984161 382.2320098876953" stroke-miterlimit="10" stroke-dasharray="0"/><path fill="none" stroke="#505050" paint-order="fill stroke markers" d=" M 609.5520172119141 390.4013137817383 C 623.9142796655423 390.4013137817383 637.3941614965671 413.00060272216797 651.7564239501953 413.00060272216797" stroke-miterlimit="10" stroke-dasharray="0"/><path fill="none" stroke="#505050" paint-order="fill stroke markers" d=" M 336.15120244026184 383.4926528930664 C 410.7002634249891 383.4926528930664 510.0029562271868 390.4013137817383 584.5520172119141 390.4013137817383" stroke-miterlimit="10" stroke-dasharray="0"/><path fill="none" stroke="#505050" paint-order="fill stroke markers" d=" M 340.2006946504116 411.5696601867676 C 413.55767432652846 411.5696601867676 511.1950375357972 402.4013137817383 584.5520172119141 402.4013137817383" stroke-miterlimit="10" stroke-dasharray="0"/><path fill="none" stroke="#505050" paint-order="fill stroke markers" d=" M 676.7564239501953 413.00060272216797 C 681.6167826825043 413.00060272216797 686.7525250739196 406.5380687713623 691.6128838062286 406.5380687713623" stroke-miterlimit="10" stroke-dasharray="0"/><path fill="none" stroke="#505050" paint-order="fill stroke markers" d=" M 676.7564239501953 425.00060272216797 C 681.355486326291 425.00060272216797 686.7919347953062 429.5661849975586 691.390997171402 429.5661849975586" stroke-miterlimit="10" stroke-dasharray="0"/><path fill="none" stroke="#505050" paint-order="fill stroke markers" d=" M 336.15120244026184 383.4926528930664 C 431.64811818575305 383.4926528930664 556.2595082047042 425.00060272216797 651.7564239501953 425.00060272216797" stroke-miterlimit="10" stroke-dasharray="0"/><path fill="none" stroke="#505050" paint-order="fill stroke markers" d=" M 340.2006946504116 411.5696601867676 C 433.9782691381232 411.5696601867676 557.9788494624837 437.00060272216797 651.7564239501953 437.00060272216797" stroke-miterlimit="10" stroke-dasharray="0"/><path fill="none" stroke="#505050" paint-order="fill stroke markers" d=" M 580.5721817016602 460.21121978759766 C 602.1906618784377 460.21121978759766 630.1379437734178 449.00060272216797 651.7564239501953 449.00060272216797" stroke-miterlimit="10" stroke-dasharray="0"/><path fill="none" stroke="#505050" paint-order="fill stroke markers" d=" M 580.5721817016602 472.21121978759766 C 602.1906618784377 472.21121978759766 630.1379437734178 461.00060272216797 651.7564239501953 461.00060272216797" stroke-miterlimit="10" stroke-dasharray="0"/><path fill="none" stroke="#505050" paint-order="fill stroke markers" d=" M 481.54827880859375 462.1677780151367 C 493.56978799256154 462.1677780151367 509.55067251769236 460.21121978759766 521.5721817016602 460.21121978759766" stroke-miterlimit="10" stroke-dasharray="0"/><path fill="none" stroke="#505050" paint-order="fill stroke markers" d=" M 481.54827880859375 474.1677780151367 C 493.5554567492386 474.1677780151367 509.5650037610153 474.21121978759766 521.5721817016602 474.21121978759766" stroke-miterlimit="10" stroke-dasharray="0"/><path fill="none" stroke="#505050" paint-order="fill stroke markers" d=" M 336.15120244026184 383.4926528930664 C 371.206597326316 383.4926528930664 387.4928839225396 462.1677780151367 422.54827880859375 462.1677780151367" stroke-miterlimit="10" stroke-dasharray="0"/><path fill="none" stroke="#505050" paint-order="fill stroke markers" d=" M 340.2006946504116 411.5696601867676 C 371.5991616500775 411.5696601867676 391.14981180892784 476.1677780151367 422.54827880859375 476.1677780151367" stroke-miterlimit="10" stroke-dasharray="0"/><path fill="none" stroke="#505050" paint-order="fill stroke markers" d=" M 599.3267822265625 555.28271484375 C 628.5954307032936 555.28271484375 664.8660010384209 578.3010482788086 694.134649515152 578.3010482788086" stroke-miterlimit="10" stroke-dasharray="0"/><path fill="none" stroke="#505050" paint-order="fill stroke markers" d=" M 556.3034362792969 555.7763252258301 C 562.0123609417424 555.7763252258301 569.617857564117 555.28271484375 575.3267822265625 555.28271484375" stroke-miterlimit="10" stroke-dasharray="0"/><path fill="none" stroke="#505050" paint-order="fill stroke markers" d=" M 498.7817077636719 611.5448532104492 C 517.0581940087594 611.5448532104492 505.02695003420934 555.7763252258301 523.3034362792969 555.7763252258301" stroke-miterlimit="10" stroke-dasharray="0"/><path fill="none" stroke="#505050" paint-order="fill stroke markers" d=" M 498.7817077636719 597.5448532104492 C 557.4278671475228 597.5448532104492 635.4884901313011 590.3010482788086 694.134649515152 590.3010482788086" stroke-miterlimit="10" stroke-dasharray="0"/><path fill="none" stroke="#505050" paint-order="fill stroke markers" d=" M 498.7817077636719 611.5448532104492 C 557.4531640286345 611.5448532104492 635.4631932501893 602.3010482788086 694.134649515152 602.3010482788086" stroke-miterlimit="10" stroke-dasharray="0"/><path fill="none" stroke="#505050" paint-order="fill stroke markers" d=" M 498.7817077636719 625.5448532104492 C 557.4845829064349 625.5448532104492 635.431774372389 614.3010482788086 694.134649515152 614.3010482788086" stroke-miterlimit="10" stroke-dasharray="0"/><path fill="none" stroke="#505050" paint-order="fill stroke markers" d=" M 498.7817077636719 639.5448532104492 C 557.5221139573832 639.5448532104492 635.3942433214406 626.3010482788086 694.134649515152 626.3010482788086" stroke-miterlimit="10" stroke-dasharray="0"/></g></g></svg>