<svg version="1.1" xmlns="http://www.w3.org/2000/svg" xmlns:xlink="http://www.w3.org/1999/xlink" width="816.3188393115997" height="649.3550796508789"><defs/><g transform="translate(-265.8414993286133,-16.915054321289062)"><g><path fill="white" stroke="#505050" paint-order="fill stroke markers" d=" M 343.6283264160156 187.17811965942383 L 343.6283264160156 314.99371337890625 Q 343.6283264160156 322.99371337890625 351.6283264160156 322.99371337890625 L 766.1815185546875 322.99371337890625 Q 774.1815185546875 322.99371337890625 774.1815185546875 314.99371337890625 L 774.1815185546875 187.17811965942383 Q 774.1815185546875 179.17811965942383 766.1815185546875 179.17811965942383 L 351.6283264160156 179.17811965942383 Q 343.6283264160156 179.17811965942383 343.6283264160156 187.17811965942383" stroke-miterlimit="10" stroke-width="0.5" stroke-dasharray=""/><path fill="#F0F0F0" stroke="#505050" paint-order="fill stroke markers" d=" M 675.1815185546875 187.17811965942383 L 774.1815185546875 187.17811965942383 L 774.1815185546875 261.1781196594238 L 675.1815185546875 261.1781196594238 L 675.1815185546875 187.17811965942383 Z" stroke-miterlimit="10" stroke-width="0.5" stroke-dasharray=""/><path fill="none" stroke="none"/><text fill="#505050" stroke="none" font-family="monospace" font-size="14px" font-style="normal" font-weight="normal" text-decoration="normal" x="724.6815185546875" y="205.17811965942383" text-anchor="middle" dominant-baseline="text-after-edge">divide</text><path fill="none" stroke="#505050" paint-order="fill stroke markers" d=" M 675.1815185546875 205.17811965942383 L 683.1815185546875 205.17811965942383 L 683.1815185546875 213.17811965942383 L 675.1815185546875 213.17811965942383 L 675.1815185546875 205.17811965942383 Z" stroke-miterlimit="10" stroke-width="0.5" stroke-dasharray=""/><text fill="#505050" stroke="none" font-family="monospace" font-size="14px" font-style="normal" font-weight="normal" text-decoration="normal" x="691.1815185546875" y="219.17811965942383" text-anchor="start" dominant-baseline="text-after-edge">lo</text><path fill="none" stroke="#505050" paint-order="fill stroke markers" d=" M 675.1815185546875 219.17811965942383 L 683.1815185546875 219.17811965942383 L 683.1815185546875 227.17811965942383 L 675.1815185546875 227.17811965942383 L 675.1815185546875 219.17811965942383 Z" stroke-miterlimit="10" stroke-width="0.5" stroke-dasharray=""/><text fill="#505050" stroke="none" font-family="monospace" font-size="14px" font-style="normal" font-weight="normal" text-decoration="normal" x="691.1815185546875" y="233.17811965942383" text-anchor="start" dominant-baseline="text-after-edge">hi</text><path fill="none" stroke="#505050" paint-order="fill stroke markers" d=" M 766.1815185546875 205.17811965942383 L 774.1815185546875 205.17811965942383 L 774.1815185546875 213.17811965942383 L 766.1815185546875 213.17811965942383 L 766.1815185546875 205.17811965942383 Z" stroke-miterlimit="10" stroke-width="0.5" stroke-dasharray=""/><text fill="#505050" stroke="none" font-family="monospace" font-size="14px" font-style="normal" font-weight="normal" text-decoration="normal" x="758.1815185546875" y="219.17811965942383" text-anchor="end" dominant-baseline="text-after-edge">lo</text><path fill="none" stroke="#505050" paint-order="fill stroke markers" d=" M 766.1815185546875 219.17811965942383 L 774.1815185546875 219.17811965942383 L 774.1815185546875 227.17811965942383 L 766.1815185546875 227.17811965942383 L 766.1815185546875 219.17811965942383 Z" stroke-miterlimit="10" stroke-width="0.5" stroke-dasharray=""/><text fill="#505050" stroke="none" font-family="monospace" font-size="14px" font-style="normal" font-weight="normal" text-decoration="normal" x="758.1815185546875" y="233.17811965942383" text-anchor="end" dominant-baseline="text-after-edge">mid</text><path fill="none" stroke="#505050" paint-order="fill stroke markers" d=" M 766.1815185546875 233.17811965942383 L 774.1815185546875 233.17811965942383 L 774.1815185546875 241.17811965942383 L 766.1815185546875 241.17811965942383 L 766.1815185546875 233.17811965942383 Z" stroke-miterlimit="10" stroke-width="0.5" stroke-dasharray=""/><text fill="#505050" stroke="none" font-family="monospace" font-size="14px" font-style="normal" font-weight="normal" text-decoration="normal" x="758.1815185546875" y="247.17811965942383" text-anchor="end" dominant-baseline="text-after-edge">mid+1</text><path fill="none" stroke="#505050" paint-order="fill stroke markers" d=" M 766.1815185546875 247.17811965942383 L 774.1815185546875 247.17811965942383 L 774.1815185546875 255.17811965942383 L 766.1815185546875 255.17811965942383 L 766.1815185546875 247.17811965942383 Z" stroke-miterlimit="10" stroke-width="0.5" stroke-dasharray=""/><text fill="#505050" stroke="none" font-family="monospace" font-size="14px" font-style="normal" font-weight="normal" text-decoration="normal" x="758.1815185546875" y="261.1781196594238" text-anchor="end" dominant-baseline="text-after-edge">hi</text><path fill="white" stroke="#505050" paint-order="fill stroke markers" d=" M 617.7658081054688 220.4499740600586 L 658.7658081054688 220.4499740600586 L 666.7658081054688 229.4499740600586 L 658.7658081054688 238.4499740600586 L 617.7658081054688 238.4499740600586 L 617.7658081054688 220.4499740600586" stroke-miterlimit="10" stroke-width="0.5" stroke-dasharray=""/><path fill="none" stroke="none"/><path fill="none" stroke="#505050" paint-order="fill stroke markers" d=" M 617.7658081054688 224.4499740600586 L 625.7658081054688 224.4499740600586 L 625.7658081054688 232.4499740600586 L 617.7658081054688 232.4499740600586 L 617.7658081054688 224.4499740600586 Z" stroke-miterlimit="10" stroke-width="0.5" stroke-dasharray=""/><text fill="#505050" stroke="none" font-family="monospace" font-size="14px" font-style="normal" font-weight="normal" text-decoration="normal" x="633.7658081054688" y="238.4499740600586" text-anchor="start" dominant-baseline="text-after-edge">mid</text><path fill="white" stroke="#505050" paint-order="fill stroke markers" d=" M 507.73455810546875 217.8093490600586 L 599.7345581054688 217.8093490600586 L 599.7345581054688 247.8093490600586 L 507.73455810546875 247.8093490600586 L 507.73455810546875 217.8093490600586 Z" stroke-miterlimit="10" stroke-width="0.5" stroke-dasharray=""/><path fill="#F0F0F0" stroke="none" paint-order="stroke fill markers" d=""/><path fill="none" stroke="none"/><text fill="#505050" stroke="none" font-family="monospace" font-size="14px" font-style="normal" font-weight="normal" text-decoration="normal" x="553.7345581054688" y="235.8093490600586" text-anchor="middle" dominant-baseline="text-after-edge">Math.floor</text><path fill="none" stroke="#505050" paint-order="fill stroke markers" d=" M 507.73455810546875 235.8093490600586 L 515.7345581054688 235.8093490600586 L 515.7345581054688 243.8093490600586 L 507.73455810546875 243.8093490600586 L 507.73455810546875 235.8093490600586 Z" stroke-miterlimit="10" stroke-width="0.5" stroke-dasharray=""/><path fill="none" stroke="#505050" paint-order="fill stroke markers" d=" M 591.7345581054688 235.8093490600586 L 599.7345581054688 235.8093490600586 L 599.7345581054688 243.8093490600586 L 591.7345581054688 243.8093490600586 L 591.7345581054688 235.8093490600586 Z" stroke-miterlimit="10" stroke-width="0.5" stroke-dasharray=""/><path fill="white" stroke="#505050" paint-order="fill stroke markers" d=" M 467.81580352783203 217.50311660766602 L 491.81580352783203 217.50311660766602 L 491.81580352783203 259.503116607666 L 467.81580352783203 259.503116607666 L 467.81580352783203 217.50311660766602 Z" stroke-miterlimit="10" stroke-width="0.5" stroke-dasharray=""/><path fill="#F0F0F0" stroke="none" paint-order="stroke fill markers" d=""/><path fill="none" stroke="none"/><text fill="#505050" stroke="none" font-family="monospace" font-size="14px" font-style="normal" font-weight="normal" text-decoration="normal" x="479.81580352783203" y="235.50311660766602" text-anchor="middle" dominant-baseline="text-after-edge">/</text><path fill="none" stroke="#505050" paint-order="fill stroke markers" d=" M 467.81580352783203 235.50311660766602 L 475.81580352783203 235.50311660766602 L 475.81580352783203 243.50311660766602 L 467.81580352783203 243.50311660766602 L 467.81580352783203 235.50311660766602 Z" stroke-miterlimit="10" stroke-width="0.5" stroke-dasharray=""/><path fill="none" stroke="#505050" paint-order="fill stroke markers" d=" M 467.81580352783203 247.50311660766602 L 475.81580352783203 247.50311660766602 L 475.81580352783203 255.50311660766602 L 467.81580352783203 255.50311660766602 L 467.81580352783203 247.50311660766602 Z" stroke-miterlimit="10" stroke-width="0.5" stroke-dasharray=""/><path fill="none" stroke="#505050" paint-order="fill stroke markers" d=" M 483.81580352783203 235.50311660766602 L 491.81580352783203 235.50311660766602 L 491.81580352783203 243.50311660766602 L 483.81580352783203 243.50311660766602 L 483.81580352783203 235.50311660766602 Z" stroke-miterlimit="10" stroke-width="0.5" stroke-dasharray=""/><path fill="white" stroke="#505050" paint-order="fill stroke markers" d=" M 412.9439277648926 257.2250099182129 L 444.9439277648926 257.2250099182129 L 444.9439277648926 275.2250099182129 L 412.9439277648926 275.2250099182129 L 412.9439277648926 257.2250099182129 Z" stroke-miterlimit="10" stroke-width="0.5" stroke-dasharray=""/><path fill="#F0F0F0" stroke="none" paint-order="stroke fill markers" d=""/><path fill="none" stroke="none"/><path fill="none" stroke="#505050" paint-order="fill stroke markers" d=" M 436.9439277648926 261.2250099182129 L 444.9439277648926 261.2250099182129 L 444.9439277648926 269.2250099182129 L 436.9439277648926 269.2250099182129 L 436.9439277648926 261.2250099182129 Z" stroke-miterlimit="10" stroke-width="0.5" stroke-dasharray=""/><text fill="#505050" stroke="none" font-family="monospace" font-size="14px" font-style="normal" font-weight="normal" text-decoration="normal" x="428.9439277648926" y="275.2250099182129" text-anchor="end" dominant-baseline="text-after-edge">2</text><path fill="white" stroke="#505050" paint-order="fill stroke markers" d=" M 416.35333251953125 206.3500099182129 L 440.35333251953125 206.3500099182129 L 440.35333251953125 248.3500099182129 L 416.35333251953125 248.3500099182129 L 416.35333251953125 206.3500099182129 Z" stroke-miterlimit="10" stroke-width="0.5" stroke-dasharray=""/><path fill="#F0F0F0" stroke="none" paint-order="stroke fill markers" d=""/><path fill="none" stroke="none"/><text fill="#505050" stroke="none" font-family="monospace" font-size="14px" font-style="normal" font-weight="normal" text-decoration="normal" x="428.35333251953125" y="224.3500099182129" text-anchor="middle" dominant-baseline="text-after-edge">+</text><path fill="none" stroke="#505050" paint-order="fill stroke markers" d=" M 416.35333251953125 224.3500099182129 L 424.35333251953125 224.3500099182129 L 424.35333251953125 232.3500099182129 L 416.35333251953125 232.3500099182129 L 416.35333251953125 224.3500099182129 Z" stroke-miterlimit="10" stroke-width="0.5" stroke-dasharray=""/><path fill="none" stroke="#505050" paint-order="fill stroke markers" d=" M 416.35333251953125 236.3500099182129 L 424.35333251953125 236.3500099182129 L 424.35333251953125 244.3500099182129 L 416.35333251953125 244.3500099182129 L 416.35333251953125 236.3500099182129 Z" stroke-miterlimit="10" stroke-width="0.5" stroke-dasharray=""/><path fill="none" stroke="#505050" paint-order="fill stroke markers" d=" M 432.35333251953125 224.3500099182129 L 440.35333251953125 224.3500099182129 L 440.35333251953125 232.3500099182129 L 432.35333251953125 232.3500099182129 L 432.35333251953125 224.3500099182129 Z" stroke-miterlimit="10" stroke-width="0.5" stroke-dasharray=""/><path fill="white" stroke="#505050" paint-order="fill stroke markers" d=" M 357.4470977783203 288.7906074523926 L 398.4470977783203 288.7906074523926 L 398.4470977783203 306.7906074523926 L 357.4470977783203 306.7906074523926 L 365.4470977783203 297.7906074523926 L 357.4470977783203 288.7906074523926" stroke-miterlimit="10" stroke-width="0.5" stroke-dasharray=""/><path fill="none" stroke="none"/><path fill="none" stroke="#505050" paint-order="fill stroke markers" d=" M 390.4470977783203 292.7906074523926 L 398.4470977783203 292.7906074523926 L 398.4470977783203 300.7906074523926 L 390.4470977783203 300.7906074523926 L 390.4470977783203 292.7906074523926 Z" stroke-miterlimit="10" stroke-width="0.5" stroke-dasharray=""/><text fill="#505050" stroke="none" font-family="monospace" font-size="14px" font-style="normal" font-weight="normal" text-decoration="normal" x="382.4470977783203" y="306.7906074523926" text-anchor="end" dominant-baseline="text-after-edge">hi</text><path fill="white" stroke="#505050" paint-order="fill stroke markers" d=" M 355.8595886230469 191.71562576293945 L 396.8595886230469 191.71562576293945 L 396.8595886230469 209.71562576293945 L 355.8595886230469 209.71562576293945 L 363.8595886230469 200.71562576293945 L 355.8595886230469 191.71562576293945" stroke-miterlimit="10" stroke-width="0.5" stroke-dasharray=""/><path fill="none" stroke="none"/><path fill="none" stroke="#505050" paint-order="fill stroke markers" d=" M 388.8595886230469 195.71562576293945 L 396.8595886230469 195.71562576293945 L 396.8595886230469 203.71562576293945 L 388.8595886230469 203.71562576293945 L 388.8595886230469 195.71562576293945 Z" stroke-miterlimit="10" stroke-width="0.5" stroke-dasharray=""/><text fill="#505050" stroke="none" font-family="monospace" font-size="14px" font-style="normal" font-weight="normal" text-decoration="normal" x="380.8595886230469" y="209.71562576293945" text-anchor="end" dominant-baseline="text-after-edge">lo</text><path fill="white" stroke="#505050" paint-order="fill stroke markers" d=" M 620.5658264160156 190.9405975341797 L 653.5658264160156 190.9405975341797 L 661.5658264160156 199.9405975341797 L 653.5658264160156 208.9405975341797 L 620.5658264160156 208.9405975341797 L 620.5658264160156 190.9405975341797" stroke-miterlimit="10" stroke-width="0.5" stroke-dasharray=""/><path fill="none" stroke="none"/><path fill="none" stroke="#505050" paint-order="fill stroke markers" d=" M 620.5658264160156 194.9405975341797 L 628.5658264160156 194.9405975341797 L 628.5658264160156 202.9405975341797 L 620.5658264160156 202.9405975341797 L 620.5658264160156 194.9405975341797 Z" stroke-miterlimit="10" stroke-width="0.5" stroke-dasharray=""/><text fill="#505050" stroke="none" font-family="monospace" font-size="14px" font-style="normal" font-weight="normal" text-decoration="normal" x="636.5658264160156" y="208.9405975341797" text-anchor="start" dominant-baseline="text-after-edge">lo</text><path fill="white" stroke="#505050" paint-order="fill stroke markers" d=" M 623.1157836914062 288.99371337890625 L 656.1157836914062 288.99371337890625 L 664.1157836914062 297.99371337890625 L 656.1157836914062 306.99371337890625 L 623.1157836914062 306.99371337890625 L 623.1157836914062 288.99371337890625" stroke-miterlimit="10" stroke-width="0.5" stroke-dasharray=""/><path fill="none" stroke="none"/><path fill="none" stroke="#505050" paint-order="fill stroke markers" d=" M 623.1157836914062 292.99371337890625 L 631.1157836914062 292.99371337890625 L 631.1157836914062 300.99371337890625 L 623.1157836914062 300.99371337890625 L 623.1157836914062 292.99371337890625 Z" stroke-miterlimit="10" stroke-width="0.5" stroke-dasharray=""/><text fill="#505050" stroke="none" font-family="monospace" font-size="14px" font-style="normal" font-weight="normal" text-decoration="normal" x="639.1157836914062" y="306.99371337890625" text-anchor="start" dominant-baseline="text-after-edge">hi</text><path fill="white" stroke="#505050" paint-order="fill stroke markers" d=" M 624.7032775878906 252.70001220703125 L 649.7032775878906 252.70001220703125 L 649.7032775878906 282.70001220703125 L 624.7032775878906 282.70001220703125 L 624.7032775878906 252.70001220703125 Z" stroke-miterlimit="10" stroke-width="0.5" stroke-dasharray=""/><path fill="#F0F0F0" stroke="none" paint-order="stroke fill markers" d=""/><path fill="none" stroke="none"/><text fill="#505050" stroke="none" font-family="monospace" font-size="14px" font-style="normal" font-weight="normal" text-decoration="normal" x="637.2032775878906" y="270.70001220703125" text-anchor="middle" dominant-baseline="text-after-edge">+1</text><path fill="none" stroke="#505050" paint-order="fill stroke markers" d=" M 624.7032775878906 270.70001220703125 L 632.7032775878906 270.70001220703125 L 632.7032775878906 278.70001220703125 L 624.7032775878906 278.70001220703125 L 624.7032775878906 270.70001220703125 Z" stroke-miterlimit="10" stroke-width="0.5" stroke-dasharray=""/><path fill="none" stroke="#505050" paint-order="fill stroke markers" d=" M 641.7032775878906 270.70001220703125 L 649.7032775878906 270.70001220703125 L 649.7032775878906 278.70001220703125 L 641.7032775878906 278.70001220703125 L 641.7032775878906 270.70001220703125 Z" stroke-miterlimit="10" stroke-width="0.5" stroke-dasharray=""/><path fill="white" stroke="#505050" paint-order="fill stroke markers" d=" M 661.3189697265625 266.7124938964844 L 719.3189697265625 266.7124938964844 L 727.3189697265625 275.7124938964844 L 719.3189697265625 284.7124938964844 L 661.3189697265625 284.7124938964844 L 661.3189697265625 266.7124938964844" stroke-miterlimit="10" stroke-width="0.5" stroke-dasharray=""/><path fill="none" stroke="none"/><path fill="none" stroke="#505050" paint-order="fill stroke markers" d=" M 661.3189697265625 270.7124938964844 L 669.3189697265625 270.7124938964844 L 669.3189697265625 278.7124938964844 L 661.3189697265625 278.7124938964844 L 661.3189697265625 270.7124938964844 Z" stroke-miterlimit="10" stroke-width="0.5" stroke-dasharray=""/><text fill="#505050" stroke="none" font-family="monospace" font-size="14px" font-style="normal" font-weight="normal" text-decoration="normal" x="677.3189697265625" y="284.7124938964844" text-anchor="start" dominant-baseline="text-after-edge">mid+1</text><path fill="white" stroke="#505050" paint-order="fill stroke markers" d=" M 359.3986282348633 68.98480224609375 L 359.3986282348633 120.49701690673828 Q 359.3986282348633 128.49701690673828 367.3986282348633 128.49701690673828 L 465.6213150024414 128.49701690673828 Q 473.6213150024414 128.49701690673828 473.6213150024414 120.49701690673828 L 473.6213150024414 68.98480224609375 Q 473.6213150024414 60.98480224609375 465.6213150024414 60.98480224609375 L 367.3986282348633 60.98480224609375 Q 359.3986282348633 60.98480224609375 359.3986282348633 68.98480224609375" stroke-miterlimit="10" stroke-width="0.5" stroke-dasharray=""/><path fill="#F0F0F0" stroke="#505050" paint-order="fill stroke markers" d=" M 448.6213150024414 68.98480224609375 L 473.6213150024414 68.98480224609375 L 473.6213150024414 98.98480224609375 L 448.6213150024414 98.98480224609375 L 448.6213150024414 68.98480224609375 Z" stroke-miterlimit="10" stroke-width="0.5" stroke-dasharray=""/><path fill="none" stroke="none"/><text fill="#505050" stroke="none" font-family="monospace" font-size="14px" font-style="normal" font-weight="normal" text-decoration="normal" x="461.1213150024414" y="86.98480224609375" text-anchor="middle" dominant-baseline="text-after-edge">+1</text><path fill="none" stroke="#505050" paint-order="fill stroke markers" d=" M 448.6213150024414 86.98480224609375 L 456.6213150024414 86.98480224609375 L 456.6213150024414 94.98480224609375 L 448.6213150024414 94.98480224609375 L 448.6213150024414 86.98480224609375 Z" stroke-miterlimit="10" stroke-width="0.5" stroke-dasharray=""/><path fill="none" stroke="#505050" paint-order="fill stroke markers" d=" M 465.6213150024414 86.98480224609375 L 473.6213150024414 86.98480224609375 L 473.6213150024414 94.98480224609375 L 465.6213150024414 94.98480224609375 L 465.6213150024414 86.98480224609375 Z" stroke-miterlimit="10" stroke-width="0.5" stroke-dasharray=""/><path fill="none" stroke="#505050" paint-order="fill stroke markers" d=" M 410.1548843383789 90.56605529785156 L 402.1548843383789 90.56605529785156 M 434.1548843383789 90.56605529785156 L 442.1548843383789 90.56605529785156" stroke-miterlimit="10" stroke-dasharray=""/><path fill="white" stroke="#505050" paint-order="fill stroke markers" d=" M 410.1548843383789 68.56605529785156 L 434.1548843383789 68.56605529785156 L 434.1548843383789 110.56605529785156 L 410.1548843383789 110.56605529785156 L 410.1548843383789 68.56605529785156 Z" stroke-miterlimit="10" stroke-width="0.5" stroke-dasharray=""/><path fill="#F0F0F0" stroke="none" paint-order="stroke fill markers" d=""/><path fill="none" stroke="none"/><text fill="#505050" stroke="none" font-family="monospace" font-size="14px" font-style="normal" font-weight="normal" text-decoration="normal" x="422.1548843383789" y="86.56605529785156" text-anchor="middle" dominant-baseline="text-after-edge">+</text><path fill="none" stroke="#505050" paint-order="fill stroke markers" d=" M 410.1548843383789 86.56605529785156 L 418.1548843383789 86.56605529785156 L 418.1548843383789 94.56605529785156 L 410.1548843383789 94.56605529785156 L 410.1548843383789 86.56605529785156 Z" stroke-miterlimit="10" stroke-width="0.5" stroke-dasharray=""/><path fill="none" stroke="#505050" paint-order="fill stroke markers" d=" M 410.1548843383789 98.56605529785156 L 418.1548843383789 98.56605529785156 L 418.1548843383789 106.56605529785156 L 410.1548843383789 106.56605529785156 L 410.1548843383789 98.56605529785156 Z" stroke-miterlimit="10" stroke-width="0.5" stroke-dasharray=""/><path fill="none" stroke="#505050" paint-order="fill stroke markers" d=" M 426.1548843383789 86.56605529785156 L 434.1548843383789 86.56605529785156 L 434.1548843383789 94.56605529785156 L 426.1548843383789 94.56605529785156 L 426.1548843383789 86.56605529785156 Z" stroke-miterlimit="10" stroke-width="0.5" stroke-dasharray=""/><path fill="white" stroke="#505050" paint-order="fill stroke markers" d=" M 365.4029006958008 94.49701690673828 L 397.4029006958008 94.49701690673828 L 397.4029006958008 112.49701690673828 L 365.4029006958008 112.49701690673828 L 365.4029006958008 94.49701690673828 Z" stroke-miterlimit="10" stroke-width="0.5" stroke-dasharray=""/><path fill="#F0F0F0" stroke="none" paint-order="stroke fill markers" d=""/><path fill="none" stroke="none"/><path fill="none" stroke="#505050" paint-order="fill stroke markers" d=" M 389.4029006958008 98.49701690673828 L 397.4029006958008 98.49701690673828 L 397.4029006958008 106.49701690673828 L 389.4029006958008 106.49701690673828 L 389.4029006958008 98.49701690673828 Z" stroke-miterlimit="10" stroke-width="0.5" stroke-dasharray=""/><text fill="#505050" stroke="none" font-family="monospace" font-size="14px" font-style="normal" font-weight="normal" text-decoration="normal" x="381.4029006958008" y="112.49701690673828" text-anchor="end" dominant-baseline="text-after-edge">1</text><path fill="white" stroke="#505050" paint-order="fill stroke markers" d=" M 512.2034819126129 25.915054321289062 L 512.2034819126129 154.6025848388672 Q 512.2034819126129 162.6025848388672 520.2034819126129 162.6025848388672 L 643.4940550327301 162.6025848388672 Q 651.4940550327301 162.6025848388672 651.4940550327301 154.6025848388672 L 651.4940550327301 25.915054321289062 Q 651.4940550327301 17.915054321289062 643.4940550327301 17.915054321289062 L 520.2034819126129 17.915054321289062 Q 512.2034819126129 17.915054321289062 512.2034819126129 25.915054321289062" stroke-miterlimit="10" stroke-width="0.5" stroke-dasharray=""/><path fill="#F0F0F0" stroke="#505050" paint-order="fill stroke markers" d=" M 626.4940550327301 25.915054321289062 L 651.4940550327301 25.915054321289062 L 651.4940550327301 103.91505432128906 L 626.4940550327301 103.91505432128906 L 626.4940550327301 25.915054321289062 Z" stroke-miterlimit="10" stroke-width="0.5" stroke-dasharray=""/><path fill="none" stroke="none"/><text fill="#505050" stroke="none" font-family="monospace" font-size="14px" font-style="normal" font-weight="normal" text-decoration="normal" x="638.9940550327301" y="43.91505432128906" text-anchor="middle" dominant-baseline="text-after-edge">??</text><path fill="none" stroke="#505050" paint-order="fill stroke markers" d=" M 626.4940550327301 43.91505432128906 L 634.4940550327301 43.91505432128906 L 634.4940550327301 51.91505432128906 L 626.4940550327301 51.91505432128906 L 626.4940550327301 43.91505432128906 Z" stroke-miterlimit="10" stroke-width="0.5" stroke-dasharray=""/><path fill="none" stroke="#505050" paint-order="fill stroke markers" d=" M 626.4940550327301 55.91505432128906 L 634.4940550327301 55.91505432128906 L 634.4940550327301 63.91505432128906 L 626.4940550327301 63.91505432128906 L 626.4940550327301 55.91505432128906 Z" stroke-miterlimit="10" stroke-width="0.5" stroke-dasharray=""/><path fill="none" stroke="#505050" paint-order="fill stroke markers" d=" M 626.4940550327301 67.91505432128906 L 634.4940550327301 67.91505432128906 L 634.4940550327301 75.91505432128906 L 626.4940550327301 75.91505432128906 L 626.4940550327301 67.91505432128906 Z" stroke-miterlimit="10" stroke-width="0.5" stroke-dasharray=""/><path fill="none" stroke="#505050" paint-order="fill stroke markers" d=" M 626.4940550327301 79.91505432128906 L 634.4940550327301 79.91505432128906 L 634.4940550327301 87.91505432128906 L 626.4940550327301 87.91505432128906 L 626.4940550327301 79.91505432128906 Z" stroke-miterlimit="10" stroke-width="0.5" stroke-dasharray=""/><path fill="none" stroke="#505050" paint-order="fill stroke markers" d=" M 626.4940550327301 91.91505432128906 L 634.4940550327301 91.91505432128906 L 634.4940550327301 99.91505432128906 L 626.4940550327301 99.91505432128906 L 626.4940550327301 91.91505432128906 Z" stroke-miterlimit="10" stroke-width="0.5" stroke-dasharray=""/><path fill="none" stroke="#505050" paint-order="fill stroke markers" d=" M 643.4940550327301 43.91505432128906 L 651.4940550327301 43.91505432128906 L 651.4940550327301 51.91505432128906 L 643.4940550327301 51.91505432128906 L 643.4940550327301 43.91505432128906 Z" stroke-miterlimit="10" stroke-width="0.5" stroke-dasharray=""/><path fill="none" stroke="#505050" paint-order="fill stroke markers" d=" M 643.4940550327301 55.91505432128906 L 651.4940550327301 55.91505432128906 L 651.4940550327301 63.91505432128906 L 643.4940550327301 63.91505432128906 L 643.4940550327301 55.91505432128906 Z" stroke-miterlimit="10" stroke-width="0.5" stroke-dasharray=""/><path fill="none" stroke="#505050" paint-order="fill stroke markers" d=" M 560.5222227573395 59.91505432128906 L 552.5222227573395 59.91505432128906 M 560.5222227573395 71.91505432128906 L 552.5222227573395 71.91505432128906 M 560.4159605503082 119.98695373535156 L 552.4159605503082 119.98695373535156 M 560.4159605503082 131.98695373535156 L 552.4159605503082 131.98695373535156 M 584.5222227573395 47.91505432128906 L 592.5222227573395 47.91505432128906 M 584.4159605503082 107.98695373535156 L 592.4159605503082 107.98695373535156" stroke-miterlimit="10" stroke-dasharray=""/><path fill="white" stroke="#505050" paint-order="fill stroke markers" d=" M 560.4159605503082 85.98695373535156 L 584.4159605503082 85.98695373535156 L 584.4159605503082 139.98695373535156 L 560.4159605503082 139.98695373535156 L 560.4159605503082 85.98695373535156 Z" stroke-miterlimit="10" stroke-width="0.5" stroke-dasharray=""/><path fill="#F0F0F0" stroke="none" paint-order="stroke fill markers" d=""/><path fill="none" stroke="none"/><text fill="#505050" stroke="none" font-family="monospace" font-size="14px" font-style="normal" font-weight="normal" text-decoration="normal" x="572.4159605503082" y="103.98695373535156" text-anchor="middle" dominant-baseline="text-after-edge">?</text><path fill="none" stroke="#505050" paint-order="fill stroke markers" d=" M 560.4159605503082 103.98695373535156 L 568.4159605503082 103.98695373535156 L 568.4159605503082 111.98695373535156 L 560.4159605503082 111.98695373535156 L 560.4159605503082 103.98695373535156 Z" stroke-miterlimit="10" stroke-width="0.5" stroke-dasharray=""/><path fill="none" stroke="#505050" paint-order="fill stroke markers" d=" M 560.4159605503082 115.98695373535156 L 568.4159605503082 115.98695373535156 L 568.4159605503082 123.98695373535156 L 560.4159605503082 123.98695373535156 L 560.4159605503082 115.98695373535156 Z" stroke-miterlimit="10" stroke-width="0.5" stroke-dasharray=""/><path fill="none" stroke="#505050" paint-order="fill stroke markers" d=" M 560.4159605503082 127.98695373535156 L 568.4159605503082 127.98695373535156 L 568.4159605503082 135.98695373535156 L 560.4159605503082 135.98695373535156 L 560.4159605503082 127.98695373535156 Z" stroke-miterlimit="10" stroke-width="0.5" stroke-dasharray=""/><path fill="none" stroke="#505050" paint-order="fill stroke markers" d=" M 576.4159605503082 103.98695373535156 L 584.4159605503082 103.98695373535156 L 584.4159605503082 111.98695373535156 L 576.4159605503082 111.98695373535156 L 576.4159605503082 103.98695373535156 Z" stroke-miterlimit="10" stroke-width="0.5" stroke-dasharray=""/><path fill="white" stroke="#505050" paint-order="fill stroke markers" d=" M 520.2034819126129 31.71192169189453 L 536.2034819126129 31.71192169189453 L 536.2034819126129 47.71192169189453 L 520.2034819126129 47.71192169189453 L 528.2034819126129 39.71192169189453 L 520.2034819126129 31.71192169189453" stroke-miterlimit="10" stroke-width="0.5" stroke-dasharray=""/><path fill="none" stroke="none"/><path fill="none" stroke="#505050" paint-order="fill stroke markers" d=" M 528.2034819126129 35.71192169189453 L 536.2034819126129 35.71192169189453 L 536.2034819126129 43.71192169189453 L 528.2034819126129 43.71192169189453 L 528.2034819126129 35.71192169189453 Z" stroke-miterlimit="10" stroke-width="0.5" stroke-dasharray=""/><path fill="white" stroke="#505050" paint-order="fill stroke markers" d=" M 560.5222227573395 25.915054321289062 L 584.5222227573395 25.915054321289062 L 584.5222227573395 79.91505432128906 L 560.5222227573395 79.91505432128906 L 560.5222227573395 25.915054321289062 Z" stroke-miterlimit="10" stroke-width="0.5" stroke-dasharray=""/><path fill="#F0F0F0" stroke="none" paint-order="stroke fill markers" d=""/><path fill="none" stroke="none"/><text fill="#505050" stroke="none" font-family="monospace" font-size="14px" font-style="normal" font-weight="normal" text-decoration="normal" x="572.5222227573395" y="43.91505432128906" text-anchor="middle" dominant-baseline="text-after-edge">?</text><path fill="none" stroke="#505050" paint-order="fill stroke markers" d=" M 560.5222227573395 43.91505432128906 L 568.5222227573395 43.91505432128906 L 568.5222227573395 51.91505432128906 L 560.5222227573395 51.91505432128906 L 560.5222227573395 43.91505432128906 Z" stroke-miterlimit="10" stroke-width="0.5" stroke-dasharray=""/><path fill="none" stroke="#505050" paint-order="fill stroke markers" d=" M 560.5222227573395 55.91505432128906 L 568.5222227573395 55.91505432128906 L 568.5222227573395 63.91505432128906 L 560.5222227573395 63.91505432128906 L 560.5222227573395 55.91505432128906 Z" stroke-miterlimit="10" stroke-width="0.5" stroke-dasharray=""/><path fill="none" stroke="#505050" paint-order="fill stroke markers" d=" M 560.5222227573395 67.91505432128906 L 568.5222227573395 67.91505432128906 L 568.5222227573395 75.91505432128906 L 560.5222227573395 75.91505432128906 L 560.5222227573395 67.91505432128906 Z" stroke-miterlimit="10" stroke-width="0.5" stroke-dasharray=""/><path fill="none" stroke="#505050" paint-order="fill stroke markers" d=" M 576.5222227573395 43.91505432128906 L 584.5222227573395 43.91505432128906 L 584.5222227573395 51.91505432128906 L 576.5222227573395 51.91505432128906 L 576.5222227573395 43.91505432128906 Z" stroke-miterlimit="10" stroke-width="0.5" stroke-dasharray=""/><path fill="white" stroke="#505050" paint-order="fill stroke markers" d=" M 266.8414993286133 348.85626220703125 L 266.8414993286133 657.270133972168 Q 266.8414993286133 665.270133972168 274.8414993286133 665.270133972168 L 1073.160338640213 665.270133972168 Q 1081.160338640213 665.270133972168 1081.160338640213 657.270133972168 L 1081.160338640213 348.85626220703125 Q 1081.160338640213 340.85626220703125 1073.160338640213 340.85626220703125 L 274.8414993286133 340.85626220703125 Q 266.8414993286133 340.85626220703125 266.8414993286133 348.85626220703125" stroke-miterlimit="10" stroke-width="0.5" stroke-dasharray=""/><path fill="#F0F0F0" stroke="#505050" paint-order="fill stroke markers" d=" M 942.160338640213 348.85626220703125 L 1081.160338640213 348.85626220703125 L 1081.160338640213 402.85626220703125 L 942.160338640213 402.85626220703125 L 942.160338640213 348.85626220703125 Z" stroke-miterlimit="10" stroke-width="0.5" stroke-dasharray=""/><path fill="none" stroke="none"/><path fill="none" stroke="#505050" paint-order="fill stroke markers" d=" M 942.160338640213 352.85626220703125 L 966.160338640213 352.85626220703125 L 966.160338640213 368.85626220703125 L 942.160338640213 368.85626220703125 L 942.160338640213 352.85626220703125 Z" stroke-miterlimit="10" stroke-width="0.5" stroke-dasharray=""/><path fill="none" stroke="none"/><path fill="none" stroke="#505050" paint-order="fill stroke markers" d=" M 942.160338640213 356.85626220703125 L 950.160338640213 356.85626220703125 L 950.160338640213 364.85626220703125 L 942.160338640213 364.85626220703125 L 942.160338640213 356.85626220703125 Z" stroke-miterlimit="10" stroke-width="0.5" stroke-dasharray=""/><path fill="none" stroke="#505050" paint-order="fill stroke markers" d=" M 958.160338640213 356.85626220703125 L 966.160338640213 356.85626220703125 L 966.160338640213 364.85626220703125 L 958.160338640213 364.85626220703125 L 958.160338640213 356.85626220703125 Z" stroke-miterlimit="10" stroke-width="0.5" stroke-dasharray=""/><text fill="#505050" stroke="none" font-family="monospace" font-size="14px" font-style="normal" font-weight="normal" text-decoration="normal" x="974.160338640213" y="369.85626220703125" text-anchor="start" dominant-baseline="text-after-edge">[i]</text><path fill="none" stroke="#505050" paint-order="fill stroke markers" d=" M 942.160338640213 372.85626220703125 L 950.160338640213 372.85626220703125 L 950.160338640213 380.85626220703125 L 942.160338640213 380.85626220703125 L 942.160338640213 372.85626220703125 Z" stroke-miterlimit="10" stroke-width="0.5" stroke-dasharray=""/><text fill="#505050" stroke="none" font-family="monospace" font-size="14px" font-style="normal" font-weight="normal" text-decoration="normal" x="958.160338640213" y="386.85626220703125" text-anchor="start" dominant-baseline="text-after-edge">t</text><path fill="none" stroke="#505050" paint-order="fill stroke markers" d=" M 1007.160338640213 352.85626220703125 L 1081.160338640213 352.85626220703125 L 1081.160338640213 398.85626220703125 L 1007.160338640213 398.85626220703125 L 1007.160338640213 352.85626220703125 Z" stroke-miterlimit="10" stroke-width="0.5" stroke-dasharray=""/><path fill="none" stroke="none"/><text fill="#505050" stroke="none" font-family="monospace" font-size="14px" font-style="normal" font-weight="normal" text-decoration="normal" x="1044.160338640213" y="370.85626220703125" text-anchor="middle" dominant-baseline="text-after-edge">search</text><path fill="none" stroke="#505050" paint-order="fill stroke markers" d=" M 1007.160338640213 370.85626220703125 L 1015.160338640213 370.85626220703125 L 1015.160338640213 378.85626220703125 L 1007.160338640213 378.85626220703125 L 1007.160338640213 370.85626220703125 Z" stroke-miterlimit="10" stroke-width="0.5" stroke-dasharray=""/><text fill="#505050" stroke="none" font-family="monospace" font-size="14px" font-style="normal" font-weight="normal" text-decoration="normal" x="1023.160338640213" y="384.85626220703125" text-anchor="start" dominant-baseline="text-after-edge">lo</text><path fill="none" stroke="#505050" paint-order="fill stroke markers" d=" M 1007.160338640213 384.85626220703125 L 1015.160338640213 384.85626220703125 L 1015.160338640213 392.85626220703125 L 1007.160338640213 392.85626220703125 L 1007.160338640213 384.85626220703125 Z" stroke-miterlimit="10" stroke-width="0.5" stroke-dasharray=""/><text fill="#505050" stroke="none" font-family="monospace" font-size="14px" font-style="normal" font-weight="normal" text-decoration="normal" x="1023.160338640213" y="398.85626220703125" text-anchor="start" dominant-baseline="text-after-edge">hi</text><path fill="none" stroke="#505050" paint-order="fill stroke markers" d=" M 1073.160338640213 370.85626220703125 L 1081.160338640213 370.85626220703125 L 1081.160338640213 378.85626220703125 L 1073.160338640213 378.85626220703125 L 1073.160338640213 370.85626220703125 Z" stroke-miterlimit="10" stroke-width="0.5" stroke-dasharray=""/><text fill="#505050" stroke="none" font-family="monospace" font-size="14px" font-style="normal" font-weight="normal" text-decoration="normal" x="1065.160338640213" y="384.85626220703125" text-anchor="end" dominant-baseline="text-after-edge">lo</text><path fill="none" stroke="#505050" paint-order="fill stroke markers" d=" M 1073.160338640213 384.85626220703125 L 1081.160338640213 384.85626220703125 L 1081.160338640213 392.85626220703125 L 1073.160338640213 392.85626220703125 L 1073.160338640213 384.85626220703125 Z" stroke-miterlimit="10" stroke-width="0.5" stroke-dasharray=""/><text fill="#505050" stroke="none" font-family="monospace" font-size="14px" font-style="normal" font-weight="normal" text-decoration="normal" x="1065.160338640213" y="398.85626220703125" text-anchor="end" dominant-baseline="text-after-edge">hi</text><path fill="none" stroke="#505050" paint-order="fill stroke markers" d="" stroke-miterlimit="10" stroke-dasharray=""/><path fill="white" stroke="#505050" paint-order="fill stroke markers" d=" M 340.7780567109585 356.85626220703125 L 340.7780567109585 641.270133972168 Q 340.7780567109585 649.270133972168 348.7780567109585 649.270133972168 L 891.2472832202911 649.270133972168 Q 899.2472832202911 649.270133972168 899.2472832202911 641.270133972168 L 899.2472832202911 356.85626220703125 Q 899.2472832202911 348.85626220703125 891.2472832202911 348.85626220703125 L 348.7780567109585 348.85626220703125 Q 340.7780567109585 348.85626220703125 340.7780567109585 356.85626220703125" stroke-miterlimit="10" stroke-width="0.5" stroke-dasharray=""/><path fill="#F0F0F0" stroke="#505050" paint-order="fill stroke markers" d=" M 825.2472832202911 356.85626220703125 L 899.2472832202911 356.85626220703125 L 899.2472832202911 402.85626220703125 L 825.2472832202911 402.85626220703125 L 825.2472832202911 356.85626220703125 Z" stroke-miterlimit="10" stroke-width="0.5" stroke-dasharray=""/><path fill="none" stroke="none"/><text fill="#505050" stroke="none" font-family="monospace" font-size="14px" font-style="normal" font-weight="normal" text-decoration="normal" x="862.2472832202911" y="374.85626220703125" text-anchor="middle" dominant-baseline="text-after-edge">search</text><path fill="none" stroke="#505050" paint-order="fill stroke markers" d=" M 825.2472832202911 374.85626220703125 L 833.2472832202911 374.85626220703125 L 833.2472832202911 382.85626220703125 L 825.2472832202911 382.85626220703125 L 825.2472832202911 374.85626220703125 Z" stroke-miterlimit="10" stroke-width="0.5" stroke-dasharray=""/><text fill="#505050" stroke="none" font-family="monospace" font-size="14px" font-style="normal" font-weight="normal" text-decoration="normal" x="841.2472832202911" y="388.85626220703125" text-anchor="start" dominant-baseline="text-after-edge">lo</text><path fill="none" stroke="#505050" paint-order="fill stroke markers" d=" M 825.2472832202911 388.85626220703125 L 833.2472832202911 388.85626220703125 L 833.2472832202911 396.85626220703125 L 825.2472832202911 396.85626220703125 L 825.2472832202911 388.85626220703125 Z" stroke-miterlimit="10" stroke-width="0.5" stroke-dasharray=""/><text fill="#505050" stroke="none" font-family="monospace" font-size="14px" font-style="normal" font-weight="normal" text-decoration="normal" x="841.2472832202911" y="402.85626220703125" text-anchor="start" dominant-baseline="text-after-edge">hi</text><path fill="none" stroke="#505050" paint-order="fill stroke markers" d=" M 891.2472832202911 374.85626220703125 L 899.2472832202911 374.85626220703125 L 899.2472832202911 382.85626220703125 L 891.2472832202911 382.85626220703125 L 891.2472832202911 374.85626220703125 Z" stroke-miterlimit="10" stroke-width="0.5" stroke-dasharray=""/><text fill="#505050" stroke="none" font-family="monospace" font-size="14px" font-style="normal" font-weight="normal" text-decoration="normal" x="883.2472832202911" y="388.85626220703125" text-anchor="end" dominant-baseline="text-after-edge">lo</text><path fill="none" stroke="#505050" paint-order="fill stroke markers" d=" M 891.2472832202911 388.85626220703125 L 899.2472832202911 388.85626220703125 L 899.2472832202911 396.85626220703125 L 891.2472832202911 396.85626220703125 L 891.2472832202911 388.85626220703125 Z" stroke-miterlimit="10" stroke-width="0.5" stroke-dasharray=""/><text fill="#505050" stroke="none" font-family="monospace" font-size="14px" font-style="normal" font-weight="normal" text-decoration="normal" x="883.2472832202911" y="402.85626220703125" text-anchor="end" dominant-baseline="text-after-edge">hi</text><path fill="white" stroke="#505050" paint-order="fill stroke markers" d=" M 366.7042346894741 550.5618324279785 L 407.7042346894741 550.5618324279785 L 407.7042346894741 568.5618324279785 L 366.7042346894741 568.5618324279785 L 374.7042346894741 559.5618324279785 L 366.7042346894741 550.5618324279785" stroke-miterlimit="10" stroke-width="0.5" stroke-dasharray=""/><path fill="none" stroke="none"/><path fill="none" stroke="#505050" paint-order="fill stroke markers" d=" M 399.7042346894741 554.5618324279785 L 407.7042346894741 554.5618324279785 L 407.7042346894741 562.5618324279785 L 399.7042346894741 562.5618324279785 L 399.7042346894741 554.5618324279785 Z" stroke-miterlimit="10" stroke-width="0.5" stroke-dasharray=""/><text fill="#505050" stroke="none" font-family="monospace" font-size="14px" font-style="normal" font-weight="normal" text-decoration="normal" x="391.7042346894741" y="568.5618324279785" text-anchor="end" dominant-baseline="text-after-edge">hi</text><path fill="white" stroke="#505050" paint-order="fill stroke markers" d=" M 652.0555572509766 515.3934860229492 L 677.0555572509766 515.3934860229492 L 677.0555572509766 557.3934860229492 L 652.0555572509766 557.3934860229492 L 652.0555572509766 515.3934860229492 Z" stroke-miterlimit="10" stroke-width="0.5" stroke-dasharray=""/><path fill="#F0F0F0" stroke="none" paint-order="stroke fill markers" d=""/><path fill="none" stroke="none"/><text fill="#505050" stroke="none" font-family="monospace" font-size="14px" font-style="normal" font-weight="normal" text-decoration="normal" x="664.5555572509766" y="533.3934860229492" text-anchor="middle" dominant-baseline="text-after-edge">&gt;=</text><path fill="none" stroke="#505050" paint-order="fill stroke markers" d=" M 652.0555572509766 533.3934860229492 L 660.0555572509766 533.3934860229492 L 660.0555572509766 541.3934860229492 L 652.0555572509766 541.3934860229492 L 652.0555572509766 533.3934860229492 Z" stroke-miterlimit="10" stroke-width="0.5" stroke-dasharray=""/><path fill="none" stroke="#505050" paint-order="fill stroke markers" d=" M 652.0555572509766 545.3934860229492 L 660.0555572509766 545.3934860229492 L 660.0555572509766 553.3934860229492 L 652.0555572509766 553.3934860229492 L 652.0555572509766 545.3934860229492 Z" stroke-miterlimit="10" stroke-width="0.5" stroke-dasharray=""/><path fill="none" stroke="#505050" paint-order="fill stroke markers" d=" M 669.0555572509766 533.3934860229492 L 677.0555572509766 533.3934860229492 L 677.0555572509766 541.3934860229492 L 669.0555572509766 541.3934860229492 L 669.0555572509766 533.3934860229492 Z" stroke-miterlimit="10" stroke-width="0.5" stroke-dasharray=""/><path fill="white" stroke="#505050" paint-order="fill stroke markers" d=" M 362.65474247932434 522.4848251342773 L 403.65474247932434 522.4848251342773 L 403.65474247932434 540.4848251342773 L 362.65474247932434 540.4848251342773 L 370.65474247932434 531.4848251342773 L 362.65474247932434 522.4848251342773" stroke-miterlimit="10" stroke-width="0.5" stroke-dasharray=""/><path fill="none" stroke="none"/><path fill="none" stroke="#505050" paint-order="fill stroke markers" d=" M 395.65474247932434 526.4848251342773 L 403.65474247932434 526.4848251342773 L 403.65474247932434 534.4848251342773 L 395.65474247932434 534.4848251342773 L 395.65474247932434 526.4848251342773 Z" stroke-miterlimit="10" stroke-width="0.5" stroke-dasharray=""/><text fill="#505050" stroke="none" font-family="monospace" font-size="14px" font-style="normal" font-weight="normal" text-decoration="normal" x="387.65474247932434" y="540.4848251342773" text-anchor="end" dominant-baseline="text-after-edge">lo</text><path fill="white" stroke="#505050" paint-order="fill stroke markers" d=" M 759.1164238452911 545.5302410125732 L 792.1164238452911 545.5302410125732 L 800.1164238452911 554.5302410125732 L 792.1164238452911 563.5302410125732 L 759.1164238452911 563.5302410125732 L 759.1164238452911 545.5302410125732" stroke-miterlimit="10" stroke-width="0.5" stroke-dasharray=""/><path fill="none" stroke="none"/><path fill="none" stroke="#505050" paint-order="fill stroke markers" d=" M 759.1164238452911 549.5302410125732 L 767.1164238452911 549.5302410125732 L 767.1164238452911 557.5302410125732 L 759.1164238452911 557.5302410125732 L 759.1164238452911 549.5302410125732 Z" stroke-miterlimit="10" stroke-width="0.5" stroke-dasharray=""/><text fill="#505050" stroke="none" font-family="monospace" font-size="14px" font-style="normal" font-weight="normal" text-decoration="normal" x="775.1164238452911" y="563.5302410125732" text-anchor="start" dominant-baseline="text-after-edge">lo</text><path fill="white" stroke="#505050" paint-order="fill stroke markers" d=" M 758.8945372104645 568.5583572387695 L 791.8945372104645 568.5583572387695 L 799.8945372104645 577.5583572387695 L 791.8945372104645 586.5583572387695 L 758.8945372104645 586.5583572387695 L 758.8945372104645 568.5583572387695" stroke-miterlimit="10" stroke-width="0.5" stroke-dasharray=""/><path fill="none" stroke="none"/><path fill="none" stroke="#505050" paint-order="fill stroke markers" d=" M 758.8945372104645 572.5583572387695 L 766.8945372104645 572.5583572387695 L 766.8945372104645 580.5583572387695 L 758.8945372104645 580.5583572387695 L 758.8945372104645 572.5583572387695 Z" stroke-miterlimit="10" stroke-width="0.5" stroke-dasharray=""/><text fill="#505050" stroke="none" font-family="monospace" font-size="14px" font-style="normal" font-weight="normal" text-decoration="normal" x="774.8945372104645" y="586.5583572387695" text-anchor="start" dominant-baseline="text-after-edge">hi</text><path fill="white" stroke="#505050" paint-order="fill stroke markers" d=" M 719.2599639892578 537.9927749633789 L 744.2599639892578 537.9927749633789 L 744.2599639892578 615.9927749633789 L 719.2599639892578 615.9927749633789 L 719.2599639892578 537.9927749633789 Z" stroke-miterlimit="10" stroke-width="0.5" stroke-dasharray=""/><path fill="#F0F0F0" stroke="none" paint-order="stroke fill markers" d=""/><path fill="none" stroke="none"/><text fill="#505050" stroke="none" font-family="monospace" font-size="14px" font-style="normal" font-weight="normal" text-decoration="normal" x="731.7599639892578" y="555.9927749633789" text-anchor="middle" dominant-baseline="text-after-edge">??</text><path fill="none" stroke="#505050" paint-order="fill stroke markers" d=" M 719.2599639892578 555.9927749633789 L 727.2599639892578 555.9927749633789 L 727.2599639892578 563.9927749633789 L 719.2599639892578 563.9927749633789 L 719.2599639892578 555.9927749633789 Z" stroke-miterlimit="10" stroke-width="0.5" stroke-dasharray=""/><path fill="none" stroke="#505050" paint-order="fill stroke markers" d=" M 719.2599639892578 567.9927749633789 L 727.2599639892578 567.9927749633789 L 727.2599639892578 575.9927749633789 L 719.2599639892578 575.9927749633789 L 719.2599639892578 567.9927749633789 Z" stroke-miterlimit="10" stroke-width="0.5" stroke-dasharray=""/><path fill="none" stroke="#505050" paint-order="fill stroke markers" d=" M 719.2599639892578 579.9927749633789 L 727.2599639892578 579.9927749633789 L 727.2599639892578 587.9927749633789 L 719.2599639892578 587.9927749633789 L 719.2599639892578 579.9927749633789 Z" stroke-miterlimit="10" stroke-width="0.5" stroke-dasharray=""/><path fill="none" stroke="#505050" paint-order="fill stroke markers" d=" M 719.2599639892578 591.9927749633789 L 727.2599639892578 591.9927749633789 L 727.2599639892578 599.9927749633789 L 719.2599639892578 599.9927749633789 L 719.2599639892578 591.9927749633789 Z" stroke-miterlimit="10" stroke-width="0.5" stroke-dasharray=""/><path fill="none" stroke="#505050" paint-order="fill stroke markers" d=" M 719.2599639892578 603.9927749633789 L 727.2599639892578 603.9927749633789 L 727.2599639892578 611.9927749633789 L 719.2599639892578 611.9927749633789 L 719.2599639892578 603.9927749633789 Z" stroke-miterlimit="10" stroke-width="0.5" stroke-dasharray=""/><path fill="none" stroke="#505050" paint-order="fill stroke markers" d=" M 736.2599639892578 555.9927749633789 L 744.2599639892578 555.9927749633789 L 744.2599639892578 563.9927749633789 L 736.2599639892578 563.9927749633789 L 736.2599639892578 555.9927749633789 Z" stroke-miterlimit="10" stroke-width="0.5" stroke-dasharray=""/><path fill="none" stroke="#505050" paint-order="fill stroke markers" d=" M 736.2599639892578 567.9927749633789 L 744.2599639892578 567.9927749633789 L 744.2599639892578 575.9927749633789 L 736.2599639892578 575.9927749633789 L 736.2599639892578 567.9927749633789 Z" stroke-miterlimit="10" stroke-width="0.5" stroke-dasharray=""/><path fill="white" stroke="#505050" paint-order="fill stroke markers" d=" M 589.0757217407227 585.2033920288086 L 663.0757217407227 585.2033920288086 L 663.0757217407227 631.2033920288086 L 589.0757217407227 631.2033920288086 L 589.0757217407227 585.2033920288086 Z" stroke-miterlimit="10" stroke-width="0.5" stroke-dasharray=""/><path fill="#F0F0F0" stroke="none" paint-order="stroke fill markers" d=""/><path fill="none" stroke="none"/><text fill="#505050" stroke="none" font-family="monospace" font-size="14px" font-style="normal" font-weight="normal" text-decoration="normal" x="626.0757217407227" y="603.2033920288086" text-anchor="middle" dominant-baseline="text-after-edge">search</text><path fill="none" stroke="#505050" paint-order="fill stroke markers" d=" M 589.0757217407227 603.2033920288086 L 597.0757217407227 603.2033920288086 L 597.0757217407227 611.2033920288086 L 589.0757217407227 611.2033920288086 L 589.0757217407227 603.2033920288086 Z" stroke-miterlimit="10" stroke-width="0.5" stroke-dasharray=""/><text fill="#505050" stroke="none" font-family="monospace" font-size="14px" font-style="normal" font-weight="normal" text-decoration="normal" x="605.0757217407227" y="617.2033920288086" text-anchor="start" dominant-baseline="text-after-edge">lo</text><path fill="none" stroke="#505050" paint-order="fill stroke markers" d=" M 589.0757217407227 617.2033920288086 L 597.0757217407227 617.2033920288086 L 597.0757217407227 625.2033920288086 L 589.0757217407227 625.2033920288086 L 589.0757217407227 617.2033920288086 Z" stroke-miterlimit="10" stroke-width="0.5" stroke-dasharray=""/><text fill="#505050" stroke="none" font-family="monospace" font-size="14px" font-style="normal" font-weight="normal" text-decoration="normal" x="605.0757217407227" y="631.2033920288086" text-anchor="start" dominant-baseline="text-after-edge">hi</text><path fill="none" stroke="#505050" paint-order="fill stroke markers" d=" M 655.0757217407227 603.2033920288086 L 663.0757217407227 603.2033920288086 L 663.0757217407227 611.2033920288086 L 655.0757217407227 611.2033920288086 L 655.0757217407227 603.2033920288086 Z" stroke-miterlimit="10" stroke-width="0.5" stroke-dasharray=""/><text fill="#505050" stroke="none" font-family="monospace" font-size="14px" font-style="normal" font-weight="normal" text-decoration="normal" x="647.0757217407227" y="617.2033920288086" text-anchor="end" dominant-baseline="text-after-edge">lo</text><path fill="none" stroke="#505050" paint-order="fill stroke markers" d=" M 655.0757217407227 617.2033920288086 L 663.0757217407227 617.2033920288086 L 663.0757217407227 625.2033920288086 L 655.0757217407227 625.2033920288086 L 655.0757217407227 617.2033920288086 Z" stroke-miterlimit="10" stroke-width="0.5" stroke-dasharray=""/><text fill="#505050" stroke="none" font-family="monospace" font-size="14px" font-style="normal" font-weight="normal" text-decoration="normal" x="647.0757217407227" y="631.2033920288086" text-anchor="end" dominant-baseline="text-after-edge">hi</text><path fill="#e0e0e0" stroke="none" paint-order="stroke fill markers" d=" M 907.2472832202911 379.85626220703125 L 899.2472832202911 356.85626220703125 L 899.2472832202911 402.85626220703125 Z M 581.0757217407227 608.2033920288086 L 589.0757217407227 585.2033920288086 L 589.0757217407227 631.2033920288086 Z"/><path fill="none" stroke="none"/><path fill="none" stroke="#e0e0e0" paint-order="fill stroke markers" d=" M 907.2472832202911 379.85626220703125 C 1026.6948739428658 379.85626220703125 461.62813101814794 608.2033920288086 581.0757217407227 608.2033920288086" stroke-miterlimit="10" stroke-width="2" stroke-dasharray=""/><path fill="white" stroke="#505050" paint-order="fill stroke markers" d=" M 350.10454711318016 370.7240295410156 L 350.10454711318016 493.15209197998047 Q 350.10454711318016 501.15209197998047 358.10454711318016 501.15209197998047 L 803.6422417163849 501.15209197998047 Q 811.6422417163849 501.15209197998047 811.6422417163849 493.15209197998047 L 811.6422417163849 370.7240295410156 Q 811.6422417163849 362.7240295410156 803.6422417163849 362.7240295410156 L 358.10454711318016 362.7240295410156 Q 350.10454711318016 362.7240295410156 350.10454711318016 370.7240295410156" stroke-miterlimit="10" stroke-width="0.5" stroke-dasharray=""/><path fill="#F0F0F0" stroke="#505050" paint-order="fill stroke markers" d=" M 752.6422417163849 370.7240295410156 L 811.6422417163849 370.7240295410156 L 811.6422417163849 412.7240295410156 L 752.6422417163849 412.7240295410156 L 752.6422417163849 370.7240295410156 Z" stroke-miterlimit="10" stroke-width="0.5" stroke-dasharray=""/><path fill="none" stroke="none"/><text fill="#505050" stroke="none" font-family="monospace" font-size="14px" font-style="normal" font-weight="normal" text-decoration="normal" x="782.1422417163849" y="388.7240295410156" text-anchor="middle" dominant-baseline="text-after-edge">select</text><path fill="none" stroke="#505050" paint-order="fill stroke markers" d=" M 752.6422417163849 388.7240295410156 L 760.6422417163849 388.7240295410156 L 760.6422417163849 396.7240295410156 L 752.6422417163849 396.7240295410156 L 752.6422417163849 388.7240295410156 Z" stroke-miterlimit="10" stroke-width="0.5" stroke-dasharray=""/><path fill="none" stroke="#505050" paint-order="fill stroke markers" d=" M 752.6422417163849 400.7240295410156 L 760.6422417163849 400.7240295410156 L 760.6422417163849 408.7240295410156 L 752.6422417163849 408.7240295410156 L 752.6422417163849 400.7240295410156 Z" stroke-miterlimit="10" stroke-width="0.5" stroke-dasharray=""/><path fill="none" stroke="#505050" paint-order="fill stroke markers" d=" M 803.6422417163849 388.7240295410156 L 811.6422417163849 388.7240295410156 L 811.6422417163849 396.7240295410156 L 803.6422417163849 396.7240295410156 L 803.6422417163849 388.7240295410156 Z" stroke-miterlimit="10" stroke-width="0.5" stroke-dasharray=""/><path fill="none" stroke="#505050" paint-order="fill stroke markers" d=" M 803.6422417163849 400.7240295410156 L 811.6422417163849 400.7240295410156 L 811.6422417163849 408.7240295410156 L 803.6422417163849 408.7240295410156 L 803.6422417163849 400.7240295410156 Z" stroke-miterlimit="10" stroke-width="0.5" stroke-dasharray=""/><path fill="white" stroke="#505050" paint-order="fill stroke markers" d=" M 393.3576965332031 411.15209197998047 L 492.3576965332031 411.15209197998047 L 492.3576965332031 485.15209197998047 L 393.3576965332031 485.15209197998047 L 393.3576965332031 411.15209197998047 Z" stroke-miterlimit="10" stroke-width="0.5" stroke-dasharray=""/><path fill="#F0F0F0" stroke="none" paint-order="stroke fill markers" d=""/><path fill="none" stroke="none"/><text fill="#505050" stroke="none" font-family="monospace" font-size="14px" font-style="normal" font-weight="normal" text-decoration="normal" x="442.8576965332031" y="429.15209197998047" text-anchor="middle" dominant-baseline="text-after-edge">divide</text><path fill="none" stroke="#505050" paint-order="fill stroke markers" d=" M 393.3576965332031 429.15209197998047 L 401.3576965332031 429.15209197998047 L 401.3576965332031 437.15209197998047 L 393.3576965332031 437.15209197998047 L 393.3576965332031 429.15209197998047 Z" stroke-miterlimit="10" stroke-width="0.5" stroke-dasharray=""/><text fill="#505050" stroke="none" font-family="monospace" font-size="14px" font-style="normal" font-weight="normal" text-decoration="normal" x="409.3576965332031" y="443.15209197998047" text-anchor="start" dominant-baseline="text-after-edge">lo</text><path fill="none" stroke="#505050" paint-order="fill stroke markers" d=" M 393.3576965332031 443.15209197998047 L 401.3576965332031 443.15209197998047 L 401.3576965332031 451.15209197998047 L 393.3576965332031 451.15209197998047 L 393.3576965332031 443.15209197998047 Z" stroke-miterlimit="10" stroke-width="0.5" stroke-dasharray=""/><text fill="#505050" stroke="none" font-family="monospace" font-size="14px" font-style="normal" font-weight="normal" text-decoration="normal" x="409.3576965332031" y="457.15209197998047" text-anchor="start" dominant-baseline="text-after-edge">hi</text><path fill="none" stroke="#505050" paint-order="fill stroke markers" d=" M 484.3576965332031 429.15209197998047 L 492.3576965332031 429.15209197998047 L 492.3576965332031 437.15209197998047 L 484.3576965332031 437.15209197998047 L 484.3576965332031 429.15209197998047 Z" stroke-miterlimit="10" stroke-width="0.5" stroke-dasharray=""/><text fill="#505050" stroke="none" font-family="monospace" font-size="14px" font-style="normal" font-weight="normal" text-decoration="normal" x="476.3576965332031" y="443.15209197998047" text-anchor="end" dominant-baseline="text-after-edge">lo</text><path fill="none" stroke="#505050" paint-order="fill stroke markers" d=" M 484.3576965332031 443.15209197998047 L 492.3576965332031 443.15209197998047 L 492.3576965332031 451.15209197998047 L 484.3576965332031 451.15209197998047 L 484.3576965332031 443.15209197998047 Z" stroke-miterlimit="10" stroke-width="0.5" stroke-dasharray=""/><text fill="#505050" stroke="none" font-family="monospace" font-size="14px" font-style="normal" font-weight="normal" text-decoration="normal" x="476.3576965332031" y="457.15209197998047" text-anchor="end" dominant-baseline="text-after-edge">mid</text><path fill="none" stroke="#505050" paint-order="fill stroke markers" d=" M 484.3576965332031 457.15209197998047 L 492.3576965332031 457.15209197998047 L 492.3576965332031 465.15209197998047 L 484.3576965332031 465.15209197998047 L 484.3576965332031 457.15209197998047 Z" stroke-miterlimit="10" stroke-width="0.5" stroke-dasharray=""/><text fill="#505050" stroke="none" font-family="monospace" font-size="14px" font-style="normal" font-weight="normal" text-decoration="normal" x="476.3576965332031" y="471.15209197998047" text-anchor="end" dominant-baseline="text-after-edge">mid+1</text><path fill="none" stroke="#505050" paint-order="fill stroke markers" d=" M 484.3576965332031 471.15209197998047 L 492.3576965332031 471.15209197998047 L 492.3576965332031 479.15209197998047 L 484.3576965332031 479.15209197998047 L 484.3576965332031 471.15209197998047 Z" stroke-miterlimit="10" stroke-width="0.5" stroke-dasharray=""/><text fill="#505050" stroke="none" font-family="monospace" font-size="14px" font-style="normal" font-weight="normal" text-decoration="normal" x="476.3576965332031" y="485.15209197998047" text-anchor="end" dominant-baseline="text-after-edge">hi</text><path fill="white" stroke="#505050" paint-order="fill stroke markers" d=" M 687.7106382846832 391.90828704833984 L 712.7106382846832 391.90828704833984 L 712.7106382846832 469.90828704833984 L 687.7106382846832 469.90828704833984 L 687.7106382846832 391.90828704833984 Z" stroke-miterlimit="10" stroke-width="0.5" stroke-dasharray=""/><path fill="#F0F0F0" stroke="none" paint-order="stroke fill markers" d=""/><path fill="none" stroke="none"/><text fill="#505050" stroke="none" font-family="monospace" font-size="14px" font-style="normal" font-weight="normal" text-decoration="normal" x="700.2106382846832" y="409.90828704833984" text-anchor="middle" dominant-baseline="text-after-edge">??</text><path fill="none" stroke="#505050" paint-order="fill stroke markers" d=" M 687.7106382846832 409.90828704833984 L 695.7106382846832 409.90828704833984 L 695.7106382846832 417.90828704833984 L 687.7106382846832 417.90828704833984 L 687.7106382846832 409.90828704833984 Z" stroke-miterlimit="10" stroke-width="0.5" stroke-dasharray=""/><path fill="none" stroke="#505050" paint-order="fill stroke markers" d=" M 687.7106382846832 421.90828704833984 L 695.7106382846832 421.90828704833984 L 695.7106382846832 429.90828704833984 L 687.7106382846832 429.90828704833984 L 687.7106382846832 421.90828704833984 Z" stroke-miterlimit="10" stroke-width="0.5" stroke-dasharray=""/><path fill="none" stroke="#505050" paint-order="fill stroke markers" d=" M 687.7106382846832 433.90828704833984 L 695.7106382846832 433.90828704833984 L 695.7106382846832 441.90828704833984 L 687.7106382846832 441.90828704833984 L 687.7106382846832 433.90828704833984 Z" stroke-miterlimit="10" stroke-width="0.5" stroke-dasharray=""/><path fill="none" stroke="#505050" paint-order="fill stroke markers" d=" M 687.7106382846832 445.90828704833984 L 695.7106382846832 445.90828704833984 L 695.7106382846832 453.90828704833984 L 687.7106382846832 453.90828704833984 L 687.7106382846832 445.90828704833984 Z" stroke-miterlimit="10" stroke-width="0.5" stroke-dasharray=""/><path fill="none" stroke="#505050" paint-order="fill stroke markers" d=" M 687.7106382846832 457.90828704833984 L 695.7106382846832 457.90828704833984 L 695.7106382846832 465.90828704833984 L 687.7106382846832 465.90828704833984 L 687.7106382846832 457.90828704833984 Z" stroke-miterlimit="10" stroke-width="0.5" stroke-dasharray=""/><path fill="none" stroke="#505050" paint-order="fill stroke markers" d=" M 704.7106382846832 409.90828704833984 L 712.7106382846832 409.90828704833984 L 712.7106382846832 417.90828704833984 L 704.7106382846832 417.90828704833984 L 704.7106382846832 409.90828704833984 Z" stroke-miterlimit="10" stroke-width="0.5" stroke-dasharray=""/><path fill="none" stroke="#505050" paint-order="fill stroke markers" d=" M 704.7106382846832 421.90828704833984 L 712.7106382846832 421.90828704833984 L 712.7106382846832 429.90828704833984 L 704.7106382846832 429.90828704833984 L 704.7106382846832 421.90828704833984 Z" stroke-miterlimit="10" stroke-width="0.5" stroke-dasharray=""/><path fill="white" stroke="#505050" paint-order="fill stroke markers" d=" M 354.9764587879181 421.5676956176758 L 370.9764587879181 421.5676956176758 L 370.9764587879181 437.5676956176758 L 354.9764587879181 437.5676956176758 L 362.9764587879181 429.5676956176758 L 354.9764587879181 421.5676956176758" stroke-miterlimit="10" stroke-width="0.5" stroke-dasharray=""/><path fill="none" stroke="none"/><path fill="none" stroke="#505050" paint-order="fill stroke markers" d=" M 362.9764587879181 425.5676956176758 L 370.9764587879181 425.5676956176758 L 370.9764587879181 433.5676956176758 L 362.9764587879181 433.5676956176758 L 362.9764587879181 425.5676956176758 Z" stroke-miterlimit="10" stroke-width="0.5" stroke-dasharray=""/><path fill="white" stroke="#505050" paint-order="fill stroke markers" d=" M 356.429545968771 442.63644790649414 L 372.429545968771 442.63644790649414 L 372.429545968771 458.63644790649414 L 356.429545968771 458.63644790649414 L 364.429545968771 450.63644790649414 L 356.429545968771 442.63644790649414" stroke-miterlimit="10" stroke-width="0.5" stroke-dasharray=""/><path fill="none" stroke="none"/><path fill="none" stroke="#505050" paint-order="fill stroke markers" d=" M 364.429545968771 446.63644790649414 L 372.429545968771 446.63644790649414 L 372.429545968771 454.63644790649414 L 364.429545968771 454.63644790649414 L 364.429545968771 446.63644790649414 Z" stroke-miterlimit="10" stroke-width="0.5" stroke-dasharray=""/><path fill="white" stroke="#505050" paint-order="fill stroke markers" d=" M 727.4918882846832 398.44579315185547 L 735.4918882846832 398.44579315185547 L 743.4918882846832 406.44579315185547 L 735.4918882846832 414.44579315185547 L 727.4918882846832 414.44579315185547 L 727.4918882846832 398.44579315185547" stroke-miterlimit="10" stroke-width="0.5" stroke-dasharray=""/><path fill="none" stroke="none"/><path fill="none" stroke="#505050" paint-order="fill stroke markers" d=" M 727.4918882846832 402.44579315185547 L 735.4918882846832 402.44579315185547 L 735.4918882846832 410.44579315185547 L 727.4918882846832 410.44579315185547 L 727.4918882846832 402.44579315185547 Z" stroke-miterlimit="10" stroke-width="0.5" stroke-dasharray=""/><path fill="white" stroke="#505050" paint-order="fill stroke markers" d=" M 727.416876077652 421.13951873779297 L 735.416876077652 421.13951873779297 L 743.416876077652 429.13951873779297 L 735.416876077652 437.13951873779297 L 727.416876077652 437.13951873779297 L 727.416876077652 421.13951873779297" stroke-miterlimit="10" stroke-width="0.5" stroke-dasharray=""/><path fill="none" stroke="none"/><path fill="none" stroke="#505050" paint-order="fill stroke markers" d=" M 727.416876077652 425.13951873779297 L 735.416876077652 425.13951873779297 L 735.416876077652 433.13951873779297 L 727.416876077652 433.13951873779297 L 727.416876077652 425.13951873779297 Z" stroke-miterlimit="10" stroke-width="0.5" stroke-dasharray=""/><path fill="white" stroke="#505050" paint-order="fill stroke markers" d=" M 516.8794250488281 369.3835639953613 L 549.8794250488281 369.3835639953613 L 549.8794250488281 399.3835639953613 L 516.8794250488281 399.3835639953613 L 516.8794250488281 369.3835639953613 Z" stroke-miterlimit="10" stroke-width="0.5" stroke-dasharray=""/><path fill="#F0F0F0" stroke="none" paint-order="stroke fill markers" d=""/><path fill="none" stroke="none"/><text fill="#505050" stroke="none" font-family="monospace" font-size="14px" font-style="normal" font-weight="normal" text-decoration="normal" x="533.3794250488281" y="387.3835639953613" text-anchor="middle" dominant-baseline="text-after-edge">[i]</text><path fill="none" stroke="#505050" paint-order="fill stroke markers" d=" M 516.8794250488281 387.3835639953613 L 524.8794250488281 387.3835639953613 L 524.8794250488281 395.3835639953613 L 516.8794250488281 395.3835639953613 L 516.8794250488281 387.3835639953613 Z" stroke-miterlimit="10" stroke-width="0.5" stroke-dasharray=""/><path fill="none" stroke="#505050" paint-order="fill stroke markers" d=" M 541.8794250488281 387.3835639953613 L 549.8794250488281 387.3835639953613 L 549.8794250488281 395.3835639953613 L 541.8794250488281 395.3835639953613 L 541.8794250488281 387.3835639953613 Z" stroke-miterlimit="10" stroke-width="0.5" stroke-dasharray=""/><path fill="#e0e0e0" stroke="none" paint-order="stroke fill markers" d=" M 329.5090637207031 365.10539627075195 L 321.5090637207031 350.10539627075195 L 321.5090637207031 380.10539627075195 Z M 508.8794250488281 384.3835639953613 L 516.8794250488281 369.3835639953613 L 516.8794250488281 399.3835639953613 Z"/><path fill="none" stroke="none"/><path fill="none" stroke="#e0e0e0" paint-order="fill stroke markers" d=" M 329.5090637207031 365.10539627075195 C 383.6300733624497 365.10539627075195 454.75841540708154 384.3835639953613 508.8794250488281 384.3835639953613" stroke-miterlimit="10" stroke-width="2" stroke-dasharray=""/><path fill="white" stroke="#505050" paint-order="fill stroke markers" d=" M 568.9027709960938 368.88995361328125 L 592.9027709960938 368.88995361328125 L 592.9027709960938 410.88995361328125 L 568.9027709960938 410.88995361328125 L 568.9027709960938 368.88995361328125 Z" stroke-miterlimit="10" stroke-width="0.5" stroke-dasharray=""/><path fill="#F0F0F0" stroke="none" paint-order="stroke fill markers" d=""/><path fill="none" stroke="none"/><text fill="#505050" stroke="none" font-family="monospace" font-size="14px" font-style="normal" font-weight="normal" text-decoration="normal" x="580.9027709960938" y="386.88995361328125" text-anchor="middle" dominant-baseline="text-after-edge">&lt;</text><path fill="none" stroke="#505050" paint-order="fill stroke markers" d=" M 568.9027709960938 386.88995361328125 L 576.9027709960938 386.88995361328125 L 576.9027709960938 394.88995361328125 L 568.9027709960938 394.88995361328125 L 568.9027709960938 386.88995361328125 Z" stroke-miterlimit="10" stroke-width="0.5" stroke-dasharray=""/><path fill="none" stroke="#505050" paint-order="fill stroke markers" d=" M 568.9027709960938 398.88995361328125 L 576.9027709960938 398.88995361328125 L 576.9027709960938 406.88995361328125 L 568.9027709960938 406.88995361328125 L 568.9027709960938 398.88995361328125 Z" stroke-miterlimit="10" stroke-width="0.5" stroke-dasharray=""/><path fill="none" stroke="#505050" paint-order="fill stroke markers" d=" M 584.9027709960938 386.88995361328125 L 592.9027709960938 386.88995361328125 L 592.9027709960938 394.88995361328125 L 584.9027709960938 394.88995361328125 L 584.9027709960938 386.88995361328125 Z" stroke-miterlimit="10" stroke-width="0.5" stroke-dasharray=""/><path fill="white" stroke="#505050" paint-order="fill stroke markers" d=" M 490.05181884765625 587.1599502563477 L 549.0518188476562 587.1599502563477 L 549.0518188476562 629.1599502563477 L 490.05181884765625 629.1599502563477 L 490.05181884765625 587.1599502563477 Z" stroke-miterlimit="10" stroke-width="0.5" stroke-dasharray=""/><path fill="#F0F0F0" stroke="none" paint-order="stroke fill markers" d=""/><path fill="none" stroke="none"/><text fill="#505050" stroke="none" font-family="monospace" font-size="14px" font-style="normal" font-weight="normal" text-decoration="normal" x="519.5518188476562" y="605.1599502563477" text-anchor="middle" dominant-baseline="text-after-edge">select</text><path fill="none" stroke="#505050" paint-order="fill stroke markers" d=" M 490.05181884765625 605.1599502563477 L 498.05181884765625 605.1599502563477 L 498.05181884765625 613.1599502563477 L 490.05181884765625 613.1599502563477 L 490.05181884765625 605.1599502563477 Z" stroke-miterlimit="10" stroke-width="0.5" stroke-dasharray=""/><path fill="none" stroke="#505050" paint-order="fill stroke markers" d=" M 490.05181884765625 617.1599502563477 L 498.05181884765625 617.1599502563477 L 498.05181884765625 625.1599502563477 L 490.05181884765625 625.1599502563477 L 490.05181884765625 617.1599502563477 Z" stroke-miterlimit="10" stroke-width="0.5" stroke-dasharray=""/><path fill="none" stroke="#505050" paint-order="fill stroke markers" d=" M 541.0518188476562 605.1599502563477 L 549.0518188476562 605.1599502563477 L 549.0518188476562 613.1599502563477 L 541.0518188476562 613.1599502563477 L 541.0518188476562 605.1599502563477 Z" stroke-miterlimit="10" stroke-width="0.5" stroke-dasharray=""/><path fill="none" stroke="#505050" paint-order="fill stroke markers" d=" M 541.0518188476562 617.1599502563477 L 549.0518188476562 617.1599502563477 L 549.0518188476562 625.1599502563477 L 541.0518188476562 625.1599502563477 L 541.0518188476562 617.1599502563477 Z" stroke-miterlimit="10" stroke-width="0.5" stroke-dasharray=""/><path fill="white" stroke="#505050" paint-order="fill stroke markers" d=" M 275.6758804321289 393.0457229614258 L 307.6758804321289 393.0457229614258 L 307.6758804321289 411.0457229614258 L 275.6758804321289 411.0457229614258 L 283.6758804321289 402.0457229614258 L 275.6758804321289 393.0457229614258" stroke-miterlimit="10" stroke-width="0.5" stroke-dasharray=""/><path fill="none" stroke="none"/><path fill="none" stroke="#505050" paint-order="fill stroke markers" d=" M 299.6758804321289 397.0457229614258 L 307.6758804321289 397.0457229614258 L 307.6758804321289 405.0457229614258 L 299.6758804321289 405.0457229614258 L 299.6758804321289 397.0457229614258 Z" stroke-miterlimit="10" stroke-width="0.5" stroke-dasharray=""/><text fill="#505050" stroke="none" font-family="monospace" font-size="14px" font-style="normal" font-weight="normal" text-decoration="normal" x="291.6758804321289" y="411.0457229614258" text-anchor="end" dominant-baseline="text-after-edge">t</text><path fill="none" stroke="none"/><path fill="white" stroke="#505050" paint-order="fill stroke markers" d=" M 272.5090637207031 346.10539627075195 L 321.5090637207031 346.10539627075195 L 321.5090637207031 384.10539627075195 L 272.5090637207031 384.10539627075195 L 280.5090637207031 365.10539627075195 L 272.5090637207031 346.10539627075195" stroke-miterlimit="10" stroke-width="0.5" stroke-dasharray=""/><path fill="#F0F0F0" stroke="none" paint-order="stroke fill markers" d=" M 288.5090637207031 350.10539627075195 L 321.5090637207031 350.10539627075195 L 321.5090637207031 380.10539627075195 L 288.5090637207031 380.10539627075195 L 288.5090637207031 350.10539627075195 Z"/><path fill="none" stroke="none"/><path fill="none" stroke="#505050" paint-order="fill stroke markers" d=" M 288.5090637207031 350.10539627075195 L 321.5090637207031 350.10539627075195 L 321.5090637207031 380.10539627075195 L 288.5090637207031 380.10539627075195 L 288.5090637207031 350.10539627075195 Z" stroke-miterlimit="10" stroke-width="0.5" stroke-dasharray=""/><path fill="none" stroke="none"/><text fill="#505050" stroke="none" font-family="monospace" font-size="14px" font-style="normal" font-weight="normal" text-decoration="normal" x="305.0090637207031" y="368.10539627075195" text-anchor="middle" dominant-baseline="text-after-edge">[i]</text><path fill="none" stroke="#505050" paint-order="fill stroke markers" d=" M 288.5090637207031 368.10539627075195 L 296.5090637207031 368.10539627075195 L 296.5090637207031 376.10539627075195 L 288.5090637207031 376.10539627075195 L 288.5090637207031 368.10539627075195 Z" stroke-miterlimit="10" stroke-width="0.5" stroke-dasharray=""/><path fill="none" stroke="#505050" paint-order="fill stroke markers" d=" M 313.5090637207031 368.10539627075195 L 321.5090637207031 368.10539627075195 L 321.5090637207031 376.10539627075195 L 313.5090637207031 376.10539627075195 L 313.5090637207031 368.10539627075195 Z" stroke-miterlimit="10" stroke-width="0.5" stroke-dasharray=""/><path fill="none" stroke="#505050" paint-order="fill stroke markers" d=" M 288.5090637207031 350.10539627075195 L 321.5090637207031 350.10539627075195 L 321.5090637207031 380.10539627075195 L 288.5090637207031 380.10539627075195 L 288.5090637207031 350.10539627075195 Z" stroke-miterlimit="10" stroke-width="0.5" stroke-dasharray="6,3"/><path fill="#F0F0F0" stroke="none" paint-order="stroke fill markers" d=""/><path fill="none" stroke="none"/><text fill="#505050" stroke="none" font-family="monospace" font-size="14px" font-style="normal" font-weight="normal" text-decoration="normal" x="305.0090637207031" y="368.10539627075195" text-anchor="middle" dominant-baseline="text-after-edge">[i]</text><path fill="none" stroke="#505050" paint-order="fill stroke markers" d=" M 288.5090637207031 368.10539627075195 L 296.5090637207031 368.10539627075195 L 296.5090637207031 376.10539627075195 L 288.5090637207031 376.10539627075195 L 288.5090637207031 368.10539627075195 Z" stroke-miterlimit="10" stroke-width="0.5" stroke-dasharray="0"/><path fill="none" stroke="#505050" paint-order="fill stroke markers" d=" M 313.5090637207031 368.10539627075195 L 321.5090637207031 368.10539627075195 L 321.5090637207031 376.10539627075195 L 313.5090637207031 376.10539627075195 L 313.5090637207031 368.10539627075195 Z" stroke-miterlimit="10" stroke-width="0.5" stroke-dasharray="0"/><path fill="white" stroke="#505050" paint-order="fill stroke markers" d=" M 921.7849419116974 372.062255859375 L 929.7849419116974 372.062255859375 L 937.7849419116974 380.062255859375 L 929.7849419116974 388.062255859375 L 921.7849419116974 388.062255859375 L 921.7849419116974 372.062255859375" stroke-miterlimit="10" stroke-width="0.5" stroke-dasharray="0"/><path fill="none" stroke="none"/><path fill="none" stroke="#505050" paint-order="fill stroke markers" d=" M 921.7849419116974 376.062255859375 L 929.7849419116974 376.062255859375 L 929.7849419116974 384.062255859375 L 921.7849419116974 384.062255859375 L 921.7849419116974 376.062255859375 Z" stroke-miterlimit="10" stroke-width="0.5" stroke-dasharray="0"/><path fill="none" stroke="#505050" paint-order="fill stroke markers" d=" M 398.4470977783203 296.7906074523926 C 416.2109849186968 296.7906074523926 398.58944537915477 240.3500099182129 416.35333251953125 240.3500099182129" stroke-miterlimit="10" stroke-dasharray="0"/><path fill="none" stroke="#505050" paint-order="fill stroke markers" d=" M 396.8595886230469 199.71562576293945 C 407.25160770669055 199.71562576293945 405.9613134358876 228.3500099182129 416.35333251953125 228.3500099182129" stroke-miterlimit="10" stroke-dasharray="0"/><path fill="none" stroke="#505050" paint-order="fill stroke markers" d=" M 444.9439277648926 265.2250099182129 C 452.94562602993125 265.2250099182129 459.81410526279336 251.50311660766602 467.81580352783203 251.50311660766602" stroke-miterlimit="10" stroke-dasharray="0"/><path fill="none" stroke="#505050" paint-order="fill stroke markers" d=" M 440.35333251953125 228.3500099182129 C 449.2455830357801 228.3500099182129 458.9235530115832 239.50311660766602 467.81580352783203 239.50311660766602" stroke-miterlimit="10" stroke-dasharray="0"/><path fill="none" stroke="#505050" paint-order="fill stroke markers" d=" M 491.81580352783203 239.50311660766602 C 496.5923134781633 239.50311660766602 502.9580481551375 239.8093490600586 507.73455810546875 239.8093490600586" stroke-miterlimit="10" stroke-dasharray="0"/><path fill="none" stroke="#505050" paint-order="fill stroke markers" d=" M 599.7345581054688 239.8093490600586 C 606.1278767996823 239.8093490600586 611.3724894112552 228.4499740600586 617.7658081054688 228.4499740600586" stroke-miterlimit="10" stroke-dasharray="0"/><path fill="none" stroke="#505050" paint-order="fill stroke markers" d=" M 396.8595886230469 199.71562576293945 C 463.9718627214677 199.71562576293945 553.4535523175948 198.9405975341797 620.5658264160156 198.9405975341797" stroke-miterlimit="10" stroke-dasharray="0"/><path fill="none" stroke="#505050" paint-order="fill stroke markers" d=" M 398.4470977783203 296.7906074523926 C 465.84773109414107 296.7906074523926 555.7151503755855 296.99371337890625 623.1157836914062 296.99371337890625" stroke-miterlimit="10" stroke-dasharray="0"/><path fill="none" stroke="#505050" paint-order="fill stroke markers" d=" M 599.7345581054688 239.8093490600586 C 612.6059053336521 239.8093490600586 611.8319303597073 274.70001220703125 624.7032775878906 274.70001220703125" stroke-miterlimit="10" stroke-dasharray="0"/><path fill="none" stroke="#505050" paint-order="fill stroke markers" d=" M 649.7032775878906 274.70001220703125 C 653.1879872413292 274.70001220703125 657.8342600731239 274.7124938964844 661.3189697265625 274.7124938964844" stroke-miterlimit="10" stroke-dasharray="0"/><path fill="none" stroke="#505050" paint-order="fill stroke markers" d=" M 397.4029006958008 102.49701690673828 C 401.2285518535519 102.49701690673828 406.3292331806278 102.56605529785156 410.1548843383789 102.56605529785156" stroke-miterlimit="10" stroke-dasharray="0"/><path fill="none" stroke="#505050" paint-order="fill stroke markers" d=" M 536.2034819126129 39.71192169189453 C 543.9029837607039 39.71192169189453 552.8227209092485 47.91505432128906 560.5222227573395 47.91505432128906" stroke-miterlimit="10" stroke-dasharray="0"/><path fill="none" stroke="#505050" paint-order="fill stroke markers" d=" M 536.2034819126129 39.71192169189453 C 557.9358350067542 39.71192169189453 538.6836074561669 107.98695373535156 560.4159605503082 107.98695373535156" stroke-miterlimit="10" stroke-dasharray="0"/><path fill="none" stroke="#505050" paint-order="fill stroke markers" d=" M 307.6758804321289 401.0457229614258 C 386.04590058420837 401.0457229614258 490.5327508440143 402.88995361328125 568.9027709960938 402.88995361328125" stroke-miterlimit="10" stroke-dasharray="0"/><path fill="none" stroke="#505050" paint-order="fill stroke markers" d=" M 899.2472832202911 379.85626220703125 C 906.008863238361 379.85626220703125 915.0233618936276 380.062255859375 921.7849419116974 380.062255859375" stroke-miterlimit="10" stroke-dasharray="0"/><path fill="none" stroke="#505050" paint-order="fill stroke markers" d=" M 677.0555572509766 537.3934860229492 C 691.4178197046048 537.3934860229492 704.8977015356296 559.9927749633789 719.2599639892578 559.9927749633789" stroke-miterlimit="10" stroke-dasharray="0"/><path fill="none" stroke="#505050" paint-order="fill stroke markers" d=" M 403.65474247932434 530.4848251342773 C 478.2038034640516 530.4848251342773 577.5064962662493 537.3934860229492 652.0555572509766 537.3934860229492" stroke-miterlimit="10" stroke-dasharray="0"/><path fill="none" stroke="#505050" paint-order="fill stroke markers" d=" M 407.7042346894741 558.5618324279785 C 481.06121436559096 558.5618324279785 578.6985775748597 549.3934860229492 652.0555572509766 549.3934860229492" stroke-miterlimit="10" stroke-dasharray="0"/><path fill="none" stroke="#505050" paint-order="fill stroke markers" d=" M 549.0518188476562 609.1599502563477 C 561.0733280316241 609.1599502563477 577.0542125567548 607.2033920288086 589.0757217407227 607.2033920288086" stroke-miterlimit="10" stroke-dasharray="0"/><path fill="none" stroke="#505050" paint-order="fill stroke markers" d=" M 549.0518188476562 621.1599502563477 C 561.0589967883011 621.1599502563477 577.0685438000778 621.2033920288086 589.0757217407227 621.2033920288086" stroke-miterlimit="10" stroke-dasharray="0"/><path fill="none" stroke="#505050" paint-order="fill stroke markers" d=" M 403.65474247932434 530.4848251342773 C 438.7101373653785 530.4848251342773 454.9964239616021 609.1599502563477 490.05181884765625 609.1599502563477" stroke-miterlimit="10" stroke-dasharray="0"/><path fill="none" stroke="#505050" paint-order="fill stroke markers" d=" M 407.7042346894741 558.5618324279785 C 438.7359669567984 558.5618324279785 459.02008658033196 621.1599502563477 490.05181884765625 621.1599502563477" stroke-miterlimit="10" stroke-dasharray="0"/><path fill="none" stroke="#505050" paint-order="fill stroke markers" d=" M 744.2599639892578 559.9927749633789 C 749.1203227215668 559.9927749633789 754.2560651129821 553.5302410125732 759.1164238452911 553.5302410125732" stroke-miterlimit="10" stroke-dasharray="0"/><path fill="none" stroke="#505050" paint-order="fill stroke markers" d=" M 744.2599639892578 571.9927749633789 C 748.8590263653535 571.9927749633789 754.2954748343687 576.5583572387695 758.8945372104645 576.5583572387695" stroke-miterlimit="10" stroke-dasharray="0"/><path fill="none" stroke="#505050" paint-order="fill stroke markers" d=" M 403.65474247932434 530.4848251342773 C 499.15165822481555 530.4848251342773 623.7630482437667 571.9927749633789 719.2599639892578 571.9927749633789" stroke-miterlimit="10" stroke-dasharray="0"/><path fill="none" stroke="#505050" paint-order="fill stroke markers" d=" M 407.7042346894741 558.5618324279785 C 501.4818091771857 558.5618324279785 625.4823895015462 583.9927749633789 719.2599639892578 583.9927749633789" stroke-miterlimit="10" stroke-dasharray="0"/><path fill="none" stroke="#505050" paint-order="fill stroke markers" d=" M 663.0757217407227 607.2033920288086 C 680.263253008554 607.2033920288086 702.0724327214265 595.9927749633789 719.2599639892578 595.9927749633789" stroke-miterlimit="10" stroke-dasharray="0"/><path fill="none" stroke="#505050" paint-order="fill stroke markers" d=" M 663.0757217407227 621.2033920288086 C 680.3906590269572 621.2033920288086 701.9450267030232 607.9927749633789 719.2599639892578 607.9927749633789" stroke-miterlimit="10" stroke-dasharray="0"/><path fill="none" stroke="#505050" paint-order="fill stroke markers" d=" M 370.9764587879181 429.5676956176758 C 377.77639209835405 429.5676956176758 386.55776322276716 433.15209197998047 393.3576965332031 433.15209197998047" stroke-miterlimit="10" stroke-dasharray="0"/><path fill="none" stroke="#505050" paint-order="fill stroke markers" d=" M 372.429545968771 450.63644790649414 C 378.79441360324034 450.63644790649414 386.99282889873376 447.15209197998047 393.3576965332031 447.15209197998047" stroke-miterlimit="10" stroke-dasharray="0"/><path fill="none" stroke="#505050" paint-order="fill stroke markers" d=" M 592.9027709960938 390.88995361328125 C 622.1714194728248 390.88995361328125 658.4419898079522 413.90828704833984 687.7106382846832 413.90828704833984" stroke-miterlimit="10" stroke-dasharray="0"/><path fill="none" stroke="#505050" paint-order="fill stroke markers" d=" M 549.8794250488281 391.3835639953613 C 555.5883497112736 391.3835639953613 563.1938463336483 390.88995361328125 568.9027709960938 390.88995361328125" stroke-miterlimit="10" stroke-dasharray="0"/><path fill="none" stroke="#505050" paint-order="fill stroke markers" d=" M 492.3576965332031 447.15209197998047 C 510.63418277829066 447.15209197998047 498.6029388037406 391.3835639953613 516.8794250488281 391.3835639953613" stroke-miterlimit="10" stroke-dasharray="0"/><path fill="none" stroke="#505050" paint-order="fill stroke markers" d=" M 712.7106382846832 413.90828704833984 C 717.6780999105623 413.90828704833984 722.5244266588041 406.44579315185547 727.4918882846832 406.44579315185547" stroke-miterlimit="10" stroke-dasharray="0"/><path fill="none" stroke="#505050" paint-order="fill stroke markers" d=" M 712.7106382846832 425.90828704833984 C 717.2277486378719 425.90828704833984 722.8997657244634 429.13951873779297 727.416876077652 429.13951873779297" stroke-miterlimit="10" stroke-dasharray="0"/><path fill="none" stroke="#505050" paint-order="fill stroke markers" d=" M 492.3576965332031 433.15209197998047 C 551.003855917054 433.15209197998047 629.0644789008323 425.90828704833984 687.7106382846832 425.90828704833984" stroke-miterlimit="10" stroke-dasharray="0"/><path fill="none" stroke="#505050" paint-order="fill stroke markers" d=" M 492.3576965332031 447.15209197998047 C 551.0291527981658 447.15209197998047 629.0391820197206 437.90828704833984 687.7106382846832 437.90828704833984" stroke-miterlimit="10" stroke-dasharray="0"/><path fill="none" stroke="#505050" paint-order="fill stroke markers" d=" M 492.3576965332031 461.15209197998047 C 551.0605716759661 461.15209197998047 629.0077631419202 449.90828704833984 687.7106382846832 449.90828704833984" stroke-miterlimit="10" stroke-dasharray="0"/><path fill="none" stroke="#505050" paint-order="fill stroke markers" d=" M 492.3576965332031 475.15209197998047 C 551.0981027269145 475.15209197998047 628.9702320909719 461.90828704833984 687.7106382846832 461.90828704833984" stroke-miterlimit="10" stroke-dasharray="0"/></g></g></svg>