<svg version="1.1" xmlns="http://www.w3.org/2000/svg" xmlns:xlink="http://www.w3.org/1999/xlink" width="373.0030517578125" height="497.0251178741455"><defs/><g transform="translate(-330.10870361328125,-30.29899787902832)"><g><path fill="white" stroke="#505050" paint-order="fill stroke markers" d=" M 338.10870361328125 319.25850677490234 L 338.10870361328125 511.3241157531738 Q 338.10870361328125 519.3241157531738 346.10870361328125 519.3241157531738 L 687.1117553710938 519.3241157531738 Q 695.1117553710938 519.3241157531738 695.1117553710938 511.3241157531738 L 695.1117553710938 319.25850677490234 Q 695.1117553710938 311.25850677490234 687.1117553710938 311.25850677490234 L 346.10870361328125 311.25850677490234 Q 338.10870361328125 311.25850677490234 338.10870361328125 319.25850677490234" stroke-miterlimit="10" stroke-width="0.5" stroke-dasharray=""/><path fill="#F0F0F0" stroke="#505050" paint-order="fill stroke markers" d=" M 613.1117553710938 319.25850677490234 L 695.1117553710938 319.25850677490234 L 695.1117553710938 389.25850677490234 L 613.1117553710938 389.25850677490234 L 613.1117553710938 319.25850677490234 Z" stroke-miterlimit="10" stroke-width="0.5" stroke-dasharray=""/><path fill="none" stroke="none"/><text fill="#505050" stroke="none" font-family="monospace" font-size="14px" font-style="normal" font-weight="normal" text-decoration="normal" x="654.1117553710938" y="337.25850677490234" text-anchor="middle" dominant-baseline="text-after-edge">while-do</text><path fill="none" stroke="#505050" paint-order="fill stroke markers" d=" M 613.1117553710938 337.25850677490234 L 637.1117553710938 337.25850677490234 L 637.1117553710938 353.25850677490234 L 613.1117553710938 353.25850677490234 L 613.1117553710938 337.25850677490234 Z" stroke-miterlimit="10" stroke-width="0.5" stroke-dasharray=""/><path fill="none" stroke="none"/><path fill="none" stroke="#505050" paint-order="fill stroke markers" d=" M 613.1117553710938 341.25850677490234 L 621.1117553710938 341.25850677490234 L 621.1117553710938 349.25850677490234 L 613.1117553710938 349.25850677490234 L 613.1117553710938 341.25850677490234 Z" stroke-miterlimit="10" stroke-width="0.5" stroke-dasharray=""/><path fill="none" stroke="#505050" paint-order="fill stroke markers" d=" M 629.1117553710938 341.25850677490234 L 637.1117553710938 341.25850677490234 L 637.1117553710938 349.25850677490234 L 629.1117553710938 349.25850677490234 L 629.1117553710938 341.25850677490234 Z" stroke-miterlimit="10" stroke-width="0.5" stroke-dasharray=""/><text fill="#505050" stroke="none" font-family="monospace" font-size="14px" font-style="normal" font-weight="normal" text-decoration="normal" x="645.1117553710938" y="354.25850677490234" text-anchor="start" dominant-baseline="text-after-edge">body</text><path fill="none" stroke="#505050" paint-order="fill stroke markers" d=" M 613.1117553710938 357.25850677490234 L 637.1117553710938 357.25850677490234 L 637.1117553710938 373.25850677490234 L 613.1117553710938 373.25850677490234 L 613.1117553710938 357.25850677490234 Z" stroke-miterlimit="10" stroke-width="0.5" stroke-dasharray=""/><path fill="none" stroke="none"/><path fill="none" stroke="#505050" paint-order="fill stroke markers" d=" M 613.1117553710938 361.25850677490234 L 621.1117553710938 361.25850677490234 L 621.1117553710938 369.25850677490234 L 613.1117553710938 369.25850677490234 L 613.1117553710938 361.25850677490234 Z" stroke-miterlimit="10" stroke-width="0.5" stroke-dasharray=""/><path fill="none" stroke="#505050" paint-order="fill stroke markers" d=" M 629.1117553710938 361.25850677490234 L 637.1117553710938 361.25850677490234 L 637.1117553710938 369.25850677490234 L 629.1117553710938 369.25850677490234 L 629.1117553710938 361.25850677490234 Z" stroke-miterlimit="10" stroke-width="0.5" stroke-dasharray=""/><text fill="#505050" stroke="none" font-family="monospace" font-size="14px" font-style="normal" font-weight="normal" text-decoration="normal" x="645.1117553710938" y="374.25850677490234" text-anchor="start" dominant-baseline="text-after-edge">test</text><path fill="none" stroke="#505050" paint-order="fill stroke markers" d=" M 613.1117553710938 377.25850677490234 L 621.1117553710938 377.25850677490234 L 621.1117553710938 385.25850677490234 L 613.1117553710938 385.25850677490234 L 613.1117553710938 377.25850677490234 Z" stroke-miterlimit="10" stroke-width="0.5" stroke-dasharray=""/><path fill="none" stroke="#505050" paint-order="fill stroke markers" d=" M 687.1117553710938 337.25850677490234 L 695.1117553710938 337.25850677490234 L 695.1117553710938 345.25850677490234 L 687.1117553710938 345.25850677490234 L 687.1117553710938 337.25850677490234 Z" stroke-miterlimit="10" stroke-width="0.5" stroke-dasharray=""/><path fill="white" stroke="#505050" paint-order="fill stroke markers" d=" M 347.0899658203125 458.4272766113281 L 363.0899658203125 458.4272766113281 L 363.0899658203125 474.4272766113281 L 347.0899658203125 474.4272766113281 L 355.0899658203125 466.4272766113281 L 347.0899658203125 458.4272766113281" stroke-miterlimit="10" stroke-width="0.5" stroke-dasharray=""/><path fill="none" stroke="none"/><path fill="none" stroke="#505050" paint-order="fill stroke markers" d=" M 363.0899658203125 466.4272766113281 A 4 4 0 1 0 363.0899638203127 466.4312766106615" stroke-miterlimit="10" stroke-width="0.5" stroke-dasharray=""/><path fill="white" stroke="#505050" paint-order="fill stroke markers" d=" M 625.0242919921875 435.1928024291992 L 633.0242919921875 435.1928024291992 L 641.0242919921875 443.1928024291992 L 633.0242919921875 451.1928024291992 L 625.0242919921875 451.1928024291992 L 625.0242919921875 435.1928024291992" stroke-miterlimit="10" stroke-width="0.5" stroke-dasharray=""/><path fill="none" stroke="none"/><path fill="none" stroke="#505050" paint-order="fill stroke markers" d=" M 633.0242919921875 443.1928024291992 A 4 4 0 1 0 633.0242899921876 443.1968024285326" stroke-miterlimit="10" stroke-width="0.5" stroke-dasharray=""/><path fill="white" stroke="#505050" paint-order="fill stroke markers" d=" M 590.3524322509766 421.4959373474121 L 614.3524322509766 421.4959373474121 L 614.3524322509766 475.4959373474121 L 590.3524322509766 475.4959373474121 L 590.3524322509766 421.4959373474121 Z" stroke-miterlimit="10" stroke-width="0.5" stroke-dasharray=""/><path fill="#F0F0F0" stroke="none" paint-order="stroke fill markers" d=""/><path fill="none" stroke="none"/><text fill="#505050" stroke="none" font-family="monospace" font-size="14px" font-style="normal" font-weight="normal" text-decoration="normal" x="602.3524322509766" y="439.4959373474121" text-anchor="middle" dominant-baseline="text-after-edge">?</text><path fill="none" stroke="#505050" paint-order="fill stroke markers" d=" M 590.3524322509766 439.4959373474121 L 598.3524322509766 439.4959373474121 L 598.3524322509766 447.4959373474121 L 590.3524322509766 447.4959373474121 L 590.3524322509766 439.4959373474121 Z" stroke-miterlimit="10" stroke-width="0.5" stroke-dasharray=""/><path fill="none" stroke="#505050" paint-order="fill stroke markers" d=" M 598.3524322509766 455.4959373474121 A 4 4 0 1 0 598.3524302509767 455.49993734674547" stroke-miterlimit="10" stroke-width="0.5" stroke-dasharray=""/><path fill="none" stroke="#505050" paint-order="fill stroke markers" d=" M 598.3524322509766 467.4959373474121 A 4 4 0 1 0 598.3524302509767 467.49993734674547" stroke-miterlimit="10" stroke-width="0.5" stroke-dasharray=""/><path fill="none" stroke="#505050" paint-order="fill stroke markers" d=" M 614.3524322509766 443.4959373474121 A 4 4 0 1 0 614.3524302509767 443.49993734674547" stroke-miterlimit="10" stroke-width="0.5" stroke-dasharray=""/><path fill="white" stroke="#505050" paint-order="fill stroke markers" d=" M 458.78045654296875 344.16150665283203 L 556.7804565429688 344.16150665283203 L 556.7804565429688 416.16150665283203 L 458.78045654296875 416.16150665283203 L 458.78045654296875 344.16150665283203 Z" stroke-miterlimit="10" stroke-width="0.5" stroke-dasharray=""/><path fill="#F0F0F0" stroke="none" paint-order="stroke fill markers" d=""/><path fill="none" stroke="none"/><text fill="#505050" stroke="none" font-family="monospace" font-size="14px" font-style="normal" font-weight="normal" text-decoration="normal" x="507.78045654296875" y="362.16150665283203" text-anchor="middle" dominant-baseline="text-after-edge">while-do</text><path fill="none" stroke="#505050" paint-order="fill stroke markers" d=" M 458.78045654296875 362.16150665283203 L 482.78045654296875 362.16150665283203 L 482.78045654296875 378.16150665283203 L 458.78045654296875 378.16150665283203 L 458.78045654296875 362.16150665283203 Z" stroke-miterlimit="10" stroke-width="0.5" stroke-dasharray=""/><path fill="none" stroke="none"/><path fill="none" stroke="#505050" paint-order="fill stroke markers" d=" M 458.78045654296875 366.16150665283203 L 466.78045654296875 366.16150665283203 L 466.78045654296875 374.16150665283203 L 458.78045654296875 374.16150665283203 L 458.78045654296875 366.16150665283203 Z" stroke-miterlimit="10" stroke-width="0.5" stroke-dasharray=""/><path fill="none" stroke="#505050" paint-order="fill stroke markers" d=" M 474.78045654296875 366.16150665283203 L 482.78045654296875 366.16150665283203 L 482.78045654296875 374.16150665283203 L 474.78045654296875 374.16150665283203 L 474.78045654296875 366.16150665283203 Z" stroke-miterlimit="10" stroke-width="0.5" stroke-dasharray=""/><text fill="#505050" stroke="none" font-family="monospace" font-size="14px" font-style="normal" font-weight="normal" text-decoration="normal" x="490.78045654296875" y="379.16150665283203" text-anchor="start" dominant-baseline="text-after-edge">body</text><path fill="none" stroke="#505050" paint-order="fill stroke markers" d=" M 458.78045654296875 382.16150665283203 L 482.78045654296875 382.16150665283203 L 482.78045654296875 398.16150665283203 L 458.78045654296875 398.16150665283203 L 458.78045654296875 382.16150665283203 Z" stroke-miterlimit="10" stroke-width="0.5" stroke-dasharray=""/><path fill="none" stroke="none"/><path fill="none" stroke="#505050" paint-order="fill stroke markers" d=" M 458.78045654296875 386.16150665283203 L 466.78045654296875 386.16150665283203 L 466.78045654296875 394.16150665283203 L 458.78045654296875 394.16150665283203 L 458.78045654296875 386.16150665283203 Z" stroke-miterlimit="10" stroke-width="0.5" stroke-dasharray=""/><path fill="none" stroke="#505050" paint-order="fill stroke markers" d=" M 474.78045654296875 386.16150665283203 L 482.78045654296875 386.16150665283203 L 482.78045654296875 394.16150665283203 L 474.78045654296875 394.16150665283203 L 474.78045654296875 386.16150665283203 Z" stroke-miterlimit="10" stroke-width="0.5" stroke-dasharray=""/><text fill="#505050" stroke="none" font-family="monospace" font-size="14px" font-style="normal" font-weight="normal" text-decoration="normal" x="490.78045654296875" y="399.16150665283203" text-anchor="start" dominant-baseline="text-after-edge">cond</text><path fill="none" stroke="#505050" paint-order="fill stroke markers" d=" M 458.78045654296875 402.16150665283203 L 466.78045654296875 402.16150665283203 L 466.78045654296875 410.16150665283203 L 458.78045654296875 410.16150665283203 L 458.78045654296875 402.16150665283203 Z" stroke-miterlimit="10" stroke-width="0.5" stroke-dasharray=""/><text fill="#505050" stroke="none" font-family="monospace" font-size="14px" font-style="normal" font-weight="normal" text-decoration="normal" x="474.78045654296875" y="416.16150665283203" text-anchor="start" dominant-baseline="text-after-edge">p</text><path fill="none" stroke="#505050" paint-order="fill stroke markers" d=" M 548.7804565429688 362.16150665283203 L 556.7804565429688 362.16150665283203 L 556.7804565429688 370.16150665283203 L 548.7804565429688 370.16150665283203 L 548.7804565429688 362.16150665283203 Z" stroke-miterlimit="10" stroke-width="0.5" stroke-dasharray=""/><text fill="#505050" stroke="none" font-family="monospace" font-size="14px" font-style="normal" font-weight="normal" text-decoration="normal" x="540.7804565429688" y="376.16150665283203" text-anchor="end" dominant-baseline="text-after-edge">p</text><path fill="none" stroke="none"/><path fill="white" stroke="#505050" paint-order="fill stroke markers" d=" M 342.43995666503906 333.9771919250488 L 400.43995666503906 333.9771919250488 L 400.43995666503906 371.9771919250488 L 342.43995666503906 371.9771919250488 L 350.43995666503906 352.9771919250488 L 342.43995666503906 333.9771919250488" stroke-miterlimit="10" stroke-width="0.5" stroke-dasharray=""/><path fill="#F0F0F0" stroke="none" paint-order="stroke fill markers" d=" M 358.43995666503906 337.9771919250488 L 400.43995666503906 337.9771919250488 L 400.43995666503906 367.9771919250488 L 358.43995666503906 367.9771919250488 L 358.43995666503906 337.9771919250488 Z"/><path fill="none" stroke="none"/><path fill="none" stroke="#505050" paint-order="fill stroke markers" d=" M 358.43995666503906 337.9771919250488 L 400.43995666503906 337.9771919250488 L 400.43995666503906 367.9771919250488 L 358.43995666503906 367.9771919250488 L 358.43995666503906 337.9771919250488 Z" stroke-miterlimit="10" stroke-width="0.5" stroke-dasharray=""/><path fill="none" stroke="none"/><text fill="#505050" stroke="none" font-family="monospace" font-size="14px" font-style="normal" font-weight="normal" text-decoration="normal" x="379.43995666503906" y="355.9771919250488" text-anchor="middle" dominant-baseline="text-after-edge">body</text><path fill="none" stroke="#505050" paint-order="fill stroke markers" d=" M 358.43995666503906 355.9771919250488 L 366.43995666503906 355.9771919250488 L 366.43995666503906 363.9771919250488 L 358.43995666503906 363.9771919250488 L 358.43995666503906 355.9771919250488 Z" stroke-miterlimit="10" stroke-width="0.5" stroke-dasharray=""/><path fill="none" stroke="#505050" paint-order="fill stroke markers" d=" M 392.43995666503906 355.9771919250488 L 400.43995666503906 355.9771919250488 L 400.43995666503906 363.9771919250488 L 392.43995666503906 363.9771919250488 L 392.43995666503906 355.9771919250488 Z" stroke-miterlimit="10" stroke-width="0.5" stroke-dasharray=""/><path fill="none" stroke="none"/><path fill="white" stroke="#505050" paint-order="fill stroke markers" d=" M 341.9086380004883 377.87403106689453 L 399.9086380004883 377.87403106689453 L 399.9086380004883 415.87403106689453 L 341.9086380004883 415.87403106689453 L 349.9086380004883 396.87403106689453 L 341.9086380004883 377.87403106689453" stroke-miterlimit="10" stroke-width="0.5" stroke-dasharray=""/><path fill="#F0F0F0" stroke="none" paint-order="stroke fill markers" d=" M 357.9086380004883 381.87403106689453 L 399.9086380004883 381.87403106689453 L 399.9086380004883 411.87403106689453 L 357.9086380004883 411.87403106689453 L 357.9086380004883 381.87403106689453 Z"/><path fill="none" stroke="none"/><path fill="none" stroke="#505050" paint-order="fill stroke markers" d=" M 357.9086380004883 381.87403106689453 L 399.9086380004883 381.87403106689453 L 399.9086380004883 411.87403106689453 L 357.9086380004883 411.87403106689453 L 357.9086380004883 381.87403106689453 Z" stroke-miterlimit="10" stroke-width="0.5" stroke-dasharray=""/><path fill="none" stroke="none"/><text fill="#505050" stroke="none" font-family="monospace" font-size="14px" font-style="normal" font-weight="normal" text-decoration="normal" x="378.9086380004883" y="399.87403106689453" text-anchor="middle" dominant-baseline="text-after-edge">test</text><path fill="none" stroke="#505050" paint-order="fill stroke markers" d=" M 357.9086380004883 399.87403106689453 L 365.9086380004883 399.87403106689453 L 365.9086380004883 407.87403106689453 L 357.9086380004883 407.87403106689453 L 357.9086380004883 399.87403106689453 Z" stroke-miterlimit="10" stroke-width="0.5" stroke-dasharray=""/><path fill="none" stroke="#505050" paint-order="fill stroke markers" d=" M 391.9086380004883 399.87403106689453 L 399.9086380004883 399.87403106689453 L 399.9086380004883 407.87403106689453 L 391.9086380004883 407.87403106689453 L 391.9086380004883 399.87403106689453 Z" stroke-miterlimit="10" stroke-width="0.5" stroke-dasharray=""/><path fill="white" stroke="#505050" paint-order="fill stroke markers" d=" M 450.3009796142578 472.8695869445801 L 492.3009796142578 472.8695869445801 L 492.3009796142578 502.8695869445801 L 450.3009796142578 502.8695869445801 L 450.3009796142578 472.8695869445801 Z" stroke-miterlimit="10" stroke-width="0.5" stroke-dasharray=""/><path fill="#F0F0F0" stroke="none" paint-order="stroke fill markers" d=""/><path fill="none" stroke="none"/><text fill="#505050" stroke="none" font-family="monospace" font-size="14px" font-style="normal" font-weight="normal" text-decoration="normal" x="471.3009796142578" y="490.8695869445801" text-anchor="middle" dominant-baseline="text-after-edge">body</text><path fill="none" stroke="#505050" paint-order="fill stroke markers" d=" M 450.3009796142578 490.8695869445801 L 458.3009796142578 490.8695869445801 L 458.3009796142578 498.8695869445801 L 450.3009796142578 498.8695869445801 L 450.3009796142578 490.8695869445801 Z" stroke-miterlimit="10" stroke-width="0.5" stroke-dasharray=""/><path fill="none" stroke="#505050" paint-order="fill stroke markers" d=" M 484.3009796142578 490.8695869445801 L 492.3009796142578 490.8695869445801 L 492.3009796142578 498.8695869445801 L 484.3009796142578 498.8695869445801 L 484.3009796142578 490.8695869445801 Z" stroke-miterlimit="10" stroke-width="0.5" stroke-dasharray=""/><path fill="white" stroke="#505050" paint-order="fill stroke markers" d=" M 403.0071487426758 419.7972717285156 L 445.0071487426758 419.7972717285156 L 445.0071487426758 449.7972717285156 L 403.0071487426758 449.7972717285156 L 403.0071487426758 419.7972717285156 Z" stroke-miterlimit="10" stroke-width="0.5" stroke-dasharray=""/><path fill="#F0F0F0" stroke="none" paint-order="stroke fill markers" d=""/><path fill="none" stroke="none"/><text fill="#505050" stroke="none" font-family="monospace" font-size="14px" font-style="normal" font-weight="normal" text-decoration="normal" x="424.0071487426758" y="437.7972717285156" text-anchor="middle" dominant-baseline="text-after-edge">test</text><path fill="none" stroke="#505050" paint-order="fill stroke markers" d=" M 403.0071487426758 437.7972717285156 L 411.0071487426758 437.7972717285156 L 411.0071487426758 445.7972717285156 L 403.0071487426758 445.7972717285156 L 403.0071487426758 437.7972717285156 Z" stroke-miterlimit="10" stroke-width="0.5" stroke-dasharray=""/><path fill="none" stroke="#505050" paint-order="fill stroke markers" d=" M 437.0071487426758 437.7972717285156 L 445.0071487426758 437.7972717285156 L 445.0071487426758 445.7972717285156 L 437.0071487426758 445.7972717285156 L 437.0071487426758 437.7972717285156 Z" stroke-miterlimit="10" stroke-width="0.5" stroke-dasharray=""/><path fill="white" stroke="#505050" paint-order="fill stroke markers" d=" M 339.5262756347656 115.70095443725586 L 339.5262756347656 280.44775390625 Q 339.5262756347656 288.44775390625 347.5262756347656 288.44775390625 L 651.6230773925781 288.44775390625 Q 659.6230773925781 288.44775390625 659.6230773925781 280.44775390625 L 659.6230773925781 115.70095443725586 Q 659.6230773925781 107.70095443725586 651.6230773925781 107.70095443725586 L 347.5262756347656 107.70095443725586 Q 339.5262756347656 107.70095443725586 339.5262756347656 115.70095443725586" stroke-miterlimit="10" stroke-width="0.5" stroke-dasharray=""/><path fill="#F0F0F0" stroke="#505050" paint-order="fill stroke markers" d=" M 577.6230773925781 115.70095443725586 L 659.6230773925781 115.70095443725586 L 659.6230773925781 185.70095443725586 L 577.6230773925781 185.70095443725586 L 577.6230773925781 115.70095443725586 Z" stroke-miterlimit="10" stroke-width="0.5" stroke-dasharray=""/><path fill="none" stroke="none"/><text fill="#505050" stroke="none" font-family="monospace" font-size="14px" font-style="normal" font-weight="normal" text-decoration="normal" x="618.6230773925781" y="133.70095443725586" text-anchor="middle" dominant-baseline="text-after-edge">do-while</text><path fill="none" stroke="#505050" paint-order="fill stroke markers" d=" M 577.6230773925781 133.70095443725586 L 601.6230773925781 133.70095443725586 L 601.6230773925781 149.70095443725586 L 577.6230773925781 149.70095443725586 L 577.6230773925781 133.70095443725586 Z" stroke-miterlimit="10" stroke-width="0.5" stroke-dasharray=""/><path fill="none" stroke="none"/><path fill="none" stroke="#505050" paint-order="fill stroke markers" d=" M 577.6230773925781 137.70095443725586 L 585.6230773925781 137.70095443725586 L 585.6230773925781 145.70095443725586 L 577.6230773925781 145.70095443725586 L 577.6230773925781 137.70095443725586 Z" stroke-miterlimit="10" stroke-width="0.5" stroke-dasharray=""/><path fill="none" stroke="#505050" paint-order="fill stroke markers" d=" M 593.6230773925781 137.70095443725586 L 601.6230773925781 137.70095443725586 L 601.6230773925781 145.70095443725586 L 593.6230773925781 145.70095443725586 L 593.6230773925781 137.70095443725586 Z" stroke-miterlimit="10" stroke-width="0.5" stroke-dasharray=""/><text fill="#505050" stroke="none" font-family="monospace" font-size="14px" font-style="normal" font-weight="normal" text-decoration="normal" x="609.6230773925781" y="150.70095443725586" text-anchor="start" dominant-baseline="text-after-edge">body</text><path fill="none" stroke="#505050" paint-order="fill stroke markers" d=" M 577.6230773925781 153.70095443725586 L 601.6230773925781 153.70095443725586 L 601.6230773925781 169.70095443725586 L 577.6230773925781 169.70095443725586 L 577.6230773925781 153.70095443725586 Z" stroke-miterlimit="10" stroke-width="0.5" stroke-dasharray=""/><path fill="none" stroke="none"/><path fill="none" stroke="#505050" paint-order="fill stroke markers" d=" M 577.6230773925781 157.70095443725586 L 585.6230773925781 157.70095443725586 L 585.6230773925781 165.70095443725586 L 577.6230773925781 165.70095443725586 L 577.6230773925781 157.70095443725586 Z" stroke-miterlimit="10" stroke-width="0.5" stroke-dasharray=""/><path fill="none" stroke="#505050" paint-order="fill stroke markers" d=" M 593.6230773925781 157.70095443725586 L 601.6230773925781 157.70095443725586 L 601.6230773925781 165.70095443725586 L 593.6230773925781 165.70095443725586 L 593.6230773925781 157.70095443725586 Z" stroke-miterlimit="10" stroke-width="0.5" stroke-dasharray=""/><text fill="#505050" stroke="none" font-family="monospace" font-size="14px" font-style="normal" font-weight="normal" text-decoration="normal" x="609.6230773925781" y="170.70095443725586" text-anchor="start" dominant-baseline="text-after-edge">test</text><path fill="none" stroke="#505050" paint-order="fill stroke markers" d=" M 577.6230773925781 173.70095443725586 L 585.6230773925781 173.70095443725586 L 585.6230773925781 181.70095443725586 L 577.6230773925781 181.70095443725586 L 577.6230773925781 173.70095443725586 Z" stroke-miterlimit="10" stroke-width="0.5" stroke-dasharray=""/><path fill="none" stroke="#505050" paint-order="fill stroke markers" d=" M 651.6230773925781 133.70095443725586 L 659.6230773925781 133.70095443725586 L 659.6230773925781 141.70095443725586 L 651.6230773925781 141.70095443725586 L 651.6230773925781 133.70095443725586 Z" stroke-miterlimit="10" stroke-width="0.5" stroke-dasharray=""/><path fill="white" stroke="#505050" paint-order="fill stroke markers" d=" M 347.9294128417969 252.81344985961914 L 363.9294128417969 252.81344985961914 L 363.9294128417969 268.81344985961914 L 347.9294128417969 268.81344985961914 L 355.9294128417969 260.81344985961914 L 347.9294128417969 252.81344985961914" stroke-miterlimit="10" stroke-width="0.5" stroke-dasharray=""/><path fill="none" stroke="none"/><path fill="none" stroke="#505050" paint-order="fill stroke markers" d=" M 363.9294128417969 260.81344985961914 A 4 4 0 1 0 363.92941084179705 260.8174498589525" stroke-miterlimit="10" stroke-width="0.5" stroke-dasharray=""/><path fill="white" stroke="#505050" paint-order="fill stroke markers" d=" M 591.1105651855469 232.1446189880371 L 599.1105651855469 232.1446189880371 L 607.1105651855469 240.1446189880371 L 599.1105651855469 248.1446189880371 L 591.1105651855469 248.1446189880371 L 591.1105651855469 232.1446189880371" stroke-miterlimit="10" stroke-width="0.5" stroke-dasharray=""/><path fill="none" stroke="none"/><path fill="none" stroke="#505050" paint-order="fill stroke markers" d=" M 599.1105651855469 240.1446189880371 A 4 4 0 1 0 599.110563185547 240.14861898737044" stroke-miterlimit="10" stroke-width="0.5" stroke-dasharray=""/><path fill="white" stroke="#505050" paint-order="fill stroke markers" d=" M 556.4387054443359 218.44775390625 L 580.4387054443359 218.44775390625 L 580.4387054443359 272.44775390625 L 556.4387054443359 272.44775390625 L 556.4387054443359 218.44775390625 Z" stroke-miterlimit="10" stroke-width="0.5" stroke-dasharray=""/><path fill="#F0F0F0" stroke="none" paint-order="stroke fill markers" d=""/><path fill="none" stroke="none"/><text fill="#505050" stroke="none" font-family="monospace" font-size="14px" font-style="normal" font-weight="normal" text-decoration="normal" x="568.4387054443359" y="236.44775390625" text-anchor="middle" dominant-baseline="text-after-edge">?</text><path fill="none" stroke="#505050" paint-order="fill stroke markers" d=" M 556.4387054443359 236.44775390625 L 564.4387054443359 236.44775390625 L 564.4387054443359 244.44775390625 L 556.4387054443359 244.44775390625 L 556.4387054443359 236.44775390625 Z" stroke-miterlimit="10" stroke-width="0.5" stroke-dasharray=""/><path fill="none" stroke="#505050" paint-order="fill stroke markers" d=" M 564.4387054443359 252.44775390625 A 4 4 0 1 0 564.438703444336 252.45175390558333" stroke-miterlimit="10" stroke-width="0.5" stroke-dasharray=""/><path fill="none" stroke="#505050" paint-order="fill stroke markers" d=" M 564.4387054443359 264.44775390625 A 4 4 0 1 0 564.438703444336 264.45175390558336" stroke-miterlimit="10" stroke-width="0.5" stroke-dasharray=""/><path fill="none" stroke="#505050" paint-order="fill stroke markers" d=" M 580.4387054443359 240.44775390625 A 4 4 0 1 0 580.438703444336 240.45175390558333" stroke-miterlimit="10" stroke-width="0.5" stroke-dasharray=""/><path fill="white" stroke="#505050" paint-order="fill stroke markers" d=" M 429.0949401855469 135.98521041870117 L 527.0949401855469 135.98521041870117 L 527.0949401855469 207.98521041870117 L 429.0949401855469 207.98521041870117 L 429.0949401855469 135.98521041870117 Z" stroke-miterlimit="10" stroke-width="0.5" stroke-dasharray=""/><path fill="#F0F0F0" stroke="none" paint-order="stroke fill markers" d=""/><path fill="none" stroke="none"/><text fill="#505050" stroke="none" font-family="monospace" font-size="14px" font-style="normal" font-weight="normal" text-decoration="normal" x="478.0949401855469" y="153.98521041870117" text-anchor="middle" dominant-baseline="text-after-edge">do-while</text><path fill="none" stroke="#505050" paint-order="fill stroke markers" d=" M 429.0949401855469 153.98521041870117 L 453.0949401855469 153.98521041870117 L 453.0949401855469 169.98521041870117 L 429.0949401855469 169.98521041870117 L 429.0949401855469 153.98521041870117 Z" stroke-miterlimit="10" stroke-width="0.5" stroke-dasharray=""/><path fill="none" stroke="none"/><path fill="none" stroke="#505050" paint-order="fill stroke markers" d=" M 429.0949401855469 157.98521041870117 L 437.0949401855469 157.98521041870117 L 437.0949401855469 165.98521041870117 L 429.0949401855469 165.98521041870117 L 429.0949401855469 157.98521041870117 Z" stroke-miterlimit="10" stroke-width="0.5" stroke-dasharray=""/><path fill="none" stroke="#505050" paint-order="fill stroke markers" d=" M 445.0949401855469 157.98521041870117 L 453.0949401855469 157.98521041870117 L 453.0949401855469 165.98521041870117 L 445.0949401855469 165.98521041870117 L 445.0949401855469 157.98521041870117 Z" stroke-miterlimit="10" stroke-width="0.5" stroke-dasharray=""/><text fill="#505050" stroke="none" font-family="monospace" font-size="14px" font-style="normal" font-weight="normal" text-decoration="normal" x="461.0949401855469" y="170.98521041870117" text-anchor="start" dominant-baseline="text-after-edge">body</text><path fill="none" stroke="#505050" paint-order="fill stroke markers" d=" M 429.0949401855469 173.98521041870117 L 453.0949401855469 173.98521041870117 L 453.0949401855469 189.98521041870117 L 429.0949401855469 189.98521041870117 L 429.0949401855469 173.98521041870117 Z" stroke-miterlimit="10" stroke-width="0.5" stroke-dasharray=""/><path fill="none" stroke="none"/><path fill="none" stroke="#505050" paint-order="fill stroke markers" d=" M 429.0949401855469 177.98521041870117 L 437.0949401855469 177.98521041870117 L 437.0949401855469 185.98521041870117 L 429.0949401855469 185.98521041870117 L 429.0949401855469 177.98521041870117 Z" stroke-miterlimit="10" stroke-width="0.5" stroke-dasharray=""/><path fill="none" stroke="#505050" paint-order="fill stroke markers" d=" M 445.0949401855469 177.98521041870117 L 453.0949401855469 177.98521041870117 L 453.0949401855469 185.98521041870117 L 445.0949401855469 185.98521041870117 L 445.0949401855469 177.98521041870117 Z" stroke-miterlimit="10" stroke-width="0.5" stroke-dasharray=""/><text fill="#505050" stroke="none" font-family="monospace" font-size="14px" font-style="normal" font-weight="normal" text-decoration="normal" x="461.0949401855469" y="190.98521041870117" text-anchor="start" dominant-baseline="text-after-edge">cond</text><path fill="none" stroke="#505050" paint-order="fill stroke markers" d=" M 429.0949401855469 193.98521041870117 L 437.0949401855469 193.98521041870117 L 437.0949401855469 201.98521041870117 L 429.0949401855469 201.98521041870117 L 429.0949401855469 193.98521041870117 Z" stroke-miterlimit="10" stroke-width="0.5" stroke-dasharray=""/><text fill="#505050" stroke="none" font-family="monospace" font-size="14px" font-style="normal" font-weight="normal" text-decoration="normal" x="445.0949401855469" y="207.98521041870117" text-anchor="start" dominant-baseline="text-after-edge">p</text><path fill="none" stroke="#505050" paint-order="fill stroke markers" d=" M 519.0949401855469 153.98521041870117 L 527.0949401855469 153.98521041870117 L 527.0949401855469 161.98521041870117 L 519.0949401855469 161.98521041870117 L 519.0949401855469 153.98521041870117 Z" stroke-miterlimit="10" stroke-width="0.5" stroke-dasharray=""/><text fill="#505050" stroke="none" font-family="monospace" font-size="14px" font-style="normal" font-weight="normal" text-decoration="normal" x="511.0949401855469" y="167.98521041870117" text-anchor="end" dominant-baseline="text-after-edge">p</text><path fill="none" stroke="none"/><path fill="white" stroke="#505050" paint-order="fill stroke markers" d=" M 343.85752868652344 130.41963958740234 L 401.85752868652344 130.41963958740234 L 401.85752868652344 168.41963958740234 L 343.85752868652344 168.41963958740234 L 351.85752868652344 149.41963958740234 L 343.85752868652344 130.41963958740234" stroke-miterlimit="10" stroke-width="0.5" stroke-dasharray=""/><path fill="#F0F0F0" stroke="none" paint-order="stroke fill markers" d=" M 359.85752868652344 134.41963958740234 L 401.85752868652344 134.41963958740234 L 401.85752868652344 164.41963958740234 L 359.85752868652344 164.41963958740234 L 359.85752868652344 134.41963958740234 Z"/><path fill="none" stroke="none"/><path fill="none" stroke="#505050" paint-order="fill stroke markers" d=" M 359.85752868652344 134.41963958740234 L 401.85752868652344 134.41963958740234 L 401.85752868652344 164.41963958740234 L 359.85752868652344 164.41963958740234 L 359.85752868652344 134.41963958740234 Z" stroke-miterlimit="10" stroke-width="0.5" stroke-dasharray=""/><path fill="none" stroke="none"/><text fill="#505050" stroke="none" font-family="monospace" font-size="14px" font-style="normal" font-weight="normal" text-decoration="normal" x="380.85752868652344" y="152.41963958740234" text-anchor="middle" dominant-baseline="text-after-edge">body</text><path fill="none" stroke="#505050" paint-order="fill stroke markers" d=" M 359.85752868652344 152.41963958740234 L 367.85752868652344 152.41963958740234 L 367.85752868652344 160.41963958740234 L 359.85752868652344 160.41963958740234 L 359.85752868652344 152.41963958740234 Z" stroke-miterlimit="10" stroke-width="0.5" stroke-dasharray=""/><path fill="none" stroke="#505050" paint-order="fill stroke markers" d=" M 393.85752868652344 152.41963958740234 L 401.85752868652344 152.41963958740234 L 401.85752868652344 160.41963958740234 L 393.85752868652344 160.41963958740234 L 393.85752868652344 152.41963958740234 Z" stroke-miterlimit="10" stroke-width="0.5" stroke-dasharray=""/><path fill="none" stroke="none"/><path fill="white" stroke="#505050" paint-order="fill stroke markers" d=" M 343.32621002197266 174.31647872924805 L 401.32621002197266 174.31647872924805 L 401.32621002197266 212.31647872924805 L 343.32621002197266 212.31647872924805 L 351.32621002197266 193.31647872924805 L 343.32621002197266 174.31647872924805" stroke-miterlimit="10" stroke-width="0.5" stroke-dasharray=""/><path fill="#F0F0F0" stroke="none" paint-order="stroke fill markers" d=" M 359.32621002197266 178.31647872924805 L 401.32621002197266 178.31647872924805 L 401.32621002197266 208.31647872924805 L 359.32621002197266 208.31647872924805 L 359.32621002197266 178.31647872924805 Z"/><path fill="none" stroke="none"/><path fill="none" stroke="#505050" paint-order="fill stroke markers" d=" M 359.32621002197266 178.31647872924805 L 401.32621002197266 178.31647872924805 L 401.32621002197266 208.31647872924805 L 359.32621002197266 208.31647872924805 L 359.32621002197266 178.31647872924805 Z" stroke-miterlimit="10" stroke-width="0.5" stroke-dasharray=""/><path fill="none" stroke="none"/><text fill="#505050" stroke="none" font-family="monospace" font-size="14px" font-style="normal" font-weight="normal" text-decoration="normal" x="380.32621002197266" y="196.31647872924805" text-anchor="middle" dominant-baseline="text-after-edge">test</text><path fill="none" stroke="#505050" paint-order="fill stroke markers" d=" M 359.32621002197266 196.31647872924805 L 367.32621002197266 196.31647872924805 L 367.32621002197266 204.31647872924805 L 359.32621002197266 204.31647872924805 L 359.32621002197266 196.31647872924805 Z" stroke-miterlimit="10" stroke-width="0.5" stroke-dasharray=""/><path fill="none" stroke="#505050" paint-order="fill stroke markers" d=" M 393.32621002197266 196.31647872924805 L 401.32621002197266 196.31647872924805 L 401.32621002197266 204.31647872924805 L 393.32621002197266 204.31647872924805 L 393.32621002197266 196.31647872924805 Z" stroke-miterlimit="10" stroke-width="0.5" stroke-dasharray=""/><path fill="white" stroke="#505050" paint-order="fill stroke markers" d=" M 463.6542739868164 219.48842239379883 L 505.6542739868164 219.48842239379883 L 505.6542739868164 249.48842239379883 L 463.6542739868164 249.48842239379883 L 463.6542739868164 219.48842239379883 Z" stroke-miterlimit="10" stroke-width="0.5" stroke-dasharray=""/><path fill="#F0F0F0" stroke="none" paint-order="stroke fill markers" d=""/><path fill="none" stroke="none"/><text fill="#505050" stroke="none" font-family="monospace" font-size="14px" font-style="normal" font-weight="normal" text-decoration="normal" x="484.6542739868164" y="237.48842239379883" text-anchor="middle" dominant-baseline="text-after-edge">test</text><path fill="none" stroke="#505050" paint-order="fill stroke markers" d=" M 463.6542739868164 237.48842239379883 L 471.6542739868164 237.48842239379883 L 471.6542739868164 245.48842239379883 L 463.6542739868164 245.48842239379883 L 463.6542739868164 237.48842239379883 Z" stroke-miterlimit="10" stroke-width="0.5" stroke-dasharray=""/><path fill="none" stroke="#505050" paint-order="fill stroke markers" d=" M 497.6542739868164 237.48842239379883 L 505.6542739868164 237.48842239379883 L 505.6542739868164 245.48842239379883 L 497.6542739868164 245.48842239379883 L 497.6542739868164 237.48842239379883 Z" stroke-miterlimit="10" stroke-width="0.5" stroke-dasharray=""/><path fill="white" stroke="#505050" paint-order="fill stroke markers" d=" M 393.69810485839844 239.23218536376953 L 435.69810485839844 239.23218536376953 L 435.69810485839844 269.23218536376953 L 393.69810485839844 269.23218536376953 L 393.69810485839844 239.23218536376953 Z" stroke-miterlimit="10" stroke-width="0.5" stroke-dasharray=""/><path fill="#F0F0F0" stroke="none" paint-order="stroke fill markers" d=""/><path fill="none" stroke="none"/><text fill="#505050" stroke="none" font-family="monospace" font-size="14px" font-style="normal" font-weight="normal" text-decoration="normal" x="414.69810485839844" y="257.23218536376953" text-anchor="middle" dominant-baseline="text-after-edge">body</text><path fill="none" stroke="#505050" paint-order="fill stroke markers" d=" M 393.69810485839844 257.23218536376953 L 401.69810485839844 257.23218536376953 L 401.69810485839844 265.23218536376953 L 393.69810485839844 265.23218536376953 L 393.69810485839844 257.23218536376953 Z" stroke-miterlimit="10" stroke-width="0.5" stroke-dasharray=""/><path fill="none" stroke="#505050" paint-order="fill stroke markers" d=" M 427.69810485839844 257.23218536376953 L 435.69810485839844 257.23218536376953 L 435.69810485839844 265.23218536376953 L 427.69810485839844 265.23218536376953 L 427.69810485839844 257.23218536376953 Z" stroke-miterlimit="10" stroke-width="0.5" stroke-dasharray=""/><path fill="white" stroke="#505050" paint-order="fill stroke markers" d=" M 342.16258573532104 46.29899787902832 L 342.16258573532104 76.29899787902832 Q 342.16258573532104 84.29899787902832 350.16258573532104 84.29899787902832 L 434.5681414604187 84.29899787902832 Q 442.5681414604187 84.29899787902832 442.5681414604187 76.29899787902832 L 442.5681414604187 46.29899787902832 Q 442.5681414604187 38.29899787902832 434.5681414604187 38.29899787902832 L 350.16258573532104 38.29899787902832 Q 342.16258573532104 38.29899787902832 342.16258573532104 46.29899787902832" stroke-miterlimit="10" stroke-width="0.5" stroke-dasharray=""/><path fill="#F0F0F0" stroke="#505050" paint-order="fill stroke markers" d=" M 400.5681414604187 46.29899787902832 L 442.5681414604187 46.29899787902832 L 442.5681414604187 76.29899787902832 L 400.5681414604187 76.29899787902832 L 400.5681414604187 46.29899787902832 Z" stroke-miterlimit="10" stroke-width="0.5" stroke-dasharray="6,3"/><path fill="none" stroke="none"/><text fill="#505050" stroke="none" font-family="monospace" font-size="14px" font-style="normal" font-weight="normal" text-decoration="normal" x="421.5681414604187" y="64.29899787902832" text-anchor="middle" dominant-baseline="text-after-edge">body</text><path fill="none" stroke="#505050" paint-order="fill stroke markers" d=" M 408.5681414604187 68.29899787902832 A 4 4 0 1 0 408.5681394604189 68.30299787836165" stroke-miterlimit="10" stroke-width="0.5"/><path fill="none" stroke="#505050" paint-order="fill stroke markers" d=" M 442.5681414604187 68.29899787902832 A 4 4 0 1 0 442.5681394604189 68.30299787836165" stroke-miterlimit="10" stroke-width="0.5"/><path fill="white" stroke="#505050" paint-order="fill stroke markers" d=" M 377.99715757369995 44.99928665161133 L 385.99715757369995 44.99928665161133 L 393.99715757369995 52.99928665161133 L 385.99715757369995 60.99928665161133 L 377.99715757369995 60.99928665161133 L 377.99715757369995 44.99928665161133" stroke-miterlimit="10" stroke-width="0.5"/><path fill="none" stroke="none"/><path fill="none" stroke="#505050" paint-order="fill stroke markers" d=" M 385.99715757369995 52.99928665161133 A 4 4 0 1 0 385.9971555737001 53.003286650944666" stroke-miterlimit="10" stroke-width="0.5"/><path fill="white" stroke="#505050" paint-order="fill stroke markers" d=" M 350.16258573532104 46.29899787902832 L 366.16258573532104 46.29899787902832 L 366.16258573532104 62.29899787902832 L 350.16258573532104 62.29899787902832 L 358.16258573532104 54.29899787902832 L 350.16258573532104 46.29899787902832" stroke-miterlimit="10" stroke-width="0.5"/><path fill="none" stroke="none"/><path fill="none" stroke="#505050" paint-order="fill stroke markers" d=" M 366.16258573532104 54.29899787902832 A 4 4 0 1 0 366.1625837353212 54.30299787836166" stroke-miterlimit="10" stroke-width="0.5"/><path fill="white" stroke="#505050" paint-order="fill stroke markers" d=" M 468.2315249443054 46.39133644104004 L 468.2315249443054 76.39133644104004 Q 468.2315249443054 84.39133644104004 476.2315249443054 84.39133644104004 L 560.6370806694031 84.39133644104004 Q 568.6370806694031 84.39133644104004 568.6370806694031 76.39133644104004 L 568.6370806694031 46.39133644104004 Q 568.6370806694031 38.39133644104004 560.6370806694031 38.39133644104004 L 476.2315249443054 38.39133644104004 Q 468.2315249443054 38.39133644104004 468.2315249443054 46.39133644104004" stroke-miterlimit="10" stroke-width="0.5"/><path fill="#F0F0F0" stroke="#505050" paint-order="fill stroke markers" d=" M 526.6370806694031 46.39133644104004 L 568.6370806694031 46.39133644104004 L 568.6370806694031 76.39133644104004 L 526.6370806694031 76.39133644104004 L 526.6370806694031 46.39133644104004 Z" stroke-miterlimit="10" stroke-width="0.5" stroke-dasharray="6,3"/><path fill="none" stroke="none"/><text fill="#505050" stroke="none" font-family="monospace" font-size="14px" font-style="normal" font-weight="normal" text-decoration="normal" x="547.6370806694031" y="64.39133644104004" text-anchor="middle" dominant-baseline="text-after-edge">test</text><path fill="none" stroke="#505050" paint-order="fill stroke markers" d=" M 534.6370806694031 68.39133644104004 A 4 4 0 1 0 534.6370786694032 68.39533644037337" stroke-miterlimit="10" stroke-width="0.5"/><path fill="none" stroke="#505050" paint-order="fill stroke markers" d=" M 568.6370806694031 68.39133644104004 A 4 4 0 1 0 568.6370786694032 68.39533644037337" stroke-miterlimit="10" stroke-width="0.5"/><path fill="white" stroke="#505050" paint-order="fill stroke markers" d=" M 504.0660967826843 45.09162521362305 L 512.0660967826843 45.09162521362305 L 520.0660967826843 53.09162521362305 L 512.0660967826843 61.09162521362305 L 504.0660967826843 61.09162521362305 L 504.0660967826843 45.09162521362305" stroke-miterlimit="10" stroke-width="0.5"/><path fill="none" stroke="none"/><path fill="none" stroke="#505050" paint-order="fill stroke markers" d=" M 512.0660967826843 53.09162521362305 A 4 4 0 1 0 512.0660947826844 53.095625212956385" stroke-miterlimit="10" stroke-width="0.5"/><path fill="white" stroke="#505050" paint-order="fill stroke markers" d=" M 476.2315249443054 46.39133644104004 L 492.2315249443054 46.39133644104004 L 492.2315249443054 62.39133644104004 L 476.2315249443054 62.39133644104004 L 484.2315249443054 54.39133644104004 L 476.2315249443054 46.39133644104004" stroke-miterlimit="10" stroke-width="0.5"/><path fill="none" stroke="none"/><path fill="none" stroke="#505050" paint-order="fill stroke markers" d=" M 492.2315249443054 54.39133644104004 A 4 4 0 1 0 492.2315229443056 54.39533644037338" stroke-miterlimit="10" stroke-width="0.5"/><path fill="none" stroke="none"/><path fill="none" stroke="#e0e0e0" paint-order="fill stroke markers" d=" M 404.43995666503906 352.9771919250488 C 450.83948412309235 352.9771919250488 399.9014521562045 501.8695869445801 446.3009796142578 501.8695869445801" stroke-miterlimit="10" stroke-width="2"/><path fill="none" stroke="none"/><path fill="none" stroke="#e0e0e0" paint-order="fill stroke markers" d=" M 403.9086380004883 396.87403106689453 C 419.55486043906484 396.87403106689453 383.3609263040992 448.7972717285156 399.0071487426758 448.7972717285156" stroke-miterlimit="10" stroke-width="2"/><path fill="none" stroke="none"/><path fill="none" stroke="#e0e0e0" paint-order="fill stroke markers" d=" M 405.32621002197266 193.31647872924805 C 428.55535919214947 193.31647872924805 436.4251248166396 248.48842239379883 459.6542739868164 248.48842239379883" stroke-miterlimit="10" stroke-width="2"/><path fill="none" stroke="none"/><path fill="none" stroke="#e0e0e0" paint-order="fill stroke markers" d=" M 405.85752868652344 149.41963958740234 C 441.82945275389363 149.41963958740234 353.72618079102824 268.23218536376953 389.69810485839844 268.23218536376953" stroke-miterlimit="10" stroke-width="2"/><path fill="none" stroke="#505050" paint-order="fill stroke markers" d=" M 445.0071487426758 441.7972717285156 C 488.6137115660557 441.7972717285156 546.7458694275966 443.4959373474121 590.3524322509766 443.4959373474121" stroke-miterlimit="10"/><path fill="none" stroke="#505050" paint-order="fill stroke markers" d=" M 363.0899658203125 466.4272766113281 C 390.6095104198415 466.4272766113281 422.7814350147288 494.8695869445801 450.3009796142578 494.8695869445801" stroke-miterlimit="10"/><path fill="none" stroke="#505050" paint-order="fill stroke markers" d=" M 614.3524322509766 443.4959373474121 C 617.555281498182 443.4959373474121 621.821442744982 443.1928024291992 625.0242919921875 443.1928024291992" stroke-miterlimit="10"/><path fill="none" stroke="#505050" paint-order="fill stroke markers" d=" M 556.7804565429688 366.16150665283203 C 585.4107661019264 366.16150665283203 561.722122692019 455.4959373474121 590.3524322509766 455.4959373474121" stroke-miterlimit="10"/><path fill="none" stroke="#505050" paint-order="fill stroke markers" d=" M 492.3009796142578 494.8695869445801 C 520.7500113700453 494.8695869445801 430.3314247871813 406.16150665283203 458.78045654296875 406.16150665283203" stroke-miterlimit="10"/><path fill="none" stroke="#505050" paint-order="fill stroke markers" d=" M 400.43995666503906 352.9771919250488 C 418.6855674764183 352.9771919250488 440.5348457315895 370.16150665283203 458.78045654296875 370.16150665283203" stroke-miterlimit="10"/><path fill="none" stroke="#505050" paint-order="fill stroke markers" d=" M 399.9086380004883 396.87403106689453 C 417.68461646092 396.87403106689453 441.00447808253705 390.16150665283203 458.78045654296875 390.16150665283203" stroke-miterlimit="10"/><path fill="none" stroke="#505050" paint-order="fill stroke markers" d=" M 363.0899658203125 466.4272766113281 C 377.16127268814216 466.4272766113281 388.9358418748461 441.7972717285156 403.0071487426758 441.7972717285156" stroke-miterlimit="10"/><path fill="none" stroke="#505050" paint-order="fill stroke markers" d=" M 363.0899658203125 466.4272766113281 C 431.26945952298365 466.4272766113281 522.1729385483054 467.4959373474121 590.3524322509766 467.4959373474121" stroke-miterlimit="10"/><path fill="none" stroke="#505050" paint-order="fill stroke markers" d=" M 505.6542739868164 241.48842239379883 C 520.8928018764389 241.48842239379883 541.2001775547135 240.44775390625 556.4387054443359 240.44775390625" stroke-miterlimit="10"/><path fill="none" stroke="#505050" paint-order="fill stroke markers" d=" M 435.69810485839844 261.23218536376953 C 445.9656615867345 261.23218536376953 453.38671725848036 241.48842239379883 463.6542739868164 241.48842239379883" stroke-miterlimit="10"/><path fill="none" stroke="#505050" paint-order="fill stroke markers" d=" M 363.9294128417969 260.81344985961914 C 372.8609039122819 260.81344985961914 384.7666137879134 261.23218536376953 393.69810485839844 261.23218536376953" stroke-miterlimit="10"/><path fill="none" stroke="#505050" paint-order="fill stroke markers" d=" M 580.4387054443359 240.44775390625 C 583.6415546915414 240.44775390625 587.9077159383414 240.1446189880371 591.1105651855469 240.1446189880371" stroke-miterlimit="10"/><path fill="none" stroke="#505050" paint-order="fill stroke markers" d=" M 435.69810485839844 261.23218536376953 C 471.9331283299154 261.23218536376953 520.203681972819 264.44775390625 556.4387054443359 264.44775390625" stroke-miterlimit="10"/><path fill="none" stroke="#505050" paint-order="fill stroke markers" d=" M 527.0949401855469 157.98521041870117 C 556.769518217138 157.98521041870117 526.7641274127448 252.44775390625 556.4387054443359 252.44775390625" stroke-miterlimit="10"/><path fill="none" stroke="#505050" paint-order="fill stroke markers" d=" M 435.69810485839844 261.23218536376953 C 454.7753254658638 261.23218536376953 410.01771957808154 197.98521041870117 429.0949401855469 197.98521041870117" stroke-miterlimit="10"/><path fill="none" stroke="#505050" paint-order="fill stroke markers" d=" M 401.85752868652344 149.41963958740234 C 410.85637939055874 149.41963958740234 420.09608948151157 161.98521041870117 429.0949401855469 161.98521041870117" stroke-miterlimit="10"/><path fill="none" stroke="#505050" paint-order="fill stroke markers" d=" M 401.32621002197266 193.31647872924805 C 410.3237097567918 193.31647872924805 420.09744045072773 181.98521041870117 429.0949401855469 181.98521041870117" stroke-miterlimit="10"/></g></g></svg>