<svg version="1.1" xmlns="http://www.w3.org/2000/svg" xmlns:xlink="http://www.w3.org/1999/xlink" width="532.9097547531128" height="647.3798999786377"><defs/><g transform="translate(-303.4993362426758,-26.786234855651855)"><g><path fill="white" stroke="#505050" paint-order="fill stroke markers" d=" M 364.0326564311981 35.786234855651855 L 364.0326564311981 172.0127878189087 Q 364.0326564311981 180.0127878189087 372.0326564311981 180.0127878189087 L 795.828768491745 180.0127878189087 Q 803.828768491745 180.0127878189087 803.828768491745 172.0127878189087 L 803.828768491745 35.786234855651855 Q 803.828768491745 27.786234855651855 795.828768491745 27.786234855651855 L 372.0326564311981 27.786234855651855 Q 364.0326564311981 27.786234855651855 364.0326564311981 35.786234855651855" stroke-miterlimit="10" stroke-width="0.5" stroke-dasharray=""/><path fill="#F0F0F0" stroke="#505050" paint-order="fill stroke markers" d=" M 660.828768491745 35.786234855651855 L 803.828768491745 35.786234855651855 L 803.828768491745 101.78623485565186 L 660.828768491745 101.78623485565186 L 660.828768491745 35.786234855651855 Z" stroke-miterlimit="10" stroke-width="0.5" stroke-dasharray=""/><text fill="#505050" stroke="none" font-family="monospace" font-size="14px" font-style="normal" font-weight="normal" text-decoration="normal" x="732.328768491745" y="53.786234855651855" text-anchor="middle" dominant-baseline="text-after-edge">for [start,end[+</text><path fill="none" stroke="#505050" paint-order="fill stroke markers" d=" M 660.828768491745 53.786234855651855 L 668.828768491745 53.786234855651855 L 668.828768491745 61.786234855651855 L 660.828768491745 61.786234855651855 L 660.828768491745 53.786234855651855 Z" stroke-miterlimit="10" stroke-width="0.5" stroke-dasharray=""/><text fill="#505050" stroke="none" font-family="monospace" font-size="14px" font-style="normal" font-weight="normal" text-decoration="normal" x="676.828768491745" y="67.78623485565186" text-anchor="start" dominant-baseline="text-after-edge">start</text><path fill="none" stroke="#505050" paint-order="fill stroke markers" d=" M 660.828768491745 67.78623485565186 L 668.828768491745 67.78623485565186 L 668.828768491745 75.78623485565186 L 660.828768491745 75.78623485565186 L 660.828768491745 67.78623485565186 Z" stroke-miterlimit="10" stroke-width="0.5" stroke-dasharray=""/><text fill="#505050" stroke="none" font-family="monospace" font-size="14px" font-style="normal" font-weight="normal" text-decoration="normal" x="676.828768491745" y="81.78623485565186" text-anchor="start" dominant-baseline="text-after-edge">end</text><path fill="none" stroke="#505050" paint-order="fill stroke markers" d=" M 660.828768491745 81.78623485565186 L 684.828768491745 81.78623485565186 L 684.828768491745 97.78623485565186 L 660.828768491745 97.78623485565186 L 660.828768491745 81.78623485565186 Z" stroke-miterlimit="10" stroke-width="0.5" stroke-dasharray=""/><path fill="none" stroke="#505050" paint-order="fill stroke markers" d=" M 660.828768491745 85.78623485565186 L 668.828768491745 85.78623485565186 L 668.828768491745 93.78623485565186 L 660.828768491745 93.78623485565186 L 660.828768491745 85.78623485565186 Z" stroke-miterlimit="10" stroke-width="0.5" stroke-dasharray=""/><path fill="none" stroke="#505050" paint-order="fill stroke markers" d=" M 676.828768491745 85.78623485565186 L 684.828768491745 85.78623485565186 L 684.828768491745 93.78623485565186 L 676.828768491745 93.78623485565186 L 676.828768491745 85.78623485565186 Z" stroke-miterlimit="10" stroke-width="0.5" stroke-dasharray=""/><text fill="#505050" stroke="none" font-family="monospace" font-size="14px" font-style="normal" font-weight="normal" text-decoration="normal" x="692.828768491745" y="98.78623485565186" text-anchor="start" dominant-baseline="text-after-edge">body</text><path fill="none" stroke="#505050" paint-order="fill stroke markers" d=" M 795.828768491745 53.786234855651855 L 803.828768491745 53.786234855651855 L 803.828768491745 61.786234855651855 L 795.828768491745 61.786234855651855 L 795.828768491745 53.786234855651855 Z" stroke-miterlimit="10" stroke-width="0.5" stroke-dasharray=""/><text fill="#505050" stroke="none" font-family="monospace" font-size="14px" font-style="normal" font-weight="normal" text-decoration="normal" x="787.828768491745" y="67.78623485565186" text-anchor="end" dominant-baseline="text-after-edge">p</text><path fill="white" stroke="#505050" paint-order="fill stroke markers" d=" M 448.6306788921356 38.058204650878906 L 514.6306788921356 38.058204650878906 L 514.6306788921356 56.058204650878906 L 448.6306788921356 56.058204650878906 L 456.6306788921356 47.058204650878906 L 448.6306788921356 38.058204650878906" stroke-miterlimit="10" stroke-width="0.5" stroke-dasharray=""/><path fill="none" stroke="#505050" paint-order="fill stroke markers" d=" M 506.6306788921356 42.058204650878906 L 514.6306788921356 42.058204650878906 L 514.6306788921356 50.058204650878906 L 506.6306788921356 50.058204650878906 L 506.6306788921356 42.058204650878906 Z" stroke-miterlimit="10" stroke-width="0.5" stroke-dasharray=""/><text fill="#505050" stroke="none" font-family="monospace" font-size="14px" font-style="normal" font-weight="normal" text-decoration="normal" x="498.6306788921356" y="56.058204650878906" text-anchor="end" dominant-baseline="text-after-edge">start</text><path fill="white" stroke="#505050" paint-order="fill stroke markers" d=" M 393.9878842830658 106.01278781890869 L 393.9878842830658 156.0127878189087 Q 393.9878842830658 164.0127878189087 401.9878842830658 164.0127878189087 L 511.03619360923767 164.0127878189087 Q 519.0361936092377 164.0127878189087 519.0361936092377 156.0127878189087 L 519.0361936092377 106.01278781890869 Q 519.0361936092377 98.01278781890869 511.03619360923767 98.01278781890869 L 401.9878842830658 98.01278781890869 Q 393.9878842830658 98.01278781890869 393.9878842830658 106.01278781890869" stroke-miterlimit="10" stroke-width="0.5" stroke-dasharray=""/><path fill="#F0F0F0" stroke="#505050" paint-order="fill stroke markers" d=" M 479.03619360923767 106.01278781890869 L 519.0361936092377 106.01278781890869 L 519.0361936092377 124.01278781890869 L 479.03619360923767 124.01278781890869 L 479.03619360923767 106.01278781890869 Z" stroke-miterlimit="10" stroke-width="0.5" stroke-dasharray=""/><path fill="none" stroke="#505050" paint-order="fill stroke markers" d=" M 479.03619360923767 110.01278781890869 L 487.03619360923767 110.01278781890869 L 487.03619360923767 118.01278781890869 L 479.03619360923767 118.01278781890869 L 479.03619360923767 110.01278781890869 Z" stroke-miterlimit="10" stroke-width="0.5" stroke-dasharray=""/><text fill="#505050" stroke="none" font-family="monospace" font-size="14px" font-style="normal" font-weight="normal" text-decoration="normal" x="495.03619360923767" y="124.01278781890869" text-anchor="start" dominant-baseline="text-after-edge">i</text><path fill="none" stroke="#505050" paint-order="fill stroke markers" d=" M 511.03619360923767 110.01278781890869 L 519.0361936092377 110.01278781890869 L 519.0361936092377 118.01278781890869 L 511.03619360923767 118.01278781890869 L 511.03619360923767 110.01278781890869 Z" stroke-miterlimit="10" stroke-width="0.5" stroke-dasharray=""/><path fill="white" stroke="#505050" paint-order="fill stroke markers" d=" M 450.40335059165955 106.01278781890869 L 474.40335059165955 106.01278781890869 L 474.40335059165955 148.0127878189087 L 450.40335059165955 148.0127878189087 L 450.40335059165955 106.01278781890869 Z" stroke-miterlimit="10" stroke-width="0.5" stroke-dasharray=""/><path fill="#F0F0F0" stroke="none" paint-order="stroke fill markers" d=""/><text fill="#505050" stroke="none" font-family="monospace" font-size="14px" font-style="normal" font-weight="normal" text-decoration="normal" x="462.40335059165955" y="124.01278781890869" text-anchor="middle" dominant-baseline="text-after-edge">&lt;</text><path fill="none" stroke="#505050" paint-order="fill stroke markers" d=" M 450.40335059165955 124.01278781890869 L 458.40335059165955 124.01278781890869 L 458.40335059165955 132.0127878189087 L 450.40335059165955 132.0127878189087 L 450.40335059165955 124.01278781890869 Z" stroke-miterlimit="10" stroke-width="0.5" stroke-dasharray=""/><path fill="none" stroke="#505050" paint-order="fill stroke markers" d=" M 450.40335059165955 136.0127878189087 L 458.40335059165955 136.0127878189087 L 458.40335059165955 144.0127878189087 L 450.40335059165955 144.0127878189087 L 450.40335059165955 136.0127878189087 Z" stroke-miterlimit="10" stroke-width="0.5" stroke-dasharray=""/><path fill="none" stroke="#505050" paint-order="fill stroke markers" d=" M 466.40335059165955 124.01278781890869 L 474.40335059165955 124.01278781890869 L 474.40335059165955 132.0127878189087 L 466.40335059165955 132.0127878189087 L 466.40335059165955 124.01278781890869 Z" stroke-miterlimit="10" stroke-width="0.5" stroke-dasharray=""/><path fill="white" stroke="#505050" paint-order="fill stroke markers" d=" M 401.9878842830658 120.37924480438232 L 433.9878842830658 120.37924480438232 L 433.9878842830658 138.37924480438232 L 401.9878842830658 138.37924480438232 L 409.9878842830658 129.37924480438232 L 401.9878842830658 120.37924480438232" stroke-miterlimit="10" stroke-width="0.5" stroke-dasharray=""/><path fill="none" stroke="#505050" paint-order="fill stroke markers" d=" M 425.9878842830658 124.37924480438232 L 433.9878842830658 124.37924480438232 L 433.9878842830658 132.37924480438232 L 425.9878842830658 132.37924480438232 L 425.9878842830658 124.37924480438232 Z" stroke-miterlimit="10" stroke-width="0.5" stroke-dasharray=""/><text fill="#505050" stroke="none" font-family="monospace" font-size="14px" font-style="normal" font-weight="normal" text-decoration="normal" x="417.9878842830658" y="138.37924480438232" text-anchor="end" dominant-baseline="text-after-edge">i</text><path fill="white" stroke="#505050" paint-order="fill stroke markers" d=" M 374.11153769493103 67.07319164276123 L 423.11153769493103 67.07319164276123 L 423.11153769493103 85.07319164276123 L 374.11153769493103 85.07319164276123 L 382.11153769493103 76.07319164276123 L 374.11153769493103 67.07319164276123" stroke-miterlimit="10" stroke-width="0.5" stroke-dasharray=""/><path fill="none" stroke="#505050" paint-order="fill stroke markers" d=" M 415.11153769493103 71.07319164276123 L 423.11153769493103 71.07319164276123 L 423.11153769493103 79.07319164276123 L 415.11153769493103 79.07319164276123 L 415.11153769493103 71.07319164276123 Z" stroke-miterlimit="10" stroke-width="0.5" stroke-dasharray=""/><text fill="#505050" stroke="none" font-family="monospace" font-size="14px" font-style="normal" font-weight="normal" text-decoration="normal" x="407.11153769493103" y="85.07319164276123" text-anchor="end" dominant-baseline="text-after-edge">end</text><path fill="white" stroke="#505050" paint-order="fill stroke markers" d=" M 549.1866481304169 68.79050731658936 L 647.1866481304169 68.79050731658936 L 647.1866481304169 140.79050731658936 L 549.1866481304169 140.79050731658936 L 549.1866481304169 68.79050731658936 Z" stroke-miterlimit="10" stroke-width="0.5" stroke-dasharray=""/><path fill="#F0F0F0" stroke="none" paint-order="stroke fill markers" d=""/><text fill="#505050" stroke="none" font-family="monospace" font-size="14px" font-style="normal" font-weight="normal" text-decoration="normal" x="598.1866481304169" y="86.79050731658936" text-anchor="middle" dominant-baseline="text-after-edge">while-do</text><path fill="none" stroke="#505050" paint-order="fill stroke markers" d=" M 549.1866481304169 86.79050731658936 L 573.1866481304169 86.79050731658936 L 573.1866481304169 102.79050731658936 L 549.1866481304169 102.79050731658936 L 549.1866481304169 86.79050731658936 Z" stroke-miterlimit="10" stroke-width="0.5" stroke-dasharray=""/><path fill="none" stroke="#505050" paint-order="fill stroke markers" d=" M 549.1866481304169 90.79050731658936 L 557.1866481304169 90.79050731658936 L 557.1866481304169 98.79050731658936 L 549.1866481304169 98.79050731658936 L 549.1866481304169 90.79050731658936 Z" stroke-miterlimit="10" stroke-width="0.5" stroke-dasharray=""/><path fill="none" stroke="#505050" paint-order="fill stroke markers" d=" M 565.1866481304169 90.79050731658936 L 573.1866481304169 90.79050731658936 L 573.1866481304169 98.79050731658936 L 565.1866481304169 98.79050731658936 L 565.1866481304169 90.79050731658936 Z" stroke-miterlimit="10" stroke-width="0.5" stroke-dasharray=""/><text fill="#505050" stroke="none" font-family="monospace" font-size="14px" font-style="normal" font-weight="normal" text-decoration="normal" x="581.1866481304169" y="103.79050731658936" text-anchor="start" dominant-baseline="text-after-edge">body</text><path fill="none" stroke="#505050" paint-order="fill stroke markers" d=" M 549.1866481304169 106.79050731658936 L 573.1866481304169 106.79050731658936 L 573.1866481304169 122.79050731658936 L 549.1866481304169 122.79050731658936 L 549.1866481304169 106.79050731658936 Z" stroke-miterlimit="10" stroke-width="0.5" stroke-dasharray=""/><path fill="none" stroke="#505050" paint-order="fill stroke markers" d=" M 549.1866481304169 110.79050731658936 L 557.1866481304169 110.79050731658936 L 557.1866481304169 118.79050731658936 L 549.1866481304169 118.79050731658936 L 549.1866481304169 110.79050731658936 Z" stroke-miterlimit="10" stroke-width="0.5" stroke-dasharray=""/><path fill="none" stroke="#505050" paint-order="fill stroke markers" d=" M 565.1866481304169 110.79050731658936 L 573.1866481304169 110.79050731658936 L 573.1866481304169 118.79050731658936 L 565.1866481304169 118.79050731658936 L 565.1866481304169 110.79050731658936 Z" stroke-miterlimit="10" stroke-width="0.5" stroke-dasharray=""/><text fill="#505050" stroke="none" font-family="monospace" font-size="14px" font-style="normal" font-weight="normal" text-decoration="normal" x="581.1866481304169" y="123.79050731658936" text-anchor="start" dominant-baseline="text-after-edge">cond</text><path fill="none" stroke="#505050" paint-order="fill stroke markers" d=" M 549.1866481304169 126.79050731658936 L 557.1866481304169 126.79050731658936 L 557.1866481304169 134.79050731658936 L 549.1866481304169 134.79050731658936 L 549.1866481304169 126.79050731658936 Z" stroke-miterlimit="10" stroke-width="0.5" stroke-dasharray=""/><text fill="#505050" stroke="none" font-family="monospace" font-size="14px" font-style="normal" font-weight="normal" text-decoration="normal" x="565.1866481304169" y="140.79050731658936" text-anchor="start" dominant-baseline="text-after-edge">p</text><path fill="none" stroke="#505050" paint-order="fill stroke markers" d=" M 639.1866481304169 86.79050731658936 L 647.1866481304169 86.79050731658936 L 647.1866481304169 94.79050731658936 L 639.1866481304169 94.79050731658936 L 639.1866481304169 86.79050731658936 Z" stroke-miterlimit="10" stroke-width="0.5" stroke-dasharray=""/><text fill="#505050" stroke="none" font-family="monospace" font-size="14px" font-style="normal" font-weight="normal" text-decoration="normal" x="631.1866481304169" y="100.79050731658936" text-anchor="end" dominant-baseline="text-after-edge">p</text><path fill="white" stroke="#505050" paint-order="fill stroke markers" d=" M 364.36999773979187 212.5653486251831 L 364.36999773979187 348.79190158843994 Q 364.36999773979187 356.79190158843994 372.36999773979187 356.79190158843994 L 796.1661098003387 356.79190158843994 Q 804.1661098003387 356.79190158843994 804.1661098003387 348.79190158843994 L 804.1661098003387 212.5653486251831 Q 804.1661098003387 204.5653486251831 796.1661098003387 204.5653486251831 L 372.36999773979187 204.5653486251831 Q 364.36999773979187 204.5653486251831 364.36999773979187 212.5653486251831" stroke-miterlimit="10" stroke-width="0.5" stroke-dasharray=""/><path fill="#F0F0F0" stroke="#505050" paint-order="fill stroke markers" d=" M 661.1661098003387 212.5653486251831 L 804.1661098003387 212.5653486251831 L 804.1661098003387 278.5653486251831 L 661.1661098003387 278.5653486251831 L 661.1661098003387 212.5653486251831 Z" stroke-miterlimit="10" stroke-width="0.5" stroke-dasharray=""/><text fill="#505050" stroke="none" font-family="monospace" font-size="14px" font-style="normal" font-weight="normal" text-decoration="normal" x="732.6661098003387" y="230.5653486251831" text-anchor="middle" dominant-baseline="text-after-edge">for [start,end]-</text><path fill="none" stroke="#505050" paint-order="fill stroke markers" d=" M 661.1661098003387 230.5653486251831 L 669.1661098003387 230.5653486251831 L 669.1661098003387 238.5653486251831 L 661.1661098003387 238.5653486251831 L 661.1661098003387 230.5653486251831 Z" stroke-miterlimit="10" stroke-width="0.5" stroke-dasharray=""/><text fill="#505050" stroke="none" font-family="monospace" font-size="14px" font-style="normal" font-weight="normal" text-decoration="normal" x="677.1661098003387" y="244.5653486251831" text-anchor="start" dominant-baseline="text-after-edge">start</text><path fill="none" stroke="#505050" paint-order="fill stroke markers" d=" M 661.1661098003387 244.5653486251831 L 669.1661098003387 244.5653486251831 L 669.1661098003387 252.5653486251831 L 661.1661098003387 252.5653486251831 L 661.1661098003387 244.5653486251831 Z" stroke-miterlimit="10" stroke-width="0.5" stroke-dasharray=""/><text fill="#505050" stroke="none" font-family="monospace" font-size="14px" font-style="normal" font-weight="normal" text-decoration="normal" x="677.1661098003387" y="258.5653486251831" text-anchor="start" dominant-baseline="text-after-edge">end</text><path fill="none" stroke="#505050" paint-order="fill stroke markers" d=" M 661.1661098003387 258.5653486251831 L 685.1661098003387 258.5653486251831 L 685.1661098003387 274.5653486251831 L 661.1661098003387 274.5653486251831 L 661.1661098003387 258.5653486251831 Z" stroke-miterlimit="10" stroke-width="0.5" stroke-dasharray=""/><path fill="none" stroke="#505050" paint-order="fill stroke markers" d=" M 661.1661098003387 262.5653486251831 L 669.1661098003387 262.5653486251831 L 669.1661098003387 270.5653486251831 L 661.1661098003387 270.5653486251831 L 661.1661098003387 262.5653486251831 Z" stroke-miterlimit="10" stroke-width="0.5" stroke-dasharray=""/><path fill="none" stroke="#505050" paint-order="fill stroke markers" d=" M 677.1661098003387 262.5653486251831 L 685.1661098003387 262.5653486251831 L 685.1661098003387 270.5653486251831 L 677.1661098003387 270.5653486251831 L 677.1661098003387 262.5653486251831 Z" stroke-miterlimit="10" stroke-width="0.5" stroke-dasharray=""/><text fill="#505050" stroke="none" font-family="monospace" font-size="14px" font-style="normal" font-weight="normal" text-decoration="normal" x="693.1661098003387" y="275.5653486251831" text-anchor="start" dominant-baseline="text-after-edge">body</text><path fill="none" stroke="#505050" paint-order="fill stroke markers" d=" M 796.1661098003387 230.5653486251831 L 804.1661098003387 230.5653486251831 L 804.1661098003387 238.5653486251831 L 796.1661098003387 238.5653486251831 L 796.1661098003387 230.5653486251831 Z" stroke-miterlimit="10" stroke-width="0.5" stroke-dasharray=""/><text fill="#505050" stroke="none" font-family="monospace" font-size="14px" font-style="normal" font-weight="normal" text-decoration="normal" x="788.1661098003387" y="244.5653486251831" text-anchor="end" dominant-baseline="text-after-edge">p</text><path fill="white" stroke="#505050" paint-order="fill stroke markers" d=" M 448.96802020072937 214.83731842041016 L 514.9680202007294 214.83731842041016 L 514.9680202007294 232.83731842041016 L 448.96802020072937 232.83731842041016 L 456.96802020072937 223.83731842041016 L 448.96802020072937 214.83731842041016" stroke-miterlimit="10" stroke-width="0.5" stroke-dasharray=""/><path fill="none" stroke="#505050" paint-order="fill stroke markers" d=" M 506.96802020072937 218.83731842041016 L 514.9680202007294 218.83731842041016 L 514.9680202007294 226.83731842041016 L 506.96802020072937 226.83731842041016 L 506.96802020072937 218.83731842041016 Z" stroke-miterlimit="10" stroke-width="0.5" stroke-dasharray=""/><text fill="#505050" stroke="none" font-family="monospace" font-size="14px" font-style="normal" font-weight="normal" text-decoration="normal" x="498.96802020072937" y="232.83731842041016" text-anchor="end" dominant-baseline="text-after-edge">start</text><path fill="white" stroke="#505050" paint-order="fill stroke markers" d=" M 394.32522559165955 282.79190158843994 L 394.32522559165955 332.79190158843994 Q 394.32522559165955 340.79190158843994 402.32522559165955 340.79190158843994 L 511.3735349178314 340.79190158843994 Q 519.3735349178314 340.79190158843994 519.3735349178314 332.79190158843994 L 519.3735349178314 282.79190158843994 Q 519.3735349178314 274.79190158843994 511.3735349178314 274.79190158843994 L 402.32522559165955 274.79190158843994 Q 394.32522559165955 274.79190158843994 394.32522559165955 282.79190158843994" stroke-miterlimit="10" stroke-width="0.5" stroke-dasharray=""/><path fill="#F0F0F0" stroke="#505050" paint-order="fill stroke markers" d=" M 479.3735349178314 282.79190158843994 L 519.3735349178314 282.79190158843994 L 519.3735349178314 300.79190158843994 L 479.3735349178314 300.79190158843994 L 479.3735349178314 282.79190158843994 Z" stroke-miterlimit="10" stroke-width="0.5" stroke-dasharray=""/><path fill="none" stroke="#505050" paint-order="fill stroke markers" d=" M 479.3735349178314 286.79190158843994 L 487.3735349178314 286.79190158843994 L 487.3735349178314 294.79190158843994 L 479.3735349178314 294.79190158843994 L 479.3735349178314 286.79190158843994 Z" stroke-miterlimit="10" stroke-width="0.5" stroke-dasharray=""/><text fill="#505050" stroke="none" font-family="monospace" font-size="14px" font-style="normal" font-weight="normal" text-decoration="normal" x="495.3735349178314" y="300.79190158843994" text-anchor="start" dominant-baseline="text-after-edge">i</text><path fill="none" stroke="#505050" paint-order="fill stroke markers" d=" M 511.3735349178314 286.79190158843994 L 519.3735349178314 286.79190158843994 L 519.3735349178314 294.79190158843994 L 511.3735349178314 294.79190158843994 L 511.3735349178314 286.79190158843994 Z" stroke-miterlimit="10" stroke-width="0.5" stroke-dasharray=""/><path fill="white" stroke="#505050" paint-order="fill stroke markers" d=" M 450.7406919002533 282.79190158843994 L 475.7406919002533 282.79190158843994 L 475.7406919002533 324.79190158843994 L 450.7406919002533 324.79190158843994 L 450.7406919002533 282.79190158843994 Z" stroke-miterlimit="10" stroke-width="0.5" stroke-dasharray=""/><path fill="#F0F0F0" stroke="none" paint-order="stroke fill markers" d=""/><text fill="#505050" stroke="none" font-family="monospace" font-size="14px" font-style="normal" font-weight="normal" text-decoration="normal" x="463.2406919002533" y="300.79190158843994" text-anchor="middle" dominant-baseline="text-after-edge">&gt;=</text><path fill="none" stroke="#505050" paint-order="fill stroke markers" d=" M 450.7406919002533 300.79190158843994 L 458.7406919002533 300.79190158843994 L 458.7406919002533 308.79190158843994 L 450.7406919002533 308.79190158843994 L 450.7406919002533 300.79190158843994 Z" stroke-miterlimit="10" stroke-width="0.5" stroke-dasharray=""/><path fill="none" stroke="#505050" paint-order="fill stroke markers" d=" M 450.7406919002533 312.79190158843994 L 458.7406919002533 312.79190158843994 L 458.7406919002533 320.79190158843994 L 450.7406919002533 320.79190158843994 L 450.7406919002533 312.79190158843994 Z" stroke-miterlimit="10" stroke-width="0.5" stroke-dasharray=""/><path fill="none" stroke="#505050" paint-order="fill stroke markers" d=" M 467.7406919002533 300.79190158843994 L 475.7406919002533 300.79190158843994 L 475.7406919002533 308.79190158843994 L 467.7406919002533 308.79190158843994 L 467.7406919002533 300.79190158843994 Z" stroke-miterlimit="10" stroke-width="0.5" stroke-dasharray=""/><path fill="white" stroke="#505050" paint-order="fill stroke markers" d=" M 402.32522559165955 297.1583585739136 L 434.32522559165955 297.1583585739136 L 434.32522559165955 315.1583585739136 L 402.32522559165955 315.1583585739136 L 410.32522559165955 306.1583585739136 L 402.32522559165955 297.1583585739136" stroke-miterlimit="10" stroke-width="0.5" stroke-dasharray=""/><path fill="none" stroke="#505050" paint-order="fill stroke markers" d=" M 426.32522559165955 301.1583585739136 L 434.32522559165955 301.1583585739136 L 434.32522559165955 309.1583585739136 L 426.32522559165955 309.1583585739136 L 426.32522559165955 301.1583585739136 Z" stroke-miterlimit="10" stroke-width="0.5" stroke-dasharray=""/><text fill="#505050" stroke="none" font-family="monospace" font-size="14px" font-style="normal" font-weight="normal" text-decoration="normal" x="418.32522559165955" y="315.1583585739136" text-anchor="end" dominant-baseline="text-after-edge">i</text><path fill="white" stroke="#505050" paint-order="fill stroke markers" d=" M 374.4488790035248 243.85230541229248 L 423.4488790035248 243.85230541229248 L 423.4488790035248 261.8523054122925 L 374.4488790035248 261.8523054122925 L 382.4488790035248 252.85230541229248 L 374.4488790035248 243.85230541229248" stroke-miterlimit="10" stroke-width="0.5" stroke-dasharray=""/><path fill="none" stroke="#505050" paint-order="fill stroke markers" d=" M 415.4488790035248 247.85230541229248 L 423.4488790035248 247.85230541229248 L 423.4488790035248 255.85230541229248 L 415.4488790035248 255.85230541229248 L 415.4488790035248 247.85230541229248 Z" stroke-miterlimit="10" stroke-width="0.5" stroke-dasharray=""/><text fill="#505050" stroke="none" font-family="monospace" font-size="14px" font-style="normal" font-weight="normal" text-decoration="normal" x="407.4488790035248" y="261.8523054122925" text-anchor="end" dominant-baseline="text-after-edge">end</text><path fill="white" stroke="#505050" paint-order="fill stroke markers" d=" M 549.5239894390106 245.5696210861206 L 647.5239894390106 245.5696210861206 L 647.5239894390106 317.5696210861206 L 549.5239894390106 317.5696210861206 L 549.5239894390106 245.5696210861206 Z" stroke-miterlimit="10" stroke-width="0.5" stroke-dasharray=""/><path fill="#F0F0F0" stroke="none" paint-order="stroke fill markers" d=""/><text fill="#505050" stroke="none" font-family="monospace" font-size="14px" font-style="normal" font-weight="normal" text-decoration="normal" x="598.5239894390106" y="263.5696210861206" text-anchor="middle" dominant-baseline="text-after-edge">while-do</text><path fill="none" stroke="#505050" paint-order="fill stroke markers" d=" M 549.5239894390106 263.5696210861206 L 573.5239894390106 263.5696210861206 L 573.5239894390106 279.5696210861206 L 549.5239894390106 279.5696210861206 L 549.5239894390106 263.5696210861206 Z" stroke-miterlimit="10" stroke-width="0.5" stroke-dasharray=""/><path fill="none" stroke="#505050" paint-order="fill stroke markers" d=" M 549.5239894390106 267.5696210861206 L 557.5239894390106 267.5696210861206 L 557.5239894390106 275.5696210861206 L 549.5239894390106 275.5696210861206 L 549.5239894390106 267.5696210861206 Z" stroke-miterlimit="10" stroke-width="0.5" stroke-dasharray=""/><path fill="none" stroke="#505050" paint-order="fill stroke markers" d=" M 565.5239894390106 267.5696210861206 L 573.5239894390106 267.5696210861206 L 573.5239894390106 275.5696210861206 L 565.5239894390106 275.5696210861206 L 565.5239894390106 267.5696210861206 Z" stroke-miterlimit="10" stroke-width="0.5" stroke-dasharray=""/><text fill="#505050" stroke="none" font-family="monospace" font-size="14px" font-style="normal" font-weight="normal" text-decoration="normal" x="581.5239894390106" y="280.5696210861206" text-anchor="start" dominant-baseline="text-after-edge">body</text><path fill="none" stroke="#505050" paint-order="fill stroke markers" d=" M 549.5239894390106 283.5696210861206 L 573.5239894390106 283.5696210861206 L 573.5239894390106 299.5696210861206 L 549.5239894390106 299.5696210861206 L 549.5239894390106 283.5696210861206 Z" stroke-miterlimit="10" stroke-width="0.5" stroke-dasharray=""/><path fill="none" stroke="#505050" paint-order="fill stroke markers" d=" M 549.5239894390106 287.5696210861206 L 557.5239894390106 287.5696210861206 L 557.5239894390106 295.5696210861206 L 549.5239894390106 295.5696210861206 L 549.5239894390106 287.5696210861206 Z" stroke-miterlimit="10" stroke-width="0.5" stroke-dasharray=""/><path fill="none" stroke="#505050" paint-order="fill stroke markers" d=" M 565.5239894390106 287.5696210861206 L 573.5239894390106 287.5696210861206 L 573.5239894390106 295.5696210861206 L 565.5239894390106 295.5696210861206 L 565.5239894390106 287.5696210861206 Z" stroke-miterlimit="10" stroke-width="0.5" stroke-dasharray=""/><text fill="#505050" stroke="none" font-family="monospace" font-size="14px" font-style="normal" font-weight="normal" text-decoration="normal" x="581.5239894390106" y="300.5696210861206" text-anchor="start" dominant-baseline="text-after-edge">cond</text><path fill="none" stroke="#505050" paint-order="fill stroke markers" d=" M 549.5239894390106 303.5696210861206 L 557.5239894390106 303.5696210861206 L 557.5239894390106 311.5696210861206 L 549.5239894390106 311.5696210861206 L 549.5239894390106 303.5696210861206 Z" stroke-miterlimit="10" stroke-width="0.5" stroke-dasharray=""/><text fill="#505050" stroke="none" font-family="monospace" font-size="14px" font-style="normal" font-weight="normal" text-decoration="normal" x="565.5239894390106" y="317.5696210861206" text-anchor="start" dominant-baseline="text-after-edge">p</text><path fill="none" stroke="#505050" paint-order="fill stroke markers" d=" M 639.5239894390106 263.5696210861206 L 647.5239894390106 263.5696210861206 L 647.5239894390106 271.5696210861206 L 639.5239894390106 271.5696210861206 L 639.5239894390106 263.5696210861206 Z" stroke-miterlimit="10" stroke-width="0.5" stroke-dasharray=""/><text fill="#505050" stroke="none" font-family="monospace" font-size="14px" font-style="normal" font-weight="normal" text-decoration="normal" x="631.5239894390106" y="277.5696210861206" text-anchor="end" dominant-baseline="text-after-edge">p</text><path fill="white" stroke="#505050" paint-order="fill stroke markers" d=" M 401.1178779602051 381.8351640701294 L 401.1178779602051 491.51272678375244 Q 401.1178779602051 499.51272678375244 409.1178779602051 499.51272678375244 L 741.3159980773926 499.51272678375244 Q 749.3159980773926 499.51272678375244 749.3159980773926 491.51272678375244 L 749.3159980773926 381.8351640701294 Q 749.3159980773926 373.8351640701294 741.3159980773926 373.8351640701294 L 409.1178779602051 373.8351640701294 Q 401.1178779602051 373.8351640701294 401.1178779602051 381.8351640701294" stroke-miterlimit="10" stroke-width="0.5" stroke-dasharray=""/><path fill="#F0F0F0" stroke="#505050" paint-order="fill stroke markers" d=" M 677.3159980773926 381.8351640701294 L 749.3159980773926 381.8351640701294 L 749.3159980773926 443.8351640701294 L 677.3159980773926 443.8351640701294 L 677.3159980773926 381.8351640701294 Z" stroke-miterlimit="10" stroke-width="0.5" stroke-dasharray=""/><text fill="#505050" stroke="none" font-family="monospace" font-size="14px" font-style="normal" font-weight="normal" text-decoration="normal" x="713.3159980773926" y="399.8351640701294" text-anchor="middle" dominant-baseline="text-after-edge">acc</text><path fill="none" stroke="#505050" paint-order="fill stroke markers" d=" M 677.3159980773926 399.8351640701294 L 701.3159980773926 399.8351640701294 L 701.3159980773926 427.8351640701294 L 677.3159980773926 427.8351640701294 L 677.3159980773926 399.8351640701294 Z" stroke-miterlimit="10" stroke-width="0.5" stroke-dasharray=""/><path fill="none" stroke="#505050" paint-order="fill stroke markers" d=" M 677.3159980773926 403.8351640701294 L 685.3159980773926 403.8351640701294 L 685.3159980773926 411.8351640701294 L 677.3159980773926 411.8351640701294 L 677.3159980773926 403.8351640701294 Z" stroke-miterlimit="10" stroke-width="0.5" stroke-dasharray=""/><path fill="none" stroke="#505050" paint-order="fill stroke markers" d=" M 677.3159980773926 415.8351640701294 L 685.3159980773926 415.8351640701294 L 685.3159980773926 423.8351640701294 L 677.3159980773926 423.8351640701294 L 677.3159980773926 415.8351640701294 Z" stroke-miterlimit="10" stroke-width="0.5" stroke-dasharray=""/><path fill="none" stroke="#505050" paint-order="fill stroke markers" d=" M 693.3159980773926 403.8351640701294 L 701.3159980773926 403.8351640701294 L 701.3159980773926 411.8351640701294 L 693.3159980773926 411.8351640701294 L 693.3159980773926 403.8351640701294 Z" stroke-miterlimit="10" stroke-width="0.5" stroke-dasharray=""/><text fill="#505050" stroke="none" font-family="monospace" font-size="14px" font-style="normal" font-weight="normal" text-decoration="normal" x="709.3159980773926" y="422.8351640701294" text-anchor="start" dominant-baseline="text-after-edge">f</text><path fill="none" stroke="#505050" paint-order="fill stroke markers" d=" M 677.3159980773926 431.8351640701294 L 685.3159980773926 431.8351640701294 L 685.3159980773926 439.8351640701294 L 677.3159980773926 439.8351640701294 L 677.3159980773926 431.8351640701294 Z" stroke-miterlimit="10" stroke-width="0.5" stroke-dasharray=""/><path fill="none" stroke="#505050" paint-order="fill stroke markers" d=" M 725.3159980773926 399.8351640701294 L 749.3159980773926 399.8351640701294 L 749.3159980773926 415.8351640701294 L 725.3159980773926 415.8351640701294 L 725.3159980773926 399.8351640701294 Z" stroke-miterlimit="10" stroke-width="0.5" stroke-dasharray=""/><path fill="none" stroke="#505050" paint-order="fill stroke markers" d=" M 725.3159980773926 403.8351640701294 L 733.3159980773926 403.8351640701294 L 733.3159980773926 411.8351640701294 L 725.3159980773926 411.8351640701294 L 725.3159980773926 403.8351640701294 Z" stroke-miterlimit="10" stroke-width="0.5" stroke-dasharray=""/><path fill="none" stroke="#505050" paint-order="fill stroke markers" d=" M 741.3159980773926 403.8351640701294 L 749.3159980773926 403.8351640701294 L 749.3159980773926 411.8351640701294 L 741.3159980773926 411.8351640701294 L 741.3159980773926 403.8351640701294 Z" stroke-miterlimit="10" stroke-width="0.5" stroke-dasharray=""/><path fill="none" stroke="#505050" paint-order="fill stroke markers" d=" M 741.3159980773926 419.8351640701294 L 749.3159980773926 419.8351640701294 L 749.3159980773926 427.8351640701294 L 741.3159980773926 427.8351640701294 L 741.3159980773926 419.8351640701294 Z" stroke-miterlimit="10" stroke-width="0.5" stroke-dasharray=""/><path fill="white" stroke="#505050" paint-order="fill stroke markers" d=" M 409.0675048828125 433.51272678375244 L 449.0675048828125 433.51272678375244 L 449.0675048828125 483.51272678375244 L 409.0675048828125 483.51272678375244 L 409.0675048828125 433.51272678375244 Z" stroke-miterlimit="10" stroke-width="0.5" stroke-dasharray=""/><path fill="#F0F0F0" stroke="none" paint-order="stroke fill markers" d=" M 425.0675048828125 463.51272678375244 L 449.0675048828125 463.51272678375244 L 449.0675048828125 479.51272678375244 L 425.0675048828125 479.51272678375244 L 425.0675048828125 463.51272678375244 Z"/><text fill="#505050" stroke="none" font-family="monospace" font-size="14px" font-style="normal" font-weight="normal" text-decoration="normal" x="429.0675048828125" y="451.51272678375244" text-anchor="middle" dominant-baseline="text-after-edge">let</text><path fill="none" stroke="#505050" paint-order="fill stroke markers" d=" M 409.0675048828125 451.51272678375244 L 417.0675048828125 451.51272678375244 L 417.0675048828125 459.51272678375244 L 409.0675048828125 459.51272678375244 L 409.0675048828125 451.51272678375244 Z" stroke-miterlimit="10" stroke-width="0.5" stroke-dasharray=""/><path fill="none" stroke="#505050" paint-order="fill stroke markers" d=" M 441.0675048828125 451.51272678375244 L 449.0675048828125 451.51272678375244 L 449.0675048828125 459.51272678375244 L 441.0675048828125 459.51272678375244 L 441.0675048828125 451.51272678375244 Z" stroke-miterlimit="10" stroke-width="0.5" stroke-dasharray=""/><path fill="none" stroke="#505050" paint-order="fill stroke markers" d=" M 425.0675048828125 463.51272678375244 L 449.0675048828125 463.51272678375244 L 449.0675048828125 479.51272678375244 L 425.0675048828125 479.51272678375244 L 425.0675048828125 463.51272678375244 Z" stroke-miterlimit="10" stroke-width="0.5" stroke-dasharray=""/><path fill="none" stroke="#505050" paint-order="fill stroke markers" d=" M 425.0675048828125 467.51272678375244 L 433.0675048828125 467.51272678375244 L 433.0675048828125 475.51272678375244 L 425.0675048828125 475.51272678375244 L 425.0675048828125 467.51272678375244 Z" stroke-miterlimit="10" stroke-width="0.5" stroke-dasharray=""/><path fill="none" stroke="#505050" paint-order="fill stroke markers" d=" M 441.0675048828125 467.51272678375244 L 449.0675048828125 467.51272678375244 L 449.0675048828125 475.51272678375244 L 441.0675048828125 475.51272678375244 L 441.0675048828125 467.51272678375244 Z" stroke-miterlimit="10" stroke-width="0.5" stroke-dasharray=""/><path fill="none" stroke="none"/><path fill="white" stroke="#505050" paint-order="fill stroke markers" d=" M 407.24785232543945 379.63420581817627 L 447.24785232543945 379.63420581817627 L 447.24785232543945 429.63420581817627 L 407.24785232543945 429.63420581817627 L 415.24785232543945 404.63420581817627 L 407.24785232543945 379.63420581817627" stroke-miterlimit="10" stroke-width="0.5" stroke-dasharray=""/><path fill="#F0F0F0" stroke="none" paint-order="stroke fill markers" d=" M 423.24785232543945 383.63420581817627 L 447.24785232543945 383.63420581817627 L 447.24785232543945 425.63420581817627 L 423.24785232543945 425.63420581817627 L 423.24785232543945 383.63420581817627 Z"/><path fill="none" stroke="#505050" paint-order="fill stroke markers" d=" M 423.24785232543945 383.63420581817627 L 447.24785232543945 383.63420581817627 L 447.24785232543945 425.63420581817627 L 423.24785232543945 425.63420581817627 L 423.24785232543945 383.63420581817627 Z" stroke-miterlimit="10" stroke-width="0.5" stroke-dasharray=""/><text fill="#505050" stroke="none" font-family="monospace" font-size="14px" font-style="normal" font-weight="normal" text-decoration="normal" x="435.24785232543945" y="401.63420581817627" text-anchor="middle" dominant-baseline="text-after-edge">f</text><path fill="none" stroke="#505050" paint-order="fill stroke markers" d=" M 423.24785232543945 401.63420581817627 L 431.24785232543945 401.63420581817627 L 431.24785232543945 409.63420581817627 L 423.24785232543945 409.63420581817627 L 423.24785232543945 401.63420581817627 Z" stroke-miterlimit="10" stroke-width="0.5" stroke-dasharray=""/><path fill="none" stroke="#505050" paint-order="fill stroke markers" d=" M 423.24785232543945 413.63420581817627 L 431.24785232543945 413.63420581817627 L 431.24785232543945 421.63420581817627 L 423.24785232543945 421.63420581817627 L 423.24785232543945 413.63420581817627 Z" stroke-miterlimit="10" stroke-width="0.5" stroke-dasharray=""/><path fill="none" stroke="#505050" paint-order="fill stroke markers" d=" M 439.24785232543945 401.63420581817627 L 447.24785232543945 401.63420581817627 L 447.24785232543945 409.63420581817627 L 439.24785232543945 409.63420581817627 L 439.24785232543945 401.63420581817627 Z" stroke-miterlimit="10" stroke-width="0.5" stroke-dasharray=""/><path fill="none" stroke="#505050" paint-order="fill stroke markers" d=" M 423.24785232543945 383.63420581817627 L 447.24785232543945 383.63420581817627 L 447.24785232543945 425.63420581817627 L 423.24785232543945 425.63420581817627 L 423.24785232543945 383.63420581817627 Z" stroke-miterlimit="10" stroke-width="0.5" stroke-dasharray="6,3"/><path fill="#F0F0F0" stroke="none" paint-order="stroke fill markers" d=""/><text fill="#505050" stroke="none" font-family="monospace" font-size="14px" font-style="normal" font-weight="normal" text-decoration="normal" x="435.24785232543945" y="401.63420581817627" text-anchor="middle" dominant-baseline="text-after-edge">f</text><path fill="none" stroke="#505050" paint-order="fill stroke markers" d=" M 423.24785232543945 401.63420581817627 L 431.24785232543945 401.63420581817627 L 431.24785232543945 409.63420581817627 L 423.24785232543945 409.63420581817627 L 423.24785232543945 401.63420581817627 Z" stroke-miterlimit="10" stroke-width="0.5" stroke-dasharray="0"/><path fill="none" stroke="#505050" paint-order="fill stroke markers" d=" M 423.24785232543945 413.63420581817627 L 431.24785232543945 413.63420581817627 L 431.24785232543945 421.63420581817627 L 423.24785232543945 421.63420581817627 L 423.24785232543945 413.63420581817627 Z" stroke-miterlimit="10" stroke-width="0.5" stroke-dasharray="0"/><path fill="none" stroke="#505050" paint-order="fill stroke markers" d=" M 439.24785232543945 401.63420581817627 L 447.24785232543945 401.63420581817627 L 447.24785232543945 409.63420581817627 L 439.24785232543945 409.63420581817627 L 439.24785232543945 401.63420581817627 Z" stroke-miterlimit="10" stroke-width="0.5" stroke-dasharray="0"/><path fill="white" stroke="#505050" paint-order="fill stroke markers" d=" M 488.0525236129761 389.5468063354492 L 488.0525236129761 451.9225387573242 Q 488.0525236129761 459.9225387573242 496.0525236129761 459.9225387573242 L 627.5120573043823 459.9225387573242 Q 635.5120573043823 459.9225387573242 635.5120573043823 451.9225387573242 L 635.5120573043823 389.5468063354492 Q 635.5120573043823 381.5468063354492 627.5120573043823 381.5468063354492 L 496.0525236129761 381.5468063354492 Q 488.0525236129761 381.5468063354492 488.0525236129761 389.5468063354492" stroke-miterlimit="10" stroke-width="0.5" stroke-dasharray="0"/><path fill="#F0F0F0" stroke="#505050" paint-order="fill stroke markers" d=" M 611.5120573043823 389.5468063354492 L 635.5120573043823 389.5468063354492 L 635.5120573043823 405.5468063354492 L 611.5120573043823 405.5468063354492 L 611.5120573043823 389.5468063354492 Z" stroke-miterlimit="10" stroke-width="0.5" stroke-dasharray="0"/><path fill="none" stroke="#505050" paint-order="fill stroke markers" d=" M 611.5120573043823 393.5468063354492 L 619.5120573043823 393.5468063354492 L 619.5120573043823 401.5468063354492 L 611.5120573043823 401.5468063354492 L 611.5120573043823 393.5468063354492 Z" stroke-miterlimit="10" stroke-width="0.5" stroke-dasharray="0"/><path fill="none" stroke="#505050" paint-order="fill stroke markers" d=" M 627.5120573043823 393.5468063354492 L 635.5120573043823 393.5468063354492 L 635.5120573043823 401.5468063354492 L 627.5120573043823 401.5468063354492 L 627.5120573043823 393.5468063354492 Z" stroke-miterlimit="10" stroke-width="0.5" stroke-dasharray="0"/><path fill="white" stroke="#505050" paint-order="fill stroke markers" d=" M 529.9254179000854 401.9225387573242 L 553.9254179000854 401.9225387573242 L 553.9254179000854 443.9225387573242 L 529.9254179000854 443.9225387573242 L 529.9254179000854 401.9225387573242 Z" stroke-miterlimit="10" stroke-width="0.5" stroke-dasharray="0"/><path fill="#F0F0F0" stroke="none" paint-order="stroke fill markers" d=""/><text fill="#505050" stroke="none" font-family="monospace" font-size="14px" font-style="normal" font-weight="normal" text-decoration="normal" x="541.9254179000854" y="419.9225387573242" text-anchor="middle" dominant-baseline="text-after-edge">f</text><path fill="none" stroke="#505050" paint-order="fill stroke markers" d=" M 529.9254179000854 419.9225387573242 L 537.9254179000854 419.9225387573242 L 537.9254179000854 427.9225387573242 L 529.9254179000854 427.9225387573242 L 529.9254179000854 419.9225387573242 Z" stroke-miterlimit="10" stroke-width="0.5" stroke-dasharray="0"/><path fill="none" stroke="#505050" paint-order="fill stroke markers" d=" M 529.9254179000854 431.9225387573242 L 537.9254179000854 431.9225387573242 L 537.9254179000854 439.9225387573242 L 529.9254179000854 439.9225387573242 L 529.9254179000854 431.9225387573242 Z" stroke-miterlimit="10" stroke-width="0.5" stroke-dasharray="0"/><path fill="none" stroke="#505050" paint-order="fill stroke markers" d=" M 545.9254179000854 419.9225387573242 L 553.9254179000854 419.9225387573242 L 553.9254179000854 427.9225387573242 L 545.9254179000854 427.9225387573242 L 545.9254179000854 419.9225387573242 Z" stroke-miterlimit="10" stroke-width="0.5" stroke-dasharray="0"/><path fill="#e0e0e0" stroke="none" paint-order="stroke fill markers" d=" M 455.24785232543945 404.63420581817627 L 447.24785232543945 383.63420581817627 L 447.24785232543945 425.63420581817627 Z M 521.9254179000854 422.9225387573242 L 529.9254179000854 401.9225387573242 L 529.9254179000854 443.9225387573242 Z"/><path fill="none" stroke="none"/><path fill="none" stroke="#e0e0e0" paint-order="fill stroke markers" d=" M 455.24785232543945 404.63420581817627 C 475.9898984766486 404.63420581817627 501.1833717488763 422.9225387573242 521.9254179000854 422.9225387573242" stroke-miterlimit="10" stroke-width="2" stroke-dasharray="0"/><path fill="white" stroke="#505050" paint-order="fill stroke markers" d=" M 569.7336759567261 414.2300033569336 L 593.7336759567261 414.2300033569336 L 593.7336759567261 430.2300033569336 L 569.7336759567261 430.2300033569336 L 569.7336759567261 414.2300033569336 Z" stroke-miterlimit="10" stroke-width="0.5" stroke-dasharray="0"/><path fill="#F0F0F0" stroke="none" paint-order="stroke fill markers" d=""/><path fill="none" stroke="#505050" paint-order="fill stroke markers" d=" M 569.7336759567261 418.2300033569336 L 577.7336759567261 418.2300033569336 L 577.7336759567261 426.2300033569336 L 569.7336759567261 426.2300033569336 L 569.7336759567261 418.2300033569336 Z" stroke-miterlimit="10" stroke-width="0.5" stroke-dasharray="0"/><path fill="none" stroke="#505050" paint-order="fill stroke markers" d=" M 585.7336759567261 418.2300033569336 L 593.7336759567261 418.2300033569336 L 593.7336759567261 426.2300033569336 L 585.7336759567261 426.2300033569336 L 585.7336759567261 418.2300033569336 Z" stroke-miterlimit="10" stroke-width="0.5" stroke-dasharray="0"/><path fill="#e0e0e0" stroke="none" paint-order="stroke fill markers" d=" M 457.0675048828125 471.51272678375244 L 449.0675048828125 463.51272678375244 L 449.0675048828125 479.51272678375244 Z M 561.7336759567261 422.2300033569336 L 569.7336759567261 414.2300033569336 L 569.7336759567261 430.2300033569336 Z"/><path fill="none" stroke="none"/><path fill="none" stroke="#e0e0e0" paint-order="fill stroke markers" d=" M 457.0675048828125 471.51272678375244 C 491.7740097141467 471.51272678375244 527.0271711253919 422.2300033569336 561.7336759567261 422.2300033569336" stroke-miterlimit="10" stroke-width="2" stroke-dasharray="0"/><path fill="white" stroke="#505050" paint-order="fill stroke markers" d=" M 496.0525236129761 415.69664764404297 L 512.0525236129761 415.69664764404297 L 512.0525236129761 431.69664764404297 L 496.0525236129761 431.69664764404297 L 504.0525236129761 423.69664764404297 L 496.0525236129761 415.69664764404297" stroke-miterlimit="10" stroke-width="0.5" stroke-dasharray="0"/><path fill="none" stroke="#505050" paint-order="fill stroke markers" d=" M 504.0525236129761 419.69664764404297 L 512.0525236129761 419.69664764404297 L 512.0525236129761 427.69664764404297 L 504.0525236129761 427.69664764404297 L 504.0525236129761 419.69664764404297 Z" stroke-miterlimit="10" stroke-width="0.5" stroke-dasharray="0"/><path fill="white" stroke="#505050" paint-order="fill stroke markers" d=" M 603.5120573043823 412.6533432006836 L 611.5120573043823 412.6533432006836 L 619.5120573043823 420.6533432006836 L 611.5120573043823 428.6533432006836 L 603.5120573043823 428.6533432006836 L 603.5120573043823 412.6533432006836" stroke-miterlimit="10" stroke-width="0.5" stroke-dasharray="0"/><path fill="none" stroke="#505050" paint-order="fill stroke markers" d=" M 603.5120573043823 416.6533432006836 L 611.5120573043823 416.6533432006836 L 611.5120573043823 424.6533432006836 L 603.5120573043823 424.6533432006836 L 603.5120573043823 416.6533432006836 Z" stroke-miterlimit="10" stroke-width="0.5" stroke-dasharray="0"/><path fill="white" stroke="#505050" paint-order="fill stroke markers" d=" M 304.4993362426758 528.3103103637695 L 304.4993362426758 665.1661348342896 Q 304.4993362426758 673.1661348342896 312.4993362426758 673.1661348342896 L 827.4090909957886 673.1661348342896 Q 835.4090909957886 673.1661348342896 835.4090909957886 665.1661348342896 L 835.4090909957886 528.3103103637695 Q 835.4090909957886 520.3103103637695 827.4090909957886 520.3103103637695 L 312.4993362426758 520.3103103637695 Q 304.4993362426758 520.3103103637695 304.4993362426758 528.3103103637695" stroke-miterlimit="10" stroke-width="0.5" stroke-dasharray="0"/><path fill="#F0F0F0" stroke="#505050" paint-order="fill stroke markers" d=" M 770.4090909957886 528.3103103637695 L 835.4090909957886 528.3103103637695 L 835.4090909957886 546.3103103637695 L 770.4090909957886 546.3103103637695 L 770.4090909957886 528.3103103637695 Z" stroke-miterlimit="10" stroke-width="0.5" stroke-dasharray="0"/><path fill="none" stroke="#505050" paint-order="fill stroke markers" d=" M 770.4090909957886 532.3103103637695 L 778.4090909957886 532.3103103637695 L 778.4090909957886 540.3103103637695 L 770.4090909957886 540.3103103637695 L 770.4090909957886 532.3103103637695 Z" stroke-miterlimit="10" stroke-width="0.5" stroke-dasharray="0"/><text fill="#505050" stroke="none" font-family="monospace" font-size="14px" font-style="normal" font-weight="normal" text-decoration="normal" x="786.4090909957886" y="546.3103103637695" text-anchor="start" dominant-baseline="text-after-edge">n</text><path fill="none" stroke="#505050" paint-order="fill stroke markers" d=" M 827.4090909957886 532.3103103637695 L 835.4090909957886 532.3103103637695 L 835.4090909957886 540.3103103637695 L 827.4090909957886 540.3103103637695 L 827.4090909957886 532.3103103637695 Z" stroke-miterlimit="10" stroke-width="0.5" stroke-dasharray="0"/><text fill="#505050" stroke="none" font-family="monospace" font-size="14px" font-style="normal" font-weight="normal" text-decoration="normal" x="819.4090909957886" y="546.3103103637695" text-anchor="end" dominant-baseline="text-after-edge">n!</text><path fill="white" stroke="#505050" paint-order="fill stroke markers" d=" M 716.8501310348511 542.0532302856445 L 749.8501310348511 542.0532302856445 L 757.8501310348511 551.0532302856445 L 749.8501310348511 560.0532302856445 L 716.8501310348511 560.0532302856445 L 716.8501310348511 542.0532302856445" stroke-miterlimit="10" stroke-width="0.5" stroke-dasharray="0"/><path fill="none" stroke="#505050" paint-order="fill stroke markers" d=" M 716.8501310348511 546.0532302856445 L 724.8501310348511 546.0532302856445 L 724.8501310348511 554.0532302856445 L 716.8501310348511 554.0532302856445 L 716.8501310348511 546.0532302856445 Z" stroke-miterlimit="10" stroke-width="0.5" stroke-dasharray="0"/><text fill="#505050" stroke="none" font-family="monospace" font-size="14px" font-style="normal" font-weight="normal" text-decoration="normal" x="732.8501310348511" y="560.0532302856445" text-anchor="start" dominant-baseline="text-after-edge">n!</text><path fill="white" stroke="#505050" paint-order="fill stroke markers" d=" M 550.5469083786011 528.3103103637695 L 693.5469083786011 528.3103103637695 L 693.5469083786011 594.3103103637695 L 550.5469083786011 594.3103103637695 L 550.5469083786011 528.3103103637695 Z" stroke-miterlimit="10" stroke-width="0.5" stroke-dasharray="0"/><path fill="#F0F0F0" stroke="none" paint-order="stroke fill markers" d=""/><text fill="#505050" stroke="none" font-family="monospace" font-size="14px" font-style="normal" font-weight="normal" text-decoration="normal" x="622.0469083786011" y="546.3103103637695" text-anchor="middle" dominant-baseline="text-after-edge">for [start,end[+</text><path fill="none" stroke="#505050" paint-order="fill stroke markers" d=" M 550.5469083786011 546.3103103637695 L 558.5469083786011 546.3103103637695 L 558.5469083786011 554.3103103637695 L 550.5469083786011 554.3103103637695 L 550.5469083786011 546.3103103637695 Z" stroke-miterlimit="10" stroke-width="0.5" stroke-dasharray="0"/><text fill="#505050" stroke="none" font-family="monospace" font-size="14px" font-style="normal" font-weight="normal" text-decoration="normal" x="566.5469083786011" y="560.3103103637695" text-anchor="start" dominant-baseline="text-after-edge">start</text><path fill="none" stroke="#505050" paint-order="fill stroke markers" d=" M 550.5469083786011 560.3103103637695 L 558.5469083786011 560.3103103637695 L 558.5469083786011 568.3103103637695 L 550.5469083786011 568.3103103637695 L 550.5469083786011 560.3103103637695 Z" stroke-miterlimit="10" stroke-width="0.5" stroke-dasharray="0"/><text fill="#505050" stroke="none" font-family="monospace" font-size="14px" font-style="normal" font-weight="normal" text-decoration="normal" x="566.5469083786011" y="574.3103103637695" text-anchor="start" dominant-baseline="text-after-edge">end</text><path fill="none" stroke="#505050" paint-order="fill stroke markers" d=" M 550.5469083786011 574.3103103637695 L 574.5469083786011 574.3103103637695 L 574.5469083786011 590.3103103637695 L 550.5469083786011 590.3103103637695 L 550.5469083786011 574.3103103637695 Z" stroke-miterlimit="10" stroke-width="0.5" stroke-dasharray="0"/><path fill="none" stroke="#505050" paint-order="fill stroke markers" d=" M 550.5469083786011 578.3103103637695 L 558.5469083786011 578.3103103637695 L 558.5469083786011 586.3103103637695 L 550.5469083786011 586.3103103637695 L 550.5469083786011 578.3103103637695 Z" stroke-miterlimit="10" stroke-width="0.5" stroke-dasharray="0"/><path fill="none" stroke="#505050" paint-order="fill stroke markers" d=" M 566.5469083786011 578.3103103637695 L 574.5469083786011 578.3103103637695 L 574.5469083786011 586.3103103637695 L 566.5469083786011 586.3103103637695 L 566.5469083786011 578.3103103637695 Z" stroke-miterlimit="10" stroke-width="0.5" stroke-dasharray="0"/><text fill="#505050" stroke="none" font-family="monospace" font-size="14px" font-style="normal" font-weight="normal" text-decoration="normal" x="582.5469083786011" y="591.3103103637695" text-anchor="start" dominant-baseline="text-after-edge">body</text><path fill="none" stroke="#505050" paint-order="fill stroke markers" d=" M 685.5469083786011 546.3103103637695 L 693.5469083786011 546.3103103637695 L 693.5469083786011 554.3103103637695 L 685.5469083786011 554.3103103637695 L 685.5469083786011 546.3103103637695 Z" stroke-miterlimit="10" stroke-width="0.5" stroke-dasharray="0"/><text fill="#505050" stroke="none" font-family="monospace" font-size="14px" font-style="normal" font-weight="normal" text-decoration="normal" x="677.5469083786011" y="560.3103103637695" text-anchor="end" dominant-baseline="text-after-edge">p</text><path fill="white" stroke="#505050" paint-order="fill stroke markers" d=" M 418.6931791305542 586.251350402832 L 490.6931791305542 586.251350402832 L 490.6931791305542 648.251350402832 L 418.6931791305542 648.251350402832 L 418.6931791305542 586.251350402832 Z" stroke-miterlimit="10" stroke-width="0.5" stroke-dasharray="0"/><path fill="#F0F0F0" stroke="none" paint-order="stroke fill markers" d=" M 466.6931791305542 604.251350402832 L 490.6931791305542 604.251350402832 L 490.6931791305542 620.251350402832 L 466.6931791305542 620.251350402832 L 466.6931791305542 604.251350402832 Z"/><text fill="#505050" stroke="none" font-family="monospace" font-size="14px" font-style="normal" font-weight="normal" text-decoration="normal" x="454.6931791305542" y="604.251350402832" text-anchor="middle" dominant-baseline="text-after-edge">acc</text><path fill="none" stroke="#505050" paint-order="fill stroke markers" d=" M 418.6931791305542 604.251350402832 L 442.6931791305542 604.251350402832 L 442.6931791305542 632.251350402832 L 418.6931791305542 632.251350402832 L 418.6931791305542 604.251350402832 Z" stroke-miterlimit="10" stroke-width="0.5" stroke-dasharray="0"/><path fill="none" stroke="#505050" paint-order="fill stroke markers" d=" M 418.6931791305542 608.251350402832 L 426.6931791305542 608.251350402832 L 426.6931791305542 616.251350402832 L 418.6931791305542 616.251350402832 L 418.6931791305542 608.251350402832 Z" stroke-miterlimit="10" stroke-width="0.5" stroke-dasharray="0"/><path fill="none" stroke="#505050" paint-order="fill stroke markers" d=" M 418.6931791305542 620.251350402832 L 426.6931791305542 620.251350402832 L 426.6931791305542 628.251350402832 L 418.6931791305542 628.251350402832 L 418.6931791305542 620.251350402832 Z" stroke-miterlimit="10" stroke-width="0.5" stroke-dasharray="0"/><path fill="none" stroke="#505050" paint-order="fill stroke markers" d=" M 434.6931791305542 608.251350402832 L 442.6931791305542 608.251350402832 L 442.6931791305542 616.251350402832 L 434.6931791305542 616.251350402832 L 434.6931791305542 608.251350402832 Z" stroke-miterlimit="10" stroke-width="0.5" stroke-dasharray="0"/><text fill="#505050" stroke="none" font-family="monospace" font-size="14px" font-style="normal" font-weight="normal" text-decoration="normal" x="450.6931791305542" y="627.251350402832" text-anchor="start" dominant-baseline="text-after-edge">f</text><path fill="none" stroke="#505050" paint-order="fill stroke markers" d=" M 418.6931791305542 636.251350402832 L 426.6931791305542 636.251350402832 L 426.6931791305542 644.251350402832 L 418.6931791305542 644.251350402832 L 418.6931791305542 636.251350402832 Z" stroke-miterlimit="10" stroke-width="0.5" stroke-dasharray="0"/><path fill="none" stroke="#505050" paint-order="fill stroke markers" d=" M 466.6931791305542 604.251350402832 L 490.6931791305542 604.251350402832 L 490.6931791305542 620.251350402832 L 466.6931791305542 620.251350402832 L 466.6931791305542 604.251350402832 Z" stroke-miterlimit="10" stroke-width="0.5" stroke-dasharray="0"/><path fill="none" stroke="#505050" paint-order="fill stroke markers" d=" M 466.6931791305542 608.251350402832 L 474.6931791305542 608.251350402832 L 474.6931791305542 616.251350402832 L 466.6931791305542 616.251350402832 L 466.6931791305542 608.251350402832 Z" stroke-miterlimit="10" stroke-width="0.5" stroke-dasharray="0"/><path fill="none" stroke="#505050" paint-order="fill stroke markers" d=" M 482.6931791305542 608.251350402832 L 490.6931791305542 608.251350402832 L 490.6931791305542 616.251350402832 L 482.6931791305542 616.251350402832 L 482.6931791305542 608.251350402832 Z" stroke-miterlimit="10" stroke-width="0.5" stroke-dasharray="0"/><path fill="none" stroke="#505050" paint-order="fill stroke markers" d=" M 482.6931791305542 624.251350402832 L 490.6931791305542 624.251350402832 L 490.6931791305542 632.251350402832 L 482.6931791305542 632.251350402832 L 482.6931791305542 624.251350402832 Z" stroke-miterlimit="10" stroke-width="0.5" stroke-dasharray="0"/><path fill="white" stroke="#505050" paint-order="fill stroke markers" d=" M 354.38140869140625 639.1661348342896 L 386.38140869140625 639.1661348342896 L 386.38140869140625 657.1661348342896 L 354.38140869140625 657.1661348342896 L 354.38140869140625 639.1661348342896 Z" stroke-miterlimit="10" stroke-width="0.5" stroke-dasharray="0"/><path fill="#F0F0F0" stroke="none" paint-order="stroke fill markers" d=""/><path fill="none" stroke="#505050" paint-order="fill stroke markers" d=" M 378.38140869140625 643.1661348342896 L 386.38140869140625 643.1661348342896 L 386.38140869140625 651.1661348342896 L 378.38140869140625 651.1661348342896 L 378.38140869140625 643.1661348342896 Z" stroke-miterlimit="10" stroke-width="0.5" stroke-dasharray="0"/><text fill="#505050" stroke="none" font-family="monospace" font-size="14px" font-style="normal" font-weight="normal" text-decoration="normal" x="370.38140869140625" y="657.1661348342896" text-anchor="end" dominant-baseline="text-after-edge">1</text><path fill="white" stroke="#505050" paint-order="fill stroke markers" d=" M 312.4993362426758 576.0020875930786 L 312.4993362426758 626.0020875930786 Q 312.4993362426758 634.0020875930786 320.4993362426758 634.0020875930786 L 371.05045318603516 634.0020875930786 Q 379.05045318603516 634.0020875930786 379.05045318603516 626.0020875930786 L 379.05045318603516 576.0020875930786 Q 379.05045318603516 568.0020875930786 371.05045318603516 568.0020875930786 L 320.4993362426758 568.0020875930786 Q 312.4993362426758 568.0020875930786 312.4993362426758 576.0020875930786" stroke-miterlimit="10" stroke-width="0.5" stroke-dasharray="0"/><path fill="#F0F0F0" stroke="#505050" paint-order="fill stroke markers" d=" M 355.05045318603516 576.0020875930786 L 379.05045318603516 576.0020875930786 L 379.05045318603516 604.0020875930786 L 355.05045318603516 604.0020875930786 L 355.05045318603516 576.0020875930786 Z" stroke-miterlimit="10" stroke-width="0.5" stroke-dasharray="0"/><path fill="none" stroke="#505050" paint-order="fill stroke markers" d=" M 355.05045318603516 580.0020875930786 L 363.05045318603516 580.0020875930786 L 363.05045318603516 588.0020875930786 L 355.05045318603516 588.0020875930786 L 355.05045318603516 580.0020875930786 Z" stroke-miterlimit="10" stroke-width="0.5" stroke-dasharray="0"/><path fill="none" stroke="#505050" paint-order="fill stroke markers" d=" M 355.05045318603516 592.0020875930786 L 363.05045318603516 592.0020875930786 L 363.05045318603516 600.0020875930786 L 355.05045318603516 600.0020875930786 L 355.05045318603516 592.0020875930786 Z" stroke-miterlimit="10" stroke-width="0.5" stroke-dasharray="0"/><path fill="none" stroke="#505050" paint-order="fill stroke markers" d=" M 371.05045318603516 580.0020875930786 L 379.05045318603516 580.0020875930786 L 379.05045318603516 588.0020875930786 L 371.05045318603516 588.0020875930786 L 371.05045318603516 580.0020875930786 Z" stroke-miterlimit="10" stroke-width="0.5" stroke-dasharray="0"/><path fill="white" stroke="#505050" paint-order="fill stroke markers" d=" M 320.4993362426758 576.0020875930786 L 344.4993362426758 576.0020875930786 L 344.4993362426758 618.0020875930786 L 320.4993362426758 618.0020875930786 L 320.4993362426758 576.0020875930786 Z" stroke-miterlimit="10" stroke-width="0.5" stroke-dasharray="0"/><path fill="#F0F0F0" stroke="none" paint-order="stroke fill markers" d=""/><text fill="#505050" stroke="none" font-family="monospace" font-size="14px" font-style="normal" font-weight="normal" text-decoration="normal" x="332.4993362426758" y="594.0020875930786" text-anchor="middle" dominant-baseline="text-after-edge">*</text><path fill="none" stroke="#505050" paint-order="fill stroke markers" d=" M 320.4993362426758 594.0020875930786 L 328.4993362426758 594.0020875930786 L 328.4993362426758 602.0020875930786 L 320.4993362426758 602.0020875930786 L 320.4993362426758 594.0020875930786 Z" stroke-miterlimit="10" stroke-width="0.5" stroke-dasharray="0"/><path fill="none" stroke="#505050" paint-order="fill stroke markers" d=" M 320.4993362426758 606.0020875930786 L 328.4993362426758 606.0020875930786 L 328.4993362426758 614.0020875930786 L 320.4993362426758 614.0020875930786 L 320.4993362426758 606.0020875930786 Z" stroke-miterlimit="10" stroke-width="0.5" stroke-dasharray="0"/><path fill="none" stroke="#505050" paint-order="fill stroke markers" d=" M 336.4993362426758 594.0020875930786 L 344.4993362426758 594.0020875930786 L 344.4993362426758 602.0020875930786 L 336.4993362426758 602.0020875930786 L 336.4993362426758 594.0020875930786 Z" stroke-miterlimit="10" stroke-width="0.5" stroke-dasharray="0"/><path fill="white" stroke="#505050" paint-order="fill stroke markers" d=" M 477.62360191345215 536.4850740432739 L 509.62360191345215 536.4850740432739 L 509.62360191345215 554.4850740432739 L 477.62360191345215 554.4850740432739 L 477.62360191345215 536.4850740432739 Z" stroke-miterlimit="10" stroke-width="0.5" stroke-dasharray="0"/><path fill="#F0F0F0" stroke="none" paint-order="stroke fill markers" d=""/><path fill="none" stroke="#505050" paint-order="fill stroke markers" d=" M 501.62360191345215 540.4850740432739 L 509.62360191345215 540.4850740432739 L 509.62360191345215 548.4850740432739 L 501.62360191345215 548.4850740432739 L 501.62360191345215 540.4850740432739 Z" stroke-miterlimit="10" stroke-width="0.5" stroke-dasharray="0"/><text fill="#505050" stroke="none" font-family="monospace" font-size="14px" font-style="normal" font-weight="normal" text-decoration="normal" x="493.62360191345215" y="554.4850740432739" text-anchor="end" dominant-baseline="text-after-edge">1</text><path fill="white" stroke="#505050" paint-order="fill stroke markers" d=" M 479.5185270309448 558.7257766723633 L 511.5185270309448 558.7257766723633 L 511.5185270309448 576.7257766723633 L 479.5185270309448 576.7257766723633 L 487.5185270309448 567.7257766723633 L 479.5185270309448 558.7257766723633" stroke-miterlimit="10" stroke-width="0.5" stroke-dasharray="0"/><path fill="none" stroke="#505050" paint-order="fill stroke markers" d=" M 503.5185270309448 562.7257766723633 L 511.5185270309448 562.7257766723633 L 511.5185270309448 570.7257766723633 L 503.5185270309448 570.7257766723633 L 503.5185270309448 562.7257766723633 Z" stroke-miterlimit="10" stroke-width="0.5" stroke-dasharray="0"/><text fill="#505050" stroke="none" font-family="monospace" font-size="14px" font-style="normal" font-weight="normal" text-decoration="normal" x="495.5185270309448" y="576.7257766723633" text-anchor="end" dominant-baseline="text-after-edge">n</text><path fill="none" stroke="#505050" paint-order="fill stroke markers" d=" M 514.6306788921356 46.058204650878906 C 542.0830199808798 46.058204650878906 521.7343070416727 130.79050731658936 549.1866481304169 130.79050731658936" stroke-miterlimit="10" stroke-dasharray="0"/><path fill="none" stroke="#505050" paint-order="fill stroke markers" d=" M 519.0361936092377 115.01278781890869 C 528.0815757725842 115.01278781890869 540.1412659670704 114.79050731658936 549.1866481304169 114.79050731658936" stroke-miterlimit="10" stroke-dasharray="0"/><path fill="none" stroke="#505050" paint-order="fill stroke markers" d=" M 423.11153769493103 75.07319164276123 C 444.2439648684481 75.07319164276123 429.2709234181425 140.0127878189087 450.40335059165955 140.0127878189087" stroke-miterlimit="10" stroke-dasharray="0"/><path fill="none" stroke="#505050" paint-order="fill stroke markers" d=" M 433.9878842830658 128.37924480438232 C 438.91375113434896 128.37924480438232 445.4774837403764 128.0127878189087 450.40335059165955 128.0127878189087" stroke-miterlimit="10" stroke-dasharray="0"/><path fill="none" stroke="#505050" paint-order="fill stroke markers" d=" M 514.9680202007294 222.83731842041016 C 542.4203612894736 222.83731842041016 522.0716483502664 307.5696210861206 549.5239894390106 307.5696210861206" stroke-miterlimit="10" stroke-dasharray="0"/><path fill="none" stroke="#505050" paint-order="fill stroke markers" d=" M 519.3735349178314 291.79190158843994 C 528.4189170811779 291.79190158843994 540.4786072756641 291.5696210861206 549.5239894390106 291.5696210861206" stroke-miterlimit="10" stroke-dasharray="0"/><path fill="none" stroke="#505050" paint-order="fill stroke markers" d=" M 423.4488790035248 251.85230541229248 C 444.5813061770418 251.85230541229248 429.60826472673625 316.79190158843994 450.7406919002533 316.79190158843994" stroke-miterlimit="10" stroke-dasharray="0"/><path fill="none" stroke="#505050" paint-order="fill stroke markers" d=" M 434.32522559165955 305.1583585739136 C 439.2510924429427 305.1583585739136 445.81482504897014 304.79190158843994 450.7406919002533 304.79190158843994" stroke-miterlimit="10" stroke-dasharray="0"/><path fill="none" stroke="#505050" paint-order="fill stroke markers" d=" M 553.9254179000854 423.9225387573242 C 558.6949999465569 423.9225387573242 564.9640939102546 422.2300033569336 569.7336759567261 422.2300033569336" stroke-miterlimit="10" stroke-dasharray="0"/><path fill="none" stroke="#505050" paint-order="fill stroke markers" d=" M 512.0525236129761 423.69664764404297 C 517.4148201293384 423.69664764404297 524.5631213837231 423.9225387573242 529.9254179000854 423.9225387573242" stroke-miterlimit="10" stroke-dasharray="0"/><path fill="none" stroke="#505050" paint-order="fill stroke markers" d=" M 593.7336759567261 422.2300033569336 C 596.7050786410765 422.2300033569336 600.5406546200319 420.6533432006836 603.5120573043823 420.6533432006836" stroke-miterlimit="10" stroke-dasharray="0"/><path fill="none" stroke="#505050" paint-order="fill stroke markers" d=" M 386.38140869140625 647.1661348342896 C 396.29442174184226 647.1661348342896 408.7801660801182 640.251350402832 418.6931791305542 640.251350402832" stroke-miterlimit="10" stroke-dasharray="0"/><path fill="none" stroke="#505050" paint-order="fill stroke markers" d=" M 379.05045318603516 590.0020875930786 C 393.65391138142877 590.0020875930786 404.0897209351606 618.251350402832 418.6931791305542 618.251350402832" stroke-miterlimit="10" stroke-dasharray="0"/><path fill="none" stroke="#505050" paint-order="fill stroke markers" d=" M 509.62360191345215 544.4850740432739 C 522.0243492748297 544.4850740432739 538.1461610172236 550.3103103637695 550.5469083786011 550.3103103637695" stroke-miterlimit="10" stroke-dasharray="0"/><path fill="none" stroke="#505050" paint-order="fill stroke markers" d=" M 511.5185270309448 566.7257766723633 C 523.2494439827241 566.7257766723633 538.8159914268218 564.3103103637695 550.5469083786011 564.3103103637695" stroke-miterlimit="10" stroke-dasharray="0"/><path fill="none" stroke="#505050" paint-order="fill stroke markers" d=" M 490.6931791305542 612.251350402832 C 510.7706324181784 612.251350402832 530.4694550909769 582.3103103637695 550.5469083786011 582.3103103637695" stroke-miterlimit="10" stroke-dasharray="0"/><path fill="none" stroke="#505050" paint-order="fill stroke markers" d=" M 693.5469083786011 550.3103103637695 C 700.5383005768689 550.3103103637695 709.8587388365833 550.0532302856445 716.8501310348511 550.0532302856445" stroke-miterlimit="10" stroke-dasharray="0"/></g></g></svg>