<svg version="1.1" xmlns="http://www.w3.org/2000/svg" xmlns:xlink="http://www.w3.org/1999/xlink" width="533.0429334640503" height="197.97847747802734"><defs/><g transform="translate(-407.9816360473633,-160.03614044189453)"><g><path fill="white" stroke="#505050" paint-order="fill stroke markers" d=" M 415.9816360473633 176.03614044189453 L 415.9816360473633 342.0146179199219 Q 415.9816360473633 350.0146179199219 423.9816360473633 350.0146179199219 L 925.0245695114136 350.0146179199219 Q 933.0245695114136 350.0146179199219 933.0245695114136 342.0146179199219 L 933.0245695114136 176.03614044189453 Q 933.0245695114136 168.03614044189453 925.0245695114136 168.03614044189453 L 423.9816360473633 168.03614044189453 Q 415.9816360473633 168.03614044189453 415.9816360473633 176.03614044189453" stroke-miterlimit="10" stroke-width="0.5" stroke-dasharray=""/><path fill="#F0F0F0" stroke="#505050" paint-order="fill stroke markers" d=" M 908.0245695114136 176.03614044189453 L 930.357902844747 176.03614044189453 L 933.0245695114136 178.7028071085612 L 933.0245695114136 206.03614044189453 L 908.0245695114136 206.03614044189453 L 908.0245695114136 176.03614044189453" stroke-miterlimit="10" stroke-width="0.5" stroke-dasharray=""/><path fill="none" stroke="none"/><text fill="#505050" stroke="none" font-family="monospace" font-size="14px" font-style="normal" font-weight="normal" text-decoration="normal" x="920.5245695114136" y="194.03614044189453" text-anchor="middle" dominant-baseline="text-after-edge">n!</text><path fill="none" stroke="#505050" paint-order="fill stroke markers" d=" M 908.0245695114136 194.03614044189453 L 916.0245695114136 194.03614044189453 L 916.0245695114136 202.03614044189453 L 908.0245695114136 202.03614044189453 L 908.0245695114136 194.03614044189453 Z" stroke-miterlimit="10" stroke-width="0.5" stroke-dasharray=""/><path fill="none" stroke="#505050" paint-order="fill stroke markers" d=" M 925.0245695114136 194.03614044189453 L 933.0245695114136 194.03614044189453 L 933.0245695114136 202.03614044189453 L 925.0245695114136 202.03614044189453 L 925.0245695114136 194.03614044189453 Z" stroke-miterlimit="10" stroke-width="0.5" stroke-dasharray=""/><path fill="white" stroke="#505050" paint-order="fill stroke markers" d=" M 884.8761320114136 201.2666244506836 L 892.8761320114136 201.2666244506836 L 900.8761320114136 209.2666244506836 L 892.8761320114136 217.2666244506836 L 884.8761320114136 217.2666244506836 L 884.8761320114136 201.2666244506836" stroke-miterlimit="10" stroke-width="0.5" stroke-dasharray=""/><path fill="none" stroke="none"/><path fill="none" stroke="#505050" paint-order="fill stroke markers" d=" M 884.8761320114136 205.2666244506836 L 892.8761320114136 205.2666244506836 L 892.8761320114136 213.2666244506836 L 884.8761320114136 213.2666244506836 L 884.8761320114136 205.2666244506836 Z" stroke-miterlimit="10" stroke-width="0.5" stroke-dasharray=""/><path fill="white" stroke="#505050" paint-order="fill stroke markers" d=" M 679.7561092376709 202.6853151321411 L 711.7561092376709 202.6853151321411 L 711.7561092376709 220.6853151321411 L 679.7561092376709 220.6853151321411 L 679.7561092376709 202.6853151321411 Z" stroke-miterlimit="10" stroke-width="0.5" stroke-dasharray=""/><path fill="#F0F0F0" stroke="none" paint-order="stroke fill markers" d=""/><path fill="none" stroke="none"/><path fill="none" stroke="#505050" paint-order="fill stroke markers" d=" M 703.7561092376709 206.6853151321411 L 711.7561092376709 206.6853151321411 L 711.7561092376709 214.6853151321411 L 703.7561092376709 214.6853151321411 L 703.7561092376709 206.6853151321411 Z" stroke-miterlimit="10" stroke-width="0.5" stroke-dasharray=""/><text fill="#505050" stroke="none" font-family="monospace" font-size="14px" font-style="normal" font-weight="normal" text-decoration="normal" x="695.7561092376709" y="220.6853151321411" text-anchor="end" dominant-baseline="text-after-edge">2</text><path fill="white" stroke="#505050" paint-order="fill stroke markers" d=" M 690.9266080856323 180.0524673461914 L 706.9266080856323 180.0524673461914 L 706.9266080856323 196.0524673461914 L 690.9266080856323 196.0524673461914 L 698.9266080856323 188.0524673461914 L 690.9266080856323 180.0524673461914" stroke-miterlimit="10" stroke-width="0.5" stroke-dasharray=""/><path fill="none" stroke="none"/><path fill="none" stroke="#505050" paint-order="fill stroke markers" d=" M 698.9266080856323 184.0524673461914 L 706.9266080856323 184.0524673461914 L 706.9266080856323 192.0524673461914 L 698.9266080856323 192.0524673461914 L 698.9266080856323 184.0524673461914 Z" stroke-miterlimit="10" stroke-width="0.5" stroke-dasharray=""/><path fill="white" stroke="#505050" paint-order="fill stroke markers" d=" M 516.4318695068359 234.4712371826172 L 516.4318695068359 326.0146179199219 Q 516.4318695068359 334.0146179199219 524.4318695068359 334.0146179199219 L 695.3608121871948 334.0146179199219 Q 703.3608121871948 334.0146179199219 703.3608121871948 326.0146179199219 L 703.3608121871948 234.4712371826172 Q 703.3608121871948 226.4712371826172 695.3608121871948 226.4712371826172 L 524.4318695068359 226.4712371826172 Q 516.4318695068359 226.4712371826172 516.4318695068359 234.4712371826172" stroke-miterlimit="10" stroke-width="0.5" stroke-dasharray=""/><path fill="#F0F0F0" stroke="#505050" paint-order="fill stroke markers" d=" M 663.3608121871948 234.4712371826172 L 700.6941455205282 234.4712371826172 L 703.3608121871948 237.13790384928384 L 703.3608121871948 252.4712371826172 L 663.3608121871948 252.4712371826172 L 663.3608121871948 234.4712371826172" stroke-miterlimit="10" stroke-width="0.5" stroke-dasharray=""/><path fill="none" stroke="none"/><path fill="none" stroke="#505050" paint-order="fill stroke markers" d=" M 663.3608121871948 238.4712371826172 L 671.3608121871948 238.4712371826172 L 671.3608121871948 246.4712371826172 L 663.3608121871948 246.4712371826172 L 663.3608121871948 238.4712371826172 Z" stroke-miterlimit="10" stroke-width="0.5" stroke-dasharray=""/><text fill="#505050" stroke="none" font-family="monospace" font-size="14px" font-style="normal" font-weight="normal" text-decoration="normal" x="679.3608121871948" y="252.4712371826172" text-anchor="start" dominant-baseline="text-after-edge">i</text><path fill="none" stroke="#505050" paint-order="fill stroke markers" d=" M 695.3608121871948 238.4712371826172 L 703.3608121871948 238.4712371826172 L 703.3608121871948 246.4712371826172 L 695.3608121871948 246.4712371826172 L 695.3608121871948 238.4712371826172 Z" stroke-miterlimit="10" stroke-width="0.5" stroke-dasharray=""/><path fill="white" stroke="#505050" paint-order="fill stroke markers" d=" M 521.1584320068359 246.0145845413208 L 553.1584320068359 246.0145845413208 L 553.1584320068359 264.0145845413208 L 521.1584320068359 264.0145845413208 L 529.1584320068359 255.0145845413208 L 521.1584320068359 246.0145845413208" stroke-miterlimit="10" stroke-width="0.5" stroke-dasharray=""/><path fill="none" stroke="none"/><path fill="none" stroke="#505050" paint-order="fill stroke markers" d=" M 545.1584320068359 250.0145845413208 L 553.1584320068359 250.0145845413208 L 553.1584320068359 258.0145845413208 L 545.1584320068359 258.0145845413208 L 545.1584320068359 250.0145845413208 Z" stroke-miterlimit="10" stroke-width="0.5" stroke-dasharray=""/><text fill="#505050" stroke="none" font-family="monospace" font-size="14px" font-style="normal" font-weight="normal" text-decoration="normal" x="537.1584320068359" y="264.0145845413208" text-anchor="end" dominant-baseline="text-after-edge">i</text><path fill="none" stroke="#505050" paint-order="fill stroke markers" d=" M 650.758544921875 276.8348741531372 L 650.758544921875 300.8348741531372 M 650.758544921875 276.8348741531372 L 654.758544921875 276.8348741531372" stroke-miterlimit="10" stroke-width="1.5" stroke-dasharray=""/><path fill="none" stroke="none"/><path fill="none" stroke="#505050" paint-order="fill stroke markers" d=" M 638.758544921875 272.8348741531372 L 646.758544921875 272.8348741531372 L 646.758544921875 280.8348741531372 L 638.758544921875 280.8348741531372 L 638.758544921875 272.8348741531372 Z" stroke-miterlimit="10" stroke-width="0.5" stroke-dasharray=""/><path fill="none" stroke="#505050" paint-order="fill stroke markers" d=" M 638.758544921875 284.8348741531372 L 646.758544921875 284.8348741531372 L 646.758544921875 292.8348741531372 L 638.758544921875 292.8348741531372 L 638.758544921875 284.8348741531372 Z" stroke-miterlimit="10" stroke-width="0.5" stroke-dasharray=""/><path fill="none" stroke="#505050" paint-order="fill stroke markers" d=" M 638.758544921875 296.8348741531372 L 646.758544921875 296.8348741531372 L 646.758544921875 304.8348741531372 L 638.758544921875 304.8348741531372 L 638.758544921875 296.8348741531372 Z" stroke-miterlimit="10" stroke-width="0.5" stroke-dasharray=""/><path fill="none" stroke="#505050" paint-order="fill stroke markers" d=" M 654.758544921875 272.8348741531372 L 662.758544921875 272.8348741531372 L 662.758544921875 280.8348741531372 L 654.758544921875 280.8348741531372 L 654.758544921875 272.8348741531372 Z" stroke-miterlimit="10" stroke-width="0.5" stroke-dasharray=""/><path fill="white" stroke="#505050" paint-order="fill stroke markers" d=" M 671.3608121871948 268.91087341308594 L 679.3608121871948 268.91087341308594 L 687.3608121871948 276.91087341308594 L 679.3608121871948 284.91087341308594 L 671.3608121871948 284.91087341308594 L 671.3608121871948 268.91087341308594" stroke-miterlimit="10" stroke-width="0.5" stroke-dasharray=""/><path fill="none" stroke="none"/><path fill="none" stroke="#505050" paint-order="fill stroke markers" d=" M 671.3608121871948 272.91087341308594 L 679.3608121871948 272.91087341308594 L 679.3608121871948 280.91087341308594 L 671.3608121871948 280.91087341308594 L 671.3608121871948 272.91087341308594 Z" stroke-miterlimit="10" stroke-width="0.5" stroke-dasharray=""/><path fill="none" stroke="none"/><path fill="white" stroke="#505050" paint-order="fill stroke markers" d=" M 603.3246183395386 302.0146179199219 L 624.657951672872 302.0146179199219 L 627.3246183395386 304.68128458658856 L 627.3246183395386 318.0146179199219 L 603.3246183395386 318.0146179199219 L 603.3246183395386 302.0146179199219" stroke-miterlimit="10" stroke-width="0.5" stroke-dasharray=""/><path fill="#F0F0F0" stroke="none" paint-order="stroke fill markers" d=""/><path fill="none" stroke="none"/><path fill="none" stroke="#505050" paint-order="fill stroke markers" d=" M 603.3246183395386 306.0146179199219 L 611.3246183395386 306.0146179199219 L 611.3246183395386 314.0146179199219 L 603.3246183395386 314.0146179199219 L 603.3246183395386 306.0146179199219 Z" stroke-miterlimit="10" stroke-width="0.5" stroke-dasharray=""/><path fill="none" stroke="#505050" paint-order="fill stroke markers" d=" M 619.3246183395386 306.0146179199219 L 627.3246183395386 306.0146179199219 L 627.3246183395386 314.0146179199219 L 619.3246183395386 314.0146179199219 L 619.3246183395386 306.0146179199219 Z" stroke-miterlimit="10" stroke-width="0.5" stroke-dasharray=""/><path fill="white" stroke="#505050" paint-order="fill stroke markers" d=" M 561.8672103881836 267.24902057647705 L 585.8672103881836 267.24902057647705 L 585.8672103881836 309.24902057647705 L 561.8672103881836 309.24902057647705 L 561.8672103881836 267.24902057647705 Z" stroke-miterlimit="10" stroke-width="0.5" stroke-dasharray=""/><path fill="#F0F0F0" stroke="none" paint-order="stroke fill markers" d=""/><path fill="none" stroke="none"/><text fill="#505050" stroke="none" font-family="monospace" font-size="14px" font-style="normal" font-weight="normal" text-decoration="normal" x="573.8672103881836" y="285.24902057647705" text-anchor="middle" dominant-baseline="text-after-edge">+</text><path fill="none" stroke="#505050" paint-order="fill stroke markers" d=" M 561.8672103881836 285.24902057647705 L 569.8672103881836 285.24902057647705 L 569.8672103881836 293.24902057647705 L 561.8672103881836 293.24902057647705 L 561.8672103881836 285.24902057647705 Z" stroke-miterlimit="10" stroke-width="0.5" stroke-dasharray=""/><path fill="none" stroke="#505050" paint-order="fill stroke markers" d=" M 561.8672103881836 297.24902057647705 L 569.8672103881836 297.24902057647705 L 569.8672103881836 305.24902057647705 L 561.8672103881836 305.24902057647705 L 561.8672103881836 297.24902057647705 Z" stroke-miterlimit="10" stroke-width="0.5" stroke-dasharray=""/><path fill="none" stroke="#505050" paint-order="fill stroke markers" d=" M 577.8672103881836 285.24902057647705 L 585.8672103881836 285.24902057647705 L 585.8672103881836 293.24902057647705 L 577.8672103881836 293.24902057647705 L 577.8672103881836 285.24902057647705 Z" stroke-miterlimit="10" stroke-width="0.5" stroke-dasharray=""/><path fill="white" stroke="#505050" paint-order="fill stroke markers" d=" M 578.3601713180542 232.3583221435547 L 603.3601713180542 232.3583221435547 L 603.3601713180542 262.3583221435547 L 578.3601713180542 262.3583221435547 L 578.3601713180542 232.3583221435547 Z" stroke-miterlimit="10" stroke-width="0.5" stroke-dasharray=""/><path fill="#F0F0F0" stroke="none" paint-order="stroke fill markers" d=""/><path fill="none" stroke="none"/><text fill="#505050" stroke="none" font-family="monospace" font-size="14px" font-style="normal" font-weight="normal" text-decoration="normal" x="590.8601713180542" y="250.3583221435547" text-anchor="middle" dominant-baseline="text-after-edge">-1</text><path fill="none" stroke="#505050" paint-order="fill stroke markers" d=" M 578.3601713180542 250.3583221435547 L 586.3601713180542 250.3583221435547 L 586.3601713180542 258.3583221435547 L 578.3601713180542 258.3583221435547 L 578.3601713180542 250.3583221435547 Z" stroke-miterlimit="10" stroke-width="0.5" stroke-dasharray=""/><path fill="none" stroke="#505050" paint-order="fill stroke markers" d=" M 595.3601713180542 250.3583221435547 L 603.3601713180542 250.3583221435547 L 603.3601713180542 258.3583221435547 L 595.3601713180542 258.3583221435547 L 595.3601713180542 250.3583221435547 Z" stroke-miterlimit="10" stroke-width="0.5" stroke-dasharray=""/><path fill="white" stroke="#505050" paint-order="fill stroke markers" d=" M 464.18896484375 280.06468296051025 L 504.18896484375 280.06468296051025 L 504.18896484375 330.06468296051025 L 464.18896484375 330.06468296051025 L 464.18896484375 280.06468296051025 Z" stroke-miterlimit="10" stroke-width="0.5" stroke-dasharray=""/><path fill="#F0F0F0" stroke="none" paint-order="stroke fill markers" d=" M 480.18896484375 310.06468296051025 L 504.18896484375 310.06468296051025 L 504.18896484375 326.06468296051025 L 480.18896484375 326.06468296051025 L 480.18896484375 310.06468296051025 Z"/><path fill="none" stroke="none"/><text fill="#505050" stroke="none" font-family="monospace" font-size="14px" font-style="normal" font-weight="normal" text-decoration="normal" x="484.18896484375" y="298.06468296051025" text-anchor="middle" dominant-baseline="text-after-edge">let</text><path fill="none" stroke="#505050" paint-order="fill stroke markers" d=" M 464.18896484375 298.06468296051025 L 472.18896484375 298.06468296051025 L 472.18896484375 306.06468296051025 L 464.18896484375 306.06468296051025 L 464.18896484375 298.06468296051025 Z" stroke-miterlimit="10" stroke-width="0.5" stroke-dasharray=""/><path fill="none" stroke="#505050" paint-order="fill stroke markers" d=" M 496.18896484375 298.06468296051025 L 504.18896484375 298.06468296051025 L 504.18896484375 306.06468296051025 L 496.18896484375 306.06468296051025 L 496.18896484375 298.06468296051025 Z" stroke-miterlimit="10" stroke-width="0.5" stroke-dasharray=""/><path fill="none" stroke="#505050" paint-order="fill stroke markers" d=" M 480.18896484375 310.06468296051025 L 504.18896484375 310.06468296051025 L 504.18896484375 326.06468296051025 L 480.18896484375 326.06468296051025 L 480.18896484375 310.06468296051025 Z" stroke-miterlimit="10" stroke-width="0.5" stroke-dasharray=""/><path fill="none" stroke="none"/><path fill="none" stroke="#505050" paint-order="fill stroke markers" d=" M 480.18896484375 314.06468296051025 L 488.18896484375 314.06468296051025 L 488.18896484375 322.06468296051025 L 480.18896484375 322.06468296051025 L 480.18896484375 314.06468296051025 Z" stroke-miterlimit="10" stroke-width="0.5" stroke-dasharray=""/><path fill="none" stroke="#505050" paint-order="fill stroke markers" d=" M 496.18896484375 314.06468296051025 L 504.18896484375 314.06468296051025 L 504.18896484375 322.06468296051025 L 496.18896484375 322.06468296051025 L 496.18896484375 314.06468296051025 Z" stroke-miterlimit="10" stroke-width="0.5" stroke-dasharray=""/><path fill="white" stroke="#505050" paint-order="fill stroke markers" d=" M 418.6016616821289 294.37211322784424 L 450.6016616821289 294.37211322784424 L 450.6016616821289 312.37211322784424 L 418.6016616821289 312.37211322784424 L 418.6016616821289 294.37211322784424 Z" stroke-miterlimit="10" stroke-width="0.5" stroke-dasharray=""/><path fill="#F0F0F0" stroke="none" paint-order="stroke fill markers" d=""/><path fill="none" stroke="none"/><path fill="none" stroke="#505050" paint-order="fill stroke markers" d=" M 442.6016616821289 298.37211322784424 L 450.6016616821289 298.37211322784424 L 450.6016616821289 306.37211322784424 L 442.6016616821289 306.37211322784424 L 442.6016616821289 298.37211322784424 Z" stroke-miterlimit="10" stroke-width="0.5" stroke-dasharray=""/><text fill="#505050" stroke="none" font-family="monospace" font-size="14px" font-style="normal" font-weight="normal" text-decoration="normal" x="434.6016616821289" y="312.37211322784424" text-anchor="end" dominant-baseline="text-after-edge">1</text><path fill="white" stroke="#505050" paint-order="fill stroke markers" d=" M 730.2692594528198 187.57161712646484 L 873.2692594528198 187.57161712646484 L 873.2692594528198 253.57161712646484 L 730.2692594528198 253.57161712646484 L 730.2692594528198 187.57161712646484 Z" stroke-miterlimit="10" stroke-width="0.5" stroke-dasharray=""/><path fill="#F0F0F0" stroke="none" paint-order="stroke fill markers" d=""/><path fill="none" stroke="none"/><text fill="#505050" stroke="none" font-family="monospace" font-size="14px" font-style="normal" font-weight="normal" text-decoration="normal" x="801.7692594528198" y="205.57161712646484" text-anchor="middle" dominant-baseline="text-after-edge">for [start,end]-</text><path fill="none" stroke="#505050" paint-order="fill stroke markers" d=" M 730.2692594528198 205.57161712646484 L 738.2692594528198 205.57161712646484 L 738.2692594528198 213.57161712646484 L 730.2692594528198 213.57161712646484 L 730.2692594528198 205.57161712646484 Z" stroke-miterlimit="10" stroke-width="0.5" stroke-dasharray=""/><text fill="#505050" stroke="none" font-family="monospace" font-size="14px" font-style="normal" font-weight="normal" text-decoration="normal" x="746.2692594528198" y="219.57161712646484" text-anchor="start" dominant-baseline="text-after-edge">start</text><path fill="none" stroke="#505050" paint-order="fill stroke markers" d=" M 730.2692594528198 219.57161712646484 L 738.2692594528198 219.57161712646484 L 738.2692594528198 227.57161712646484 L 730.2692594528198 227.57161712646484 L 730.2692594528198 219.57161712646484 Z" stroke-miterlimit="10" stroke-width="0.5" stroke-dasharray=""/><text fill="#505050" stroke="none" font-family="monospace" font-size="14px" font-style="normal" font-weight="normal" text-decoration="normal" x="746.2692594528198" y="233.57161712646484" text-anchor="start" dominant-baseline="text-after-edge">end</text><path fill="none" stroke="#505050" paint-order="fill stroke markers" d=" M 730.2692594528198 233.57161712646484 L 754.2692594528198 233.57161712646484 L 754.2692594528198 249.57161712646484 L 730.2692594528198 249.57161712646484 L 730.2692594528198 233.57161712646484 Z" stroke-miterlimit="10" stroke-width="0.5" stroke-dasharray=""/><path fill="none" stroke="none"/><path fill="none" stroke="#505050" paint-order="fill stroke markers" d=" M 730.2692594528198 237.57161712646484 L 738.2692594528198 237.57161712646484 L 738.2692594528198 245.57161712646484 L 730.2692594528198 245.57161712646484 L 730.2692594528198 237.57161712646484 Z" stroke-miterlimit="10" stroke-width="0.5" stroke-dasharray=""/><path fill="none" stroke="#505050" paint-order="fill stroke markers" d=" M 746.2692594528198 237.57161712646484 L 754.2692594528198 237.57161712646484 L 754.2692594528198 245.57161712646484 L 746.2692594528198 245.57161712646484 L 746.2692594528198 237.57161712646484 Z" stroke-miterlimit="10" stroke-width="0.5" stroke-dasharray=""/><text fill="#505050" stroke="none" font-family="monospace" font-size="14px" font-style="normal" font-weight="normal" text-decoration="normal" x="762.2692594528198" y="250.57161712646484" text-anchor="start" dominant-baseline="text-after-edge">body</text><path fill="none" stroke="#505050" paint-order="fill stroke markers" d=" M 865.2692594528198 205.57161712646484 L 873.2692594528198 205.57161712646484 L 873.2692594528198 213.57161712646484 L 865.2692594528198 213.57161712646484 L 865.2692594528198 205.57161712646484 Z" stroke-miterlimit="10" stroke-width="0.5" stroke-dasharray=""/><text fill="#505050" stroke="none" font-family="monospace" font-size="14px" font-style="normal" font-weight="normal" text-decoration="normal" x="857.2692594528198" y="219.57161712646484" text-anchor="end" dominant-baseline="text-after-edge">p</text><path fill="none" stroke="none"/><path fill="none" stroke="#e0e0e0" paint-order="fill stroke markers" d=" M 508.18896484375 318.06468296051025 C 535.5314756597386 318.06468296051025 571.98210752355 317.0146179199219 599.3246183395386 317.0146179199219" stroke-miterlimit="10" stroke-width="2" stroke-dasharray=""/><path fill="none" stroke="#505050" paint-order="fill stroke markers" d=" M 706.9266080856323 188.0524673461914 C 716.451091599736 188.0524673461914 720.7447759387162 209.57161712646484 730.2692594528198 209.57161712646484" stroke-miterlimit="10" stroke-dasharray=""/><path fill="none" stroke="#505050" paint-order="fill stroke markers" d=" M 873.2692594528198 209.57161712646484 C 876.7525231524462 209.57161712646484 881.3928683117872 209.2666244506836 884.8761320114136 209.2666244506836" stroke-miterlimit="10" stroke-dasharray=""/><path fill="none" stroke="#505050" paint-order="fill stroke markers" d=" M 703.3608121871948 243.4712371826172 C 711.4534371108163 243.4712371826172 722.1766345291984 241.57161712646484 730.2692594528198 241.57161712646484" stroke-miterlimit="10" stroke-dasharray=""/><path fill="none" stroke="#505050" paint-order="fill stroke markers" d=" M 711.7561092376709 210.6853151321411 C 718.5230447256139 210.6853151321411 723.5023239648768 223.57161712646484 730.2692594528198 223.57161712646484" stroke-miterlimit="10" stroke-dasharray=""/><path fill="none" stroke="#505050" paint-order="fill stroke markers" d=" M 504.18896484375 302.06468296051025 C 521.4941686356383 302.06468296051025 544.5620065962953 301.24902057647705 561.8672103881836 301.24902057647705" stroke-miterlimit="10" stroke-dasharray=""/><path fill="none" stroke="#505050" paint-order="fill stroke markers" d=" M 450.6016616821289 302.37211322784424 C 454.6788958980842 302.37211322784424 460.1117306277947 302.06468296051025 464.18896484375 302.06468296051025" stroke-miterlimit="10" stroke-dasharray=""/><path fill="none" stroke="#505050" paint-order="fill stroke markers" d=" M 662.758544921875 276.8348741531372 C 665.3393258151775 276.8348741531372 668.7800312938923 276.91087341308594 671.3608121871948 276.91087341308594" stroke-miterlimit="10" stroke-dasharray=""/><path fill="none" stroke="#505050" paint-order="fill stroke markers" d=" M 603.3601713180542 254.3583221435547 C 615.9395839419872 254.3583221435547 626.179132297942 276.8348741531372 638.758544921875 276.8348741531372" stroke-miterlimit="10" stroke-dasharray=""/><path fill="none" stroke="#505050" paint-order="fill stroke markers" d=" M 553.1584320068359 254.0145845413208 C 560.7196570257387 254.0145845413208 570.7989462991515 254.3583221435547 578.3601713180542 254.3583221435547" stroke-miterlimit="10" stroke-dasharray=""/><path fill="none" stroke="#505050" paint-order="fill stroke markers" d=" M 553.1584320068359 254.0145845413208 C 564.046854634792 254.0145845413208 550.9787877602275 289.24902057647705 561.8672103881836 289.24902057647705" stroke-miterlimit="10" stroke-dasharray=""/><path fill="none" stroke="#505050" paint-order="fill stroke markers" d=" M 627.3246183395386 310.0146179199219 C 634.5453149874058 310.0146179199219 631.5378482740077 288.8348741531372 638.758544921875 288.8348741531372" stroke-miterlimit="10" stroke-dasharray=""/><path fill="none" stroke="#505050" paint-order="fill stroke markers" d=" M 585.8672103881836 289.24902057647705 C 594.0058467166425 289.24902057647705 595.1859820110797 310.0146179199219 603.3246183395386 310.0146179199219" stroke-miterlimit="10" stroke-dasharray=""/></g></g></svg>