<svg version="1.1" xmlns="http://www.w3.org/2000/svg" xmlns:xlink="http://www.w3.org/1999/xlink" width="656.4530057907104" height="672.5536069869995"><defs/><g transform="translate(-389.2904357910156,-60.75811767578125)"><g><path fill="white" stroke="#505050" paint-order="fill stroke markers" d=" M 397.2904357910156 76.75811767578125 L 397.2904357910156 257.0795316696167 Q 397.2904357910156 265.0795316696167 405.2904357910156 265.0795316696167 L 868.0079193115234 265.0795316696167 Q 876.0079193115234 265.0795316696167 876.0079193115234 257.0795316696167 L 876.0079193115234 76.75811767578125 Q 876.0079193115234 68.75811767578125 868.0079193115234 68.75811767578125 L 405.2904357910156 68.75811767578125 Q 397.2904357910156 68.75811767578125 397.2904357910156 76.75811767578125" stroke-miterlimit="10" stroke-width="0.5" stroke-dasharray=""/><path fill="#F0F0F0" stroke="#505050" paint-order="fill stroke markers" d=" M 786.0079193115234 76.75811767578125 L 876.0079193115234 76.75811767578125 L 876.0079193115234 148.75811767578125 L 786.0079193115234 148.75811767578125 L 786.0079193115234 76.75811767578125 Z" stroke-miterlimit="10" stroke-width="0.5" stroke-dasharray=""/><path fill="none" stroke="none"/><text fill="#505050" stroke="none" font-family="monospace" font-size="14px" font-style="normal" font-weight="normal" text-decoration="normal" x="831.0079193115234" y="94.75811767578125" text-anchor="middle" dominant-baseline="text-after-edge">while-do</text><path fill="none" stroke="#505050" paint-order="fill stroke markers" d=" M 786.0079193115234 94.75811767578125 L 818.0079193115234 94.75811767578125 L 818.0079193115234 130.75811767578125 L 786.0079193115234 130.75811767578125 L 786.0079193115234 94.75811767578125 Z" stroke-miterlimit="10" stroke-width="0.5" stroke-dasharray=""/><path fill="none" stroke="none"/><path fill="none" stroke="#505050" paint-order="fill stroke markers" d=" M 810.0079193115234 98.75811767578125 L 818.0079193115234 98.75811767578125 L 818.0079193115234 106.75811767578125 L 810.0079193115234 106.75811767578125 L 810.0079193115234 98.75811767578125 Z" stroke-miterlimit="10" stroke-width="0.5" stroke-dasharray=""/><path fill="none" stroke="#505050" paint-order="fill stroke markers" d=" M 794.0079193115234 110.75811767578125 L 818.0079193115234 110.75811767578125 L 818.0079193115234 126.75811767578125 L 794.0079193115234 126.75811767578125 L 794.0079193115234 110.75811767578125 Z" stroke-miterlimit="10" stroke-width="0.5" stroke-dasharray=""/><path fill="none" stroke="none"/><path fill="none" stroke="#505050" paint-order="fill stroke markers" d=" M 802.0079193115234 118.75811767578125 A 4 4 0 1 0 802.0079173115236 118.76211767511458" stroke-miterlimit="10" stroke-width="0.5" stroke-dasharray=""/><path fill="none" stroke="#505050" paint-order="fill stroke markers" d=" M 818.0079193115234 118.75811767578125 A 4 4 0 1 0 818.0079173115236 118.76211767511458" stroke-miterlimit="10" stroke-width="0.5" stroke-dasharray=""/><text fill="#505050" stroke="none" font-family="monospace" font-size="14px" font-style="normal" font-weight="normal" text-decoration="normal" x="826.0079193115234" y="121.75811767578125" text-anchor="start" dominant-baseline="text-after-edge">iter</text><path fill="none" stroke="#505050" paint-order="fill stroke markers" d=" M 794.0079193115234 138.75811767578125 A 4 4 0 1 0 794.0079173115236 138.76211767511458" stroke-miterlimit="10" stroke-width="0.5" stroke-dasharray=""/><text fill="#505050" stroke="none" font-family="monospace" font-size="14px" font-style="normal" font-weight="normal" text-decoration="normal" x="802.0079193115234" y="148.75811767578125" text-anchor="start" dominant-baseline="text-after-edge">v0</text><path fill="none" stroke="#505050" paint-order="fill stroke markers" d=" M 876.0079193115234 98.75811767578125 A 4 4 0 1 0 876.0079173115236 98.76211767511458" stroke-miterlimit="10" stroke-width="0.5" stroke-dasharray=""/><path fill="none" stroke="none"/><path fill="white" stroke="#505050" paint-order="fill stroke markers" d=" M 408.9346618652344 101.76559066772461 L 466.9346618652344 101.76559066772461 L 466.9346618652344 159.7655906677246 L 408.9346618652344 159.7655906677246 L 416.9346618652344 130.7655906677246 L 408.9346618652344 101.76559066772461" stroke-miterlimit="10" stroke-width="0.5" stroke-dasharray=""/><path fill="#F0F0F0" stroke="none" paint-order="stroke fill markers" d=" M 424.9346618652344 105.76559066772461 L 466.9346618652344 105.76559066772461 L 466.9346618652344 155.7655906677246 L 424.9346618652344 155.7655906677246 L 424.9346618652344 105.76559066772461 Z"/><path fill="none" stroke="none"/><path fill="none" stroke="#505050" paint-order="fill stroke markers" d=" M 424.9346618652344 105.76559066772461 L 466.9346618652344 105.76559066772461 L 466.9346618652344 155.7655906677246 L 424.9346618652344 155.7655906677246 L 424.9346618652344 105.76559066772461 Z" stroke-miterlimit="10" stroke-width="0.5" stroke-dasharray=""/><path fill="none" stroke="none"/><text fill="#505050" stroke="none" font-family="monospace" font-size="14px" font-style="normal" font-weight="normal" text-decoration="normal" x="445.9346618652344" y="123.76559066772461" text-anchor="middle" dominant-baseline="text-after-edge">iter</text><path fill="none" stroke="#505050" paint-order="fill stroke markers" d=" M 458.9346618652344 123.76559066772461 L 466.9346618652344 123.76559066772461 L 466.9346618652344 131.7655906677246 L 458.9346618652344 131.7655906677246 L 458.9346618652344 123.76559066772461 Z" stroke-miterlimit="10" stroke-width="0.5" stroke-dasharray=""/><path fill="none" stroke="#505050" paint-order="fill stroke markers" d=" M 442.9346618652344 135.7655906677246 L 466.9346618652344 135.7655906677246 L 466.9346618652344 151.7655906677246 L 442.9346618652344 151.7655906677246 L 442.9346618652344 135.7655906677246 Z" stroke-miterlimit="10" stroke-width="0.5" stroke-dasharray=""/><path fill="none" stroke="none"/><path fill="none" stroke="#505050" paint-order="fill stroke markers" d=" M 450.9346618652344 143.7655906677246 A 4 4 0 1 0 450.93465986523455 143.76959066705794" stroke-miterlimit="10" stroke-width="0.5" stroke-dasharray=""/><path fill="none" stroke="#505050" paint-order="fill stroke markers" d=" M 466.9346618652344 143.7655906677246 A 4 4 0 1 0 466.93465986523455 143.76959066705794" stroke-miterlimit="10" stroke-width="0.5" stroke-dasharray=""/><path fill="white" stroke="#505050" paint-order="fill stroke markers" d=" M 498.1181335449219 98.25950622558594 L 498.1181335449219 202.3444366455078 Q 498.1181335449219 210.3444366455078 506.1181335449219 210.3444366455078 L 753.4711027145386 210.3444366455078 Q 761.4711027145386 210.3444366455078 761.4711027145386 202.3444366455078 L 761.4711027145386 98.25950622558594 Q 761.4711027145386 90.25950622558594 753.4711027145386 90.25950622558594 L 506.1181335449219 90.25950622558594 Q 498.1181335449219 90.25950622558594 498.1181335449219 98.25950622558594" stroke-miterlimit="10" stroke-width="0.5" stroke-dasharray=""/><path fill="#F0F0F0" stroke="#505050" paint-order="fill stroke markers" d=" M 719.4711027145386 98.25950622558594 L 761.4711027145386 98.25950622558594 L 761.4711027145386 128.25950622558594 L 719.4711027145386 128.25950622558594 L 719.4711027145386 98.25950622558594 Z" stroke-miterlimit="10" stroke-width="0.5" stroke-dasharray=""/><path fill="none" stroke="none"/><text fill="#505050" stroke="none" font-family="monospace" font-size="14px" font-style="normal" font-weight="normal" text-decoration="normal" x="740.4711027145386" y="116.25950622558594" text-anchor="middle" dominant-baseline="text-after-edge">loop</text><path fill="none" stroke="#505050" paint-order="fill stroke markers" d=" M 727.4711027145386 120.25950622558594 A 4 4 0 1 0 727.4711007145387 120.26350622491927" stroke-miterlimit="10" stroke-width="0.5" stroke-dasharray=""/><path fill="none" stroke="#505050" paint-order="fill stroke markers" d=" M 761.4711027145386 120.25950622558594 A 4 4 0 1 0 761.4711007145387 120.26350622491927" stroke-miterlimit="10" stroke-width="0.5" stroke-dasharray=""/><path fill="white" stroke="#505050" paint-order="fill stroke markers" d=" M 680.8388519287109 121.306396484375 L 704.8388519287109 121.306396484375 L 704.8388519287109 175.306396484375 L 680.8388519287109 175.306396484375 L 680.8388519287109 121.306396484375 Z" stroke-miterlimit="10" stroke-width="0.5" stroke-dasharray=""/><path fill="#F0F0F0" stroke="none" paint-order="stroke fill markers" d=""/><path fill="none" stroke="none"/><text fill="#505050" stroke="none" font-family="monospace" font-size="14px" font-style="normal" font-weight="normal" text-decoration="normal" x="692.8388519287109" y="139.306396484375" text-anchor="middle" dominant-baseline="text-after-edge">?</text><path fill="none" stroke="#505050" paint-order="fill stroke markers" d=" M 680.8388519287109 139.306396484375 L 688.8388519287109 139.306396484375 L 688.8388519287109 147.306396484375 L 680.8388519287109 147.306396484375 L 680.8388519287109 139.306396484375 Z" stroke-miterlimit="10" stroke-width="0.5" stroke-dasharray=""/><path fill="none" stroke="#505050" paint-order="fill stroke markers" d=" M 688.8388519287109 155.306396484375 A 4 4 0 1 0 688.838849928711 155.31039648370833" stroke-miterlimit="10" stroke-width="0.5" stroke-dasharray=""/><path fill="none" stroke="#505050" paint-order="fill stroke markers" d=" M 688.8388519287109 167.306396484375 A 4 4 0 1 0 688.838849928711 167.31039648370833" stroke-miterlimit="10" stroke-width="0.5" stroke-dasharray=""/><path fill="none" stroke="#505050" paint-order="fill stroke markers" d=" M 704.8388519287109 143.306396484375 A 4 4 0 1 0 704.838849928711 143.31039648370833" stroke-miterlimit="10" stroke-width="0.5" stroke-dasharray=""/><path fill="white" stroke="#505050" paint-order="fill stroke markers" d=" M 535.5926570892334 178.3444366455078 L 551.5926570892334 178.3444366455078 L 551.5926570892334 194.3444366455078 L 535.5926570892334 194.3444366455078 L 543.5926570892334 186.3444366455078 L 535.5926570892334 178.3444366455078" stroke-miterlimit="10" stroke-width="0.5" stroke-dasharray=""/><path fill="none" stroke="none"/><path fill="none" stroke="#505050" paint-order="fill stroke markers" d=" M 551.5926570892334 186.3444366455078 A 4 4 0 1 0 551.5926550892335 186.34843664484114" stroke-miterlimit="10" stroke-width="0.5" stroke-dasharray=""/><path fill="white" stroke="#505050" paint-order="fill stroke markers" d=" M 727.5713224411011 142.7101926803589 L 735.5713224411011 142.7101926803589 L 743.5713224411011 150.7101926803589 L 735.5713224411011 158.7101926803589 L 727.5713224411011 158.7101926803589 L 727.5713224411011 142.7101926803589" stroke-miterlimit="10" stroke-width="0.5" stroke-dasharray=""/><path fill="none" stroke="none"/><path fill="none" stroke="#505050" paint-order="fill stroke markers" d=" M 735.5713224411011 150.7101926803589 A 4 4 0 1 0 735.5713204411012 150.71419267969222" stroke-miterlimit="10" stroke-width="0.5" stroke-dasharray=""/><path fill="white" stroke="#505050" paint-order="fill stroke markers" d=" M 614.3504362106323 133.64412212371826 L 656.3504362106323 133.64412212371826 L 656.3504362106323 163.64412212371826 L 614.3504362106323 163.64412212371826 L 614.3504362106323 133.64412212371826 Z" stroke-miterlimit="10" stroke-width="0.5" stroke-dasharray=""/><path fill="#F0F0F0" stroke="none" paint-order="stroke fill markers" d=""/><path fill="none" stroke="none"/><text fill="#505050" stroke="none" font-family="monospace" font-size="14px" font-style="normal" font-weight="normal" text-decoration="normal" x="635.3504362106323" y="151.64412212371826" text-anchor="middle" dominant-baseline="text-after-edge">loop</text><path fill="none" stroke="#505050" paint-order="fill stroke markers" d=" M 622.3504362106323 155.64412212371826 A 4 4 0 1 0 622.3504342106324 155.6481221230516" stroke-miterlimit="10" stroke-width="0.5" stroke-dasharray=""/><path fill="none" stroke="#505050" paint-order="fill stroke markers" d=" M 656.3504362106323 155.64412212371826 A 4 4 0 1 0 656.3504342106324 155.6481221230516" stroke-miterlimit="10" stroke-width="0.5" stroke-dasharray=""/><path fill="white" stroke="#505050" paint-order="fill stroke markers" d=" M 513.2493619918823 96.86787700653076 L 555.2493619918823 96.86787700653076 L 555.2493619918823 146.86787700653076 L 513.2493619918823 146.86787700653076 L 513.2493619918823 96.86787700653076 Z" stroke-miterlimit="10" stroke-width="0.5" stroke-dasharray=""/><path fill="#F0F0F0" stroke="none" paint-order="stroke fill markers" d=" M 531.2493619918823 126.86787700653076 L 555.2493619918823 126.86787700653076 L 555.2493619918823 142.86787700653076 L 531.2493619918823 142.86787700653076 L 531.2493619918823 126.86787700653076 Z"/><path fill="none" stroke="none"/><text fill="#505050" stroke="none" font-family="monospace" font-size="14px" font-style="normal" font-weight="normal" text-decoration="normal" x="534.2493619918823" y="114.86787700653076" text-anchor="middle" dominant-baseline="text-after-edge">iter</text><path fill="none" stroke="#505050" paint-order="fill stroke markers" d=" M 547.2493619918823 114.86787700653076 L 555.2493619918823 114.86787700653076 L 555.2493619918823 122.86787700653076 L 547.2493619918823 122.86787700653076 L 547.2493619918823 114.86787700653076 Z" stroke-miterlimit="10" stroke-width="0.5" stroke-dasharray=""/><path fill="none" stroke="#505050" paint-order="fill stroke markers" d=" M 531.2493619918823 126.86787700653076 L 555.2493619918823 126.86787700653076 L 555.2493619918823 142.86787700653076 L 531.2493619918823 142.86787700653076 L 531.2493619918823 126.86787700653076 Z" stroke-miterlimit="10" stroke-width="0.5" stroke-dasharray=""/><path fill="none" stroke="none"/><path fill="none" stroke="#505050" paint-order="fill stroke markers" d=" M 539.2493619918823 134.86787700653076 A 4 4 0 1 0 539.2493599918824 134.8718770058641" stroke-miterlimit="10" stroke-width="0.5" stroke-dasharray=""/><path fill="none" stroke="#505050" paint-order="fill stroke markers" d=" M 555.2493619918823 134.86787700653076 A 4 4 0 1 0 555.2493599918824 134.8718770058641" stroke-miterlimit="10" stroke-width="0.5" stroke-dasharray=""/><path fill="white" stroke="#505050" paint-order="fill stroke markers" d=" M 572.7095670700073 146.64840984344482 L 596.7095670700073 146.64840984344482 L 596.7095670700073 162.64840984344482 L 572.7095670700073 162.64840984344482 L 572.7095670700073 146.64840984344482 Z" stroke-miterlimit="10" stroke-width="0.5" stroke-dasharray=""/><path fill="#F0F0F0" stroke="none" paint-order="stroke fill markers" d=""/><path fill="none" stroke="none"/><path fill="none" stroke="#505050" paint-order="fill stroke markers" d=" M 580.7095670700073 154.64840984344482 A 4 4 0 1 0 580.7095650700074 154.65240984277816" stroke-miterlimit="10" stroke-width="0.5" stroke-dasharray=""/><path fill="none" stroke="#505050" paint-order="fill stroke markers" d=" M 596.7095670700073 154.64840984344482 A 4 4 0 1 0 596.7095650700074 154.65240984277816" stroke-miterlimit="10" stroke-width="0.5" stroke-dasharray=""/><path fill="white" stroke="#505050" paint-order="fill stroke markers" d=" M 416.49078369140625 230.51063919067383 L 457.49078369140625 230.51063919067383 L 457.49078369140625 248.51063919067383 L 416.49078369140625 248.51063919067383 L 424.49078369140625 239.51063919067383 L 416.49078369140625 230.51063919067383" stroke-miterlimit="10" stroke-width="0.5" stroke-dasharray=""/><path fill="none" stroke="none"/><path fill="none" stroke="#505050" paint-order="fill stroke markers" d=" M 457.49078369140625 238.51063919067383 A 4 4 0 1 0 457.4907816914064 238.51463919000716" stroke-miterlimit="10" stroke-width="0.5" stroke-dasharray=""/><text fill="#505050" stroke="none" font-family="monospace" font-size="14px" font-style="normal" font-weight="normal" text-decoration="normal" x="441.49078369140625" y="248.51063919067383" text-anchor="end" dominant-baseline="text-after-edge">v0</text><path fill="white" stroke="#505050" paint-order="fill stroke markers" d=" M 588.0042448043823 218.43037700653076 L 630.0042448043823 218.43037700653076 L 630.0042448043823 248.43037700653076 L 588.0042448043823 248.43037700653076 L 588.0042448043823 218.43037700653076 Z" stroke-miterlimit="10" stroke-width="0.5" stroke-dasharray=""/><path fill="#F0F0F0" stroke="none" paint-order="stroke fill markers" d=""/><path fill="none" stroke="none"/><text fill="#505050" stroke="none" font-family="monospace" font-size="14px" font-style="normal" font-weight="normal" text-decoration="normal" x="609.0042448043823" y="236.43037700653076" text-anchor="middle" dominant-baseline="text-after-edge">loop</text><path fill="none" stroke="#505050" paint-order="fill stroke markers" d=" M 596.0042448043823 240.43037700653076 A 4 4 0 1 0 596.0042428043824 240.4343770058641" stroke-miterlimit="10" stroke-width="0.5" stroke-dasharray=""/><path fill="none" stroke="#505050" paint-order="fill stroke markers" d=" M 630.0042448043823 240.43037700653076 A 4 4 0 1 0 630.0042428043824 240.4343770058641" stroke-miterlimit="10" stroke-width="0.5" stroke-dasharray=""/><path fill="white" stroke="#505050" paint-order="fill stroke markers" d=" M 652.2727384567261 233.0795316696167 L 660.2727384567261 233.0795316696167 L 668.2727384567261 241.0795316696167 L 660.2727384567261 249.0795316696167 L 652.2727384567261 249.0795316696167 L 652.2727384567261 233.0795316696167" stroke-miterlimit="10" stroke-width="0.5" stroke-dasharray=""/><path fill="none" stroke="none"/><path fill="none" stroke="#505050" paint-order="fill stroke markers" d=" M 660.2727384567261 241.0795316696167 A 4 4 0 1 0 660.2727364567262 241.08353166895003" stroke-miterlimit="10" stroke-width="0.5" stroke-dasharray=""/><path fill="white" stroke="#505050" paint-order="fill stroke markers" d=" M 398.62225341796875 525.6394653320312 L 398.62225341796875 717.3117246627808 Q 398.62225341796875 725.3117246627808 406.62225341796875 725.3117246627808 L 869.3397369384766 725.3117246627808 Q 877.3397369384766 725.3117246627808 877.3397369384766 717.3117246627808 L 877.3397369384766 525.6394653320312 Q 877.3397369384766 517.6394653320312 869.3397369384766 517.6394653320312 L 406.62225341796875 517.6394653320312 Q 398.62225341796875 517.6394653320312 398.62225341796875 525.6394653320312" stroke-miterlimit="10" stroke-width="0.5" stroke-dasharray=""/><path fill="#F0F0F0" stroke="#505050" paint-order="fill stroke markers" d=" M 787.3397369384766 525.6394653320312 L 877.3397369384766 525.6394653320312 L 877.3397369384766 597.6394653320312 L 787.3397369384766 597.6394653320312 L 787.3397369384766 525.6394653320312 Z" stroke-miterlimit="10" stroke-width="0.5" stroke-dasharray=""/><path fill="none" stroke="none"/><text fill="#505050" stroke="none" font-family="monospace" font-size="14px" font-style="normal" font-weight="normal" text-decoration="normal" x="832.3397369384766" y="543.6394653320312" text-anchor="middle" dominant-baseline="text-after-edge">do-while</text><path fill="none" stroke="#505050" paint-order="fill stroke markers" d=" M 787.3397369384766 543.6394653320312 L 819.3397369384766 543.6394653320312 L 819.3397369384766 579.6394653320312 L 787.3397369384766 579.6394653320312 L 787.3397369384766 543.6394653320312 Z" stroke-miterlimit="10" stroke-width="0.5" stroke-dasharray=""/><path fill="none" stroke="none"/><path fill="none" stroke="#505050" paint-order="fill stroke markers" d=" M 811.3397369384766 547.6394653320312 L 819.3397369384766 547.6394653320312 L 819.3397369384766 555.6394653320312 L 811.3397369384766 555.6394653320312 L 811.3397369384766 547.6394653320312 Z" stroke-miterlimit="10" stroke-width="0.5" stroke-dasharray=""/><path fill="none" stroke="#505050" paint-order="fill stroke markers" d=" M 795.3397369384766 559.6394653320312 L 819.3397369384766 559.6394653320312 L 819.3397369384766 575.6394653320312 L 795.3397369384766 575.6394653320312 L 795.3397369384766 559.6394653320312 Z" stroke-miterlimit="10" stroke-width="0.5" stroke-dasharray=""/><path fill="none" stroke="none"/><path fill="none" stroke="#505050" paint-order="fill stroke markers" d=" M 803.3397369384766 567.6394653320312 A 4 4 0 1 0 803.3397349384767 567.6434653313646" stroke-miterlimit="10" stroke-width="0.5" stroke-dasharray=""/><path fill="none" stroke="#505050" paint-order="fill stroke markers" d=" M 819.3397369384766 567.6394653320312 A 4 4 0 1 0 819.3397349384767 567.6434653313646" stroke-miterlimit="10" stroke-width="0.5" stroke-dasharray=""/><text fill="#505050" stroke="none" font-family="monospace" font-size="14px" font-style="normal" font-weight="normal" text-decoration="normal" x="827.3397369384766" y="570.6394653320312" text-anchor="start" dominant-baseline="text-after-edge">iter</text><path fill="none" stroke="#505050" paint-order="fill stroke markers" d=" M 795.3397369384766 587.6394653320312 A 4 4 0 1 0 795.3397349384767 587.6434653313646" stroke-miterlimit="10" stroke-width="0.5" stroke-dasharray=""/><text fill="#505050" stroke="none" font-family="monospace" font-size="14px" font-style="normal" font-weight="normal" text-decoration="normal" x="803.3397369384766" y="597.6394653320312" text-anchor="start" dominant-baseline="text-after-edge">v0</text><path fill="none" stroke="#505050" paint-order="fill stroke markers" d=" M 877.3397369384766 547.6394653320312 A 4 4 0 1 0 877.3397349384767 547.6434653313646" stroke-miterlimit="10" stroke-width="0.5" stroke-dasharray=""/><path fill="none" stroke="none"/><path fill="white" stroke="#505050" paint-order="fill stroke markers" d=" M 410.2664794921875 550.6469383239746 L 468.2664794921875 550.6469383239746 L 468.2664794921875 608.6469383239746 L 410.2664794921875 608.6469383239746 L 418.2664794921875 579.6469383239746 L 410.2664794921875 550.6469383239746" stroke-miterlimit="10" stroke-width="0.5" stroke-dasharray=""/><path fill="#F0F0F0" stroke="none" paint-order="stroke fill markers" d=" M 426.2664794921875 554.6469383239746 L 468.2664794921875 554.6469383239746 L 468.2664794921875 604.6469383239746 L 426.2664794921875 604.6469383239746 L 426.2664794921875 554.6469383239746 Z"/><path fill="none" stroke="none"/><path fill="none" stroke="#505050" paint-order="fill stroke markers" d=" M 426.2664794921875 554.6469383239746 L 468.2664794921875 554.6469383239746 L 468.2664794921875 604.6469383239746 L 426.2664794921875 604.6469383239746 L 426.2664794921875 554.6469383239746 Z" stroke-miterlimit="10" stroke-width="0.5" stroke-dasharray=""/><path fill="none" stroke="none"/><text fill="#505050" stroke="none" font-family="monospace" font-size="14px" font-style="normal" font-weight="normal" text-decoration="normal" x="447.2664794921875" y="572.6469383239746" text-anchor="middle" dominant-baseline="text-after-edge">iter</text><path fill="none" stroke="#505050" paint-order="fill stroke markers" d=" M 460.2664794921875 572.6469383239746 L 468.2664794921875 572.6469383239746 L 468.2664794921875 580.6469383239746 L 460.2664794921875 580.6469383239746 L 460.2664794921875 572.6469383239746 Z" stroke-miterlimit="10" stroke-width="0.5" stroke-dasharray=""/><path fill="none" stroke="#505050" paint-order="fill stroke markers" d=" M 444.2664794921875 584.6469383239746 L 468.2664794921875 584.6469383239746 L 468.2664794921875 600.6469383239746 L 444.2664794921875 600.6469383239746 L 444.2664794921875 584.6469383239746 Z" stroke-miterlimit="10" stroke-width="0.5" stroke-dasharray=""/><path fill="none" stroke="none"/><path fill="none" stroke="#505050" paint-order="fill stroke markers" d=" M 452.2664794921875 592.6469383239746 A 4 4 0 1 0 452.2664774921877 592.650938323308" stroke-miterlimit="10" stroke-width="0.5" stroke-dasharray=""/><path fill="none" stroke="#505050" paint-order="fill stroke markers" d=" M 468.2664794921875 592.6469383239746 A 4 4 0 1 0 468.2664774921877 592.650938323308" stroke-miterlimit="10" stroke-width="0.5" stroke-dasharray=""/><path fill="white" stroke="#505050" paint-order="fill stroke markers" d=" M 499.449951171875 547.1408538818359 L 499.449951171875 651.2414398193359 Q 499.449951171875 659.2414398193359 507.449951171875 659.2414398193359 L 754.8029203414917 659.2414398193359 Q 762.8029203414917 659.2414398193359 762.8029203414917 651.2414398193359 L 762.8029203414917 547.1408538818359 Q 762.8029203414917 539.1408538818359 754.8029203414917 539.1408538818359 L 507.449951171875 539.1408538818359 Q 499.449951171875 539.1408538818359 499.449951171875 547.1408538818359" stroke-miterlimit="10" stroke-width="0.5" stroke-dasharray=""/><path fill="#F0F0F0" stroke="#505050" paint-order="fill stroke markers" d=" M 720.8029203414917 547.1408538818359 L 762.8029203414917 547.1408538818359 L 762.8029203414917 577.1408538818359 L 720.8029203414917 577.1408538818359 L 720.8029203414917 547.1408538818359 Z" stroke-miterlimit="10" stroke-width="0.5" stroke-dasharray=""/><path fill="none" stroke="none"/><text fill="#505050" stroke="none" font-family="monospace" font-size="14px" font-style="normal" font-weight="normal" text-decoration="normal" x="741.8029203414917" y="565.1408538818359" text-anchor="middle" dominant-baseline="text-after-edge">loop</text><path fill="none" stroke="#505050" paint-order="fill stroke markers" d=" M 728.8029203414917 569.1408538818359 A 4 4 0 1 0 728.8029183414918 569.1448538811693" stroke-miterlimit="10" stroke-width="0.5" stroke-dasharray=""/><path fill="none" stroke="#505050" paint-order="fill stroke markers" d=" M 762.8029203414917 569.1408538818359 A 4 4 0 1 0 762.8029183414918 569.1448538811693" stroke-miterlimit="10" stroke-width="0.5" stroke-dasharray=""/><path fill="white" stroke="#505050" paint-order="fill stroke markers" d=" M 678.4632720947266 556.2637176513672 L 702.4632720947266 556.2637176513672 L 702.4632720947266 610.2637176513672 L 678.4632720947266 610.2637176513672 L 678.4632720947266 556.2637176513672 Z" stroke-miterlimit="10" stroke-width="0.5" stroke-dasharray=""/><path fill="#F0F0F0" stroke="none" paint-order="stroke fill markers" d=""/><path fill="none" stroke="none"/><text fill="#505050" stroke="none" font-family="monospace" font-size="14px" font-style="normal" font-weight="normal" text-decoration="normal" x="690.4632720947266" y="574.2637176513672" text-anchor="middle" dominant-baseline="text-after-edge">?</text><path fill="none" stroke="#505050" paint-order="fill stroke markers" d=" M 678.4632720947266 574.2637176513672 L 686.4632720947266 574.2637176513672 L 686.4632720947266 582.2637176513672 L 678.4632720947266 582.2637176513672 L 678.4632720947266 574.2637176513672 Z" stroke-miterlimit="10" stroke-width="0.5" stroke-dasharray=""/><path fill="none" stroke="#505050" paint-order="fill stroke markers" d=" M 686.4632720947266 590.2637176513672 A 4 4 0 1 0 686.4632700947267 590.2677176507005" stroke-miterlimit="10" stroke-width="0.5" stroke-dasharray=""/><path fill="none" stroke="#505050" paint-order="fill stroke markers" d=" M 686.4632720947266 602.2637176513672 A 4 4 0 1 0 686.4632700947267 602.2677176507005" stroke-miterlimit="10" stroke-width="0.5" stroke-dasharray=""/><path fill="none" stroke="#505050" paint-order="fill stroke markers" d=" M 702.4632720947266 578.2637176513672 A 4 4 0 1 0 702.4632700947267 578.2677176507005" stroke-miterlimit="10" stroke-width="0.5" stroke-dasharray=""/><path fill="white" stroke="#505050" paint-order="fill stroke markers" d=" M 539.6268672943115 624.0936737060547 L 555.6268672943115 624.0936737060547 L 555.6268672943115 640.0936737060547 L 539.6268672943115 640.0936737060547 L 547.6268672943115 632.0936737060547 L 539.6268672943115 624.0936737060547" stroke-miterlimit="10" stroke-width="0.5" stroke-dasharray=""/><path fill="none" stroke="none"/><path fill="none" stroke="#505050" paint-order="fill stroke markers" d=" M 555.6268672943115 632.0936737060547 A 4 4 0 1 0 555.6268652943116 632.097673705388" stroke-miterlimit="10" stroke-width="0.5" stroke-dasharray=""/><path fill="white" stroke="#505050" paint-order="fill stroke markers" d=" M 728.9031400680542 591.5915403366089 L 736.9031400680542 591.5915403366089 L 744.9031400680542 599.5915403366089 L 736.9031400680542 607.5915403366089 L 728.9031400680542 607.5915403366089 L 728.9031400680542 591.5915403366089" stroke-miterlimit="10" stroke-width="0.5" stroke-dasharray=""/><path fill="none" stroke="none"/><path fill="none" stroke="#505050" paint-order="fill stroke markers" d=" M 736.9031400680542 599.5915403366089 A 4 4 0 1 0 736.9031380680543 599.5955403359422" stroke-miterlimit="10" stroke-width="0.5" stroke-dasharray=""/><path fill="white" stroke="#505050" paint-order="fill stroke markers" d=" M 593.139651298523 573.331561088562 L 635.139651298523 573.331561088562 L 635.139651298523 603.331561088562 L 593.139651298523 603.331561088562 L 593.139651298523 573.331561088562 Z" stroke-miterlimit="10" stroke-width="0.5" stroke-dasharray=""/><path fill="#F0F0F0" stroke="none" paint-order="stroke fill markers" d=""/><path fill="none" stroke="none"/><text fill="#505050" stroke="none" font-family="monospace" font-size="14px" font-style="normal" font-weight="normal" text-decoration="normal" x="614.139651298523" y="591.331561088562" text-anchor="middle" dominant-baseline="text-after-edge">loop</text><path fill="none" stroke="#505050" paint-order="fill stroke markers" d=" M 601.139651298523 595.331561088562 A 4 4 0 1 0 601.1396492985231 595.3355610878954" stroke-miterlimit="10" stroke-width="0.5" stroke-dasharray=""/><path fill="none" stroke="#505050" paint-order="fill stroke markers" d=" M 635.139651298523 595.331561088562 A 4 4 0 1 0 635.1396492985231 595.3355610878954" stroke-miterlimit="10" stroke-width="0.5" stroke-dasharray=""/><path fill="white" stroke="#505050" paint-order="fill stroke markers" d=" M 516.445559501648 553.5439939498901 L 558.445559501648 553.5439939498901 L 558.445559501648 603.5439939498901 L 516.445559501648 603.5439939498901 L 516.445559501648 553.5439939498901 Z" stroke-miterlimit="10" stroke-width="0.5" stroke-dasharray=""/><path fill="#F0F0F0" stroke="none" paint-order="stroke fill markers" d=" M 534.445559501648 583.5439939498901 L 558.445559501648 583.5439939498901 L 558.445559501648 599.5439939498901 L 534.445559501648 599.5439939498901 L 534.445559501648 583.5439939498901 Z"/><path fill="none" stroke="none"/><text fill="#505050" stroke="none" font-family="monospace" font-size="14px" font-style="normal" font-weight="normal" text-decoration="normal" x="537.445559501648" y="571.5439939498901" text-anchor="middle" dominant-baseline="text-after-edge">iter</text><path fill="none" stroke="#505050" paint-order="fill stroke markers" d=" M 550.445559501648 571.5439939498901 L 558.445559501648 571.5439939498901 L 558.445559501648 579.5439939498901 L 550.445559501648 579.5439939498901 L 550.445559501648 571.5439939498901 Z" stroke-miterlimit="10" stroke-width="0.5" stroke-dasharray=""/><path fill="none" stroke="#505050" paint-order="fill stroke markers" d=" M 534.445559501648 583.5439939498901 L 558.445559501648 583.5439939498901 L 558.445559501648 599.5439939498901 L 534.445559501648 599.5439939498901 L 534.445559501648 583.5439939498901 Z" stroke-miterlimit="10" stroke-width="0.5" stroke-dasharray=""/><path fill="none" stroke="none"/><path fill="none" stroke="#505050" paint-order="fill stroke markers" d=" M 542.445559501648 591.5439939498901 A 4 4 0 1 0 542.4455575016481 591.5479939492235" stroke-miterlimit="10" stroke-width="0.5" stroke-dasharray=""/><path fill="none" stroke="#505050" paint-order="fill stroke markers" d=" M 558.445559501648 591.5439939498901 A 4 4 0 1 0 558.4455575016481 591.5479939492235" stroke-miterlimit="10" stroke-width="0.5" stroke-dasharray=""/><path fill="white" stroke="#505050" paint-order="fill stroke markers" d=" M 573.934817314148 615.4232206344604 L 597.934817314148 615.4232206344604 L 597.934817314148 631.4232206344604 L 573.934817314148 631.4232206344604 L 573.934817314148 615.4232206344604 Z" stroke-miterlimit="10" stroke-width="0.5" stroke-dasharray=""/><path fill="#F0F0F0" stroke="none" paint-order="stroke fill markers" d=""/><path fill="none" stroke="none"/><path fill="none" stroke="#505050" paint-order="fill stroke markers" d=" M 581.934817314148 623.4232206344604 A 4 4 0 1 0 581.9348153141481 623.4272206337938" stroke-miterlimit="10" stroke-width="0.5" stroke-dasharray=""/><path fill="none" stroke="#505050" paint-order="fill stroke markers" d=" M 597.934817314148 623.4232206344604 A 4 4 0 1 0 597.9348153141481 623.4272206337938" stroke-miterlimit="10" stroke-width="0.5" stroke-dasharray=""/><path fill="white" stroke="#505050" paint-order="fill stroke markers" d=" M 417.8226013183594 679.3919868469238 L 458.8226013183594 679.3919868469238 L 458.8226013183594 697.3919868469238 L 417.8226013183594 697.3919868469238 L 425.8226013183594 688.3919868469238 L 417.8226013183594 679.3919868469238" stroke-miterlimit="10" stroke-width="0.5" stroke-dasharray=""/><path fill="none" stroke="none"/><path fill="none" stroke="#505050" paint-order="fill stroke markers" d=" M 458.8226013183594 687.3919868469238 A 4 4 0 1 0 458.82259931835955 687.3959868462572" stroke-miterlimit="10" stroke-width="0.5" stroke-dasharray=""/><text fill="#505050" stroke="none" font-family="monospace" font-size="14px" font-style="normal" font-weight="normal" text-decoration="normal" x="442.8226013183594" y="697.3919868469238" text-anchor="end" dominant-baseline="text-after-edge">v0</text><path fill="white" stroke="#505050" paint-order="fill stroke markers" d=" M 589.3360624313354 667.3117246627808 L 631.3360624313354 667.3117246627808 L 631.3360624313354 697.3117246627808 L 589.3360624313354 697.3117246627808 L 589.3360624313354 667.3117246627808 Z" stroke-miterlimit="10" stroke-width="0.5" stroke-dasharray=""/><path fill="#F0F0F0" stroke="none" paint-order="stroke fill markers" d=""/><path fill="none" stroke="none"/><text fill="#505050" stroke="none" font-family="monospace" font-size="14px" font-style="normal" font-weight="normal" text-decoration="normal" x="610.3360624313354" y="685.3117246627808" text-anchor="middle" dominant-baseline="text-after-edge">loop</text><path fill="none" stroke="#505050" paint-order="fill stroke markers" d=" M 597.3360624313354 689.3117246627808 A 4 4 0 1 0 597.3360604313356 689.3157246621141" stroke-miterlimit="10" stroke-width="0.5" stroke-dasharray=""/><path fill="none" stroke="#505050" paint-order="fill stroke markers" d=" M 631.3360624313354 689.3117246627808 A 4 4 0 1 0 631.3360604313356 689.3157246621141" stroke-miterlimit="10" stroke-width="0.5" stroke-dasharray=""/><path fill="white" stroke="#505050" paint-order="fill stroke markers" d=" M 653.6045560836792 681.9608793258667 L 661.6045560836792 681.9608793258667 L 669.6045560836792 689.9608793258667 L 661.6045560836792 697.9608793258667 L 653.6045560836792 697.9608793258667 L 653.6045560836792 681.9608793258667" stroke-miterlimit="10" stroke-width="0.5" stroke-dasharray=""/><path fill="none" stroke="none"/><path fill="none" stroke="#505050" paint-order="fill stroke markers" d=" M 661.6045560836792 689.9608793258667 A 4 4 0 1 0 661.6045540836793 689.9648793252001" stroke-miterlimit="10" stroke-width="0.5" stroke-dasharray=""/><path fill="white" stroke="#505050" paint-order="fill stroke markers" d=" M 398.2513151168823 310.7151794433594 L 398.2513151168823 472.0823669433594 Q 398.2513151168823 480.0823669433594 406.2513151168823 480.0823669433594 L 1029.743441581726 480.0823669433594 Q 1037.743441581726 480.0823669433594 1037.743441581726 472.0823669433594 L 1037.743441581726 310.7151794433594 Q 1037.743441581726 302.7151794433594 1029.743441581726 302.7151794433594 L 406.2513151168823 302.7151794433594 Q 398.2513151168823 302.7151794433594 398.2513151168823 310.7151794433594" stroke-miterlimit="10" stroke-width="0.5" stroke-dasharray=""/><path fill="#F0F0F0" stroke="#505050" paint-order="fill stroke markers" d=" M 939.7434415817261 310.7151794433594 L 1037.743441581726 310.7151794433594 L 1037.743441581726 370.7151794433594 L 939.7434415817261 370.7151794433594 L 939.7434415817261 310.7151794433594 Z" stroke-miterlimit="10" stroke-width="0.5" stroke-dasharray=""/><path fill="none" stroke="none"/><text fill="#505050" stroke="none" font-family="monospace" font-size="14px" font-style="normal" font-weight="normal" text-decoration="normal" x="988.7434415817261" y="328.7151794433594" text-anchor="middle" dominant-baseline="text-after-edge">for(i₀..iₙ)</text><path fill="none" stroke="#505050" paint-order="fill stroke markers" d=" M 939.7434415817261 328.7151794433594 L 947.7434415817261 328.7151794433594 L 947.7434415817261 336.7151794433594 L 939.7434415817261 336.7151794433594 L 939.7434415817261 328.7151794433594 Z" stroke-miterlimit="10" stroke-width="0.5" stroke-dasharray=""/><text fill="#505050" stroke="none" font-family="monospace" font-size="14px" font-style="normal" font-weight="normal" text-decoration="normal" x="955.7434415817261" y="342.7151794433594" text-anchor="start" dominant-baseline="text-after-edge">iₙ</text><path fill="none" stroke="#505050" paint-order="fill stroke markers" d=" M 939.7434415817261 342.7151794433594 L 947.7434415817261 342.7151794433594 L 947.7434415817261 350.7151794433594 L 939.7434415817261 350.7151794433594 L 939.7434415817261 342.7151794433594 Z" stroke-miterlimit="10" stroke-width="0.5" stroke-dasharray=""/><text fill="#505050" stroke="none" font-family="monospace" font-size="14px" font-style="normal" font-weight="normal" text-decoration="normal" x="955.7434415817261" y="356.7151794433594" text-anchor="start" dominant-baseline="text-after-edge">i₀</text><path fill="none" stroke="#505050" paint-order="fill stroke markers" d=" M 947.7434415817261 360.7151794433594 A 4 4 0 1 0 947.7434395817262 360.71917944269273" stroke-miterlimit="10" stroke-width="0.5" stroke-dasharray=""/><text fill="#505050" stroke="none" font-family="monospace" font-size="14px" font-style="normal" font-weight="normal" text-decoration="normal" x="955.7434415817261" y="370.7151794433594" text-anchor="start" dominant-baseline="text-after-edge">v₀</text><path fill="none" stroke="#505050" paint-order="fill stroke markers" d=" M 1037.743441581726 332.7151794433594 A 4 4 0 1 0 1037.7434395817263 332.71917944269273" stroke-miterlimit="10" stroke-width="0.5" stroke-dasharray=""/><path fill="white" stroke="#505050" paint-order="fill stroke markers" d=" M 406.2513151168823 333.154070854187 L 444.2513151168823 333.154070854187 L 444.2513151168823 351.154070854187 L 406.2513151168823 351.154070854187 L 414.2513151168823 342.154070854187 L 406.2513151168823 333.154070854187" stroke-miterlimit="10" stroke-width="0.5" stroke-dasharray=""/><path fill="none" stroke="none"/><path fill="none" stroke="#505050" paint-order="fill stroke markers" d=" M 444.2513151168823 341.154070854187 A 4 4 0 1 0 444.2513131168825 341.15807085352037" stroke-miterlimit="10" stroke-width="0.5" stroke-dasharray=""/><text fill="#505050" stroke="none" font-family="monospace" font-size="14px" font-style="normal" font-weight="normal" text-decoration="normal" x="428.2513151168823" y="351.154070854187" text-anchor="end" dominant-baseline="text-after-edge">iₙ</text><path fill="white" stroke="#505050" paint-order="fill stroke markers" d=" M 699.8664245605469 420.6931791305542 L 740.8664245605469 420.6931791305542 L 740.8664245605469 438.6931791305542 L 699.8664245605469 438.6931791305542 L 707.8664245605469 429.6931791305542 L 699.8664245605469 420.6931791305542" stroke-miterlimit="10" stroke-width="0.5" stroke-dasharray=""/><path fill="none" stroke="none"/><path fill="none" stroke="#505050" paint-order="fill stroke markers" d=" M 740.8664245605469 428.6931791305542 A 4 4 0 1 0 740.866422560547 428.69717912988756" stroke-miterlimit="10" stroke-width="0.5" stroke-dasharray=""/><text fill="#505050" stroke="none" font-family="monospace" font-size="14px" font-style="normal" font-weight="normal" text-decoration="normal" x="724.8664245605469" y="438.6931791305542" text-anchor="end" dominant-baseline="text-after-edge">i₀</text><path fill="white" stroke="#505050" paint-order="fill stroke markers" d=" M 690.4523620605469 445.2421751022339 L 731.4523620605469 445.2421751022339 L 731.4523620605469 463.2421751022339 L 690.4523620605469 463.2421751022339 L 698.4523620605469 454.2421751022339 L 690.4523620605469 445.2421751022339" stroke-miterlimit="10" stroke-width="0.5" stroke-dasharray=""/><path fill="none" stroke="none"/><path fill="none" stroke="#505050" paint-order="fill stroke markers" d=" M 731.4523620605469 453.2421751022339 A 4 4 0 1 0 731.452360060547 453.24617510156725" stroke-miterlimit="10" stroke-width="0.5" stroke-dasharray=""/><text fill="#505050" stroke="none" font-family="monospace" font-size="14px" font-style="normal" font-weight="normal" text-decoration="normal" x="715.4523620605469" y="463.2421751022339" text-anchor="end" dominant-baseline="text-after-edge">v₀</text><path fill="white" stroke="#505050" paint-order="fill stroke markers" d=" M 755.5816955566406 420.6149787902832 L 787.5816955566406 420.6149787902832 L 787.5816955566406 456.6149787902832 L 755.5816955566406 456.6149787902832 L 755.5816955566406 420.6149787902832 Z" stroke-miterlimit="10" stroke-width="0.5" stroke-dasharray=""/><path fill="#F0F0F0" stroke="none" paint-order="stroke fill markers" d=" M 771.5816955566406 424.6149787902832 L 787.5816955566406 424.6149787902832 L 787.5816955566406 452.6149787902832 L 771.5816955566406 452.6149787902832 L 771.5816955566406 424.6149787902832 Z"/><path fill="none" stroke="none"/><path fill="none" stroke="#505050" paint-order="fill stroke markers" d=" M 755.5816955566406 424.6149787902832 L 763.5816955566406 424.6149787902832 L 763.5816955566406 432.6149787902832 L 755.5816955566406 432.6149787902832 L 755.5816955566406 424.6149787902832 Z" stroke-miterlimit="10" stroke-width="0.5" stroke-dasharray=""/><path fill="none" stroke="#505050" paint-order="fill stroke markers" d=" M 763.5816955566406 440.6149787902832 A 4 4 0 1 0 763.5816935566407 440.61897878961656" stroke-miterlimit="10" stroke-width="0.5" stroke-dasharray=""/><path fill="none" stroke="#505050" paint-order="fill stroke markers" d=" M 771.5816955566406 424.6149787902832 L 787.5816955566406 424.6149787902832 L 787.5816955566406 452.6149787902832 L 771.5816955566406 452.6149787902832 L 771.5816955566406 424.6149787902832 Z" stroke-miterlimit="10" stroke-width="0.5" stroke-dasharray=""/><path fill="none" stroke="none"/><path fill="none" stroke="#505050" paint-order="fill stroke markers" d=" M 779.5816955566406 428.6149787902832 L 787.5816955566406 428.6149787902832 L 787.5816955566406 436.6149787902832 L 779.5816955566406 436.6149787902832 L 779.5816955566406 428.6149787902832 Z" stroke-miterlimit="10" stroke-width="0.5" stroke-dasharray=""/><path fill="none" stroke="#505050" paint-order="fill stroke markers" d=" M 787.5816955566406 444.6149787902832 A 4 4 0 1 0 787.5816935566407 444.61897878961656" stroke-miterlimit="10" stroke-width="0.5" stroke-dasharray=""/><path fill="white" stroke="#505050" paint-order="fill stroke markers" d=" M 812.5637540817261 350.264178276062 L 902.5637540817261 350.264178276062 L 902.5637540817261 422.264178276062 L 812.5637540817261 422.264178276062 L 812.5637540817261 350.264178276062 Z" stroke-miterlimit="10" stroke-width="0.5" stroke-dasharray=""/><path fill="#F0F0F0" stroke="none" paint-order="stroke fill markers" d=""/><path fill="none" stroke="none"/><text fill="#505050" stroke="none" font-family="monospace" font-size="14px" font-style="normal" font-weight="normal" text-decoration="normal" x="857.5637540817261" y="368.264178276062" text-anchor="middle" dominant-baseline="text-after-edge">while-do</text><path fill="none" stroke="#505050" paint-order="fill stroke markers" d=" M 812.5637540817261 368.264178276062 L 844.5637540817261 368.264178276062 L 844.5637540817261 404.264178276062 L 812.5637540817261 404.264178276062 L 812.5637540817261 368.264178276062 Z" stroke-miterlimit="10" stroke-width="0.5" stroke-dasharray=""/><path fill="none" stroke="none"/><path fill="none" stroke="#505050" paint-order="fill stroke markers" d=" M 836.5637540817261 372.264178276062 L 844.5637540817261 372.264178276062 L 844.5637540817261 380.264178276062 L 836.5637540817261 380.264178276062 L 836.5637540817261 372.264178276062 Z" stroke-miterlimit="10" stroke-width="0.5" stroke-dasharray=""/><path fill="none" stroke="#505050" paint-order="fill stroke markers" d=" M 820.5637540817261 384.264178276062 L 844.5637540817261 384.264178276062 L 844.5637540817261 400.264178276062 L 820.5637540817261 400.264178276062 L 820.5637540817261 384.264178276062 Z" stroke-miterlimit="10" stroke-width="0.5" stroke-dasharray=""/><path fill="none" stroke="none"/><path fill="none" stroke="#505050" paint-order="fill stroke markers" d=" M 828.5637540817261 392.264178276062 A 4 4 0 1 0 828.5637520817262 392.26817827539537" stroke-miterlimit="10" stroke-width="0.5" stroke-dasharray=""/><path fill="none" stroke="#505050" paint-order="fill stroke markers" d=" M 844.5637540817261 392.264178276062 A 4 4 0 1 0 844.5637520817262 392.26817827539537" stroke-miterlimit="10" stroke-width="0.5" stroke-dasharray=""/><text fill="#505050" stroke="none" font-family="monospace" font-size="14px" font-style="normal" font-weight="normal" text-decoration="normal" x="852.5637540817261" y="395.264178276062" text-anchor="start" dominant-baseline="text-after-edge">iter</text><path fill="none" stroke="#505050" paint-order="fill stroke markers" d=" M 820.5637540817261 412.264178276062 A 4 4 0 1 0 820.5637520817262 412.26817827539537" stroke-miterlimit="10" stroke-width="0.5" stroke-dasharray=""/><text fill="#505050" stroke="none" font-family="monospace" font-size="14px" font-style="normal" font-weight="normal" text-decoration="normal" x="828.5637540817261" y="422.264178276062" text-anchor="start" dominant-baseline="text-after-edge">v0</text><path fill="none" stroke="#505050" paint-order="fill stroke markers" d=" M 902.5637540817261 372.264178276062 A 4 4 0 1 0 902.5637520817262 372.26817827539537" stroke-miterlimit="10" stroke-width="0.5" stroke-dasharray=""/><path fill="white" stroke="#505050" paint-order="fill stroke markers" d=" M 459.74057960510254 318.7151794433594 L 459.74057960510254 456.0823669433594 Q 459.74057960510254 464.0823669433594 467.74057960510254 464.0823669433594 L 671.3684415817261 464.0823669433594 Q 679.3684415817261 464.0823669433594 679.3684415817261 456.0823669433594 L 679.3684415817261 318.7151794433594 Q 679.3684415817261 310.7151794433594 671.3684415817261 310.7151794433594 L 467.74057960510254 310.7151794433594 Q 459.74057960510254 310.7151794433594 459.74057960510254 318.7151794433594" stroke-miterlimit="10" stroke-width="0.5" stroke-dasharray=""/><path fill="#F0F0F0" stroke="#505050" paint-order="fill stroke markers" d=" M 639.3684415817261 318.7151794433594 L 679.3684415817261 318.7151794433594 L 679.3684415817261 366.7151794433594 L 639.3684415817261 366.7151794433594 L 639.3684415817261 318.7151794433594 Z" stroke-miterlimit="10" stroke-width="0.5" stroke-dasharray=""/><path fill="none" stroke="none"/><path fill="none" stroke="#505050" paint-order="fill stroke markers" d=" M 639.3684415817261 322.7151794433594 L 655.3684415817261 322.7151794433594 L 655.3684415817261 350.7151794433594 L 639.3684415817261 350.7151794433594 L 639.3684415817261 322.7151794433594 Z" stroke-miterlimit="10" stroke-width="0.5" stroke-dasharray=""/><path fill="none" stroke="none"/><path fill="none" stroke="#505050" paint-order="fill stroke markers" d=" M 639.3684415817261 326.7151794433594 L 647.3684415817261 326.7151794433594 L 647.3684415817261 334.7151794433594 L 639.3684415817261 334.7151794433594 L 639.3684415817261 326.7151794433594 Z" stroke-miterlimit="10" stroke-width="0.5" stroke-dasharray=""/><path fill="none" stroke="#505050" paint-order="fill stroke markers" d=" M 647.3684415817261 342.7151794433594 A 4 4 0 1 0 647.3684395817262 342.71917944269273" stroke-miterlimit="10" stroke-width="0.5" stroke-dasharray=""/><path fill="none" stroke="#505050" paint-order="fill stroke markers" d=" M 671.3684415817261 322.7151794433594 L 679.3684415817261 322.7151794433594 L 679.3684415817261 330.7151794433594 L 671.3684415817261 330.7151794433594 L 671.3684415817261 322.7151794433594 Z" stroke-miterlimit="10" stroke-width="0.5" stroke-dasharray=""/><path fill="none" stroke="#505050" paint-order="fill stroke markers" d=" M 663.3684415817261 334.7151794433594 L 679.3684415817261 334.7151794433594 L 679.3684415817261 362.7151794433594 L 663.3684415817261 362.7151794433594 L 663.3684415817261 334.7151794433594 Z" stroke-miterlimit="10" stroke-width="0.5" stroke-dasharray=""/><path fill="none" stroke="none"/><path fill="none" stroke="#505050" paint-order="fill stroke markers" d=" M 671.3684415817261 338.7151794433594 L 679.3684415817261 338.7151794433594 L 679.3684415817261 346.7151794433594 L 671.3684415817261 346.7151794433594 L 671.3684415817261 338.7151794433594 Z" stroke-miterlimit="10" stroke-width="0.5" stroke-dasharray=""/><path fill="none" stroke="#505050" paint-order="fill stroke markers" d=" M 679.3684415817261 354.7151794433594 A 4 4 0 1 0 679.3684395817262 354.71917944269273" stroke-miterlimit="10" stroke-width="0.5" stroke-dasharray=""/><path fill="white" stroke="#505050" paint-order="fill stroke markers" d=" M 503.1454257965088 430.0823669433594 L 535.1454257965088 430.0823669433594 L 535.1454257965088 448.0823669433594 L 503.1454257965088 448.0823669433594 L 503.1454257965088 430.0823669433594 Z" stroke-miterlimit="10" stroke-width="0.5" stroke-dasharray=""/><path fill="#F0F0F0" stroke="none" paint-order="stroke fill markers" d=""/><path fill="none" stroke="none"/><path fill="none" stroke="#505050" paint-order="fill stroke markers" d=" M 527.1454257965088 434.0823669433594 L 535.1454257965088 434.0823669433594 L 535.1454257965088 442.0823669433594 L 527.1454257965088 442.0823669433594 L 527.1454257965088 434.0823669433594 Z" stroke-miterlimit="10" stroke-width="0.5" stroke-dasharray=""/><text fill="#505050" stroke="none" font-family="monospace" font-size="14px" font-style="normal" font-weight="normal" text-decoration="normal" x="519.1454257965088" y="448.0823669433594" text-anchor="end" dominant-baseline="text-after-edge">1</text><path fill="white" stroke="#505050" paint-order="fill stroke markers" d=" M 546.355094909668 364.23365783691406 L 570.355094909668 364.23365783691406 L 570.355094909668 406.23365783691406 L 546.355094909668 406.23365783691406 L 546.355094909668 364.23365783691406 Z" stroke-miterlimit="10" stroke-width="0.5" stroke-dasharray=""/><path fill="#F0F0F0" stroke="none" paint-order="stroke fill markers" d=""/><path fill="none" stroke="none"/><text fill="#505050" stroke="none" font-family="monospace" font-size="14px" font-style="normal" font-weight="normal" text-decoration="normal" x="558.355094909668" y="382.23365783691406" text-anchor="middle" dominant-baseline="text-after-edge">+</text><path fill="none" stroke="#505050" paint-order="fill stroke markers" d=" M 546.355094909668 382.23365783691406 L 554.355094909668 382.23365783691406 L 554.355094909668 390.23365783691406 L 546.355094909668 390.23365783691406 L 546.355094909668 382.23365783691406 Z" stroke-miterlimit="10" stroke-width="0.5" stroke-dasharray=""/><path fill="none" stroke="#505050" paint-order="fill stroke markers" d=" M 546.355094909668 394.23365783691406 L 554.355094909668 394.23365783691406 L 554.355094909668 402.23365783691406 L 546.355094909668 402.23365783691406 L 546.355094909668 394.23365783691406 Z" stroke-miterlimit="10" stroke-width="0.5" stroke-dasharray=""/><path fill="none" stroke="#505050" paint-order="fill stroke markers" d=" M 562.355094909668 382.23365783691406 L 570.355094909668 382.23365783691406 L 570.355094909668 390.23365783691406 L 562.355094909668 390.23365783691406 L 562.355094909668 382.23365783691406 Z" stroke-miterlimit="10" stroke-width="0.5" stroke-dasharray=""/><path fill="white" stroke="#505050" paint-order="fill stroke markers" d=" M 642.6205778121948 400.88135051727295 L 650.6205778121948 400.88135051727295 L 658.6205778121948 408.88135051727295 L 650.6205778121948 416.88135051727295 L 642.6205778121948 416.88135051727295 L 642.6205778121948 400.88135051727295" stroke-miterlimit="10" stroke-width="0.5" stroke-dasharray=""/><path fill="none" stroke="none"/><path fill="none" stroke="#505050" paint-order="fill stroke markers" d=" M 650.6205778121948 408.88135051727295 A 4 4 0 1 0 650.6205758121949 408.8853505166063" stroke-miterlimit="10" stroke-width="0.5" stroke-dasharray=""/><path fill="white" stroke="#505050" paint-order="fill stroke markers" d=" M 496.8990783691406 387.6711006164551 L 528.8990783691406 387.6711006164551 L 528.8990783691406 423.6711006164551 L 496.8990783691406 423.6711006164551 L 496.8990783691406 387.6711006164551 Z" stroke-miterlimit="10" stroke-width="0.5" stroke-dasharray=""/><path fill="#F0F0F0" stroke="none" paint-order="stroke fill markers" d=""/><path fill="none" stroke="none"/><path fill="none" stroke="#505050" paint-order="fill stroke markers" d=" M 496.8990783691406 391.6711006164551 L 512.8990783691406 391.6711006164551 L 512.8990783691406 419.6711006164551 L 496.8990783691406 419.6711006164551 L 496.8990783691406 391.6711006164551 Z" stroke-miterlimit="10" stroke-width="0.5" stroke-dasharray=""/><path fill="none" stroke="none"/><path fill="none" stroke="#505050" paint-order="fill stroke markers" d=" M 496.8990783691406 395.6711006164551 L 504.8990783691406 395.6711006164551 L 504.8990783691406 403.6711006164551 L 496.8990783691406 403.6711006164551 L 496.8990783691406 395.6711006164551 Z" stroke-miterlimit="10" stroke-width="0.5" stroke-dasharray=""/><path fill="none" stroke="#505050" paint-order="fill stroke markers" d=" M 504.8990783691406 411.6711006164551 A 4 4 0 1 0 504.8990763691408 411.67510061578844" stroke-miterlimit="10" stroke-width="0.5" stroke-dasharray=""/><path fill="none" stroke="#505050" paint-order="fill stroke markers" d=" M 520.8990783691406 391.6711006164551 L 528.8990783691406 391.6711006164551 L 528.8990783691406 399.6711006164551 L 520.8990783691406 399.6711006164551 L 520.8990783691406 391.6711006164551 Z" stroke-miterlimit="10" stroke-width="0.5" stroke-dasharray=""/><path fill="none" stroke="#505050" paint-order="fill stroke markers" d=" M 528.8990783691406 407.6711006164551 A 4 4 0 1 0 528.8990763691407 407.67510061578844" stroke-miterlimit="10" stroke-width="0.5" stroke-dasharray=""/><path fill="white" stroke="#505050" paint-order="fill stroke markers" d=" M 590.0489807128906 390.4267768859863 L 622.0489807128906 390.4267768859863 L 622.0489807128906 426.4267768859863 L 590.0489807128906 426.4267768859863 L 590.0489807128906 390.4267768859863 Z" stroke-miterlimit="10" stroke-width="0.5" stroke-dasharray=""/><path fill="#F0F0F0" stroke="none" paint-order="stroke fill markers" d=" M 606.0489807128906 394.4267768859863 L 622.0489807128906 394.4267768859863 L 622.0489807128906 422.4267768859863 L 606.0489807128906 422.4267768859863 L 606.0489807128906 394.4267768859863 Z"/><path fill="none" stroke="none"/><path fill="none" stroke="#505050" paint-order="fill stroke markers" d=" M 590.0489807128906 394.4267768859863 L 598.0489807128906 394.4267768859863 L 598.0489807128906 402.4267768859863 L 590.0489807128906 402.4267768859863 L 590.0489807128906 394.4267768859863 Z" stroke-miterlimit="10" stroke-width="0.5" stroke-dasharray=""/><path fill="none" stroke="#505050" paint-order="fill stroke markers" d=" M 598.0489807128906 410.4267768859863 A 4 4 0 1 0 598.0489787128907 410.4307768853197" stroke-miterlimit="10" stroke-width="0.5" stroke-dasharray=""/><path fill="none" stroke="#505050" paint-order="fill stroke markers" d=" M 606.0489807128906 394.4267768859863 L 622.0489807128906 394.4267768859863 L 622.0489807128906 422.4267768859863 L 606.0489807128906 422.4267768859863 L 606.0489807128906 394.4267768859863 Z" stroke-miterlimit="10" stroke-width="0.5" stroke-dasharray=""/><path fill="none" stroke="none"/><path fill="none" stroke="#505050" paint-order="fill stroke markers" d=" M 614.0489807128906 398.4267768859863 L 622.0489807128906 398.4267768859863 L 622.0489807128906 406.4267768859863 L 614.0489807128906 406.4267768859863 L 614.0489807128906 398.4267768859863 Z" stroke-miterlimit="10" stroke-width="0.5" stroke-dasharray=""/><path fill="none" stroke="#505050" paint-order="fill stroke markers" d=" M 622.0489807128906 414.4267768859863 A 4 4 0 1 0 622.0489787128907 414.4307768853197" stroke-miterlimit="10" stroke-width="0.5" stroke-dasharray=""/><path fill="white" stroke="#505050" paint-order="fill stroke markers" d=" M 546.891227722168 313.7967987060547 L 570.891227722168 313.7967987060547 L 570.891227722168 355.7967987060547 L 546.891227722168 355.7967987060547 L 546.891227722168 313.7967987060547 Z" stroke-miterlimit="10" stroke-width="0.5" stroke-dasharray=""/><path fill="#F0F0F0" stroke="none" paint-order="stroke fill markers" d=""/><path fill="none" stroke="none"/><text fill="#505050" stroke="none" font-family="monospace" font-size="14px" font-style="normal" font-weight="normal" text-decoration="normal" x="558.891227722168" y="331.7967987060547" text-anchor="middle" dominant-baseline="text-after-edge">&lt;</text><path fill="none" stroke="#505050" paint-order="fill stroke markers" d=" M 546.891227722168 331.7967987060547 L 554.891227722168 331.7967987060547 L 554.891227722168 339.7967987060547 L 546.891227722168 339.7967987060547 L 546.891227722168 331.7967987060547 Z" stroke-miterlimit="10" stroke-width="0.5" stroke-dasharray=""/><path fill="none" stroke="#505050" paint-order="fill stroke markers" d=" M 546.891227722168 343.7967987060547 L 554.891227722168 343.7967987060547 L 554.891227722168 351.7967987060547 L 546.891227722168 351.7967987060547 L 546.891227722168 343.7967987060547 Z" stroke-miterlimit="10" stroke-width="0.5" stroke-dasharray=""/><path fill="none" stroke="#505050" paint-order="fill stroke markers" d=" M 562.891227722168 331.7967987060547 L 570.891227722168 331.7967987060547 L 570.891227722168 339.7967987060547 L 562.891227722168 339.7967987060547 L 562.891227722168 331.7967987060547 Z" stroke-miterlimit="10" stroke-width="0.5" stroke-dasharray=""/><path fill="white" stroke="#505050" paint-order="fill stroke markers" d=" M 605.9231901168823 328.4914426803589 L 613.9231901168823 328.4914426803589 L 621.9231901168823 336.4914426803589 L 613.9231901168823 344.4914426803589 L 605.9231901168823 344.4914426803589 L 605.9231901168823 328.4914426803589" stroke-miterlimit="10" stroke-width="0.5" stroke-dasharray=""/><path fill="none" stroke="none"/><path fill="none" stroke="#505050" paint-order="fill stroke markers" d=" M 613.9231901168823 336.4914426803589 A 4 4 0 1 0 613.9231881168824 336.49544267969225" stroke-miterlimit="10" stroke-width="0.5" stroke-dasharray=""/><path fill="white" stroke="#505050" paint-order="fill stroke markers" d=" M 465.4131580889225 397.19172954559326 L 481.4131580889225 397.19172954559326 L 481.4131580889225 413.19172954559326 L 465.4131580889225 413.19172954559326 L 473.4131580889225 405.19172954559326 L 465.4131580889225 397.19172954559326" stroke-miterlimit="10" stroke-width="0.5" stroke-dasharray=""/><path fill="none" stroke="none"/><path fill="none" stroke="#505050" paint-order="fill stroke markers" d=" M 481.4131580889225 405.19172954559326 A 4 4 0 1 0 481.4131560889227 405.1957295449266" stroke-miterlimit="10" stroke-width="0.5" stroke-dasharray=""/><path fill="white" stroke="#505050" paint-order="fill stroke markers" d=" M 919.3465270996094 363.8998441696167 L 927.3465270996094 363.8998441696167 L 935.3465270996094 371.8998441696167 L 927.3465270996094 379.8998441696167 L 919.3465270996094 379.8998441696167 L 919.3465270996094 363.8998441696167" stroke-miterlimit="10" stroke-width="0.5" stroke-dasharray=""/><path fill="none" stroke="none"/><path fill="none" stroke="#505050" paint-order="fill stroke markers" d=" M 927.3465270996094 371.8998441696167 A 4 4 0 1 0 927.3465250996095 371.90384416895006" stroke-miterlimit="10" stroke-width="0.5" stroke-dasharray=""/><path fill="none" stroke="none"/><path fill="none" stroke="#e0e0e0" paint-order="fill stroke markers" d=" M 470.9346618652344 130.7655906677246 C 483.28976513719783 130.7655906677246 496.89425871991887 145.86787700653076 509.2493619918823 145.86787700653076" stroke-miterlimit="10" stroke-width="2" stroke-dasharray=""/><path fill="none" stroke="none"/><path fill="none" stroke="#e0e0e0" paint-order="fill stroke markers" d=" M 559.2493619918823 134.86787700653076 C 567.7700613600932 134.86787700653076 560.1888677017964 161.64840984344482 568.7095670700073 161.64840984344482" stroke-miterlimit="10" stroke-width="2" stroke-dasharray=""/><path fill="none" stroke="none"/><path fill="none" stroke="#e0e0e0" paint-order="fill stroke markers" d=" M 472.2664794921875 579.6469383239746 C 486.14008848216776 579.6469383239746 498.5719505116677 602.5439939498901 512.445559501648 602.5439939498901" stroke-miterlimit="10" stroke-width="2" stroke-dasharray=""/><path fill="none" stroke="none"/><path fill="none" stroke="#e0e0e0" paint-order="fill stroke markers" d=" M 562.445559501648 591.5439939498901 C 574.323753493813 591.5439939498901 558.0566233219829 630.4232206344604 569.934817314148 630.4232206344604" stroke-miterlimit="10" stroke-width="2" stroke-dasharray=""/><path fill="none" stroke="#505050" paint-order="fill stroke markers" d=" M 457.49078369140625 238.51063919067383 C 496.64905744354314 238.51063919067383 548.8459710522454 240.43037700653076 588.0042448043823 240.43037700653076" stroke-miterlimit="10" stroke-dasharray=""/><path fill="none" stroke="#505050" paint-order="fill stroke markers" d=" M 630.0042448043823 240.43037700653076 C 636.6876308488135 240.43037700653076 645.5893524122949 241.0795316696167 652.2727384567261 241.0795316696167" stroke-miterlimit="10" stroke-dasharray=""/><path fill="none" stroke="#505050" paint-order="fill stroke markers" d=" M 551.5926570892334 186.3444366455078 C 590.7849053894968 186.3444366455078 641.6466036284476 167.306396484375 680.8388519287109 167.306396484375" stroke-miterlimit="10" stroke-dasharray=""/><path fill="none" stroke="#505050" paint-order="fill stroke markers" d=" M 704.8388519287109 143.306396484375 C 712.0111825982877 143.306396484375 720.3989917715243 150.7101926803589 727.5713224411011 150.7101926803589" stroke-miterlimit="10" stroke-dasharray=""/><path fill="none" stroke="#505050" paint-order="fill stroke markers" d=" M 656.3504362106323 155.64412212371826 C 663.697659541184 155.64412212371826 673.4916285981593 155.306396484375 680.8388519287109 155.306396484375" stroke-miterlimit="10" stroke-dasharray=""/><path fill="none" stroke="#505050" paint-order="fill stroke markers" d=" M 555.2493619918823 118.86787700653076 C 593.6329067671836 118.86787700653076 642.4553071534096 143.306396484375 680.8388519287109 143.306396484375" stroke-miterlimit="10" stroke-dasharray=""/><path fill="none" stroke="#505050" paint-order="fill stroke markers" d=" M 596.7095670700073 154.64840984344482 C 602.0102513303983 154.64840984344482 609.0497519502413 155.64412212371826 614.3504362106323 155.64412212371826" stroke-miterlimit="10" stroke-dasharray=""/><path fill="none" stroke="#505050" paint-order="fill stroke markers" d=" M 551.5926570892334 186.3444366455078 C 563.0185303685757 186.3444366455078 561.283693790665 154.64840984344482 572.7095670700073 154.64840984344482" stroke-miterlimit="10" stroke-dasharray=""/><path fill="none" stroke="#505050" paint-order="fill stroke markers" d=" M 458.8226013183594 687.3919868469238 C 497.98087507049627 687.3919868469238 550.1777886791986 689.3117246627808 589.3360624313354 689.3117246627808" stroke-miterlimit="10" stroke-dasharray=""/><path fill="none" stroke="#505050" paint-order="fill stroke markers" d=" M 631.3360624313354 689.3117246627808 C 638.0194484757666 689.3117246627808 646.9211700392481 689.9608793258667 653.6045560836792 689.9608793258667" stroke-miterlimit="10" stroke-dasharray=""/><path fill="none" stroke="#505050" paint-order="fill stroke markers" d=" M 702.4632720947266 578.2637176513672 C 712.6541914597598 578.2637176513672 718.712220703021 599.5915403366089 728.9031400680542 599.5915403366089" stroke-miterlimit="10" stroke-dasharray=""/><path fill="none" stroke="#505050" paint-order="fill stroke markers" d=" M 635.139651298523 595.331561088562 C 648.2253581590538 595.331561088562 665.3775652341957 590.2637176513672 678.4632720947266 590.2637176513672" stroke-miterlimit="10" stroke-dasharray=""/><path fill="none" stroke="#505050" paint-order="fill stroke markers" d=" M 558.445559501648 575.5439939498901 C 594.4601168497238 575.5439939498901 642.4487147466507 578.2637176513672 678.4632720947266 578.2637176513672" stroke-miterlimit="10" stroke-dasharray=""/><path fill="none" stroke="#505050" paint-order="fill stroke markers" d=" M 597.934817314148 623.4232206344604 C 606.4842117830216 623.4232206344604 584.5902568296493 595.331561088562 593.139651298523 595.331561088562" stroke-miterlimit="10" stroke-dasharray=""/><path fill="none" stroke="#505050" paint-order="fill stroke markers" d=" M 555.6268672943115 632.0936737060547 C 561.7040542369355 632.0936737060547 567.857630371524 623.4232206344604 573.934817314148 623.4232206344604" stroke-miterlimit="10" stroke-dasharray=""/><path fill="none" stroke="#505050" paint-order="fill stroke markers" d=" M 597.934817314148 623.4232206344604 C 622.9134100212148 623.4232206344604 653.4846793876598 602.2637176513672 678.4632720947266 602.2637176513672" stroke-miterlimit="10" stroke-dasharray=""/><path fill="none" stroke="#505050" paint-order="fill stroke markers" d=" M 444.2513151168823 341.154070854187 C 475.10770788019994 341.154070854187 516.0348349588504 347.7967987060547 546.891227722168 347.7967987060547" stroke-miterlimit="10" stroke-dasharray=""/><path fill="none" stroke="#505050" paint-order="fill stroke markers" d=" M 679.3684415817261 342.7151794433594 C 721.4086079874065 342.7151794433594 770.5235876760456 386.264178276062 812.5637540817261 386.264178276062" stroke-miterlimit="10" stroke-dasharray=""/><path fill="none" stroke="#505050" paint-order="fill stroke markers" d=" M 787.5816955566406 438.6149787902832 C 798.4749096934414 438.6149787902832 801.6705399449253 412.264178276062 812.5637540817261 412.264178276062" stroke-miterlimit="10" stroke-dasharray=""/><path fill="none" stroke="#505050" paint-order="fill stroke markers" d=" M 740.8664245605469 428.6931791305542 C 745.2810681951286 428.6931791305542 751.1670519220589 428.6149787902832 755.5816955566406 428.6149787902832" stroke-miterlimit="10" stroke-dasharray=""/><path fill="none" stroke="#505050" paint-order="fill stroke markers" d=" M 731.4523620605469 453.2421751022339 C 739.622452265065 453.2421751022339 747.4116053521225 440.6149787902832 755.5816955566406 440.6149787902832" stroke-miterlimit="10" stroke-dasharray=""/><path fill="none" stroke="#505050" paint-order="fill stroke markers" d=" M 902.5637540817261 372.264178276062 C 907.5997722365764 372.264178276062 914.310508944759 371.8998441696167 919.3465270996094 371.8998441696167" stroke-miterlimit="10" stroke-dasharray=""/><path fill="none" stroke="#505050" paint-order="fill stroke markers" d=" M 535.1454257965088 438.0823669433594 C 547.5640354979566 438.0823669433594 533.9364852082201 398.23365783691406 546.355094909668 398.23365783691406" stroke-miterlimit="10" stroke-dasharray=""/><path fill="none" stroke="#505050" paint-order="fill stroke markers" d=" M 528.8990783691406 395.6711006164551 C 534.8522292635179 395.6711006164551 540.4019440152907 386.23365783691406 546.355094909668 386.23365783691406" stroke-miterlimit="10" stroke-dasharray=""/><path fill="none" stroke="#505050" paint-order="fill stroke markers" d=" M 528.8990783691406 407.6711006164551 C 547.2626670094836 407.6711006164551 571.6853920725476 410.4267768859863 590.0489807128906 410.4267768859863" stroke-miterlimit="10" stroke-dasharray=""/><path fill="none" stroke="#505050" paint-order="fill stroke markers" d=" M 528.8990783691406 395.6711006164551 C 547.6548362073072 395.6711006164551 528.1354698840014 335.7967987060547 546.891227722168 335.7967987060547" stroke-miterlimit="10" stroke-dasharray=""/><path fill="none" stroke="#505050" paint-order="fill stroke markers" d=" M 570.891227722168 335.7967987060547 C 581.4028823375372 335.7967987060547 595.4115355015131 336.4914426803589 605.9231901168823 336.4914426803589" stroke-miterlimit="10" stroke-dasharray=""/><path fill="none" stroke="#505050" paint-order="fill stroke markers" d=" M 622.0489807128906 408.4267768859863 C 628.2219663759399 408.4267768859863 636.4475921491455 408.88135051727295 642.6205778121948 408.88135051727295" stroke-miterlimit="10" stroke-dasharray=""/><path fill="none" stroke="#505050" paint-order="fill stroke markers" d=" M 481.4131580889225 405.19172954559326 C 486.0611595002171 405.19172954559326 492.251076957846 405.6711006164551 496.8990783691406 405.6711006164551" stroke-miterlimit="10" stroke-dasharray=""/><path fill="none" stroke="#505050" paint-order="fill stroke markers" d=" M 570.355094909668 386.23365783691406 C 577.3039736764741 386.23365783691406 583.1001019460845 398.4267768859863 590.0489807128906 398.4267768859863" stroke-miterlimit="10" stroke-dasharray=""/></g></g></svg>