<svg version="1.1" xmlns="http://www.w3.org/2000/svg" xmlns:xlink="http://www.w3.org/1999/xlink" width="456.1334533691406" height="345.0056667327881"><defs/><g transform="translate(-356.0326564311981,-19.786234855651855)"><g><path fill="white" stroke="#505050" paint-order="fill stroke markers" d=" M 364.0326564311981 35.786234855651855 L 364.0326564311981 172.0127878189087 Q 364.0326564311981 180.0127878189087 372.0326564311981 180.0127878189087 L 795.828768491745 180.0127878189087 Q 803.828768491745 180.0127878189087 803.828768491745 172.0127878189087 L 803.828768491745 35.786234855651855 Q 803.828768491745 27.786234855651855 795.828768491745 27.786234855651855 L 372.0326564311981 27.786234855651855 Q 364.0326564311981 27.786234855651855 364.0326564311981 35.786234855651855" stroke-miterlimit="10" stroke-width="0.5" stroke-dasharray=""/><path fill="#F0F0F0" stroke="#505050" paint-order="fill stroke markers" d=" M 660.828768491745 35.786234855651855 L 803.828768491745 35.786234855651855 L 803.828768491745 101.78623485565186 L 660.828768491745 101.78623485565186 L 660.828768491745 35.786234855651855 Z" stroke-miterlimit="10" stroke-width="0.5" stroke-dasharray=""/><path fill="none" stroke="none"/><text fill="#505050" stroke="none" font-family="monospace" font-size="14px" font-style="normal" font-weight="normal" text-decoration="normal" x="732.328768491745" y="53.786234855651855" text-anchor="middle" dominant-baseline="text-after-edge">for [start,end[+</text><path fill="none" stroke="#505050" paint-order="fill stroke markers" d=" M 660.828768491745 53.786234855651855 L 668.828768491745 53.786234855651855 L 668.828768491745 61.786234855651855 L 660.828768491745 61.786234855651855 L 660.828768491745 53.786234855651855 Z" stroke-miterlimit="10" stroke-width="0.5" stroke-dasharray=""/><text fill="#505050" stroke="none" font-family="monospace" font-size="14px" font-style="normal" font-weight="normal" text-decoration="normal" x="676.828768491745" y="67.78623485565186" text-anchor="start" dominant-baseline="text-after-edge">start</text><path fill="none" stroke="#505050" paint-order="fill stroke markers" d=" M 660.828768491745 67.78623485565186 L 668.828768491745 67.78623485565186 L 668.828768491745 75.78623485565186 L 660.828768491745 75.78623485565186 L 660.828768491745 67.78623485565186 Z" stroke-miterlimit="10" stroke-width="0.5" stroke-dasharray=""/><text fill="#505050" stroke="none" font-family="monospace" font-size="14px" font-style="normal" font-weight="normal" text-decoration="normal" x="676.828768491745" y="81.78623485565186" text-anchor="start" dominant-baseline="text-after-edge">end</text><path fill="none" stroke="#505050" paint-order="fill stroke markers" d=" M 660.828768491745 81.78623485565186 L 684.828768491745 81.78623485565186 L 684.828768491745 97.78623485565186 L 660.828768491745 97.78623485565186 L 660.828768491745 81.78623485565186 Z" stroke-miterlimit="10" stroke-width="0.5" stroke-dasharray=""/><path fill="none" stroke="none"/><path fill="none" stroke="#505050" paint-order="fill stroke markers" d=" M 660.828768491745 85.78623485565186 L 668.828768491745 85.78623485565186 L 668.828768491745 93.78623485565186 L 660.828768491745 93.78623485565186 L 660.828768491745 85.78623485565186 Z" stroke-miterlimit="10" stroke-width="0.5" stroke-dasharray=""/><path fill="none" stroke="#505050" paint-order="fill stroke markers" d=" M 676.828768491745 85.78623485565186 L 684.828768491745 85.78623485565186 L 684.828768491745 93.78623485565186 L 676.828768491745 93.78623485565186 L 676.828768491745 85.78623485565186 Z" stroke-miterlimit="10" stroke-width="0.5" stroke-dasharray=""/><text fill="#505050" stroke="none" font-family="monospace" font-size="14px" font-style="normal" font-weight="normal" text-decoration="normal" x="692.828768491745" y="98.78623485565186" text-anchor="start" dominant-baseline="text-after-edge">body</text><path fill="none" stroke="#505050" paint-order="fill stroke markers" d=" M 795.828768491745 53.786234855651855 L 803.828768491745 53.786234855651855 L 803.828768491745 61.786234855651855 L 795.828768491745 61.786234855651855 L 795.828768491745 53.786234855651855 Z" stroke-miterlimit="10" stroke-width="0.5" stroke-dasharray=""/><text fill="#505050" stroke="none" font-family="monospace" font-size="14px" font-style="normal" font-weight="normal" text-decoration="normal" x="787.828768491745" y="67.78623485565186" text-anchor="end" dominant-baseline="text-after-edge">p</text><path fill="none" stroke="#505050" paint-order="fill stroke markers" d=" M 549.1866481304169 94.79050731658936 L 541.1866481304169 94.79050731658936 M 647.1866481304169 90.79050731658936 L 655.1866481304169 90.79050731658936" stroke-miterlimit="10" stroke-dasharray=""/><path fill="white" stroke="#505050" paint-order="fill stroke markers" d=" M 448.6306788921356 38.058204650878906 L 514.6306788921356 38.058204650878906 L 514.6306788921356 56.058204650878906 L 448.6306788921356 56.058204650878906 L 456.6306788921356 47.058204650878906 L 448.6306788921356 38.058204650878906" stroke-miterlimit="10" stroke-width="0.5" stroke-dasharray=""/><path fill="none" stroke="none"/><path fill="none" stroke="#505050" paint-order="fill stroke markers" d=" M 506.6306788921356 42.058204650878906 L 514.6306788921356 42.058204650878906 L 514.6306788921356 50.058204650878906 L 506.6306788921356 50.058204650878906 L 506.6306788921356 42.058204650878906 Z" stroke-miterlimit="10" stroke-width="0.5" stroke-dasharray=""/><text fill="#505050" stroke="none" font-family="monospace" font-size="14px" font-style="normal" font-weight="normal" text-decoration="normal" x="498.6306788921356" y="56.058204650878906" text-anchor="end" dominant-baseline="text-after-edge">start</text><path fill="white" stroke="#505050" paint-order="fill stroke markers" d=" M 393.9878842830658 106.01278781890869 L 393.9878842830658 156.0127878189087 Q 393.9878842830658 164.0127878189087 401.9878842830658 164.0127878189087 L 511.03619360923767 164.0127878189087 Q 519.0361936092377 164.0127878189087 519.0361936092377 156.0127878189087 L 519.0361936092377 106.01278781890869 Q 519.0361936092377 98.01278781890869 511.03619360923767 98.01278781890869 L 401.9878842830658 98.01278781890869 Q 393.9878842830658 98.01278781890869 393.9878842830658 106.01278781890869" stroke-miterlimit="10" stroke-width="0.5" stroke-dasharray=""/><path fill="#F0F0F0" stroke="#505050" paint-order="fill stroke markers" d=" M 479.03619360923767 106.01278781890869 L 519.0361936092377 106.01278781890869 L 519.0361936092377 124.01278781890869 L 479.03619360923767 124.01278781890869 L 479.03619360923767 106.01278781890869 Z" stroke-miterlimit="10" stroke-width="0.5" stroke-dasharray=""/><path fill="none" stroke="none"/><path fill="none" stroke="#505050" paint-order="fill stroke markers" d=" M 479.03619360923767 110.01278781890869 L 487.03619360923767 110.01278781890869 L 487.03619360923767 118.01278781890869 L 479.03619360923767 118.01278781890869 L 479.03619360923767 110.01278781890869 Z" stroke-miterlimit="10" stroke-width="0.5" stroke-dasharray=""/><text fill="#505050" stroke="none" font-family="monospace" font-size="14px" font-style="normal" font-weight="normal" text-decoration="normal" x="495.03619360923767" y="124.01278781890869" text-anchor="start" dominant-baseline="text-after-edge">i</text><path fill="none" stroke="#505050" paint-order="fill stroke markers" d=" M 511.03619360923767 110.01278781890869 L 519.0361936092377 110.01278781890869 L 519.0361936092377 118.01278781890869 L 511.03619360923767 118.01278781890869 L 511.03619360923767 110.01278781890869 Z" stroke-miterlimit="10" stroke-width="0.5" stroke-dasharray=""/><path fill="none" stroke="#505050" paint-order="fill stroke markers" d=" M 474.40335059165955 128.0127878189087 L 482.40335059165955 128.0127878189087" stroke-miterlimit="10" stroke-dasharray=""/><path fill="white" stroke="#505050" paint-order="fill stroke markers" d=" M 450.40335059165955 106.01278781890869 L 474.40335059165955 106.01278781890869 L 474.40335059165955 148.0127878189087 L 450.40335059165955 148.0127878189087 L 450.40335059165955 106.01278781890869 Z" stroke-miterlimit="10" stroke-width="0.5" stroke-dasharray=""/><path fill="#F0F0F0" stroke="none" paint-order="stroke fill markers" d=""/><path fill="none" stroke="none"/><text fill="#505050" stroke="none" font-family="monospace" font-size="14px" font-style="normal" font-weight="normal" text-decoration="normal" x="462.40335059165955" y="124.01278781890869" text-anchor="middle" dominant-baseline="text-after-edge">&lt;</text><path fill="none" stroke="#505050" paint-order="fill stroke markers" d=" M 450.40335059165955 124.01278781890869 L 458.40335059165955 124.01278781890869 L 458.40335059165955 132.0127878189087 L 450.40335059165955 132.0127878189087 L 450.40335059165955 124.01278781890869 Z" stroke-miterlimit="10" stroke-width="0.5" stroke-dasharray=""/><path fill="none" stroke="#505050" paint-order="fill stroke markers" d=" M 450.40335059165955 136.0127878189087 L 458.40335059165955 136.0127878189087 L 458.40335059165955 144.0127878189087 L 450.40335059165955 144.0127878189087 L 450.40335059165955 136.0127878189087 Z" stroke-miterlimit="10" stroke-width="0.5" stroke-dasharray=""/><path fill="none" stroke="#505050" paint-order="fill stroke markers" d=" M 466.40335059165955 124.01278781890869 L 474.40335059165955 124.01278781890869 L 474.40335059165955 132.0127878189087 L 466.40335059165955 132.0127878189087 L 466.40335059165955 124.01278781890869 Z" stroke-miterlimit="10" stroke-width="0.5" stroke-dasharray=""/><path fill="white" stroke="#505050" paint-order="fill stroke markers" d=" M 401.9878842830658 120.37924480438232 L 433.9878842830658 120.37924480438232 L 433.9878842830658 138.37924480438232 L 401.9878842830658 138.37924480438232 L 409.9878842830658 129.37924480438232 L 401.9878842830658 120.37924480438232" stroke-miterlimit="10" stroke-width="0.5" stroke-dasharray=""/><path fill="none" stroke="none"/><path fill="none" stroke="#505050" paint-order="fill stroke markers" d=" M 425.9878842830658 124.37924480438232 L 433.9878842830658 124.37924480438232 L 433.9878842830658 132.37924480438232 L 425.9878842830658 132.37924480438232 L 425.9878842830658 124.37924480438232 Z" stroke-miterlimit="10" stroke-width="0.5" stroke-dasharray=""/><text fill="#505050" stroke="none" font-family="monospace" font-size="14px" font-style="normal" font-weight="normal" text-decoration="normal" x="417.9878842830658" y="138.37924480438232" text-anchor="end" dominant-baseline="text-after-edge">i</text><path fill="white" stroke="#505050" paint-order="fill stroke markers" d=" M 374.11153769493103 67.07319164276123 L 423.11153769493103 67.07319164276123 L 423.11153769493103 85.07319164276123 L 374.11153769493103 85.07319164276123 L 382.11153769493103 76.07319164276123 L 374.11153769493103 67.07319164276123" stroke-miterlimit="10" stroke-width="0.5" stroke-dasharray=""/><path fill="none" stroke="none"/><path fill="none" stroke="#505050" paint-order="fill stroke markers" d=" M 415.11153769493103 71.07319164276123 L 423.11153769493103 71.07319164276123 L 423.11153769493103 79.07319164276123 L 415.11153769493103 79.07319164276123 L 415.11153769493103 71.07319164276123 Z" stroke-miterlimit="10" stroke-width="0.5" stroke-dasharray=""/><text fill="#505050" stroke="none" font-family="monospace" font-size="14px" font-style="normal" font-weight="normal" text-decoration="normal" x="407.11153769493103" y="85.07319164276123" text-anchor="end" dominant-baseline="text-after-edge">end</text><path fill="white" stroke="#505050" paint-order="fill stroke markers" d=" M 549.1866481304169 68.79050731658936 L 647.1866481304169 68.79050731658936 L 647.1866481304169 140.79050731658936 L 549.1866481304169 140.79050731658936 L 549.1866481304169 68.79050731658936 Z" stroke-miterlimit="10" stroke-width="0.5" stroke-dasharray=""/><path fill="#F0F0F0" stroke="none" paint-order="stroke fill markers" d=""/><path fill="none" stroke="none"/><text fill="#505050" stroke="none" font-family="monospace" font-size="14px" font-style="normal" font-weight="normal" text-decoration="normal" x="598.1866481304169" y="86.79050731658936" text-anchor="middle" dominant-baseline="text-after-edge">while-do</text><path fill="none" stroke="#505050" paint-order="fill stroke markers" d=" M 549.1866481304169 86.79050731658936 L 573.1866481304169 86.79050731658936 L 573.1866481304169 102.79050731658936 L 549.1866481304169 102.79050731658936 L 549.1866481304169 86.79050731658936 Z" stroke-miterlimit="10" stroke-width="0.5" stroke-dasharray=""/><path fill="none" stroke="none"/><path fill="none" stroke="#505050" paint-order="fill stroke markers" d=" M 549.1866481304169 90.79050731658936 L 557.1866481304169 90.79050731658936 L 557.1866481304169 98.79050731658936 L 549.1866481304169 98.79050731658936 L 549.1866481304169 90.79050731658936 Z" stroke-miterlimit="10" stroke-width="0.5" stroke-dasharray=""/><path fill="none" stroke="#505050" paint-order="fill stroke markers" d=" M 565.1866481304169 90.79050731658936 L 573.1866481304169 90.79050731658936 L 573.1866481304169 98.79050731658936 L 565.1866481304169 98.79050731658936 L 565.1866481304169 90.79050731658936 Z" stroke-miterlimit="10" stroke-width="0.5" stroke-dasharray=""/><text fill="#505050" stroke="none" font-family="monospace" font-size="14px" font-style="normal" font-weight="normal" text-decoration="normal" x="581.1866481304169" y="103.79050731658936" text-anchor="start" dominant-baseline="text-after-edge">body</text><path fill="none" stroke="#505050" paint-order="fill stroke markers" d=" M 549.1866481304169 106.79050731658936 L 573.1866481304169 106.79050731658936 L 573.1866481304169 122.79050731658936 L 549.1866481304169 122.79050731658936 L 549.1866481304169 106.79050731658936 Z" stroke-miterlimit="10" stroke-width="0.5" stroke-dasharray=""/><path fill="none" stroke="none"/><path fill="none" stroke="#505050" paint-order="fill stroke markers" d=" M 549.1866481304169 110.79050731658936 L 557.1866481304169 110.79050731658936 L 557.1866481304169 118.79050731658936 L 549.1866481304169 118.79050731658936 L 549.1866481304169 110.79050731658936 Z" stroke-miterlimit="10" stroke-width="0.5" stroke-dasharray=""/><path fill="none" stroke="#505050" paint-order="fill stroke markers" d=" M 565.1866481304169 110.79050731658936 L 573.1866481304169 110.79050731658936 L 573.1866481304169 118.79050731658936 L 565.1866481304169 118.79050731658936 L 565.1866481304169 110.79050731658936 Z" stroke-miterlimit="10" stroke-width="0.5" stroke-dasharray=""/><text fill="#505050" stroke="none" font-family="monospace" font-size="14px" font-style="normal" font-weight="normal" text-decoration="normal" x="581.1866481304169" y="123.79050731658936" text-anchor="start" dominant-baseline="text-after-edge">test</text><path fill="none" stroke="#505050" paint-order="fill stroke markers" d=" M 549.1866481304169 126.79050731658936 L 557.1866481304169 126.79050731658936 L 557.1866481304169 134.79050731658936 L 549.1866481304169 134.79050731658936 L 549.1866481304169 126.79050731658936 Z" stroke-miterlimit="10" stroke-width="0.5" stroke-dasharray=""/><text fill="#505050" stroke="none" font-family="monospace" font-size="14px" font-style="normal" font-weight="normal" text-decoration="normal" x="565.1866481304169" y="140.79050731658936" text-anchor="start" dominant-baseline="text-after-edge">p</text><path fill="none" stroke="#505050" paint-order="fill stroke markers" d=" M 639.1866481304169 86.79050731658936 L 647.1866481304169 86.79050731658936 L 647.1866481304169 94.79050731658936 L 639.1866481304169 94.79050731658936 L 639.1866481304169 86.79050731658936 Z" stroke-miterlimit="10" stroke-width="0.5" stroke-dasharray=""/><text fill="#505050" stroke="none" font-family="monospace" font-size="14px" font-style="normal" font-weight="normal" text-decoration="normal" x="631.1866481304169" y="100.79050731658936" text-anchor="end" dominant-baseline="text-after-edge">p</text><path fill="white" stroke="#505050" paint-order="fill stroke markers" d=" M 364.36999773979187 212.5653486251831 L 364.36999773979187 348.79190158843994 Q 364.36999773979187 356.79190158843994 372.36999773979187 356.79190158843994 L 796.1661098003387 356.79190158843994 Q 804.1661098003387 356.79190158843994 804.1661098003387 348.79190158843994 L 804.1661098003387 212.5653486251831 Q 804.1661098003387 204.5653486251831 796.1661098003387 204.5653486251831 L 372.36999773979187 204.5653486251831 Q 364.36999773979187 204.5653486251831 364.36999773979187 212.5653486251831" stroke-miterlimit="10" stroke-width="0.5" stroke-dasharray=""/><path fill="#F0F0F0" stroke="#505050" paint-order="fill stroke markers" d=" M 661.1661098003387 212.5653486251831 L 804.1661098003387 212.5653486251831 L 804.1661098003387 278.5653486251831 L 661.1661098003387 278.5653486251831 L 661.1661098003387 212.5653486251831 Z" stroke-miterlimit="10" stroke-width="0.5" stroke-dasharray=""/><path fill="none" stroke="none"/><text fill="#505050" stroke="none" font-family="monospace" font-size="14px" font-style="normal" font-weight="normal" text-decoration="normal" x="732.6661098003387" y="230.5653486251831" text-anchor="middle" dominant-baseline="text-after-edge">for [start,end]-</text><path fill="none" stroke="#505050" paint-order="fill stroke markers" d=" M 661.1661098003387 230.5653486251831 L 669.1661098003387 230.5653486251831 L 669.1661098003387 238.5653486251831 L 661.1661098003387 238.5653486251831 L 661.1661098003387 230.5653486251831 Z" stroke-miterlimit="10" stroke-width="0.5" stroke-dasharray=""/><text fill="#505050" stroke="none" font-family="monospace" font-size="14px" font-style="normal" font-weight="normal" text-decoration="normal" x="677.1661098003387" y="244.5653486251831" text-anchor="start" dominant-baseline="text-after-edge">start</text><path fill="none" stroke="#505050" paint-order="fill stroke markers" d=" M 661.1661098003387 244.5653486251831 L 669.1661098003387 244.5653486251831 L 669.1661098003387 252.5653486251831 L 661.1661098003387 252.5653486251831 L 661.1661098003387 244.5653486251831 Z" stroke-miterlimit="10" stroke-width="0.5" stroke-dasharray=""/><text fill="#505050" stroke="none" font-family="monospace" font-size="14px" font-style="normal" font-weight="normal" text-decoration="normal" x="677.1661098003387" y="258.5653486251831" text-anchor="start" dominant-baseline="text-after-edge">end</text><path fill="none" stroke="#505050" paint-order="fill stroke markers" d=" M 661.1661098003387 258.5653486251831 L 685.1661098003387 258.5653486251831 L 685.1661098003387 274.5653486251831 L 661.1661098003387 274.5653486251831 L 661.1661098003387 258.5653486251831 Z" stroke-miterlimit="10" stroke-width="0.5" stroke-dasharray=""/><path fill="none" stroke="none"/><path fill="none" stroke="#505050" paint-order="fill stroke markers" d=" M 661.1661098003387 262.5653486251831 L 669.1661098003387 262.5653486251831 L 669.1661098003387 270.5653486251831 L 661.1661098003387 270.5653486251831 L 661.1661098003387 262.5653486251831 Z" stroke-miterlimit="10" stroke-width="0.5" stroke-dasharray=""/><path fill="none" stroke="#505050" paint-order="fill stroke markers" d=" M 677.1661098003387 262.5653486251831 L 685.1661098003387 262.5653486251831 L 685.1661098003387 270.5653486251831 L 677.1661098003387 270.5653486251831 L 677.1661098003387 262.5653486251831 Z" stroke-miterlimit="10" stroke-width="0.5" stroke-dasharray=""/><text fill="#505050" stroke="none" font-family="monospace" font-size="14px" font-style="normal" font-weight="normal" text-decoration="normal" x="693.1661098003387" y="275.5653486251831" text-anchor="start" dominant-baseline="text-after-edge">body</text><path fill="none" stroke="#505050" paint-order="fill stroke markers" d=" M 796.1661098003387 230.5653486251831 L 804.1661098003387 230.5653486251831 L 804.1661098003387 238.5653486251831 L 796.1661098003387 238.5653486251831 L 796.1661098003387 230.5653486251831 Z" stroke-miterlimit="10" stroke-width="0.5" stroke-dasharray=""/><text fill="#505050" stroke="none" font-family="monospace" font-size="14px" font-style="normal" font-weight="normal" text-decoration="normal" x="788.1661098003387" y="244.5653486251831" text-anchor="end" dominant-baseline="text-after-edge">p</text><path fill="none" stroke="#505050" paint-order="fill stroke markers" d=" M 549.5239894390106 271.5696210861206 L 541.5239894390106 271.5696210861206 M 647.5239894390106 267.5696210861206 L 655.5239894390106 267.5696210861206" stroke-miterlimit="10" stroke-dasharray=""/><path fill="white" stroke="#505050" paint-order="fill stroke markers" d=" M 448.96802020072937 214.83731842041016 L 514.9680202007294 214.83731842041016 L 514.9680202007294 232.83731842041016 L 448.96802020072937 232.83731842041016 L 456.96802020072937 223.83731842041016 L 448.96802020072937 214.83731842041016" stroke-miterlimit="10" stroke-width="0.5" stroke-dasharray=""/><path fill="none" stroke="none"/><path fill="none" stroke="#505050" paint-order="fill stroke markers" d=" M 506.96802020072937 218.83731842041016 L 514.9680202007294 218.83731842041016 L 514.9680202007294 226.83731842041016 L 506.96802020072937 226.83731842041016 L 506.96802020072937 218.83731842041016 Z" stroke-miterlimit="10" stroke-width="0.5" stroke-dasharray=""/><text fill="#505050" stroke="none" font-family="monospace" font-size="14px" font-style="normal" font-weight="normal" text-decoration="normal" x="498.96802020072937" y="232.83731842041016" text-anchor="end" dominant-baseline="text-after-edge">start</text><path fill="white" stroke="#505050" paint-order="fill stroke markers" d=" M 394.32522559165955 282.79190158843994 L 394.32522559165955 332.79190158843994 Q 394.32522559165955 340.79190158843994 402.32522559165955 340.79190158843994 L 511.3735349178314 340.79190158843994 Q 519.3735349178314 340.79190158843994 519.3735349178314 332.79190158843994 L 519.3735349178314 282.79190158843994 Q 519.3735349178314 274.79190158843994 511.3735349178314 274.79190158843994 L 402.32522559165955 274.79190158843994 Q 394.32522559165955 274.79190158843994 394.32522559165955 282.79190158843994" stroke-miterlimit="10" stroke-width="0.5" stroke-dasharray=""/><path fill="#F0F0F0" stroke="#505050" paint-order="fill stroke markers" d=" M 479.3735349178314 282.79190158843994 L 519.3735349178314 282.79190158843994 L 519.3735349178314 300.79190158843994 L 479.3735349178314 300.79190158843994 L 479.3735349178314 282.79190158843994 Z" stroke-miterlimit="10" stroke-width="0.5" stroke-dasharray=""/><path fill="none" stroke="none"/><path fill="none" stroke="#505050" paint-order="fill stroke markers" d=" M 479.3735349178314 286.79190158843994 L 487.3735349178314 286.79190158843994 L 487.3735349178314 294.79190158843994 L 479.3735349178314 294.79190158843994 L 479.3735349178314 286.79190158843994 Z" stroke-miterlimit="10" stroke-width="0.5" stroke-dasharray=""/><text fill="#505050" stroke="none" font-family="monospace" font-size="14px" font-style="normal" font-weight="normal" text-decoration="normal" x="495.3735349178314" y="300.79190158843994" text-anchor="start" dominant-baseline="text-after-edge">i</text><path fill="none" stroke="#505050" paint-order="fill stroke markers" d=" M 511.3735349178314 286.79190158843994 L 519.3735349178314 286.79190158843994 L 519.3735349178314 294.79190158843994 L 511.3735349178314 294.79190158843994 L 511.3735349178314 286.79190158843994 Z" stroke-miterlimit="10" stroke-width="0.5" stroke-dasharray=""/><path fill="none" stroke="#505050" paint-order="fill stroke markers" d=" M 475.7406919002533 304.79190158843994 L 483.7406919002533 304.79190158843994" stroke-miterlimit="10" stroke-dasharray=""/><path fill="white" stroke="#505050" paint-order="fill stroke markers" d=" M 450.7406919002533 282.79190158843994 L 475.7406919002533 282.79190158843994 L 475.7406919002533 324.79190158843994 L 450.7406919002533 324.79190158843994 L 450.7406919002533 282.79190158843994 Z" stroke-miterlimit="10" stroke-width="0.5" stroke-dasharray=""/><path fill="#F0F0F0" stroke="none" paint-order="stroke fill markers" d=""/><path fill="none" stroke="none"/><text fill="#505050" stroke="none" font-family="monospace" font-size="14px" font-style="normal" font-weight="normal" text-decoration="normal" x="463.2406919002533" y="300.79190158843994" text-anchor="middle" dominant-baseline="text-after-edge">&gt;=</text><path fill="none" stroke="#505050" paint-order="fill stroke markers" d=" M 450.7406919002533 300.79190158843994 L 458.7406919002533 300.79190158843994 L 458.7406919002533 308.79190158843994 L 450.7406919002533 308.79190158843994 L 450.7406919002533 300.79190158843994 Z" stroke-miterlimit="10" stroke-width="0.5" stroke-dasharray=""/><path fill="none" stroke="#505050" paint-order="fill stroke markers" d=" M 450.7406919002533 312.79190158843994 L 458.7406919002533 312.79190158843994 L 458.7406919002533 320.79190158843994 L 450.7406919002533 320.79190158843994 L 450.7406919002533 312.79190158843994 Z" stroke-miterlimit="10" stroke-width="0.5" stroke-dasharray=""/><path fill="none" stroke="#505050" paint-order="fill stroke markers" d=" M 467.7406919002533 300.79190158843994 L 475.7406919002533 300.79190158843994 L 475.7406919002533 308.79190158843994 L 467.7406919002533 308.79190158843994 L 467.7406919002533 300.79190158843994 Z" stroke-miterlimit="10" stroke-width="0.5" stroke-dasharray=""/><path fill="white" stroke="#505050" paint-order="fill stroke markers" d=" M 402.32522559165955 297.1583585739136 L 434.32522559165955 297.1583585739136 L 434.32522559165955 315.1583585739136 L 402.32522559165955 315.1583585739136 L 410.32522559165955 306.1583585739136 L 402.32522559165955 297.1583585739136" stroke-miterlimit="10" stroke-width="0.5" stroke-dasharray=""/><path fill="none" stroke="none"/><path fill="none" stroke="#505050" paint-order="fill stroke markers" d=" M 426.32522559165955 301.1583585739136 L 434.32522559165955 301.1583585739136 L 434.32522559165955 309.1583585739136 L 426.32522559165955 309.1583585739136 L 426.32522559165955 301.1583585739136 Z" stroke-miterlimit="10" stroke-width="0.5" stroke-dasharray=""/><text fill="#505050" stroke="none" font-family="monospace" font-size="14px" font-style="normal" font-weight="normal" text-decoration="normal" x="418.32522559165955" y="315.1583585739136" text-anchor="end" dominant-baseline="text-after-edge">i</text><path fill="white" stroke="#505050" paint-order="fill stroke markers" d=" M 374.4488790035248 243.85230541229248 L 423.4488790035248 243.85230541229248 L 423.4488790035248 261.8523054122925 L 374.4488790035248 261.8523054122925 L 382.4488790035248 252.85230541229248 L 374.4488790035248 243.85230541229248" stroke-miterlimit="10" stroke-width="0.5" stroke-dasharray=""/><path fill="none" stroke="none"/><path fill="none" stroke="#505050" paint-order="fill stroke markers" d=" M 415.4488790035248 247.85230541229248 L 423.4488790035248 247.85230541229248 L 423.4488790035248 255.85230541229248 L 415.4488790035248 255.85230541229248 L 415.4488790035248 247.85230541229248 Z" stroke-miterlimit="10" stroke-width="0.5" stroke-dasharray=""/><text fill="#505050" stroke="none" font-family="monospace" font-size="14px" font-style="normal" font-weight="normal" text-decoration="normal" x="407.4488790035248" y="261.8523054122925" text-anchor="end" dominant-baseline="text-after-edge">end</text><path fill="white" stroke="#505050" paint-order="fill stroke markers" d=" M 549.5239894390106 245.5696210861206 L 647.5239894390106 245.5696210861206 L 647.5239894390106 317.5696210861206 L 549.5239894390106 317.5696210861206 L 549.5239894390106 245.5696210861206 Z" stroke-miterlimit="10" stroke-width="0.5" stroke-dasharray=""/><path fill="#F0F0F0" stroke="none" paint-order="stroke fill markers" d=""/><path fill="none" stroke="none"/><text fill="#505050" stroke="none" font-family="monospace" font-size="14px" font-style="normal" font-weight="normal" text-decoration="normal" x="598.5239894390106" y="263.5696210861206" text-anchor="middle" dominant-baseline="text-after-edge">while-do</text><path fill="none" stroke="#505050" paint-order="fill stroke markers" d=" M 549.5239894390106 263.5696210861206 L 573.5239894390106 263.5696210861206 L 573.5239894390106 279.5696210861206 L 549.5239894390106 279.5696210861206 L 549.5239894390106 263.5696210861206 Z" stroke-miterlimit="10" stroke-width="0.5" stroke-dasharray=""/><path fill="none" stroke="none"/><path fill="none" stroke="#505050" paint-order="fill stroke markers" d=" M 549.5239894390106 267.5696210861206 L 557.5239894390106 267.5696210861206 L 557.5239894390106 275.5696210861206 L 549.5239894390106 275.5696210861206 L 549.5239894390106 267.5696210861206 Z" stroke-miterlimit="10" stroke-width="0.5" stroke-dasharray=""/><path fill="none" stroke="#505050" paint-order="fill stroke markers" d=" M 565.5239894390106 267.5696210861206 L 573.5239894390106 267.5696210861206 L 573.5239894390106 275.5696210861206 L 565.5239894390106 275.5696210861206 L 565.5239894390106 267.5696210861206 Z" stroke-miterlimit="10" stroke-width="0.5" stroke-dasharray=""/><text fill="#505050" stroke="none" font-family="monospace" font-size="14px" font-style="normal" font-weight="normal" text-decoration="normal" x="581.5239894390106" y="280.5696210861206" text-anchor="start" dominant-baseline="text-after-edge">body</text><path fill="none" stroke="#505050" paint-order="fill stroke markers" d=" M 549.5239894390106 283.5696210861206 L 573.5239894390106 283.5696210861206 L 573.5239894390106 299.5696210861206 L 549.5239894390106 299.5696210861206 L 549.5239894390106 283.5696210861206 Z" stroke-miterlimit="10" stroke-width="0.5" stroke-dasharray=""/><path fill="none" stroke="none"/><path fill="none" stroke="#505050" paint-order="fill stroke markers" d=" M 549.5239894390106 287.5696210861206 L 557.5239894390106 287.5696210861206 L 557.5239894390106 295.5696210861206 L 549.5239894390106 295.5696210861206 L 549.5239894390106 287.5696210861206 Z" stroke-miterlimit="10" stroke-width="0.5" stroke-dasharray=""/><path fill="none" stroke="#505050" paint-order="fill stroke markers" d=" M 565.5239894390106 287.5696210861206 L 573.5239894390106 287.5696210861206 L 573.5239894390106 295.5696210861206 L 565.5239894390106 295.5696210861206 L 565.5239894390106 287.5696210861206 Z" stroke-miterlimit="10" stroke-width="0.5" stroke-dasharray=""/><text fill="#505050" stroke="none" font-family="monospace" font-size="14px" font-style="normal" font-weight="normal" text-decoration="normal" x="581.5239894390106" y="300.5696210861206" text-anchor="start" dominant-baseline="text-after-edge">test</text><path fill="none" stroke="#505050" paint-order="fill stroke markers" d=" M 549.5239894390106 303.5696210861206 L 557.5239894390106 303.5696210861206 L 557.5239894390106 311.5696210861206 L 549.5239894390106 311.5696210861206 L 549.5239894390106 303.5696210861206 Z" stroke-miterlimit="10" stroke-width="0.5" stroke-dasharray=""/><text fill="#505050" stroke="none" font-family="monospace" font-size="14px" font-style="normal" font-weight="normal" text-decoration="normal" x="565.5239894390106" y="317.5696210861206" text-anchor="start" dominant-baseline="text-after-edge">p</text><path fill="none" stroke="#505050" paint-order="fill stroke markers" d=" M 639.5239894390106 263.5696210861206 L 647.5239894390106 263.5696210861206 L 647.5239894390106 271.5696210861206 L 639.5239894390106 271.5696210861206 L 639.5239894390106 263.5696210861206 Z" stroke-miterlimit="10" stroke-width="0.5" stroke-dasharray=""/><text fill="#505050" stroke="none" font-family="monospace" font-size="14px" font-style="normal" font-weight="normal" text-decoration="normal" x="631.5239894390106" y="277.5696210861206" text-anchor="end" dominant-baseline="text-after-edge">p</text><path fill="none" stroke="#505050" paint-order="fill stroke markers" d=" M 514.6306788921356 46.058204650878906 C 542.0830199808798 46.058204650878906 521.7343070416727 130.79050731658936 549.1866481304169 130.79050731658936" stroke-miterlimit="10" stroke-dasharray=""/><path fill="none" stroke="#505050" paint-order="fill stroke markers" d=" M 519.0361936092377 115.01278781890869 C 528.0815757725842 115.01278781890869 540.1412659670704 114.79050731658936 549.1866481304169 114.79050731658936" stroke-miterlimit="10" stroke-dasharray=""/><path fill="none" stroke="#505050" paint-order="fill stroke markers" d=" M 423.11153769493103 75.07319164276123 C 444.2439648684481 75.07319164276123 429.2709234181425 140.0127878189087 450.40335059165955 140.0127878189087" stroke-miterlimit="10" stroke-dasharray=""/><path fill="none" stroke="#505050" paint-order="fill stroke markers" d=" M 433.9878842830658 128.37924480438232 C 438.91375113434896 128.37924480438232 445.4774837403764 128.0127878189087 450.40335059165955 128.0127878189087" stroke-miterlimit="10" stroke-dasharray=""/><path fill="none" stroke="#505050" paint-order="fill stroke markers" d=" M 514.9680202007294 222.83731842041016 C 542.4203612894736 222.83731842041016 522.0716483502664 307.5696210861206 549.5239894390106 307.5696210861206" stroke-miterlimit="10" stroke-dasharray=""/><path fill="none" stroke="#505050" paint-order="fill stroke markers" d=" M 519.3735349178314 291.79190158843994 C 528.4189170811779 291.79190158843994 540.4786072756641 291.5696210861206 549.5239894390106 291.5696210861206" stroke-miterlimit="10" stroke-dasharray=""/><path fill="none" stroke="#505050" paint-order="fill stroke markers" d=" M 423.4488790035248 251.85230541229248 C 444.5813061770418 251.85230541229248 429.60826472673625 316.79190158843994 450.7406919002533 316.79190158843994" stroke-miterlimit="10" stroke-dasharray=""/><path fill="none" stroke="#505050" paint-order="fill stroke markers" d=" M 434.32522559165955 305.1583585739136 C 439.2510924429427 305.1583585739136 445.81482504897014 304.79190158843994 450.7406919002533 304.79190158843994" stroke-miterlimit="10" stroke-dasharray=""/></g></g></svg>