<svg version="1.1" xmlns="http://www.w3.org/2000/svg" xmlns:xlink="http://www.w3.org/1999/xlink" width="359.0030517578125" height="483.0251178741455"><defs/><g transform="translate(-337.10870361328125,-37.29899787902832)"><g><path fill="white" stroke="#505050" paint-order="fill stroke markers" d=" M 338.10870361328125 319.25850677490234 L 338.10870361328125 511.3241157531738 Q 338.10870361328125 519.3241157531738 346.10870361328125 519.3241157531738 L 687.1117553710938 519.3241157531738 Q 695.1117553710938 519.3241157531738 695.1117553710938 511.3241157531738 L 695.1117553710938 319.25850677490234 Q 695.1117553710938 311.25850677490234 687.1117553710938 311.25850677490234 L 346.10870361328125 311.25850677490234 Q 338.10870361328125 311.25850677490234 338.10870361328125 319.25850677490234" stroke-miterlimit="10" stroke-width="0.5" stroke-dasharray=""/><path fill="#F0F0F0" stroke="#505050" paint-order="fill stroke markers" d=" M 597.1117553710938 319.25850677490234 L 695.1117553710938 319.25850677490234 L 695.1117553710938 391.25850677490234 L 597.1117553710938 391.25850677490234 L 597.1117553710938 319.25850677490234 Z" stroke-miterlimit="10" stroke-width="0.5" stroke-dasharray=""/><path fill="none" stroke="none"/><text fill="#505050" stroke="none" font-family="monospace" font-size="14px" font-style="normal" font-weight="normal" text-decoration="normal" x="646.1117553710938" y="337.25850677490234" text-anchor="middle" dominant-baseline="text-after-edge">while-do</text><path fill="none" stroke="#505050" paint-order="fill stroke markers" d=" M 597.1117553710938 337.25850677490234 L 621.1117553710938 337.25850677490234 L 621.1117553710938 353.25850677490234 L 597.1117553710938 353.25850677490234 L 597.1117553710938 337.25850677490234 Z" stroke-miterlimit="10" stroke-width="0.5" stroke-dasharray=""/><path fill="none" stroke="none"/><path fill="none" stroke="#505050" paint-order="fill stroke markers" d=" M 597.1117553710938 341.25850677490234 L 605.1117553710938 341.25850677490234 L 605.1117553710938 349.25850677490234 L 597.1117553710938 349.25850677490234 L 597.1117553710938 341.25850677490234 Z" stroke-miterlimit="10" stroke-width="0.5" stroke-dasharray=""/><path fill="none" stroke="#505050" paint-order="fill stroke markers" d=" M 613.1117553710938 341.25850677490234 L 621.1117553710938 341.25850677490234 L 621.1117553710938 349.25850677490234 L 613.1117553710938 349.25850677490234 L 613.1117553710938 341.25850677490234 Z" stroke-miterlimit="10" stroke-width="0.5" stroke-dasharray=""/><text fill="#505050" stroke="none" font-family="monospace" font-size="14px" font-style="normal" font-weight="normal" text-decoration="normal" x="629.1117553710938" y="354.25850677490234" text-anchor="start" dominant-baseline="text-after-edge">body</text><path fill="none" stroke="#505050" paint-order="fill stroke markers" d=" M 597.1117553710938 357.25850677490234 L 621.1117553710938 357.25850677490234 L 621.1117553710938 373.25850677490234 L 597.1117553710938 373.25850677490234 L 597.1117553710938 357.25850677490234 Z" stroke-miterlimit="10" stroke-width="0.5" stroke-dasharray=""/><path fill="none" stroke="none"/><path fill="none" stroke="#505050" paint-order="fill stroke markers" d=" M 597.1117553710938 361.25850677490234 L 605.1117553710938 361.25850677490234 L 605.1117553710938 369.25850677490234 L 597.1117553710938 369.25850677490234 L 597.1117553710938 361.25850677490234 Z" stroke-miterlimit="10" stroke-width="0.5" stroke-dasharray=""/><path fill="none" stroke="#505050" paint-order="fill stroke markers" d=" M 613.1117553710938 361.25850677490234 L 621.1117553710938 361.25850677490234 L 621.1117553710938 369.25850677490234 L 613.1117553710938 369.25850677490234 L 613.1117553710938 361.25850677490234 Z" stroke-miterlimit="10" stroke-width="0.5" stroke-dasharray=""/><text fill="#505050" stroke="none" font-family="monospace" font-size="14px" font-style="normal" font-weight="normal" text-decoration="normal" x="629.1117553710938" y="374.25850677490234" text-anchor="start" dominant-baseline="text-after-edge">cond</text><path fill="none" stroke="#505050" paint-order="fill stroke markers" d=" M 597.1117553710938 377.25850677490234 L 605.1117553710938 377.25850677490234 L 605.1117553710938 385.25850677490234 L 597.1117553710938 385.25850677490234 L 597.1117553710938 377.25850677490234 Z" stroke-miterlimit="10" stroke-width="0.5" stroke-dasharray=""/><text fill="#505050" stroke="none" font-family="monospace" font-size="14px" font-style="normal" font-weight="normal" text-decoration="normal" x="613.1117553710938" y="391.25850677490234" text-anchor="start" dominant-baseline="text-after-edge">p</text><path fill="none" stroke="#505050" paint-order="fill stroke markers" d=" M 687.1117553710938 337.25850677490234 L 695.1117553710938 337.25850677490234 L 695.1117553710938 345.25850677490234 L 687.1117553710938 345.25850677490234 L 687.1117553710938 337.25850677490234 Z" stroke-miterlimit="10" stroke-width="0.5" stroke-dasharray=""/><text fill="#505050" stroke="none" font-family="monospace" font-size="14px" font-style="normal" font-weight="normal" text-decoration="normal" x="679.1117553710938" y="351.25850677490234" text-anchor="end" dominant-baseline="text-after-edge">p</text><path fill="white" stroke="#505050" paint-order="fill stroke markers" d=" M 347.0899658203125 458.4272766113281 L 379.0899658203125 458.4272766113281 L 379.0899658203125 476.4272766113281 L 347.0899658203125 476.4272766113281 L 355.0899658203125 467.4272766113281 L 347.0899658203125 458.4272766113281" stroke-miterlimit="10" stroke-width="0.5" stroke-dasharray=""/><path fill="none" stroke="none"/><path fill="none" stroke="#505050" paint-order="fill stroke markers" d=" M 371.0899658203125 462.4272766113281 L 379.0899658203125 462.4272766113281 L 379.0899658203125 470.4272766113281 L 371.0899658203125 470.4272766113281 L 371.0899658203125 462.4272766113281 Z" stroke-miterlimit="10" stroke-width="0.5" stroke-dasharray=""/><text fill="#505050" stroke="none" font-family="monospace" font-size="14px" font-style="normal" font-weight="normal" text-decoration="normal" x="363.0899658203125" y="476.4272766113281" text-anchor="end" dominant-baseline="text-after-edge">p</text><path fill="white" stroke="#505050" paint-order="fill stroke markers" d=" M 625.0242919921875 435.1928024291992 L 649.0242919921875 435.1928024291992 L 657.0242919921875 444.1928024291992 L 649.0242919921875 453.1928024291992 L 625.0242919921875 453.1928024291992 L 625.0242919921875 435.1928024291992" stroke-miterlimit="10" stroke-width="0.5" stroke-dasharray=""/><path fill="none" stroke="none"/><path fill="none" stroke="#505050" paint-order="fill stroke markers" d=" M 625.0242919921875 439.1928024291992 L 633.0242919921875 439.1928024291992 L 633.0242919921875 447.1928024291992 L 625.0242919921875 447.1928024291992 L 625.0242919921875 439.1928024291992 Z" stroke-miterlimit="10" stroke-width="0.5" stroke-dasharray=""/><text fill="#505050" stroke="none" font-family="monospace" font-size="14px" font-style="normal" font-weight="normal" text-decoration="normal" x="641.0242919921875" y="453.1928024291992" text-anchor="start" dominant-baseline="text-after-edge">p</text><path fill="white" stroke="#505050" paint-order="fill stroke markers" d=" M 590.3524322509766 421.4959373474121 L 614.3524322509766 421.4959373474121 L 614.3524322509766 475.4959373474121 L 590.3524322509766 475.4959373474121 L 590.3524322509766 421.4959373474121 Z" stroke-miterlimit="10" stroke-width="0.5" stroke-dasharray=""/><path fill="#F0F0F0" stroke="none" paint-order="stroke fill markers" d=""/><path fill="none" stroke="none"/><text fill="#505050" stroke="none" font-family="monospace" font-size="14px" font-style="normal" font-weight="normal" text-decoration="normal" x="602.3524322509766" y="439.4959373474121" text-anchor="middle" dominant-baseline="text-after-edge">?</text><path fill="none" stroke="#505050" paint-order="fill stroke markers" d=" M 590.3524322509766 439.4959373474121 L 598.3524322509766 439.4959373474121 L 598.3524322509766 447.4959373474121 L 590.3524322509766 447.4959373474121 L 590.3524322509766 439.4959373474121 Z" stroke-miterlimit="10" stroke-width="0.5" stroke-dasharray=""/><path fill="none" stroke="#505050" paint-order="fill stroke markers" d=" M 590.3524322509766 451.4959373474121 L 598.3524322509766 451.4959373474121 L 598.3524322509766 459.4959373474121 L 590.3524322509766 459.4959373474121 L 590.3524322509766 451.4959373474121 Z" stroke-miterlimit="10" stroke-width="0.5" stroke-dasharray=""/><path fill="none" stroke="#505050" paint-order="fill stroke markers" d=" M 590.3524322509766 463.4959373474121 L 598.3524322509766 463.4959373474121 L 598.3524322509766 471.4959373474121 L 590.3524322509766 471.4959373474121 L 590.3524322509766 463.4959373474121 Z" stroke-miterlimit="10" stroke-width="0.5" stroke-dasharray=""/><path fill="none" stroke="#505050" paint-order="fill stroke markers" d=" M 606.3524322509766 439.4959373474121 L 614.3524322509766 439.4959373474121 L 614.3524322509766 447.4959373474121 L 606.3524322509766 447.4959373474121 L 606.3524322509766 439.4959373474121 Z" stroke-miterlimit="10" stroke-width="0.5" stroke-dasharray=""/><path fill="white" stroke="#505050" paint-order="fill stroke markers" d=" M 458.78045654296875 344.16150665283203 L 556.7804565429688 344.16150665283203 L 556.7804565429688 416.16150665283203 L 458.78045654296875 416.16150665283203 L 458.78045654296875 344.16150665283203 Z" stroke-miterlimit="10" stroke-width="0.5" stroke-dasharray=""/><path fill="#F0F0F0" stroke="none" paint-order="stroke fill markers" d=""/><path fill="none" stroke="none"/><text fill="#505050" stroke="none" font-family="monospace" font-size="14px" font-style="normal" font-weight="normal" text-decoration="normal" x="507.78045654296875" y="362.16150665283203" text-anchor="middle" dominant-baseline="text-after-edge">while-do</text><path fill="none" stroke="#505050" paint-order="fill stroke markers" d=" M 458.78045654296875 362.16150665283203 L 482.78045654296875 362.16150665283203 L 482.78045654296875 378.16150665283203 L 458.78045654296875 378.16150665283203 L 458.78045654296875 362.16150665283203 Z" stroke-miterlimit="10" stroke-width="0.5" stroke-dasharray=""/><path fill="none" stroke="none"/><path fill="none" stroke="#505050" paint-order="fill stroke markers" d=" M 458.78045654296875 366.16150665283203 L 466.78045654296875 366.16150665283203 L 466.78045654296875 374.16150665283203 L 458.78045654296875 374.16150665283203 L 458.78045654296875 366.16150665283203 Z" stroke-miterlimit="10" stroke-width="0.5" stroke-dasharray=""/><path fill="none" stroke="#505050" paint-order="fill stroke markers" d=" M 474.78045654296875 366.16150665283203 L 482.78045654296875 366.16150665283203 L 482.78045654296875 374.16150665283203 L 474.78045654296875 374.16150665283203 L 474.78045654296875 366.16150665283203 Z" stroke-miterlimit="10" stroke-width="0.5" stroke-dasharray=""/><text fill="#505050" stroke="none" font-family="monospace" font-size="14px" font-style="normal" font-weight="normal" text-decoration="normal" x="490.78045654296875" y="379.16150665283203" text-anchor="start" dominant-baseline="text-after-edge">body</text><path fill="none" stroke="#505050" paint-order="fill stroke markers" d=" M 458.78045654296875 382.16150665283203 L 482.78045654296875 382.16150665283203 L 482.78045654296875 398.16150665283203 L 458.78045654296875 398.16150665283203 L 458.78045654296875 382.16150665283203 Z" stroke-miterlimit="10" stroke-width="0.5" stroke-dasharray=""/><path fill="none" stroke="none"/><path fill="none" stroke="#505050" paint-order="fill stroke markers" d=" M 458.78045654296875 386.16150665283203 L 466.78045654296875 386.16150665283203 L 466.78045654296875 394.16150665283203 L 458.78045654296875 394.16150665283203 L 458.78045654296875 386.16150665283203 Z" stroke-miterlimit="10" stroke-width="0.5" stroke-dasharray=""/><path fill="none" stroke="#505050" paint-order="fill stroke markers" d=" M 474.78045654296875 386.16150665283203 L 482.78045654296875 386.16150665283203 L 482.78045654296875 394.16150665283203 L 474.78045654296875 394.16150665283203 L 474.78045654296875 386.16150665283203 Z" stroke-miterlimit="10" stroke-width="0.5" stroke-dasharray=""/><text fill="#505050" stroke="none" font-family="monospace" font-size="14px" font-style="normal" font-weight="normal" text-decoration="normal" x="490.78045654296875" y="399.16150665283203" text-anchor="start" dominant-baseline="text-after-edge">cond</text><path fill="none" stroke="#505050" paint-order="fill stroke markers" d=" M 458.78045654296875 402.16150665283203 L 466.78045654296875 402.16150665283203 L 466.78045654296875 410.16150665283203 L 458.78045654296875 410.16150665283203 L 458.78045654296875 402.16150665283203 Z" stroke-miterlimit="10" stroke-width="0.5" stroke-dasharray=""/><text fill="#505050" stroke="none" font-family="monospace" font-size="14px" font-style="normal" font-weight="normal" text-decoration="normal" x="474.78045654296875" y="416.16150665283203" text-anchor="start" dominant-baseline="text-after-edge">p</text><path fill="none" stroke="#505050" paint-order="fill stroke markers" d=" M 548.7804565429688 362.16150665283203 L 556.7804565429688 362.16150665283203 L 556.7804565429688 370.16150665283203 L 548.7804565429688 370.16150665283203 L 548.7804565429688 362.16150665283203 Z" stroke-miterlimit="10" stroke-width="0.5" stroke-dasharray=""/><text fill="#505050" stroke="none" font-family="monospace" font-size="14px" font-style="normal" font-weight="normal" text-decoration="normal" x="540.7804565429688" y="376.16150665283203" text-anchor="end" dominant-baseline="text-after-edge">p</text><path fill="none" stroke="none"/><path fill="white" stroke="#505050" paint-order="fill stroke markers" d=" M 342.43995666503906 333.9771919250488 L 400.43995666503906 333.9771919250488 L 400.43995666503906 371.9771919250488 L 342.43995666503906 371.9771919250488 L 350.43995666503906 352.9771919250488 L 342.43995666503906 333.9771919250488" stroke-miterlimit="10" stroke-width="0.5" stroke-dasharray=""/><path fill="#F0F0F0" stroke="none" paint-order="stroke fill markers" d=" M 358.43995666503906 337.9771919250488 L 400.43995666503906 337.9771919250488 L 400.43995666503906 367.9771919250488 L 358.43995666503906 367.9771919250488 L 358.43995666503906 337.9771919250488 Z"/><path fill="none" stroke="none"/><path fill="none" stroke="#505050" paint-order="fill stroke markers" d=" M 358.43995666503906 337.9771919250488 L 400.43995666503906 337.9771919250488 L 400.43995666503906 367.9771919250488 L 358.43995666503906 367.9771919250488 L 358.43995666503906 337.9771919250488 Z" stroke-miterlimit="10" stroke-width="0.5" stroke-dasharray=""/><path fill="none" stroke="none"/><text fill="#505050" stroke="none" font-family="monospace" font-size="14px" font-style="normal" font-weight="normal" text-decoration="normal" x="379.43995666503906" y="355.9771919250488" text-anchor="middle" dominant-baseline="text-after-edge">body</text><path fill="none" stroke="#505050" paint-order="fill stroke markers" d=" M 358.43995666503906 355.9771919250488 L 366.43995666503906 355.9771919250488 L 366.43995666503906 363.9771919250488 L 358.43995666503906 363.9771919250488 L 358.43995666503906 355.9771919250488 Z" stroke-miterlimit="10" stroke-width="0.5" stroke-dasharray=""/><path fill="none" stroke="#505050" paint-order="fill stroke markers" d=" M 392.43995666503906 355.9771919250488 L 400.43995666503906 355.9771919250488 L 400.43995666503906 363.9771919250488 L 392.43995666503906 363.9771919250488 L 392.43995666503906 355.9771919250488 Z" stroke-miterlimit="10" stroke-width="0.5" stroke-dasharray=""/><path fill="none" stroke="#505050" paint-order="fill stroke markers" d=" M 358.43995666503906 337.9771919250488 L 400.43995666503906 337.9771919250488 L 400.43995666503906 367.9771919250488 L 358.43995666503906 367.9771919250488 L 358.43995666503906 337.9771919250488 Z" stroke-miterlimit="10" stroke-width="0.5" stroke-dasharray="6,3"/><path fill="#F0F0F0" stroke="none" paint-order="stroke fill markers" d=""/><path fill="none" stroke="none"/><text fill="#505050" stroke="none" font-family="monospace" font-size="14px" font-style="normal" font-weight="normal" text-decoration="normal" x="379.43995666503906" y="355.9771919250488" text-anchor="middle" dominant-baseline="text-after-edge">body</text><path fill="none" stroke="#505050" paint-order="fill stroke markers" d=" M 358.43995666503906 355.9771919250488 L 366.43995666503906 355.9771919250488 L 366.43995666503906 363.9771919250488 L 358.43995666503906 363.9771919250488 L 358.43995666503906 355.9771919250488 Z" stroke-miterlimit="10" stroke-width="0.5" stroke-dasharray="0"/><path fill="none" stroke="#505050" paint-order="fill stroke markers" d=" M 392.43995666503906 355.9771919250488 L 400.43995666503906 355.9771919250488 L 400.43995666503906 363.9771919250488 L 392.43995666503906 363.9771919250488 L 392.43995666503906 355.9771919250488 Z" stroke-miterlimit="10" stroke-width="0.5" stroke-dasharray="0"/><path fill="none" stroke="none"/><path fill="white" stroke="#505050" paint-order="fill stroke markers" d=" M 341.9086380004883 377.87403106689453 L 399.9086380004883 377.87403106689453 L 399.9086380004883 415.87403106689453 L 341.9086380004883 415.87403106689453 L 349.9086380004883 396.87403106689453 L 341.9086380004883 377.87403106689453" stroke-miterlimit="10" stroke-width="0.5" stroke-dasharray="0"/><path fill="#F0F0F0" stroke="none" paint-order="stroke fill markers" d=" M 357.9086380004883 381.87403106689453 L 399.9086380004883 381.87403106689453 L 399.9086380004883 411.87403106689453 L 357.9086380004883 411.87403106689453 L 357.9086380004883 381.87403106689453 Z"/><path fill="none" stroke="none"/><path fill="none" stroke="#505050" paint-order="fill stroke markers" d=" M 357.9086380004883 381.87403106689453 L 399.9086380004883 381.87403106689453 L 399.9086380004883 411.87403106689453 L 357.9086380004883 411.87403106689453 L 357.9086380004883 381.87403106689453 Z" stroke-miterlimit="10" stroke-width="0.5" stroke-dasharray="0"/><path fill="none" stroke="none"/><text fill="#505050" stroke="none" font-family="monospace" font-size="14px" font-style="normal" font-weight="normal" text-decoration="normal" x="378.9086380004883" y="399.87403106689453" text-anchor="middle" dominant-baseline="text-after-edge">cond</text><path fill="none" stroke="#505050" paint-order="fill stroke markers" d=" M 357.9086380004883 399.87403106689453 L 365.9086380004883 399.87403106689453 L 365.9086380004883 407.87403106689453 L 357.9086380004883 407.87403106689453 L 357.9086380004883 399.87403106689453 Z" stroke-miterlimit="10" stroke-width="0.5" stroke-dasharray="0"/><path fill="none" stroke="#505050" paint-order="fill stroke markers" d=" M 391.9086380004883 399.87403106689453 L 399.9086380004883 399.87403106689453 L 399.9086380004883 407.87403106689453 L 391.9086380004883 407.87403106689453 L 391.9086380004883 399.87403106689453 Z" stroke-miterlimit="10" stroke-width="0.5" stroke-dasharray="0"/><path fill="none" stroke="#505050" paint-order="fill stroke markers" d=" M 357.9086380004883 381.87403106689453 L 399.9086380004883 381.87403106689453 L 399.9086380004883 411.87403106689453 L 357.9086380004883 411.87403106689453 L 357.9086380004883 381.87403106689453 Z" stroke-miterlimit="10" stroke-width="0.5" stroke-dasharray="6,3"/><path fill="#F0F0F0" stroke="none" paint-order="stroke fill markers" d=""/><path fill="none" stroke="none"/><text fill="#505050" stroke="none" font-family="monospace" font-size="14px" font-style="normal" font-weight="normal" text-decoration="normal" x="378.9086380004883" y="399.87403106689453" text-anchor="middle" dominant-baseline="text-after-edge">cond</text><path fill="none" stroke="#505050" paint-order="fill stroke markers" d=" M 357.9086380004883 399.87403106689453 L 365.9086380004883 399.87403106689453 L 365.9086380004883 407.87403106689453 L 357.9086380004883 407.87403106689453 L 357.9086380004883 399.87403106689453 Z" stroke-miterlimit="10" stroke-width="0.5" stroke-dasharray="0"/><path fill="none" stroke="#505050" paint-order="fill stroke markers" d=" M 391.9086380004883 399.87403106689453 L 399.9086380004883 399.87403106689453 L 399.9086380004883 407.87403106689453 L 391.9086380004883 407.87403106689453 L 391.9086380004883 399.87403106689453 Z" stroke-miterlimit="10" stroke-width="0.5" stroke-dasharray="0"/><path fill="white" stroke="#505050" paint-order="fill stroke markers" d=" M 450.3009796142578 472.8695869445801 L 492.3009796142578 472.8695869445801 L 492.3009796142578 502.8695869445801 L 450.3009796142578 502.8695869445801 L 450.3009796142578 472.8695869445801 Z" stroke-miterlimit="10" stroke-width="0.5" stroke-dasharray="0"/><path fill="#F0F0F0" stroke="none" paint-order="stroke fill markers" d=""/><path fill="none" stroke="none"/><text fill="#505050" stroke="none" font-family="monospace" font-size="14px" font-style="normal" font-weight="normal" text-decoration="normal" x="471.3009796142578" y="490.8695869445801" text-anchor="middle" dominant-baseline="text-after-edge">body</text><path fill="none" stroke="#505050" paint-order="fill stroke markers" d=" M 450.3009796142578 490.8695869445801 L 458.3009796142578 490.8695869445801 L 458.3009796142578 498.8695869445801 L 450.3009796142578 498.8695869445801 L 450.3009796142578 490.8695869445801 Z" stroke-miterlimit="10" stroke-width="0.5" stroke-dasharray="0"/><path fill="none" stroke="#505050" paint-order="fill stroke markers" d=" M 484.3009796142578 490.8695869445801 L 492.3009796142578 490.8695869445801 L 492.3009796142578 498.8695869445801 L 484.3009796142578 498.8695869445801 L 484.3009796142578 490.8695869445801 Z" stroke-miterlimit="10" stroke-width="0.5" stroke-dasharray="0"/><path fill="white" stroke="#505050" paint-order="fill stroke markers" d=" M 403.0071487426758 419.7972717285156 L 445.0071487426758 419.7972717285156 L 445.0071487426758 449.7972717285156 L 403.0071487426758 449.7972717285156 L 403.0071487426758 419.7972717285156 Z" stroke-miterlimit="10" stroke-width="0.5" stroke-dasharray="0"/><path fill="#F0F0F0" stroke="none" paint-order="stroke fill markers" d=""/><path fill="none" stroke="none"/><text fill="#505050" stroke="none" font-family="monospace" font-size="14px" font-style="normal" font-weight="normal" text-decoration="normal" x="424.0071487426758" y="437.7972717285156" text-anchor="middle" dominant-baseline="text-after-edge">cond</text><path fill="none" stroke="#505050" paint-order="fill stroke markers" d=" M 403.0071487426758 437.7972717285156 L 411.0071487426758 437.7972717285156 L 411.0071487426758 445.7972717285156 L 403.0071487426758 445.7972717285156 L 403.0071487426758 437.7972717285156 Z" stroke-miterlimit="10" stroke-width="0.5" stroke-dasharray="0"/><path fill="none" stroke="#505050" paint-order="fill stroke markers" d=" M 437.0071487426758 437.7972717285156 L 445.0071487426758 437.7972717285156 L 445.0071487426758 445.7972717285156 L 437.0071487426758 445.7972717285156 L 437.0071487426758 437.7972717285156 Z" stroke-miterlimit="10" stroke-width="0.5" stroke-dasharray="0"/><path fill="white" stroke="#505050" paint-order="fill stroke markers" d=" M 339.5262756347656 115.70095443725586 L 339.5262756347656 280.44775390625 Q 339.5262756347656 288.44775390625 347.5262756347656 288.44775390625 L 651.6230773925781 288.44775390625 Q 659.6230773925781 288.44775390625 659.6230773925781 280.44775390625 L 659.6230773925781 115.70095443725586 Q 659.6230773925781 107.70095443725586 651.6230773925781 107.70095443725586 L 347.5262756347656 107.70095443725586 Q 339.5262756347656 107.70095443725586 339.5262756347656 115.70095443725586" stroke-miterlimit="10" stroke-width="0.5" stroke-dasharray="0"/><path fill="#F0F0F0" stroke="#505050" paint-order="fill stroke markers" d=" M 561.6230773925781 115.70095443725586 L 659.6230773925781 115.70095443725586 L 659.6230773925781 187.70095443725586 L 561.6230773925781 187.70095443725586 L 561.6230773925781 115.70095443725586 Z" stroke-miterlimit="10" stroke-width="0.5" stroke-dasharray="0"/><path fill="none" stroke="none"/><text fill="#505050" stroke="none" font-family="monospace" font-size="14px" font-style="normal" font-weight="normal" text-decoration="normal" x="610.6230773925781" y="133.70095443725586" text-anchor="middle" dominant-baseline="text-after-edge">do-while</text><path fill="none" stroke="#505050" paint-order="fill stroke markers" d=" M 561.6230773925781 133.70095443725586 L 585.6230773925781 133.70095443725586 L 585.6230773925781 149.70095443725586 L 561.6230773925781 149.70095443725586 L 561.6230773925781 133.70095443725586 Z" stroke-miterlimit="10" stroke-width="0.5" stroke-dasharray="0"/><path fill="none" stroke="none"/><path fill="none" stroke="#505050" paint-order="fill stroke markers" d=" M 561.6230773925781 137.70095443725586 L 569.6230773925781 137.70095443725586 L 569.6230773925781 145.70095443725586 L 561.6230773925781 145.70095443725586 L 561.6230773925781 137.70095443725586 Z" stroke-miterlimit="10" stroke-width="0.5" stroke-dasharray="0"/><path fill="none" stroke="#505050" paint-order="fill stroke markers" d=" M 577.6230773925781 137.70095443725586 L 585.6230773925781 137.70095443725586 L 585.6230773925781 145.70095443725586 L 577.6230773925781 145.70095443725586 L 577.6230773925781 137.70095443725586 Z" stroke-miterlimit="10" stroke-width="0.5" stroke-dasharray="0"/><text fill="#505050" stroke="none" font-family="monospace" font-size="14px" font-style="normal" font-weight="normal" text-decoration="normal" x="593.6230773925781" y="150.70095443725586" text-anchor="start" dominant-baseline="text-after-edge">body</text><path fill="none" stroke="#505050" paint-order="fill stroke markers" d=" M 561.6230773925781 153.70095443725586 L 585.6230773925781 153.70095443725586 L 585.6230773925781 169.70095443725586 L 561.6230773925781 169.70095443725586 L 561.6230773925781 153.70095443725586 Z" stroke-miterlimit="10" stroke-width="0.5" stroke-dasharray="0"/><path fill="none" stroke="none"/><path fill="none" stroke="#505050" paint-order="fill stroke markers" d=" M 561.6230773925781 157.70095443725586 L 569.6230773925781 157.70095443725586 L 569.6230773925781 165.70095443725586 L 561.6230773925781 165.70095443725586 L 561.6230773925781 157.70095443725586 Z" stroke-miterlimit="10" stroke-width="0.5" stroke-dasharray="0"/><path fill="none" stroke="#505050" paint-order="fill stroke markers" d=" M 577.6230773925781 157.70095443725586 L 585.6230773925781 157.70095443725586 L 585.6230773925781 165.70095443725586 L 577.6230773925781 165.70095443725586 L 577.6230773925781 157.70095443725586 Z" stroke-miterlimit="10" stroke-width="0.5" stroke-dasharray="0"/><text fill="#505050" stroke="none" font-family="monospace" font-size="14px" font-style="normal" font-weight="normal" text-decoration="normal" x="593.6230773925781" y="170.70095443725586" text-anchor="start" dominant-baseline="text-after-edge">cond</text><path fill="none" stroke="#505050" paint-order="fill stroke markers" d=" M 561.6230773925781 173.70095443725586 L 569.6230773925781 173.70095443725586 L 569.6230773925781 181.70095443725586 L 561.6230773925781 181.70095443725586 L 561.6230773925781 173.70095443725586 Z" stroke-miterlimit="10" stroke-width="0.5" stroke-dasharray="0"/><text fill="#505050" stroke="none" font-family="monospace" font-size="14px" font-style="normal" font-weight="normal" text-decoration="normal" x="577.6230773925781" y="187.70095443725586" text-anchor="start" dominant-baseline="text-after-edge">p</text><path fill="none" stroke="#505050" paint-order="fill stroke markers" d=" M 651.6230773925781 133.70095443725586 L 659.6230773925781 133.70095443725586 L 659.6230773925781 141.70095443725586 L 651.6230773925781 141.70095443725586 L 651.6230773925781 133.70095443725586 Z" stroke-miterlimit="10" stroke-width="0.5" stroke-dasharray="0"/><text fill="#505050" stroke="none" font-family="monospace" font-size="14px" font-style="normal" font-weight="normal" text-decoration="normal" x="643.6230773925781" y="147.70095443725586" text-anchor="end" dominant-baseline="text-after-edge">p</text><path fill="white" stroke="#505050" paint-order="fill stroke markers" d=" M 347.9294128417969 252.81344985961914 L 379.9294128417969 252.81344985961914 L 379.9294128417969 270.81344985961914 L 347.9294128417969 270.81344985961914 L 355.9294128417969 261.81344985961914 L 347.9294128417969 252.81344985961914" stroke-miterlimit="10" stroke-width="0.5" stroke-dasharray="0"/><path fill="none" stroke="none"/><path fill="none" stroke="#505050" paint-order="fill stroke markers" d=" M 371.9294128417969 256.81344985961914 L 379.9294128417969 256.81344985961914 L 379.9294128417969 264.81344985961914 L 371.9294128417969 264.81344985961914 L 371.9294128417969 256.81344985961914 Z" stroke-miterlimit="10" stroke-width="0.5" stroke-dasharray="0"/><text fill="#505050" stroke="none" font-family="monospace" font-size="14px" font-style="normal" font-weight="normal" text-decoration="normal" x="363.9294128417969" y="270.81344985961914" text-anchor="end" dominant-baseline="text-after-edge">p</text><path fill="white" stroke="#505050" paint-order="fill stroke markers" d=" M 591.1105651855469 232.1446189880371 L 615.1105651855469 232.1446189880371 L 623.1105651855469 241.1446189880371 L 615.1105651855469 250.1446189880371 L 591.1105651855469 250.1446189880371 L 591.1105651855469 232.1446189880371" stroke-miterlimit="10" stroke-width="0.5" stroke-dasharray="0"/><path fill="none" stroke="none"/><path fill="none" stroke="#505050" paint-order="fill stroke markers" d=" M 591.1105651855469 236.1446189880371 L 599.1105651855469 236.1446189880371 L 599.1105651855469 244.1446189880371 L 591.1105651855469 244.1446189880371 L 591.1105651855469 236.1446189880371 Z" stroke-miterlimit="10" stroke-width="0.5" stroke-dasharray="0"/><text fill="#505050" stroke="none" font-family="monospace" font-size="14px" font-style="normal" font-weight="normal" text-decoration="normal" x="607.1105651855469" y="250.1446189880371" text-anchor="start" dominant-baseline="text-after-edge">p</text><path fill="white" stroke="#505050" paint-order="fill stroke markers" d=" M 556.4387054443359 218.44775390625 L 580.4387054443359 218.44775390625 L 580.4387054443359 272.44775390625 L 556.4387054443359 272.44775390625 L 556.4387054443359 218.44775390625 Z" stroke-miterlimit="10" stroke-width="0.5" stroke-dasharray="0"/><path fill="#F0F0F0" stroke="none" paint-order="stroke fill markers" d=""/><path fill="none" stroke="none"/><text fill="#505050" stroke="none" font-family="monospace" font-size="14px" font-style="normal" font-weight="normal" text-decoration="normal" x="568.4387054443359" y="236.44775390625" text-anchor="middle" dominant-baseline="text-after-edge">?</text><path fill="none" stroke="#505050" paint-order="fill stroke markers" d=" M 556.4387054443359 236.44775390625 L 564.4387054443359 236.44775390625 L 564.4387054443359 244.44775390625 L 556.4387054443359 244.44775390625 L 556.4387054443359 236.44775390625 Z" stroke-miterlimit="10" stroke-width="0.5" stroke-dasharray="0"/><path fill="none" stroke="#505050" paint-order="fill stroke markers" d=" M 556.4387054443359 248.44775390625 L 564.4387054443359 248.44775390625 L 564.4387054443359 256.44775390625 L 556.4387054443359 256.44775390625 L 556.4387054443359 248.44775390625 Z" stroke-miterlimit="10" stroke-width="0.5" stroke-dasharray="0"/><path fill="none" stroke="#505050" paint-order="fill stroke markers" d=" M 556.4387054443359 260.44775390625 L 564.4387054443359 260.44775390625 L 564.4387054443359 268.44775390625 L 556.4387054443359 268.44775390625 L 556.4387054443359 260.44775390625 Z" stroke-miterlimit="10" stroke-width="0.5" stroke-dasharray="0"/><path fill="none" stroke="#505050" paint-order="fill stroke markers" d=" M 572.4387054443359 236.44775390625 L 580.4387054443359 236.44775390625 L 580.4387054443359 244.44775390625 L 572.4387054443359 244.44775390625 L 572.4387054443359 236.44775390625 Z" stroke-miterlimit="10" stroke-width="0.5" stroke-dasharray="0"/><path fill="white" stroke="#505050" paint-order="fill stroke markers" d=" M 429.0949401855469 135.98521041870117 L 527.0949401855469 135.98521041870117 L 527.0949401855469 207.98521041870117 L 429.0949401855469 207.98521041870117 L 429.0949401855469 135.98521041870117 Z" stroke-miterlimit="10" stroke-width="0.5" stroke-dasharray="0"/><path fill="#F0F0F0" stroke="none" paint-order="stroke fill markers" d=""/><path fill="none" stroke="none"/><text fill="#505050" stroke="none" font-family="monospace" font-size="14px" font-style="normal" font-weight="normal" text-decoration="normal" x="478.0949401855469" y="153.98521041870117" text-anchor="middle" dominant-baseline="text-after-edge">do-while</text><path fill="none" stroke="#505050" paint-order="fill stroke markers" d=" M 429.0949401855469 153.98521041870117 L 453.0949401855469 153.98521041870117 L 453.0949401855469 169.98521041870117 L 429.0949401855469 169.98521041870117 L 429.0949401855469 153.98521041870117 Z" stroke-miterlimit="10" stroke-width="0.5" stroke-dasharray="0"/><path fill="none" stroke="none"/><path fill="none" stroke="#505050" paint-order="fill stroke markers" d=" M 429.0949401855469 157.98521041870117 L 437.0949401855469 157.98521041870117 L 437.0949401855469 165.98521041870117 L 429.0949401855469 165.98521041870117 L 429.0949401855469 157.98521041870117 Z" stroke-miterlimit="10" stroke-width="0.5" stroke-dasharray="0"/><path fill="none" stroke="#505050" paint-order="fill stroke markers" d=" M 445.0949401855469 157.98521041870117 L 453.0949401855469 157.98521041870117 L 453.0949401855469 165.98521041870117 L 445.0949401855469 165.98521041870117 L 445.0949401855469 157.98521041870117 Z" stroke-miterlimit="10" stroke-width="0.5" stroke-dasharray="0"/><text fill="#505050" stroke="none" font-family="monospace" font-size="14px" font-style="normal" font-weight="normal" text-decoration="normal" x="461.0949401855469" y="170.98521041870117" text-anchor="start" dominant-baseline="text-after-edge">body</text><path fill="none" stroke="#505050" paint-order="fill stroke markers" d=" M 429.0949401855469 173.98521041870117 L 453.0949401855469 173.98521041870117 L 453.0949401855469 189.98521041870117 L 429.0949401855469 189.98521041870117 L 429.0949401855469 173.98521041870117 Z" stroke-miterlimit="10" stroke-width="0.5" stroke-dasharray="0"/><path fill="none" stroke="none"/><path fill="none" stroke="#505050" paint-order="fill stroke markers" d=" M 429.0949401855469 177.98521041870117 L 437.0949401855469 177.98521041870117 L 437.0949401855469 185.98521041870117 L 429.0949401855469 185.98521041870117 L 429.0949401855469 177.98521041870117 Z" stroke-miterlimit="10" stroke-width="0.5" stroke-dasharray="0"/><path fill="none" stroke="#505050" paint-order="fill stroke markers" d=" M 445.0949401855469 177.98521041870117 L 453.0949401855469 177.98521041870117 L 453.0949401855469 185.98521041870117 L 445.0949401855469 185.98521041870117 L 445.0949401855469 177.98521041870117 Z" stroke-miterlimit="10" stroke-width="0.5" stroke-dasharray="0"/><text fill="#505050" stroke="none" font-family="monospace" font-size="14px" font-style="normal" font-weight="normal" text-decoration="normal" x="461.0949401855469" y="190.98521041870117" text-anchor="start" dominant-baseline="text-after-edge">cond</text><path fill="none" stroke="#505050" paint-order="fill stroke markers" d=" M 429.0949401855469 193.98521041870117 L 437.0949401855469 193.98521041870117 L 437.0949401855469 201.98521041870117 L 429.0949401855469 201.98521041870117 L 429.0949401855469 193.98521041870117 Z" stroke-miterlimit="10" stroke-width="0.5" stroke-dasharray="0"/><text fill="#505050" stroke="none" font-family="monospace" font-size="14px" font-style="normal" font-weight="normal" text-decoration="normal" x="445.0949401855469" y="207.98521041870117" text-anchor="start" dominant-baseline="text-after-edge">p</text><path fill="none" stroke="#505050" paint-order="fill stroke markers" d=" M 519.0949401855469 153.98521041870117 L 527.0949401855469 153.98521041870117 L 527.0949401855469 161.98521041870117 L 519.0949401855469 161.98521041870117 L 519.0949401855469 153.98521041870117 Z" stroke-miterlimit="10" stroke-width="0.5" stroke-dasharray="0"/><text fill="#505050" stroke="none" font-family="monospace" font-size="14px" font-style="normal" font-weight="normal" text-decoration="normal" x="511.0949401855469" y="167.98521041870117" text-anchor="end" dominant-baseline="text-after-edge">p</text><path fill="none" stroke="none"/><path fill="white" stroke="#505050" paint-order="fill stroke markers" d=" M 343.85752868652344 130.41963958740234 L 401.85752868652344 130.41963958740234 L 401.85752868652344 168.41963958740234 L 343.85752868652344 168.41963958740234 L 351.85752868652344 149.41963958740234 L 343.85752868652344 130.41963958740234" stroke-miterlimit="10" stroke-width="0.5" stroke-dasharray="0"/><path fill="#F0F0F0" stroke="none" paint-order="stroke fill markers" d=" M 359.85752868652344 134.41963958740234 L 401.85752868652344 134.41963958740234 L 401.85752868652344 164.41963958740234 L 359.85752868652344 164.41963958740234 L 359.85752868652344 134.41963958740234 Z"/><path fill="none" stroke="none"/><path fill="none" stroke="#505050" paint-order="fill stroke markers" d=" M 359.85752868652344 134.41963958740234 L 401.85752868652344 134.41963958740234 L 401.85752868652344 164.41963958740234 L 359.85752868652344 164.41963958740234 L 359.85752868652344 134.41963958740234 Z" stroke-miterlimit="10" stroke-width="0.5" stroke-dasharray="0"/><path fill="none" stroke="none"/><text fill="#505050" stroke="none" font-family="monospace" font-size="14px" font-style="normal" font-weight="normal" text-decoration="normal" x="380.85752868652344" y="152.41963958740234" text-anchor="middle" dominant-baseline="text-after-edge">body</text><path fill="none" stroke="#505050" paint-order="fill stroke markers" d=" M 359.85752868652344 152.41963958740234 L 367.85752868652344 152.41963958740234 L 367.85752868652344 160.41963958740234 L 359.85752868652344 160.41963958740234 L 359.85752868652344 152.41963958740234 Z" stroke-miterlimit="10" stroke-width="0.5" stroke-dasharray="0"/><path fill="none" stroke="#505050" paint-order="fill stroke markers" d=" M 393.85752868652344 152.41963958740234 L 401.85752868652344 152.41963958740234 L 401.85752868652344 160.41963958740234 L 393.85752868652344 160.41963958740234 L 393.85752868652344 152.41963958740234 Z" stroke-miterlimit="10" stroke-width="0.5" stroke-dasharray="0"/><path fill="none" stroke="#505050" paint-order="fill stroke markers" d=" M 359.85752868652344 134.41963958740234 L 401.85752868652344 134.41963958740234 L 401.85752868652344 164.41963958740234 L 359.85752868652344 164.41963958740234 L 359.85752868652344 134.41963958740234 Z" stroke-miterlimit="10" stroke-width="0.5" stroke-dasharray="6,3"/><path fill="#F0F0F0" stroke="none" paint-order="stroke fill markers" d=""/><path fill="none" stroke="none"/><text fill="#505050" stroke="none" font-family="monospace" font-size="14px" font-style="normal" font-weight="normal" text-decoration="normal" x="380.85752868652344" y="152.41963958740234" text-anchor="middle" dominant-baseline="text-after-edge">body</text><path fill="none" stroke="#505050" paint-order="fill stroke markers" d=" M 359.85752868652344 152.41963958740234 L 367.85752868652344 152.41963958740234 L 367.85752868652344 160.41963958740234 L 359.85752868652344 160.41963958740234 L 359.85752868652344 152.41963958740234 Z" stroke-miterlimit="10" stroke-width="0.5" stroke-dasharray="0"/><path fill="none" stroke="#505050" paint-order="fill stroke markers" d=" M 393.85752868652344 152.41963958740234 L 401.85752868652344 152.41963958740234 L 401.85752868652344 160.41963958740234 L 393.85752868652344 160.41963958740234 L 393.85752868652344 152.41963958740234 Z" stroke-miterlimit="10" stroke-width="0.5" stroke-dasharray="0"/><path fill="none" stroke="none"/><path fill="white" stroke="#505050" paint-order="fill stroke markers" d=" M 343.32621002197266 174.31647872924805 L 401.32621002197266 174.31647872924805 L 401.32621002197266 212.31647872924805 L 343.32621002197266 212.31647872924805 L 351.32621002197266 193.31647872924805 L 343.32621002197266 174.31647872924805" stroke-miterlimit="10" stroke-width="0.5" stroke-dasharray="0"/><path fill="#F0F0F0" stroke="none" paint-order="stroke fill markers" d=" M 359.32621002197266 178.31647872924805 L 401.32621002197266 178.31647872924805 L 401.32621002197266 208.31647872924805 L 359.32621002197266 208.31647872924805 L 359.32621002197266 178.31647872924805 Z"/><path fill="none" stroke="none"/><path fill="none" stroke="#505050" paint-order="fill stroke markers" d=" M 359.32621002197266 178.31647872924805 L 401.32621002197266 178.31647872924805 L 401.32621002197266 208.31647872924805 L 359.32621002197266 208.31647872924805 L 359.32621002197266 178.31647872924805 Z" stroke-miterlimit="10" stroke-width="0.5" stroke-dasharray="0"/><path fill="none" stroke="none"/><text fill="#505050" stroke="none" font-family="monospace" font-size="14px" font-style="normal" font-weight="normal" text-decoration="normal" x="380.32621002197266" y="196.31647872924805" text-anchor="middle" dominant-baseline="text-after-edge">cond</text><path fill="none" stroke="#505050" paint-order="fill stroke markers" d=" M 359.32621002197266 196.31647872924805 L 367.32621002197266 196.31647872924805 L 367.32621002197266 204.31647872924805 L 359.32621002197266 204.31647872924805 L 359.32621002197266 196.31647872924805 Z" stroke-miterlimit="10" stroke-width="0.5" stroke-dasharray="0"/><path fill="none" stroke="#505050" paint-order="fill stroke markers" d=" M 393.32621002197266 196.31647872924805 L 401.32621002197266 196.31647872924805 L 401.32621002197266 204.31647872924805 L 393.32621002197266 204.31647872924805 L 393.32621002197266 196.31647872924805 Z" stroke-miterlimit="10" stroke-width="0.5" stroke-dasharray="0"/><path fill="none" stroke="#505050" paint-order="fill stroke markers" d=" M 359.32621002197266 178.31647872924805 L 401.32621002197266 178.31647872924805 L 401.32621002197266 208.31647872924805 L 359.32621002197266 208.31647872924805 L 359.32621002197266 178.31647872924805 Z" stroke-miterlimit="10" stroke-width="0.5" stroke-dasharray="6,3"/><path fill="#F0F0F0" stroke="none" paint-order="stroke fill markers" d=""/><path fill="none" stroke="none"/><text fill="#505050" stroke="none" font-family="monospace" font-size="14px" font-style="normal" font-weight="normal" text-decoration="normal" x="380.32621002197266" y="196.31647872924805" text-anchor="middle" dominant-baseline="text-after-edge">cond</text><path fill="none" stroke="#505050" paint-order="fill stroke markers" d=" M 359.32621002197266 196.31647872924805 L 367.32621002197266 196.31647872924805 L 367.32621002197266 204.31647872924805 L 359.32621002197266 204.31647872924805 L 359.32621002197266 196.31647872924805 Z" stroke-miterlimit="10" stroke-width="0.5" stroke-dasharray="0"/><path fill="none" stroke="#505050" paint-order="fill stroke markers" d=" M 393.32621002197266 196.31647872924805 L 401.32621002197266 196.31647872924805 L 401.32621002197266 204.31647872924805 L 393.32621002197266 204.31647872924805 L 393.32621002197266 196.31647872924805 Z" stroke-miterlimit="10" stroke-width="0.5" stroke-dasharray="0"/><path fill="white" stroke="#505050" paint-order="fill stroke markers" d=" M 463.6542739868164 219.48842239379883 L 505.6542739868164 219.48842239379883 L 505.6542739868164 249.48842239379883 L 463.6542739868164 249.48842239379883 L 463.6542739868164 219.48842239379883 Z" stroke-miterlimit="10" stroke-width="0.5" stroke-dasharray="0"/><path fill="#F0F0F0" stroke="none" paint-order="stroke fill markers" d=""/><path fill="none" stroke="none"/><text fill="#505050" stroke="none" font-family="monospace" font-size="14px" font-style="normal" font-weight="normal" text-decoration="normal" x="484.6542739868164" y="237.48842239379883" text-anchor="middle" dominant-baseline="text-after-edge">cond</text><path fill="none" stroke="#505050" paint-order="fill stroke markers" d=" M 463.6542739868164 237.48842239379883 L 471.6542739868164 237.48842239379883 L 471.6542739868164 245.48842239379883 L 463.6542739868164 245.48842239379883 L 463.6542739868164 237.48842239379883 Z" stroke-miterlimit="10" stroke-width="0.5" stroke-dasharray="0"/><path fill="none" stroke="#505050" paint-order="fill stroke markers" d=" M 497.6542739868164 237.48842239379883 L 505.6542739868164 237.48842239379883 L 505.6542739868164 245.48842239379883 L 497.6542739868164 245.48842239379883 L 497.6542739868164 237.48842239379883 Z" stroke-miterlimit="10" stroke-width="0.5" stroke-dasharray="0"/><path fill="white" stroke="#505050" paint-order="fill stroke markers" d=" M 393.69810485839844 239.23218536376953 L 435.69810485839844 239.23218536376953 L 435.69810485839844 269.23218536376953 L 393.69810485839844 269.23218536376953 L 393.69810485839844 239.23218536376953 Z" stroke-miterlimit="10" stroke-width="0.5" stroke-dasharray="0"/><path fill="#F0F0F0" stroke="none" paint-order="stroke fill markers" d=""/><path fill="none" stroke="none"/><text fill="#505050" stroke="none" font-family="monospace" font-size="14px" font-style="normal" font-weight="normal" text-decoration="normal" x="414.69810485839844" y="257.23218536376953" text-anchor="middle" dominant-baseline="text-after-edge">body</text><path fill="none" stroke="#505050" paint-order="fill stroke markers" d=" M 393.69810485839844 257.23218536376953 L 401.69810485839844 257.23218536376953 L 401.69810485839844 265.23218536376953 L 393.69810485839844 265.23218536376953 L 393.69810485839844 257.23218536376953 Z" stroke-miterlimit="10" stroke-width="0.5" stroke-dasharray="0"/><path fill="none" stroke="#505050" paint-order="fill stroke markers" d=" M 427.69810485839844 257.23218536376953 L 435.69810485839844 257.23218536376953 L 435.69810485839844 265.23218536376953 L 427.69810485839844 265.23218536376953 L 427.69810485839844 257.23218536376953 Z" stroke-miterlimit="10" stroke-width="0.5" stroke-dasharray="0"/><path fill="white" stroke="#505050" paint-order="fill stroke markers" d=" M 342.16258573532104 46.29899787902832 L 342.16258573532104 76.29899787902832 Q 342.16258573532104 84.29899787902832 350.16258573532104 84.29899787902832 L 434.5681414604187 84.29899787902832 Q 442.5681414604187 84.29899787902832 442.5681414604187 76.29899787902832 L 442.5681414604187 46.29899787902832 Q 442.5681414604187 38.29899787902832 434.5681414604187 38.29899787902832 L 350.16258573532104 38.29899787902832 Q 342.16258573532104 38.29899787902832 342.16258573532104 46.29899787902832" stroke-miterlimit="10" stroke-width="0.5" stroke-dasharray="0"/><path fill="#F0F0F0" stroke="#505050" paint-order="fill stroke markers" d=" M 400.5681414604187 46.29899787902832 L 442.5681414604187 46.29899787902832 L 442.5681414604187 76.29899787902832 L 400.5681414604187 76.29899787902832 L 400.5681414604187 46.29899787902832 Z" stroke-miterlimit="10" stroke-width="0.5" stroke-dasharray="6,3"/><path fill="none" stroke="none"/><text fill="#505050" stroke="none" font-family="monospace" font-size="14px" font-style="normal" font-weight="normal" text-decoration="normal" x="421.5681414604187" y="64.29899787902832" text-anchor="middle" dominant-baseline="text-after-edge">body</text><path fill="none" stroke="#505050" paint-order="fill stroke markers" d=" M 400.5681414604187 64.29899787902832 L 408.5681414604187 64.29899787902832 L 408.5681414604187 72.29899787902832 L 400.5681414604187 72.29899787902832 L 400.5681414604187 64.29899787902832 Z" stroke-miterlimit="10" stroke-width="0.5" stroke-dasharray="0"/><path fill="none" stroke="#505050" paint-order="fill stroke markers" d=" M 434.5681414604187 64.29899787902832 L 442.5681414604187 64.29899787902832 L 442.5681414604187 72.29899787902832 L 434.5681414604187 72.29899787902832 L 434.5681414604187 64.29899787902832 Z" stroke-miterlimit="10" stroke-width="0.5" stroke-dasharray="0"/><path fill="white" stroke="#505050" paint-order="fill stroke markers" d=" M 377.99715757369995 44.99928665161133 L 385.99715757369995 44.99928665161133 L 393.99715757369995 52.99928665161133 L 385.99715757369995 60.99928665161133 L 377.99715757369995 60.99928665161133 L 377.99715757369995 44.99928665161133" stroke-miterlimit="10" stroke-width="0.5" stroke-dasharray="0"/><path fill="none" stroke="none"/><path fill="none" stroke="#505050" paint-order="fill stroke markers" d=" M 377.99715757369995 48.99928665161133 L 385.99715757369995 48.99928665161133 L 385.99715757369995 56.99928665161133 L 377.99715757369995 56.99928665161133 L 377.99715757369995 48.99928665161133 Z" stroke-miterlimit="10" stroke-width="0.5" stroke-dasharray="0"/><path fill="white" stroke="#505050" paint-order="fill stroke markers" d=" M 350.16258573532104 46.29899787902832 L 366.16258573532104 46.29899787902832 L 366.16258573532104 62.29899787902832 L 350.16258573532104 62.29899787902832 L 358.16258573532104 54.29899787902832 L 350.16258573532104 46.29899787902832" stroke-miterlimit="10" stroke-width="0.5" stroke-dasharray="0"/><path fill="none" stroke="none"/><path fill="none" stroke="#505050" paint-order="fill stroke markers" d=" M 358.16258573532104 50.29899787902832 L 366.16258573532104 50.29899787902832 L 366.16258573532104 58.29899787902832 L 358.16258573532104 58.29899787902832 L 358.16258573532104 50.29899787902832 Z" stroke-miterlimit="10" stroke-width="0.5" stroke-dasharray="0"/><path fill="white" stroke="#505050" paint-order="fill stroke markers" d=" M 468.2315249443054 46.39133644104004 L 468.2315249443054 76.39133644104004 Q 468.2315249443054 84.39133644104004 476.2315249443054 84.39133644104004 L 560.6370806694031 84.39133644104004 Q 568.6370806694031 84.39133644104004 568.6370806694031 76.39133644104004 L 568.6370806694031 46.39133644104004 Q 568.6370806694031 38.39133644104004 560.6370806694031 38.39133644104004 L 476.2315249443054 38.39133644104004 Q 468.2315249443054 38.39133644104004 468.2315249443054 46.39133644104004" stroke-miterlimit="10" stroke-width="0.5" stroke-dasharray="0"/><path fill="#F0F0F0" stroke="#505050" paint-order="fill stroke markers" d=" M 526.6370806694031 46.39133644104004 L 568.6370806694031 46.39133644104004 L 568.6370806694031 76.39133644104004 L 526.6370806694031 76.39133644104004 L 526.6370806694031 46.39133644104004 Z" stroke-miterlimit="10" stroke-width="0.5" stroke-dasharray="6,3"/><path fill="none" stroke="none"/><text fill="#505050" stroke="none" font-family="monospace" font-size="14px" font-style="normal" font-weight="normal" text-decoration="normal" x="547.6370806694031" y="64.39133644104004" text-anchor="middle" dominant-baseline="text-after-edge">cond</text><path fill="none" stroke="#505050" paint-order="fill stroke markers" d=" M 526.6370806694031 64.39133644104004 L 534.6370806694031 64.39133644104004 L 534.6370806694031 72.39133644104004 L 526.6370806694031 72.39133644104004 L 526.6370806694031 64.39133644104004 Z" stroke-miterlimit="10" stroke-width="0.5" stroke-dasharray="0"/><path fill="none" stroke="#505050" paint-order="fill stroke markers" d=" M 560.6370806694031 64.39133644104004 L 568.6370806694031 64.39133644104004 L 568.6370806694031 72.39133644104004 L 560.6370806694031 72.39133644104004 L 560.6370806694031 64.39133644104004 Z" stroke-miterlimit="10" stroke-width="0.5" stroke-dasharray="0"/><path fill="white" stroke="#505050" paint-order="fill stroke markers" d=" M 504.0660967826843 45.09162521362305 L 512.0660967826843 45.09162521362305 L 520.0660967826843 53.09162521362305 L 512.0660967826843 61.09162521362305 L 504.0660967826843 61.09162521362305 L 504.0660967826843 45.09162521362305" stroke-miterlimit="10" stroke-width="0.5" stroke-dasharray="0"/><path fill="none" stroke="none"/><path fill="none" stroke="#505050" paint-order="fill stroke markers" d=" M 504.0660967826843 49.09162521362305 L 512.0660967826843 49.09162521362305 L 512.0660967826843 57.09162521362305 L 504.0660967826843 57.09162521362305 L 504.0660967826843 49.09162521362305 Z" stroke-miterlimit="10" stroke-width="0.5" stroke-dasharray="0"/><path fill="white" stroke="#505050" paint-order="fill stroke markers" d=" M 476.2315249443054 46.39133644104004 L 492.2315249443054 46.39133644104004 L 492.2315249443054 62.39133644104004 L 476.2315249443054 62.39133644104004 L 484.2315249443054 54.39133644104004 L 476.2315249443054 46.39133644104004" stroke-miterlimit="10" stroke-width="0.5" stroke-dasharray="0"/><path fill="none" stroke="none"/><path fill="none" stroke="#505050" paint-order="fill stroke markers" d=" M 484.2315249443054 50.39133644104004 L 492.2315249443054 50.39133644104004 L 492.2315249443054 58.39133644104004 L 484.2315249443054 58.39133644104004 L 484.2315249443054 50.39133644104004 Z" stroke-miterlimit="10" stroke-width="0.5" stroke-dasharray="0"/><path fill="#e0e0e0" stroke="none" paint-order="stroke fill markers" d=" M 408.43995666503906 352.9771919250488 L 400.43995666503906 337.9771919250488 L 400.43995666503906 367.9771919250488 Z M 442.3009796142578 487.8695869445801 L 450.3009796142578 472.8695869445801 L 450.3009796142578 502.8695869445801 Z"/><path fill="none" stroke="none"/><path fill="none" stroke="#e0e0e0" paint-order="fill stroke markers" d=" M 408.43995666503906 352.9771919250488 C 450.1631808912964 352.9771919250488 400.57775538800047 487.8695869445801 442.3009796142578 487.8695869445801" stroke-miterlimit="10" stroke-width="2" stroke-dasharray="0"/><path fill="#e0e0e0" stroke="none" paint-order="stroke fill markers" d=" M 407.9086380004883 396.87403106689453 L 399.9086380004883 381.87403106689453 L 399.9086380004883 411.87403106689453 Z M 395.0071487426758 434.7972717285156 L 403.0071487426758 419.7972717285156 L 403.0071487426758 449.7972717285156 Z"/><path fill="none" stroke="none"/><path fill="none" stroke="#e0e0e0" paint-order="fill stroke markers" d=" M 407.9086380004883 396.87403106689453 C 419.92595278630387 396.87403106689453 382.9898339568602 434.7972717285156 395.0071487426758 434.7972717285156" stroke-miterlimit="10" stroke-width="2" stroke-dasharray="0"/><path fill="#e0e0e0" stroke="none" paint-order="stroke fill markers" d=" M 409.32621002197266 193.31647872924805 L 401.32621002197266 178.31647872924805 L 401.32621002197266 208.31647872924805 Z M 455.6542739868164 234.48842239379883 L 463.6542739868164 219.48842239379883 L 463.6542739868164 249.48842239379883 Z"/><path fill="none" stroke="none"/><path fill="none" stroke="#e0e0e0" paint-order="fill stroke markers" d=" M 409.32621002197266 193.31647872924805 C 427.91996330167075 193.31647872924805 437.0605207071183 234.48842239379883 455.6542739868164 234.48842239379883" stroke-miterlimit="10" stroke-width="2" stroke-dasharray="0"/><path fill="#e0e0e0" stroke="none" paint-order="stroke fill markers" d=" M 409.85752868652344 149.41963958740234 L 401.85752868652344 134.41963958740234 L 401.85752868652344 164.41963958740234 Z M 385.69810485839844 254.23218536376953 L 393.69810485839844 239.23218536376953 L 393.69810485839844 269.23218536376953 Z"/><path fill="none" stroke="none"/><path fill="none" stroke="#e0e0e0" paint-order="fill stroke markers" d=" M 409.85752868652344 149.41963958740234 C 442.1257991091027 149.41963958740234 353.4298344358192 254.23218536376953 385.69810485839844 254.23218536376953" stroke-miterlimit="10" stroke-width="2" stroke-dasharray="0"/><path fill="none" stroke="#505050" paint-order="fill stroke markers" d=" M 445.0071487426758 441.7972717285156 C 488.6137115660557 441.7972717285156 546.7458694275966 443.4959373474121 590.3524322509766 443.4959373474121" stroke-miterlimit="10" stroke-dasharray="0"/><path fill="none" stroke="#505050" paint-order="fill stroke markers" d=" M 379.0899658203125 466.4272766113281 C 402.0942614026359 466.4272766113281 427.29668403193443 494.8695869445801 450.3009796142578 494.8695869445801" stroke-miterlimit="10" stroke-dasharray="0"/><path fill="none" stroke="#505050" paint-order="fill stroke markers" d=" M 614.3524322509766 443.4959373474121 C 617.555281498182 443.4959373474121 621.821442744982 443.1928024291992 625.0242919921875 443.1928024291992" stroke-miterlimit="10" stroke-dasharray="0"/><path fill="none" stroke="#505050" paint-order="fill stroke markers" d=" M 556.7804565429688 366.16150665283203 C 585.4107661019264 366.16150665283203 561.722122692019 455.4959373474121 590.3524322509766 455.4959373474121" stroke-miterlimit="10" stroke-dasharray="0"/><path fill="none" stroke="#505050" paint-order="fill stroke markers" d=" M 492.3009796142578 494.8695869445801 C 520.7500113700453 494.8695869445801 430.3314247871813 406.16150665283203 458.78045654296875 406.16150665283203" stroke-miterlimit="10" stroke-dasharray="0"/><path fill="none" stroke="#505050" paint-order="fill stroke markers" d=" M 400.43995666503906 352.9771919250488 C 418.6855674764183 352.9771919250488 440.5348457315895 370.16150665283203 458.78045654296875 370.16150665283203" stroke-miterlimit="10" stroke-dasharray="0"/><path fill="none" stroke="#505050" paint-order="fill stroke markers" d=" M 399.9086380004883 396.87403106689453 C 417.68461646092 396.87403106689453 441.00447808253705 390.16150665283203 458.78045654296875 390.16150665283203" stroke-miterlimit="10" stroke-dasharray="0"/><path fill="none" stroke="#505050" paint-order="fill stroke markers" d=" M 379.0899658203125 466.4272766113281 C 389.3894896031009 466.4272766113281 392.70762495988737 441.7972717285156 403.0071487426758 441.7972717285156" stroke-miterlimit="10" stroke-dasharray="0"/><path fill="none" stroke="#505050" paint-order="fill stroke markers" d=" M 379.0899658203125 466.4272766113281 C 442.46951660944535 466.4272766113281 526.9728814618437 467.4959373474121 590.3524322509766 467.4959373474121" stroke-miterlimit="10" stroke-dasharray="0"/><path fill="none" stroke="#505050" paint-order="fill stroke markers" d=" M 505.6542739868164 241.48842239379883 C 520.8928018764389 241.48842239379883 541.2001775547135 240.44775390625 556.4387054443359 240.44775390625" stroke-miterlimit="10" stroke-dasharray="0"/><path fill="none" stroke="#505050" paint-order="fill stroke markers" d=" M 435.69810485839844 261.23218536376953 C 445.9656615867345 261.23218536376953 453.38671725848036 241.48842239379883 463.6542739868164 241.48842239379883" stroke-miterlimit="10" stroke-dasharray="0"/><path fill="none" stroke="#505050" paint-order="fill stroke markers" d=" M 379.9294128417969 260.81344985961914 C 384.0619302022373 260.81344985961914 389.565587497958 261.23218536376953 393.69810485839844 261.23218536376953" stroke-miterlimit="10" stroke-dasharray="0"/><path fill="none" stroke="#505050" paint-order="fill stroke markers" d=" M 580.4387054443359 240.44775390625 C 583.6415546915414 240.44775390625 587.9077159383414 240.1446189880371 591.1105651855469 240.1446189880371" stroke-miterlimit="10" stroke-dasharray="0"/><path fill="none" stroke="#505050" paint-order="fill stroke markers" d=" M 435.69810485839844 261.23218536376953 C 471.9331283299154 261.23218536376953 520.203681972819 264.44775390625 556.4387054443359 264.44775390625" stroke-miterlimit="10" stroke-dasharray="0"/><path fill="none" stroke="#505050" paint-order="fill stroke markers" d=" M 527.0949401855469 157.98521041870117 C 556.769518217138 157.98521041870117 526.7641274127448 252.44775390625 556.4387054443359 252.44775390625" stroke-miterlimit="10" stroke-dasharray="0"/><path fill="none" stroke="#505050" paint-order="fill stroke markers" d=" M 435.69810485839844 261.23218536376953 C 454.7753254658638 261.23218536376953 410.01771957808154 197.98521041870117 429.0949401855469 197.98521041870117" stroke-miterlimit="10" stroke-dasharray="0"/><path fill="none" stroke="#505050" paint-order="fill stroke markers" d=" M 401.85752868652344 149.41963958740234 C 410.85637939055874 149.41963958740234 420.09608948151157 161.98521041870117 429.0949401855469 161.98521041870117" stroke-miterlimit="10" stroke-dasharray="0"/><path fill="none" stroke="#505050" paint-order="fill stroke markers" d=" M 401.32621002197266 193.31647872924805 C 410.3237097567918 193.31647872924805 420.09744045072773 181.98521041870117 429.0949401855469 181.98521041870117" stroke-miterlimit="10" stroke-dasharray="0"/></g></g></svg>