<svg version="1.1" xmlns="http://www.w3.org/2000/svg" xmlns:xlink="http://www.w3.org/1999/xlink" width="761.642204284668" height="374.00296783447266"><defs/><g transform="translate(-416.71717071533203,-361.2781448364258)"><g><path fill="white" stroke="#505050" paint-order="fill stroke markers" d=" M 424.71717071533203 377.2781448364258 L 424.71717071533203 719.2811126708984 Q 424.71717071533203 727.2811126708984 432.71717071533203 727.2811126708984 L 1162.359375 727.2811126708984 Q 1170.359375 727.2811126708984 1170.359375 719.2811126708984 L 1170.359375 377.2781448364258 Q 1170.359375 369.2781448364258 1162.359375 369.2781448364258 L 432.71717071533203 369.2781448364258 Q 424.71717071533203 369.2781448364258 424.71717071533203 377.2781448364258" stroke-miterlimit="10" stroke-width="0.5" stroke-dasharray=""/><path fill="#F0F0F0" stroke="#505050" paint-order="fill stroke markers" d=" M 1088.359375 377.2781448364258 L 1170.359375 377.2781448364258 L 1170.359375 439.2781448364258 L 1088.359375 439.2781448364258 L 1088.359375 377.2781448364258 Z" stroke-miterlimit="10" stroke-width="0.5" stroke-dasharray=""/><path fill="none" stroke="none"/><text fill="#505050" stroke="none" font-family="monospace" font-size="14px" font-style="normal" font-weight="normal" text-decoration="normal" x="1129.359375" y="395.2781448364258" text-anchor="middle" dominant-baseline="text-after-edge">search</text><path fill="none" stroke="#505050" paint-order="fill stroke markers" d=" M 1088.359375 395.2781448364258 L 1112.359375 395.2781448364258 L 1112.359375 411.2781448364258 L 1088.359375 411.2781448364258 L 1088.359375 395.2781448364258 Z" stroke-miterlimit="10" stroke-width="0.5" stroke-dasharray=""/><path fill="none" stroke="none"/><path fill="none" stroke="#505050" paint-order="fill stroke markers" d=" M 1088.359375 399.2781448364258 L 1096.359375 399.2781448364258 L 1096.359375 407.2781448364258 L 1088.359375 407.2781448364258 L 1088.359375 399.2781448364258 Z" stroke-miterlimit="10" stroke-width="0.5" stroke-dasharray=""/><path fill="none" stroke="#505050" paint-order="fill stroke markers" d=" M 1104.359375 399.2781448364258 L 1112.359375 399.2781448364258 L 1112.359375 407.2781448364258 L 1104.359375 407.2781448364258 L 1104.359375 399.2781448364258 Z" stroke-miterlimit="10" stroke-width="0.5" stroke-dasharray=""/><text fill="#505050" stroke="none" font-family="monospace" font-size="14px" font-style="normal" font-weight="normal" text-decoration="normal" x="1120.359375" y="412.2781448364258" text-anchor="start" dominant-baseline="text-after-edge">test</text><path fill="none" stroke="#505050" paint-order="fill stroke markers" d=" M 1088.359375 415.2781448364258 L 1096.359375 415.2781448364258 L 1096.359375 423.2781448364258 L 1088.359375 423.2781448364258 L 1088.359375 415.2781448364258 Z" stroke-miterlimit="10" stroke-width="0.5" stroke-dasharray=""/><path fill="none" stroke="#505050" paint-order="fill stroke markers" d=" M 1088.359375 427.2781448364258 L 1096.359375 427.2781448364258 L 1096.359375 435.2781448364258 L 1088.359375 435.2781448364258 L 1088.359375 427.2781448364258 Z" stroke-miterlimit="10" stroke-width="0.5" stroke-dasharray=""/><path fill="none" stroke="#505050" paint-order="fill stroke markers" d=" M 1162.359375 395.2781448364258 L 1170.359375 395.2781448364258 L 1170.359375 403.2781448364258 L 1162.359375 403.2781448364258 L 1162.359375 395.2781448364258 Z" stroke-miterlimit="10" stroke-width="0.5" stroke-dasharray=""/><path fill="white" stroke="#505050" paint-order="fill stroke markers" d=" M 468.6093555390835 563.9581832885742 L 468.6093555390835 703.2811126708984 Q 468.6093555390835 711.2811126708984 476.6093555390835 711.2811126708984 L 951.41796875 711.2811126708984 Q 959.41796875 711.2811126708984 959.41796875 703.2811126708984 L 959.41796875 563.9581832885742 Q 959.41796875 555.9581832885742 951.41796875 555.9581832885742 L 476.6093555390835 555.9581832885742 Q 468.6093555390835 555.9581832885742 468.6093555390835 563.9581832885742" stroke-miterlimit="10" stroke-width="0.5" stroke-dasharray=""/><path fill="#F0F0F0" stroke="#505050" paint-order="fill stroke markers" d=" M 892.41796875 563.9581832885742 L 959.41796875 563.9581832885742 L 959.41796875 613.9581832885742 L 892.41796875 613.9581832885742 L 892.41796875 563.9581832885742 Z" stroke-miterlimit="10" stroke-width="0.5" stroke-dasharray=""/><path fill="none" stroke="none"/><text fill="#505050" stroke="none" font-family="monospace" font-size="14px" font-style="normal" font-weight="normal" text-decoration="normal" x="925.91796875" y="581.9581832885742" text-anchor="middle" dominant-baseline="text-after-edge">search'</text><path fill="none" stroke="#505050" paint-order="fill stroke markers" d=" M 892.41796875 581.9581832885742 L 908.41796875 581.9581832885742 L 908.41796875 609.9581832885742 L 892.41796875 609.9581832885742 L 892.41796875 581.9581832885742 Z" stroke-miterlimit="10" stroke-width="0.5" stroke-dasharray=""/><path fill="none" stroke="none"/><path fill="none" stroke="#505050" paint-order="fill stroke markers" d=" M 900.41796875 585.9581832885742 L 908.41796875 585.9581832885742 L 908.41796875 593.9581832885742 L 900.41796875 593.9581832885742 L 900.41796875 585.9581832885742 Z" stroke-miterlimit="10" stroke-width="0.5" stroke-dasharray=""/><path fill="none" stroke="#505050" paint-order="fill stroke markers" d=" M 900.41796875 597.9581832885742 L 908.41796875 597.9581832885742 L 908.41796875 605.9581832885742 L 900.41796875 605.9581832885742 L 900.41796875 597.9581832885742 Z" stroke-miterlimit="10" stroke-width="0.5" stroke-dasharray=""/><path fill="none" stroke="#505050" paint-order="fill stroke markers" d=" M 943.41796875 581.9581832885742 L 959.41796875 581.9581832885742 L 959.41796875 609.9581832885742 L 943.41796875 609.9581832885742 L 943.41796875 581.9581832885742 Z" stroke-miterlimit="10" stroke-width="0.5" stroke-dasharray=""/><path fill="none" stroke="none"/><path fill="none" stroke="#505050" paint-order="fill stroke markers" d=" M 951.41796875 585.9581832885742 L 959.41796875 585.9581832885742 L 959.41796875 593.9581832885742 L 951.41796875 593.9581832885742 L 951.41796875 585.9581832885742 Z" stroke-miterlimit="10" stroke-width="0.5" stroke-dasharray=""/><path fill="none" stroke="#505050" paint-order="fill stroke markers" d=" M 951.41796875 597.9581832885742 L 959.41796875 597.9581832885742 L 959.41796875 605.9581832885742 L 951.41796875 605.9581832885742 L 951.41796875 597.9581832885742 Z" stroke-miterlimit="10" stroke-width="0.5" stroke-dasharray=""/><path fill="white" stroke="#505050" paint-order="fill stroke markers" d=" M 735.8279266357422 566.0216293334961 L 760.8279266357422 566.0216293334961 L 760.8279266357422 608.0216293334961 L 735.8279266357422 608.0216293334961 L 735.8279266357422 566.0216293334961 Z" stroke-miterlimit="10" stroke-width="0.5" stroke-dasharray=""/><path fill="#F0F0F0" stroke="none" paint-order="stroke fill markers" d=""/><path fill="none" stroke="none"/><text fill="#505050" stroke="none" font-family="monospace" font-size="14px" font-style="normal" font-weight="normal" text-decoration="normal" x="748.3279266357422" y="584.0216293334961" text-anchor="middle" dominant-baseline="text-after-edge">&gt;=</text><path fill="none" stroke="#505050" paint-order="fill stroke markers" d=" M 735.8279266357422 584.0216293334961 L 743.8279266357422 584.0216293334961 L 743.8279266357422 592.0216293334961 L 735.8279266357422 592.0216293334961 L 735.8279266357422 584.0216293334961 Z" stroke-miterlimit="10" stroke-width="0.5" stroke-dasharray=""/><path fill="none" stroke="#505050" paint-order="fill stroke markers" d=" M 735.8279266357422 596.0216293334961 L 743.8279266357422 596.0216293334961 L 743.8279266357422 604.0216293334961 L 735.8279266357422 604.0216293334961 L 735.8279266357422 596.0216293334961 Z" stroke-miterlimit="10" stroke-width="0.5" stroke-dasharray=""/><path fill="none" stroke="#505050" paint-order="fill stroke markers" d=" M 752.8279266357422 584.0216293334961 L 760.8279266357422 584.0216293334961 L 760.8279266357422 592.0216293334961 L 752.8279266357422 592.0216293334961 L 752.8279266357422 584.0216293334961 Z" stroke-miterlimit="10" stroke-width="0.5" stroke-dasharray=""/><path fill="white" stroke="#505050" paint-order="fill stroke markers" d=" M 711.9507522583008 644.1632080078125 L 778.9507522583008 644.1632080078125 L 778.9507522583008 694.1632080078125 L 711.9507522583008 694.1632080078125 L 711.9507522583008 644.1632080078125 Z" stroke-miterlimit="10" stroke-width="0.5" stroke-dasharray=""/><path fill="#F0F0F0" stroke="none" paint-order="stroke fill markers" d=" M 762.9507522583008 662.1632080078125 L 778.9507522583008 662.1632080078125 L 778.9507522583008 690.1632080078125 L 762.9507522583008 690.1632080078125 L 762.9507522583008 662.1632080078125 Z"/><path fill="none" stroke="none"/><text fill="#505050" stroke="none" font-family="monospace" font-size="14px" font-style="normal" font-weight="normal" text-decoration="normal" x="745.4507522583008" y="662.1632080078125" text-anchor="middle" dominant-baseline="text-after-edge">search'</text><path fill="none" stroke="#505050" paint-order="fill stroke markers" d=" M 711.9507522583008 662.1632080078125 L 727.9507522583008 662.1632080078125 L 727.9507522583008 690.1632080078125 L 711.9507522583008 690.1632080078125 L 711.9507522583008 662.1632080078125 Z" stroke-miterlimit="10" stroke-width="0.5" stroke-dasharray=""/><path fill="none" stroke="none"/><path fill="none" stroke="#505050" paint-order="fill stroke markers" d=" M 719.9507522583008 666.1632080078125 L 727.9507522583008 666.1632080078125 L 727.9507522583008 674.1632080078125 L 719.9507522583008 674.1632080078125 L 719.9507522583008 666.1632080078125 Z" stroke-miterlimit="10" stroke-width="0.5" stroke-dasharray=""/><path fill="none" stroke="#505050" paint-order="fill stroke markers" d=" M 719.9507522583008 678.1632080078125 L 727.9507522583008 678.1632080078125 L 727.9507522583008 686.1632080078125 L 719.9507522583008 686.1632080078125 L 719.9507522583008 678.1632080078125 Z" stroke-miterlimit="10" stroke-width="0.5" stroke-dasharray=""/><path fill="none" stroke="#505050" paint-order="fill stroke markers" d=" M 762.9507522583008 662.1632080078125 L 778.9507522583008 662.1632080078125 L 778.9507522583008 690.1632080078125 L 762.9507522583008 690.1632080078125 L 762.9507522583008 662.1632080078125 Z" stroke-miterlimit="10" stroke-width="0.5" stroke-dasharray=""/><path fill="none" stroke="none"/><path fill="none" stroke="#505050" paint-order="fill stroke markers" d=" M 770.9507522583008 666.1632080078125 L 778.9507522583008 666.1632080078125 L 778.9507522583008 674.1632080078125 L 770.9507522583008 674.1632080078125 L 770.9507522583008 666.1632080078125 Z" stroke-miterlimit="10" stroke-width="0.5" stroke-dasharray=""/><path fill="none" stroke="#505050" paint-order="fill stroke markers" d=" M 770.9507522583008 678.1632080078125 L 778.9507522583008 678.1632080078125 L 778.9507522583008 686.1632080078125 L 770.9507522583008 686.1632080078125 L 770.9507522583008 678.1632080078125 Z" stroke-miterlimit="10" stroke-width="0.5" stroke-dasharray=""/><path fill="white" stroke="#505050" paint-order="fill stroke markers" d=" M 590.0740661621094 644.8512878417969 L 649.0740661621094 644.8512878417969 L 649.0740661621094 694.8512878417969 L 590.0740661621094 694.8512878417969 L 590.0740661621094 644.8512878417969 Z" stroke-miterlimit="10" stroke-width="0.5" stroke-dasharray=""/><path fill="#F0F0F0" stroke="none" paint-order="stroke fill markers" d=" M 633.0740661621094 662.8512878417969 L 649.0740661621094 662.8512878417969 L 649.0740661621094 690.8512878417969 L 633.0740661621094 690.8512878417969 L 633.0740661621094 662.8512878417969 Z"/><path fill="none" stroke="none"/><text fill="#505050" stroke="none" font-family="monospace" font-size="14px" font-style="normal" font-weight="normal" text-decoration="normal" x="619.5740661621094" y="662.8512878417969" text-anchor="middle" dominant-baseline="text-after-edge">select</text><path fill="none" stroke="#505050" paint-order="fill stroke markers" d=" M 590.0740661621094 662.8512878417969 L 606.0740661621094 662.8512878417969 L 606.0740661621094 690.8512878417969 L 590.0740661621094 690.8512878417969 L 590.0740661621094 662.8512878417969 Z" stroke-miterlimit="10" stroke-width="0.5" stroke-dasharray=""/><path fill="none" stroke="none"/><path fill="none" stroke="#505050" paint-order="fill stroke markers" d=" M 598.0740661621094 666.8512878417969 L 606.0740661621094 666.8512878417969 L 606.0740661621094 674.8512878417969 L 598.0740661621094 674.8512878417969 L 598.0740661621094 666.8512878417969 Z" stroke-miterlimit="10" stroke-width="0.5" stroke-dasharray=""/><path fill="none" stroke="#505050" paint-order="fill stroke markers" d=" M 598.0740661621094 678.8512878417969 L 606.0740661621094 678.8512878417969 L 606.0740661621094 686.8512878417969 L 598.0740661621094 686.8512878417969 L 598.0740661621094 678.8512878417969 Z" stroke-miterlimit="10" stroke-width="0.5" stroke-dasharray=""/><path fill="none" stroke="#505050" paint-order="fill stroke markers" d=" M 633.0740661621094 662.8512878417969 L 649.0740661621094 662.8512878417969 L 649.0740661621094 690.8512878417969 L 633.0740661621094 690.8512878417969 L 633.0740661621094 662.8512878417969 Z" stroke-miterlimit="10" stroke-width="0.5" stroke-dasharray=""/><path fill="none" stroke="none"/><path fill="none" stroke="#505050" paint-order="fill stroke markers" d=" M 641.0740661621094 666.8512878417969 L 649.0740661621094 666.8512878417969 L 649.0740661621094 674.8512878417969 L 641.0740661621094 674.8512878417969 L 641.0740661621094 666.8512878417969 Z" stroke-miterlimit="10" stroke-width="0.5" stroke-dasharray=""/><path fill="none" stroke="#505050" paint-order="fill stroke markers" d=" M 641.0740661621094 678.8512878417969 L 649.0740661621094 678.8512878417969 L 649.0740661621094 686.8512878417969 L 641.0740661621094 686.8512878417969 L 641.0740661621094 678.8512878417969 Z" stroke-miterlimit="10" stroke-width="0.5" stroke-dasharray=""/><path fill="none" stroke="none"/><path fill="white" stroke="#505050" paint-order="fill stroke markers" d=" M 482.54471930861473 623.5505142211914 L 514.5447193086147 623.5505142211914 L 514.5447193086147 659.5505142211914 L 482.54471930861473 659.5505142211914 L 490.54471930861473 641.5505142211914 L 482.54471930861473 623.5505142211914" stroke-miterlimit="10" stroke-width="0.5" stroke-dasharray=""/><path fill="#F0F0F0" stroke="none" paint-order="stroke fill markers" d=" M 498.54471930861473 627.5505142211914 L 514.5447193086147 627.5505142211914 L 514.5447193086147 655.5505142211914 L 498.54471930861473 655.5505142211914 L 498.54471930861473 627.5505142211914 Z"/><path fill="none" stroke="none"/><path fill="none" stroke="#505050" paint-order="fill stroke markers" d=" M 498.54471930861473 627.5505142211914 L 514.5447193086147 627.5505142211914 L 514.5447193086147 655.5505142211914 L 498.54471930861473 655.5505142211914 L 498.54471930861473 627.5505142211914 Z" stroke-miterlimit="10" stroke-width="0.5" stroke-dasharray=""/><path fill="none" stroke="none"/><path fill="none" stroke="#505050" paint-order="fill stroke markers" d=" M 506.54471930861473 631.5505142211914 L 514.5447193086147 631.5505142211914 L 514.5447193086147 639.5505142211914 L 506.54471930861473 639.5505142211914 L 506.54471930861473 631.5505142211914 Z" stroke-miterlimit="10" stroke-width="0.5" stroke-dasharray=""/><path fill="none" stroke="#505050" paint-order="fill stroke markers" d=" M 506.54471930861473 643.5505142211914 L 514.5447193086147 643.5505142211914 L 514.5447193086147 651.5505142211914 L 506.54471930861473 651.5505142211914 L 506.54471930861473 643.5505142211914 Z" stroke-miterlimit="10" stroke-width="0.5" stroke-dasharray=""/><path fill="white" stroke="#505050" paint-order="fill stroke markers" d=" M 688.0621185302734 580.0194988250732 L 704.0621185302734 580.0194988250732 L 704.0621185302734 608.0194988250732 L 688.0621185302734 608.0194988250732 L 688.0621185302734 580.0194988250732 Z" stroke-miterlimit="10" stroke-width="0.5" stroke-dasharray=""/><path fill="#F0F0F0" stroke="none" paint-order="stroke fill markers" d=""/><path fill="none" stroke="none"/><path fill="none" stroke="#505050" paint-order="fill stroke markers" d=" M 696.0621185302734 584.0194988250732 L 704.0621185302734 584.0194988250732 L 704.0621185302734 592.0194988250732 L 696.0621185302734 592.0194988250732 L 696.0621185302734 584.0194988250732 Z" stroke-miterlimit="10" stroke-width="0.5" stroke-dasharray=""/><path fill="none" stroke="#505050" paint-order="fill stroke markers" d=" M 696.0621185302734 596.0194988250732 L 704.0621185302734 596.0194988250732 L 704.0621185302734 604.0194988250732 L 696.0621185302734 604.0194988250732 L 696.0621185302734 596.0194988250732 Z" stroke-miterlimit="10" stroke-width="0.5" stroke-dasharray=""/><path fill="white" stroke="#505050" paint-order="fill stroke markers" d=" M 804.5159730911255 580.252459526062 L 828.5159730911255 580.252459526062 L 828.5159730911255 634.252459526062 L 804.5159730911255 634.252459526062 L 804.5159730911255 580.252459526062 Z" stroke-miterlimit="10" stroke-width="0.5" stroke-dasharray=""/><path fill="#F0F0F0" stroke="none" paint-order="stroke fill markers" d=""/><path fill="none" stroke="none"/><text fill="#505050" stroke="none" font-family="monospace" font-size="14px" font-style="normal" font-weight="normal" text-decoration="normal" x="816.5159730911255" y="598.252459526062" text-anchor="middle" dominant-baseline="text-after-edge">?</text><path fill="none" stroke="#505050" paint-order="fill stroke markers" d=" M 804.5159730911255 598.252459526062 L 812.5159730911255 598.252459526062 L 812.5159730911255 606.252459526062 L 804.5159730911255 606.252459526062 L 804.5159730911255 598.252459526062 Z" stroke-miterlimit="10" stroke-width="0.5" stroke-dasharray=""/><path fill="none" stroke="#505050" paint-order="fill stroke markers" d=" M 804.5159730911255 610.252459526062 L 812.5159730911255 610.252459526062 L 812.5159730911255 618.252459526062 L 804.5159730911255 618.252459526062 L 804.5159730911255 610.252459526062 Z" stroke-miterlimit="10" stroke-width="0.5" stroke-dasharray=""/><path fill="none" stroke="#505050" paint-order="fill stroke markers" d=" M 804.5159730911255 622.252459526062 L 812.5159730911255 622.252459526062 L 812.5159730911255 630.252459526062 L 804.5159730911255 630.252459526062 L 804.5159730911255 622.252459526062 Z" stroke-miterlimit="10" stroke-width="0.5" stroke-dasharray=""/><path fill="none" stroke="#505050" paint-order="fill stroke markers" d=" M 820.5159730911255 598.252459526062 L 828.5159730911255 598.252459526062 L 828.5159730911255 606.252459526062 L 820.5159730911255 606.252459526062 L 820.5159730911255 598.252459526062 Z" stroke-miterlimit="10" stroke-width="0.5" stroke-dasharray=""/><path fill="white" stroke="#505050" paint-order="fill stroke markers" d=" M 845.4732761383057 622.5372495651245 L 878.4732761383057 622.5372495651245 L 878.4732761383057 684.5372495651245 L 845.4732761383057 684.5372495651245 L 845.4732761383057 622.5372495651245 Z" stroke-miterlimit="10" stroke-width="0.5" stroke-dasharray=""/><path fill="#F0F0F0" stroke="none" paint-order="stroke fill markers" d=" M 862.4732761383057 652.5372495651245 L 878.4732761383057 652.5372495651245 L 878.4732761383057 680.5372495651245 L 862.4732761383057 680.5372495651245 L 862.4732761383057 652.5372495651245 Z"/><path fill="none" stroke="none"/><text fill="#505050" stroke="none" font-family="monospace" font-size="14px" font-style="normal" font-weight="normal" text-decoration="normal" x="861.9732761383057" y="640.5372495651245" text-anchor="middle" dominant-baseline="text-after-edge">to*</text><path fill="none" stroke="#505050" paint-order="fill stroke markers" d=" M 845.4732761383057 640.5372495651245 L 853.4732761383057 640.5372495651245 L 853.4732761383057 648.5372495651245 L 845.4732761383057 648.5372495651245 L 845.4732761383057 640.5372495651245 Z" stroke-miterlimit="10" stroke-width="0.5" stroke-dasharray=""/><path fill="none" stroke="#505050" paint-order="fill stroke markers" d=" M 870.4732761383057 640.5372495651245 L 878.4732761383057 640.5372495651245 L 878.4732761383057 648.5372495651245 L 870.4732761383057 648.5372495651245 L 870.4732761383057 640.5372495651245 Z" stroke-miterlimit="10" stroke-width="0.5" stroke-dasharray=""/><path fill="none" stroke="#505050" paint-order="fill stroke markers" d=" M 862.4732761383057 652.5372495651245 L 878.4732761383057 652.5372495651245 L 878.4732761383057 680.5372495651245 L 862.4732761383057 680.5372495651245 L 862.4732761383057 652.5372495651245 Z" stroke-miterlimit="10" stroke-width="0.5" stroke-dasharray=""/><path fill="none" stroke="none"/><path fill="none" stroke="#505050" paint-order="fill stroke markers" d=" M 870.4732761383057 656.5372495651245 L 878.4732761383057 656.5372495651245 L 878.4732761383057 664.5372495651245 L 870.4732761383057 664.5372495651245 L 870.4732761383057 656.5372495651245 Z" stroke-miterlimit="10" stroke-width="0.5" stroke-dasharray=""/><path fill="none" stroke="#505050" paint-order="fill stroke markers" d=" M 870.4732761383057 668.5372495651245 L 878.4732761383057 668.5372495651245 L 878.4732761383057 676.5372495651245 L 870.4732761383057 676.5372495651245 L 870.4732761383057 668.5372495651245 Z" stroke-miterlimit="10" stroke-width="0.5" stroke-dasharray=""/><path fill="white" stroke="#505050" paint-order="fill stroke markers" d=" M 901.09375 658.53515625 L 909.09375 658.53515625 L 917.09375 666.53515625 L 909.09375 674.53515625 L 901.09375 674.53515625 L 901.09375 658.53515625" stroke-miterlimit="10" stroke-width="0.5" stroke-dasharray=""/><path fill="none" stroke="none"/><path fill="none" stroke="#505050" paint-order="fill stroke markers" d=" M 901.09375 662.53515625 L 909.09375 662.53515625 L 909.09375 670.53515625 L 901.09375 670.53515625 L 901.09375 662.53515625 Z" stroke-miterlimit="10" stroke-width="0.5" stroke-dasharray=""/><path fill="white" stroke="#505050" paint-order="fill stroke markers" d=" M 1028.381594657898 493.85228729248047 L 1095.381594657898 493.85228729248047 L 1095.381594657898 543.8522872924805 L 1028.381594657898 543.8522872924805 L 1028.381594657898 493.85228729248047 Z" stroke-miterlimit="10" stroke-width="0.5" stroke-dasharray=""/><path fill="#F0F0F0" stroke="none" paint-order="stroke fill markers" d=" M 1079.381594657898 511.85228729248047 L 1095.381594657898 511.85228729248047 L 1095.381594657898 539.8522872924805 L 1079.381594657898 539.8522872924805 L 1079.381594657898 511.85228729248047 Z"/><path fill="none" stroke="none"/><text fill="#505050" stroke="none" font-family="monospace" font-size="14px" font-style="normal" font-weight="normal" text-decoration="normal" x="1061.881594657898" y="511.85228729248047" text-anchor="middle" dominant-baseline="text-after-edge">search'</text><path fill="none" stroke="#505050" paint-order="fill stroke markers" d=" M 1028.381594657898 511.85228729248047 L 1044.381594657898 511.85228729248047 L 1044.381594657898 539.8522872924805 L 1028.381594657898 539.8522872924805 L 1028.381594657898 511.85228729248047 Z" stroke-miterlimit="10" stroke-width="0.5" stroke-dasharray=""/><path fill="none" stroke="none"/><path fill="none" stroke="#505050" paint-order="fill stroke markers" d=" M 1036.381594657898 515.8522872924805 L 1044.381594657898 515.8522872924805 L 1044.381594657898 523.8522872924805 L 1036.381594657898 523.8522872924805 L 1036.381594657898 515.8522872924805 Z" stroke-miterlimit="10" stroke-width="0.5" stroke-dasharray=""/><path fill="none" stroke="#505050" paint-order="fill stroke markers" d=" M 1036.381594657898 527.8522872924805 L 1044.381594657898 527.8522872924805 L 1044.381594657898 535.8522872924805 L 1036.381594657898 535.8522872924805 L 1036.381594657898 527.8522872924805 Z" stroke-miterlimit="10" stroke-width="0.5" stroke-dasharray=""/><path fill="none" stroke="#505050" paint-order="fill stroke markers" d=" M 1079.381594657898 511.85228729248047 L 1095.381594657898 511.85228729248047 L 1095.381594657898 539.8522872924805 L 1079.381594657898 539.8522872924805 L 1079.381594657898 511.85228729248047 Z" stroke-miterlimit="10" stroke-width="0.5" stroke-dasharray=""/><path fill="none" stroke="none"/><path fill="none" stroke="#505050" paint-order="fill stroke markers" d=" M 1087.381594657898 515.8522872924805 L 1095.381594657898 515.8522872924805 L 1095.381594657898 523.8522872924805 L 1087.381594657898 523.8522872924805 L 1087.381594657898 515.8522872924805 Z" stroke-miterlimit="10" stroke-width="0.5" stroke-dasharray=""/><path fill="none" stroke="#505050" paint-order="fill stroke markers" d=" M 1087.381594657898 527.8522872924805 L 1095.381594657898 527.8522872924805 L 1095.381594657898 535.8522872924805 L 1087.381594657898 535.8522872924805 L 1087.381594657898 527.8522872924805 Z" stroke-miterlimit="10" stroke-width="0.5" stroke-dasharray=""/><path fill="white" stroke="#505050" paint-order="fill stroke markers" d=" M 538.9436889588833 397.00211334228516 L 538.9436889588833 530.0657958984375 Q 538.9436889588833 538.0657958984375 546.9436889588833 538.0657958984375 L 882.1048882007599 538.0657958984375 Q 890.1048882007599 538.0657958984375 890.1048882007599 530.0657958984375 L 890.1048882007599 397.00211334228516 Q 890.1048882007599 389.00211334228516 882.1048882007599 389.00211334228516 L 546.9436889588833 389.00211334228516 Q 538.9436889588833 389.00211334228516 538.9436889588833 397.00211334228516" stroke-miterlimit="10" stroke-width="0.5" stroke-dasharray=""/><path fill="#F0F0F0" stroke="#505050" paint-order="fill stroke markers" d=" M 831.1048882007599 397.00211334228516 L 890.1048882007599 397.00211334228516 L 890.1048882007599 447.00211334228516 L 831.1048882007599 447.00211334228516 L 831.1048882007599 397.00211334228516 Z" stroke-miterlimit="10" stroke-width="0.5" stroke-dasharray=""/><path fill="none" stroke="none"/><text fill="#505050" stroke="none" font-family="monospace" font-size="14px" font-style="normal" font-weight="normal" text-decoration="normal" x="860.6048882007599" y="415.00211334228516" text-anchor="middle" dominant-baseline="text-after-edge">select</text><path fill="none" stroke="#505050" paint-order="fill stroke markers" d=" M 831.1048882007599 415.00211334228516 L 847.1048882007599 415.00211334228516 L 847.1048882007599 443.00211334228516 L 831.1048882007599 443.00211334228516 L 831.1048882007599 415.00211334228516 Z" stroke-miterlimit="10" stroke-width="0.5" stroke-dasharray=""/><path fill="none" stroke="none"/><path fill="none" stroke="#505050" paint-order="fill stroke markers" d=" M 839.1048882007599 419.00211334228516 L 847.1048882007599 419.00211334228516 L 847.1048882007599 427.00211334228516 L 839.1048882007599 427.00211334228516 L 839.1048882007599 419.00211334228516 Z" stroke-miterlimit="10" stroke-width="0.5" stroke-dasharray=""/><path fill="none" stroke="#505050" paint-order="fill stroke markers" d=" M 839.1048882007599 431.00211334228516 L 847.1048882007599 431.00211334228516 L 847.1048882007599 439.00211334228516 L 839.1048882007599 439.00211334228516 L 839.1048882007599 431.00211334228516 Z" stroke-miterlimit="10" stroke-width="0.5" stroke-dasharray=""/><path fill="none" stroke="#505050" paint-order="fill stroke markers" d=" M 874.1048882007599 415.00211334228516 L 890.1048882007599 415.00211334228516 L 890.1048882007599 443.00211334228516 L 874.1048882007599 443.00211334228516 L 874.1048882007599 415.00211334228516 Z" stroke-miterlimit="10" stroke-width="0.5" stroke-dasharray=""/><path fill="none" stroke="none"/><path fill="none" stroke="#505050" paint-order="fill stroke markers" d=" M 882.1048882007599 419.00211334228516 L 890.1048882007599 419.00211334228516 L 890.1048882007599 427.00211334228516 L 882.1048882007599 427.00211334228516 L 882.1048882007599 419.00211334228516 Z" stroke-miterlimit="10" stroke-width="0.5" stroke-dasharray=""/><path fill="none" stroke="#505050" paint-order="fill stroke markers" d=" M 882.1048882007599 431.00211334228516 L 890.1048882007599 431.00211334228516 L 890.1048882007599 439.00211334228516 L 882.1048882007599 439.00211334228516 L 882.1048882007599 431.00211334228516 Z" stroke-miterlimit="10" stroke-width="0.5" stroke-dasharray=""/><path fill="white" stroke="#505050" paint-order="fill stroke markers" d=" M 734.7251405715942 426.74850940704346 L 758.7251405715942 426.74850940704346 L 758.7251405715942 480.74850940704346 L 734.7251405715942 480.74850940704346 L 734.7251405715942 426.74850940704346 Z" stroke-miterlimit="10" stroke-width="0.5" stroke-dasharray=""/><path fill="#F0F0F0" stroke="none" paint-order="stroke fill markers" d=""/><path fill="none" stroke="none"/><text fill="#505050" stroke="none" font-family="monospace" font-size="14px" font-style="normal" font-weight="normal" text-decoration="normal" x="746.7251405715942" y="444.74850940704346" text-anchor="middle" dominant-baseline="text-after-edge">?</text><path fill="none" stroke="#505050" paint-order="fill stroke markers" d=" M 734.7251405715942 444.74850940704346 L 742.7251405715942 444.74850940704346 L 742.7251405715942 452.74850940704346 L 734.7251405715942 452.74850940704346 L 734.7251405715942 444.74850940704346 Z" stroke-miterlimit="10" stroke-width="0.5" stroke-dasharray=""/><path fill="none" stroke="#505050" paint-order="fill stroke markers" d=" M 734.7251405715942 456.74850940704346 L 742.7251405715942 456.74850940704346 L 742.7251405715942 464.74850940704346 L 734.7251405715942 464.74850940704346 L 734.7251405715942 456.74850940704346 Z" stroke-miterlimit="10" stroke-width="0.5" stroke-dasharray=""/><path fill="none" stroke="#505050" paint-order="fill stroke markers" d=" M 734.7251405715942 468.74850940704346 L 742.7251405715942 468.74850940704346 L 742.7251405715942 476.74850940704346 L 734.7251405715942 476.74850940704346 L 734.7251405715942 468.74850940704346 Z" stroke-miterlimit="10" stroke-width="0.5" stroke-dasharray=""/><path fill="none" stroke="#505050" paint-order="fill stroke markers" d=" M 750.7251405715942 444.74850940704346 L 758.7251405715942 444.74850940704346 L 758.7251405715942 452.74850940704346 L 750.7251405715942 452.74850940704346 L 750.7251405715942 444.74850940704346 Z" stroke-miterlimit="10" stroke-width="0.5" stroke-dasharray=""/><path fill="white" stroke="#505050" paint-order="fill stroke markers" d=" M 783.5691623687744 457.05424785614014 L 816.5691623687744 457.05424785614014 L 816.5691623687744 519.0542478561401 L 783.5691623687744 519.0542478561401 L 783.5691623687744 457.05424785614014 Z" stroke-miterlimit="10" stroke-width="0.5" stroke-dasharray=""/><path fill="#F0F0F0" stroke="none" paint-order="stroke fill markers" d=" M 800.5691623687744 487.05424785614014 L 816.5691623687744 487.05424785614014 L 816.5691623687744 515.0542478561401 L 800.5691623687744 515.0542478561401 L 800.5691623687744 487.05424785614014 Z"/><path fill="none" stroke="none"/><text fill="#505050" stroke="none" font-family="monospace" font-size="14px" font-style="normal" font-weight="normal" text-decoration="normal" x="800.0691623687744" y="475.05424785614014" text-anchor="middle" dominant-baseline="text-after-edge">to*</text><path fill="none" stroke="#505050" paint-order="fill stroke markers" d=" M 783.5691623687744 475.05424785614014 L 791.5691623687744 475.05424785614014 L 791.5691623687744 483.05424785614014 L 783.5691623687744 483.05424785614014 L 783.5691623687744 475.05424785614014 Z" stroke-miterlimit="10" stroke-width="0.5" stroke-dasharray=""/><path fill="none" stroke="#505050" paint-order="fill stroke markers" d=" M 808.5691623687744 475.05424785614014 L 816.5691623687744 475.05424785614014 L 816.5691623687744 483.05424785614014 L 808.5691623687744 483.05424785614014 L 808.5691623687744 475.05424785614014 Z" stroke-miterlimit="10" stroke-width="0.5" stroke-dasharray=""/><path fill="none" stroke="#505050" paint-order="fill stroke markers" d=" M 800.5691623687744 487.05424785614014 L 816.5691623687744 487.05424785614014 L 816.5691623687744 515.0542478561401 L 800.5691623687744 515.0542478561401 L 800.5691623687744 487.05424785614014 Z" stroke-miterlimit="10" stroke-width="0.5" stroke-dasharray=""/><path fill="none" stroke="none"/><path fill="none" stroke="#505050" paint-order="fill stroke markers" d=" M 808.5691623687744 491.05424785614014 L 816.5691623687744 491.05424785614014 L 816.5691623687744 499.05424785614014 L 808.5691623687744 499.05424785614014 L 808.5691623687744 491.05424785614014 Z" stroke-miterlimit="10" stroke-width="0.5" stroke-dasharray=""/><path fill="none" stroke="#505050" paint-order="fill stroke markers" d=" M 808.5691623687744 503.05424785614014 L 816.5691623687744 503.05424785614014 L 816.5691623687744 511.05424785614014 L 808.5691623687744 511.05424785614014 L 808.5691623687744 503.05424785614014 Z" stroke-miterlimit="10" stroke-width="0.5" stroke-dasharray=""/><path fill="white" stroke="#505050" paint-order="fill stroke markers" d=" M 543.7503385543823 464.1807098388672 L 559.7503385543823 464.1807098388672 L 559.7503385543823 480.1807098388672 L 543.7503385543823 480.1807098388672 L 551.7503385543823 472.1807098388672 L 543.7503385543823 464.1807098388672" stroke-miterlimit="10" stroke-width="0.5" stroke-dasharray=""/><path fill="none" stroke="none"/><path fill="none" stroke="#505050" paint-order="fill stroke markers" d=" M 551.7503385543823 468.1807098388672 L 559.7503385543823 468.1807098388672 L 559.7503385543823 476.1807098388672 L 551.7503385543823 476.1807098388672 L 551.7503385543823 468.1807098388672 Z" stroke-miterlimit="10" stroke-width="0.5" stroke-dasharray=""/><path fill="white" stroke="#505050" paint-order="fill stroke markers" d=" M 838.7215061187744 493.66362285614014 L 846.7215061187744 493.66362285614014 L 854.7215061187744 501.66362285614014 L 846.7215061187744 509.66362285614014 L 838.7215061187744 509.66362285614014 L 838.7215061187744 493.66362285614014" stroke-miterlimit="10" stroke-width="0.5" stroke-dasharray=""/><path fill="none" stroke="none"/><path fill="none" stroke="#505050" paint-order="fill stroke markers" d=" M 838.7215061187744 497.66362285614014 L 846.7215061187744 497.66362285614014 L 846.7215061187744 505.66362285614014 L 838.7215061187744 505.66362285614014 L 838.7215061187744 497.66362285614014 Z" stroke-miterlimit="10" stroke-width="0.5" stroke-dasharray=""/><path fill="white" stroke="#505050" paint-order="fill stroke markers" d=" M 668.7943449020386 410.4193649291992 L 710.7943449020386 410.4193649291992 L 710.7943449020386 440.4193649291992 L 668.7943449020386 440.4193649291992 L 668.7943449020386 410.4193649291992 Z" stroke-miterlimit="10" stroke-width="0.5" stroke-dasharray=""/><path fill="#F0F0F0" stroke="none" paint-order="stroke fill markers" d=""/><path fill="none" stroke="none"/><text fill="#505050" stroke="none" font-family="monospace" font-size="14px" font-style="normal" font-weight="normal" text-decoration="normal" x="689.7943449020386" y="428.4193649291992" text-anchor="middle" dominant-baseline="text-after-edge">test</text><path fill="none" stroke="#505050" paint-order="fill stroke markers" d=" M 668.7943449020386 428.4193649291992 L 676.7943449020386 428.4193649291992 L 676.7943449020386 436.4193649291992 L 668.7943449020386 436.4193649291992 L 668.7943449020386 428.4193649291992 Z" stroke-miterlimit="10" stroke-width="0.5" stroke-dasharray=""/><path fill="none" stroke="#505050" paint-order="fill stroke markers" d=" M 702.7943449020386 428.4193649291992 L 710.7943449020386 428.4193649291992 L 710.7943449020386 436.4193649291992 L 702.7943449020386 436.4193649291992 L 702.7943449020386 428.4193649291992 Z" stroke-miterlimit="10" stroke-width="0.5" stroke-dasharray=""/><path fill="white" stroke="#505050" paint-order="fill stroke markers" d=" M 567.1849365234375 440.0657958984375 L 617.1849365234375 440.0657958984375 L 617.1849365234375 522.0657958984375 L 567.1849365234375 522.0657958984375 L 567.1849365234375 440.0657958984375 Z" stroke-miterlimit="10" stroke-width="0.5" stroke-dasharray=""/><path fill="#F0F0F0" stroke="none" paint-order="stroke fill markers" d=" M 601.1849365234375 458.0657958984375 L 617.1849365234375 458.0657958984375 L 617.1849365234375 486.0657958984375 L 601.1849365234375 486.0657958984375 L 601.1849365234375 458.0657958984375 Z M 601.1849365234375 490.0657958984375 L 617.1849365234375 490.0657958984375 L 617.1849365234375 518.0657958984375 L 601.1849365234375 518.0657958984375 L 601.1849365234375 490.0657958984375 Z"/><path fill="none" stroke="none"/><text fill="#505050" stroke="none" font-family="monospace" font-size="14px" font-style="normal" font-weight="normal" text-decoration="normal" x="592.1849365234375" y="458.0657958984375" text-anchor="middle" dominant-baseline="text-after-edge">split</text><path fill="none" stroke="#505050" paint-order="fill stroke markers" d=" M 567.1849365234375 458.0657958984375 L 583.1849365234375 458.0657958984375 L 583.1849365234375 486.0657958984375 L 567.1849365234375 486.0657958984375 L 567.1849365234375 458.0657958984375 Z" stroke-miterlimit="10" stroke-width="0.5" stroke-dasharray=""/><path fill="none" stroke="none"/><path fill="none" stroke="#505050" paint-order="fill stroke markers" d=" M 575.1849365234375 462.0657958984375 L 583.1849365234375 462.0657958984375 L 583.1849365234375 470.0657958984375 L 575.1849365234375 470.0657958984375 L 575.1849365234375 462.0657958984375 Z" stroke-miterlimit="10" stroke-width="0.5" stroke-dasharray=""/><path fill="none" stroke="#505050" paint-order="fill stroke markers" d=" M 575.1849365234375 474.0657958984375 L 583.1849365234375 474.0657958984375 L 583.1849365234375 482.0657958984375 L 575.1849365234375 482.0657958984375 L 575.1849365234375 474.0657958984375 Z" stroke-miterlimit="10" stroke-width="0.5" stroke-dasharray=""/><path fill="none" stroke="#505050" paint-order="fill stroke markers" d=" M 601.1849365234375 458.0657958984375 L 617.1849365234375 458.0657958984375 L 617.1849365234375 486.0657958984375 L 601.1849365234375 486.0657958984375 L 601.1849365234375 458.0657958984375 Z" stroke-miterlimit="10" stroke-width="0.5" stroke-dasharray=""/><path fill="none" stroke="none"/><path fill="none" stroke="#505050" paint-order="fill stroke markers" d=" M 609.1849365234375 462.0657958984375 L 617.1849365234375 462.0657958984375 L 617.1849365234375 470.0657958984375 L 609.1849365234375 470.0657958984375 L 609.1849365234375 462.0657958984375 Z" stroke-miterlimit="10" stroke-width="0.5" stroke-dasharray=""/><path fill="none" stroke="#505050" paint-order="fill stroke markers" d=" M 609.1849365234375 474.0657958984375 L 617.1849365234375 474.0657958984375 L 617.1849365234375 482.0657958984375 L 609.1849365234375 482.0657958984375 L 609.1849365234375 474.0657958984375 Z" stroke-miterlimit="10" stroke-width="0.5" stroke-dasharray=""/><path fill="none" stroke="#505050" paint-order="fill stroke markers" d=" M 601.1849365234375 490.0657958984375 L 617.1849365234375 490.0657958984375 L 617.1849365234375 518.0657958984375 L 601.1849365234375 518.0657958984375 L 601.1849365234375 490.0657958984375 Z" stroke-miterlimit="10" stroke-width="0.5" stroke-dasharray=""/><path fill="none" stroke="none"/><path fill="none" stroke="#505050" paint-order="fill stroke markers" d=" M 609.1849365234375 494.0657958984375 L 617.1849365234375 494.0657958984375 L 617.1849365234375 502.0657958984375 L 609.1849365234375 502.0657958984375 L 609.1849365234375 494.0657958984375 Z" stroke-miterlimit="10" stroke-width="0.5" stroke-dasharray=""/><path fill="none" stroke="#505050" paint-order="fill stroke markers" d=" M 609.1849365234375 506.0657958984375 L 617.1849365234375 506.0657958984375 L 617.1849365234375 514.0657958984375 L 609.1849365234375 514.0657958984375 L 609.1849365234375 506.0657958984375 Z" stroke-miterlimit="10" stroke-width="0.5" stroke-dasharray=""/><path fill="none" stroke="none"/><path fill="white" stroke="#505050" paint-order="fill stroke markers" d=" M 460.0625 398.859375 L 518.0625 398.859375 L 518.0625 436.859375 L 460.0625 436.859375 L 468.0625 417.859375 L 460.0625 398.859375" stroke-miterlimit="10" stroke-width="0.5" stroke-dasharray=""/><path fill="#F0F0F0" stroke="none" paint-order="stroke fill markers" d=" M 476.0625 402.859375 L 518.0625 402.859375 L 518.0625 432.859375 L 476.0625 432.859375 L 476.0625 402.859375 Z"/><path fill="none" stroke="none"/><path fill="none" stroke="#505050" paint-order="fill stroke markers" d=" M 476.0625 402.859375 L 518.0625 402.859375 L 518.0625 432.859375 L 476.0625 432.859375 L 476.0625 402.859375 Z" stroke-miterlimit="10" stroke-width="0.5" stroke-dasharray=""/><path fill="none" stroke="none"/><text fill="#505050" stroke="none" font-family="monospace" font-size="14px" font-style="normal" font-weight="normal" text-decoration="normal" x="497.0625" y="420.859375" text-anchor="middle" dominant-baseline="text-after-edge">test</text><path fill="none" stroke="#505050" paint-order="fill stroke markers" d=" M 476.0625 420.859375 L 484.0625 420.859375 L 484.0625 428.859375 L 476.0625 428.859375 L 476.0625 420.859375 Z" stroke-miterlimit="10" stroke-width="0.5" stroke-dasharray=""/><path fill="none" stroke="#505050" paint-order="fill stroke markers" d=" M 510.0625 420.859375 L 518.0625 420.859375 L 518.0625 428.859375 L 510.0625 428.859375 L 510.0625 420.859375 Z" stroke-miterlimit="10" stroke-width="0.5" stroke-dasharray=""/><path fill="white" stroke="#505050" paint-order="fill stroke markers" d=" M 1108.40625 511.796875 L 1124.40625 511.796875 L 1124.40625 539.796875 L 1108.40625 539.796875 L 1108.40625 511.796875 Z" stroke-miterlimit="10" stroke-width="0.5" stroke-dasharray=""/><path fill="#F0F0F0" stroke="none" paint-order="stroke fill markers" d=""/><path fill="none" stroke="none"/><path fill="none" stroke="#505050" paint-order="fill stroke markers" d=" M 1116.40625 515.796875 L 1124.40625 515.796875 L 1124.40625 523.796875 L 1116.40625 523.796875 L 1116.40625 515.796875 Z" stroke-miterlimit="10" stroke-width="0.5" stroke-dasharray=""/><path fill="none" stroke="#505050" paint-order="fill stroke markers" d=" M 1116.40625 527.796875 L 1124.40625 527.796875 L 1124.40625 535.796875 L 1116.40625 535.796875 L 1116.40625 527.796875 Z" stroke-miterlimit="10" stroke-width="0.5" stroke-dasharray=""/><path fill="white" stroke="#505050" paint-order="fill stroke markers" d=" M 1136.78125 524.0234375 L 1144.78125 524.0234375 L 1152.78125 532.0234375 L 1144.78125 540.0234375 L 1136.78125 540.0234375 L 1136.78125 524.0234375" stroke-miterlimit="10" stroke-width="0.5" stroke-dasharray=""/><path fill="none" stroke="none"/><path fill="none" stroke="#505050" paint-order="fill stroke markers" d=" M 1136.78125 528.0234375 L 1144.78125 528.0234375 L 1144.78125 536.0234375 L 1136.78125 536.0234375 L 1136.78125 528.0234375 Z" stroke-miterlimit="10" stroke-width="0.5" stroke-dasharray=""/><path fill="white" stroke="#505050" paint-order="fill stroke markers" d=" M 930.46484375 506.28125 L 946.46484375 506.28125 L 946.46484375 522.28125 L 930.46484375 522.28125 L 938.46484375 514.28125 L 930.46484375 506.28125" stroke-miterlimit="10" stroke-width="0.5" stroke-dasharray=""/><path fill="none" stroke="none"/><path fill="none" stroke="#505050" paint-order="fill stroke markers" d=" M 938.46484375 510.28125 L 946.46484375 510.28125 L 946.46484375 518.28125 L 938.46484375 518.28125 L 938.46484375 510.28125 Z" stroke-miterlimit="10" stroke-width="0.5" stroke-dasharray=""/><path fill="white" stroke="#505050" paint-order="fill stroke markers" d=" M 930.42578125 525.11328125 L 946.42578125 525.11328125 L 946.42578125 541.11328125 L 930.42578125 541.11328125 L 938.42578125 533.11328125 L 930.42578125 525.11328125" stroke-miterlimit="10" stroke-width="0.5" stroke-dasharray=""/><path fill="none" stroke="none"/><path fill="none" stroke="#505050" paint-order="fill stroke markers" d=" M 938.42578125 529.11328125 L 946.42578125 529.11328125 L 946.42578125 537.11328125 L 938.42578125 537.11328125 L 938.42578125 529.11328125 Z" stroke-miterlimit="10" stroke-width="0.5" stroke-dasharray=""/><path fill="white" stroke="#505050" paint-order="fill stroke markers" d=" M 974.9328155517578 507.6107511520386 L 1006.9328155517578 507.6107511520386 L 1006.9328155517578 543.6107511520386 L 974.9328155517578 543.6107511520386 L 974.9328155517578 507.6107511520386 Z" stroke-miterlimit="10" stroke-width="0.5" stroke-dasharray=""/><path fill="#F0F0F0" stroke="none" paint-order="stroke fill markers" d=" M 990.9328155517578 511.6107511520386 L 1006.9328155517578 511.6107511520386 L 1006.9328155517578 539.6107511520386 L 990.9328155517578 539.6107511520386 L 990.9328155517578 511.6107511520386 Z"/><path fill="none" stroke="none"/><path fill="none" stroke="#505050" paint-order="fill stroke markers" d=" M 974.9328155517578 511.6107511520386 L 982.9328155517578 511.6107511520386 L 982.9328155517578 519.6107511520386 L 974.9328155517578 519.6107511520386 L 974.9328155517578 511.6107511520386 Z" stroke-miterlimit="10" stroke-width="0.5" stroke-dasharray=""/><path fill="none" stroke="#505050" paint-order="fill stroke markers" d=" M 974.9328155517578 523.6107511520386 L 982.9328155517578 523.6107511520386 L 982.9328155517578 531.6107511520386 L 974.9328155517578 531.6107511520386 L 974.9328155517578 523.6107511520386 Z" stroke-miterlimit="10" stroke-width="0.5" stroke-dasharray=""/><path fill="none" stroke="#505050" paint-order="fill stroke markers" d=" M 990.9328155517578 511.6107511520386 L 1006.9328155517578 511.6107511520386 L 1006.9328155517578 539.6107511520386 L 990.9328155517578 539.6107511520386 L 990.9328155517578 511.6107511520386 Z" stroke-miterlimit="10" stroke-width="0.5" stroke-dasharray=""/><path fill="none" stroke="none"/><path fill="none" stroke="#505050" paint-order="fill stroke markers" d=" M 998.9328155517578 515.6107511520386 L 1006.9328155517578 515.6107511520386 L 1006.9328155517578 523.6107511520386 L 998.9328155517578 523.6107511520386 L 998.9328155517578 515.6107511520386 Z" stroke-miterlimit="10" stroke-width="0.5" stroke-dasharray=""/><path fill="none" stroke="#505050" paint-order="fill stroke markers" d=" M 998.9328155517578 527.6107511520386 L 1006.9328155517578 527.6107511520386 L 1006.9328155517578 535.6107511520386 L 998.9328155517578 535.6107511520386 L 998.9328155517578 527.6107511520386 Z" stroke-miterlimit="10" stroke-width="0.5" stroke-dasharray=""/><path fill="none" stroke="none"/><path fill="none" stroke="#e0e0e0" paint-order="fill stroke markers" d=" M 894.1048882007599 422.00211334228516 C 1017.3552289311958 422.00211334228516 462.8237254316735 693.8512878417969 586.0740661621094 693.8512878417969" stroke-miterlimit="10" stroke-width="2" stroke-dasharray=""/><path fill="none" stroke="none"/><path fill="none" stroke="#e0e0e0" paint-order="fill stroke markers" d=" M 518.5447193086147 641.5505142211914 C 569.2690334217203 641.5505142211914 633.3378044171678 607.0194988250732 684.0621185302734 607.0194988250732" stroke-miterlimit="10" stroke-width="2" stroke-dasharray=""/><path fill="none" stroke="none"/><path fill="none" stroke="#e0e0e0" paint-order="fill stroke markers" d=" M 522.0625 417.859375 C 565.3678015731308 417.859375 621.4890433289078 439.4193649291992 664.7943449020386 439.4193649291992" stroke-miterlimit="10" stroke-width="2" stroke-dasharray=""/><path fill="none" stroke="none"/><path fill="none" stroke="#e0e0e0" paint-order="fill stroke markers" d=" M 1099.381594657898 525.8522872924805 C 1103.5472706054738 525.8522872924805 1100.240574052424 538.796875 1104.40625 538.796875" stroke-miterlimit="10" stroke-width="2" stroke-dasharray=""/><path fill="none" stroke="#505050" paint-order="fill stroke markers" d=" M 1006.9328155517578 525.6107511520386 C 1013.3678572638684 525.6107511520386 1021.9465529457874 525.8522872924805 1028.381594657898 525.8522872924805" stroke-miterlimit="10" stroke-dasharray=""/><path fill="none" stroke="#505050" paint-order="fill stroke markers" d=" M 1124.40625 531.796875 C 1128.1193721365553 531.796875 1133.0681278634447 532.0234375 1136.78125 532.0234375" stroke-miterlimit="10" stroke-dasharray=""/><path fill="none" stroke="#505050" paint-order="fill stroke markers" d=" M 946.46484375 514.28125 C 955.014543701677 514.28125 966.3831156000808 515.6107511520386 974.9328155517578 515.6107511520386" stroke-miterlimit="10" stroke-dasharray=""/><path fill="none" stroke="#505050" paint-order="fill stroke markers" d=" M 946.42578125 533.11328125 C 955.1357523058905 533.11328125 966.2228444958673 527.6107511520386 974.9328155517578 527.6107511520386" stroke-miterlimit="10" stroke-dasharray=""/><path fill="none" stroke="#505050" paint-order="fill stroke markers" d=" M 704.0621185302734 588.0194988250732 C 713.5918609833478 588.0194988250732 726.2981841826678 588.0216293334961 735.8279266357422 588.0216293334961" stroke-miterlimit="10" stroke-dasharray=""/><path fill="none" stroke="#505050" paint-order="fill stroke markers" d=" M 704.0621185302734 600.0194988250732 C 713.5918609833478 600.0194988250732 726.2981841826678 600.0216293334961 735.8279266357422 600.0216293334961" stroke-miterlimit="10" stroke-dasharray=""/><path fill="none" stroke="#505050" paint-order="fill stroke markers" d=" M 760.8279266357422 588.0216293334961 C 774.6121412958222 588.0216293334961 790.7317584310455 602.252459526062 804.5159730911255 602.252459526062" stroke-miterlimit="10" stroke-dasharray=""/><path fill="none" stroke="#505050" paint-order="fill stroke markers" d=" M 514.5447193086147 641.5505142211914 C 601.9207232395028 641.5505142211914 717.1399691602375 614.252459526062 804.5159730911255 614.252459526062" stroke-miterlimit="10" stroke-dasharray=""/><path fill="none" stroke="#505050" paint-order="fill stroke markers" d=" M 828.5159730911255 602.252459526062 C 842.1834462875629 602.252459526062 831.8058029418683 644.5372495651245 845.4732761383057 644.5372495651245" stroke-miterlimit="10" stroke-dasharray=""/><path fill="none" stroke="#505050" paint-order="fill stroke markers" d=" M 514.5447193086147 641.5505142211914 C 539.5562050079807 641.5505142211914 565.0625804627434 676.8512878417969 590.0740661621094 676.8512878417969" stroke-miterlimit="10" stroke-dasharray=""/><path fill="none" stroke="#505050" paint-order="fill stroke markers" d=" M 649.0740661621094 676.8512878417969 C 667.9382014390502 676.8512878417969 693.08661698136 676.1632080078125 711.9507522583008 676.1632080078125" stroke-miterlimit="10" stroke-dasharray=""/><path fill="none" stroke="#505050" paint-order="fill stroke markers" d=" M 778.9507522583008 676.1632080078125 C 795.7739416028207 676.1632080078125 787.6927837466055 626.252459526062 804.5159730911255 626.252459526062" stroke-miterlimit="10" stroke-dasharray=""/><path fill="none" stroke="#505050" paint-order="fill stroke markers" d=" M 878.4732761383057 666.5372495651245 C 885.2594183258715 666.5372495651245 894.3076078124342 666.53515625 901.09375 666.53515625" stroke-miterlimit="10" stroke-dasharray=""/><path fill="none" stroke="#505050" paint-order="fill stroke markers" d=" M 710.7943449020386 432.4193649291992 C 719.4856713064529 432.4193649291992 726.0338141671799 448.74850940704346 734.7251405715942 448.74850940704346" stroke-miterlimit="10" stroke-dasharray=""/><path fill="none" stroke="#505050" paint-order="fill stroke markers" d=" M 617.1849365234375 472.0657958984375 C 652.610072355343 472.0657958984375 699.3000047396887 460.74850940704346 734.7251405715942 460.74850940704346" stroke-miterlimit="10" stroke-dasharray=""/><path fill="none" stroke="#505050" paint-order="fill stroke markers" d=" M 617.1849365234375 504.0657958984375 C 653.6771614498239 504.0657958984375 698.2329156452079 472.74850940704346 734.7251405715942 472.74850940704346" stroke-miterlimit="10" stroke-dasharray=""/><path fill="none" stroke="#505050" paint-order="fill stroke markers" d=" M 758.7251405715942 448.74850940704346 C 770.4814022299763 448.74850940704346 771.8129007103923 479.05424785614014 783.5691623687744 479.05424785614014" stroke-miterlimit="10" stroke-dasharray=""/><path fill="none" stroke="#505050" paint-order="fill stroke markers" d=" M 559.7503385543823 472.1807098388672 C 561.9809843567828 472.1807098388672 564.9542907210371 472.0657958984375 567.1849365234375 472.0657958984375" stroke-miterlimit="10" stroke-dasharray=""/><path fill="none" stroke="#505050" paint-order="fill stroke markers" d=" M 816.5691623687744 501.05424785614014 C 823.2173794557679 501.05424785614014 832.073289031781 501.66362285614014 838.7215061187744 501.66362285614014" stroke-miterlimit="10" stroke-dasharray=""/></g></g></svg>