<svg version="1.1" xmlns="http://www.w3.org/2000/svg" xmlns:xlink="http://www.w3.org/1999/xlink" width="333.5719909667969" height="178.4977102279663"><defs/><g transform="translate(-737.2087097167969,-300.4814643859863)"><g><path fill="white" stroke="#505050" paint-order="fill stroke markers" d=" M 745.2087097167969 316.4814643859863 L 745.2087097167969 462.97917461395264 Q 745.2087097167969 470.97917461395264 753.2087097167969 470.97917461395264 L 1054.7807006835938 470.97917461395264 Q 1062.7807006835938 470.97917461395264 1062.7807006835938 462.97917461395264 L 1062.7807006835938 316.4814643859863 Q 1062.7807006835938 308.4814643859863 1054.7807006835938 308.4814643859863 L 753.2087097167969 308.4814643859863 Q 745.2087097167969 308.4814643859863 745.2087097167969 316.4814643859863" stroke-miterlimit="10" stroke-width="0.5" stroke-dasharray=""/><path fill="#F0F0F0" stroke="#505050" paint-order="fill stroke markers" d=" M 1012.7807006835938 316.4814643859863 L 1062.7807006835938 316.4814643859863 L 1062.7807006835938 398.4814643859863 L 1012.7807006835938 398.4814643859863 L 1012.7807006835938 316.4814643859863 Z" stroke-miterlimit="10" stroke-width="0.5" stroke-dasharray=""/><path fill="none" stroke="none"/><text fill="#505050" stroke="none" font-family="monospace" font-size="14px" font-style="normal" font-weight="normal" text-decoration="normal" x="1037.7807006835938" y="334.4814643859863" text-anchor="middle" dominant-baseline="text-after-edge">split</text><path fill="none" stroke="#505050" paint-order="fill stroke markers" d=" M 1012.7807006835938 334.4814643859863 L 1028.7807006835938 334.4814643859863 L 1028.7807006835938 362.4814643859863 L 1012.7807006835938 362.4814643859863 L 1012.7807006835938 334.4814643859863 Z" stroke-miterlimit="10" stroke-width="0.5" stroke-dasharray=""/><path fill="none" stroke="none"/><path fill="none" stroke="#505050" paint-order="fill stroke markers" d=" M 1020.7807006835938 338.4814643859863 L 1028.7807006835938 338.4814643859863 L 1028.7807006835938 346.4814643859863 L 1020.7807006835938 346.4814643859863 L 1020.7807006835938 338.4814643859863 Z" stroke-miterlimit="10" stroke-width="0.5" stroke-dasharray=""/><path fill="none" stroke="#505050" paint-order="fill stroke markers" d=" M 1020.7807006835938 350.4814643859863 L 1028.7807006835938 350.4814643859863 L 1028.7807006835938 358.4814643859863 L 1020.7807006835938 358.4814643859863 L 1020.7807006835938 350.4814643859863 Z" stroke-miterlimit="10" stroke-width="0.5" stroke-dasharray=""/><path fill="none" stroke="#505050" paint-order="fill stroke markers" d=" M 1046.7807006835938 334.4814643859863 L 1062.7807006835938 334.4814643859863 L 1062.7807006835938 362.4814643859863 L 1046.7807006835938 362.4814643859863 L 1046.7807006835938 334.4814643859863 Z" stroke-miterlimit="10" stroke-width="0.5" stroke-dasharray=""/><path fill="none" stroke="none"/><path fill="none" stroke="#505050" paint-order="fill stroke markers" d=" M 1054.7807006835938 338.4814643859863 L 1062.7807006835938 338.4814643859863 L 1062.7807006835938 346.4814643859863 L 1054.7807006835938 346.4814643859863 L 1054.7807006835938 338.4814643859863 Z" stroke-miterlimit="10" stroke-width="0.5" stroke-dasharray=""/><path fill="none" stroke="#505050" paint-order="fill stroke markers" d=" M 1054.7807006835938 350.4814643859863 L 1062.7807006835938 350.4814643859863 L 1062.7807006835938 358.4814643859863 L 1054.7807006835938 358.4814643859863 L 1054.7807006835938 350.4814643859863 Z" stroke-miterlimit="10" stroke-width="0.5" stroke-dasharray=""/><path fill="none" stroke="#505050" paint-order="fill stroke markers" d=" M 1046.7807006835938 366.4814643859863 L 1062.7807006835938 366.4814643859863 L 1062.7807006835938 394.4814643859863 L 1046.7807006835938 394.4814643859863 L 1046.7807006835938 366.4814643859863 Z" stroke-miterlimit="10" stroke-width="0.5" stroke-dasharray=""/><path fill="none" stroke="none"/><path fill="none" stroke="#505050" paint-order="fill stroke markers" d=" M 1054.7807006835938 370.4814643859863 L 1062.7807006835938 370.4814643859863 L 1062.7807006835938 378.4814643859863 L 1054.7807006835938 378.4814643859863 L 1054.7807006835938 370.4814643859863 Z" stroke-miterlimit="10" stroke-width="0.5" stroke-dasharray=""/><path fill="none" stroke="#505050" paint-order="fill stroke markers" d=" M 1054.7807006835938 382.4814643859863 L 1062.7807006835938 382.4814643859863 L 1062.7807006835938 390.4814643859863 L 1054.7807006835938 390.4814643859863 L 1054.7807006835938 382.4814643859863 Z" stroke-miterlimit="10" stroke-width="0.5" stroke-dasharray=""/><path fill="none" stroke="#505050" paint-order="fill stroke markers" d=" M 762.079348564148 436.2937345504761 L 754.079348564148 436.2937345504761 M 984.469729423523 343.467791557312 L 992.469729423523 343.467791557312 M 1040.8308744430542 436.97917461395264 L 1048.8308744430542 436.97917461395264" stroke-miterlimit="10" stroke-dasharray=""/><path fill="white" stroke="#505050" paint-order="fill stroke markers" d=" M 888.6206436157227 379.29656982421875 L 937.6206436157227 379.29656982421875 L 937.6206436157227 425.29656982421875 L 888.6206436157227 425.29656982421875 L 888.6206436157227 379.29656982421875 Z" stroke-miterlimit="10" stroke-width="0.5" stroke-dasharray=""/><path fill="#F0F0F0" stroke="none" paint-order="stroke fill markers" d=""/><path fill="none" stroke="none"/><text fill="#505050" stroke="none" font-family="monospace" font-size="14px" font-style="normal" font-weight="normal" text-decoration="normal" x="913.1206436157227" y="397.29656982421875" text-anchor="middle" dominant-baseline="text-after-edge">mid</text><path fill="none" stroke="#505050" paint-order="fill stroke markers" d=" M 888.6206436157227 397.29656982421875 L 896.6206436157227 397.29656982421875 L 896.6206436157227 405.29656982421875 L 888.6206436157227 405.29656982421875 L 888.6206436157227 397.29656982421875 Z" stroke-miterlimit="10" stroke-width="0.5" stroke-dasharray=""/><text fill="#505050" stroke="none" font-family="monospace" font-size="14px" font-style="normal" font-weight="normal" text-decoration="normal" x="904.6206436157227" y="411.29656982421875" text-anchor="start" dominant-baseline="text-after-edge">lo</text><path fill="none" stroke="#505050" paint-order="fill stroke markers" d=" M 888.6206436157227 411.29656982421875 L 896.6206436157227 411.29656982421875 L 896.6206436157227 419.29656982421875 L 888.6206436157227 419.29656982421875 L 888.6206436157227 411.29656982421875 Z" stroke-miterlimit="10" stroke-width="0.5" stroke-dasharray=""/><text fill="#505050" stroke="none" font-family="monospace" font-size="14px" font-style="normal" font-weight="normal" text-decoration="normal" x="904.6206436157227" y="425.29656982421875" text-anchor="start" dominant-baseline="text-after-edge">hi</text><path fill="none" stroke="#505050" paint-order="fill stroke markers" d=" M 929.6206436157227 397.29656982421875 L 937.6206436157227 397.29656982421875 L 937.6206436157227 405.29656982421875 L 929.6206436157227 405.29656982421875 L 929.6206436157227 397.29656982421875 Z" stroke-miterlimit="10" stroke-width="0.5" stroke-dasharray=""/><path fill="white" stroke="#505050" paint-order="fill stroke markers" d=" M 961.559326171875 393.8236999511719 L 986.559326171875 393.8236999511719 L 986.559326171875 423.8236999511719 L 961.559326171875 423.8236999511719 L 961.559326171875 393.8236999511719 Z" stroke-miterlimit="10" stroke-width="0.5" stroke-dasharray=""/><path fill="#F0F0F0" stroke="none" paint-order="stroke fill markers" d=""/><path fill="none" stroke="none"/><text fill="#505050" stroke="none" font-family="monospace" font-size="14px" font-style="normal" font-weight="normal" text-decoration="normal" x="974.059326171875" y="411.8236999511719" text-anchor="middle" dominant-baseline="text-after-edge">+1</text><path fill="none" stroke="#505050" paint-order="fill stroke markers" d=" M 961.559326171875 411.8236999511719 L 969.559326171875 411.8236999511719 L 969.559326171875 419.8236999511719 L 961.559326171875 419.8236999511719 L 961.559326171875 411.8236999511719 Z" stroke-miterlimit="10" stroke-width="0.5" stroke-dasharray=""/><path fill="none" stroke="#505050" paint-order="fill stroke markers" d=" M 978.559326171875 411.8236999511719 L 986.559326171875 411.8236999511719 L 986.559326171875 419.8236999511719 L 978.559326171875 419.8236999511719 L 978.559326171875 411.8236999511719 Z" stroke-miterlimit="10" stroke-width="0.5" stroke-dasharray=""/><path fill="white" stroke="#505050" paint-order="fill stroke markers" d=" M 952.469729423523 325.467791557312 L 984.469729423523 325.467791557312 L 984.469729423523 361.467791557312 L 952.469729423523 361.467791557312 L 952.469729423523 325.467791557312 Z" stroke-miterlimit="10" stroke-width="0.5" stroke-dasharray=""/><path fill="#F0F0F0" stroke="none" paint-order="stroke fill markers" d=" M 968.469729423523 329.467791557312 L 984.469729423523 329.467791557312 L 984.469729423523 357.467791557312 L 968.469729423523 357.467791557312 L 968.469729423523 329.467791557312 Z"/><path fill="none" stroke="none"/><path fill="none" stroke="#505050" paint-order="fill stroke markers" d=" M 952.469729423523 329.467791557312 L 960.469729423523 329.467791557312 L 960.469729423523 337.467791557312 L 952.469729423523 337.467791557312 L 952.469729423523 329.467791557312 Z" stroke-miterlimit="10" stroke-width="0.5" stroke-dasharray=""/><path fill="none" stroke="#505050" paint-order="fill stroke markers" d=" M 952.469729423523 341.467791557312 L 960.469729423523 341.467791557312 L 960.469729423523 349.467791557312 L 952.469729423523 349.467791557312 L 952.469729423523 341.467791557312 Z" stroke-miterlimit="10" stroke-width="0.5" stroke-dasharray=""/><path fill="none" stroke="#505050" paint-order="fill stroke markers" d=" M 968.469729423523 329.467791557312 L 984.469729423523 329.467791557312 L 984.469729423523 357.467791557312 L 968.469729423523 357.467791557312 L 968.469729423523 329.467791557312 Z" stroke-miterlimit="10" stroke-width="0.5" stroke-dasharray=""/><path fill="none" stroke="none"/><path fill="none" stroke="#505050" paint-order="fill stroke markers" d=" M 976.469729423523 333.467791557312 L 984.469729423523 333.467791557312 L 984.469729423523 341.467791557312 L 976.469729423523 341.467791557312 L 976.469729423523 333.467791557312 Z" stroke-miterlimit="10" stroke-width="0.5" stroke-dasharray=""/><path fill="none" stroke="#505050" paint-order="fill stroke markers" d=" M 976.469729423523 345.467791557312 L 984.469729423523 345.467791557312 L 984.469729423523 353.467791557312 L 976.469729423523 353.467791557312 L 976.469729423523 345.467791557312 Z" stroke-miterlimit="10" stroke-width="0.5" stroke-dasharray=""/><path fill="white" stroke="#505050" paint-order="fill stroke markers" d=" M 1008.8308744430542 418.97917461395264 L 1040.8308744430542 418.97917461395264 L 1040.8308744430542 454.97917461395264 L 1008.8308744430542 454.97917461395264 L 1008.8308744430542 418.97917461395264 Z" stroke-miterlimit="10" stroke-width="0.5" stroke-dasharray=""/><path fill="#F0F0F0" stroke="none" paint-order="stroke fill markers" d=" M 1024.8308744430542 422.97917461395264 L 1040.8308744430542 422.97917461395264 L 1040.8308744430542 450.97917461395264 L 1024.8308744430542 450.97917461395264 L 1024.8308744430542 422.97917461395264 Z"/><path fill="none" stroke="none"/><path fill="none" stroke="#505050" paint-order="fill stroke markers" d=" M 1008.8308744430542 422.97917461395264 L 1016.8308744430542 422.97917461395264 L 1016.8308744430542 430.97917461395264 L 1008.8308744430542 430.97917461395264 L 1008.8308744430542 422.97917461395264 Z" stroke-miterlimit="10" stroke-width="0.5" stroke-dasharray=""/><path fill="none" stroke="#505050" paint-order="fill stroke markers" d=" M 1008.8308744430542 434.97917461395264 L 1016.8308744430542 434.97917461395264 L 1016.8308744430542 442.97917461395264 L 1008.8308744430542 442.97917461395264 L 1008.8308744430542 434.97917461395264 Z" stroke-miterlimit="10" stroke-width="0.5" stroke-dasharray=""/><path fill="none" stroke="#505050" paint-order="fill stroke markers" d=" M 1024.8308744430542 422.97917461395264 L 1040.8308744430542 422.97917461395264 L 1040.8308744430542 450.97917461395264 L 1024.8308744430542 450.97917461395264 L 1024.8308744430542 422.97917461395264 Z" stroke-miterlimit="10" stroke-width="0.5" stroke-dasharray=""/><path fill="none" stroke="none"/><path fill="none" stroke="#505050" paint-order="fill stroke markers" d=" M 1032.8308744430542 426.97917461395264 L 1040.8308744430542 426.97917461395264 L 1040.8308744430542 434.97917461395264 L 1032.8308744430542 434.97917461395264 L 1032.8308744430542 426.97917461395264 Z" stroke-miterlimit="10" stroke-width="0.5" stroke-dasharray=""/><path fill="none" stroke="#505050" paint-order="fill stroke markers" d=" M 1032.8308744430542 438.97917461395264 L 1040.8308744430542 438.97917461395264 L 1040.8308744430542 446.97917461395264 L 1032.8308744430542 446.97917461395264 L 1032.8308744430542 438.97917461395264 Z" stroke-miterlimit="10" stroke-width="0.5" stroke-dasharray=""/><path fill="white" stroke="#505050" paint-order="fill stroke markers" d=" M 762.079348564148 418.2937345504761 L 794.079348564148 418.2937345504761 L 794.079348564148 454.2937345504761 L 762.079348564148 454.2937345504761 L 762.079348564148 418.2937345504761 Z" stroke-miterlimit="10" stroke-width="0.5" stroke-dasharray=""/><path fill="#F0F0F0" stroke="none" paint-order="stroke fill markers" d=""/><path fill="none" stroke="none"/><path fill="none" stroke="#505050" paint-order="fill stroke markers" d=" M 762.079348564148 422.2937345504761 L 778.079348564148 422.2937345504761 L 778.079348564148 450.2937345504761 L 762.079348564148 450.2937345504761 L 762.079348564148 422.2937345504761 Z" stroke-miterlimit="10" stroke-width="0.5" stroke-dasharray=""/><path fill="none" stroke="none"/><path fill="none" stroke="#505050" paint-order="fill stroke markers" d=" M 770.079348564148 426.2937345504761 L 778.079348564148 426.2937345504761 L 778.079348564148 434.2937345504761 L 770.079348564148 434.2937345504761 L 770.079348564148 426.2937345504761 Z" stroke-miterlimit="10" stroke-width="0.5" stroke-dasharray=""/><path fill="none" stroke="#505050" paint-order="fill stroke markers" d=" M 770.079348564148 438.2937345504761 L 778.079348564148 438.2937345504761 L 778.079348564148 446.2937345504761 L 770.079348564148 446.2937345504761 L 770.079348564148 438.2937345504761 Z" stroke-miterlimit="10" stroke-width="0.5" stroke-dasharray=""/><path fill="none" stroke="#505050" paint-order="fill stroke markers" d=" M 786.079348564148 422.2937345504761 L 794.079348564148 422.2937345504761 L 794.079348564148 430.2937345504761 L 786.079348564148 430.2937345504761 L 786.079348564148 422.2937345504761 Z" stroke-miterlimit="10" stroke-width="0.5" stroke-dasharray=""/><path fill="none" stroke="#505050" paint-order="fill stroke markers" d=" M 786.079348564148 434.2937345504761 L 794.079348564148 434.2937345504761 L 794.079348564148 442.2937345504761 L 786.079348564148 442.2937345504761 L 786.079348564148 434.2937345504761 Z" stroke-miterlimit="10" stroke-width="0.5" stroke-dasharray=""/><path fill="none" stroke="#505050" paint-order="fill stroke markers" d=" M 794.079348564148 426.2937345504761 C 849.1554337529241 426.2937345504761 897.3936442347468 333.467791557312 952.469729423523 333.467791557312" stroke-miterlimit="10" stroke-dasharray=""/><path fill="none" stroke="#505050" paint-order="fill stroke markers" d=" M 986.559326171875 415.8236999511719 C 994.0320755294587 415.8236999511719 1001.3581250854705 426.97917461395264 1008.8308744430542 426.97917461395264" stroke-miterlimit="10" stroke-dasharray=""/><path fill="none" stroke="#505050" paint-order="fill stroke markers" d=" M 794.079348564148 438.2937345504761 C 858.5051344932767 438.2937345504761 944.4050885139254 438.97917461395264 1008.8308744430542 438.97917461395264" stroke-miterlimit="10" stroke-dasharray=""/><path fill="none" stroke="#505050" paint-order="fill stroke markers" d=" M 794.079348564148 426.2937345504761 C 823.4163955234833 426.2937345504761 859.2835966563873 401.29656982421875 888.6206436157227 401.29656982421875" stroke-miterlimit="10" stroke-dasharray=""/><path fill="none" stroke="#505050" paint-order="fill stroke markers" d=" M 794.079348564148 438.2937345504761 C 823.2687874931989 438.2937345504761 859.4312046866717 415.29656982421875 888.6206436157227 415.29656982421875" stroke-miterlimit="10" stroke-dasharray=""/><path fill="none" stroke="#505050" paint-order="fill stroke markers" d=" M 937.6206436157227 401.29656982421875 C 954.9515785267208 401.29656982421875 935.1387945125248 345.467791557312 952.469729423523 345.467791557312" stroke-miterlimit="10" stroke-dasharray=""/><path fill="none" stroke="#505050" paint-order="fill stroke markers" d=" M 937.6206436157227 401.29656982421875 C 946.0211687720727 401.29656982421875 953.158801015525 415.8236999511719 961.559326171875 415.8236999511719" stroke-miterlimit="10" stroke-dasharray=""/></g></g></svg>