<svg version="1.1" xmlns="http://www.w3.org/2000/svg" xmlns:xlink="http://www.w3.org/1999/xlink" width="859.8157670497894" height="370.73126220703125"><defs/><g transform="translate(-307.83437943458557,-30.59686279296875)"><g><path fill="white" stroke="#505050" paint-order="fill stroke markers" d=" M 541.984399408102 39.59686279296875 L 541.984399408102 369.96875 Q 541.984399408102 377.96875 549.984399408102 377.96875 L 915.8742430210114 377.96875 Q 923.8742430210114 377.96875 923.8742430210114 369.96875 L 923.8742430210114 39.59686279296875 Q 923.8742430210114 31.59686279296875 915.8742430210114 31.59686279296875 L 549.984399408102 31.59686279296875 Q 541.984399408102 31.59686279296875 541.984399408102 39.59686279296875" stroke-miterlimit="10" stroke-width="0.5" stroke-dasharray=""/><path fill="#F0F0F0" stroke="#505050" paint-order="fill stroke markers" d=" M 856.8742430210114 39.59686279296875 L 923.8742430210114 39.59686279296875 L 923.8742430210114 131.59686279296875 L 856.8742430210114 131.59686279296875 L 856.8742430210114 39.59686279296875 Z" stroke-miterlimit="10" stroke-width="0.5" stroke-dasharray=""/><text fill="#505050" stroke="none" font-family="monospace" font-size="14px" font-style="normal" font-weight="normal" text-decoration="normal" x="890.3742430210114" y="57.59686279296875" text-anchor="middle" dominant-baseline="text-after-edge">expStep</text><path fill="none" stroke="#505050" paint-order="fill stroke markers" d=" M 856.8742430210114 58.59686279296875 L 864.8742430210114 58.59686279296875 L 864.8742430210114 66.59686279296875 L 856.8742430210114 66.59686279296875 L 856.8742430210114 58.59686279296875 Z" stroke-miterlimit="10" stroke-width="0.5" stroke-dasharray=""/><text fill="#505050" stroke="none" font-family="monospace" font-size="14px" font-style="normal" font-weight="normal" text-decoration="normal" x="872.8742430210114" y="71.59686279296875" text-anchor="start" dominant-baseline="text-after-edge">n</text><path fill="none" stroke="#505050" paint-order="fill stroke markers" d=" M 856.8742430210114 72.59686279296875 L 864.8742430210114 72.59686279296875 L 864.8742430210114 80.59686279296875 L 856.8742430210114 80.59686279296875 L 856.8742430210114 72.59686279296875 Z" stroke-miterlimit="10" stroke-width="0.5" stroke-dasharray=""/><text fill="#505050" stroke="none" font-family="monospace" font-size="14px" font-style="normal" font-weight="normal" text-decoration="normal" x="872.8742430210114" y="85.59686279296875" text-anchor="start" dominant-baseline="text-after-edge">x</text><path fill="none" stroke="#505050" paint-order="fill stroke markers" d=" M 856.8742430210114 86.59686279296875 L 864.8742430210114 86.59686279296875 L 864.8742430210114 94.59686279296875 L 856.8742430210114 94.59686279296875 L 856.8742430210114 86.59686279296875 Z" stroke-miterlimit="10" stroke-width="0.5" stroke-dasharray=""/><text fill="#505050" stroke="none" font-family="monospace" font-size="14px" font-style="normal" font-weight="normal" text-decoration="normal" x="872.8742430210114" y="99.59686279296875" text-anchor="start" dominant-baseline="text-after-edge">y</text><path fill="none" stroke="#505050" paint-order="fill stroke markers" d=" M 856.8742430210114 99.59686279296875 L 880.8742430210114 99.59686279296875 L 880.8742430210114 127.59686279296875 L 856.8742430210114 127.59686279296875 L 856.8742430210114 99.59686279296875 Z" stroke-miterlimit="10" stroke-width="0.5" stroke-dasharray=""/><path fill="none" stroke="#505050" paint-order="fill stroke markers" d=" M 856.8742430210114 103.59686279296875 L 864.8742430210114 103.59686279296875 L 864.8742430210114 111.59686279296875 L 856.8742430210114 111.59686279296875 L 856.8742430210114 103.59686279296875 Z" stroke-miterlimit="10" stroke-width="0.5" stroke-dasharray=""/><path fill="none" stroke="#505050" paint-order="fill stroke markers" d=" M 856.8742430210114 115.59686279296875 L 864.8742430210114 115.59686279296875 L 864.8742430210114 123.59686279296875 L 856.8742430210114 123.59686279296875 L 856.8742430210114 115.59686279296875 Z" stroke-miterlimit="10" stroke-width="0.5" stroke-dasharray=""/><path fill="none" stroke="#505050" paint-order="fill stroke markers" d=" M 872.8742430210114 103.59686279296875 L 880.8742430210114 103.59686279296875 L 880.8742430210114 111.59686279296875 L 872.8742430210114 111.59686279296875 L 872.8742430210114 103.59686279296875 Z" stroke-miterlimit="10" stroke-width="0.5" stroke-dasharray=""/><text fill="#505050" stroke="none" font-family="monospace" font-size="14px" font-style="normal" font-weight="normal" text-decoration="normal" x="888.8742430210114" y="122.59686279296875" text-anchor="start" dominant-baseline="text-after-edge">*</text><path fill="none" stroke="#505050" paint-order="fill stroke markers" d=" M 915.8742430210114 57.59686279296875 L 923.8742430210114 57.59686279296875 L 923.8742430210114 65.59686279296875 L 915.8742430210114 65.59686279296875 L 915.8742430210114 57.59686279296875 Z" stroke-miterlimit="10" stroke-width="0.5" stroke-dasharray=""/><path fill="white" stroke="#505050" paint-order="fill stroke markers" d=" M 619.4813247621059 103.08438491821289 L 643.4813247621059 103.08438491821289 L 643.4813247621059 145.0843849182129 L 619.4813247621059 145.0843849182129 L 619.4813247621059 103.08438491821289 Z" stroke-miterlimit="10" stroke-width="0.5" stroke-dasharray=""/><path fill="#F0F0F0" stroke="none" paint-order="stroke fill markers" d=""/><text fill="#505050" stroke="none" font-family="monospace" font-size="14px" font-style="normal" font-weight="normal" text-decoration="normal" x="631.4813247621059" y="121.08438491821289" text-anchor="middle" dominant-baseline="text-after-edge">/</text><path fill="none" stroke="#505050" paint-order="fill stroke markers" d=" M 619.4813247621059 121.08438491821289 L 627.4813247621059 121.08438491821289 L 627.4813247621059 129.0843849182129 L 619.4813247621059 129.0843849182129 L 619.4813247621059 121.08438491821289 Z" stroke-miterlimit="10" stroke-width="0.5" stroke-dasharray=""/><path fill="none" stroke="#505050" paint-order="fill stroke markers" d=" M 619.4813247621059 133.0843849182129 L 627.4813247621059 133.0843849182129 L 627.4813247621059 141.0843849182129 L 619.4813247621059 141.0843849182129 L 619.4813247621059 133.0843849182129 Z" stroke-miterlimit="10" stroke-width="0.5" stroke-dasharray=""/><path fill="none" stroke="#505050" paint-order="fill stroke markers" d=" M 635.4813247621059 121.08438491821289 L 643.4813247621059 121.08438491821289 L 643.4813247621059 129.0843849182129 L 635.4813247621059 129.0843849182129 L 635.4813247621059 121.08438491821289 Z" stroke-miterlimit="10" stroke-width="0.5" stroke-dasharray=""/><path fill="white" stroke="#505050" paint-order="fill stroke markers" d=" M 557.0219837129116 167.0124969482422 L 589.0219837129116 167.0124969482422 L 589.0219837129116 185.0124969482422 L 557.0219837129116 185.0124969482422 L 557.0219837129116 167.0124969482422 Z" stroke-miterlimit="10" stroke-width="0.5" stroke-dasharray=""/><path fill="#F0F0F0" stroke="none" paint-order="stroke fill markers" d=""/><path fill="none" stroke="#505050" paint-order="fill stroke markers" d=" M 581.0219837129116 172.0124969482422 L 589.0219837129116 172.0124969482422 L 589.0219837129116 180.0124969482422 L 581.0219837129116 180.0124969482422 L 581.0219837129116 172.0124969482422 Z" stroke-miterlimit="10" stroke-width="0.5" stroke-dasharray=""/><text fill="#505050" stroke="none" font-family="monospace" font-size="14px" font-style="normal" font-weight="normal" text-decoration="normal" x="573.0219837129116" y="185.0124969482422" text-anchor="end" dominant-baseline="text-after-edge">2</text><path fill="white" stroke="#505050" paint-order="fill stroke markers" d=" M 556.7844844758511 53.63438415527344 L 588.7844844758511 53.63438415527344 L 588.7844844758511 71.63438415527344 L 556.7844844758511 71.63438415527344 L 564.7844844758511 62.63438415527344 L 556.7844844758511 53.63438415527344" stroke-miterlimit="10" stroke-width="0.5" stroke-dasharray=""/><path fill="none" stroke="#505050" paint-order="fill stroke markers" d=" M 580.7844844758511 58.63438415527344 L 588.7844844758511 58.63438415527344 L 588.7844844758511 66.63438415527344 L 580.7844844758511 66.63438415527344 L 580.7844844758511 58.63438415527344 Z" stroke-miterlimit="10" stroke-width="0.5" stroke-dasharray=""/><text fill="#505050" stroke="none" font-family="monospace" font-size="14px" font-style="normal" font-weight="normal" text-decoration="normal" x="572.7844844758511" y="71.63438415527344" text-anchor="end" dominant-baseline="text-after-edge">n</text><path fill="white" stroke="#505050" paint-order="fill stroke markers" d=" M 562.2969604432583 230.79376220703125 L 594.2969604432583 230.79376220703125 L 594.2969604432583 248.79376220703125 L 562.2969604432583 248.79376220703125 L 570.2969604432583 239.79376220703125 L 562.2969604432583 230.79376220703125" stroke-miterlimit="10" stroke-width="0.5" stroke-dasharray=""/><path fill="none" stroke="#505050" paint-order="fill stroke markers" d=" M 586.2969604432583 235.79376220703125 L 594.2969604432583 235.79376220703125 L 594.2969604432583 243.79376220703125 L 586.2969604432583 243.79376220703125 L 586.2969604432583 235.79376220703125 Z" stroke-miterlimit="10" stroke-width="0.5" stroke-dasharray=""/><text fill="#505050" stroke="none" font-family="monospace" font-size="14px" font-style="normal" font-weight="normal" text-decoration="normal" x="578.2969604432583" y="248.79376220703125" text-anchor="end" dominant-baseline="text-after-edge">x</text><path fill="white" stroke="#505050" paint-order="fill stroke markers" d=" M 563.1719909608364 256.2344055175781 L 595.1719909608364 256.2344055175781 L 595.1719909608364 274.2344055175781 L 563.1719909608364 274.2344055175781 L 571.1719909608364 265.2344055175781 L 563.1719909608364 256.2344055175781" stroke-miterlimit="10" stroke-width="0.5" stroke-dasharray=""/><path fill="none" stroke="#505050" paint-order="fill stroke markers" d=" M 587.1719909608364 261.2344055175781 L 595.1719909608364 261.2344055175781 L 595.1719909608364 269.2344055175781 L 587.1719909608364 269.2344055175781 L 587.1719909608364 261.2344055175781 Z" stroke-miterlimit="10" stroke-width="0.5" stroke-dasharray=""/><text fill="#505050" stroke="none" font-family="monospace" font-size="14px" font-style="normal" font-weight="normal" text-decoration="normal" x="579.1719909608364" y="274.2344055175781" text-anchor="end" dominant-baseline="text-after-edge">y</text><path fill="white" stroke="#505050" paint-order="fill stroke markers" d=" M 852.9117186069489 138.21448278427124 L 860.9117186069489 138.21448278427124 L 868.9117186069489 146.21448278427124 L 860.9117186069489 154.21448278427124 L 852.9117186069489 154.21448278427124 L 852.9117186069489 138.21448278427124" stroke-miterlimit="10" stroke-width="0.5" stroke-dasharray=""/><path fill="none" stroke="#505050" paint-order="fill stroke markers" d=" M 852.9117186069489 142.21448278427124 L 860.9117186069489 142.21448278427124 L 860.9117186069489 150.21448278427124 L 852.9117186069489 150.21448278427124 L 852.9117186069489 142.21448278427124 Z" stroke-miterlimit="10" stroke-width="0.5" stroke-dasharray=""/><path fill="white" stroke="#505050" paint-order="fill stroke markers" d=" M 711.4656736850739 131.9843306541443 L 778.4656736850739 131.9843306541443 L 778.4656736850739 223.9843306541443 L 711.4656736850739 223.9843306541443 L 711.4656736850739 131.9843306541443 Z" stroke-miterlimit="10" stroke-width="0.5" stroke-dasharray=""/><path fill="#F0F0F0" stroke="none" paint-order="stroke fill markers" d=""/><text fill="#505050" stroke="none" font-family="monospace" font-size="14px" font-style="normal" font-weight="normal" text-decoration="normal" x="744.9656736850739" y="149.9843306541443" text-anchor="middle" dominant-baseline="text-after-edge">expStep</text><path fill="none" stroke="#505050" paint-order="fill stroke markers" d=" M 711.4656736850739 150.9843306541443 L 719.4656736850739 150.9843306541443 L 719.4656736850739 158.9843306541443 L 711.4656736850739 158.9843306541443 L 711.4656736850739 150.9843306541443 Z" stroke-miterlimit="10" stroke-width="0.5" stroke-dasharray=""/><text fill="#505050" stroke="none" font-family="monospace" font-size="14px" font-style="normal" font-weight="normal" text-decoration="normal" x="727.4656736850739" y="163.9843306541443" text-anchor="start" dominant-baseline="text-after-edge">n</text><path fill="none" stroke="#505050" paint-order="fill stroke markers" d=" M 711.4656736850739 164.9843306541443 L 719.4656736850739 164.9843306541443 L 719.4656736850739 172.9843306541443 L 711.4656736850739 172.9843306541443 L 711.4656736850739 164.9843306541443 Z" stroke-miterlimit="10" stroke-width="0.5" stroke-dasharray=""/><text fill="#505050" stroke="none" font-family="monospace" font-size="14px" font-style="normal" font-weight="normal" text-decoration="normal" x="727.4656736850739" y="177.9843306541443" text-anchor="start" dominant-baseline="text-after-edge">x</text><path fill="none" stroke="#505050" paint-order="fill stroke markers" d=" M 711.4656736850739 178.9843306541443 L 719.4656736850739 178.9843306541443 L 719.4656736850739 186.9843306541443 L 711.4656736850739 186.9843306541443 L 711.4656736850739 178.9843306541443 Z" stroke-miterlimit="10" stroke-width="0.5" stroke-dasharray=""/><text fill="#505050" stroke="none" font-family="monospace" font-size="14px" font-style="normal" font-weight="normal" text-decoration="normal" x="727.4656736850739" y="191.9843306541443" text-anchor="start" dominant-baseline="text-after-edge">y</text><path fill="none" stroke="#505050" paint-order="fill stroke markers" d=" M 711.4656736850739 191.9843306541443 L 735.4656736850739 191.9843306541443 L 735.4656736850739 219.9843306541443 L 711.4656736850739 219.9843306541443 L 711.4656736850739 191.9843306541443 Z" stroke-miterlimit="10" stroke-width="0.5" stroke-dasharray=""/><path fill="none" stroke="#505050" paint-order="fill stroke markers" d=" M 711.4656736850739 195.9843306541443 L 719.4656736850739 195.9843306541443 L 719.4656736850739 203.9843306541443 L 711.4656736850739 203.9843306541443 L 711.4656736850739 195.9843306541443 Z" stroke-miterlimit="10" stroke-width="0.5" stroke-dasharray=""/><path fill="none" stroke="#505050" paint-order="fill stroke markers" d=" M 711.4656736850739 207.9843306541443 L 719.4656736850739 207.9843306541443 L 719.4656736850739 215.9843306541443 L 711.4656736850739 215.9843306541443 L 711.4656736850739 207.9843306541443 Z" stroke-miterlimit="10" stroke-width="0.5" stroke-dasharray=""/><path fill="none" stroke="#505050" paint-order="fill stroke markers" d=" M 727.4656736850739 195.9843306541443 L 735.4656736850739 195.9843306541443 L 735.4656736850739 203.9843306541443 L 727.4656736850739 203.9843306541443 L 727.4656736850739 195.9843306541443 Z" stroke-miterlimit="10" stroke-width="0.5" stroke-dasharray=""/><text fill="#505050" stroke="none" font-family="monospace" font-size="14px" font-style="normal" font-weight="normal" text-decoration="normal" x="743.4656736850739" y="214.9843306541443" text-anchor="start" dominant-baseline="text-after-edge">*</text><path fill="none" stroke="#505050" paint-order="fill stroke markers" d=" M 770.4656736850739 149.9843306541443 L 778.4656736850739 149.9843306541443 L 778.4656736850739 157.9843306541443 L 770.4656736850739 157.9843306541443 L 770.4656736850739 149.9843306541443 Z" stroke-miterlimit="10" stroke-width="0.5" stroke-dasharray=""/><path fill="#e0e0e0" stroke="none" paint-order="stroke fill markers" d=" M 931.8742430210114 85.59686279296875 L 923.8742430210114 39.59686279296875 L 923.8742430210114 131.59686279296875 Z M 703.4656736850739 177.9843306541443 L 711.4656736850739 131.9843306541443 L 711.4656736850739 223.9843306541443 Z"/><path fill="none" stroke="none"/><path fill="none" stroke="#e0e0e0" paint-order="fill stroke markers" d=" M 931.8742430210114 85.59686279296875 C 1005.7899564299345 85.59686279296875 629.5499602761507 177.9843306541443 703.4656736850739 177.9843306541443" stroke-miterlimit="10" stroke-width="2" stroke-dasharray=""/><path fill="white" stroke="#505050" paint-order="fill stroke markers" d=" M 742.2563230991364 235.8687605857849 L 809.2563230991364 235.8687605857849 L 809.2563230991364 327.8687605857849 L 742.2563230991364 327.8687605857849 L 742.2563230991364 235.8687605857849 Z" stroke-miterlimit="10" stroke-width="0.5" stroke-dasharray=""/><path fill="#F0F0F0" stroke="none" paint-order="stroke fill markers" d=""/><text fill="#505050" stroke="none" font-family="monospace" font-size="14px" font-style="normal" font-weight="normal" text-decoration="normal" x="775.7563230991364" y="253.8687605857849" text-anchor="middle" dominant-baseline="text-after-edge">expStep</text><path fill="none" stroke="#505050" paint-order="fill stroke markers" d=" M 742.2563230991364 254.8687605857849 L 750.2563230991364 254.8687605857849 L 750.2563230991364 262.8687605857849 L 742.2563230991364 262.8687605857849 L 742.2563230991364 254.8687605857849 Z" stroke-miterlimit="10" stroke-width="0.5" stroke-dasharray=""/><text fill="#505050" stroke="none" font-family="monospace" font-size="14px" font-style="normal" font-weight="normal" text-decoration="normal" x="758.2563230991364" y="267.8687605857849" text-anchor="start" dominant-baseline="text-after-edge">n</text><path fill="none" stroke="#505050" paint-order="fill stroke markers" d=" M 742.2563230991364 268.8687605857849 L 750.2563230991364 268.8687605857849 L 750.2563230991364 276.8687605857849 L 742.2563230991364 276.8687605857849 L 742.2563230991364 268.8687605857849 Z" stroke-miterlimit="10" stroke-width="0.5" stroke-dasharray=""/><text fill="#505050" stroke="none" font-family="monospace" font-size="14px" font-style="normal" font-weight="normal" text-decoration="normal" x="758.2563230991364" y="281.8687605857849" text-anchor="start" dominant-baseline="text-after-edge">x</text><path fill="none" stroke="#505050" paint-order="fill stroke markers" d=" M 742.2563230991364 282.8687605857849 L 750.2563230991364 282.8687605857849 L 750.2563230991364 290.8687605857849 L 742.2563230991364 290.8687605857849 L 742.2563230991364 282.8687605857849 Z" stroke-miterlimit="10" stroke-width="0.5" stroke-dasharray=""/><text fill="#505050" stroke="none" font-family="monospace" font-size="14px" font-style="normal" font-weight="normal" text-decoration="normal" x="758.2563230991364" y="295.8687605857849" text-anchor="start" dominant-baseline="text-after-edge">y</text><path fill="none" stroke="#505050" paint-order="fill stroke markers" d=" M 742.2563230991364 295.8687605857849 L 766.2563230991364 295.8687605857849 L 766.2563230991364 323.8687605857849 L 742.2563230991364 323.8687605857849 L 742.2563230991364 295.8687605857849 Z" stroke-miterlimit="10" stroke-width="0.5" stroke-dasharray=""/><path fill="none" stroke="#505050" paint-order="fill stroke markers" d=" M 742.2563230991364 299.8687605857849 L 750.2563230991364 299.8687605857849 L 750.2563230991364 307.8687605857849 L 742.2563230991364 307.8687605857849 L 742.2563230991364 299.8687605857849 Z" stroke-miterlimit="10" stroke-width="0.5" stroke-dasharray=""/><path fill="none" stroke="#505050" paint-order="fill stroke markers" d=" M 742.2563230991364 311.8687605857849 L 750.2563230991364 311.8687605857849 L 750.2563230991364 319.8687605857849 L 742.2563230991364 319.8687605857849 L 742.2563230991364 311.8687605857849 Z" stroke-miterlimit="10" stroke-width="0.5" stroke-dasharray=""/><path fill="none" stroke="#505050" paint-order="fill stroke markers" d=" M 758.2563230991364 299.8687605857849 L 766.2563230991364 299.8687605857849 L 766.2563230991364 307.8687605857849 L 758.2563230991364 307.8687605857849 L 758.2563230991364 299.8687605857849 Z" stroke-miterlimit="10" stroke-width="0.5" stroke-dasharray=""/><text fill="#505050" stroke="none" font-family="monospace" font-size="14px" font-style="normal" font-weight="normal" text-decoration="normal" x="774.2563230991364" y="318.8687605857849" text-anchor="start" dominant-baseline="text-after-edge">*</text><path fill="none" stroke="#505050" paint-order="fill stroke markers" d=" M 801.2563230991364 253.8687605857849 L 809.2563230991364 253.8687605857849 L 809.2563230991364 261.8687605857849 L 801.2563230991364 261.8687605857849 L 801.2563230991364 253.8687605857849 Z" stroke-miterlimit="10" stroke-width="0.5" stroke-dasharray=""/><path fill="#e0e0e0" stroke="none" paint-order="stroke fill markers" d=" M 931.8742430210114 85.59686279296875 L 923.8742430210114 39.59686279296875 L 923.8742430210114 131.59686279296875 Z M 734.2563230991364 281.8687605857849 L 742.2563230991364 235.8687605857849 L 742.2563230991364 327.8687605857849 Z"/><path fill="none" stroke="none"/><path fill="none" stroke="#e0e0e0" paint-order="fill stroke markers" d=" M 931.8742430210114 85.59686279296875 C 1015.4313792355191 85.59686279296875 650.6991868846286 281.8687605857849 734.2563230991364 281.8687605857849" stroke-miterlimit="10" stroke-width="2" stroke-dasharray=""/><path fill="white" stroke="#505050" paint-order="fill stroke markers" d=" M 684.3001081943512 52.64060735702515 L 726.3001081943512 52.64060735702515 L 726.3001081943512 82.64060735702515 L 684.3001081943512 82.64060735702515 L 684.3001081943512 52.64060735702515 Z" stroke-miterlimit="10" stroke-width="0.5" stroke-dasharray=""/><path fill="#F0F0F0" stroke="none" paint-order="stroke fill markers" d=""/><text fill="#505050" stroke="none" font-family="monospace" font-size="14px" font-style="normal" font-weight="normal" text-decoration="normal" x="705.3001081943512" y="70.64060735702515" text-anchor="middle" dominant-baseline="text-after-edge">== 0</text><path fill="none" stroke="#505050" paint-order="fill stroke markers" d=" M 684.3001081943512 70.64060735702515 L 692.3001081943512 70.64060735702515 L 692.3001081943512 78.64060735702515 L 684.3001081943512 78.64060735702515 L 684.3001081943512 70.64060735702515 Z" stroke-miterlimit="10" stroke-width="0.5" stroke-dasharray=""/><path fill="none" stroke="#505050" paint-order="fill stroke markers" d=" M 718.3001081943512 70.64060735702515 L 726.3001081943512 70.64060735702515 L 726.3001081943512 78.64060735702515 L 718.3001081943512 78.64060735702515 L 718.3001081943512 70.64060735702515 Z" stroke-miterlimit="10" stroke-width="0.5" stroke-dasharray=""/><path fill="white" stroke="#505050" paint-order="fill stroke markers" d=" M 812.7482359409332 98.54317235946655 L 836.7482359409332 98.54317235946655 L 836.7482359409332 176.54317235946655 L 812.7482359409332 176.54317235946655 L 812.7482359409332 98.54317235946655 Z" stroke-miterlimit="10" stroke-width="0.5" stroke-dasharray=""/><path fill="#F0F0F0" stroke="none" paint-order="stroke fill markers" d=""/><text fill="#505050" stroke="none" font-family="monospace" font-size="14px" font-style="normal" font-weight="normal" text-decoration="normal" x="824.7482359409332" y="116.54317235946655" text-anchor="middle" dominant-baseline="text-after-edge">?</text><path fill="none" stroke="#505050" paint-order="fill stroke markers" d=" M 812.7482359409332 116.54317235946655 L 820.7482359409332 116.54317235946655 L 820.7482359409332 124.54317235946655 L 812.7482359409332 124.54317235946655 L 812.7482359409332 116.54317235946655 Z" stroke-miterlimit="10" stroke-width="0.5" stroke-dasharray=""/><path fill="none" stroke="#505050" paint-order="fill stroke markers" d=" M 812.7482359409332 128.54317235946655 L 820.7482359409332 128.54317235946655 L 820.7482359409332 136.54317235946655 L 812.7482359409332 136.54317235946655 L 812.7482359409332 128.54317235946655 Z" stroke-miterlimit="10" stroke-width="0.5" stroke-dasharray=""/><path fill="none" stroke="#505050" paint-order="fill stroke markers" d=" M 812.7482359409332 140.54317235946655 L 820.7482359409332 140.54317235946655 L 820.7482359409332 148.54317235946655 L 812.7482359409332 148.54317235946655 L 812.7482359409332 140.54317235946655 Z" stroke-miterlimit="10" stroke-width="0.5" stroke-dasharray=""/><path fill="none" stroke="#505050" paint-order="fill stroke markers" d=" M 812.7482359409332 152.54317235946655 L 820.7482359409332 152.54317235946655 L 820.7482359409332 160.54317235946655 L 812.7482359409332 160.54317235946655 L 812.7482359409332 152.54317235946655 Z" stroke-miterlimit="10" stroke-width="0.5" stroke-dasharray=""/><path fill="none" stroke="#505050" paint-order="fill stroke markers" d=" M 812.7482359409332 164.54317235946655 L 820.7482359409332 164.54317235946655 L 820.7482359409332 172.54317235946655 L 812.7482359409332 172.54317235946655 L 812.7482359409332 164.54317235946655 Z" stroke-miterlimit="10" stroke-width="0.5" stroke-dasharray=""/><path fill="none" stroke="#505050" paint-order="fill stroke markers" d=" M 828.7482359409332 116.54317235946655 L 836.7482359409332 116.54317235946655 L 836.7482359409332 124.54317235946655 L 828.7482359409332 124.54317235946655 L 828.7482359409332 116.54317235946655 Z" stroke-miterlimit="10" stroke-width="0.5" stroke-dasharray=""/><path fill="white" stroke="#505050" paint-order="fill stroke markers" d=" M 684.1999800205231 91.92500066757202 L 726.1999800205231 91.92500066757202 L 726.1999800205231 121.92500066757202 L 684.1999800205231 121.92500066757202 L 684.1999800205231 91.92500066757202 Z" stroke-miterlimit="10" stroke-width="0.5" stroke-dasharray=""/><path fill="#F0F0F0" stroke="none" paint-order="stroke fill markers" d=""/><text fill="#505050" stroke="none" font-family="monospace" font-size="14px" font-style="normal" font-weight="normal" text-decoration="normal" x="705.1999800205231" y="109.92500066757202" text-anchor="middle" dominant-baseline="text-after-edge">even</text><path fill="none" stroke="#505050" paint-order="fill stroke markers" d=" M 684.1999800205231 109.92500066757202 L 692.1999800205231 109.92500066757202 L 692.1999800205231 117.92500066757202 L 684.1999800205231 117.92500066757202 L 684.1999800205231 109.92500066757202 Z" stroke-miterlimit="10" stroke-width="0.5" stroke-dasharray=""/><path fill="none" stroke="#505050" paint-order="fill stroke markers" d=" M 718.1999800205231 109.92500066757202 L 726.1999800205231 109.92500066757202 L 726.1999800205231 117.92500066757202 L 718.1999800205231 117.92500066757202 L 718.1999800205231 109.92500066757202 Z" stroke-miterlimit="10" stroke-width="0.5" stroke-dasharray=""/><path fill="none" stroke="none"/><path fill="white" stroke="#505050" paint-order="fill stroke markers" d=" M 560.4687728881836 304.1687698364258 L 600.4687728881836 304.1687698364258 L 600.4687728881836 354.1687698364258 L 560.4687728881836 354.1687698364258 L 568.4687728881836 329.1687698364258 L 560.4687728881836 304.1687698364258" stroke-miterlimit="10" stroke-width="0.5" stroke-dasharray=""/><path fill="#F0F0F0" stroke="none" paint-order="stroke fill markers" d=" M 576.4687728881836 308.1687698364258 L 600.4687728881836 308.1687698364258 L 600.4687728881836 350.1687698364258 L 576.4687728881836 350.1687698364258 L 576.4687728881836 308.1687698364258 Z"/><path fill="none" stroke="#505050" paint-order="fill stroke markers" d=" M 576.4687728881836 308.1687698364258 L 600.4687728881836 308.1687698364258 L 600.4687728881836 350.1687698364258 L 576.4687728881836 350.1687698364258 L 576.4687728881836 308.1687698364258 Z" stroke-miterlimit="10" stroke-width="0.5" stroke-dasharray=""/><text fill="#505050" stroke="none" font-family="monospace" font-size="14px" font-style="normal" font-weight="normal" text-decoration="normal" x="588.4687728881836" y="326.1687698364258" text-anchor="middle" dominant-baseline="text-after-edge">*</text><path fill="none" stroke="#505050" paint-order="fill stroke markers" d=" M 576.4687728881836 326.1687698364258 L 584.4687728881836 326.1687698364258 L 584.4687728881836 334.1687698364258 L 576.4687728881836 334.1687698364258 L 576.4687728881836 326.1687698364258 Z" stroke-miterlimit="10" stroke-width="0.5" stroke-dasharray=""/><path fill="none" stroke="#505050" paint-order="fill stroke markers" d=" M 576.4687728881836 338.1687698364258 L 584.4687728881836 338.1687698364258 L 584.4687728881836 346.1687698364258 L 576.4687728881836 346.1687698364258 L 576.4687728881836 338.1687698364258 Z" stroke-miterlimit="10" stroke-width="0.5" stroke-dasharray=""/><path fill="none" stroke="#505050" paint-order="fill stroke markers" d=" M 592.4687728881836 326.1687698364258 L 600.4687728881836 326.1687698364258 L 600.4687728881836 334.1687698364258 L 592.4687728881836 334.1687698364258 L 592.4687728881836 326.1687698364258 Z" stroke-miterlimit="10" stroke-width="0.5" stroke-dasharray=""/><path fill="white" stroke="#505050" paint-order="fill stroke markers" d=" M 576.4687728881836 308.1687698364258 L 600.4687728881836 308.1687698364258 L 600.4687728881836 350.1687698364258 L 576.4687728881836 350.1687698364258 L 576.4687728881836 308.1687698364258 Z" stroke-miterlimit="10" stroke-width="0.5" stroke-dasharray=""/><path fill="#F0F0F0" stroke="none" paint-order="stroke fill markers" d=""/><text fill="#505050" stroke="none" font-family="monospace" font-size="14px" font-style="normal" font-weight="normal" text-decoration="normal" x="588.4687728881836" y="326.1687698364258" text-anchor="middle" dominant-baseline="text-after-edge">*</text><path fill="none" stroke="#505050" paint-order="fill stroke markers" d=" M 576.4687728881836 326.1687698364258 L 584.4687728881836 326.1687698364258 L 584.4687728881836 334.1687698364258 L 576.4687728881836 334.1687698364258 L 576.4687728881836 326.1687698364258 Z" stroke-miterlimit="10" stroke-width="0.5" stroke-dasharray=""/><path fill="none" stroke="#505050" paint-order="fill stroke markers" d=" M 576.4687728881836 338.1687698364258 L 584.4687728881836 338.1687698364258 L 584.4687728881836 346.1687698364258 L 576.4687728881836 346.1687698364258 L 576.4687728881836 338.1687698364258 Z" stroke-miterlimit="10" stroke-width="0.5" stroke-dasharray=""/><path fill="none" stroke="#505050" paint-order="fill stroke markers" d=" M 592.4687728881836 326.1687698364258 L 600.4687728881836 326.1687698364258 L 600.4687728881836 334.1687698364258 L 592.4687728881836 334.1687698364258 L 592.4687728881836 326.1687698364258 Z" stroke-miterlimit="10" stroke-width="0.5" stroke-dasharray=""/><path fill="white" stroke="#505050" paint-order="fill stroke markers" d=" M 642.443814843893 184.73124313354492 L 666.443814843893 184.73124313354492 L 666.443814843893 226.73124313354492 L 642.443814843893 226.73124313354492 L 642.443814843893 184.73124313354492 Z" stroke-miterlimit="10" stroke-width="0.5" stroke-dasharray=""/><path fill="#F0F0F0" stroke="none" paint-order="stroke fill markers" d=""/><text fill="#505050" stroke="none" font-family="monospace" font-size="14px" font-style="normal" font-weight="normal" text-decoration="normal" x="654.443814843893" y="202.73124313354492" text-anchor="middle" dominant-baseline="text-after-edge">*</text><path fill="none" stroke="#505050" paint-order="fill stroke markers" d=" M 642.443814843893 202.73124313354492 L 650.443814843893 202.73124313354492 L 650.443814843893 210.73124313354492 L 642.443814843893 210.73124313354492 L 642.443814843893 202.73124313354492 Z" stroke-miterlimit="10" stroke-width="0.5" stroke-dasharray=""/><path fill="none" stroke="#505050" paint-order="fill stroke markers" d=" M 642.443814843893 214.73124313354492 L 650.443814843893 214.73124313354492 L 650.443814843893 222.73124313354492 L 642.443814843893 222.73124313354492 L 642.443814843893 214.73124313354492 Z" stroke-miterlimit="10" stroke-width="0.5" stroke-dasharray=""/><path fill="none" stroke="#505050" paint-order="fill stroke markers" d=" M 658.443814843893 202.73124313354492 L 666.443814843893 202.73124313354492 L 666.443814843893 210.73124313354492 L 658.443814843893 210.73124313354492 L 658.443814843893 202.73124313354492 Z" stroke-miterlimit="10" stroke-width="0.5" stroke-dasharray=""/><path fill="#e0e0e0" stroke="none" paint-order="stroke fill markers" d=" M 608.4687728881836 329.1687698364258 L 600.4687728881836 308.1687698364258 L 600.4687728881836 350.1687698364258 Z M 634.443814843893 205.73124313354492 L 642.443814843893 184.73124313354492 L 642.443814843893 226.73124313354492 Z"/><path fill="none" stroke="none"/><path fill="none" stroke="#e0e0e0" paint-order="fill stroke markers" d=" M 608.4687728881836 329.1687698364258 C 646.3110418777841 329.1687698364258 596.6015458542926 205.73124313354492 634.443814843893 205.73124313354492" stroke-miterlimit="10" stroke-width="2" stroke-dasharray=""/><path fill="white" stroke="#505050" paint-order="fill stroke markers" d=" M 659.9688551425934 266.8906111717224 L 683.9688551425934 266.8906111717224 L 683.9688551425934 308.8906111717224 L 659.9688551425934 308.8906111717224 L 659.9688551425934 266.8906111717224 Z" stroke-miterlimit="10" stroke-width="0.5" stroke-dasharray=""/><path fill="#F0F0F0" stroke="none" paint-order="stroke fill markers" d=""/><text fill="#505050" stroke="none" font-family="monospace" font-size="14px" font-style="normal" font-weight="normal" text-decoration="normal" x="671.9688551425934" y="284.8906111717224" text-anchor="middle" dominant-baseline="text-after-edge">*</text><path fill="none" stroke="#505050" paint-order="fill stroke markers" d=" M 659.9688551425934 284.8906111717224 L 667.9688551425934 284.8906111717224 L 667.9688551425934 292.8906111717224 L 659.9688551425934 292.8906111717224 L 659.9688551425934 284.8906111717224 Z" stroke-miterlimit="10" stroke-width="0.5" stroke-dasharray=""/><path fill="none" stroke="#505050" paint-order="fill stroke markers" d=" M 659.9688551425934 296.8906111717224 L 667.9688551425934 296.8906111717224 L 667.9688551425934 304.8906111717224 L 659.9688551425934 304.8906111717224 L 659.9688551425934 296.8906111717224 Z" stroke-miterlimit="10" stroke-width="0.5" stroke-dasharray=""/><path fill="none" stroke="#505050" paint-order="fill stroke markers" d=" M 675.9688551425934 284.8906111717224 L 683.9688551425934 284.8906111717224 L 683.9688551425934 292.8906111717224 L 675.9688551425934 292.8906111717224 L 675.9688551425934 284.8906111717224 Z" stroke-miterlimit="10" stroke-width="0.5" stroke-dasharray=""/><path fill="#e0e0e0" stroke="none" paint-order="stroke fill markers" d=" M 608.4687728881836 329.1687698364258 L 600.4687728881836 308.1687698364258 L 600.4687728881836 350.1687698364258 Z M 651.9688551425934 287.8906111717224 L 659.9688551425934 266.8906111717224 L 659.9688551425934 308.8906111717224 Z"/><path fill="none" stroke="none"/><path fill="none" stroke="#e0e0e0" paint-order="fill stroke markers" d=" M 608.4687728881836 329.1687698364258 C 626.4591291520267 329.1687698364258 633.9784988787503 287.8906111717224 651.9688551425934 287.8906111717224" stroke-miterlimit="10" stroke-width="2" stroke-dasharray=""/><path fill="white" stroke="#505050" paint-order="fill stroke markers" d=" M 329.2750380039215 128.60629415512085 L 329.2750380039215 185.8469214439392 Q 329.2750380039215 193.8469214439392 337.2750380039215 193.8469214439392 L 477.731214761734 193.8469214439392 Q 485.731214761734 193.8469214439392 485.731214761734 185.8469214439392 L 485.731214761734 128.60629415512085 Q 485.731214761734 120.60629415512085 477.731214761734 120.60629415512085 L 337.2750380039215 120.60629415512085 Q 329.2750380039215 120.60629415512085 329.2750380039215 128.60629415512085" stroke-miterlimit="10" stroke-width="0.5" stroke-dasharray=""/><path fill="#F0F0F0" stroke="#505050" paint-order="fill stroke markers" d=" M 443.731214761734 128.60629415512085 L 485.731214761734 128.60629415512085 L 485.731214761734 158.60629415512085 L 443.731214761734 158.60629415512085 L 443.731214761734 128.60629415512085 Z" stroke-miterlimit="10" stroke-width="0.5" stroke-dasharray=""/><text fill="#505050" stroke="none" font-family="monospace" font-size="14px" font-style="normal" font-weight="normal" text-decoration="normal" x="464.731214761734" y="146.60629415512085" text-anchor="middle" dominant-baseline="text-after-edge">even</text><path fill="none" stroke="#505050" paint-order="fill stroke markers" d=" M 443.731214761734 146.60629415512085 L 451.731214761734 146.60629415512085 L 451.731214761734 154.60629415512085 L 443.731214761734 154.60629415512085 L 443.731214761734 146.60629415512085 Z" stroke-miterlimit="10" stroke-width="0.5" stroke-dasharray=""/><path fill="none" stroke="#505050" paint-order="fill stroke markers" d=" M 477.731214761734 146.60629415512085 L 485.731214761734 146.60629415512085 L 485.731214761734 154.60629415512085 L 477.731214761734 154.60629415512085 L 477.731214761734 146.60629415512085 Z" stroke-miterlimit="10" stroke-width="0.5" stroke-dasharray=""/><path fill="white" stroke="#505050" paint-order="fill stroke markers" d=" M 337.2750380039215 134.1625075340271 L 353.2750380039215 134.1625075340271 L 353.2750380039215 150.1625075340271 L 337.2750380039215 150.1625075340271 L 345.2750380039215 142.1625075340271 L 337.2750380039215 134.1625075340271" stroke-miterlimit="10" stroke-width="0.5" stroke-dasharray=""/><path fill="none" stroke="#505050" paint-order="fill stroke markers" d=" M 345.2750380039215 138.1625075340271 L 353.2750380039215 138.1625075340271 L 353.2750380039215 146.1625075340271 L 345.2750380039215 146.1625075340271 L 345.2750380039215 138.1625075340271 Z" stroke-miterlimit="10" stroke-width="0.5" stroke-dasharray=""/><path fill="white" stroke="#505050" paint-order="fill stroke markers" d=" M 375.3187391757965 126.20317220687866 L 399.3187391757965 126.20317220687866 L 399.3187391757965 168.20317220687866 L 375.3187391757965 168.20317220687866 L 375.3187391757965 126.20317220687866 Z" stroke-miterlimit="10" stroke-width="0.5" stroke-dasharray=""/><path fill="#F0F0F0" stroke="none" paint-order="stroke fill markers" d=""/><text fill="#505050" stroke="none" font-family="monospace" font-size="14px" font-style="normal" font-weight="normal" text-decoration="normal" x="387.3187391757965" y="144.20317220687866" text-anchor="middle" dominant-baseline="text-after-edge">&amp;</text><path fill="none" stroke="#505050" paint-order="fill stroke markers" d=" M 375.3187391757965 144.20317220687866 L 383.3187391757965 144.20317220687866 L 383.3187391757965 152.20317220687866 L 375.3187391757965 152.20317220687866 L 375.3187391757965 144.20317220687866 Z" stroke-miterlimit="10" stroke-width="0.5" stroke-dasharray=""/><path fill="none" stroke="#505050" paint-order="fill stroke markers" d=" M 375.3187391757965 156.20317220687866 L 383.3187391757965 156.20317220687866 L 383.3187391757965 164.20317220687866 L 375.3187391757965 164.20317220687866 L 375.3187391757965 156.20317220687866 Z" stroke-miterlimit="10" stroke-width="0.5" stroke-dasharray=""/><path fill="none" stroke="#505050" paint-order="fill stroke markers" d=" M 391.3187391757965 144.20317220687866 L 399.3187391757965 144.20317220687866 L 399.3187391757965 152.20317220687866 L 391.3187391757965 152.20317220687866 L 391.3187391757965 144.20317220687866 Z" stroke-miterlimit="10" stroke-width="0.5" stroke-dasharray=""/><path fill="white" stroke="#505050" paint-order="fill stroke markers" d=" M 409.65934586524963 141.39062643051147 L 417.65934586524963 141.39062643051147 L 425.65934586524963 149.39062643051147 L 417.65934586524963 157.39062643051147 L 409.65934586524963 157.39062643051147 L 409.65934586524963 141.39062643051147" stroke-miterlimit="10" stroke-width="0.5" stroke-dasharray=""/><path fill="none" stroke="#505050" paint-order="fill stroke markers" d=" M 409.65934586524963 145.39062643051147 L 417.65934586524963 145.39062643051147 L 417.65934586524963 153.39062643051147 L 409.65934586524963 153.39062643051147 L 409.65934586524963 145.39062643051147 Z" stroke-miterlimit="10" stroke-width="0.5" stroke-dasharray=""/><path fill="white" stroke="#505050" paint-order="fill stroke markers" d=" M 333.51254296302795 159.8469214439392 L 365.51254296302795 159.8469214439392 L 365.51254296302795 177.8469214439392 L 333.51254296302795 177.8469214439392 L 333.51254296302795 159.8469214439392 Z" stroke-miterlimit="10" stroke-width="0.5" stroke-dasharray=""/><path fill="#F0F0F0" stroke="none" paint-order="stroke fill markers" d=""/><path fill="none" stroke="#505050" paint-order="fill stroke markers" d=" M 357.51254296302795 164.8469214439392 L 365.51254296302795 164.8469214439392 L 365.51254296302795 172.8469214439392 L 357.51254296302795 172.8469214439392 L 357.51254296302795 164.8469214439392 Z" stroke-miterlimit="10" stroke-width="0.5" stroke-dasharray=""/><text fill="#505050" stroke="none" font-family="monospace" font-size="14px" font-style="normal" font-weight="normal" text-decoration="normal" x="349.51254296302795" y="177.8469214439392" text-anchor="end" dominant-baseline="text-after-edge">1</text><path fill="white" stroke="#505050" paint-order="fill stroke markers" d=" M 308.83437943458557 40.11876440048218 L 308.83437943458557 93.36876440048218 Q 308.83437943458557 101.36876440048218 316.83437943458557 101.36876440048218 L 459.63125443458557 101.36876440048218 Q 467.63125443458557 101.36876440048218 467.63125443458557 93.36876440048218 L 467.63125443458557 40.11876440048218 Q 467.63125443458557 32.11876440048218 459.63125443458557 32.11876440048218 L 316.83437943458557 32.11876440048218 Q 308.83437943458557 32.11876440048218 308.83437943458557 40.11876440048218" stroke-miterlimit="10" stroke-width="0.5" stroke-dasharray=""/><path fill="#F0F0F0" stroke="#505050" paint-order="fill stroke markers" d=" M 425.63125443458557 40.11876440048218 L 467.63125443458557 40.11876440048218 L 467.63125443458557 70.11876440048218 L 425.63125443458557 70.11876440048218 L 425.63125443458557 40.11876440048218 Z" stroke-miterlimit="10" stroke-width="0.5" stroke-dasharray=""/><text fill="#505050" stroke="none" font-family="monospace" font-size="14px" font-style="normal" font-weight="normal" text-decoration="normal" x="446.63125443458557" y="58.11876440048218" text-anchor="middle" dominant-baseline="text-after-edge">== 0</text><path fill="none" stroke="#505050" paint-order="fill stroke markers" d=" M 425.63125443458557 58.11876440048218 L 433.63125443458557 58.11876440048218 L 433.63125443458557 66.11876440048218 L 425.63125443458557 66.11876440048218 L 425.63125443458557 58.11876440048218 Z" stroke-miterlimit="10" stroke-width="0.5" stroke-dasharray=""/><path fill="none" stroke="#505050" paint-order="fill stroke markers" d=" M 459.63125443458557 58.11876440048218 L 467.63125443458557 58.11876440048218 L 467.63125443458557 66.11876440048218 L 459.63125443458557 66.11876440048218 L 459.63125443458557 58.11876440048218 Z" stroke-miterlimit="10" stroke-width="0.5" stroke-dasharray=""/><path fill="white" stroke="#505050" paint-order="fill stroke markers" d=" M 364.83437943458557 41.36876440048218 L 389.83437943458557 41.36876440048218 L 389.83437943458557 83.36876440048218 L 364.83437943458557 83.36876440048218 L 364.83437943458557 41.36876440048218 Z" stroke-miterlimit="10" stroke-width="0.5" stroke-dasharray=""/><path fill="#F0F0F0" stroke="none" paint-order="stroke fill markers" d=""/><text fill="#505050" stroke="none" font-family="monospace" font-size="14px" font-style="normal" font-weight="normal" text-decoration="normal" x="377.33437943458557" y="59.36876440048218" text-anchor="middle" dominant-baseline="text-after-edge">==</text><path fill="none" stroke="#505050" paint-order="fill stroke markers" d=" M 364.83437943458557 59.36876440048218 L 372.83437943458557 59.36876440048218 L 372.83437943458557 67.36876440048218 L 364.83437943458557 67.36876440048218 L 364.83437943458557 59.36876440048218 Z" stroke-miterlimit="10" stroke-width="0.5" stroke-dasharray=""/><path fill="none" stroke="#505050" paint-order="fill stroke markers" d=" M 364.83437943458557 71.36876440048218 L 372.83437943458557 71.36876440048218 L 372.83437943458557 79.36876440048218 L 364.83437943458557 79.36876440048218 L 364.83437943458557 71.36876440048218 Z" stroke-miterlimit="10" stroke-width="0.5" stroke-dasharray=""/><path fill="none" stroke="#505050" paint-order="fill stroke markers" d=" M 381.83437943458557 59.36876440048218 L 389.83437943458557 59.36876440048218 L 389.83437943458557 67.36876440048218 L 381.83437943458557 67.36876440048218 L 381.83437943458557 59.36876440048218 Z" stroke-miterlimit="10" stroke-width="0.5" stroke-dasharray=""/><path fill="white" stroke="#505050" paint-order="fill stroke markers" d=" M 401.61562943458557 55.26250982284546 L 409.61562943458557 55.26250982284546 L 417.61562943458557 63.26250982284546 L 409.61562943458557 71.26250982284546 L 401.61562943458557 71.26250982284546 L 401.61562943458557 55.26250982284546" stroke-miterlimit="10" stroke-width="0.5" stroke-dasharray=""/><path fill="none" stroke="#505050" paint-order="fill stroke markers" d=" M 401.61562943458557 59.26250982284546 L 409.61562943458557 59.26250982284546 L 409.61562943458557 67.26250982284546 L 401.61562943458557 67.26250982284546 L 401.61562943458557 59.26250982284546 Z" stroke-miterlimit="10" stroke-width="0.5" stroke-dasharray=""/><path fill="white" stroke="#505050" paint-order="fill stroke markers" d=" M 316.83437943458557 67.36876440048218 L 348.83437943458557 67.36876440048218 L 348.83437943458557 85.36876440048218 L 316.83437943458557 85.36876440048218 L 316.83437943458557 67.36876440048218 Z" stroke-miterlimit="10" stroke-width="0.5" stroke-dasharray=""/><path fill="#F0F0F0" stroke="none" paint-order="stroke fill markers" d=""/><path fill="none" stroke="#505050" paint-order="fill stroke markers" d=" M 340.83437943458557 72.36876440048218 L 348.83437943458557 72.36876440048218 L 348.83437943458557 80.36876440048218 L 340.83437943458557 80.36876440048218 L 340.83437943458557 72.36876440048218 Z" stroke-miterlimit="10" stroke-width="0.5" stroke-dasharray=""/><text fill="#505050" stroke="none" font-family="monospace" font-size="14px" font-style="normal" font-weight="normal" text-decoration="normal" x="332.83437943458557" y="85.36876440048218" text-anchor="end" dominant-baseline="text-after-edge">0</text><path fill="white" stroke="#505050" paint-order="fill stroke markers" d=" M 326.16874527931213 40.11876440048218 L 342.16874527931213 40.11876440048218 L 342.16874527931213 56.11876440048218 L 326.16874527931213 56.11876440048218 L 334.16874527931213 48.11876440048218 L 326.16874527931213 40.11876440048218" stroke-miterlimit="10" stroke-width="0.5" stroke-dasharray=""/><path fill="none" stroke="#505050" paint-order="fill stroke markers" d=" M 334.16874527931213 44.11876440048218 L 342.16874527931213 44.11876440048218 L 342.16874527931213 52.11876440048218 L 334.16874527931213 52.11876440048218 L 334.16874527931213 44.11876440048218 Z" stroke-miterlimit="10" stroke-width="0.5" stroke-dasharray=""/><path fill="white" stroke="#505050" paint-order="fill stroke markers" d=" M 316.7687530517578 248.23435974121094 L 316.7687530517578 392.328125 Q 316.7687530517578 400.328125 324.7687530517578 400.328125 L 480.65626525878906 400.328125 Q 488.65626525878906 400.328125 488.65626525878906 392.328125 L 488.65626525878906 248.23435974121094 Q 488.65626525878906 240.23435974121094 480.65626525878906 240.23435974121094 L 324.7687530517578 240.23435974121094 Q 316.7687530517578 240.23435974121094 316.7687530517578 248.23435974121094" stroke-miterlimit="10" stroke-width="0.5" stroke-dasharray=""/><path fill="#F0F0F0" stroke="#505050" paint-order="fill stroke markers" d=" M 464.65626525878906 248.23435974121094 L 488.65626525878906 248.23435974121094 L 488.65626525878906 326.23435974121094 L 464.65626525878906 326.23435974121094 L 464.65626525878906 248.23435974121094 Z" stroke-miterlimit="10" stroke-width="0.5" stroke-dasharray=""/><text fill="#505050" stroke="none" font-family="monospace" font-size="14px" font-style="normal" font-weight="normal" text-decoration="normal" x="476.65626525878906" y="266.23435974121094" text-anchor="middle" dominant-baseline="text-after-edge">?</text><path fill="none" stroke="#505050" paint-order="fill stroke markers" d=" M 464.65626525878906 266.23435974121094 L 472.65626525878906 266.23435974121094 L 472.65626525878906 274.23435974121094 L 464.65626525878906 274.23435974121094 L 464.65626525878906 266.23435974121094 Z" stroke-miterlimit="10" stroke-width="0.5" stroke-dasharray=""/><path fill="none" stroke="#505050" paint-order="fill stroke markers" d=" M 464.65626525878906 278.23435974121094 L 472.65626525878906 278.23435974121094 L 472.65626525878906 286.23435974121094 L 464.65626525878906 286.23435974121094 L 464.65626525878906 278.23435974121094 Z" stroke-miterlimit="10" stroke-width="0.5" stroke-dasharray=""/><path fill="none" stroke="#505050" paint-order="fill stroke markers" d=" M 464.65626525878906 290.23435974121094 L 472.65626525878906 290.23435974121094 L 472.65626525878906 298.23435974121094 L 464.65626525878906 298.23435974121094 L 464.65626525878906 290.23435974121094 Z" stroke-miterlimit="10" stroke-width="0.5" stroke-dasharray=""/><path fill="none" stroke="#505050" paint-order="fill stroke markers" d=" M 464.65626525878906 302.23435974121094 L 472.65626525878906 302.23435974121094 L 472.65626525878906 310.23435974121094 L 464.65626525878906 310.23435974121094 L 464.65626525878906 302.23435974121094 Z" stroke-miterlimit="10" stroke-width="0.5" stroke-dasharray=""/><path fill="none" stroke="#505050" paint-order="fill stroke markers" d=" M 464.65626525878906 314.23435974121094 L 472.65626525878906 314.23435974121094 L 472.65626525878906 322.23435974121094 L 464.65626525878906 322.23435974121094 L 464.65626525878906 314.23435974121094 Z" stroke-miterlimit="10" stroke-width="0.5" stroke-dasharray=""/><path fill="none" stroke="#505050" paint-order="fill stroke markers" d=" M 480.65626525878906 266.23435974121094 L 488.65626525878906 266.23435974121094 L 488.65626525878906 274.23435974121094 L 480.65626525878906 274.23435974121094 L 480.65626525878906 266.23435974121094 Z" stroke-miterlimit="10" stroke-width="0.5" stroke-dasharray=""/><path fill="white" stroke="#505050" paint-order="fill stroke markers" d=" M 326.26251220703125 307.8874816894531 L 342.26251220703125 307.8874816894531 L 342.26251220703125 323.8874816894531 L 326.26251220703125 323.8874816894531 L 334.26251220703125 315.8874816894531 L 326.26251220703125 307.8874816894531" stroke-miterlimit="10" stroke-width="0.5" stroke-dasharray=""/><path fill="none" stroke="#505050" paint-order="fill stroke markers" d=" M 334.26251220703125 311.8874816894531 L 342.26251220703125 311.8874816894531 L 342.26251220703125 319.8874816894531 L 334.26251220703125 319.8874816894531 L 334.26251220703125 311.8874816894531 Z" stroke-miterlimit="10" stroke-width="0.5" stroke-dasharray=""/><path fill="white" stroke="#505050" paint-order="fill stroke markers" d=" M 357.8000183105469 313.58123779296875 L 381.8000183105469 313.58123779296875 L 381.8000183105469 367.58123779296875 L 357.8000183105469 367.58123779296875 L 357.8000183105469 313.58123779296875 Z" stroke-miterlimit="10" stroke-width="0.5" stroke-dasharray=""/><path fill="#F0F0F0" stroke="none" paint-order="stroke fill markers" d=""/><text fill="#505050" stroke="none" font-family="monospace" font-size="14px" font-style="normal" font-weight="normal" text-decoration="normal" x="369.8000183105469" y="331.58123779296875" text-anchor="middle" dominant-baseline="text-after-edge">?</text><path fill="none" stroke="#505050" paint-order="fill stroke markers" d=" M 357.8000183105469 331.58123779296875 L 365.8000183105469 331.58123779296875 L 365.8000183105469 339.58123779296875 L 357.8000183105469 339.58123779296875 L 357.8000183105469 331.58123779296875 Z" stroke-miterlimit="10" stroke-width="0.5" stroke-dasharray=""/><path fill="none" stroke="#505050" paint-order="fill stroke markers" d=" M 357.8000183105469 343.58123779296875 L 365.8000183105469 343.58123779296875 L 365.8000183105469 351.58123779296875 L 357.8000183105469 351.58123779296875 L 357.8000183105469 343.58123779296875 Z" stroke-miterlimit="10" stroke-width="0.5" stroke-dasharray=""/><path fill="none" stroke="#505050" paint-order="fill stroke markers" d=" M 357.8000183105469 355.58123779296875 L 365.8000183105469 355.58123779296875 L 365.8000183105469 363.58123779296875 L 357.8000183105469 363.58123779296875 L 357.8000183105469 355.58123779296875 Z" stroke-miterlimit="10" stroke-width="0.5" stroke-dasharray=""/><path fill="none" stroke="#505050" paint-order="fill stroke markers" d=" M 373.8000183105469 331.58123779296875 L 381.8000183105469 331.58123779296875 L 381.8000183105469 339.58123779296875 L 373.8000183105469 339.58123779296875 L 373.8000183105469 331.58123779296875 Z" stroke-miterlimit="10" stroke-width="0.5" stroke-dasharray=""/><path fill="white" stroke="#505050" paint-order="fill stroke markers" d=" M 435.0671691894531 296.25782775878906 L 443.0671691894531 296.25782775878906 L 451.0671691894531 304.25782775878906 L 443.0671691894531 312.25782775878906 L 435.0671691894531 312.25782775878906 L 435.0671691894531 296.25782775878906" stroke-miterlimit="10" stroke-width="0.5" stroke-dasharray=""/><path fill="none" stroke="#505050" paint-order="fill stroke markers" d=" M 435.0671691894531 300.25782775878906 L 443.0671691894531 300.25782775878906 L 443.0671691894531 308.25782775878906 L 435.0671691894531 308.25782775878906 L 435.0671691894531 300.25782775878906 Z" stroke-miterlimit="10" stroke-width="0.5" stroke-dasharray=""/><path fill="white" stroke="#505050" paint-order="fill stroke markers" d=" M 325.7093811035156 368.328125 L 341.7093811035156 368.328125 L 341.7093811035156 384.328125 L 325.7093811035156 384.328125 L 333.7093811035156 376.328125 L 325.7093811035156 368.328125" stroke-miterlimit="10" stroke-width="0.5" stroke-dasharray=""/><path fill="none" stroke="#505050" paint-order="fill stroke markers" d=" M 333.7093811035156 372.328125 L 341.7093811035156 372.328125 L 341.7093811035156 380.328125 L 333.7093811035156 380.328125 L 333.7093811035156 372.328125 Z" stroke-miterlimit="10" stroke-width="0.5" stroke-dasharray=""/><path fill="white" stroke="#505050" paint-order="fill stroke markers" d=" M 400.05938720703125 282.02809143066406 L 424.05938720703125 282.02809143066406 L 424.05938720703125 336.02809143066406 L 400.05938720703125 336.02809143066406 L 400.05938720703125 282.02809143066406 Z" stroke-miterlimit="10" stroke-width="0.5" stroke-dasharray=""/><path fill="#F0F0F0" stroke="none" paint-order="stroke fill markers" d=""/><text fill="#505050" stroke="none" font-family="monospace" font-size="14px" font-style="normal" font-weight="normal" text-decoration="normal" x="412.05938720703125" y="300.02809143066406" text-anchor="middle" dominant-baseline="text-after-edge">?</text><path fill="none" stroke="#505050" paint-order="fill stroke markers" d=" M 400.05938720703125 300.02809143066406 L 408.05938720703125 300.02809143066406 L 408.05938720703125 308.02809143066406 L 400.05938720703125 308.02809143066406 L 400.05938720703125 300.02809143066406 Z" stroke-miterlimit="10" stroke-width="0.5" stroke-dasharray=""/><path fill="none" stroke="#505050" paint-order="fill stroke markers" d=" M 400.05938720703125 312.02809143066406 L 408.05938720703125 312.02809143066406 L 408.05938720703125 320.02809143066406 L 400.05938720703125 320.02809143066406 L 400.05938720703125 312.02809143066406 Z" stroke-miterlimit="10" stroke-width="0.5" stroke-dasharray=""/><path fill="none" stroke="#505050" paint-order="fill stroke markers" d=" M 400.05938720703125 324.02809143066406 L 408.05938720703125 324.02809143066406 L 408.05938720703125 332.02809143066406 L 400.05938720703125 332.02809143066406 L 400.05938720703125 324.02809143066406 Z" stroke-miterlimit="10" stroke-width="0.5" stroke-dasharray=""/><path fill="none" stroke="#505050" paint-order="fill stroke markers" d=" M 416.05938720703125 300.02809143066406 L 424.05938720703125 300.02809143066406 L 424.05938720703125 308.02809143066406 L 416.05938720703125 308.02809143066406 L 416.05938720703125 300.02809143066406 Z" stroke-miterlimit="10" stroke-width="0.5" stroke-dasharray=""/><path fill="white" stroke="#505050" paint-order="fill stroke markers" d=" M 324.7687530517578 274.23435974121094 L 340.7687530517578 274.23435974121094 L 340.7687530517578 290.23435974121094 L 324.7687530517578 290.23435974121094 L 332.7687530517578 282.23435974121094 L 324.7687530517578 274.23435974121094" stroke-miterlimit="10" stroke-width="0.5" stroke-dasharray=""/><path fill="none" stroke="#505050" paint-order="fill stroke markers" d=" M 332.7687530517578 278.23435974121094 L 340.7687530517578 278.23435974121094 L 340.7687530517578 286.23435974121094 L 332.7687530517578 286.23435974121094 L 332.7687530517578 278.23435974121094 Z" stroke-miterlimit="10" stroke-width="0.5" stroke-dasharray=""/><path fill="white" stroke="#505050" paint-order="fill stroke markers" d=" M 325.04688262939453 252.31561279296875 L 341.04688262939453 252.31561279296875 L 341.04688262939453 268.31561279296875 L 325.04688262939453 268.31561279296875 L 333.04688262939453 260.31561279296875 L 325.04688262939453 252.31561279296875" stroke-miterlimit="10" stroke-width="0.5" stroke-dasharray=""/><path fill="none" stroke="#505050" paint-order="fill stroke markers" d=" M 333.04688262939453 256.31561279296875 L 341.04688262939453 256.31561279296875 L 341.04688262939453 264.31561279296875 L 333.04688262939453 264.31561279296875 L 333.04688262939453 256.31561279296875 Z" stroke-miterlimit="10" stroke-width="0.5" stroke-dasharray=""/><path fill="white" stroke="#505050" paint-order="fill stroke markers" d=" M 323.37500762939453 333.58123779296875 L 339.37500762939453 333.58123779296875 L 339.37500762939453 349.58123779296875 L 323.37500762939453 349.58123779296875 L 331.37500762939453 341.58123779296875 L 323.37500762939453 333.58123779296875" stroke-miterlimit="10" stroke-width="0.5" stroke-dasharray=""/><path fill="none" stroke="#505050" paint-order="fill stroke markers" d=" M 331.37500762939453 337.58123779296875 L 339.37500762939453 337.58123779296875 L 339.37500762939453 345.58123779296875 L 331.37500762939453 345.58123779296875 L 331.37500762939453 337.58123779296875 Z" stroke-miterlimit="10" stroke-width="0.5" stroke-dasharray=""/><path fill="white" stroke="#505050" paint-order="fill stroke markers" d=" M 945.60009765625 152.72186279296875 L 945.60009765625 277.8281021118164 Q 945.60009765625 285.8281021118164 953.60009765625 285.8281021118164 L 1158.650146484375 285.8281021118164 Q 1166.650146484375 285.8281021118164 1166.650146484375 277.8281021118164 L 1166.650146484375 152.72186279296875 Q 1166.650146484375 144.72186279296875 1158.650146484375 144.72186279296875 L 953.60009765625 144.72186279296875 Q 945.60009765625 144.72186279296875 945.60009765625 152.72186279296875" stroke-miterlimit="10" stroke-width="0.5" stroke-dasharray=""/><path fill="#F0F0F0" stroke="#505050" paint-order="fill stroke markers" d=" M 1126.650146484375 152.72186279296875 L 1166.650146484375 152.72186279296875 L 1166.650146484375 198.72186279296875 L 1126.650146484375 198.72186279296875 L 1126.650146484375 152.72186279296875 Z" stroke-miterlimit="10" stroke-width="0.5" stroke-dasharray=""/><text fill="#505050" stroke="none" font-family="monospace" font-size="14px" font-style="normal" font-weight="normal" text-decoration="normal" x="1146.650146484375" y="170.72186279296875" text-anchor="middle" dominant-baseline="text-after-edge">X</text><path fill="none" stroke="#505050" paint-order="fill stroke markers" d=" M 1126.650146484375 171.72186279296875 L 1134.650146484375 171.72186279296875 L 1134.650146484375 179.72186279296875 L 1126.650146484375 179.72186279296875 L 1126.650146484375 171.72186279296875 Z" stroke-miterlimit="10" stroke-width="0.5" stroke-dasharray=""/><text fill="#505050" stroke="none" font-family="monospace" font-size="14px" font-style="normal" font-weight="normal" text-decoration="normal" x="1142.650146484375" y="184.72186279296875" text-anchor="start" dominant-baseline="text-after-edge">x</text><path fill="none" stroke="#505050" paint-order="fill stroke markers" d=" M 1126.650146484375 185.72186279296875 L 1134.650146484375 185.72186279296875 L 1134.650146484375 193.72186279296875 L 1126.650146484375 193.72186279296875 L 1126.650146484375 185.72186279296875 Z" stroke-miterlimit="10" stroke-width="0.5" stroke-dasharray=""/><text fill="#505050" stroke="none" font-family="monospace" font-size="14px" font-style="normal" font-weight="normal" text-decoration="normal" x="1142.650146484375" y="198.72186279296875" text-anchor="start" dominant-baseline="text-after-edge">n</text><path fill="none" stroke="#505050" paint-order="fill stroke markers" d=" M 1158.650146484375 170.72186279296875 L 1166.650146484375 170.72186279296875 L 1166.650146484375 178.72186279296875 L 1158.650146484375 178.72186279296875 L 1158.650146484375 170.72186279296875 Z" stroke-miterlimit="10" stroke-width="0.5" stroke-dasharray=""/><path fill="white" stroke="#505050" paint-order="fill stroke markers" d=" M 949.9906616210938 171.24061584472656 L 981.9906616210938 171.24061584472656 L 981.9906616210938 189.24061584472656 L 949.9906616210938 189.24061584472656 L 957.9906616210938 180.24061584472656 L 949.9906616210938 171.24061584472656" stroke-miterlimit="10" stroke-width="0.5" stroke-dasharray=""/><path fill="none" stroke="#505050" paint-order="fill stroke markers" d=" M 973.9906616210938 176.24061584472656 L 981.9906616210938 176.24061584472656 L 981.9906616210938 184.24061584472656 L 973.9906616210938 184.24061584472656 L 973.9906616210938 176.24061584472656 Z" stroke-miterlimit="10" stroke-width="0.5" stroke-dasharray=""/><text fill="#505050" stroke="none" font-family="monospace" font-size="14px" font-style="normal" font-weight="normal" text-decoration="normal" x="965.9906616210938" y="189.24061584472656" text-anchor="end" dominant-baseline="text-after-edge">n</text><path fill="white" stroke="#505050" paint-order="fill stroke markers" d=" M 1026.003173828125 152.69998168945312 L 1093.003173828125 152.69998168945312 L 1093.003173828125 244.69998168945312 L 1026.003173828125 244.69998168945312 L 1026.003173828125 152.69998168945312 Z" stroke-miterlimit="10" stroke-width="0.5" stroke-dasharray=""/><path fill="#F0F0F0" stroke="none" paint-order="stroke fill markers" d=""/><text fill="#505050" stroke="none" font-family="monospace" font-size="14px" font-style="normal" font-weight="normal" text-decoration="normal" x="1059.503173828125" y="170.69998168945312" text-anchor="middle" dominant-baseline="text-after-edge">expStep</text><path fill="none" stroke="#505050" paint-order="fill stroke markers" d=" M 1026.003173828125 171.69998168945312 L 1034.003173828125 171.69998168945312 L 1034.003173828125 179.69998168945312 L 1026.003173828125 179.69998168945312 L 1026.003173828125 171.69998168945312 Z" stroke-miterlimit="10" stroke-width="0.5" stroke-dasharray=""/><text fill="#505050" stroke="none" font-family="monospace" font-size="14px" font-style="normal" font-weight="normal" text-decoration="normal" x="1042.003173828125" y="184.69998168945312" text-anchor="start" dominant-baseline="text-after-edge">n</text><path fill="none" stroke="#505050" paint-order="fill stroke markers" d=" M 1026.003173828125 185.69998168945312 L 1034.003173828125 185.69998168945312 L 1034.003173828125 193.69998168945312 L 1026.003173828125 193.69998168945312 L 1026.003173828125 185.69998168945312 Z" stroke-miterlimit="10" stroke-width="0.5" stroke-dasharray=""/><text fill="#505050" stroke="none" font-family="monospace" font-size="14px" font-style="normal" font-weight="normal" text-decoration="normal" x="1042.003173828125" y="198.69998168945312" text-anchor="start" dominant-baseline="text-after-edge">x</text><path fill="none" stroke="#505050" paint-order="fill stroke markers" d=" M 1026.003173828125 199.69998168945312 L 1034.003173828125 199.69998168945312 L 1034.003173828125 207.69998168945312 L 1026.003173828125 207.69998168945312 L 1026.003173828125 199.69998168945312 Z" stroke-miterlimit="10" stroke-width="0.5" stroke-dasharray=""/><text fill="#505050" stroke="none" font-family="monospace" font-size="14px" font-style="normal" font-weight="normal" text-decoration="normal" x="1042.003173828125" y="212.69998168945312" text-anchor="start" dominant-baseline="text-after-edge">y</text><path fill="none" stroke="#505050" paint-order="fill stroke markers" d=" M 1026.003173828125 212.69998168945312 L 1050.003173828125 212.69998168945312 L 1050.003173828125 240.69998168945312 L 1026.003173828125 240.69998168945312 L 1026.003173828125 212.69998168945312 Z" stroke-miterlimit="10" stroke-width="0.5" stroke-dasharray=""/><path fill="none" stroke="#505050" paint-order="fill stroke markers" d=" M 1026.003173828125 216.69998168945312 L 1034.003173828125 216.69998168945312 L 1034.003173828125 224.69998168945312 L 1026.003173828125 224.69998168945312 L 1026.003173828125 216.69998168945312 Z" stroke-miterlimit="10" stroke-width="0.5" stroke-dasharray=""/><path fill="none" stroke="#505050" paint-order="fill stroke markers" d=" M 1026.003173828125 228.69998168945312 L 1034.003173828125 228.69998168945312 L 1034.003173828125 236.69998168945312 L 1026.003173828125 236.69998168945312 L 1026.003173828125 228.69998168945312 Z" stroke-miterlimit="10" stroke-width="0.5" stroke-dasharray=""/><path fill="none" stroke="#505050" paint-order="fill stroke markers" d=" M 1042.003173828125 216.69998168945312 L 1050.003173828125 216.69998168945312 L 1050.003173828125 224.69998168945312 L 1042.003173828125 224.69998168945312 L 1042.003173828125 216.69998168945312 Z" stroke-miterlimit="10" stroke-width="0.5" stroke-dasharray=""/><text fill="#505050" stroke="none" font-family="monospace" font-size="14px" font-style="normal" font-weight="normal" text-decoration="normal" x="1058.003173828125" y="235.69998168945312" text-anchor="start" dominant-baseline="text-after-edge">*</text><path fill="none" stroke="#505050" paint-order="fill stroke markers" d=" M 1085.003173828125 170.69998168945312 L 1093.003173828125 170.69998168945312 L 1093.003173828125 178.69998168945312 L 1085.003173828125 178.69998168945312 L 1085.003173828125 170.69998168945312 Z" stroke-miterlimit="10" stroke-width="0.5" stroke-dasharray=""/><path fill="#e0e0e0" stroke="none" paint-order="stroke fill markers" d=" M 931.8742430210114 85.59686279296875 L 923.8742430210114 39.59686279296875 L 923.8742430210114 131.59686279296875 Z M 1018.003173828125 198.69998168945312 L 1026.003173828125 152.69998168945312 L 1026.003173828125 244.69998168945312 Z"/><path fill="none" stroke="none"/><path fill="none" stroke="#e0e0e0" paint-order="fill stroke markers" d=" M 931.8742430210114 85.59686279296875 C 974.5233431328307 85.59686279296875 975.3540737163056 198.69998168945312 1018.003173828125 198.69998168945312" stroke-miterlimit="10" stroke-width="2" stroke-dasharray=""/><path fill="white" stroke="#505050" paint-order="fill stroke markers" d=" M 1082.003173828125 152.69998168945312 L 1090.003173828125 152.69998168945312 L 1098.003173828125 160.69998168945312 L 1090.003173828125 168.69998168945312 L 1082.003173828125 168.69998168945312 L 1082.003173828125 152.69998168945312" stroke-miterlimit="10" stroke-width="0.5" stroke-dasharray=""/><path fill="none" stroke="#505050" paint-order="fill stroke markers" d=" M 1082.003173828125 156.69998168945312 L 1090.003173828125 156.69998168945312 L 1090.003173828125 164.69998168945312 L 1082.003173828125 164.69998168945312 L 1082.003173828125 156.69998168945312 Z" stroke-miterlimit="10" stroke-width="0.5" stroke-dasharray=""/><path fill="white" stroke="#505050" paint-order="fill stroke markers" d=" M 950.7249755859375 194.90623474121094 L 982.7249755859375 194.90623474121094 L 982.7249755859375 212.90623474121094 L 950.7249755859375 212.90623474121094 L 950.7249755859375 194.90623474121094 Z" stroke-miterlimit="10" stroke-width="0.5" stroke-dasharray=""/><path fill="#F0F0F0" stroke="none" paint-order="stroke fill markers" d=""/><path fill="none" stroke="#505050" paint-order="fill stroke markers" d=" M 974.7249755859375 199.90623474121094 L 982.7249755859375 199.90623474121094 L 982.7249755859375 207.90623474121094 L 974.7249755859375 207.90623474121094 L 974.7249755859375 199.90623474121094 Z" stroke-miterlimit="10" stroke-width="0.5" stroke-dasharray=""/><text fill="#505050" stroke="none" font-family="monospace" font-size="14px" font-style="normal" font-weight="normal" text-decoration="normal" x="966.7249755859375" y="212.90623474121094" text-anchor="end" dominant-baseline="text-after-edge">1</text><path fill="white" stroke="#505050" paint-order="fill stroke markers" d=" M 946.8594360351562 149.03436279296875 L 978.8594360351562 149.03436279296875 L 978.8594360351562 167.03436279296875 L 946.8594360351562 167.03436279296875 L 954.8594360351562 158.03436279296875 L 946.8594360351562 149.03436279296875" stroke-miterlimit="10" stroke-width="0.5" stroke-dasharray=""/><path fill="none" stroke="#505050" paint-order="fill stroke markers" d=" M 970.8594360351562 154.03436279296875 L 978.8594360351562 154.03436279296875 L 978.8594360351562 162.03436279296875 L 970.8594360351562 162.03436279296875 L 970.8594360351562 154.03436279296875 Z" stroke-miterlimit="10" stroke-width="0.5" stroke-dasharray=""/><text fill="#505050" stroke="none" font-family="monospace" font-size="14px" font-style="normal" font-weight="normal" text-decoration="normal" x="962.8594360351562" y="167.03436279296875" text-anchor="end" dominant-baseline="text-after-edge">x</text><path fill="none" stroke="none"/><path fill="white" stroke="#505050" paint-order="fill stroke markers" d=" M 958.9406127929688 219.8281021118164 L 990.9406127929688 219.8281021118164 L 998.9406127929688 244.8281021118164 L 990.9406127929688 269.8281021118164 L 958.9406127929688 269.8281021118164 L 958.9406127929688 219.8281021118164" stroke-miterlimit="10" stroke-width="0.5" stroke-dasharray=""/><path fill="white" stroke="#505050" paint-order="fill stroke markers" d=" M 966.9406127929688 223.8281021118164 L 990.9406127929688 223.8281021118164 L 990.9406127929688 265.8281021118164 L 966.9406127929688 265.8281021118164 L 966.9406127929688 223.8281021118164 Z" stroke-miterlimit="10" stroke-width="0.5" stroke-dasharray=""/><path fill="#F0F0F0" stroke="none" paint-order="stroke fill markers" d=""/><text fill="#505050" stroke="none" font-family="monospace" font-size="14px" font-style="normal" font-weight="normal" text-decoration="normal" x="978.9406127929688" y="241.8281021118164" text-anchor="middle" dominant-baseline="text-after-edge">*</text><path fill="none" stroke="#505050" paint-order="fill stroke markers" d=" M 966.9406127929688 241.8281021118164 L 974.9406127929688 241.8281021118164 L 974.9406127929688 249.8281021118164 L 966.9406127929688 249.8281021118164 L 966.9406127929688 241.8281021118164 Z" stroke-miterlimit="10" stroke-width="0.5" stroke-dasharray=""/><path fill="none" stroke="#505050" paint-order="fill stroke markers" d=" M 966.9406127929688 253.8281021118164 L 974.9406127929688 253.8281021118164 L 974.9406127929688 261.8281021118164 L 966.9406127929688 261.8281021118164 L 966.9406127929688 253.8281021118164 Z" stroke-miterlimit="10" stroke-width="0.5" stroke-dasharray=""/><path fill="none" stroke="#505050" paint-order="fill stroke markers" d=" M 982.9406127929688 241.8281021118164 L 990.9406127929688 241.8281021118164 L 990.9406127929688 249.8281021118164 L 982.9406127929688 249.8281021118164 L 982.9406127929688 241.8281021118164 Z" stroke-miterlimit="10" stroke-width="0.5" stroke-dasharray=""/><path fill="none" stroke="#505050" paint-order="fill stroke markers" d=" M 595.1719909608364 265.2344055175781 C 617.3598226451081 265.2344055175781 637.7810234583217 300.8906111717224 659.9688551425934 300.8906111717224" stroke-miterlimit="10" stroke-dasharray=""/><path fill="none" stroke="#505050" paint-order="fill stroke markers" d=" M 594.2969604432583 239.79376220703125 C 618.895676870129 239.79376220703125 635.3701387157226 288.8906111717224 659.9688551425934 288.8906111717224" stroke-miterlimit="10" stroke-dasharray=""/><path fill="none" stroke="#505050" paint-order="fill stroke markers" d=" M 594.2969604432583 239.79376220703125 C 610.0626648948748 239.79376220703125 626.6781103922765 218.73124313354492 642.443814843893 218.73124313354492" stroke-miterlimit="10" stroke-dasharray=""/><path fill="none" stroke="#505050" paint-order="fill stroke markers" d=" M 594.2969604432583 239.79376220703125 C 611.818731987667 239.79376220703125 624.9220432994844 206.73124313354492 642.443814843893 206.73124313354492" stroke-miterlimit="10" stroke-dasharray=""/><path fill="none" stroke="#505050" paint-order="fill stroke markers" d=" M 589.0219837129116 176.0124969482422 C 603.8505117148284 176.0124969482422 604.6527967601892 137.0843849182129 619.4813247621059 137.0843849182129" stroke-miterlimit="10" stroke-dasharray=""/><path fill="none" stroke="#505050" paint-order="fill stroke markers" d=" M 588.7844844758511 62.63438415527344 C 609.6604724499947 62.63438415527344 598.6053367879623 125.08438491821289 619.4813247621059 125.08438491821289" stroke-miterlimit="10" stroke-dasharray=""/><path fill="none" stroke="#505050" paint-order="fill stroke markers" d=" M 643.4813247621059 125.08438491821289 C 665.7620128307952 125.08438491821289 689.1849856163846 154.9843306541443 711.4656736850739 154.9843306541443" stroke-miterlimit="10" stroke-dasharray=""/><path fill="none" stroke="#505050" paint-order="fill stroke markers" d=" M 778.4656736850739 153.9843306541443 C 788.7790512653323 153.9843306541443 802.4348583606748 156.54317235946655 812.7482359409332 156.54317235946655" stroke-miterlimit="10" stroke-dasharray=""/><path fill="none" stroke="#505050" paint-order="fill stroke markers" d=" M 809.2563230991364 257.8687605857849 C 836.0744676109127 257.8687605857849 785.9300914291568 168.54317235946655 812.7482359409332 168.54317235946655" stroke-miterlimit="10" stroke-dasharray=""/><path fill="none" stroke="#505050" paint-order="fill stroke markers" d=" M 643.4813247621059 125.08438491821289 C 693.3704854308505 125.08438491821289 692.3671624303918 258.8687605857849 742.2563230991364 258.8687605857849" stroke-miterlimit="10" stroke-dasharray=""/><path fill="none" stroke="#505050" paint-order="fill stroke markers" d=" M 595.1719909608364 265.2344055175781 C 671.6257332910805 265.2344055175781 736.2944936106892 132.54317235946655 812.7482359409332 132.54317235946655" stroke-miterlimit="10" stroke-dasharray=""/><path fill="none" stroke="#505050" paint-order="fill stroke markers" d=" M 836.7482359409332 120.54317235946655 C 845.8490431344691 120.54317235946655 843.810911413413 146.21448278427124 852.9117186069489 146.21448278427124" stroke-miterlimit="10" stroke-dasharray=""/><path fill="none" stroke="#505050" paint-order="fill stroke markers" d=" M 588.7844844758511 62.63438415527344 C 617.6646600170661 62.63438415527344 655.4199326531361 74.64060735702515 684.3001081943512 74.64060735702515" stroke-miterlimit="10" stroke-dasharray=""/><path fill="none" stroke="#505050" paint-order="fill stroke markers" d=" M 726.3001081943512 74.64060735702515 C 755.6638474627473 74.64060735702515 783.3844966725371 120.54317235946655 812.7482359409332 120.54317235946655" stroke-miterlimit="10" stroke-dasharray=""/><path fill="none" stroke="#505050" paint-order="fill stroke markers" d=" M 588.7844844758511 62.63438415527344 C 621.2827301500753 62.63438415527344 651.7017343462988 113.92500066757202 684.1999800205231 113.92500066757202" stroke-miterlimit="10" stroke-dasharray=""/><path fill="none" stroke="#505050" paint-order="fill stroke markers" d=" M 726.1999800205231 113.92500066757202 C 753.7413411643686 113.92500066757202 785.2068747970877 144.54317235946655 812.7482359409332 144.54317235946655" stroke-miterlimit="10" stroke-dasharray=""/><path fill="none" stroke="#505050" paint-order="fill stroke markers" d=" M 666.443814843893 206.73124313354492 C 684.0694140045414 206.73124313354492 693.8400745244255 168.9843306541443 711.4656736850739 168.9843306541443" stroke-miterlimit="10" stroke-dasharray=""/><path fill="none" stroke="#505050" paint-order="fill stroke markers" d=" M 666.443814843893 206.73124313354492 C 696.6258241547839 206.73124313354492 712.0743137882455 272.8687605857849 742.2563230991364 272.8687605857849" stroke-miterlimit="10" stroke-dasharray=""/><path fill="none" stroke="#505050" paint-order="fill stroke markers" d=" M 683.9688551425934 288.8906111717224 C 716.7941407540293 288.8906111717224 678.640388073638 182.9843306541443 711.4656736850739 182.9843306541443" stroke-miterlimit="10" stroke-dasharray=""/><path fill="none" stroke="#505050" paint-order="fill stroke markers" d=" M 683.9688551425934 288.8906111717224 C 701.4656123293386 288.8906111717224 724.7595659123912 286.8687605857849 742.2563230991364 286.8687605857849" stroke-miterlimit="10" stroke-dasharray=""/><path fill="none" stroke="#505050" paint-order="fill stroke markers" d=" M 600.4687728881836 329.1687698364258 C 643.3972946152458 329.1687698364258 699.3278013720742 309.8687605857849 742.2563230991364 309.8687605857849" stroke-miterlimit="10" stroke-dasharray=""/><path fill="none" stroke="#505050" paint-order="fill stroke markers" d=" M 600.4687728881836 329.1687698364258 C 650.2133668043582 329.1687698364258 661.7210797688992 205.9843306541443 711.4656736850739 205.9843306541443" stroke-miterlimit="10" stroke-dasharray=""/><path fill="none" stroke="#505050" paint-order="fill stroke markers" d=" M 399.3187391757965 148.20317220687866 C 402.4413082273191 148.20317220687866 406.53677681372704 149.39062643051147 409.65934586524963 149.39062643051147" stroke-miterlimit="10" stroke-dasharray=""/><path fill="none" stroke="#505050" paint-order="fill stroke markers" d=" M 365.51254296302795 168.8469214439392 C 369.43412805751274 168.8469214439392 371.3971540813117 160.20317220687866 375.3187391757965 160.20317220687866" stroke-miterlimit="10" stroke-dasharray=""/><path fill="none" stroke="#505050" paint-order="fill stroke markers" d=" M 353.2750380039215 142.1625075340271 C 360.13195386996716 142.1625075340271 368.46182330975086 148.20317220687866 375.3187391757965 148.20317220687866" stroke-miterlimit="10" stroke-dasharray=""/><path fill="none" stroke="#505050" paint-order="fill stroke markers" d=" M 389.83437943458557 63.36876440048218 C 393.3688981774697 63.36876440048218 398.08111069170144 63.26250982284546 401.61562943458557 63.26250982284546" stroke-miterlimit="10" stroke-dasharray=""/><path fill="none" stroke="#505050" paint-order="fill stroke markers" d=" M 348.83437943458557 76.36876440048218 C 353.64374529714996 76.36876440048218 360.0250135720212 75.36876440048218 364.83437943458557 75.36876440048218" stroke-miterlimit="10" stroke-dasharray=""/><path fill="none" stroke="#505050" paint-order="fill stroke markers" d=" M 342.16874527931213 48.11876440048218 C 350.3642570052181 48.11876440048218 356.6388677086796 63.36876440048218 364.83437943458557 63.36876440048218" stroke-miterlimit="10" stroke-dasharray=""/><path fill="none" stroke="#505050" paint-order="fill stroke markers" d=" M 340.7687530517578 282.23435974121094 C 361.2422872850794 282.23435974121094 379.5858529737097 316.02809143066406 400.05938720703125 316.02809143066406" stroke-miterlimit="10" stroke-dasharray=""/><path fill="none" stroke="#505050" paint-order="fill stroke markers" d=" M 341.04688262939453 260.31561279296875 C 363.07852087229173 260.31561279296875 378.02774896413405 304.02809143066406 400.05938720703125 304.02809143066406" stroke-miterlimit="10" stroke-dasharray=""/><path fill="none" stroke="#505050" paint-order="fill stroke markers" d=" M 341.7093811035156 376.328125 C 348.676662877407 376.328125 350.8327365366555 359.58123779296875 357.8000183105469 359.58123779296875" stroke-miterlimit="10" stroke-dasharray=""/><path fill="none" stroke="#505050" paint-order="fill stroke markers" d=" M 342.26251220703125 315.8874816894531 C 349.78801759101304 315.8874816894531 350.2745129265651 335.58123779296875 357.8000183105469 335.58123779296875" stroke-miterlimit="10" stroke-dasharray=""/><path fill="none" stroke="#505050" paint-order="fill stroke markers" d=" M 381.8000183105469 335.58123779296875 C 387.7279953282273 335.58123779296875 394.13141018935085 328.02809143066406 400.05938720703125 328.02809143066406" stroke-miterlimit="10" stroke-dasharray=""/><path fill="none" stroke="#505050" paint-order="fill stroke markers" d=" M 339.37500762939453 341.58123779296875 C 345.1882074086944 341.58123779296875 351.986818531247 347.58123779296875 357.8000183105469 347.58123779296875" stroke-miterlimit="10" stroke-dasharray=""/><path fill="none" stroke="#505050" paint-order="fill stroke markers" d=" M 424.05938720703125 304.02809143066406 C 427.36244092530006 304.02809143066406 431.7641154711843 304.25782775878906 435.0671691894531 304.25782775878906" stroke-miterlimit="10" stroke-dasharray=""/><path fill="none" stroke="#505050" paint-order="fill stroke markers" d=" M 1093.003173828125 174.69998168945312 C 1098.3445219725545 174.69998168945312 1076.6618256836955 160.69998168945312 1082.003173828125 160.69998168945312" stroke-miterlimit="10" stroke-dasharray=""/><path fill="none" stroke="#505050" paint-order="fill stroke markers" d=" M 982.7249755859375 203.90623474121094 C 995.7085825003134 203.90623474121094 1013.0195669137491 203.69998168945312 1026.003173828125 203.69998168945312" stroke-miterlimit="10" stroke-dasharray=""/><path fill="none" stroke="#505050" paint-order="fill stroke markers" d=" M 978.8594360351562 158.03436279296875 C 995.8968040533409 158.03436279296875 1008.9658058099403 189.69998168945312 1026.003173828125 189.69998168945312" stroke-miterlimit="10" stroke-dasharray=""/><path fill="none" stroke="#505050" paint-order="fill stroke markers" d=" M 981.9906616210938 180.24061584472656 C 995.2644957709372 180.24061584472656 1012.7293396782816 175.69998168945312 1026.003173828125 175.69998168945312" stroke-miterlimit="10" stroke-dasharray=""/><path fill="none" stroke="#505050" paint-order="fill stroke markers" d=" M 990.9406127929688 244.8281021118164 C 1002.7821107672648 244.8281021118164 1014.1616758538289 226.69998168945312 1026.003173828125 226.69998168945312" stroke-miterlimit="10" stroke-dasharray=""/></g></g></svg>