<svg version="1.1" xmlns="http://www.w3.org/2000/svg" xmlns:xlink="http://www.w3.org/1999/xlink" width="677.3295710086823" height="673.2879810333252"><defs/><g transform="translate(-373.39053177833557,-18.697757720947266)"><g><path fill="white" stroke="#505050" paint-order="fill stroke markers" d=" M 374.39053177833557 27.916520595550537 L 374.39053177833557 81.16652059555054 Q 374.39053177833557 89.16652059555054 382.39053177833557 89.16652059555054 L 501.63625931739807 89.16652059555054 Q 509.63625931739807 89.16652059555054 509.63625931739807 81.16652059555054 L 509.63625931739807 27.916520595550537 Q 509.63625931739807 19.916520595550537 501.63625931739807 19.916520595550537 L 382.39053177833557 19.916520595550537 Q 374.39053177833557 19.916520595550537 374.39053177833557 27.916520595550537" stroke-miterlimit="10" stroke-width="0.5" stroke-dasharray=""/><path fill="#F0F0F0" stroke="#505050" paint-order="fill stroke markers" d=" M 467.63625931739807 27.916520595550537 L 509.63625931739807 27.916520595550537 L 509.63625931739807 57.91652059555054 L 467.63625931739807 57.91652059555054 L 467.63625931739807 27.916520595550537 Z" stroke-miterlimit="10" stroke-width="0.5" stroke-dasharray=""/><text fill="#505050" stroke="none" font-family="monospace" font-size="14px" font-style="normal" font-weight="normal" text-decoration="normal" x="488.63625931739807" y="45.91652059555054" text-anchor="middle" dominant-baseline="text-after-edge">== 0</text><path fill="none" stroke="#505050" paint-order="fill stroke markers" d=" M 467.63625931739807 45.91652059555054 L 475.63625931739807 45.91652059555054 L 475.63625931739807 53.91652059555054 L 467.63625931739807 53.91652059555054 L 467.63625931739807 45.91652059555054 Z" stroke-miterlimit="10" stroke-width="0.5" stroke-dasharray=""/><path fill="none" stroke="#505050" paint-order="fill stroke markers" d=" M 501.63625931739807 45.91652059555054 L 509.63625931739807 45.91652059555054 L 509.63625931739807 53.91652059555054 L 501.63625931739807 53.91652059555054 L 501.63625931739807 45.91652059555054 Z" stroke-miterlimit="10" stroke-width="0.5" stroke-dasharray=""/><path fill="white" stroke="#505050" paint-order="fill stroke markers" d=" M 430.39053177833557 29.166520595550537 L 455.39053177833557 29.166520595550537 L 455.39053177833557 71.16652059555054 L 430.39053177833557 71.16652059555054 L 430.39053177833557 29.166520595550537 Z" stroke-miterlimit="10" stroke-width="0.5" stroke-dasharray=""/><path fill="#F0F0F0" stroke="none" paint-order="stroke fill markers" d=""/><text fill="#505050" stroke="none" font-family="monospace" font-size="14px" font-style="normal" font-weight="normal" text-decoration="normal" x="442.89053177833557" y="47.16652059555054" text-anchor="middle" dominant-baseline="text-after-edge">==</text><path fill="none" stroke="#505050" paint-order="fill stroke markers" d=" M 430.39053177833557 47.16652059555054 L 438.39053177833557 47.16652059555054 L 438.39053177833557 55.16652059555054 L 430.39053177833557 55.16652059555054 L 430.39053177833557 47.16652059555054 Z" stroke-miterlimit="10" stroke-width="0.5" stroke-dasharray=""/><path fill="none" stroke="#505050" paint-order="fill stroke markers" d=" M 430.39053177833557 59.16652059555054 L 438.39053177833557 59.16652059555054 L 438.39053177833557 67.16652059555054 L 430.39053177833557 67.16652059555054 L 430.39053177833557 59.16652059555054 Z" stroke-miterlimit="10" stroke-width="0.5" stroke-dasharray=""/><path fill="none" stroke="#505050" paint-order="fill stroke markers" d=" M 447.39053177833557 47.16652059555054 L 455.39053177833557 47.16652059555054 L 455.39053177833557 55.16652059555054 L 447.39053177833557 55.16652059555054 L 447.39053177833557 47.16652059555054 Z" stroke-miterlimit="10" stroke-width="0.5" stroke-dasharray=""/><path fill="white" stroke="#505050" paint-order="fill stroke markers" d=" M 382.39053177833557 55.16652059555054 L 414.39053177833557 55.16652059555054 L 414.39053177833557 73.16652059555054 L 382.39053177833557 73.16652059555054 L 382.39053177833557 55.16652059555054 Z" stroke-miterlimit="10" stroke-width="0.5" stroke-dasharray=""/><path fill="#F0F0F0" stroke="none" paint-order="stroke fill markers" d=""/><path fill="none" stroke="#505050" paint-order="fill stroke markers" d=" M 406.39053177833557 59.16652059555054 L 414.39053177833557 59.16652059555054 L 414.39053177833557 67.16652059555054 L 406.39053177833557 67.16652059555054 L 406.39053177833557 59.16652059555054 Z" stroke-miterlimit="10" stroke-width="0.5" stroke-dasharray=""/><text fill="#505050" stroke="none" font-family="monospace" font-size="14px" font-style="normal" font-weight="normal" text-decoration="normal" x="398.39053177833557" y="73.16652059555054" text-anchor="end" dominant-baseline="text-after-edge">0</text><path fill="white" stroke="#505050" paint-order="fill stroke markers" d=" M 530.5907063484192 28.44729232788086 L 530.5907063484192 78.1555404663086 Q 530.5907063484192 86.1555404663086 538.5907063484192 86.1555404663086 L 644.1544766426086 86.1555404663086 Q 652.1544766426086 86.1555404663086 652.1544766426086 78.1555404663086 L 652.1544766426086 28.44729232788086 Q 652.1544766426086 20.44729232788086 644.1544766426086 20.44729232788086 L 538.5907063484192 20.44729232788086 Q 530.5907063484192 20.44729232788086 530.5907063484192 28.44729232788086" stroke-miterlimit="10" stroke-width="0.5" stroke-dasharray=""/><path fill="#F0F0F0" stroke="#505050" paint-order="fill stroke markers" d=" M 619.1544766426086 28.44729232788086 L 652.1544766426086 28.44729232788086 L 652.1544766426086 58.44729232788086 L 619.1544766426086 58.44729232788086 L 619.1544766426086 28.44729232788086 Z" stroke-miterlimit="10" stroke-width="0.5" stroke-dasharray=""/><text fill="#505050" stroke="none" font-family="monospace" font-size="14px" font-style="normal" font-weight="normal" text-decoration="normal" x="635.6544766426086" y="46.44729232788086" text-anchor="middle" dominant-baseline="text-after-edge">odd</text><path fill="none" stroke="#505050" paint-order="fill stroke markers" d=" M 619.1544766426086 46.44729232788086 L 627.1544766426086 46.44729232788086 L 627.1544766426086 54.44729232788086 L 619.1544766426086 54.44729232788086 L 619.1544766426086 46.44729232788086 Z" stroke-miterlimit="10" stroke-width="0.5" stroke-dasharray=""/><path fill="none" stroke="#505050" paint-order="fill stroke markers" d=" M 644.1544766426086 46.44729232788086 L 652.1544766426086 46.44729232788086 L 652.1544766426086 54.44729232788086 L 644.1544766426086 54.44729232788086 L 644.1544766426086 46.44729232788086 Z" stroke-miterlimit="10" stroke-width="0.5" stroke-dasharray=""/><path fill="white" stroke="#505050" paint-order="fill stroke markers" d=" M 579.3573269844055 26.18521499633789 L 603.3573269844055 26.18521499633789 L 603.3573269844055 68.18521499633789 L 579.3573269844055 68.18521499633789 L 579.3573269844055 26.18521499633789 Z" stroke-miterlimit="10" stroke-width="0.5" stroke-dasharray=""/><path fill="#F0F0F0" stroke="none" paint-order="stroke fill markers" d=""/><text fill="#505050" stroke="none" font-family="monospace" font-size="14px" font-style="normal" font-weight="normal" text-decoration="normal" x="591.3573269844055" y="44.18521499633789" text-anchor="middle" dominant-baseline="text-after-edge">&amp;</text><path fill="none" stroke="#505050" paint-order="fill stroke markers" d=" M 579.3573269844055 44.18521499633789 L 587.3573269844055 44.18521499633789 L 587.3573269844055 52.18521499633789 L 579.3573269844055 52.18521499633789 L 579.3573269844055 44.18521499633789 Z" stroke-miterlimit="10" stroke-width="0.5" stroke-dasharray=""/><path fill="none" stroke="#505050" paint-order="fill stroke markers" d=" M 579.3573269844055 56.18521499633789 L 587.3573269844055 56.18521499633789 L 587.3573269844055 64.18521499633789 L 579.3573269844055 64.18521499633789 L 579.3573269844055 56.18521499633789 Z" stroke-miterlimit="10" stroke-width="0.5" stroke-dasharray=""/><path fill="none" stroke="#505050" paint-order="fill stroke markers" d=" M 595.3573269844055 44.18521499633789 L 603.3573269844055 44.18521499633789 L 603.3573269844055 52.18521499633789 L 595.3573269844055 52.18521499633789 L 595.3573269844055 44.18521499633789 Z" stroke-miterlimit="10" stroke-width="0.5" stroke-dasharray=""/><path fill="white" stroke="#505050" paint-order="fill stroke markers" d=" M 535.8883137702942 52.155540466308594 L 567.8883137702942 52.155540466308594 L 567.8883137702942 70.1555404663086 L 535.8883137702942 70.1555404663086 L 535.8883137702942 52.155540466308594 Z" stroke-miterlimit="10" stroke-width="0.5" stroke-dasharray=""/><path fill="#F0F0F0" stroke="none" paint-order="stroke fill markers" d=""/><path fill="none" stroke="#505050" paint-order="fill stroke markers" d=" M 559.8883137702942 56.155540466308594 L 567.8883137702942 56.155540466308594 L 567.8883137702942 64.1555404663086 L 559.8883137702942 64.1555404663086 L 559.8883137702942 56.155540466308594 Z" stroke-miterlimit="10" stroke-width="0.5" stroke-dasharray=""/><text fill="#505050" stroke="none" font-family="monospace" font-size="14px" font-style="normal" font-weight="normal" text-decoration="normal" x="551.8883137702942" y="70.1555404663086" text-anchor="end" dominant-baseline="text-after-edge">1</text><path fill="white" stroke="#505050" paint-order="fill stroke markers" d=" M 676.1176199913025 28.95370864868164 L 676.1176199913025 70.95370864868164 Q 676.1176199913025 78.95370864868164 684.1176199913025 78.95370864868164 L 798.4562621116638 78.95370864868164 Q 806.4562621116638 78.95370864868164 806.4562621116638 70.95370864868164 L 806.4562621116638 28.95370864868164 Q 806.4562621116638 20.95370864868164 798.4562621116638 20.95370864868164 L 684.1176199913025 20.95370864868164 Q 676.1176199913025 20.95370864868164 676.1176199913025 28.95370864868164" stroke-miterlimit="10" stroke-width="0.5" stroke-dasharray=""/><path fill="#F0F0F0" stroke="#505050" paint-order="fill stroke markers" d=" M 764.4562621116638 28.95370864868164 L 806.4562621116638 28.95370864868164 L 806.4562621116638 58.95370864868164 L 764.4562621116638 58.95370864868164 L 764.4562621116638 28.95370864868164 Z" stroke-miterlimit="10" stroke-width="0.5" stroke-dasharray=""/><text fill="#505050" stroke="none" font-family="monospace" font-size="14px" font-style="normal" font-weight="normal" text-decoration="normal" x="785.4562621116638" y="46.95370864868164" text-anchor="middle" dominant-baseline="text-after-edge">even</text><path fill="none" stroke="#505050" paint-order="fill stroke markers" d=" M 764.4562621116638 46.95370864868164 L 772.4562621116638 46.95370864868164 L 772.4562621116638 54.95370864868164 L 764.4562621116638 54.95370864868164 L 764.4562621116638 46.95370864868164 Z" stroke-miterlimit="10" stroke-width="0.5" stroke-dasharray=""/><path fill="none" stroke="#505050" paint-order="fill stroke markers" d=" M 798.4562621116638 46.95370864868164 L 806.4562621116638 46.95370864868164 L 806.4562621116638 54.95370864868164 L 798.4562621116638 54.95370864868164 L 798.4562621116638 46.95370864868164 Z" stroke-miterlimit="10" stroke-width="0.5" stroke-dasharray=""/><path fill="white" stroke="#505050" paint-order="fill stroke markers" d=" M 725.7852263450623 30.175296783447266 L 749.7852263450623 30.175296783447266 L 749.7852263450623 60.175296783447266 L 725.7852263450623 60.175296783447266 L 725.7852263450623 30.175296783447266 Z" stroke-miterlimit="10" stroke-width="0.5" stroke-dasharray=""/><path fill="#F0F0F0" stroke="none" paint-order="stroke fill markers" d=""/><text fill="#505050" stroke="none" font-family="monospace" font-size="14px" font-style="normal" font-weight="normal" text-decoration="normal" x="737.7852263450623" y="48.175296783447266" text-anchor="middle" dominant-baseline="text-after-edge">!</text><path fill="none" stroke="#505050" paint-order="fill stroke markers" d=" M 725.7852263450623 48.175296783447266 L 733.7852263450623 48.175296783447266 L 733.7852263450623 56.175296783447266 L 725.7852263450623 56.175296783447266 L 725.7852263450623 48.175296783447266 Z" stroke-miterlimit="10" stroke-width="0.5" stroke-dasharray=""/><path fill="none" stroke="#505050" paint-order="fill stroke markers" d=" M 741.7852263450623 48.175296783447266 L 749.7852263450623 48.175296783447266 L 749.7852263450623 56.175296783447266 L 741.7852263450623 56.175296783447266 L 741.7852263450623 48.175296783447266 Z" stroke-miterlimit="10" stroke-width="0.5" stroke-dasharray=""/><path fill="white" stroke="#505050" paint-order="fill stroke markers" d=" M 684.3414778709412 30.159664154052734 L 717.3414778709412 30.159664154052734 L 717.3414778709412 60.159664154052734 L 684.3414778709412 60.159664154052734 L 684.3414778709412 30.159664154052734 Z" stroke-miterlimit="10" stroke-width="0.5" stroke-dasharray=""/><path fill="#F0F0F0" stroke="none" paint-order="stroke fill markers" d=""/><text fill="#505050" stroke="none" font-family="monospace" font-size="14px" font-style="normal" font-weight="normal" text-decoration="normal" x="700.8414778709412" y="48.159664154052734" text-anchor="middle" dominant-baseline="text-after-edge">odd</text><path fill="none" stroke="#505050" paint-order="fill stroke markers" d=" M 684.3414778709412 48.159664154052734 L 692.3414778709412 48.159664154052734 L 692.3414778709412 56.159664154052734 L 684.3414778709412 56.159664154052734 L 684.3414778709412 48.159664154052734 Z" stroke-miterlimit="10" stroke-width="0.5" stroke-dasharray=""/><path fill="none" stroke="#505050" paint-order="fill stroke markers" d=" M 709.3414778709412 48.159664154052734 L 717.3414778709412 48.159664154052734 L 717.3414778709412 56.159664154052734 L 709.3414778709412 56.159664154052734 L 709.3414778709412 48.159664154052734 Z" stroke-miterlimit="10" stroke-width="0.5" stroke-dasharray=""/><path fill="white" stroke="#505050" paint-order="fill stroke markers" d=" M 830.6981558799744 27.697757720947266 L 830.6981558799744 86.36719131469727 Q 830.6981558799744 94.36719131469727 838.6981558799744 94.36719131469727 L 1041.7201027870178 94.36719131469727 Q 1049.7201027870178 94.36719131469727 1049.7201027870178 86.36719131469727 L 1049.7201027870178 27.697757720947266 Q 1049.7201027870178 19.697757720947266 1041.7201027870178 19.697757720947266 L 838.6981558799744 19.697757720947266 Q 830.6981558799744 19.697757720947266 830.6981558799744 27.697757720947266" stroke-miterlimit="10" stroke-width="0.5" stroke-dasharray=""/><path fill="#F0F0F0" stroke="#505050" paint-order="fill stroke markers" d=" M 1024.7201027870178 27.697757720947266 L 1049.7201027870178 27.697757720947266 L 1049.7201027870178 57.697757720947266 L 1024.7201027870178 57.697757720947266 L 1024.7201027870178 27.697757720947266 Z" stroke-miterlimit="10" stroke-width="0.5" stroke-dasharray=""/><text fill="#505050" stroke="none" font-family="monospace" font-size="14px" font-style="normal" font-weight="normal" text-decoration="normal" x="1037.2201027870178" y="45.697757720947266" text-anchor="middle" dominant-baseline="text-after-edge">/2</text><path fill="none" stroke="#505050" paint-order="fill stroke markers" d=" M 1024.7201027870178 45.697757720947266 L 1032.7201027870178 45.697757720947266 L 1032.7201027870178 53.697757720947266 L 1024.7201027870178 53.697757720947266 L 1024.7201027870178 45.697757720947266 Z" stroke-miterlimit="10" stroke-width="0.5" stroke-dasharray=""/><path fill="none" stroke="#505050" paint-order="fill stroke markers" d=" M 1041.7201027870178 45.697757720947266 L 1049.7201027870178 45.697757720947266 L 1049.7201027870178 53.697757720947266 L 1041.7201027870178 53.697757720947266 L 1041.7201027870178 45.697757720947266 Z" stroke-miterlimit="10" stroke-width="0.5" stroke-dasharray=""/><path fill="white" stroke="#505050" paint-order="fill stroke markers" d=" M 881.5816969871521 24.81423568725586 L 905.5816969871521 24.81423568725586 L 905.5816969871521 66.81423568725586 L 881.5816969871521 66.81423568725586 L 881.5816969871521 24.81423568725586 Z" stroke-miterlimit="10" stroke-width="0.5" stroke-dasharray=""/><path fill="#F0F0F0" stroke="none" paint-order="stroke fill markers" d=""/><text fill="#505050" stroke="none" font-family="monospace" font-size="14px" font-style="normal" font-weight="normal" text-decoration="normal" x="893.5816969871521" y="42.81423568725586" text-anchor="middle" dominant-baseline="text-after-edge">/</text><path fill="none" stroke="#505050" paint-order="fill stroke markers" d=" M 881.5816969871521 42.81423568725586 L 889.5816969871521 42.81423568725586 L 889.5816969871521 50.81423568725586 L 881.5816969871521 50.81423568725586 L 881.5816969871521 42.81423568725586 Z" stroke-miterlimit="10" stroke-width="0.5" stroke-dasharray=""/><path fill="none" stroke="#505050" paint-order="fill stroke markers" d=" M 881.5816969871521 54.81423568725586 L 889.5816969871521 54.81423568725586 L 889.5816969871521 62.81423568725586 L 881.5816969871521 62.81423568725586 L 881.5816969871521 54.81423568725586 Z" stroke-miterlimit="10" stroke-width="0.5" stroke-dasharray=""/><path fill="none" stroke="#505050" paint-order="fill stroke markers" d=" M 897.5816969871521 42.81423568725586 L 905.5816969871521 42.81423568725586 L 905.5816969871521 50.81423568725586 L 897.5816969871521 50.81423568725586 L 897.5816969871521 42.81423568725586 Z" stroke-miterlimit="10" stroke-width="0.5" stroke-dasharray=""/><path fill="white" stroke="#505050" paint-order="fill stroke markers" d=" M 835.4098258018494 50.836090087890625 L 867.4098258018494 50.836090087890625 L 867.4098258018494 68.83609008789062 L 835.4098258018494 68.83609008789062 L 835.4098258018494 50.836090087890625 Z" stroke-miterlimit="10" stroke-width="0.5" stroke-dasharray=""/><path fill="#F0F0F0" stroke="none" paint-order="stroke fill markers" d=""/><path fill="none" stroke="#505050" paint-order="fill stroke markers" d=" M 859.4098258018494 54.836090087890625 L 867.4098258018494 54.836090087890625 L 867.4098258018494 62.836090087890625 L 859.4098258018494 62.836090087890625 L 859.4098258018494 54.836090087890625 Z" stroke-miterlimit="10" stroke-width="0.5" stroke-dasharray=""/><text fill="#505050" stroke="none" font-family="monospace" font-size="14px" font-style="normal" font-weight="normal" text-decoration="normal" x="851.4098258018494" y="68.83609008789062" text-anchor="end" dominant-baseline="text-after-edge">2</text><path fill="white" stroke="#505050" paint-order="fill stroke markers" d=" M 919.4047951698303 25.139209747314453 L 1011.4047951698303 25.139209747314453 L 1011.4047951698303 55.13920974731445 L 919.4047951698303 55.13920974731445 L 919.4047951698303 25.139209747314453 Z" stroke-miterlimit="10" stroke-width="0.5" stroke-dasharray=""/><path fill="#F0F0F0" stroke="none" paint-order="stroke fill markers" d=""/><text fill="#505050" stroke="none" font-family="monospace" font-size="14px" font-style="normal" font-weight="normal" text-decoration="normal" x="965.4047951698303" y="43.13920974731445" text-anchor="middle" dominant-baseline="text-after-edge">Math.floor</text><path fill="none" stroke="#505050" paint-order="fill stroke markers" d=" M 919.4047951698303 43.13920974731445 L 927.4047951698303 43.13920974731445 L 927.4047951698303 51.13920974731445 L 919.4047951698303 51.13920974731445 L 919.4047951698303 43.13920974731445 Z" stroke-miterlimit="10" stroke-width="0.5" stroke-dasharray=""/><path fill="none" stroke="#505050" paint-order="fill stroke markers" d=" M 1003.4047951698303 43.13920974731445 L 1011.4047951698303 43.13920974731445 L 1011.4047951698303 51.13920974731445 L 1003.4047951698303 51.13920974731445 L 1003.4047951698303 43.13920974731445 Z" stroke-miterlimit="10" stroke-width="0.5" stroke-dasharray=""/><path fill="white" stroke="#505050" paint-order="fill stroke markers" d=" M 390.88829803466797 126.76425552368164 L 390.88829803466797 505.0430221557617 Q 390.88829803466797 513.0430221557617 398.88829803466797 513.0430221557617 L 992.5654907226562 513.0430221557617 Q 1000.5654907226562 513.0430221557617 1000.5654907226562 505.0430221557617 L 1000.5654907226562 126.76425552368164 Q 1000.5654907226562 118.76425552368164 992.5654907226562 118.76425552368164 L 398.88829803466797 118.76425552368164 Q 390.88829803466797 118.76425552368164 390.88829803466797 126.76425552368164" stroke-miterlimit="10" stroke-width="0.5" stroke-dasharray=""/><path fill="#F0F0F0" stroke="#505050" paint-order="fill stroke markers" d=" M 927.5654907226562 126.76425552368164 L 1000.5654907226562 126.76425552368164 L 1000.5654907226562 218.76425552368164 L 927.5654907226562 218.76425552368164 L 927.5654907226562 126.76425552368164 Z" stroke-miterlimit="10" stroke-width="0.5" stroke-dasharray=""/><text fill="#505050" stroke="none" font-family="monospace" font-size="14px" font-style="normal" font-weight="normal" text-decoration="normal" x="964.0654907226562" y="144.76425552368164" text-anchor="middle" dominant-baseline="text-after-edge">xⁿ</text><path fill="none" stroke="#505050" paint-order="fill stroke markers" d=" M 927.5654907226562 144.76425552368164 L 935.5654907226562 144.76425552368164 L 935.5654907226562 152.76425552368164 L 927.5654907226562 152.76425552368164 L 927.5654907226562 144.76425552368164 Z" stroke-miterlimit="10" stroke-width="0.5" stroke-dasharray=""/><text fill="#505050" stroke="none" font-family="monospace" font-size="14px" font-style="normal" font-weight="normal" text-decoration="normal" x="943.5654907226562" y="158.76425552368164" text-anchor="start" dominant-baseline="text-after-edge">x</text><path fill="none" stroke="#505050" paint-order="fill stroke markers" d=" M 927.5654907226562 158.76425552368164 L 935.5654907226562 158.76425552368164 L 935.5654907226562 166.76425552368164 L 927.5654907226562 166.76425552368164 L 927.5654907226562 158.76425552368164 Z" stroke-miterlimit="10" stroke-width="0.5" stroke-dasharray=""/><text fill="#505050" stroke="none" font-family="monospace" font-size="14px" font-style="normal" font-weight="normal" text-decoration="normal" x="943.5654907226562" y="172.76425552368164" text-anchor="start" dominant-baseline="text-after-edge">n</text><path fill="none" stroke="#505050" paint-order="fill stroke markers" d=" M 927.5654907226562 172.76425552368164 L 935.5654907226562 172.76425552368164 L 935.5654907226562 180.76425552368164 L 927.5654907226562 180.76425552368164 L 927.5654907226562 172.76425552368164 Z" stroke-miterlimit="10" stroke-width="0.5" stroke-dasharray=""/><text fill="#505050" stroke="none" font-family="monospace" font-size="14px" font-style="normal" font-weight="normal" text-decoration="normal" x="943.5654907226562" y="186.76425552368164" text-anchor="start" dominant-baseline="text-after-edge">unit</text><path fill="none" stroke="#505050" paint-order="fill stroke markers" d=" M 927.5654907226562 186.76425552368164 L 951.5654907226562 186.76425552368164 L 951.5654907226562 214.76425552368164 L 927.5654907226562 214.76425552368164 L 927.5654907226562 186.76425552368164 Z" stroke-miterlimit="10" stroke-width="0.5" stroke-dasharray=""/><path fill="none" stroke="#505050" paint-order="fill stroke markers" d=" M 927.5654907226562 190.76425552368164 L 935.5654907226562 190.76425552368164 L 935.5654907226562 198.76425552368164 L 927.5654907226562 198.76425552368164 L 927.5654907226562 190.76425552368164 Z" stroke-miterlimit="10" stroke-width="0.5" stroke-dasharray=""/><path fill="none" stroke="#505050" paint-order="fill stroke markers" d=" M 927.5654907226562 202.76425552368164 L 935.5654907226562 202.76425552368164 L 935.5654907226562 210.76425552368164 L 927.5654907226562 210.76425552368164 L 927.5654907226562 202.76425552368164 Z" stroke-miterlimit="10" stroke-width="0.5" stroke-dasharray=""/><path fill="none" stroke="#505050" paint-order="fill stroke markers" d=" M 943.5654907226562 190.76425552368164 L 951.5654907226562 190.76425552368164 L 951.5654907226562 198.76425552368164 L 943.5654907226562 198.76425552368164 L 943.5654907226562 190.76425552368164 Z" stroke-miterlimit="10" stroke-width="0.5" stroke-dasharray=""/><text fill="#505050" stroke="none" font-family="monospace" font-size="14px" font-style="normal" font-weight="normal" text-decoration="normal" x="959.5654907226562" y="209.76425552368164" text-anchor="start" dominant-baseline="text-after-edge">mul</text><path fill="none" stroke="#505050" paint-order="fill stroke markers" d=" M 992.5654907226562 144.76425552368164 L 1000.5654907226562 144.76425552368164 L 1000.5654907226562 152.76425552368164 L 992.5654907226562 152.76425552368164 L 992.5654907226562 144.76425552368164 Z" stroke-miterlimit="10" stroke-width="0.5" stroke-dasharray=""/><path fill="none" stroke="none"/><path fill="white" stroke="#505050" paint-order="fill stroke markers" d=" M 402.6993942260742 404.45042419433594 L 451.6993942260742 404.45042419433594 L 451.6993942260742 454.45042419433594 L 402.6993942260742 454.45042419433594 L 410.6993942260742 429.45042419433594 L 402.6993942260742 404.45042419433594" stroke-miterlimit="10" stroke-width="0.5" stroke-dasharray=""/><path fill="#F0F0F0" stroke="none" paint-order="stroke fill markers" d=" M 418.6993942260742 408.45042419433594 L 451.6993942260742 408.45042419433594 L 451.6993942260742 450.45042419433594 L 418.6993942260742 450.45042419433594 L 418.6993942260742 408.45042419433594 Z"/><path fill="none" stroke="#505050" paint-order="fill stroke markers" d=" M 418.6993942260742 408.45042419433594 L 451.6993942260742 408.45042419433594 L 451.6993942260742 450.45042419433594 L 418.6993942260742 450.45042419433594 L 418.6993942260742 408.45042419433594 Z" stroke-miterlimit="10" stroke-width="0.5" stroke-dasharray=""/><text fill="#505050" stroke="none" font-family="monospace" font-size="14px" font-style="normal" font-weight="normal" text-decoration="normal" x="435.1993942260742" y="426.45042419433594" text-anchor="middle" dominant-baseline="text-after-edge">mul</text><path fill="none" stroke="#505050" paint-order="fill stroke markers" d=" M 418.6993942260742 426.45042419433594 L 426.6993942260742 426.45042419433594 L 426.6993942260742 434.45042419433594 L 418.6993942260742 434.45042419433594 L 418.6993942260742 426.45042419433594 Z" stroke-miterlimit="10" stroke-width="0.5" stroke-dasharray=""/><path fill="none" stroke="#505050" paint-order="fill stroke markers" d=" M 418.6993942260742 438.45042419433594 L 426.6993942260742 438.45042419433594 L 426.6993942260742 446.45042419433594 L 418.6993942260742 446.45042419433594 L 418.6993942260742 438.45042419433594 Z" stroke-miterlimit="10" stroke-width="0.5" stroke-dasharray=""/><path fill="none" stroke="#505050" paint-order="fill stroke markers" d=" M 443.6993942260742 426.45042419433594 L 451.6993942260742 426.45042419433594 L 451.6993942260742 434.45042419433594 L 443.6993942260742 434.45042419433594 L 443.6993942260742 426.45042419433594 Z" stroke-miterlimit="10" stroke-width="0.5" stroke-dasharray=""/><path fill="none" stroke="#505050" paint-order="fill stroke markers" d=" M 418.6993942260742 408.45042419433594 L 451.6993942260742 408.45042419433594 L 451.6993942260742 450.45042419433594 L 418.6993942260742 450.45042419433594 L 418.6993942260742 408.45042419433594 Z" stroke-miterlimit="10" stroke-width="0.5" stroke-dasharray="6,3"/><path fill="#F0F0F0" stroke="none" paint-order="stroke fill markers" d=""/><text fill="#505050" stroke="none" font-family="monospace" font-size="14px" font-style="normal" font-weight="normal" text-decoration="normal" x="435.1993942260742" y="426.45042419433594" text-anchor="middle" dominant-baseline="text-after-edge">mul</text><path fill="none" stroke="#505050" paint-order="fill stroke markers" d=" M 418.6993942260742 426.45042419433594 L 426.6993942260742 426.45042419433594 L 426.6993942260742 434.45042419433594 L 418.6993942260742 434.45042419433594 L 418.6993942260742 426.45042419433594 Z" stroke-miterlimit="10" stroke-width="0.5" stroke-dasharray="0"/><path fill="none" stroke="#505050" paint-order="fill stroke markers" d=" M 418.6993942260742 438.45042419433594 L 426.6993942260742 438.45042419433594 L 426.6993942260742 446.45042419433594 L 418.6993942260742 446.45042419433594 L 418.6993942260742 438.45042419433594 Z" stroke-miterlimit="10" stroke-width="0.5" stroke-dasharray="0"/><path fill="none" stroke="#505050" paint-order="fill stroke markers" d=" M 443.6993942260742 426.45042419433594 L 451.6993942260742 426.45042419433594 L 451.6993942260742 434.45042419433594 L 443.6993942260742 434.45042419433594 L 443.6993942260742 426.45042419433594 Z" stroke-miterlimit="10" stroke-width="0.5" stroke-dasharray="0"/><path fill="white" stroke="#505050" paint-order="fill stroke markers" d=" M 460.73500975966454 134.76425552368164 L 460.73500975966454 303.6642646789551 Q 460.73500975966454 311.6642646789551 468.73500975966454 311.6642646789551 L 883.681812286377 311.6642646789551 Q 891.681812286377 311.6642646789551 891.681812286377 303.6642646789551 L 891.681812286377 134.76425552368164 Q 891.681812286377 126.76425552368164 883.681812286377 126.76425552368164 L 468.73500975966454 126.76425552368164 Q 460.73500975966454 126.76425552368164 460.73500975966454 134.76425552368164" stroke-miterlimit="10" stroke-width="0.5" stroke-dasharray="0"/><path fill="#F0F0F0" stroke="#505050" paint-order="fill stroke markers" d=" M 824.681812286377 134.76425552368164 L 891.681812286377 134.76425552368164 L 891.681812286377 194.76425552368164 L 824.681812286377 194.76425552368164 L 824.681812286377 134.76425552368164 Z" stroke-miterlimit="10" stroke-width="0.5" stroke-dasharray="0"/><text fill="#505050" stroke="none" font-family="monospace" font-size="14px" font-style="normal" font-weight="normal" text-decoration="normal" x="858.181812286377" y="152.76425552368164" text-anchor="middle" dominant-baseline="text-after-edge">expStep</text><path fill="none" stroke="#505050" paint-order="fill stroke markers" d=" M 824.681812286377 152.76425552368164 L 832.681812286377 152.76425552368164 L 832.681812286377 160.76425552368164 L 824.681812286377 160.76425552368164 L 824.681812286377 152.76425552368164 Z" stroke-miterlimit="10" stroke-width="0.5" stroke-dasharray="0"/><text fill="#505050" stroke="none" font-family="monospace" font-size="14px" font-style="normal" font-weight="normal" text-decoration="normal" x="840.681812286377" y="166.76425552368164" text-anchor="start" dominant-baseline="text-after-edge">n</text><path fill="none" stroke="#505050" paint-order="fill stroke markers" d=" M 824.681812286377 166.76425552368164 L 832.681812286377 166.76425552368164 L 832.681812286377 174.76425552368164 L 824.681812286377 174.76425552368164 L 824.681812286377 166.76425552368164 Z" stroke-miterlimit="10" stroke-width="0.5" stroke-dasharray="0"/><text fill="#505050" stroke="none" font-family="monospace" font-size="14px" font-style="normal" font-weight="normal" text-decoration="normal" x="840.681812286377" y="180.76425552368164" text-anchor="start" dominant-baseline="text-after-edge">y</text><path fill="none" stroke="#505050" paint-order="fill stroke markers" d=" M 824.681812286377 180.76425552368164 L 832.681812286377 180.76425552368164 L 832.681812286377 188.76425552368164 L 824.681812286377 188.76425552368164 L 824.681812286377 180.76425552368164 Z" stroke-miterlimit="10" stroke-width="0.5" stroke-dasharray="0"/><text fill="#505050" stroke="none" font-family="monospace" font-size="14px" font-style="normal" font-weight="normal" text-decoration="normal" x="840.681812286377" y="194.76425552368164" text-anchor="start" dominant-baseline="text-after-edge">x</text><path fill="none" stroke="#505050" paint-order="fill stroke markers" d=" M 883.681812286377 152.76425552368164 L 891.681812286377 152.76425552368164 L 891.681812286377 160.76425552368164 L 883.681812286377 160.76425552368164 L 883.681812286377 152.76425552368164 Z" stroke-miterlimit="10" stroke-width="0.5" stroke-dasharray="0"/><path fill="white" stroke="#505050" paint-order="fill stroke markers" d=" M 468.6600337922573 158.0111541748047 L 500.6600337922573 158.0111541748047 L 500.6600337922573 176.0111541748047 L 468.6600337922573 176.0111541748047 L 476.6600337922573 167.0111541748047 L 468.6600337922573 158.0111541748047" stroke-miterlimit="10" stroke-width="0.5" stroke-dasharray="0"/><path fill="none" stroke="#505050" paint-order="fill stroke markers" d=" M 492.6600337922573 162.0111541748047 L 500.6600337922573 162.0111541748047 L 500.6600337922573 170.0111541748047 L 492.6600337922573 170.0111541748047 L 492.6600337922573 162.0111541748047 Z" stroke-miterlimit="10" stroke-width="0.5" stroke-dasharray="0"/><text fill="#505050" stroke="none" font-family="monospace" font-size="14px" font-style="normal" font-weight="normal" text-decoration="normal" x="484.6600337922573" y="176.0111541748047" text-anchor="end" dominant-baseline="text-after-edge">n</text><path fill="white" stroke="#505050" paint-order="fill stroke markers" d=" M 469.03826293349266 265.1017723083496 L 501.03826293349266 265.1017723083496 L 501.03826293349266 283.1017723083496 L 469.03826293349266 283.1017723083496 L 477.03826293349266 274.1017723083496 L 469.03826293349266 265.1017723083496" stroke-miterlimit="10" stroke-width="0.5" stroke-dasharray="0"/><path fill="none" stroke="#505050" paint-order="fill stroke markers" d=" M 493.03826293349266 269.1017723083496 L 501.03826293349266 269.1017723083496 L 501.03826293349266 277.1017723083496 L 493.03826293349266 277.1017723083496 L 493.03826293349266 269.1017723083496 Z" stroke-miterlimit="10" stroke-width="0.5" stroke-dasharray="0"/><text fill="#505050" stroke="none" font-family="monospace" font-size="14px" font-style="normal" font-weight="normal" text-decoration="normal" x="485.03826293349266" y="283.1017723083496" text-anchor="end" dominant-baseline="text-after-edge">x</text><path fill="white" stroke="#505050" paint-order="fill stroke markers" d=" M 467.7038513123989 198.6485939025879 L 499.7038513123989 198.6485939025879 L 499.7038513123989 216.6485939025879 L 467.7038513123989 216.6485939025879 L 475.7038513123989 207.6485939025879 L 467.7038513123989 198.6485939025879" stroke-miterlimit="10" stroke-width="0.5" stroke-dasharray="0"/><path fill="none" stroke="#505050" paint-order="fill stroke markers" d=" M 491.7038513123989 202.6485939025879 L 499.7038513123989 202.6485939025879 L 499.7038513123989 210.6485939025879 L 491.7038513123989 210.6485939025879 L 491.7038513123989 202.6485939025879 Z" stroke-miterlimit="10" stroke-width="0.5" stroke-dasharray="0"/><text fill="#505050" stroke="none" font-family="monospace" font-size="14px" font-style="normal" font-weight="normal" text-decoration="normal" x="483.7038513123989" y="216.6485939025879" text-anchor="end" dominant-baseline="text-after-edge">y</text><path fill="white" stroke="#505050" paint-order="fill stroke markers" d=" M 796.1934263706207 157.01633214950562 L 804.1934263706207 157.01633214950562 L 812.1934263706207 165.01633214950562 L 804.1934263706207 173.01633214950562 L 796.1934263706207 173.01633214950562 L 796.1934263706207 157.01633214950562" stroke-miterlimit="10" stroke-width="0.5" stroke-dasharray="0"/><path fill="none" stroke="#505050" paint-order="fill stroke markers" d=" M 796.1934263706207 161.01633214950562 L 804.1934263706207 161.01633214950562 L 804.1934263706207 169.01633214950562 L 796.1934263706207 169.01633214950562 L 796.1934263706207 161.01633214950562 Z" stroke-miterlimit="10" stroke-width="0.5" stroke-dasharray="0"/><path fill="white" stroke="#505050" paint-order="fill stroke markers" d=" M 524.0538008213043 134.1173415184021 L 566.0538008213043 134.1173415184021 L 566.0538008213043 164.1173415184021 L 524.0538008213043 164.1173415184021 L 524.0538008213043 134.1173415184021 Z" stroke-miterlimit="10" stroke-width="0.5" stroke-dasharray="0"/><path fill="#F0F0F0" stroke="none" paint-order="stroke fill markers" d=""/><text fill="#505050" stroke="none" font-family="monospace" font-size="14px" font-style="normal" font-weight="normal" text-decoration="normal" x="545.0538008213043" y="152.1173415184021" text-anchor="middle" dominant-baseline="text-after-edge">== 0</text><path fill="none" stroke="#505050" paint-order="fill stroke markers" d=" M 524.0538008213043 152.1173415184021 L 532.0538008213043 152.1173415184021 L 532.0538008213043 160.1173415184021 L 524.0538008213043 160.1173415184021 L 524.0538008213043 152.1173415184021 Z" stroke-miterlimit="10" stroke-width="0.5" stroke-dasharray="0"/><path fill="none" stroke="#505050" paint-order="fill stroke markers" d=" M 558.0538008213043 152.1173415184021 L 566.0538008213043 152.1173415184021 L 566.0538008213043 160.1173415184021 L 558.0538008213043 160.1173415184021 L 558.0538008213043 152.1173415184021 Z" stroke-miterlimit="10" stroke-width="0.5" stroke-dasharray="0"/><path fill="white" stroke="#505050" paint-order="fill stroke markers" d=" M 759.976934671402 142.96057271957397 L 783.976934671402 142.96057271957397 L 783.976934671402 196.96057271957397 L 759.976934671402 196.96057271957397 L 759.976934671402 142.96057271957397 Z" stroke-miterlimit="10" stroke-width="0.5" stroke-dasharray="0"/><path fill="#F0F0F0" stroke="none" paint-order="stroke fill markers" d=""/><text fill="#505050" stroke="none" font-family="monospace" font-size="14px" font-style="normal" font-weight="normal" text-decoration="normal" x="771.976934671402" y="160.96057271957397" text-anchor="middle" dominant-baseline="text-after-edge">?</text><path fill="none" stroke="#505050" paint-order="fill stroke markers" d=" M 759.976934671402 160.96057271957397 L 767.976934671402 160.96057271957397 L 767.976934671402 168.96057271957397 L 759.976934671402 168.96057271957397 L 759.976934671402 160.96057271957397 Z" stroke-miterlimit="10" stroke-width="0.5" stroke-dasharray="0"/><path fill="none" stroke="#505050" paint-order="fill stroke markers" d=" M 759.976934671402 172.96057271957397 L 767.976934671402 172.96057271957397 L 767.976934671402 180.96057271957397 L 759.976934671402 180.96057271957397 L 759.976934671402 172.96057271957397 Z" stroke-miterlimit="10" stroke-width="0.5" stroke-dasharray="0"/><path fill="none" stroke="#505050" paint-order="fill stroke markers" d=" M 759.976934671402 184.96057271957397 L 767.976934671402 184.96057271957397 L 767.976934671402 192.96057271957397 L 759.976934671402 192.96057271957397 L 759.976934671402 184.96057271957397 Z" stroke-miterlimit="10" stroke-width="0.5" stroke-dasharray="0"/><path fill="none" stroke="#505050" paint-order="fill stroke markers" d=" M 775.976934671402 160.96057271957397 L 783.976934671402 160.96057271957397 L 783.976934671402 168.96057271957397 L 775.976934671402 168.96057271957397 L 775.976934671402 160.96057271957397 Z" stroke-miterlimit="10" stroke-width="0.5" stroke-dasharray="0"/><path fill="white" stroke="#505050" paint-order="fill stroke markers" d=" M 548.1461424827576 228.70758438110352 L 613.1461424827576 228.70758438110352 L 613.1461424827576 288.7075843811035 L 548.1461424827576 288.7075843811035 L 548.1461424827576 228.70758438110352 Z" stroke-miterlimit="10" stroke-width="0.5" stroke-dasharray="0"/><path fill="#F0F0F0" stroke="none" paint-order="stroke fill markers" d=""/><text fill="#505050" stroke="none" font-family="monospace" font-size="14px" font-style="normal" font-weight="normal" text-decoration="normal" x="580.6461424827576" y="246.70758438110352" text-anchor="middle" dominant-baseline="text-after-edge">muls</text><path fill="none" stroke="#505050" paint-order="fill stroke markers" d=" M 548.1461424827576 246.70758438110352 L 556.1461424827576 246.70758438110352 L 556.1461424827576 254.70758438110352 L 548.1461424827576 254.70758438110352 L 548.1461424827576 246.70758438110352 Z" stroke-miterlimit="10" stroke-width="0.5" stroke-dasharray="0"/><text fill="#505050" stroke="none" font-family="monospace" font-size="14px" font-style="normal" font-weight="normal" text-decoration="normal" x="564.1461424827576" y="260.7075843811035" text-anchor="start" dominant-baseline="text-after-edge">n</text><path fill="none" stroke="#505050" paint-order="fill stroke markers" d=" M 548.1461424827576 260.7075843811035 L 556.1461424827576 260.7075843811035 L 556.1461424827576 268.7075843811035 L 548.1461424827576 268.7075843811035 L 548.1461424827576 260.7075843811035 Z" stroke-miterlimit="10" stroke-width="0.5" stroke-dasharray="0"/><text fill="#505050" stroke="none" font-family="monospace" font-size="14px" font-style="normal" font-weight="normal" text-decoration="normal" x="564.1461424827576" y="274.7075843811035" text-anchor="start" dominant-baseline="text-after-edge">y</text><path fill="none" stroke="#505050" paint-order="fill stroke markers" d=" M 548.1461424827576 274.7075843811035 L 556.1461424827576 274.7075843811035 L 556.1461424827576 282.7075843811035 L 548.1461424827576 282.7075843811035 L 548.1461424827576 274.7075843811035 Z" stroke-miterlimit="10" stroke-width="0.5" stroke-dasharray="0"/><text fill="#505050" stroke="none" font-family="monospace" font-size="14px" font-style="normal" font-weight="normal" text-decoration="normal" x="564.1461424827576" y="288.7075843811035" text-anchor="start" dominant-baseline="text-after-edge">x</text><path fill="none" stroke="#505050" paint-order="fill stroke markers" d=" M 605.1461424827576 246.70758438110352 L 613.1461424827576 246.70758438110352 L 613.1461424827576 254.70758438110352 L 605.1461424827576 254.70758438110352 L 605.1461424827576 246.70758438110352 Z" stroke-miterlimit="10" stroke-width="0.5" stroke-dasharray="0"/><text fill="#505050" stroke="none" font-family="monospace" font-size="14px" font-style="normal" font-weight="normal" text-decoration="normal" x="597.1461424827576" y="260.7075843811035" text-anchor="end" dominant-baseline="text-after-edge">y'</text><path fill="none" stroke="#505050" paint-order="fill stroke markers" d=" M 605.1461424827576 260.7075843811035 L 613.1461424827576 260.7075843811035 L 613.1461424827576 268.7075843811035 L 605.1461424827576 268.7075843811035 L 605.1461424827576 260.7075843811035 Z" stroke-miterlimit="10" stroke-width="0.5" stroke-dasharray="0"/><text fill="#505050" stroke="none" font-family="monospace" font-size="14px" font-style="normal" font-weight="normal" text-decoration="normal" x="597.1461424827576" y="274.7075843811035" text-anchor="end" dominant-baseline="text-after-edge">x'</text><path fill="white" stroke="#505050" paint-order="fill stroke markers" d=" M 671.2499022483826 214.06564331054688 L 738.2499022483826 214.06564331054688 L 738.2499022483826 274.0656433105469 L 671.2499022483826 274.0656433105469 L 671.2499022483826 214.06564331054688 Z" stroke-miterlimit="10" stroke-width="0.5" stroke-dasharray="0"/><path fill="#F0F0F0" stroke="none" paint-order="stroke fill markers" d=""/><text fill="#505050" stroke="none" font-family="monospace" font-size="14px" font-style="normal" font-weight="normal" text-decoration="normal" x="704.7499022483826" y="232.06564331054688" text-anchor="middle" dominant-baseline="text-after-edge">expStep</text><path fill="none" stroke="#505050" paint-order="fill stroke markers" d=" M 671.2499022483826 232.06564331054688 L 679.2499022483826 232.06564331054688 L 679.2499022483826 240.06564331054688 L 671.2499022483826 240.06564331054688 L 671.2499022483826 232.06564331054688 Z" stroke-miterlimit="10" stroke-width="0.5" stroke-dasharray="0"/><text fill="#505050" stroke="none" font-family="monospace" font-size="14px" font-style="normal" font-weight="normal" text-decoration="normal" x="687.2499022483826" y="246.06564331054688" text-anchor="start" dominant-baseline="text-after-edge">n</text><path fill="none" stroke="#505050" paint-order="fill stroke markers" d=" M 671.2499022483826 246.06564331054688 L 679.2499022483826 246.06564331054688 L 679.2499022483826 254.06564331054688 L 671.2499022483826 254.06564331054688 L 671.2499022483826 246.06564331054688 Z" stroke-miterlimit="10" stroke-width="0.5" stroke-dasharray="0"/><text fill="#505050" stroke="none" font-family="monospace" font-size="14px" font-style="normal" font-weight="normal" text-decoration="normal" x="687.2499022483826" y="260.0656433105469" text-anchor="start" dominant-baseline="text-after-edge">y</text><path fill="none" stroke="#505050" paint-order="fill stroke markers" d=" M 671.2499022483826 260.0656433105469 L 679.2499022483826 260.0656433105469 L 679.2499022483826 268.0656433105469 L 671.2499022483826 268.0656433105469 L 671.2499022483826 260.0656433105469 Z" stroke-miterlimit="10" stroke-width="0.5" stroke-dasharray="0"/><text fill="#505050" stroke="none" font-family="monospace" font-size="14px" font-style="normal" font-weight="normal" text-decoration="normal" x="687.2499022483826" y="274.0656433105469" text-anchor="start" dominant-baseline="text-after-edge">x</text><path fill="none" stroke="#505050" paint-order="fill stroke markers" d=" M 730.2499022483826 232.06564331054688 L 738.2499022483826 232.06564331054688 L 738.2499022483826 240.06564331054688 L 730.2499022483826 240.06564331054688 L 730.2499022483826 232.06564331054688 Z" stroke-miterlimit="10" stroke-width="0.5" stroke-dasharray="0"/><path fill="#e0e0e0" stroke="none" paint-order="stroke fill markers" d=" M 899.681812286377 164.76425552368164 L 891.681812286377 134.76425552368164 L 891.681812286377 194.76425552368164 Z M 663.2499022483826 244.06564331054688 L 671.2499022483826 214.06564331054688 L 671.2499022483826 274.0656433105469 Z"/><path fill="none" stroke="none"/><path fill="none" stroke="#e0e0e0" paint-order="fill stroke markers" d=" M 899.681812286377 164.76425552368164 C 974.4948341276469 164.76425552368164 588.4368804071127 244.06564331054688 663.2499022483826 244.06564331054688" stroke-miterlimit="10" stroke-width="2" stroke-dasharray="0"/><path fill="white" stroke="#505050" paint-order="fill stroke markers" d=" M 627.1662840843201 207.72048950195312 L 652.1662840843201 207.72048950195312 L 652.1662840843201 237.72048950195312 L 627.1662840843201 237.72048950195312 L 627.1662840843201 207.72048950195312 Z" stroke-miterlimit="10" stroke-width="0.5" stroke-dasharray="0"/><path fill="#F0F0F0" stroke="none" paint-order="stroke fill markers" d=""/><text fill="#505050" stroke="none" font-family="monospace" font-size="14px" font-style="normal" font-weight="normal" text-decoration="normal" x="639.6662840843201" y="225.72048950195312" text-anchor="middle" dominant-baseline="text-after-edge">/2</text><path fill="none" stroke="#505050" paint-order="fill stroke markers" d=" M 627.1662840843201 225.72048950195312 L 635.1662840843201 225.72048950195312 L 635.1662840843201 233.72048950195312 L 627.1662840843201 233.72048950195312 L 627.1662840843201 225.72048950195312 Z" stroke-miterlimit="10" stroke-width="0.5" stroke-dasharray="0"/><path fill="none" stroke="#505050" paint-order="fill stroke markers" d=" M 644.1662840843201 225.72048950195312 L 652.1662840843201 225.72048950195312 L 652.1662840843201 233.72048950195312 L 644.1662840843201 233.72048950195312 L 644.1662840843201 225.72048950195312 Z" stroke-miterlimit="10" stroke-width="0.5" stroke-dasharray="0"/><path fill="white" stroke="#505050" paint-order="fill stroke markers" d=" M 911.1343994140625 328.64048767089844 L 978.1343994140625 328.64048767089844 L 978.1343994140625 388.64048767089844 L 911.1343994140625 388.64048767089844 L 911.1343994140625 328.64048767089844 Z" stroke-miterlimit="10" stroke-width="0.5" stroke-dasharray="0"/><path fill="#F0F0F0" stroke="none" paint-order="stroke fill markers" d=""/><text fill="#505050" stroke="none" font-family="monospace" font-size="14px" font-style="normal" font-weight="normal" text-decoration="normal" x="944.6343994140625" y="346.64048767089844" text-anchor="middle" dominant-baseline="text-after-edge">expStep</text><path fill="none" stroke="#505050" paint-order="fill stroke markers" d=" M 911.1343994140625 346.64048767089844 L 919.1343994140625 346.64048767089844 L 919.1343994140625 354.64048767089844 L 911.1343994140625 354.64048767089844 L 911.1343994140625 346.64048767089844 Z" stroke-miterlimit="10" stroke-width="0.5" stroke-dasharray="0"/><text fill="#505050" stroke="none" font-family="monospace" font-size="14px" font-style="normal" font-weight="normal" text-decoration="normal" x="927.1343994140625" y="360.64048767089844" text-anchor="start" dominant-baseline="text-after-edge">n</text><path fill="none" stroke="#505050" paint-order="fill stroke markers" d=" M 911.1343994140625 360.64048767089844 L 919.1343994140625 360.64048767089844 L 919.1343994140625 368.64048767089844 L 911.1343994140625 368.64048767089844 L 911.1343994140625 360.64048767089844 Z" stroke-miterlimit="10" stroke-width="0.5" stroke-dasharray="0"/><text fill="#505050" stroke="none" font-family="monospace" font-size="14px" font-style="normal" font-weight="normal" text-decoration="normal" x="927.1343994140625" y="374.64048767089844" text-anchor="start" dominant-baseline="text-after-edge">y</text><path fill="none" stroke="#505050" paint-order="fill stroke markers" d=" M 911.1343994140625 374.64048767089844 L 919.1343994140625 374.64048767089844 L 919.1343994140625 382.64048767089844 L 911.1343994140625 382.64048767089844 L 911.1343994140625 374.64048767089844 Z" stroke-miterlimit="10" stroke-width="0.5" stroke-dasharray="0"/><text fill="#505050" stroke="none" font-family="monospace" font-size="14px" font-style="normal" font-weight="normal" text-decoration="normal" x="927.1343994140625" y="388.64048767089844" text-anchor="start" dominant-baseline="text-after-edge">x</text><path fill="none" stroke="#505050" paint-order="fill stroke markers" d=" M 970.1343994140625 346.64048767089844 L 978.1343994140625 346.64048767089844 L 978.1343994140625 354.64048767089844 L 970.1343994140625 354.64048767089844 L 970.1343994140625 346.64048767089844 Z" stroke-miterlimit="10" stroke-width="0.5" stroke-dasharray="0"/><path fill="#e0e0e0" stroke="none" paint-order="stroke fill markers" d=" M 899.681812286377 164.76425552368164 L 891.681812286377 134.76425552368164 L 891.681812286377 194.76425552368164 Z M 903.1343994140625 358.64048767089844 L 911.1343994140625 328.64048767089844 L 911.1343994140625 388.64048767089844 Z"/><path fill="none" stroke="none"/><path fill="none" stroke="#e0e0e0" paint-order="fill stroke markers" d=" M 899.681812286377 164.76425552368164 C 957.8539038548672 164.76425552368164 844.9623078455722 358.64048767089844 903.1343994140625 358.64048767089844" stroke-miterlimit="10" stroke-width="2" stroke-dasharray="0"/><path fill="white" stroke="#505050" paint-order="fill stroke markers" d=" M 828.3536100387573 352.1029386520386 L 860.3536100387573 352.1029386520386 L 860.3536100387573 370.1029386520386 L 828.3536100387573 370.1029386520386 L 836.3536100387573 361.1029386520386 L 828.3536100387573 352.1029386520386" stroke-miterlimit="10" stroke-width="0.5" stroke-dasharray="0"/><path fill="none" stroke="#505050" paint-order="fill stroke markers" d=" M 852.3536100387573 356.1029386520386 L 860.3536100387573 356.1029386520386 L 860.3536100387573 364.1029386520386 L 852.3536100387573 364.1029386520386 L 852.3536100387573 356.1029386520386 Z" stroke-miterlimit="10" stroke-width="0.5" stroke-dasharray="0"/><text fill="#505050" stroke="none" font-family="monospace" font-size="14px" font-style="normal" font-weight="normal" text-decoration="normal" x="844.3536100387573" y="370.1029386520386" text-anchor="end" dominant-baseline="text-after-edge">n</text><path fill="white" stroke="#505050" paint-order="fill stroke markers" d=" M 826.8408536911011 326.9502897262573 L 858.8408536911011 326.9502897262573 L 858.8408536911011 344.9502897262573 L 826.8408536911011 344.9502897262573 L 834.8408536911011 335.9502897262573 L 826.8408536911011 326.9502897262573" stroke-miterlimit="10" stroke-width="0.5" stroke-dasharray="0"/><path fill="none" stroke="#505050" paint-order="fill stroke markers" d=" M 850.8408536911011 330.9502897262573 L 858.8408536911011 330.9502897262573 L 858.8408536911011 338.9502897262573 L 850.8408536911011 338.9502897262573 L 850.8408536911011 330.9502897262573 Z" stroke-miterlimit="10" stroke-width="0.5" stroke-dasharray="0"/><text fill="#505050" stroke="none" font-family="monospace" font-size="14px" font-style="normal" font-weight="normal" text-decoration="normal" x="842.8408536911011" y="344.9502897262573" text-anchor="end" dominant-baseline="text-after-edge">x</text><path fill="white" stroke="#505050" paint-order="fill stroke markers" d=" M 468.7864875793457 334.11802673339844 L 468.7864875793457 489.0430221557617 Q 468.7864875793457 497.0430221557617 476.7864875793457 497.0430221557617 L 769.805347442627 497.0430221557617 Q 777.805347442627 497.0430221557617 777.805347442627 489.0430221557617 L 777.805347442627 334.11802673339844 Q 777.805347442627 326.11802673339844 769.805347442627 326.11802673339844 L 476.7864875793457 326.11802673339844 Q 468.7864875793457 326.11802673339844 468.7864875793457 334.11802673339844" stroke-miterlimit="10" stroke-width="0.5" stroke-dasharray="0"/><path fill="#F0F0F0" stroke="#505050" paint-order="fill stroke markers" d=" M 712.805347442627 334.11802673339844 L 777.805347442627 334.11802673339844 L 777.805347442627 394.11802673339844 L 712.805347442627 394.11802673339844 L 712.805347442627 334.11802673339844 Z" stroke-miterlimit="10" stroke-width="0.5" stroke-dasharray="0"/><text fill="#505050" stroke="none" font-family="monospace" font-size="14px" font-style="normal" font-weight="normal" text-decoration="normal" x="745.305347442627" y="352.11802673339844" text-anchor="middle" dominant-baseline="text-after-edge">muls</text><path fill="none" stroke="#505050" paint-order="fill stroke markers" d=" M 712.805347442627 352.11802673339844 L 720.805347442627 352.11802673339844 L 720.805347442627 360.11802673339844 L 712.805347442627 360.11802673339844 L 712.805347442627 352.11802673339844 Z" stroke-miterlimit="10" stroke-width="0.5" stroke-dasharray="0"/><text fill="#505050" stroke="none" font-family="monospace" font-size="14px" font-style="normal" font-weight="normal" text-decoration="normal" x="728.805347442627" y="366.11802673339844" text-anchor="start" dominant-baseline="text-after-edge">n</text><path fill="none" stroke="#505050" paint-order="fill stroke markers" d=" M 712.805347442627 366.11802673339844 L 720.805347442627 366.11802673339844 L 720.805347442627 374.11802673339844 L 712.805347442627 374.11802673339844 L 712.805347442627 366.11802673339844 Z" stroke-miterlimit="10" stroke-width="0.5" stroke-dasharray="0"/><text fill="#505050" stroke="none" font-family="monospace" font-size="14px" font-style="normal" font-weight="normal" text-decoration="normal" x="728.805347442627" y="380.11802673339844" text-anchor="start" dominant-baseline="text-after-edge">y</text><path fill="none" stroke="#505050" paint-order="fill stroke markers" d=" M 712.805347442627 380.11802673339844 L 720.805347442627 380.11802673339844 L 720.805347442627 388.11802673339844 L 712.805347442627 388.11802673339844 L 712.805347442627 380.11802673339844 Z" stroke-miterlimit="10" stroke-width="0.5" stroke-dasharray="0"/><text fill="#505050" stroke="none" font-family="monospace" font-size="14px" font-style="normal" font-weight="normal" text-decoration="normal" x="728.805347442627" y="394.11802673339844" text-anchor="start" dominant-baseline="text-after-edge">x</text><path fill="none" stroke="#505050" paint-order="fill stroke markers" d=" M 769.805347442627 352.11802673339844 L 777.805347442627 352.11802673339844 L 777.805347442627 360.11802673339844 L 769.805347442627 360.11802673339844 L 769.805347442627 352.11802673339844 Z" stroke-miterlimit="10" stroke-width="0.5" stroke-dasharray="0"/><text fill="#505050" stroke="none" font-family="monospace" font-size="14px" font-style="normal" font-weight="normal" text-decoration="normal" x="761.805347442627" y="366.11802673339844" text-anchor="end" dominant-baseline="text-after-edge">y'</text><path fill="none" stroke="#505050" paint-order="fill stroke markers" d=" M 769.805347442627 366.11802673339844 L 777.805347442627 366.11802673339844 L 777.805347442627 374.11802673339844 L 769.805347442627 374.11802673339844 L 769.805347442627 366.11802673339844 Z" stroke-miterlimit="10" stroke-width="0.5" stroke-dasharray="0"/><text fill="#505050" stroke="none" font-family="monospace" font-size="14px" font-style="normal" font-weight="normal" text-decoration="normal" x="761.805347442627" y="380.11802673339844" text-anchor="end" dominant-baseline="text-after-edge">x'</text><path fill="white" stroke="#505050" paint-order="fill stroke markers" d=" M 552.855224609375 388.66490936279297 L 585.855224609375 388.66490936279297 L 585.855224609375 430.66490936279297 L 552.855224609375 430.66490936279297 L 552.855224609375 388.66490936279297 Z" stroke-miterlimit="10" stroke-width="0.5" stroke-dasharray="0"/><path fill="#F0F0F0" stroke="none" paint-order="stroke fill markers" d=""/><text fill="#505050" stroke="none" font-family="monospace" font-size="14px" font-style="normal" font-weight="normal" text-decoration="normal" x="569.355224609375" y="406.66490936279297" text-anchor="middle" dominant-baseline="text-after-edge">mul</text><path fill="none" stroke="#505050" paint-order="fill stroke markers" d=" M 552.855224609375 406.66490936279297 L 560.855224609375 406.66490936279297 L 560.855224609375 414.66490936279297 L 552.855224609375 414.66490936279297 L 552.855224609375 406.66490936279297 Z" stroke-miterlimit="10" stroke-width="0.5" stroke-dasharray="0"/><path fill="none" stroke="#505050" paint-order="fill stroke markers" d=" M 552.855224609375 418.66490936279297 L 560.855224609375 418.66490936279297 L 560.855224609375 426.66490936279297 L 552.855224609375 426.66490936279297 L 552.855224609375 418.66490936279297 Z" stroke-miterlimit="10" stroke-width="0.5" stroke-dasharray="0"/><path fill="none" stroke="#505050" paint-order="fill stroke markers" d=" M 577.855224609375 406.66490936279297 L 585.855224609375 406.66490936279297 L 585.855224609375 414.66490936279297 L 577.855224609375 414.66490936279297 L 577.855224609375 406.66490936279297 Z" stroke-miterlimit="10" stroke-width="0.5" stroke-dasharray="0"/><path fill="#e0e0e0" stroke="none" paint-order="stroke fill markers" d=" M 459.6993942260742 429.45042419433594 L 451.6993942260742 408.45042419433594 L 451.6993942260742 450.45042419433594 Z M 544.855224609375 409.66490936279297 L 552.855224609375 388.66490936279297 L 552.855224609375 430.66490936279297 Z"/><path fill="none" stroke="none"/><path fill="none" stroke="#e0e0e0" paint-order="fill stroke markers" d=" M 459.6993942260742 429.45042419433594 C 485.92663929847333 429.45042419433594 518.6279795369759 409.66490936279297 544.855224609375 409.66490936279297" stroke-miterlimit="10" stroke-width="2" stroke-dasharray="0"/><path fill="white" stroke="#505050" paint-order="fill stroke markers" d=" M 477.4117065370083 463.0430221557617 L 509.4117065370083 463.0430221557617 L 509.4117065370083 481.0430221557617 L 477.4117065370083 481.0430221557617 L 485.4117065370083 472.0430221557617 L 477.4117065370083 463.0430221557617" stroke-miterlimit="10" stroke-width="0.5" stroke-dasharray="0"/><path fill="none" stroke="#505050" paint-order="fill stroke markers" d=" M 501.4117065370083 467.0430221557617 L 509.4117065370083 467.0430221557617 L 509.4117065370083 475.0430221557617 L 501.4117065370083 475.0430221557617 L 501.4117065370083 467.0430221557617 Z" stroke-miterlimit="10" stroke-width="0.5" stroke-dasharray="0"/><text fill="#505050" stroke="none" font-family="monospace" font-size="14px" font-style="normal" font-weight="normal" text-decoration="normal" x="493.4117065370083" y="481.0430221557617" text-anchor="end" dominant-baseline="text-after-edge">x</text><path fill="white" stroke="#505050" paint-order="fill stroke markers" d=" M 477.23049315810204 382.2930450439453 L 509.23049315810204 382.2930450439453 L 509.23049315810204 400.2930450439453 L 477.23049315810204 400.2930450439453 L 485.23049315810204 391.2930450439453 L 477.23049315810204 382.2930450439453" stroke-miterlimit="10" stroke-width="0.5" stroke-dasharray="0"/><path fill="none" stroke="#505050" paint-order="fill stroke markers" d=" M 501.23049315810204 386.2930450439453 L 509.23049315810204 386.2930450439453 L 509.23049315810204 394.2930450439453 L 501.23049315810204 394.2930450439453 L 501.23049315810204 386.2930450439453 Z" stroke-miterlimit="10" stroke-width="0.5" stroke-dasharray="0"/><text fill="#505050" stroke="none" font-family="monospace" font-size="14px" font-style="normal" font-weight="normal" text-decoration="normal" x="493.23049315810204" y="400.2930450439453" text-anchor="end" dominant-baseline="text-after-edge">y</text><path fill="white" stroke="#505050" paint-order="fill stroke markers" d=" M 651.9833374023438 452.0055274963379 L 684.9833374023438 452.0055274963379 L 692.9833374023438 461.0055274963379 L 684.9833374023438 470.0055274963379 L 651.9833374023438 470.0055274963379 L 651.9833374023438 452.0055274963379" stroke-miterlimit="10" stroke-width="0.5" stroke-dasharray="0"/><path fill="none" stroke="#505050" paint-order="fill stroke markers" d=" M 651.9833374023438 456.0055274963379 L 659.9833374023438 456.0055274963379 L 659.9833374023438 464.0055274963379 L 651.9833374023438 464.0055274963379 L 651.9833374023438 456.0055274963379 Z" stroke-miterlimit="10" stroke-width="0.5" stroke-dasharray="0"/><text fill="#505050" stroke="none" font-family="monospace" font-size="14px" font-style="normal" font-weight="normal" text-decoration="normal" x="667.9833374023438" y="470.0055274963379" text-anchor="start" dominant-baseline="text-after-edge">x'</text><path fill="white" stroke="#505050" paint-order="fill stroke markers" d=" M 646.8177490234375 348.2774124145508 L 679.8177490234375 348.2774124145508 L 687.8177490234375 357.2774124145508 L 679.8177490234375 366.2774124145508 L 646.8177490234375 366.2774124145508 L 646.8177490234375 348.2774124145508" stroke-miterlimit="10" stroke-width="0.5" stroke-dasharray="0"/><path fill="none" stroke="#505050" paint-order="fill stroke markers" d=" M 646.8177490234375 352.2774124145508 L 654.8177490234375 352.2774124145508 L 654.8177490234375 360.2774124145508 L 646.8177490234375 360.2774124145508 L 646.8177490234375 352.2774124145508 Z" stroke-miterlimit="10" stroke-width="0.5" stroke-dasharray="0"/><text fill="#505050" stroke="none" font-family="monospace" font-size="14px" font-style="normal" font-weight="normal" text-decoration="normal" x="662.8177490234375" y="366.2774124145508" text-anchor="start" dominant-baseline="text-after-edge">y'</text><path fill="white" stroke="#505050" paint-order="fill stroke markers" d=" M 552.3333983421326 437.93993377685547 L 585.3333983421326 437.93993377685547 L 585.3333983421326 479.93993377685547 L 552.3333983421326 479.93993377685547 L 552.3333983421326 437.93993377685547 Z" stroke-miterlimit="10" stroke-width="0.5" stroke-dasharray="0"/><path fill="#F0F0F0" stroke="none" paint-order="stroke fill markers" d=""/><text fill="#505050" stroke="none" font-family="monospace" font-size="14px" font-style="normal" font-weight="normal" text-decoration="normal" x="568.8333983421326" y="455.93993377685547" text-anchor="middle" dominant-baseline="text-after-edge">mul</text><path fill="none" stroke="#505050" paint-order="fill stroke markers" d=" M 552.3333983421326 455.93993377685547 L 560.3333983421326 455.93993377685547 L 560.3333983421326 463.93993377685547 L 552.3333983421326 463.93993377685547 L 552.3333983421326 455.93993377685547 Z" stroke-miterlimit="10" stroke-width="0.5" stroke-dasharray="0"/><path fill="none" stroke="#505050" paint-order="fill stroke markers" d=" M 552.3333983421326 467.93993377685547 L 560.3333983421326 467.93993377685547 L 560.3333983421326 475.93993377685547 L 552.3333983421326 475.93993377685547 L 552.3333983421326 467.93993377685547 Z" stroke-miterlimit="10" stroke-width="0.5" stroke-dasharray="0"/><path fill="none" stroke="#505050" paint-order="fill stroke markers" d=" M 577.3333983421326 455.93993377685547 L 585.3333983421326 455.93993377685547 L 585.3333983421326 463.93993377685547 L 577.3333983421326 463.93993377685547 L 577.3333983421326 455.93993377685547 Z" stroke-miterlimit="10" stroke-width="0.5" stroke-dasharray="0"/><path fill="#e0e0e0" stroke="none" paint-order="stroke fill markers" d=" M 459.6993942260742 429.45042419433594 L 451.6993942260742 408.45042419433594 L 451.6993942260742 450.45042419433594 Z M 544.3333983421326 458.93993377685547 L 552.3333983421326 437.93993377685547 L 552.3333983421326 479.93993377685547 Z"/><path fill="none" stroke="none"/><path fill="none" stroke="#e0e0e0" paint-order="fill stroke markers" d=" M 459.6993942260742 429.45042419433594 C 486.58673556976424 429.45042419433594 517.4460569984425 458.93993377685547 544.3333983421326 458.93993377685547" stroke-miterlimit="10" stroke-width="2" stroke-dasharray="0"/><path fill="white" stroke="#505050" paint-order="fill stroke markers" d=" M 477.78665122389793 346.8993225097656 L 509.78665122389793 346.8993225097656 L 509.78665122389793 364.8993225097656 L 477.78665122389793 364.8993225097656 L 485.78665122389793 355.8993225097656 L 477.78665122389793 346.8993225097656" stroke-miterlimit="10" stroke-width="0.5" stroke-dasharray="0"/><path fill="none" stroke="#505050" paint-order="fill stroke markers" d=" M 501.78665122389793 350.8993225097656 L 509.78665122389793 350.8993225097656 L 509.78665122389793 358.8993225097656 L 501.78665122389793 358.8993225097656 L 501.78665122389793 350.8993225097656 Z" stroke-miterlimit="10" stroke-width="0.5" stroke-dasharray="0"/><text fill="#505050" stroke="none" font-family="monospace" font-size="14px" font-style="normal" font-weight="normal" text-decoration="normal" x="493.78665122389793" y="364.8993225097656" text-anchor="end" dominant-baseline="text-after-edge">n</text><path fill="white" stroke="#505050" paint-order="fill stroke markers" d=" M 606.5583739280701 334.2336654663086 L 630.5583739280701 334.2336654663086 L 630.5583739280701 388.2336654663086 L 606.5583739280701 388.2336654663086 L 606.5583739280701 334.2336654663086 Z" stroke-miterlimit="10" stroke-width="0.5" stroke-dasharray="0"/><path fill="#F0F0F0" stroke="none" paint-order="stroke fill markers" d=""/><text fill="#505050" stroke="none" font-family="monospace" font-size="14px" font-style="normal" font-weight="normal" text-decoration="normal" x="618.5583739280701" y="352.2336654663086" text-anchor="middle" dominant-baseline="text-after-edge">?</text><path fill="none" stroke="#505050" paint-order="fill stroke markers" d=" M 606.5583739280701 352.2336654663086 L 614.5583739280701 352.2336654663086 L 614.5583739280701 360.2336654663086 L 606.5583739280701 360.2336654663086 L 606.5583739280701 352.2336654663086 Z" stroke-miterlimit="10" stroke-width="0.5" stroke-dasharray="0"/><path fill="none" stroke="#505050" paint-order="fill stroke markers" d=" M 606.5583739280701 364.2336654663086 L 614.5583739280701 364.2336654663086 L 614.5583739280701 372.2336654663086 L 606.5583739280701 372.2336654663086 L 606.5583739280701 364.2336654663086 Z" stroke-miterlimit="10" stroke-width="0.5" stroke-dasharray="0"/><path fill="none" stroke="#505050" paint-order="fill stroke markers" d=" M 606.5583739280701 376.2336654663086 L 614.5583739280701 376.2336654663086 L 614.5583739280701 384.2336654663086 L 606.5583739280701 384.2336654663086 L 606.5583739280701 376.2336654663086 Z" stroke-miterlimit="10" stroke-width="0.5" stroke-dasharray="0"/><path fill="none" stroke="#505050" paint-order="fill stroke markers" d=" M 622.5583739280701 352.2336654663086 L 630.5583739280701 352.2336654663086 L 630.5583739280701 360.2336654663086 L 622.5583739280701 360.2336654663086 L 622.5583739280701 352.2336654663086 Z" stroke-miterlimit="10" stroke-width="0.5" stroke-dasharray="0"/><path fill="white" stroke="#505050" paint-order="fill stroke markers" d=" M 520.3552489280701 332.6649169921875 L 562.3552489280701 332.6649169921875 L 562.3552489280701 362.6649169921875 L 520.3552489280701 362.6649169921875 L 520.3552489280701 332.6649169921875 Z" stroke-miterlimit="10" stroke-width="0.5" stroke-dasharray="0"/><path fill="#F0F0F0" stroke="none" paint-order="stroke fill markers" d=""/><text fill="#505050" stroke="none" font-family="monospace" font-size="14px" font-style="normal" font-weight="normal" text-decoration="normal" x="541.3552489280701" y="350.6649169921875" text-anchor="middle" dominant-baseline="text-after-edge">even</text><path fill="none" stroke="#505050" paint-order="fill stroke markers" d=" M 520.3552489280701 350.6649169921875 L 528.3552489280701 350.6649169921875 L 528.3552489280701 358.6649169921875 L 520.3552489280701 358.6649169921875 L 520.3552489280701 350.6649169921875 Z" stroke-miterlimit="10" stroke-width="0.5" stroke-dasharray="0"/><path fill="none" stroke="#505050" paint-order="fill stroke markers" d=" M 554.3552489280701 350.6649169921875 L 562.3552489280701 350.6649169921875 L 562.3552489280701 358.6649169921875 L 554.3552489280701 358.6649169921875 L 554.3552489280701 350.6649169921875 Z" stroke-miterlimit="10" stroke-width="0.5" stroke-dasharray="0"/><path fill="white" stroke="#505050" paint-order="fill stroke markers" d=" M 802.0826773643494 376.832218170166 L 860.0826773643494 376.832218170166 L 860.0826773643494 394.832218170166 L 802.0826773643494 394.832218170166 L 810.0826773643494 385.832218170166 L 802.0826773643494 376.832218170166" stroke-miterlimit="10" stroke-width="0.5" stroke-dasharray="0"/><path fill="none" stroke="#505050" paint-order="fill stroke markers" d=" M 852.0826773643494 380.832218170166 L 860.0826773643494 380.832218170166 L 860.0826773643494 388.832218170166 L 852.0826773643494 388.832218170166 L 852.0826773643494 380.832218170166 Z" stroke-miterlimit="10" stroke-width="0.5" stroke-dasharray="0"/><text fill="#505050" stroke="none" font-family="monospace" font-size="14px" font-style="normal" font-weight="normal" text-decoration="normal" x="844.0826773643494" y="394.832218170166" text-anchor="end" dominant-baseline="text-after-edge">unit</text><path fill="white" stroke="#505050" paint-order="fill stroke markers" d=" M 602.5070748329163 551.0532464981079 L 602.5070748329163 682.9857387542725 Q 602.5070748329163 690.9857387542725 610.5070748329163 690.9857387542725 L 842.2427039146423 690.9857387542725 Q 850.2427039146423 690.9857387542725 850.2427039146423 682.9857387542725 L 850.2427039146423 551.0532464981079 Q 850.2427039146423 543.0532464981079 842.2427039146423 543.0532464981079 L 610.5070748329163 543.0532464981079 Q 602.5070748329163 543.0532464981079 602.5070748329163 551.0532464981079" stroke-miterlimit="10" stroke-width="0.5" stroke-dasharray="0"/><path fill="#F0F0F0" stroke="#505050" paint-order="fill stroke markers" d=" M 810.2427039146423 551.0532464981079 L 850.2427039146423 551.0532464981079 L 850.2427039146423 597.0532464981079 L 810.2427039146423 597.0532464981079 L 810.2427039146423 551.0532464981079 Z" stroke-miterlimit="10" stroke-width="0.5" stroke-dasharray="0"/><text fill="#505050" stroke="none" font-family="monospace" font-size="14px" font-style="normal" font-weight="normal" text-decoration="normal" x="830.2427039146423" y="569.0532464981079" text-anchor="middle" dominant-baseline="text-after-edge">xⁿ</text><path fill="none" stroke="#505050" paint-order="fill stroke markers" d=" M 810.2427039146423 569.0532464981079 L 818.2427039146423 569.0532464981079 L 818.2427039146423 577.0532464981079 L 810.2427039146423 577.0532464981079 L 810.2427039146423 569.0532464981079 Z" stroke-miterlimit="10" stroke-width="0.5" stroke-dasharray="0"/><text fill="#505050" stroke="none" font-family="monospace" font-size="14px" font-style="normal" font-weight="normal" text-decoration="normal" x="826.2427039146423" y="583.0532464981079" text-anchor="start" dominant-baseline="text-after-edge">x</text><path fill="none" stroke="#505050" paint-order="fill stroke markers" d=" M 810.2427039146423 583.0532464981079 L 818.2427039146423 583.0532464981079 L 818.2427039146423 591.0532464981079 L 810.2427039146423 591.0532464981079 L 810.2427039146423 583.0532464981079 Z" stroke-miterlimit="10" stroke-width="0.5" stroke-dasharray="0"/><text fill="#505050" stroke="none" font-family="monospace" font-size="14px" font-style="normal" font-weight="normal" text-decoration="normal" x="826.2427039146423" y="597.0532464981079" text-anchor="start" dominant-baseline="text-after-edge">n</text><path fill="none" stroke="#505050" paint-order="fill stroke markers" d=" M 842.2427039146423 569.0532464981079 L 850.2427039146423 569.0532464981079 L 850.2427039146423 577.0532464981079 L 842.2427039146423 577.0532464981079 L 842.2427039146423 569.0532464981079 Z" stroke-miterlimit="10" stroke-width="0.5" stroke-dasharray="0"/><path fill="white" stroke="#505050" paint-order="fill stroke markers" d=" M 685.4331336021423 551.0532464981079 L 758.4331336021423 551.0532464981079 L 758.4331336021423 643.0532464981079 L 685.4331336021423 643.0532464981079 L 685.4331336021423 551.0532464981079 Z" stroke-miterlimit="10" stroke-width="0.5" stroke-dasharray="0"/><path fill="#F0F0F0" stroke="none" paint-order="stroke fill markers" d=""/><text fill="#505050" stroke="none" font-family="monospace" font-size="14px" font-style="normal" font-weight="normal" text-decoration="normal" x="721.9331336021423" y="569.0532464981079" text-anchor="middle" dominant-baseline="text-after-edge">xⁿ</text><path fill="none" stroke="#505050" paint-order="fill stroke markers" d=" M 685.4331336021423 569.0532464981079 L 693.4331336021423 569.0532464981079 L 693.4331336021423 577.0532464981079 L 685.4331336021423 577.0532464981079 L 685.4331336021423 569.0532464981079 Z" stroke-miterlimit="10" stroke-width="0.5" stroke-dasharray="0"/><text fill="#505050" stroke="none" font-family="monospace" font-size="14px" font-style="normal" font-weight="normal" text-decoration="normal" x="701.4331336021423" y="583.0532464981079" text-anchor="start" dominant-baseline="text-after-edge">x</text><path fill="none" stroke="#505050" paint-order="fill stroke markers" d=" M 685.4331336021423 583.0532464981079 L 693.4331336021423 583.0532464981079 L 693.4331336021423 591.0532464981079 L 685.4331336021423 591.0532464981079 L 685.4331336021423 583.0532464981079 Z" stroke-miterlimit="10" stroke-width="0.5" stroke-dasharray="0"/><text fill="#505050" stroke="none" font-family="monospace" font-size="14px" font-style="normal" font-weight="normal" text-decoration="normal" x="701.4331336021423" y="597.0532464981079" text-anchor="start" dominant-baseline="text-after-edge">n</text><path fill="none" stroke="#505050" paint-order="fill stroke markers" d=" M 685.4331336021423 597.0532464981079 L 693.4331336021423 597.0532464981079 L 693.4331336021423 605.0532464981079 L 685.4331336021423 605.0532464981079 L 685.4331336021423 597.0532464981079 Z" stroke-miterlimit="10" stroke-width="0.5" stroke-dasharray="0"/><text fill="#505050" stroke="none" font-family="monospace" font-size="14px" font-style="normal" font-weight="normal" text-decoration="normal" x="701.4331336021423" y="611.0532464981079" text-anchor="start" dominant-baseline="text-after-edge">unit</text><path fill="none" stroke="#505050" paint-order="fill stroke markers" d=" M 685.4331336021423 611.0532464981079 L 709.4331336021423 611.0532464981079 L 709.4331336021423 639.0532464981079 L 685.4331336021423 639.0532464981079 L 685.4331336021423 611.0532464981079 Z" stroke-miterlimit="10" stroke-width="0.5" stroke-dasharray="0"/><path fill="none" stroke="#505050" paint-order="fill stroke markers" d=" M 685.4331336021423 615.0532464981079 L 693.4331336021423 615.0532464981079 L 693.4331336021423 623.0532464981079 L 685.4331336021423 623.0532464981079 L 685.4331336021423 615.0532464981079 Z" stroke-miterlimit="10" stroke-width="0.5" stroke-dasharray="0"/><path fill="none" stroke="#505050" paint-order="fill stroke markers" d=" M 685.4331336021423 627.0532464981079 L 693.4331336021423 627.0532464981079 L 693.4331336021423 635.0532464981079 L 685.4331336021423 635.0532464981079 L 685.4331336021423 627.0532464981079 Z" stroke-miterlimit="10" stroke-width="0.5" stroke-dasharray="0"/><path fill="none" stroke="#505050" paint-order="fill stroke markers" d=" M 701.4331336021423 615.0532464981079 L 709.4331336021423 615.0532464981079 L 709.4331336021423 623.0532464981079 L 701.4331336021423 623.0532464981079 L 701.4331336021423 615.0532464981079 Z" stroke-miterlimit="10" stroke-width="0.5" stroke-dasharray="0"/><text fill="#505050" stroke="none" font-family="monospace" font-size="14px" font-style="normal" font-weight="normal" text-decoration="normal" x="717.4331336021423" y="634.0532464981079" text-anchor="start" dominant-baseline="text-after-edge">mul</text><path fill="none" stroke="#505050" paint-order="fill stroke markers" d=" M 750.4331336021423 569.0532464981079 L 758.4331336021423 569.0532464981079 L 758.4331336021423 577.0532464981079 L 750.4331336021423 577.0532464981079 L 750.4331336021423 569.0532464981079 Z" stroke-miterlimit="10" stroke-width="0.5" stroke-dasharray="0"/><path fill="white" stroke="#505050" paint-order="fill stroke markers" d=" M 611.6328072547913 616.9857387542725 L 611.6328072547913 666.9857387542725 Q 611.6328072547913 674.9857387542725 619.6328072547913 674.9857387542725 L 664.7080025672913 674.9857387542725 Q 672.7080025672913 674.9857387542725 672.7080025672913 666.9857387542725 L 672.7080025672913 616.9857387542725 Q 672.7080025672913 608.9857387542725 664.7080025672913 608.9857387542725 L 619.6328072547913 608.9857387542725 Q 611.6328072547913 608.9857387542725 611.6328072547913 616.9857387542725" stroke-miterlimit="10" stroke-width="0.5" stroke-dasharray="0"/><path fill="#F0F0F0" stroke="#505050" paint-order="fill stroke markers" d=" M 648.7080025672913 616.9857387542725 L 672.7080025672913 616.9857387542725 L 672.7080025672913 644.9857387542725 L 648.7080025672913 644.9857387542725 L 648.7080025672913 616.9857387542725 Z" stroke-miterlimit="10" stroke-width="0.5" stroke-dasharray="0"/><path fill="none" stroke="#505050" paint-order="fill stroke markers" d=" M 648.7080025672913 620.9857387542725 L 656.7080025672913 620.9857387542725 L 656.7080025672913 628.9857387542725 L 648.7080025672913 628.9857387542725 L 648.7080025672913 620.9857387542725 Z" stroke-miterlimit="10" stroke-width="0.5" stroke-dasharray="0"/><path fill="none" stroke="#505050" paint-order="fill stroke markers" d=" M 648.7080025672913 632.9857387542725 L 656.7080025672913 632.9857387542725 L 656.7080025672913 640.9857387542725 L 648.7080025672913 640.9857387542725 L 648.7080025672913 632.9857387542725 Z" stroke-miterlimit="10" stroke-width="0.5" stroke-dasharray="0"/><path fill="none" stroke="#505050" paint-order="fill stroke markers" d=" M 664.7080025672913 620.9857387542725 L 672.7080025672913 620.9857387542725 L 672.7080025672913 628.9857387542725 L 664.7080025672913 628.9857387542725 L 664.7080025672913 620.9857387542725 Z" stroke-miterlimit="10" stroke-width="0.5" stroke-dasharray="0"/><path fill="white" stroke="#505050" paint-order="fill stroke markers" d=" M 619.6328072547913 616.9857387542725 L 643.6328072547913 616.9857387542725 L 643.6328072547913 658.9857387542725 L 619.6328072547913 658.9857387542725 L 619.6328072547913 616.9857387542725 Z" stroke-miterlimit="10" stroke-width="0.5" stroke-dasharray="0"/><path fill="#F0F0F0" stroke="none" paint-order="stroke fill markers" d=""/><text fill="#505050" stroke="none" font-family="monospace" font-size="14px" font-style="normal" font-weight="normal" text-decoration="normal" x="631.6328072547913" y="634.9857387542725" text-anchor="middle" dominant-baseline="text-after-edge">*</text><path fill="none" stroke="#505050" paint-order="fill stroke markers" d=" M 619.6328072547913 634.9857387542725 L 627.6328072547913 634.9857387542725 L 627.6328072547913 642.9857387542725 L 619.6328072547913 642.9857387542725 L 619.6328072547913 634.9857387542725 Z" stroke-miterlimit="10" stroke-width="0.5" stroke-dasharray="0"/><path fill="none" stroke="#505050" paint-order="fill stroke markers" d=" M 619.6328072547913 646.9857387542725 L 627.6328072547913 646.9857387542725 L 627.6328072547913 654.9857387542725 L 619.6328072547913 654.9857387542725 L 619.6328072547913 646.9857387542725 Z" stroke-miterlimit="10" stroke-width="0.5" stroke-dasharray="0"/><path fill="none" stroke="#505050" paint-order="fill stroke markers" d=" M 635.6328072547913 634.9857387542725 L 643.6328072547913 634.9857387542725 L 643.6328072547913 642.9857387542725 L 635.6328072547913 642.9857387542725 L 635.6328072547913 634.9857387542725 Z" stroke-miterlimit="10" stroke-width="0.5" stroke-dasharray="0"/><path fill="white" stroke="#505050" paint-order="fill stroke markers" d=" M 627.6341667175293 585.9665765762329 L 659.6341667175293 585.9665765762329 L 659.6341667175293 603.9665765762329 L 627.6341667175293 603.9665765762329 L 627.6341667175293 585.9665765762329 Z" stroke-miterlimit="10" stroke-width="0.5" stroke-dasharray="0"/><path fill="#F0F0F0" stroke="none" paint-order="stroke fill markers" d=""/><path fill="none" stroke="#505050" paint-order="fill stroke markers" d=" M 651.6341667175293 589.9665765762329 L 659.6341667175293 589.9665765762329 L 659.6341667175293 597.9665765762329 L 651.6341667175293 597.9665765762329 L 651.6341667175293 589.9665765762329 Z" stroke-miterlimit="10" stroke-width="0.5" stroke-dasharray="0"/><text fill="#505050" stroke="none" font-family="monospace" font-size="14px" font-style="normal" font-weight="normal" text-decoration="normal" x="643.6341667175293" y="603.9665765762329" text-anchor="end" dominant-baseline="text-after-edge">1</text><path fill="none" stroke="#505050" paint-order="fill stroke markers" d=" M 414.39053177833557 63.16652059555054 C 419.1905317783356 63.16652059555054 425.59053177833556 63.16652059555054 430.39053177833557 63.16652059555054" stroke-miterlimit="10" stroke-dasharray="0"/><path fill="none" stroke="#505050" paint-order="fill stroke markers" d=" M 567.8883137702942 60.155540466308594 C 571.3290292513369 60.155540466308594 575.9166115033628 60.18521499633789 579.3573269844055 60.18521499633789" stroke-miterlimit="10" stroke-dasharray="0"/><path fill="none" stroke="#505050" paint-order="fill stroke markers" d=" M 717.3414778709412 52.159664154052734 C 719.8746067544762 52.159664154052734 723.2520974615272 52.175296783447266 725.7852263450623 52.175296783447266" stroke-miterlimit="10" stroke-dasharray="0"/><path fill="none" stroke="#505050" paint-order="fill stroke markers" d=" M 867.4098258018494 58.836090087890625 C 871.6613922126782 58.836090087890625 877.3301305763233 58.81423568725586 881.5816969871521 58.81423568725586" stroke-miterlimit="10" stroke-dasharray="0"/><path fill="none" stroke="#505050" paint-order="fill stroke markers" d=" M 905.5816969871521 46.81423568725586 C 909.729772280067 46.81423568725586 915.2567198769154 47.13920974731445 919.4047951698303 47.13920974731445" stroke-miterlimit="10" stroke-dasharray="0"/><path fill="none" stroke="#505050" paint-order="fill stroke markers" d=" M 860.0826773643494 384.832218170166 C 876.5526071587249 384.832218170166 894.664469619687 364.64048767089844 911.1343994140625 364.64048767089844" stroke-miterlimit="10" stroke-dasharray="0"/><path fill="none" stroke="#505050" paint-order="fill stroke markers" d=" M 860.3536100387573 360.1029386520386 C 875.8500738074196 360.1029386520386 895.6379356454003 350.64048767089844 911.1343994140625 350.64048767089844" stroke-miterlimit="10" stroke-dasharray="0"/><path fill="none" stroke="#505050" paint-order="fill stroke markers" d=" M 858.8408536911011 334.9502897262573 C 879.2837093836143 334.9502897262573 890.6915437215492 378.64048767089844 911.1343994140625 378.64048767089844" stroke-miterlimit="10" stroke-dasharray="0"/><path fill="none" stroke="#505050" paint-order="fill stroke markers" d=" M 499.7038513123989 206.6485939025879 C 578.2920888996289 206.6485939025879 681.388697084172 176.96057271957397 759.976934671402 176.96057271957397" stroke-miterlimit="10" stroke-dasharray="0"/><path fill="none" stroke="#505050" paint-order="fill stroke markers" d=" M 783.976934671402 164.96057271957397 C 787.6419203561761 164.96057271957397 792.5284406858466 165.01633214950562 796.1934263706207 165.01633214950562" stroke-miterlimit="10" stroke-dasharray="0"/><path fill="none" stroke="#505050" paint-order="fill stroke markers" d=" M 500.6600337922573 166.0111541748047 C 529.7900427648457 166.0111541748047 519.0161335101692 250.70758438110352 548.1461424827576 250.70758438110352" stroke-miterlimit="10" stroke-dasharray="0"/><path fill="none" stroke="#505050" paint-order="fill stroke markers" d=" M 501.03826293349266 273.1017723083496 C 515.2703383273373 273.1017723083496 533.9140670889129 278.7075843811035 548.1461424827576 278.7075843811035" stroke-miterlimit="10" stroke-dasharray="0"/><path fill="none" stroke="#505050" paint-order="fill stroke markers" d=" M 499.7038513123989 206.6485939025879 C 522.3881008135315 206.6485939025879 525.4618929816249 264.7075843811035 548.1461424827576 264.7075843811035" stroke-miterlimit="10" stroke-dasharray="0"/><path fill="none" stroke="#505050" paint-order="fill stroke markers" d=" M 613.1461424827576 264.7075843811035 C 630.5783342225119 264.7075843811035 653.8177105086282 264.0656433105469 671.2499022483826 264.0656433105469" stroke-miterlimit="10" stroke-dasharray="0"/><path fill="none" stroke="#505050" paint-order="fill stroke markers" d=" M 613.1461424827576 250.70758438110352 C 630.5783342225119 250.70758438110352 653.8177105086282 250.06564331054688 671.2499022483826 250.06564331054688" stroke-miterlimit="10" stroke-dasharray="0"/><path fill="none" stroke="#505050" paint-order="fill stroke markers" d=" M 738.2499022483826 236.06564331054688 C 753.8122171531849 236.06564331054688 744.4146197665997 188.96057271957397 759.976934671402 188.96057271957397" stroke-miterlimit="10" stroke-dasharray="0"/><path fill="none" stroke="#505050" paint-order="fill stroke markers" d=" M 500.6600337922573 166.0111541748047 C 508.2800093710921 166.0111541748047 516.4338252424695 156.1173415184021 524.0538008213043 156.1173415184021" stroke-miterlimit="10" stroke-dasharray="0"/><path fill="none" stroke="#505050" paint-order="fill stroke markers" d=" M 566.0538008213043 156.1173415184021 C 624.2911995632538 156.1173415184021 701.7395359294525 164.96057271957397 759.976934671402 164.96057271957397" stroke-miterlimit="10" stroke-dasharray="0"/><path fill="none" stroke="#505050" paint-order="fill stroke markers" d=" M 500.6600337922573 166.0111541748047 C 543.1529034220041 166.0111541748047 584.6734144545733 229.72048950195312 627.1662840843201 229.72048950195312" stroke-miterlimit="10" stroke-dasharray="0"/><path fill="none" stroke="#505050" paint-order="fill stroke markers" d=" M 509.4117065370083 471.0430221557617 C 522.7120643482384 471.0430221557617 539.0330405309024 459.93993377685547 552.3333983421326 459.93993377685547" stroke-miterlimit="10" stroke-dasharray="0"/><path fill="none" stroke="#505050" paint-order="fill stroke markers" d=" M 509.23049315810204 390.2930450439453 C 523.6745820702456 390.2930450439453 538.4111356972314 410.66490936279297 552.855224609375 410.66490936279297" stroke-miterlimit="10" stroke-dasharray="0"/><path fill="none" stroke="#505050" paint-order="fill stroke markers" d=" M 585.3333983421326 459.93993377685547 C 605.3283897433292 459.93993377685547 631.9883460011471 460.0055274963379 651.9833374023438 460.0055274963379" stroke-miterlimit="10" stroke-dasharray="0"/><path fill="none" stroke="#505050" paint-order="fill stroke markers" d=" M 509.23049315810204 390.2930450439453 C 539.1694299165626 390.2930450439453 576.6194371696095 368.2336654663086 606.5583739280701 368.2336654663086" stroke-miterlimit="10" stroke-dasharray="0"/><path fill="none" stroke="#505050" paint-order="fill stroke markers" d=" M 585.855224609375 410.66490936279297 C 596.8970220043626 410.66490936279297 595.5165765330825 380.2336654663086 606.5583739280701 380.2336654663086" stroke-miterlimit="10" stroke-dasharray="0"/><path fill="none" stroke="#505050" paint-order="fill stroke markers" d=" M 630.5583739280701 356.2336654663086 C 635.4362041122668 356.2336654663086 641.9399188392408 356.2774124145508 646.8177490234375 356.2774124145508" stroke-miterlimit="10" stroke-dasharray="0"/><path fill="none" stroke="#505050" paint-order="fill stroke markers" d=" M 509.4117065370083 471.0430221557617 C 522.291025114026 471.0430221557617 539.4540797651149 471.93993377685547 552.3333983421326 471.93993377685547" stroke-miterlimit="10" stroke-dasharray="0"/><path fill="none" stroke="#505050" paint-order="fill stroke markers" d=" M 509.4117065370083 471.0430221557617 C 528.9181233118081 471.0430221557617 533.3488078345752 422.66490936279297 552.855224609375 422.66490936279297" stroke-miterlimit="10" stroke-dasharray="0"/><path fill="none" stroke="#505050" paint-order="fill stroke markers" d=" M 509.78665122389793 354.8993225097656 C 512.9580102865298 354.8993225097656 517.1838898654382 354.6649169921875 520.3552489280701 354.6649169921875" stroke-miterlimit="10" stroke-dasharray="0"/><path fill="none" stroke="#505050" paint-order="fill stroke markers" d=" M 562.3552489280701 354.6649169921875 C 575.6245349238824 354.6649169921875 593.2890879322578 356.2336654663086 606.5583739280701 356.2336654663086" stroke-miterlimit="10" stroke-dasharray="0"/><path fill="none" stroke="#505050" paint-order="fill stroke markers" d=" M 672.7080025672913 630.9857387542725 C 676.9200220568143 630.9857387542725 681.2211141126193 625.0532464981079 685.4331336021423 625.0532464981079" stroke-miterlimit="10" stroke-dasharray="0"/><path fill="none" stroke="#505050" paint-order="fill stroke markers" d=" M 659.6341667175293 593.9665765762329 C 667.6605408964813 593.9665765762329 677.4067594231904 601.0532464981079 685.4331336021423 601.0532464981079" stroke-miterlimit="10" stroke-dasharray="0"/></g></g></svg>