<svg version="1.1" xmlns="http://www.w3.org/2000/svg" xmlns:xlink="http://www.w3.org/1999/xlink" width="703.5960449278355" height="491.1584358215332"><defs/><g transform="translate(-338.8188110291958,-18.697757720947266)"><g><path fill="white" stroke="#505050" paint-order="fill stroke markers" d=" M 374.39053177833557 27.916520595550537 L 374.39053177833557 81.16652059555054 Q 374.39053177833557 89.16652059555054 382.39053177833557 89.16652059555054 L 501.63625931739807 89.16652059555054 Q 509.63625931739807 89.16652059555054 509.63625931739807 81.16652059555054 L 509.63625931739807 27.916520595550537 Q 509.63625931739807 19.916520595550537 501.63625931739807 19.916520595550537 L 382.39053177833557 19.916520595550537 Q 374.39053177833557 19.916520595550537 374.39053177833557 27.916520595550537" stroke-miterlimit="10" stroke-width="0.5" stroke-dasharray=""/><path fill="#F0F0F0" stroke="#505050" paint-order="fill stroke markers" d=" M 467.63625931739807 27.916520595550537 L 509.63625931739807 27.916520595550537 L 509.63625931739807 57.91652059555054 L 467.63625931739807 57.91652059555054 L 467.63625931739807 27.916520595550537 Z" stroke-miterlimit="10" stroke-width="0.5" stroke-dasharray=""/><text fill="#505050" stroke="none" font-family="monospace" font-size="14px" font-style="normal" font-weight="normal" text-decoration="normal" x="488.63625931739807" y="45.91652059555054" text-anchor="middle" dominant-baseline="text-after-edge">== 0</text><path fill="none" stroke="#505050" paint-order="fill stroke markers" d=" M 467.63625931739807 45.91652059555054 L 475.63625931739807 45.91652059555054 L 475.63625931739807 53.91652059555054 L 467.63625931739807 53.91652059555054 L 467.63625931739807 45.91652059555054 Z" stroke-miterlimit="10" stroke-width="0.5" stroke-dasharray=""/><path fill="none" stroke="#505050" paint-order="fill stroke markers" d=" M 501.63625931739807 45.91652059555054 L 509.63625931739807 45.91652059555054 L 509.63625931739807 53.91652059555054 L 501.63625931739807 53.91652059555054 L 501.63625931739807 45.91652059555054 Z" stroke-miterlimit="10" stroke-width="0.5" stroke-dasharray=""/><path fill="white" stroke="#505050" paint-order="fill stroke markers" d=" M 430.39053177833557 29.166520595550537 L 455.39053177833557 29.166520595550537 L 455.39053177833557 71.16652059555054 L 430.39053177833557 71.16652059555054 L 430.39053177833557 29.166520595550537 Z" stroke-miterlimit="10" stroke-width="0.5" stroke-dasharray=""/><path fill="#F0F0F0" stroke="none" paint-order="stroke fill markers" d=""/><text fill="#505050" stroke="none" font-family="monospace" font-size="14px" font-style="normal" font-weight="normal" text-decoration="normal" x="442.89053177833557" y="47.16652059555054" text-anchor="middle" dominant-baseline="text-after-edge">==</text><path fill="none" stroke="#505050" paint-order="fill stroke markers" d=" M 430.39053177833557 47.16652059555054 L 438.39053177833557 47.16652059555054 L 438.39053177833557 55.16652059555054 L 430.39053177833557 55.16652059555054 L 430.39053177833557 47.16652059555054 Z" stroke-miterlimit="10" stroke-width="0.5" stroke-dasharray=""/><path fill="none" stroke="#505050" paint-order="fill stroke markers" d=" M 430.39053177833557 59.16652059555054 L 438.39053177833557 59.16652059555054 L 438.39053177833557 67.16652059555054 L 430.39053177833557 67.16652059555054 L 430.39053177833557 59.16652059555054 Z" stroke-miterlimit="10" stroke-width="0.5" stroke-dasharray=""/><path fill="none" stroke="#505050" paint-order="fill stroke markers" d=" M 447.39053177833557 47.16652059555054 L 455.39053177833557 47.16652059555054 L 455.39053177833557 55.16652059555054 L 447.39053177833557 55.16652059555054 L 447.39053177833557 47.16652059555054 Z" stroke-miterlimit="10" stroke-width="0.5" stroke-dasharray=""/><path fill="white" stroke="#505050" paint-order="fill stroke markers" d=" M 382.39053177833557 55.16652059555054 L 414.39053177833557 55.16652059555054 L 414.39053177833557 73.16652059555054 L 382.39053177833557 73.16652059555054 L 382.39053177833557 55.16652059555054 Z" stroke-miterlimit="10" stroke-width="0.5" stroke-dasharray=""/><path fill="#F0F0F0" stroke="none" paint-order="stroke fill markers" d=""/><path fill="none" stroke="#505050" paint-order="fill stroke markers" d=" M 406.39053177833557 59.16652059555054 L 414.39053177833557 59.16652059555054 L 414.39053177833557 67.16652059555054 L 406.39053177833557 67.16652059555054 L 406.39053177833557 59.16652059555054 Z" stroke-miterlimit="10" stroke-width="0.5" stroke-dasharray=""/><text fill="#505050" stroke="none" font-family="monospace" font-size="14px" font-style="normal" font-weight="normal" text-decoration="normal" x="398.39053177833557" y="73.16652059555054" text-anchor="end" dominant-baseline="text-after-edge">0</text><path fill="white" stroke="#505050" paint-order="fill stroke markers" d=" M 530.5907063484192 28.44729232788086 L 530.5907063484192 78.1555404663086 Q 530.5907063484192 86.1555404663086 538.5907063484192 86.1555404663086 L 644.1544766426086 86.1555404663086 Q 652.1544766426086 86.1555404663086 652.1544766426086 78.1555404663086 L 652.1544766426086 28.44729232788086 Q 652.1544766426086 20.44729232788086 644.1544766426086 20.44729232788086 L 538.5907063484192 20.44729232788086 Q 530.5907063484192 20.44729232788086 530.5907063484192 28.44729232788086" stroke-miterlimit="10" stroke-width="0.5" stroke-dasharray=""/><path fill="#F0F0F0" stroke="#505050" paint-order="fill stroke markers" d=" M 619.1544766426086 28.44729232788086 L 652.1544766426086 28.44729232788086 L 652.1544766426086 58.44729232788086 L 619.1544766426086 58.44729232788086 L 619.1544766426086 28.44729232788086 Z" stroke-miterlimit="10" stroke-width="0.5" stroke-dasharray=""/><text fill="#505050" stroke="none" font-family="monospace" font-size="14px" font-style="normal" font-weight="normal" text-decoration="normal" x="635.6544766426086" y="46.44729232788086" text-anchor="middle" dominant-baseline="text-after-edge">odd</text><path fill="none" stroke="#505050" paint-order="fill stroke markers" d=" M 619.1544766426086 46.44729232788086 L 627.1544766426086 46.44729232788086 L 627.1544766426086 54.44729232788086 L 619.1544766426086 54.44729232788086 L 619.1544766426086 46.44729232788086 Z" stroke-miterlimit="10" stroke-width="0.5" stroke-dasharray=""/><path fill="none" stroke="#505050" paint-order="fill stroke markers" d=" M 644.1544766426086 46.44729232788086 L 652.1544766426086 46.44729232788086 L 652.1544766426086 54.44729232788086 L 644.1544766426086 54.44729232788086 L 644.1544766426086 46.44729232788086 Z" stroke-miterlimit="10" stroke-width="0.5" stroke-dasharray=""/><path fill="white" stroke="#505050" paint-order="fill stroke markers" d=" M 579.3573269844055 26.18521499633789 L 603.3573269844055 26.18521499633789 L 603.3573269844055 68.18521499633789 L 579.3573269844055 68.18521499633789 L 579.3573269844055 26.18521499633789 Z" stroke-miterlimit="10" stroke-width="0.5" stroke-dasharray=""/><path fill="#F0F0F0" stroke="none" paint-order="stroke fill markers" d=""/><text fill="#505050" stroke="none" font-family="monospace" font-size="14px" font-style="normal" font-weight="normal" text-decoration="normal" x="591.3573269844055" y="44.18521499633789" text-anchor="middle" dominant-baseline="text-after-edge">&amp;</text><path fill="none" stroke="#505050" paint-order="fill stroke markers" d=" M 579.3573269844055 44.18521499633789 L 587.3573269844055 44.18521499633789 L 587.3573269844055 52.18521499633789 L 579.3573269844055 52.18521499633789 L 579.3573269844055 44.18521499633789 Z" stroke-miterlimit="10" stroke-width="0.5" stroke-dasharray=""/><path fill="none" stroke="#505050" paint-order="fill stroke markers" d=" M 579.3573269844055 56.18521499633789 L 587.3573269844055 56.18521499633789 L 587.3573269844055 64.18521499633789 L 579.3573269844055 64.18521499633789 L 579.3573269844055 56.18521499633789 Z" stroke-miterlimit="10" stroke-width="0.5" stroke-dasharray=""/><path fill="none" stroke="#505050" paint-order="fill stroke markers" d=" M 595.3573269844055 44.18521499633789 L 603.3573269844055 44.18521499633789 L 603.3573269844055 52.18521499633789 L 595.3573269844055 52.18521499633789 L 595.3573269844055 44.18521499633789 Z" stroke-miterlimit="10" stroke-width="0.5" stroke-dasharray=""/><path fill="white" stroke="#505050" paint-order="fill stroke markers" d=" M 535.8883137702942 52.155540466308594 L 567.8883137702942 52.155540466308594 L 567.8883137702942 70.1555404663086 L 535.8883137702942 70.1555404663086 L 535.8883137702942 52.155540466308594 Z" stroke-miterlimit="10" stroke-width="0.5" stroke-dasharray=""/><path fill="#F0F0F0" stroke="none" paint-order="stroke fill markers" d=""/><path fill="none" stroke="#505050" paint-order="fill stroke markers" d=" M 559.8883137702942 56.155540466308594 L 567.8883137702942 56.155540466308594 L 567.8883137702942 64.1555404663086 L 559.8883137702942 64.1555404663086 L 559.8883137702942 56.155540466308594 Z" stroke-miterlimit="10" stroke-width="0.5" stroke-dasharray=""/><text fill="#505050" stroke="none" font-family="monospace" font-size="14px" font-style="normal" font-weight="normal" text-decoration="normal" x="551.8883137702942" y="70.1555404663086" text-anchor="end" dominant-baseline="text-after-edge">1</text><path fill="white" stroke="#505050" paint-order="fill stroke markers" d=" M 676.1176199913025 28.95370864868164 L 676.1176199913025 70.95370864868164 Q 676.1176199913025 78.95370864868164 684.1176199913025 78.95370864868164 L 798.4562621116638 78.95370864868164 Q 806.4562621116638 78.95370864868164 806.4562621116638 70.95370864868164 L 806.4562621116638 28.95370864868164 Q 806.4562621116638 20.95370864868164 798.4562621116638 20.95370864868164 L 684.1176199913025 20.95370864868164 Q 676.1176199913025 20.95370864868164 676.1176199913025 28.95370864868164" stroke-miterlimit="10" stroke-width="0.5" stroke-dasharray=""/><path fill="#F0F0F0" stroke="#505050" paint-order="fill stroke markers" d=" M 764.4562621116638 28.95370864868164 L 806.4562621116638 28.95370864868164 L 806.4562621116638 58.95370864868164 L 764.4562621116638 58.95370864868164 L 764.4562621116638 28.95370864868164 Z" stroke-miterlimit="10" stroke-width="0.5" stroke-dasharray=""/><text fill="#505050" stroke="none" font-family="monospace" font-size="14px" font-style="normal" font-weight="normal" text-decoration="normal" x="785.4562621116638" y="46.95370864868164" text-anchor="middle" dominant-baseline="text-after-edge">even</text><path fill="none" stroke="#505050" paint-order="fill stroke markers" d=" M 764.4562621116638 46.95370864868164 L 772.4562621116638 46.95370864868164 L 772.4562621116638 54.95370864868164 L 764.4562621116638 54.95370864868164 L 764.4562621116638 46.95370864868164 Z" stroke-miterlimit="10" stroke-width="0.5" stroke-dasharray=""/><path fill="none" stroke="#505050" paint-order="fill stroke markers" d=" M 798.4562621116638 46.95370864868164 L 806.4562621116638 46.95370864868164 L 806.4562621116638 54.95370864868164 L 798.4562621116638 54.95370864868164 L 798.4562621116638 46.95370864868164 Z" stroke-miterlimit="10" stroke-width="0.5" stroke-dasharray=""/><path fill="white" stroke="#505050" paint-order="fill stroke markers" d=" M 725.7852263450623 30.175296783447266 L 749.7852263450623 30.175296783447266 L 749.7852263450623 60.175296783447266 L 725.7852263450623 60.175296783447266 L 725.7852263450623 30.175296783447266 Z" stroke-miterlimit="10" stroke-width="0.5" stroke-dasharray=""/><path fill="#F0F0F0" stroke="none" paint-order="stroke fill markers" d=""/><text fill="#505050" stroke="none" font-family="monospace" font-size="14px" font-style="normal" font-weight="normal" text-decoration="normal" x="737.7852263450623" y="48.175296783447266" text-anchor="middle" dominant-baseline="text-after-edge">!</text><path fill="none" stroke="#505050" paint-order="fill stroke markers" d=" M 725.7852263450623 48.175296783447266 L 733.7852263450623 48.175296783447266 L 733.7852263450623 56.175296783447266 L 725.7852263450623 56.175296783447266 L 725.7852263450623 48.175296783447266 Z" stroke-miterlimit="10" stroke-width="0.5" stroke-dasharray=""/><path fill="none" stroke="#505050" paint-order="fill stroke markers" d=" M 741.7852263450623 48.175296783447266 L 749.7852263450623 48.175296783447266 L 749.7852263450623 56.175296783447266 L 741.7852263450623 56.175296783447266 L 741.7852263450623 48.175296783447266 Z" stroke-miterlimit="10" stroke-width="0.5" stroke-dasharray=""/><path fill="white" stroke="#505050" paint-order="fill stroke markers" d=" M 684.3414778709412 30.159664154052734 L 717.3414778709412 30.159664154052734 L 717.3414778709412 60.159664154052734 L 684.3414778709412 60.159664154052734 L 684.3414778709412 30.159664154052734 Z" stroke-miterlimit="10" stroke-width="0.5" stroke-dasharray=""/><path fill="#F0F0F0" stroke="none" paint-order="stroke fill markers" d=""/><text fill="#505050" stroke="none" font-family="monospace" font-size="14px" font-style="normal" font-weight="normal" text-decoration="normal" x="700.8414778709412" y="48.159664154052734" text-anchor="middle" dominant-baseline="text-after-edge">odd</text><path fill="none" stroke="#505050" paint-order="fill stroke markers" d=" M 684.3414778709412 48.159664154052734 L 692.3414778709412 48.159664154052734 L 692.3414778709412 56.159664154052734 L 684.3414778709412 56.159664154052734 L 684.3414778709412 48.159664154052734 Z" stroke-miterlimit="10" stroke-width="0.5" stroke-dasharray=""/><path fill="none" stroke="#505050" paint-order="fill stroke markers" d=" M 709.3414778709412 48.159664154052734 L 717.3414778709412 48.159664154052734 L 717.3414778709412 56.159664154052734 L 709.3414778709412 56.159664154052734 L 709.3414778709412 48.159664154052734 Z" stroke-miterlimit="10" stroke-width="0.5" stroke-dasharray=""/><path fill="white" stroke="#505050" paint-order="fill stroke markers" d=" M 830.6981558799744 27.697757720947266 L 830.6981558799744 76.83609008789062 Q 830.6981558799744 84.83609008789062 838.6981558799744 84.83609008789062 L 938.4499678611755 84.83609008789062 Q 946.4499678611755 84.83609008789062 946.4499678611755 76.83609008789062 L 946.4499678611755 27.697757720947266 Q 946.4499678611755 19.697757720947266 938.4499678611755 19.697757720947266 L 838.6981558799744 19.697757720947266 Q 830.6981558799744 19.697757720947266 830.6981558799744 27.697757720947266" stroke-miterlimit="10" stroke-width="0.5" stroke-dasharray=""/><path fill="#F0F0F0" stroke="#505050" paint-order="fill stroke markers" d=" M 921.4499678611755 27.697757720947266 L 946.4499678611755 27.697757720947266 L 946.4499678611755 57.697757720947266 L 921.4499678611755 57.697757720947266 L 921.4499678611755 27.697757720947266 Z" stroke-miterlimit="10" stroke-width="0.5" stroke-dasharray=""/><text fill="#505050" stroke="none" font-family="monospace" font-size="14px" font-style="normal" font-weight="normal" text-decoration="normal" x="933.9499678611755" y="45.697757720947266" text-anchor="middle" dominant-baseline="text-after-edge">/2</text><path fill="none" stroke="#505050" paint-order="fill stroke markers" d=" M 921.4499678611755 45.697757720947266 L 929.4499678611755 45.697757720947266 L 929.4499678611755 53.697757720947266 L 921.4499678611755 53.697757720947266 L 921.4499678611755 45.697757720947266 Z" stroke-miterlimit="10" stroke-width="0.5" stroke-dasharray=""/><path fill="none" stroke="#505050" paint-order="fill stroke markers" d=" M 938.4499678611755 45.697757720947266 L 946.4499678611755 45.697757720947266 L 946.4499678611755 53.697757720947266 L 938.4499678611755 53.697757720947266 L 938.4499678611755 45.697757720947266 Z" stroke-miterlimit="10" stroke-width="0.5" stroke-dasharray=""/><path fill="white" stroke="#505050" paint-order="fill stroke markers" d=" M 881.5816969871521 24.81423568725586 L 905.5816969871521 24.81423568725586 L 905.5816969871521 66.81423568725586 L 881.5816969871521 66.81423568725586 L 881.5816969871521 24.81423568725586 Z" stroke-miterlimit="10" stroke-width="0.5" stroke-dasharray=""/><path fill="#F0F0F0" stroke="none" paint-order="stroke fill markers" d=""/><text fill="#505050" stroke="none" font-family="monospace" font-size="14px" font-style="normal" font-weight="normal" text-decoration="normal" x="893.5816969871521" y="42.81423568725586" text-anchor="middle" dominant-baseline="text-after-edge">/</text><path fill="none" stroke="#505050" paint-order="fill stroke markers" d=" M 881.5816969871521 42.81423568725586 L 889.5816969871521 42.81423568725586 L 889.5816969871521 50.81423568725586 L 881.5816969871521 50.81423568725586 L 881.5816969871521 42.81423568725586 Z" stroke-miterlimit="10" stroke-width="0.5" stroke-dasharray=""/><path fill="none" stroke="#505050" paint-order="fill stroke markers" d=" M 881.5816969871521 54.81423568725586 L 889.5816969871521 54.81423568725586 L 889.5816969871521 62.81423568725586 L 881.5816969871521 62.81423568725586 L 881.5816969871521 54.81423568725586 Z" stroke-miterlimit="10" stroke-width="0.5" stroke-dasharray=""/><path fill="none" stroke="#505050" paint-order="fill stroke markers" d=" M 897.5816969871521 42.81423568725586 L 905.5816969871521 42.81423568725586 L 905.5816969871521 50.81423568725586 L 897.5816969871521 50.81423568725586 L 897.5816969871521 42.81423568725586 Z" stroke-miterlimit="10" stroke-width="0.5" stroke-dasharray=""/><path fill="white" stroke="#505050" paint-order="fill stroke markers" d=" M 835.4098258018494 50.836090087890625 L 867.4098258018494 50.836090087890625 L 867.4098258018494 68.83609008789062 L 835.4098258018494 68.83609008789062 L 835.4098258018494 50.836090087890625 Z" stroke-miterlimit="10" stroke-width="0.5" stroke-dasharray=""/><path fill="#F0F0F0" stroke="none" paint-order="stroke fill markers" d=""/><path fill="none" stroke="#505050" paint-order="fill stroke markers" d=" M 859.4098258018494 54.836090087890625 L 867.4098258018494 54.836090087890625 L 867.4098258018494 62.836090087890625 L 859.4098258018494 62.836090087890625 L 859.4098258018494 54.836090087890625 Z" stroke-miterlimit="10" stroke-width="0.5" stroke-dasharray=""/><text fill="#505050" stroke="none" font-family="monospace" font-size="14px" font-style="normal" font-weight="normal" text-decoration="normal" x="851.4098258018494" y="68.83609008789062" text-anchor="end" dominant-baseline="text-after-edge">2</text><path fill="white" stroke="#505050" paint-order="fill stroke markers" d=" M 339.8188110291958 115.06253433227539 L 339.8188110291958 500.85619354248047 Q 339.8188110291958 508.85619354248047 347.8188110291958 508.85619354248047 L 762.7656135559082 508.85619354248047 Q 770.7656135559082 508.85619354248047 770.7656135559082 500.85619354248047 L 770.7656135559082 115.06253433227539 Q 770.7656135559082 107.06253433227539 762.7656135559082 107.06253433227539 L 347.8188110291958 107.06253433227539 Q 339.8188110291958 107.06253433227539 339.8188110291958 115.06253433227539" stroke-miterlimit="10" stroke-width="0.5" stroke-dasharray=""/><path fill="#F0F0F0" stroke="#505050" paint-order="fill stroke markers" d=" M 697.7656135559082 115.06253433227539 L 770.7656135559082 115.06253433227539 L 770.7656135559082 207.0625343322754 L 697.7656135559082 207.0625343322754 L 697.7656135559082 115.06253433227539 Z" stroke-miterlimit="10" stroke-width="0.5" stroke-dasharray=""/><text fill="#505050" stroke="none" font-family="monospace" font-size="14px" font-style="normal" font-weight="normal" text-decoration="normal" x="734.2656135559082" y="133.0625343322754" text-anchor="middle" dominant-baseline="text-after-edge">expStep</text><path fill="none" stroke="#505050" paint-order="fill stroke markers" d=" M 697.7656135559082 133.0625343322754 L 705.7656135559082 133.0625343322754 L 705.7656135559082 141.0625343322754 L 697.7656135559082 141.0625343322754 L 697.7656135559082 133.0625343322754 Z" stroke-miterlimit="10" stroke-width="0.5" stroke-dasharray=""/><text fill="#505050" stroke="none" font-family="monospace" font-size="14px" font-style="normal" font-weight="normal" text-decoration="normal" x="713.7656135559082" y="147.0625343322754" text-anchor="start" dominant-baseline="text-after-edge">n</text><path fill="none" stroke="#505050" paint-order="fill stroke markers" d=" M 697.7656135559082 147.0625343322754 L 705.7656135559082 147.0625343322754 L 705.7656135559082 155.0625343322754 L 697.7656135559082 155.0625343322754 L 697.7656135559082 147.0625343322754 Z" stroke-miterlimit="10" stroke-width="0.5" stroke-dasharray=""/><text fill="#505050" stroke="none" font-family="monospace" font-size="14px" font-style="normal" font-weight="normal" text-decoration="normal" x="713.7656135559082" y="161.0625343322754" text-anchor="start" dominant-baseline="text-after-edge">y</text><path fill="none" stroke="#505050" paint-order="fill stroke markers" d=" M 697.7656135559082 161.0625343322754 L 705.7656135559082 161.0625343322754 L 705.7656135559082 169.0625343322754 L 697.7656135559082 169.0625343322754 L 697.7656135559082 161.0625343322754 Z" stroke-miterlimit="10" stroke-width="0.5" stroke-dasharray=""/><text fill="#505050" stroke="none" font-family="monospace" font-size="14px" font-style="normal" font-weight="normal" text-decoration="normal" x="713.7656135559082" y="175.0625343322754" text-anchor="start" dominant-baseline="text-after-edge">x</text><path fill="none" stroke="#505050" paint-order="fill stroke markers" d=" M 697.7656135559082 175.0625343322754 L 721.7656135559082 175.0625343322754 L 721.7656135559082 203.0625343322754 L 697.7656135559082 203.0625343322754 L 697.7656135559082 175.0625343322754 Z" stroke-miterlimit="10" stroke-width="0.5" stroke-dasharray=""/><path fill="none" stroke="#505050" paint-order="fill stroke markers" d=" M 697.7656135559082 179.0625343322754 L 705.7656135559082 179.0625343322754 L 705.7656135559082 187.0625343322754 L 697.7656135559082 187.0625343322754 L 697.7656135559082 179.0625343322754 Z" stroke-miterlimit="10" stroke-width="0.5" stroke-dasharray=""/><path fill="none" stroke="#505050" paint-order="fill stroke markers" d=" M 697.7656135559082 191.0625343322754 L 705.7656135559082 191.0625343322754 L 705.7656135559082 199.0625343322754 L 697.7656135559082 199.0625343322754 L 697.7656135559082 191.0625343322754 Z" stroke-miterlimit="10" stroke-width="0.5" stroke-dasharray=""/><path fill="none" stroke="#505050" paint-order="fill stroke markers" d=" M 713.7656135559082 179.0625343322754 L 721.7656135559082 179.0625343322754 L 721.7656135559082 187.0625343322754 L 713.7656135559082 187.0625343322754 L 713.7656135559082 179.0625343322754 Z" stroke-miterlimit="10" stroke-width="0.5" stroke-dasharray=""/><text fill="#505050" stroke="none" font-family="monospace" font-size="14px" font-style="normal" font-weight="normal" text-decoration="normal" x="729.7656135559082" y="198.0625343322754" text-anchor="start" dominant-baseline="text-after-edge">mul</text><path fill="none" stroke="#505050" paint-order="fill stroke markers" d=" M 762.7656135559082 133.0625343322754 L 770.7656135559082 133.0625343322754 L 770.7656135559082 141.0625343322754 L 762.7656135559082 141.0625343322754 L 762.7656135559082 133.0625343322754 Z" stroke-miterlimit="10" stroke-width="0.5" stroke-dasharray=""/><path fill="white" stroke="#505050" paint-order="fill stroke markers" d=" M 347.74383506178856 138.30943298339844 L 379.74383506178856 138.30943298339844 L 379.74383506178856 156.30943298339844 L 347.74383506178856 156.30943298339844 L 355.74383506178856 147.30943298339844 L 347.74383506178856 138.30943298339844" stroke-miterlimit="10" stroke-width="0.5" stroke-dasharray=""/><path fill="none" stroke="#505050" paint-order="fill stroke markers" d=" M 371.74383506178856 142.30943298339844 L 379.74383506178856 142.30943298339844 L 379.74383506178856 150.30943298339844 L 371.74383506178856 150.30943298339844 L 371.74383506178856 142.30943298339844 Z" stroke-miterlimit="10" stroke-width="0.5" stroke-dasharray=""/><text fill="#505050" stroke="none" font-family="monospace" font-size="14px" font-style="normal" font-weight="normal" text-decoration="normal" x="363.74383506178856" y="156.30943298339844" text-anchor="end" dominant-baseline="text-after-edge">n</text><path fill="white" stroke="#505050" paint-order="fill stroke markers" d=" M 348.1220642030239 245.40005111694336 L 380.1220642030239 245.40005111694336 L 380.1220642030239 263.40005111694336 L 348.1220642030239 263.40005111694336 L 356.1220642030239 254.40005111694336 L 348.1220642030239 245.40005111694336" stroke-miterlimit="10" stroke-width="0.5" stroke-dasharray=""/><path fill="none" stroke="#505050" paint-order="fill stroke markers" d=" M 372.1220642030239 249.40005111694336 L 380.1220642030239 249.40005111694336 L 380.1220642030239 257.40005111694336 L 372.1220642030239 257.40005111694336 L 372.1220642030239 249.40005111694336 Z" stroke-miterlimit="10" stroke-width="0.5" stroke-dasharray=""/><text fill="#505050" stroke="none" font-family="monospace" font-size="14px" font-style="normal" font-weight="normal" text-decoration="normal" x="364.1220642030239" y="263.40005111694336" text-anchor="end" dominant-baseline="text-after-edge">x</text><path fill="white" stroke="#505050" paint-order="fill stroke markers" d=" M 346.78765258193016 178.94687271118164 L 378.78765258193016 178.94687271118164 L 378.78765258193016 196.94687271118164 L 346.78765258193016 196.94687271118164 L 354.78765258193016 187.94687271118164 L 346.78765258193016 178.94687271118164" stroke-miterlimit="10" stroke-width="0.5" stroke-dasharray=""/><path fill="none" stroke="#505050" paint-order="fill stroke markers" d=" M 370.78765258193016 182.94687271118164 L 378.78765258193016 182.94687271118164 L 378.78765258193016 190.94687271118164 L 370.78765258193016 190.94687271118164 L 370.78765258193016 182.94687271118164 Z" stroke-miterlimit="10" stroke-width="0.5" stroke-dasharray=""/><text fill="#505050" stroke="none" font-family="monospace" font-size="14px" font-style="normal" font-weight="normal" text-decoration="normal" x="362.78765258193016" y="196.94687271118164" text-anchor="end" dominant-baseline="text-after-edge">y</text><path fill="white" stroke="#505050" paint-order="fill stroke markers" d=" M 675.277227640152 137.31461095809937 L 683.277227640152 137.31461095809937 L 691.277227640152 145.31461095809937 L 683.277227640152 153.31461095809937 L 675.277227640152 153.31461095809937 L 675.277227640152 137.31461095809937" stroke-miterlimit="10" stroke-width="0.5" stroke-dasharray=""/><path fill="none" stroke="#505050" paint-order="fill stroke markers" d=" M 675.277227640152 141.31461095809937 L 683.277227640152 141.31461095809937 L 683.277227640152 149.31461095809937 L 675.277227640152 149.31461095809937 L 675.277227640152 141.31461095809937 Z" stroke-miterlimit="10" stroke-width="0.5" stroke-dasharray=""/><path fill="white" stroke="#505050" paint-order="fill stroke markers" d=" M 403.13760209083557 114.41562032699585 L 445.13760209083557 114.41562032699585 L 445.13760209083557 144.41562032699585 L 403.13760209083557 144.41562032699585 L 403.13760209083557 114.41562032699585 Z" stroke-miterlimit="10" stroke-width="0.5" stroke-dasharray=""/><path fill="#F0F0F0" stroke="none" paint-order="stroke fill markers" d=""/><text fill="#505050" stroke="none" font-family="monospace" font-size="14px" font-style="normal" font-weight="normal" text-decoration="normal" x="424.13760209083557" y="132.41562032699585" text-anchor="middle" dominant-baseline="text-after-edge">== 0</text><path fill="none" stroke="#505050" paint-order="fill stroke markers" d=" M 403.13760209083557 132.41562032699585 L 411.13760209083557 132.41562032699585 L 411.13760209083557 140.41562032699585 L 403.13760209083557 140.41562032699585 L 403.13760209083557 132.41562032699585 Z" stroke-miterlimit="10" stroke-width="0.5" stroke-dasharray=""/><path fill="none" stroke="#505050" paint-order="fill stroke markers" d=" M 437.13760209083557 132.41562032699585 L 445.13760209083557 132.41562032699585 L 445.13760209083557 140.41562032699585 L 437.13760209083557 140.41562032699585 L 437.13760209083557 132.41562032699585 Z" stroke-miterlimit="10" stroke-width="0.5" stroke-dasharray=""/><path fill="white" stroke="#505050" paint-order="fill stroke markers" d=" M 639.0607359409332 123.25885152816772 L 663.0607359409332 123.25885152816772 L 663.0607359409332 177.25885152816772 L 639.0607359409332 177.25885152816772 L 639.0607359409332 123.25885152816772 Z" stroke-miterlimit="10" stroke-width="0.5" stroke-dasharray=""/><path fill="#F0F0F0" stroke="none" paint-order="stroke fill markers" d=""/><text fill="#505050" stroke="none" font-family="monospace" font-size="14px" font-style="normal" font-weight="normal" text-decoration="normal" x="651.0607359409332" y="141.25885152816772" text-anchor="middle" dominant-baseline="text-after-edge">?</text><path fill="none" stroke="#505050" paint-order="fill stroke markers" d=" M 639.0607359409332 141.25885152816772 L 647.0607359409332 141.25885152816772 L 647.0607359409332 149.25885152816772 L 639.0607359409332 149.25885152816772 L 639.0607359409332 141.25885152816772 Z" stroke-miterlimit="10" stroke-width="0.5" stroke-dasharray=""/><path fill="none" stroke="#505050" paint-order="fill stroke markers" d=" M 639.0607359409332 153.25885152816772 L 647.0607359409332 153.25885152816772 L 647.0607359409332 161.25885152816772 L 639.0607359409332 161.25885152816772 L 639.0607359409332 153.25885152816772 Z" stroke-miterlimit="10" stroke-width="0.5" stroke-dasharray=""/><path fill="none" stroke="#505050" paint-order="fill stroke markers" d=" M 639.0607359409332 165.25885152816772 L 647.0607359409332 165.25885152816772 L 647.0607359409332 173.25885152816772 L 639.0607359409332 173.25885152816772 L 639.0607359409332 165.25885152816772 Z" stroke-miterlimit="10" stroke-width="0.5" stroke-dasharray=""/><path fill="none" stroke="#505050" paint-order="fill stroke markers" d=" M 655.0607359409332 141.25885152816772 L 663.0607359409332 141.25885152816772 L 663.0607359409332 149.25885152816772 L 655.0607359409332 149.25885152816772 L 655.0607359409332 141.25885152816772 Z" stroke-miterlimit="10" stroke-width="0.5" stroke-dasharray=""/><path fill="white" stroke="#505050" paint-order="fill stroke markers" d=" M 432.45009756088257 215.96254348754883 L 497.45009756088257 215.96254348754883 L 497.45009756088257 261.9625434875488 L 432.45009756088257 261.9625434875488 L 432.45009756088257 215.96254348754883 Z" stroke-miterlimit="10" stroke-width="0.5" stroke-dasharray=""/><path fill="#F0F0F0" stroke="none" paint-order="stroke fill markers" d=""/><path fill="none" stroke="#505050" paint-order="fill stroke markers" d=" M 432.45009756088257 219.96254348754883 L 440.45009756088257 219.96254348754883 L 440.45009756088257 227.96254348754883 L 432.45009756088257 227.96254348754883 L 432.45009756088257 219.96254348754883 Z" stroke-miterlimit="10" stroke-width="0.5" stroke-dasharray=""/><text fill="#505050" stroke="none" font-family="monospace" font-size="14px" font-style="normal" font-weight="normal" text-decoration="normal" x="448.45009756088257" y="233.96254348754883" text-anchor="start" dominant-baseline="text-after-edge">n</text><path fill="none" stroke="#505050" paint-order="fill stroke markers" d=" M 432.45009756088257 233.96254348754883 L 440.45009756088257 233.96254348754883 L 440.45009756088257 241.96254348754883 L 432.45009756088257 241.96254348754883 L 432.45009756088257 233.96254348754883 Z" stroke-miterlimit="10" stroke-width="0.5" stroke-dasharray=""/><text fill="#505050" stroke="none" font-family="monospace" font-size="14px" font-style="normal" font-weight="normal" text-decoration="normal" x="448.45009756088257" y="247.96254348754883" text-anchor="start" dominant-baseline="text-after-edge">y</text><path fill="none" stroke="#505050" paint-order="fill stroke markers" d=" M 432.45009756088257 247.96254348754883 L 440.45009756088257 247.96254348754883 L 440.45009756088257 255.96254348754883 L 432.45009756088257 255.96254348754883 L 432.45009756088257 247.96254348754883 Z" stroke-miterlimit="10" stroke-width="0.5" stroke-dasharray=""/><text fill="#505050" stroke="none" font-family="monospace" font-size="14px" font-style="normal" font-weight="normal" text-decoration="normal" x="448.45009756088257" y="261.9625434875488" text-anchor="start" dominant-baseline="text-after-edge">x</text><path fill="none" stroke="#505050" paint-order="fill stroke markers" d=" M 489.45009756088257 219.96254348754883 L 497.45009756088257 219.96254348754883 L 497.45009756088257 227.96254348754883 L 489.45009756088257 227.96254348754883 L 489.45009756088257 219.96254348754883 Z" stroke-miterlimit="10" stroke-width="0.5" stroke-dasharray=""/><text fill="#505050" stroke="none" font-family="monospace" font-size="14px" font-style="normal" font-weight="normal" text-decoration="normal" x="481.45009756088257" y="233.96254348754883" text-anchor="end" dominant-baseline="text-after-edge">y'</text><path fill="none" stroke="#505050" paint-order="fill stroke markers" d=" M 489.45009756088257 233.96254348754883 L 497.45009756088257 233.96254348754883 L 497.45009756088257 241.96254348754883 L 489.45009756088257 241.96254348754883 L 489.45009756088257 233.96254348754883 Z" stroke-miterlimit="10" stroke-width="0.5" stroke-dasharray=""/><text fill="#505050" stroke="none" font-family="monospace" font-size="14px" font-style="normal" font-weight="normal" text-decoration="normal" x="481.45009756088257" y="247.96254348754883" text-anchor="end" dominant-baseline="text-after-edge">x'</text><path fill="#e0e0e0" stroke="none" paint-order="stroke fill markers" d=" M 762.7656135559082 352.9311981201172 L 754.7656135559082 329.9311981201172 L 754.7656135559082 375.9311981201172 Z M 424.45009756088257 238.96254348754883 L 432.45009756088257 215.96254348754883 L 432.45009756088257 261.9625434875488 Z"/><path fill="none" stroke="none"/><path fill="none" stroke="#e0e0e0" paint-order="fill stroke markers" d=" M 762.7656135559082 352.9311981201172 C 869.8644549789434 352.9311981201172 317.35125613784743 238.96254348754883 424.45009756088257 238.96254348754883" stroke-miterlimit="10" stroke-width="2" stroke-dasharray=""/><path fill="white" stroke="#505050" paint-order="fill stroke markers" d=" M 550.2875609397888 187.65936279296875 L 623.2875609397888 187.65936279296875 L 623.2875609397888 279.65936279296875 L 550.2875609397888 279.65936279296875 L 550.2875609397888 187.65936279296875 Z" stroke-miterlimit="10" stroke-width="0.5" stroke-dasharray=""/><path fill="#F0F0F0" stroke="none" paint-order="stroke fill markers" d=""/><text fill="#505050" stroke="none" font-family="monospace" font-size="14px" font-style="normal" font-weight="normal" text-decoration="normal" x="586.7875609397888" y="205.65936279296875" text-anchor="middle" dominant-baseline="text-after-edge">expStep</text><path fill="none" stroke="#505050" paint-order="fill stroke markers" d=" M 550.2875609397888 205.65936279296875 L 558.2875609397888 205.65936279296875 L 558.2875609397888 213.65936279296875 L 550.2875609397888 213.65936279296875 L 550.2875609397888 205.65936279296875 Z" stroke-miterlimit="10" stroke-width="0.5" stroke-dasharray=""/><text fill="#505050" stroke="none" font-family="monospace" font-size="14px" font-style="normal" font-weight="normal" text-decoration="normal" x="566.2875609397888" y="219.65936279296875" text-anchor="start" dominant-baseline="text-after-edge">n</text><path fill="none" stroke="#505050" paint-order="fill stroke markers" d=" M 550.2875609397888 219.65936279296875 L 558.2875609397888 219.65936279296875 L 558.2875609397888 227.65936279296875 L 550.2875609397888 227.65936279296875 L 550.2875609397888 219.65936279296875 Z" stroke-miterlimit="10" stroke-width="0.5" stroke-dasharray=""/><text fill="#505050" stroke="none" font-family="monospace" font-size="14px" font-style="normal" font-weight="normal" text-decoration="normal" x="566.2875609397888" y="233.65936279296875" text-anchor="start" dominant-baseline="text-after-edge">y</text><path fill="none" stroke="#505050" paint-order="fill stroke markers" d=" M 550.2875609397888 233.65936279296875 L 558.2875609397888 233.65936279296875 L 558.2875609397888 241.65936279296875 L 550.2875609397888 241.65936279296875 L 550.2875609397888 233.65936279296875 Z" stroke-miterlimit="10" stroke-width="0.5" stroke-dasharray=""/><text fill="#505050" stroke="none" font-family="monospace" font-size="14px" font-style="normal" font-weight="normal" text-decoration="normal" x="566.2875609397888" y="247.65936279296875" text-anchor="start" dominant-baseline="text-after-edge">x</text><path fill="none" stroke="#505050" paint-order="fill stroke markers" d=" M 550.2875609397888 247.65936279296875 L 574.2875609397888 247.65936279296875 L 574.2875609397888 275.65936279296875 L 550.2875609397888 275.65936279296875 L 550.2875609397888 247.65936279296875 Z" stroke-miterlimit="10" stroke-width="0.5" stroke-dasharray=""/><path fill="none" stroke="#505050" paint-order="fill stroke markers" d=" M 550.2875609397888 251.65936279296875 L 558.2875609397888 251.65936279296875 L 558.2875609397888 259.65936279296875 L 550.2875609397888 259.65936279296875 L 550.2875609397888 251.65936279296875 Z" stroke-miterlimit="10" stroke-width="0.5" stroke-dasharray=""/><path fill="none" stroke="#505050" paint-order="fill stroke markers" d=" M 550.2875609397888 263.65936279296875 L 558.2875609397888 263.65936279296875 L 558.2875609397888 271.65936279296875 L 550.2875609397888 271.65936279296875 L 550.2875609397888 263.65936279296875 Z" stroke-miterlimit="10" stroke-width="0.5" stroke-dasharray=""/><path fill="none" stroke="#505050" paint-order="fill stroke markers" d=" M 566.2875609397888 251.65936279296875 L 574.2875609397888 251.65936279296875 L 574.2875609397888 259.65936279296875 L 566.2875609397888 259.65936279296875 L 566.2875609397888 251.65936279296875 Z" stroke-miterlimit="10" stroke-width="0.5" stroke-dasharray=""/><text fill="#505050" stroke="none" font-family="monospace" font-size="14px" font-style="normal" font-weight="normal" text-decoration="normal" x="582.2875609397888" y="270.65936279296875" text-anchor="start" dominant-baseline="text-after-edge">mul</text><path fill="none" stroke="#505050" paint-order="fill stroke markers" d=" M 615.2875609397888 205.65936279296875 L 623.2875609397888 205.65936279296875 L 623.2875609397888 213.65936279296875 L 615.2875609397888 213.65936279296875 L 615.2875609397888 205.65936279296875 Z" stroke-miterlimit="10" stroke-width="0.5" stroke-dasharray=""/><path fill="#e0e0e0" stroke="none" paint-order="stroke fill markers" d=" M 778.7656135559082 161.0625343322754 L 770.7656135559082 115.06253433227539 L 770.7656135559082 207.0625343322754 Z M 542.2875609397888 233.65936279296875 L 550.2875609397888 187.65936279296875 L 550.2875609397888 279.65936279296875 Z"/><path fill="none" stroke="none"/><path fill="none" stroke="#e0e0e0" paint-order="fill stroke markers" d=" M 778.7656135559082 161.0625343322754 C 852.9767663461035 161.0625343322754 468.07640814959353 233.65936279296875 542.2875609397888 233.65936279296875" stroke-miterlimit="10" stroke-width="2" stroke-dasharray=""/><path fill="white" stroke="#505050" paint-order="fill stroke markers" d=" M 506.2500853538513 188.01876831054688 L 531.2500853538513 188.01876831054688 L 531.2500853538513 218.01876831054688 L 506.2500853538513 218.01876831054688 L 506.2500853538513 188.01876831054688 Z" stroke-miterlimit="10" stroke-width="0.5" stroke-dasharray=""/><path fill="#F0F0F0" stroke="none" paint-order="stroke fill markers" d=""/><text fill="#505050" stroke="none" font-family="monospace" font-size="14px" font-style="normal" font-weight="normal" text-decoration="normal" x="518.7500853538513" y="206.01876831054688" text-anchor="middle" dominant-baseline="text-after-edge">/2</text><path fill="none" stroke="#505050" paint-order="fill stroke markers" d=" M 506.2500853538513 206.01876831054688 L 514.2500853538513 206.01876831054688 L 514.2500853538513 214.01876831054688 L 506.2500853538513 214.01876831054688 L 506.2500853538513 206.01876831054688 Z" stroke-miterlimit="10" stroke-width="0.5" stroke-dasharray=""/><path fill="none" stroke="#505050" paint-order="fill stroke markers" d=" M 523.2500853538513 206.01876831054688 L 531.2500853538513 206.01876831054688 L 531.2500853538513 214.01876831054688 L 523.2500853538513 214.01876831054688 L 523.2500853538513 206.01876831054688 Z" stroke-miterlimit="10" stroke-width="0.5" stroke-dasharray=""/><path fill="white" stroke="#505050" paint-order="fill stroke markers" d=" M 445.74675369262695 329.9311981201172 L 445.74675369262695 484.85619354248047 Q 445.74675369262695 492.85619354248047 453.74675369262695 492.85619354248047 L 746.7656135559082 492.85619354248047 Q 754.7656135559082 492.85619354248047 754.7656135559082 484.85619354248047 L 754.7656135559082 329.9311981201172 Q 754.7656135559082 321.9311981201172 746.7656135559082 321.9311981201172 L 453.74675369262695 321.9311981201172 Q 445.74675369262695 321.9311981201172 445.74675369262695 329.9311981201172" stroke-miterlimit="10" stroke-width="0.5" stroke-dasharray=""/><path fill="#F0F0F0" stroke="#505050" paint-order="fill stroke markers" d=" M 689.7656135559082 329.9311981201172 L 754.7656135559082 329.9311981201172 L 754.7656135559082 375.9311981201172 L 689.7656135559082 375.9311981201172 L 689.7656135559082 329.9311981201172 Z" stroke-miterlimit="10" stroke-width="0.5" stroke-dasharray=""/><path fill="none" stroke="#505050" paint-order="fill stroke markers" d=" M 689.7656135559082 333.9311981201172 L 697.7656135559082 333.9311981201172 L 697.7656135559082 341.9311981201172 L 689.7656135559082 341.9311981201172 L 689.7656135559082 333.9311981201172 Z" stroke-miterlimit="10" stroke-width="0.5" stroke-dasharray=""/><text fill="#505050" stroke="none" font-family="monospace" font-size="14px" font-style="normal" font-weight="normal" text-decoration="normal" x="705.7656135559082" y="347.9311981201172" text-anchor="start" dominant-baseline="text-after-edge">n</text><path fill="none" stroke="#505050" paint-order="fill stroke markers" d=" M 689.7656135559082 347.9311981201172 L 697.7656135559082 347.9311981201172 L 697.7656135559082 355.9311981201172 L 689.7656135559082 355.9311981201172 L 689.7656135559082 347.9311981201172 Z" stroke-miterlimit="10" stroke-width="0.5" stroke-dasharray=""/><text fill="#505050" stroke="none" font-family="monospace" font-size="14px" font-style="normal" font-weight="normal" text-decoration="normal" x="705.7656135559082" y="361.9311981201172" text-anchor="start" dominant-baseline="text-after-edge">y</text><path fill="none" stroke="#505050" paint-order="fill stroke markers" d=" M 689.7656135559082 361.9311981201172 L 697.7656135559082 361.9311981201172 L 697.7656135559082 369.9311981201172 L 689.7656135559082 369.9311981201172 L 689.7656135559082 361.9311981201172 Z" stroke-miterlimit="10" stroke-width="0.5" stroke-dasharray=""/><text fill="#505050" stroke="none" font-family="monospace" font-size="14px" font-style="normal" font-weight="normal" text-decoration="normal" x="705.7656135559082" y="375.9311981201172" text-anchor="start" dominant-baseline="text-after-edge">x</text><path fill="none" stroke="#505050" paint-order="fill stroke markers" d=" M 746.7656135559082 333.9311981201172 L 754.7656135559082 333.9311981201172 L 754.7656135559082 341.9311981201172 L 746.7656135559082 341.9311981201172 L 746.7656135559082 333.9311981201172 Z" stroke-miterlimit="10" stroke-width="0.5" stroke-dasharray=""/><text fill="#505050" stroke="none" font-family="monospace" font-size="14px" font-style="normal" font-weight="normal" text-decoration="normal" x="738.7656135559082" y="347.9311981201172" text-anchor="end" dominant-baseline="text-after-edge">y'</text><path fill="none" stroke="#505050" paint-order="fill stroke markers" d=" M 746.7656135559082 347.9311981201172 L 754.7656135559082 347.9311981201172 L 754.7656135559082 355.9311981201172 L 746.7656135559082 355.9311981201172 L 746.7656135559082 347.9311981201172 Z" stroke-miterlimit="10" stroke-width="0.5" stroke-dasharray=""/><text fill="#505050" stroke="none" font-family="monospace" font-size="14px" font-style="normal" font-weight="normal" text-decoration="normal" x="738.7656135559082" y="361.9311981201172" text-anchor="end" dominant-baseline="text-after-edge">x'</text><path fill="white" stroke="#505050" paint-order="fill stroke markers" d=" M 529.8154907226562 384.4780807495117 L 562.8154907226562 384.4780807495117 L 562.8154907226562 426.4780807495117 L 529.8154907226562 426.4780807495117 L 529.8154907226562 384.4780807495117 Z" stroke-miterlimit="10" stroke-width="0.5" stroke-dasharray=""/><path fill="#F0F0F0" stroke="none" paint-order="stroke fill markers" d=""/><text fill="#505050" stroke="none" font-family="monospace" font-size="14px" font-style="normal" font-weight="normal" text-decoration="normal" x="546.3154907226562" y="402.4780807495117" text-anchor="middle" dominant-baseline="text-after-edge">mul</text><path fill="none" stroke="#505050" paint-order="fill stroke markers" d=" M 529.8154907226562 402.4780807495117 L 537.8154907226562 402.4780807495117 L 537.8154907226562 410.4780807495117 L 529.8154907226562 410.4780807495117 L 529.8154907226562 402.4780807495117 Z" stroke-miterlimit="10" stroke-width="0.5" stroke-dasharray=""/><path fill="none" stroke="#505050" paint-order="fill stroke markers" d=" M 529.8154907226562 414.4780807495117 L 537.8154907226562 414.4780807495117 L 537.8154907226562 422.4780807495117 L 529.8154907226562 422.4780807495117 L 529.8154907226562 414.4780807495117 Z" stroke-miterlimit="10" stroke-width="0.5" stroke-dasharray=""/><path fill="none" stroke="#505050" paint-order="fill stroke markers" d=" M 554.8154907226562 402.4780807495117 L 562.8154907226562 402.4780807495117 L 562.8154907226562 410.4780807495117 L 554.8154907226562 410.4780807495117 L 554.8154907226562 402.4780807495117 Z" stroke-miterlimit="10" stroke-width="0.5" stroke-dasharray=""/><path fill="#e0e0e0" stroke="none" paint-order="stroke fill markers" d=" M 400.0935592651367 370.30625915527344 L 392.0935592651367 349.30625915527344 L 392.0935592651367 391.30625915527344 Z M 521.8154907226562 405.4780807495117 L 529.8154907226562 384.4780807495117 L 529.8154907226562 426.4780807495117 Z"/><path fill="none" stroke="none"/><path fill="none" stroke="#e0e0e0" paint-order="fill stroke markers" d=" M 400.0935592651367 370.30625915527344 C 438.1040276505768 370.30625915527344 483.80502233721614 405.4780807495117 521.8154907226562 405.4780807495117" stroke-miterlimit="10" stroke-width="2" stroke-dasharray=""/><path fill="white" stroke="#505050" paint-order="fill stroke markers" d=" M 454.37197265028954 458.85619354248047 L 486.37197265028954 458.85619354248047 L 486.37197265028954 476.85619354248047 L 454.37197265028954 476.85619354248047 L 462.37197265028954 467.85619354248047 L 454.37197265028954 458.85619354248047" stroke-miterlimit="10" stroke-width="0.5" stroke-dasharray=""/><path fill="none" stroke="#505050" paint-order="fill stroke markers" d=" M 478.37197265028954 462.85619354248047 L 486.37197265028954 462.85619354248047 L 486.37197265028954 470.85619354248047 L 478.37197265028954 470.85619354248047 L 478.37197265028954 462.85619354248047 Z" stroke-miterlimit="10" stroke-width="0.5" stroke-dasharray=""/><text fill="#505050" stroke="none" font-family="monospace" font-size="14px" font-style="normal" font-weight="normal" text-decoration="normal" x="470.37197265028954" y="476.85619354248047" text-anchor="end" dominant-baseline="text-after-edge">x</text><path fill="white" stroke="#505050" paint-order="fill stroke markers" d=" M 454.1907592713833 378.10621643066406 L 486.1907592713833 378.10621643066406 L 486.1907592713833 396.10621643066406 L 454.1907592713833 396.10621643066406 L 462.1907592713833 387.10621643066406 L 454.1907592713833 378.10621643066406" stroke-miterlimit="10" stroke-width="0.5" stroke-dasharray=""/><path fill="none" stroke="#505050" paint-order="fill stroke markers" d=" M 478.1907592713833 382.10621643066406 L 486.1907592713833 382.10621643066406 L 486.1907592713833 390.10621643066406 L 478.1907592713833 390.10621643066406 L 478.1907592713833 382.10621643066406 Z" stroke-miterlimit="10" stroke-width="0.5" stroke-dasharray=""/><text fill="#505050" stroke="none" font-family="monospace" font-size="14px" font-style="normal" font-weight="normal" text-decoration="normal" x="470.1907592713833" y="396.10621643066406" text-anchor="end" dominant-baseline="text-after-edge">y</text><path fill="white" stroke="#505050" paint-order="fill stroke markers" d=" M 628.943603515625 447.81869888305664 L 661.943603515625 447.81869888305664 L 669.943603515625 456.81869888305664 L 661.943603515625 465.81869888305664 L 628.943603515625 465.81869888305664 L 628.943603515625 447.81869888305664" stroke-miterlimit="10" stroke-width="0.5" stroke-dasharray=""/><path fill="none" stroke="#505050" paint-order="fill stroke markers" d=" M 628.943603515625 451.81869888305664 L 636.943603515625 451.81869888305664 L 636.943603515625 459.81869888305664 L 628.943603515625 459.81869888305664 L 628.943603515625 451.81869888305664 Z" stroke-miterlimit="10" stroke-width="0.5" stroke-dasharray=""/><text fill="#505050" stroke="none" font-family="monospace" font-size="14px" font-style="normal" font-weight="normal" text-decoration="normal" x="644.943603515625" y="465.81869888305664" text-anchor="start" dominant-baseline="text-after-edge">x'</text><path fill="white" stroke="#505050" paint-order="fill stroke markers" d=" M 623.7780151367188 344.09058380126953 L 656.7780151367188 344.09058380126953 L 664.7780151367188 353.09058380126953 L 656.7780151367188 362.09058380126953 L 623.7780151367188 362.09058380126953 L 623.7780151367188 344.09058380126953" stroke-miterlimit="10" stroke-width="0.5" stroke-dasharray=""/><path fill="none" stroke="#505050" paint-order="fill stroke markers" d=" M 623.7780151367188 348.09058380126953 L 631.7780151367188 348.09058380126953 L 631.7780151367188 356.09058380126953 L 623.7780151367188 356.09058380126953 L 623.7780151367188 348.09058380126953 Z" stroke-miterlimit="10" stroke-width="0.5" stroke-dasharray=""/><text fill="#505050" stroke="none" font-family="monospace" font-size="14px" font-style="normal" font-weight="normal" text-decoration="normal" x="639.7780151367188" y="362.09058380126953" text-anchor="start" dominant-baseline="text-after-edge">y'</text><path fill="white" stroke="#505050" paint-order="fill stroke markers" d=" M 529.2936644554138 433.7531051635742 L 562.2936644554138 433.7531051635742 L 562.2936644554138 475.7531051635742 L 529.2936644554138 475.7531051635742 L 529.2936644554138 433.7531051635742 Z" stroke-miterlimit="10" stroke-width="0.5" stroke-dasharray=""/><path fill="#F0F0F0" stroke="none" paint-order="stroke fill markers" d=""/><text fill="#505050" stroke="none" font-family="monospace" font-size="14px" font-style="normal" font-weight="normal" text-decoration="normal" x="545.7936644554138" y="451.7531051635742" text-anchor="middle" dominant-baseline="text-after-edge">mul</text><path fill="none" stroke="#505050" paint-order="fill stroke markers" d=" M 529.2936644554138 451.7531051635742 L 537.2936644554138 451.7531051635742 L 537.2936644554138 459.7531051635742 L 529.2936644554138 459.7531051635742 L 529.2936644554138 451.7531051635742 Z" stroke-miterlimit="10" stroke-width="0.5" stroke-dasharray=""/><path fill="none" stroke="#505050" paint-order="fill stroke markers" d=" M 529.2936644554138 463.7531051635742 L 537.2936644554138 463.7531051635742 L 537.2936644554138 471.7531051635742 L 529.2936644554138 471.7531051635742 L 529.2936644554138 463.7531051635742 Z" stroke-miterlimit="10" stroke-width="0.5" stroke-dasharray=""/><path fill="none" stroke="#505050" paint-order="fill stroke markers" d=" M 554.2936644554138 451.7531051635742 L 562.2936644554138 451.7531051635742 L 562.2936644554138 459.7531051635742 L 554.2936644554138 459.7531051635742 L 554.2936644554138 451.7531051635742 Z" stroke-miterlimit="10" stroke-width="0.5" stroke-dasharray=""/><path fill="#e0e0e0" stroke="none" paint-order="stroke fill markers" d=" M 400.0935592651367 370.30625915527344 L 392.0935592651367 349.30625915527344 L 392.0935592651367 391.30625915527344 Z M 521.2936644554138 454.7531051635742 L 529.2936644554138 433.7531051635742 L 529.2936644554138 475.7531051635742 Z"/><path fill="none" stroke="none"/><path fill="none" stroke="#e0e0e0" paint-order="fill stroke markers" d=" M 400.0935592651367 370.30625915527344 C 444.40908901374235 370.30625915527344 476.9781347068082 454.7531051635742 521.2936644554138 454.7531051635742" stroke-miterlimit="10" stroke-width="2" stroke-dasharray=""/><path fill="white" stroke="#505050" paint-order="fill stroke markers" d=" M 454.7469173371792 342.7124938964844 L 486.7469173371792 342.7124938964844 L 486.7469173371792 360.7124938964844 L 454.7469173371792 360.7124938964844 L 462.7469173371792 351.7124938964844 L 454.7469173371792 342.7124938964844" stroke-miterlimit="10" stroke-width="0.5" stroke-dasharray=""/><path fill="none" stroke="#505050" paint-order="fill stroke markers" d=" M 478.7469173371792 346.7124938964844 L 486.7469173371792 346.7124938964844 L 486.7469173371792 354.7124938964844 L 478.7469173371792 354.7124938964844 L 478.7469173371792 346.7124938964844 Z" stroke-miterlimit="10" stroke-width="0.5" stroke-dasharray=""/><text fill="#505050" stroke="none" font-family="monospace" font-size="14px" font-style="normal" font-weight="normal" text-decoration="normal" x="470.7469173371792" y="360.7124938964844" text-anchor="end" dominant-baseline="text-after-edge">n</text><path fill="white" stroke="#505050" paint-order="fill stroke markers" d=" M 583.5186400413513 330.04683685302734 L 607.5186400413513 330.04683685302734 L 607.5186400413513 384.04683685302734 L 583.5186400413513 384.04683685302734 L 583.5186400413513 330.04683685302734 Z" stroke-miterlimit="10" stroke-width="0.5" stroke-dasharray=""/><path fill="#F0F0F0" stroke="none" paint-order="stroke fill markers" d=""/><text fill="#505050" stroke="none" font-family="monospace" font-size="14px" font-style="normal" font-weight="normal" text-decoration="normal" x="595.5186400413513" y="348.04683685302734" text-anchor="middle" dominant-baseline="text-after-edge">?</text><path fill="none" stroke="#505050" paint-order="fill stroke markers" d=" M 583.5186400413513 348.04683685302734 L 591.5186400413513 348.04683685302734 L 591.5186400413513 356.04683685302734 L 583.5186400413513 356.04683685302734 L 583.5186400413513 348.04683685302734 Z" stroke-miterlimit="10" stroke-width="0.5" stroke-dasharray=""/><path fill="none" stroke="#505050" paint-order="fill stroke markers" d=" M 583.5186400413513 360.04683685302734 L 591.5186400413513 360.04683685302734 L 591.5186400413513 368.04683685302734 L 583.5186400413513 368.04683685302734 L 583.5186400413513 360.04683685302734 Z" stroke-miterlimit="10" stroke-width="0.5" stroke-dasharray=""/><path fill="none" stroke="#505050" paint-order="fill stroke markers" d=" M 583.5186400413513 372.04683685302734 L 591.5186400413513 372.04683685302734 L 591.5186400413513 380.04683685302734 L 583.5186400413513 380.04683685302734 L 583.5186400413513 372.04683685302734 Z" stroke-miterlimit="10" stroke-width="0.5" stroke-dasharray=""/><path fill="none" stroke="#505050" paint-order="fill stroke markers" d=" M 599.5186400413513 348.04683685302734 L 607.5186400413513 348.04683685302734 L 607.5186400413513 356.04683685302734 L 599.5186400413513 356.04683685302734 L 599.5186400413513 348.04683685302734 Z" stroke-miterlimit="10" stroke-width="0.5" stroke-dasharray=""/><path fill="white" stroke="#505050" paint-order="fill stroke markers" d=" M 497.3155150413513 328.47808837890625 L 539.3155150413513 328.47808837890625 L 539.3155150413513 358.47808837890625 L 497.3155150413513 358.47808837890625 L 497.3155150413513 328.47808837890625 Z" stroke-miterlimit="10" stroke-width="0.5" stroke-dasharray=""/><path fill="#F0F0F0" stroke="none" paint-order="stroke fill markers" d=""/><text fill="#505050" stroke="none" font-family="monospace" font-size="14px" font-style="normal" font-weight="normal" text-decoration="normal" x="518.3155150413513" y="346.47808837890625" text-anchor="middle" dominant-baseline="text-after-edge">even</text><path fill="none" stroke="#505050" paint-order="fill stroke markers" d=" M 497.3155150413513 346.47808837890625 L 505.3155150413513 346.47808837890625 L 505.3155150413513 354.47808837890625 L 497.3155150413513 354.47808837890625 L 497.3155150413513 346.47808837890625 Z" stroke-miterlimit="10" stroke-width="0.5" stroke-dasharray=""/><path fill="none" stroke="#505050" paint-order="fill stroke markers" d=" M 531.3155150413513 346.47808837890625 L 539.3155150413513 346.47808837890625 L 539.3155150413513 354.47808837890625 L 531.3155150413513 354.47808837890625 L 531.3155150413513 346.47808837890625 Z" stroke-miterlimit="10" stroke-width="0.5" stroke-dasharray=""/><path fill="none" stroke="none"/><path fill="white" stroke="#505050" paint-order="fill stroke markers" d=" M 343.0935592651367 345.30625915527344 L 392.0935592651367 345.30625915527344 L 392.0935592651367 395.30625915527344 L 343.0935592651367 395.30625915527344 L 351.0935592651367 370.30625915527344 L 343.0935592651367 345.30625915527344" stroke-miterlimit="10" stroke-width="0.5" stroke-dasharray="6,3"/><path fill="#F0F0F0" stroke="none" paint-order="stroke fill markers" d=" M 359.0935592651367 349.30625915527344 L 392.0935592651367 349.30625915527344 L 392.0935592651367 391.30625915527344 L 359.0935592651367 391.30625915527344 L 359.0935592651367 349.30625915527344 Z"/><path fill="none" stroke="#505050" paint-order="fill stroke markers" d=" M 359.0935592651367 349.30625915527344 L 392.0935592651367 349.30625915527344 L 392.0935592651367 391.30625915527344 L 359.0935592651367 391.30625915527344 L 359.0935592651367 349.30625915527344 Z" stroke-miterlimit="10" stroke-width="0.5" stroke-dasharray="0"/><text fill="#505050" stroke="none" font-family="monospace" font-size="14px" font-style="normal" font-weight="normal" text-decoration="normal" x="375.5935592651367" y="367.30625915527344" text-anchor="middle" dominant-baseline="text-after-edge">mul</text><path fill="none" stroke="#505050" paint-order="fill stroke markers" d=" M 359.0935592651367 367.30625915527344 L 367.0935592651367 367.30625915527344 L 367.0935592651367 375.30625915527344 L 359.0935592651367 375.30625915527344 L 359.0935592651367 367.30625915527344 Z" stroke-miterlimit="10" stroke-width="0.5" stroke-dasharray="0"/><path fill="none" stroke="#505050" paint-order="fill stroke markers" d=" M 359.0935592651367 379.30625915527344 L 367.0935592651367 379.30625915527344 L 367.0935592651367 387.30625915527344 L 359.0935592651367 387.30625915527344 L 359.0935592651367 379.30625915527344 Z" stroke-miterlimit="10" stroke-width="0.5" stroke-dasharray="0"/><path fill="none" stroke="#505050" paint-order="fill stroke markers" d=" M 384.0935592651367 367.30625915527344 L 392.0935592651367 367.30625915527344 L 392.0935592651367 375.30625915527344 L 384.0935592651367 375.30625915527344 L 384.0935592651367 367.30625915527344 Z" stroke-miterlimit="10" stroke-width="0.5" stroke-dasharray="0"/><path fill="none" stroke="#505050" paint-order="fill stroke markers" d=" M 359.0935592651367 349.30625915527344 L 392.0935592651367 349.30625915527344 L 392.0935592651367 391.30625915527344 L 359.0935592651367 391.30625915527344 L 359.0935592651367 349.30625915527344 Z" stroke-miterlimit="10" stroke-width="0.5" stroke-dasharray="6,3"/><path fill="#F0F0F0" stroke="none" paint-order="stroke fill markers" d=""/><text fill="#505050" stroke="none" font-family="monospace" font-size="14px" font-style="normal" font-weight="normal" text-decoration="normal" x="375.5935592651367" y="367.30625915527344" text-anchor="middle" dominant-baseline="text-after-edge">mul</text><path fill="none" stroke="#505050" paint-order="fill stroke markers" d=" M 359.0935592651367 367.30625915527344 L 367.0935592651367 367.30625915527344 L 367.0935592651367 375.30625915527344 L 359.0935592651367 375.30625915527344 L 359.0935592651367 367.30625915527344 Z" stroke-miterlimit="10" stroke-width="0.5" stroke-dasharray="0"/><path fill="none" stroke="#505050" paint-order="fill stroke markers" d=" M 359.0935592651367 379.30625915527344 L 367.0935592651367 379.30625915527344 L 367.0935592651367 387.30625915527344 L 359.0935592651367 387.30625915527344 L 359.0935592651367 379.30625915527344 Z" stroke-miterlimit="10" stroke-width="0.5" stroke-dasharray="0"/><path fill="none" stroke="#505050" paint-order="fill stroke markers" d=" M 384.0935592651367 367.30625915527344 L 392.0935592651367 367.30625915527344 L 392.0935592651367 375.30625915527344 L 384.0935592651367 375.30625915527344 L 384.0935592651367 367.30625915527344 Z" stroke-miterlimit="10" stroke-width="0.5" stroke-dasharray="0"/><path fill="white" stroke="#505050" paint-order="fill stroke markers" d=" M 821.111686706543 218.93165588378906 L 821.111686706543 385.5212707519531 Q 821.111686706543 393.5212707519531 829.111686706543 393.5212707519531 L 1033.4148559570312 393.5212707519531 Q 1041.4148559570312 393.5212707519531 1041.4148559570312 385.5212707519531 L 1041.4148559570312 218.93165588378906 Q 1041.4148559570312 210.93165588378906 1033.4148559570312 210.93165588378906 L 829.111686706543 210.93165588378906 Q 821.111686706543 210.93165588378906 821.111686706543 218.93165588378906" stroke-miterlimit="10" stroke-width="0.5" stroke-dasharray="0"/><path fill="#F0F0F0" stroke="#505050" paint-order="fill stroke markers" d=" M 1001.4148559570312 218.93165588378906 L 1041.4148559570312 218.93165588378906 L 1041.4148559570312 264.93165588378906 L 1001.4148559570312 264.93165588378906 L 1001.4148559570312 218.93165588378906 Z" stroke-miterlimit="10" stroke-width="0.5" stroke-dasharray="0"/><text fill="#505050" stroke="none" font-family="monospace" font-size="14px" font-style="normal" font-weight="normal" text-decoration="normal" x="1021.4148559570312" y="236.93165588378906" text-anchor="middle" dominant-baseline="text-after-edge">x</text><path fill="none" stroke="#505050" paint-order="fill stroke markers" d=" M 1001.4148559570312 236.93165588378906 L 1009.4148559570312 236.93165588378906 L 1009.4148559570312 244.93165588378906 L 1001.4148559570312 244.93165588378906 L 1001.4148559570312 236.93165588378906 Z" stroke-miterlimit="10" stroke-width="0.5" stroke-dasharray="0"/><text fill="#505050" stroke="none" font-family="monospace" font-size="14px" font-style="normal" font-weight="normal" text-decoration="normal" x="1017.4148559570312" y="250.93165588378906" text-anchor="start" dominant-baseline="text-after-edge">x</text><path fill="none" stroke="#505050" paint-order="fill stroke markers" d=" M 1001.4148559570312 250.93165588378906 L 1009.4148559570312 250.93165588378906 L 1009.4148559570312 258.93165588378906 L 1001.4148559570312 258.93165588378906 L 1001.4148559570312 250.93165588378906 Z" stroke-miterlimit="10" stroke-width="0.5" stroke-dasharray="0"/><text fill="#505050" stroke="none" font-family="monospace" font-size="14px" font-style="normal" font-weight="normal" text-decoration="normal" x="1017.4148559570312" y="264.93165588378906" text-anchor="start" dominant-baseline="text-after-edge">n</text><path fill="none" stroke="#505050" paint-order="fill stroke markers" d=" M 1033.4148559570312 236.93165588378906 L 1041.4148559570312 236.93165588378906 L 1041.4148559570312 244.93165588378906 L 1033.4148559570312 244.93165588378906 L 1033.4148559570312 236.93165588378906 Z" stroke-miterlimit="10" stroke-width="0.5" stroke-dasharray="0"/><path fill="white" stroke="#505050" paint-order="fill stroke markers" d=" M 912.2565307617188 222.58934020996094 L 985.2565307617188 222.58934020996094 L 985.2565307617188 314.58934020996094 L 912.2565307617188 314.58934020996094 L 912.2565307617188 222.58934020996094 Z" stroke-miterlimit="10" stroke-width="0.5" stroke-dasharray="0"/><path fill="#F0F0F0" stroke="none" paint-order="stroke fill markers" d=""/><text fill="#505050" stroke="none" font-family="monospace" font-size="14px" font-style="normal" font-weight="normal" text-decoration="normal" x="948.7565307617188" y="240.58934020996094" text-anchor="middle" dominant-baseline="text-after-edge">expStep</text><path fill="none" stroke="#505050" paint-order="fill stroke markers" d=" M 912.2565307617188 240.58934020996094 L 920.2565307617188 240.58934020996094 L 920.2565307617188 248.58934020996094 L 912.2565307617188 248.58934020996094 L 912.2565307617188 240.58934020996094 Z" stroke-miterlimit="10" stroke-width="0.5" stroke-dasharray="0"/><text fill="#505050" stroke="none" font-family="monospace" font-size="14px" font-style="normal" font-weight="normal" text-decoration="normal" x="928.2565307617188" y="254.58934020996094" text-anchor="start" dominant-baseline="text-after-edge">n</text><path fill="none" stroke="#505050" paint-order="fill stroke markers" d=" M 912.2565307617188 254.58934020996094 L 920.2565307617188 254.58934020996094 L 920.2565307617188 262.58934020996094 L 912.2565307617188 262.58934020996094 L 912.2565307617188 254.58934020996094 Z" stroke-miterlimit="10" stroke-width="0.5" stroke-dasharray="0"/><text fill="#505050" stroke="none" font-family="monospace" font-size="14px" font-style="normal" font-weight="normal" text-decoration="normal" x="928.2565307617188" y="268.58934020996094" text-anchor="start" dominant-baseline="text-after-edge">y</text><path fill="none" stroke="#505050" paint-order="fill stroke markers" d=" M 912.2565307617188 268.58934020996094 L 920.2565307617188 268.58934020996094 L 920.2565307617188 276.58934020996094 L 912.2565307617188 276.58934020996094 L 912.2565307617188 268.58934020996094 Z" stroke-miterlimit="10" stroke-width="0.5" stroke-dasharray="0"/><text fill="#505050" stroke="none" font-family="monospace" font-size="14px" font-style="normal" font-weight="normal" text-decoration="normal" x="928.2565307617188" y="282.58934020996094" text-anchor="start" dominant-baseline="text-after-edge">x</text><path fill="none" stroke="#505050" paint-order="fill stroke markers" d=" M 912.2565307617188 282.58934020996094 L 936.2565307617188 282.58934020996094 L 936.2565307617188 310.58934020996094 L 912.2565307617188 310.58934020996094 L 912.2565307617188 282.58934020996094 Z" stroke-miterlimit="10" stroke-width="0.5" stroke-dasharray="0"/><path fill="none" stroke="#505050" paint-order="fill stroke markers" d=" M 912.2565307617188 286.58934020996094 L 920.2565307617188 286.58934020996094 L 920.2565307617188 294.58934020996094 L 912.2565307617188 294.58934020996094 L 912.2565307617188 286.58934020996094 Z" stroke-miterlimit="10" stroke-width="0.5" stroke-dasharray="0"/><path fill="none" stroke="#505050" paint-order="fill stroke markers" d=" M 912.2565307617188 298.58934020996094 L 920.2565307617188 298.58934020996094 L 920.2565307617188 306.58934020996094 L 912.2565307617188 306.58934020996094 L 912.2565307617188 298.58934020996094 Z" stroke-miterlimit="10" stroke-width="0.5" stroke-dasharray="0"/><path fill="none" stroke="#505050" paint-order="fill stroke markers" d=" M 928.2565307617188 286.58934020996094 L 936.2565307617188 286.58934020996094 L 936.2565307617188 294.58934020996094 L 928.2565307617188 294.58934020996094 L 928.2565307617188 286.58934020996094 Z" stroke-miterlimit="10" stroke-width="0.5" stroke-dasharray="0"/><text fill="#505050" stroke="none" font-family="monospace" font-size="14px" font-style="normal" font-weight="normal" text-decoration="normal" x="944.2565307617188" y="305.58934020996094" text-anchor="start" dominant-baseline="text-after-edge">mul</text><path fill="none" stroke="#505050" paint-order="fill stroke markers" d=" M 977.2565307617188 240.58934020996094 L 985.2565307617188 240.58934020996094 L 985.2565307617188 248.58934020996094 L 977.2565307617188 248.58934020996094 L 977.2565307617188 240.58934020996094 Z" stroke-miterlimit="10" stroke-width="0.5" stroke-dasharray="0"/><path fill="#e0e0e0" stroke="none" paint-order="stroke fill markers" d=" M 778.7656135559082 161.0625343322754 L 770.7656135559082 115.06253433227539 L 770.7656135559082 207.0625343322754 Z M 904.2565307617188 268.58934020996094 L 912.2565307617188 222.58934020996094 L 912.2565307617188 314.58934020996094 Z"/><path fill="none" stroke="none"/><path fill="none" stroke="#e0e0e0" paint-order="fill stroke markers" d=" M 778.7656135559082 161.0625343322754 C 828.3428117977127 161.0625343322754 854.6793325199143 268.58934020996094 904.2565307617188 268.58934020996094" stroke-miterlimit="10" stroke-width="2" stroke-dasharray="0"/><path fill="white" stroke="#505050" paint-order="fill stroke markers" d=" M 828.6344351768494 270.7491035461426 L 860.6344351768494 270.7491035461426 L 860.6344351768494 288.7491035461426 L 828.6344351768494 288.7491035461426 L 828.6344351768494 270.7491035461426 Z" stroke-miterlimit="10" stroke-width="0.5" stroke-dasharray="0"/><path fill="#F0F0F0" stroke="none" paint-order="stroke fill markers" d=""/><path fill="none" stroke="#505050" paint-order="fill stroke markers" d=" M 852.6344351768494 274.7491035461426 L 860.6344351768494 274.7491035461426 L 860.6344351768494 282.7491035461426 L 852.6344351768494 282.7491035461426 L 852.6344351768494 274.7491035461426 Z" stroke-miterlimit="10" stroke-width="0.5" stroke-dasharray="0"/><text fill="#505050" stroke="none" font-family="monospace" font-size="14px" font-style="normal" font-weight="normal" text-decoration="normal" x="844.6344351768494" y="288.7491035461426" text-anchor="end" dominant-baseline="text-after-edge">1</text><path fill="white" stroke="#505050" paint-order="fill stroke markers" d=" M 828.8628234863281 319.5212707519531 L 828.8628234863281 369.5212707519531 Q 828.8628234863281 377.5212707519531 836.8628234863281 377.5212707519531 L 884.3138122558594 377.5212707519531 Q 892.3138122558594 377.5212707519531 892.3138122558594 369.5212707519531 L 892.3138122558594 319.5212707519531 Q 892.3138122558594 311.5212707519531 884.3138122558594 311.5212707519531 L 836.8628234863281 311.5212707519531 Q 828.8628234863281 311.5212707519531 828.8628234863281 319.5212707519531" stroke-miterlimit="10" stroke-width="0.5" stroke-dasharray="0"/><path fill="#F0F0F0" stroke="#505050" paint-order="fill stroke markers" d=" M 868.3138122558594 319.5212707519531 L 892.3138122558594 319.5212707519531 L 892.3138122558594 347.5212707519531 L 868.3138122558594 347.5212707519531 L 868.3138122558594 319.5212707519531 Z" stroke-miterlimit="10" stroke-width="0.5" stroke-dasharray="0"/><path fill="none" stroke="#505050" paint-order="fill stroke markers" d=" M 868.3138122558594 323.5212707519531 L 876.3138122558594 323.5212707519531 L 876.3138122558594 331.5212707519531 L 868.3138122558594 331.5212707519531 L 868.3138122558594 323.5212707519531 Z" stroke-miterlimit="10" stroke-width="0.5" stroke-dasharray="0"/><path fill="none" stroke="#505050" paint-order="fill stroke markers" d=" M 868.3138122558594 335.5212707519531 L 876.3138122558594 335.5212707519531 L 876.3138122558594 343.5212707519531 L 868.3138122558594 343.5212707519531 L 868.3138122558594 335.5212707519531 Z" stroke-miterlimit="10" stroke-width="0.5" stroke-dasharray="0"/><path fill="none" stroke="#505050" paint-order="fill stroke markers" d=" M 884.3138122558594 323.5212707519531 L 892.3138122558594 323.5212707519531 L 892.3138122558594 331.5212707519531 L 884.3138122558594 331.5212707519531 L 884.3138122558594 323.5212707519531 Z" stroke-miterlimit="10" stroke-width="0.5" stroke-dasharray="0"/><path fill="white" stroke="#505050" paint-order="fill stroke markers" d=" M 836.8628234863281 319.5212707519531 L 860.8628234863281 319.5212707519531 L 860.8628234863281 361.5212707519531 L 836.8628234863281 361.5212707519531 L 836.8628234863281 319.5212707519531 Z" stroke-miterlimit="10" stroke-width="0.5" stroke-dasharray="0"/><path fill="#F0F0F0" stroke="none" paint-order="stroke fill markers" d=""/><text fill="#505050" stroke="none" font-family="monospace" font-size="14px" font-style="normal" font-weight="normal" text-decoration="normal" x="848.8628234863281" y="337.5212707519531" text-anchor="middle" dominant-baseline="text-after-edge">*</text><path fill="none" stroke="#505050" paint-order="fill stroke markers" d=" M 836.8628234863281 337.5212707519531 L 844.8628234863281 337.5212707519531 L 844.8628234863281 345.5212707519531 L 836.8628234863281 345.5212707519531 L 836.8628234863281 337.5212707519531 Z" stroke-miterlimit="10" stroke-width="0.5" stroke-dasharray="0"/><path fill="none" stroke="#505050" paint-order="fill stroke markers" d=" M 836.8628234863281 349.5212707519531 L 844.8628234863281 349.5212707519531 L 844.8628234863281 357.5212707519531 L 836.8628234863281 357.5212707519531 L 836.8628234863281 349.5212707519531 Z" stroke-miterlimit="10" stroke-width="0.5" stroke-dasharray="0"/><path fill="none" stroke="#505050" paint-order="fill stroke markers" d=" M 852.8628234863281 337.5212707519531 L 860.8628234863281 337.5212707519531 L 860.8628234863281 345.5212707519531 L 852.8628234863281 345.5212707519531 L 852.8628234863281 337.5212707519531 Z" stroke-miterlimit="10" stroke-width="0.5" stroke-dasharray="0"/><path fill="white" stroke="#505050" paint-order="fill stroke markers" d=" M 829.4757413864136 246.05179119110107 L 861.4757413864136 246.05179119110107 L 861.4757413864136 264.0517911911011 L 829.4757413864136 264.0517911911011 L 837.4757413864136 255.05179119110107 L 829.4757413864136 246.05179119110107" stroke-miterlimit="10" stroke-width="0.5" stroke-dasharray="0"/><path fill="none" stroke="#505050" paint-order="fill stroke markers" d=" M 853.4757413864136 250.05179119110107 L 861.4757413864136 250.05179119110107 L 861.4757413864136 258.0517911911011 L 853.4757413864136 258.0517911911011 L 853.4757413864136 250.05179119110107 Z" stroke-miterlimit="10" stroke-width="0.5" stroke-dasharray="0"/><text fill="#505050" stroke="none" font-family="monospace" font-size="14px" font-style="normal" font-weight="normal" text-decoration="normal" x="845.4757413864136" y="264.0517911911011" text-anchor="end" dominant-baseline="text-after-edge">n</text><path fill="white" stroke="#505050" paint-order="fill stroke markers" d=" M 827.9629850387573 220.89914226531982 L 859.9629850387573 220.89914226531982 L 859.9629850387573 238.89914226531982 L 827.9629850387573 238.89914226531982 L 835.9629850387573 229.89914226531982 L 827.9629850387573 220.89914226531982" stroke-miterlimit="10" stroke-width="0.5" stroke-dasharray="0"/><path fill="none" stroke="#505050" paint-order="fill stroke markers" d=" M 851.9629850387573 224.89914226531982 L 859.9629850387573 224.89914226531982 L 859.9629850387573 232.89914226531982 L 851.9629850387573 232.89914226531982 L 851.9629850387573 224.89914226531982 Z" stroke-miterlimit="10" stroke-width="0.5" stroke-dasharray="0"/><text fill="#505050" stroke="none" font-family="monospace" font-size="14px" font-style="normal" font-weight="normal" text-decoration="normal" x="843.9629850387573" y="238.89914226531982" text-anchor="end" dominant-baseline="text-after-edge">x</text><path fill="none" stroke="#505050" paint-order="fill stroke markers" d=" M 414.39053177833557 63.16652059555054 C 419.1905317783356 63.16652059555054 425.59053177833556 63.16652059555054 430.39053177833557 63.16652059555054" stroke-miterlimit="10" stroke-dasharray="0"/><path fill="none" stroke="#505050" paint-order="fill stroke markers" d=" M 567.8883137702942 60.155540466308594 C 571.3290292513369 60.155540466308594 575.9166115033628 60.18521499633789 579.3573269844055 60.18521499633789" stroke-miterlimit="10" stroke-dasharray="0"/><path fill="none" stroke="#505050" paint-order="fill stroke markers" d=" M 717.3414778709412 52.159664154052734 C 719.8746067544762 52.159664154052734 723.2520974615272 52.175296783447266 725.7852263450623 52.175296783447266" stroke-miterlimit="10" stroke-dasharray="0"/><path fill="none" stroke="#505050" paint-order="fill stroke markers" d=" M 867.4098258018494 58.836090087890625 C 871.6613922126782 58.836090087890625 877.3301305763233 58.81423568725586 881.5816969871521 58.81423568725586" stroke-miterlimit="10" stroke-dasharray="0"/><path fill="none" stroke="#505050" paint-order="fill stroke markers" d=" M 378.78765258193016 186.94687271118164 C 457.37589016916013 186.94687271118164 560.4724983537033 157.25885152816772 639.0607359409332 157.25885152816772" stroke-miterlimit="10" stroke-dasharray="0"/><path fill="none" stroke="#505050" paint-order="fill stroke markers" d=" M 663.0607359409332 145.25885152816772 C 666.7257216257074 145.25885152816772 671.6122419553778 145.31461095809937 675.277227640152 145.31461095809937" stroke-miterlimit="10" stroke-dasharray="0"/><path fill="none" stroke="#505050" paint-order="fill stroke markers" d=" M 379.74383506178856 146.30943298339844 C 407.8990479180855 146.30943298339844 404.2948847045856 223.96254348754883 432.45009756088257 223.96254348754883" stroke-miterlimit="10" stroke-dasharray="0"/><path fill="none" stroke="#505050" paint-order="fill stroke markers" d=" M 380.1220642030239 253.40005111694336 C 395.82639657647155 253.40005111694336 416.7457651874349 251.96254348754883 432.45009756088257 251.96254348754883" stroke-miterlimit="10" stroke-dasharray="0"/><path fill="none" stroke="#505050" paint-order="fill stroke markers" d=" M 378.78765258193016 186.94687271118164 C 401.00033139222586 186.94687271118164 410.23741875058687 237.96254348754883 432.45009756088257 237.96254348754883" stroke-miterlimit="10" stroke-dasharray="0"/><path fill="none" stroke="#505050" paint-order="fill stroke markers" d=" M 497.45009756088257 237.96254348754883 C 513.3015975194535 237.96254348754883 534.4360609812179 237.65936279296875 550.2875609397888 237.65936279296875" stroke-miterlimit="10" stroke-dasharray="0"/><path fill="none" stroke="#505050" paint-order="fill stroke markers" d=" M 497.45009756088257 223.96254348754883 C 513.3015975194535 223.96254348754883 534.4360609812179 223.65936279296875 550.2875609397888 223.65936279296875" stroke-miterlimit="10" stroke-dasharray="0"/><path fill="none" stroke="#505050" paint-order="fill stroke markers" d=" M 623.2875609397888 209.65936279296875 C 636.2986904990032 209.65936279296875 626.0496063817188 169.25885152816772 639.0607359409332 169.25885152816772" stroke-miterlimit="10" stroke-dasharray="0"/><path fill="none" stroke="#505050" paint-order="fill stroke markers" d=" M 392.0935592651367 370.30625915527344 C 449.6665922141668 370.30625915527344 492.7145279907587 261.65936279296875 550.2875609397888 261.65936279296875" stroke-miterlimit="10" stroke-dasharray="0"/><path fill="none" stroke="#505050" paint-order="fill stroke markers" d=" M 379.74383506178856 146.30943298339844 C 387.36381064062334 146.30943298339844 395.5176265120008 136.41562032699585 403.13760209083557 136.41562032699585" stroke-miterlimit="10" stroke-dasharray="0"/><path fill="none" stroke="#505050" paint-order="fill stroke markers" d=" M 445.13760209083557 136.41562032699585 C 503.3750008327851 136.41562032699585 580.8233371989837 145.25885152816772 639.0607359409332 145.25885152816772" stroke-miterlimit="10" stroke-dasharray="0"/><path fill="none" stroke="#505050" paint-order="fill stroke markers" d=" M 379.74383506178856 146.30943298339844 C 422.23670469153535 146.30943298339844 463.7572157241045 210.01876831054688 506.2500853538513 210.01876831054688" stroke-miterlimit="10" stroke-dasharray="0"/><path fill="none" stroke="#505050" paint-order="fill stroke markers" d=" M 531.2500853538513 210.01876831054688 C 536.962345713027 210.01876831054688 544.5753005806131 209.65936279296875 550.2875609397888 209.65936279296875" stroke-miterlimit="10" stroke-dasharray="0"/><path fill="none" stroke="#505050" paint-order="fill stroke markers" d=" M 486.37197265028954 466.85619354248047 C 499.6723304615196 466.85619354248047 515.9933066441837 455.7531051635742 529.2936644554138 455.7531051635742" stroke-miterlimit="10" stroke-dasharray="0"/><path fill="none" stroke="#505050" paint-order="fill stroke markers" d=" M 486.1907592713833 386.10621643066406 C 500.6348481835269 386.10621643066406 515.3714018105127 406.4780807495117 529.8154907226562 406.4780807495117" stroke-miterlimit="10" stroke-dasharray="0"/><path fill="none" stroke="#505050" paint-order="fill stroke markers" d=" M 562.2936644554138 455.7531051635742 C 582.2886558566105 455.7531051635742 608.9486121144283 455.81869888305664 628.943603515625 455.81869888305664" stroke-miterlimit="10" stroke-dasharray="0"/><path fill="none" stroke="#505050" paint-order="fill stroke markers" d=" M 486.1907592713833 386.10621643066406 C 516.1296960298439 386.10621643066406 553.5797032828907 364.04683685302734 583.5186400413513 364.04683685302734" stroke-miterlimit="10" stroke-dasharray="0"/><path fill="none" stroke="#505050" paint-order="fill stroke markers" d=" M 562.8154907226562 406.4780807495117 C 573.8572881176439 406.4780807495117 572.4768426463637 376.04683685302734 583.5186400413513 376.04683685302734" stroke-miterlimit="10" stroke-dasharray="0"/><path fill="none" stroke="#505050" paint-order="fill stroke markers" d=" M 607.5186400413513 352.04683685302734 C 612.396470225548 352.04683685302734 618.9001849525221 352.09058380126953 623.7780151367188 352.09058380126953" stroke-miterlimit="10" stroke-dasharray="0"/><path fill="none" stroke="#505050" paint-order="fill stroke markers" d=" M 486.37197265028954 466.85619354248047 C 499.25129122730715 466.85619354248047 516.4143458783961 467.7531051635742 529.2936644554138 467.7531051635742" stroke-miterlimit="10" stroke-dasharray="0"/><path fill="none" stroke="#505050" paint-order="fill stroke markers" d=" M 486.37197265028954 466.85619354248047 C 505.8783894250894 466.85619354248047 510.3090739478564 418.4780807495117 529.8154907226562 418.4780807495117" stroke-miterlimit="10" stroke-dasharray="0"/><path fill="none" stroke="#505050" paint-order="fill stroke markers" d=" M 486.7469173371792 350.7124938964844 C 489.9182763998111 350.7124938964844 494.1441559787194 350.47808837890625 497.3155150413513 350.47808837890625" stroke-miterlimit="10" stroke-dasharray="0"/><path fill="none" stroke="#505050" paint-order="fill stroke markers" d=" M 539.3155150413513 350.47808837890625 C 552.5848010371636 350.47808837890625 570.249354045539 352.04683685302734 583.5186400413513 352.04683685302734" stroke-miterlimit="10" stroke-dasharray="0"/><path fill="none" stroke="#505050" paint-order="fill stroke markers" d=" M 860.6344351768494 278.7491035461426 C 877.2601114918442 278.7491035461426 895.6308544467239 258.58934020996094 912.2565307617188 258.58934020996094" stroke-miterlimit="10" stroke-dasharray="0"/><path fill="none" stroke="#505050" paint-order="fill stroke markers" d=" M 892.3138122558594 333.5212707519531 C 904.9055220820356 333.5212707519531 899.6648209355425 296.58934020996094 912.2565307617188 296.58934020996094" stroke-miterlimit="10" stroke-dasharray="0"/><path fill="none" stroke="#505050" paint-order="fill stroke markers" d=" M 861.4757413864136 254.05179119110107 C 876.9722051550758 254.05179119110107 896.7600669930565 244.58934020996094 912.2565307617188 244.58934020996094" stroke-miterlimit="10" stroke-dasharray="0"/><path fill="none" stroke="#505050" paint-order="fill stroke markers" d=" M 859.9629850387573 228.89914226531982 C 880.4058407312706 228.89914226531982 891.8136750692055 272.58934020996094 912.2565307617188 272.58934020996094" stroke-miterlimit="10" stroke-dasharray="0"/></g></g></svg>