<svg version="1.1" xmlns="http://www.w3.org/2000/svg" xmlns:xlink="http://www.w3.org/1999/xlink" width="855.9810128211975" height="432.69994735717773"><defs/><g transform="translate(-356.04065465927124,-16.187541961669922)"><g><path fill="white" stroke="#505050" paint-order="fill stroke markers" d=" M 357.8968183994293 245.51879262924194 L 357.8968183994293 298.76879262924194 Q 357.8968183994293 306.76879262924194 365.8968183994293 306.76879262924194 L 508.6936933994293 306.76879262924194 Q 516.6936933994293 306.76879262924194 516.6936933994293 298.76879262924194 L 516.6936933994293 245.51879262924194 Q 516.6936933994293 237.51879262924194 508.6936933994293 237.51879262924194 L 365.8968183994293 237.51879262924194 Q 357.8968183994293 237.51879262924194 357.8968183994293 245.51879262924194" stroke-miterlimit="10" stroke-width="0.5" stroke-dasharray=""/><path fill="#F0F0F0" stroke="#505050" paint-order="fill stroke markers" d=" M 474.6936933994293 245.51879262924194 L 516.6936933994293 245.51879262924194 L 516.6936933994293 275.51879262924194 L 474.6936933994293 275.51879262924194 L 474.6936933994293 245.51879262924194 Z" stroke-miterlimit="10" stroke-width="0.5" stroke-dasharray=""/><text fill="#505050" stroke="none" font-family="monospace" font-size="14px" font-style="normal" font-weight="normal" text-decoration="normal" x="495.6936933994293" y="263.51879262924194" text-anchor="middle" dominant-baseline="text-after-edge">== 0</text><path fill="none" stroke="#505050" paint-order="fill stroke markers" d=" M 474.6936933994293 263.51879262924194 L 482.6936933994293 263.51879262924194 L 482.6936933994293 271.51879262924194 L 474.6936933994293 271.51879262924194 L 474.6936933994293 263.51879262924194 Z" stroke-miterlimit="10" stroke-width="0.5" stroke-dasharray=""/><path fill="none" stroke="#505050" paint-order="fill stroke markers" d=" M 508.6936933994293 263.51879262924194 L 516.6936933994293 263.51879262924194 L 516.6936933994293 271.51879262924194 L 508.6936933994293 271.51879262924194 L 508.6936933994293 263.51879262924194 Z" stroke-miterlimit="10" stroke-width="0.5" stroke-dasharray=""/><path fill="white" stroke="#505050" paint-order="fill stroke markers" d=" M 413.8968183994293 246.76879262924194 L 438.8968183994293 246.76879262924194 L 438.8968183994293 288.76879262924194 L 413.8968183994293 288.76879262924194 L 413.8968183994293 246.76879262924194 Z" stroke-miterlimit="10" stroke-width="0.5" stroke-dasharray=""/><path fill="#F0F0F0" stroke="none" paint-order="stroke fill markers" d=""/><text fill="#505050" stroke="none" font-family="monospace" font-size="14px" font-style="normal" font-weight="normal" text-decoration="normal" x="426.3968183994293" y="264.76879262924194" text-anchor="middle" dominant-baseline="text-after-edge">==</text><path fill="none" stroke="#505050" paint-order="fill stroke markers" d=" M 413.8968183994293 264.76879262924194 L 421.8968183994293 264.76879262924194 L 421.8968183994293 272.76879262924194 L 413.8968183994293 272.76879262924194 L 413.8968183994293 264.76879262924194 Z" stroke-miterlimit="10" stroke-width="0.5" stroke-dasharray=""/><path fill="none" stroke="#505050" paint-order="fill stroke markers" d=" M 413.8968183994293 276.76879262924194 L 421.8968183994293 276.76879262924194 L 421.8968183994293 284.76879262924194 L 413.8968183994293 284.76879262924194 L 413.8968183994293 276.76879262924194 Z" stroke-miterlimit="10" stroke-width="0.5" stroke-dasharray=""/><path fill="none" stroke="#505050" paint-order="fill stroke markers" d=" M 430.8968183994293 264.76879262924194 L 438.8968183994293 264.76879262924194 L 438.8968183994293 272.76879262924194 L 430.8968183994293 272.76879262924194 L 430.8968183994293 264.76879262924194 Z" stroke-miterlimit="10" stroke-width="0.5" stroke-dasharray=""/><path fill="white" stroke="#505050" paint-order="fill stroke markers" d=" M 450.6780683994293 260.6625380516052 L 458.6780683994293 260.6625380516052 L 466.6780683994293 268.6625380516052 L 458.6780683994293 276.6625380516052 L 450.6780683994293 276.6625380516052 L 450.6780683994293 260.6625380516052" stroke-miterlimit="10" stroke-width="0.5" stroke-dasharray=""/><path fill="none" stroke="#505050" paint-order="fill stroke markers" d=" M 450.6780683994293 264.6625380516052 L 458.6780683994293 264.6625380516052 L 458.6780683994293 272.6625380516052 L 450.6780683994293 272.6625380516052 L 450.6780683994293 264.6625380516052 Z" stroke-miterlimit="10" stroke-width="0.5" stroke-dasharray=""/><path fill="white" stroke="#505050" paint-order="fill stroke markers" d=" M 365.8968183994293 272.76879262924194 L 397.8968183994293 272.76879262924194 L 397.8968183994293 290.76879262924194 L 365.8968183994293 290.76879262924194 L 365.8968183994293 272.76879262924194 Z" stroke-miterlimit="10" stroke-width="0.5" stroke-dasharray=""/><path fill="#F0F0F0" stroke="none" paint-order="stroke fill markers" d=""/><path fill="none" stroke="#505050" paint-order="fill stroke markers" d=" M 389.8968183994293 276.76879262924194 L 397.8968183994293 276.76879262924194 L 397.8968183994293 284.76879262924194 L 389.8968183994293 284.76879262924194 L 389.8968183994293 276.76879262924194 Z" stroke-miterlimit="10" stroke-width="0.5" stroke-dasharray=""/><text fill="#505050" stroke="none" font-family="monospace" font-size="14px" font-style="normal" font-weight="normal" text-decoration="normal" x="381.8968183994293" y="290.76879262924194" text-anchor="end" dominant-baseline="text-after-edge">0</text><path fill="white" stroke="#505050" paint-order="fill stroke markers" d=" M 375.2311842441559 245.51879262924194 L 391.2311842441559 245.51879262924194 L 391.2311842441559 261.51879262924194 L 375.2311842441559 261.51879262924194 L 383.2311842441559 253.51879262924194 L 375.2311842441559 245.51879262924194" stroke-miterlimit="10" stroke-width="0.5" stroke-dasharray=""/><path fill="none" stroke="#505050" paint-order="fill stroke markers" d=" M 383.2311842441559 249.51879262924194 L 391.2311842441559 249.51879262924194 L 391.2311842441559 257.51879262924194 L 383.2311842441559 257.51879262924194 L 383.2311842441559 249.51879262924194 Z" stroke-miterlimit="10" stroke-width="0.5" stroke-dasharray=""/><path fill="white" stroke="#505050" paint-order="fill stroke markers" d=" M 358.79377031326294 26.959369659423828 L 358.79377031326294 78.10938262939453 Q 358.79377031326294 86.10938262939453 366.79377031326294 86.10938262939453 L 505.3937954902649 86.10938262939453 Q 513.3937954902649 86.10938262939453 513.3937954902649 78.10938262939453 L 513.3937954902649 26.959369659423828 Q 513.3937954902649 18.959369659423828 505.3937954902649 18.959369659423828 L 366.79377031326294 18.959369659423828 Q 358.79377031326294 18.959369659423828 358.79377031326294 26.959369659423828" stroke-miterlimit="10" stroke-width="0.5" stroke-dasharray=""/><path fill="#F0F0F0" stroke="#505050" paint-order="fill stroke markers" d=" M 480.3937954902649 26.959369659423828 L 513.3937954902649 26.959369659423828 L 513.3937954902649 56.95936965942383 L 480.3937954902649 56.95936965942383 L 480.3937954902649 26.959369659423828 Z" stroke-miterlimit="10" stroke-width="0.5" stroke-dasharray=""/><text fill="#505050" stroke="none" font-family="monospace" font-size="14px" font-style="normal" font-weight="normal" text-decoration="normal" x="496.8937954902649" y="44.95936965942383" text-anchor="middle" dominant-baseline="text-after-edge">odd</text><path fill="none" stroke="#505050" paint-order="fill stroke markers" d=" M 480.3937954902649 44.95936965942383 L 488.3937954902649 44.95936965942383 L 488.3937954902649 52.95936965942383 L 480.3937954902649 52.95936965942383 L 480.3937954902649 44.95936965942383 Z" stroke-miterlimit="10" stroke-width="0.5" stroke-dasharray=""/><path fill="none" stroke="#505050" paint-order="fill stroke markers" d=" M 505.3937954902649 44.95936965942383 L 513.3937954902649 44.95936965942383 L 513.3937954902649 52.95936965942383 L 505.3937954902649 52.95936965942383 L 505.3937954902649 44.95936965942383 Z" stroke-miterlimit="10" stroke-width="0.5" stroke-dasharray=""/><path fill="white" stroke="#505050" paint-order="fill stroke markers" d=" M 383.156277179718 40.95936965942383 L 399.156277179718 40.95936965942383 L 399.156277179718 56.95936965942383 L 383.156277179718 56.95936965942383 L 391.156277179718 48.95936965942383 L 383.156277179718 40.95936965942383" stroke-miterlimit="10" stroke-width="0.5" stroke-dasharray=""/><path fill="none" stroke="#505050" paint-order="fill stroke markers" d=" M 391.156277179718 44.95936965942383 L 399.156277179718 44.95936965942383 L 399.156277179718 52.95936965942383 L 391.156277179718 52.95936965942383 L 391.156277179718 44.95936965942383 Z" stroke-miterlimit="10" stroke-width="0.5" stroke-dasharray=""/><path fill="white" stroke="#505050" paint-order="fill stroke markers" d=" M 415.156277179718 26.959369659423828 L 439.156277179718 26.959369659423828 L 439.156277179718 68.95936965942383 L 415.156277179718 68.95936965942383 L 415.156277179718 26.959369659423828 Z" stroke-miterlimit="10" stroke-width="0.5" stroke-dasharray=""/><path fill="#F0F0F0" stroke="none" paint-order="stroke fill markers" d=""/><text fill="#505050" stroke="none" font-family="monospace" font-size="14px" font-style="normal" font-weight="normal" text-decoration="normal" x="427.156277179718" y="44.95936965942383" text-anchor="middle" dominant-baseline="text-after-edge">&amp;</text><path fill="none" stroke="#505050" paint-order="fill stroke markers" d=" M 415.156277179718 44.95936965942383 L 423.156277179718 44.95936965942383 L 423.156277179718 52.95936965942383 L 415.156277179718 52.95936965942383 L 415.156277179718 44.95936965942383 Z" stroke-miterlimit="10" stroke-width="0.5" stroke-dasharray=""/><path fill="none" stroke="#505050" paint-order="fill stroke markers" d=" M 415.156277179718 56.95936965942383 L 423.156277179718 56.95936965942383 L 423.156277179718 64.95936965942383 L 415.156277179718 64.95936965942383 L 415.156277179718 56.95936965942383 Z" stroke-miterlimit="10" stroke-width="0.5" stroke-dasharray=""/><path fill="none" stroke="#505050" paint-order="fill stroke markers" d=" M 431.156277179718 44.95936965942383 L 439.156277179718 44.95936965942383 L 439.156277179718 52.95936965942383 L 431.156277179718 52.95936965942383 L 431.156277179718 44.95936965942383 Z" stroke-miterlimit="10" stroke-width="0.5" stroke-dasharray=""/><path fill="white" stroke="#505050" paint-order="fill stroke markers" d=" M 455.156277179718 40.95936965942383 L 463.156277179718 40.95936965942383 L 471.156277179718 48.95936965942383 L 463.156277179718 56.95936965942383 L 455.156277179718 56.95936965942383 L 455.156277179718 40.95936965942383" stroke-miterlimit="10" stroke-width="0.5" stroke-dasharray=""/><path fill="none" stroke="#505050" paint-order="fill stroke markers" d=" M 455.156277179718 44.95936965942383 L 463.156277179718 44.95936965942383 L 463.156277179718 52.95936965942383 L 455.156277179718 52.95936965942383 L 455.156277179718 44.95936965942383 Z" stroke-miterlimit="10" stroke-width="0.5" stroke-dasharray=""/><path fill="white" stroke="#505050" paint-order="fill stroke markers" d=" M 366.79377031326294 52.10938262939453 L 398.79377031326294 52.10938262939453 L 398.79377031326294 70.10938262939453 L 366.79377031326294 70.10938262939453 L 366.79377031326294 52.10938262939453 Z" stroke-miterlimit="10" stroke-width="0.5" stroke-dasharray=""/><path fill="#F0F0F0" stroke="none" paint-order="stroke fill markers" d=""/><path fill="none" stroke="#505050" paint-order="fill stroke markers" d=" M 390.79377031326294 56.10938262939453 L 398.79377031326294 56.10938262939453 L 398.79377031326294 64.10938262939453 L 390.79377031326294 64.10938262939453 L 390.79377031326294 56.10938262939453 Z" stroke-miterlimit="10" stroke-width="0.5" stroke-dasharray=""/><text fill="#505050" stroke="none" font-family="monospace" font-size="14px" font-style="normal" font-weight="normal" text-decoration="normal" x="382.79377031326294" y="70.10938262939453" text-anchor="end" dominant-baseline="text-after-edge">1</text><path fill="white" stroke="#505050" paint-order="fill stroke markers" d=" M 357.1750235557556 102.04376220703125 L 357.1750235557556 141.13751220703125 Q 357.1750235557556 149.13751220703125 365.1750235557556 149.13751220703125 L 543.6187682151794 149.13751220703125 Q 551.6187682151794 149.13751220703125 551.6187682151794 141.13751220703125 L 551.6187682151794 102.04376220703125 Q 551.6187682151794 94.04376220703125 543.6187682151794 94.04376220703125 L 365.1750235557556 94.04376220703125 Q 357.1750235557556 94.04376220703125 357.1750235557556 102.04376220703125" stroke-miterlimit="10" stroke-width="0.5" stroke-dasharray=""/><path fill="#F0F0F0" stroke="#505050" paint-order="fill stroke markers" d=" M 509.61876821517944 102.04376220703125 L 551.6187682151794 102.04376220703125 L 551.6187682151794 132.04376220703125 L 509.61876821517944 132.04376220703125 L 509.61876821517944 102.04376220703125 Z" stroke-miterlimit="10" stroke-width="0.5" stroke-dasharray=""/><text fill="#505050" stroke="none" font-family="monospace" font-size="14px" font-style="normal" font-weight="normal" text-decoration="normal" x="530.6187682151794" y="120.04376220703125" text-anchor="middle" dominant-baseline="text-after-edge">even</text><path fill="none" stroke="#505050" paint-order="fill stroke markers" d=" M 509.61876821517944 120.04376220703125 L 517.6187682151794 120.04376220703125 L 517.6187682151794 128.04376220703125 L 509.61876821517944 128.04376220703125 L 509.61876821517944 120.04376220703125 Z" stroke-miterlimit="10" stroke-width="0.5" stroke-dasharray=""/><path fill="none" stroke="#505050" paint-order="fill stroke markers" d=" M 543.6187682151794 120.04376220703125 L 551.6187682151794 120.04376220703125 L 551.6187682151794 128.04376220703125 L 543.6187682151794 128.04376220703125 L 543.6187682151794 120.04376220703125 Z" stroke-miterlimit="10" stroke-width="0.5" stroke-dasharray=""/><path fill="white" stroke="#505050" paint-order="fill stroke markers" d=" M 452.4250273704529 103.13751220703125 L 476.4250273704529 103.13751220703125 L 476.4250273704529 133.13751220703125 L 452.4250273704529 133.13751220703125 L 452.4250273704529 103.13751220703125 Z" stroke-miterlimit="10" stroke-width="0.5" stroke-dasharray=""/><path fill="#F0F0F0" stroke="none" paint-order="stroke fill markers" d=""/><text fill="#505050" stroke="none" font-family="monospace" font-size="14px" font-style="normal" font-weight="normal" text-decoration="normal" x="464.4250273704529" y="121.13751220703125" text-anchor="middle" dominant-baseline="text-after-edge">!</text><path fill="none" stroke="#505050" paint-order="fill stroke markers" d=" M 452.4250273704529 121.13751220703125 L 460.4250273704529 121.13751220703125 L 460.4250273704529 129.13751220703125 L 452.4250273704529 129.13751220703125 L 452.4250273704529 121.13751220703125 Z" stroke-miterlimit="10" stroke-width="0.5" stroke-dasharray=""/><path fill="none" stroke="#505050" paint-order="fill stroke markers" d=" M 468.4250273704529 121.13751220703125 L 476.4250273704529 121.13751220703125 L 476.4250273704529 129.13751220703125 L 468.4250273704529 129.13751220703125 L 468.4250273704529 121.13751220703125 Z" stroke-miterlimit="10" stroke-width="0.5" stroke-dasharray=""/><path fill="white" stroke="#505050" paint-order="fill stroke markers" d=" M 486.57502126693726 116.82188415527344 L 494.57502126693726 116.82188415527344 L 502.57502126693726 124.82188415527344 L 494.57502126693726 132.82188415527344 L 486.57502126693726 132.82188415527344 L 486.57502126693726 116.82188415527344" stroke-miterlimit="10" stroke-width="0.5" stroke-dasharray=""/><path fill="none" stroke="#505050" paint-order="fill stroke markers" d=" M 486.57502126693726 120.82188415527344 L 494.57502126693726 120.82188415527344 L 494.57502126693726 128.82188415527344 L 486.57502126693726 128.82188415527344 L 486.57502126693726 120.82188415527344 Z" stroke-miterlimit="10" stroke-width="0.5" stroke-dasharray=""/><path fill="white" stroke="#505050" paint-order="fill stroke markers" d=" M 378.9812788963318 117.12187957763672 L 394.9812788963318 117.12187957763672 L 394.9812788963318 133.12187957763672 L 378.9812788963318 133.12187957763672 L 386.9812788963318 125.12187957763672 L 378.9812788963318 117.12187957763672" stroke-miterlimit="10" stroke-width="0.5" stroke-dasharray=""/><path fill="none" stroke="#505050" paint-order="fill stroke markers" d=" M 386.9812788963318 121.12187957763672 L 394.9812788963318 121.12187957763672 L 394.9812788963318 129.12187957763672 L 386.9812788963318 129.12187957763672 L 386.9812788963318 121.12187957763672 Z" stroke-miterlimit="10" stroke-width="0.5" stroke-dasharray=""/><path fill="white" stroke="#505050" paint-order="fill stroke markers" d=" M 410.9812788963318 103.12187957763672 L 443.9812788963318 103.12187957763672 L 443.9812788963318 133.12187957763672 L 410.9812788963318 133.12187957763672 L 410.9812788963318 103.12187957763672 Z" stroke-miterlimit="10" stroke-width="0.5" stroke-dasharray=""/><path fill="#F0F0F0" stroke="none" paint-order="stroke fill markers" d=""/><text fill="#505050" stroke="none" font-family="monospace" font-size="14px" font-style="normal" font-weight="normal" text-decoration="normal" x="427.4812788963318" y="121.12187957763672" text-anchor="middle" dominant-baseline="text-after-edge">odd</text><path fill="none" stroke="#505050" paint-order="fill stroke markers" d=" M 410.9812788963318 121.12187957763672 L 418.9812788963318 121.12187957763672 L 418.9812788963318 129.12187957763672 L 410.9812788963318 129.12187957763672 L 410.9812788963318 121.12187957763672 Z" stroke-miterlimit="10" stroke-width="0.5" stroke-dasharray=""/><path fill="none" stroke="#505050" paint-order="fill stroke markers" d=" M 435.9812788963318 121.12187957763672 L 443.9812788963318 121.12187957763672 L 443.9812788963318 129.12187957763672 L 435.9812788963318 129.12187957763672 L 435.9812788963318 121.12187957763672 Z" stroke-miterlimit="10" stroke-width="0.5" stroke-dasharray=""/><path fill="white" stroke="#505050" paint-order="fill stroke markers" d=" M 357.04065465927124 166.97814559936523 L 357.04065465927124 219 Q 357.04065465927124 227 365.04065465927124 227 L 487.92814779281616 227 Q 495.92814779281616 227 495.92814779281616 219 L 495.92814779281616 166.97814559936523 Q 495.92814779281616 158.97814559936523 487.92814779281616 158.97814559936523 L 365.04065465927124 158.97814559936523 Q 357.04065465927124 158.97814559936523 357.04065465927124 166.97814559936523" stroke-miterlimit="10" stroke-width="0.5" stroke-dasharray=""/><path fill="#F0F0F0" stroke="#505050" paint-order="fill stroke markers" d=" M 470.92814779281616 166.97814559936523 L 495.92814779281616 166.97814559936523 L 495.92814779281616 196.97814559936523 L 470.92814779281616 196.97814559936523 L 470.92814779281616 166.97814559936523 Z" stroke-miterlimit="10" stroke-width="0.5" stroke-dasharray=""/><text fill="#505050" stroke="none" font-family="monospace" font-size="14px" font-style="normal" font-weight="normal" text-decoration="normal" x="483.42814779281616" y="184.97814559936523" text-anchor="middle" dominant-baseline="text-after-edge">/2</text><path fill="none" stroke="#505050" paint-order="fill stroke markers" d=" M 470.92814779281616 184.97814559936523 L 478.92814779281616 184.97814559936523 L 478.92814779281616 192.97814559936523 L 470.92814779281616 192.97814559936523 L 470.92814779281616 184.97814559936523 Z" stroke-miterlimit="10" stroke-width="0.5" stroke-dasharray=""/><path fill="none" stroke="#505050" paint-order="fill stroke markers" d=" M 487.92814779281616 184.97814559936523 L 495.92814779281616 184.97814559936523 L 495.92814779281616 192.97814559936523 L 487.92814779281616 192.97814559936523 L 487.92814779281616 184.97814559936523 Z" stroke-miterlimit="10" stroke-width="0.5" stroke-dasharray=""/><path fill="white" stroke="#505050" paint-order="fill stroke markers" d=" M 376.728150844574 169.33752059936523 L 392.728150844574 169.33752059936523 L 392.728150844574 185.33752059936523 L 376.728150844574 185.33752059936523 L 384.728150844574 177.33752059936523 L 376.728150844574 169.33752059936523" stroke-miterlimit="10" stroke-width="0.5" stroke-dasharray=""/><path fill="none" stroke="#505050" paint-order="fill stroke markers" d=" M 384.728150844574 173.33752059936523 L 392.728150844574 173.33752059936523 L 392.728150844574 181.33752059936523 L 384.728150844574 181.33752059936523 L 384.728150844574 173.33752059936523 Z" stroke-miterlimit="10" stroke-width="0.5" stroke-dasharray=""/><path fill="white" stroke="#505050" paint-order="fill stroke markers" d=" M 411.212525844574 166.97814559936523 L 435.212525844574 166.97814559936523 L 435.212525844574 208.97814559936523 L 411.212525844574 208.97814559936523 L 411.212525844574 166.97814559936523 Z" stroke-miterlimit="10" stroke-width="0.5" stroke-dasharray=""/><path fill="#F0F0F0" stroke="none" paint-order="stroke fill markers" d=""/><text fill="#505050" stroke="none" font-family="monospace" font-size="14px" font-style="normal" font-weight="normal" text-decoration="normal" x="423.212525844574" y="184.97814559936523" text-anchor="middle" dominant-baseline="text-after-edge">/</text><path fill="none" stroke="#505050" paint-order="fill stroke markers" d=" M 411.212525844574 184.97814559936523 L 419.212525844574 184.97814559936523 L 419.212525844574 192.97814559936523 L 411.212525844574 192.97814559936523 L 411.212525844574 184.97814559936523 Z" stroke-miterlimit="10" stroke-width="0.5" stroke-dasharray=""/><path fill="none" stroke="#505050" paint-order="fill stroke markers" d=" M 411.212525844574 196.97814559936523 L 419.212525844574 196.97814559936523 L 419.212525844574 204.97814559936523 L 411.212525844574 204.97814559936523 L 411.212525844574 196.97814559936523 Z" stroke-miterlimit="10" stroke-width="0.5" stroke-dasharray=""/><path fill="none" stroke="#505050" paint-order="fill stroke markers" d=" M 427.212525844574 184.97814559936523 L 435.212525844574 184.97814559936523 L 435.212525844574 192.97814559936523 L 427.212525844574 192.97814559936523 L 427.212525844574 184.97814559936523 Z" stroke-miterlimit="10" stroke-width="0.5" stroke-dasharray=""/><path fill="white" stroke="#505050" paint-order="fill stroke markers" d=" M 451.212525844574 180.97814559936523 L 459.212525844574 180.97814559936523 L 467.212525844574 188.97814559936523 L 459.212525844574 196.97814559936523 L 451.212525844574 196.97814559936523 L 451.212525844574 180.97814559936523" stroke-miterlimit="10" stroke-width="0.5" stroke-dasharray=""/><path fill="none" stroke="#505050" paint-order="fill stroke markers" d=" M 451.212525844574 184.97814559936523 L 459.212525844574 184.97814559936523 L 459.212525844574 192.97814559936523 L 451.212525844574 192.97814559936523 L 451.212525844574 184.97814559936523 Z" stroke-miterlimit="10" stroke-width="0.5" stroke-dasharray=""/><path fill="white" stroke="#505050" paint-order="fill stroke markers" d=" M 365.04065465927124 193 L 397.04065465927124 193 L 397.04065465927124 211 L 365.04065465927124 211 L 365.04065465927124 193 Z" stroke-miterlimit="10" stroke-width="0.5" stroke-dasharray=""/><path fill="#F0F0F0" stroke="none" paint-order="stroke fill markers" d=""/><path fill="none" stroke="#505050" paint-order="fill stroke markers" d=" M 389.04065465927124 197 L 397.04065465927124 197 L 397.04065465927124 205 L 389.04065465927124 205 L 389.04065465927124 197 Z" stroke-miterlimit="10" stroke-width="0.5" stroke-dasharray=""/><text fill="#505050" stroke="none" font-family="monospace" font-size="14px" font-style="normal" font-weight="normal" text-decoration="normal" x="381.04065465927124" y="211" text-anchor="end" dominant-baseline="text-after-edge">2</text><path fill="white" stroke="#505050" paint-order="fill stroke markers" d=" M 596.9532104432583 25.187541961669922 L 596.9532104432583 439.88748931884766 Q 596.9532104432583 447.88748931884766 604.9532104432583 447.88748931884766 L 966.7124519348145 447.88748931884766 Q 974.7124519348145 447.88748931884766 974.7124519348145 439.88748931884766 L 974.7124519348145 25.187541961669922 Q 974.7124519348145 17.187541961669922 966.7124519348145 17.187541961669922 L 604.9532104432583 17.187541961669922 Q 596.9532104432583 17.187541961669922 596.9532104432583 25.187541961669922" stroke-miterlimit="10" stroke-width="0.5" stroke-dasharray=""/><path fill="#F0F0F0" stroke="#505050" paint-order="fill stroke markers" d=" M 901.7124519348145 25.187541961669922 L 974.7124519348145 25.187541961669922 L 974.7124519348145 117.18754196166992 L 901.7124519348145 117.18754196166992 L 901.7124519348145 25.187541961669922 Z" stroke-miterlimit="10" stroke-width="0.5" stroke-dasharray=""/><text fill="#505050" stroke="none" font-family="monospace" font-size="14px" font-style="normal" font-weight="normal" text-decoration="normal" x="938.2124519348145" y="43.18754196166992" text-anchor="middle" dominant-baseline="text-after-edge">expStep</text><path fill="none" stroke="#505050" paint-order="fill stroke markers" d=" M 901.7124519348145 43.18754196166992 L 909.7124519348145 43.18754196166992 L 909.7124519348145 51.18754196166992 L 901.7124519348145 51.18754196166992 L 901.7124519348145 43.18754196166992 Z" stroke-miterlimit="10" stroke-width="0.5" stroke-dasharray=""/><text fill="#505050" stroke="none" font-family="monospace" font-size="14px" font-style="normal" font-weight="normal" text-decoration="normal" x="917.7124519348145" y="57.18754196166992" text-anchor="start" dominant-baseline="text-after-edge">n</text><path fill="none" stroke="#505050" paint-order="fill stroke markers" d=" M 901.7124519348145 57.18754196166992 L 909.7124519348145 57.18754196166992 L 909.7124519348145 65.18754196166992 L 901.7124519348145 65.18754196166992 L 901.7124519348145 57.18754196166992 Z" stroke-miterlimit="10" stroke-width="0.5" stroke-dasharray=""/><text fill="#505050" stroke="none" font-family="monospace" font-size="14px" font-style="normal" font-weight="normal" text-decoration="normal" x="917.7124519348145" y="71.18754196166992" text-anchor="start" dominant-baseline="text-after-edge">x</text><path fill="none" stroke="#505050" paint-order="fill stroke markers" d=" M 901.7124519348145 71.18754196166992 L 909.7124519348145 71.18754196166992 L 909.7124519348145 79.18754196166992 L 901.7124519348145 79.18754196166992 L 901.7124519348145 71.18754196166992 Z" stroke-miterlimit="10" stroke-width="0.5" stroke-dasharray=""/><text fill="#505050" stroke="none" font-family="monospace" font-size="14px" font-style="normal" font-weight="normal" text-decoration="normal" x="917.7124519348145" y="85.18754196166992" text-anchor="start" dominant-baseline="text-after-edge">y</text><path fill="none" stroke="#505050" paint-order="fill stroke markers" d=" M 901.7124519348145 85.18754196166992 L 925.7124519348145 85.18754196166992 L 925.7124519348145 113.18754196166992 L 901.7124519348145 113.18754196166992 L 901.7124519348145 85.18754196166992 Z" stroke-miterlimit="10" stroke-width="0.5" stroke-dasharray=""/><path fill="none" stroke="#505050" paint-order="fill stroke markers" d=" M 901.7124519348145 89.18754196166992 L 909.7124519348145 89.18754196166992 L 909.7124519348145 97.18754196166992 L 901.7124519348145 97.18754196166992 L 901.7124519348145 89.18754196166992 Z" stroke-miterlimit="10" stroke-width="0.5" stroke-dasharray=""/><path fill="none" stroke="#505050" paint-order="fill stroke markers" d=" M 901.7124519348145 101.18754196166992 L 909.7124519348145 101.18754196166992 L 909.7124519348145 109.18754196166992 L 901.7124519348145 109.18754196166992 L 901.7124519348145 101.18754196166992 Z" stroke-miterlimit="10" stroke-width="0.5" stroke-dasharray=""/><path fill="none" stroke="#505050" paint-order="fill stroke markers" d=" M 917.7124519348145 89.18754196166992 L 925.7124519348145 89.18754196166992 L 925.7124519348145 97.18754196166992 L 917.7124519348145 97.18754196166992 L 917.7124519348145 89.18754196166992 Z" stroke-miterlimit="10" stroke-width="0.5" stroke-dasharray=""/><text fill="#505050" stroke="none" font-family="monospace" font-size="14px" font-style="normal" font-weight="normal" text-decoration="normal" x="933.7124519348145" y="108.18754196166992" text-anchor="start" dominant-baseline="text-after-edge">mul</text><path fill="none" stroke="#505050" paint-order="fill stroke markers" d=" M 966.7124519348145 43.18754196166992 L 974.7124519348145 43.18754196166992 L 974.7124519348145 51.18754196166992 L 966.7124519348145 51.18754196166992 L 966.7124519348145 43.18754196166992 Z" stroke-miterlimit="10" stroke-width="0.5" stroke-dasharray=""/><path fill="white" stroke="#505050" paint-order="fill stroke markers" d=" M 610.4501338899136 38.837562561035156 L 642.4501338899136 38.837562561035156 L 642.4501338899136 56.837562561035156 L 610.4501338899136 56.837562561035156 L 618.4501338899136 47.837562561035156 L 610.4501338899136 38.837562561035156" stroke-miterlimit="10" stroke-width="0.5" stroke-dasharray=""/><path fill="none" stroke="#505050" paint-order="fill stroke markers" d=" M 634.4501338899136 42.837562561035156 L 642.4501338899136 42.837562561035156 L 642.4501338899136 50.837562561035156 L 634.4501338899136 50.837562561035156 L 634.4501338899136 42.837562561035156 Z" stroke-miterlimit="10" stroke-width="0.5" stroke-dasharray=""/><text fill="#505050" stroke="none" font-family="monospace" font-size="14px" font-style="normal" font-weight="normal" text-decoration="normal" x="626.4501338899136" y="56.837562561035156" text-anchor="end" dominant-baseline="text-after-edge">n</text><path fill="white" stroke="#505050" paint-order="fill stroke markers" d=" M 609.1188903748989 94.64379501342773 L 641.1188903748989 94.64379501342773 L 641.1188903748989 112.64379501342773 L 609.1188903748989 112.64379501342773 L 617.1188903748989 103.64379501342773 L 609.1188903748989 94.64379501342773" stroke-miterlimit="10" stroke-width="0.5" stroke-dasharray=""/><path fill="none" stroke="#505050" paint-order="fill stroke markers" d=" M 633.1188903748989 98.64379501342773 L 641.1188903748989 98.64379501342773 L 641.1188903748989 106.64379501342773 L 633.1188903748989 106.64379501342773 L 633.1188903748989 98.64379501342773 Z" stroke-miterlimit="10" stroke-width="0.5" stroke-dasharray=""/><text fill="#505050" stroke="none" font-family="monospace" font-size="14px" font-style="normal" font-weight="normal" text-decoration="normal" x="625.1188903748989" y="112.64379501342773" text-anchor="end" dominant-baseline="text-after-edge">x</text><path fill="white" stroke="#505050" paint-order="fill stroke markers" d=" M 608.6595397889614 129.7062644958496 L 640.6595397889614 129.7062644958496 L 640.6595397889614 147.7062644958496 L 608.6595397889614 147.7062644958496 L 616.6595397889614 138.7062644958496 L 608.6595397889614 129.7062644958496" stroke-miterlimit="10" stroke-width="0.5" stroke-dasharray=""/><path fill="none" stroke="#505050" paint-order="fill stroke markers" d=" M 632.6595397889614 133.7062644958496 L 640.6595397889614 133.7062644958496 L 640.6595397889614 141.7062644958496 L 632.6595397889614 141.7062644958496 L 632.6595397889614 133.7062644958496 Z" stroke-miterlimit="10" stroke-width="0.5" stroke-dasharray=""/><text fill="#505050" stroke="none" font-family="monospace" font-size="14px" font-style="normal" font-weight="normal" text-decoration="normal" x="624.6595397889614" y="147.7062644958496" text-anchor="end" dominant-baseline="text-after-edge">y</text><path fill="white" stroke="#505050" paint-order="fill stroke markers" d=" M 832.1304380893707 36.85836935043335 L 840.1304380893707 36.85836935043335 L 848.1304380893707 44.85836935043335 L 840.1304380893707 52.85836935043335 L 832.1304380893707 52.85836935043335 L 832.1304380893707 36.85836935043335" stroke-miterlimit="10" stroke-width="0.5" stroke-dasharray=""/><path fill="none" stroke="#505050" paint-order="fill stroke markers" d=" M 832.1304380893707 40.85836935043335 L 840.1304380893707 40.85836935043335 L 840.1304380893707 48.85836935043335 L 832.1304380893707 48.85836935043335 L 832.1304380893707 40.85836935043335 Z" stroke-miterlimit="10" stroke-width="0.5" stroke-dasharray=""/><path fill="white" stroke="#505050" paint-order="fill stroke markers" d=" M 660.2720015048981 24.54062795639038 L 702.2720015048981 24.54062795639038 L 702.2720015048981 54.54062795639038 L 660.2720015048981 54.54062795639038 L 660.2720015048981 24.54062795639038 Z" stroke-miterlimit="10" stroke-width="0.5" stroke-dasharray=""/><path fill="#F0F0F0" stroke="none" paint-order="stroke fill markers" d=""/><text fill="#505050" stroke="none" font-family="monospace" font-size="14px" font-style="normal" font-weight="normal" text-decoration="normal" x="681.2720015048981" y="42.54062795639038" text-anchor="middle" dominant-baseline="text-after-edge">== 0</text><path fill="none" stroke="#505050" paint-order="fill stroke markers" d=" M 660.2720015048981 42.54062795639038 L 668.2720015048981 42.54062795639038 L 668.2720015048981 50.54062795639038 L 660.2720015048981 50.54062795639038 L 660.2720015048981 42.54062795639038 Z" stroke-miterlimit="10" stroke-width="0.5" stroke-dasharray=""/><path fill="none" stroke="#505050" paint-order="fill stroke markers" d=" M 694.2720015048981 42.54062795639038 L 702.2720015048981 42.54062795639038 L 702.2720015048981 50.54062795639038 L 694.2720015048981 50.54062795639038 L 694.2720015048981 42.54062795639038 Z" stroke-miterlimit="10" stroke-width="0.5" stroke-dasharray=""/><path fill="white" stroke="#505050" paint-order="fill stroke markers" d=" M 774.2514097690582 23.24636220932007 L 798.2514097690582 23.24636220932007 L 798.2514097690582 77.24636220932007 L 774.2514097690582 77.24636220932007 L 774.2514097690582 23.24636220932007 Z" stroke-miterlimit="10" stroke-width="0.5" stroke-dasharray=""/><path fill="#F0F0F0" stroke="none" paint-order="stroke fill markers" d=""/><text fill="#505050" stroke="none" font-family="monospace" font-size="14px" font-style="normal" font-weight="normal" text-decoration="normal" x="786.2514097690582" y="41.24636220932007" text-anchor="middle" dominant-baseline="text-after-edge">?</text><path fill="none" stroke="#505050" paint-order="fill stroke markers" d=" M 774.2514097690582 41.24636220932007 L 782.2514097690582 41.24636220932007 L 782.2514097690582 49.24636220932007 L 774.2514097690582 49.24636220932007 L 774.2514097690582 41.24636220932007 Z" stroke-miterlimit="10" stroke-width="0.5" stroke-dasharray=""/><path fill="none" stroke="#505050" paint-order="fill stroke markers" d=" M 774.2514097690582 53.24636220932007 L 782.2514097690582 53.24636220932007 L 782.2514097690582 61.24636220932007 L 774.2514097690582 61.24636220932007 L 774.2514097690582 53.24636220932007 Z" stroke-miterlimit="10" stroke-width="0.5" stroke-dasharray=""/><path fill="none" stroke="#505050" paint-order="fill stroke markers" d=" M 774.2514097690582 65.24636220932007 L 782.2514097690582 65.24636220932007 L 782.2514097690582 73.24636220932007 L 774.2514097690582 73.24636220932007 L 774.2514097690582 65.24636220932007 Z" stroke-miterlimit="10" stroke-width="0.5" stroke-dasharray=""/><path fill="none" stroke="#505050" paint-order="fill stroke markers" d=" M 790.2514097690582 41.24636220932007 L 798.2514097690582 41.24636220932007 L 798.2514097690582 49.24636220932007 L 790.2514097690582 49.24636220932007 L 790.2514097690582 41.24636220932007 Z" stroke-miterlimit="10" stroke-width="0.5" stroke-dasharray=""/><path fill="white" stroke="#505050" paint-order="fill stroke markers" d=" M 672.9157347679138 129.80942916870117 L 737.9157347679138 129.80942916870117 L 737.9157347679138 175.80942916870117 L 672.9157347679138 175.80942916870117 L 672.9157347679138 129.80942916870117 Z" stroke-miterlimit="10" stroke-width="0.5" stroke-dasharray=""/><path fill="#F0F0F0" stroke="none" paint-order="stroke fill markers" d=""/><path fill="none" stroke="#505050" paint-order="fill stroke markers" d=" M 672.9157347679138 133.80942916870117 L 680.9157347679138 133.80942916870117 L 680.9157347679138 141.80942916870117 L 672.9157347679138 141.80942916870117 L 672.9157347679138 133.80942916870117 Z" stroke-miterlimit="10" stroke-width="0.5" stroke-dasharray=""/><text fill="#505050" stroke="none" font-family="monospace" font-size="14px" font-style="normal" font-weight="normal" text-decoration="normal" x="688.9157347679138" y="147.80942916870117" text-anchor="start" dominant-baseline="text-after-edge">n</text><path fill="none" stroke="#505050" paint-order="fill stroke markers" d=" M 672.9157347679138 147.80942916870117 L 680.9157347679138 147.80942916870117 L 680.9157347679138 155.80942916870117 L 672.9157347679138 155.80942916870117 L 672.9157347679138 147.80942916870117 Z" stroke-miterlimit="10" stroke-width="0.5" stroke-dasharray=""/><text fill="#505050" stroke="none" font-family="monospace" font-size="14px" font-style="normal" font-weight="normal" text-decoration="normal" x="688.9157347679138" y="161.80942916870117" text-anchor="start" dominant-baseline="text-after-edge">x</text><path fill="none" stroke="#505050" paint-order="fill stroke markers" d=" M 672.9157347679138 161.80942916870117 L 680.9157347679138 161.80942916870117 L 680.9157347679138 169.80942916870117 L 672.9157347679138 169.80942916870117 L 672.9157347679138 161.80942916870117 Z" stroke-miterlimit="10" stroke-width="0.5" stroke-dasharray=""/><text fill="#505050" stroke="none" font-family="monospace" font-size="14px" font-style="normal" font-weight="normal" text-decoration="normal" x="688.9157347679138" y="175.80942916870117" text-anchor="start" dominant-baseline="text-after-edge">y</text><path fill="none" stroke="#505050" paint-order="fill stroke markers" d=" M 729.9157347679138 133.80942916870117 L 737.9157347679138 133.80942916870117 L 737.9157347679138 141.80942916870117 L 729.9157347679138 141.80942916870117 L 729.9157347679138 133.80942916870117 Z" stroke-miterlimit="10" stroke-width="0.5" stroke-dasharray=""/><text fill="#505050" stroke="none" font-family="monospace" font-size="14px" font-style="normal" font-weight="normal" text-decoration="normal" x="721.9157347679138" y="147.80942916870117" text-anchor="end" dominant-baseline="text-after-edge">x'</text><path fill="none" stroke="#505050" paint-order="fill stroke markers" d=" M 729.9157347679138 147.80942916870117 L 737.9157347679138 147.80942916870117 L 737.9157347679138 155.80942916870117 L 729.9157347679138 155.80942916870117 L 729.9157347679138 147.80942916870117 Z" stroke-miterlimit="10" stroke-width="0.5" stroke-dasharray=""/><text fill="#505050" stroke="none" font-family="monospace" font-size="14px" font-style="normal" font-weight="normal" text-decoration="normal" x="721.9157347679138" y="161.80942916870117" text-anchor="end" dominant-baseline="text-after-edge">y'</text><path fill="#e0e0e0" stroke="none" paint-order="stroke fill markers" d=" M 966.7124519348145 262.77184295654297 L 958.7124519348145 239.77184295654297 L 958.7124519348145 285.77184295654297 Z M 664.9157347679138 152.80942916870117 L 672.9157347679138 129.80942916870117 L 672.9157347679138 175.80942916870117 Z"/><path fill="none" stroke="none"/><path fill="none" stroke="#e0e0e0" paint-order="fill stroke markers" d=" M 966.7124519348145 262.77184295654297 C 1063.0741102045279 262.77184295654297 568.5540764982005 152.80942916870117 664.9157347679138 152.80942916870117" stroke-miterlimit="10" stroke-width="2" stroke-dasharray=""/><path fill="white" stroke="#505050" paint-order="fill stroke markers" d=" M 803.7188353538513 133.13750457763672 L 876.7188353538513 133.13750457763672 L 876.7188353538513 225.13750457763672 L 803.7188353538513 225.13750457763672 L 803.7188353538513 133.13750457763672 Z" stroke-miterlimit="10" stroke-width="0.5" stroke-dasharray=""/><path fill="#F0F0F0" stroke="none" paint-order="stroke fill markers" d=""/><text fill="#505050" stroke="none" font-family="monospace" font-size="14px" font-style="normal" font-weight="normal" text-decoration="normal" x="840.2188353538513" y="151.13750457763672" text-anchor="middle" dominant-baseline="text-after-edge">expStep</text><path fill="none" stroke="#505050" paint-order="fill stroke markers" d=" M 803.7188353538513 151.13750457763672 L 811.7188353538513 151.13750457763672 L 811.7188353538513 159.13750457763672 L 803.7188353538513 159.13750457763672 L 803.7188353538513 151.13750457763672 Z" stroke-miterlimit="10" stroke-width="0.5" stroke-dasharray=""/><text fill="#505050" stroke="none" font-family="monospace" font-size="14px" font-style="normal" font-weight="normal" text-decoration="normal" x="819.7188353538513" y="165.13750457763672" text-anchor="start" dominant-baseline="text-after-edge">n</text><path fill="none" stroke="#505050" paint-order="fill stroke markers" d=" M 803.7188353538513 165.13750457763672 L 811.7188353538513 165.13750457763672 L 811.7188353538513 173.13750457763672 L 803.7188353538513 173.13750457763672 L 803.7188353538513 165.13750457763672 Z" stroke-miterlimit="10" stroke-width="0.5" stroke-dasharray=""/><text fill="#505050" stroke="none" font-family="monospace" font-size="14px" font-style="normal" font-weight="normal" text-decoration="normal" x="819.7188353538513" y="179.13750457763672" text-anchor="start" dominant-baseline="text-after-edge">x</text><path fill="none" stroke="#505050" paint-order="fill stroke markers" d=" M 803.7188353538513 179.13750457763672 L 811.7188353538513 179.13750457763672 L 811.7188353538513 187.13750457763672 L 803.7188353538513 187.13750457763672 L 803.7188353538513 179.13750457763672 Z" stroke-miterlimit="10" stroke-width="0.5" stroke-dasharray=""/><text fill="#505050" stroke="none" font-family="monospace" font-size="14px" font-style="normal" font-weight="normal" text-decoration="normal" x="819.7188353538513" y="193.13750457763672" text-anchor="start" dominant-baseline="text-after-edge">y</text><path fill="none" stroke="#505050" paint-order="fill stroke markers" d=" M 803.7188353538513 193.13750457763672 L 827.7188353538513 193.13750457763672 L 827.7188353538513 221.13750457763672 L 803.7188353538513 221.13750457763672 L 803.7188353538513 193.13750457763672 Z" stroke-miterlimit="10" stroke-width="0.5" stroke-dasharray=""/><path fill="none" stroke="#505050" paint-order="fill stroke markers" d=" M 803.7188353538513 197.13750457763672 L 811.7188353538513 197.13750457763672 L 811.7188353538513 205.13750457763672 L 803.7188353538513 205.13750457763672 L 803.7188353538513 197.13750457763672 Z" stroke-miterlimit="10" stroke-width="0.5" stroke-dasharray=""/><path fill="none" stroke="#505050" paint-order="fill stroke markers" d=" M 803.7188353538513 209.13750457763672 L 811.7188353538513 209.13750457763672 L 811.7188353538513 217.13750457763672 L 803.7188353538513 217.13750457763672 L 803.7188353538513 209.13750457763672 Z" stroke-miterlimit="10" stroke-width="0.5" stroke-dasharray=""/><path fill="none" stroke="#505050" paint-order="fill stroke markers" d=" M 819.7188353538513 197.13750457763672 L 827.7188353538513 197.13750457763672 L 827.7188353538513 205.13750457763672 L 819.7188353538513 205.13750457763672 L 819.7188353538513 197.13750457763672 Z" stroke-miterlimit="10" stroke-width="0.5" stroke-dasharray=""/><text fill="#505050" stroke="none" font-family="monospace" font-size="14px" font-style="normal" font-weight="normal" text-decoration="normal" x="835.7188353538513" y="216.13750457763672" text-anchor="start" dominant-baseline="text-after-edge">mul</text><path fill="none" stroke="#505050" paint-order="fill stroke markers" d=" M 868.7188353538513 151.13750457763672 L 876.7188353538513 151.13750457763672 L 876.7188353538513 159.13750457763672 L 868.7188353538513 159.13750457763672 L 868.7188353538513 151.13750457763672 Z" stroke-miterlimit="10" stroke-width="0.5" stroke-dasharray=""/><path fill="white" stroke="#505050" paint-order="fill stroke markers" d=" M 763.3844847679138 98.1437759399414 L 788.3844847679138 98.1437759399414 L 788.3844847679138 128.1437759399414 L 763.3844847679138 128.1437759399414 L 763.3844847679138 98.1437759399414 Z" stroke-miterlimit="10" stroke-width="0.5" stroke-dasharray=""/><path fill="#F0F0F0" stroke="none" paint-order="stroke fill markers" d=""/><text fill="#505050" stroke="none" font-family="monospace" font-size="14px" font-style="normal" font-weight="normal" text-decoration="normal" x="775.8844847679138" y="116.1437759399414" text-anchor="middle" dominant-baseline="text-after-edge">/2</text><path fill="none" stroke="#505050" paint-order="fill stroke markers" d=" M 763.3844847679138 116.1437759399414 L 771.3844847679138 116.1437759399414 L 771.3844847679138 124.1437759399414 L 763.3844847679138 124.1437759399414 L 763.3844847679138 116.1437759399414 Z" stroke-miterlimit="10" stroke-width="0.5" stroke-dasharray=""/><path fill="none" stroke="#505050" paint-order="fill stroke markers" d=" M 780.3844847679138 116.1437759399414 L 788.3844847679138 116.1437759399414 L 788.3844847679138 124.1437759399414 L 780.3844847679138 124.1437759399414 L 780.3844847679138 116.1437759399414 Z" stroke-miterlimit="10" stroke-width="0.5" stroke-dasharray=""/><path fill="white" stroke="#505050" paint-order="fill stroke markers" d=" M 672.4124031066895 239.77184295654297 L 672.4124031066895 423.88748931884766 Q 672.4124031066895 431.88748931884766 680.4124031066895 431.88748931884766 L 950.7124519348145 431.88748931884766 Q 958.7124519348145 431.88748931884766 958.7124519348145 423.88748931884766 L 958.7124519348145 239.77184295654297 Q 958.7124519348145 231.77184295654297 950.7124519348145 231.77184295654297 L 680.4124031066895 231.77184295654297 Q 672.4124031066895 231.77184295654297 672.4124031066895 239.77184295654297" stroke-miterlimit="10" stroke-width="0.5" stroke-dasharray=""/><path fill="#F0F0F0" stroke="#505050" paint-order="fill stroke markers" d=" M 893.7124519348145 239.77184295654297 L 958.7124519348145 239.77184295654297 L 958.7124519348145 285.77184295654297 L 893.7124519348145 285.77184295654297 L 893.7124519348145 239.77184295654297 Z" stroke-miterlimit="10" stroke-width="0.5" stroke-dasharray=""/><path fill="none" stroke="#505050" paint-order="fill stroke markers" d=" M 893.7124519348145 243.77184295654297 L 901.7124519348145 243.77184295654297 L 901.7124519348145 251.77184295654297 L 893.7124519348145 251.77184295654297 L 893.7124519348145 243.77184295654297 Z" stroke-miterlimit="10" stroke-width="0.5" stroke-dasharray=""/><text fill="#505050" stroke="none" font-family="monospace" font-size="14px" font-style="normal" font-weight="normal" text-decoration="normal" x="909.7124519348145" y="257.77184295654297" text-anchor="start" dominant-baseline="text-after-edge">n</text><path fill="none" stroke="#505050" paint-order="fill stroke markers" d=" M 893.7124519348145 257.77184295654297 L 901.7124519348145 257.77184295654297 L 901.7124519348145 265.77184295654297 L 893.7124519348145 265.77184295654297 L 893.7124519348145 257.77184295654297 Z" stroke-miterlimit="10" stroke-width="0.5" stroke-dasharray=""/><text fill="#505050" stroke="none" font-family="monospace" font-size="14px" font-style="normal" font-weight="normal" text-decoration="normal" x="909.7124519348145" y="271.77184295654297" text-anchor="start" dominant-baseline="text-after-edge">x</text><path fill="none" stroke="#505050" paint-order="fill stroke markers" d=" M 893.7124519348145 271.77184295654297 L 901.7124519348145 271.77184295654297 L 901.7124519348145 279.77184295654297 L 893.7124519348145 279.77184295654297 L 893.7124519348145 271.77184295654297 Z" stroke-miterlimit="10" stroke-width="0.5" stroke-dasharray=""/><text fill="#505050" stroke="none" font-family="monospace" font-size="14px" font-style="normal" font-weight="normal" text-decoration="normal" x="909.7124519348145" y="285.77184295654297" text-anchor="start" dominant-baseline="text-after-edge">y</text><path fill="none" stroke="#505050" paint-order="fill stroke markers" d=" M 950.7124519348145 243.77184295654297 L 958.7124519348145 243.77184295654297 L 958.7124519348145 251.77184295654297 L 950.7124519348145 251.77184295654297 L 950.7124519348145 243.77184295654297 Z" stroke-miterlimit="10" stroke-width="0.5" stroke-dasharray=""/><text fill="#505050" stroke="none" font-family="monospace" font-size="14px" font-style="normal" font-weight="normal" text-decoration="normal" x="942.7124519348145" y="257.77184295654297" text-anchor="end" dominant-baseline="text-after-edge">x'</text><path fill="none" stroke="#505050" paint-order="fill stroke markers" d=" M 950.7124519348145 257.77184295654297 L 958.7124519348145 257.77184295654297 L 958.7124519348145 265.77184295654297 L 950.7124519348145 265.77184295654297 L 950.7124519348145 257.77184295654297 Z" stroke-miterlimit="10" stroke-width="0.5" stroke-dasharray=""/><text fill="#505050" stroke="none" font-family="monospace" font-size="14px" font-style="normal" font-weight="normal" text-decoration="normal" x="942.7124519348145" y="271.77184295654297" text-anchor="end" dominant-baseline="text-after-edge">y'</text><path fill="white" stroke="#505050" paint-order="fill stroke markers" d=" M 761.2874145507812 362.4437255859375 L 794.2874145507812 362.4437255859375 L 794.2874145507812 404.4437255859375 L 761.2874145507812 404.4437255859375 L 761.2874145507812 362.4437255859375 Z" stroke-miterlimit="10" stroke-width="0.5" stroke-dasharray=""/><path fill="#F0F0F0" stroke="none" paint-order="stroke fill markers" d=""/><text fill="#505050" stroke="none" font-family="monospace" font-size="14px" font-style="normal" font-weight="normal" text-decoration="normal" x="777.7874145507812" y="380.4437255859375" text-anchor="middle" dominant-baseline="text-after-edge">mul</text><path fill="none" stroke="#505050" paint-order="fill stroke markers" d=" M 761.2874145507812 380.4437255859375 L 769.2874145507812 380.4437255859375 L 769.2874145507812 388.4437255859375 L 761.2874145507812 388.4437255859375 L 761.2874145507812 380.4437255859375 Z" stroke-miterlimit="10" stroke-width="0.5" stroke-dasharray=""/><path fill="none" stroke="#505050" paint-order="fill stroke markers" d=" M 761.2874145507812 392.4437255859375 L 769.2874145507812 392.4437255859375 L 769.2874145507812 400.4437255859375 L 761.2874145507812 400.4437255859375 L 761.2874145507812 392.4437255859375 Z" stroke-miterlimit="10" stroke-width="0.5" stroke-dasharray=""/><path fill="none" stroke="#505050" paint-order="fill stroke markers" d=" M 786.2874145507812 380.4437255859375 L 794.2874145507812 380.4437255859375 L 794.2874145507812 388.4437255859375 L 786.2874145507812 388.4437255859375 L 786.2874145507812 380.4437255859375 Z" stroke-miterlimit="10" stroke-width="0.5" stroke-dasharray=""/><path fill="#e0e0e0" stroke="none" paint-order="stroke fill markers" d=" M 658.9154586791992 241.4281234741211 L 650.9154586791992 220.4281234741211 L 650.9154586791992 262.4281234741211 Z M 753.2874145507812 383.4437255859375 L 761.2874145507812 362.4437255859375 L 761.2874145507812 404.4437255859375 Z"/><path fill="none" stroke="none"/><path fill="none" stroke="#e0e0e0" paint-order="fill stroke markers" d=" M 658.9154586791992 241.4281234741211 C 710.0691951687154 241.4281234741211 702.1336780612651 383.4437255859375 753.2874145507812 383.4437255859375" stroke-miterlimit="10" stroke-width="2" stroke-dasharray=""/><path fill="white" stroke="#505050" paint-order="fill stroke markers" d=" M 676.9844604432583 291.3874816894531 L 708.9844604432583 291.3874816894531 L 708.9844604432583 309.3874816894531 L 676.9844604432583 309.3874816894531 L 684.9844604432583 300.3874816894531 L 676.9844604432583 291.3874816894531" stroke-miterlimit="10" stroke-width="0.5" stroke-dasharray=""/><path fill="none" stroke="#505050" paint-order="fill stroke markers" d=" M 700.9844604432583 295.3874816894531 L 708.9844604432583 295.3874816894531 L 708.9844604432583 303.3874816894531 L 700.9844604432583 303.3874816894531 L 700.9844604432583 295.3874816894531 Z" stroke-miterlimit="10" stroke-width="0.5" stroke-dasharray=""/><text fill="#505050" stroke="none" font-family="monospace" font-size="14px" font-style="normal" font-weight="normal" text-decoration="normal" x="692.9844604432583" y="309.3874816894531" text-anchor="end" dominant-baseline="text-after-edge">x</text><path fill="white" stroke="#505050" paint-order="fill stroke markers" d=" M 676.2813964784145 319.0812301635742 L 708.2813964784145 319.0812301635742 L 708.2813964784145 337.0812301635742 L 676.2813964784145 337.0812301635742 L 684.2813964784145 328.0812301635742 L 676.2813964784145 319.0812301635742" stroke-miterlimit="10" stroke-width="0.5" stroke-dasharray=""/><path fill="none" stroke="#505050" paint-order="fill stroke markers" d=" M 700.2813964784145 323.0812301635742 L 708.2813964784145 323.0812301635742 L 708.2813964784145 331.0812301635742 L 700.2813964784145 331.0812301635742 L 700.2813964784145 323.0812301635742 Z" stroke-miterlimit="10" stroke-width="0.5" stroke-dasharray=""/><text fill="#505050" stroke="none" font-family="monospace" font-size="14px" font-style="normal" font-weight="normal" text-decoration="normal" x="692.2813964784145" y="337.0812301635742" text-anchor="end" dominant-baseline="text-after-edge">y</text><path fill="white" stroke="#505050" paint-order="fill stroke markers" d=" M 856.4811401367188 323.6249809265137 L 889.4811401367188 323.6249809265137 L 897.4811401367188 332.6249809265137 L 889.4811401367188 341.6249809265137 L 856.4811401367188 341.6249809265137 L 856.4811401367188 323.6249809265137" stroke-miterlimit="10" stroke-width="0.5" stroke-dasharray=""/><path fill="none" stroke="#505050" paint-order="fill stroke markers" d=" M 856.4811401367188 327.6249809265137 L 864.4811401367188 327.6249809265137 L 864.4811401367188 335.6249809265137 L 856.4811401367188 335.6249809265137 L 856.4811401367188 327.6249809265137 Z" stroke-miterlimit="10" stroke-width="0.5" stroke-dasharray=""/><text fill="#505050" stroke="none" font-family="monospace" font-size="14px" font-style="normal" font-weight="normal" text-decoration="normal" x="872.4811401367188" y="341.6249809265137" text-anchor="start" dominant-baseline="text-after-edge">x'</text><path fill="white" stroke="#505050" paint-order="fill stroke markers" d=" M 858.0999145507812 352.62184143066406 L 891.0999145507812 352.62184143066406 L 899.0999145507812 361.62184143066406 L 891.0999145507812 370.62184143066406 L 858.0999145507812 370.62184143066406 L 858.0999145507812 352.62184143066406" stroke-miterlimit="10" stroke-width="0.5" stroke-dasharray=""/><path fill="none" stroke="#505050" paint-order="fill stroke markers" d=" M 858.0999145507812 356.62184143066406 L 866.0999145507812 356.62184143066406 L 866.0999145507812 364.62184143066406 L 858.0999145507812 364.62184143066406 L 858.0999145507812 356.62184143066406 Z" stroke-miterlimit="10" stroke-width="0.5" stroke-dasharray=""/><text fill="#505050" stroke="none" font-family="monospace" font-size="14px" font-style="normal" font-weight="normal" text-decoration="normal" x="874.0999145507812" y="370.62184143066406" text-anchor="start" dominant-baseline="text-after-edge">y'</text><path fill="white" stroke="#505050" paint-order="fill stroke markers" d=" M 761.3686766624451 309.0218505859375 L 794.3686766624451 309.0218505859375 L 794.3686766624451 351.0218505859375 L 761.3686766624451 351.0218505859375 L 761.3686766624451 309.0218505859375 Z" stroke-miterlimit="10" stroke-width="0.5" stroke-dasharray=""/><path fill="#F0F0F0" stroke="none" paint-order="stroke fill markers" d=""/><text fill="#505050" stroke="none" font-family="monospace" font-size="14px" font-style="normal" font-weight="normal" text-decoration="normal" x="777.8686766624451" y="327.0218505859375" text-anchor="middle" dominant-baseline="text-after-edge">mul</text><path fill="none" stroke="#505050" paint-order="fill stroke markers" d=" M 761.3686766624451 327.0218505859375 L 769.3686766624451 327.0218505859375 L 769.3686766624451 335.0218505859375 L 761.3686766624451 335.0218505859375 L 761.3686766624451 327.0218505859375 Z" stroke-miterlimit="10" stroke-width="0.5" stroke-dasharray=""/><path fill="none" stroke="#505050" paint-order="fill stroke markers" d=" M 761.3686766624451 339.0218505859375 L 769.3686766624451 339.0218505859375 L 769.3686766624451 347.0218505859375 L 761.3686766624451 347.0218505859375 L 761.3686766624451 339.0218505859375 Z" stroke-miterlimit="10" stroke-width="0.5" stroke-dasharray=""/><path fill="none" stroke="#505050" paint-order="fill stroke markers" d=" M 786.3686766624451 327.0218505859375 L 794.3686766624451 327.0218505859375 L 794.3686766624451 335.0218505859375 L 786.3686766624451 335.0218505859375 L 786.3686766624451 327.0218505859375 Z" stroke-miterlimit="10" stroke-width="0.5" stroke-dasharray=""/><path fill="#e0e0e0" stroke="none" paint-order="stroke fill markers" d=" M 658.9154586791992 241.4281234741211 L 650.9154586791992 220.4281234741211 L 650.9154586791992 262.4281234741211 Z M 753.3686766624451 330.0218505859375 L 761.3686766624451 309.0218505859375 L 761.3686766624451 351.0218505859375 Z"/><path fill="none" stroke="none"/><path fill="none" stroke="#e0e0e0" paint-order="fill stroke markers" d=" M 658.9154586791992 241.4281234741211 C 697.7654689544336 241.4281234741211 714.5186663872107 330.0218505859375 753.3686766624451 330.0218505859375" stroke-miterlimit="10" stroke-width="2" stroke-dasharray=""/><path fill="white" stroke="#505050" paint-order="fill stroke markers" d=" M 681.4125667512417 252.55313873291016 L 713.4125667512417 252.55313873291016 L 713.4125667512417 270.55313873291016 L 681.4125667512417 270.55313873291016 L 689.4125667512417 261.55313873291016 L 681.4125667512417 252.55313873291016" stroke-miterlimit="10" stroke-width="0.5" stroke-dasharray=""/><path fill="none" stroke="#505050" paint-order="fill stroke markers" d=" M 705.4125667512417 256.55313873291016 L 713.4125667512417 256.55313873291016 L 713.4125667512417 264.55313873291016 L 705.4125667512417 264.55313873291016 L 705.4125667512417 256.55313873291016 Z" stroke-miterlimit="10" stroke-width="0.5" stroke-dasharray=""/><text fill="#505050" stroke="none" font-family="monospace" font-size="14px" font-style="normal" font-weight="normal" text-decoration="normal" x="697.4125667512417" y="270.55313873291016" text-anchor="end" dominant-baseline="text-after-edge">n</text><path fill="white" stroke="#505050" paint-order="fill stroke markers" d=" M 810.1842894554138 239.88748168945312 L 834.1842894554138 239.88748168945312 L 834.1842894554138 293.8874816894531 L 810.1842894554138 293.8874816894531 L 810.1842894554138 239.88748168945312 Z" stroke-miterlimit="10" stroke-width="0.5" stroke-dasharray=""/><path fill="#F0F0F0" stroke="none" paint-order="stroke fill markers" d=""/><text fill="#505050" stroke="none" font-family="monospace" font-size="14px" font-style="normal" font-weight="normal" text-decoration="normal" x="822.1842894554138" y="257.8874816894531" text-anchor="middle" dominant-baseline="text-after-edge">?</text><path fill="none" stroke="#505050" paint-order="fill stroke markers" d=" M 810.1842894554138 257.8874816894531 L 818.1842894554138 257.8874816894531 L 818.1842894554138 265.8874816894531 L 810.1842894554138 265.8874816894531 L 810.1842894554138 257.8874816894531 Z" stroke-miterlimit="10" stroke-width="0.5" stroke-dasharray=""/><path fill="none" stroke="#505050" paint-order="fill stroke markers" d=" M 810.1842894554138 269.8874816894531 L 818.1842894554138 269.8874816894531 L 818.1842894554138 277.8874816894531 L 810.1842894554138 277.8874816894531 L 810.1842894554138 269.8874816894531 Z" stroke-miterlimit="10" stroke-width="0.5" stroke-dasharray=""/><path fill="none" stroke="#505050" paint-order="fill stroke markers" d=" M 810.1842894554138 281.8874816894531 L 818.1842894554138 281.8874816894531 L 818.1842894554138 289.8874816894531 L 810.1842894554138 289.8874816894531 L 810.1842894554138 281.8874816894531 Z" stroke-miterlimit="10" stroke-width="0.5" stroke-dasharray=""/><path fill="none" stroke="#505050" paint-order="fill stroke markers" d=" M 826.1842894554138 257.8874816894531 L 834.1842894554138 257.8874816894531 L 834.1842894554138 265.8874816894531 L 826.1842894554138 265.8874816894531 L 826.1842894554138 257.8874816894531 Z" stroke-miterlimit="10" stroke-width="0.5" stroke-dasharray=""/><path fill="white" stroke="#505050" paint-order="fill stroke markers" d=" M 723.9811644554138 238.31873321533203 L 765.9811644554138 238.31873321533203 L 765.9811644554138 268.31873321533203 L 723.9811644554138 268.31873321533203 L 723.9811644554138 238.31873321533203 Z" stroke-miterlimit="10" stroke-width="0.5" stroke-dasharray=""/><path fill="#F0F0F0" stroke="none" paint-order="stroke fill markers" d=""/><text fill="#505050" stroke="none" font-family="monospace" font-size="14px" font-style="normal" font-weight="normal" text-decoration="normal" x="744.9811644554138" y="256.31873321533203" text-anchor="middle" dominant-baseline="text-after-edge">even</text><path fill="none" stroke="#505050" paint-order="fill stroke markers" d=" M 723.9811644554138 256.31873321533203 L 731.9811644554138 256.31873321533203 L 731.9811644554138 264.31873321533203 L 723.9811644554138 264.31873321533203 L 723.9811644554138 256.31873321533203 Z" stroke-miterlimit="10" stroke-width="0.5" stroke-dasharray=""/><path fill="none" stroke="#505050" paint-order="fill stroke markers" d=" M 757.9811644554138 256.31873321533203 L 765.9811644554138 256.31873321533203 L 765.9811644554138 264.31873321533203 L 757.9811644554138 264.31873321533203 L 757.9811644554138 256.31873321533203 Z" stroke-miterlimit="10" stroke-width="0.5" stroke-dasharray=""/><path fill="none" stroke="none"/><path fill="white" stroke="#505050" paint-order="fill stroke markers" d=" M 601.9154586791992 216.4281234741211 L 650.9154586791992 216.4281234741211 L 650.9154586791992 266.4281234741211 L 601.9154586791992 266.4281234741211 L 609.9154586791992 241.4281234741211 L 601.9154586791992 216.4281234741211" stroke-miterlimit="10" stroke-width="0.5" stroke-dasharray="6,3"/><path fill="#F0F0F0" stroke="none" paint-order="stroke fill markers" d=" M 617.9154586791992 220.4281234741211 L 650.9154586791992 220.4281234741211 L 650.9154586791992 262.4281234741211 L 617.9154586791992 262.4281234741211 L 617.9154586791992 220.4281234741211 Z"/><path fill="none" stroke="#505050" paint-order="fill stroke markers" d=" M 617.9154586791992 220.4281234741211 L 650.9154586791992 220.4281234741211 L 650.9154586791992 262.4281234741211 L 617.9154586791992 262.4281234741211 L 617.9154586791992 220.4281234741211 Z" stroke-miterlimit="10" stroke-width="0.5" stroke-dasharray="0"/><text fill="#505050" stroke="none" font-family="monospace" font-size="14px" font-style="normal" font-weight="normal" text-decoration="normal" x="634.4154586791992" y="238.4281234741211" text-anchor="middle" dominant-baseline="text-after-edge">mul</text><path fill="none" stroke="#505050" paint-order="fill stroke markers" d=" M 617.9154586791992 238.4281234741211 L 625.9154586791992 238.4281234741211 L 625.9154586791992 246.4281234741211 L 617.9154586791992 246.4281234741211 L 617.9154586791992 238.4281234741211 Z" stroke-miterlimit="10" stroke-width="0.5" stroke-dasharray="0"/><path fill="none" stroke="#505050" paint-order="fill stroke markers" d=" M 617.9154586791992 250.4281234741211 L 625.9154586791992 250.4281234741211 L 625.9154586791992 258.4281234741211 L 617.9154586791992 258.4281234741211 L 617.9154586791992 250.4281234741211 Z" stroke-miterlimit="10" stroke-width="0.5" stroke-dasharray="0"/><path fill="none" stroke="#505050" paint-order="fill stroke markers" d=" M 642.9154586791992 238.4281234741211 L 650.9154586791992 238.4281234741211 L 650.9154586791992 246.4281234741211 L 642.9154586791992 246.4281234741211 L 642.9154586791992 238.4281234741211 Z" stroke-miterlimit="10" stroke-width="0.5" stroke-dasharray="0"/><path fill="none" stroke="#505050" paint-order="fill stroke markers" d=" M 617.9154586791992 220.4281234741211 L 650.9154586791992 220.4281234741211 L 650.9154586791992 262.4281234741211 L 617.9154586791992 262.4281234741211 L 617.9154586791992 220.4281234741211 Z" stroke-miterlimit="10" stroke-width="0.5" stroke-dasharray="6,3"/><path fill="#F0F0F0" stroke="none" paint-order="stroke fill markers" d=""/><text fill="#505050" stroke="none" font-family="monospace" font-size="14px" font-style="normal" font-weight="normal" text-decoration="normal" x="634.4154586791992" y="238.4281234741211" text-anchor="middle" dominant-baseline="text-after-edge">mul</text><path fill="none" stroke="#505050" paint-order="fill stroke markers" d=" M 617.9154586791992 238.4281234741211 L 625.9154586791992 238.4281234741211 L 625.9154586791992 246.4281234741211 L 617.9154586791992 246.4281234741211 L 617.9154586791992 238.4281234741211 Z" stroke-miterlimit="10" stroke-width="0.5" stroke-dasharray="0"/><path fill="none" stroke="#505050" paint-order="fill stroke markers" d=" M 617.9154586791992 250.4281234741211 L 625.9154586791992 250.4281234741211 L 625.9154586791992 258.4281234741211 L 617.9154586791992 258.4281234741211 L 617.9154586791992 250.4281234741211 Z" stroke-miterlimit="10" stroke-width="0.5" stroke-dasharray="0"/><path fill="none" stroke="#505050" paint-order="fill stroke markers" d=" M 642.9154586791992 238.4281234741211 L 650.9154586791992 238.4281234741211 L 650.9154586791992 246.4281234741211 L 642.9154586791992 246.4281234741211 L 642.9154586791992 238.4281234741211 Z" stroke-miterlimit="10" stroke-width="0.5" stroke-dasharray="0"/><path fill="white" stroke="#505050" paint-order="fill stroke markers" d=" M 996.9968185424805 139.2406005859375 L 996.9968185424805 272.18750762939453 Q 996.9968185424805 280.18750762939453 1004.9968185424805 280.18750762939453 L 1203.0216674804688 280.18750762939453 Q 1211.0216674804688 280.18750762939453 1211.0216674804688 272.18750762939453 L 1211.0216674804688 139.2406005859375 Q 1211.0216674804688 131.2406005859375 1203.0216674804688 131.2406005859375 L 1004.9968185424805 131.2406005859375 Q 996.9968185424805 131.2406005859375 996.9968185424805 139.2406005859375" stroke-miterlimit="10" stroke-width="0.5" stroke-dasharray="0"/><path fill="#F0F0F0" stroke="#505050" paint-order="fill stroke markers" d=" M 1171.0216674804688 139.2406005859375 L 1211.0216674804688 139.2406005859375 L 1211.0216674804688 185.2406005859375 L 1171.0216674804688 185.2406005859375 L 1171.0216674804688 139.2406005859375 Z" stroke-miterlimit="10" stroke-width="0.5" stroke-dasharray="0"/><text fill="#505050" stroke="none" font-family="monospace" font-size="14px" font-style="normal" font-weight="normal" text-decoration="normal" x="1191.0216674804688" y="157.2406005859375" text-anchor="middle" dominant-baseline="text-after-edge">x</text><path fill="none" stroke="#505050" paint-order="fill stroke markers" d=" M 1171.0216674804688 157.2406005859375 L 1179.0216674804688 157.2406005859375 L 1179.0216674804688 165.2406005859375 L 1171.0216674804688 165.2406005859375 L 1171.0216674804688 157.2406005859375 Z" stroke-miterlimit="10" stroke-width="0.5" stroke-dasharray="0"/><text fill="#505050" stroke="none" font-family="monospace" font-size="14px" font-style="normal" font-weight="normal" text-decoration="normal" x="1187.0216674804688" y="171.2406005859375" text-anchor="start" dominant-baseline="text-after-edge">n</text><path fill="none" stroke="#505050" paint-order="fill stroke markers" d=" M 1171.0216674804688 171.2406005859375 L 1179.0216674804688 171.2406005859375 L 1179.0216674804688 179.2406005859375 L 1171.0216674804688 179.2406005859375 L 1171.0216674804688 171.2406005859375 Z" stroke-miterlimit="10" stroke-width="0.5" stroke-dasharray="0"/><text fill="#505050" stroke="none" font-family="monospace" font-size="14px" font-style="normal" font-weight="normal" text-decoration="normal" x="1187.0216674804688" y="185.2406005859375" text-anchor="start" dominant-baseline="text-after-edge">x</text><path fill="none" stroke="#505050" paint-order="fill stroke markers" d=" M 1203.0216674804688 157.2406005859375 L 1211.0216674804688 157.2406005859375 L 1211.0216674804688 165.2406005859375 L 1203.0216674804688 165.2406005859375 L 1203.0216674804688 157.2406005859375 Z" stroke-miterlimit="10" stroke-width="0.5" stroke-dasharray="0"/><path fill="white" stroke="#505050" paint-order="fill stroke markers" d=" M 1005.1966552734375 140.20623779296875 L 1037.1966552734375 140.20623779296875 L 1037.1966552734375 158.20623779296875 L 1005.1966552734375 158.20623779296875 L 1013.1966552734375 149.20623779296875 L 1005.1966552734375 140.20623779296875" stroke-miterlimit="10" stroke-width="0.5" stroke-dasharray="0"/><path fill="none" stroke="#505050" paint-order="fill stroke markers" d=" M 1029.1966552734375 144.20623779296875 L 1037.1966552734375 144.20623779296875 L 1037.1966552734375 152.20623779296875 L 1029.1966552734375 152.20623779296875 L 1029.1966552734375 144.20623779296875 Z" stroke-miterlimit="10" stroke-width="0.5" stroke-dasharray="0"/><text fill="#505050" stroke="none" font-family="monospace" font-size="14px" font-style="normal" font-weight="normal" text-decoration="normal" x="1021.1966552734375" y="158.20623779296875" text-anchor="end" dominant-baseline="text-after-edge">n</text><path fill="white" stroke="#505050" paint-order="fill stroke markers" d=" M 1055.4747924804688 139.2406005859375 L 1128.4747924804688 139.2406005859375 L 1128.4747924804688 231.2406005859375 L 1055.4747924804688 231.2406005859375 L 1055.4747924804688 139.2406005859375 Z" stroke-miterlimit="10" stroke-width="0.5" stroke-dasharray="0"/><path fill="#F0F0F0" stroke="none" paint-order="stroke fill markers" d=""/><text fill="#505050" stroke="none" font-family="monospace" font-size="14px" font-style="normal" font-weight="normal" text-decoration="normal" x="1091.9747924804688" y="157.2406005859375" text-anchor="middle" dominant-baseline="text-after-edge">expStep</text><path fill="none" stroke="#505050" paint-order="fill stroke markers" d=" M 1055.4747924804688 157.2406005859375 L 1063.4747924804688 157.2406005859375 L 1063.4747924804688 165.2406005859375 L 1055.4747924804688 165.2406005859375 L 1055.4747924804688 157.2406005859375 Z" stroke-miterlimit="10" stroke-width="0.5" stroke-dasharray="0"/><text fill="#505050" stroke="none" font-family="monospace" font-size="14px" font-style="normal" font-weight="normal" text-decoration="normal" x="1071.4747924804688" y="171.2406005859375" text-anchor="start" dominant-baseline="text-after-edge">n</text><path fill="none" stroke="#505050" paint-order="fill stroke markers" d=" M 1055.4747924804688 171.2406005859375 L 1063.4747924804688 171.2406005859375 L 1063.4747924804688 179.2406005859375 L 1055.4747924804688 179.2406005859375 L 1055.4747924804688 171.2406005859375 Z" stroke-miterlimit="10" stroke-width="0.5" stroke-dasharray="0"/><text fill="#505050" stroke="none" font-family="monospace" font-size="14px" font-style="normal" font-weight="normal" text-decoration="normal" x="1071.4747924804688" y="185.2406005859375" text-anchor="start" dominant-baseline="text-after-edge">x</text><path fill="none" stroke="#505050" paint-order="fill stroke markers" d=" M 1055.4747924804688 185.2406005859375 L 1063.4747924804688 185.2406005859375 L 1063.4747924804688 193.2406005859375 L 1055.4747924804688 193.2406005859375 L 1055.4747924804688 185.2406005859375 Z" stroke-miterlimit="10" stroke-width="0.5" stroke-dasharray="0"/><text fill="#505050" stroke="none" font-family="monospace" font-size="14px" font-style="normal" font-weight="normal" text-decoration="normal" x="1071.4747924804688" y="199.2406005859375" text-anchor="start" dominant-baseline="text-after-edge">y</text><path fill="none" stroke="#505050" paint-order="fill stroke markers" d=" M 1055.4747924804688 199.2406005859375 L 1079.4747924804688 199.2406005859375 L 1079.4747924804688 227.2406005859375 L 1055.4747924804688 227.2406005859375 L 1055.4747924804688 199.2406005859375 Z" stroke-miterlimit="10" stroke-width="0.5" stroke-dasharray="0"/><path fill="none" stroke="#505050" paint-order="fill stroke markers" d=" M 1055.4747924804688 203.2406005859375 L 1063.4747924804688 203.2406005859375 L 1063.4747924804688 211.2406005859375 L 1055.4747924804688 211.2406005859375 L 1055.4747924804688 203.2406005859375 Z" stroke-miterlimit="10" stroke-width="0.5" stroke-dasharray="0"/><path fill="none" stroke="#505050" paint-order="fill stroke markers" d=" M 1055.4747924804688 215.2406005859375 L 1063.4747924804688 215.2406005859375 L 1063.4747924804688 223.2406005859375 L 1055.4747924804688 223.2406005859375 L 1055.4747924804688 215.2406005859375 Z" stroke-miterlimit="10" stroke-width="0.5" stroke-dasharray="0"/><path fill="none" stroke="#505050" paint-order="fill stroke markers" d=" M 1071.4747924804688 203.2406005859375 L 1079.4747924804688 203.2406005859375 L 1079.4747924804688 211.2406005859375 L 1071.4747924804688 211.2406005859375 L 1071.4747924804688 203.2406005859375 Z" stroke-miterlimit="10" stroke-width="0.5" stroke-dasharray="0"/><text fill="#505050" stroke="none" font-family="monospace" font-size="14px" font-style="normal" font-weight="normal" text-decoration="normal" x="1087.4747924804688" y="222.2406005859375" text-anchor="start" dominant-baseline="text-after-edge">mul</text><path fill="none" stroke="#505050" paint-order="fill stroke markers" d=" M 1120.4747924804688 157.2406005859375 L 1128.4747924804688 157.2406005859375 L 1128.4747924804688 165.2406005859375 L 1120.4747924804688 165.2406005859375 L 1120.4747924804688 157.2406005859375 Z" stroke-miterlimit="10" stroke-width="0.5" stroke-dasharray="0"/><path fill="white" stroke="#505050" paint-order="fill stroke markers" d=" M 1138.4747924804688 153.2406005859375 L 1146.4747924804688 153.2406005859375 L 1154.4747924804688 161.2406005859375 L 1146.4747924804688 169.2406005859375 L 1138.4747924804688 169.2406005859375 L 1138.4747924804688 153.2406005859375" stroke-miterlimit="10" stroke-width="0.5" stroke-dasharray="0"/><path fill="none" stroke="#505050" paint-order="fill stroke markers" d=" M 1138.4747924804688 157.2406005859375 L 1146.4747924804688 157.2406005859375 L 1146.4747924804688 165.2406005859375 L 1138.4747924804688 165.2406005859375 L 1138.4747924804688 157.2406005859375 Z" stroke-miterlimit="10" stroke-width="0.5" stroke-dasharray="0"/><path fill="none" stroke="none"/><path fill="white" stroke="#505050" paint-order="fill stroke markers" d=" M 1007.209342956543 214.18750762939453 L 1039.209342956543 214.18750762939453 L 1047.209342956543 239.18750762939453 L 1039.209342956543 264.18750762939453 L 1007.209342956543 264.18750762939453 L 1007.209342956543 214.18750762939453" stroke-miterlimit="10" stroke-width="0.5" stroke-dasharray="0"/><path fill="none" stroke="#505050" paint-order="fill stroke markers" d=" M 1015.209342956543 218.18750762939453 L 1039.209342956543 218.18750762939453 L 1039.209342956543 260.18750762939453 L 1015.209342956543 260.18750762939453 L 1015.209342956543 218.18750762939453 Z" stroke-miterlimit="10" stroke-width="0.5" stroke-dasharray="0"/><text fill="#505050" stroke="none" font-family="monospace" font-size="14px" font-style="normal" font-weight="normal" text-decoration="normal" x="1027.209342956543" y="236.18750762939453" text-anchor="middle" dominant-baseline="text-after-edge">*</text><path fill="none" stroke="#505050" paint-order="fill stroke markers" d=" M 1015.209342956543 236.18750762939453 L 1023.209342956543 236.18750762939453 L 1023.209342956543 244.18750762939453 L 1015.209342956543 244.18750762939453 L 1015.209342956543 236.18750762939453 Z" stroke-miterlimit="10" stroke-width="0.5" stroke-dasharray="0"/><path fill="none" stroke="#505050" paint-order="fill stroke markers" d=" M 1015.209342956543 248.18750762939453 L 1023.209342956543 248.18750762939453 L 1023.209342956543 256.18750762939453 L 1015.209342956543 256.18750762939453 L 1015.209342956543 248.18750762939453 Z" stroke-miterlimit="10" stroke-width="0.5" stroke-dasharray="0"/><path fill="none" stroke="#505050" paint-order="fill stroke markers" d=" M 1031.209342956543 236.18750762939453 L 1039.209342956543 236.18750762939453 L 1039.209342956543 244.18750762939453 L 1031.209342956543 244.18750762939453 L 1031.209342956543 236.18750762939453 Z" stroke-miterlimit="10" stroke-width="0.5" stroke-dasharray="0"/><path fill="none" stroke="#505050" paint-order="fill stroke markers" d=" M 1015.209342956543 218.18750762939453 L 1039.209342956543 218.18750762939453 L 1039.209342956543 260.18750762939453 L 1015.209342956543 260.18750762939453 L 1015.209342956543 218.18750762939453 Z" stroke-miterlimit="10" stroke-width="0.5" stroke-dasharray="0"/><path fill="#F0F0F0" stroke="none" paint-order="stroke fill markers" d=""/><text fill="#505050" stroke="none" font-family="monospace" font-size="14px" font-style="normal" font-weight="normal" text-decoration="normal" x="1027.209342956543" y="236.18750762939453" text-anchor="middle" dominant-baseline="text-after-edge">*</text><path fill="none" stroke="#505050" paint-order="fill stroke markers" d=" M 1015.209342956543 236.18750762939453 L 1023.209342956543 236.18750762939453 L 1023.209342956543 244.18750762939453 L 1015.209342956543 244.18750762939453 L 1015.209342956543 236.18750762939453 Z" stroke-miterlimit="10" stroke-width="0.5" stroke-dasharray="0"/><path fill="none" stroke="#505050" paint-order="fill stroke markers" d=" M 1015.209342956543 248.18750762939453 L 1023.209342956543 248.18750762939453 L 1023.209342956543 256.18750762939453 L 1015.209342956543 256.18750762939453 L 1015.209342956543 248.18750762939453 Z" stroke-miterlimit="10" stroke-width="0.5" stroke-dasharray="0"/><path fill="none" stroke="#505050" paint-order="fill stroke markers" d=" M 1031.209342956543 236.18750762939453 L 1039.209342956543 236.18750762939453 L 1039.209342956543 244.18750762939453 L 1031.209342956543 244.18750762939453 L 1031.209342956543 236.18750762939453 Z" stroke-miterlimit="10" stroke-width="0.5" stroke-dasharray="0"/><path fill="white" stroke="#505050" paint-order="fill stroke markers" d=" M 1006.3187003135681 183.42179489135742 L 1038.3187003135681 183.42179489135742 L 1038.3187003135681 201.42179489135742 L 1006.3187003135681 201.42179489135742 L 1006.3187003135681 183.42179489135742 Z" stroke-miterlimit="10" stroke-width="0.5" stroke-dasharray="0"/><path fill="#F0F0F0" stroke="none" paint-order="stroke fill markers" d=""/><path fill="none" stroke="#505050" paint-order="fill stroke markers" d=" M 1030.3187003135681 187.42179489135742 L 1038.3187003135681 187.42179489135742 L 1038.3187003135681 195.42179489135742 L 1030.3187003135681 195.42179489135742 L 1030.3187003135681 187.42179489135742 Z" stroke-miterlimit="10" stroke-width="0.5" stroke-dasharray="0"/><text fill="#505050" stroke="none" font-family="monospace" font-size="14px" font-style="normal" font-weight="normal" text-decoration="normal" x="1022.3187003135681" y="201.42179489135742" text-anchor="end" dominant-baseline="text-after-edge">1</text><path fill="white" stroke="#505050" paint-order="fill stroke markers" d=" M 1005.396728515625 162.3968505859375 L 1037.396728515625 162.3968505859375 L 1037.396728515625 180.3968505859375 L 1005.396728515625 180.3968505859375 L 1013.396728515625 171.3968505859375 L 1005.396728515625 162.3968505859375" stroke-miterlimit="10" stroke-width="0.5" stroke-dasharray="0"/><path fill="none" stroke="#505050" paint-order="fill stroke markers" d=" M 1029.396728515625 166.3968505859375 L 1037.396728515625 166.3968505859375 L 1037.396728515625 174.3968505859375 L 1029.396728515625 174.3968505859375 L 1029.396728515625 166.3968505859375 Z" stroke-miterlimit="10" stroke-width="0.5" stroke-dasharray="0"/><text fill="#505050" stroke="none" font-family="monospace" font-size="14px" font-style="normal" font-weight="normal" text-decoration="normal" x="1021.396728515625" y="180.3968505859375" text-anchor="end" dominant-baseline="text-after-edge">x</text><path fill="none" stroke="#505050" paint-order="fill stroke markers" d=" M 438.8968183994293 268.76879262924194 C 442.43133714231345 268.76879262924194 447.1435496565452 268.6625380516052 450.6780683994293 268.6625380516052" stroke-miterlimit="10" stroke-dasharray="0"/><path fill="none" stroke="#505050" paint-order="fill stroke markers" d=" M 397.8968183994293 280.76879262924194 C 402.69681839942933 280.76879262924194 409.0968183994293 280.76879262924194 413.8968183994293 280.76879262924194" stroke-miterlimit="10" stroke-dasharray="0"/><path fill="none" stroke="#505050" paint-order="fill stroke markers" d=" M 391.2311842441559 253.51879262924194 C 399.42669597006187 253.51879262924194 405.70130667352333 268.76879262924194 413.8968183994293 268.76879262924194" stroke-miterlimit="10" stroke-dasharray="0"/><path fill="none" stroke="#505050" paint-order="fill stroke markers" d=" M 439.156277179718 48.95936965942383 C 443.95627717971803 48.95936965942383 450.356277179718 48.95936965942383 455.156277179718 48.95936965942383" stroke-miterlimit="10" stroke-dasharray="0"/><path fill="none" stroke="#505050" paint-order="fill stroke markers" d=" M 398.79377031326294 60.10938262939453 C 403.70914108275133 60.10938262939453 410.2409064102296 60.95936965942383 415.156277179718 60.95936965942383" stroke-miterlimit="10" stroke-dasharray="0"/><path fill="none" stroke="#505050" paint-order="fill stroke markers" d=" M 399.156277179718 48.95936965942383 C 403.95627717971803 48.95936965942383 410.356277179718 48.95936965942383 415.156277179718 48.95936965942383" stroke-miterlimit="10" stroke-dasharray="0"/><path fill="none" stroke="#505050" paint-order="fill stroke markers" d=" M 476.4250273704529 125.13751220703125 C 479.47149741706676 125.13751220703125 483.5285512203234 124.82188415527344 486.57502126693726 124.82188415527344" stroke-miterlimit="10" stroke-dasharray="0"/><path fill="none" stroke="#505050" paint-order="fill stroke markers" d=" M 443.9812788963318 125.12187957763672 C 446.51440777986676 125.12187957763672 449.8918984869179 125.13751220703125 452.4250273704529 125.13751220703125" stroke-miterlimit="10" stroke-dasharray="0"/><path fill="none" stroke="#505050" paint-order="fill stroke markers" d=" M 394.9812788963318 125.12187957763672 C 399.7812788963318 125.12187957763672 406.1812788963318 125.12187957763672 410.9812788963318 125.12187957763672" stroke-miterlimit="10" stroke-dasharray="0"/><path fill="none" stroke="#505050" paint-order="fill stroke markers" d=" M 435.212525844574 188.97814559936523 C 440.012525844574 188.97814559936523 446.41252584457396 188.97814559936523 451.212525844574 188.97814559936523" stroke-miterlimit="10" stroke-dasharray="0"/><path fill="none" stroke="#505050" paint-order="fill stroke markers" d=" M 397.04065465927124 201 C 401.2922210701 201 406.9609594337452 200.97814559936523 411.212525844574 200.97814559936523" stroke-miterlimit="10" stroke-dasharray="0"/><path fill="none" stroke="#505050" paint-order="fill stroke markers" d=" M 392.728150844574 177.33752059936523 C 399.28146025721526 177.33752059936523 404.6592164319327 188.97814559936523 411.212525844574 188.97814559936523" stroke-miterlimit="10" stroke-dasharray="0"/><path fill="none" stroke="#505050" paint-order="fill stroke markers" d=" M 640.6595397889614 137.7062644958496 C 687.4447139797917 137.7062644958496 727.466235578228 57.24636220932007 774.2514097690582 57.24636220932007" stroke-miterlimit="10" stroke-dasharray="0"/><path fill="none" stroke="#505050" paint-order="fill stroke markers" d=" M 798.2514097690582 45.24636220932007 C 808.4157847549999 45.24636220932007 821.9660631034291 44.85836935043335 832.1304380893707 44.85836935043335" stroke-miterlimit="10" stroke-dasharray="0"/><path fill="none" stroke="#505050" paint-order="fill stroke markers" d=" M 642.4501338899136 46.837562561035156 C 647.7974362181996 46.837562561035156 654.9246991766121 46.54062795639038 660.2720015048981 46.54062795639038" stroke-miterlimit="10" stroke-dasharray="0"/><path fill="none" stroke="#505050" paint-order="fill stroke markers" d=" M 702.2720015048981 46.54062795639038 C 723.869314541696 46.54062795639038 752.6540967322603 45.24636220932007 774.2514097690582 45.24636220932007" stroke-miterlimit="10" stroke-dasharray="0"/><path fill="none" stroke="#505050" paint-order="fill stroke markers" d=" M 642.4501338899136 46.837562561035156 C 671.2314299271779 46.837562561035156 644.1344387306494 137.80942916870117 672.9157347679138 137.80942916870117" stroke-miterlimit="10" stroke-dasharray="0"/><path fill="none" stroke="#505050" paint-order="fill stroke markers" d=" M 641.1188903748989 102.64379501342773 C 658.6843935152004 102.64379501342773 655.3502316276123 151.80942916870117 672.9157347679138 151.80942916870117" stroke-miterlimit="10" stroke-dasharray="0"/><path fill="none" stroke="#505050" paint-order="fill stroke markers" d=" M 640.6595397889614 137.7062644958496 C 653.4939660762352 137.7062644958496 660.08130848064 165.80942916870117 672.9157347679138 165.80942916870117" stroke-miterlimit="10" stroke-dasharray="0"/><path fill="none" stroke="#505050" paint-order="fill stroke markers" d=" M 642.4501338899136 46.837562561035156 C 684.8753932621476 46.837562561035156 720.9592253956798 120.1437759399414 763.3844847679138 120.1437759399414" stroke-miterlimit="10" stroke-dasharray="0"/><path fill="none" stroke="#505050" paint-order="fill stroke markers" d=" M 788.3844847679138 120.1437759399414 C 799.8463040679857 120.1437759399414 792.2570160537795 155.13750457763672 803.7188353538513 155.13750457763672" stroke-miterlimit="10" stroke-dasharray="0"/><path fill="none" stroke="#505050" paint-order="fill stroke markers" d=" M 737.9157347679138 137.80942916870117 C 759.7797387927851 137.80942916870117 781.85483132898 169.13750457763672 803.7188353538513 169.13750457763672" stroke-miterlimit="10" stroke-dasharray="0"/><path fill="none" stroke="#505050" paint-order="fill stroke markers" d=" M 737.9157347679138 151.80942916870117 C 759.7797387927851 151.80942916870117 781.85483132898 183.13750457763672 803.7188353538513 183.13750457763672" stroke-miterlimit="10" stroke-dasharray="0"/><path fill="none" stroke="#505050" paint-order="fill stroke markers" d=" M 876.7188353538513 155.13750457763672 C 916.8301498162054 155.13750457763672 734.1400953067041 69.24636220932007 774.2514097690582 69.24636220932007" stroke-miterlimit="10" stroke-dasharray="0"/><path fill="none" stroke="#505050" paint-order="fill stroke markers" d=" M 650.9154586791992 241.4281234741211 C 697.8965683092746 241.4281234741211 756.737725723776 207.13750457763672 803.7188353538513 207.13750457763672" stroke-miterlimit="10" stroke-dasharray="0"/><path fill="none" stroke="#505050" paint-order="fill stroke markers" d=" M 708.9844604432583 299.3874816894531 C 738.9396724617646 299.3874816894531 731.3322025322749 384.4437255859375 761.2874145507812 384.4437255859375" stroke-miterlimit="10" stroke-dasharray="0"/><path fill="none" stroke="#505050" paint-order="fill stroke markers" d=" M 708.9844604432583 299.3874816894531 C 727.3429883361467 299.3874816894531 743.0101487695566 331.0218505859375 761.3686766624451 331.0218505859375" stroke-miterlimit="10" stroke-dasharray="0"/><path fill="none" stroke="#505050" paint-order="fill stroke markers" d=" M 708.2813964784145 327.0812301635742 C 734.4705437550917 327.0812301635742 735.098267274104 396.4437255859375 761.2874145507812 396.4437255859375" stroke-miterlimit="10" stroke-dasharray="0"/><path fill="none" stroke="#505050" paint-order="fill stroke markers" d=" M 794.3686766624451 331.0218505859375 C 813.0032941700454 331.0218505859375 837.8465226291185 331.6249809265137 856.4811401367188 331.6249809265137" stroke-miterlimit="10" stroke-dasharray="0"/><path fill="none" stroke="#505050" paint-order="fill stroke markers" d=" M 713.4125667512417 260.55313873291016 C 716.5839258138735 260.55313873291016 720.809805392782 260.31873321533203 723.9811644554138 260.31873321533203" stroke-miterlimit="10" stroke-dasharray="0"/><path fill="none" stroke="#505050" paint-order="fill stroke markers" d=" M 765.9811644554138 260.31873321533203 C 779.2504504512261 260.31873321533203 796.9150034596015 261.8874816894531 810.1842894554138 261.8874816894531" stroke-miterlimit="10" stroke-dasharray="0"/><path fill="none" stroke="#505050" paint-order="fill stroke markers" d=" M 708.2813964784145 327.0812301635742 C 742.7667513793415 327.0812301635742 775.6989345544869 273.8874816894531 810.1842894554138 273.8874816894531" stroke-miterlimit="10" stroke-dasharray="0"/><path fill="none" stroke="#505050" paint-order="fill stroke markers" d=" M 794.2874145507812 384.4437255859375 C 824.2364370030169 384.4437255859375 780.2352670031781 285.8874816894531 810.1842894554138 285.8874816894531" stroke-miterlimit="10" stroke-dasharray="0"/><path fill="none" stroke="#505050" paint-order="fill stroke markers" d=" M 834.1842894554138 261.8874816894531 C 864.6611459624228 261.8874816894531 827.6230580437723 360.62184143066406 858.0999145507812 360.62184143066406" stroke-miterlimit="10" stroke-dasharray="0"/><path fill="none" stroke="#505050" paint-order="fill stroke markers" d=" M 708.9844604432583 299.3874816894531 C 729.4374744805675 299.3874816894531 740.9156626251358 343.0218505859375 761.3686766624451 343.0218505859375" stroke-miterlimit="10" stroke-dasharray="0"/><path fill="none" stroke="#505050" paint-order="fill stroke markers" d=" M 1128.4747924804688 161.2406005859375 C 1131.4747924804688 161.2406005859375 1135.4747924804688 161.2406005859375 1138.4747924804688 161.2406005859375" stroke-miterlimit="10" stroke-dasharray="0"/><path fill="none" stroke="#505050" paint-order="fill stroke markers" d=" M 1038.3187003135681 191.42179489135742 C 1043.506958174676 191.42179489135742 1050.286534619361 189.2406005859375 1055.4747924804688 189.2406005859375" stroke-miterlimit="10" stroke-dasharray="0"/><path fill="none" stroke="#505050" paint-order="fill stroke markers" d=" M 1037.396728515625 170.3968505859375 C 1043.0114456029014 170.3968505859375 1049.8600753931923 175.2406005859375 1055.4747924804688 175.2406005859375" stroke-miterlimit="10" stroke-dasharray="0"/><path fill="none" stroke="#505050" paint-order="fill stroke markers" d=" M 1037.1966552734375 148.20623779296875 C 1043.9315377658052 148.20623779296875 1048.739909988101 161.2406005859375 1055.4747924804688 161.2406005859375" stroke-miterlimit="10" stroke-dasharray="0"/><path fill="none" stroke="#505050" paint-order="fill stroke markers" d=" M 1039.209342956543 239.18750762939453 C 1048.3964325392317 239.18750762939453 1046.28770289778 213.2406005859375 1055.4747924804688 213.2406005859375" stroke-miterlimit="10" stroke-dasharray="0"/></g></g></svg>