<svg version="1.1" xmlns="http://www.w3.org/2000/svg" xmlns:xlink="http://www.w3.org/1999/xlink" width="862.8840889930725" height="441.8343162536621"><defs/><g transform="translate(-356.04065465927124,-16.187541961669922)"><g><path fill="white" stroke="#505050" paint-order="fill stroke markers" d=" M 357.8968183994293 245.51879262924194 L 357.8968183994293 298.76879262924194 Q 357.8968183994293 306.76879262924194 365.8968183994293 306.76879262924194 L 508.6936933994293 306.76879262924194 Q 516.6936933994293 306.76879262924194 516.6936933994293 298.76879262924194 L 516.6936933994293 245.51879262924194 Q 516.6936933994293 237.51879262924194 508.6936933994293 237.51879262924194 L 365.8968183994293 237.51879262924194 Q 357.8968183994293 237.51879262924194 357.8968183994293 245.51879262924194" stroke-miterlimit="10" stroke-width="0.5" stroke-dasharray=""/><path fill="#F0F0F0" stroke="#505050" paint-order="fill stroke markers" d=" M 474.6936933994293 245.51879262924194 L 516.6936933994293 245.51879262924194 L 516.6936933994293 275.51879262924194 L 474.6936933994293 275.51879262924194 L 474.6936933994293 245.51879262924194 Z" stroke-miterlimit="10" stroke-width="0.5" stroke-dasharray=""/><text fill="#505050" stroke="none" font-family="monospace" font-size="14px" font-style="normal" font-weight="normal" text-decoration="normal" x="495.6936933994293" y="263.51879262924194" text-anchor="middle" dominant-baseline="text-after-edge">== 0</text><path fill="none" stroke="#505050" paint-order="fill stroke markers" d=" M 474.6936933994293 263.51879262924194 L 482.6936933994293 263.51879262924194 L 482.6936933994293 271.51879262924194 L 474.6936933994293 271.51879262924194 L 474.6936933994293 263.51879262924194 Z" stroke-miterlimit="10" stroke-width="0.5" stroke-dasharray=""/><path fill="none" stroke="#505050" paint-order="fill stroke markers" d=" M 508.6936933994293 263.51879262924194 L 516.6936933994293 263.51879262924194 L 516.6936933994293 271.51879262924194 L 508.6936933994293 271.51879262924194 L 508.6936933994293 263.51879262924194 Z" stroke-miterlimit="10" stroke-width="0.5" stroke-dasharray=""/><path fill="white" stroke="#505050" paint-order="fill stroke markers" d=" M 413.8968183994293 246.76879262924194 L 438.8968183994293 246.76879262924194 L 438.8968183994293 288.76879262924194 L 413.8968183994293 288.76879262924194 L 413.8968183994293 246.76879262924194 Z" stroke-miterlimit="10" stroke-width="0.5" stroke-dasharray=""/><path fill="#F0F0F0" stroke="none" paint-order="stroke fill markers" d=""/><text fill="#505050" stroke="none" font-family="monospace" font-size="14px" font-style="normal" font-weight="normal" text-decoration="normal" x="426.3968183994293" y="264.76879262924194" text-anchor="middle" dominant-baseline="text-after-edge">==</text><path fill="none" stroke="#505050" paint-order="fill stroke markers" d=" M 413.8968183994293 264.76879262924194 L 421.8968183994293 264.76879262924194 L 421.8968183994293 272.76879262924194 L 413.8968183994293 272.76879262924194 L 413.8968183994293 264.76879262924194 Z" stroke-miterlimit="10" stroke-width="0.5" stroke-dasharray=""/><path fill="none" stroke="#505050" paint-order="fill stroke markers" d=" M 413.8968183994293 276.76879262924194 L 421.8968183994293 276.76879262924194 L 421.8968183994293 284.76879262924194 L 413.8968183994293 284.76879262924194 L 413.8968183994293 276.76879262924194 Z" stroke-miterlimit="10" stroke-width="0.5" stroke-dasharray=""/><path fill="none" stroke="#505050" paint-order="fill stroke markers" d=" M 430.8968183994293 264.76879262924194 L 438.8968183994293 264.76879262924194 L 438.8968183994293 272.76879262924194 L 430.8968183994293 272.76879262924194 L 430.8968183994293 264.76879262924194 Z" stroke-miterlimit="10" stroke-width="0.5" stroke-dasharray=""/><path fill="white" stroke="#505050" paint-order="fill stroke markers" d=" M 450.6780683994293 260.6625380516052 L 458.6780683994293 260.6625380516052 L 466.6780683994293 268.6625380516052 L 458.6780683994293 276.6625380516052 L 450.6780683994293 276.6625380516052 L 450.6780683994293 260.6625380516052" stroke-miterlimit="10" stroke-width="0.5" stroke-dasharray=""/><path fill="none" stroke="#505050" paint-order="fill stroke markers" d=" M 450.6780683994293 264.6625380516052 L 458.6780683994293 264.6625380516052 L 458.6780683994293 272.6625380516052 L 450.6780683994293 272.6625380516052 L 450.6780683994293 264.6625380516052 Z" stroke-miterlimit="10" stroke-width="0.5" stroke-dasharray=""/><path fill="white" stroke="#505050" paint-order="fill stroke markers" d=" M 365.8968183994293 272.76879262924194 L 397.8968183994293 272.76879262924194 L 397.8968183994293 290.76879262924194 L 365.8968183994293 290.76879262924194 L 365.8968183994293 272.76879262924194 Z" stroke-miterlimit="10" stroke-width="0.5" stroke-dasharray=""/><path fill="#F0F0F0" stroke="none" paint-order="stroke fill markers" d=""/><path fill="none" stroke="#505050" paint-order="fill stroke markers" d=" M 389.8968183994293 276.76879262924194 L 397.8968183994293 276.76879262924194 L 397.8968183994293 284.76879262924194 L 389.8968183994293 284.76879262924194 L 389.8968183994293 276.76879262924194 Z" stroke-miterlimit="10" stroke-width="0.5" stroke-dasharray=""/><text fill="#505050" stroke="none" font-family="monospace" font-size="14px" font-style="normal" font-weight="normal" text-decoration="normal" x="381.8968183994293" y="290.76879262924194" text-anchor="end" dominant-baseline="text-after-edge">0</text><path fill="white" stroke="#505050" paint-order="fill stroke markers" d=" M 375.2311842441559 245.51879262924194 L 391.2311842441559 245.51879262924194 L 391.2311842441559 261.51879262924194 L 375.2311842441559 261.51879262924194 L 383.2311842441559 253.51879262924194 L 375.2311842441559 245.51879262924194" stroke-miterlimit="10" stroke-width="0.5" stroke-dasharray=""/><path fill="none" stroke="#505050" paint-order="fill stroke markers" d=" M 383.2311842441559 249.51879262924194 L 391.2311842441559 249.51879262924194 L 391.2311842441559 257.51879262924194 L 383.2311842441559 257.51879262924194 L 383.2311842441559 249.51879262924194 Z" stroke-miterlimit="10" stroke-width="0.5" stroke-dasharray=""/><path fill="white" stroke="#505050" paint-order="fill stroke markers" d=" M 358.79377031326294 26.959369659423828 L 358.79377031326294 78.10938262939453 Q 358.79377031326294 86.10938262939453 366.79377031326294 86.10938262939453 L 505.3937954902649 86.10938262939453 Q 513.3937954902649 86.10938262939453 513.3937954902649 78.10938262939453 L 513.3937954902649 26.959369659423828 Q 513.3937954902649 18.959369659423828 505.3937954902649 18.959369659423828 L 366.79377031326294 18.959369659423828 Q 358.79377031326294 18.959369659423828 358.79377031326294 26.959369659423828" stroke-miterlimit="10" stroke-width="0.5" stroke-dasharray=""/><path fill="#F0F0F0" stroke="#505050" paint-order="fill stroke markers" d=" M 480.3937954902649 26.959369659423828 L 513.3937954902649 26.959369659423828 L 513.3937954902649 56.95936965942383 L 480.3937954902649 56.95936965942383 L 480.3937954902649 26.959369659423828 Z" stroke-miterlimit="10" stroke-width="0.5" stroke-dasharray=""/><text fill="#505050" stroke="none" font-family="monospace" font-size="14px" font-style="normal" font-weight="normal" text-decoration="normal" x="496.8937954902649" y="44.95936965942383" text-anchor="middle" dominant-baseline="text-after-edge">odd</text><path fill="none" stroke="#505050" paint-order="fill stroke markers" d=" M 480.3937954902649 44.95936965942383 L 488.3937954902649 44.95936965942383 L 488.3937954902649 52.95936965942383 L 480.3937954902649 52.95936965942383 L 480.3937954902649 44.95936965942383 Z" stroke-miterlimit="10" stroke-width="0.5" stroke-dasharray=""/><path fill="none" stroke="#505050" paint-order="fill stroke markers" d=" M 505.3937954902649 44.95936965942383 L 513.3937954902649 44.95936965942383 L 513.3937954902649 52.95936965942383 L 505.3937954902649 52.95936965942383 L 505.3937954902649 44.95936965942383 Z" stroke-miterlimit="10" stroke-width="0.5" stroke-dasharray=""/><path fill="white" stroke="#505050" paint-order="fill stroke markers" d=" M 383.156277179718 40.95936965942383 L 399.156277179718 40.95936965942383 L 399.156277179718 56.95936965942383 L 383.156277179718 56.95936965942383 L 391.156277179718 48.95936965942383 L 383.156277179718 40.95936965942383" stroke-miterlimit="10" stroke-width="0.5" stroke-dasharray=""/><path fill="none" stroke="#505050" paint-order="fill stroke markers" d=" M 391.156277179718 44.95936965942383 L 399.156277179718 44.95936965942383 L 399.156277179718 52.95936965942383 L 391.156277179718 52.95936965942383 L 391.156277179718 44.95936965942383 Z" stroke-miterlimit="10" stroke-width="0.5" stroke-dasharray=""/><path fill="white" stroke="#505050" paint-order="fill stroke markers" d=" M 415.156277179718 26.959369659423828 L 439.156277179718 26.959369659423828 L 439.156277179718 68.95936965942383 L 415.156277179718 68.95936965942383 L 415.156277179718 26.959369659423828 Z" stroke-miterlimit="10" stroke-width="0.5" stroke-dasharray=""/><path fill="#F0F0F0" stroke="none" paint-order="stroke fill markers" d=""/><text fill="#505050" stroke="none" font-family="monospace" font-size="14px" font-style="normal" font-weight="normal" text-decoration="normal" x="427.156277179718" y="44.95936965942383" text-anchor="middle" dominant-baseline="text-after-edge">&amp;</text><path fill="none" stroke="#505050" paint-order="fill stroke markers" d=" M 415.156277179718 44.95936965942383 L 423.156277179718 44.95936965942383 L 423.156277179718 52.95936965942383 L 415.156277179718 52.95936965942383 L 415.156277179718 44.95936965942383 Z" stroke-miterlimit="10" stroke-width="0.5" stroke-dasharray=""/><path fill="none" stroke="#505050" paint-order="fill stroke markers" d=" M 415.156277179718 56.95936965942383 L 423.156277179718 56.95936965942383 L 423.156277179718 64.95936965942383 L 415.156277179718 64.95936965942383 L 415.156277179718 56.95936965942383 Z" stroke-miterlimit="10" stroke-width="0.5" stroke-dasharray=""/><path fill="none" stroke="#505050" paint-order="fill stroke markers" d=" M 431.156277179718 44.95936965942383 L 439.156277179718 44.95936965942383 L 439.156277179718 52.95936965942383 L 431.156277179718 52.95936965942383 L 431.156277179718 44.95936965942383 Z" stroke-miterlimit="10" stroke-width="0.5" stroke-dasharray=""/><path fill="white" stroke="#505050" paint-order="fill stroke markers" d=" M 455.156277179718 40.95936965942383 L 463.156277179718 40.95936965942383 L 471.156277179718 48.95936965942383 L 463.156277179718 56.95936965942383 L 455.156277179718 56.95936965942383 L 455.156277179718 40.95936965942383" stroke-miterlimit="10" stroke-width="0.5" stroke-dasharray=""/><path fill="none" stroke="#505050" paint-order="fill stroke markers" d=" M 455.156277179718 44.95936965942383 L 463.156277179718 44.95936965942383 L 463.156277179718 52.95936965942383 L 455.156277179718 52.95936965942383 L 455.156277179718 44.95936965942383 Z" stroke-miterlimit="10" stroke-width="0.5" stroke-dasharray=""/><path fill="white" stroke="#505050" paint-order="fill stroke markers" d=" M 366.79377031326294 52.10938262939453 L 398.79377031326294 52.10938262939453 L 398.79377031326294 70.10938262939453 L 366.79377031326294 70.10938262939453 L 366.79377031326294 52.10938262939453 Z" stroke-miterlimit="10" stroke-width="0.5" stroke-dasharray=""/><path fill="#F0F0F0" stroke="none" paint-order="stroke fill markers" d=""/><path fill="none" stroke="#505050" paint-order="fill stroke markers" d=" M 390.79377031326294 56.10938262939453 L 398.79377031326294 56.10938262939453 L 398.79377031326294 64.10938262939453 L 390.79377031326294 64.10938262939453 L 390.79377031326294 56.10938262939453 Z" stroke-miterlimit="10" stroke-width="0.5" stroke-dasharray=""/><text fill="#505050" stroke="none" font-family="monospace" font-size="14px" font-style="normal" font-weight="normal" text-decoration="normal" x="382.79377031326294" y="70.10938262939453" text-anchor="end" dominant-baseline="text-after-edge">1</text><path fill="white" stroke="#505050" paint-order="fill stroke markers" d=" M 357.1750235557556 102.04376220703125 L 357.1750235557556 141.13751220703125 Q 357.1750235557556 149.13751220703125 365.1750235557556 149.13751220703125 L 543.6187682151794 149.13751220703125 Q 551.6187682151794 149.13751220703125 551.6187682151794 141.13751220703125 L 551.6187682151794 102.04376220703125 Q 551.6187682151794 94.04376220703125 543.6187682151794 94.04376220703125 L 365.1750235557556 94.04376220703125 Q 357.1750235557556 94.04376220703125 357.1750235557556 102.04376220703125" stroke-miterlimit="10" stroke-width="0.5" stroke-dasharray=""/><path fill="#F0F0F0" stroke="#505050" paint-order="fill stroke markers" d=" M 509.61876821517944 102.04376220703125 L 551.6187682151794 102.04376220703125 L 551.6187682151794 132.04376220703125 L 509.61876821517944 132.04376220703125 L 509.61876821517944 102.04376220703125 Z" stroke-miterlimit="10" stroke-width="0.5" stroke-dasharray=""/><text fill="#505050" stroke="none" font-family="monospace" font-size="14px" font-style="normal" font-weight="normal" text-decoration="normal" x="530.6187682151794" y="120.04376220703125" text-anchor="middle" dominant-baseline="text-after-edge">even</text><path fill="none" stroke="#505050" paint-order="fill stroke markers" d=" M 509.61876821517944 120.04376220703125 L 517.6187682151794 120.04376220703125 L 517.6187682151794 128.04376220703125 L 509.61876821517944 128.04376220703125 L 509.61876821517944 120.04376220703125 Z" stroke-miterlimit="10" stroke-width="0.5" stroke-dasharray=""/><path fill="none" stroke="#505050" paint-order="fill stroke markers" d=" M 543.6187682151794 120.04376220703125 L 551.6187682151794 120.04376220703125 L 551.6187682151794 128.04376220703125 L 543.6187682151794 128.04376220703125 L 543.6187682151794 120.04376220703125 Z" stroke-miterlimit="10" stroke-width="0.5" stroke-dasharray=""/><path fill="white" stroke="#505050" paint-order="fill stroke markers" d=" M 452.4250273704529 103.13751220703125 L 476.4250273704529 103.13751220703125 L 476.4250273704529 133.13751220703125 L 452.4250273704529 133.13751220703125 L 452.4250273704529 103.13751220703125 Z" stroke-miterlimit="10" stroke-width="0.5" stroke-dasharray=""/><path fill="#F0F0F0" stroke="none" paint-order="stroke fill markers" d=""/><text fill="#505050" stroke="none" font-family="monospace" font-size="14px" font-style="normal" font-weight="normal" text-decoration="normal" x="464.4250273704529" y="121.13751220703125" text-anchor="middle" dominant-baseline="text-after-edge">!</text><path fill="none" stroke="#505050" paint-order="fill stroke markers" d=" M 452.4250273704529 121.13751220703125 L 460.4250273704529 121.13751220703125 L 460.4250273704529 129.13751220703125 L 452.4250273704529 129.13751220703125 L 452.4250273704529 121.13751220703125 Z" stroke-miterlimit="10" stroke-width="0.5" stroke-dasharray=""/><path fill="none" stroke="#505050" paint-order="fill stroke markers" d=" M 468.4250273704529 121.13751220703125 L 476.4250273704529 121.13751220703125 L 476.4250273704529 129.13751220703125 L 468.4250273704529 129.13751220703125 L 468.4250273704529 121.13751220703125 Z" stroke-miterlimit="10" stroke-width="0.5" stroke-dasharray=""/><path fill="white" stroke="#505050" paint-order="fill stroke markers" d=" M 486.57502126693726 116.82188415527344 L 494.57502126693726 116.82188415527344 L 502.57502126693726 124.82188415527344 L 494.57502126693726 132.82188415527344 L 486.57502126693726 132.82188415527344 L 486.57502126693726 116.82188415527344" stroke-miterlimit="10" stroke-width="0.5" stroke-dasharray=""/><path fill="none" stroke="#505050" paint-order="fill stroke markers" d=" M 486.57502126693726 120.82188415527344 L 494.57502126693726 120.82188415527344 L 494.57502126693726 128.82188415527344 L 486.57502126693726 128.82188415527344 L 486.57502126693726 120.82188415527344 Z" stroke-miterlimit="10" stroke-width="0.5" stroke-dasharray=""/><path fill="white" stroke="#505050" paint-order="fill stroke markers" d=" M 378.9812788963318 117.12187957763672 L 394.9812788963318 117.12187957763672 L 394.9812788963318 133.12187957763672 L 378.9812788963318 133.12187957763672 L 386.9812788963318 125.12187957763672 L 378.9812788963318 117.12187957763672" stroke-miterlimit="10" stroke-width="0.5" stroke-dasharray=""/><path fill="none" stroke="#505050" paint-order="fill stroke markers" d=" M 386.9812788963318 121.12187957763672 L 394.9812788963318 121.12187957763672 L 394.9812788963318 129.12187957763672 L 386.9812788963318 129.12187957763672 L 386.9812788963318 121.12187957763672 Z" stroke-miterlimit="10" stroke-width="0.5" stroke-dasharray=""/><path fill="white" stroke="#505050" paint-order="fill stroke markers" d=" M 410.9812788963318 103.12187957763672 L 443.9812788963318 103.12187957763672 L 443.9812788963318 133.12187957763672 L 410.9812788963318 133.12187957763672 L 410.9812788963318 103.12187957763672 Z" stroke-miterlimit="10" stroke-width="0.5" stroke-dasharray=""/><path fill="#F0F0F0" stroke="none" paint-order="stroke fill markers" d=""/><text fill="#505050" stroke="none" font-family="monospace" font-size="14px" font-style="normal" font-weight="normal" text-decoration="normal" x="427.4812788963318" y="121.12187957763672" text-anchor="middle" dominant-baseline="text-after-edge">odd</text><path fill="none" stroke="#505050" paint-order="fill stroke markers" d=" M 410.9812788963318 121.12187957763672 L 418.9812788963318 121.12187957763672 L 418.9812788963318 129.12187957763672 L 410.9812788963318 129.12187957763672 L 410.9812788963318 121.12187957763672 Z" stroke-miterlimit="10" stroke-width="0.5" stroke-dasharray=""/><path fill="none" stroke="#505050" paint-order="fill stroke markers" d=" M 435.9812788963318 121.12187957763672 L 443.9812788963318 121.12187957763672 L 443.9812788963318 129.12187957763672 L 435.9812788963318 129.12187957763672 L 435.9812788963318 121.12187957763672 Z" stroke-miterlimit="10" stroke-width="0.5" stroke-dasharray=""/><path fill="white" stroke="#505050" paint-order="fill stroke markers" d=" M 357.04065465927124 166.97814559936523 L 357.04065465927124 219 Q 357.04065465927124 227 365.04065465927124 227 L 487.92814779281616 227 Q 495.92814779281616 227 495.92814779281616 219 L 495.92814779281616 166.97814559936523 Q 495.92814779281616 158.97814559936523 487.92814779281616 158.97814559936523 L 365.04065465927124 158.97814559936523 Q 357.04065465927124 158.97814559936523 357.04065465927124 166.97814559936523" stroke-miterlimit="10" stroke-width="0.5" stroke-dasharray=""/><path fill="#F0F0F0" stroke="#505050" paint-order="fill stroke markers" d=" M 470.92814779281616 166.97814559936523 L 495.92814779281616 166.97814559936523 L 495.92814779281616 196.97814559936523 L 470.92814779281616 196.97814559936523 L 470.92814779281616 166.97814559936523 Z" stroke-miterlimit="10" stroke-width="0.5" stroke-dasharray=""/><text fill="#505050" stroke="none" font-family="monospace" font-size="14px" font-style="normal" font-weight="normal" text-decoration="normal" x="483.42814779281616" y="184.97814559936523" text-anchor="middle" dominant-baseline="text-after-edge">/2</text><path fill="none" stroke="#505050" paint-order="fill stroke markers" d=" M 470.92814779281616 184.97814559936523 L 478.92814779281616 184.97814559936523 L 478.92814779281616 192.97814559936523 L 470.92814779281616 192.97814559936523 L 470.92814779281616 184.97814559936523 Z" stroke-miterlimit="10" stroke-width="0.5" stroke-dasharray=""/><path fill="none" stroke="#505050" paint-order="fill stroke markers" d=" M 487.92814779281616 184.97814559936523 L 495.92814779281616 184.97814559936523 L 495.92814779281616 192.97814559936523 L 487.92814779281616 192.97814559936523 L 487.92814779281616 184.97814559936523 Z" stroke-miterlimit="10" stroke-width="0.5" stroke-dasharray=""/><path fill="white" stroke="#505050" paint-order="fill stroke markers" d=" M 376.728150844574 169.33752059936523 L 392.728150844574 169.33752059936523 L 392.728150844574 185.33752059936523 L 376.728150844574 185.33752059936523 L 384.728150844574 177.33752059936523 L 376.728150844574 169.33752059936523" stroke-miterlimit="10" stroke-width="0.5" stroke-dasharray=""/><path fill="none" stroke="#505050" paint-order="fill stroke markers" d=" M 384.728150844574 173.33752059936523 L 392.728150844574 173.33752059936523 L 392.728150844574 181.33752059936523 L 384.728150844574 181.33752059936523 L 384.728150844574 173.33752059936523 Z" stroke-miterlimit="10" stroke-width="0.5" stroke-dasharray=""/><path fill="white" stroke="#505050" paint-order="fill stroke markers" d=" M 411.212525844574 166.97814559936523 L 435.212525844574 166.97814559936523 L 435.212525844574 208.97814559936523 L 411.212525844574 208.97814559936523 L 411.212525844574 166.97814559936523 Z" stroke-miterlimit="10" stroke-width="0.5" stroke-dasharray=""/><path fill="#F0F0F0" stroke="none" paint-order="stroke fill markers" d=""/><text fill="#505050" stroke="none" font-family="monospace" font-size="14px" font-style="normal" font-weight="normal" text-decoration="normal" x="423.212525844574" y="184.97814559936523" text-anchor="middle" dominant-baseline="text-after-edge">/</text><path fill="none" stroke="#505050" paint-order="fill stroke markers" d=" M 411.212525844574 184.97814559936523 L 419.212525844574 184.97814559936523 L 419.212525844574 192.97814559936523 L 411.212525844574 192.97814559936523 L 411.212525844574 184.97814559936523 Z" stroke-miterlimit="10" stroke-width="0.5" stroke-dasharray=""/><path fill="none" stroke="#505050" paint-order="fill stroke markers" d=" M 411.212525844574 196.97814559936523 L 419.212525844574 196.97814559936523 L 419.212525844574 204.97814559936523 L 411.212525844574 204.97814559936523 L 411.212525844574 196.97814559936523 Z" stroke-miterlimit="10" stroke-width="0.5" stroke-dasharray=""/><path fill="none" stroke="#505050" paint-order="fill stroke markers" d=" M 427.212525844574 184.97814559936523 L 435.212525844574 184.97814559936523 L 435.212525844574 192.97814559936523 L 427.212525844574 192.97814559936523 L 427.212525844574 184.97814559936523 Z" stroke-miterlimit="10" stroke-width="0.5" stroke-dasharray=""/><path fill="white" stroke="#505050" paint-order="fill stroke markers" d=" M 451.212525844574 180.97814559936523 L 459.212525844574 180.97814559936523 L 467.212525844574 188.97814559936523 L 459.212525844574 196.97814559936523 L 451.212525844574 196.97814559936523 L 451.212525844574 180.97814559936523" stroke-miterlimit="10" stroke-width="0.5" stroke-dasharray=""/><path fill="none" stroke="#505050" paint-order="fill stroke markers" d=" M 451.212525844574 184.97814559936523 L 459.212525844574 184.97814559936523 L 459.212525844574 192.97814559936523 L 451.212525844574 192.97814559936523 L 451.212525844574 184.97814559936523 Z" stroke-miterlimit="10" stroke-width="0.5" stroke-dasharray=""/><path fill="white" stroke="#505050" paint-order="fill stroke markers" d=" M 365.04065465927124 193 L 397.04065465927124 193 L 397.04065465927124 211 L 365.04065465927124 211 L 365.04065465927124 193 Z" stroke-miterlimit="10" stroke-width="0.5" stroke-dasharray=""/><path fill="#F0F0F0" stroke="none" paint-order="stroke fill markers" d=""/><path fill="none" stroke="#505050" paint-order="fill stroke markers" d=" M 389.04065465927124 197 L 397.04065465927124 197 L 397.04065465927124 205 L 389.04065465927124 205 L 389.04065465927124 197 Z" stroke-miterlimit="10" stroke-width="0.5" stroke-dasharray=""/><text fill="#505050" stroke="none" font-family="monospace" font-size="14px" font-style="normal" font-weight="normal" text-decoration="normal" x="381.04065465927124" y="211" text-anchor="end" dominant-baseline="text-after-edge">2</text><path fill="white" stroke="#505050" paint-order="fill stroke markers" d=" M 596.9532104432583 25.187541961669922 L 596.9532104432583 449.02185821533203 Q 596.9532104432583 457.02185821533203 604.9532104432583 457.02185821533203 L 966.7124519348145 457.02185821533203 Q 974.7124519348145 457.02185821533203 974.7124519348145 449.02185821533203 L 974.7124519348145 25.187541961669922 Q 974.7124519348145 17.187541961669922 966.7124519348145 17.187541961669922 L 604.9532104432583 17.187541961669922 Q 596.9532104432583 17.187541961669922 596.9532104432583 25.187541961669922" stroke-miterlimit="10" stroke-width="0.5" stroke-dasharray=""/><path fill="#F0F0F0" stroke="#505050" paint-order="fill stroke markers" d=" M 901.7124519348145 25.187541961669922 L 974.7124519348145 25.187541961669922 L 974.7124519348145 117.18754196166992 L 901.7124519348145 117.18754196166992 L 901.7124519348145 25.187541961669922 Z" stroke-miterlimit="10" stroke-width="0.5" stroke-dasharray=""/><text fill="#505050" stroke="none" font-family="monospace" font-size="14px" font-style="normal" font-weight="normal" text-decoration="normal" x="938.2124519348145" y="43.18754196166992" text-anchor="middle" dominant-baseline="text-after-edge">expStep</text><path fill="none" stroke="#505050" paint-order="fill stroke markers" d=" M 901.7124519348145 43.18754196166992 L 909.7124519348145 43.18754196166992 L 909.7124519348145 51.18754196166992 L 901.7124519348145 51.18754196166992 L 901.7124519348145 43.18754196166992 Z" stroke-miterlimit="10" stroke-width="0.5" stroke-dasharray=""/><text fill="#505050" stroke="none" font-family="monospace" font-size="14px" font-style="normal" font-weight="normal" text-decoration="normal" x="917.7124519348145" y="57.18754196166992" text-anchor="start" dominant-baseline="text-after-edge">n</text><path fill="none" stroke="#505050" paint-order="fill stroke markers" d=" M 901.7124519348145 57.18754196166992 L 909.7124519348145 57.18754196166992 L 909.7124519348145 65.18754196166992 L 901.7124519348145 65.18754196166992 L 901.7124519348145 57.18754196166992 Z" stroke-miterlimit="10" stroke-width="0.5" stroke-dasharray=""/><text fill="#505050" stroke="none" font-family="monospace" font-size="14px" font-style="normal" font-weight="normal" text-decoration="normal" x="917.7124519348145" y="71.18754196166992" text-anchor="start" dominant-baseline="text-after-edge">y</text><path fill="none" stroke="#505050" paint-order="fill stroke markers" d=" M 901.7124519348145 71.18754196166992 L 909.7124519348145 71.18754196166992 L 909.7124519348145 79.18754196166992 L 901.7124519348145 79.18754196166992 L 901.7124519348145 71.18754196166992 Z" stroke-miterlimit="10" stroke-width="0.5" stroke-dasharray=""/><text fill="#505050" stroke="none" font-family="monospace" font-size="14px" font-style="normal" font-weight="normal" text-decoration="normal" x="917.7124519348145" y="85.18754196166992" text-anchor="start" dominant-baseline="text-after-edge">x</text><path fill="none" stroke="#505050" paint-order="fill stroke markers" d=" M 901.7124519348145 85.18754196166992 L 925.7124519348145 85.18754196166992 L 925.7124519348145 113.18754196166992 L 901.7124519348145 113.18754196166992 L 901.7124519348145 85.18754196166992 Z" stroke-miterlimit="10" stroke-width="0.5" stroke-dasharray=""/><path fill="none" stroke="#505050" paint-order="fill stroke markers" d=" M 901.7124519348145 89.18754196166992 L 909.7124519348145 89.18754196166992 L 909.7124519348145 97.18754196166992 L 901.7124519348145 97.18754196166992 L 901.7124519348145 89.18754196166992 Z" stroke-miterlimit="10" stroke-width="0.5" stroke-dasharray=""/><path fill="none" stroke="#505050" paint-order="fill stroke markers" d=" M 901.7124519348145 101.18754196166992 L 909.7124519348145 101.18754196166992 L 909.7124519348145 109.18754196166992 L 901.7124519348145 109.18754196166992 L 901.7124519348145 101.18754196166992 Z" stroke-miterlimit="10" stroke-width="0.5" stroke-dasharray=""/><path fill="none" stroke="#505050" paint-order="fill stroke markers" d=" M 917.7124519348145 89.18754196166992 L 925.7124519348145 89.18754196166992 L 925.7124519348145 97.18754196166992 L 917.7124519348145 97.18754196166992 L 917.7124519348145 89.18754196166992 Z" stroke-miterlimit="10" stroke-width="0.5" stroke-dasharray=""/><text fill="#505050" stroke="none" font-family="monospace" font-size="14px" font-style="normal" font-weight="normal" text-decoration="normal" x="933.7124519348145" y="108.18754196166992" text-anchor="start" dominant-baseline="text-after-edge">mul</text><path fill="none" stroke="#505050" paint-order="fill stroke markers" d=" M 966.7124519348145 43.18754196166992 L 974.7124519348145 43.18754196166992 L 974.7124519348145 51.18754196166992 L 966.7124519348145 51.18754196166992 L 966.7124519348145 43.18754196166992 Z" stroke-miterlimit="10" stroke-width="0.5" stroke-dasharray=""/><path fill="white" stroke="#505050" paint-order="fill stroke markers" d=" M 610.4501338899136 38.837562561035156 L 642.4501338899136 38.837562561035156 L 642.4501338899136 56.837562561035156 L 610.4501338899136 56.837562561035156 L 618.4501338899136 47.837562561035156 L 610.4501338899136 38.837562561035156" stroke-miterlimit="10" stroke-width="0.5" stroke-dasharray=""/><path fill="none" stroke="#505050" paint-order="fill stroke markers" d=" M 634.4501338899136 42.837562561035156 L 642.4501338899136 42.837562561035156 L 642.4501338899136 50.837562561035156 L 634.4501338899136 50.837562561035156 L 634.4501338899136 42.837562561035156 Z" stroke-miterlimit="10" stroke-width="0.5" stroke-dasharray=""/><text fill="#505050" stroke="none" font-family="monospace" font-size="14px" font-style="normal" font-weight="normal" text-decoration="normal" x="626.4501338899136" y="56.837562561035156" text-anchor="end" dominant-baseline="text-after-edge">n</text><path fill="white" stroke="#505050" paint-order="fill stroke markers" d=" M 610.2689147889614 156.73442459106445 L 642.2689147889614 156.73442459106445 L 642.2689147889614 174.73442459106445 L 610.2689147889614 174.73442459106445 L 618.2689147889614 165.73442459106445 L 610.2689147889614 156.73442459106445" stroke-miterlimit="10" stroke-width="0.5" stroke-dasharray=""/><path fill="none" stroke="#505050" paint-order="fill stroke markers" d=" M 634.2689147889614 160.73442459106445 L 642.2689147889614 160.73442459106445 L 642.2689147889614 168.73442459106445 L 634.2689147889614 168.73442459106445 L 634.2689147889614 160.73442459106445 Z" stroke-miterlimit="10" stroke-width="0.5" stroke-dasharray=""/><text fill="#505050" stroke="none" font-family="monospace" font-size="14px" font-style="normal" font-weight="normal" text-decoration="normal" x="626.2689147889614" y="174.73442459106445" text-anchor="end" dominant-baseline="text-after-edge">x</text><path fill="white" stroke="#505050" paint-order="fill stroke markers" d=" M 610.8595519959927 102.76875686645508 L 642.8595519959927 102.76875686645508 L 642.8595519959927 120.76875686645508 L 610.8595519959927 120.76875686645508 L 618.8595519959927 111.76875686645508 L 610.8595519959927 102.76875686645508" stroke-miterlimit="10" stroke-width="0.5" stroke-dasharray=""/><path fill="none" stroke="#505050" paint-order="fill stroke markers" d=" M 634.8595519959927 106.76875686645508 L 642.8595519959927 106.76875686645508 L 642.8595519959927 114.76875686645508 L 634.8595519959927 114.76875686645508 L 634.8595519959927 106.76875686645508 Z" stroke-miterlimit="10" stroke-width="0.5" stroke-dasharray=""/><text fill="#505050" stroke="none" font-family="monospace" font-size="14px" font-style="normal" font-weight="normal" text-decoration="normal" x="626.8595519959927" y="120.76875686645508" text-anchor="end" dominant-baseline="text-after-edge">y</text><path fill="white" stroke="#505050" paint-order="fill stroke markers" d=" M 832.1304380893707 36.85836935043335 L 840.1304380893707 36.85836935043335 L 848.1304380893707 44.85836935043335 L 840.1304380893707 52.85836935043335 L 832.1304380893707 52.85836935043335 L 832.1304380893707 36.85836935043335" stroke-miterlimit="10" stroke-width="0.5" stroke-dasharray=""/><path fill="none" stroke="#505050" paint-order="fill stroke markers" d=" M 832.1304380893707 40.85836935043335 L 840.1304380893707 40.85836935043335 L 840.1304380893707 48.85836935043335 L 832.1304380893707 48.85836935043335 L 832.1304380893707 40.85836935043335 Z" stroke-miterlimit="10" stroke-width="0.5" stroke-dasharray=""/><path fill="white" stroke="#505050" paint-order="fill stroke markers" d=" M 660.2720015048981 24.54062795639038 L 702.2720015048981 24.54062795639038 L 702.2720015048981 54.54062795639038 L 660.2720015048981 54.54062795639038 L 660.2720015048981 24.54062795639038 Z" stroke-miterlimit="10" stroke-width="0.5" stroke-dasharray=""/><path fill="#F0F0F0" stroke="none" paint-order="stroke fill markers" d=""/><text fill="#505050" stroke="none" font-family="monospace" font-size="14px" font-style="normal" font-weight="normal" text-decoration="normal" x="681.2720015048981" y="42.54062795639038" text-anchor="middle" dominant-baseline="text-after-edge">== 0</text><path fill="none" stroke="#505050" paint-order="fill stroke markers" d=" M 660.2720015048981 42.54062795639038 L 668.2720015048981 42.54062795639038 L 668.2720015048981 50.54062795639038 L 660.2720015048981 50.54062795639038 L 660.2720015048981 42.54062795639038 Z" stroke-miterlimit="10" stroke-width="0.5" stroke-dasharray=""/><path fill="none" stroke="#505050" paint-order="fill stroke markers" d=" M 694.2720015048981 42.54062795639038 L 702.2720015048981 42.54062795639038 L 702.2720015048981 50.54062795639038 L 694.2720015048981 50.54062795639038 L 694.2720015048981 42.54062795639038 Z" stroke-miterlimit="10" stroke-width="0.5" stroke-dasharray=""/><path fill="white" stroke="#505050" paint-order="fill stroke markers" d=" M 774.2514097690582 23.24636220932007 L 798.2514097690582 23.24636220932007 L 798.2514097690582 77.24636220932007 L 774.2514097690582 77.24636220932007 L 774.2514097690582 23.24636220932007 Z" stroke-miterlimit="10" stroke-width="0.5" stroke-dasharray=""/><path fill="#F0F0F0" stroke="none" paint-order="stroke fill markers" d=""/><text fill="#505050" stroke="none" font-family="monospace" font-size="14px" font-style="normal" font-weight="normal" text-decoration="normal" x="786.2514097690582" y="41.24636220932007" text-anchor="middle" dominant-baseline="text-after-edge">?</text><path fill="none" stroke="#505050" paint-order="fill stroke markers" d=" M 774.2514097690582 41.24636220932007 L 782.2514097690582 41.24636220932007 L 782.2514097690582 49.24636220932007 L 774.2514097690582 49.24636220932007 L 774.2514097690582 41.24636220932007 Z" stroke-miterlimit="10" stroke-width="0.5" stroke-dasharray=""/><path fill="none" stroke="#505050" paint-order="fill stroke markers" d=" M 774.2514097690582 53.24636220932007 L 782.2514097690582 53.24636220932007 L 782.2514097690582 61.24636220932007 L 774.2514097690582 61.24636220932007 L 774.2514097690582 53.24636220932007 Z" stroke-miterlimit="10" stroke-width="0.5" stroke-dasharray=""/><path fill="none" stroke="#505050" paint-order="fill stroke markers" d=" M 774.2514097690582 65.24636220932007 L 782.2514097690582 65.24636220932007 L 782.2514097690582 73.24636220932007 L 774.2514097690582 73.24636220932007 L 774.2514097690582 65.24636220932007 Z" stroke-miterlimit="10" stroke-width="0.5" stroke-dasharray=""/><path fill="none" stroke="#505050" paint-order="fill stroke markers" d=" M 790.2514097690582 41.24636220932007 L 798.2514097690582 41.24636220932007 L 798.2514097690582 49.24636220932007 L 790.2514097690582 49.24636220932007 L 790.2514097690582 41.24636220932007 Z" stroke-miterlimit="10" stroke-width="0.5" stroke-dasharray=""/><path fill="white" stroke="#505050" paint-order="fill stroke markers" d=" M 672.9157347679138 129.80942916870117 L 737.9157347679138 129.80942916870117 L 737.9157347679138 175.80942916870117 L 672.9157347679138 175.80942916870117 L 672.9157347679138 129.80942916870117 Z" stroke-miterlimit="10" stroke-width="0.5" stroke-dasharray=""/><path fill="#F0F0F0" stroke="none" paint-order="stroke fill markers" d=""/><path fill="none" stroke="#505050" paint-order="fill stroke markers" d=" M 672.9157347679138 133.80942916870117 L 680.9157347679138 133.80942916870117 L 680.9157347679138 141.80942916870117 L 672.9157347679138 141.80942916870117 L 672.9157347679138 133.80942916870117 Z" stroke-miterlimit="10" stroke-width="0.5" stroke-dasharray=""/><text fill="#505050" stroke="none" font-family="monospace" font-size="14px" font-style="normal" font-weight="normal" text-decoration="normal" x="688.9157347679138" y="147.80942916870117" text-anchor="start" dominant-baseline="text-after-edge">n</text><path fill="none" stroke="#505050" paint-order="fill stroke markers" d=" M 672.9157347679138 147.80942916870117 L 680.9157347679138 147.80942916870117 L 680.9157347679138 155.80942916870117 L 672.9157347679138 155.80942916870117 L 672.9157347679138 147.80942916870117 Z" stroke-miterlimit="10" stroke-width="0.5" stroke-dasharray=""/><text fill="#505050" stroke="none" font-family="monospace" font-size="14px" font-style="normal" font-weight="normal" text-decoration="normal" x="688.9157347679138" y="161.80942916870117" text-anchor="start" dominant-baseline="text-after-edge">y</text><path fill="none" stroke="#505050" paint-order="fill stroke markers" d=" M 672.9157347679138 161.80942916870117 L 680.9157347679138 161.80942916870117 L 680.9157347679138 169.80942916870117 L 672.9157347679138 169.80942916870117 L 672.9157347679138 161.80942916870117 Z" stroke-miterlimit="10" stroke-width="0.5" stroke-dasharray=""/><text fill="#505050" stroke="none" font-family="monospace" font-size="14px" font-style="normal" font-weight="normal" text-decoration="normal" x="688.9157347679138" y="175.80942916870117" text-anchor="start" dominant-baseline="text-after-edge">x</text><path fill="none" stroke="#505050" paint-order="fill stroke markers" d=" M 729.9157347679138 133.80942916870117 L 737.9157347679138 133.80942916870117 L 737.9157347679138 141.80942916870117 L 729.9157347679138 141.80942916870117 L 729.9157347679138 133.80942916870117 Z" stroke-miterlimit="10" stroke-width="0.5" stroke-dasharray=""/><text fill="#505050" stroke="none" font-family="monospace" font-size="14px" font-style="normal" font-weight="normal" text-decoration="normal" x="721.9157347679138" y="147.80942916870117" text-anchor="end" dominant-baseline="text-after-edge">y'</text><path fill="none" stroke="#505050" paint-order="fill stroke markers" d=" M 729.9157347679138 147.80942916870117 L 737.9157347679138 147.80942916870117 L 737.9157347679138 155.80942916870117 L 729.9157347679138 155.80942916870117 L 729.9157347679138 147.80942916870117 Z" stroke-miterlimit="10" stroke-width="0.5" stroke-dasharray=""/><text fill="#505050" stroke="none" font-family="monospace" font-size="14px" font-style="normal" font-weight="normal" text-decoration="normal" x="721.9157347679138" y="161.80942916870117" text-anchor="end" dominant-baseline="text-after-edge">x'</text><path fill="#e0e0e0" stroke="none" paint-order="stroke fill markers" d=" M 959.518726348877 271.90621185302734 L 951.518726348877 248.90621185302734 L 951.518726348877 294.90621185302734 Z M 664.9157347679138 152.80942916870117 L 672.9157347679138 129.80942916870117 L 672.9157347679138 175.80942916870117 Z"/><path fill="none" stroke="none"/><path fill="none" stroke="#e0e0e0" paint-order="fill stroke markers" d=" M 959.518726348877 271.90621185302734 C 1054.8484015108063 271.90621185302734 569.5860596059845 152.80942916870117 664.9157347679138 152.80942916870117" stroke-miterlimit="10" stroke-width="2" stroke-dasharray=""/><path fill="white" stroke="#505050" paint-order="fill stroke markers" d=" M 803.7188353538513 133.13750457763672 L 876.7188353538513 133.13750457763672 L 876.7188353538513 225.13750457763672 L 803.7188353538513 225.13750457763672 L 803.7188353538513 133.13750457763672 Z" stroke-miterlimit="10" stroke-width="0.5" stroke-dasharray=""/><path fill="#F0F0F0" stroke="none" paint-order="stroke fill markers" d=""/><text fill="#505050" stroke="none" font-family="monospace" font-size="14px" font-style="normal" font-weight="normal" text-decoration="normal" x="840.2188353538513" y="151.13750457763672" text-anchor="middle" dominant-baseline="text-after-edge">expStep</text><path fill="none" stroke="#505050" paint-order="fill stroke markers" d=" M 803.7188353538513 151.13750457763672 L 811.7188353538513 151.13750457763672 L 811.7188353538513 159.13750457763672 L 803.7188353538513 159.13750457763672 L 803.7188353538513 151.13750457763672 Z" stroke-miterlimit="10" stroke-width="0.5" stroke-dasharray=""/><text fill="#505050" stroke="none" font-family="monospace" font-size="14px" font-style="normal" font-weight="normal" text-decoration="normal" x="819.7188353538513" y="165.13750457763672" text-anchor="start" dominant-baseline="text-after-edge">n</text><path fill="none" stroke="#505050" paint-order="fill stroke markers" d=" M 803.7188353538513 165.13750457763672 L 811.7188353538513 165.13750457763672 L 811.7188353538513 173.13750457763672 L 803.7188353538513 173.13750457763672 L 803.7188353538513 165.13750457763672 Z" stroke-miterlimit="10" stroke-width="0.5" stroke-dasharray=""/><text fill="#505050" stroke="none" font-family="monospace" font-size="14px" font-style="normal" font-weight="normal" text-decoration="normal" x="819.7188353538513" y="179.13750457763672" text-anchor="start" dominant-baseline="text-after-edge">y</text><path fill="none" stroke="#505050" paint-order="fill stroke markers" d=" M 803.7188353538513 179.13750457763672 L 811.7188353538513 179.13750457763672 L 811.7188353538513 187.13750457763672 L 803.7188353538513 187.13750457763672 L 803.7188353538513 179.13750457763672 Z" stroke-miterlimit="10" stroke-width="0.5" stroke-dasharray=""/><text fill="#505050" stroke="none" font-family="monospace" font-size="14px" font-style="normal" font-weight="normal" text-decoration="normal" x="819.7188353538513" y="193.13750457763672" text-anchor="start" dominant-baseline="text-after-edge">x</text><path fill="none" stroke="#505050" paint-order="fill stroke markers" d=" M 803.7188353538513 193.13750457763672 L 827.7188353538513 193.13750457763672 L 827.7188353538513 221.13750457763672 L 803.7188353538513 221.13750457763672 L 803.7188353538513 193.13750457763672 Z" stroke-miterlimit="10" stroke-width="0.5" stroke-dasharray=""/><path fill="none" stroke="#505050" paint-order="fill stroke markers" d=" M 803.7188353538513 197.13750457763672 L 811.7188353538513 197.13750457763672 L 811.7188353538513 205.13750457763672 L 803.7188353538513 205.13750457763672 L 803.7188353538513 197.13750457763672 Z" stroke-miterlimit="10" stroke-width="0.5" stroke-dasharray=""/><path fill="none" stroke="#505050" paint-order="fill stroke markers" d=" M 803.7188353538513 209.13750457763672 L 811.7188353538513 209.13750457763672 L 811.7188353538513 217.13750457763672 L 803.7188353538513 217.13750457763672 L 803.7188353538513 209.13750457763672 Z" stroke-miterlimit="10" stroke-width="0.5" stroke-dasharray=""/><path fill="none" stroke="#505050" paint-order="fill stroke markers" d=" M 819.7188353538513 197.13750457763672 L 827.7188353538513 197.13750457763672 L 827.7188353538513 205.13750457763672 L 819.7188353538513 205.13750457763672 L 819.7188353538513 197.13750457763672 Z" stroke-miterlimit="10" stroke-width="0.5" stroke-dasharray=""/><text fill="#505050" stroke="none" font-family="monospace" font-size="14px" font-style="normal" font-weight="normal" text-decoration="normal" x="835.7188353538513" y="216.13750457763672" text-anchor="start" dominant-baseline="text-after-edge">mul</text><path fill="none" stroke="#505050" paint-order="fill stroke markers" d=" M 868.7188353538513 151.13750457763672 L 876.7188353538513 151.13750457763672 L 876.7188353538513 159.13750457763672 L 868.7188353538513 159.13750457763672 L 868.7188353538513 151.13750457763672 Z" stroke-miterlimit="10" stroke-width="0.5" stroke-dasharray=""/><path fill="#e0e0e0" stroke="none" paint-order="stroke fill markers" d=" M 982.7124519348145 71.18754196166992 L 974.7124519348145 25.187541961669922 L 974.7124519348145 117.18754196166992 Z M 795.7188353538513 179.13750457763672 L 803.7188353538513 133.13750457763672 L 803.7188353538513 225.13750457763672 Z"/><path fill="none" stroke="none"/><path fill="none" stroke="#e0e0e0" paint-order="fill stroke markers" d=" M 982.7124519348145 71.18754196166992 C 1047.487313079965 71.18754196166992 730.9439742087009 179.13750457763672 795.7188353538513 179.13750457763672" stroke-miterlimit="10" stroke-width="2" stroke-dasharray=""/><path fill="white" stroke="#505050" paint-order="fill stroke markers" d=" M 763.3844847679138 98.1437759399414 L 788.3844847679138 98.1437759399414 L 788.3844847679138 128.1437759399414 L 763.3844847679138 128.1437759399414 L 763.3844847679138 98.1437759399414 Z" stroke-miterlimit="10" stroke-width="0.5" stroke-dasharray=""/><path fill="#F0F0F0" stroke="none" paint-order="stroke fill markers" d=""/><text fill="#505050" stroke="none" font-family="monospace" font-size="14px" font-style="normal" font-weight="normal" text-decoration="normal" x="775.8844847679138" y="116.1437759399414" text-anchor="middle" dominant-baseline="text-after-edge">/2</text><path fill="none" stroke="#505050" paint-order="fill stroke markers" d=" M 763.3844847679138 116.1437759399414 L 771.3844847679138 116.1437759399414 L 771.3844847679138 124.1437759399414 L 763.3844847679138 124.1437759399414 L 763.3844847679138 116.1437759399414 Z" stroke-miterlimit="10" stroke-width="0.5" stroke-dasharray=""/><path fill="none" stroke="#505050" paint-order="fill stroke markers" d=" M 780.3844847679138 116.1437759399414 L 788.3844847679138 116.1437759399414 L 788.3844847679138 124.1437759399414 L 780.3844847679138 124.1437759399414 L 780.3844847679138 116.1437759399414 Z" stroke-miterlimit="10" stroke-width="0.5" stroke-dasharray=""/><path fill="white" stroke="#505050" paint-order="fill stroke markers" d=" M 702.0873908996582 248.90621185302734 L 702.0873908996582 433.02185821533203 Q 702.0873908996582 441.02185821533203 710.0873908996582 441.02185821533203 L 943.518726348877 441.02185821533203 Q 951.518726348877 441.02185821533203 951.518726348877 433.02185821533203 L 951.518726348877 248.90621185302734 Q 951.518726348877 240.90621185302734 943.518726348877 240.90621185302734 L 710.0873908996582 240.90621185302734 Q 702.0873908996582 240.90621185302734 702.0873908996582 248.90621185302734" stroke-miterlimit="10" stroke-width="0.5" stroke-dasharray=""/><path fill="#F0F0F0" stroke="#505050" paint-order="fill stroke markers" d=" M 886.518726348877 248.90621185302734 L 951.518726348877 248.90621185302734 L 951.518726348877 294.90621185302734 L 886.518726348877 294.90621185302734 L 886.518726348877 248.90621185302734 Z" stroke-miterlimit="10" stroke-width="0.5" stroke-dasharray=""/><path fill="none" stroke="#505050" paint-order="fill stroke markers" d=" M 886.518726348877 252.90621185302734 L 894.518726348877 252.90621185302734 L 894.518726348877 260.90621185302734 L 886.518726348877 260.90621185302734 L 886.518726348877 252.90621185302734 Z" stroke-miterlimit="10" stroke-width="0.5" stroke-dasharray=""/><text fill="#505050" stroke="none" font-family="monospace" font-size="14px" font-style="normal" font-weight="normal" text-decoration="normal" x="902.518726348877" y="266.90621185302734" text-anchor="start" dominant-baseline="text-after-edge">n</text><path fill="none" stroke="#505050" paint-order="fill stroke markers" d=" M 886.518726348877 266.90621185302734 L 894.518726348877 266.90621185302734 L 894.518726348877 274.90621185302734 L 886.518726348877 274.90621185302734 L 886.518726348877 266.90621185302734 Z" stroke-miterlimit="10" stroke-width="0.5" stroke-dasharray=""/><text fill="#505050" stroke="none" font-family="monospace" font-size="14px" font-style="normal" font-weight="normal" text-decoration="normal" x="902.518726348877" y="280.90621185302734" text-anchor="start" dominant-baseline="text-after-edge">y</text><path fill="none" stroke="#505050" paint-order="fill stroke markers" d=" M 886.518726348877 280.90621185302734 L 894.518726348877 280.90621185302734 L 894.518726348877 288.90621185302734 L 886.518726348877 288.90621185302734 L 886.518726348877 280.90621185302734 Z" stroke-miterlimit="10" stroke-width="0.5" stroke-dasharray=""/><text fill="#505050" stroke="none" font-family="monospace" font-size="14px" font-style="normal" font-weight="normal" text-decoration="normal" x="902.518726348877" y="294.90621185302734" text-anchor="start" dominant-baseline="text-after-edge">x</text><path fill="none" stroke="#505050" paint-order="fill stroke markers" d=" M 943.518726348877 252.90621185302734 L 951.518726348877 252.90621185302734 L 951.518726348877 260.90621185302734 L 943.518726348877 260.90621185302734 L 943.518726348877 252.90621185302734 Z" stroke-miterlimit="10" stroke-width="0.5" stroke-dasharray=""/><text fill="#505050" stroke="none" font-family="monospace" font-size="14px" font-style="normal" font-weight="normal" text-decoration="normal" x="935.518726348877" y="266.90621185302734" text-anchor="end" dominant-baseline="text-after-edge">y'</text><path fill="none" stroke="#505050" paint-order="fill stroke markers" d=" M 943.518726348877 266.90621185302734 L 951.518726348877 266.90621185302734 L 951.518726348877 274.90621185302734 L 943.518726348877 274.90621185302734 L 943.518726348877 266.90621185302734 Z" stroke-miterlimit="10" stroke-width="0.5" stroke-dasharray=""/><text fill="#505050" stroke="none" font-family="monospace" font-size="14px" font-style="normal" font-weight="normal" text-decoration="normal" x="935.518726348877" y="280.90621185302734" text-anchor="end" dominant-baseline="text-after-edge">x'</text><path fill="white" stroke="#505050" paint-order="fill stroke markers" d=" M 790.96240234375 371.5780944824219 L 823.96240234375 371.5780944824219 L 823.96240234375 413.5780944824219 L 790.96240234375 413.5780944824219 L 790.96240234375 371.5780944824219 Z" stroke-miterlimit="10" stroke-width="0.5" stroke-dasharray=""/><path fill="#F0F0F0" stroke="none" paint-order="stroke fill markers" d=""/><text fill="#505050" stroke="none" font-family="monospace" font-size="14px" font-style="normal" font-weight="normal" text-decoration="normal" x="807.46240234375" y="389.5780944824219" text-anchor="middle" dominant-baseline="text-after-edge">mul</text><path fill="none" stroke="#505050" paint-order="fill stroke markers" d=" M 790.96240234375 389.5780944824219 L 798.96240234375 389.5780944824219 L 798.96240234375 397.5780944824219 L 790.96240234375 397.5780944824219 L 790.96240234375 389.5780944824219 Z" stroke-miterlimit="10" stroke-width="0.5" stroke-dasharray=""/><path fill="none" stroke="#505050" paint-order="fill stroke markers" d=" M 790.96240234375 401.5780944824219 L 798.96240234375 401.5780944824219 L 798.96240234375 409.5780944824219 L 790.96240234375 409.5780944824219 L 790.96240234375 401.5780944824219 Z" stroke-miterlimit="10" stroke-width="0.5" stroke-dasharray=""/><path fill="none" stroke="#505050" paint-order="fill stroke markers" d=" M 815.96240234375 389.5780944824219 L 823.96240234375 389.5780944824219 L 823.96240234375 397.5780944824219 L 815.96240234375 397.5780944824219 L 815.96240234375 389.5780944824219 Z" stroke-miterlimit="10" stroke-width="0.5" stroke-dasharray=""/><path fill="#e0e0e0" stroke="none" paint-order="stroke fill markers" d=" M 659.9561080932617 214.62812042236328 L 651.9561080932617 193.62812042236328 L 651.9561080932617 235.62812042236328 Z M 782.96240234375 392.5780944824219 L 790.96240234375 371.5780944824219 L 790.96240234375 413.5780944824219 Z"/><path fill="none" stroke="none"/><path fill="none" stroke="#e0e0e0" paint-order="fill stroke markers" d=" M 659.9561080932617 214.62812042236328 C 724.8537717830217 214.62812042236328 718.06473865399 392.5780944824219 782.96240234375 392.5780944824219" stroke-miterlimit="10" stroke-width="2" stroke-dasharray=""/><path fill="white" stroke="#505050" paint-order="fill stroke markers" d=" M 710.6250854432583 359.7687072753906 L 742.6250854432583 359.7687072753906 L 742.6250854432583 377.7687072753906 L 710.6250854432583 377.7687072753906 L 718.6250854432583 368.7687072753906 L 710.6250854432583 359.7687072753906" stroke-miterlimit="10" stroke-width="0.5" stroke-dasharray=""/><path fill="none" stroke="#505050" paint-order="fill stroke markers" d=" M 734.6250854432583 363.7687072753906 L 742.6250854432583 363.7687072753906 L 742.6250854432583 371.7687072753906 L 734.6250854432583 371.7687072753906 L 734.6250854432583 363.7687072753906 Z" stroke-miterlimit="10" stroke-width="0.5" stroke-dasharray=""/><text fill="#505050" stroke="none" font-family="monospace" font-size="14px" font-style="normal" font-weight="normal" text-decoration="normal" x="726.6250854432583" y="377.7687072753906" text-anchor="end" dominant-baseline="text-after-edge">x</text><path fill="white" stroke="#505050" paint-order="fill stroke markers" d=" M 710.5313964784145 297.0812301635742 L 742.5313964784145 297.0812301635742 L 742.5313964784145 315.0812301635742 L 710.5313964784145 315.0812301635742 L 718.5313964784145 306.0812301635742 L 710.5313964784145 297.0812301635742" stroke-miterlimit="10" stroke-width="0.5" stroke-dasharray=""/><path fill="none" stroke="#505050" paint-order="fill stroke markers" d=" M 734.5313964784145 301.0812301635742 L 742.5313964784145 301.0812301635742 L 742.5313964784145 309.0812301635742 L 734.5313964784145 309.0812301635742 L 734.5313964784145 301.0812301635742 Z" stroke-miterlimit="10" stroke-width="0.5" stroke-dasharray=""/><text fill="#505050" stroke="none" font-family="monospace" font-size="14px" font-style="normal" font-weight="normal" text-decoration="normal" x="726.5313964784145" y="315.0812301635742" text-anchor="end" dominant-baseline="text-after-edge">y</text><path fill="white" stroke="#505050" paint-order="fill stroke markers" d=" M 886.1561279296875 332.75934982299805 L 919.1561279296875 332.75934982299805 L 927.1561279296875 341.75934982299805 L 919.1561279296875 350.75934982299805 L 886.1561279296875 350.75934982299805 L 886.1561279296875 332.75934982299805" stroke-miterlimit="10" stroke-width="0.5" stroke-dasharray=""/><path fill="none" stroke="#505050" paint-order="fill stroke markers" d=" M 886.1561279296875 336.75934982299805 L 894.1561279296875 336.75934982299805 L 894.1561279296875 344.75934982299805 L 886.1561279296875 344.75934982299805 L 886.1561279296875 336.75934982299805 Z" stroke-miterlimit="10" stroke-width="0.5" stroke-dasharray=""/><text fill="#505050" stroke="none" font-family="monospace" font-size="14px" font-style="normal" font-weight="normal" text-decoration="normal" x="902.1561279296875" y="350.75934982299805" text-anchor="start" dominant-baseline="text-after-edge">x'</text><path fill="white" stroke="#505050" paint-order="fill stroke markers" d=" M 885.99365234375 307.8531036376953 L 918.99365234375 307.8531036376953 L 926.99365234375 316.8531036376953 L 918.99365234375 325.8531036376953 L 885.99365234375 325.8531036376953 L 885.99365234375 307.8531036376953" stroke-miterlimit="10" stroke-width="0.5" stroke-dasharray=""/><path fill="none" stroke="#505050" paint-order="fill stroke markers" d=" M 885.99365234375 311.8531036376953 L 893.99365234375 311.8531036376953 L 893.99365234375 319.8531036376953 L 885.99365234375 319.8531036376953 L 885.99365234375 311.8531036376953 Z" stroke-miterlimit="10" stroke-width="0.5" stroke-dasharray=""/><text fill="#505050" stroke="none" font-family="monospace" font-size="14px" font-style="normal" font-weight="normal" text-decoration="normal" x="901.99365234375" y="325.8531036376953" text-anchor="start" dominant-baseline="text-after-edge">y'</text><path fill="white" stroke="#505050" paint-order="fill stroke markers" d=" M 791.0436644554138 318.1562194824219 L 824.0436644554138 318.1562194824219 L 824.0436644554138 360.1562194824219 L 791.0436644554138 360.1562194824219 L 791.0436644554138 318.1562194824219 Z" stroke-miterlimit="10" stroke-width="0.5" stroke-dasharray=""/><path fill="#F0F0F0" stroke="none" paint-order="stroke fill markers" d=""/><text fill="#505050" stroke="none" font-family="monospace" font-size="14px" font-style="normal" font-weight="normal" text-decoration="normal" x="807.5436644554138" y="336.1562194824219" text-anchor="middle" dominant-baseline="text-after-edge">mul</text><path fill="none" stroke="#505050" paint-order="fill stroke markers" d=" M 791.0436644554138 336.1562194824219 L 799.0436644554138 336.1562194824219 L 799.0436644554138 344.1562194824219 L 791.0436644554138 344.1562194824219 L 791.0436644554138 336.1562194824219 Z" stroke-miterlimit="10" stroke-width="0.5" stroke-dasharray=""/><path fill="none" stroke="#505050" paint-order="fill stroke markers" d=" M 791.0436644554138 348.1562194824219 L 799.0436644554138 348.1562194824219 L 799.0436644554138 356.1562194824219 L 791.0436644554138 356.1562194824219 L 791.0436644554138 348.1562194824219 Z" stroke-miterlimit="10" stroke-width="0.5" stroke-dasharray=""/><path fill="none" stroke="#505050" paint-order="fill stroke markers" d=" M 816.0436644554138 336.1562194824219 L 824.0436644554138 336.1562194824219 L 824.0436644554138 344.1562194824219 L 816.0436644554138 344.1562194824219 L 816.0436644554138 336.1562194824219 Z" stroke-miterlimit="10" stroke-width="0.5" stroke-dasharray=""/><path fill="#e0e0e0" stroke="none" paint-order="stroke fill markers" d=" M 659.9561080932617 214.62812042236328 L 651.9561080932617 193.62812042236328 L 651.9561080932617 235.62812042236328 Z M 783.0436644554138 339.1562194824219 L 791.0436644554138 318.1562194824219 L 791.0436644554138 360.1562194824219 Z"/><path fill="none" stroke="none"/><path fill="none" stroke="#e0e0e0" paint-order="fill stroke markers" d=" M 659.9561080932617 214.62812042236328 C 712.4842097037767 214.62812042236328 730.5155628448988 339.1562194824219 783.0436644554138 339.1562194824219" stroke-miterlimit="10" stroke-width="2" stroke-dasharray=""/><path fill="white" stroke="#505050" paint-order="fill stroke markers" d=" M 711.0875545442104 261.68750762939453 L 743.0875545442104 261.68750762939453 L 743.0875545442104 279.68750762939453 L 711.0875545442104 279.68750762939453 L 719.0875545442104 270.68750762939453 L 711.0875545442104 261.68750762939453" stroke-miterlimit="10" stroke-width="0.5" stroke-dasharray=""/><path fill="none" stroke="#505050" paint-order="fill stroke markers" d=" M 735.0875545442104 265.68750762939453 L 743.0875545442104 265.68750762939453 L 743.0875545442104 273.68750762939453 L 735.0875545442104 273.68750762939453 L 735.0875545442104 265.68750762939453 Z" stroke-miterlimit="10" stroke-width="0.5" stroke-dasharray=""/><text fill="#505050" stroke="none" font-family="monospace" font-size="14px" font-style="normal" font-weight="normal" text-decoration="normal" x="727.0875545442104" y="279.68750762939453" text-anchor="end" dominant-baseline="text-after-edge">n</text><path fill="white" stroke="#505050" paint-order="fill stroke markers" d=" M 839.8592772483826 249.0218505859375 L 863.8592772483826 249.0218505859375 L 863.8592772483826 303.0218505859375 L 839.8592772483826 303.0218505859375 L 839.8592772483826 249.0218505859375 Z" stroke-miterlimit="10" stroke-width="0.5" stroke-dasharray=""/><path fill="#F0F0F0" stroke="none" paint-order="stroke fill markers" d=""/><text fill="#505050" stroke="none" font-family="monospace" font-size="14px" font-style="normal" font-weight="normal" text-decoration="normal" x="851.8592772483826" y="267.0218505859375" text-anchor="middle" dominant-baseline="text-after-edge">?</text><path fill="none" stroke="#505050" paint-order="fill stroke markers" d=" M 839.8592772483826 267.0218505859375 L 847.8592772483826 267.0218505859375 L 847.8592772483826 275.0218505859375 L 839.8592772483826 275.0218505859375 L 839.8592772483826 267.0218505859375 Z" stroke-miterlimit="10" stroke-width="0.5" stroke-dasharray=""/><path fill="none" stroke="#505050" paint-order="fill stroke markers" d=" M 839.8592772483826 279.0218505859375 L 847.8592772483826 279.0218505859375 L 847.8592772483826 287.0218505859375 L 839.8592772483826 287.0218505859375 L 839.8592772483826 279.0218505859375 Z" stroke-miterlimit="10" stroke-width="0.5" stroke-dasharray=""/><path fill="none" stroke="#505050" paint-order="fill stroke markers" d=" M 839.8592772483826 291.0218505859375 L 847.8592772483826 291.0218505859375 L 847.8592772483826 299.0218505859375 L 839.8592772483826 299.0218505859375 L 839.8592772483826 291.0218505859375 Z" stroke-miterlimit="10" stroke-width="0.5" stroke-dasharray=""/><path fill="none" stroke="#505050" paint-order="fill stroke markers" d=" M 855.8592772483826 267.0218505859375 L 863.8592772483826 267.0218505859375 L 863.8592772483826 275.0218505859375 L 855.8592772483826 275.0218505859375 L 855.8592772483826 267.0218505859375 Z" stroke-miterlimit="10" stroke-width="0.5" stroke-dasharray=""/><path fill="white" stroke="#505050" paint-order="fill stroke markers" d=" M 753.6561522483826 247.4531021118164 L 795.6561522483826 247.4531021118164 L 795.6561522483826 277.4531021118164 L 753.6561522483826 277.4531021118164 L 753.6561522483826 247.4531021118164 Z" stroke-miterlimit="10" stroke-width="0.5" stroke-dasharray=""/><path fill="#F0F0F0" stroke="none" paint-order="stroke fill markers" d=""/><text fill="#505050" stroke="none" font-family="monospace" font-size="14px" font-style="normal" font-weight="normal" text-decoration="normal" x="774.6561522483826" y="265.4531021118164" text-anchor="middle" dominant-baseline="text-after-edge">even</text><path fill="none" stroke="#505050" paint-order="fill stroke markers" d=" M 753.6561522483826 265.4531021118164 L 761.6561522483826 265.4531021118164 L 761.6561522483826 273.4531021118164 L 753.6561522483826 273.4531021118164 L 753.6561522483826 265.4531021118164 Z" stroke-miterlimit="10" stroke-width="0.5" stroke-dasharray=""/><path fill="none" stroke="#505050" paint-order="fill stroke markers" d=" M 787.6561522483826 265.4531021118164 L 795.6561522483826 265.4531021118164 L 795.6561522483826 273.4531021118164 L 787.6561522483826 273.4531021118164 L 787.6561522483826 265.4531021118164 Z" stroke-miterlimit="10" stroke-width="0.5" stroke-dasharray=""/><path fill="none" stroke="none"/><path fill="white" stroke="#505050" paint-order="fill stroke markers" d=" M 602.9561080932617 189.62812042236328 L 651.9561080932617 189.62812042236328 L 651.9561080932617 239.62812042236328 L 602.9561080932617 239.62812042236328 L 610.9561080932617 214.62812042236328 L 602.9561080932617 189.62812042236328" stroke-miterlimit="10" stroke-width="0.5" stroke-dasharray="6,3"/><path fill="#F0F0F0" stroke="none" paint-order="stroke fill markers" d=" M 618.9561080932617 193.62812042236328 L 651.9561080932617 193.62812042236328 L 651.9561080932617 235.62812042236328 L 618.9561080932617 235.62812042236328 L 618.9561080932617 193.62812042236328 Z"/><path fill="none" stroke="#505050" paint-order="fill stroke markers" d=" M 618.9561080932617 193.62812042236328 L 651.9561080932617 193.62812042236328 L 651.9561080932617 235.62812042236328 L 618.9561080932617 235.62812042236328 L 618.9561080932617 193.62812042236328 Z" stroke-miterlimit="10" stroke-width="0.5" stroke-dasharray="0"/><text fill="#505050" stroke="none" font-family="monospace" font-size="14px" font-style="normal" font-weight="normal" text-decoration="normal" x="635.4561080932617" y="211.62812042236328" text-anchor="middle" dominant-baseline="text-after-edge">mul</text><path fill="none" stroke="#505050" paint-order="fill stroke markers" d=" M 618.9561080932617 211.62812042236328 L 626.9561080932617 211.62812042236328 L 626.9561080932617 219.62812042236328 L 618.9561080932617 219.62812042236328 L 618.9561080932617 211.62812042236328 Z" stroke-miterlimit="10" stroke-width="0.5" stroke-dasharray="0"/><path fill="none" stroke="#505050" paint-order="fill stroke markers" d=" M 618.9561080932617 223.62812042236328 L 626.9561080932617 223.62812042236328 L 626.9561080932617 231.62812042236328 L 618.9561080932617 231.62812042236328 L 618.9561080932617 223.62812042236328 Z" stroke-miterlimit="10" stroke-width="0.5" stroke-dasharray="0"/><path fill="none" stroke="#505050" paint-order="fill stroke markers" d=" M 643.9561080932617 211.62812042236328 L 651.9561080932617 211.62812042236328 L 651.9561080932617 219.62812042236328 L 643.9561080932617 219.62812042236328 L 643.9561080932617 211.62812042236328 Z" stroke-miterlimit="10" stroke-width="0.5" stroke-dasharray="0"/><path fill="none" stroke="#505050" paint-order="fill stroke markers" d=" M 618.9561080932617 193.62812042236328 L 651.9561080932617 193.62812042236328 L 651.9561080932617 235.62812042236328 L 618.9561080932617 235.62812042236328 L 618.9561080932617 193.62812042236328 Z" stroke-miterlimit="10" stroke-width="0.5" stroke-dasharray="6,3"/><path fill="#F0F0F0" stroke="none" paint-order="stroke fill markers" d=""/><text fill="#505050" stroke="none" font-family="monospace" font-size="14px" font-style="normal" font-weight="normal" text-decoration="normal" x="635.4561080932617" y="211.62812042236328" text-anchor="middle" dominant-baseline="text-after-edge">mul</text><path fill="none" stroke="#505050" paint-order="fill stroke markers" d=" M 618.9561080932617 211.62812042236328 L 626.9561080932617 211.62812042236328 L 626.9561080932617 219.62812042236328 L 618.9561080932617 219.62812042236328 L 618.9561080932617 211.62812042236328 Z" stroke-miterlimit="10" stroke-width="0.5" stroke-dasharray="0"/><path fill="none" stroke="#505050" paint-order="fill stroke markers" d=" M 618.9561080932617 223.62812042236328 L 626.9561080932617 223.62812042236328 L 626.9561080932617 231.62812042236328 L 618.9561080932617 231.62812042236328 L 618.9561080932617 223.62812042236328 Z" stroke-miterlimit="10" stroke-width="0.5" stroke-dasharray="0"/><path fill="none" stroke="#505050" paint-order="fill stroke markers" d=" M 643.9561080932617 211.62812042236328 L 651.9561080932617 211.62812042236328 L 651.9561080932617 219.62812042236328 L 643.9561080932617 219.62812042236328 L 643.9561080932617 211.62812042236328 Z" stroke-miterlimit="10" stroke-width="0.5" stroke-dasharray="0"/><path fill="white" stroke="#505050" paint-order="fill stroke markers" d=" M 1003.8998947143555 62.40623474121094 L 1003.8998947143555 202.69062042236328 Q 1003.8998947143555 210.69062042236328 1011.8998947143555 210.69062042236328 L 1209.9247436523438 210.69062042236328 Q 1217.9247436523438 210.69062042236328 1217.9247436523438 202.69062042236328 L 1217.9247436523438 62.40623474121094 Q 1217.9247436523438 54.40623474121094 1209.9247436523438 54.40623474121094 L 1011.8998947143555 54.40623474121094 Q 1003.8998947143555 54.40623474121094 1003.8998947143555 62.40623474121094" stroke-miterlimit="10" stroke-width="0.5" stroke-dasharray="0"/><path fill="#F0F0F0" stroke="#505050" paint-order="fill stroke markers" d=" M 1177.9247436523438 62.40623474121094 L 1217.9247436523438 62.40623474121094 L 1217.9247436523438 108.40623474121094 L 1177.9247436523438 108.40623474121094 L 1177.9247436523438 62.40623474121094 Z" stroke-miterlimit="10" stroke-width="0.5" stroke-dasharray="0"/><text fill="#505050" stroke="none" font-family="monospace" font-size="14px" font-style="normal" font-weight="normal" text-decoration="normal" x="1197.9247436523438" y="80.40623474121094" text-anchor="middle" dominant-baseline="text-after-edge">x</text><path fill="none" stroke="#505050" paint-order="fill stroke markers" d=" M 1177.9247436523438 80.40623474121094 L 1185.9247436523438 80.40623474121094 L 1185.9247436523438 88.40623474121094 L 1177.9247436523438 88.40623474121094 L 1177.9247436523438 80.40623474121094 Z" stroke-miterlimit="10" stroke-width="0.5" stroke-dasharray="0"/><text fill="#505050" stroke="none" font-family="monospace" font-size="14px" font-style="normal" font-weight="normal" text-decoration="normal" x="1193.9247436523438" y="94.40623474121094" text-anchor="start" dominant-baseline="text-after-edge">n</text><path fill="none" stroke="#505050" paint-order="fill stroke markers" d=" M 1177.9247436523438 94.40623474121094 L 1185.9247436523438 94.40623474121094 L 1185.9247436523438 102.40623474121094 L 1177.9247436523438 102.40623474121094 L 1177.9247436523438 94.40623474121094 Z" stroke-miterlimit="10" stroke-width="0.5" stroke-dasharray="0"/><text fill="#505050" stroke="none" font-family="monospace" font-size="14px" font-style="normal" font-weight="normal" text-decoration="normal" x="1193.9247436523438" y="108.40623474121094" text-anchor="start" dominant-baseline="text-after-edge">x</text><path fill="none" stroke="#505050" paint-order="fill stroke markers" d=" M 1209.9247436523438 80.40623474121094 L 1217.9247436523438 80.40623474121094 L 1217.9247436523438 88.40623474121094 L 1209.9247436523438 88.40623474121094 L 1209.9247436523438 80.40623474121094 Z" stroke-miterlimit="10" stroke-width="0.5" stroke-dasharray="0"/><path fill="white" stroke="#505050" paint-order="fill stroke markers" d=" M 1012.0997314453125 63.37187194824219 L 1044.0997314453125 63.37187194824219 L 1044.0997314453125 81.37187194824219 L 1012.0997314453125 81.37187194824219 L 1020.0997314453125 72.37187194824219 L 1012.0997314453125 63.37187194824219" stroke-miterlimit="10" stroke-width="0.5" stroke-dasharray="0"/><path fill="none" stroke="#505050" paint-order="fill stroke markers" d=" M 1036.0997314453125 67.37187194824219 L 1044.0997314453125 67.37187194824219 L 1044.0997314453125 75.37187194824219 L 1036.0997314453125 75.37187194824219 L 1036.0997314453125 67.37187194824219 Z" stroke-miterlimit="10" stroke-width="0.5" stroke-dasharray="0"/><text fill="#505050" stroke="none" font-family="monospace" font-size="14px" font-style="normal" font-weight="normal" text-decoration="normal" x="1028.0997314453125" y="81.37187194824219" text-anchor="end" dominant-baseline="text-after-edge">n</text><path fill="white" stroke="#505050" paint-order="fill stroke markers" d=" M 1062.3778686523438 62.40623474121094 L 1135.3778686523438 62.40623474121094 L 1135.3778686523438 154.40623474121094 L 1062.3778686523438 154.40623474121094 L 1062.3778686523438 62.40623474121094 Z" stroke-miterlimit="10" stroke-width="0.5" stroke-dasharray="0"/><path fill="#F0F0F0" stroke="none" paint-order="stroke fill markers" d=""/><text fill="#505050" stroke="none" font-family="monospace" font-size="14px" font-style="normal" font-weight="normal" text-decoration="normal" x="1098.8778686523438" y="80.40623474121094" text-anchor="middle" dominant-baseline="text-after-edge">expStep</text><path fill="none" stroke="#505050" paint-order="fill stroke markers" d=" M 1062.3778686523438 80.40623474121094 L 1070.3778686523438 80.40623474121094 L 1070.3778686523438 88.40623474121094 L 1062.3778686523438 88.40623474121094 L 1062.3778686523438 80.40623474121094 Z" stroke-miterlimit="10" stroke-width="0.5" stroke-dasharray="0"/><text fill="#505050" stroke="none" font-family="monospace" font-size="14px" font-style="normal" font-weight="normal" text-decoration="normal" x="1078.3778686523438" y="94.40623474121094" text-anchor="start" dominant-baseline="text-after-edge">n</text><path fill="none" stroke="#505050" paint-order="fill stroke markers" d=" M 1062.3778686523438 94.40623474121094 L 1070.3778686523438 94.40623474121094 L 1070.3778686523438 102.40623474121094 L 1062.3778686523438 102.40623474121094 L 1062.3778686523438 94.40623474121094 Z" stroke-miterlimit="10" stroke-width="0.5" stroke-dasharray="0"/><text fill="#505050" stroke="none" font-family="monospace" font-size="14px" font-style="normal" font-weight="normal" text-decoration="normal" x="1078.3778686523438" y="108.40623474121094" text-anchor="start" dominant-baseline="text-after-edge">y</text><path fill="none" stroke="#505050" paint-order="fill stroke markers" d=" M 1062.3778686523438 108.40623474121094 L 1070.3778686523438 108.40623474121094 L 1070.3778686523438 116.40623474121094 L 1062.3778686523438 116.40623474121094 L 1062.3778686523438 108.40623474121094 Z" stroke-miterlimit="10" stroke-width="0.5" stroke-dasharray="0"/><text fill="#505050" stroke="none" font-family="monospace" font-size="14px" font-style="normal" font-weight="normal" text-decoration="normal" x="1078.3778686523438" y="122.40623474121094" text-anchor="start" dominant-baseline="text-after-edge">x</text><path fill="none" stroke="#505050" paint-order="fill stroke markers" d=" M 1062.3778686523438 122.40623474121094 L 1086.3778686523438 122.40623474121094 L 1086.3778686523438 150.40623474121094 L 1062.3778686523438 150.40623474121094 L 1062.3778686523438 122.40623474121094 Z" stroke-miterlimit="10" stroke-width="0.5" stroke-dasharray="0"/><path fill="none" stroke="#505050" paint-order="fill stroke markers" d=" M 1062.3778686523438 126.40623474121094 L 1070.3778686523438 126.40623474121094 L 1070.3778686523438 134.40623474121094 L 1062.3778686523438 134.40623474121094 L 1062.3778686523438 126.40623474121094 Z" stroke-miterlimit="10" stroke-width="0.5" stroke-dasharray="0"/><path fill="none" stroke="#505050" paint-order="fill stroke markers" d=" M 1062.3778686523438 138.40623474121094 L 1070.3778686523438 138.40623474121094 L 1070.3778686523438 146.40623474121094 L 1062.3778686523438 146.40623474121094 L 1062.3778686523438 138.40623474121094 Z" stroke-miterlimit="10" stroke-width="0.5" stroke-dasharray="0"/><path fill="none" stroke="#505050" paint-order="fill stroke markers" d=" M 1078.3778686523438 126.40623474121094 L 1086.3778686523438 126.40623474121094 L 1086.3778686523438 134.40623474121094 L 1078.3778686523438 134.40623474121094 L 1078.3778686523438 126.40623474121094 Z" stroke-miterlimit="10" stroke-width="0.5" stroke-dasharray="0"/><text fill="#505050" stroke="none" font-family="monospace" font-size="14px" font-style="normal" font-weight="normal" text-decoration="normal" x="1094.3778686523438" y="145.40623474121094" text-anchor="start" dominant-baseline="text-after-edge">mul</text><path fill="none" stroke="#505050" paint-order="fill stroke markers" d=" M 1127.3778686523438 80.40623474121094 L 1135.3778686523438 80.40623474121094 L 1135.3778686523438 88.40623474121094 L 1127.3778686523438 88.40623474121094 L 1127.3778686523438 80.40623474121094 Z" stroke-miterlimit="10" stroke-width="0.5" stroke-dasharray="0"/><path fill="#e0e0e0" stroke="none" paint-order="stroke fill markers" d=" M 982.7124519348145 71.18754196166992 L 974.7124519348145 25.187541961669922 L 974.7124519348145 117.18754196166992 Z M 1054.3778686523438 108.40623474121094 L 1062.3778686523438 62.40623474121094 L 1062.3778686523438 154.40623474121094 Z"/><path fill="none" stroke="none"/><path fill="none" stroke="#e0e0e0" paint-order="fill stroke markers" d=" M 982.7124519348145 71.18754196166992 C 1006.9385674735538 71.18754196166992 1030.1517531136044 108.40623474121094 1054.3778686523438 108.40623474121094" stroke-miterlimit="10" stroke-width="2" stroke-dasharray="0"/><path fill="white" stroke="#505050" paint-order="fill stroke markers" d=" M 1145.3778686523438 76.40623474121094 L 1153.3778686523438 76.40623474121094 L 1161.3778686523438 84.40623474121094 L 1153.3778686523438 92.40623474121094 L 1145.3778686523438 92.40623474121094 L 1145.3778686523438 76.40623474121094" stroke-miterlimit="10" stroke-width="0.5" stroke-dasharray="0"/><path fill="none" stroke="#505050" paint-order="fill stroke markers" d=" M 1145.3778686523438 80.40623474121094 L 1153.3778686523438 80.40623474121094 L 1153.3778686523438 88.40623474121094 L 1145.3778686523438 88.40623474121094 L 1145.3778686523438 80.40623474121094 Z" stroke-miterlimit="10" stroke-width="0.5" stroke-dasharray="0"/><path fill="none" stroke="none"/><path fill="white" stroke="#505050" paint-order="fill stroke markers" d=" M 1014.112419128418 137.35314178466797 L 1046.112419128418 137.35314178466797 L 1054.112419128418 162.35314178466797 L 1046.112419128418 187.35314178466797 L 1014.112419128418 187.35314178466797 L 1014.112419128418 137.35314178466797" stroke-miterlimit="10" stroke-width="0.5" stroke-dasharray="0"/><path fill="none" stroke="#505050" paint-order="fill stroke markers" d=" M 1022.112419128418 141.35314178466797 L 1046.112419128418 141.35314178466797 L 1046.112419128418 183.35314178466797 L 1022.112419128418 183.35314178466797 L 1022.112419128418 141.35314178466797 Z" stroke-miterlimit="10" stroke-width="0.5" stroke-dasharray="0"/><text fill="#505050" stroke="none" font-family="monospace" font-size="14px" font-style="normal" font-weight="normal" text-decoration="normal" x="1034.112419128418" y="159.35314178466797" text-anchor="middle" dominant-baseline="text-after-edge">*</text><path fill="none" stroke="#505050" paint-order="fill stroke markers" d=" M 1022.112419128418 159.35314178466797 L 1030.112419128418 159.35314178466797 L 1030.112419128418 167.35314178466797 L 1022.112419128418 167.35314178466797 L 1022.112419128418 159.35314178466797 Z" stroke-miterlimit="10" stroke-width="0.5" stroke-dasharray="0"/><path fill="none" stroke="#505050" paint-order="fill stroke markers" d=" M 1022.112419128418 171.35314178466797 L 1030.112419128418 171.35314178466797 L 1030.112419128418 179.35314178466797 L 1022.112419128418 179.35314178466797 L 1022.112419128418 171.35314178466797 Z" stroke-miterlimit="10" stroke-width="0.5" stroke-dasharray="0"/><path fill="none" stroke="#505050" paint-order="fill stroke markers" d=" M 1038.112419128418 159.35314178466797 L 1046.112419128418 159.35314178466797 L 1046.112419128418 167.35314178466797 L 1038.112419128418 167.35314178466797 L 1038.112419128418 159.35314178466797 Z" stroke-miterlimit="10" stroke-width="0.5" stroke-dasharray="0"/><path fill="none" stroke="#505050" paint-order="fill stroke markers" d=" M 1022.112419128418 141.35314178466797 L 1046.112419128418 141.35314178466797 L 1046.112419128418 183.35314178466797 L 1022.112419128418 183.35314178466797 L 1022.112419128418 141.35314178466797 Z" stroke-miterlimit="10" stroke-width="0.5" stroke-dasharray="0"/><path fill="#F0F0F0" stroke="none" paint-order="stroke fill markers" d=""/><text fill="#505050" stroke="none" font-family="monospace" font-size="14px" font-style="normal" font-weight="normal" text-decoration="normal" x="1034.112419128418" y="159.35314178466797" text-anchor="middle" dominant-baseline="text-after-edge">*</text><path fill="none" stroke="#505050" paint-order="fill stroke markers" d=" M 1022.112419128418 159.35314178466797 L 1030.112419128418 159.35314178466797 L 1030.112419128418 167.35314178466797 L 1022.112419128418 167.35314178466797 L 1022.112419128418 159.35314178466797 Z" stroke-miterlimit="10" stroke-width="0.5" stroke-dasharray="0"/><path fill="none" stroke="#505050" paint-order="fill stroke markers" d=" M 1022.112419128418 171.35314178466797 L 1030.112419128418 171.35314178466797 L 1030.112419128418 179.35314178466797 L 1022.112419128418 179.35314178466797 L 1022.112419128418 171.35314178466797 Z" stroke-miterlimit="10" stroke-width="0.5" stroke-dasharray="0"/><path fill="none" stroke="#505050" paint-order="fill stroke markers" d=" M 1038.112419128418 159.35314178466797 L 1046.112419128418 159.35314178466797 L 1046.112419128418 167.35314178466797 L 1038.112419128418 167.35314178466797 L 1038.112419128418 159.35314178466797 Z" stroke-miterlimit="10" stroke-width="0.5" stroke-dasharray="0"/><path fill="white" stroke="#505050" paint-order="fill stroke markers" d=" M 1012.5092520713806 87.04680252075195 L 1044.5092520713806 87.04680252075195 L 1044.5092520713806 105.04680252075195 L 1012.5092520713806 105.04680252075195 L 1012.5092520713806 87.04680252075195 Z" stroke-miterlimit="10" stroke-width="0.5" stroke-dasharray="0"/><path fill="#F0F0F0" stroke="none" paint-order="stroke fill markers" d=""/><path fill="none" stroke="#505050" paint-order="fill stroke markers" d=" M 1036.5092520713806 91.04680252075195 L 1044.5092520713806 91.04680252075195 L 1044.5092520713806 99.04680252075195 L 1036.5092520713806 99.04680252075195 L 1036.5092520713806 91.04680252075195 Z" stroke-miterlimit="10" stroke-width="0.5" stroke-dasharray="0"/><text fill="#505050" stroke="none" font-family="monospace" font-size="14px" font-style="normal" font-weight="normal" text-decoration="normal" x="1028.5092520713806" y="105.04680252075195" text-anchor="end" dominant-baseline="text-after-edge">1</text><path fill="white" stroke="#505050" paint-order="fill stroke markers" d=" M 1012.9341430664062 111.7906265258789 L 1044.9341430664062 111.7906265258789 L 1044.9341430664062 129.7906265258789 L 1012.9341430664062 129.7906265258789 L 1020.9341430664062 120.7906265258789 L 1012.9341430664062 111.7906265258789" stroke-miterlimit="10" stroke-width="0.5" stroke-dasharray="0"/><path fill="none" stroke="#505050" paint-order="fill stroke markers" d=" M 1036.9341430664062 115.7906265258789 L 1044.9341430664062 115.7906265258789 L 1044.9341430664062 123.7906265258789 L 1036.9341430664062 123.7906265258789 L 1036.9341430664062 115.7906265258789 Z" stroke-miterlimit="10" stroke-width="0.5" stroke-dasharray="0"/><text fill="#505050" stroke="none" font-family="monospace" font-size="14px" font-style="normal" font-weight="normal" text-decoration="normal" x="1028.9341430664062" y="129.7906265258789" text-anchor="end" dominant-baseline="text-after-edge">x</text><path fill="none" stroke="#505050" paint-order="fill stroke markers" d=" M 438.8968183994293 268.76879262924194 C 442.43133714231345 268.76879262924194 447.1435496565452 268.6625380516052 450.6780683994293 268.6625380516052" stroke-miterlimit="10" stroke-dasharray="0"/><path fill="none" stroke="#505050" paint-order="fill stroke markers" d=" M 397.8968183994293 280.76879262924194 C 402.69681839942933 280.76879262924194 409.0968183994293 280.76879262924194 413.8968183994293 280.76879262924194" stroke-miterlimit="10" stroke-dasharray="0"/><path fill="none" stroke="#505050" paint-order="fill stroke markers" d=" M 391.2311842441559 253.51879262924194 C 399.42669597006187 253.51879262924194 405.70130667352333 268.76879262924194 413.8968183994293 268.76879262924194" stroke-miterlimit="10" stroke-dasharray="0"/><path fill="none" stroke="#505050" paint-order="fill stroke markers" d=" M 439.156277179718 48.95936965942383 C 443.95627717971803 48.95936965942383 450.356277179718 48.95936965942383 455.156277179718 48.95936965942383" stroke-miterlimit="10" stroke-dasharray="0"/><path fill="none" stroke="#505050" paint-order="fill stroke markers" d=" M 398.79377031326294 60.10938262939453 C 403.70914108275133 60.10938262939453 410.2409064102296 60.95936965942383 415.156277179718 60.95936965942383" stroke-miterlimit="10" stroke-dasharray="0"/><path fill="none" stroke="#505050" paint-order="fill stroke markers" d=" M 399.156277179718 48.95936965942383 C 403.95627717971803 48.95936965942383 410.356277179718 48.95936965942383 415.156277179718 48.95936965942383" stroke-miterlimit="10" stroke-dasharray="0"/><path fill="none" stroke="#505050" paint-order="fill stroke markers" d=" M 476.4250273704529 125.13751220703125 C 479.47149741706676 125.13751220703125 483.5285512203234 124.82188415527344 486.57502126693726 124.82188415527344" stroke-miterlimit="10" stroke-dasharray="0"/><path fill="none" stroke="#505050" paint-order="fill stroke markers" d=" M 443.9812788963318 125.12187957763672 C 446.51440777986676 125.12187957763672 449.8918984869179 125.13751220703125 452.4250273704529 125.13751220703125" stroke-miterlimit="10" stroke-dasharray="0"/><path fill="none" stroke="#505050" paint-order="fill stroke markers" d=" M 394.9812788963318 125.12187957763672 C 399.7812788963318 125.12187957763672 406.1812788963318 125.12187957763672 410.9812788963318 125.12187957763672" stroke-miterlimit="10" stroke-dasharray="0"/><path fill="none" stroke="#505050" paint-order="fill stroke markers" d=" M 435.212525844574 188.97814559936523 C 440.012525844574 188.97814559936523 446.41252584457396 188.97814559936523 451.212525844574 188.97814559936523" stroke-miterlimit="10" stroke-dasharray="0"/><path fill="none" stroke="#505050" paint-order="fill stroke markers" d=" M 397.04065465927124 201 C 401.2922210701 201 406.9609594337452 200.97814559936523 411.212525844574 200.97814559936523" stroke-miterlimit="10" stroke-dasharray="0"/><path fill="none" stroke="#505050" paint-order="fill stroke markers" d=" M 392.728150844574 177.33752059936523 C 399.28146025721526 177.33752059936523 404.6592164319327 188.97814559936523 411.212525844574 188.97814559936523" stroke-miterlimit="10" stroke-dasharray="0"/><path fill="none" stroke="#505050" paint-order="fill stroke markers" d=" M 642.8595519959927 110.76875686645508 C 685.4220006062435 110.76875686645508 731.6889611588074 57.24636220932007 774.2514097690582 57.24636220932007" stroke-miterlimit="10" stroke-dasharray="0"/><path fill="none" stroke="#505050" paint-order="fill stroke markers" d=" M 798.2514097690582 45.24636220932007 C 808.4157847549999 45.24636220932007 821.9660631034291 44.85836935043335 832.1304380893707 44.85836935043335" stroke-miterlimit="10" stroke-dasharray="0"/><path fill="none" stroke="#505050" paint-order="fill stroke markers" d=" M 642.4501338899136 46.837562561035156 C 647.7974362181996 46.837562561035156 654.9246991766121 46.54062795639038 660.2720015048981 46.54062795639038" stroke-miterlimit="10" stroke-dasharray="0"/><path fill="none" stroke="#505050" paint-order="fill stroke markers" d=" M 702.2720015048981 46.54062795639038 C 723.869314541696 46.54062795639038 752.6540967322603 45.24636220932007 774.2514097690582 45.24636220932007" stroke-miterlimit="10" stroke-dasharray="0"/><path fill="none" stroke="#505050" paint-order="fill stroke markers" d=" M 642.4501338899136 46.837562561035156 C 671.2314299271779 46.837562561035156 644.1344387306494 137.80942916870117 672.9157347679138 137.80942916870117" stroke-miterlimit="10" stroke-dasharray="0"/><path fill="none" stroke="#505050" paint-order="fill stroke markers" d=" M 642.2689147889614 164.73442459106445 C 651.4686152661391 164.73442459106445 663.7160342907362 165.80942916870117 672.9157347679138 165.80942916870117" stroke-miterlimit="10" stroke-dasharray="0"/><path fill="none" stroke="#505050" paint-order="fill stroke markers" d=" M 642.8595519959927 110.76875686645508 C 658.1204163727425 110.76875686645508 657.654870391164 151.80942916870117 672.9157347679138 151.80942916870117" stroke-miterlimit="10" stroke-dasharray="0"/><path fill="none" stroke="#505050" paint-order="fill stroke markers" d=" M 642.4501338899136 46.837562561035156 C 684.8753932621476 46.837562561035156 720.9592253956798 120.1437759399414 763.3844847679138 120.1437759399414" stroke-miterlimit="10" stroke-dasharray="0"/><path fill="none" stroke="#505050" paint-order="fill stroke markers" d=" M 788.3844847679138 120.1437759399414 C 799.8463040679857 120.1437759399414 792.2570160537795 155.13750457763672 803.7188353538513 155.13750457763672" stroke-miterlimit="10" stroke-dasharray="0"/><path fill="none" stroke="#505050" paint-order="fill stroke markers" d=" M 737.9157347679138 151.80942916870117 C 759.7797387927851 151.80942916870117 781.85483132898 183.13750457763672 803.7188353538513 183.13750457763672" stroke-miterlimit="10" stroke-dasharray="0"/><path fill="none" stroke="#505050" paint-order="fill stroke markers" d=" M 737.9157347679138 137.80942916870117 C 759.7797387927851 137.80942916870117 781.85483132898 169.13750457763672 803.7188353538513 169.13750457763672" stroke-miterlimit="10" stroke-dasharray="0"/><path fill="none" stroke="#505050" paint-order="fill stroke markers" d=" M 876.7188353538513 155.13750457763672 C 916.8301498162054 155.13750457763672 734.1400953067041 69.24636220932007 774.2514097690582 69.24636220932007" stroke-miterlimit="10" stroke-dasharray="0"/><path fill="none" stroke="#505050" paint-order="fill stroke markers" d=" M 651.9561080932617 214.62812042236328 C 697.5403501514279 214.62812042236328 758.1345932956851 207.13750457763672 803.7188353538513 207.13750457763672" stroke-miterlimit="10" stroke-dasharray="0"/><path fill="none" stroke="#505050" paint-order="fill stroke markers" d=" M 742.6250854432583 367.7687072753906 C 759.0639376106906 367.7687072753906 774.5235501763177 393.5780944824219 790.96240234375 393.5780944824219" stroke-miterlimit="10" stroke-dasharray="0"/><path fill="none" stroke="#505050" paint-order="fill stroke markers" d=" M 742.6250854432583 367.7687072753906 C 759.3467105081432 367.7687072753906 774.3220393905289 340.1562194824219 791.0436644554138 340.1562194824219" stroke-miterlimit="10" stroke-dasharray="0"/><path fill="none" stroke="#505050" paint-order="fill stroke markers" d=" M 742.5313964784145 305.0812301635742 C 775.9987893561756 305.0812301635742 757.4950094659889 405.5780944824219 790.96240234375 405.5780944824219" stroke-miterlimit="10" stroke-dasharray="0"/><path fill="none" stroke="#505050" paint-order="fill stroke markers" d=" M 824.0436644554138 340.1562194824219 C 842.6782819630141 340.1562194824219 867.5215104220872 340.75934982299805 886.1561279296875 340.75934982299805" stroke-miterlimit="10" stroke-dasharray="0"/><path fill="none" stroke="#505050" paint-order="fill stroke markers" d=" M 743.0875545442104 269.68750762939453 C 746.2589136068423 269.68750762939453 750.4847931857507 269.4531021118164 753.6561522483826 269.4531021118164" stroke-miterlimit="10" stroke-dasharray="0"/><path fill="none" stroke="#505050" paint-order="fill stroke markers" d=" M 795.6561522483826 269.4531021118164 C 808.9254382441949 269.4531021118164 826.5899912525703 271.0218505859375 839.8592772483826 271.0218505859375" stroke-miterlimit="10" stroke-dasharray="0"/><path fill="none" stroke="#505050" paint-order="fill stroke markers" d=" M 742.5313964784145 305.0812301635742 C 772.4703332368751 305.0812301635742 809.920340489922 283.0218505859375 839.8592772483826 283.0218505859375" stroke-miterlimit="10" stroke-dasharray="0"/><path fill="none" stroke="#505050" paint-order="fill stroke markers" d=" M 823.96240234375 393.5780944824219 C 853.9114247959857 393.5780944824219 809.9102547961469 295.0218505859375 839.8592772483826 295.0218505859375" stroke-miterlimit="10" stroke-dasharray="0"/><path fill="none" stroke="#505050" paint-order="fill stroke markers" d=" M 863.8592772483826 271.0218505859375 C 878.8585926659202 271.0218505859375 870.9943369262123 315.8531036376953 885.99365234375 315.8531036376953" stroke-miterlimit="10" stroke-dasharray="0"/><path fill="none" stroke="#505050" paint-order="fill stroke markers" d=" M 742.6250854432583 367.7687072753906 C 757.8871223708041 367.7687072753906 775.781627527868 352.1562194824219 791.0436644554138 352.1562194824219" stroke-miterlimit="10" stroke-dasharray="0"/><path fill="none" stroke="#505050" paint-order="fill stroke markers" d=" M 1135.3778686523438 84.40623474121094 C 1138.3778686523438 84.40623474121094 1142.3778686523438 84.40623474121094 1145.3778686523438 84.40623474121094" stroke-miterlimit="10" stroke-dasharray="0"/><path fill="none" stroke="#505050" paint-order="fill stroke markers" d=" M 1044.5092520713806 95.04680252075195 C 1049.9637540562112 95.04680252075195 1056.9233666675132 98.40623474121094 1062.3778686523438 98.40623474121094" stroke-miterlimit="10" stroke-dasharray="0"/><path fill="none" stroke="#505050" paint-order="fill stroke markers" d=" M 1044.9341430664062 119.7906265258789 C 1050.6168494983124 119.7906265258789 1056.6951622204376 112.40623474121094 1062.3778686523438 112.40623474121094" stroke-miterlimit="10" stroke-dasharray="0"/><path fill="none" stroke="#505050" paint-order="fill stroke markers" d=" M 1044.0997314453125 71.37187194824219 C 1050.8346139376802 71.37187194824219 1055.642986159976 84.40623474121094 1062.3778686523438 84.40623474121094" stroke-miterlimit="10" stroke-dasharray="0"/><path fill="none" stroke="#505050" paint-order="fill stroke markers" d=" M 1046.112419128418 162.35314178466797 C 1055.2995087111067 162.35314178466797 1053.190779069655 136.40623474121094 1062.3778686523438 136.40623474121094" stroke-miterlimit="10" stroke-dasharray="0"/></g></g></svg>