<svg version="1.1" xmlns="http://www.w3.org/2000/svg" xmlns:xlink="http://www.w3.org/1999/xlink" width="917.7090401649475" height="403.7936592102051"><defs/><g transform="translate(-356.04065465927124,-16.187541961669922)"><g><path fill="white" stroke="#505050" paint-order="fill stroke markers" d=" M 357.8968183994293 245.51879262924194 L 357.8968183994293 298.76879262924194 Q 357.8968183994293 306.76879262924194 365.8968183994293 306.76879262924194 L 508.6936933994293 306.76879262924194 Q 516.6936933994293 306.76879262924194 516.6936933994293 298.76879262924194 L 516.6936933994293 245.51879262924194 Q 516.6936933994293 237.51879262924194 508.6936933994293 237.51879262924194 L 365.8968183994293 237.51879262924194 Q 357.8968183994293 237.51879262924194 357.8968183994293 245.51879262924194" stroke-miterlimit="10" stroke-width="0.5" stroke-dasharray=""/><path fill="#F0F0F0" stroke="#505050" paint-order="fill stroke markers" d=" M 474.6936933994293 245.51879262924194 L 516.6936933994293 245.51879262924194 L 516.6936933994293 275.51879262924194 L 474.6936933994293 275.51879262924194 L 474.6936933994293 245.51879262924194 Z" stroke-miterlimit="10" stroke-width="0.5" stroke-dasharray=""/><text fill="#505050" stroke="none" font-family="monospace" font-size="14px" font-style="normal" font-weight="normal" text-decoration="normal" x="495.6936933994293" y="263.51879262924194" text-anchor="middle" dominant-baseline="text-after-edge">== 0</text><path fill="none" stroke="#505050" paint-order="fill stroke markers" d=" M 474.6936933994293 263.51879262924194 L 482.6936933994293 263.51879262924194 L 482.6936933994293 271.51879262924194 L 474.6936933994293 271.51879262924194 L 474.6936933994293 263.51879262924194 Z" stroke-miterlimit="10" stroke-width="0.5" stroke-dasharray=""/><path fill="none" stroke="#505050" paint-order="fill stroke markers" d=" M 508.6936933994293 263.51879262924194 L 516.6936933994293 263.51879262924194 L 516.6936933994293 271.51879262924194 L 508.6936933994293 271.51879262924194 L 508.6936933994293 263.51879262924194 Z" stroke-miterlimit="10" stroke-width="0.5" stroke-dasharray=""/><path fill="white" stroke="#505050" paint-order="fill stroke markers" d=" M 413.8968183994293 246.76879262924194 L 438.8968183994293 246.76879262924194 L 438.8968183994293 288.76879262924194 L 413.8968183994293 288.76879262924194 L 413.8968183994293 246.76879262924194 Z" stroke-miterlimit="10" stroke-width="0.5" stroke-dasharray=""/><path fill="#F0F0F0" stroke="none" paint-order="stroke fill markers" d=""/><text fill="#505050" stroke="none" font-family="monospace" font-size="14px" font-style="normal" font-weight="normal" text-decoration="normal" x="426.3968183994293" y="264.76879262924194" text-anchor="middle" dominant-baseline="text-after-edge">==</text><path fill="none" stroke="#505050" paint-order="fill stroke markers" d=" M 413.8968183994293 264.76879262924194 L 421.8968183994293 264.76879262924194 L 421.8968183994293 272.76879262924194 L 413.8968183994293 272.76879262924194 L 413.8968183994293 264.76879262924194 Z" stroke-miterlimit="10" stroke-width="0.5" stroke-dasharray=""/><path fill="none" stroke="#505050" paint-order="fill stroke markers" d=" M 413.8968183994293 276.76879262924194 L 421.8968183994293 276.76879262924194 L 421.8968183994293 284.76879262924194 L 413.8968183994293 284.76879262924194 L 413.8968183994293 276.76879262924194 Z" stroke-miterlimit="10" stroke-width="0.5" stroke-dasharray=""/><path fill="none" stroke="#505050" paint-order="fill stroke markers" d=" M 430.8968183994293 264.76879262924194 L 438.8968183994293 264.76879262924194 L 438.8968183994293 272.76879262924194 L 430.8968183994293 272.76879262924194 L 430.8968183994293 264.76879262924194 Z" stroke-miterlimit="10" stroke-width="0.5" stroke-dasharray=""/><path fill="white" stroke="#505050" paint-order="fill stroke markers" d=" M 450.6780683994293 260.6625380516052 L 458.6780683994293 260.6625380516052 L 466.6780683994293 268.6625380516052 L 458.6780683994293 276.6625380516052 L 450.6780683994293 276.6625380516052 L 450.6780683994293 260.6625380516052" stroke-miterlimit="10" stroke-width="0.5" stroke-dasharray=""/><path fill="none" stroke="#505050" paint-order="fill stroke markers" d=" M 450.6780683994293 264.6625380516052 L 458.6780683994293 264.6625380516052 L 458.6780683994293 272.6625380516052 L 450.6780683994293 272.6625380516052 L 450.6780683994293 264.6625380516052 Z" stroke-miterlimit="10" stroke-width="0.5" stroke-dasharray=""/><path fill="white" stroke="#505050" paint-order="fill stroke markers" d=" M 365.8968183994293 272.76879262924194 L 397.8968183994293 272.76879262924194 L 397.8968183994293 290.76879262924194 L 365.8968183994293 290.76879262924194 L 365.8968183994293 272.76879262924194 Z" stroke-miterlimit="10" stroke-width="0.5" stroke-dasharray=""/><path fill="#F0F0F0" stroke="none" paint-order="stroke fill markers" d=""/><path fill="none" stroke="#505050" paint-order="fill stroke markers" d=" M 389.8968183994293 276.76879262924194 L 397.8968183994293 276.76879262924194 L 397.8968183994293 284.76879262924194 L 389.8968183994293 284.76879262924194 L 389.8968183994293 276.76879262924194 Z" stroke-miterlimit="10" stroke-width="0.5" stroke-dasharray=""/><text fill="#505050" stroke="none" font-family="monospace" font-size="14px" font-style="normal" font-weight="normal" text-decoration="normal" x="381.8968183994293" y="290.76879262924194" text-anchor="end" dominant-baseline="text-after-edge">0</text><path fill="white" stroke="#505050" paint-order="fill stroke markers" d=" M 375.2311842441559 245.51879262924194 L 391.2311842441559 245.51879262924194 L 391.2311842441559 261.51879262924194 L 375.2311842441559 261.51879262924194 L 383.2311842441559 253.51879262924194 L 375.2311842441559 245.51879262924194" stroke-miterlimit="10" stroke-width="0.5" stroke-dasharray=""/><path fill="none" stroke="#505050" paint-order="fill stroke markers" d=" M 383.2311842441559 249.51879262924194 L 391.2311842441559 249.51879262924194 L 391.2311842441559 257.51879262924194 L 383.2311842441559 257.51879262924194 L 383.2311842441559 249.51879262924194 Z" stroke-miterlimit="10" stroke-width="0.5" stroke-dasharray=""/><path fill="white" stroke="#505050" paint-order="fill stroke markers" d=" M 358.79377031326294 26.959369659423828 L 358.79377031326294 78.10938262939453 Q 358.79377031326294 86.10938262939453 366.79377031326294 86.10938262939453 L 505.3937954902649 86.10938262939453 Q 513.3937954902649 86.10938262939453 513.3937954902649 78.10938262939453 L 513.3937954902649 26.959369659423828 Q 513.3937954902649 18.959369659423828 505.3937954902649 18.959369659423828 L 366.79377031326294 18.959369659423828 Q 358.79377031326294 18.959369659423828 358.79377031326294 26.959369659423828" stroke-miterlimit="10" stroke-width="0.5" stroke-dasharray=""/><path fill="#F0F0F0" stroke="#505050" paint-order="fill stroke markers" d=" M 480.3937954902649 26.959369659423828 L 513.3937954902649 26.959369659423828 L 513.3937954902649 56.95936965942383 L 480.3937954902649 56.95936965942383 L 480.3937954902649 26.959369659423828 Z" stroke-miterlimit="10" stroke-width="0.5" stroke-dasharray=""/><text fill="#505050" stroke="none" font-family="monospace" font-size="14px" font-style="normal" font-weight="normal" text-decoration="normal" x="496.8937954902649" y="44.95936965942383" text-anchor="middle" dominant-baseline="text-after-edge">odd</text><path fill="none" stroke="#505050" paint-order="fill stroke markers" d=" M 480.3937954902649 44.95936965942383 L 488.3937954902649 44.95936965942383 L 488.3937954902649 52.95936965942383 L 480.3937954902649 52.95936965942383 L 480.3937954902649 44.95936965942383 Z" stroke-miterlimit="10" stroke-width="0.5" stroke-dasharray=""/><path fill="none" stroke="#505050" paint-order="fill stroke markers" d=" M 505.3937954902649 44.95936965942383 L 513.3937954902649 44.95936965942383 L 513.3937954902649 52.95936965942383 L 505.3937954902649 52.95936965942383 L 505.3937954902649 44.95936965942383 Z" stroke-miterlimit="10" stroke-width="0.5" stroke-dasharray=""/><path fill="white" stroke="#505050" paint-order="fill stroke markers" d=" M 383.156277179718 40.95936965942383 L 399.156277179718 40.95936965942383 L 399.156277179718 56.95936965942383 L 383.156277179718 56.95936965942383 L 391.156277179718 48.95936965942383 L 383.156277179718 40.95936965942383" stroke-miterlimit="10" stroke-width="0.5" stroke-dasharray=""/><path fill="none" stroke="#505050" paint-order="fill stroke markers" d=" M 391.156277179718 44.95936965942383 L 399.156277179718 44.95936965942383 L 399.156277179718 52.95936965942383 L 391.156277179718 52.95936965942383 L 391.156277179718 44.95936965942383 Z" stroke-miterlimit="10" stroke-width="0.5" stroke-dasharray=""/><path fill="white" stroke="#505050" paint-order="fill stroke markers" d=" M 415.156277179718 26.959369659423828 L 439.156277179718 26.959369659423828 L 439.156277179718 68.95936965942383 L 415.156277179718 68.95936965942383 L 415.156277179718 26.959369659423828 Z" stroke-miterlimit="10" stroke-width="0.5" stroke-dasharray=""/><path fill="#F0F0F0" stroke="none" paint-order="stroke fill markers" d=""/><text fill="#505050" stroke="none" font-family="monospace" font-size="14px" font-style="normal" font-weight="normal" text-decoration="normal" x="427.156277179718" y="44.95936965942383" text-anchor="middle" dominant-baseline="text-after-edge">&amp;</text><path fill="none" stroke="#505050" paint-order="fill stroke markers" d=" M 415.156277179718 44.95936965942383 L 423.156277179718 44.95936965942383 L 423.156277179718 52.95936965942383 L 415.156277179718 52.95936965942383 L 415.156277179718 44.95936965942383 Z" stroke-miterlimit="10" stroke-width="0.5" stroke-dasharray=""/><path fill="none" stroke="#505050" paint-order="fill stroke markers" d=" M 415.156277179718 56.95936965942383 L 423.156277179718 56.95936965942383 L 423.156277179718 64.95936965942383 L 415.156277179718 64.95936965942383 L 415.156277179718 56.95936965942383 Z" stroke-miterlimit="10" stroke-width="0.5" stroke-dasharray=""/><path fill="none" stroke="#505050" paint-order="fill stroke markers" d=" M 431.156277179718 44.95936965942383 L 439.156277179718 44.95936965942383 L 439.156277179718 52.95936965942383 L 431.156277179718 52.95936965942383 L 431.156277179718 44.95936965942383 Z" stroke-miterlimit="10" stroke-width="0.5" stroke-dasharray=""/><path fill="white" stroke="#505050" paint-order="fill stroke markers" d=" M 455.156277179718 40.95936965942383 L 463.156277179718 40.95936965942383 L 471.156277179718 48.95936965942383 L 463.156277179718 56.95936965942383 L 455.156277179718 56.95936965942383 L 455.156277179718 40.95936965942383" stroke-miterlimit="10" stroke-width="0.5" stroke-dasharray=""/><path fill="none" stroke="#505050" paint-order="fill stroke markers" d=" M 455.156277179718 44.95936965942383 L 463.156277179718 44.95936965942383 L 463.156277179718 52.95936965942383 L 455.156277179718 52.95936965942383 L 455.156277179718 44.95936965942383 Z" stroke-miterlimit="10" stroke-width="0.5" stroke-dasharray=""/><path fill="white" stroke="#505050" paint-order="fill stroke markers" d=" M 366.79377031326294 52.10938262939453 L 398.79377031326294 52.10938262939453 L 398.79377031326294 70.10938262939453 L 366.79377031326294 70.10938262939453 L 366.79377031326294 52.10938262939453 Z" stroke-miterlimit="10" stroke-width="0.5" stroke-dasharray=""/><path fill="#F0F0F0" stroke="none" paint-order="stroke fill markers" d=""/><path fill="none" stroke="#505050" paint-order="fill stroke markers" d=" M 390.79377031326294 56.10938262939453 L 398.79377031326294 56.10938262939453 L 398.79377031326294 64.10938262939453 L 390.79377031326294 64.10938262939453 L 390.79377031326294 56.10938262939453 Z" stroke-miterlimit="10" stroke-width="0.5" stroke-dasharray=""/><text fill="#505050" stroke="none" font-family="monospace" font-size="14px" font-style="normal" font-weight="normal" text-decoration="normal" x="382.79377031326294" y="70.10938262939453" text-anchor="end" dominant-baseline="text-after-edge">1</text><path fill="white" stroke="#505050" paint-order="fill stroke markers" d=" M 357.1750235557556 102.04376220703125 L 357.1750235557556 141.13751220703125 Q 357.1750235557556 149.13751220703125 365.1750235557556 149.13751220703125 L 543.6187682151794 149.13751220703125 Q 551.6187682151794 149.13751220703125 551.6187682151794 141.13751220703125 L 551.6187682151794 102.04376220703125 Q 551.6187682151794 94.04376220703125 543.6187682151794 94.04376220703125 L 365.1750235557556 94.04376220703125 Q 357.1750235557556 94.04376220703125 357.1750235557556 102.04376220703125" stroke-miterlimit="10" stroke-width="0.5" stroke-dasharray=""/><path fill="#F0F0F0" stroke="#505050" paint-order="fill stroke markers" d=" M 509.61876821517944 102.04376220703125 L 551.6187682151794 102.04376220703125 L 551.6187682151794 132.04376220703125 L 509.61876821517944 132.04376220703125 L 509.61876821517944 102.04376220703125 Z" stroke-miterlimit="10" stroke-width="0.5" stroke-dasharray=""/><text fill="#505050" stroke="none" font-family="monospace" font-size="14px" font-style="normal" font-weight="normal" text-decoration="normal" x="530.6187682151794" y="120.04376220703125" text-anchor="middle" dominant-baseline="text-after-edge">even</text><path fill="none" stroke="#505050" paint-order="fill stroke markers" d=" M 509.61876821517944 120.04376220703125 L 517.6187682151794 120.04376220703125 L 517.6187682151794 128.04376220703125 L 509.61876821517944 128.04376220703125 L 509.61876821517944 120.04376220703125 Z" stroke-miterlimit="10" stroke-width="0.5" stroke-dasharray=""/><path fill="none" stroke="#505050" paint-order="fill stroke markers" d=" M 543.6187682151794 120.04376220703125 L 551.6187682151794 120.04376220703125 L 551.6187682151794 128.04376220703125 L 543.6187682151794 128.04376220703125 L 543.6187682151794 120.04376220703125 Z" stroke-miterlimit="10" stroke-width="0.5" stroke-dasharray=""/><path fill="white" stroke="#505050" paint-order="fill stroke markers" d=" M 452.4250273704529 103.13751220703125 L 476.4250273704529 103.13751220703125 L 476.4250273704529 133.13751220703125 L 452.4250273704529 133.13751220703125 L 452.4250273704529 103.13751220703125 Z" stroke-miterlimit="10" stroke-width="0.5" stroke-dasharray=""/><path fill="#F0F0F0" stroke="none" paint-order="stroke fill markers" d=""/><text fill="#505050" stroke="none" font-family="monospace" font-size="14px" font-style="normal" font-weight="normal" text-decoration="normal" x="464.4250273704529" y="121.13751220703125" text-anchor="middle" dominant-baseline="text-after-edge">!</text><path fill="none" stroke="#505050" paint-order="fill stroke markers" d=" M 452.4250273704529 121.13751220703125 L 460.4250273704529 121.13751220703125 L 460.4250273704529 129.13751220703125 L 452.4250273704529 129.13751220703125 L 452.4250273704529 121.13751220703125 Z" stroke-miterlimit="10" stroke-width="0.5" stroke-dasharray=""/><path fill="none" stroke="#505050" paint-order="fill stroke markers" d=" M 468.4250273704529 121.13751220703125 L 476.4250273704529 121.13751220703125 L 476.4250273704529 129.13751220703125 L 468.4250273704529 129.13751220703125 L 468.4250273704529 121.13751220703125 Z" stroke-miterlimit="10" stroke-width="0.5" stroke-dasharray=""/><path fill="white" stroke="#505050" paint-order="fill stroke markers" d=" M 486.57502126693726 116.82188415527344 L 494.57502126693726 116.82188415527344 L 502.57502126693726 124.82188415527344 L 494.57502126693726 132.82188415527344 L 486.57502126693726 132.82188415527344 L 486.57502126693726 116.82188415527344" stroke-miterlimit="10" stroke-width="0.5" stroke-dasharray=""/><path fill="none" stroke="#505050" paint-order="fill stroke markers" d=" M 486.57502126693726 120.82188415527344 L 494.57502126693726 120.82188415527344 L 494.57502126693726 128.82188415527344 L 486.57502126693726 128.82188415527344 L 486.57502126693726 120.82188415527344 Z" stroke-miterlimit="10" stroke-width="0.5" stroke-dasharray=""/><path fill="white" stroke="#505050" paint-order="fill stroke markers" d=" M 378.9812788963318 117.12187957763672 L 394.9812788963318 117.12187957763672 L 394.9812788963318 133.12187957763672 L 378.9812788963318 133.12187957763672 L 386.9812788963318 125.12187957763672 L 378.9812788963318 117.12187957763672" stroke-miterlimit="10" stroke-width="0.5" stroke-dasharray=""/><path fill="none" stroke="#505050" paint-order="fill stroke markers" d=" M 386.9812788963318 121.12187957763672 L 394.9812788963318 121.12187957763672 L 394.9812788963318 129.12187957763672 L 386.9812788963318 129.12187957763672 L 386.9812788963318 121.12187957763672 Z" stroke-miterlimit="10" stroke-width="0.5" stroke-dasharray=""/><path fill="white" stroke="#505050" paint-order="fill stroke markers" d=" M 410.9812788963318 103.12187957763672 L 443.9812788963318 103.12187957763672 L 443.9812788963318 133.12187957763672 L 410.9812788963318 133.12187957763672 L 410.9812788963318 103.12187957763672 Z" stroke-miterlimit="10" stroke-width="0.5" stroke-dasharray=""/><path fill="#F0F0F0" stroke="none" paint-order="stroke fill markers" d=""/><text fill="#505050" stroke="none" font-family="monospace" font-size="14px" font-style="normal" font-weight="normal" text-decoration="normal" x="427.4812788963318" y="121.12187957763672" text-anchor="middle" dominant-baseline="text-after-edge">odd</text><path fill="none" stroke="#505050" paint-order="fill stroke markers" d=" M 410.9812788963318 121.12187957763672 L 418.9812788963318 121.12187957763672 L 418.9812788963318 129.12187957763672 L 410.9812788963318 129.12187957763672 L 410.9812788963318 121.12187957763672 Z" stroke-miterlimit="10" stroke-width="0.5" stroke-dasharray=""/><path fill="none" stroke="#505050" paint-order="fill stroke markers" d=" M 435.9812788963318 121.12187957763672 L 443.9812788963318 121.12187957763672 L 443.9812788963318 129.12187957763672 L 435.9812788963318 129.12187957763672 L 435.9812788963318 121.12187957763672 Z" stroke-miterlimit="10" stroke-width="0.5" stroke-dasharray=""/><path fill="white" stroke="#505050" paint-order="fill stroke markers" d=" M 357.04065465927124 166.97814559936523 L 357.04065465927124 219 Q 357.04065465927124 227 365.04065465927124 227 L 487.92814779281616 227 Q 495.92814779281616 227 495.92814779281616 219 L 495.92814779281616 166.97814559936523 Q 495.92814779281616 158.97814559936523 487.92814779281616 158.97814559936523 L 365.04065465927124 158.97814559936523 Q 357.04065465927124 158.97814559936523 357.04065465927124 166.97814559936523" stroke-miterlimit="10" stroke-width="0.5" stroke-dasharray=""/><path fill="#F0F0F0" stroke="#505050" paint-order="fill stroke markers" d=" M 470.92814779281616 166.97814559936523 L 495.92814779281616 166.97814559936523 L 495.92814779281616 196.97814559936523 L 470.92814779281616 196.97814559936523 L 470.92814779281616 166.97814559936523 Z" stroke-miterlimit="10" stroke-width="0.5" stroke-dasharray=""/><text fill="#505050" stroke="none" font-family="monospace" font-size="14px" font-style="normal" font-weight="normal" text-decoration="normal" x="483.42814779281616" y="184.97814559936523" text-anchor="middle" dominant-baseline="text-after-edge">/2</text><path fill="none" stroke="#505050" paint-order="fill stroke markers" d=" M 470.92814779281616 184.97814559936523 L 478.92814779281616 184.97814559936523 L 478.92814779281616 192.97814559936523 L 470.92814779281616 192.97814559936523 L 470.92814779281616 184.97814559936523 Z" stroke-miterlimit="10" stroke-width="0.5" stroke-dasharray=""/><path fill="none" stroke="#505050" paint-order="fill stroke markers" d=" M 487.92814779281616 184.97814559936523 L 495.92814779281616 184.97814559936523 L 495.92814779281616 192.97814559936523 L 487.92814779281616 192.97814559936523 L 487.92814779281616 184.97814559936523 Z" stroke-miterlimit="10" stroke-width="0.5" stroke-dasharray=""/><path fill="white" stroke="#505050" paint-order="fill stroke markers" d=" M 376.728150844574 169.33752059936523 L 392.728150844574 169.33752059936523 L 392.728150844574 185.33752059936523 L 376.728150844574 185.33752059936523 L 384.728150844574 177.33752059936523 L 376.728150844574 169.33752059936523" stroke-miterlimit="10" stroke-width="0.5" stroke-dasharray=""/><path fill="none" stroke="#505050" paint-order="fill stroke markers" d=" M 384.728150844574 173.33752059936523 L 392.728150844574 173.33752059936523 L 392.728150844574 181.33752059936523 L 384.728150844574 181.33752059936523 L 384.728150844574 173.33752059936523 Z" stroke-miterlimit="10" stroke-width="0.5" stroke-dasharray=""/><path fill="white" stroke="#505050" paint-order="fill stroke markers" d=" M 411.212525844574 166.97814559936523 L 435.212525844574 166.97814559936523 L 435.212525844574 208.97814559936523 L 411.212525844574 208.97814559936523 L 411.212525844574 166.97814559936523 Z" stroke-miterlimit="10" stroke-width="0.5" stroke-dasharray=""/><path fill="#F0F0F0" stroke="none" paint-order="stroke fill markers" d=""/><text fill="#505050" stroke="none" font-family="monospace" font-size="14px" font-style="normal" font-weight="normal" text-decoration="normal" x="423.212525844574" y="184.97814559936523" text-anchor="middle" dominant-baseline="text-after-edge">/</text><path fill="none" stroke="#505050" paint-order="fill stroke markers" d=" M 411.212525844574 184.97814559936523 L 419.212525844574 184.97814559936523 L 419.212525844574 192.97814559936523 L 411.212525844574 192.97814559936523 L 411.212525844574 184.97814559936523 Z" stroke-miterlimit="10" stroke-width="0.5" stroke-dasharray=""/><path fill="none" stroke="#505050" paint-order="fill stroke markers" d=" M 411.212525844574 196.97814559936523 L 419.212525844574 196.97814559936523 L 419.212525844574 204.97814559936523 L 411.212525844574 204.97814559936523 L 411.212525844574 196.97814559936523 Z" stroke-miterlimit="10" stroke-width="0.5" stroke-dasharray=""/><path fill="none" stroke="#505050" paint-order="fill stroke markers" d=" M 427.212525844574 184.97814559936523 L 435.212525844574 184.97814559936523 L 435.212525844574 192.97814559936523 L 427.212525844574 192.97814559936523 L 427.212525844574 184.97814559936523 Z" stroke-miterlimit="10" stroke-width="0.5" stroke-dasharray=""/><path fill="white" stroke="#505050" paint-order="fill stroke markers" d=" M 451.212525844574 180.97814559936523 L 459.212525844574 180.97814559936523 L 467.212525844574 188.97814559936523 L 459.212525844574 196.97814559936523 L 451.212525844574 196.97814559936523 L 451.212525844574 180.97814559936523" stroke-miterlimit="10" stroke-width="0.5" stroke-dasharray=""/><path fill="none" stroke="#505050" paint-order="fill stroke markers" d=" M 451.212525844574 184.97814559936523 L 459.212525844574 184.97814559936523 L 459.212525844574 192.97814559936523 L 451.212525844574 192.97814559936523 L 451.212525844574 184.97814559936523 Z" stroke-miterlimit="10" stroke-width="0.5" stroke-dasharray=""/><path fill="white" stroke="#505050" paint-order="fill stroke markers" d=" M 365.04065465927124 193 L 397.04065465927124 193 L 397.04065465927124 211 L 365.04065465927124 211 L 365.04065465927124 193 Z" stroke-miterlimit="10" stroke-width="0.5" stroke-dasharray=""/><path fill="#F0F0F0" stroke="none" paint-order="stroke fill markers" d=""/><path fill="none" stroke="#505050" paint-order="fill stroke markers" d=" M 389.04065465927124 197 L 397.04065465927124 197 L 397.04065465927124 205 L 389.04065465927124 205 L 389.04065465927124 197 Z" stroke-miterlimit="10" stroke-width="0.5" stroke-dasharray=""/><text fill="#505050" stroke="none" font-family="monospace" font-size="14px" font-style="normal" font-weight="normal" text-decoration="normal" x="381.04065465927124" y="211" text-anchor="end" dominant-baseline="text-after-edge">2</text><path fill="white" stroke="#505050" paint-order="fill stroke markers" d=" M 596.9532104432583 25.187541961669922 L 596.9532104432583 410.981201171875 Q 596.9532104432583 418.981201171875 604.9532104432583 418.981201171875 L 1019.9000129699707 418.981201171875 Q 1027.9000129699707 418.981201171875 1027.9000129699707 410.981201171875 L 1027.9000129699707 25.187541961669922 Q 1027.9000129699707 17.187541961669922 1019.9000129699707 17.187541961669922 L 604.9532104432583 17.187541961669922 Q 596.9532104432583 17.187541961669922 596.9532104432583 25.187541961669922" stroke-miterlimit="10" stroke-width="0.5" stroke-dasharray=""/><path fill="#F0F0F0" stroke="#505050" paint-order="fill stroke markers" d=" M 954.9000129699707 25.187541961669922 L 1027.9000129699707 25.187541961669922 L 1027.9000129699707 117.18754196166992 L 954.9000129699707 117.18754196166992 L 954.9000129699707 25.187541961669922 Z" stroke-miterlimit="10" stroke-width="0.5" stroke-dasharray=""/><text fill="#505050" stroke="none" font-family="monospace" font-size="14px" font-style="normal" font-weight="normal" text-decoration="normal" x="991.4000129699707" y="43.18754196166992" text-anchor="middle" dominant-baseline="text-after-edge">expStep</text><path fill="none" stroke="#505050" paint-order="fill stroke markers" d=" M 954.9000129699707 43.18754196166992 L 962.9000129699707 43.18754196166992 L 962.9000129699707 51.18754196166992 L 954.9000129699707 51.18754196166992 L 954.9000129699707 43.18754196166992 Z" stroke-miterlimit="10" stroke-width="0.5" stroke-dasharray=""/><text fill="#505050" stroke="none" font-family="monospace" font-size="14px" font-style="normal" font-weight="normal" text-decoration="normal" x="970.9000129699707" y="57.18754196166992" text-anchor="start" dominant-baseline="text-after-edge">n</text><path fill="none" stroke="#505050" paint-order="fill stroke markers" d=" M 954.9000129699707 57.18754196166992 L 962.9000129699707 57.18754196166992 L 962.9000129699707 65.18754196166992 L 954.9000129699707 65.18754196166992 L 954.9000129699707 57.18754196166992 Z" stroke-miterlimit="10" stroke-width="0.5" stroke-dasharray=""/><text fill="#505050" stroke="none" font-family="monospace" font-size="14px" font-style="normal" font-weight="normal" text-decoration="normal" x="970.9000129699707" y="71.18754196166992" text-anchor="start" dominant-baseline="text-after-edge">y</text><path fill="none" stroke="#505050" paint-order="fill stroke markers" d=" M 954.9000129699707 71.18754196166992 L 962.9000129699707 71.18754196166992 L 962.9000129699707 79.18754196166992 L 954.9000129699707 79.18754196166992 L 954.9000129699707 71.18754196166992 Z" stroke-miterlimit="10" stroke-width="0.5" stroke-dasharray=""/><text fill="#505050" stroke="none" font-family="monospace" font-size="14px" font-style="normal" font-weight="normal" text-decoration="normal" x="970.9000129699707" y="85.18754196166992" text-anchor="start" dominant-baseline="text-after-edge">x</text><path fill="none" stroke="#505050" paint-order="fill stroke markers" d=" M 954.9000129699707 85.18754196166992 L 978.9000129699707 85.18754196166992 L 978.9000129699707 113.18754196166992 L 954.9000129699707 113.18754196166992 L 954.9000129699707 85.18754196166992 Z" stroke-miterlimit="10" stroke-width="0.5" stroke-dasharray=""/><path fill="none" stroke="#505050" paint-order="fill stroke markers" d=" M 954.9000129699707 89.18754196166992 L 962.9000129699707 89.18754196166992 L 962.9000129699707 97.18754196166992 L 954.9000129699707 97.18754196166992 L 954.9000129699707 89.18754196166992 Z" stroke-miterlimit="10" stroke-width="0.5" stroke-dasharray=""/><path fill="none" stroke="#505050" paint-order="fill stroke markers" d=" M 954.9000129699707 101.18754196166992 L 962.9000129699707 101.18754196166992 L 962.9000129699707 109.18754196166992 L 954.9000129699707 109.18754196166992 L 954.9000129699707 101.18754196166992 Z" stroke-miterlimit="10" stroke-width="0.5" stroke-dasharray=""/><path fill="none" stroke="#505050" paint-order="fill stroke markers" d=" M 970.9000129699707 89.18754196166992 L 978.9000129699707 89.18754196166992 L 978.9000129699707 97.18754196166992 L 970.9000129699707 97.18754196166992 L 970.9000129699707 89.18754196166992 Z" stroke-miterlimit="10" stroke-width="0.5" stroke-dasharray=""/><text fill="#505050" stroke="none" font-family="monospace" font-size="14px" font-style="normal" font-weight="normal" text-decoration="normal" x="986.9000129699707" y="108.18754196166992" text-anchor="start" dominant-baseline="text-after-edge">mul</text><path fill="none" stroke="#505050" paint-order="fill stroke markers" d=" M 1019.9000129699707 43.18754196166992 L 1027.9000129699707 43.18754196166992 L 1027.9000129699707 51.18754196166992 L 1019.9000129699707 51.18754196166992 L 1019.9000129699707 43.18754196166992 Z" stroke-miterlimit="10" stroke-width="0.5" stroke-dasharray=""/><path fill="white" stroke="#505050" paint-order="fill stroke markers" d=" M 604.8782344758511 48.43444061279297 L 636.8782344758511 48.43444061279297 L 636.8782344758511 66.43444061279297 L 604.8782344758511 66.43444061279297 L 612.8782344758511 57.43444061279297 L 604.8782344758511 48.43444061279297" stroke-miterlimit="10" stroke-width="0.5" stroke-dasharray=""/><path fill="none" stroke="#505050" paint-order="fill stroke markers" d=" M 628.8782344758511 52.43444061279297 L 636.8782344758511 52.43444061279297 L 636.8782344758511 60.43444061279297 L 628.8782344758511 60.43444061279297 L 628.8782344758511 52.43444061279297 Z" stroke-miterlimit="10" stroke-width="0.5" stroke-dasharray=""/><text fill="#505050" stroke="none" font-family="monospace" font-size="14px" font-style="normal" font-weight="normal" text-decoration="normal" x="620.8782344758511" y="66.43444061279297" text-anchor="end" dominant-baseline="text-after-edge">n</text><path fill="white" stroke="#505050" paint-order="fill stroke markers" d=" M 605.2564636170864 155.5250587463379 L 637.2564636170864 155.5250587463379 L 637.2564636170864 173.5250587463379 L 605.2564636170864 173.5250587463379 L 613.2564636170864 164.5250587463379 L 605.2564636170864 155.5250587463379" stroke-miterlimit="10" stroke-width="0.5" stroke-dasharray=""/><path fill="none" stroke="#505050" paint-order="fill stroke markers" d=" M 629.2564636170864 159.5250587463379 L 637.2564636170864 159.5250587463379 L 637.2564636170864 167.5250587463379 L 629.2564636170864 167.5250587463379 L 629.2564636170864 159.5250587463379 Z" stroke-miterlimit="10" stroke-width="0.5" stroke-dasharray=""/><text fill="#505050" stroke="none" font-family="monospace" font-size="14px" font-style="normal" font-weight="normal" text-decoration="normal" x="621.2564636170864" y="173.5250587463379" text-anchor="end" dominant-baseline="text-after-edge">x</text><path fill="white" stroke="#505050" paint-order="fill stroke markers" d=" M 603.9220519959927 89.07188034057617 L 635.9220519959927 89.07188034057617 L 635.9220519959927 107.07188034057617 L 603.9220519959927 107.07188034057617 L 611.9220519959927 98.07188034057617 L 603.9220519959927 89.07188034057617" stroke-miterlimit="10" stroke-width="0.5" stroke-dasharray=""/><path fill="none" stroke="#505050" paint-order="fill stroke markers" d=" M 627.9220519959927 93.07188034057617 L 635.9220519959927 93.07188034057617 L 635.9220519959927 101.07188034057617 L 627.9220519959927 101.07188034057617 L 627.9220519959927 93.07188034057617 Z" stroke-miterlimit="10" stroke-width="0.5" stroke-dasharray=""/><text fill="#505050" stroke="none" font-family="monospace" font-size="14px" font-style="normal" font-weight="normal" text-decoration="normal" x="619.9220519959927" y="107.07188034057617" text-anchor="end" dominant-baseline="text-after-edge">y</text><path fill="white" stroke="#505050" paint-order="fill stroke markers" d=" M 932.4116270542145 47.4396185874939 L 940.4116270542145 47.4396185874939 L 948.4116270542145 55.4396185874939 L 940.4116270542145 63.4396185874939 L 932.4116270542145 63.4396185874939 L 932.4116270542145 47.4396185874939" stroke-miterlimit="10" stroke-width="0.5" stroke-dasharray=""/><path fill="none" stroke="#505050" paint-order="fill stroke markers" d=" M 932.4116270542145 51.4396185874939 L 940.4116270542145 51.4396185874939 L 940.4116270542145 59.4396185874939 L 932.4116270542145 59.4396185874939 L 932.4116270542145 51.4396185874939 Z" stroke-miterlimit="10" stroke-width="0.5" stroke-dasharray=""/><path fill="white" stroke="#505050" paint-order="fill stroke markers" d=" M 660.2720015048981 24.54062795639038 L 702.2720015048981 24.54062795639038 L 702.2720015048981 54.54062795639038 L 660.2720015048981 54.54062795639038 L 660.2720015048981 24.54062795639038 Z" stroke-miterlimit="10" stroke-width="0.5" stroke-dasharray=""/><path fill="#F0F0F0" stroke="none" paint-order="stroke fill markers" d=""/><text fill="#505050" stroke="none" font-family="monospace" font-size="14px" font-style="normal" font-weight="normal" text-decoration="normal" x="681.2720015048981" y="42.54062795639038" text-anchor="middle" dominant-baseline="text-after-edge">== 0</text><path fill="none" stroke="#505050" paint-order="fill stroke markers" d=" M 660.2720015048981 42.54062795639038 L 668.2720015048981 42.54062795639038 L 668.2720015048981 50.54062795639038 L 660.2720015048981 50.54062795639038 L 660.2720015048981 42.54062795639038 Z" stroke-miterlimit="10" stroke-width="0.5" stroke-dasharray=""/><path fill="none" stroke="#505050" paint-order="fill stroke markers" d=" M 694.2720015048981 42.54062795639038 L 702.2720015048981 42.54062795639038 L 702.2720015048981 50.54062795639038 L 694.2720015048981 50.54062795639038 L 694.2720015048981 42.54062795639038 Z" stroke-miterlimit="10" stroke-width="0.5" stroke-dasharray=""/><path fill="white" stroke="#505050" paint-order="fill stroke markers" d=" M 896.1951353549957 33.383859157562256 L 920.1951353549957 33.383859157562256 L 920.1951353549957 87.38385915756226 L 896.1951353549957 87.38385915756226 L 896.1951353549957 33.383859157562256 Z" stroke-miterlimit="10" stroke-width="0.5" stroke-dasharray=""/><path fill="#F0F0F0" stroke="none" paint-order="stroke fill markers" d=""/><text fill="#505050" stroke="none" font-family="monospace" font-size="14px" font-style="normal" font-weight="normal" text-decoration="normal" x="908.1951353549957" y="51.383859157562256" text-anchor="middle" dominant-baseline="text-after-edge">?</text><path fill="none" stroke="#505050" paint-order="fill stroke markers" d=" M 896.1951353549957 51.383859157562256 L 904.1951353549957 51.383859157562256 L 904.1951353549957 59.383859157562256 L 896.1951353549957 59.383859157562256 L 896.1951353549957 51.383859157562256 Z" stroke-miterlimit="10" stroke-width="0.5" stroke-dasharray=""/><path fill="none" stroke="#505050" paint-order="fill stroke markers" d=" M 896.1951353549957 63.383859157562256 L 904.1951353549957 63.383859157562256 L 904.1951353549957 71.38385915756226 L 896.1951353549957 71.38385915756226 L 896.1951353549957 63.383859157562256 Z" stroke-miterlimit="10" stroke-width="0.5" stroke-dasharray=""/><path fill="none" stroke="#505050" paint-order="fill stroke markers" d=" M 896.1951353549957 75.38385915756226 L 904.1951353549957 75.38385915756226 L 904.1951353549957 83.38385915756226 L 896.1951353549957 83.38385915756226 L 896.1951353549957 75.38385915756226 Z" stroke-miterlimit="10" stroke-width="0.5" stroke-dasharray=""/><path fill="none" stroke="#505050" paint-order="fill stroke markers" d=" M 912.1951353549957 51.383859157562256 L 920.1951353549957 51.383859157562256 L 920.1951353549957 59.383859157562256 L 912.1951353549957 59.383859157562256 L 912.1951353549957 51.383859157562256 Z" stroke-miterlimit="10" stroke-width="0.5" stroke-dasharray=""/><path fill="white" stroke="#505050" paint-order="fill stroke markers" d=" M 689.5844969749451 126.08755111694336 L 754.5844969749451 126.08755111694336 L 754.5844969749451 172.08755111694336 L 689.5844969749451 172.08755111694336 L 689.5844969749451 126.08755111694336 Z" stroke-miterlimit="10" stroke-width="0.5" stroke-dasharray=""/><path fill="#F0F0F0" stroke="none" paint-order="stroke fill markers" d=""/><path fill="none" stroke="#505050" paint-order="fill stroke markers" d=" M 689.5844969749451 130.08755111694336 L 697.5844969749451 130.08755111694336 L 697.5844969749451 138.08755111694336 L 689.5844969749451 138.08755111694336 L 689.5844969749451 130.08755111694336 Z" stroke-miterlimit="10" stroke-width="0.5" stroke-dasharray=""/><text fill="#505050" stroke="none" font-family="monospace" font-size="14px" font-style="normal" font-weight="normal" text-decoration="normal" x="705.5844969749451" y="144.08755111694336" text-anchor="start" dominant-baseline="text-after-edge">n</text><path fill="none" stroke="#505050" paint-order="fill stroke markers" d=" M 689.5844969749451 144.08755111694336 L 697.5844969749451 144.08755111694336 L 697.5844969749451 152.08755111694336 L 689.5844969749451 152.08755111694336 L 689.5844969749451 144.08755111694336 Z" stroke-miterlimit="10" stroke-width="0.5" stroke-dasharray=""/><text fill="#505050" stroke="none" font-family="monospace" font-size="14px" font-style="normal" font-weight="normal" text-decoration="normal" x="705.5844969749451" y="158.08755111694336" text-anchor="start" dominant-baseline="text-after-edge">y</text><path fill="none" stroke="#505050" paint-order="fill stroke markers" d=" M 689.5844969749451 158.08755111694336 L 697.5844969749451 158.08755111694336 L 697.5844969749451 166.08755111694336 L 689.5844969749451 166.08755111694336 L 689.5844969749451 158.08755111694336 Z" stroke-miterlimit="10" stroke-width="0.5" stroke-dasharray=""/><text fill="#505050" stroke="none" font-family="monospace" font-size="14px" font-style="normal" font-weight="normal" text-decoration="normal" x="705.5844969749451" y="172.08755111694336" text-anchor="start" dominant-baseline="text-after-edge">x</text><path fill="none" stroke="#505050" paint-order="fill stroke markers" d=" M 746.5844969749451 130.08755111694336 L 754.5844969749451 130.08755111694336 L 754.5844969749451 138.08755111694336 L 746.5844969749451 138.08755111694336 L 746.5844969749451 130.08755111694336 Z" stroke-miterlimit="10" stroke-width="0.5" stroke-dasharray=""/><text fill="#505050" stroke="none" font-family="monospace" font-size="14px" font-style="normal" font-weight="normal" text-decoration="normal" x="738.5844969749451" y="144.08755111694336" text-anchor="end" dominant-baseline="text-after-edge">y'</text><path fill="none" stroke="#505050" paint-order="fill stroke markers" d=" M 746.5844969749451 144.08755111694336 L 754.5844969749451 144.08755111694336 L 754.5844969749451 152.08755111694336 L 746.5844969749451 152.08755111694336 L 746.5844969749451 144.08755111694336 Z" stroke-miterlimit="10" stroke-width="0.5" stroke-dasharray=""/><text fill="#505050" stroke="none" font-family="monospace" font-size="14px" font-style="normal" font-weight="normal" text-decoration="normal" x="738.5844969749451" y="158.08755111694336" text-anchor="end" dominant-baseline="text-after-edge">x'</text><path fill="#e0e0e0" stroke="none" paint-order="stroke fill markers" d=" M 1019.9000129699707 263.0562057495117 L 1011.9000129699707 240.05620574951172 L 1011.9000129699707 286.0562057495117 Z M 681.5844969749451 149.08755111694336 L 689.5844969749451 126.08755111694336 L 689.5844969749451 172.08755111694336 Z"/><path fill="none" stroke="none"/><path fill="none" stroke="#e0e0e0" paint-order="fill stroke markers" d=" M 1019.9000129699707 263.0562057495117 C 1126.9988543930058 263.0562057495117 574.4856555519099 149.08755111694336 681.5844969749451 149.08755111694336" stroke-miterlimit="10" stroke-width="2" stroke-dasharray=""/><path fill="white" stroke="#505050" paint-order="fill stroke markers" d=" M 807.4219603538513 97.78437042236328 L 880.4219603538513 97.78437042236328 L 880.4219603538513 189.78437042236328 L 807.4219603538513 189.78437042236328 L 807.4219603538513 97.78437042236328 Z" stroke-miterlimit="10" stroke-width="0.5" stroke-dasharray=""/><path fill="#F0F0F0" stroke="none" paint-order="stroke fill markers" d=""/><text fill="#505050" stroke="none" font-family="monospace" font-size="14px" font-style="normal" font-weight="normal" text-decoration="normal" x="843.9219603538513" y="115.78437042236328" text-anchor="middle" dominant-baseline="text-after-edge">expStep</text><path fill="none" stroke="#505050" paint-order="fill stroke markers" d=" M 807.4219603538513 115.78437042236328 L 815.4219603538513 115.78437042236328 L 815.4219603538513 123.78437042236328 L 807.4219603538513 123.78437042236328 L 807.4219603538513 115.78437042236328 Z" stroke-miterlimit="10" stroke-width="0.5" stroke-dasharray=""/><text fill="#505050" stroke="none" font-family="monospace" font-size="14px" font-style="normal" font-weight="normal" text-decoration="normal" x="823.4219603538513" y="129.78437042236328" text-anchor="start" dominant-baseline="text-after-edge">n</text><path fill="none" stroke="#505050" paint-order="fill stroke markers" d=" M 807.4219603538513 129.78437042236328 L 815.4219603538513 129.78437042236328 L 815.4219603538513 137.78437042236328 L 807.4219603538513 137.78437042236328 L 807.4219603538513 129.78437042236328 Z" stroke-miterlimit="10" stroke-width="0.5" stroke-dasharray=""/><text fill="#505050" stroke="none" font-family="monospace" font-size="14px" font-style="normal" font-weight="normal" text-decoration="normal" x="823.4219603538513" y="143.78437042236328" text-anchor="start" dominant-baseline="text-after-edge">y</text><path fill="none" stroke="#505050" paint-order="fill stroke markers" d=" M 807.4219603538513 143.78437042236328 L 815.4219603538513 143.78437042236328 L 815.4219603538513 151.78437042236328 L 807.4219603538513 151.78437042236328 L 807.4219603538513 143.78437042236328 Z" stroke-miterlimit="10" stroke-width="0.5" stroke-dasharray=""/><text fill="#505050" stroke="none" font-family="monospace" font-size="14px" font-style="normal" font-weight="normal" text-decoration="normal" x="823.4219603538513" y="157.78437042236328" text-anchor="start" dominant-baseline="text-after-edge">x</text><path fill="none" stroke="#505050" paint-order="fill stroke markers" d=" M 807.4219603538513 157.78437042236328 L 831.4219603538513 157.78437042236328 L 831.4219603538513 185.78437042236328 L 807.4219603538513 185.78437042236328 L 807.4219603538513 157.78437042236328 Z" stroke-miterlimit="10" stroke-width="0.5" stroke-dasharray=""/><path fill="none" stroke="#505050" paint-order="fill stroke markers" d=" M 807.4219603538513 161.78437042236328 L 815.4219603538513 161.78437042236328 L 815.4219603538513 169.78437042236328 L 807.4219603538513 169.78437042236328 L 807.4219603538513 161.78437042236328 Z" stroke-miterlimit="10" stroke-width="0.5" stroke-dasharray=""/><path fill="none" stroke="#505050" paint-order="fill stroke markers" d=" M 807.4219603538513 173.78437042236328 L 815.4219603538513 173.78437042236328 L 815.4219603538513 181.78437042236328 L 807.4219603538513 181.78437042236328 L 807.4219603538513 173.78437042236328 Z" stroke-miterlimit="10" stroke-width="0.5" stroke-dasharray=""/><path fill="none" stroke="#505050" paint-order="fill stroke markers" d=" M 823.4219603538513 161.78437042236328 L 831.4219603538513 161.78437042236328 L 831.4219603538513 169.78437042236328 L 823.4219603538513 169.78437042236328 L 823.4219603538513 161.78437042236328 Z" stroke-miterlimit="10" stroke-width="0.5" stroke-dasharray=""/><text fill="#505050" stroke="none" font-family="monospace" font-size="14px" font-style="normal" font-weight="normal" text-decoration="normal" x="839.4219603538513" y="180.78437042236328" text-anchor="start" dominant-baseline="text-after-edge">mul</text><path fill="none" stroke="#505050" paint-order="fill stroke markers" d=" M 872.4219603538513 115.78437042236328 L 880.4219603538513 115.78437042236328 L 880.4219603538513 123.78437042236328 L 872.4219603538513 123.78437042236328 L 872.4219603538513 115.78437042236328 Z" stroke-miterlimit="10" stroke-width="0.5" stroke-dasharray=""/><path fill="#e0e0e0" stroke="none" paint-order="stroke fill markers" d=" M 1035.9000129699707 71.18754196166992 L 1027.9000129699707 25.187541961669922 L 1027.9000129699707 117.18754196166992 Z M 799.4219603538513 143.78437042236328 L 807.4219603538513 97.78437042236328 L 807.4219603538513 189.78437042236328 Z"/><path fill="none" stroke="none"/><path fill="none" stroke="#e0e0e0" paint-order="fill stroke markers" d=" M 1035.9000129699707 71.18754196166992 C 1110.111165760166 71.18754196166992 725.210807563656 143.78437042236328 799.4219603538513 143.78437042236328" stroke-miterlimit="10" stroke-width="2" stroke-dasharray=""/><path fill="white" stroke="#505050" paint-order="fill stroke markers" d=" M 763.3844847679138 98.1437759399414 L 788.3844847679138 98.1437759399414 L 788.3844847679138 128.1437759399414 L 763.3844847679138 128.1437759399414 L 763.3844847679138 98.1437759399414 Z" stroke-miterlimit="10" stroke-width="0.5" stroke-dasharray=""/><path fill="#F0F0F0" stroke="none" paint-order="stroke fill markers" d=""/><text fill="#505050" stroke="none" font-family="monospace" font-size="14px" font-style="normal" font-weight="normal" text-decoration="normal" x="775.8844847679138" y="116.1437759399414" text-anchor="middle" dominant-baseline="text-after-edge">/2</text><path fill="none" stroke="#505050" paint-order="fill stroke markers" d=" M 763.3844847679138 116.1437759399414 L 771.3844847679138 116.1437759399414 L 771.3844847679138 124.1437759399414 L 763.3844847679138 124.1437759399414 L 763.3844847679138 116.1437759399414 Z" stroke-miterlimit="10" stroke-width="0.5" stroke-dasharray=""/><path fill="none" stroke="#505050" paint-order="fill stroke markers" d=" M 780.3844847679138 116.1437759399414 L 788.3844847679138 116.1437759399414 L 788.3844847679138 124.1437759399414 L 780.3844847679138 124.1437759399414 L 780.3844847679138 116.1437759399414 Z" stroke-miterlimit="10" stroke-width="0.5" stroke-dasharray=""/><path fill="white" stroke="#505050" paint-order="fill stroke markers" d=" M 702.8811531066895 240.05620574951172 L 702.8811531066895 394.981201171875 Q 702.8811531066895 402.981201171875 710.8811531066895 402.981201171875 L 1003.9000129699707 402.981201171875 Q 1011.9000129699707 402.981201171875 1011.9000129699707 394.981201171875 L 1011.9000129699707 240.05620574951172 Q 1011.9000129699707 232.05620574951172 1003.9000129699707 232.05620574951172 L 710.8811531066895 232.05620574951172 Q 702.8811531066895 232.05620574951172 702.8811531066895 240.05620574951172" stroke-miterlimit="10" stroke-width="0.5" stroke-dasharray=""/><path fill="#F0F0F0" stroke="#505050" paint-order="fill stroke markers" d=" M 946.9000129699707 240.05620574951172 L 1011.9000129699707 240.05620574951172 L 1011.9000129699707 286.0562057495117 L 946.9000129699707 286.0562057495117 L 946.9000129699707 240.05620574951172 Z" stroke-miterlimit="10" stroke-width="0.5" stroke-dasharray=""/><path fill="none" stroke="#505050" paint-order="fill stroke markers" d=" M 946.9000129699707 244.05620574951172 L 954.9000129699707 244.05620574951172 L 954.9000129699707 252.05620574951172 L 946.9000129699707 252.05620574951172 L 946.9000129699707 244.05620574951172 Z" stroke-miterlimit="10" stroke-width="0.5" stroke-dasharray=""/><text fill="#505050" stroke="none" font-family="monospace" font-size="14px" font-style="normal" font-weight="normal" text-decoration="normal" x="962.9000129699707" y="258.0562057495117" text-anchor="start" dominant-baseline="text-after-edge">n</text><path fill="none" stroke="#505050" paint-order="fill stroke markers" d=" M 946.9000129699707 258.0562057495117 L 954.9000129699707 258.0562057495117 L 954.9000129699707 266.0562057495117 L 946.9000129699707 266.0562057495117 L 946.9000129699707 258.0562057495117 Z" stroke-miterlimit="10" stroke-width="0.5" stroke-dasharray=""/><text fill="#505050" stroke="none" font-family="monospace" font-size="14px" font-style="normal" font-weight="normal" text-decoration="normal" x="962.9000129699707" y="272.0562057495117" text-anchor="start" dominant-baseline="text-after-edge">y</text><path fill="none" stroke="#505050" paint-order="fill stroke markers" d=" M 946.9000129699707 272.0562057495117 L 954.9000129699707 272.0562057495117 L 954.9000129699707 280.0562057495117 L 946.9000129699707 280.0562057495117 L 946.9000129699707 272.0562057495117 Z" stroke-miterlimit="10" stroke-width="0.5" stroke-dasharray=""/><text fill="#505050" stroke="none" font-family="monospace" font-size="14px" font-style="normal" font-weight="normal" text-decoration="normal" x="962.9000129699707" y="286.0562057495117" text-anchor="start" dominant-baseline="text-after-edge">x</text><path fill="none" stroke="#505050" paint-order="fill stroke markers" d=" M 1003.9000129699707 244.05620574951172 L 1011.9000129699707 244.05620574951172 L 1011.9000129699707 252.05620574951172 L 1003.9000129699707 252.05620574951172 L 1003.9000129699707 244.05620574951172 Z" stroke-miterlimit="10" stroke-width="0.5" stroke-dasharray=""/><text fill="#505050" stroke="none" font-family="monospace" font-size="14px" font-style="normal" font-weight="normal" text-decoration="normal" x="995.9000129699707" y="258.0562057495117" text-anchor="end" dominant-baseline="text-after-edge">y'</text><path fill="none" stroke="#505050" paint-order="fill stroke markers" d=" M 1003.9000129699707 258.0562057495117 L 1011.9000129699707 258.0562057495117 L 1011.9000129699707 266.0562057495117 L 1003.9000129699707 266.0562057495117 L 1003.9000129699707 258.0562057495117 Z" stroke-miterlimit="10" stroke-width="0.5" stroke-dasharray=""/><text fill="#505050" stroke="none" font-family="monospace" font-size="14px" font-style="normal" font-weight="normal" text-decoration="normal" x="995.9000129699707" y="272.0562057495117" text-anchor="end" dominant-baseline="text-after-edge">x'</text><path fill="white" stroke="#505050" paint-order="fill stroke markers" d=" M 786.9498901367188 294.60308837890625 L 819.9498901367188 294.60308837890625 L 819.9498901367188 336.60308837890625 L 786.9498901367188 336.60308837890625 L 786.9498901367188 294.60308837890625 Z" stroke-miterlimit="10" stroke-width="0.5" stroke-dasharray=""/><path fill="#F0F0F0" stroke="none" paint-order="stroke fill markers" d=""/><text fill="#505050" stroke="none" font-family="monospace" font-size="14px" font-style="normal" font-weight="normal" text-decoration="normal" x="803.4498901367188" y="312.60308837890625" text-anchor="middle" dominant-baseline="text-after-edge">mul</text><path fill="none" stroke="#505050" paint-order="fill stroke markers" d=" M 786.9498901367188 312.60308837890625 L 794.9498901367188 312.60308837890625 L 794.9498901367188 320.60308837890625 L 786.9498901367188 320.60308837890625 L 786.9498901367188 312.60308837890625 Z" stroke-miterlimit="10" stroke-width="0.5" stroke-dasharray=""/><path fill="none" stroke="#505050" paint-order="fill stroke markers" d=" M 786.9498901367188 324.60308837890625 L 794.9498901367188 324.60308837890625 L 794.9498901367188 332.60308837890625 L 786.9498901367188 332.60308837890625 L 786.9498901367188 324.60308837890625 Z" stroke-miterlimit="10" stroke-width="0.5" stroke-dasharray=""/><path fill="none" stroke="#505050" paint-order="fill stroke markers" d=" M 811.9498901367188 312.60308837890625 L 819.9498901367188 312.60308837890625 L 819.9498901367188 320.60308837890625 L 811.9498901367188 320.60308837890625 L 811.9498901367188 312.60308837890625 Z" stroke-miterlimit="10" stroke-width="0.5" stroke-dasharray=""/><path fill="#e0e0e0" stroke="none" paint-order="stroke fill markers" d=" M 657.2279586791992 280.43126678466797 L 649.2279586791992 259.43126678466797 L 649.2279586791992 301.43126678466797 Z M 778.9498901367188 315.60308837890625 L 786.9498901367188 294.60308837890625 L 786.9498901367188 336.60308837890625 Z"/><path fill="none" stroke="none"/><path fill="none" stroke="#e0e0e0" paint-order="fill stroke markers" d=" M 657.2279586791992 280.43126678466797 C 695.2384270646393 280.43126678466797 740.9394217512787 315.60308837890625 778.9498901367188 315.60308837890625" stroke-miterlimit="10" stroke-width="2" stroke-dasharray=""/><path fill="white" stroke="#505050" paint-order="fill stroke markers" d=" M 711.506372064352 368.981201171875 L 743.506372064352 368.981201171875 L 743.506372064352 386.981201171875 L 711.506372064352 386.981201171875 L 719.506372064352 377.981201171875 L 711.506372064352 368.981201171875" stroke-miterlimit="10" stroke-width="0.5" stroke-dasharray=""/><path fill="none" stroke="#505050" paint-order="fill stroke markers" d=" M 735.506372064352 372.981201171875 L 743.506372064352 372.981201171875 L 743.506372064352 380.981201171875 L 735.506372064352 380.981201171875 L 735.506372064352 372.981201171875 Z" stroke-miterlimit="10" stroke-width="0.5" stroke-dasharray=""/><text fill="#505050" stroke="none" font-family="monospace" font-size="14px" font-style="normal" font-weight="normal" text-decoration="normal" x="727.506372064352" y="386.981201171875" text-anchor="end" dominant-baseline="text-after-edge">x</text><path fill="white" stroke="#505050" paint-order="fill stroke markers" d=" M 711.3251586854458 288.2312240600586 L 743.3251586854458 288.2312240600586 L 743.3251586854458 306.2312240600586 L 711.3251586854458 306.2312240600586 L 719.3251586854458 297.2312240600586 L 711.3251586854458 288.2312240600586" stroke-miterlimit="10" stroke-width="0.5" stroke-dasharray=""/><path fill="none" stroke="#505050" paint-order="fill stroke markers" d=" M 735.3251586854458 292.2312240600586 L 743.3251586854458 292.2312240600586 L 743.3251586854458 300.2312240600586 L 735.3251586854458 300.2312240600586 L 735.3251586854458 292.2312240600586 Z" stroke-miterlimit="10" stroke-width="0.5" stroke-dasharray=""/><text fill="#505050" stroke="none" font-family="monospace" font-size="14px" font-style="normal" font-weight="normal" text-decoration="normal" x="727.3251586854458" y="306.2312240600586" text-anchor="end" dominant-baseline="text-after-edge">y</text><path fill="white" stroke="#505050" paint-order="fill stroke markers" d=" M 886.0780029296875 357.9437065124512 L 919.0780029296875 357.9437065124512 L 927.0780029296875 366.9437065124512 L 919.0780029296875 375.9437065124512 L 886.0780029296875 375.9437065124512 L 886.0780029296875 357.9437065124512" stroke-miterlimit="10" stroke-width="0.5" stroke-dasharray=""/><path fill="none" stroke="#505050" paint-order="fill stroke markers" d=" M 886.0780029296875 361.9437065124512 L 894.0780029296875 361.9437065124512 L 894.0780029296875 369.9437065124512 L 886.0780029296875 369.9437065124512 L 886.0780029296875 361.9437065124512 Z" stroke-miterlimit="10" stroke-width="0.5" stroke-dasharray=""/><text fill="#505050" stroke="none" font-family="monospace" font-size="14px" font-style="normal" font-weight="normal" text-decoration="normal" x="902.0780029296875" y="375.9437065124512" text-anchor="start" dominant-baseline="text-after-edge">x'</text><path fill="white" stroke="#505050" paint-order="fill stroke markers" d=" M 880.9124145507812 254.21559143066406 L 913.9124145507812 254.21559143066406 L 921.9124145507812 263.21559143066406 L 913.9124145507812 272.21559143066406 L 880.9124145507812 272.21559143066406 L 880.9124145507812 254.21559143066406" stroke-miterlimit="10" stroke-width="0.5" stroke-dasharray=""/><path fill="none" stroke="#505050" paint-order="fill stroke markers" d=" M 880.9124145507812 258.21559143066406 L 888.9124145507812 258.21559143066406 L 888.9124145507812 266.21559143066406 L 880.9124145507812 266.21559143066406 L 880.9124145507812 258.21559143066406 Z" stroke-miterlimit="10" stroke-width="0.5" stroke-dasharray=""/><text fill="#505050" stroke="none" font-family="monospace" font-size="14px" font-style="normal" font-weight="normal" text-decoration="normal" x="896.9124145507812" y="272.21559143066406" text-anchor="start" dominant-baseline="text-after-edge">y'</text><path fill="white" stroke="#505050" paint-order="fill stroke markers" d=" M 786.4280638694763 343.87811279296875 L 819.4280638694763 343.87811279296875 L 819.4280638694763 385.87811279296875 L 786.4280638694763 385.87811279296875 L 786.4280638694763 343.87811279296875 Z" stroke-miterlimit="10" stroke-width="0.5" stroke-dasharray=""/><path fill="#F0F0F0" stroke="none" paint-order="stroke fill markers" d=""/><text fill="#505050" stroke="none" font-family="monospace" font-size="14px" font-style="normal" font-weight="normal" text-decoration="normal" x="802.9280638694763" y="361.87811279296875" text-anchor="middle" dominant-baseline="text-after-edge">mul</text><path fill="none" stroke="#505050" paint-order="fill stroke markers" d=" M 786.4280638694763 361.87811279296875 L 794.4280638694763 361.87811279296875 L 794.4280638694763 369.87811279296875 L 786.4280638694763 369.87811279296875 L 786.4280638694763 361.87811279296875 Z" stroke-miterlimit="10" stroke-width="0.5" stroke-dasharray=""/><path fill="none" stroke="#505050" paint-order="fill stroke markers" d=" M 786.4280638694763 373.87811279296875 L 794.4280638694763 373.87811279296875 L 794.4280638694763 381.87811279296875 L 786.4280638694763 381.87811279296875 L 786.4280638694763 373.87811279296875 Z" stroke-miterlimit="10" stroke-width="0.5" stroke-dasharray=""/><path fill="none" stroke="#505050" paint-order="fill stroke markers" d=" M 811.4280638694763 361.87811279296875 L 819.4280638694763 361.87811279296875 L 819.4280638694763 369.87811279296875 L 811.4280638694763 369.87811279296875 L 811.4280638694763 361.87811279296875 Z" stroke-miterlimit="10" stroke-width="0.5" stroke-dasharray=""/><path fill="#e0e0e0" stroke="none" paint-order="stroke fill markers" d=" M 657.2279586791992 280.43126678466797 L 649.2279586791992 259.43126678466797 L 649.2279586791992 301.43126678466797 Z M 778.4280638694763 364.87811279296875 L 786.4280638694763 343.87811279296875 L 786.4280638694763 385.87811279296875 Z"/><path fill="none" stroke="none"/><path fill="none" stroke="#e0e0e0" paint-order="fill stroke markers" d=" M 657.2279586791992 280.43126678466797 C 701.5434884278048 280.43126678466797 734.1125341208707 364.87811279296875 778.4280638694763 364.87811279296875" stroke-miterlimit="10" stroke-width="2" stroke-dasharray=""/><path fill="white" stroke="#505050" paint-order="fill stroke markers" d=" M 711.8813167512417 252.8375015258789 L 743.8813167512417 252.8375015258789 L 743.8813167512417 270.8375015258789 L 711.8813167512417 270.8375015258789 L 719.8813167512417 261.8375015258789 L 711.8813167512417 252.8375015258789" stroke-miterlimit="10" stroke-width="0.5" stroke-dasharray=""/><path fill="none" stroke="#505050" paint-order="fill stroke markers" d=" M 735.8813167512417 256.8375015258789 L 743.8813167512417 256.8375015258789 L 743.8813167512417 264.8375015258789 L 735.8813167512417 264.8375015258789 L 735.8813167512417 256.8375015258789 Z" stroke-miterlimit="10" stroke-width="0.5" stroke-dasharray=""/><text fill="#505050" stroke="none" font-family="monospace" font-size="14px" font-style="normal" font-weight="normal" text-decoration="normal" x="727.8813167512417" y="270.8375015258789" text-anchor="end" dominant-baseline="text-after-edge">n</text><path fill="white" stroke="#505050" paint-order="fill stroke markers" d=" M 840.6530394554138 240.17184448242188 L 864.6530394554138 240.17184448242188 L 864.6530394554138 294.1718444824219 L 840.6530394554138 294.1718444824219 L 840.6530394554138 240.17184448242188 Z" stroke-miterlimit="10" stroke-width="0.5" stroke-dasharray=""/><path fill="#F0F0F0" stroke="none" paint-order="stroke fill markers" d=""/><text fill="#505050" stroke="none" font-family="monospace" font-size="14px" font-style="normal" font-weight="normal" text-decoration="normal" x="852.6530394554138" y="258.1718444824219" text-anchor="middle" dominant-baseline="text-after-edge">?</text><path fill="none" stroke="#505050" paint-order="fill stroke markers" d=" M 840.6530394554138 258.1718444824219 L 848.6530394554138 258.1718444824219 L 848.6530394554138 266.1718444824219 L 840.6530394554138 266.1718444824219 L 840.6530394554138 258.1718444824219 Z" stroke-miterlimit="10" stroke-width="0.5" stroke-dasharray=""/><path fill="none" stroke="#505050" paint-order="fill stroke markers" d=" M 840.6530394554138 270.1718444824219 L 848.6530394554138 270.1718444824219 L 848.6530394554138 278.1718444824219 L 840.6530394554138 278.1718444824219 L 840.6530394554138 270.1718444824219 Z" stroke-miterlimit="10" stroke-width="0.5" stroke-dasharray=""/><path fill="none" stroke="#505050" paint-order="fill stroke markers" d=" M 840.6530394554138 282.1718444824219 L 848.6530394554138 282.1718444824219 L 848.6530394554138 290.1718444824219 L 840.6530394554138 290.1718444824219 L 840.6530394554138 282.1718444824219 Z" stroke-miterlimit="10" stroke-width="0.5" stroke-dasharray=""/><path fill="none" stroke="#505050" paint-order="fill stroke markers" d=" M 856.6530394554138 258.1718444824219 L 864.6530394554138 258.1718444824219 L 864.6530394554138 266.1718444824219 L 856.6530394554138 266.1718444824219 L 856.6530394554138 258.1718444824219 Z" stroke-miterlimit="10" stroke-width="0.5" stroke-dasharray=""/><path fill="white" stroke="#505050" paint-order="fill stroke markers" d=" M 754.4499144554138 238.60309600830078 L 796.4499144554138 238.60309600830078 L 796.4499144554138 268.6030960083008 L 754.4499144554138 268.6030960083008 L 754.4499144554138 238.60309600830078 Z" stroke-miterlimit="10" stroke-width="0.5" stroke-dasharray=""/><path fill="#F0F0F0" stroke="none" paint-order="stroke fill markers" d=""/><text fill="#505050" stroke="none" font-family="monospace" font-size="14px" font-style="normal" font-weight="normal" text-decoration="normal" x="775.4499144554138" y="256.6030960083008" text-anchor="middle" dominant-baseline="text-after-edge">even</text><path fill="none" stroke="#505050" paint-order="fill stroke markers" d=" M 754.4499144554138 256.6030960083008 L 762.4499144554138 256.6030960083008 L 762.4499144554138 264.6030960083008 L 754.4499144554138 264.6030960083008 L 754.4499144554138 256.6030960083008 Z" stroke-miterlimit="10" stroke-width="0.5" stroke-dasharray=""/><path fill="none" stroke="#505050" paint-order="fill stroke markers" d=" M 788.4499144554138 256.6030960083008 L 796.4499144554138 256.6030960083008 L 796.4499144554138 264.6030960083008 L 788.4499144554138 264.6030960083008 L 788.4499144554138 256.6030960083008 Z" stroke-miterlimit="10" stroke-width="0.5" stroke-dasharray=""/><path fill="none" stroke="none"/><path fill="white" stroke="#505050" paint-order="fill stroke markers" d=" M 600.2279586791992 255.43126678466797 L 649.2279586791992 255.43126678466797 L 649.2279586791992 305.43126678466797 L 600.2279586791992 305.43126678466797 L 608.2279586791992 280.43126678466797 L 600.2279586791992 255.43126678466797" stroke-miterlimit="10" stroke-width="0.5" stroke-dasharray="6,3"/><path fill="#F0F0F0" stroke="none" paint-order="stroke fill markers" d=" M 616.2279586791992 259.43126678466797 L 649.2279586791992 259.43126678466797 L 649.2279586791992 301.43126678466797 L 616.2279586791992 301.43126678466797 L 616.2279586791992 259.43126678466797 Z"/><path fill="none" stroke="#505050" paint-order="fill stroke markers" d=" M 616.2279586791992 259.43126678466797 L 649.2279586791992 259.43126678466797 L 649.2279586791992 301.43126678466797 L 616.2279586791992 301.43126678466797 L 616.2279586791992 259.43126678466797 Z" stroke-miterlimit="10" stroke-width="0.5" stroke-dasharray="0"/><text fill="#505050" stroke="none" font-family="monospace" font-size="14px" font-style="normal" font-weight="normal" text-decoration="normal" x="632.7279586791992" y="277.43126678466797" text-anchor="middle" dominant-baseline="text-after-edge">mul</text><path fill="none" stroke="#505050" paint-order="fill stroke markers" d=" M 616.2279586791992 277.43126678466797 L 624.2279586791992 277.43126678466797 L 624.2279586791992 285.43126678466797 L 616.2279586791992 285.43126678466797 L 616.2279586791992 277.43126678466797 Z" stroke-miterlimit="10" stroke-width="0.5" stroke-dasharray="0"/><path fill="none" stroke="#505050" paint-order="fill stroke markers" d=" M 616.2279586791992 289.43126678466797 L 624.2279586791992 289.43126678466797 L 624.2279586791992 297.43126678466797 L 616.2279586791992 297.43126678466797 L 616.2279586791992 289.43126678466797 Z" stroke-miterlimit="10" stroke-width="0.5" stroke-dasharray="0"/><path fill="none" stroke="#505050" paint-order="fill stroke markers" d=" M 641.2279586791992 277.43126678466797 L 649.2279586791992 277.43126678466797 L 649.2279586791992 285.43126678466797 L 641.2279586791992 285.43126678466797 L 641.2279586791992 277.43126678466797 Z" stroke-miterlimit="10" stroke-width="0.5" stroke-dasharray="0"/><path fill="none" stroke="#505050" paint-order="fill stroke markers" d=" M 616.2279586791992 259.43126678466797 L 649.2279586791992 259.43126678466797 L 649.2279586791992 301.43126678466797 L 616.2279586791992 301.43126678466797 L 616.2279586791992 259.43126678466797 Z" stroke-miterlimit="10" stroke-width="0.5" stroke-dasharray="6,3"/><path fill="#F0F0F0" stroke="none" paint-order="stroke fill markers" d=""/><text fill="#505050" stroke="none" font-family="monospace" font-size="14px" font-style="normal" font-weight="normal" text-decoration="normal" x="632.7279586791992" y="277.43126678466797" text-anchor="middle" dominant-baseline="text-after-edge">mul</text><path fill="none" stroke="#505050" paint-order="fill stroke markers" d=" M 616.2279586791992 277.43126678466797 L 624.2279586791992 277.43126678466797 L 624.2279586791992 285.43126678466797 L 616.2279586791992 285.43126678466797 L 616.2279586791992 277.43126678466797 Z" stroke-miterlimit="10" stroke-width="0.5" stroke-dasharray="0"/><path fill="none" stroke="#505050" paint-order="fill stroke markers" d=" M 616.2279586791992 289.43126678466797 L 624.2279586791992 289.43126678466797 L 624.2279586791992 297.43126678466797 L 616.2279586791992 297.43126678466797 L 616.2279586791992 289.43126678466797 Z" stroke-miterlimit="10" stroke-width="0.5" stroke-dasharray="0"/><path fill="none" stroke="#505050" paint-order="fill stroke markers" d=" M 641.2279586791992 277.43126678466797 L 649.2279586791992 277.43126678466797 L 649.2279586791992 285.43126678466797 L 641.2279586791992 285.43126678466797 L 641.2279586791992 277.43126678466797 Z" stroke-miterlimit="10" stroke-width="0.5" stroke-dasharray="0"/><path fill="white" stroke="#505050" paint-order="fill stroke markers" d=" M 1058.7248458862305 167.66561889648438 L 1058.7248458862305 307.9500045776367 Q 1058.7248458862305 315.9500045776367 1066.7248458862305 315.9500045776367 L 1264.7496948242188 315.9500045776367 Q 1272.7496948242188 315.9500045776367 1272.7496948242188 307.9500045776367 L 1272.7496948242188 167.66561889648438 Q 1272.7496948242188 159.66561889648438 1264.7496948242188 159.66561889648438 L 1066.7248458862305 159.66561889648438 Q 1058.7248458862305 159.66561889648438 1058.7248458862305 167.66561889648438" stroke-miterlimit="10" stroke-width="0.5" stroke-dasharray="0"/><path fill="#F0F0F0" stroke="#505050" paint-order="fill stroke markers" d=" M 1232.7496948242188 167.66561889648438 L 1272.7496948242188 167.66561889648438 L 1272.7496948242188 213.66561889648438 L 1232.7496948242188 213.66561889648438 L 1232.7496948242188 167.66561889648438 Z" stroke-miterlimit="10" stroke-width="0.5" stroke-dasharray="0"/><text fill="#505050" stroke="none" font-family="monospace" font-size="14px" font-style="normal" font-weight="normal" text-decoration="normal" x="1252.7496948242188" y="185.66561889648438" text-anchor="middle" dominant-baseline="text-after-edge">x</text><path fill="none" stroke="#505050" paint-order="fill stroke markers" d=" M 1232.7496948242188 185.66561889648438 L 1240.7496948242188 185.66561889648438 L 1240.7496948242188 193.66561889648438 L 1232.7496948242188 193.66561889648438 L 1232.7496948242188 185.66561889648438 Z" stroke-miterlimit="10" stroke-width="0.5" stroke-dasharray="0"/><text fill="#505050" stroke="none" font-family="monospace" font-size="14px" font-style="normal" font-weight="normal" text-decoration="normal" x="1248.7496948242188" y="199.66561889648438" text-anchor="start" dominant-baseline="text-after-edge">n</text><path fill="none" stroke="#505050" paint-order="fill stroke markers" d=" M 1232.7496948242188 199.66561889648438 L 1240.7496948242188 199.66561889648438 L 1240.7496948242188 207.66561889648438 L 1232.7496948242188 207.66561889648438 L 1232.7496948242188 199.66561889648438 Z" stroke-miterlimit="10" stroke-width="0.5" stroke-dasharray="0"/><text fill="#505050" stroke="none" font-family="monospace" font-size="14px" font-style="normal" font-weight="normal" text-decoration="normal" x="1248.7496948242188" y="213.66561889648438" text-anchor="start" dominant-baseline="text-after-edge">x</text><path fill="none" stroke="#505050" paint-order="fill stroke markers" d=" M 1264.7496948242188 185.66561889648438 L 1272.7496948242188 185.66561889648438 L 1272.7496948242188 193.66561889648438 L 1264.7496948242188 193.66561889648438 L 1264.7496948242188 185.66561889648438 Z" stroke-miterlimit="10" stroke-width="0.5" stroke-dasharray="0"/><path fill="white" stroke="#505050" paint-order="fill stroke markers" d=" M 1066.9246826171875 168.63125610351562 L 1098.9246826171875 168.63125610351562 L 1098.9246826171875 186.63125610351562 L 1066.9246826171875 186.63125610351562 L 1074.9246826171875 177.63125610351562 L 1066.9246826171875 168.63125610351562" stroke-miterlimit="10" stroke-width="0.5" stroke-dasharray="0"/><path fill="none" stroke="#505050" paint-order="fill stroke markers" d=" M 1090.9246826171875 172.63125610351562 L 1098.9246826171875 172.63125610351562 L 1098.9246826171875 180.63125610351562 L 1090.9246826171875 180.63125610351562 L 1090.9246826171875 172.63125610351562 Z" stroke-miterlimit="10" stroke-width="0.5" stroke-dasharray="0"/><text fill="#505050" stroke="none" font-family="monospace" font-size="14px" font-style="normal" font-weight="normal" text-decoration="normal" x="1082.9246826171875" y="186.63125610351562" text-anchor="end" dominant-baseline="text-after-edge">n</text><path fill="white" stroke="#505050" paint-order="fill stroke markers" d=" M 1117.2028198242188 167.66561889648438 L 1190.2028198242188 167.66561889648438 L 1190.2028198242188 259.6656188964844 L 1117.2028198242188 259.6656188964844 L 1117.2028198242188 167.66561889648438 Z" stroke-miterlimit="10" stroke-width="0.5" stroke-dasharray="0"/><path fill="#F0F0F0" stroke="none" paint-order="stroke fill markers" d=""/><text fill="#505050" stroke="none" font-family="monospace" font-size="14px" font-style="normal" font-weight="normal" text-decoration="normal" x="1153.7028198242188" y="185.66561889648438" text-anchor="middle" dominant-baseline="text-after-edge">expStep</text><path fill="none" stroke="#505050" paint-order="fill stroke markers" d=" M 1117.2028198242188 185.66561889648438 L 1125.2028198242188 185.66561889648438 L 1125.2028198242188 193.66561889648438 L 1117.2028198242188 193.66561889648438 L 1117.2028198242188 185.66561889648438 Z" stroke-miterlimit="10" stroke-width="0.5" stroke-dasharray="0"/><text fill="#505050" stroke="none" font-family="monospace" font-size="14px" font-style="normal" font-weight="normal" text-decoration="normal" x="1133.2028198242188" y="199.66561889648438" text-anchor="start" dominant-baseline="text-after-edge">n</text><path fill="none" stroke="#505050" paint-order="fill stroke markers" d=" M 1117.2028198242188 199.66561889648438 L 1125.2028198242188 199.66561889648438 L 1125.2028198242188 207.66561889648438 L 1117.2028198242188 207.66561889648438 L 1117.2028198242188 199.66561889648438 Z" stroke-miterlimit="10" stroke-width="0.5" stroke-dasharray="0"/><text fill="#505050" stroke="none" font-family="monospace" font-size="14px" font-style="normal" font-weight="normal" text-decoration="normal" x="1133.2028198242188" y="213.66561889648438" text-anchor="start" dominant-baseline="text-after-edge">y</text><path fill="none" stroke="#505050" paint-order="fill stroke markers" d=" M 1117.2028198242188 213.66561889648438 L 1125.2028198242188 213.66561889648438 L 1125.2028198242188 221.66561889648438 L 1117.2028198242188 221.66561889648438 L 1117.2028198242188 213.66561889648438 Z" stroke-miterlimit="10" stroke-width="0.5" stroke-dasharray="0"/><text fill="#505050" stroke="none" font-family="monospace" font-size="14px" font-style="normal" font-weight="normal" text-decoration="normal" x="1133.2028198242188" y="227.66561889648438" text-anchor="start" dominant-baseline="text-after-edge">x</text><path fill="none" stroke="#505050" paint-order="fill stroke markers" d=" M 1117.2028198242188 227.66561889648438 L 1141.2028198242188 227.66561889648438 L 1141.2028198242188 255.66561889648438 L 1117.2028198242188 255.66561889648438 L 1117.2028198242188 227.66561889648438 Z" stroke-miterlimit="10" stroke-width="0.5" stroke-dasharray="0"/><path fill="none" stroke="#505050" paint-order="fill stroke markers" d=" M 1117.2028198242188 231.66561889648438 L 1125.2028198242188 231.66561889648438 L 1125.2028198242188 239.66561889648438 L 1117.2028198242188 239.66561889648438 L 1117.2028198242188 231.66561889648438 Z" stroke-miterlimit="10" stroke-width="0.5" stroke-dasharray="0"/><path fill="none" stroke="#505050" paint-order="fill stroke markers" d=" M 1117.2028198242188 243.66561889648438 L 1125.2028198242188 243.66561889648438 L 1125.2028198242188 251.66561889648438 L 1117.2028198242188 251.66561889648438 L 1117.2028198242188 243.66561889648438 Z" stroke-miterlimit="10" stroke-width="0.5" stroke-dasharray="0"/><path fill="none" stroke="#505050" paint-order="fill stroke markers" d=" M 1133.2028198242188 231.66561889648438 L 1141.2028198242188 231.66561889648438 L 1141.2028198242188 239.66561889648438 L 1133.2028198242188 239.66561889648438 L 1133.2028198242188 231.66561889648438 Z" stroke-miterlimit="10" stroke-width="0.5" stroke-dasharray="0"/><text fill="#505050" stroke="none" font-family="monospace" font-size="14px" font-style="normal" font-weight="normal" text-decoration="normal" x="1149.2028198242188" y="250.66561889648438" text-anchor="start" dominant-baseline="text-after-edge">mul</text><path fill="none" stroke="#505050" paint-order="fill stroke markers" d=" M 1182.2028198242188 185.66561889648438 L 1190.2028198242188 185.66561889648438 L 1190.2028198242188 193.66561889648438 L 1182.2028198242188 193.66561889648438 L 1182.2028198242188 185.66561889648438 Z" stroke-miterlimit="10" stroke-width="0.5" stroke-dasharray="0"/><path fill="#e0e0e0" stroke="none" paint-order="stroke fill markers" d=" M 1035.9000129699707 71.18754196166992 L 1027.9000129699707 25.187541961669922 L 1027.9000129699707 117.18754196166992 Z M 1109.2028198242188 213.66561889648438 L 1117.2028198242188 167.66561889648438 L 1117.2028198242188 259.6656188964844 Z"/><path fill="none" stroke="none"/><path fill="none" stroke="#e0e0e0" paint-order="fill stroke markers" d=" M 1035.9000129699707 71.18754196166992 C 1083.968686250787 71.18754196166992 1061.1341465434025 213.66561889648438 1109.2028198242188 213.66561889648438" stroke-miterlimit="10" stroke-width="2" stroke-dasharray="0"/><path fill="white" stroke="#505050" paint-order="fill stroke markers" d=" M 1200.2028198242188 181.66561889648438 L 1208.2028198242188 181.66561889648438 L 1216.2028198242188 189.66561889648438 L 1208.2028198242188 197.66561889648438 L 1200.2028198242188 197.66561889648438 L 1200.2028198242188 181.66561889648438" stroke-miterlimit="10" stroke-width="0.5" stroke-dasharray="0"/><path fill="none" stroke="#505050" paint-order="fill stroke markers" d=" M 1200.2028198242188 185.66561889648438 L 1208.2028198242188 185.66561889648438 L 1208.2028198242188 193.66561889648438 L 1200.2028198242188 193.66561889648438 L 1200.2028198242188 185.66561889648438 Z" stroke-miterlimit="10" stroke-width="0.5" stroke-dasharray="0"/><path fill="none" stroke="none"/><path fill="white" stroke="#505050" paint-order="fill stroke markers" d=" M 1068.937370300293 242.6125259399414 L 1100.937370300293 242.6125259399414 L 1108.937370300293 267.6125259399414 L 1100.937370300293 292.6125259399414 L 1068.937370300293 292.6125259399414 L 1068.937370300293 242.6125259399414" stroke-miterlimit="10" stroke-width="0.5" stroke-dasharray="0"/><path fill="none" stroke="#505050" paint-order="fill stroke markers" d=" M 1076.937370300293 246.6125259399414 L 1100.937370300293 246.6125259399414 L 1100.937370300293 288.6125259399414 L 1076.937370300293 288.6125259399414 L 1076.937370300293 246.6125259399414 Z" stroke-miterlimit="10" stroke-width="0.5" stroke-dasharray="0"/><text fill="#505050" stroke="none" font-family="monospace" font-size="14px" font-style="normal" font-weight="normal" text-decoration="normal" x="1088.937370300293" y="264.6125259399414" text-anchor="middle" dominant-baseline="text-after-edge">*</text><path fill="none" stroke="#505050" paint-order="fill stroke markers" d=" M 1076.937370300293 264.6125259399414 L 1084.937370300293 264.6125259399414 L 1084.937370300293 272.6125259399414 L 1076.937370300293 272.6125259399414 L 1076.937370300293 264.6125259399414 Z" stroke-miterlimit="10" stroke-width="0.5" stroke-dasharray="0"/><path fill="none" stroke="#505050" paint-order="fill stroke markers" d=" M 1076.937370300293 276.6125259399414 L 1084.937370300293 276.6125259399414 L 1084.937370300293 284.6125259399414 L 1076.937370300293 284.6125259399414 L 1076.937370300293 276.6125259399414 Z" stroke-miterlimit="10" stroke-width="0.5" stroke-dasharray="0"/><path fill="none" stroke="#505050" paint-order="fill stroke markers" d=" M 1092.937370300293 264.6125259399414 L 1100.937370300293 264.6125259399414 L 1100.937370300293 272.6125259399414 L 1092.937370300293 272.6125259399414 L 1092.937370300293 264.6125259399414 Z" stroke-miterlimit="10" stroke-width="0.5" stroke-dasharray="0"/><path fill="none" stroke="#505050" paint-order="fill stroke markers" d=" M 1076.937370300293 246.6125259399414 L 1100.937370300293 246.6125259399414 L 1100.937370300293 288.6125259399414 L 1076.937370300293 288.6125259399414 L 1076.937370300293 246.6125259399414 Z" stroke-miterlimit="10" stroke-width="0.5" stroke-dasharray="0"/><path fill="#F0F0F0" stroke="none" paint-order="stroke fill markers" d=""/><text fill="#505050" stroke="none" font-family="monospace" font-size="14px" font-style="normal" font-weight="normal" text-decoration="normal" x="1088.937370300293" y="264.6125259399414" text-anchor="middle" dominant-baseline="text-after-edge">*</text><path fill="none" stroke="#505050" paint-order="fill stroke markers" d=" M 1076.937370300293 264.6125259399414 L 1084.937370300293 264.6125259399414 L 1084.937370300293 272.6125259399414 L 1076.937370300293 272.6125259399414 L 1076.937370300293 264.6125259399414 Z" stroke-miterlimit="10" stroke-width="0.5" stroke-dasharray="0"/><path fill="none" stroke="#505050" paint-order="fill stroke markers" d=" M 1076.937370300293 276.6125259399414 L 1084.937370300293 276.6125259399414 L 1084.937370300293 284.6125259399414 L 1076.937370300293 284.6125259399414 L 1076.937370300293 276.6125259399414 Z" stroke-miterlimit="10" stroke-width="0.5" stroke-dasharray="0"/><path fill="none" stroke="#505050" paint-order="fill stroke markers" d=" M 1092.937370300293 264.6125259399414 L 1100.937370300293 264.6125259399414 L 1100.937370300293 272.6125259399414 L 1092.937370300293 272.6125259399414 L 1092.937370300293 264.6125259399414 Z" stroke-miterlimit="10" stroke-width="0.5" stroke-dasharray="0"/><path fill="white" stroke="#505050" paint-order="fill stroke markers" d=" M 1067.3342032432556 192.3061866760254 L 1099.3342032432556 192.3061866760254 L 1099.3342032432556 210.3061866760254 L 1067.3342032432556 210.3061866760254 L 1067.3342032432556 192.3061866760254 Z" stroke-miterlimit="10" stroke-width="0.5" stroke-dasharray="0"/><path fill="#F0F0F0" stroke="none" paint-order="stroke fill markers" d=""/><path fill="none" stroke="#505050" paint-order="fill stroke markers" d=" M 1091.3342032432556 196.3061866760254 L 1099.3342032432556 196.3061866760254 L 1099.3342032432556 204.3061866760254 L 1091.3342032432556 204.3061866760254 L 1091.3342032432556 196.3061866760254 Z" stroke-miterlimit="10" stroke-width="0.5" stroke-dasharray="0"/><text fill="#505050" stroke="none" font-family="monospace" font-size="14px" font-style="normal" font-weight="normal" text-decoration="normal" x="1083.3342032432556" y="210.3061866760254" text-anchor="end" dominant-baseline="text-after-edge">1</text><path fill="white" stroke="#505050" paint-order="fill stroke markers" d=" M 1067.7590942382812 217.05001068115234 L 1099.7590942382812 217.05001068115234 L 1099.7590942382812 235.05001068115234 L 1067.7590942382812 235.05001068115234 L 1075.7590942382812 226.05001068115234 L 1067.7590942382812 217.05001068115234" stroke-miterlimit="10" stroke-width="0.5" stroke-dasharray="0"/><path fill="none" stroke="#505050" paint-order="fill stroke markers" d=" M 1091.7590942382812 221.05001068115234 L 1099.7590942382812 221.05001068115234 L 1099.7590942382812 229.05001068115234 L 1091.7590942382812 229.05001068115234 L 1091.7590942382812 221.05001068115234 Z" stroke-miterlimit="10" stroke-width="0.5" stroke-dasharray="0"/><text fill="#505050" stroke="none" font-family="monospace" font-size="14px" font-style="normal" font-weight="normal" text-decoration="normal" x="1083.7590942382812" y="235.05001068115234" text-anchor="end" dominant-baseline="text-after-edge">x</text><path fill="none" stroke="#505050" paint-order="fill stroke markers" d=" M 438.8968183994293 268.76879262924194 C 442.43133714231345 268.76879262924194 447.1435496565452 268.6625380516052 450.6780683994293 268.6625380516052" stroke-miterlimit="10" stroke-dasharray="0"/><path fill="none" stroke="#505050" paint-order="fill stroke markers" d=" M 397.8968183994293 280.76879262924194 C 402.69681839942933 280.76879262924194 409.0968183994293 280.76879262924194 413.8968183994293 280.76879262924194" stroke-miterlimit="10" stroke-dasharray="0"/><path fill="none" stroke="#505050" paint-order="fill stroke markers" d=" M 391.2311842441559 253.51879262924194 C 399.42669597006187 253.51879262924194 405.70130667352333 268.76879262924194 413.8968183994293 268.76879262924194" stroke-miterlimit="10" stroke-dasharray="0"/><path fill="none" stroke="#505050" paint-order="fill stroke markers" d=" M 439.156277179718 48.95936965942383 C 443.95627717971803 48.95936965942383 450.356277179718 48.95936965942383 455.156277179718 48.95936965942383" stroke-miterlimit="10" stroke-dasharray="0"/><path fill="none" stroke="#505050" paint-order="fill stroke markers" d=" M 398.79377031326294 60.10938262939453 C 403.70914108275133 60.10938262939453 410.2409064102296 60.95936965942383 415.156277179718 60.95936965942383" stroke-miterlimit="10" stroke-dasharray="0"/><path fill="none" stroke="#505050" paint-order="fill stroke markers" d=" M 399.156277179718 48.95936965942383 C 403.95627717971803 48.95936965942383 410.356277179718 48.95936965942383 415.156277179718 48.95936965942383" stroke-miterlimit="10" stroke-dasharray="0"/><path fill="none" stroke="#505050" paint-order="fill stroke markers" d=" M 476.4250273704529 125.13751220703125 C 479.47149741706676 125.13751220703125 483.5285512203234 124.82188415527344 486.57502126693726 124.82188415527344" stroke-miterlimit="10" stroke-dasharray="0"/><path fill="none" stroke="#505050" paint-order="fill stroke markers" d=" M 443.9812788963318 125.12187957763672 C 446.51440777986676 125.12187957763672 449.8918984869179 125.13751220703125 452.4250273704529 125.13751220703125" stroke-miterlimit="10" stroke-dasharray="0"/><path fill="none" stroke="#505050" paint-order="fill stroke markers" d=" M 394.9812788963318 125.12187957763672 C 399.7812788963318 125.12187957763672 406.1812788963318 125.12187957763672 410.9812788963318 125.12187957763672" stroke-miterlimit="10" stroke-dasharray="0"/><path fill="none" stroke="#505050" paint-order="fill stroke markers" d=" M 435.212525844574 188.97814559936523 C 440.012525844574 188.97814559936523 446.41252584457396 188.97814559936523 451.212525844574 188.97814559936523" stroke-miterlimit="10" stroke-dasharray="0"/><path fill="none" stroke="#505050" paint-order="fill stroke markers" d=" M 397.04065465927124 201 C 401.2922210701 201 406.9609594337452 200.97814559936523 411.212525844574 200.97814559936523" stroke-miterlimit="10" stroke-dasharray="0"/><path fill="none" stroke="#505050" paint-order="fill stroke markers" d=" M 392.728150844574 177.33752059936523 C 399.28146025721526 177.33752059936523 404.6592164319327 188.97814559936523 411.212525844574 188.97814559936523" stroke-miterlimit="10" stroke-dasharray="0"/><path fill="none" stroke="#505050" paint-order="fill stroke markers" d=" M 635.9220519959927 97.07188034057617 C 714.5102895832226 97.07188034057617 817.6068977677658 67.38385915756226 896.1951353549957 67.38385915756226" stroke-miterlimit="10" stroke-dasharray="0"/><path fill="none" stroke="#505050" paint-order="fill stroke markers" d=" M 920.1951353549957 55.383859157562256 C 923.8601210397699 55.383859157562256 928.7466413694403 55.4396185874939 932.4116270542145 55.4396185874939" stroke-miterlimit="10" stroke-dasharray="0"/><path fill="none" stroke="#505050" paint-order="fill stroke markers" d=" M 636.8782344758511 56.43444061279297 C 644.4982100546858 56.43444061279297 652.6520259260633 46.54062795639038 660.2720015048981 46.54062795639038" stroke-miterlimit="10" stroke-dasharray="0"/><path fill="none" stroke="#505050" paint-order="fill stroke markers" d=" M 702.2720015048981 46.54062795639038 C 760.5094002468476 46.54062795639038 837.9577366130462 55.383859157562256 896.1951353549957 55.383859157562256" stroke-miterlimit="10" stroke-dasharray="0"/><path fill="none" stroke="#505050" paint-order="fill stroke markers" d=" M 636.8782344758511 56.43444061279297 C 665.033447332148 56.43444061279297 661.4292841186482 134.08755111694336 689.5844969749451 134.08755111694336" stroke-miterlimit="10" stroke-dasharray="0"/><path fill="none" stroke="#505050" paint-order="fill stroke markers" d=" M 637.2564636170864 163.5250587463379 C 652.960795990534 163.5250587463379 673.8801646014974 162.08755111694336 689.5844969749451 162.08755111694336" stroke-miterlimit="10" stroke-dasharray="0"/><path fill="none" stroke="#505050" paint-order="fill stroke markers" d=" M 635.9220519959927 97.07188034057617 C 658.1347308062884 97.07188034057617 667.3718181646493 148.08755111694336 689.5844969749451 148.08755111694336" stroke-miterlimit="10" stroke-dasharray="0"/><path fill="none" stroke="#505050" paint-order="fill stroke markers" d=" M 636.8782344758511 56.43444061279297 C 679.3711041055979 56.43444061279297 720.891615138167 120.1437759399414 763.3844847679138 120.1437759399414" stroke-miterlimit="10" stroke-dasharray="0"/><path fill="none" stroke="#505050" paint-order="fill stroke markers" d=" M 788.3844847679138 120.1437759399414 C 794.0967451270895 120.1437759399414 801.7096999946756 119.78437042236328 807.4219603538513 119.78437042236328" stroke-miterlimit="10" stroke-dasharray="0"/><path fill="none" stroke="#505050" paint-order="fill stroke markers" d=" M 754.5844969749451 148.08755111694336 C 770.435996933516 148.08755111694336 791.5704603952804 147.78437042236328 807.4219603538513 147.78437042236328" stroke-miterlimit="10" stroke-dasharray="0"/><path fill="none" stroke="#505050" paint-order="fill stroke markers" d=" M 754.5844969749451 134.08755111694336 C 770.435996933516 134.08755111694336 791.5704603952804 133.78437042236328 807.4219603538513 133.78437042236328" stroke-miterlimit="10" stroke-dasharray="0"/><path fill="none" stroke="#505050" paint-order="fill stroke markers" d=" M 880.4219603538513 119.78437042236328 C 893.4330899130657 119.78437042236328 883.1840057957813 79.38385915756226 896.1951353549957 79.38385915756226" stroke-miterlimit="10" stroke-dasharray="0"/><path fill="none" stroke="#505050" paint-order="fill stroke markers" d=" M 649.2279586791992 280.43126678466797 C 706.8009916282293 280.43126678466797 749.8489274048212 171.78437042236328 807.4219603538513 171.78437042236328" stroke-miterlimit="10" stroke-dasharray="0"/><path fill="none" stroke="#505050" paint-order="fill stroke markers" d=" M 743.506372064352 376.981201171875 C 756.8067298755822 376.981201171875 773.1277060582462 365.87811279296875 786.4280638694763 365.87811279296875" stroke-miterlimit="10" stroke-dasharray="0"/><path fill="none" stroke="#505050" paint-order="fill stroke markers" d=" M 743.3251586854458 296.2312240600586 C 757.7692475975894 296.2312240600586 772.5058012245752 316.60308837890625 786.9498901367188 316.60308837890625" stroke-miterlimit="10" stroke-dasharray="0"/><path fill="none" stroke="#505050" paint-order="fill stroke markers" d=" M 819.4280638694763 365.87811279296875 C 839.423055270673 365.87811279296875 866.0830115284908 365.9437065124512 886.0780029296875 365.9437065124512" stroke-miterlimit="10" stroke-dasharray="0"/><path fill="none" stroke="#505050" paint-order="fill stroke markers" d=" M 743.8813167512417 260.8375015258789 C 747.0526758138735 260.8375015258789 751.278555392782 260.6030960083008 754.4499144554138 260.6030960083008" stroke-miterlimit="10" stroke-dasharray="0"/><path fill="none" stroke="#505050" paint-order="fill stroke markers" d=" M 796.4499144554138 260.6030960083008 C 809.7192004512261 260.6030960083008 827.3837534596015 262.1718444824219 840.6530394554138 262.1718444824219" stroke-miterlimit="10" stroke-dasharray="0"/><path fill="none" stroke="#505050" paint-order="fill stroke markers" d=" M 743.3251586854458 296.2312240600586 C 773.2640954439064 296.2312240600586 810.7141026969532 274.1718444824219 840.6530394554138 274.1718444824219" stroke-miterlimit="10" stroke-dasharray="0"/><path fill="none" stroke="#505050" paint-order="fill stroke markers" d=" M 819.9498901367188 316.60308837890625 C 830.9916875317064 316.60308837890625 829.6112420604262 286.1718444824219 840.6530394554138 286.1718444824219" stroke-miterlimit="10" stroke-dasharray="0"/><path fill="none" stroke="#505050" paint-order="fill stroke markers" d=" M 864.6530394554138 262.1718444824219 C 869.5308696396105 262.1718444824219 876.0345843665846 262.21559143066406 880.9124145507812 262.21559143066406" stroke-miterlimit="10" stroke-dasharray="0"/><path fill="none" stroke="#505050" paint-order="fill stroke markers" d=" M 743.506372064352 376.981201171875 C 756.3856906413697 376.981201171875 773.5487452924586 377.87811279296875 786.4280638694763 377.87811279296875" stroke-miterlimit="10" stroke-dasharray="0"/><path fill="none" stroke="#505050" paint-order="fill stroke markers" d=" M 743.506372064352 376.981201171875 C 763.0127888391519 376.981201171875 767.4434733619189 328.60308837890625 786.9498901367188 328.60308837890625" stroke-miterlimit="10" stroke-dasharray="0"/><path fill="none" stroke="#505050" paint-order="fill stroke markers" d=" M 1190.2028198242188 189.66561889648438 C 1193.2028198242188 189.66561889648438 1197.2028198242188 189.66561889648438 1200.2028198242188 189.66561889648438" stroke-miterlimit="10" stroke-dasharray="0"/><path fill="none" stroke="#505050" paint-order="fill stroke markers" d=" M 1099.3342032432556 200.3061866760254 C 1104.7887052280862 200.3061866760254 1111.7483178393882 203.66561889648438 1117.2028198242188 203.66561889648438" stroke-miterlimit="10" stroke-dasharray="0"/><path fill="none" stroke="#505050" paint-order="fill stroke markers" d=" M 1099.7590942382812 225.05001068115234 C 1105.4418006701874 225.05001068115234 1111.5201133923126 217.66561889648438 1117.2028198242188 217.66561889648438" stroke-miterlimit="10" stroke-dasharray="0"/><path fill="none" stroke="#505050" paint-order="fill stroke markers" d=" M 1098.9246826171875 176.63125610351562 C 1105.6595651095552 176.63125610351562 1110.467937331851 189.66561889648438 1117.2028198242188 189.66561889648438" stroke-miterlimit="10" stroke-dasharray="0"/><path fill="none" stroke="#505050" paint-order="fill stroke markers" d=" M 1100.937370300293 267.6125259399414 C 1110.1244598829817 267.6125259399414 1108.01573024153 241.66561889648438 1117.2028198242188 241.66561889648438" stroke-miterlimit="10" stroke-dasharray="0"/></g></g></svg>