<svg version="1.1" xmlns="http://www.w3.org/2000/svg" xmlns:xlink="http://www.w3.org/1999/xlink" width="649.0633911192417" height="501.4283776283264"><defs/><g transform="translate(-431.39638671278954,-38.67487859725952)"><g><path fill="white" stroke="#505050" paint-order="fill stroke markers" d=" M 439.39638671278954 193.7313690185547 L 439.39638671278954 524.1032562255859 Q 439.39638671278954 532.1032562255859 447.39638671278954 532.1032562255859 L 813.2862303256989 532.1032562255859 Q 821.2862303256989 532.1032562255859 821.2862303256989 524.1032562255859 L 821.2862303256989 193.7313690185547 Q 821.2862303256989 185.7313690185547 813.2862303256989 185.7313690185547 L 447.39638671278954 185.7313690185547 Q 439.39638671278954 185.7313690185547 439.39638671278954 193.7313690185547" stroke-miterlimit="10" stroke-width="0.5" stroke-dasharray=""/><path fill="#F0F0F0" stroke="#505050" paint-order="fill stroke markers" d=" M 748.2862303256989 193.7313690185547 L 821.2862303256989 193.7313690185547 L 821.2862303256989 285.7313690185547 L 748.2862303256989 285.7313690185547 L 748.2862303256989 193.7313690185547 Z" stroke-miterlimit="10" stroke-width="0.5" stroke-dasharray=""/><path fill="none" stroke="none"/><text fill="#505050" stroke="none" font-family="monospace" font-size="14px" font-style="normal" font-weight="normal" text-decoration="normal" x="784.7862303256989" y="211.7313690185547" text-anchor="middle" dominant-baseline="text-after-edge">expStep</text><path fill="none" stroke="#505050" paint-order="fill stroke markers" d=" M 748.2862303256989 211.7313690185547 L 756.2862303256989 211.7313690185547 L 756.2862303256989 219.7313690185547 L 748.2862303256989 219.7313690185547 L 748.2862303256989 211.7313690185547 Z" stroke-miterlimit="10" stroke-width="0.5" stroke-dasharray=""/><text fill="#505050" stroke="none" font-family="monospace" font-size="14px" font-style="normal" font-weight="normal" text-decoration="normal" x="764.2862303256989" y="225.7313690185547" text-anchor="start" dominant-baseline="text-after-edge">n</text><path fill="none" stroke="#505050" paint-order="fill stroke markers" d=" M 748.2862303256989 225.7313690185547 L 756.2862303256989 225.7313690185547 L 756.2862303256989 233.7313690185547 L 748.2862303256989 233.7313690185547 L 748.2862303256989 225.7313690185547 Z" stroke-miterlimit="10" stroke-width="0.5" stroke-dasharray=""/><text fill="#505050" stroke="none" font-family="monospace" font-size="14px" font-style="normal" font-weight="normal" text-decoration="normal" x="764.2862303256989" y="239.7313690185547" text-anchor="start" dominant-baseline="text-after-edge">x</text><path fill="none" stroke="#505050" paint-order="fill stroke markers" d=" M 748.2862303256989 239.7313690185547 L 756.2862303256989 239.7313690185547 L 756.2862303256989 247.7313690185547 L 748.2862303256989 247.7313690185547 L 748.2862303256989 239.7313690185547 Z" stroke-miterlimit="10" stroke-width="0.5" stroke-dasharray=""/><text fill="#505050" stroke="none" font-family="monospace" font-size="14px" font-style="normal" font-weight="normal" text-decoration="normal" x="764.2862303256989" y="253.7313690185547" text-anchor="start" dominant-baseline="text-after-edge">y</text><path fill="none" stroke="#505050" paint-order="fill stroke markers" d=" M 748.2862303256989 253.7313690185547 L 772.2862303256989 253.7313690185547 L 772.2862303256989 281.7313690185547 L 748.2862303256989 281.7313690185547 L 748.2862303256989 253.7313690185547 Z" stroke-miterlimit="10" stroke-width="0.5" stroke-dasharray=""/><path fill="none" stroke="none"/><path fill="none" stroke="#505050" paint-order="fill stroke markers" d=" M 748.2862303256989 257.7313690185547 L 756.2862303256989 257.7313690185547 L 756.2862303256989 265.7313690185547 L 748.2862303256989 265.7313690185547 L 748.2862303256989 257.7313690185547 Z" stroke-miterlimit="10" stroke-width="0.5" stroke-dasharray=""/><path fill="none" stroke="#505050" paint-order="fill stroke markers" d=" M 748.2862303256989 269.7313690185547 L 756.2862303256989 269.7313690185547 L 756.2862303256989 277.7313690185547 L 748.2862303256989 277.7313690185547 L 748.2862303256989 269.7313690185547 Z" stroke-miterlimit="10" stroke-width="0.5" stroke-dasharray=""/><path fill="none" stroke="#505050" paint-order="fill stroke markers" d=" M 764.2862303256989 257.7313690185547 L 772.2862303256989 257.7313690185547 L 772.2862303256989 265.7313690185547 L 764.2862303256989 265.7313690185547 L 764.2862303256989 257.7313690185547 Z" stroke-miterlimit="10" stroke-width="0.5" stroke-dasharray=""/><text fill="#505050" stroke="none" font-family="monospace" font-size="14px" font-style="normal" font-weight="normal" text-decoration="normal" x="780.2862303256989" y="276.7313690185547" text-anchor="start" dominant-baseline="text-after-edge">mul</text><path fill="none" stroke="#505050" paint-order="fill stroke markers" d=" M 813.2862303256989 211.7313690185547 L 821.2862303256989 211.7313690185547 L 821.2862303256989 219.7313690185547 L 813.2862303256989 219.7313690185547 L 813.2862303256989 211.7313690185547 Z" stroke-miterlimit="10" stroke-width="0.5" stroke-dasharray=""/><path fill="white" stroke="#505050" paint-order="fill stroke markers" d=" M 516.8933120667934 257.2188911437988 L 540.8933120667934 257.2188911437988 L 540.8933120667934 299.2188911437988 L 516.8933120667934 299.2188911437988 L 516.8933120667934 257.2188911437988 Z" stroke-miterlimit="10" stroke-width="0.5" stroke-dasharray=""/><path fill="#F0F0F0" stroke="none" paint-order="stroke fill markers" d=""/><path fill="none" stroke="none"/><text fill="#505050" stroke="none" font-family="monospace" font-size="14px" font-style="normal" font-weight="normal" text-decoration="normal" x="528.8933120667934" y="275.2188911437988" text-anchor="middle" dominant-baseline="text-after-edge">/</text><path fill="none" stroke="#505050" paint-order="fill stroke markers" d=" M 516.8933120667934 275.2188911437988 L 524.8933120667934 275.2188911437988 L 524.8933120667934 283.2188911437988 L 516.8933120667934 283.2188911437988 L 516.8933120667934 275.2188911437988 Z" stroke-miterlimit="10" stroke-width="0.5" stroke-dasharray=""/><path fill="none" stroke="#505050" paint-order="fill stroke markers" d=" M 516.8933120667934 287.2188911437988 L 524.8933120667934 287.2188911437988 L 524.8933120667934 295.2188911437988 L 516.8933120667934 295.2188911437988 L 516.8933120667934 287.2188911437988 Z" stroke-miterlimit="10" stroke-width="0.5" stroke-dasharray=""/><path fill="none" stroke="#505050" paint-order="fill stroke markers" d=" M 532.8933120667934 275.2188911437988 L 540.8933120667934 275.2188911437988 L 540.8933120667934 283.2188911437988 L 532.8933120667934 283.2188911437988 L 532.8933120667934 275.2188911437988 Z" stroke-miterlimit="10" stroke-width="0.5" stroke-dasharray=""/><path fill="white" stroke="#505050" paint-order="fill stroke markers" d=" M 454.4339710175991 321.1470031738281 L 486.4339710175991 321.1470031738281 L 486.4339710175991 339.1470031738281 L 454.4339710175991 339.1470031738281 L 454.4339710175991 321.1470031738281 Z" stroke-miterlimit="10" stroke-width="0.5" stroke-dasharray=""/><path fill="#F0F0F0" stroke="none" paint-order="stroke fill markers" d=""/><path fill="none" stroke="none"/><path fill="none" stroke="#505050" paint-order="fill stroke markers" d=" M 478.4339710175991 325.1470031738281 L 486.4339710175991 325.1470031738281 L 486.4339710175991 333.1470031738281 L 478.4339710175991 333.1470031738281 L 478.4339710175991 325.1470031738281 Z" stroke-miterlimit="10" stroke-width="0.5" stroke-dasharray=""/><text fill="#505050" stroke="none" font-family="monospace" font-size="14px" font-style="normal" font-weight="normal" text-decoration="normal" x="470.4339710175991" y="339.1470031738281" text-anchor="end" dominant-baseline="text-after-edge">2</text><path fill="white" stroke="#505050" paint-order="fill stroke markers" d=" M 454.19647178053856 207.76889038085938 L 486.19647178053856 207.76889038085938 L 486.19647178053856 225.76889038085938 L 454.19647178053856 225.76889038085938 L 462.19647178053856 216.76889038085938 L 454.19647178053856 207.76889038085938" stroke-miterlimit="10" stroke-width="0.5" stroke-dasharray=""/><path fill="none" stroke="none"/><path fill="none" stroke="#505050" paint-order="fill stroke markers" d=" M 478.19647178053856 211.76889038085938 L 486.19647178053856 211.76889038085938 L 486.19647178053856 219.76889038085938 L 478.19647178053856 219.76889038085938 L 478.19647178053856 211.76889038085938 Z" stroke-miterlimit="10" stroke-width="0.5" stroke-dasharray=""/><text fill="#505050" stroke="none" font-family="monospace" font-size="14px" font-style="normal" font-weight="normal" text-decoration="normal" x="470.19647178053856" y="225.76889038085938" text-anchor="end" dominant-baseline="text-after-edge">n</text><path fill="white" stroke="#505050" paint-order="fill stroke markers" d=" M 459.7089477479458 384.9282684326172 L 491.7089477479458 384.9282684326172 L 491.7089477479458 402.9282684326172 L 459.7089477479458 402.9282684326172 L 467.7089477479458 393.9282684326172 L 459.7089477479458 384.9282684326172" stroke-miterlimit="10" stroke-width="0.5" stroke-dasharray=""/><path fill="none" stroke="none"/><path fill="none" stroke="#505050" paint-order="fill stroke markers" d=" M 483.7089477479458 388.9282684326172 L 491.7089477479458 388.9282684326172 L 491.7089477479458 396.9282684326172 L 483.7089477479458 396.9282684326172 L 483.7089477479458 388.9282684326172 Z" stroke-miterlimit="10" stroke-width="0.5" stroke-dasharray=""/><text fill="#505050" stroke="none" font-family="monospace" font-size="14px" font-style="normal" font-weight="normal" text-decoration="normal" x="475.7089477479458" y="402.9282684326172" text-anchor="end" dominant-baseline="text-after-edge">x</text><path fill="white" stroke="#505050" paint-order="fill stroke markers" d=" M 460.5839782655239 410.36891174316406 L 492.5839782655239 410.36891174316406 L 492.5839782655239 428.36891174316406 L 460.5839782655239 428.36891174316406 L 468.5839782655239 419.36891174316406 L 460.5839782655239 410.36891174316406" stroke-miterlimit="10" stroke-width="0.5" stroke-dasharray=""/><path fill="none" stroke="none"/><path fill="none" stroke="#505050" paint-order="fill stroke markers" d=" M 484.5839782655239 414.36891174316406 L 492.5839782655239 414.36891174316406 L 492.5839782655239 422.36891174316406 L 484.5839782655239 422.36891174316406 L 484.5839782655239 414.36891174316406 Z" stroke-miterlimit="10" stroke-width="0.5" stroke-dasharray=""/><text fill="#505050" stroke="none" font-family="monospace" font-size="14px" font-style="normal" font-weight="normal" text-decoration="normal" x="476.5839782655239" y="428.36891174316406" text-anchor="end" dominant-baseline="text-after-edge">y</text><path fill="white" stroke="#505050" paint-order="fill stroke markers" d=" M 750.3237059116364 292.3489890098572 L 758.3237059116364 292.3489890098572 L 766.3237059116364 300.3489890098572 L 758.3237059116364 308.3489890098572 L 750.3237059116364 308.3489890098572 L 750.3237059116364 292.3489890098572" stroke-miterlimit="10" stroke-width="0.5" stroke-dasharray=""/><path fill="none" stroke="none"/><path fill="none" stroke="#505050" paint-order="fill stroke markers" d=" M 750.3237059116364 296.3489890098572 L 758.3237059116364 296.3489890098572 L 758.3237059116364 304.3489890098572 L 750.3237059116364 304.3489890098572 L 750.3237059116364 296.3489890098572 Z" stroke-miterlimit="10" stroke-width="0.5" stroke-dasharray=""/><path fill="white" stroke="#505050" paint-order="fill stroke markers" d=" M 617.5779173374176 284.7161269187927 L 690.5779173374176 284.7161269187927 L 690.5779173374176 376.7161269187927 L 617.5779173374176 376.7161269187927 L 617.5779173374176 284.7161269187927 Z" stroke-miterlimit="10" stroke-width="0.5" stroke-dasharray=""/><path fill="#F0F0F0" stroke="none" paint-order="stroke fill markers" d=""/><path fill="none" stroke="none"/><text fill="#505050" stroke="none" font-family="monospace" font-size="14px" font-style="normal" font-weight="normal" text-decoration="normal" x="654.0779173374176" y="302.7161269187927" text-anchor="middle" dominant-baseline="text-after-edge">expStep</text><path fill="none" stroke="#505050" paint-order="fill stroke markers" d=" M 617.5779173374176 302.7161269187927 L 625.5779173374176 302.7161269187927 L 625.5779173374176 310.7161269187927 L 617.5779173374176 310.7161269187927 L 617.5779173374176 302.7161269187927 Z" stroke-miterlimit="10" stroke-width="0.5" stroke-dasharray=""/><text fill="#505050" stroke="none" font-family="monospace" font-size="14px" font-style="normal" font-weight="normal" text-decoration="normal" x="633.5779173374176" y="316.7161269187927" text-anchor="start" dominant-baseline="text-after-edge">n</text><path fill="none" stroke="#505050" paint-order="fill stroke markers" d=" M 617.5779173374176 316.7161269187927 L 625.5779173374176 316.7161269187927 L 625.5779173374176 324.7161269187927 L 617.5779173374176 324.7161269187927 L 617.5779173374176 316.7161269187927 Z" stroke-miterlimit="10" stroke-width="0.5" stroke-dasharray=""/><text fill="#505050" stroke="none" font-family="monospace" font-size="14px" font-style="normal" font-weight="normal" text-decoration="normal" x="633.5779173374176" y="330.7161269187927" text-anchor="start" dominant-baseline="text-after-edge">x</text><path fill="none" stroke="#505050" paint-order="fill stroke markers" d=" M 617.5779173374176 330.7161269187927 L 625.5779173374176 330.7161269187927 L 625.5779173374176 338.7161269187927 L 617.5779173374176 338.7161269187927 L 617.5779173374176 330.7161269187927 Z" stroke-miterlimit="10" stroke-width="0.5" stroke-dasharray=""/><text fill="#505050" stroke="none" font-family="monospace" font-size="14px" font-style="normal" font-weight="normal" text-decoration="normal" x="633.5779173374176" y="344.7161269187927" text-anchor="start" dominant-baseline="text-after-edge">y</text><path fill="none" stroke="#505050" paint-order="fill stroke markers" d=" M 617.5779173374176 344.7161269187927 L 641.5779173374176 344.7161269187927 L 641.5779173374176 372.7161269187927 L 617.5779173374176 372.7161269187927 L 617.5779173374176 344.7161269187927 Z" stroke-miterlimit="10" stroke-width="0.5" stroke-dasharray=""/><path fill="none" stroke="none"/><path fill="none" stroke="#505050" paint-order="fill stroke markers" d=" M 617.5779173374176 348.7161269187927 L 625.5779173374176 348.7161269187927 L 625.5779173374176 356.7161269187927 L 617.5779173374176 356.7161269187927 L 617.5779173374176 348.7161269187927 Z" stroke-miterlimit="10" stroke-width="0.5" stroke-dasharray=""/><path fill="none" stroke="#505050" paint-order="fill stroke markers" d=" M 617.5779173374176 360.7161269187927 L 625.5779173374176 360.7161269187927 L 625.5779173374176 368.7161269187927 L 617.5779173374176 368.7161269187927 L 617.5779173374176 360.7161269187927 Z" stroke-miterlimit="10" stroke-width="0.5" stroke-dasharray=""/><path fill="none" stroke="#505050" paint-order="fill stroke markers" d=" M 633.5779173374176 348.7161269187927 L 641.5779173374176 348.7161269187927 L 641.5779173374176 356.7161269187927 L 633.5779173374176 356.7161269187927 L 633.5779173374176 348.7161269187927 Z" stroke-miterlimit="10" stroke-width="0.5" stroke-dasharray=""/><text fill="#505050" stroke="none" font-family="monospace" font-size="14px" font-style="normal" font-weight="normal" text-decoration="normal" x="649.5779173374176" y="367.7161269187927" text-anchor="start" dominant-baseline="text-after-edge">mul</text><path fill="none" stroke="#505050" paint-order="fill stroke markers" d=" M 682.5779173374176 302.7161269187927 L 690.5779173374176 302.7161269187927 L 690.5779173374176 310.7161269187927 L 682.5779173374176 310.7161269187927 L 682.5779173374176 302.7161269187927 Z" stroke-miterlimit="10" stroke-width="0.5" stroke-dasharray=""/><path fill="white" stroke="#505050" paint-order="fill stroke markers" d=" M 639.6683104038239 390.00326681137085 L 712.6683104038239 390.00326681137085 L 712.6683104038239 482.00326681137085 L 639.6683104038239 482.00326681137085 L 639.6683104038239 390.00326681137085 Z" stroke-miterlimit="10" stroke-width="0.5" stroke-dasharray=""/><path fill="#F0F0F0" stroke="none" paint-order="stroke fill markers" d=""/><path fill="none" stroke="none"/><text fill="#505050" stroke="none" font-family="monospace" font-size="14px" font-style="normal" font-weight="normal" text-decoration="normal" x="676.1683104038239" y="408.00326681137085" text-anchor="middle" dominant-baseline="text-after-edge">expStep</text><path fill="none" stroke="#505050" paint-order="fill stroke markers" d=" M 639.6683104038239 408.00326681137085 L 647.6683104038239 408.00326681137085 L 647.6683104038239 416.00326681137085 L 639.6683104038239 416.00326681137085 L 639.6683104038239 408.00326681137085 Z" stroke-miterlimit="10" stroke-width="0.5" stroke-dasharray=""/><text fill="#505050" stroke="none" font-family="monospace" font-size="14px" font-style="normal" font-weight="normal" text-decoration="normal" x="655.6683104038239" y="422.00326681137085" text-anchor="start" dominant-baseline="text-after-edge">n</text><path fill="none" stroke="#505050" paint-order="fill stroke markers" d=" M 639.6683104038239 422.00326681137085 L 647.6683104038239 422.00326681137085 L 647.6683104038239 430.00326681137085 L 639.6683104038239 430.00326681137085 L 639.6683104038239 422.00326681137085 Z" stroke-miterlimit="10" stroke-width="0.5" stroke-dasharray=""/><text fill="#505050" stroke="none" font-family="monospace" font-size="14px" font-style="normal" font-weight="normal" text-decoration="normal" x="655.6683104038239" y="436.00326681137085" text-anchor="start" dominant-baseline="text-after-edge">x</text><path fill="none" stroke="#505050" paint-order="fill stroke markers" d=" M 639.6683104038239 436.00326681137085 L 647.6683104038239 436.00326681137085 L 647.6683104038239 444.00326681137085 L 639.6683104038239 444.00326681137085 L 639.6683104038239 436.00326681137085 Z" stroke-miterlimit="10" stroke-width="0.5" stroke-dasharray=""/><text fill="#505050" stroke="none" font-family="monospace" font-size="14px" font-style="normal" font-weight="normal" text-decoration="normal" x="655.6683104038239" y="450.00326681137085" text-anchor="start" dominant-baseline="text-after-edge">y</text><path fill="none" stroke="#505050" paint-order="fill stroke markers" d=" M 639.6683104038239 450.00326681137085 L 663.6683104038239 450.00326681137085 L 663.6683104038239 478.00326681137085 L 639.6683104038239 478.00326681137085 L 639.6683104038239 450.00326681137085 Z" stroke-miterlimit="10" stroke-width="0.5" stroke-dasharray=""/><path fill="none" stroke="none"/><path fill="none" stroke="#505050" paint-order="fill stroke markers" d=" M 639.6683104038239 454.00326681137085 L 647.6683104038239 454.00326681137085 L 647.6683104038239 462.00326681137085 L 639.6683104038239 462.00326681137085 L 639.6683104038239 454.00326681137085 Z" stroke-miterlimit="10" stroke-width="0.5" stroke-dasharray=""/><path fill="none" stroke="#505050" paint-order="fill stroke markers" d=" M 639.6683104038239 466.00326681137085 L 647.6683104038239 466.00326681137085 L 647.6683104038239 474.00326681137085 L 639.6683104038239 474.00326681137085 L 639.6683104038239 466.00326681137085 Z" stroke-miterlimit="10" stroke-width="0.5" stroke-dasharray=""/><path fill="none" stroke="#505050" paint-order="fill stroke markers" d=" M 655.6683104038239 454.00326681137085 L 663.6683104038239 454.00326681137085 L 663.6683104038239 462.00326681137085 L 655.6683104038239 462.00326681137085 L 655.6683104038239 454.00326681137085 Z" stroke-miterlimit="10" stroke-width="0.5" stroke-dasharray=""/><text fill="#505050" stroke="none" font-family="monospace" font-size="14px" font-style="normal" font-weight="normal" text-decoration="normal" x="671.6683104038239" y="473.00326681137085" text-anchor="start" dominant-baseline="text-after-edge">mul</text><path fill="none" stroke="#505050" paint-order="fill stroke markers" d=" M 704.6683104038239 408.00326681137085 L 712.6683104038239 408.00326681137085 L 712.6683104038239 416.00326681137085 L 704.6683104038239 416.00326681137085 L 704.6683104038239 408.00326681137085 Z" stroke-miterlimit="10" stroke-width="0.5" stroke-dasharray=""/><path fill="white" stroke="#505050" paint-order="fill stroke markers" d=" M 581.7120954990387 206.77511358261108 L 623.7120954990387 206.77511358261108 L 623.7120954990387 236.77511358261108 L 581.7120954990387 236.77511358261108 L 581.7120954990387 206.77511358261108 Z" stroke-miterlimit="10" stroke-width="0.5" stroke-dasharray=""/><path fill="#F0F0F0" stroke="none" paint-order="stroke fill markers" d=""/><path fill="none" stroke="none"/><text fill="#505050" stroke="none" font-family="monospace" font-size="14px" font-style="normal" font-weight="normal" text-decoration="normal" x="602.7120954990387" y="224.77511358261108" text-anchor="middle" dominant-baseline="text-after-edge">== 0</text><path fill="none" stroke="#505050" paint-order="fill stroke markers" d=" M 581.7120954990387 224.77511358261108 L 589.7120954990387 224.77511358261108 L 589.7120954990387 232.77511358261108 L 581.7120954990387 232.77511358261108 L 581.7120954990387 224.77511358261108 Z" stroke-miterlimit="10" stroke-width="0.5" stroke-dasharray=""/><path fill="none" stroke="#505050" paint-order="fill stroke markers" d=" M 615.7120954990387 224.77511358261108 L 623.7120954990387 224.77511358261108 L 623.7120954990387 232.77511358261108 L 615.7120954990387 232.77511358261108 L 615.7120954990387 224.77511358261108 Z" stroke-miterlimit="10" stroke-width="0.5" stroke-dasharray=""/><path fill="white" stroke="#505050" paint-order="fill stroke markers" d=" M 710.1602232456207 252.6776785850525 L 734.1602232456207 252.6776785850525 L 734.1602232456207 330.6776785850525 L 710.1602232456207 330.6776785850525 L 710.1602232456207 252.6776785850525 Z" stroke-miterlimit="10" stroke-width="0.5" stroke-dasharray=""/><path fill="#F0F0F0" stroke="none" paint-order="stroke fill markers" d=""/><path fill="none" stroke="none"/><text fill="#505050" stroke="none" font-family="monospace" font-size="14px" font-style="normal" font-weight="normal" text-decoration="normal" x="722.1602232456207" y="270.6776785850525" text-anchor="middle" dominant-baseline="text-after-edge">?</text><path fill="none" stroke="#505050" paint-order="fill stroke markers" d=" M 710.1602232456207 270.6776785850525 L 718.1602232456207 270.6776785850525 L 718.1602232456207 278.6776785850525 L 710.1602232456207 278.6776785850525 L 710.1602232456207 270.6776785850525 Z" stroke-miterlimit="10" stroke-width="0.5" stroke-dasharray=""/><path fill="none" stroke="#505050" paint-order="fill stroke markers" d=" M 710.1602232456207 282.6776785850525 L 718.1602232456207 282.6776785850525 L 718.1602232456207 290.6776785850525 L 710.1602232456207 290.6776785850525 L 710.1602232456207 282.6776785850525 Z" stroke-miterlimit="10" stroke-width="0.5" stroke-dasharray=""/><path fill="none" stroke="#505050" paint-order="fill stroke markers" d=" M 710.1602232456207 294.6776785850525 L 718.1602232456207 294.6776785850525 L 718.1602232456207 302.6776785850525 L 710.1602232456207 302.6776785850525 L 710.1602232456207 294.6776785850525 Z" stroke-miterlimit="10" stroke-width="0.5" stroke-dasharray=""/><path fill="none" stroke="#505050" paint-order="fill stroke markers" d=" M 710.1602232456207 306.6776785850525 L 718.1602232456207 306.6776785850525 L 718.1602232456207 314.6776785850525 L 710.1602232456207 314.6776785850525 L 710.1602232456207 306.6776785850525 Z" stroke-miterlimit="10" stroke-width="0.5" stroke-dasharray=""/><path fill="none" stroke="#505050" paint-order="fill stroke markers" d=" M 710.1602232456207 318.6776785850525 L 718.1602232456207 318.6776785850525 L 718.1602232456207 326.6776785850525 L 710.1602232456207 326.6776785850525 L 710.1602232456207 318.6776785850525 Z" stroke-miterlimit="10" stroke-width="0.5" stroke-dasharray=""/><path fill="none" stroke="#505050" paint-order="fill stroke markers" d=" M 726.1602232456207 270.6776785850525 L 734.1602232456207 270.6776785850525 L 734.1602232456207 278.6776785850525 L 726.1602232456207 278.6776785850525 L 726.1602232456207 270.6776785850525 Z" stroke-miterlimit="10" stroke-width="0.5" stroke-dasharray=""/><path fill="white" stroke="#505050" paint-order="fill stroke markers" d=" M 581.6119673252106 246.05950689315796 L 614.6119673252106 246.05950689315796 L 614.6119673252106 276.05950689315796 L 581.6119673252106 276.05950689315796 L 581.6119673252106 246.05950689315796 Z" stroke-miterlimit="10" stroke-width="0.5" stroke-dasharray=""/><path fill="#F0F0F0" stroke="none" paint-order="stroke fill markers" d=""/><path fill="none" stroke="none"/><text fill="#505050" stroke="none" font-family="monospace" font-size="14px" font-style="normal" font-weight="normal" text-decoration="normal" x="598.1119673252106" y="264.05950689315796" text-anchor="middle" dominant-baseline="text-after-edge">odd</text><path fill="none" stroke="#505050" paint-order="fill stroke markers" d=" M 581.6119673252106 264.05950689315796 L 589.6119673252106 264.05950689315796 L 589.6119673252106 272.05950689315796 L 581.6119673252106 272.05950689315796 L 581.6119673252106 264.05950689315796 Z" stroke-miterlimit="10" stroke-width="0.5" stroke-dasharray=""/><path fill="none" stroke="#505050" paint-order="fill stroke markers" d=" M 606.6119673252106 264.05950689315796 L 614.6119673252106 264.05950689315796 L 614.6119673252106 272.05950689315796 L 606.6119673252106 272.05950689315796 L 606.6119673252106 264.05950689315796 Z" stroke-miterlimit="10" stroke-width="0.5" stroke-dasharray=""/><path fill="none" stroke="none"/><path fill="white" stroke="#505050" paint-order="fill stroke markers" d=" M 457.8807601928711 458.3032760620117 L 506.8807601928711 458.3032760620117 L 506.8807601928711 508.3032760620117 L 457.8807601928711 508.3032760620117 L 465.8807601928711 483.3032760620117 L 457.8807601928711 458.3032760620117" stroke-miterlimit="10" stroke-width="0.5" stroke-dasharray=""/><path fill="#F0F0F0" stroke="none" paint-order="stroke fill markers" d=" M 473.8807601928711 462.3032760620117 L 506.8807601928711 462.3032760620117 L 506.8807601928711 504.3032760620117 L 473.8807601928711 504.3032760620117 L 473.8807601928711 462.3032760620117 Z"/><path fill="none" stroke="none"/><path fill="none" stroke="#505050" paint-order="fill stroke markers" d=" M 473.8807601928711 462.3032760620117 L 506.8807601928711 462.3032760620117 L 506.8807601928711 504.3032760620117 L 473.8807601928711 504.3032760620117 L 473.8807601928711 462.3032760620117 Z" stroke-miterlimit="10" stroke-width="0.5" stroke-dasharray=""/><path fill="none" stroke="none"/><text fill="#505050" stroke="none" font-family="monospace" font-size="14px" font-style="normal" font-weight="normal" text-decoration="normal" x="490.3807601928711" y="480.3032760620117" text-anchor="middle" dominant-baseline="text-after-edge">mul</text><path fill="none" stroke="#505050" paint-order="fill stroke markers" d=" M 473.8807601928711 480.3032760620117 L 481.8807601928711 480.3032760620117 L 481.8807601928711 488.3032760620117 L 473.8807601928711 488.3032760620117 L 473.8807601928711 480.3032760620117 Z" stroke-miterlimit="10" stroke-width="0.5" stroke-dasharray=""/><path fill="none" stroke="#505050" paint-order="fill stroke markers" d=" M 473.8807601928711 492.3032760620117 L 481.8807601928711 492.3032760620117 L 481.8807601928711 500.3032760620117 L 473.8807601928711 500.3032760620117 L 473.8807601928711 492.3032760620117 Z" stroke-miterlimit="10" stroke-width="0.5" stroke-dasharray=""/><path fill="none" stroke="#505050" paint-order="fill stroke markers" d=" M 498.8807601928711 480.3032760620117 L 506.8807601928711 480.3032760620117 L 506.8807601928711 488.3032760620117 L 498.8807601928711 488.3032760620117 L 498.8807601928711 480.3032760620117 Z" stroke-miterlimit="10" stroke-width="0.5" stroke-dasharray=""/><path fill="none" stroke="#505050" paint-order="fill stroke markers" d=" M 473.8807601928711 462.3032760620117 L 506.8807601928711 462.3032760620117 L 506.8807601928711 504.3032760620117 L 473.8807601928711 504.3032760620117 L 473.8807601928711 462.3032760620117 Z" stroke-miterlimit="10" stroke-width="0.5" stroke-dasharray="6,3"/><path fill="#F0F0F0" stroke="none" paint-order="stroke fill markers" d=""/><path fill="none" stroke="none"/><text fill="#505050" stroke="none" font-family="monospace" font-size="14px" font-style="normal" font-weight="normal" text-decoration="normal" x="490.3807601928711" y="480.3032760620117" text-anchor="middle" dominant-baseline="text-after-edge">mul</text><path fill="none" stroke="#505050" paint-order="fill stroke markers" d=" M 473.8807601928711 480.3032760620117 L 481.8807601928711 480.3032760620117 L 481.8807601928711 488.3032760620117 L 473.8807601928711 488.3032760620117 L 473.8807601928711 480.3032760620117 Z" stroke-miterlimit="10" stroke-width="0.5" stroke-dasharray="0"/><path fill="none" stroke="#505050" paint-order="fill stroke markers" d=" M 473.8807601928711 492.3032760620117 L 481.8807601928711 492.3032760620117 L 481.8807601928711 500.3032760620117 L 473.8807601928711 500.3032760620117 L 473.8807601928711 492.3032760620117 Z" stroke-miterlimit="10" stroke-width="0.5" stroke-dasharray="0"/><path fill="none" stroke="#505050" paint-order="fill stroke markers" d=" M 498.8807601928711 480.3032760620117 L 506.8807601928711 480.3032760620117 L 506.8807601928711 488.3032760620117 L 498.8807601928711 488.3032760620117 L 498.8807601928711 480.3032760620117 Z" stroke-miterlimit="10" stroke-width="0.5" stroke-dasharray="0"/><path fill="white" stroke="#505050" paint-order="fill stroke markers" d=" M 539.8558021485806 338.86574935913086 L 572.8558021485806 338.86574935913086 L 572.8558021485806 380.86574935913086 L 539.8558021485806 380.86574935913086 L 539.8558021485806 338.86574935913086 Z" stroke-miterlimit="10" stroke-width="0.5" stroke-dasharray="0"/><path fill="#F0F0F0" stroke="none" paint-order="stroke fill markers" d=""/><path fill="none" stroke="none"/><text fill="#505050" stroke="none" font-family="monospace" font-size="14px" font-style="normal" font-weight="normal" text-decoration="normal" x="556.3558021485806" y="356.86574935913086" text-anchor="middle" dominant-baseline="text-after-edge">mul</text><path fill="none" stroke="#505050" paint-order="fill stroke markers" d=" M 539.8558021485806 356.86574935913086 L 547.8558021485806 356.86574935913086 L 547.8558021485806 364.86574935913086 L 539.8558021485806 364.86574935913086 L 539.8558021485806 356.86574935913086 Z" stroke-miterlimit="10" stroke-width="0.5" stroke-dasharray="0"/><path fill="none" stroke="#505050" paint-order="fill stroke markers" d=" M 539.8558021485806 368.86574935913086 L 547.8558021485806 368.86574935913086 L 547.8558021485806 376.86574935913086 L 539.8558021485806 376.86574935913086 L 539.8558021485806 368.86574935913086 Z" stroke-miterlimit="10" stroke-width="0.5" stroke-dasharray="0"/><path fill="none" stroke="#505050" paint-order="fill stroke markers" d=" M 564.8558021485806 356.86574935913086 L 572.8558021485806 356.86574935913086 L 572.8558021485806 364.86574935913086 L 564.8558021485806 364.86574935913086 L 564.8558021485806 356.86574935913086 Z" stroke-miterlimit="10" stroke-width="0.5" stroke-dasharray="0"/><path fill="white" stroke="#505050" paint-order="fill stroke markers" d=" M 557.3808424472809 421.02511739730835 L 590.3808424472809 421.02511739730835 L 590.3808424472809 463.02511739730835 L 557.3808424472809 463.02511739730835 L 557.3808424472809 421.02511739730835 Z" stroke-miterlimit="10" stroke-width="0.5" stroke-dasharray="0"/><path fill="#F0F0F0" stroke="none" paint-order="stroke fill markers" d=""/><path fill="none" stroke="none"/><text fill="#505050" stroke="none" font-family="monospace" font-size="14px" font-style="normal" font-weight="normal" text-decoration="normal" x="573.8808424472809" y="439.02511739730835" text-anchor="middle" dominant-baseline="text-after-edge">mul</text><path fill="none" stroke="#505050" paint-order="fill stroke markers" d=" M 557.3808424472809 439.02511739730835 L 565.3808424472809 439.02511739730835 L 565.3808424472809 447.02511739730835 L 557.3808424472809 447.02511739730835 L 557.3808424472809 439.02511739730835 Z" stroke-miterlimit="10" stroke-width="0.5" stroke-dasharray="0"/><path fill="none" stroke="#505050" paint-order="fill stroke markers" d=" M 557.3808424472809 451.02511739730835 L 565.3808424472809 451.02511739730835 L 565.3808424472809 459.02511739730835 L 557.3808424472809 459.02511739730835 L 557.3808424472809 451.02511739730835 Z" stroke-miterlimit="10" stroke-width="0.5" stroke-dasharray="0"/><path fill="none" stroke="#505050" paint-order="fill stroke markers" d=" M 582.3808424472809 439.02511739730835 L 590.3808424472809 439.02511739730835 L 590.3808424472809 447.02511739730835 L 582.3808424472809 447.02511739730835 L 582.3808424472809 439.02511739730835 Z" stroke-miterlimit="10" stroke-width="0.5" stroke-dasharray="0"/><path fill="white" stroke="#505050" paint-order="fill stroke markers" d=" M 683.3131544589996 57.3923659324646 L 683.3131544589996 106.78498601913452 Q 683.3131544589996 114.78498601913452 691.3131544589996 114.78498601913452 L 791.5171949863434 114.78498601913452 Q 799.5171949863434 114.78498601913452 799.5171949863434 106.78498601913452 L 799.5171949863434 57.3923659324646 Q 799.5171949863434 49.3923659324646 791.5171949863434 49.3923659324646 L 691.3131544589996 49.3923659324646 Q 683.3131544589996 49.3923659324646 683.3131544589996 57.3923659324646" stroke-miterlimit="10" stroke-width="0.5" stroke-dasharray="0"/><path fill="#F0F0F0" stroke="#505050" paint-order="fill stroke markers" d=" M 766.5171949863434 57.3923659324646 L 799.5171949863434 57.3923659324646 L 799.5171949863434 87.3923659324646 L 766.5171949863434 87.3923659324646 L 766.5171949863434 57.3923659324646 Z" stroke-miterlimit="10" stroke-width="0.5" stroke-dasharray="0"/><path fill="none" stroke="none"/><text fill="#505050" stroke="none" font-family="monospace" font-size="14px" font-style="normal" font-weight="normal" text-decoration="normal" x="783.0171949863434" y="75.3923659324646" text-anchor="middle" dominant-baseline="text-after-edge">odd</text><path fill="none" stroke="#505050" paint-order="fill stroke markers" d=" M 766.5171949863434 75.3923659324646 L 774.5171949863434 75.3923659324646 L 774.5171949863434 83.3923659324646 L 766.5171949863434 83.3923659324646 L 766.5171949863434 75.3923659324646 Z" stroke-miterlimit="10" stroke-width="0.5" stroke-dasharray="0"/><path fill="none" stroke="#505050" paint-order="fill stroke markers" d=" M 791.5171949863434 75.3923659324646 L 799.5171949863434 75.3923659324646 L 799.5171949863434 83.3923659324646 L 791.5171949863434 83.3923659324646 L 791.5171949863434 75.3923659324646 Z" stroke-miterlimit="10" stroke-width="0.5" stroke-dasharray="0"/><path fill="none" stroke="#505050" paint-order="fill stroke markers" d=" M 729.3568556308746 76.98924398422241 L 721.3568556308746 76.98924398422241 M 753.3568556308746 76.98924398422241 L 761.3568556308746 76.98924398422241" stroke-miterlimit="10" stroke-dasharray="0"/><path fill="white" stroke="#505050" paint-order="fill stroke markers" d=" M 729.3568556308746 54.98924398422241 L 753.3568556308746 54.98924398422241 L 753.3568556308746 96.98924398422241 L 729.3568556308746 96.98924398422241 L 729.3568556308746 54.98924398422241 Z" stroke-miterlimit="10" stroke-width="0.5" stroke-dasharray="0"/><path fill="#F0F0F0" stroke="none" paint-order="stroke fill markers" d=""/><path fill="none" stroke="none"/><text fill="#505050" stroke="none" font-family="monospace" font-size="14px" font-style="normal" font-weight="normal" text-decoration="normal" x="741.3568556308746" y="72.98924398422241" text-anchor="middle" dominant-baseline="text-after-edge">&amp;</text><path fill="none" stroke="#505050" paint-order="fill stroke markers" d=" M 729.3568556308746 72.98924398422241 L 737.3568556308746 72.98924398422241 L 737.3568556308746 80.98924398422241 L 729.3568556308746 80.98924398422241 L 729.3568556308746 72.98924398422241 Z" stroke-miterlimit="10" stroke-width="0.5" stroke-dasharray="0"/><path fill="none" stroke="#505050" paint-order="fill stroke markers" d=" M 729.3568556308746 84.98924398422241 L 737.3568556308746 84.98924398422241 L 737.3568556308746 92.98924398422241 L 729.3568556308746 92.98924398422241 L 729.3568556308746 84.98924398422241 Z" stroke-miterlimit="10" stroke-width="0.5" stroke-dasharray="0"/><path fill="none" stroke="#505050" paint-order="fill stroke markers" d=" M 745.3568556308746 72.98924398422241 L 753.3568556308746 72.98924398422241 L 753.3568556308746 80.98924398422241 L 745.3568556308746 80.98924398422241 L 745.3568556308746 72.98924398422241 Z" stroke-miterlimit="10" stroke-width="0.5" stroke-dasharray="0"/><path fill="white" stroke="#505050" paint-order="fill stroke markers" d=" M 687.966156244278 80.78498601913452 L 719.966156244278 80.78498601913452 L 719.966156244278 98.78498601913452 L 687.966156244278 98.78498601913452 L 687.966156244278 80.78498601913452 Z" stroke-miterlimit="10" stroke-width="0.5" stroke-dasharray="0"/><path fill="#F0F0F0" stroke="none" paint-order="stroke fill markers" d=""/><path fill="none" stroke="none"/><path fill="none" stroke="#505050" paint-order="fill stroke markers" d=" M 711.966156244278 84.78498601913452 L 719.966156244278 84.78498601913452 L 719.966156244278 92.78498601913452 L 711.966156244278 92.78498601913452 L 711.966156244278 84.78498601913452 Z" stroke-miterlimit="10" stroke-width="0.5" stroke-dasharray="0"/><text fill="#505050" stroke="none" font-family="monospace" font-size="14px" font-style="normal" font-weight="normal" text-decoration="normal" x="703.966156244278" y="98.78498601913452" text-anchor="end" dominant-baseline="text-after-edge">1</text><path fill="white" stroke="#505050" paint-order="fill stroke markers" d=" M 530.7271406650543 54.67487859725952 L 530.7271406650543 107.92487859725952 Q 530.7271406650543 115.92487859725952 538.7271406650543 115.92487859725952 L 658.3457624912262 115.92487859725952 Q 666.3457624912262 115.92487859725952 666.3457624912262 107.92487859725952 L 666.3457624912262 54.67487859725952 Q 666.3457624912262 46.67487859725952 658.3457624912262 46.67487859725952 L 538.7271406650543 46.67487859725952 Q 530.7271406650543 46.67487859725952 530.7271406650543 54.67487859725952" stroke-miterlimit="10" stroke-width="0.5" stroke-dasharray="0"/><path fill="#F0F0F0" stroke="#505050" paint-order="fill stroke markers" d=" M 624.3457624912262 54.67487859725952 L 666.3457624912262 54.67487859725952 L 666.3457624912262 84.67487859725952 L 624.3457624912262 84.67487859725952 L 624.3457624912262 54.67487859725952 Z" stroke-miterlimit="10" stroke-width="0.5" stroke-dasharray="0"/><path fill="none" stroke="none"/><text fill="#505050" stroke="none" font-family="monospace" font-size="14px" font-style="normal" font-weight="normal" text-decoration="normal" x="645.3457624912262" y="72.67487859725952" text-anchor="middle" dominant-baseline="text-after-edge">== 0</text><path fill="none" stroke="#505050" paint-order="fill stroke markers" d=" M 624.3457624912262 72.67487859725952 L 632.3457624912262 72.67487859725952 L 632.3457624912262 80.67487859725952 L 624.3457624912262 80.67487859725952 L 624.3457624912262 72.67487859725952 Z" stroke-miterlimit="10" stroke-width="0.5" stroke-dasharray="0"/><path fill="none" stroke="#505050" paint-order="fill stroke markers" d=" M 658.3457624912262 72.67487859725952 L 666.3457624912262 72.67487859725952 L 666.3457624912262 80.67487859725952 L 658.3457624912262 80.67487859725952 L 658.3457624912262 72.67487859725952 Z" stroke-miterlimit="10" stroke-width="0.5" stroke-dasharray="0"/><path fill="none" stroke="#505050" paint-order="fill stroke markers" d=" M 586.7271406650543 77.92487859725952 L 578.7271406650543 77.92487859725952 M 611.7271406650543 77.92487859725952 L 619.7271406650543 77.92487859725952" stroke-miterlimit="10" stroke-dasharray="0"/><path fill="white" stroke="#505050" paint-order="fill stroke markers" d=" M 586.7271406650543 55.92487859725952 L 611.7271406650543 55.92487859725952 L 611.7271406650543 97.92487859725952 L 586.7271406650543 97.92487859725952 L 586.7271406650543 55.92487859725952 Z" stroke-miterlimit="10" stroke-width="0.5" stroke-dasharray="0"/><path fill="#F0F0F0" stroke="none" paint-order="stroke fill markers" d=""/><path fill="none" stroke="none"/><text fill="#505050" stroke="none" font-family="monospace" font-size="14px" font-style="normal" font-weight="normal" text-decoration="normal" x="599.2271406650543" y="73.92487859725952" text-anchor="middle" dominant-baseline="text-after-edge">==</text><path fill="none" stroke="#505050" paint-order="fill stroke markers" d=" M 586.7271406650543 73.92487859725952 L 594.7271406650543 73.92487859725952 L 594.7271406650543 81.92487859725952 L 586.7271406650543 81.92487859725952 L 586.7271406650543 73.92487859725952 Z" stroke-miterlimit="10" stroke-width="0.5" stroke-dasharray="0"/><path fill="none" stroke="#505050" paint-order="fill stroke markers" d=" M 586.7271406650543 85.92487859725952 L 594.7271406650543 85.92487859725952 L 594.7271406650543 93.92487859725952 L 586.7271406650543 93.92487859725952 L 586.7271406650543 85.92487859725952 Z" stroke-miterlimit="10" stroke-width="0.5" stroke-dasharray="0"/><path fill="none" stroke="#505050" paint-order="fill stroke markers" d=" M 603.7271406650543 73.92487859725952 L 611.7271406650543 73.92487859725952 L 611.7271406650543 81.92487859725952 L 603.7271406650543 81.92487859725952 L 603.7271406650543 73.92487859725952 Z" stroke-miterlimit="10" stroke-width="0.5" stroke-dasharray="0"/><path fill="white" stroke="#505050" paint-order="fill stroke markers" d=" M 538.7271406650543 81.92487859725952 L 570.7271406650543 81.92487859725952 L 570.7271406650543 99.92487859725952 L 538.7271406650543 99.92487859725952 L 538.7271406650543 81.92487859725952 Z" stroke-miterlimit="10" stroke-width="0.5" stroke-dasharray="0"/><path fill="#F0F0F0" stroke="none" paint-order="stroke fill markers" d=""/><path fill="none" stroke="none"/><path fill="none" stroke="#505050" paint-order="fill stroke markers" d=" M 562.7271406650543 85.92487859725952 L 570.7271406650543 85.92487859725952 L 570.7271406650543 93.92487859725952 L 562.7271406650543 93.92487859725952 L 562.7271406650543 85.92487859725952 Z" stroke-miterlimit="10" stroke-width="0.5" stroke-dasharray="0"/><text fill="#505050" stroke="none" font-family="monospace" font-size="14px" font-style="normal" font-weight="normal" text-decoration="normal" x="554.7271406650543" y="99.92487859725952" text-anchor="end" dominant-baseline="text-after-edge">0</text><path fill="white" stroke="#505050" paint-order="fill stroke markers" d=" M 819.6994171142578 55.66963195800781 L 819.6994171142578 151.762939453125 Q 819.6994171142578 159.762939453125 827.6994171142578 159.762939453125 L 923.5443267822266 159.762939453125 Q 931.5443267822266 159.762939453125 931.5443267822266 151.762939453125 L 931.5443267822266 55.66963195800781 Q 931.5443267822266 47.66963195800781 923.5443267822266 47.66963195800781 L 827.6994171142578 47.66963195800781 Q 819.6994171142578 47.66963195800781 819.6994171142578 55.66963195800781" stroke-miterlimit="10" stroke-width="0.5" stroke-dasharray="0"/><path fill="#F0F0F0" stroke="#505050" paint-order="fill stroke markers" d=" M 907.5443267822266 55.66963195800781 L 931.5443267822266 55.66963195800781 L 931.5443267822266 133.6696319580078 L 907.5443267822266 133.6696319580078 L 907.5443267822266 55.66963195800781 Z" stroke-miterlimit="10" stroke-width="0.5" stroke-dasharray="0"/><path fill="none" stroke="none"/><text fill="#505050" stroke="none" font-family="monospace" font-size="14px" font-style="normal" font-weight="normal" text-decoration="normal" x="919.5443267822266" y="73.66963195800781" text-anchor="middle" dominant-baseline="text-after-edge">?</text><path fill="none" stroke="#505050" paint-order="fill stroke markers" d=" M 907.5443267822266 73.66963195800781 L 915.5443267822266 73.66963195800781 L 915.5443267822266 81.66963195800781 L 907.5443267822266 81.66963195800781 L 907.5443267822266 73.66963195800781 Z" stroke-miterlimit="10" stroke-width="0.5" stroke-dasharray="0"/><path fill="none" stroke="#505050" paint-order="fill stroke markers" d=" M 907.5443267822266 85.66963195800781 L 915.5443267822266 85.66963195800781 L 915.5443267822266 93.66963195800781 L 907.5443267822266 93.66963195800781 L 907.5443267822266 85.66963195800781 Z" stroke-miterlimit="10" stroke-width="0.5" stroke-dasharray="0"/><path fill="none" stroke="#505050" paint-order="fill stroke markers" d=" M 907.5443267822266 97.66963195800781 L 915.5443267822266 97.66963195800781 L 915.5443267822266 105.66963195800781 L 907.5443267822266 105.66963195800781 L 907.5443267822266 97.66963195800781 Z" stroke-miterlimit="10" stroke-width="0.5" stroke-dasharray="0"/><path fill="none" stroke="#505050" paint-order="fill stroke markers" d=" M 907.5443267822266 109.66963195800781 L 915.5443267822266 109.66963195800781 L 915.5443267822266 117.66963195800781 L 907.5443267822266 117.66963195800781 L 907.5443267822266 109.66963195800781 Z" stroke-miterlimit="10" stroke-width="0.5" stroke-dasharray="0"/><path fill="none" stroke="#505050" paint-order="fill stroke markers" d=" M 907.5443267822266 121.66963195800781 L 915.5443267822266 121.66963195800781 L 915.5443267822266 129.6696319580078 L 907.5443267822266 129.6696319580078 L 907.5443267822266 121.66963195800781 Z" stroke-miterlimit="10" stroke-width="0.5" stroke-dasharray="0"/><path fill="none" stroke="#505050" paint-order="fill stroke markers" d=" M 923.5443267822266 73.66963195800781 L 931.5443267822266 73.66963195800781 L 931.5443267822266 81.66963195800781 L 923.5443267822266 81.66963195800781 L 923.5443267822266 73.66963195800781 Z" stroke-miterlimit="10" stroke-width="0.5" stroke-dasharray="0"/><path fill="none" stroke="#505050" paint-order="fill stroke markers" d=" M 873.2563781738281 80.20979309082031 L 865.2563781738281 80.20979309082031 M 873.2563781738281 92.20979309082031 L 865.2563781738281 92.20979309082031 M 830.9970092773438 111.762939453125 L 822.9970092773438 111.762939453125 M 830.9970092773438 123.762939453125 L 822.9970092773438 123.762939453125 M 830.9970092773438 135.762939453125 L 822.9970092773438 135.762939453125 M 897.2563781738281 80.20979309082031 L 905.2563781738281 80.20979309082031" stroke-miterlimit="10" stroke-dasharray="0"/><path fill="white" stroke="#505050" paint-order="fill stroke markers" d=" M 830.9970092773438 89.762939453125 L 854.9970092773438 89.762939453125 L 854.9970092773438 143.762939453125 L 830.9970092773438 143.762939453125 L 830.9970092773438 89.762939453125 Z" stroke-miterlimit="10" stroke-width="0.5" stroke-dasharray="0"/><path fill="#F0F0F0" stroke="none" paint-order="stroke fill markers" d=""/><path fill="none" stroke="none"/><text fill="#505050" stroke="none" font-family="monospace" font-size="14px" font-style="normal" font-weight="normal" text-decoration="normal" x="842.9970092773438" y="107.762939453125" text-anchor="middle" dominant-baseline="text-after-edge">?</text><path fill="none" stroke="#505050" paint-order="fill stroke markers" d=" M 830.9970092773438 107.762939453125 L 838.9970092773438 107.762939453125 L 838.9970092773438 115.762939453125 L 830.9970092773438 115.762939453125 L 830.9970092773438 107.762939453125 Z" stroke-miterlimit="10" stroke-width="0.5" stroke-dasharray="0"/><path fill="none" stroke="#505050" paint-order="fill stroke markers" d=" M 830.9970092773438 119.762939453125 L 838.9970092773438 119.762939453125 L 838.9970092773438 127.762939453125 L 830.9970092773438 127.762939453125 L 830.9970092773438 119.762939453125 Z" stroke-miterlimit="10" stroke-width="0.5" stroke-dasharray="0"/><path fill="none" stroke="#505050" paint-order="fill stroke markers" d=" M 830.9970092773438 131.762939453125 L 838.9970092773438 131.762939453125 L 838.9970092773438 139.762939453125 L 830.9970092773438 139.762939453125 L 830.9970092773438 131.762939453125 Z" stroke-miterlimit="10" stroke-width="0.5" stroke-dasharray="0"/><path fill="none" stroke="#505050" paint-order="fill stroke markers" d=" M 846.9970092773438 107.762939453125 L 854.9970092773438 107.762939453125 L 854.9970092773438 115.762939453125 L 846.9970092773438 115.762939453125 L 846.9970092773438 107.762939453125 Z" stroke-miterlimit="10" stroke-width="0.5" stroke-dasharray="0"/><path fill="white" stroke="#505050" paint-order="fill stroke markers" d=" M 873.2563781738281 58.20979309082031 L 897.2563781738281 58.20979309082031 L 897.2563781738281 112.20979309082031 L 873.2563781738281 112.20979309082031 L 873.2563781738281 58.20979309082031 Z" stroke-miterlimit="10" stroke-width="0.5" stroke-dasharray="0"/><path fill="#F0F0F0" stroke="none" paint-order="stroke fill markers" d=""/><path fill="none" stroke="none"/><text fill="#505050" stroke="none" font-family="monospace" font-size="14px" font-style="normal" font-weight="normal" text-decoration="normal" x="885.2563781738281" y="76.20979309082031" text-anchor="middle" dominant-baseline="text-after-edge">?</text><path fill="none" stroke="#505050" paint-order="fill stroke markers" d=" M 873.2563781738281 76.20979309082031 L 881.2563781738281 76.20979309082031 L 881.2563781738281 84.20979309082031 L 873.2563781738281 84.20979309082031 L 873.2563781738281 76.20979309082031 Z" stroke-miterlimit="10" stroke-width="0.5" stroke-dasharray="0"/><path fill="none" stroke="#505050" paint-order="fill stroke markers" d=" M 873.2563781738281 88.20979309082031 L 881.2563781738281 88.20979309082031 L 881.2563781738281 96.20979309082031 L 873.2563781738281 96.20979309082031 L 873.2563781738281 88.20979309082031 Z" stroke-miterlimit="10" stroke-width="0.5" stroke-dasharray="0"/><path fill="none" stroke="#505050" paint-order="fill stroke markers" d=" M 873.2563781738281 100.20979309082031 L 881.2563781738281 100.20979309082031 L 881.2563781738281 108.20979309082031 L 873.2563781738281 108.20979309082031 L 873.2563781738281 100.20979309082031 Z" stroke-miterlimit="10" stroke-width="0.5" stroke-dasharray="0"/><path fill="none" stroke="#505050" paint-order="fill stroke markers" d=" M 889.2563781738281 76.20979309082031 L 897.2563781738281 76.20979309082031 L 897.2563781738281 84.20979309082031 L 889.2563781738281 84.20979309082031 L 889.2563781738281 76.20979309082031 Z" stroke-miterlimit="10" stroke-width="0.5" stroke-dasharray="0"/><path fill="white" stroke="#505050" paint-order="fill stroke markers" d=" M 851.4097290039062 189.1103515625 L 851.4097290039062 314.3501319885254 Q 851.4097290039062 322.3501319885254 859.4097290039062 322.3501319885254 L 1064.4597778320312 322.3501319885254 Q 1072.4597778320312 322.3501319885254 1072.4597778320312 314.3501319885254 L 1072.4597778320312 189.1103515625 Q 1072.4597778320312 181.1103515625 1064.4597778320312 181.1103515625 L 859.4097290039062 181.1103515625 Q 851.4097290039062 181.1103515625 851.4097290039062 189.1103515625" stroke-miterlimit="10" stroke-width="0.5" stroke-dasharray="0"/><path fill="#F0F0F0" stroke="#505050" paint-order="fill stroke markers" d=" M 1032.4597778320312 189.1103515625 L 1072.4597778320312 189.1103515625 L 1072.4597778320312 235.1103515625 L 1032.4597778320312 235.1103515625 L 1032.4597778320312 189.1103515625 Z" stroke-miterlimit="10" stroke-width="0.5" stroke-dasharray="0"/><path fill="none" stroke="none"/><text fill="#505050" stroke="none" font-family="monospace" font-size="14px" font-style="normal" font-weight="normal" text-decoration="normal" x="1052.4597778320312" y="207.1103515625" text-anchor="middle" dominant-baseline="text-after-edge">X</text><path fill="none" stroke="#505050" paint-order="fill stroke markers" d=" M 1032.4597778320312 207.1103515625 L 1040.4597778320312 207.1103515625 L 1040.4597778320312 215.1103515625 L 1032.4597778320312 215.1103515625 L 1032.4597778320312 207.1103515625 Z" stroke-miterlimit="10" stroke-width="0.5" stroke-dasharray="0"/><text fill="#505050" stroke="none" font-family="monospace" font-size="14px" font-style="normal" font-weight="normal" text-decoration="normal" x="1048.4597778320312" y="221.1103515625" text-anchor="start" dominant-baseline="text-after-edge">x</text><path fill="none" stroke="#505050" paint-order="fill stroke markers" d=" M 1032.4597778320312 221.1103515625 L 1040.4597778320312 221.1103515625 L 1040.4597778320312 229.1103515625 L 1032.4597778320312 229.1103515625 L 1032.4597778320312 221.1103515625 Z" stroke-miterlimit="10" stroke-width="0.5" stroke-dasharray="0"/><text fill="#505050" stroke="none" font-family="monospace" font-size="14px" font-style="normal" font-weight="normal" text-decoration="normal" x="1048.4597778320312" y="235.1103515625" text-anchor="start" dominant-baseline="text-after-edge">n</text><path fill="none" stroke="#505050" paint-order="fill stroke markers" d=" M 1064.4597778320312 207.1103515625 L 1072.4597778320312 207.1103515625 L 1072.4597778320312 215.1103515625 L 1064.4597778320312 215.1103515625 L 1064.4597778320312 207.1103515625 Z" stroke-miterlimit="10" stroke-width="0.5" stroke-dasharray="0"/><path fill="none" stroke="#505050" paint-order="fill stroke markers" d=" M 1018.4171752929688 211.29443359375 L 1026.4171752929688 211.29443359375" stroke-miterlimit="10" stroke-dasharray="0"/><path fill="white" stroke="#505050" paint-order="fill stroke markers" d=" M 855.80029296875 207.6291046142578 L 887.80029296875 207.6291046142578 L 887.80029296875 225.6291046142578 L 855.80029296875 225.6291046142578 L 863.80029296875 216.6291046142578 L 855.80029296875 207.6291046142578" stroke-miterlimit="10" stroke-width="0.5" stroke-dasharray="0"/><path fill="none" stroke="none"/><path fill="none" stroke="#505050" paint-order="fill stroke markers" d=" M 879.80029296875 211.6291046142578 L 887.80029296875 211.6291046142578 L 887.80029296875 219.6291046142578 L 879.80029296875 219.6291046142578 L 879.80029296875 211.6291046142578 Z" stroke-miterlimit="10" stroke-width="0.5" stroke-dasharray="0"/><text fill="#505050" stroke="none" font-family="monospace" font-size="14px" font-style="normal" font-weight="normal" text-decoration="normal" x="871.80029296875" y="225.6291046142578" text-anchor="end" dominant-baseline="text-after-edge">n</text><path fill="white" stroke="#505050" paint-order="fill stroke markers" d=" M 945.4171752929688 189.29443359375 L 1018.4171752929688 189.29443359375 L 1018.4171752929688 281.29443359375 L 945.4171752929688 281.29443359375 L 945.4171752929688 189.29443359375 Z" stroke-miterlimit="10" stroke-width="0.5" stroke-dasharray="0"/><path fill="#F0F0F0" stroke="none" paint-order="stroke fill markers" d=""/><path fill="none" stroke="none"/><text fill="#505050" stroke="none" font-family="monospace" font-size="14px" font-style="normal" font-weight="normal" text-decoration="normal" x="981.9171752929688" y="207.29443359375" text-anchor="middle" dominant-baseline="text-after-edge">expStep</text><path fill="none" stroke="#505050" paint-order="fill stroke markers" d=" M 945.4171752929688 207.29443359375 L 953.4171752929688 207.29443359375 L 953.4171752929688 215.29443359375 L 945.4171752929688 215.29443359375 L 945.4171752929688 207.29443359375 Z" stroke-miterlimit="10" stroke-width="0.5" stroke-dasharray="0"/><text fill="#505050" stroke="none" font-family="monospace" font-size="14px" font-style="normal" font-weight="normal" text-decoration="normal" x="961.4171752929688" y="221.29443359375" text-anchor="start" dominant-baseline="text-after-edge">n</text><path fill="none" stroke="#505050" paint-order="fill stroke markers" d=" M 945.4171752929688 221.29443359375 L 953.4171752929688 221.29443359375 L 953.4171752929688 229.29443359375 L 945.4171752929688 229.29443359375 L 945.4171752929688 221.29443359375 Z" stroke-miterlimit="10" stroke-width="0.5" stroke-dasharray="0"/><text fill="#505050" stroke="none" font-family="monospace" font-size="14px" font-style="normal" font-weight="normal" text-decoration="normal" x="961.4171752929688" y="235.29443359375" text-anchor="start" dominant-baseline="text-after-edge">x</text><path fill="none" stroke="#505050" paint-order="fill stroke markers" d=" M 945.4171752929688 235.29443359375 L 953.4171752929688 235.29443359375 L 953.4171752929688 243.29443359375 L 945.4171752929688 243.29443359375 L 945.4171752929688 235.29443359375 Z" stroke-miterlimit="10" stroke-width="0.5" stroke-dasharray="0"/><text fill="#505050" stroke="none" font-family="monospace" font-size="14px" font-style="normal" font-weight="normal" text-decoration="normal" x="961.4171752929688" y="249.29443359375" text-anchor="start" dominant-baseline="text-after-edge">y</text><path fill="none" stroke="#505050" paint-order="fill stroke markers" d=" M 945.4171752929688 249.29443359375 L 969.4171752929688 249.29443359375 L 969.4171752929688 277.29443359375 L 945.4171752929688 277.29443359375 L 945.4171752929688 249.29443359375 Z" stroke-miterlimit="10" stroke-width="0.5" stroke-dasharray="0"/><path fill="none" stroke="none"/><path fill="none" stroke="#505050" paint-order="fill stroke markers" d=" M 945.4171752929688 253.29443359375 L 953.4171752929688 253.29443359375 L 953.4171752929688 261.29443359375 L 945.4171752929688 261.29443359375 L 945.4171752929688 253.29443359375 Z" stroke-miterlimit="10" stroke-width="0.5" stroke-dasharray="0"/><path fill="none" stroke="#505050" paint-order="fill stroke markers" d=" M 945.4171752929688 265.29443359375 L 953.4171752929688 265.29443359375 L 953.4171752929688 273.29443359375 L 945.4171752929688 273.29443359375 L 945.4171752929688 265.29443359375 Z" stroke-miterlimit="10" stroke-width="0.5" stroke-dasharray="0"/><path fill="none" stroke="#505050" paint-order="fill stroke markers" d=" M 961.4171752929688 253.29443359375 L 969.4171752929688 253.29443359375 L 969.4171752929688 261.29443359375 L 961.4171752929688 261.29443359375 L 961.4171752929688 253.29443359375 Z" stroke-miterlimit="10" stroke-width="0.5" stroke-dasharray="0"/><text fill="#505050" stroke="none" font-family="monospace" font-size="14px" font-style="normal" font-weight="normal" text-decoration="normal" x="977.4171752929688" y="272.29443359375" text-anchor="start" dominant-baseline="text-after-edge">mul</text><path fill="none" stroke="#505050" paint-order="fill stroke markers" d=" M 1010.4171752929688 207.29443359375 L 1018.4171752929688 207.29443359375 L 1018.4171752929688 215.29443359375 L 1010.4171752929688 215.29443359375 L 1010.4171752929688 207.29443359375 Z" stroke-miterlimit="10" stroke-width="0.5" stroke-dasharray="0"/><path fill="white" stroke="#505050" paint-order="fill stroke markers" d=" M 856.5346069335938 231.2947235107422 L 888.5346069335938 231.2947235107422 L 888.5346069335938 249.2947235107422 L 856.5346069335938 249.2947235107422 L 856.5346069335938 231.2947235107422 Z" stroke-miterlimit="10" stroke-width="0.5" stroke-dasharray="0"/><path fill="#F0F0F0" stroke="none" paint-order="stroke fill markers" d=""/><path fill="none" stroke="none"/><path fill="none" stroke="#505050" paint-order="fill stroke markers" d=" M 880.5346069335938 235.2947235107422 L 888.5346069335938 235.2947235107422 L 888.5346069335938 243.2947235107422 L 880.5346069335938 243.2947235107422 L 880.5346069335938 235.2947235107422 Z" stroke-miterlimit="10" stroke-width="0.5" stroke-dasharray="0"/><text fill="#505050" stroke="none" font-family="monospace" font-size="14px" font-style="normal" font-weight="normal" text-decoration="normal" x="872.5346069335938" y="249.2947235107422" text-anchor="end" dominant-baseline="text-after-edge">1</text><path fill="white" stroke="#505050" paint-order="fill stroke markers" d=" M 852.6690673828125 185.4228515625 L 884.6690673828125 185.4228515625 L 884.6690673828125 203.4228515625 L 852.6690673828125 203.4228515625 L 860.6690673828125 194.4228515625 L 852.6690673828125 185.4228515625" stroke-miterlimit="10" stroke-width="0.5" stroke-dasharray="0"/><path fill="none" stroke="none"/><path fill="none" stroke="#505050" paint-order="fill stroke markers" d=" M 876.6690673828125 189.4228515625 L 884.6690673828125 189.4228515625 L 884.6690673828125 197.4228515625 L 876.6690673828125 197.4228515625 L 876.6690673828125 189.4228515625 Z" stroke-miterlimit="10" stroke-width="0.5" stroke-dasharray="0"/><text fill="#505050" stroke="none" font-family="monospace" font-size="14px" font-style="normal" font-weight="normal" text-decoration="normal" x="868.6690673828125" y="203.4228515625" text-anchor="end" dominant-baseline="text-after-edge">x</text><path fill="none" stroke="none"/><path fill="white" stroke="#505050" paint-order="fill stroke markers" d=" M 856.3621978759766 256.3501319885254 L 888.3621978759766 256.3501319885254 L 896.3621978759766 281.3501319885254 L 888.3621978759766 306.3501319885254 L 856.3621978759766 306.3501319885254 L 856.3621978759766 256.3501319885254" stroke-miterlimit="10" stroke-width="0.5" stroke-dasharray="0"/><path fill="none" stroke="none"/><path fill="none" stroke="#505050" paint-order="fill stroke markers" d=" M 864.3621978759766 260.3501319885254 L 888.3621978759766 260.3501319885254 L 888.3621978759766 302.3501319885254 L 864.3621978759766 302.3501319885254 L 864.3621978759766 260.3501319885254 Z" stroke-miterlimit="10" stroke-width="0.5" stroke-dasharray="0"/><path fill="none" stroke="none"/><text fill="#505050" stroke="none" font-family="monospace" font-size="14px" font-style="normal" font-weight="normal" text-decoration="normal" x="876.3621978759766" y="278.3501319885254" text-anchor="middle" dominant-baseline="text-after-edge">*</text><path fill="none" stroke="#505050" paint-order="fill stroke markers" d=" M 864.3621978759766 278.3501319885254 L 872.3621978759766 278.3501319885254 L 872.3621978759766 286.3501319885254 L 864.3621978759766 286.3501319885254 L 864.3621978759766 278.3501319885254 Z" stroke-miterlimit="10" stroke-width="0.5" stroke-dasharray="0"/><path fill="none" stroke="#505050" paint-order="fill stroke markers" d=" M 864.3621978759766 290.3501319885254 L 872.3621978759766 290.3501319885254 L 872.3621978759766 298.3501319885254 L 864.3621978759766 298.3501319885254 L 864.3621978759766 290.3501319885254 Z" stroke-miterlimit="10" stroke-width="0.5" stroke-dasharray="0"/><path fill="none" stroke="#505050" paint-order="fill stroke markers" d=" M 880.3621978759766 278.3501319885254 L 888.3621978759766 278.3501319885254 L 888.3621978759766 286.3501319885254 L 880.3621978759766 286.3501319885254 L 880.3621978759766 278.3501319885254 Z" stroke-miterlimit="10" stroke-width="0.5" stroke-dasharray="0"/><path fill="none" stroke="#505050" paint-order="fill stroke markers" d=" M 864.3621978759766 260.3501319885254 L 888.3621978759766 260.3501319885254 L 888.3621978759766 302.3501319885254 L 864.3621978759766 302.3501319885254 L 864.3621978759766 260.3501319885254 Z" stroke-miterlimit="10" stroke-width="0.5" stroke-dasharray="0"/><path fill="#F0F0F0" stroke="none" paint-order="stroke fill markers" d=""/><path fill="none" stroke="none"/><text fill="#505050" stroke="none" font-family="monospace" font-size="14px" font-style="normal" font-weight="normal" text-decoration="normal" x="876.3621978759766" y="278.3501319885254" text-anchor="middle" dominant-baseline="text-after-edge">*</text><path fill="none" stroke="#505050" paint-order="fill stroke markers" d=" M 864.3621978759766 278.3501319885254 L 872.3621978759766 278.3501319885254 L 872.3621978759766 286.3501319885254 L 864.3621978759766 286.3501319885254 L 864.3621978759766 278.3501319885254 Z" stroke-miterlimit="10" stroke-width="0.5" stroke-dasharray="0"/><path fill="none" stroke="#505050" paint-order="fill stroke markers" d=" M 864.3621978759766 290.3501319885254 L 872.3621978759766 290.3501319885254 L 872.3621978759766 298.3501319885254 L 864.3621978759766 298.3501319885254 L 864.3621978759766 290.3501319885254 Z" stroke-miterlimit="10" stroke-width="0.5" stroke-dasharray="0"/><path fill="none" stroke="#505050" paint-order="fill stroke markers" d=" M 880.3621978759766 278.3501319885254 L 888.3621978759766 278.3501319885254 L 888.3621978759766 286.3501319885254 L 880.3621978759766 286.3501319885254 L 880.3621978759766 278.3501319885254 Z" stroke-miterlimit="10" stroke-width="0.5" stroke-dasharray="0"/><path fill="none" stroke="none"/><path fill="none" stroke="#e0e0e0" paint-order="fill stroke markers" d=" M 825.2862303256989 239.7313690185547 C 894.4156541354328 239.7313690185547 544.4484935276837 330.7161269187927 613.5779173374176 330.7161269187927" stroke-miterlimit="10" stroke-width="2" stroke-dasharray="0"/><path fill="none" stroke="none"/><path fill="none" stroke="#e0e0e0" paint-order="fill stroke markers" d=" M 825.2862303256989 239.7313690185547 C 907.1579910718945 239.7313690185547 553.7965496576282 436.00326681137085 635.6683104038239 436.00326681137085" stroke-miterlimit="10" stroke-width="2" stroke-dasharray="0"/><path fill="none" stroke="none"/><path fill="none" stroke="#e0e0e0" paint-order="fill stroke markers" d=" M 510.8807601928711 483.3032760620117 C 548.6623934917274 483.3032760620117 498.07416884972423 359.86574935913086 535.8558021485806 359.86574935913086" stroke-miterlimit="10" stroke-width="2" stroke-dasharray="0"/><path fill="none" stroke="none"/><path fill="none" stroke="#e0e0e0" paint-order="fill stroke markers" d=" M 510.8807601928711 483.3032760620117 C 528.6546990836798 483.3032760620117 535.6069035564722 442.02511739730835 553.3808424472809 442.02511739730835" stroke-miterlimit="10" stroke-width="2" stroke-dasharray="0"/><path fill="none" stroke="none"/><path fill="none" stroke="#e0e0e0" paint-order="fill stroke markers" d=" M 825.2862303256989 239.7313690185547 C 860.1509323858907 239.7313690185547 906.552473232777 235.29443359375 941.4171752929688 235.29443359375" stroke-miterlimit="10" stroke-width="2" stroke-dasharray="0"/><path fill="none" stroke="#505050" paint-order="fill stroke markers" d=" M 492.5839782655239 418.36891174316406 C 514.9179880234541 418.36891174316406 535.0468326893507 455.02511739730835 557.3808424472809 455.02511739730835" stroke-miterlimit="10" stroke-dasharray="0"/><path fill="none" stroke="#505050" paint-order="fill stroke markers" d=" M 491.7089477479458 392.9282684326172 C 516.4884611140966 392.9282684326172 532.6013290811301 443.02511739730835 557.3808424472809 443.02511739730835" stroke-miterlimit="10" stroke-dasharray="0"/><path fill="none" stroke="#505050" paint-order="fill stroke markers" d=" M 491.7089477479458 392.9282684326172 C 507.3568288640105 392.9282684326172 524.2079210325159 372.86574935913086 539.8558021485806 372.86574935913086" stroke-miterlimit="10" stroke-dasharray="0"/><path fill="none" stroke="#505050" paint-order="fill stroke markers" d=" M 491.7089477479458 392.9282684326172 C 509.0626569947098 392.9282684326172 522.5020929018165 360.86574935913086 539.8558021485806 360.86574935913086" stroke-miterlimit="10" stroke-dasharray="0"/><path fill="none" stroke="#505050" paint-order="fill stroke markers" d=" M 486.4339710175991 329.1470031738281 C 501.027400447936 329.1470031738281 502.2998826364566 291.2188911437988 516.8933120667934 291.2188911437988" stroke-miterlimit="10" stroke-dasharray="0"/><path fill="none" stroke="#505050" paint-order="fill stroke markers" d=" M 486.19647178053856 215.76889038085938 C 507.34210665003155 215.76889038085938 495.74767719730045 279.2188911437988 516.8933120667934 279.2188911437988" stroke-miterlimit="10" stroke-dasharray="0"/><path fill="none" stroke="#505050" paint-order="fill stroke markers" d=" M 540.8933120667934 279.2188911437988 C 565.3329601712554 279.2188911437988 593.1382692329556 306.7161269187927 617.5779173374176 306.7161269187927" stroke-miterlimit="10" stroke-dasharray="0"/><path fill="none" stroke="#505050" paint-order="fill stroke markers" d=" M 540.8933120667934 279.2188911437988 C 590.5414456128962 279.2188911437988 590.0201768577211 412.00326681137085 639.6683104038239 412.00326681137085" stroke-miterlimit="10" stroke-dasharray="0"/><path fill="none" stroke="#505050" paint-order="fill stroke markers" d=" M 572.8558021485806 360.86574935913086 C 590.8859263637898 360.86574935913086 599.5477931222083 320.7161269187927 617.5779173374176 320.7161269187927" stroke-miterlimit="10" stroke-dasharray="0"/><path fill="none" stroke="#505050" paint-order="fill stroke markers" d=" M 572.8558021485806 360.86574935913086 C 600.8488846785165 360.86574935913086 611.6752278738879 426.00326681137085 639.6683104038239 426.00326681137085" stroke-miterlimit="10" stroke-dasharray="0"/><path fill="none" stroke="#505050" paint-order="fill stroke markers" d=" M 590.3808424472809 443.02511739730835 C 623.88228491018 443.02511739730835 584.0764748745185 334.7161269187927 617.5779173374176 334.7161269187927" stroke-miterlimit="10" stroke-dasharray="0"/><path fill="none" stroke="#505050" paint-order="fill stroke markers" d=" M 506.8807601928711 483.3032760620117 C 547.1356002289351 483.3032760620117 599.4134703677598 464.00326681137085 639.6683104038239 464.00326681137085" stroke-miterlimit="10" stroke-dasharray="0"/><path fill="none" stroke="#505050" paint-order="fill stroke markers" d=" M 506.8807601928711 483.3032760620117 C 556.8789966601378 483.3032760620117 567.5796808701509 358.7161269187927 617.5779173374176 358.7161269187927" stroke-miterlimit="10" stroke-dasharray="0"/><path fill="none" stroke="#505050" paint-order="fill stroke markers" d=" M 486.19647178053856 215.76889038085938 C 515.1155945104505 215.76889038085938 552.7929727691268 228.77511358261108 581.7120954990387 228.77511358261108" stroke-miterlimit="10" stroke-dasharray="0"/><path fill="none" stroke="#505050" paint-order="fill stroke markers" d=" M 486.19647178053856 215.76889038085938 C 518.8378302521837 215.76889038085938 548.9706088535654 268.05950689315796 581.6119673252106 268.05950689315796" stroke-miterlimit="10" stroke-dasharray="0"/><path fill="none" stroke="#505050" paint-order="fill stroke markers" d=" M 614.6119673252106 268.05950689315796 C 644.7122123117017 268.05950689315796 680.0599782591296 298.6776785850525 710.1602232456207 298.6776785850525" stroke-miterlimit="10" stroke-dasharray="0"/><path fill="none" stroke="#505050" paint-order="fill stroke markers" d=" M 623.7120954990387 228.77511358261108 C 653.0758347674348 228.77511358261108 680.7964839772246 274.6776785850525 710.1602232456207 274.6776785850525" stroke-miterlimit="10" stroke-dasharray="0"/><path fill="none" stroke="#505050" paint-order="fill stroke markers" d=" M 492.5839782655239 418.36891174316406 C 568.8819487125213 418.36891174316406 633.8622527986233 286.6776785850525 710.1602232456207 286.6776785850525" stroke-miterlimit="10" stroke-dasharray="0"/><path fill="none" stroke="#505050" paint-order="fill stroke markers" d=" M 690.5779173374176 306.7161269187927 C 696.5716185032934 306.7161269187927 704.1665220797449 310.6776785850525 710.1602232456207 310.6776785850525" stroke-miterlimit="10" stroke-dasharray="0"/><path fill="none" stroke="#505050" paint-order="fill stroke markers" d=" M 712.6683104038239 412.00326681137085 C 739.4765481151204 412.00326681137085 683.3519855343242 322.6776785850525 710.1602232456207 322.6776785850525" stroke-miterlimit="10" stroke-dasharray="0"/><path fill="none" stroke="#505050" paint-order="fill stroke markers" d=" M 492.5839782655239 418.36891174316406 C 537.184047180054 418.36891174316406 595.0682414892938 440.00326681137085 639.6683104038239 440.00326681137085" stroke-miterlimit="10" stroke-dasharray="0"/><path fill="none" stroke="#505050" paint-order="fill stroke markers" d=" M 719.966156244278 88.78498601913452 C 722.7840324065171 88.78498601913452 726.5389794686355 88.98924398422241 729.3568556308746 88.98924398422241" stroke-miterlimit="10" stroke-dasharray="0"/><path fill="none" stroke="#505050" paint-order="fill stroke markers" d=" M 570.7271406650543 89.92487859725952 C 575.5271406650543 89.92487859725952 581.9271406650544 89.92487859725952 586.7271406650543 89.92487859725952" stroke-miterlimit="10" stroke-dasharray="0"/><path fill="none" stroke="#505050" paint-order="fill stroke markers" d=" M 854.9970092773438 111.762939453125 C 860.9249862950242 111.762939453125 867.3284011561477 104.20979309082031 873.2563781738281 104.20979309082031" stroke-miterlimit="10" stroke-dasharray="0"/><path fill="none" stroke="#505050" paint-order="fill stroke markers" d=" M 888.5346069335938 239.2947235107422 C 905.5993774416279 239.2947235107422 928.3524047849346 239.29443359375 945.4171752929688 239.29443359375" stroke-miterlimit="10" stroke-dasharray="0"/><path fill="none" stroke="#505050" paint-order="fill stroke markers" d=" M 884.6690673828125 193.4228515625 C 905.249439877631 193.4228515625 924.8368027981503 225.29443359375 945.4171752929688 225.29443359375" stroke-miterlimit="10" stroke-dasharray="0"/><path fill="none" stroke="#505050" paint-order="fill stroke markers" d=" M 887.80029296875 215.6291046142578 C 905.1342049664988 215.6291046142578 928.0832632952199 211.29443359375 945.4171752929688 211.29443359375" stroke-miterlimit="10" stroke-dasharray="0"/><path fill="none" stroke="#505050" paint-order="fill stroke markers" d=" M 888.3621978759766 281.3501319885254 C 906.3153336001862 281.3501319885254 927.4640395687591 263.29443359375 945.4171752929688 263.29443359375" stroke-miterlimit="10" stroke-dasharray="0"/></g></g></svg>