<svg version="1.1" xmlns="http://www.w3.org/2000/svg" xmlns:xlink="http://www.w3.org/1999/xlink" width="832.2802727222443" height="503.5035285949707"><defs/><g transform="translate(-373.39053177833557,-18.697757720947266)"><g><path fill="white" stroke="#505050" paint-order="fill stroke markers" d=" M 374.39053177833557 27.916520595550537 L 374.39053177833557 81.16652059555054 Q 374.39053177833557 89.16652059555054 382.39053177833557 89.16652059555054 L 501.63625931739807 89.16652059555054 Q 509.63625931739807 89.16652059555054 509.63625931739807 81.16652059555054 L 509.63625931739807 27.916520595550537 Q 509.63625931739807 19.916520595550537 501.63625931739807 19.916520595550537 L 382.39053177833557 19.916520595550537 Q 374.39053177833557 19.916520595550537 374.39053177833557 27.916520595550537" stroke-miterlimit="10" stroke-width="0.5" stroke-dasharray=""/><path fill="#F0F0F0" stroke="#505050" paint-order="fill stroke markers" d=" M 467.63625931739807 27.916520595550537 L 509.63625931739807 27.916520595550537 L 509.63625931739807 57.91652059555054 L 467.63625931739807 57.91652059555054 L 467.63625931739807 27.916520595550537 Z" stroke-miterlimit="10" stroke-width="0.5" stroke-dasharray=""/><path fill="none" stroke="none"/><text fill="#505050" stroke="none" font-family="monospace" font-size="14px" font-style="normal" font-weight="normal" text-decoration="normal" x="488.63625931739807" y="45.91652059555054" text-anchor="middle" dominant-baseline="text-after-edge">== 0</text><path fill="none" stroke="#505050" paint-order="fill stroke markers" d=" M 467.63625931739807 45.91652059555054 L 475.63625931739807 45.91652059555054 L 475.63625931739807 53.91652059555054 L 467.63625931739807 53.91652059555054 L 467.63625931739807 45.91652059555054 Z" stroke-miterlimit="10" stroke-width="0.5" stroke-dasharray=""/><path fill="none" stroke="#505050" paint-order="fill stroke markers" d=" M 501.63625931739807 45.91652059555054 L 509.63625931739807 45.91652059555054 L 509.63625931739807 53.91652059555054 L 501.63625931739807 53.91652059555054 L 501.63625931739807 45.91652059555054 Z" stroke-miterlimit="10" stroke-width="0.5" stroke-dasharray=""/><path fill="none" stroke="#505050" paint-order="fill stroke markers" d=" M 430.39053177833557 51.16652059555054 L 422.39053177833557 51.16652059555054 M 455.39053177833557 51.16652059555054 L 463.39053177833557 51.16652059555054" stroke-miterlimit="10" stroke-dasharray=""/><path fill="white" stroke="#505050" paint-order="fill stroke markers" d=" M 430.39053177833557 29.166520595550537 L 455.39053177833557 29.166520595550537 L 455.39053177833557 71.16652059555054 L 430.39053177833557 71.16652059555054 L 430.39053177833557 29.166520595550537 Z" stroke-miterlimit="10" stroke-width="0.5" stroke-dasharray=""/><path fill="#F0F0F0" stroke="none" paint-order="stroke fill markers" d=""/><path fill="none" stroke="none"/><text fill="#505050" stroke="none" font-family="monospace" font-size="14px" font-style="normal" font-weight="normal" text-decoration="normal" x="442.89053177833557" y="47.16652059555054" text-anchor="middle" dominant-baseline="text-after-edge">==</text><path fill="none" stroke="#505050" paint-order="fill stroke markers" d=" M 430.39053177833557 47.16652059555054 L 438.39053177833557 47.16652059555054 L 438.39053177833557 55.16652059555054 L 430.39053177833557 55.16652059555054 L 430.39053177833557 47.16652059555054 Z" stroke-miterlimit="10" stroke-width="0.5" stroke-dasharray=""/><path fill="none" stroke="#505050" paint-order="fill stroke markers" d=" M 430.39053177833557 59.16652059555054 L 438.39053177833557 59.16652059555054 L 438.39053177833557 67.16652059555054 L 430.39053177833557 67.16652059555054 L 430.39053177833557 59.16652059555054 Z" stroke-miterlimit="10" stroke-width="0.5" stroke-dasharray=""/><path fill="none" stroke="#505050" paint-order="fill stroke markers" d=" M 447.39053177833557 47.16652059555054 L 455.39053177833557 47.16652059555054 L 455.39053177833557 55.16652059555054 L 447.39053177833557 55.16652059555054 L 447.39053177833557 47.16652059555054 Z" stroke-miterlimit="10" stroke-width="0.5" stroke-dasharray=""/><path fill="white" stroke="#505050" paint-order="fill stroke markers" d=" M 382.39053177833557 55.16652059555054 L 414.39053177833557 55.16652059555054 L 414.39053177833557 73.16652059555054 L 382.39053177833557 73.16652059555054 L 382.39053177833557 55.16652059555054 Z" stroke-miterlimit="10" stroke-width="0.5" stroke-dasharray=""/><path fill="#F0F0F0" stroke="none" paint-order="stroke fill markers" d=""/><path fill="none" stroke="none"/><path fill="none" stroke="#505050" paint-order="fill stroke markers" d=" M 406.39053177833557 59.16652059555054 L 414.39053177833557 59.16652059555054 L 414.39053177833557 67.16652059555054 L 406.39053177833557 67.16652059555054 L 406.39053177833557 59.16652059555054 Z" stroke-miterlimit="10" stroke-width="0.5" stroke-dasharray=""/><text fill="#505050" stroke="none" font-family="monospace" font-size="14px" font-style="normal" font-weight="normal" text-decoration="normal" x="398.39053177833557" y="73.16652059555054" text-anchor="end" dominant-baseline="text-after-edge">0</text><path fill="white" stroke="#505050" paint-order="fill stroke markers" d=" M 530.5907063484192 28.44729232788086 L 530.5907063484192 78.1555404663086 Q 530.5907063484192 86.1555404663086 538.5907063484192 86.1555404663086 L 644.1544766426086 86.1555404663086 Q 652.1544766426086 86.1555404663086 652.1544766426086 78.1555404663086 L 652.1544766426086 28.44729232788086 Q 652.1544766426086 20.44729232788086 644.1544766426086 20.44729232788086 L 538.5907063484192 20.44729232788086 Q 530.5907063484192 20.44729232788086 530.5907063484192 28.44729232788086" stroke-miterlimit="10" stroke-width="0.5" stroke-dasharray=""/><path fill="#F0F0F0" stroke="#505050" paint-order="fill stroke markers" d=" M 619.1544766426086 28.44729232788086 L 652.1544766426086 28.44729232788086 L 652.1544766426086 58.44729232788086 L 619.1544766426086 58.44729232788086 L 619.1544766426086 28.44729232788086 Z" stroke-miterlimit="10" stroke-width="0.5" stroke-dasharray=""/><path fill="none" stroke="none"/><text fill="#505050" stroke="none" font-family="monospace" font-size="14px" font-style="normal" font-weight="normal" text-decoration="normal" x="635.6544766426086" y="46.44729232788086" text-anchor="middle" dominant-baseline="text-after-edge">odd</text><path fill="none" stroke="#505050" paint-order="fill stroke markers" d=" M 619.1544766426086 46.44729232788086 L 627.1544766426086 46.44729232788086 L 627.1544766426086 54.44729232788086 L 619.1544766426086 54.44729232788086 L 619.1544766426086 46.44729232788086 Z" stroke-miterlimit="10" stroke-width="0.5" stroke-dasharray=""/><path fill="none" stroke="#505050" paint-order="fill stroke markers" d=" M 644.1544766426086 46.44729232788086 L 652.1544766426086 46.44729232788086 L 652.1544766426086 54.44729232788086 L 644.1544766426086 54.44729232788086 L 644.1544766426086 46.44729232788086 Z" stroke-miterlimit="10" stroke-width="0.5" stroke-dasharray=""/><path fill="none" stroke="#505050" paint-order="fill stroke markers" d=" M 579.3573269844055 48.18521499633789 L 571.3573269844055 48.18521499633789 M 603.3573269844055 48.18521499633789 L 611.3573269844055 48.18521499633789" stroke-miterlimit="10" stroke-dasharray=""/><path fill="white" stroke="#505050" paint-order="fill stroke markers" d=" M 579.3573269844055 26.18521499633789 L 603.3573269844055 26.18521499633789 L 603.3573269844055 68.18521499633789 L 579.3573269844055 68.18521499633789 L 579.3573269844055 26.18521499633789 Z" stroke-miterlimit="10" stroke-width="0.5" stroke-dasharray=""/><path fill="#F0F0F0" stroke="none" paint-order="stroke fill markers" d=""/><path fill="none" stroke="none"/><text fill="#505050" stroke="none" font-family="monospace" font-size="14px" font-style="normal" font-weight="normal" text-decoration="normal" x="591.3573269844055" y="44.18521499633789" text-anchor="middle" dominant-baseline="text-after-edge">&amp;</text><path fill="none" stroke="#505050" paint-order="fill stroke markers" d=" M 579.3573269844055 44.18521499633789 L 587.3573269844055 44.18521499633789 L 587.3573269844055 52.18521499633789 L 579.3573269844055 52.18521499633789 L 579.3573269844055 44.18521499633789 Z" stroke-miterlimit="10" stroke-width="0.5" stroke-dasharray=""/><path fill="none" stroke="#505050" paint-order="fill stroke markers" d=" M 579.3573269844055 56.18521499633789 L 587.3573269844055 56.18521499633789 L 587.3573269844055 64.18521499633789 L 579.3573269844055 64.18521499633789 L 579.3573269844055 56.18521499633789 Z" stroke-miterlimit="10" stroke-width="0.5" stroke-dasharray=""/><path fill="none" stroke="#505050" paint-order="fill stroke markers" d=" M 595.3573269844055 44.18521499633789 L 603.3573269844055 44.18521499633789 L 603.3573269844055 52.18521499633789 L 595.3573269844055 52.18521499633789 L 595.3573269844055 44.18521499633789 Z" stroke-miterlimit="10" stroke-width="0.5" stroke-dasharray=""/><path fill="white" stroke="#505050" paint-order="fill stroke markers" d=" M 535.8883137702942 52.155540466308594 L 567.8883137702942 52.155540466308594 L 567.8883137702942 70.1555404663086 L 535.8883137702942 70.1555404663086 L 535.8883137702942 52.155540466308594 Z" stroke-miterlimit="10" stroke-width="0.5" stroke-dasharray=""/><path fill="#F0F0F0" stroke="none" paint-order="stroke fill markers" d=""/><path fill="none" stroke="none"/><path fill="none" stroke="#505050" paint-order="fill stroke markers" d=" M 559.8883137702942 56.155540466308594 L 567.8883137702942 56.155540466308594 L 567.8883137702942 64.1555404663086 L 559.8883137702942 64.1555404663086 L 559.8883137702942 56.155540466308594 Z" stroke-miterlimit="10" stroke-width="0.5" stroke-dasharray=""/><text fill="#505050" stroke="none" font-family="monospace" font-size="14px" font-style="normal" font-weight="normal" text-decoration="normal" x="551.8883137702942" y="70.1555404663086" text-anchor="end" dominant-baseline="text-after-edge">1</text><path fill="white" stroke="#505050" paint-order="fill stroke markers" d=" M 676.1176199913025 28.95370864868164 L 676.1176199913025 70.95370864868164 Q 676.1176199913025 78.95370864868164 684.1176199913025 78.95370864868164 L 798.4562621116638 78.95370864868164 Q 806.4562621116638 78.95370864868164 806.4562621116638 70.95370864868164 L 806.4562621116638 28.95370864868164 Q 806.4562621116638 20.95370864868164 798.4562621116638 20.95370864868164 L 684.1176199913025 20.95370864868164 Q 676.1176199913025 20.95370864868164 676.1176199913025 28.95370864868164" stroke-miterlimit="10" stroke-width="0.5" stroke-dasharray=""/><path fill="#F0F0F0" stroke="#505050" paint-order="fill stroke markers" d=" M 764.4562621116638 28.95370864868164 L 806.4562621116638 28.95370864868164 L 806.4562621116638 58.95370864868164 L 764.4562621116638 58.95370864868164 L 764.4562621116638 28.95370864868164 Z" stroke-miterlimit="10" stroke-width="0.5" stroke-dasharray=""/><path fill="none" stroke="none"/><text fill="#505050" stroke="none" font-family="monospace" font-size="14px" font-style="normal" font-weight="normal" text-decoration="normal" x="785.4562621116638" y="46.95370864868164" text-anchor="middle" dominant-baseline="text-after-edge">even</text><path fill="none" stroke="#505050" paint-order="fill stroke markers" d=" M 764.4562621116638 46.95370864868164 L 772.4562621116638 46.95370864868164 L 772.4562621116638 54.95370864868164 L 764.4562621116638 54.95370864868164 L 764.4562621116638 46.95370864868164 Z" stroke-miterlimit="10" stroke-width="0.5" stroke-dasharray=""/><path fill="none" stroke="#505050" paint-order="fill stroke markers" d=" M 798.4562621116638 46.95370864868164 L 806.4562621116638 46.95370864868164 L 806.4562621116638 54.95370864868164 L 798.4562621116638 54.95370864868164 L 798.4562621116638 46.95370864868164 Z" stroke-miterlimit="10" stroke-width="0.5" stroke-dasharray=""/><path fill="none" stroke="#505050" paint-order="fill stroke markers" d=" M 684.3414778709412 52.159664154052734 L 676.3414778709412 52.159664154052734 M 749.7852263450623 52.175296783447266 L 757.7852263450623 52.175296783447266" stroke-miterlimit="10" stroke-dasharray=""/><path fill="white" stroke="#505050" paint-order="fill stroke markers" d=" M 725.7852263450623 30.175296783447266 L 749.7852263450623 30.175296783447266 L 749.7852263450623 60.175296783447266 L 725.7852263450623 60.175296783447266 L 725.7852263450623 30.175296783447266 Z" stroke-miterlimit="10" stroke-width="0.5" stroke-dasharray=""/><path fill="#F0F0F0" stroke="none" paint-order="stroke fill markers" d=""/><path fill="none" stroke="none"/><text fill="#505050" stroke="none" font-family="monospace" font-size="14px" font-style="normal" font-weight="normal" text-decoration="normal" x="737.7852263450623" y="48.175296783447266" text-anchor="middle" dominant-baseline="text-after-edge">!</text><path fill="none" stroke="#505050" paint-order="fill stroke markers" d=" M 725.7852263450623 48.175296783447266 L 733.7852263450623 48.175296783447266 L 733.7852263450623 56.175296783447266 L 725.7852263450623 56.175296783447266 L 725.7852263450623 48.175296783447266 Z" stroke-miterlimit="10" stroke-width="0.5" stroke-dasharray=""/><path fill="none" stroke="#505050" paint-order="fill stroke markers" d=" M 741.7852263450623 48.175296783447266 L 749.7852263450623 48.175296783447266 L 749.7852263450623 56.175296783447266 L 741.7852263450623 56.175296783447266 L 741.7852263450623 48.175296783447266 Z" stroke-miterlimit="10" stroke-width="0.5" stroke-dasharray=""/><path fill="white" stroke="#505050" paint-order="fill stroke markers" d=" M 684.3414778709412 30.159664154052734 L 717.3414778709412 30.159664154052734 L 717.3414778709412 60.159664154052734 L 684.3414778709412 60.159664154052734 L 684.3414778709412 30.159664154052734 Z" stroke-miterlimit="10" stroke-width="0.5" stroke-dasharray=""/><path fill="#F0F0F0" stroke="none" paint-order="stroke fill markers" d=""/><path fill="none" stroke="none"/><text fill="#505050" stroke="none" font-family="monospace" font-size="14px" font-style="normal" font-weight="normal" text-decoration="normal" x="700.8414778709412" y="48.159664154052734" text-anchor="middle" dominant-baseline="text-after-edge">odd</text><path fill="none" stroke="#505050" paint-order="fill stroke markers" d=" M 684.3414778709412 48.159664154052734 L 692.3414778709412 48.159664154052734 L 692.3414778709412 56.159664154052734 L 684.3414778709412 56.159664154052734 L 684.3414778709412 48.159664154052734 Z" stroke-miterlimit="10" stroke-width="0.5" stroke-dasharray=""/><path fill="none" stroke="#505050" paint-order="fill stroke markers" d=" M 709.3414778709412 48.159664154052734 L 717.3414778709412 48.159664154052734 L 717.3414778709412 56.159664154052734 L 709.3414778709412 56.159664154052734 L 709.3414778709412 48.159664154052734 Z" stroke-miterlimit="10" stroke-width="0.5" stroke-dasharray=""/><path fill="white" stroke="#505050" paint-order="fill stroke markers" d=" M 830.6981558799744 27.697757720947266 L 830.6981558799744 86.36719131469727 Q 830.6981558799744 94.36719131469727 838.6981558799744 94.36719131469727 L 1041.7201027870178 94.36719131469727 Q 1049.7201027870178 94.36719131469727 1049.7201027870178 86.36719131469727 L 1049.7201027870178 27.697757720947266 Q 1049.7201027870178 19.697757720947266 1041.7201027870178 19.697757720947266 L 838.6981558799744 19.697757720947266 Q 830.6981558799744 19.697757720947266 830.6981558799744 27.697757720947266" stroke-miterlimit="10" stroke-width="0.5" stroke-dasharray=""/><path fill="#F0F0F0" stroke="#505050" paint-order="fill stroke markers" d=" M 1024.7201027870178 27.697757720947266 L 1049.7201027870178 27.697757720947266 L 1049.7201027870178 57.697757720947266 L 1024.7201027870178 57.697757720947266 L 1024.7201027870178 27.697757720947266 Z" stroke-miterlimit="10" stroke-width="0.5" stroke-dasharray=""/><path fill="none" stroke="none"/><text fill="#505050" stroke="none" font-family="monospace" font-size="14px" font-style="normal" font-weight="normal" text-decoration="normal" x="1037.2201027870178" y="45.697757720947266" text-anchor="middle" dominant-baseline="text-after-edge">/2</text><path fill="none" stroke="#505050" paint-order="fill stroke markers" d=" M 1024.7201027870178 45.697757720947266 L 1032.7201027870178 45.697757720947266 L 1032.7201027870178 53.697757720947266 L 1024.7201027870178 53.697757720947266 L 1024.7201027870178 45.697757720947266 Z" stroke-miterlimit="10" stroke-width="0.5" stroke-dasharray=""/><path fill="none" stroke="#505050" paint-order="fill stroke markers" d=" M 1041.7201027870178 45.697757720947266 L 1049.7201027870178 45.697757720947266 L 1049.7201027870178 53.697757720947266 L 1041.7201027870178 53.697757720947266 L 1041.7201027870178 45.697757720947266 Z" stroke-miterlimit="10" stroke-width="0.5" stroke-dasharray=""/><path fill="none" stroke="#505050" paint-order="fill stroke markers" d=" M 881.5816969871521 46.81423568725586 L 873.5816969871521 46.81423568725586 M 1011.4047951698303 47.13920974731445 L 1019.4047951698303 47.13920974731445" stroke-miterlimit="10" stroke-dasharray=""/><path fill="white" stroke="#505050" paint-order="fill stroke markers" d=" M 881.5816969871521 24.81423568725586 L 905.5816969871521 24.81423568725586 L 905.5816969871521 66.81423568725586 L 881.5816969871521 66.81423568725586 L 881.5816969871521 24.81423568725586 Z" stroke-miterlimit="10" stroke-width="0.5" stroke-dasharray=""/><path fill="#F0F0F0" stroke="none" paint-order="stroke fill markers" d=""/><path fill="none" stroke="none"/><text fill="#505050" stroke="none" font-family="monospace" font-size="14px" font-style="normal" font-weight="normal" text-decoration="normal" x="893.5816969871521" y="42.81423568725586" text-anchor="middle" dominant-baseline="text-after-edge">/</text><path fill="none" stroke="#505050" paint-order="fill stroke markers" d=" M 881.5816969871521 42.81423568725586 L 889.5816969871521 42.81423568725586 L 889.5816969871521 50.81423568725586 L 881.5816969871521 50.81423568725586 L 881.5816969871521 42.81423568725586 Z" stroke-miterlimit="10" stroke-width="0.5" stroke-dasharray=""/><path fill="none" stroke="#505050" paint-order="fill stroke markers" d=" M 881.5816969871521 54.81423568725586 L 889.5816969871521 54.81423568725586 L 889.5816969871521 62.81423568725586 L 881.5816969871521 62.81423568725586 L 881.5816969871521 54.81423568725586 Z" stroke-miterlimit="10" stroke-width="0.5" stroke-dasharray=""/><path fill="none" stroke="#505050" paint-order="fill stroke markers" d=" M 897.5816969871521 42.81423568725586 L 905.5816969871521 42.81423568725586 L 905.5816969871521 50.81423568725586 L 897.5816969871521 50.81423568725586 L 897.5816969871521 42.81423568725586 Z" stroke-miterlimit="10" stroke-width="0.5" stroke-dasharray=""/><path fill="white" stroke="#505050" paint-order="fill stroke markers" d=" M 835.4098258018494 50.836090087890625 L 867.4098258018494 50.836090087890625 L 867.4098258018494 68.83609008789062 L 835.4098258018494 68.83609008789062 L 835.4098258018494 50.836090087890625 Z" stroke-miterlimit="10" stroke-width="0.5" stroke-dasharray=""/><path fill="#F0F0F0" stroke="none" paint-order="stroke fill markers" d=""/><path fill="none" stroke="none"/><path fill="none" stroke="#505050" paint-order="fill stroke markers" d=" M 859.4098258018494 54.836090087890625 L 867.4098258018494 54.836090087890625 L 867.4098258018494 62.836090087890625 L 859.4098258018494 62.836090087890625 L 859.4098258018494 54.836090087890625 Z" stroke-miterlimit="10" stroke-width="0.5" stroke-dasharray=""/><text fill="#505050" stroke="none" font-family="monospace" font-size="14px" font-style="normal" font-weight="normal" text-decoration="normal" x="851.4098258018494" y="68.83609008789062" text-anchor="end" dominant-baseline="text-after-edge">2</text><path fill="white" stroke="#505050" paint-order="fill stroke markers" d=" M 919.4047951698303 25.139209747314453 L 1011.4047951698303 25.139209747314453 L 1011.4047951698303 55.13920974731445 L 919.4047951698303 55.13920974731445 L 919.4047951698303 25.139209747314453 Z" stroke-miterlimit="10" stroke-width="0.5" stroke-dasharray=""/><path fill="#F0F0F0" stroke="none" paint-order="stroke fill markers" d=""/><path fill="none" stroke="none"/><text fill="#505050" stroke="none" font-family="monospace" font-size="14px" font-style="normal" font-weight="normal" text-decoration="normal" x="965.4047951698303" y="43.13920974731445" text-anchor="middle" dominant-baseline="text-after-edge">Math.floor</text><path fill="none" stroke="#505050" paint-order="fill stroke markers" d=" M 919.4047951698303 43.13920974731445 L 927.4047951698303 43.13920974731445 L 927.4047951698303 51.13920974731445 L 919.4047951698303 51.13920974731445 L 919.4047951698303 43.13920974731445 Z" stroke-miterlimit="10" stroke-width="0.5" stroke-dasharray=""/><path fill="none" stroke="#505050" paint-order="fill stroke markers" d=" M 1003.4047951698303 43.13920974731445 L 1011.4047951698303 43.13920974731445 L 1011.4047951698303 51.13920974731445 L 1003.4047951698303 51.13920974731445 L 1003.4047951698303 43.13920974731445 Z" stroke-miterlimit="10" stroke-width="0.5" stroke-dasharray=""/><path fill="white" stroke="#505050" paint-order="fill stroke markers" d=" M 390.88829803466797 126.76425552368164 L 390.88829803466797 513.201286315918 Q 390.88829803466797 521.201286315918 398.88829803466797 521.201286315918 L 947.9774780273438 521.201286315918 Q 955.9774780273438 521.201286315918 955.9774780273438 513.201286315918 L 955.9774780273438 126.76425552368164 Q 955.9774780273438 118.76425552368164 947.9774780273438 118.76425552368164 L 398.88829803466797 118.76425552368164 Q 390.88829803466797 118.76425552368164 390.88829803466797 126.76425552368164" stroke-miterlimit="10" stroke-width="0.5" stroke-dasharray=""/><path fill="#F0F0F0" stroke="#505050" paint-order="fill stroke markers" d=" M 882.9774780273438 126.76425552368164 L 955.9774780273438 126.76425552368164 L 955.9774780273438 218.76425552368164 L 882.9774780273438 218.76425552368164 L 882.9774780273438 126.76425552368164 Z" stroke-miterlimit="10" stroke-width="0.5" stroke-dasharray=""/><path fill="none" stroke="none"/><text fill="#505050" stroke="none" font-family="monospace" font-size="14px" font-style="normal" font-weight="normal" text-decoration="normal" x="919.4774780273438" y="144.76425552368164" text-anchor="middle" dominant-baseline="text-after-edge">xⁿ</text><path fill="none" stroke="#505050" paint-order="fill stroke markers" d=" M 882.9774780273438 144.76425552368164 L 890.9774780273438 144.76425552368164 L 890.9774780273438 152.76425552368164 L 882.9774780273438 152.76425552368164 L 882.9774780273438 144.76425552368164 Z" stroke-miterlimit="10" stroke-width="0.5" stroke-dasharray=""/><text fill="#505050" stroke="none" font-family="monospace" font-size="14px" font-style="normal" font-weight="normal" text-decoration="normal" x="898.9774780273438" y="158.76425552368164" text-anchor="start" dominant-baseline="text-after-edge">x</text><path fill="none" stroke="#505050" paint-order="fill stroke markers" d=" M 882.9774780273438 158.76425552368164 L 890.9774780273438 158.76425552368164 L 890.9774780273438 166.76425552368164 L 882.9774780273438 166.76425552368164 L 882.9774780273438 158.76425552368164 Z" stroke-miterlimit="10" stroke-width="0.5" stroke-dasharray=""/><text fill="#505050" stroke="none" font-family="monospace" font-size="14px" font-style="normal" font-weight="normal" text-decoration="normal" x="898.9774780273438" y="172.76425552368164" text-anchor="start" dominant-baseline="text-after-edge">n</text><path fill="none" stroke="#505050" paint-order="fill stroke markers" d=" M 882.9774780273438 172.76425552368164 L 906.9774780273438 172.76425552368164 L 906.9774780273438 200.76425552368164 L 882.9774780273438 200.76425552368164 L 882.9774780273438 172.76425552368164 Z" stroke-miterlimit="10" stroke-width="0.5" stroke-dasharray=""/><path fill="none" stroke="none"/><path fill="none" stroke="#505050" paint-order="fill stroke markers" d=" M 882.9774780273438 176.76425552368164 L 890.9774780273438 176.76425552368164 L 890.9774780273438 184.76425552368164 L 882.9774780273438 184.76425552368164 L 882.9774780273438 176.76425552368164 Z" stroke-miterlimit="10" stroke-width="0.5" stroke-dasharray=""/><path fill="none" stroke="#505050" paint-order="fill stroke markers" d=" M 882.9774780273438 188.76425552368164 L 890.9774780273438 188.76425552368164 L 890.9774780273438 196.76425552368164 L 882.9774780273438 196.76425552368164 L 882.9774780273438 188.76425552368164 Z" stroke-miterlimit="10" stroke-width="0.5" stroke-dasharray=""/><path fill="none" stroke="#505050" paint-order="fill stroke markers" d=" M 898.9774780273438 176.76425552368164 L 906.9774780273438 176.76425552368164 L 906.9774780273438 184.76425552368164 L 898.9774780273438 184.76425552368164 L 898.9774780273438 176.76425552368164 Z" stroke-miterlimit="10" stroke-width="0.5" stroke-dasharray=""/><text fill="#505050" stroke="none" font-family="monospace" font-size="14px" font-style="normal" font-weight="normal" text-decoration="normal" x="914.9774780273438" y="195.76425552368164" text-anchor="start" dominant-baseline="text-after-edge">mul</text><path fill="none" stroke="#505050" paint-order="fill stroke markers" d=" M 882.9774780273438 204.76425552368164 L 890.9774780273438 204.76425552368164 L 890.9774780273438 212.76425552368164 L 882.9774780273438 212.76425552368164 L 882.9774780273438 204.76425552368164 Z" stroke-miterlimit="10" stroke-width="0.5" stroke-dasharray=""/><text fill="#505050" stroke="none" font-family="monospace" font-size="14px" font-style="normal" font-weight="normal" text-decoration="normal" x="898.9774780273438" y="218.76425552368164" text-anchor="start" dominant-baseline="text-after-edge">unit</text><path fill="none" stroke="#505050" paint-order="fill stroke markers" d=" M 947.9774780273438 144.76425552368164 L 955.9774780273438 144.76425552368164 L 955.9774780273438 152.76425552368164 L 947.9774780273438 152.76425552368164 L 947.9774780273438 144.76425552368164 Z" stroke-miterlimit="10" stroke-width="0.5" stroke-dasharray=""/><path fill="none" stroke="#505050" paint-order="fill stroke markers" d=" M 939.9774780273438 396.9863739013672 L 947.9774780273438 396.9863739013672" stroke-miterlimit="10" stroke-dasharray=""/><path fill="none" stroke="none"/><path fill="white" stroke="#505050" paint-order="fill stroke markers" d=" M 401.4174118041992 416.2401885986328 L 450.4174118041992 416.2401885986328 L 450.4174118041992 466.2401885986328 L 401.4174118041992 466.2401885986328 L 409.4174118041992 441.2401885986328 L 401.4174118041992 416.2401885986328" stroke-miterlimit="10" stroke-width="0.5" stroke-dasharray=""/><path fill="#F0F0F0" stroke="none" paint-order="stroke fill markers" d=" M 417.4174118041992 420.2401885986328 L 450.4174118041992 420.2401885986328 L 450.4174118041992 462.2401885986328 L 417.4174118041992 462.2401885986328 L 417.4174118041992 420.2401885986328 Z"/><path fill="none" stroke="none"/><path fill="none" stroke="#505050" paint-order="fill stroke markers" d=" M 417.4174118041992 420.2401885986328 L 450.4174118041992 420.2401885986328 L 450.4174118041992 462.2401885986328 L 417.4174118041992 462.2401885986328 L 417.4174118041992 420.2401885986328 Z" stroke-miterlimit="10" stroke-width="0.5" stroke-dasharray=""/><path fill="none" stroke="none"/><text fill="#505050" stroke="none" font-family="monospace" font-size="14px" font-style="normal" font-weight="normal" text-decoration="normal" x="433.9174118041992" y="438.2401885986328" text-anchor="middle" dominant-baseline="text-after-edge">mul</text><path fill="none" stroke="#505050" paint-order="fill stroke markers" d=" M 417.4174118041992 438.2401885986328 L 425.4174118041992 438.2401885986328 L 425.4174118041992 446.2401885986328 L 417.4174118041992 446.2401885986328 L 417.4174118041992 438.2401885986328 Z" stroke-miterlimit="10" stroke-width="0.5" stroke-dasharray=""/><path fill="none" stroke="#505050" paint-order="fill stroke markers" d=" M 417.4174118041992 450.2401885986328 L 425.4174118041992 450.2401885986328 L 425.4174118041992 458.2401885986328 L 417.4174118041992 458.2401885986328 L 417.4174118041992 450.2401885986328 Z" stroke-miterlimit="10" stroke-width="0.5" stroke-dasharray=""/><path fill="none" stroke="#505050" paint-order="fill stroke markers" d=" M 442.4174118041992 438.2401885986328 L 450.4174118041992 438.2401885986328 L 450.4174118041992 446.2401885986328 L 442.4174118041992 446.2401885986328 L 442.4174118041992 438.2401885986328 Z" stroke-miterlimit="10" stroke-width="0.5" stroke-dasharray=""/><path fill="none" stroke="#505050" paint-order="fill stroke markers" d=" M 417.4174118041992 420.2401885986328 L 450.4174118041992 420.2401885986328 L 450.4174118041992 462.2401885986328 L 417.4174118041992 462.2401885986328 L 417.4174118041992 420.2401885986328 Z" stroke-miterlimit="10" stroke-width="0.5" stroke-dasharray="6,3"/><path fill="#F0F0F0" stroke="none" paint-order="stroke fill markers" d=""/><path fill="none" stroke="none"/><text fill="#505050" stroke="none" font-family="monospace" font-size="14px" font-style="normal" font-weight="normal" text-decoration="normal" x="433.9174118041992" y="438.2401885986328" text-anchor="middle" dominant-baseline="text-after-edge">mul</text><path fill="none" stroke="#505050" paint-order="fill stroke markers" d=" M 417.4174118041992 438.2401885986328 L 425.4174118041992 438.2401885986328 L 425.4174118041992 446.2401885986328 L 417.4174118041992 446.2401885986328 L 417.4174118041992 438.2401885986328 Z" stroke-miterlimit="10" stroke-width="0.5" stroke-dasharray="0"/><path fill="none" stroke="#505050" paint-order="fill stroke markers" d=" M 417.4174118041992 450.2401885986328 L 425.4174118041992 450.2401885986328 L 425.4174118041992 458.2401885986328 L 417.4174118041992 458.2401885986328 L 417.4174118041992 450.2401885986328 Z" stroke-miterlimit="10" stroke-width="0.5" stroke-dasharray="0"/><path fill="none" stroke="#505050" paint-order="fill stroke markers" d=" M 442.4174118041992 438.2401885986328 L 450.4174118041992 438.2401885986328 L 450.4174118041992 446.2401885986328 L 442.4174118041992 446.2401885986328 L 442.4174118041992 438.2401885986328 Z" stroke-miterlimit="10" stroke-width="0.5" stroke-dasharray="0"/><path fill="white" stroke="#505050" paint-order="fill stroke markers" d=" M 413.61501464247704 134.99151992797852 L 413.61501464247704 279.62804794311523 Q 413.61501464247704 287.62804794311523 421.61501464247704 287.62804794311523 L 836.5618171691895 287.62804794311523 Q 844.5618171691895 287.62804794311523 844.5618171691895 279.62804794311523 L 844.5618171691895 134.99151992797852 Q 844.5618171691895 126.99151992797852 836.5618171691895 126.99151992797852 L 421.61501464247704 126.99151992797852 Q 413.61501464247704 126.99151992797852 413.61501464247704 134.99151992797852" stroke-miterlimit="10" stroke-width="0.5" stroke-dasharray="0"/><path fill="#F0F0F0" stroke="#505050" paint-order="fill stroke markers" d=" M 777.5618171691895 134.99151992797852 L 844.5618171691895 134.99151992797852 L 844.5618171691895 194.99151992797852 L 777.5618171691895 194.99151992797852 L 777.5618171691895 134.99151992797852 Z" stroke-miterlimit="10" stroke-width="0.5" stroke-dasharray="0"/><path fill="none" stroke="none"/><text fill="#505050" stroke="none" font-family="monospace" font-size="14px" font-style="normal" font-weight="normal" text-decoration="normal" x="811.0618171691895" y="152.99151992797852" text-anchor="middle" dominant-baseline="text-after-edge">expStep</text><path fill="none" stroke="#505050" paint-order="fill stroke markers" d=" M 777.5618171691895 152.99151992797852 L 785.5618171691895 152.99151992797852 L 785.5618171691895 160.99151992797852 L 777.5618171691895 160.99151992797852 L 777.5618171691895 152.99151992797852 Z" stroke-miterlimit="10" stroke-width="0.5" stroke-dasharray="0"/><text fill="#505050" stroke="none" font-family="monospace" font-size="14px" font-style="normal" font-weight="normal" text-decoration="normal" x="793.5618171691895" y="166.99151992797852" text-anchor="start" dominant-baseline="text-after-edge">n</text><path fill="none" stroke="#505050" paint-order="fill stroke markers" d=" M 777.5618171691895 166.99151992797852 L 785.5618171691895 166.99151992797852 L 785.5618171691895 174.99151992797852 L 777.5618171691895 174.99151992797852 L 777.5618171691895 166.99151992797852 Z" stroke-miterlimit="10" stroke-width="0.5" stroke-dasharray="0"/><text fill="#505050" stroke="none" font-family="monospace" font-size="14px" font-style="normal" font-weight="normal" text-decoration="normal" x="793.5618171691895" y="180.99151992797852" text-anchor="start" dominant-baseline="text-after-edge">y</text><path fill="none" stroke="#505050" paint-order="fill stroke markers" d=" M 777.5618171691895 180.99151992797852 L 785.5618171691895 180.99151992797852 L 785.5618171691895 188.99151992797852 L 777.5618171691895 188.99151992797852 L 777.5618171691895 180.99151992797852 Z" stroke-miterlimit="10" stroke-width="0.5" stroke-dasharray="0"/><text fill="#505050" stroke="none" font-family="monospace" font-size="14px" font-style="normal" font-weight="normal" text-decoration="normal" x="793.5618171691895" y="194.99151992797852" text-anchor="start" dominant-baseline="text-after-edge">x</text><path fill="none" stroke="#505050" paint-order="fill stroke markers" d=" M 836.5618171691895 152.99151992797852 L 844.5618171691895 152.99151992797852 L 844.5618171691895 160.99151992797852 L 836.5618171691895 160.99151992797852 L 836.5618171691895 152.99151992797852 Z" stroke-miterlimit="10" stroke-width="0.5" stroke-dasharray="0"/><path fill="white" stroke="#505050" paint-order="fill stroke markers" d=" M 421.5400386750698 158.23841857910156 L 453.5400386750698 158.23841857910156 L 453.5400386750698 176.23841857910156 L 421.5400386750698 176.23841857910156 L 429.5400386750698 167.23841857910156 L 421.5400386750698 158.23841857910156" stroke-miterlimit="10" stroke-width="0.5" stroke-dasharray="0"/><path fill="none" stroke="none"/><path fill="none" stroke="#505050" paint-order="fill stroke markers" d=" M 445.5400386750698 162.23841857910156 L 453.5400386750698 162.23841857910156 L 453.5400386750698 170.23841857910156 L 445.5400386750698 170.23841857910156 L 445.5400386750698 162.23841857910156 Z" stroke-miterlimit="10" stroke-width="0.5" stroke-dasharray="0"/><text fill="#505050" stroke="none" font-family="monospace" font-size="14px" font-style="normal" font-weight="normal" text-decoration="normal" x="437.5400386750698" y="176.23841857910156" text-anchor="end" dominant-baseline="text-after-edge">n</text><path fill="white" stroke="#505050" paint-order="fill stroke markers" d=" M 421.16542968153954 253.62804794311523 L 453.16542968153954 253.62804794311523 L 453.16542968153954 271.62804794311523 L 421.16542968153954 271.62804794311523 L 429.16542968153954 262.62804794311523 L 421.16542968153954 253.62804794311523" stroke-miterlimit="10" stroke-width="0.5" stroke-dasharray="0"/><path fill="none" stroke="none"/><path fill="none" stroke="#505050" paint-order="fill stroke markers" d=" M 445.16542968153954 257.62804794311523 L 453.16542968153954 257.62804794311523 L 453.16542968153954 265.62804794311523 L 445.16542968153954 265.62804794311523 L 445.16542968153954 257.62804794311523 Z" stroke-miterlimit="10" stroke-width="0.5" stroke-dasharray="0"/><text fill="#505050" stroke="none" font-family="monospace" font-size="14px" font-style="normal" font-weight="normal" text-decoration="normal" x="437.16542968153954" y="271.62804794311523" text-anchor="end" dominant-baseline="text-after-edge">x</text><path fill="white" stroke="#505050" paint-order="fill stroke markers" d=" M 420.5838561952114 198.87585830688477 L 452.5838561952114 198.87585830688477 L 452.5838561952114 216.87585830688477 L 420.5838561952114 216.87585830688477 L 428.5838561952114 207.87585830688477 L 420.5838561952114 198.87585830688477" stroke-miterlimit="10" stroke-width="0.5" stroke-dasharray="0"/><path fill="none" stroke="none"/><path fill="none" stroke="#505050" paint-order="fill stroke markers" d=" M 444.5838561952114 202.87585830688477 L 452.5838561952114 202.87585830688477 L 452.5838561952114 210.87585830688477 L 444.5838561952114 210.87585830688477 L 444.5838561952114 202.87585830688477 Z" stroke-miterlimit="10" stroke-width="0.5" stroke-dasharray="0"/><text fill="#505050" stroke="none" font-family="monospace" font-size="14px" font-style="normal" font-weight="normal" text-decoration="normal" x="436.5838561952114" y="216.87585830688477" text-anchor="end" dominant-baseline="text-after-edge">y</text><path fill="white" stroke="#505050" paint-order="fill stroke markers" d=" M 749.272344827652 156.35226964950562 L 757.272344827652 156.35226964950562 L 765.272344827652 164.35226964950562 L 757.272344827652 172.35226964950562 L 749.272344827652 172.35226964950562 L 749.272344827652 156.35226964950562" stroke-miterlimit="10" stroke-width="0.5" stroke-dasharray="0"/><path fill="none" stroke="none"/><path fill="none" stroke="#505050" paint-order="fill stroke markers" d=" M 749.272344827652 160.35226964950562 L 757.272344827652 160.35226964950562 L 757.272344827652 168.35226964950562 L 749.272344827652 168.35226964950562 L 749.272344827652 160.35226964950562 Z" stroke-miterlimit="10" stroke-width="0.5" stroke-dasharray="0"/><path fill="white" stroke="#505050" paint-order="fill stroke markers" d=" M 645.1441023349762 142.26718282699585 L 687.1441023349762 142.26718282699585 L 687.1441023349762 172.26718282699585 L 645.1441023349762 172.26718282699585 L 645.1441023349762 142.26718282699585 Z" stroke-miterlimit="10" stroke-width="0.5" stroke-dasharray="0"/><path fill="#F0F0F0" stroke="none" paint-order="stroke fill markers" d=""/><path fill="none" stroke="none"/><text fill="#505050" stroke="none" font-family="monospace" font-size="14px" font-style="normal" font-weight="normal" text-decoration="normal" x="666.1441023349762" y="160.26718282699585" text-anchor="middle" dominant-baseline="text-after-edge">== 0</text><path fill="none" stroke="#505050" paint-order="fill stroke markers" d=" M 645.1441023349762 160.26718282699585 L 653.1441023349762 160.26718282699585 L 653.1441023349762 168.26718282699585 L 645.1441023349762 168.26718282699585 L 645.1441023349762 160.26718282699585 Z" stroke-miterlimit="10" stroke-width="0.5" stroke-dasharray="0"/><path fill="none" stroke="#505050" paint-order="fill stroke markers" d=" M 679.1441023349762 160.26718282699585 L 687.1441023349762 160.26718282699585 L 687.1441023349762 168.26718282699585 L 679.1441023349762 168.26718282699585 L 679.1441023349762 160.26718282699585 Z" stroke-miterlimit="10" stroke-width="0.5" stroke-dasharray="0"/><path fill="white" stroke="#505050" paint-order="fill stroke markers" d=" M 713.3185484409332 142.4243483543396 L 737.3185484409332 142.4243483543396 L 737.3185484409332 196.4243483543396 L 713.3185484409332 196.4243483543396 L 713.3185484409332 142.4243483543396 Z" stroke-miterlimit="10" stroke-width="0.5" stroke-dasharray="0"/><path fill="#F0F0F0" stroke="none" paint-order="stroke fill markers" d=""/><path fill="none" stroke="none"/><text fill="#505050" stroke="none" font-family="monospace" font-size="14px" font-style="normal" font-weight="normal" text-decoration="normal" x="725.3185484409332" y="160.4243483543396" text-anchor="middle" dominant-baseline="text-after-edge">?</text><path fill="none" stroke="#505050" paint-order="fill stroke markers" d=" M 713.3185484409332 160.4243483543396 L 721.3185484409332 160.4243483543396 L 721.3185484409332 168.4243483543396 L 713.3185484409332 168.4243483543396 L 713.3185484409332 160.4243483543396 Z" stroke-miterlimit="10" stroke-width="0.5" stroke-dasharray="0"/><path fill="none" stroke="#505050" paint-order="fill stroke markers" d=" M 713.3185484409332 172.4243483543396 L 721.3185484409332 172.4243483543396 L 721.3185484409332 180.4243483543396 L 713.3185484409332 180.4243483543396 L 713.3185484409332 172.4243483543396 Z" stroke-miterlimit="10" stroke-width="0.5" stroke-dasharray="0"/><path fill="none" stroke="#505050" paint-order="fill stroke markers" d=" M 713.3185484409332 184.4243483543396 L 721.3185484409332 184.4243483543396 L 721.3185484409332 192.4243483543396 L 713.3185484409332 192.4243483543396 L 713.3185484409332 184.4243483543396 Z" stroke-miterlimit="10" stroke-width="0.5" stroke-dasharray="0"/><path fill="none" stroke="#505050" paint-order="fill stroke markers" d=" M 729.3185484409332 160.4243483543396 L 737.3185484409332 160.4243483543396 L 737.3185484409332 168.4243483543396 L 729.3185484409332 168.4243483543396 L 729.3185484409332 160.4243483543396 Z" stroke-miterlimit="10" stroke-width="0.5" stroke-dasharray="0"/><path fill="white" stroke="#505050" paint-order="fill stroke markers" d=" M 527.5531249046326 211.32831192016602 L 569.5531249046326 211.32831192016602 L 569.5531249046326 271.328311920166 L 527.5531249046326 271.328311920166 L 527.5531249046326 211.32831192016602 Z" stroke-miterlimit="10" stroke-width="0.5" stroke-dasharray="0"/><path fill="#F0F0F0" stroke="none" paint-order="stroke fill markers" d=""/><path fill="none" stroke="none"/><text fill="#505050" stroke="none" font-family="monospace" font-size="14px" font-style="normal" font-weight="normal" text-decoration="normal" x="548.5531249046326" y="229.32831192016602" text-anchor="middle" dominant-baseline="text-after-edge">muls</text><path fill="none" stroke="#505050" paint-order="fill stroke markers" d=" M 527.5531249046326 229.32831192016602 L 535.5531249046326 229.32831192016602 L 535.5531249046326 237.32831192016602 L 527.5531249046326 237.32831192016602 L 527.5531249046326 229.32831192016602 Z" stroke-miterlimit="10" stroke-width="0.5" stroke-dasharray="0"/><text fill="#505050" stroke="none" font-family="monospace" font-size="14px" font-style="normal" font-weight="normal" text-decoration="normal" x="543.5531249046326" y="243.32831192016602" text-anchor="start" dominant-baseline="text-after-edge">n</text><path fill="none" stroke="#505050" paint-order="fill stroke markers" d=" M 527.5531249046326 243.32831192016602 L 535.5531249046326 243.32831192016602 L 535.5531249046326 251.32831192016602 L 527.5531249046326 251.32831192016602 L 527.5531249046326 243.32831192016602 Z" stroke-miterlimit="10" stroke-width="0.5" stroke-dasharray="0"/><text fill="#505050" stroke="none" font-family="monospace" font-size="14px" font-style="normal" font-weight="normal" text-decoration="normal" x="543.5531249046326" y="257.328311920166" text-anchor="start" dominant-baseline="text-after-edge">y</text><path fill="none" stroke="#505050" paint-order="fill stroke markers" d=" M 527.5531249046326 257.328311920166 L 535.5531249046326 257.328311920166 L 535.5531249046326 265.328311920166 L 527.5531249046326 265.328311920166 L 527.5531249046326 257.328311920166 Z" stroke-miterlimit="10" stroke-width="0.5" stroke-dasharray="0"/><text fill="#505050" stroke="none" font-family="monospace" font-size="14px" font-style="normal" font-weight="normal" text-decoration="normal" x="543.5531249046326" y="271.328311920166" text-anchor="start" dominant-baseline="text-after-edge">x</text><path fill="none" stroke="#505050" paint-order="fill stroke markers" d=" M 561.5531249046326 229.32831192016602 L 569.5531249046326 229.32831192016602 L 569.5531249046326 237.32831192016602 L 561.5531249046326 237.32831192016602 L 561.5531249046326 229.32831192016602 Z" stroke-miterlimit="10" stroke-width="0.5" stroke-dasharray="0"/><path fill="none" stroke="#505050" paint-order="fill stroke markers" d=" M 561.5531249046326 241.32831192016602 L 569.5531249046326 241.32831192016602 L 569.5531249046326 249.32831192016602 L 561.5531249046326 249.32831192016602 L 561.5531249046326 241.32831192016602 Z" stroke-miterlimit="10" stroke-width="0.5" stroke-dasharray="0"/><path fill="none" stroke="#505050" paint-order="fill stroke markers" d=" M 561.5531249046326 253.32831192016602 L 569.5531249046326 253.32831192016602 L 569.5531249046326 261.328311920166 L 561.5531249046326 261.328311920166 L 561.5531249046326 253.32831192016602 Z" stroke-miterlimit="10" stroke-width="0.5" stroke-dasharray="0"/><path fill="white" stroke="#505050" paint-order="fill stroke markers" d=" M 609.0660033226013 208.8347930908203 L 676.0660033226013 208.8347930908203 L 676.0660033226013 268.8347930908203 L 609.0660033226013 268.8347930908203 L 609.0660033226013 208.8347930908203 Z" stroke-miterlimit="10" stroke-width="0.5" stroke-dasharray="0"/><path fill="#F0F0F0" stroke="none" paint-order="stroke fill markers" d=""/><path fill="none" stroke="none"/><text fill="#505050" stroke="none" font-family="monospace" font-size="14px" font-style="normal" font-weight="normal" text-decoration="normal" x="642.5660033226013" y="226.8347930908203" text-anchor="middle" dominant-baseline="text-after-edge">expStep</text><path fill="none" stroke="#505050" paint-order="fill stroke markers" d=" M 609.0660033226013 226.8347930908203 L 617.0660033226013 226.8347930908203 L 617.0660033226013 234.8347930908203 L 609.0660033226013 234.8347930908203 L 609.0660033226013 226.8347930908203 Z" stroke-miterlimit="10" stroke-width="0.5" stroke-dasharray="0"/><text fill="#505050" stroke="none" font-family="monospace" font-size="14px" font-style="normal" font-weight="normal" text-decoration="normal" x="625.0660033226013" y="240.8347930908203" text-anchor="start" dominant-baseline="text-after-edge">n</text><path fill="none" stroke="#505050" paint-order="fill stroke markers" d=" M 609.0660033226013 240.8347930908203 L 617.0660033226013 240.8347930908203 L 617.0660033226013 248.8347930908203 L 609.0660033226013 248.8347930908203 L 609.0660033226013 240.8347930908203 Z" stroke-miterlimit="10" stroke-width="0.5" stroke-dasharray="0"/><text fill="#505050" stroke="none" font-family="monospace" font-size="14px" font-style="normal" font-weight="normal" text-decoration="normal" x="625.0660033226013" y="254.8347930908203" text-anchor="start" dominant-baseline="text-after-edge">y</text><path fill="none" stroke="#505050" paint-order="fill stroke markers" d=" M 609.0660033226013 254.8347930908203 L 617.0660033226013 254.8347930908203 L 617.0660033226013 262.8347930908203 L 609.0660033226013 262.8347930908203 L 609.0660033226013 254.8347930908203 Z" stroke-miterlimit="10" stroke-width="0.5" stroke-dasharray="0"/><text fill="#505050" stroke="none" font-family="monospace" font-size="14px" font-style="normal" font-weight="normal" text-decoration="normal" x="625.0660033226013" y="268.8347930908203" text-anchor="start" dominant-baseline="text-after-edge">x</text><path fill="none" stroke="#505050" paint-order="fill stroke markers" d=" M 668.0660033226013 226.8347930908203 L 676.0660033226013 226.8347930908203 L 676.0660033226013 234.8347930908203 L 668.0660033226013 234.8347930908203 L 668.0660033226013 226.8347930908203 Z" stroke-miterlimit="10" stroke-width="0.5" stroke-dasharray="0"/><path fill="white" stroke="#505050" paint-order="fill stroke markers" d=" M 872.9774780273438 374.9863739013672 L 939.9774780273438 374.9863739013672 L 939.9774780273438 434.9863739013672 L 872.9774780273438 434.9863739013672 L 872.9774780273438 374.9863739013672 Z" stroke-miterlimit="10" stroke-width="0.5" stroke-dasharray="0"/><path fill="#F0F0F0" stroke="none" paint-order="stroke fill markers" d=""/><path fill="none" stroke="none"/><text fill="#505050" stroke="none" font-family="monospace" font-size="14px" font-style="normal" font-weight="normal" text-decoration="normal" x="906.4774780273438" y="392.9863739013672" text-anchor="middle" dominant-baseline="text-after-edge">expStep</text><path fill="none" stroke="#505050" paint-order="fill stroke markers" d=" M 872.9774780273438 392.9863739013672 L 880.9774780273438 392.9863739013672 L 880.9774780273438 400.9863739013672 L 872.9774780273438 400.9863739013672 L 872.9774780273438 392.9863739013672 Z" stroke-miterlimit="10" stroke-width="0.5" stroke-dasharray="0"/><text fill="#505050" stroke="none" font-family="monospace" font-size="14px" font-style="normal" font-weight="normal" text-decoration="normal" x="888.9774780273438" y="406.9863739013672" text-anchor="start" dominant-baseline="text-after-edge">n</text><path fill="none" stroke="#505050" paint-order="fill stroke markers" d=" M 872.9774780273438 406.9863739013672 L 880.9774780273438 406.9863739013672 L 880.9774780273438 414.9863739013672 L 872.9774780273438 414.9863739013672 L 872.9774780273438 406.9863739013672 Z" stroke-miterlimit="10" stroke-width="0.5" stroke-dasharray="0"/><text fill="#505050" stroke="none" font-family="monospace" font-size="14px" font-style="normal" font-weight="normal" text-decoration="normal" x="888.9774780273438" y="420.9863739013672" text-anchor="start" dominant-baseline="text-after-edge">y</text><path fill="none" stroke="#505050" paint-order="fill stroke markers" d=" M 872.9774780273438 420.9863739013672 L 880.9774780273438 420.9863739013672 L 880.9774780273438 428.9863739013672 L 872.9774780273438 428.9863739013672 L 872.9774780273438 420.9863739013672 Z" stroke-miterlimit="10" stroke-width="0.5" stroke-dasharray="0"/><text fill="#505050" stroke="none" font-family="monospace" font-size="14px" font-style="normal" font-weight="normal" text-decoration="normal" x="888.9774780273438" y="434.9863739013672" text-anchor="start" dominant-baseline="text-after-edge">x</text><path fill="none" stroke="#505050" paint-order="fill stroke markers" d=" M 931.9774780273438 392.9863739013672 L 939.9774780273438 392.9863739013672 L 939.9774780273438 400.9863739013672 L 931.9774780273438 400.9863739013672 L 931.9774780273438 392.9863739013672 Z" stroke-miterlimit="10" stroke-width="0.5" stroke-dasharray="0"/><path fill="white" stroke="#505050" paint-order="fill stroke markers" d=" M 790.1966886520386 398.4488248825073 L 822.1966886520386 398.4488248825073 L 822.1966886520386 416.4488248825073 L 790.1966886520386 416.4488248825073 L 798.1966886520386 407.4488248825073 L 790.1966886520386 398.4488248825073" stroke-miterlimit="10" stroke-width="0.5" stroke-dasharray="0"/><path fill="none" stroke="none"/><path fill="none" stroke="#505050" paint-order="fill stroke markers" d=" M 814.1966886520386 402.4488248825073 L 822.1966886520386 402.4488248825073 L 822.1966886520386 410.4488248825073 L 814.1966886520386 410.4488248825073 L 814.1966886520386 402.4488248825073 Z" stroke-miterlimit="10" stroke-width="0.5" stroke-dasharray="0"/><text fill="#505050" stroke="none" font-family="monospace" font-size="14px" font-style="normal" font-weight="normal" text-decoration="normal" x="806.1966886520386" y="416.4488248825073" text-anchor="end" dominant-baseline="text-after-edge">n</text><path fill="white" stroke="#505050" paint-order="fill stroke markers" d=" M 788.6839323043823 373.2961759567261 L 820.6839323043823 373.2961759567261 L 820.6839323043823 391.2961759567261 L 788.6839323043823 391.2961759567261 L 796.6839323043823 382.2961759567261 L 788.6839323043823 373.2961759567261" stroke-miterlimit="10" stroke-width="0.5" stroke-dasharray="0"/><path fill="none" stroke="none"/><path fill="none" stroke="#505050" paint-order="fill stroke markers" d=" M 812.6839323043823 377.2961759567261 L 820.6839323043823 377.2961759567261 L 820.6839323043823 385.2961759567261 L 812.6839323043823 385.2961759567261 L 812.6839323043823 377.2961759567261 Z" stroke-miterlimit="10" stroke-width="0.5" stroke-dasharray="0"/><text fill="#505050" stroke="none" font-family="monospace" font-size="14px" font-style="normal" font-weight="normal" text-decoration="normal" x="804.6839323043823" y="391.2961759567261" text-anchor="end" dominant-baseline="text-after-edge">x</text><path fill="white" stroke="#505050" paint-order="fill stroke markers" d=" M 480.5229377746582 312.7827911376953 L 480.5229377746582 497.20128631591797 Q 480.5229377746582 505.20128631591797 488.5229377746582 505.20128631591797 L 722.7314338684082 505.20128631591797 Q 730.7314338684082 505.20128631591797 730.7314338684082 497.20128631591797 L 730.7314338684082 312.7827911376953 Q 730.7314338684082 304.7827911376953 722.7314338684082 304.7827911376953 L 488.5229377746582 304.7827911376953 Q 480.5229377746582 304.7827911376953 480.5229377746582 312.7827911376953" stroke-miterlimit="10" stroke-width="0.5" stroke-dasharray="0"/><path fill="#F0F0F0" stroke="#505050" paint-order="fill stroke markers" d=" M 688.7314338684082 312.7827911376953 L 730.7314338684082 312.7827911376953 L 730.7314338684082 372.7827911376953 L 688.7314338684082 372.7827911376953 L 688.7314338684082 312.7827911376953 Z" stroke-miterlimit="10" stroke-width="0.5" stroke-dasharray="0"/><path fill="none" stroke="none"/><text fill="#505050" stroke="none" font-family="monospace" font-size="14px" font-style="normal" font-weight="normal" text-decoration="normal" x="709.7314338684082" y="330.7827911376953" text-anchor="middle" dominant-baseline="text-after-edge">muls</text><path fill="none" stroke="#505050" paint-order="fill stroke markers" d=" M 688.7314338684082 330.7827911376953 L 696.7314338684082 330.7827911376953 L 696.7314338684082 338.7827911376953 L 688.7314338684082 338.7827911376953 L 688.7314338684082 330.7827911376953 Z" stroke-miterlimit="10" stroke-width="0.5" stroke-dasharray="0"/><text fill="#505050" stroke="none" font-family="monospace" font-size="14px" font-style="normal" font-weight="normal" text-decoration="normal" x="704.7314338684082" y="344.7827911376953" text-anchor="start" dominant-baseline="text-after-edge">n</text><path fill="none" stroke="#505050" paint-order="fill stroke markers" d=" M 688.7314338684082 344.7827911376953 L 696.7314338684082 344.7827911376953 L 696.7314338684082 352.7827911376953 L 688.7314338684082 352.7827911376953 L 688.7314338684082 344.7827911376953 Z" stroke-miterlimit="10" stroke-width="0.5" stroke-dasharray="0"/><text fill="#505050" stroke="none" font-family="monospace" font-size="14px" font-style="normal" font-weight="normal" text-decoration="normal" x="704.7314338684082" y="358.7827911376953" text-anchor="start" dominant-baseline="text-after-edge">y</text><path fill="none" stroke="#505050" paint-order="fill stroke markers" d=" M 688.7314338684082 358.7827911376953 L 696.7314338684082 358.7827911376953 L 696.7314338684082 366.7827911376953 L 688.7314338684082 366.7827911376953 L 688.7314338684082 358.7827911376953 Z" stroke-miterlimit="10" stroke-width="0.5" stroke-dasharray="0"/><text fill="#505050" stroke="none" font-family="monospace" font-size="14px" font-style="normal" font-weight="normal" text-decoration="normal" x="704.7314338684082" y="372.7827911376953" text-anchor="start" dominant-baseline="text-after-edge">x</text><path fill="none" stroke="#505050" paint-order="fill stroke markers" d=" M 722.7314338684082 330.7827911376953 L 730.7314338684082 330.7827911376953 L 730.7314338684082 338.7827911376953 L 722.7314338684082 338.7827911376953 L 722.7314338684082 330.7827911376953 Z" stroke-miterlimit="10" stroke-width="0.5" stroke-dasharray="0"/><path fill="none" stroke="#505050" paint-order="fill stroke markers" d=" M 722.7314338684082 342.7827911376953 L 730.7314338684082 342.7827911376953 L 730.7314338684082 350.7827911376953 L 722.7314338684082 350.7827911376953 L 722.7314338684082 342.7827911376953 Z" stroke-miterlimit="10" stroke-width="0.5" stroke-dasharray="0"/><path fill="none" stroke="#505050" paint-order="fill stroke markers" d=" M 722.7314338684082 354.7827911376953 L 730.7314338684082 354.7827911376953 L 730.7314338684082 362.7827911376953 L 722.7314338684082 362.7827911376953 L 722.7314338684082 354.7827911376953 Z" stroke-miterlimit="10" stroke-width="0.5" stroke-dasharray="0"/><path fill="white" stroke="#505050" paint-order="fill stroke markers" d=" M 562.1165161132812 397.8303756713867 L 595.1165161132812 397.8303756713867 L 595.1165161132812 439.8303756713867 L 562.1165161132812 439.8303756713867 L 562.1165161132812 397.8303756713867 Z" stroke-miterlimit="10" stroke-width="0.5" stroke-dasharray="0"/><path fill="#F0F0F0" stroke="none" paint-order="stroke fill markers" d=""/><path fill="none" stroke="none"/><text fill="#505050" stroke="none" font-family="monospace" font-size="14px" font-style="normal" font-weight="normal" text-decoration="normal" x="578.6165161132812" y="415.8303756713867" text-anchor="middle" dominant-baseline="text-after-edge">mul</text><path fill="none" stroke="#505050" paint-order="fill stroke markers" d=" M 562.1165161132812 415.8303756713867 L 570.1165161132812 415.8303756713867 L 570.1165161132812 423.8303756713867 L 562.1165161132812 423.8303756713867 L 562.1165161132812 415.8303756713867 Z" stroke-miterlimit="10" stroke-width="0.5" stroke-dasharray="0"/><path fill="none" stroke="#505050" paint-order="fill stroke markers" d=" M 562.1165161132812 427.8303756713867 L 570.1165161132812 427.8303756713867 L 570.1165161132812 435.8303756713867 L 562.1165161132812 435.8303756713867 L 562.1165161132812 427.8303756713867 Z" stroke-miterlimit="10" stroke-width="0.5" stroke-dasharray="0"/><path fill="none" stroke="#505050" paint-order="fill stroke markers" d=" M 587.1165161132812 415.8303756713867 L 595.1165161132812 415.8303756713867 L 595.1165161132812 423.8303756713867 L 587.1165161132812 423.8303756713867 L 587.1165161132812 415.8303756713867 Z" stroke-miterlimit="10" stroke-width="0.5" stroke-dasharray="0"/><path fill="white" stroke="#505050" paint-order="fill stroke markers" d=" M 490.46563109755516 462.97554779052734 L 522.4656310975552 462.97554779052734 L 522.4656310975552 480.97554779052734 L 490.46563109755516 480.97554779052734 L 498.46563109755516 471.97554779052734 L 490.46563109755516 462.97554779052734" stroke-miterlimit="10" stroke-width="0.5" stroke-dasharray="0"/><path fill="none" stroke="none"/><path fill="none" stroke="#505050" paint-order="fill stroke markers" d=" M 514.4656310975552 466.97554779052734 L 522.4656310975552 466.97554779052734 L 522.4656310975552 474.97554779052734 L 514.4656310975552 474.97554779052734 L 514.4656310975552 466.97554779052734 Z" stroke-miterlimit="10" stroke-width="0.5" stroke-dasharray="0"/><text fill="#505050" stroke="none" font-family="monospace" font-size="14px" font-style="normal" font-weight="normal" text-decoration="normal" x="506.46563109755516" y="480.97554779052734" text-anchor="end" dominant-baseline="text-after-edge">x</text><path fill="white" stroke="#505050" paint-order="fill stroke markers" d=" M 489.1551452577114 390.75538635253906 L 521.1551452577114 390.75538635253906 L 521.1551452577114 408.75538635253906 L 489.1551452577114 408.75538635253906 L 497.1551452577114 399.75538635253906 L 489.1551452577114 390.75538635253906" stroke-miterlimit="10" stroke-width="0.5" stroke-dasharray="0"/><path fill="none" stroke="none"/><path fill="none" stroke="#505050" paint-order="fill stroke markers" d=" M 513.1551452577114 394.75538635253906 L 521.1551452577114 394.75538635253906 L 521.1551452577114 402.75538635253906 L 513.1551452577114 402.75538635253906 L 513.1551452577114 394.75538635253906 Z" stroke-miterlimit="10" stroke-width="0.5" stroke-dasharray="0"/><text fill="#505050" stroke="none" font-family="monospace" font-size="14px" font-style="normal" font-weight="normal" text-decoration="normal" x="505.1551452577114" y="408.75538635253906" text-anchor="end" dominant-baseline="text-after-edge">y</text><path fill="white" stroke="#505050" paint-order="fill stroke markers" d=" M 661.24462890625 461.17099380493164 L 669.24462890625 461.17099380493164 L 677.24462890625 469.17099380493164 L 669.24462890625 477.17099380493164 L 661.24462890625 477.17099380493164 L 661.24462890625 461.17099380493164" stroke-miterlimit="10" stroke-width="0.5" stroke-dasharray="0"/><path fill="none" stroke="none"/><path fill="none" stroke="#505050" paint-order="fill stroke markers" d=" M 661.24462890625 465.17099380493164 L 669.24462890625 465.17099380493164 L 669.24462890625 473.17099380493164 L 661.24462890625 473.17099380493164 L 661.24462890625 465.17099380493164 Z" stroke-miterlimit="10" stroke-width="0.5" stroke-dasharray="0"/><path fill="white" stroke="#505050" paint-order="fill stroke markers" d=" M 656.0790405273438 357.44287872314453 L 664.0790405273438 357.44287872314453 L 672.0790405273438 365.44287872314453 L 664.0790405273438 373.44287872314453 L 656.0790405273438 373.44287872314453 L 656.0790405273438 357.44287872314453" stroke-miterlimit="10" stroke-width="0.5" stroke-dasharray="0"/><path fill="none" stroke="none"/><path fill="none" stroke="#505050" paint-order="fill stroke markers" d=" M 656.0790405273438 361.44287872314453 L 664.0790405273438 361.44287872314453 L 664.0790405273438 369.44287872314453 L 656.0790405273438 369.44287872314453 L 656.0790405273438 361.44287872314453 Z" stroke-miterlimit="10" stroke-width="0.5" stroke-dasharray="0"/><path fill="white" stroke="#505050" paint-order="fill stroke markers" d=" M 561.5946898460388 447.1054000854492 L 594.5946898460388 447.1054000854492 L 594.5946898460388 489.1054000854492 L 561.5946898460388 489.1054000854492 L 561.5946898460388 447.1054000854492 Z" stroke-miterlimit="10" stroke-width="0.5" stroke-dasharray="0"/><path fill="#F0F0F0" stroke="none" paint-order="stroke fill markers" d=""/><path fill="none" stroke="none"/><text fill="#505050" stroke="none" font-family="monospace" font-size="14px" font-style="normal" font-weight="normal" text-decoration="normal" x="578.0946898460388" y="465.1054000854492" text-anchor="middle" dominant-baseline="text-after-edge">mul</text><path fill="none" stroke="#505050" paint-order="fill stroke markers" d=" M 561.5946898460388 465.1054000854492 L 569.5946898460388 465.1054000854492 L 569.5946898460388 473.1054000854492 L 561.5946898460388 473.1054000854492 L 561.5946898460388 465.1054000854492 Z" stroke-miterlimit="10" stroke-width="0.5" stroke-dasharray="0"/><path fill="none" stroke="#505050" paint-order="fill stroke markers" d=" M 561.5946898460388 477.1054000854492 L 569.5946898460388 477.1054000854492 L 569.5946898460388 485.1054000854492 L 561.5946898460388 485.1054000854492 L 561.5946898460388 477.1054000854492 Z" stroke-miterlimit="10" stroke-width="0.5" stroke-dasharray="0"/><path fill="none" stroke="#505050" paint-order="fill stroke markers" d=" M 586.5946898460388 465.1054000854492 L 594.5946898460388 465.1054000854492 L 594.5946898460388 473.1054000854492 L 586.5946898460388 473.1054000854492 L 586.5946898460388 465.1054000854492 Z" stroke-miterlimit="10" stroke-width="0.5" stroke-dasharray="0"/><path fill="white" stroke="#505050" paint-order="fill stroke markers" d=" M 486.37676963210106 321.8211975097656 L 518.3767696321011 321.8211975097656 L 518.3767696321011 339.8211975097656 L 486.37676963210106 339.8211975097656 L 494.37676963210106 330.8211975097656 L 486.37676963210106 321.8211975097656" stroke-miterlimit="10" stroke-width="0.5" stroke-dasharray="0"/><path fill="none" stroke="none"/><path fill="none" stroke="#505050" paint-order="fill stroke markers" d=" M 510.37676963210106 325.8211975097656 L 518.3767696321011 325.8211975097656 L 518.3767696321011 333.8211975097656 L 510.37676963210106 333.8211975097656 L 510.37676963210106 325.8211975097656 Z" stroke-miterlimit="10" stroke-width="0.5" stroke-dasharray="0"/><text fill="#505050" stroke="none" font-family="monospace" font-size="14px" font-style="normal" font-weight="normal" text-decoration="normal" x="502.37676963210106" y="339.8211975097656" text-anchor="end" dominant-baseline="text-after-edge">n</text><path fill="white" stroke="#505050" paint-order="fill stroke markers" d=" M 618.6889891624451 343.0688705444336 L 642.6889891624451 343.0688705444336 L 642.6889891624451 397.0688705444336 L 618.6889891624451 397.0688705444336 L 618.6889891624451 343.0688705444336 Z" stroke-miterlimit="10" stroke-width="0.5" stroke-dasharray="0"/><path fill="#F0F0F0" stroke="none" paint-order="stroke fill markers" d=""/><path fill="none" stroke="none"/><text fill="#505050" stroke="none" font-family="monospace" font-size="14px" font-style="normal" font-weight="normal" text-decoration="normal" x="630.6889891624451" y="361.0688705444336" text-anchor="middle" dominant-baseline="text-after-edge">?</text><path fill="none" stroke="#505050" paint-order="fill stroke markers" d=" M 618.6889891624451 361.0688705444336 L 626.6889891624451 361.0688705444336 L 626.6889891624451 369.0688705444336 L 618.6889891624451 369.0688705444336 L 618.6889891624451 361.0688705444336 Z" stroke-miterlimit="10" stroke-width="0.5" stroke-dasharray="0"/><path fill="none" stroke="#505050" paint-order="fill stroke markers" d=" M 618.6889891624451 373.0688705444336 L 626.6889891624451 373.0688705444336 L 626.6889891624451 381.0688705444336 L 618.6889891624451 381.0688705444336 L 618.6889891624451 373.0688705444336 Z" stroke-miterlimit="10" stroke-width="0.5" stroke-dasharray="0"/><path fill="none" stroke="#505050" paint-order="fill stroke markers" d=" M 618.6889891624451 385.0688705444336 L 626.6889891624451 385.0688705444336 L 626.6889891624451 393.0688705444336 L 618.6889891624451 393.0688705444336 L 618.6889891624451 385.0688705444336 Z" stroke-miterlimit="10" stroke-width="0.5" stroke-dasharray="0"/><path fill="none" stroke="#505050" paint-order="fill stroke markers" d=" M 634.6889891624451 361.0688705444336 L 642.6889891624451 361.0688705444336 L 642.6889891624451 369.0688705444336 L 634.6889891624451 369.0688705444336 L 634.6889891624451 361.0688705444336 Z" stroke-miterlimit="10" stroke-width="0.5" stroke-dasharray="0"/><path fill="white" stroke="#505050" paint-order="fill stroke markers" d=" M 557.8232665061951 342.9312438964844 L 599.8232665061951 342.9312438964844 L 599.8232665061951 372.9312438964844 L 557.8232665061951 372.9312438964844 L 557.8232665061951 342.9312438964844 Z" stroke-miterlimit="10" stroke-width="0.5" stroke-dasharray="0"/><path fill="#F0F0F0" stroke="none" paint-order="stroke fill markers" d=""/><path fill="none" stroke="none"/><text fill="#505050" stroke="none" font-family="monospace" font-size="14px" font-style="normal" font-weight="normal" text-decoration="normal" x="578.8232665061951" y="360.9312438964844" text-anchor="middle" dominant-baseline="text-after-edge">even</text><path fill="none" stroke="#505050" paint-order="fill stroke markers" d=" M 557.8232665061951 360.9312438964844 L 565.8232665061951 360.9312438964844 L 565.8232665061951 368.9312438964844 L 557.8232665061951 368.9312438964844 L 557.8232665061951 360.9312438964844 Z" stroke-miterlimit="10" stroke-width="0.5" stroke-dasharray="0"/><path fill="none" stroke="#505050" paint-order="fill stroke markers" d=" M 591.8232665061951 360.9312438964844 L 599.8232665061951 360.9312438964844 L 599.8232665061951 368.9312438964844 L 591.8232665061951 368.9312438964844 L 591.8232665061951 360.9312438964844 Z" stroke-miterlimit="10" stroke-width="0.5" stroke-dasharray="0"/><path fill="white" stroke="#505050" paint-order="fill stroke markers" d=" M 617.8941283226013 308.02940368652344 L 642.8941283226013 308.02940368652344 L 642.8941283226013 338.02940368652344 L 617.8941283226013 338.02940368652344 L 617.8941283226013 308.02940368652344 Z" stroke-miterlimit="10" stroke-width="0.5" stroke-dasharray="0"/><path fill="#F0F0F0" stroke="none" paint-order="stroke fill markers" d=""/><path fill="none" stroke="none"/><text fill="#505050" stroke="none" font-family="monospace" font-size="14px" font-style="normal" font-weight="normal" text-decoration="normal" x="630.3941283226013" y="326.02940368652344" text-anchor="middle" dominant-baseline="text-after-edge">/2</text><path fill="none" stroke="#505050" paint-order="fill stroke markers" d=" M 617.8941283226013 326.02940368652344 L 625.8941283226013 326.02940368652344 L 625.8941283226013 334.02940368652344 L 617.8941283226013 334.02940368652344 L 617.8941283226013 326.02940368652344 Z" stroke-miterlimit="10" stroke-width="0.5" stroke-dasharray="0"/><path fill="none" stroke="#505050" paint-order="fill stroke markers" d=" M 634.8941283226013 326.02940368652344 L 642.8941283226013 326.02940368652344 L 642.8941283226013 334.02940368652344 L 634.8941283226013 334.02940368652344 L 634.8941283226013 326.02940368652344 Z" stroke-miterlimit="10" stroke-width="0.5" stroke-dasharray="0"/><path fill="white" stroke="#505050" paint-order="fill stroke markers" d=" M 657.0737693309784 322.8238026201725 L 665.0737693309784 322.8238026201725 L 673.0737693309784 330.8238026201725 L 665.0737693309784 338.8238026201725 L 657.0737693309784 338.8238026201725 L 657.0737693309784 322.8238026201725" stroke-miterlimit="10" stroke-width="0.5" stroke-dasharray="0"/><path fill="none" stroke="none"/><path fill="none" stroke="#505050" paint-order="fill stroke markers" d=" M 657.0737693309784 326.8238026201725 L 665.0737693309784 326.8238026201725 L 665.0737693309784 334.8238026201725 L 657.0737693309784 334.8238026201725 L 657.0737693309784 326.8238026201725 Z" stroke-miterlimit="10" stroke-width="0.5" stroke-dasharray="0"/><path fill="white" stroke="#505050" paint-order="fill stroke markers" d=" M 763.9257559776306 423.17810440063477 L 821.9257559776306 423.17810440063477 L 821.9257559776306 441.17810440063477 L 763.9257559776306 441.17810440063477 L 771.9257559776306 432.17810440063477 L 763.9257559776306 423.17810440063477" stroke-miterlimit="10" stroke-width="0.5" stroke-dasharray="0"/><path fill="none" stroke="none"/><path fill="none" stroke="#505050" paint-order="fill stroke markers" d=" M 813.9257559776306 427.17810440063477 L 821.9257559776306 427.17810440063477 L 821.9257559776306 435.17810440063477 L 813.9257559776306 435.17810440063477 L 813.9257559776306 427.17810440063477 Z" stroke-miterlimit="10" stroke-width="0.5" stroke-dasharray="0"/><text fill="#505050" stroke="none" font-family="monospace" font-size="14px" font-style="normal" font-weight="normal" text-decoration="normal" x="805.9257559776306" y="441.17810440063477" text-anchor="end" dominant-baseline="text-after-edge">unit</text><path fill="white" stroke="#505050" paint-order="fill stroke markers" d=" M 1007.0880074501038 253.47161197662354 L 1007.0880074501038 359.5198907852173 Q 1007.0880074501038 367.5198907852173 1015.0880074501038 367.5198907852173 L 1196.6708045005798 367.5198907852173 Q 1204.6708045005798 367.5198907852173 1204.6708045005798 359.5198907852173 L 1204.6708045005798 253.47161197662354 Q 1204.6708045005798 245.47161197662354 1196.6708045005798 245.47161197662354 L 1015.0880074501038 245.47161197662354 Q 1007.0880074501038 245.47161197662354 1007.0880074501038 253.47161197662354" stroke-miterlimit="10" stroke-width="0.5" stroke-dasharray="0"/><path fill="#F0F0F0" stroke="#505050" paint-order="fill stroke markers" d=" M 1164.6708045005798 253.47161197662354 L 1204.6708045005798 253.47161197662354 L 1204.6708045005798 299.47161197662354 L 1164.6708045005798 299.47161197662354 L 1164.6708045005798 253.47161197662354 Z" stroke-miterlimit="10" stroke-width="0.5" stroke-dasharray="0"/><path fill="none" stroke="none"/><text fill="#505050" stroke="none" font-family="monospace" font-size="14px" font-style="normal" font-weight="normal" text-decoration="normal" x="1184.6708045005798" y="271.47161197662354" text-anchor="middle" dominant-baseline="text-after-edge">xⁿ</text><path fill="none" stroke="#505050" paint-order="fill stroke markers" d=" M 1164.6708045005798 271.47161197662354 L 1172.6708045005798 271.47161197662354 L 1172.6708045005798 279.47161197662354 L 1164.6708045005798 279.47161197662354 L 1164.6708045005798 271.47161197662354 Z" stroke-miterlimit="10" stroke-width="0.5" stroke-dasharray="0"/><text fill="#505050" stroke="none" font-family="monospace" font-size="14px" font-style="normal" font-weight="normal" text-decoration="normal" x="1180.6708045005798" y="285.47161197662354" text-anchor="start" dominant-baseline="text-after-edge">x</text><path fill="none" stroke="#505050" paint-order="fill stroke markers" d=" M 1164.6708045005798 285.47161197662354 L 1172.6708045005798 285.47161197662354 L 1172.6708045005798 293.47161197662354 L 1164.6708045005798 293.47161197662354 L 1164.6708045005798 285.47161197662354 Z" stroke-miterlimit="10" stroke-width="0.5" stroke-dasharray="0"/><text fill="#505050" stroke="none" font-family="monospace" font-size="14px" font-style="normal" font-weight="normal" text-decoration="normal" x="1180.6708045005798" y="299.47161197662354" text-anchor="start" dominant-baseline="text-after-edge">n</text><path fill="none" stroke="#505050" paint-order="fill stroke markers" d=" M 1196.6708045005798 271.47161197662354 L 1204.6708045005798 271.47161197662354 L 1204.6708045005798 279.47161197662354 L 1196.6708045005798 279.47161197662354 L 1196.6708045005798 271.47161197662354 Z" stroke-miterlimit="10" stroke-width="0.5" stroke-dasharray="0"/><path fill="none" stroke="#505050" paint-order="fill stroke markers" d=" M 1070.1739783287048 273.1917657852173 L 1062.1739783287048 273.1917657852173 M 1070.1739783287048 287.1917657852173 L 1062.1739783287048 287.1917657852173 M 1143.1739783287048 273.1917657852173 L 1151.1739783287048 273.1917657852173" stroke-miterlimit="10" stroke-dasharray="0"/><path fill="white" stroke="#505050" paint-order="fill stroke markers" d=" M 1070.1739783287048 251.19176578521729 L 1143.1739783287048 251.19176578521729 L 1143.1739783287048 343.1917657852173 L 1070.1739783287048 343.1917657852173 L 1070.1739783287048 251.19176578521729 Z" stroke-miterlimit="10" stroke-width="0.5" stroke-dasharray="0"/><path fill="#F0F0F0" stroke="none" paint-order="stroke fill markers" d=""/><path fill="none" stroke="none"/><text fill="#505050" stroke="none" font-family="monospace" font-size="14px" font-style="normal" font-weight="normal" text-decoration="normal" x="1106.6739783287048" y="269.1917657852173" text-anchor="middle" dominant-baseline="text-after-edge">xⁿ</text><path fill="none" stroke="#505050" paint-order="fill stroke markers" d=" M 1070.1739783287048 269.1917657852173 L 1078.1739783287048 269.1917657852173 L 1078.1739783287048 277.1917657852173 L 1070.1739783287048 277.1917657852173 L 1070.1739783287048 269.1917657852173 Z" stroke-miterlimit="10" stroke-width="0.5" stroke-dasharray="0"/><text fill="#505050" stroke="none" font-family="monospace" font-size="14px" font-style="normal" font-weight="normal" text-decoration="normal" x="1086.1739783287048" y="283.1917657852173" text-anchor="start" dominant-baseline="text-after-edge">x</text><path fill="none" stroke="#505050" paint-order="fill stroke markers" d=" M 1070.1739783287048 283.1917657852173 L 1078.1739783287048 283.1917657852173 L 1078.1739783287048 291.1917657852173 L 1070.1739783287048 291.1917657852173 L 1070.1739783287048 283.1917657852173 Z" stroke-miterlimit="10" stroke-width="0.5" stroke-dasharray="0"/><text fill="#505050" stroke="none" font-family="monospace" font-size="14px" font-style="normal" font-weight="normal" text-decoration="normal" x="1086.1739783287048" y="297.1917657852173" text-anchor="start" dominant-baseline="text-after-edge">n</text><path fill="none" stroke="#505050" paint-order="fill stroke markers" d=" M 1070.1739783287048 297.1917657852173 L 1094.1739783287048 297.1917657852173 L 1094.1739783287048 325.1917657852173 L 1070.1739783287048 325.1917657852173 L 1070.1739783287048 297.1917657852173 Z" stroke-miterlimit="10" stroke-width="0.5" stroke-dasharray="0"/><path fill="none" stroke="none"/><path fill="none" stroke="#505050" paint-order="fill stroke markers" d=" M 1070.1739783287048 301.1917657852173 L 1078.1739783287048 301.1917657852173 L 1078.1739783287048 309.1917657852173 L 1070.1739783287048 309.1917657852173 L 1070.1739783287048 301.1917657852173 Z" stroke-miterlimit="10" stroke-width="0.5" stroke-dasharray="0"/><path fill="none" stroke="#505050" paint-order="fill stroke markers" d=" M 1070.1739783287048 313.1917657852173 L 1078.1739783287048 313.1917657852173 L 1078.1739783287048 321.1917657852173 L 1070.1739783287048 321.1917657852173 L 1070.1739783287048 313.1917657852173 Z" stroke-miterlimit="10" stroke-width="0.5" stroke-dasharray="0"/><path fill="none" stroke="#505050" paint-order="fill stroke markers" d=" M 1086.1739783287048 301.1917657852173 L 1094.1739783287048 301.1917657852173 L 1094.1739783287048 309.1917657852173 L 1086.1739783287048 309.1917657852173 L 1086.1739783287048 301.1917657852173 Z" stroke-miterlimit="10" stroke-width="0.5" stroke-dasharray="0"/><text fill="#505050" stroke="none" font-family="monospace" font-size="14px" font-style="normal" font-weight="normal" text-decoration="normal" x="1102.1739783287048" y="320.1917657852173" text-anchor="start" dominant-baseline="text-after-edge">mul</text><path fill="none" stroke="#505050" paint-order="fill stroke markers" d=" M 1070.1739783287048 329.1917657852173 L 1078.1739783287048 329.1917657852173 L 1078.1739783287048 337.1917657852173 L 1070.1739783287048 337.1917657852173 L 1070.1739783287048 329.1917657852173 Z" stroke-miterlimit="10" stroke-width="0.5" stroke-dasharray="0"/><text fill="#505050" stroke="none" font-family="monospace" font-size="14px" font-style="normal" font-weight="normal" text-decoration="normal" x="1086.1739783287048" y="343.1917657852173" text-anchor="start" dominant-baseline="text-after-edge">unit</text><path fill="none" stroke="#505050" paint-order="fill stroke markers" d=" M 1135.1739783287048 269.1917657852173 L 1143.1739783287048 269.1917657852173 L 1143.1739783287048 277.1917657852173 L 1135.1739783287048 277.1917657852173 L 1135.1739783287048 269.1917657852173 Z" stroke-miterlimit="10" stroke-width="0.5" stroke-dasharray="0"/><path fill="white" stroke="#505050" paint-order="fill stroke markers" d=" M 1018.2734489440918 333.5198907852173 L 1050.2734489440918 333.5198907852173 L 1050.2734489440918 351.5198907852173 L 1018.2734489440918 351.5198907852173 L 1018.2734489440918 333.5198907852173 Z" stroke-miterlimit="10" stroke-width="0.5" stroke-dasharray="0"/><path fill="#F0F0F0" stroke="none" paint-order="stroke fill markers" d=""/><path fill="none" stroke="none"/><path fill="none" stroke="#505050" paint-order="fill stroke markers" d=" M 1042.2734489440918 337.5198907852173 L 1050.2734489440918 337.5198907852173 L 1050.2734489440918 345.5198907852173 L 1042.2734489440918 345.5198907852173 L 1042.2734489440918 337.5198907852173 Z" stroke-miterlimit="10" stroke-width="0.5" stroke-dasharray="0"/><text fill="#505050" stroke="none" font-family="monospace" font-size="14px" font-style="normal" font-weight="normal" text-decoration="normal" x="1034.2734489440918" y="351.5198907852173" text-anchor="end" dominant-baseline="text-after-edge">1</text><path fill="none" stroke="none"/><path fill="white" stroke="#505050" paint-order="fill stroke markers" d=" M 1015.2932357788086 276.6270980834961 L 1047.2932357788086 276.6270980834961 L 1055.2932357788086 301.6270980834961 L 1047.2932357788086 326.6270980834961 L 1015.2932357788086 326.6270980834961 L 1015.2932357788086 276.6270980834961" stroke-miterlimit="10" stroke-width="0.5" stroke-dasharray="0"/><path fill="none" stroke="none"/><path fill="none" stroke="#505050" paint-order="fill stroke markers" d=" M 1023.2932357788086 280.6270980834961 L 1047.2932357788086 280.6270980834961 L 1047.2932357788086 322.6270980834961 L 1023.2932357788086 322.6270980834961 L 1023.2932357788086 280.6270980834961 Z" stroke-miterlimit="10" stroke-width="0.5" stroke-dasharray="0"/><path fill="none" stroke="none"/><text fill="#505050" stroke="none" font-family="monospace" font-size="14px" font-style="normal" font-weight="normal" text-decoration="normal" x="1035.2932357788086" y="298.6270980834961" text-anchor="middle" dominant-baseline="text-after-edge">*</text><path fill="none" stroke="#505050" paint-order="fill stroke markers" d=" M 1023.2932357788086 298.6270980834961 L 1031.2932357788086 298.6270980834961 L 1031.2932357788086 306.6270980834961 L 1023.2932357788086 306.6270980834961 L 1023.2932357788086 298.6270980834961 Z" stroke-miterlimit="10" stroke-width="0.5" stroke-dasharray="0"/><path fill="none" stroke="#505050" paint-order="fill stroke markers" d=" M 1023.2932357788086 310.6270980834961 L 1031.2932357788086 310.6270980834961 L 1031.2932357788086 318.6270980834961 L 1023.2932357788086 318.6270980834961 L 1023.2932357788086 310.6270980834961 Z" stroke-miterlimit="10" stroke-width="0.5" stroke-dasharray="0"/><path fill="none" stroke="#505050" paint-order="fill stroke markers" d=" M 1039.2932357788086 298.6270980834961 L 1047.2932357788086 298.6270980834961 L 1047.2932357788086 306.6270980834961 L 1039.2932357788086 306.6270980834961 L 1039.2932357788086 298.6270980834961 Z" stroke-miterlimit="10" stroke-width="0.5" stroke-dasharray="0"/><path fill="none" stroke="#505050" paint-order="fill stroke markers" d=" M 1023.2932357788086 280.6270980834961 L 1047.2932357788086 280.6270980834961 L 1047.2932357788086 322.6270980834961 L 1023.2932357788086 322.6270980834961 L 1023.2932357788086 280.6270980834961 Z" stroke-miterlimit="10" stroke-width="0.5" stroke-dasharray="0"/><path fill="#F0F0F0" stroke="none" paint-order="stroke fill markers" d=""/><path fill="none" stroke="none"/><text fill="#505050" stroke="none" font-family="monospace" font-size="14px" font-style="normal" font-weight="normal" text-decoration="normal" x="1035.2932357788086" y="298.6270980834961" text-anchor="middle" dominant-baseline="text-after-edge">*</text><path fill="none" stroke="#505050" paint-order="fill stroke markers" d=" M 1023.2932357788086 298.6270980834961 L 1031.2932357788086 298.6270980834961 L 1031.2932357788086 306.6270980834961 L 1023.2932357788086 306.6270980834961 L 1023.2932357788086 298.6270980834961 Z" stroke-miterlimit="10" stroke-width="0.5" stroke-dasharray="0"/><path fill="none" stroke="#505050" paint-order="fill stroke markers" d=" M 1023.2932357788086 310.6270980834961 L 1031.2932357788086 310.6270980834961 L 1031.2932357788086 318.6270980834961 L 1023.2932357788086 318.6270980834961 L 1023.2932357788086 310.6270980834961 Z" stroke-miterlimit="10" stroke-width="0.5" stroke-dasharray="0"/><path fill="none" stroke="#505050" paint-order="fill stroke markers" d=" M 1039.2932357788086 298.6270980834961 L 1047.2932357788086 298.6270980834961 L 1047.2932357788086 306.6270980834961 L 1039.2932357788086 306.6270980834961 L 1039.2932357788086 298.6270980834961 Z" stroke-miterlimit="10" stroke-width="0.5" stroke-dasharray="0"/><path fill="#e0e0e0" stroke="none" paint-order="stroke fill markers" d=" M 852.5618171691895 164.99151992797852 L 844.5618171691895 134.99151992797852 L 844.5618171691895 194.99151992797852 Z M 601.0660033226013 238.8347930908203 L 609.0660033226013 208.8347930908203 L 609.0660033226013 268.8347930908203 Z"/><path fill="none" stroke="none"/><path fill="none" stroke="#e0e0e0" paint-order="fill stroke markers" d=" M 852.5618171691895 164.99151992797852 C 931.1955733025345 164.99151992797852 522.4322471892563 238.8347930908203 601.0660033226013 238.8347930908203" stroke-miterlimit="10" stroke-width="2" stroke-dasharray="0"/><path fill="#e0e0e0" stroke="none" paint-order="stroke fill markers" d=" M 852.5618171691895 164.99151992797852 L 844.5618171691895 134.99151992797852 L 844.5618171691895 194.99151992797852 Z M 864.9774780273438 404.9863739013672 L 872.9774780273438 374.9863739013672 L 872.9774780273438 434.9863739013672 Z"/><path fill="none" stroke="none"/><path fill="none" stroke="#e0e0e0" paint-order="fill stroke markers" d=" M 852.5618171691895 164.99151992797852 C 924.6565539475615 164.99151992797852 792.8827412489717 404.9863739013672 864.9774780273438 404.9863739013672" stroke-miterlimit="10" stroke-width="2" stroke-dasharray="0"/><path fill="#e0e0e0" stroke="none" paint-order="stroke fill markers" d=" M 458.4174118041992 441.2401885986328 L 450.4174118041992 420.2401885986328 L 450.4174118041992 462.2401885986328 Z M 554.1165161132812 418.8303756713867 L 562.1165161132812 397.8303756713867 L 562.1165161132812 439.8303756713867 Z"/><path fill="none" stroke="none"/><path fill="none" stroke="#e0e0e0" paint-order="fill stroke markers" d=" M 458.4174118041992 441.2401885986328 C 487.9037924788349 441.2401885986328 524.6301354386457 418.8303756713867 554.1165161132812 418.8303756713867" stroke-miterlimit="10" stroke-width="2" stroke-dasharray="0"/><path fill="#e0e0e0" stroke="none" paint-order="stroke fill markers" d=" M 458.4174118041992 441.2401885986328 L 450.4174118041992 420.2401885986328 L 450.4174118041992 462.2401885986328 Z M 553.5946898460388 468.1054000854492 L 561.5946898460388 447.1054000854492 L 561.5946898460388 489.1054000854492 Z"/><path fill="none" stroke="none"/><path fill="none" stroke="#e0e0e0" paint-order="fill stroke markers" d=" M 458.4174118041992 441.2401885986328 C 488.08626493221294 441.2401885986328 523.925836718025 468.1054000854492 553.5946898460388 468.1054000854492" stroke-miterlimit="10" stroke-width="2" stroke-dasharray="0"/><path fill="none" stroke="#505050" paint-order="fill stroke markers" d=" M 414.39053177833557 63.16652059555054 C 419.1905317783356 63.16652059555054 425.59053177833556 63.16652059555054 430.39053177833557 63.16652059555054" stroke-miterlimit="10" stroke-dasharray="0"/><path fill="none" stroke="#505050" paint-order="fill stroke markers" d=" M 567.8883137702942 60.155540466308594 C 571.3290292513369 60.155540466308594 575.9166115033628 60.18521499633789 579.3573269844055 60.18521499633789" stroke-miterlimit="10" stroke-dasharray="0"/><path fill="none" stroke="#505050" paint-order="fill stroke markers" d=" M 717.3414778709412 52.159664154052734 C 719.8746067544762 52.159664154052734 723.2520974615272 52.175296783447266 725.7852263450623 52.175296783447266" stroke-miterlimit="10" stroke-dasharray="0"/><path fill="none" stroke="#505050" paint-order="fill stroke markers" d=" M 867.4098258018494 58.836090087890625 C 871.6613922126782 58.836090087890625 877.3301305763233 58.81423568725586 881.5816969871521 58.81423568725586" stroke-miterlimit="10" stroke-dasharray="0"/><path fill="none" stroke="#505050" paint-order="fill stroke markers" d=" M 905.5816969871521 46.81423568725586 C 909.729772280067 46.81423568725586 915.2567198769154 47.13920974731445 919.4047951698303 47.13920974731445" stroke-miterlimit="10" stroke-dasharray="0"/><path fill="none" stroke="#505050" paint-order="fill stroke markers" d=" M 821.9257559776306 431.17810440063477 C 838.3956857720061 431.17810440063477 856.5075482329682 410.9863739013672 872.9774780273438 410.9863739013672" stroke-miterlimit="10" stroke-dasharray="0"/><path fill="none" stroke="#505050" paint-order="fill stroke markers" d=" M 822.1966886520386 406.4488248825073 C 837.6931524207008 406.4488248825073 857.4810142586815 396.9863739013672 872.9774780273438 396.9863739013672" stroke-miterlimit="10" stroke-dasharray="0"/><path fill="none" stroke="#505050" paint-order="fill stroke markers" d=" M 820.6839323043823 381.2961759567261 C 841.1267879968956 381.2961759567261 852.5346223348305 424.9863739013672 872.9774780273438 424.9863739013672" stroke-miterlimit="10" stroke-dasharray="0"/><path fill="none" stroke="#505050" paint-order="fill stroke markers" d=" M 452.5838561952114 206.87585830688477 C 531.3359271387587 206.87585830688477 634.5664774973859 176.4243483543396 713.3185484409332 176.4243483543396" stroke-miterlimit="10" stroke-dasharray="0"/><path fill="none" stroke="#505050" paint-order="fill stroke markers" d=" M 737.3185484409332 164.4243483543396 C 740.9047525491142 164.4243483543396 745.686140719471 164.35226964950562 749.272344827652 164.35226964950562" stroke-miterlimit="10" stroke-dasharray="0"/><path fill="none" stroke="#505050" paint-order="fill stroke markers" d=" M 453.5400386750698 166.23841857910156 C 483.5085081881532 166.23841857910156 497.5846553915492 233.32831192016602 527.5531249046326 233.32831192016602" stroke-miterlimit="10" stroke-dasharray="0"/><path fill="none" stroke="#505050" paint-order="fill stroke markers" d=" M 453.16542968153954 261.62804794311523 C 475.4819194101203 261.62804794311523 505.2366351760518 261.328311920166 527.5531249046326 261.328311920166" stroke-miterlimit="10" stroke-dasharray="0"/><path fill="none" stroke="#505050" paint-order="fill stroke markers" d=" M 452.5838561952114 206.87585830688477 C 478.1398985898078 206.87585830688477 501.9970825100362 247.32831192016602 527.5531249046326 247.32831192016602" stroke-miterlimit="10" stroke-dasharray="0"/><path fill="none" stroke="#505050" paint-order="fill stroke markers" d=" M 569.5531249046326 257.328311920166 C 581.4156007918647 257.328311920166 597.2035274353692 258.8347930908203 609.0660033226013 258.8347930908203" stroke-miterlimit="10" stroke-dasharray="0"/><path fill="none" stroke="#505050" paint-order="fill stroke markers" d=" M 569.5531249046326 245.32831192016602 C 581.4079130070716 245.32831192016602 597.2112152201623 244.8347930908203 609.0660033226013 244.8347930908203" stroke-miterlimit="10" stroke-dasharray="0"/><path fill="none" stroke="#505050" paint-order="fill stroke markers" d=" M 676.0660033226013 230.8347930908203 C 693.0004597546381 230.8347930908203 696.3840920088965 188.4243483543396 713.3185484409332 188.4243483543396" stroke-miterlimit="10" stroke-dasharray="0"/><path fill="none" stroke="#505050" paint-order="fill stroke markers" d=" M 453.5400386750698 166.23841857910156 C 511.0242997238489 166.23841857910156 587.6598412861971 164.26718282699585 645.1441023349762 164.26718282699585" stroke-miterlimit="10" stroke-dasharray="0"/><path fill="none" stroke="#505050" paint-order="fill stroke markers" d=" M 687.1441023349762 164.26718282699585 C 694.9965777215086 164.26718282699585 705.4660730544008 164.4243483543396 713.3185484409332 164.4243483543396" stroke-miterlimit="10" stroke-dasharray="0"/><path fill="none" stroke="#505050" paint-order="fill stroke markers" d=" M 569.5531249046326 233.32831192016602 C 581.4305685577211 233.32831192016602 597.1885596695128 230.8347930908203 609.0660033226013 230.8347930908203" stroke-miterlimit="10" stroke-dasharray="0"/><path fill="none" stroke="#505050" paint-order="fill stroke markers" d=" M 522.4656310975552 470.97554779052734 C 534.2177484467097 470.97554779052734 549.8425724968843 469.1054000854492 561.5946898460388 469.1054000854492" stroke-miterlimit="10" stroke-dasharray="0"/><path fill="none" stroke="#505050" paint-order="fill stroke markers" d=" M 521.1551452577114 398.75538635253906 C 534.9746610576277 398.75538635253906 548.297000313365 419.8303756713867 562.1165161132812 419.8303756713867" stroke-miterlimit="10" stroke-dasharray="0"/><path fill="none" stroke="#505050" paint-order="fill stroke markers" d=" M 594.5946898460388 469.1054000854492 C 614.5896812472355 469.1054000854492 641.2496375050533 469.17099380493164 661.24462890625 469.17099380493164" stroke-miterlimit="10" stroke-dasharray="0"/><path fill="none" stroke="#505050" paint-order="fill stroke markers" d=" M 521.1551452577114 398.75538635253906 C 551.1298681209096 398.75538635253906 588.7142662992469 377.0688705444336 618.6889891624451 377.0688705444336" stroke-miterlimit="10" stroke-dasharray="0"/><path fill="none" stroke="#505050" paint-order="fill stroke markers" d=" M 595.1165161132812 419.8303756713867 C 606.7429451222083 419.8303756713867 607.062560153518 389.0688705444336 618.6889891624451 389.0688705444336" stroke-miterlimit="10" stroke-dasharray="0"/><path fill="none" stroke="#505050" paint-order="fill stroke markers" d=" M 642.6889891624451 365.0688705444336 C 646.7075712743987 365.0688705444336 652.0604584153901 365.44287872314453 656.0790405273438 365.44287872314453" stroke-miterlimit="10" stroke-dasharray="0"/><path fill="none" stroke="#505050" paint-order="fill stroke markers" d=" M 522.4656310975552 470.97554779052734 C 534.5913369799082 470.97554779052734 549.4689839636858 481.1054000854492 561.5946898460388 481.1054000854492" stroke-miterlimit="10" stroke-dasharray="0"/><path fill="none" stroke="#505050" paint-order="fill stroke markers" d=" M 522.4656310975552 470.97554779052734 C 539.1811432479224 470.97554779052734 545.401003962914 431.8303756713867 562.1165161132812 431.8303756713867" stroke-miterlimit="10" stroke-dasharray="0"/><path fill="none" stroke="#505050" paint-order="fill stroke markers" d=" M 518.3767696321011 329.8211975097656 C 534.2193304277044 329.8211975097656 541.9807057105917 364.9312438964844 557.8232665061951 364.9312438964844" stroke-miterlimit="10" stroke-dasharray="0"/><path fill="none" stroke="#505050" paint-order="fill stroke markers" d=" M 599.8232665061951 364.9312438964844 C 605.4831339003404 364.9312438964844 613.0291217682998 365.0688705444336 618.6889891624451 365.0688705444336" stroke-miterlimit="10" stroke-dasharray="0"/><path fill="none" stroke="#505050" paint-order="fill stroke markers" d=" M 518.3767696321011 329.8211975097656 C 548.2320425792559 329.8211975097656 588.0388553754465 330.02940368652344 617.8941283226013 330.02940368652344" stroke-miterlimit="10" stroke-dasharray="0"/><path fill="none" stroke="#505050" paint-order="fill stroke markers" d=" M 642.8941283226013 330.02940368652344 C 647.1546911951923 330.02940368652344 652.8132064583874 330.8238026201725 657.0737693309784 330.8238026201725" stroke-miterlimit="10" stroke-dasharray="0"/><path fill="none" stroke="#505050" paint-order="fill stroke markers" d=" M 1050.2734489440918 341.5198907852173 C 1056.7453100537195 341.5198907852173 1063.702117219077 333.1917657852173 1070.1739783287048 333.1917657852173" stroke-miterlimit="10" stroke-dasharray="0"/><path fill="none" stroke="#505050" paint-order="fill stroke markers" d=" M 1047.2932357788086 301.6270980834961 C 1054.7330618728183 301.6270980834961 1062.734152234695 311.1917657852173 1070.1739783287048 311.1917657852173" stroke-miterlimit="10" stroke-dasharray="0"/></g></g></svg>