<svg version="1.1" xmlns="http://www.w3.org/2000/svg" xmlns:xlink="http://www.w3.org/1999/xlink" width="874.5907745361328" height="348.37188720703125"><defs/><g transform="translate(-293.0593719482422,-30.59686279296875)"><g><path fill="white" stroke="#505050" paint-order="fill stroke markers" d=" M 541.984399408102 39.59686279296875 L 541.984399408102 369.96875 Q 541.984399408102 377.96875 549.984399408102 377.96875 L 915.8742430210114 377.96875 Q 923.8742430210114 377.96875 923.8742430210114 369.96875 L 923.8742430210114 39.59686279296875 Q 923.8742430210114 31.59686279296875 915.8742430210114 31.59686279296875 L 549.984399408102 31.59686279296875 Q 541.984399408102 31.59686279296875 541.984399408102 39.59686279296875" stroke-miterlimit="10" stroke-width="0.5" stroke-dasharray=""/><path fill="#F0F0F0" stroke="#505050" paint-order="fill stroke markers" d=" M 850.8742430210114 39.59686279296875 L 923.8742430210114 39.59686279296875 L 923.8742430210114 131.59686279296875 L 850.8742430210114 131.59686279296875 L 850.8742430210114 39.59686279296875 Z" stroke-miterlimit="10" stroke-width="0.5" stroke-dasharray=""/><text fill="#505050" stroke="none" font-family="monospace" font-size="14px" font-style="normal" font-weight="normal" text-decoration="normal" x="887.3742430210114" y="57.59686279296875" text-anchor="middle" dominant-baseline="text-after-edge">expStep</text><path fill="none" stroke="#505050" paint-order="fill stroke markers" d=" M 850.8742430210114 57.59686279296875 L 858.8742430210114 57.59686279296875 L 858.8742430210114 65.59686279296875 L 850.8742430210114 65.59686279296875 L 850.8742430210114 57.59686279296875 Z" stroke-miterlimit="10" stroke-width="0.5" stroke-dasharray=""/><text fill="#505050" stroke="none" font-family="monospace" font-size="14px" font-style="normal" font-weight="normal" text-decoration="normal" x="866.8742430210114" y="71.59686279296875" text-anchor="start" dominant-baseline="text-after-edge">n</text><path fill="none" stroke="#505050" paint-order="fill stroke markers" d=" M 850.8742430210114 71.59686279296875 L 858.8742430210114 71.59686279296875 L 858.8742430210114 79.59686279296875 L 850.8742430210114 79.59686279296875 L 850.8742430210114 71.59686279296875 Z" stroke-miterlimit="10" stroke-width="0.5" stroke-dasharray=""/><text fill="#505050" stroke="none" font-family="monospace" font-size="14px" font-style="normal" font-weight="normal" text-decoration="normal" x="866.8742430210114" y="85.59686279296875" text-anchor="start" dominant-baseline="text-after-edge">x</text><path fill="none" stroke="#505050" paint-order="fill stroke markers" d=" M 850.8742430210114 85.59686279296875 L 858.8742430210114 85.59686279296875 L 858.8742430210114 93.59686279296875 L 850.8742430210114 93.59686279296875 L 850.8742430210114 85.59686279296875 Z" stroke-miterlimit="10" stroke-width="0.5" stroke-dasharray=""/><text fill="#505050" stroke="none" font-family="monospace" font-size="14px" font-style="normal" font-weight="normal" text-decoration="normal" x="866.8742430210114" y="99.59686279296875" text-anchor="start" dominant-baseline="text-after-edge">y</text><path fill="none" stroke="#505050" paint-order="fill stroke markers" d=" M 850.8742430210114 99.59686279296875 L 874.8742430210114 99.59686279296875 L 874.8742430210114 127.59686279296875 L 850.8742430210114 127.59686279296875 L 850.8742430210114 99.59686279296875 Z" stroke-miterlimit="10" stroke-width="0.5" stroke-dasharray=""/><path fill="none" stroke="#505050" paint-order="fill stroke markers" d=" M 850.8742430210114 103.59686279296875 L 858.8742430210114 103.59686279296875 L 858.8742430210114 111.59686279296875 L 850.8742430210114 111.59686279296875 L 850.8742430210114 103.59686279296875 Z" stroke-miterlimit="10" stroke-width="0.5" stroke-dasharray=""/><path fill="none" stroke="#505050" paint-order="fill stroke markers" d=" M 850.8742430210114 115.59686279296875 L 858.8742430210114 115.59686279296875 L 858.8742430210114 123.59686279296875 L 850.8742430210114 123.59686279296875 L 850.8742430210114 115.59686279296875 Z" stroke-miterlimit="10" stroke-width="0.5" stroke-dasharray=""/><path fill="none" stroke="#505050" paint-order="fill stroke markers" d=" M 866.8742430210114 103.59686279296875 L 874.8742430210114 103.59686279296875 L 874.8742430210114 111.59686279296875 L 866.8742430210114 111.59686279296875 L 866.8742430210114 103.59686279296875 Z" stroke-miterlimit="10" stroke-width="0.5" stroke-dasharray=""/><text fill="#505050" stroke="none" font-family="monospace" font-size="14px" font-style="normal" font-weight="normal" text-decoration="normal" x="882.8742430210114" y="122.59686279296875" text-anchor="start" dominant-baseline="text-after-edge">mul</text><path fill="none" stroke="#505050" paint-order="fill stroke markers" d=" M 915.8742430210114 57.59686279296875 L 923.8742430210114 57.59686279296875 L 923.8742430210114 65.59686279296875 L 915.8742430210114 65.59686279296875 L 915.8742430210114 57.59686279296875 Z" stroke-miterlimit="10" stroke-width="0.5" stroke-dasharray=""/><path fill="white" stroke="#505050" paint-order="fill stroke markers" d=" M 619.4813247621059 103.08438491821289 L 643.4813247621059 103.08438491821289 L 643.4813247621059 145.0843849182129 L 619.4813247621059 145.0843849182129 L 619.4813247621059 103.08438491821289 Z" stroke-miterlimit="10" stroke-width="0.5" stroke-dasharray=""/><path fill="#F0F0F0" stroke="none" paint-order="stroke fill markers" d=""/><text fill="#505050" stroke="none" font-family="monospace" font-size="14px" font-style="normal" font-weight="normal" text-decoration="normal" x="631.4813247621059" y="121.08438491821289" text-anchor="middle" dominant-baseline="text-after-edge">/</text><path fill="none" stroke="#505050" paint-order="fill stroke markers" d=" M 619.4813247621059 121.08438491821289 L 627.4813247621059 121.08438491821289 L 627.4813247621059 129.0843849182129 L 619.4813247621059 129.0843849182129 L 619.4813247621059 121.08438491821289 Z" stroke-miterlimit="10" stroke-width="0.5" stroke-dasharray=""/><path fill="none" stroke="#505050" paint-order="fill stroke markers" d=" M 619.4813247621059 133.0843849182129 L 627.4813247621059 133.0843849182129 L 627.4813247621059 141.0843849182129 L 619.4813247621059 141.0843849182129 L 619.4813247621059 133.0843849182129 Z" stroke-miterlimit="10" stroke-width="0.5" stroke-dasharray=""/><path fill="none" stroke="#505050" paint-order="fill stroke markers" d=" M 635.4813247621059 121.08438491821289 L 643.4813247621059 121.08438491821289 L 643.4813247621059 129.0843849182129 L 635.4813247621059 129.0843849182129 L 635.4813247621059 121.08438491821289 Z" stroke-miterlimit="10" stroke-width="0.5" stroke-dasharray=""/><path fill="white" stroke="#505050" paint-order="fill stroke markers" d=" M 557.0219837129116 167.0124969482422 L 589.0219837129116 167.0124969482422 L 589.0219837129116 185.0124969482422 L 557.0219837129116 185.0124969482422 L 557.0219837129116 167.0124969482422 Z" stroke-miterlimit="10" stroke-width="0.5" stroke-dasharray=""/><path fill="#F0F0F0" stroke="none" paint-order="stroke fill markers" d=""/><path fill="none" stroke="#505050" paint-order="fill stroke markers" d=" M 581.0219837129116 171.0124969482422 L 589.0219837129116 171.0124969482422 L 589.0219837129116 179.0124969482422 L 581.0219837129116 179.0124969482422 L 581.0219837129116 171.0124969482422 Z" stroke-miterlimit="10" stroke-width="0.5" stroke-dasharray=""/><text fill="#505050" stroke="none" font-family="monospace" font-size="14px" font-style="normal" font-weight="normal" text-decoration="normal" x="573.0219837129116" y="185.0124969482422" text-anchor="end" dominant-baseline="text-after-edge">2</text><path fill="white" stroke="#505050" paint-order="fill stroke markers" d=" M 556.7844844758511 53.63438415527344 L 588.7844844758511 53.63438415527344 L 588.7844844758511 71.63438415527344 L 556.7844844758511 71.63438415527344 L 564.7844844758511 62.63438415527344 L 556.7844844758511 53.63438415527344" stroke-miterlimit="10" stroke-width="0.5" stroke-dasharray=""/><path fill="none" stroke="#505050" paint-order="fill stroke markers" d=" M 580.7844844758511 57.63438415527344 L 588.7844844758511 57.63438415527344 L 588.7844844758511 65.63438415527344 L 580.7844844758511 65.63438415527344 L 580.7844844758511 57.63438415527344 Z" stroke-miterlimit="10" stroke-width="0.5" stroke-dasharray=""/><text fill="#505050" stroke="none" font-family="monospace" font-size="14px" font-style="normal" font-weight="normal" text-decoration="normal" x="572.7844844758511" y="71.63438415527344" text-anchor="end" dominant-baseline="text-after-edge">n</text><path fill="white" stroke="#505050" paint-order="fill stroke markers" d=" M 562.2969604432583 230.79376220703125 L 594.2969604432583 230.79376220703125 L 594.2969604432583 248.79376220703125 L 562.2969604432583 248.79376220703125 L 570.2969604432583 239.79376220703125 L 562.2969604432583 230.79376220703125" stroke-miterlimit="10" stroke-width="0.5" stroke-dasharray=""/><path fill="none" stroke="#505050" paint-order="fill stroke markers" d=" M 586.2969604432583 234.79376220703125 L 594.2969604432583 234.79376220703125 L 594.2969604432583 242.79376220703125 L 586.2969604432583 242.79376220703125 L 586.2969604432583 234.79376220703125 Z" stroke-miterlimit="10" stroke-width="0.5" stroke-dasharray=""/><text fill="#505050" stroke="none" font-family="monospace" font-size="14px" font-style="normal" font-weight="normal" text-decoration="normal" x="578.2969604432583" y="248.79376220703125" text-anchor="end" dominant-baseline="text-after-edge">x</text><path fill="white" stroke="#505050" paint-order="fill stroke markers" d=" M 563.1719909608364 256.2344055175781 L 595.1719909608364 256.2344055175781 L 595.1719909608364 274.2344055175781 L 563.1719909608364 274.2344055175781 L 571.1719909608364 265.2344055175781 L 563.1719909608364 256.2344055175781" stroke-miterlimit="10" stroke-width="0.5" stroke-dasharray=""/><path fill="none" stroke="#505050" paint-order="fill stroke markers" d=" M 587.1719909608364 260.2344055175781 L 595.1719909608364 260.2344055175781 L 595.1719909608364 268.2344055175781 L 587.1719909608364 268.2344055175781 L 587.1719909608364 260.2344055175781 Z" stroke-miterlimit="10" stroke-width="0.5" stroke-dasharray=""/><text fill="#505050" stroke="none" font-family="monospace" font-size="14px" font-style="normal" font-weight="normal" text-decoration="normal" x="579.1719909608364" y="274.2344055175781" text-anchor="end" dominant-baseline="text-after-edge">y</text><path fill="white" stroke="#505050" paint-order="fill stroke markers" d=" M 852.9117186069489 138.21448278427124 L 860.9117186069489 138.21448278427124 L 868.9117186069489 146.21448278427124 L 860.9117186069489 154.21448278427124 L 852.9117186069489 154.21448278427124 L 852.9117186069489 138.21448278427124" stroke-miterlimit="10" stroke-width="0.5" stroke-dasharray=""/><path fill="none" stroke="#505050" paint-order="fill stroke markers" d=" M 852.9117186069489 142.21448278427124 L 860.9117186069489 142.21448278427124 L 860.9117186069489 150.21448278427124 L 852.9117186069489 150.21448278427124 L 852.9117186069489 142.21448278427124 Z" stroke-miterlimit="10" stroke-width="0.5" stroke-dasharray=""/><path fill="white" stroke="#505050" paint-order="fill stroke markers" d=" M 711.4656736850739 131.9843306541443 L 784.4656736850739 131.9843306541443 L 784.4656736850739 223.9843306541443 L 711.4656736850739 223.9843306541443 L 711.4656736850739 131.9843306541443 Z" stroke-miterlimit="10" stroke-width="0.5" stroke-dasharray=""/><path fill="#F0F0F0" stroke="none" paint-order="stroke fill markers" d=""/><text fill="#505050" stroke="none" font-family="monospace" font-size="14px" font-style="normal" font-weight="normal" text-decoration="normal" x="747.9656736850739" y="149.9843306541443" text-anchor="middle" dominant-baseline="text-after-edge">expStep</text><path fill="none" stroke="#505050" paint-order="fill stroke markers" d=" M 711.4656736850739 149.9843306541443 L 719.4656736850739 149.9843306541443 L 719.4656736850739 157.9843306541443 L 711.4656736850739 157.9843306541443 L 711.4656736850739 149.9843306541443 Z" stroke-miterlimit="10" stroke-width="0.5" stroke-dasharray=""/><text fill="#505050" stroke="none" font-family="monospace" font-size="14px" font-style="normal" font-weight="normal" text-decoration="normal" x="727.4656736850739" y="163.9843306541443" text-anchor="start" dominant-baseline="text-after-edge">n</text><path fill="none" stroke="#505050" paint-order="fill stroke markers" d=" M 711.4656736850739 163.9843306541443 L 719.4656736850739 163.9843306541443 L 719.4656736850739 171.9843306541443 L 711.4656736850739 171.9843306541443 L 711.4656736850739 163.9843306541443 Z" stroke-miterlimit="10" stroke-width="0.5" stroke-dasharray=""/><text fill="#505050" stroke="none" font-family="monospace" font-size="14px" font-style="normal" font-weight="normal" text-decoration="normal" x="727.4656736850739" y="177.9843306541443" text-anchor="start" dominant-baseline="text-after-edge">x</text><path fill="none" stroke="#505050" paint-order="fill stroke markers" d=" M 711.4656736850739 177.9843306541443 L 719.4656736850739 177.9843306541443 L 719.4656736850739 185.9843306541443 L 711.4656736850739 185.9843306541443 L 711.4656736850739 177.9843306541443 Z" stroke-miterlimit="10" stroke-width="0.5" stroke-dasharray=""/><text fill="#505050" stroke="none" font-family="monospace" font-size="14px" font-style="normal" font-weight="normal" text-decoration="normal" x="727.4656736850739" y="191.9843306541443" text-anchor="start" dominant-baseline="text-after-edge">y</text><path fill="none" stroke="#505050" paint-order="fill stroke markers" d=" M 711.4656736850739 191.9843306541443 L 735.4656736850739 191.9843306541443 L 735.4656736850739 219.9843306541443 L 711.4656736850739 219.9843306541443 L 711.4656736850739 191.9843306541443 Z" stroke-miterlimit="10" stroke-width="0.5" stroke-dasharray=""/><path fill="none" stroke="#505050" paint-order="fill stroke markers" d=" M 711.4656736850739 195.9843306541443 L 719.4656736850739 195.9843306541443 L 719.4656736850739 203.9843306541443 L 711.4656736850739 203.9843306541443 L 711.4656736850739 195.9843306541443 Z" stroke-miterlimit="10" stroke-width="0.5" stroke-dasharray=""/><path fill="none" stroke="#505050" paint-order="fill stroke markers" d=" M 711.4656736850739 207.9843306541443 L 719.4656736850739 207.9843306541443 L 719.4656736850739 215.9843306541443 L 711.4656736850739 215.9843306541443 L 711.4656736850739 207.9843306541443 Z" stroke-miterlimit="10" stroke-width="0.5" stroke-dasharray=""/><path fill="none" stroke="#505050" paint-order="fill stroke markers" d=" M 727.4656736850739 195.9843306541443 L 735.4656736850739 195.9843306541443 L 735.4656736850739 203.9843306541443 L 727.4656736850739 203.9843306541443 L 727.4656736850739 195.9843306541443 Z" stroke-miterlimit="10" stroke-width="0.5" stroke-dasharray=""/><text fill="#505050" stroke="none" font-family="monospace" font-size="14px" font-style="normal" font-weight="normal" text-decoration="normal" x="743.4656736850739" y="214.9843306541443" text-anchor="start" dominant-baseline="text-after-edge">mul</text><path fill="none" stroke="#505050" paint-order="fill stroke markers" d=" M 776.4656736850739 149.9843306541443 L 784.4656736850739 149.9843306541443 L 784.4656736850739 157.9843306541443 L 776.4656736850739 157.9843306541443 L 776.4656736850739 149.9843306541443 Z" stroke-miterlimit="10" stroke-width="0.5" stroke-dasharray=""/><path fill="#e0e0e0" stroke="none" paint-order="stroke fill markers" d=" M 931.8742430210114 85.59686279296875 L 923.8742430210114 39.59686279296875 L 923.8742430210114 131.59686279296875 Z M 703.4656736850739 177.9843306541443 L 711.4656736850739 131.9843306541443 L 711.4656736850739 223.9843306541443 Z"/><path fill="none" stroke="none"/><path fill="none" stroke="#e0e0e0" paint-order="fill stroke markers" d=" M 931.8742430210114 85.59686279296875 C 1005.7899564299345 85.59686279296875 629.5499602761507 177.9843306541443 703.4656736850739 177.9843306541443" stroke-miterlimit="10" stroke-width="2" stroke-dasharray=""/><path fill="white" stroke="#505050" paint-order="fill stroke markers" d=" M 742.2563230991364 235.8687605857849 L 815.2563230991364 235.8687605857849 L 815.2563230991364 327.8687605857849 L 742.2563230991364 327.8687605857849 L 742.2563230991364 235.8687605857849 Z" stroke-miterlimit="10" stroke-width="0.5" stroke-dasharray=""/><path fill="#F0F0F0" stroke="none" paint-order="stroke fill markers" d=""/><text fill="#505050" stroke="none" font-family="monospace" font-size="14px" font-style="normal" font-weight="normal" text-decoration="normal" x="778.7563230991364" y="253.8687605857849" text-anchor="middle" dominant-baseline="text-after-edge">expStep</text><path fill="none" stroke="#505050" paint-order="fill stroke markers" d=" M 742.2563230991364 253.8687605857849 L 750.2563230991364 253.8687605857849 L 750.2563230991364 261.8687605857849 L 742.2563230991364 261.8687605857849 L 742.2563230991364 253.8687605857849 Z" stroke-miterlimit="10" stroke-width="0.5" stroke-dasharray=""/><text fill="#505050" stroke="none" font-family="monospace" font-size="14px" font-style="normal" font-weight="normal" text-decoration="normal" x="758.2563230991364" y="267.8687605857849" text-anchor="start" dominant-baseline="text-after-edge">n</text><path fill="none" stroke="#505050" paint-order="fill stroke markers" d=" M 742.2563230991364 267.8687605857849 L 750.2563230991364 267.8687605857849 L 750.2563230991364 275.8687605857849 L 742.2563230991364 275.8687605857849 L 742.2563230991364 267.8687605857849 Z" stroke-miterlimit="10" stroke-width="0.5" stroke-dasharray=""/><text fill="#505050" stroke="none" font-family="monospace" font-size="14px" font-style="normal" font-weight="normal" text-decoration="normal" x="758.2563230991364" y="281.8687605857849" text-anchor="start" dominant-baseline="text-after-edge">x</text><path fill="none" stroke="#505050" paint-order="fill stroke markers" d=" M 742.2563230991364 281.8687605857849 L 750.2563230991364 281.8687605857849 L 750.2563230991364 289.8687605857849 L 742.2563230991364 289.8687605857849 L 742.2563230991364 281.8687605857849 Z" stroke-miterlimit="10" stroke-width="0.5" stroke-dasharray=""/><text fill="#505050" stroke="none" font-family="monospace" font-size="14px" font-style="normal" font-weight="normal" text-decoration="normal" x="758.2563230991364" y="295.8687605857849" text-anchor="start" dominant-baseline="text-after-edge">y</text><path fill="none" stroke="#505050" paint-order="fill stroke markers" d=" M 742.2563230991364 295.8687605857849 L 766.2563230991364 295.8687605857849 L 766.2563230991364 323.8687605857849 L 742.2563230991364 323.8687605857849 L 742.2563230991364 295.8687605857849 Z" stroke-miterlimit="10" stroke-width="0.5" stroke-dasharray=""/><path fill="none" stroke="#505050" paint-order="fill stroke markers" d=" M 742.2563230991364 299.8687605857849 L 750.2563230991364 299.8687605857849 L 750.2563230991364 307.8687605857849 L 742.2563230991364 307.8687605857849 L 742.2563230991364 299.8687605857849 Z" stroke-miterlimit="10" stroke-width="0.5" stroke-dasharray=""/><path fill="none" stroke="#505050" paint-order="fill stroke markers" d=" M 742.2563230991364 311.8687605857849 L 750.2563230991364 311.8687605857849 L 750.2563230991364 319.8687605857849 L 742.2563230991364 319.8687605857849 L 742.2563230991364 311.8687605857849 Z" stroke-miterlimit="10" stroke-width="0.5" stroke-dasharray=""/><path fill="none" stroke="#505050" paint-order="fill stroke markers" d=" M 758.2563230991364 299.8687605857849 L 766.2563230991364 299.8687605857849 L 766.2563230991364 307.8687605857849 L 758.2563230991364 307.8687605857849 L 758.2563230991364 299.8687605857849 Z" stroke-miterlimit="10" stroke-width="0.5" stroke-dasharray=""/><text fill="#505050" stroke="none" font-family="monospace" font-size="14px" font-style="normal" font-weight="normal" text-decoration="normal" x="774.2563230991364" y="318.8687605857849" text-anchor="start" dominant-baseline="text-after-edge">mul</text><path fill="none" stroke="#505050" paint-order="fill stroke markers" d=" M 807.2563230991364 253.8687605857849 L 815.2563230991364 253.8687605857849 L 815.2563230991364 261.8687605857849 L 807.2563230991364 261.8687605857849 L 807.2563230991364 253.8687605857849 Z" stroke-miterlimit="10" stroke-width="0.5" stroke-dasharray=""/><path fill="#e0e0e0" stroke="none" paint-order="stroke fill markers" d=" M 931.8742430210114 85.59686279296875 L 923.8742430210114 39.59686279296875 L 923.8742430210114 131.59686279296875 Z M 734.2563230991364 281.8687605857849 L 742.2563230991364 235.8687605857849 L 742.2563230991364 327.8687605857849 Z"/><path fill="none" stroke="none"/><path fill="none" stroke="#e0e0e0" paint-order="fill stroke markers" d=" M 931.8742430210114 85.59686279296875 C 1015.4313792355191 85.59686279296875 650.6991868846286 281.8687605857849 734.2563230991364 281.8687605857849" stroke-miterlimit="10" stroke-width="2" stroke-dasharray=""/><path fill="white" stroke="#505050" paint-order="fill stroke markers" d=" M 684.3001081943512 52.64060735702515 L 726.3001081943512 52.64060735702515 L 726.3001081943512 82.64060735702515 L 684.3001081943512 82.64060735702515 L 684.3001081943512 52.64060735702515 Z" stroke-miterlimit="10" stroke-width="0.5" stroke-dasharray=""/><path fill="#F0F0F0" stroke="none" paint-order="stroke fill markers" d=""/><text fill="#505050" stroke="none" font-family="monospace" font-size="14px" font-style="normal" font-weight="normal" text-decoration="normal" x="705.3001081943512" y="70.64060735702515" text-anchor="middle" dominant-baseline="text-after-edge">== 0</text><path fill="none" stroke="#505050" paint-order="fill stroke markers" d=" M 684.3001081943512 70.64060735702515 L 692.3001081943512 70.64060735702515 L 692.3001081943512 78.64060735702515 L 684.3001081943512 78.64060735702515 L 684.3001081943512 70.64060735702515 Z" stroke-miterlimit="10" stroke-width="0.5" stroke-dasharray=""/><path fill="none" stroke="#505050" paint-order="fill stroke markers" d=" M 718.3001081943512 70.64060735702515 L 726.3001081943512 70.64060735702515 L 726.3001081943512 78.64060735702515 L 718.3001081943512 78.64060735702515 L 718.3001081943512 70.64060735702515 Z" stroke-miterlimit="10" stroke-width="0.5" stroke-dasharray=""/><path fill="white" stroke="#505050" paint-order="fill stroke markers" d=" M 812.7482359409332 98.54317235946655 L 836.7482359409332 98.54317235946655 L 836.7482359409332 176.54317235946655 L 812.7482359409332 176.54317235946655 L 812.7482359409332 98.54317235946655 Z" stroke-miterlimit="10" stroke-width="0.5" stroke-dasharray=""/><path fill="#F0F0F0" stroke="none" paint-order="stroke fill markers" d=""/><text fill="#505050" stroke="none" font-family="monospace" font-size="14px" font-style="normal" font-weight="normal" text-decoration="normal" x="824.7482359409332" y="116.54317235946655" text-anchor="middle" dominant-baseline="text-after-edge">?</text><path fill="none" stroke="#505050" paint-order="fill stroke markers" d=" M 812.7482359409332 116.54317235946655 L 820.7482359409332 116.54317235946655 L 820.7482359409332 124.54317235946655 L 812.7482359409332 124.54317235946655 L 812.7482359409332 116.54317235946655 Z" stroke-miterlimit="10" stroke-width="0.5" stroke-dasharray=""/><path fill="none" stroke="#505050" paint-order="fill stroke markers" d=" M 812.7482359409332 128.54317235946655 L 820.7482359409332 128.54317235946655 L 820.7482359409332 136.54317235946655 L 812.7482359409332 136.54317235946655 L 812.7482359409332 128.54317235946655 Z" stroke-miterlimit="10" stroke-width="0.5" stroke-dasharray=""/><path fill="none" stroke="#505050" paint-order="fill stroke markers" d=" M 812.7482359409332 140.54317235946655 L 820.7482359409332 140.54317235946655 L 820.7482359409332 148.54317235946655 L 812.7482359409332 148.54317235946655 L 812.7482359409332 140.54317235946655 Z" stroke-miterlimit="10" stroke-width="0.5" stroke-dasharray=""/><path fill="none" stroke="#505050" paint-order="fill stroke markers" d=" M 812.7482359409332 152.54317235946655 L 820.7482359409332 152.54317235946655 L 820.7482359409332 160.54317235946655 L 812.7482359409332 160.54317235946655 L 812.7482359409332 152.54317235946655 Z" stroke-miterlimit="10" stroke-width="0.5" stroke-dasharray=""/><path fill="none" stroke="#505050" paint-order="fill stroke markers" d=" M 812.7482359409332 164.54317235946655 L 820.7482359409332 164.54317235946655 L 820.7482359409332 172.54317235946655 L 812.7482359409332 172.54317235946655 L 812.7482359409332 164.54317235946655 Z" stroke-miterlimit="10" stroke-width="0.5" stroke-dasharray=""/><path fill="none" stroke="#505050" paint-order="fill stroke markers" d=" M 828.7482359409332 116.54317235946655 L 836.7482359409332 116.54317235946655 L 836.7482359409332 124.54317235946655 L 828.7482359409332 124.54317235946655 L 828.7482359409332 116.54317235946655 Z" stroke-miterlimit="10" stroke-width="0.5" stroke-dasharray=""/><path fill="white" stroke="#505050" paint-order="fill stroke markers" d=" M 684.1999800205231 91.92500066757202 L 726.1999800205231 91.92500066757202 L 726.1999800205231 121.92500066757202 L 684.1999800205231 121.92500066757202 L 684.1999800205231 91.92500066757202 Z" stroke-miterlimit="10" stroke-width="0.5" stroke-dasharray=""/><path fill="#F0F0F0" stroke="none" paint-order="stroke fill markers" d=""/><text fill="#505050" stroke="none" font-family="monospace" font-size="14px" font-style="normal" font-weight="normal" text-decoration="normal" x="705.1999800205231" y="109.92500066757202" text-anchor="middle" dominant-baseline="text-after-edge">even</text><path fill="none" stroke="#505050" paint-order="fill stroke markers" d=" M 684.1999800205231 109.92500066757202 L 692.1999800205231 109.92500066757202 L 692.1999800205231 117.92500066757202 L 684.1999800205231 117.92500066757202 L 684.1999800205231 109.92500066757202 Z" stroke-miterlimit="10" stroke-width="0.5" stroke-dasharray=""/><path fill="none" stroke="#505050" paint-order="fill stroke markers" d=" M 718.1999800205231 109.92500066757202 L 726.1999800205231 109.92500066757202 L 726.1999800205231 117.92500066757202 L 718.1999800205231 117.92500066757202 L 718.1999800205231 109.92500066757202 Z" stroke-miterlimit="10" stroke-width="0.5" stroke-dasharray=""/><path fill="none" stroke="none"/><path fill="white" stroke="#505050" paint-order="fill stroke markers" d=" M 560.4687728881836 304.1687698364258 L 609.4687728881836 304.1687698364258 L 609.4687728881836 354.1687698364258 L 560.4687728881836 354.1687698364258 L 568.4687728881836 329.1687698364258 L 560.4687728881836 304.1687698364258" stroke-miterlimit="10" stroke-width="0.5" stroke-dasharray="6,3"/><path fill="#F0F0F0" stroke="none" paint-order="stroke fill markers" d=" M 576.4687728881836 308.1687698364258 L 609.4687728881836 308.1687698364258 L 609.4687728881836 350.1687698364258 L 576.4687728881836 350.1687698364258 L 576.4687728881836 308.1687698364258 Z"/><path fill="none" stroke="#505050" paint-order="fill stroke markers" d=" M 576.4687728881836 308.1687698364258 L 609.4687728881836 308.1687698364258 L 609.4687728881836 350.1687698364258 L 576.4687728881836 350.1687698364258 L 576.4687728881836 308.1687698364258 Z" stroke-miterlimit="10" stroke-width="0.5" stroke-dasharray="0"/><text fill="#505050" stroke="none" font-family="monospace" font-size="14px" font-style="normal" font-weight="normal" text-decoration="normal" x="592.9687728881836" y="326.1687698364258" text-anchor="middle" dominant-baseline="text-after-edge">mul</text><path fill="none" stroke="#505050" paint-order="fill stroke markers" d=" M 576.4687728881836 326.1687698364258 L 584.4687728881836 326.1687698364258 L 584.4687728881836 334.1687698364258 L 576.4687728881836 334.1687698364258 L 576.4687728881836 326.1687698364258 Z" stroke-miterlimit="10" stroke-width="0.5" stroke-dasharray="0"/><path fill="none" stroke="#505050" paint-order="fill stroke markers" d=" M 576.4687728881836 338.1687698364258 L 584.4687728881836 338.1687698364258 L 584.4687728881836 346.1687698364258 L 576.4687728881836 346.1687698364258 L 576.4687728881836 338.1687698364258 Z" stroke-miterlimit="10" stroke-width="0.5" stroke-dasharray="0"/><path fill="none" stroke="#505050" paint-order="fill stroke markers" d=" M 601.4687728881836 326.1687698364258 L 609.4687728881836 326.1687698364258 L 609.4687728881836 334.1687698364258 L 601.4687728881836 334.1687698364258 L 601.4687728881836 326.1687698364258 Z" stroke-miterlimit="10" stroke-width="0.5" stroke-dasharray="0"/><path fill="none" stroke="#505050" paint-order="fill stroke markers" d=" M 576.4687728881836 308.1687698364258 L 609.4687728881836 308.1687698364258 L 609.4687728881836 350.1687698364258 L 576.4687728881836 350.1687698364258 L 576.4687728881836 308.1687698364258 Z" stroke-miterlimit="10" stroke-width="0.5" stroke-dasharray="6,3"/><path fill="#F0F0F0" stroke="none" paint-order="stroke fill markers" d=""/><text fill="#505050" stroke="none" font-family="monospace" font-size="14px" font-style="normal" font-weight="normal" text-decoration="normal" x="592.9687728881836" y="326.1687698364258" text-anchor="middle" dominant-baseline="text-after-edge">mul</text><path fill="none" stroke="#505050" paint-order="fill stroke markers" d=" M 576.4687728881836 326.1687698364258 L 584.4687728881836 326.1687698364258 L 584.4687728881836 334.1687698364258 L 576.4687728881836 334.1687698364258 L 576.4687728881836 326.1687698364258 Z" stroke-miterlimit="10" stroke-width="0.5" stroke-dasharray="0"/><path fill="none" stroke="#505050" paint-order="fill stroke markers" d=" M 576.4687728881836 338.1687698364258 L 584.4687728881836 338.1687698364258 L 584.4687728881836 346.1687698364258 L 576.4687728881836 346.1687698364258 L 576.4687728881836 338.1687698364258 Z" stroke-miterlimit="10" stroke-width="0.5" stroke-dasharray="0"/><path fill="none" stroke="#505050" paint-order="fill stroke markers" d=" M 601.4687728881836 326.1687698364258 L 609.4687728881836 326.1687698364258 L 609.4687728881836 334.1687698364258 L 601.4687728881836 334.1687698364258 L 601.4687728881836 326.1687698364258 Z" stroke-miterlimit="10" stroke-width="0.5" stroke-dasharray="0"/><path fill="white" stroke="#505050" paint-order="fill stroke markers" d=" M 642.443814843893 184.73124313354492 L 675.443814843893 184.73124313354492 L 675.443814843893 226.73124313354492 L 642.443814843893 226.73124313354492 L 642.443814843893 184.73124313354492 Z" stroke-miterlimit="10" stroke-width="0.5" stroke-dasharray="0"/><path fill="#F0F0F0" stroke="none" paint-order="stroke fill markers" d=""/><text fill="#505050" stroke="none" font-family="monospace" font-size="14px" font-style="normal" font-weight="normal" text-decoration="normal" x="658.943814843893" y="202.73124313354492" text-anchor="middle" dominant-baseline="text-after-edge">mul</text><path fill="none" stroke="#505050" paint-order="fill stroke markers" d=" M 642.443814843893 202.73124313354492 L 650.443814843893 202.73124313354492 L 650.443814843893 210.73124313354492 L 642.443814843893 210.73124313354492 L 642.443814843893 202.73124313354492 Z" stroke-miterlimit="10" stroke-width="0.5" stroke-dasharray="0"/><path fill="none" stroke="#505050" paint-order="fill stroke markers" d=" M 642.443814843893 214.73124313354492 L 650.443814843893 214.73124313354492 L 650.443814843893 222.73124313354492 L 642.443814843893 222.73124313354492 L 642.443814843893 214.73124313354492 Z" stroke-miterlimit="10" stroke-width="0.5" stroke-dasharray="0"/><path fill="none" stroke="#505050" paint-order="fill stroke markers" d=" M 667.443814843893 202.73124313354492 L 675.443814843893 202.73124313354492 L 675.443814843893 210.73124313354492 L 667.443814843893 210.73124313354492 L 667.443814843893 202.73124313354492 Z" stroke-miterlimit="10" stroke-width="0.5" stroke-dasharray="0"/><path fill="#e0e0e0" stroke="none" paint-order="stroke fill markers" d=" M 617.4687728881836 329.1687698364258 L 609.4687728881836 308.1687698364258 L 609.4687728881836 350.1687698364258 Z M 634.443814843893 205.73124313354492 L 642.443814843893 184.73124313354492 L 642.443814843893 226.73124313354492 Z"/><path fill="none" stroke="none"/><path fill="none" stroke="#e0e0e0" paint-order="fill stroke markers" d=" M 617.4687728881836 329.1687698364258 C 654.8485502325316 329.1687698364258 597.0640374995451 205.73124313354492 634.443814843893 205.73124313354492" stroke-miterlimit="10" stroke-width="2" stroke-dasharray="0"/><path fill="white" stroke="#505050" paint-order="fill stroke markers" d=" M 659.9688551425934 266.8906111717224 L 692.9688551425934 266.8906111717224 L 692.9688551425934 308.8906111717224 L 659.9688551425934 308.8906111717224 L 659.9688551425934 266.8906111717224 Z" stroke-miterlimit="10" stroke-width="0.5" stroke-dasharray="0"/><path fill="#F0F0F0" stroke="none" paint-order="stroke fill markers" d=""/><text fill="#505050" stroke="none" font-family="monospace" font-size="14px" font-style="normal" font-weight="normal" text-decoration="normal" x="676.4688551425934" y="284.8906111717224" text-anchor="middle" dominant-baseline="text-after-edge">mul</text><path fill="none" stroke="#505050" paint-order="fill stroke markers" d=" M 659.9688551425934 284.8906111717224 L 667.9688551425934 284.8906111717224 L 667.9688551425934 292.8906111717224 L 659.9688551425934 292.8906111717224 L 659.9688551425934 284.8906111717224 Z" stroke-miterlimit="10" stroke-width="0.5" stroke-dasharray="0"/><path fill="none" stroke="#505050" paint-order="fill stroke markers" d=" M 659.9688551425934 296.8906111717224 L 667.9688551425934 296.8906111717224 L 667.9688551425934 304.8906111717224 L 659.9688551425934 304.8906111717224 L 659.9688551425934 296.8906111717224 Z" stroke-miterlimit="10" stroke-width="0.5" stroke-dasharray="0"/><path fill="none" stroke="#505050" paint-order="fill stroke markers" d=" M 684.9688551425934 284.8906111717224 L 692.9688551425934 284.8906111717224 L 692.9688551425934 292.8906111717224 L 684.9688551425934 292.8906111717224 L 684.9688551425934 284.8906111717224 Z" stroke-miterlimit="10" stroke-width="0.5" stroke-dasharray="0"/><path fill="#e0e0e0" stroke="none" paint-order="stroke fill markers" d=" M 617.4687728881836 329.1687698364258 L 609.4687728881836 308.1687698364258 L 609.4687728881836 350.1687698364258 Z M 651.9688551425934 287.8906111717224 L 659.9688551425934 266.8906111717224 L 659.9688551425934 308.8906111717224 Z"/><path fill="none" stroke="none"/><path fill="none" stroke="#e0e0e0" paint-order="fill stroke markers" d=" M 617.4687728881836 329.1687698364258 C 633.6079421743598 329.1687698364258 635.8296858564172 287.8906111717224 651.9688551425934 287.8906111717224" stroke-miterlimit="10" stroke-width="2" stroke-dasharray="0"/><path fill="white" stroke="#505050" paint-order="fill stroke markers" d=" M 302.7437880039215 130.45630025863647 L 302.7437880039215 187.69692754745483 Q 302.7437880039215 195.69692754745483 310.7437880039215 195.69692754745483 L 451.199964761734 195.69692754745483 Q 459.199964761734 195.69692754745483 459.199964761734 187.69692754745483 L 459.199964761734 130.45630025863647 Q 459.199964761734 122.45630025863647 451.199964761734 122.45630025863647 L 310.7437880039215 122.45630025863647 Q 302.7437880039215 122.45630025863647 302.7437880039215 130.45630025863647" stroke-miterlimit="10" stroke-width="0.5" stroke-dasharray="0"/><path fill="#F0F0F0" stroke="#505050" paint-order="fill stroke markers" d=" M 417.199964761734 130.45630025863647 L 459.199964761734 130.45630025863647 L 459.199964761734 160.45630025863647 L 417.199964761734 160.45630025863647 L 417.199964761734 130.45630025863647 Z" stroke-miterlimit="10" stroke-width="0.5" stroke-dasharray="0"/><text fill="#505050" stroke="none" font-family="monospace" font-size="14px" font-style="normal" font-weight="normal" text-decoration="normal" x="438.199964761734" y="148.45630025863647" text-anchor="middle" dominant-baseline="text-after-edge">even</text><path fill="none" stroke="#505050" paint-order="fill stroke markers" d=" M 417.199964761734 148.45630025863647 L 425.199964761734 148.45630025863647 L 425.199964761734 156.45630025863647 L 417.199964761734 156.45630025863647 L 417.199964761734 148.45630025863647 Z" stroke-miterlimit="10" stroke-width="0.5" stroke-dasharray="0"/><path fill="none" stroke="#505050" paint-order="fill stroke markers" d=" M 451.199964761734 148.45630025863647 L 459.199964761734 148.45630025863647 L 459.199964761734 156.45630025863647 L 451.199964761734 156.45630025863647 L 451.199964761734 148.45630025863647 Z" stroke-miterlimit="10" stroke-width="0.5" stroke-dasharray="0"/><path fill="white" stroke="#505050" paint-order="fill stroke markers" d=" M 310.7437880039215 136.01251363754272 L 326.7437880039215 136.01251363754272 L 326.7437880039215 152.01251363754272 L 310.7437880039215 152.01251363754272 L 318.7437880039215 144.01251363754272 L 310.7437880039215 136.01251363754272" stroke-miterlimit="10" stroke-width="0.5" stroke-dasharray="0"/><path fill="none" stroke="#505050" paint-order="fill stroke markers" d=" M 318.7437880039215 140.01251363754272 L 326.7437880039215 140.01251363754272 L 326.7437880039215 148.01251363754272 L 318.7437880039215 148.01251363754272 L 318.7437880039215 140.01251363754272 Z" stroke-miterlimit="10" stroke-width="0.5" stroke-dasharray="0"/><path fill="white" stroke="#505050" paint-order="fill stroke markers" d=" M 348.7874891757965 128.0531783103943 L 372.7874891757965 128.0531783103943 L 372.7874891757965 170.0531783103943 L 348.7874891757965 170.0531783103943 L 348.7874891757965 128.0531783103943 Z" stroke-miterlimit="10" stroke-width="0.5" stroke-dasharray="0"/><path fill="#F0F0F0" stroke="none" paint-order="stroke fill markers" d=""/><text fill="#505050" stroke="none" font-family="monospace" font-size="14px" font-style="normal" font-weight="normal" text-decoration="normal" x="360.7874891757965" y="146.0531783103943" text-anchor="middle" dominant-baseline="text-after-edge">&amp;</text><path fill="none" stroke="#505050" paint-order="fill stroke markers" d=" M 348.7874891757965 146.0531783103943 L 356.7874891757965 146.0531783103943 L 356.7874891757965 154.0531783103943 L 348.7874891757965 154.0531783103943 L 348.7874891757965 146.0531783103943 Z" stroke-miterlimit="10" stroke-width="0.5" stroke-dasharray="0"/><path fill="none" stroke="#505050" paint-order="fill stroke markers" d=" M 348.7874891757965 158.0531783103943 L 356.7874891757965 158.0531783103943 L 356.7874891757965 166.0531783103943 L 348.7874891757965 166.0531783103943 L 348.7874891757965 158.0531783103943 Z" stroke-miterlimit="10" stroke-width="0.5" stroke-dasharray="0"/><path fill="none" stroke="#505050" paint-order="fill stroke markers" d=" M 364.7874891757965 146.0531783103943 L 372.7874891757965 146.0531783103943 L 372.7874891757965 154.0531783103943 L 364.7874891757965 154.0531783103943 L 364.7874891757965 146.0531783103943 Z" stroke-miterlimit="10" stroke-width="0.5" stroke-dasharray="0"/><path fill="white" stroke="#505050" paint-order="fill stroke markers" d=" M 383.12809586524963 143.2406325340271 L 391.12809586524963 143.2406325340271 L 399.12809586524963 151.2406325340271 L 391.12809586524963 159.2406325340271 L 383.12809586524963 159.2406325340271 L 383.12809586524963 143.2406325340271" stroke-miterlimit="10" stroke-width="0.5" stroke-dasharray="0"/><path fill="none" stroke="#505050" paint-order="fill stroke markers" d=" M 383.12809586524963 147.2406325340271 L 391.12809586524963 147.2406325340271 L 391.12809586524963 155.2406325340271 L 383.12809586524963 155.2406325340271 L 383.12809586524963 147.2406325340271 Z" stroke-miterlimit="10" stroke-width="0.5" stroke-dasharray="0"/><path fill="white" stroke="#505050" paint-order="fill stroke markers" d=" M 306.98129296302795 161.69692754745483 L 338.98129296302795 161.69692754745483 L 338.98129296302795 179.69692754745483 L 306.98129296302795 179.69692754745483 L 306.98129296302795 161.69692754745483 Z" stroke-miterlimit="10" stroke-width="0.5" stroke-dasharray="0"/><path fill="#F0F0F0" stroke="none" paint-order="stroke fill markers" d=""/><path fill="none" stroke="#505050" paint-order="fill stroke markers" d=" M 330.98129296302795 165.69692754745483 L 338.98129296302795 165.69692754745483 L 338.98129296302795 173.69692754745483 L 330.98129296302795 173.69692754745483 L 330.98129296302795 165.69692754745483 Z" stroke-miterlimit="10" stroke-width="0.5" stroke-dasharray="0"/><text fill="#505050" stroke="none" font-family="monospace" font-size="14px" font-style="normal" font-weight="normal" text-decoration="normal" x="322.98129296302795" y="179.69692754745483" text-anchor="end" dominant-baseline="text-after-edge">1</text><path fill="white" stroke="#505050" paint-order="fill stroke markers" d=" M 308.83437943458557 40.11876440048218 L 308.83437943458557 93.36876440048218 Q 308.83437943458557 101.36876440048218 316.83437943458557 101.36876440048218 L 459.63125443458557 101.36876440048218 Q 467.63125443458557 101.36876440048218 467.63125443458557 93.36876440048218 L 467.63125443458557 40.11876440048218 Q 467.63125443458557 32.11876440048218 459.63125443458557 32.11876440048218 L 316.83437943458557 32.11876440048218 Q 308.83437943458557 32.11876440048218 308.83437943458557 40.11876440048218" stroke-miterlimit="10" stroke-width="0.5" stroke-dasharray="0"/><path fill="#F0F0F0" stroke="#505050" paint-order="fill stroke markers" d=" M 425.63125443458557 40.11876440048218 L 467.63125443458557 40.11876440048218 L 467.63125443458557 70.11876440048218 L 425.63125443458557 70.11876440048218 L 425.63125443458557 40.11876440048218 Z" stroke-miterlimit="10" stroke-width="0.5" stroke-dasharray="0"/><text fill="#505050" stroke="none" font-family="monospace" font-size="14px" font-style="normal" font-weight="normal" text-decoration="normal" x="446.63125443458557" y="58.11876440048218" text-anchor="middle" dominant-baseline="text-after-edge">== 0</text><path fill="none" stroke="#505050" paint-order="fill stroke markers" d=" M 425.63125443458557 58.11876440048218 L 433.63125443458557 58.11876440048218 L 433.63125443458557 66.11876440048218 L 425.63125443458557 66.11876440048218 L 425.63125443458557 58.11876440048218 Z" stroke-miterlimit="10" stroke-width="0.5" stroke-dasharray="0"/><path fill="none" stroke="#505050" paint-order="fill stroke markers" d=" M 459.63125443458557 58.11876440048218 L 467.63125443458557 58.11876440048218 L 467.63125443458557 66.11876440048218 L 459.63125443458557 66.11876440048218 L 459.63125443458557 58.11876440048218 Z" stroke-miterlimit="10" stroke-width="0.5" stroke-dasharray="0"/><path fill="white" stroke="#505050" paint-order="fill stroke markers" d=" M 364.83437943458557 41.36876440048218 L 389.83437943458557 41.36876440048218 L 389.83437943458557 83.36876440048218 L 364.83437943458557 83.36876440048218 L 364.83437943458557 41.36876440048218 Z" stroke-miterlimit="10" stroke-width="0.5" stroke-dasharray="0"/><path fill="#F0F0F0" stroke="none" paint-order="stroke fill markers" d=""/><text fill="#505050" stroke="none" font-family="monospace" font-size="14px" font-style="normal" font-weight="normal" text-decoration="normal" x="377.33437943458557" y="59.36876440048218" text-anchor="middle" dominant-baseline="text-after-edge">==</text><path fill="none" stroke="#505050" paint-order="fill stroke markers" d=" M 364.83437943458557 59.36876440048218 L 372.83437943458557 59.36876440048218 L 372.83437943458557 67.36876440048218 L 364.83437943458557 67.36876440048218 L 364.83437943458557 59.36876440048218 Z" stroke-miterlimit="10" stroke-width="0.5" stroke-dasharray="0"/><path fill="none" stroke="#505050" paint-order="fill stroke markers" d=" M 364.83437943458557 71.36876440048218 L 372.83437943458557 71.36876440048218 L 372.83437943458557 79.36876440048218 L 364.83437943458557 79.36876440048218 L 364.83437943458557 71.36876440048218 Z" stroke-miterlimit="10" stroke-width="0.5" stroke-dasharray="0"/><path fill="none" stroke="#505050" paint-order="fill stroke markers" d=" M 381.83437943458557 59.36876440048218 L 389.83437943458557 59.36876440048218 L 389.83437943458557 67.36876440048218 L 381.83437943458557 67.36876440048218 L 381.83437943458557 59.36876440048218 Z" stroke-miterlimit="10" stroke-width="0.5" stroke-dasharray="0"/><path fill="white" stroke="#505050" paint-order="fill stroke markers" d=" M 401.61562943458557 55.26250982284546 L 409.61562943458557 55.26250982284546 L 417.61562943458557 63.26250982284546 L 409.61562943458557 71.26250982284546 L 401.61562943458557 71.26250982284546 L 401.61562943458557 55.26250982284546" stroke-miterlimit="10" stroke-width="0.5" stroke-dasharray="0"/><path fill="none" stroke="#505050" paint-order="fill stroke markers" d=" M 401.61562943458557 59.26250982284546 L 409.61562943458557 59.26250982284546 L 409.61562943458557 67.26250982284546 L 401.61562943458557 67.26250982284546 L 401.61562943458557 59.26250982284546 Z" stroke-miterlimit="10" stroke-width="0.5" stroke-dasharray="0"/><path fill="white" stroke="#505050" paint-order="fill stroke markers" d=" M 316.83437943458557 67.36876440048218 L 348.83437943458557 67.36876440048218 L 348.83437943458557 85.36876440048218 L 316.83437943458557 85.36876440048218 L 316.83437943458557 67.36876440048218 Z" stroke-miterlimit="10" stroke-width="0.5" stroke-dasharray="0"/><path fill="#F0F0F0" stroke="none" paint-order="stroke fill markers" d=""/><path fill="none" stroke="#505050" paint-order="fill stroke markers" d=" M 340.83437943458557 71.36876440048218 L 348.83437943458557 71.36876440048218 L 348.83437943458557 79.36876440048218 L 340.83437943458557 79.36876440048218 L 340.83437943458557 71.36876440048218 Z" stroke-miterlimit="10" stroke-width="0.5" stroke-dasharray="0"/><text fill="#505050" stroke="none" font-family="monospace" font-size="14px" font-style="normal" font-weight="normal" text-decoration="normal" x="332.83437943458557" y="85.36876440048218" text-anchor="end" dominant-baseline="text-after-edge">0</text><path fill="white" stroke="#505050" paint-order="fill stroke markers" d=" M 326.16874527931213 40.11876440048218 L 342.16874527931213 40.11876440048218 L 342.16874527931213 56.11876440048218 L 326.16874527931213 56.11876440048218 L 334.16874527931213 48.11876440048218 L 326.16874527931213 40.11876440048218" stroke-miterlimit="10" stroke-width="0.5" stroke-dasharray="0"/><path fill="none" stroke="#505050" paint-order="fill stroke markers" d=" M 334.16874527931213 44.11876440048218 L 342.16874527931213 44.11876440048218 L 342.16874527931213 52.11876440048218 L 334.16874527931213 52.11876440048218 L 334.16874527931213 44.11876440048218 Z" stroke-miterlimit="10" stroke-width="0.5" stroke-dasharray="0"/><path fill="white" stroke="#505050" paint-order="fill stroke markers" d=" M 294.0593719482422 222.73435974121094 L 294.0593719482422 366.828125 Q 294.0593719482422 374.828125 302.0593719482422 374.828125 L 457.94688415527344 374.828125 Q 465.94688415527344 374.828125 465.94688415527344 366.828125 L 465.94688415527344 222.73435974121094 Q 465.94688415527344 214.73435974121094 457.94688415527344 214.73435974121094 L 302.0593719482422 214.73435974121094 Q 294.0593719482422 214.73435974121094 294.0593719482422 222.73435974121094" stroke-miterlimit="10" stroke-width="0.5" stroke-dasharray="0"/><path fill="#F0F0F0" stroke="#505050" paint-order="fill stroke markers" d=" M 441.94688415527344 222.73435974121094 L 465.94688415527344 222.73435974121094 L 465.94688415527344 300.73435974121094 L 441.94688415527344 300.73435974121094 L 441.94688415527344 222.73435974121094 Z" stroke-miterlimit="10" stroke-width="0.5" stroke-dasharray="0"/><text fill="#505050" stroke="none" font-family="monospace" font-size="14px" font-style="normal" font-weight="normal" text-decoration="normal" x="453.94688415527344" y="240.73435974121094" text-anchor="middle" dominant-baseline="text-after-edge">?</text><path fill="none" stroke="#505050" paint-order="fill stroke markers" d=" M 441.94688415527344 240.73435974121094 L 449.94688415527344 240.73435974121094 L 449.94688415527344 248.73435974121094 L 441.94688415527344 248.73435974121094 L 441.94688415527344 240.73435974121094 Z" stroke-miterlimit="10" stroke-width="0.5" stroke-dasharray="0"/><path fill="none" stroke="#505050" paint-order="fill stroke markers" d=" M 441.94688415527344 252.73435974121094 L 449.94688415527344 252.73435974121094 L 449.94688415527344 260.73435974121094 L 441.94688415527344 260.73435974121094 L 441.94688415527344 252.73435974121094 Z" stroke-miterlimit="10" stroke-width="0.5" stroke-dasharray="0"/><path fill="none" stroke="#505050" paint-order="fill stroke markers" d=" M 441.94688415527344 264.73435974121094 L 449.94688415527344 264.73435974121094 L 449.94688415527344 272.73435974121094 L 441.94688415527344 272.73435974121094 L 441.94688415527344 264.73435974121094 Z" stroke-miterlimit="10" stroke-width="0.5" stroke-dasharray="0"/><path fill="none" stroke="#505050" paint-order="fill stroke markers" d=" M 441.94688415527344 276.73435974121094 L 449.94688415527344 276.73435974121094 L 449.94688415527344 284.73435974121094 L 441.94688415527344 284.73435974121094 L 441.94688415527344 276.73435974121094 Z" stroke-miterlimit="10" stroke-width="0.5" stroke-dasharray="0"/><path fill="none" stroke="#505050" paint-order="fill stroke markers" d=" M 441.94688415527344 288.73435974121094 L 449.94688415527344 288.73435974121094 L 449.94688415527344 296.73435974121094 L 441.94688415527344 296.73435974121094 L 441.94688415527344 288.73435974121094 Z" stroke-miterlimit="10" stroke-width="0.5" stroke-dasharray="0"/><path fill="none" stroke="#505050" paint-order="fill stroke markers" d=" M 457.94688415527344 240.73435974121094 L 465.94688415527344 240.73435974121094 L 465.94688415527344 248.73435974121094 L 457.94688415527344 248.73435974121094 L 457.94688415527344 240.73435974121094 Z" stroke-miterlimit="10" stroke-width="0.5" stroke-dasharray="0"/><path fill="white" stroke="#505050" paint-order="fill stroke markers" d=" M 303.5531311035156 282.3874816894531 L 319.5531311035156 282.3874816894531 L 319.5531311035156 298.3874816894531 L 303.5531311035156 298.3874816894531 L 311.5531311035156 290.3874816894531 L 303.5531311035156 282.3874816894531" stroke-miterlimit="10" stroke-width="0.5" stroke-dasharray="0"/><path fill="none" stroke="#505050" paint-order="fill stroke markers" d=" M 311.5531311035156 286.3874816894531 L 319.5531311035156 286.3874816894531 L 319.5531311035156 294.3874816894531 L 311.5531311035156 294.3874816894531 L 311.5531311035156 286.3874816894531 Z" stroke-miterlimit="10" stroke-width="0.5" stroke-dasharray="0"/><path fill="white" stroke="#505050" paint-order="fill stroke markers" d=" M 335.09063720703125 288.08123779296875 L 359.09063720703125 288.08123779296875 L 359.09063720703125 342.08123779296875 L 335.09063720703125 342.08123779296875 L 335.09063720703125 288.08123779296875 Z" stroke-miterlimit="10" stroke-width="0.5" stroke-dasharray="0"/><path fill="#F0F0F0" stroke="none" paint-order="stroke fill markers" d=""/><text fill="#505050" stroke="none" font-family="monospace" font-size="14px" font-style="normal" font-weight="normal" text-decoration="normal" x="347.09063720703125" y="306.08123779296875" text-anchor="middle" dominant-baseline="text-after-edge">?</text><path fill="none" stroke="#505050" paint-order="fill stroke markers" d=" M 335.09063720703125 306.08123779296875 L 343.09063720703125 306.08123779296875 L 343.09063720703125 314.08123779296875 L 335.09063720703125 314.08123779296875 L 335.09063720703125 306.08123779296875 Z" stroke-miterlimit="10" stroke-width="0.5" stroke-dasharray="0"/><path fill="none" stroke="#505050" paint-order="fill stroke markers" d=" M 335.09063720703125 318.08123779296875 L 343.09063720703125 318.08123779296875 L 343.09063720703125 326.08123779296875 L 335.09063720703125 326.08123779296875 L 335.09063720703125 318.08123779296875 Z" stroke-miterlimit="10" stroke-width="0.5" stroke-dasharray="0"/><path fill="none" stroke="#505050" paint-order="fill stroke markers" d=" M 335.09063720703125 330.08123779296875 L 343.09063720703125 330.08123779296875 L 343.09063720703125 338.08123779296875 L 335.09063720703125 338.08123779296875 L 335.09063720703125 330.08123779296875 Z" stroke-miterlimit="10" stroke-width="0.5" stroke-dasharray="0"/><path fill="none" stroke="#505050" paint-order="fill stroke markers" d=" M 351.09063720703125 306.08123779296875 L 359.09063720703125 306.08123779296875 L 359.09063720703125 314.08123779296875 L 351.09063720703125 314.08123779296875 L 351.09063720703125 306.08123779296875 Z" stroke-miterlimit="10" stroke-width="0.5" stroke-dasharray="0"/><path fill="white" stroke="#505050" paint-order="fill stroke markers" d=" M 412.3577880859375 270.75782775878906 L 420.3577880859375 270.75782775878906 L 428.3577880859375 278.75782775878906 L 420.3577880859375 286.75782775878906 L 412.3577880859375 286.75782775878906 L 412.3577880859375 270.75782775878906" stroke-miterlimit="10" stroke-width="0.5" stroke-dasharray="0"/><path fill="none" stroke="#505050" paint-order="fill stroke markers" d=" M 412.3577880859375 274.75782775878906 L 420.3577880859375 274.75782775878906 L 420.3577880859375 282.75782775878906 L 412.3577880859375 282.75782775878906 L 412.3577880859375 274.75782775878906 Z" stroke-miterlimit="10" stroke-width="0.5" stroke-dasharray="0"/><path fill="white" stroke="#505050" paint-order="fill stroke markers" d=" M 303 342.828125 L 319 342.828125 L 319 358.828125 L 303 358.828125 L 311 350.828125 L 303 342.828125" stroke-miterlimit="10" stroke-width="0.5" stroke-dasharray="0"/><path fill="none" stroke="#505050" paint-order="fill stroke markers" d=" M 311 346.828125 L 319 346.828125 L 319 354.828125 L 311 354.828125 L 311 346.828125 Z" stroke-miterlimit="10" stroke-width="0.5" stroke-dasharray="0"/><path fill="white" stroke="#505050" paint-order="fill stroke markers" d=" M 377.3500061035156 256.52809143066406 L 401.3500061035156 256.52809143066406 L 401.3500061035156 310.52809143066406 L 377.3500061035156 310.52809143066406 L 377.3500061035156 256.52809143066406 Z" stroke-miterlimit="10" stroke-width="0.5" stroke-dasharray="0"/><path fill="#F0F0F0" stroke="none" paint-order="stroke fill markers" d=""/><text fill="#505050" stroke="none" font-family="monospace" font-size="14px" font-style="normal" font-weight="normal" text-decoration="normal" x="389.3500061035156" y="274.52809143066406" text-anchor="middle" dominant-baseline="text-after-edge">?</text><path fill="none" stroke="#505050" paint-order="fill stroke markers" d=" M 377.3500061035156 274.52809143066406 L 385.3500061035156 274.52809143066406 L 385.3500061035156 282.52809143066406 L 377.3500061035156 282.52809143066406 L 377.3500061035156 274.52809143066406 Z" stroke-miterlimit="10" stroke-width="0.5" stroke-dasharray="0"/><path fill="none" stroke="#505050" paint-order="fill stroke markers" d=" M 377.3500061035156 286.52809143066406 L 385.3500061035156 286.52809143066406 L 385.3500061035156 294.52809143066406 L 377.3500061035156 294.52809143066406 L 377.3500061035156 286.52809143066406 Z" stroke-miterlimit="10" stroke-width="0.5" stroke-dasharray="0"/><path fill="none" stroke="#505050" paint-order="fill stroke markers" d=" M 377.3500061035156 298.52809143066406 L 385.3500061035156 298.52809143066406 L 385.3500061035156 306.52809143066406 L 377.3500061035156 306.52809143066406 L 377.3500061035156 298.52809143066406 Z" stroke-miterlimit="10" stroke-width="0.5" stroke-dasharray="0"/><path fill="none" stroke="#505050" paint-order="fill stroke markers" d=" M 393.3500061035156 274.52809143066406 L 401.3500061035156 274.52809143066406 L 401.3500061035156 282.52809143066406 L 393.3500061035156 282.52809143066406 L 393.3500061035156 274.52809143066406 Z" stroke-miterlimit="10" stroke-width="0.5" stroke-dasharray="0"/><path fill="white" stroke="#505050" paint-order="fill stroke markers" d=" M 302.0593719482422 248.73435974121094 L 318.0593719482422 248.73435974121094 L 318.0593719482422 264.73435974121094 L 302.0593719482422 264.73435974121094 L 310.0593719482422 256.73435974121094 L 302.0593719482422 248.73435974121094" stroke-miterlimit="10" stroke-width="0.5" stroke-dasharray="0"/><path fill="none" stroke="#505050" paint-order="fill stroke markers" d=" M 310.0593719482422 252.73435974121094 L 318.0593719482422 252.73435974121094 L 318.0593719482422 260.73435974121094 L 310.0593719482422 260.73435974121094 L 310.0593719482422 252.73435974121094 Z" stroke-miterlimit="10" stroke-width="0.5" stroke-dasharray="0"/><path fill="white" stroke="#505050" paint-order="fill stroke markers" d=" M 302.3375015258789 226.81561279296875 L 318.3375015258789 226.81561279296875 L 318.3375015258789 242.81561279296875 L 302.3375015258789 242.81561279296875 L 310.3375015258789 234.81561279296875 L 302.3375015258789 226.81561279296875" stroke-miterlimit="10" stroke-width="0.5" stroke-dasharray="0"/><path fill="none" stroke="#505050" paint-order="fill stroke markers" d=" M 310.3375015258789 230.81561279296875 L 318.3375015258789 230.81561279296875 L 318.3375015258789 238.81561279296875 L 310.3375015258789 238.81561279296875 L 310.3375015258789 230.81561279296875 Z" stroke-miterlimit="10" stroke-width="0.5" stroke-dasharray="0"/><path fill="white" stroke="#505050" paint-order="fill stroke markers" d=" M 300.6656265258789 308.08123779296875 L 316.6656265258789 308.08123779296875 L 316.6656265258789 324.08123779296875 L 300.6656265258789 324.08123779296875 L 308.6656265258789 316.08123779296875 L 300.6656265258789 308.08123779296875" stroke-miterlimit="10" stroke-width="0.5" stroke-dasharray="0"/><path fill="none" stroke="#505050" paint-order="fill stroke markers" d=" M 308.6656265258789 312.08123779296875 L 316.6656265258789 312.08123779296875 L 316.6656265258789 320.08123779296875 L 308.6656265258789 320.08123779296875 L 308.6656265258789 312.08123779296875 Z" stroke-miterlimit="10" stroke-width="0.5" stroke-dasharray="0"/><path fill="white" stroke="#505050" paint-order="fill stroke markers" d=" M 945.60009765625 152.72186279296875 L 945.60009765625 277.8281021118164 Q 945.60009765625 285.8281021118164 953.60009765625 285.8281021118164 L 1158.650146484375 285.8281021118164 Q 1166.650146484375 285.8281021118164 1166.650146484375 277.8281021118164 L 1166.650146484375 152.72186279296875 Q 1166.650146484375 144.72186279296875 1158.650146484375 144.72186279296875 L 953.60009765625 144.72186279296875 Q 945.60009765625 144.72186279296875 945.60009765625 152.72186279296875" stroke-miterlimit="10" stroke-width="0.5" stroke-dasharray="0"/><path fill="#F0F0F0" stroke="#505050" paint-order="fill stroke markers" d=" M 1126.650146484375 152.72186279296875 L 1166.650146484375 152.72186279296875 L 1166.650146484375 198.72186279296875 L 1126.650146484375 198.72186279296875 L 1126.650146484375 152.72186279296875 Z" stroke-miterlimit="10" stroke-width="0.5" stroke-dasharray="0"/><text fill="#505050" stroke="none" font-family="monospace" font-size="14px" font-style="normal" font-weight="normal" text-decoration="normal" x="1146.650146484375" y="170.72186279296875" text-anchor="middle" dominant-baseline="text-after-edge">X</text><path fill="none" stroke="#505050" paint-order="fill stroke markers" d=" M 1126.650146484375 170.72186279296875 L 1134.650146484375 170.72186279296875 L 1134.650146484375 178.72186279296875 L 1126.650146484375 178.72186279296875 L 1126.650146484375 170.72186279296875 Z" stroke-miterlimit="10" stroke-width="0.5" stroke-dasharray="0"/><text fill="#505050" stroke="none" font-family="monospace" font-size="14px" font-style="normal" font-weight="normal" text-decoration="normal" x="1142.650146484375" y="184.72186279296875" text-anchor="start" dominant-baseline="text-after-edge">x</text><path fill="none" stroke="#505050" paint-order="fill stroke markers" d=" M 1126.650146484375 184.72186279296875 L 1134.650146484375 184.72186279296875 L 1134.650146484375 192.72186279296875 L 1126.650146484375 192.72186279296875 L 1126.650146484375 184.72186279296875 Z" stroke-miterlimit="10" stroke-width="0.5" stroke-dasharray="0"/><text fill="#505050" stroke="none" font-family="monospace" font-size="14px" font-style="normal" font-weight="normal" text-decoration="normal" x="1142.650146484375" y="198.72186279296875" text-anchor="start" dominant-baseline="text-after-edge">n</text><path fill="none" stroke="#505050" paint-order="fill stroke markers" d=" M 1158.650146484375 170.72186279296875 L 1166.650146484375 170.72186279296875 L 1166.650146484375 178.72186279296875 L 1158.650146484375 178.72186279296875 L 1158.650146484375 170.72186279296875 Z" stroke-miterlimit="10" stroke-width="0.5" stroke-dasharray="0"/><path fill="white" stroke="#505050" paint-order="fill stroke markers" d=" M 949.9906616210938 171.24061584472656 L 981.9906616210938 171.24061584472656 L 981.9906616210938 189.24061584472656 L 949.9906616210938 189.24061584472656 L 957.9906616210938 180.24061584472656 L 949.9906616210938 171.24061584472656" stroke-miterlimit="10" stroke-width="0.5" stroke-dasharray="0"/><path fill="none" stroke="#505050" paint-order="fill stroke markers" d=" M 973.9906616210938 175.24061584472656 L 981.9906616210938 175.24061584472656 L 981.9906616210938 183.24061584472656 L 973.9906616210938 183.24061584472656 L 973.9906616210938 175.24061584472656 Z" stroke-miterlimit="10" stroke-width="0.5" stroke-dasharray="0"/><text fill="#505050" stroke="none" font-family="monospace" font-size="14px" font-style="normal" font-weight="normal" text-decoration="normal" x="965.9906616210938" y="189.24061584472656" text-anchor="end" dominant-baseline="text-after-edge">n</text><path fill="white" stroke="#505050" paint-order="fill stroke markers" d=" M 1026.003173828125 152.69998168945312 L 1099.003173828125 152.69998168945312 L 1099.003173828125 244.69998168945312 L 1026.003173828125 244.69998168945312 L 1026.003173828125 152.69998168945312 Z" stroke-miterlimit="10" stroke-width="0.5" stroke-dasharray="0"/><path fill="#F0F0F0" stroke="none" paint-order="stroke fill markers" d=""/><text fill="#505050" stroke="none" font-family="monospace" font-size="14px" font-style="normal" font-weight="normal" text-decoration="normal" x="1062.503173828125" y="170.69998168945312" text-anchor="middle" dominant-baseline="text-after-edge">expStep</text><path fill="none" stroke="#505050" paint-order="fill stroke markers" d=" M 1026.003173828125 170.69998168945312 L 1034.003173828125 170.69998168945312 L 1034.003173828125 178.69998168945312 L 1026.003173828125 178.69998168945312 L 1026.003173828125 170.69998168945312 Z" stroke-miterlimit="10" stroke-width="0.5" stroke-dasharray="0"/><text fill="#505050" stroke="none" font-family="monospace" font-size="14px" font-style="normal" font-weight="normal" text-decoration="normal" x="1042.003173828125" y="184.69998168945312" text-anchor="start" dominant-baseline="text-after-edge">n</text><path fill="none" stroke="#505050" paint-order="fill stroke markers" d=" M 1026.003173828125 184.69998168945312 L 1034.003173828125 184.69998168945312 L 1034.003173828125 192.69998168945312 L 1026.003173828125 192.69998168945312 L 1026.003173828125 184.69998168945312 Z" stroke-miterlimit="10" stroke-width="0.5" stroke-dasharray="0"/><text fill="#505050" stroke="none" font-family="monospace" font-size="14px" font-style="normal" font-weight="normal" text-decoration="normal" x="1042.003173828125" y="198.69998168945312" text-anchor="start" dominant-baseline="text-after-edge">x</text><path fill="none" stroke="#505050" paint-order="fill stroke markers" d=" M 1026.003173828125 198.69998168945312 L 1034.003173828125 198.69998168945312 L 1034.003173828125 206.69998168945312 L 1026.003173828125 206.69998168945312 L 1026.003173828125 198.69998168945312 Z" stroke-miterlimit="10" stroke-width="0.5" stroke-dasharray="0"/><text fill="#505050" stroke="none" font-family="monospace" font-size="14px" font-style="normal" font-weight="normal" text-decoration="normal" x="1042.003173828125" y="212.69998168945312" text-anchor="start" dominant-baseline="text-after-edge">y</text><path fill="none" stroke="#505050" paint-order="fill stroke markers" d=" M 1026.003173828125 212.69998168945312 L 1050.003173828125 212.69998168945312 L 1050.003173828125 240.69998168945312 L 1026.003173828125 240.69998168945312 L 1026.003173828125 212.69998168945312 Z" stroke-miterlimit="10" stroke-width="0.5" stroke-dasharray="0"/><path fill="none" stroke="#505050" paint-order="fill stroke markers" d=" M 1026.003173828125 216.69998168945312 L 1034.003173828125 216.69998168945312 L 1034.003173828125 224.69998168945312 L 1026.003173828125 224.69998168945312 L 1026.003173828125 216.69998168945312 Z" stroke-miterlimit="10" stroke-width="0.5" stroke-dasharray="0"/><path fill="none" stroke="#505050" paint-order="fill stroke markers" d=" M 1026.003173828125 228.69998168945312 L 1034.003173828125 228.69998168945312 L 1034.003173828125 236.69998168945312 L 1026.003173828125 236.69998168945312 L 1026.003173828125 228.69998168945312 Z" stroke-miterlimit="10" stroke-width="0.5" stroke-dasharray="0"/><path fill="none" stroke="#505050" paint-order="fill stroke markers" d=" M 1042.003173828125 216.69998168945312 L 1050.003173828125 216.69998168945312 L 1050.003173828125 224.69998168945312 L 1042.003173828125 224.69998168945312 L 1042.003173828125 216.69998168945312 Z" stroke-miterlimit="10" stroke-width="0.5" stroke-dasharray="0"/><text fill="#505050" stroke="none" font-family="monospace" font-size="14px" font-style="normal" font-weight="normal" text-decoration="normal" x="1058.003173828125" y="235.69998168945312" text-anchor="start" dominant-baseline="text-after-edge">mul</text><path fill="none" stroke="#505050" paint-order="fill stroke markers" d=" M 1091.003173828125 170.69998168945312 L 1099.003173828125 170.69998168945312 L 1099.003173828125 178.69998168945312 L 1091.003173828125 178.69998168945312 L 1091.003173828125 170.69998168945312 Z" stroke-miterlimit="10" stroke-width="0.5" stroke-dasharray="0"/><path fill="#e0e0e0" stroke="none" paint-order="stroke fill markers" d=" M 931.8742430210114 85.59686279296875 L 923.8742430210114 39.59686279296875 L 923.8742430210114 131.59686279296875 Z M 1018.003173828125 198.69998168945312 L 1026.003173828125 152.69998168945312 L 1026.003173828125 244.69998168945312 Z"/><path fill="none" stroke="none"/><path fill="none" stroke="#e0e0e0" paint-order="fill stroke markers" d=" M 931.8742430210114 85.59686279296875 C 974.5233431328307 85.59686279296875 975.3540737163056 198.69998168945312 1018.003173828125 198.69998168945312" stroke-miterlimit="10" stroke-width="2" stroke-dasharray="0"/><path fill="white" stroke="#505050" paint-order="fill stroke markers" d=" M 1102.2000732421875 166.46560668945312 L 1110.2000732421875 166.46560668945312 L 1118.2000732421875 174.46560668945312 L 1110.2000732421875 182.46560668945312 L 1102.2000732421875 182.46560668945312 L 1102.2000732421875 166.46560668945312" stroke-miterlimit="10" stroke-width="0.5" stroke-dasharray="0"/><path fill="none" stroke="#505050" paint-order="fill stroke markers" d=" M 1102.2000732421875 170.46560668945312 L 1110.2000732421875 170.46560668945312 L 1110.2000732421875 178.46560668945312 L 1102.2000732421875 178.46560668945312 L 1102.2000732421875 170.46560668945312 Z" stroke-miterlimit="10" stroke-width="0.5" stroke-dasharray="0"/><path fill="white" stroke="#505050" paint-order="fill stroke markers" d=" M 950.7249755859375 194.90623474121094 L 982.7249755859375 194.90623474121094 L 982.7249755859375 212.90623474121094 L 950.7249755859375 212.90623474121094 L 950.7249755859375 194.90623474121094 Z" stroke-miterlimit="10" stroke-width="0.5" stroke-dasharray="0"/><path fill="#F0F0F0" stroke="none" paint-order="stroke fill markers" d=""/><path fill="none" stroke="#505050" paint-order="fill stroke markers" d=" M 974.7249755859375 198.90623474121094 L 982.7249755859375 198.90623474121094 L 982.7249755859375 206.90623474121094 L 974.7249755859375 206.90623474121094 L 974.7249755859375 198.90623474121094 Z" stroke-miterlimit="10" stroke-width="0.5" stroke-dasharray="0"/><text fill="#505050" stroke="none" font-family="monospace" font-size="14px" font-style="normal" font-weight="normal" text-decoration="normal" x="966.7249755859375" y="212.90623474121094" text-anchor="end" dominant-baseline="text-after-edge">1</text><path fill="white" stroke="#505050" paint-order="fill stroke markers" d=" M 946.8594360351562 149.03436279296875 L 978.8594360351562 149.03436279296875 L 978.8594360351562 167.03436279296875 L 946.8594360351562 167.03436279296875 L 954.8594360351562 158.03436279296875 L 946.8594360351562 149.03436279296875" stroke-miterlimit="10" stroke-width="0.5" stroke-dasharray="0"/><path fill="none" stroke="#505050" paint-order="fill stroke markers" d=" M 970.8594360351562 153.03436279296875 L 978.8594360351562 153.03436279296875 L 978.8594360351562 161.03436279296875 L 970.8594360351562 161.03436279296875 L 970.8594360351562 153.03436279296875 Z" stroke-miterlimit="10" stroke-width="0.5" stroke-dasharray="0"/><text fill="#505050" stroke="none" font-family="monospace" font-size="14px" font-style="normal" font-weight="normal" text-decoration="normal" x="962.8594360351562" y="167.03436279296875" text-anchor="end" dominant-baseline="text-after-edge">x</text><path fill="none" stroke="none"/><path fill="white" stroke="#505050" paint-order="fill stroke markers" d=" M 958.9406127929688 219.8281021118164 L 990.9406127929688 219.8281021118164 L 998.9406127929688 244.8281021118164 L 990.9406127929688 269.8281021118164 L 958.9406127929688 269.8281021118164 L 958.9406127929688 219.8281021118164" stroke-miterlimit="10" stroke-width="0.5" stroke-dasharray="0"/><path fill="none" stroke="#505050" paint-order="fill stroke markers" d=" M 966.9406127929688 223.8281021118164 L 990.9406127929688 223.8281021118164 L 990.9406127929688 265.8281021118164 L 966.9406127929688 265.8281021118164 L 966.9406127929688 223.8281021118164 Z" stroke-miterlimit="10" stroke-width="0.5" stroke-dasharray="0"/><text fill="#505050" stroke="none" font-family="monospace" font-size="14px" font-style="normal" font-weight="normal" text-decoration="normal" x="978.9406127929688" y="241.8281021118164" text-anchor="middle" dominant-baseline="text-after-edge">*</text><path fill="none" stroke="#505050" paint-order="fill stroke markers" d=" M 966.9406127929688 241.8281021118164 L 974.9406127929688 241.8281021118164 L 974.9406127929688 249.8281021118164 L 966.9406127929688 249.8281021118164 L 966.9406127929688 241.8281021118164 Z" stroke-miterlimit="10" stroke-width="0.5" stroke-dasharray="0"/><path fill="none" stroke="#505050" paint-order="fill stroke markers" d=" M 966.9406127929688 253.8281021118164 L 974.9406127929688 253.8281021118164 L 974.9406127929688 261.8281021118164 L 966.9406127929688 261.8281021118164 L 966.9406127929688 253.8281021118164 Z" stroke-miterlimit="10" stroke-width="0.5" stroke-dasharray="0"/><path fill="none" stroke="#505050" paint-order="fill stroke markers" d=" M 982.9406127929688 241.8281021118164 L 990.9406127929688 241.8281021118164 L 990.9406127929688 249.8281021118164 L 982.9406127929688 249.8281021118164 L 982.9406127929688 241.8281021118164 Z" stroke-miterlimit="10" stroke-width="0.5" stroke-dasharray="0"/><path fill="none" stroke="#505050" paint-order="fill stroke markers" d=" M 966.9406127929688 223.8281021118164 L 990.9406127929688 223.8281021118164 L 990.9406127929688 265.8281021118164 L 966.9406127929688 265.8281021118164 L 966.9406127929688 223.8281021118164 Z" stroke-miterlimit="10" stroke-width="0.5" stroke-dasharray="0"/><path fill="#F0F0F0" stroke="none" paint-order="stroke fill markers" d=""/><text fill="#505050" stroke="none" font-family="monospace" font-size="14px" font-style="normal" font-weight="normal" text-decoration="normal" x="978.9406127929688" y="241.8281021118164" text-anchor="middle" dominant-baseline="text-after-edge">*</text><path fill="none" stroke="#505050" paint-order="fill stroke markers" d=" M 966.9406127929688 241.8281021118164 L 974.9406127929688 241.8281021118164 L 974.9406127929688 249.8281021118164 L 966.9406127929688 249.8281021118164 L 966.9406127929688 241.8281021118164 Z" stroke-miterlimit="10" stroke-width="0.5" stroke-dasharray="0"/><path fill="none" stroke="#505050" paint-order="fill stroke markers" d=" M 966.9406127929688 253.8281021118164 L 974.9406127929688 253.8281021118164 L 974.9406127929688 261.8281021118164 L 966.9406127929688 261.8281021118164 L 966.9406127929688 253.8281021118164 Z" stroke-miterlimit="10" stroke-width="0.5" stroke-dasharray="0"/><path fill="none" stroke="#505050" paint-order="fill stroke markers" d=" M 982.9406127929688 241.8281021118164 L 990.9406127929688 241.8281021118164 L 990.9406127929688 249.8281021118164 L 982.9406127929688 249.8281021118164 L 982.9406127929688 241.8281021118164 Z" stroke-miterlimit="10" stroke-width="0.5" stroke-dasharray="0"/><path fill="none" stroke="#505050" paint-order="fill stroke markers" d=" M 595.1719909608364 264.2344055175781 C 617.5060007187666 264.2344055175781 637.6348453846632 300.8906111717224 659.9688551425934 300.8906111717224" stroke-miterlimit="10" stroke-dasharray="0"/><path fill="none" stroke="#505050" paint-order="fill stroke markers" d=" M 594.2969604432583 238.79376220703125 C 619.0764738094091 238.79376220703125 635.1893417764426 288.8906111717224 659.9688551425934 288.8906111717224" stroke-miterlimit="10" stroke-dasharray="0"/><path fill="none" stroke="#505050" paint-order="fill stroke markers" d=" M 594.2969604432583 238.79376220703125 C 609.944841559323 238.79376220703125 626.7959337278284 218.73124313354492 642.443814843893 218.73124313354492" stroke-miterlimit="10" stroke-dasharray="0"/><path fill="none" stroke="#505050" paint-order="fill stroke markers" d=" M 594.2969604432583 238.79376220703125 C 611.6506696900224 238.79376220703125 625.090105597129 206.73124313354492 642.443814843893 206.73124313354492" stroke-miterlimit="10" stroke-dasharray="0"/><path fill="none" stroke="#505050" paint-order="fill stroke markers" d=" M 589.0219837129116 175.0124969482422 C 603.6154131432485 175.0124969482422 604.8878953317691 137.0843849182129 619.4813247621059 137.0843849182129" stroke-miterlimit="10" stroke-dasharray="0"/><path fill="none" stroke="#505050" paint-order="fill stroke markers" d=" M 588.7844844758511 61.63438415527344 C 609.930119345344 61.63438415527344 598.335689892613 125.08438491821289 619.4813247621059 125.08438491821289" stroke-miterlimit="10" stroke-dasharray="0"/><path fill="none" stroke="#505050" paint-order="fill stroke markers" d=" M 643.4813247621059 125.08438491821289 C 665.6429373068141 125.08438491821289 689.3040611403657 153.9843306541443 711.4656736850739 153.9843306541443" stroke-miterlimit="10" stroke-dasharray="0"/><path fill="none" stroke="#505050" paint-order="fill stroke markers" d=" M 784.4656736850739 153.9843306541443 C 792.9850979541575 153.9843306541443 804.2288116718496 156.54317235946655 812.7482359409332 156.54317235946655" stroke-miterlimit="10" stroke-dasharray="0"/><path fill="none" stroke="#505050" paint-order="fill stroke markers" d=" M 815.2563230991364 257.8687605857849 C 842.0645608104329 257.8687605857849 785.9399982296367 168.54317235946655 812.7482359409332 168.54317235946655" stroke-miterlimit="10" stroke-dasharray="0"/><path fill="none" stroke="#505050" paint-order="fill stroke markers" d=" M 643.4813247621059 125.08438491821289 C 693.1294583082087 125.08438491821289 692.6081895530336 257.8687605857849 742.2563230991364 257.8687605857849" stroke-miterlimit="10" stroke-dasharray="0"/><path fill="none" stroke="#505050" paint-order="fill stroke markers" d=" M 595.1719909608364 264.2344055175781 C 671.4699614078338 264.2344055175781 736.4502654939358 132.54317235946655 812.7482359409332 132.54317235946655" stroke-miterlimit="10" stroke-dasharray="0"/><path fill="none" stroke="#505050" paint-order="fill stroke markers" d=" M 836.7482359409332 120.54317235946655 C 845.8490431344691 120.54317235946655 843.810911413413 146.21448278427124 852.9117186069489 146.21448278427124" stroke-miterlimit="10" stroke-dasharray="0"/><path fill="none" stroke="#505050" paint-order="fill stroke markers" d=" M 588.7844844758511 61.63438415527344 C 617.703607205763 61.63438415527344 655.3809854644393 74.64060735702515 684.3001081943512 74.64060735702515" stroke-miterlimit="10" stroke-dasharray="0"/><path fill="none" stroke="#505050" paint-order="fill stroke markers" d=" M 726.3001081943512 74.64060735702515 C 755.6638474627473 74.64060735702515 783.3844966725371 120.54317235946655 812.7482359409332 120.54317235946655" stroke-miterlimit="10" stroke-dasharray="0"/><path fill="none" stroke="#505050" paint-order="fill stroke markers" d=" M 588.7844844758511 61.63438415527344 C 621.4258429474962 61.63438415527344 651.5586215488779 113.92500066757202 684.1999800205231 113.92500066757202" stroke-miterlimit="10" stroke-dasharray="0"/><path fill="none" stroke="#505050" paint-order="fill stroke markers" d=" M 726.1999800205231 113.92500066757202 C 753.7413411643686 113.92500066757202 785.2068747970877 144.54317235946655 812.7482359409332 144.54317235946655" stroke-miterlimit="10" stroke-dasharray="0"/><path fill="none" stroke="#505050" paint-order="fill stroke markers" d=" M 675.443814843893 206.73124313354492 C 691.3151972252556 206.73124313354492 695.5942913037113 167.9843306541443 711.4656736850739 167.9843306541443" stroke-miterlimit="10" stroke-dasharray="0"/><path fill="none" stroke="#505050" paint-order="fill stroke markers" d=" M 675.443814843893 206.73124313354492 C 703.436897373829 206.73124313354492 714.2632405692004 271.8687605857849 742.2563230991364 271.8687605857849" stroke-miterlimit="10" stroke-dasharray="0"/><path fill="none" stroke="#505050" paint-order="fill stroke markers" d=" M 692.9688551425934 288.8906111717224 C 725.5172446561575 288.8906111717224 678.9172841715098 181.9843306541443 711.4656736850739 181.9843306541443" stroke-miterlimit="10" stroke-dasharray="0"/><path fill="none" stroke="#505050" paint-order="fill stroke markers" d=" M 692.9688551425934 288.8906111717224 C 707.7828602414108 288.8906111717224 727.4423180003189 285.8687605857849 742.2563230991364 285.8687605857849" stroke-miterlimit="10" stroke-dasharray="0"/><path fill="none" stroke="#505050" paint-order="fill stroke markers" d=" M 609.4687728881836 329.1687698364258 C 649.7236129242476 329.1687698364258 702.0014830630723 309.8687605857849 742.2563230991364 309.8687605857849" stroke-miterlimit="10" stroke-dasharray="0"/><path fill="none" stroke="#505050" paint-order="fill stroke markers" d=" M 609.4687728881836 329.1687698364258 C 657.4479313280119 329.1687698364258 663.4865152452455 205.9843306541443 711.4656736850739 205.9843306541443" stroke-miterlimit="10" stroke-dasharray="0"/><path fill="none" stroke="#505050" paint-order="fill stroke markers" d=" M 372.7874891757965 150.0531783103943 C 375.9100582273191 150.0531783103943 380.00552681372704 151.2406325340271 383.12809586524963 151.2406325340271" stroke-miterlimit="10" stroke-dasharray="0"/><path fill="none" stroke="#505050" paint-order="fill stroke markers" d=" M 338.98129296302795 169.69692754745483 C 342.7113003076071 169.69692754745483 345.0574818312174 162.0531783103943 348.7874891757965 162.0531783103943" stroke-miterlimit="10" stroke-dasharray="0"/><path fill="none" stroke="#505050" paint-order="fill stroke markers" d=" M 326.7437880039215 144.01251363754272 C 333.60070386996716 144.01251363754272 341.93057330975086 150.0531783103943 348.7874891757965 150.0531783103943" stroke-miterlimit="10" stroke-dasharray="0"/><path fill="none" stroke="#505050" paint-order="fill stroke markers" d=" M 389.83437943458557 63.36876440048218 C 393.3688981774697 63.36876440048218 398.08111069170144 63.26250982284546 401.61562943458557 63.26250982284546" stroke-miterlimit="10" stroke-dasharray="0"/><path fill="none" stroke="#505050" paint-order="fill stroke markers" d=" M 348.83437943458557 75.36876440048218 C 353.6343794345856 75.36876440048218 360.03437943458556 75.36876440048218 364.83437943458557 75.36876440048218" stroke-miterlimit="10" stroke-dasharray="0"/><path fill="none" stroke="#505050" paint-order="fill stroke markers" d=" M 342.16874527931213 48.11876440048218 C 350.3642570052181 48.11876440048218 356.6388677086796 63.36876440048218 364.83437943458557 63.36876440048218" stroke-miterlimit="10" stroke-dasharray="0"/><path fill="none" stroke="#505050" paint-order="fill stroke markers" d=" M 318.0593719482422 256.73435974121094 C 338.53290618156376 256.73435974121094 356.87647187019405 290.52809143066406 377.3500061035156 290.52809143066406" stroke-miterlimit="10" stroke-dasharray="0"/><path fill="none" stroke="#505050" paint-order="fill stroke markers" d=" M 318.3375015258789 234.81561279296875 C 340.3691397687761 234.81561279296875 355.3183678606184 278.52809143066406 377.3500061035156 278.52809143066406" stroke-miterlimit="10" stroke-dasharray="0"/><path fill="none" stroke="#505050" paint-order="fill stroke markers" d=" M 319 350.828125 C 325.9672817738914 350.828125 328.12335543313986 334.08123779296875 335.09063720703125 334.08123779296875" stroke-miterlimit="10" stroke-dasharray="0"/><path fill="none" stroke="#505050" paint-order="fill stroke markers" d=" M 319.5531311035156 290.3874816894531 C 327.0786364874974 290.3874816894531 327.56513182304946 310.08123779296875 335.09063720703125 310.08123779296875" stroke-miterlimit="10" stroke-dasharray="0"/><path fill="none" stroke="#505050" paint-order="fill stroke markers" d=" M 359.09063720703125 310.08123779296875 C 365.01861422471165 310.08123779296875 371.4220290858352 302.52809143066406 377.3500061035156 302.52809143066406" stroke-miterlimit="10" stroke-dasharray="0"/><path fill="none" stroke="#505050" paint-order="fill stroke markers" d=" M 316.6656265258789 316.08123779296875 C 322.47882630517876 316.08123779296875 329.2774374277314 322.08123779296875 335.09063720703125 322.08123779296875" stroke-miterlimit="10" stroke-dasharray="0"/><path fill="none" stroke="#505050" paint-order="fill stroke markers" d=" M 401.3500061035156 278.52809143066406 C 404.65305982178444 278.52809143066406 409.0547343676687 278.75782775878906 412.3577880859375 278.75782775878906" stroke-miterlimit="10" stroke-dasharray="0"/><path fill="none" stroke="#505050" paint-order="fill stroke markers" d=" M 1099.003173828125 174.69998168945312 C 1099.9648176163248 174.69998168945312 1101.2384294539877 174.46560668945312 1102.2000732421875 174.46560668945312" stroke-miterlimit="10" stroke-dasharray="0"/><path fill="none" stroke="#505050" paint-order="fill stroke markers" d=" M 982.7249755859375 202.90623474121094 C 995.7085825003134 202.90623474121094 1013.0195669137491 202.69998168945312 1026.003173828125 202.69998168945312" stroke-miterlimit="10" stroke-dasharray="0"/><path fill="none" stroke="#505050" paint-order="fill stroke markers" d=" M 978.8594360351562 157.03436279296875 C 995.8968040533409 157.03436279296875 1008.9658058099403 188.69998168945312 1026.003173828125 188.69998168945312" stroke-miterlimit="10" stroke-dasharray="0"/><path fill="none" stroke="#505050" paint-order="fill stroke markers" d=" M 981.9906616210938 179.24061584472656 C 995.2644957709372 179.24061584472656 1012.7293396782816 174.69998168945312 1026.003173828125 174.69998168945312" stroke-miterlimit="10" stroke-dasharray="0"/><path fill="none" stroke="#505050" paint-order="fill stroke markers" d=" M 990.9406127929688 244.8281021118164 C 1002.7821107672648 244.8281021118164 1014.1616758538289 226.69998168945312 1026.003173828125 226.69998168945312" stroke-miterlimit="10" stroke-dasharray="0"/></g></g></svg>