<svg version="1.1" xmlns="http://www.w3.org/2000/svg" xmlns:xlink="http://www.w3.org/1999/xlink" width="859.8157670497894" height="370.73126220703125"><defs/><g transform="translate(-307.83437943458557,-30.59686279296875)"><g><path fill="white" stroke="#505050" paint-order="fill stroke markers" d=" M 541.984399408102 39.59686279296875 L 541.984399408102 315.34999227523804 Q 541.984399408102 323.34999227523804 549.984399408102 323.34999227523804 L 915.8742430210114 323.34999227523804 Q 923.8742430210114 323.34999227523804 923.8742430210114 315.34999227523804 L 923.8742430210114 39.59686279296875 Q 923.8742430210114 31.59686279296875 915.8742430210114 31.59686279296875 L 549.984399408102 31.59686279296875 Q 541.984399408102 31.59686279296875 541.984399408102 39.59686279296875" stroke-miterlimit="10" stroke-width="0.5" stroke-dasharray=""/><path fill="#F0F0F0" stroke="#505050" paint-order="fill stroke markers" d=" M 883.8742430210114 39.59686279296875 L 923.8742430210114 39.59686279296875 L 923.8742430210114 85.59686279296875 L 883.8742430210114 85.59686279296875 L 883.8742430210114 39.59686279296875 Z" stroke-miterlimit="10" stroke-width="0.5" stroke-dasharray=""/><path fill="none" stroke="#505050" paint-order="fill stroke markers" d=" M 883.8742430210114 44.59686279296875 L 891.8742430210114 44.59686279296875 L 891.8742430210114 52.59686279296875 L 883.8742430210114 52.59686279296875 L 883.8742430210114 44.59686279296875 Z" stroke-miterlimit="10" stroke-width="0.5" stroke-dasharray=""/><text fill="#505050" stroke="none" font-family="monospace" font-size="14px" font-style="normal" font-weight="normal" text-decoration="normal" x="899.8742430210114" y="57.59686279296875" text-anchor="start" dominant-baseline="alphabetic">n</text><path fill="none" stroke="#505050" paint-order="fill stroke markers" d=" M 883.8742430210114 58.59686279296875 L 891.8742430210114 58.59686279296875 L 891.8742430210114 66.59686279296875 L 883.8742430210114 66.59686279296875 L 883.8742430210114 58.59686279296875 Z" stroke-miterlimit="10" stroke-width="0.5" stroke-dasharray=""/><text fill="#505050" stroke="none" font-family="monospace" font-size="14px" font-style="normal" font-weight="normal" text-decoration="normal" x="899.8742430210114" y="71.59686279296875" text-anchor="start" dominant-baseline="alphabetic">x</text><path fill="none" stroke="#505050" paint-order="fill stroke markers" d=" M 883.8742430210114 72.59686279296875 L 891.8742430210114 72.59686279296875 L 891.8742430210114 80.59686279296875 L 883.8742430210114 80.59686279296875 L 883.8742430210114 72.59686279296875 Z" stroke-miterlimit="10" stroke-width="0.5" stroke-dasharray=""/><text fill="#505050" stroke="none" font-family="monospace" font-size="14px" font-style="normal" font-weight="normal" text-decoration="normal" x="899.8742430210114" y="85.59686279296875" text-anchor="start" dominant-baseline="alphabetic">y</text><path fill="none" stroke="#505050" paint-order="fill stroke markers" d=" M 915.8742430210114 43.59686279296875 L 923.8742430210114 43.59686279296875 L 923.8742430210114 51.59686279296875 L 915.8742430210114 51.59686279296875 L 915.8742430210114 43.59686279296875 Z" stroke-miterlimit="10" stroke-width="0.5" stroke-dasharray=""/><path fill="white" stroke="#505050" paint-order="fill stroke markers" d=" M 627.5844741761684 118.38750839233398 L 651.5844741761684 118.38750839233398 L 651.5844741761684 160.38750839233398 L 627.5844741761684 160.38750839233398 L 627.5844741761684 118.38750839233398 Z" stroke-miterlimit="10" stroke-width="0.5" stroke-dasharray=""/><path fill="#F0F0F0" stroke="none" paint-order="stroke fill markers" d=""/><text fill="#505050" stroke="none" font-family="monospace" font-size="14px" font-style="normal" font-weight="normal" text-decoration="normal" x="639.5844741761684" y="136.38750839233398" text-anchor="middle" dominant-baseline="text-after-edge">/</text><path fill="none" stroke="#505050" paint-order="fill stroke markers" d=" M 627.5844741761684 136.38750839233398 L 635.5844741761684 136.38750839233398 L 635.5844741761684 144.38750839233398 L 627.5844741761684 144.38750839233398 L 627.5844741761684 136.38750839233398 Z" stroke-miterlimit="10" stroke-width="0.5" stroke-dasharray=""/><path fill="none" stroke="#505050" paint-order="fill stroke markers" d=" M 627.5844741761684 148.38750839233398 L 635.5844741761684 148.38750839233398 L 635.5844741761684 156.38750839233398 L 627.5844741761684 156.38750839233398 L 627.5844741761684 148.38750839233398 Z" stroke-miterlimit="10" stroke-width="0.5" stroke-dasharray=""/><path fill="none" stroke="#505050" paint-order="fill stroke markers" d=" M 643.5844741761684 136.38750839233398 L 651.5844741761684 136.38750839233398 L 651.5844741761684 144.38750839233398 L 643.5844741761684 144.38750839233398 L 643.5844741761684 136.38750839233398 Z" stroke-miterlimit="10" stroke-width="0.5" stroke-dasharray=""/><path fill="white" stroke="#505050" paint-order="fill stroke markers" d=" M 578.6938587129116 175.73748779296875 L 610.6938587129116 175.73748779296875 L 610.6938587129116 193.73748779296875 L 578.6938587129116 193.73748779296875 L 578.6938587129116 175.73748779296875 Z" stroke-miterlimit="10" stroke-width="0.5" stroke-dasharray=""/><path fill="#F0F0F0" stroke="none" paint-order="stroke fill markers" d=""/><path fill="none" stroke="#505050" paint-order="fill stroke markers" d=" M 602.6938587129116 180.73748779296875 L 610.6938587129116 180.73748779296875 L 610.6938587129116 188.73748779296875 L 602.6938587129116 188.73748779296875 L 602.6938587129116 180.73748779296875 Z" stroke-miterlimit="10" stroke-width="0.5" stroke-dasharray=""/><text fill="#505050" stroke="none" font-family="monospace" font-size="14px" font-style="normal" font-weight="normal" text-decoration="normal" x="594.6938587129116" y="193.73748779296875" text-anchor="end" dominant-baseline="text-after-edge">2</text><path fill="white" stroke="#505050" paint-order="fill stroke markers" d=" M 588.2563472688198 65.18438720703125 L 620.2563472688198 65.18438720703125 L 620.2563472688198 83.18438720703125 L 588.2563472688198 83.18438720703125 L 596.2563472688198 74.18438720703125 L 588.2563472688198 65.18438720703125" stroke-miterlimit="10" stroke-width="0.5" stroke-dasharray=""/><path fill="none" stroke="#505050" paint-order="fill stroke markers" d=" M 612.2563472688198 70.18438720703125 L 620.2563472688198 70.18438720703125 L 620.2563472688198 78.18438720703125 L 612.2563472688198 78.18438720703125 L 612.2563472688198 70.18438720703125 Z" stroke-miterlimit="10" stroke-width="0.5" stroke-dasharray=""/><text fill="#505050" stroke="none" font-family="monospace" font-size="14px" font-style="normal" font-weight="normal" text-decoration="normal" x="604.2563472688198" y="83.18438720703125" text-anchor="end" dominant-baseline="text-after-edge">n</text><path fill="white" stroke="#505050" paint-order="fill stroke markers" d=" M 641.1969276368618 189.84687423706055 L 665.1969276368618 189.84687423706055 L 665.1969276368618 231.84687423706055 L 641.1969276368618 231.84687423706055 L 641.1969276368618 189.84687423706055 Z" stroke-miterlimit="10" stroke-width="0.5" stroke-dasharray=""/><path fill="#F0F0F0" stroke="none" paint-order="stroke fill markers" d=""/><text fill="#505050" stroke="none" font-family="monospace" font-size="14px" font-style="normal" font-weight="normal" text-decoration="normal" x="653.1969276368618" y="207.84687423706055" text-anchor="middle" dominant-baseline="text-after-edge">*</text><path fill="none" stroke="#505050" paint-order="fill stroke markers" d=" M 641.1969276368618 207.84687423706055 L 649.1969276368618 207.84687423706055 L 649.1969276368618 215.84687423706055 L 641.1969276368618 215.84687423706055 L 641.1969276368618 207.84687423706055 Z" stroke-miterlimit="10" stroke-width="0.5" stroke-dasharray=""/><path fill="none" stroke="#505050" paint-order="fill stroke markers" d=" M 641.1969276368618 219.84687423706055 L 649.1969276368618 219.84687423706055 L 649.1969276368618 227.84687423706055 L 641.1969276368618 227.84687423706055 L 641.1969276368618 219.84687423706055 Z" stroke-miterlimit="10" stroke-width="0.5" stroke-dasharray=""/><path fill="none" stroke="#505050" paint-order="fill stroke markers" d=" M 657.1969276368618 207.84687423706055 L 665.1969276368618 207.84687423706055 L 665.1969276368618 215.84687423706055 L 657.1969276368618 215.84687423706055 L 657.1969276368618 207.84687423706055 Z" stroke-miterlimit="10" stroke-width="0.5" stroke-dasharray=""/><path fill="white" stroke="#505050" paint-order="fill stroke markers" d=" M 562.2969604432583 230.79376220703125 L 594.2969604432583 230.79376220703125 L 594.2969604432583 248.79376220703125 L 562.2969604432583 248.79376220703125 L 570.2969604432583 239.79376220703125 L 562.2969604432583 230.79376220703125" stroke-miterlimit="10" stroke-width="0.5" stroke-dasharray=""/><path fill="none" stroke="#505050" paint-order="fill stroke markers" d=" M 586.2969604432583 235.79376220703125 L 594.2969604432583 235.79376220703125 L 594.2969604432583 243.79376220703125 L 586.2969604432583 243.79376220703125 L 586.2969604432583 235.79376220703125 Z" stroke-miterlimit="10" stroke-width="0.5" stroke-dasharray=""/><text fill="#505050" stroke="none" font-family="monospace" font-size="14px" font-style="normal" font-weight="normal" text-decoration="normal" x="578.2969604432583" y="248.79376220703125" text-anchor="end" dominant-baseline="text-after-edge">x</text><path fill="white" stroke="#505050" paint-order="fill stroke markers" d=" M 654.5563795566559 265.34999227523804 L 678.5563795566559 265.34999227523804 L 678.5563795566559 307.34999227523804 L 654.5563795566559 307.34999227523804 L 654.5563795566559 265.34999227523804 Z" stroke-miterlimit="10" stroke-width="0.5" stroke-dasharray=""/><path fill="#F0F0F0" stroke="none" paint-order="stroke fill markers" d=""/><text fill="#505050" stroke="none" font-family="monospace" font-size="14px" font-style="normal" font-weight="normal" text-decoration="normal" x="666.5563795566559" y="283.34999227523804" text-anchor="middle" dominant-baseline="text-after-edge">*</text><path fill="none" stroke="#505050" paint-order="fill stroke markers" d=" M 654.5563795566559 283.34999227523804 L 662.5563795566559 283.34999227523804 L 662.5563795566559 291.34999227523804 L 654.5563795566559 291.34999227523804 L 654.5563795566559 283.34999227523804 Z" stroke-miterlimit="10" stroke-width="0.5" stroke-dasharray=""/><path fill="none" stroke="#505050" paint-order="fill stroke markers" d=" M 654.5563795566559 295.34999227523804 L 662.5563795566559 295.34999227523804 L 662.5563795566559 303.34999227523804 L 654.5563795566559 303.34999227523804 L 654.5563795566559 295.34999227523804 Z" stroke-miterlimit="10" stroke-width="0.5" stroke-dasharray=""/><path fill="none" stroke="#505050" paint-order="fill stroke markers" d=" M 670.5563795566559 283.34999227523804 L 678.5563795566559 283.34999227523804 L 678.5563795566559 291.34999227523804 L 670.5563795566559 291.34999227523804 L 670.5563795566559 283.34999227523804 Z" stroke-miterlimit="10" stroke-width="0.5" stroke-dasharray=""/><path fill="white" stroke="#505050" paint-order="fill stroke markers" d=" M 572.8125549256802 277.3187561035156 L 604.8125549256802 277.3187561035156 L 604.8125549256802 295.3187561035156 L 572.8125549256802 295.3187561035156 L 580.8125549256802 286.3187561035156 L 572.8125549256802 277.3187561035156" stroke-miterlimit="10" stroke-width="0.5" stroke-dasharray=""/><path fill="none" stroke="#505050" paint-order="fill stroke markers" d=" M 596.8125549256802 282.3187561035156 L 604.8125549256802 282.3187561035156 L 604.8125549256802 290.3187561035156 L 596.8125549256802 290.3187561035156 L 596.8125549256802 282.3187561035156 Z" stroke-miterlimit="10" stroke-width="0.5" stroke-dasharray=""/><text fill="#505050" stroke="none" font-family="monospace" font-size="14px" font-style="normal" font-weight="normal" text-decoration="normal" x="588.8125549256802" y="295.3187561035156" text-anchor="end" dominant-baseline="text-after-edge">y</text><path fill="white" stroke="#505050" paint-order="fill stroke markers" d=" M 883.8742430210114 124.55197668075562 L 891.8742430210114 124.55197668075562 L 899.8742430210114 132.55197668075562 L 891.8742430210114 140.55197668075562 L 883.8742430210114 140.55197668075562 L 883.8742430210114 124.55197668075562" stroke-miterlimit="10" stroke-width="0.5" stroke-dasharray=""/><path fill="none" stroke="#505050" paint-order="fill stroke markers" d=" M 883.8742430210114 128.55197668075562 L 891.8742430210114 128.55197668075562 L 891.8742430210114 136.55197668075562 L 883.8742430210114 136.55197668075562 L 883.8742430210114 128.55197668075562 Z" stroke-miterlimit="10" stroke-width="0.5" stroke-dasharray=""/><path fill="white" stroke="#505050" paint-order="fill stroke markers" d=" M 711.4656736850739 131.9843306541443 L 751.4656736850739 131.9843306541443 L 751.4656736850739 177.9843306541443 L 711.4656736850739 177.9843306541443 L 711.4656736850739 131.9843306541443 Z" stroke-miterlimit="10" stroke-width="0.5" stroke-dasharray=""/><path fill="#F0F0F0" stroke="none" paint-order="stroke fill markers" d=""/><path fill="none" stroke="#505050" paint-order="fill stroke markers" d=" M 711.4656736850739 136.9843306541443 L 719.4656736850739 136.9843306541443 L 719.4656736850739 144.9843306541443 L 711.4656736850739 144.9843306541443 L 711.4656736850739 136.9843306541443 Z" stroke-miterlimit="10" stroke-width="0.5" stroke-dasharray=""/><text fill="#505050" stroke="none" font-family="monospace" font-size="14px" font-style="normal" font-weight="normal" text-decoration="normal" x="727.4656736850739" y="149.9843306541443" text-anchor="start" dominant-baseline="text-after-edge">n</text><path fill="none" stroke="#505050" paint-order="fill stroke markers" d=" M 711.4656736850739 150.9843306541443 L 719.4656736850739 150.9843306541443 L 719.4656736850739 158.9843306541443 L 711.4656736850739 158.9843306541443 L 711.4656736850739 150.9843306541443 Z" stroke-miterlimit="10" stroke-width="0.5" stroke-dasharray=""/><text fill="#505050" stroke="none" font-family="monospace" font-size="14px" font-style="normal" font-weight="normal" text-decoration="normal" x="727.4656736850739" y="163.9843306541443" text-anchor="start" dominant-baseline="text-after-edge">x</text><path fill="none" stroke="#505050" paint-order="fill stroke markers" d=" M 711.4656736850739 164.9843306541443 L 719.4656736850739 164.9843306541443 L 719.4656736850739 172.9843306541443 L 711.4656736850739 172.9843306541443 L 711.4656736850739 164.9843306541443 Z" stroke-miterlimit="10" stroke-width="0.5" stroke-dasharray=""/><text fill="#505050" stroke="none" font-family="monospace" font-size="14px" font-style="normal" font-weight="normal" text-decoration="normal" x="727.4656736850739" y="177.9843306541443" text-anchor="start" dominant-baseline="text-after-edge">y</text><path fill="none" stroke="#505050" paint-order="fill stroke markers" d=" M 743.4656736850739 135.9843306541443 L 751.4656736850739 135.9843306541443 L 751.4656736850739 143.9843306541443 L 743.4656736850739 143.9843306541443 L 743.4656736850739 135.9843306541443 Z" stroke-miterlimit="10" stroke-width="0.5" stroke-dasharray=""/><path fill="#e0e0e0" stroke="none" paint-order="stroke fill markers" d=" M 931.8742430210114 62.59686279296875 L 923.8742430210114 39.59686279296875 L 923.8742430210114 85.59686279296875 Z M 703.4656736850739 154.9843306541443 L 711.4656736850739 131.9843306541443 L 711.4656736850739 177.9843306541443 Z"/><path fill="none" stroke="none"/><path fill="none" stroke="#e0e0e0" paint-order="fill stroke markers" d=" M 931.8742430210114 62.59686279296875 C 1005.7899564299345 62.59686279296875 629.5499602761507 154.9843306541443 703.4656736850739 154.9843306541443" stroke-miterlimit="10" stroke-width="2" stroke-dasharray=""/><path fill="white" stroke="#505050" paint-order="fill stroke markers" d=" M 728.6844847202301 211.8781294822693 L 768.6844847202301 211.8781294822693 L 768.6844847202301 257.8781294822693 L 728.6844847202301 257.8781294822693 L 728.6844847202301 211.8781294822693 Z" stroke-miterlimit="10" stroke-width="0.5" stroke-dasharray=""/><path fill="#F0F0F0" stroke="none" paint-order="stroke fill markers" d=""/><path fill="none" stroke="#505050" paint-order="fill stroke markers" d=" M 728.6844847202301 216.8781294822693 L 736.6844847202301 216.8781294822693 L 736.6844847202301 224.8781294822693 L 728.6844847202301 224.8781294822693 L 728.6844847202301 216.8781294822693 Z" stroke-miterlimit="10" stroke-width="0.5" stroke-dasharray=""/><text fill="#505050" stroke="none" font-family="monospace" font-size="14px" font-style="normal" font-weight="normal" text-decoration="normal" x="744.6844847202301" y="229.8781294822693" text-anchor="start" dominant-baseline="text-after-edge">n</text><path fill="none" stroke="#505050" paint-order="fill stroke markers" d=" M 728.6844847202301 230.8781294822693 L 736.6844847202301 230.8781294822693 L 736.6844847202301 238.8781294822693 L 728.6844847202301 238.8781294822693 L 728.6844847202301 230.8781294822693 Z" stroke-miterlimit="10" stroke-width="0.5" stroke-dasharray=""/><text fill="#505050" stroke="none" font-family="monospace" font-size="14px" font-style="normal" font-weight="normal" text-decoration="normal" x="744.6844847202301" y="243.8781294822693" text-anchor="start" dominant-baseline="text-after-edge">x</text><path fill="none" stroke="#505050" paint-order="fill stroke markers" d=" M 728.6844847202301 244.8781294822693 L 736.6844847202301 244.8781294822693 L 736.6844847202301 252.8781294822693 L 728.6844847202301 252.8781294822693 L 728.6844847202301 244.8781294822693 Z" stroke-miterlimit="10" stroke-width="0.5" stroke-dasharray=""/><text fill="#505050" stroke="none" font-family="monospace" font-size="14px" font-style="normal" font-weight="normal" text-decoration="normal" x="744.6844847202301" y="257.8781294822693" text-anchor="start" dominant-baseline="text-after-edge">y</text><path fill="none" stroke="#505050" paint-order="fill stroke markers" d=" M 760.6844847202301 215.8781294822693 L 768.6844847202301 215.8781294822693 L 768.6844847202301 223.8781294822693 L 760.6844847202301 223.8781294822693 L 760.6844847202301 215.8781294822693 Z" stroke-miterlimit="10" stroke-width="0.5" stroke-dasharray=""/><path fill="#e0e0e0" stroke="none" paint-order="stroke fill markers" d=" M 931.8742430210114 62.59686279296875 L 923.8742430210114 39.59686279296875 L 923.8742430210114 85.59686279296875 Z M 720.6844847202301 234.8781294822693 L 728.6844847202301 211.8781294822693 L 728.6844847202301 257.8781294822693 Z"/><path fill="none" stroke="none"/><path fill="none" stroke="#e0e0e0" paint-order="fill stroke markers" d=" M 931.8742430210114 62.59686279296875 C 1013.6383879605207 62.59686279296875 638.9203397807207 234.8781294822693 720.6844847202301 234.8781294822693" stroke-miterlimit="10" stroke-width="2" stroke-dasharray=""/><path fill="white" stroke="#505050" paint-order="fill stroke markers" d=" M 684.3001081943512 52.64060735702515 L 726.3001081943512 52.64060735702515 L 726.3001081943512 82.64060735702515 L 684.3001081943512 82.64060735702515 L 684.3001081943512 52.64060735702515 Z" stroke-miterlimit="10" stroke-width="0.5" stroke-dasharray=""/><path fill="#F0F0F0" stroke="none" paint-order="stroke fill markers" d=""/><text fill="#505050" stroke="none" font-family="monospace" font-size="14px" font-style="normal" font-weight="normal" text-decoration="normal" x="705.3001081943512" y="70.64060735702515" text-anchor="middle" dominant-baseline="text-after-edge">== 0</text><path fill="none" stroke="#505050" paint-order="fill stroke markers" d=" M 684.3001081943512 70.64060735702515 L 692.3001081943512 70.64060735702515 L 692.3001081943512 78.64060735702515 L 684.3001081943512 78.64060735702515 L 684.3001081943512 70.64060735702515 Z" stroke-miterlimit="10" stroke-width="0.5" stroke-dasharray=""/><path fill="none" stroke="#505050" paint-order="fill stroke markers" d=" M 718.3001081943512 70.64060735702515 L 726.3001081943512 70.64060735702515 L 726.3001081943512 78.64060735702515 L 718.3001081943512 78.64060735702515 L 718.3001081943512 70.64060735702515 Z" stroke-miterlimit="10" stroke-width="0.5" stroke-dasharray=""/><path fill="white" stroke="#505050" paint-order="fill stroke markers" d=" M 831.5014097690582 99.52129125595093 L 855.5014097690582 99.52129125595093 L 855.5014097690582 177.52129125595093 L 831.5014097690582 177.52129125595093 L 831.5014097690582 99.52129125595093 Z" stroke-miterlimit="10" stroke-width="0.5" stroke-dasharray=""/><path fill="#F0F0F0" stroke="none" paint-order="stroke fill markers" d=""/><text fill="#505050" stroke="none" font-family="monospace" font-size="14px" font-style="normal" font-weight="normal" text-decoration="normal" x="843.5014097690582" y="117.52129125595093" text-anchor="middle" dominant-baseline="text-after-edge">?</text><path fill="none" stroke="#505050" paint-order="fill stroke markers" d=" M 831.5014097690582 117.52129125595093 L 839.5014097690582 117.52129125595093 L 839.5014097690582 125.52129125595093 L 831.5014097690582 125.52129125595093 L 831.5014097690582 117.52129125595093 Z" stroke-miterlimit="10" stroke-width="0.5" stroke-dasharray=""/><path fill="none" stroke="#505050" paint-order="fill stroke markers" d=" M 831.5014097690582 129.52129125595093 L 839.5014097690582 129.52129125595093 L 839.5014097690582 137.52129125595093 L 831.5014097690582 137.52129125595093 L 831.5014097690582 129.52129125595093 Z" stroke-miterlimit="10" stroke-width="0.5" stroke-dasharray=""/><path fill="none" stroke="#505050" paint-order="fill stroke markers" d=" M 831.5014097690582 141.52129125595093 L 839.5014097690582 141.52129125595093 L 839.5014097690582 149.52129125595093 L 831.5014097690582 149.52129125595093 L 831.5014097690582 141.52129125595093 Z" stroke-miterlimit="10" stroke-width="0.5" stroke-dasharray=""/><path fill="none" stroke="#505050" paint-order="fill stroke markers" d=" M 831.5014097690582 153.52129125595093 L 839.5014097690582 153.52129125595093 L 839.5014097690582 161.52129125595093 L 831.5014097690582 161.52129125595093 L 831.5014097690582 153.52129125595093 Z" stroke-miterlimit="10" stroke-width="0.5" stroke-dasharray=""/><path fill="none" stroke="#505050" paint-order="fill stroke markers" d=" M 831.5014097690582 165.52129125595093 L 839.5014097690582 165.52129125595093 L 839.5014097690582 173.52129125595093 L 831.5014097690582 173.52129125595093 L 831.5014097690582 165.52129125595093 Z" stroke-miterlimit="10" stroke-width="0.5" stroke-dasharray=""/><path fill="none" stroke="#505050" paint-order="fill stroke markers" d=" M 847.5014097690582 117.52129125595093 L 855.5014097690582 117.52129125595093 L 855.5014097690582 125.52129125595093 L 847.5014097690582 125.52129125595093 L 847.5014097690582 117.52129125595093 Z" stroke-miterlimit="10" stroke-width="0.5" stroke-dasharray=""/><path fill="white" stroke="#505050" paint-order="fill stroke markers" d=" M 684.1999800205231 91.92500066757202 L 726.1999800205231 91.92500066757202 L 726.1999800205231 121.92500066757202 L 684.1999800205231 121.92500066757202 L 684.1999800205231 91.92500066757202 Z" stroke-miterlimit="10" stroke-width="0.5" stroke-dasharray=""/><path fill="#F0F0F0" stroke="none" paint-order="stroke fill markers" d=""/><text fill="#505050" stroke="none" font-family="monospace" font-size="14px" font-style="normal" font-weight="normal" text-decoration="normal" x="705.1999800205231" y="109.92500066757202" text-anchor="middle" dominant-baseline="text-after-edge">even</text><path fill="none" stroke="#505050" paint-order="fill stroke markers" d=" M 684.1999800205231 109.92500066757202 L 692.1999800205231 109.92500066757202 L 692.1999800205231 117.92500066757202 L 684.1999800205231 117.92500066757202 L 684.1999800205231 109.92500066757202 Z" stroke-miterlimit="10" stroke-width="0.5" stroke-dasharray=""/><path fill="none" stroke="#505050" paint-order="fill stroke markers" d=" M 718.1999800205231 109.92500066757202 L 726.1999800205231 109.92500066757202 L 726.1999800205231 117.92500066757202 L 718.1999800205231 117.92500066757202 L 718.1999800205231 109.92500066757202 Z" stroke-miterlimit="10" stroke-width="0.5" stroke-dasharray=""/><path fill="white" stroke="#505050" paint-order="fill stroke markers" d=" M 329.2750380039215 128.60629415512085 L 329.2750380039215 185.8469214439392 Q 329.2750380039215 193.8469214439392 337.2750380039215 193.8469214439392 L 477.731214761734 193.8469214439392 Q 485.731214761734 193.8469214439392 485.731214761734 185.8469214439392 L 485.731214761734 128.60629415512085 Q 485.731214761734 120.60629415512085 477.731214761734 120.60629415512085 L 337.2750380039215 120.60629415512085 Q 329.2750380039215 120.60629415512085 329.2750380039215 128.60629415512085" stroke-miterlimit="10" stroke-width="0.5" stroke-dasharray=""/><path fill="#F0F0F0" stroke="#505050" paint-order="fill stroke markers" d=" M 443.731214761734 128.60629415512085 L 485.731214761734 128.60629415512085 L 485.731214761734 158.60629415512085 L 443.731214761734 158.60629415512085 L 443.731214761734 128.60629415512085 Z" stroke-miterlimit="10" stroke-width="0.5" stroke-dasharray=""/><text fill="#505050" stroke="none" font-family="monospace" font-size="14px" font-style="normal" font-weight="normal" text-decoration="normal" x="464.731214761734" y="146.60629415512085" text-anchor="middle" dominant-baseline="text-after-edge">even</text><path fill="none" stroke="#505050" paint-order="fill stroke markers" d=" M 443.731214761734 146.60629415512085 L 451.731214761734 146.60629415512085 L 451.731214761734 154.60629415512085 L 443.731214761734 154.60629415512085 L 443.731214761734 146.60629415512085 Z" stroke-miterlimit="10" stroke-width="0.5" stroke-dasharray=""/><path fill="none" stroke="#505050" paint-order="fill stroke markers" d=" M 477.731214761734 146.60629415512085 L 485.731214761734 146.60629415512085 L 485.731214761734 154.60629415512085 L 477.731214761734 154.60629415512085 L 477.731214761734 146.60629415512085 Z" stroke-miterlimit="10" stroke-width="0.5" stroke-dasharray=""/><path fill="white" stroke="#505050" paint-order="fill stroke markers" d=" M 337.2750380039215 134.1625075340271 L 353.2750380039215 134.1625075340271 L 353.2750380039215 150.1625075340271 L 337.2750380039215 150.1625075340271 L 345.2750380039215 142.1625075340271 L 337.2750380039215 134.1625075340271" stroke-miterlimit="10" stroke-width="0.5" stroke-dasharray=""/><path fill="none" stroke="#505050" paint-order="fill stroke markers" d=" M 345.2750380039215 138.1625075340271 L 353.2750380039215 138.1625075340271 L 353.2750380039215 146.1625075340271 L 345.2750380039215 146.1625075340271 L 345.2750380039215 138.1625075340271 Z" stroke-miterlimit="10" stroke-width="0.5" stroke-dasharray=""/><path fill="white" stroke="#505050" paint-order="fill stroke markers" d=" M 375.3187391757965 126.20317220687866 L 399.3187391757965 126.20317220687866 L 399.3187391757965 168.20317220687866 L 375.3187391757965 168.20317220687866 L 375.3187391757965 126.20317220687866 Z" stroke-miterlimit="10" stroke-width="0.5" stroke-dasharray=""/><path fill="#F0F0F0" stroke="none" paint-order="stroke fill markers" d=""/><text fill="#505050" stroke="none" font-family="monospace" font-size="14px" font-style="normal" font-weight="normal" text-decoration="normal" x="387.3187391757965" y="144.20317220687866" text-anchor="middle" dominant-baseline="text-after-edge">&amp;</text><path fill="none" stroke="#505050" paint-order="fill stroke markers" d=" M 375.3187391757965 144.20317220687866 L 383.3187391757965 144.20317220687866 L 383.3187391757965 152.20317220687866 L 375.3187391757965 152.20317220687866 L 375.3187391757965 144.20317220687866 Z" stroke-miterlimit="10" stroke-width="0.5" stroke-dasharray=""/><path fill="none" stroke="#505050" paint-order="fill stroke markers" d=" M 375.3187391757965 156.20317220687866 L 383.3187391757965 156.20317220687866 L 383.3187391757965 164.20317220687866 L 375.3187391757965 164.20317220687866 L 375.3187391757965 156.20317220687866 Z" stroke-miterlimit="10" stroke-width="0.5" stroke-dasharray=""/><path fill="none" stroke="#505050" paint-order="fill stroke markers" d=" M 391.3187391757965 144.20317220687866 L 399.3187391757965 144.20317220687866 L 399.3187391757965 152.20317220687866 L 391.3187391757965 152.20317220687866 L 391.3187391757965 144.20317220687866 Z" stroke-miterlimit="10" stroke-width="0.5" stroke-dasharray=""/><path fill="white" stroke="#505050" paint-order="fill stroke markers" d=" M 409.65934586524963 141.39062643051147 L 417.65934586524963 141.39062643051147 L 425.65934586524963 149.39062643051147 L 417.65934586524963 157.39062643051147 L 409.65934586524963 157.39062643051147 L 409.65934586524963 141.39062643051147" stroke-miterlimit="10" stroke-width="0.5" stroke-dasharray=""/><path fill="none" stroke="#505050" paint-order="fill stroke markers" d=" M 409.65934586524963 145.39062643051147 L 417.65934586524963 145.39062643051147 L 417.65934586524963 153.39062643051147 L 409.65934586524963 153.39062643051147 L 409.65934586524963 145.39062643051147 Z" stroke-miterlimit="10" stroke-width="0.5" stroke-dasharray=""/><path fill="white" stroke="#505050" paint-order="fill stroke markers" d=" M 333.51254296302795 159.8469214439392 L 365.51254296302795 159.8469214439392 L 365.51254296302795 177.8469214439392 L 333.51254296302795 177.8469214439392 L 333.51254296302795 159.8469214439392 Z" stroke-miterlimit="10" stroke-width="0.5" stroke-dasharray=""/><path fill="#F0F0F0" stroke="none" paint-order="stroke fill markers" d=""/><path fill="none" stroke="#505050" paint-order="fill stroke markers" d=" M 357.51254296302795 164.8469214439392 L 365.51254296302795 164.8469214439392 L 365.51254296302795 172.8469214439392 L 357.51254296302795 172.8469214439392 L 357.51254296302795 164.8469214439392 Z" stroke-miterlimit="10" stroke-width="0.5" stroke-dasharray=""/><text fill="#505050" stroke="none" font-family="monospace" font-size="14px" font-style="normal" font-weight="normal" text-decoration="normal" x="349.51254296302795" y="177.8469214439392" text-anchor="end" dominant-baseline="text-after-edge">1</text><path fill="white" stroke="#505050" paint-order="fill stroke markers" d=" M 308.83437943458557 40.11876440048218 L 308.83437943458557 93.36876440048218 Q 308.83437943458557 101.36876440048218 316.83437943458557 101.36876440048218 L 459.63125443458557 101.36876440048218 Q 467.63125443458557 101.36876440048218 467.63125443458557 93.36876440048218 L 467.63125443458557 40.11876440048218 Q 467.63125443458557 32.11876440048218 459.63125443458557 32.11876440048218 L 316.83437943458557 32.11876440048218 Q 308.83437943458557 32.11876440048218 308.83437943458557 40.11876440048218" stroke-miterlimit="10" stroke-width="0.5" stroke-dasharray=""/><path fill="#F0F0F0" stroke="#505050" paint-order="fill stroke markers" d=" M 425.63125443458557 40.11876440048218 L 467.63125443458557 40.11876440048218 L 467.63125443458557 70.11876440048218 L 425.63125443458557 70.11876440048218 L 425.63125443458557 40.11876440048218 Z" stroke-miterlimit="10" stroke-width="0.5" stroke-dasharray=""/><text fill="#505050" stroke="none" font-family="monospace" font-size="14px" font-style="normal" font-weight="normal" text-decoration="normal" x="446.63125443458557" y="58.11876440048218" text-anchor="middle" dominant-baseline="text-after-edge">== 0</text><path fill="none" stroke="#505050" paint-order="fill stroke markers" d=" M 425.63125443458557 58.11876440048218 L 433.63125443458557 58.11876440048218 L 433.63125443458557 66.11876440048218 L 425.63125443458557 66.11876440048218 L 425.63125443458557 58.11876440048218 Z" stroke-miterlimit="10" stroke-width="0.5" stroke-dasharray=""/><path fill="none" stroke="#505050" paint-order="fill stroke markers" d=" M 459.63125443458557 58.11876440048218 L 467.63125443458557 58.11876440048218 L 467.63125443458557 66.11876440048218 L 459.63125443458557 66.11876440048218 L 459.63125443458557 58.11876440048218 Z" stroke-miterlimit="10" stroke-width="0.5" stroke-dasharray=""/><path fill="white" stroke="#505050" paint-order="fill stroke markers" d=" M 364.83437943458557 41.36876440048218 L 389.83437943458557 41.36876440048218 L 389.83437943458557 83.36876440048218 L 364.83437943458557 83.36876440048218 L 364.83437943458557 41.36876440048218 Z" stroke-miterlimit="10" stroke-width="0.5" stroke-dasharray=""/><path fill="#F0F0F0" stroke="none" paint-order="stroke fill markers" d=""/><text fill="#505050" stroke="none" font-family="monospace" font-size="14px" font-style="normal" font-weight="normal" text-decoration="normal" x="377.33437943458557" y="59.36876440048218" text-anchor="middle" dominant-baseline="text-after-edge">==</text><path fill="none" stroke="#505050" paint-order="fill stroke markers" d=" M 364.83437943458557 59.36876440048218 L 372.83437943458557 59.36876440048218 L 372.83437943458557 67.36876440048218 L 364.83437943458557 67.36876440048218 L 364.83437943458557 59.36876440048218 Z" stroke-miterlimit="10" stroke-width="0.5" stroke-dasharray=""/><path fill="none" stroke="#505050" paint-order="fill stroke markers" d=" M 364.83437943458557 71.36876440048218 L 372.83437943458557 71.36876440048218 L 372.83437943458557 79.36876440048218 L 364.83437943458557 79.36876440048218 L 364.83437943458557 71.36876440048218 Z" stroke-miterlimit="10" stroke-width="0.5" stroke-dasharray=""/><path fill="none" stroke="#505050" paint-order="fill stroke markers" d=" M 381.83437943458557 59.36876440048218 L 389.83437943458557 59.36876440048218 L 389.83437943458557 67.36876440048218 L 381.83437943458557 67.36876440048218 L 381.83437943458557 59.36876440048218 Z" stroke-miterlimit="10" stroke-width="0.5" stroke-dasharray=""/><path fill="white" stroke="#505050" paint-order="fill stroke markers" d=" M 401.61562943458557 55.26250982284546 L 409.61562943458557 55.26250982284546 L 417.61562943458557 63.26250982284546 L 409.61562943458557 71.26250982284546 L 401.61562943458557 71.26250982284546 L 401.61562943458557 55.26250982284546" stroke-miterlimit="10" stroke-width="0.5" stroke-dasharray=""/><path fill="none" stroke="#505050" paint-order="fill stroke markers" d=" M 401.61562943458557 59.26250982284546 L 409.61562943458557 59.26250982284546 L 409.61562943458557 67.26250982284546 L 401.61562943458557 67.26250982284546 L 401.61562943458557 59.26250982284546 Z" stroke-miterlimit="10" stroke-width="0.5" stroke-dasharray=""/><path fill="white" stroke="#505050" paint-order="fill stroke markers" d=" M 316.83437943458557 67.36876440048218 L 348.83437943458557 67.36876440048218 L 348.83437943458557 85.36876440048218 L 316.83437943458557 85.36876440048218 L 316.83437943458557 67.36876440048218 Z" stroke-miterlimit="10" stroke-width="0.5" stroke-dasharray=""/><path fill="#F0F0F0" stroke="none" paint-order="stroke fill markers" d=""/><path fill="none" stroke="#505050" paint-order="fill stroke markers" d=" M 340.83437943458557 72.36876440048218 L 348.83437943458557 72.36876440048218 L 348.83437943458557 80.36876440048218 L 340.83437943458557 80.36876440048218 L 340.83437943458557 72.36876440048218 Z" stroke-miterlimit="10" stroke-width="0.5" stroke-dasharray=""/><text fill="#505050" stroke="none" font-family="monospace" font-size="14px" font-style="normal" font-weight="normal" text-decoration="normal" x="332.83437943458557" y="85.36876440048218" text-anchor="end" dominant-baseline="text-after-edge">0</text><path fill="white" stroke="#505050" paint-order="fill stroke markers" d=" M 326.16874527931213 40.11876440048218 L 342.16874527931213 40.11876440048218 L 342.16874527931213 56.11876440048218 L 326.16874527931213 56.11876440048218 L 334.16874527931213 48.11876440048218 L 326.16874527931213 40.11876440048218" stroke-miterlimit="10" stroke-width="0.5" stroke-dasharray=""/><path fill="none" stroke="#505050" paint-order="fill stroke markers" d=" M 334.16874527931213 44.11876440048218 L 342.16874527931213 44.11876440048218 L 342.16874527931213 52.11876440048218 L 334.16874527931213 52.11876440048218 L 334.16874527931213 44.11876440048218 Z" stroke-miterlimit="10" stroke-width="0.5" stroke-dasharray=""/><path fill="white" stroke="#505050" paint-order="fill stroke markers" d=" M 316.7687530517578 248.23435974121094 L 316.7687530517578 392.328125 Q 316.7687530517578 400.328125 324.7687530517578 400.328125 L 480.65626525878906 400.328125 Q 488.65626525878906 400.328125 488.65626525878906 392.328125 L 488.65626525878906 248.23435974121094 Q 488.65626525878906 240.23435974121094 480.65626525878906 240.23435974121094 L 324.7687530517578 240.23435974121094 Q 316.7687530517578 240.23435974121094 316.7687530517578 248.23435974121094" stroke-miterlimit="10" stroke-width="0.5" stroke-dasharray=""/><path fill="#F0F0F0" stroke="#505050" paint-order="fill stroke markers" d=" M 464.65626525878906 248.23435974121094 L 488.65626525878906 248.23435974121094 L 488.65626525878906 326.23435974121094 L 464.65626525878906 326.23435974121094 L 464.65626525878906 248.23435974121094 Z" stroke-miterlimit="10" stroke-width="0.5" stroke-dasharray=""/><text fill="#505050" stroke="none" font-family="monospace" font-size="14px" font-style="normal" font-weight="normal" text-decoration="normal" x="476.65626525878906" y="266.23435974121094" text-anchor="middle" dominant-baseline="text-after-edge">?</text><path fill="none" stroke="#505050" paint-order="fill stroke markers" d=" M 464.65626525878906 266.23435974121094 L 472.65626525878906 266.23435974121094 L 472.65626525878906 274.23435974121094 L 464.65626525878906 274.23435974121094 L 464.65626525878906 266.23435974121094 Z" stroke-miterlimit="10" stroke-width="0.5" stroke-dasharray=""/><path fill="none" stroke="#505050" paint-order="fill stroke markers" d=" M 464.65626525878906 278.23435974121094 L 472.65626525878906 278.23435974121094 L 472.65626525878906 286.23435974121094 L 464.65626525878906 286.23435974121094 L 464.65626525878906 278.23435974121094 Z" stroke-miterlimit="10" stroke-width="0.5" stroke-dasharray=""/><path fill="none" stroke="#505050" paint-order="fill stroke markers" d=" M 464.65626525878906 290.23435974121094 L 472.65626525878906 290.23435974121094 L 472.65626525878906 298.23435974121094 L 464.65626525878906 298.23435974121094 L 464.65626525878906 290.23435974121094 Z" stroke-miterlimit="10" stroke-width="0.5" stroke-dasharray=""/><path fill="none" stroke="#505050" paint-order="fill stroke markers" d=" M 464.65626525878906 302.23435974121094 L 472.65626525878906 302.23435974121094 L 472.65626525878906 310.23435974121094 L 464.65626525878906 310.23435974121094 L 464.65626525878906 302.23435974121094 Z" stroke-miterlimit="10" stroke-width="0.5" stroke-dasharray=""/><path fill="none" stroke="#505050" paint-order="fill stroke markers" d=" M 464.65626525878906 314.23435974121094 L 472.65626525878906 314.23435974121094 L 472.65626525878906 322.23435974121094 L 464.65626525878906 322.23435974121094 L 464.65626525878906 314.23435974121094 Z" stroke-miterlimit="10" stroke-width="0.5" stroke-dasharray=""/><path fill="none" stroke="#505050" paint-order="fill stroke markers" d=" M 480.65626525878906 266.23435974121094 L 488.65626525878906 266.23435974121094 L 488.65626525878906 274.23435974121094 L 480.65626525878906 274.23435974121094 L 480.65626525878906 266.23435974121094 Z" stroke-miterlimit="10" stroke-width="0.5" stroke-dasharray=""/><path fill="white" stroke="#505050" paint-order="fill stroke markers" d=" M 326.26251220703125 307.8874816894531 L 342.26251220703125 307.8874816894531 L 342.26251220703125 323.8874816894531 L 326.26251220703125 323.8874816894531 L 334.26251220703125 315.8874816894531 L 326.26251220703125 307.8874816894531" stroke-miterlimit="10" stroke-width="0.5" stroke-dasharray=""/><path fill="none" stroke="#505050" paint-order="fill stroke markers" d=" M 334.26251220703125 311.8874816894531 L 342.26251220703125 311.8874816894531 L 342.26251220703125 319.8874816894531 L 334.26251220703125 319.8874816894531 L 334.26251220703125 311.8874816894531 Z" stroke-miterlimit="10" stroke-width="0.5" stroke-dasharray=""/><path fill="white" stroke="#505050" paint-order="fill stroke markers" d=" M 357.8000183105469 313.58123779296875 L 381.8000183105469 313.58123779296875 L 381.8000183105469 367.58123779296875 L 357.8000183105469 367.58123779296875 L 357.8000183105469 313.58123779296875 Z" stroke-miterlimit="10" stroke-width="0.5" stroke-dasharray=""/><path fill="#F0F0F0" stroke="none" paint-order="stroke fill markers" d=""/><text fill="#505050" stroke="none" font-family="monospace" font-size="14px" font-style="normal" font-weight="normal" text-decoration="normal" x="369.8000183105469" y="331.58123779296875" text-anchor="middle" dominant-baseline="text-after-edge">?</text><path fill="none" stroke="#505050" paint-order="fill stroke markers" d=" M 357.8000183105469 331.58123779296875 L 365.8000183105469 331.58123779296875 L 365.8000183105469 339.58123779296875 L 357.8000183105469 339.58123779296875 L 357.8000183105469 331.58123779296875 Z" stroke-miterlimit="10" stroke-width="0.5" stroke-dasharray=""/><path fill="none" stroke="#505050" paint-order="fill stroke markers" d=" M 357.8000183105469 343.58123779296875 L 365.8000183105469 343.58123779296875 L 365.8000183105469 351.58123779296875 L 357.8000183105469 351.58123779296875 L 357.8000183105469 343.58123779296875 Z" stroke-miterlimit="10" stroke-width="0.5" stroke-dasharray=""/><path fill="none" stroke="#505050" paint-order="fill stroke markers" d=" M 357.8000183105469 355.58123779296875 L 365.8000183105469 355.58123779296875 L 365.8000183105469 363.58123779296875 L 357.8000183105469 363.58123779296875 L 357.8000183105469 355.58123779296875 Z" stroke-miterlimit="10" stroke-width="0.5" stroke-dasharray=""/><path fill="none" stroke="#505050" paint-order="fill stroke markers" d=" M 373.8000183105469 331.58123779296875 L 381.8000183105469 331.58123779296875 L 381.8000183105469 339.58123779296875 L 373.8000183105469 339.58123779296875 L 373.8000183105469 331.58123779296875 Z" stroke-miterlimit="10" stroke-width="0.5" stroke-dasharray=""/><path fill="white" stroke="#505050" paint-order="fill stroke markers" d=" M 435.0671691894531 296.25782775878906 L 443.0671691894531 296.25782775878906 L 451.0671691894531 304.25782775878906 L 443.0671691894531 312.25782775878906 L 435.0671691894531 312.25782775878906 L 435.0671691894531 296.25782775878906" stroke-miterlimit="10" stroke-width="0.5" stroke-dasharray=""/><path fill="none" stroke="#505050" paint-order="fill stroke markers" d=" M 435.0671691894531 300.25782775878906 L 443.0671691894531 300.25782775878906 L 443.0671691894531 308.25782775878906 L 435.0671691894531 308.25782775878906 L 435.0671691894531 300.25782775878906 Z" stroke-miterlimit="10" stroke-width="0.5" stroke-dasharray=""/><path fill="white" stroke="#505050" paint-order="fill stroke markers" d=" M 325.7093811035156 368.328125 L 341.7093811035156 368.328125 L 341.7093811035156 384.328125 L 325.7093811035156 384.328125 L 333.7093811035156 376.328125 L 325.7093811035156 368.328125" stroke-miterlimit="10" stroke-width="0.5" stroke-dasharray=""/><path fill="none" stroke="#505050" paint-order="fill stroke markers" d=" M 333.7093811035156 372.328125 L 341.7093811035156 372.328125 L 341.7093811035156 380.328125 L 333.7093811035156 380.328125 L 333.7093811035156 372.328125 Z" stroke-miterlimit="10" stroke-width="0.5" stroke-dasharray=""/><path fill="white" stroke="#505050" paint-order="fill stroke markers" d=" M 400.05938720703125 282.02809143066406 L 424.05938720703125 282.02809143066406 L 424.05938720703125 336.02809143066406 L 400.05938720703125 336.02809143066406 L 400.05938720703125 282.02809143066406 Z" stroke-miterlimit="10" stroke-width="0.5" stroke-dasharray=""/><path fill="#F0F0F0" stroke="none" paint-order="stroke fill markers" d=""/><text fill="#505050" stroke="none" font-family="monospace" font-size="14px" font-style="normal" font-weight="normal" text-decoration="normal" x="412.05938720703125" y="300.02809143066406" text-anchor="middle" dominant-baseline="text-after-edge">?</text><path fill="none" stroke="#505050" paint-order="fill stroke markers" d=" M 400.05938720703125 300.02809143066406 L 408.05938720703125 300.02809143066406 L 408.05938720703125 308.02809143066406 L 400.05938720703125 308.02809143066406 L 400.05938720703125 300.02809143066406 Z" stroke-miterlimit="10" stroke-width="0.5" stroke-dasharray=""/><path fill="none" stroke="#505050" paint-order="fill stroke markers" d=" M 400.05938720703125 312.02809143066406 L 408.05938720703125 312.02809143066406 L 408.05938720703125 320.02809143066406 L 400.05938720703125 320.02809143066406 L 400.05938720703125 312.02809143066406 Z" stroke-miterlimit="10" stroke-width="0.5" stroke-dasharray=""/><path fill="none" stroke="#505050" paint-order="fill stroke markers" d=" M 400.05938720703125 324.02809143066406 L 408.05938720703125 324.02809143066406 L 408.05938720703125 332.02809143066406 L 400.05938720703125 332.02809143066406 L 400.05938720703125 324.02809143066406 Z" stroke-miterlimit="10" stroke-width="0.5" stroke-dasharray=""/><path fill="none" stroke="#505050" paint-order="fill stroke markers" d=" M 416.05938720703125 300.02809143066406 L 424.05938720703125 300.02809143066406 L 424.05938720703125 308.02809143066406 L 416.05938720703125 308.02809143066406 L 416.05938720703125 300.02809143066406 Z" stroke-miterlimit="10" stroke-width="0.5" stroke-dasharray=""/><path fill="white" stroke="#505050" paint-order="fill stroke markers" d=" M 324.7687530517578 274.23435974121094 L 340.7687530517578 274.23435974121094 L 340.7687530517578 290.23435974121094 L 324.7687530517578 290.23435974121094 L 332.7687530517578 282.23435974121094 L 324.7687530517578 274.23435974121094" stroke-miterlimit="10" stroke-width="0.5" stroke-dasharray=""/><path fill="none" stroke="#505050" paint-order="fill stroke markers" d=" M 332.7687530517578 278.23435974121094 L 340.7687530517578 278.23435974121094 L 340.7687530517578 286.23435974121094 L 332.7687530517578 286.23435974121094 L 332.7687530517578 278.23435974121094 Z" stroke-miterlimit="10" stroke-width="0.5" stroke-dasharray=""/><path fill="white" stroke="#505050" paint-order="fill stroke markers" d=" M 325.04688262939453 252.31561279296875 L 341.04688262939453 252.31561279296875 L 341.04688262939453 268.31561279296875 L 325.04688262939453 268.31561279296875 L 333.04688262939453 260.31561279296875 L 325.04688262939453 252.31561279296875" stroke-miterlimit="10" stroke-width="0.5" stroke-dasharray=""/><path fill="none" stroke="#505050" paint-order="fill stroke markers" d=" M 333.04688262939453 256.31561279296875 L 341.04688262939453 256.31561279296875 L 341.04688262939453 264.31561279296875 L 333.04688262939453 264.31561279296875 L 333.04688262939453 256.31561279296875 Z" stroke-miterlimit="10" stroke-width="0.5" stroke-dasharray=""/><path fill="white" stroke="#505050" paint-order="fill stroke markers" d=" M 323.37500762939453 333.58123779296875 L 339.37500762939453 333.58123779296875 L 339.37500762939453 349.58123779296875 L 323.37500762939453 349.58123779296875 L 331.37500762939453 341.58123779296875 L 323.37500762939453 333.58123779296875" stroke-miterlimit="10" stroke-width="0.5" stroke-dasharray=""/><path fill="none" stroke="#505050" paint-order="fill stroke markers" d=" M 331.37500762939453 337.58123779296875 L 339.37500762939453 337.58123779296875 L 339.37500762939453 345.58123779296875 L 331.37500762939453 345.58123779296875 L 331.37500762939453 337.58123779296875 Z" stroke-miterlimit="10" stroke-width="0.5" stroke-dasharray=""/><path fill="white" stroke="#505050" paint-order="fill stroke markers" d=" M 945.60009765625 152.72186279296875 L 945.60009765625 220.90623474121094 Q 945.60009765625 228.90623474121094 953.60009765625 228.90623474121094 L 1158.650146484375 228.90623474121094 Q 1166.650146484375 228.90623474121094 1166.650146484375 220.90623474121094 L 1166.650146484375 152.72186279296875 Q 1166.650146484375 144.72186279296875 1158.650146484375 144.72186279296875 L 953.60009765625 144.72186279296875 Q 945.60009765625 144.72186279296875 945.60009765625 152.72186279296875" stroke-miterlimit="10" stroke-width="0.5" stroke-dasharray=""/><path fill="#F0F0F0" stroke="#505050" paint-order="fill stroke markers" d=" M 1126.650146484375 152.72186279296875 L 1166.650146484375 152.72186279296875 L 1166.650146484375 198.72186279296875 L 1126.650146484375 198.72186279296875 L 1126.650146484375 152.72186279296875 Z" stroke-miterlimit="10" stroke-width="0.5" stroke-dasharray=""/><text fill="#505050" stroke="none" font-family="monospace" font-size="14px" font-style="normal" font-weight="normal" text-decoration="normal" x="1146.650146484375" y="170.72186279296875" text-anchor="middle" dominant-baseline="text-after-edge">Xâ¿</text><path fill="none" stroke="#505050" paint-order="fill stroke markers" d=" M 1126.650146484375 171.72186279296875 L 1134.650146484375 171.72186279296875 L 1134.650146484375 179.72186279296875 L 1126.650146484375 179.72186279296875 L 1126.650146484375 171.72186279296875 Z" stroke-miterlimit="10" stroke-width="0.5" stroke-dasharray=""/><text fill="#505050" stroke="none" font-family="monospace" font-size="14px" font-style="normal" font-weight="normal" text-decoration="normal" x="1142.650146484375" y="184.72186279296875" text-anchor="start" dominant-baseline="text-after-edge">x</text><path fill="none" stroke="#505050" paint-order="fill stroke markers" d=" M 1126.650146484375 185.72186279296875 L 1134.650146484375 185.72186279296875 L 1134.650146484375 193.72186279296875 L 1126.650146484375 193.72186279296875 L 1126.650146484375 185.72186279296875 Z" stroke-miterlimit="10" stroke-width="0.5" stroke-dasharray=""/><text fill="#505050" stroke="none" font-family="monospace" font-size="14px" font-style="normal" font-weight="normal" text-decoration="normal" x="1142.650146484375" y="198.72186279296875" text-anchor="start" dominant-baseline="text-after-edge">n</text><path fill="none" stroke="#505050" paint-order="fill stroke markers" d=" M 1158.650146484375 170.72186279296875 L 1166.650146484375 170.72186279296875 L 1166.650146484375 178.72186279296875 L 1158.650146484375 178.72186279296875 L 1158.650146484375 170.72186279296875 Z" stroke-miterlimit="10" stroke-width="0.5" stroke-dasharray=""/><path fill="white" stroke="#505050" paint-order="fill stroke markers" d=" M 949.9906616210938 171.24061584472656 L 981.9906616210938 171.24061584472656 L 981.9906616210938 189.24061584472656 L 949.9906616210938 189.24061584472656 L 957.9906616210938 180.24061584472656 L 949.9906616210938 171.24061584472656" stroke-miterlimit="10" stroke-width="0.5" stroke-dasharray=""/><path fill="none" stroke="#505050" paint-order="fill stroke markers" d=" M 973.9906616210938 176.24061584472656 L 981.9906616210938 176.24061584472656 L 981.9906616210938 184.24061584472656 L 973.9906616210938 184.24061584472656 L 973.9906616210938 176.24061584472656 Z" stroke-miterlimit="10" stroke-width="0.5" stroke-dasharray=""/><text fill="#505050" stroke="none" font-family="monospace" font-size="14px" font-style="normal" font-weight="normal" text-decoration="normal" x="965.9906616210938" y="189.24061584472656" text-anchor="end" dominant-baseline="text-after-edge">n</text><path fill="white" stroke="#505050" paint-order="fill stroke markers" d=" M 1026.003173828125 152.69998168945312 L 1066.003173828125 152.69998168945312 L 1066.003173828125 198.69998168945312 L 1026.003173828125 198.69998168945312 L 1026.003173828125 152.69998168945312 Z" stroke-miterlimit="10" stroke-width="0.5" stroke-dasharray=""/><path fill="#F0F0F0" stroke="none" paint-order="stroke fill markers" d=""/><path fill="none" stroke="#505050" paint-order="fill stroke markers" d=" M 1026.003173828125 157.69998168945312 L 1034.003173828125 157.69998168945312 L 1034.003173828125 165.69998168945312 L 1026.003173828125 165.69998168945312 L 1026.003173828125 157.69998168945312 Z" stroke-miterlimit="10" stroke-width="0.5" stroke-dasharray=""/><text fill="#505050" stroke="none" font-family="monospace" font-size="14px" font-style="normal" font-weight="normal" text-decoration="normal" x="1042.003173828125" y="170.69998168945312" text-anchor="start" dominant-baseline="text-after-edge">n</text><path fill="none" stroke="#505050" paint-order="fill stroke markers" d=" M 1026.003173828125 171.69998168945312 L 1034.003173828125 171.69998168945312 L 1034.003173828125 179.69998168945312 L 1026.003173828125 179.69998168945312 L 1026.003173828125 171.69998168945312 Z" stroke-miterlimit="10" stroke-width="0.5" stroke-dasharray=""/><text fill="#505050" stroke="none" font-family="monospace" font-size="14px" font-style="normal" font-weight="normal" text-decoration="normal" x="1042.003173828125" y="184.69998168945312" text-anchor="start" dominant-baseline="text-after-edge">x</text><path fill="none" stroke="#505050" paint-order="fill stroke markers" d=" M 1026.003173828125 185.69998168945312 L 1034.003173828125 185.69998168945312 L 1034.003173828125 193.69998168945312 L 1026.003173828125 193.69998168945312 L 1026.003173828125 185.69998168945312 Z" stroke-miterlimit="10" stroke-width="0.5" stroke-dasharray=""/><text fill="#505050" stroke="none" font-family="monospace" font-size="14px" font-style="normal" font-weight="normal" text-decoration="normal" x="1042.003173828125" y="198.69998168945312" text-anchor="start" dominant-baseline="text-after-edge">y</text><path fill="none" stroke="#505050" paint-order="fill stroke markers" d=" M 1058.003173828125 156.69998168945312 L 1066.003173828125 156.69998168945312 L 1066.003173828125 164.69998168945312 L 1058.003173828125 164.69998168945312 L 1058.003173828125 156.69998168945312 Z" stroke-miterlimit="10" stroke-width="0.5" stroke-dasharray=""/><path fill="#e0e0e0" stroke="none" paint-order="stroke fill markers" d=" M 931.8742430210114 62.59686279296875 L 923.8742430210114 39.59686279296875 L 923.8742430210114 85.59686279296875 Z M 1018.003173828125 175.69998168945312 L 1026.003173828125 152.69998168945312 L 1026.003173828125 198.69998168945312 Z"/><path fill="none" stroke="none"/><path fill="none" stroke="#e0e0e0" paint-order="fill stroke markers" d=" M 931.8742430210114 62.59686279296875 C 974.5233431328307 62.59686279296875 975.3540737163056 175.69998168945312 1018.003173828125 175.69998168945312" stroke-miterlimit="10" stroke-width="2" stroke-dasharray=""/><path fill="white" stroke="#505050" paint-order="fill stroke markers" d=" M 1082.003173828125 152.69998168945312 L 1090.003173828125 152.69998168945312 L 1098.003173828125 160.69998168945312 L 1090.003173828125 168.69998168945312 L 1082.003173828125 168.69998168945312 L 1082.003173828125 152.69998168945312" stroke-miterlimit="10" stroke-width="0.5" stroke-dasharray=""/><path fill="none" stroke="#505050" paint-order="fill stroke markers" d=" M 1082.003173828125 156.69998168945312 L 1090.003173828125 156.69998168945312 L 1090.003173828125 164.69998168945312 L 1082.003173828125 164.69998168945312 L 1082.003173828125 156.69998168945312 Z" stroke-miterlimit="10" stroke-width="0.5" stroke-dasharray=""/><path fill="white" stroke="#505050" paint-order="fill stroke markers" d=" M 950.7249755859375 194.90623474121094 L 982.7249755859375 194.90623474121094 L 982.7249755859375 212.90623474121094 L 950.7249755859375 212.90623474121094 L 950.7249755859375 194.90623474121094 Z" stroke-miterlimit="10" stroke-width="0.5" stroke-dasharray=""/><path fill="#F0F0F0" stroke="none" paint-order="stroke fill markers" d=""/><path fill="none" stroke="#505050" paint-order="fill stroke markers" d=" M 974.7249755859375 199.90623474121094 L 982.7249755859375 199.90623474121094 L 982.7249755859375 207.90623474121094 L 974.7249755859375 207.90623474121094 L 974.7249755859375 199.90623474121094 Z" stroke-miterlimit="10" stroke-width="0.5" stroke-dasharray=""/><text fill="#505050" stroke="none" font-family="monospace" font-size="14px" font-style="normal" font-weight="normal" text-decoration="normal" x="966.7249755859375" y="212.90623474121094" text-anchor="end" dominant-baseline="text-after-edge">1</text><path fill="white" stroke="#505050" paint-order="fill stroke markers" d=" M 946.8594360351562 149.03436279296875 L 978.8594360351562 149.03436279296875 L 978.8594360351562 167.03436279296875 L 946.8594360351562 167.03436279296875 L 954.8594360351562 158.03436279296875 L 946.8594360351562 149.03436279296875" stroke-miterlimit="10" stroke-width="0.5" stroke-dasharray=""/><path fill="none" stroke="#505050" paint-order="fill stroke markers" d=" M 970.8594360351562 154.03436279296875 L 978.8594360351562 154.03436279296875 L 978.8594360351562 162.03436279296875 L 970.8594360351562 162.03436279296875 L 970.8594360351562 154.03436279296875 Z" stroke-miterlimit="10" stroke-width="0.5" stroke-dasharray=""/><text fill="#505050" stroke="none" font-family="monospace" font-size="14px" font-style="normal" font-weight="normal" text-decoration="normal" x="962.8594360351562" y="167.03436279296875" text-anchor="end" dominant-baseline="text-after-edge">x</text><path fill="none" stroke="#505050" paint-order="fill stroke markers" d=" M 604.8125549256802 286.3187561035156 C 620.2392690429912 286.3187561035156 639.1296654393449 299.34999227523804 654.5563795566559 299.34999227523804" stroke-miterlimit="10" stroke-dasharray=""/><path fill="none" stroke="#505050" paint-order="fill stroke markers" d=" M 594.2969604432583 239.79376220703125 C 617.3263185523457 239.79376220703125 631.5270214475685 287.34999227523804 654.5563795566559 287.34999227523804" stroke-miterlimit="10" stroke-dasharray=""/><path fill="none" stroke="#505050" paint-order="fill stroke markers" d=" M 594.2969604432583 239.79376220703125 C 609.1580476942607 239.79376220703125 626.3358403858593 223.84687423706055 641.1969276368618 223.84687423706055" stroke-miterlimit="10" stroke-dasharray=""/><path fill="none" stroke="#505050" paint-order="fill stroke markers" d=" M 594.2969604432583 239.79376220703125 C 610.6755193632929 239.79376220703125 624.8183687168272 211.84687423706055 641.1969276368618 211.84687423706055" stroke-miterlimit="10" stroke-dasharray=""/><path fill="none" stroke="#505050" paint-order="fill stroke markers" d=" M 610.6938587129116 184.73748779296875 C 621.6420670236545 184.73748779296875 616.6362658654256 152.38750839233398 627.5844741761684 152.38750839233398" stroke-miterlimit="10" stroke-dasharray=""/><path fill="none" stroke="#505050" paint-order="fill stroke markers" d=" M 620.2563472688198 74.18438720703125 C 640.2385874554993 74.18438720703125 607.6022339894889 140.38750839233398 627.5844741761684 140.38750839233398" stroke-miterlimit="10" stroke-dasharray=""/><path fill="none" stroke="#505050" paint-order="fill stroke markers" d=" M 651.5844741761684 140.38750839233398 C 669.5497262653927 140.38750839233398 693.5004215958496 140.9843306541443 711.4656736850739 140.9843306541443" stroke-miterlimit="10" stroke-dasharray=""/><path fill="none" stroke="#505050" paint-order="fill stroke markers" d=" M 751.4656736850739 139.9843306541443 C 776.0460268841007 139.9843306541443 806.9210565700314 157.52129125595093 831.5014097690582 157.52129125595093" stroke-miterlimit="10" stroke-dasharray=""/><path fill="none" stroke="#505050" paint-order="fill stroke markers" d=" M 768.6844847202301 219.8781294822693 C 792.8373303204229 219.8781294822693 807.3485641688654 169.52129125595093 831.5014097690582 169.52129125595093" stroke-miterlimit="10" stroke-dasharray=""/><path fill="none" stroke="#505050" paint-order="fill stroke markers" d=" M 651.5844741761684 140.38750839233398 C 685.0222320830679 140.38750839233398 695.2467268133306 220.8781294822693 728.6844847202301 220.8781294822693" stroke-miterlimit="10" stroke-dasharray=""/><path fill="none" stroke="#505050" paint-order="fill stroke markers" d=" M 604.8125549256802 286.3187561035156 C 686.8256099575715 286.3187561035156 749.4883547371669 133.52129125595093 831.5014097690582 133.52129125595093" stroke-miterlimit="10" stroke-dasharray=""/><path fill="none" stroke="#505050" paint-order="fill stroke markers" d=" M 855.5014097690582 121.52129125595093 C 864.6339029604914 121.52129125595093 874.7417498295782 132.55197668075562 883.8742430210114 132.55197668075562" stroke-miterlimit="10" stroke-dasharray=""/><path fill="none" stroke="#505050" paint-order="fill stroke markers" d=" M 620.2563472688198 74.18438720703125 C 639.4699630276526 74.18438720703125 665.0864924355184 74.64060735702515 684.3001081943512 74.64060735702515" stroke-miterlimit="10" stroke-dasharray=""/><path fill="none" stroke="#505050" paint-order="fill stroke markers" d=" M 726.3001081943512 74.64060735702515 C 760.8523890716813 74.64060735702515 796.9491288917282 121.52129125595093 831.5014097690582 121.52129125595093" stroke-miterlimit="10" stroke-dasharray=""/><path fill="none" stroke="#505050" paint-order="fill stroke markers" d=" M 620.2563472688198 74.18438720703125 C 642.8423917984278 74.18438720703125 661.6139354909151 113.92500066757202 684.1999800205231 113.92500066757202" stroke-miterlimit="10" stroke-dasharray=""/><path fill="none" stroke="#505050" paint-order="fill stroke markers" d=" M 726.1999800205231 113.92500066757202 C 759.1818614365792 113.92500066757202 798.5195283530021 145.52129125595093 831.5014097690582 145.52129125595093" stroke-miterlimit="10" stroke-dasharray=""/><path fill="none" stroke="#505050" paint-order="fill stroke markers" d=" M 665.1969276368618 211.84687423706055 C 687.1894971803092 211.84687423706055 689.4731041416264 154.9843306541443 711.4656736850739 154.9843306541443" stroke-miterlimit="10" stroke-dasharray=""/><path fill="none" stroke="#505050" paint-order="fill stroke markers" d=" M 665.1969276368618 211.84687423706055 C 685.4577216991031 211.84687423706055 708.4236906579888 234.8781294822693 728.6844847202301 234.8781294822693" stroke-miterlimit="10" stroke-dasharray=""/><path fill="none" stroke="#505050" paint-order="fill stroke markers" d=" M 678.5563795566559 287.34999227523804 C 715.4130022206047 287.34999227523804 674.6090510211251 168.9843306541443 711.4656736850739 168.9843306541443" stroke-miterlimit="10" stroke-dasharray=""/><path fill="none" stroke="#505050" paint-order="fill stroke markers" d=" M 678.5563795566559 287.34999227523804 C 697.5132253877698 287.34999227523804 709.7276388891162 248.8781294822693 728.6844847202301 248.8781294822693" stroke-miterlimit="10" stroke-dasharray=""/><path fill="none" stroke="#505050" paint-order="fill stroke markers" d=" M 399.3187391757965 148.20317220687866 C 402.4413082273191 148.20317220687866 406.53677681372704 149.39062643051147 409.65934586524963 149.39062643051147" stroke-miterlimit="10" stroke-dasharray=""/><path fill="none" stroke="#505050" paint-order="fill stroke markers" d=" M 365.51254296302795 168.8469214439392 C 369.43412805751274 168.8469214439392 371.3971540813117 160.20317220687866 375.3187391757965 160.20317220687866" stroke-miterlimit="10" stroke-dasharray=""/><path fill="none" stroke="#505050" paint-order="fill stroke markers" d=" M 353.2750380039215 142.1625075340271 C 360.13195386996716 142.1625075340271 368.46182330975086 148.20317220687866 375.3187391757965 148.20317220687866" stroke-miterlimit="10" stroke-dasharray=""/><path fill="none" stroke="#505050" paint-order="fill stroke markers" d=" M 389.83437943458557 63.36876440048218 C 393.3688981774697 63.36876440048218 398.08111069170144 63.26250982284546 401.61562943458557 63.26250982284546" stroke-miterlimit="10" stroke-dasharray=""/><path fill="none" stroke="#505050" paint-order="fill stroke markers" d=" M 348.83437943458557 76.36876440048218 C 353.64374529714996 76.36876440048218 360.0250135720212 75.36876440048218 364.83437943458557 75.36876440048218" stroke-miterlimit="10" stroke-dasharray=""/><path fill="none" stroke="#505050" paint-order="fill stroke markers" d=" M 342.16874527931213 48.11876440048218 C 350.3642570052181 48.11876440048218 356.6388677086796 63.36876440048218 364.83437943458557 63.36876440048218" stroke-miterlimit="10" stroke-dasharray=""/><path fill="none" stroke="#505050" paint-order="fill stroke markers" d=" M 340.7687530517578 282.23435974121094 C 361.2422872850794 282.23435974121094 379.5858529737097 316.02809143066406 400.05938720703125 316.02809143066406" stroke-miterlimit="10" stroke-dasharray=""/><path fill="none" stroke="#505050" paint-order="fill stroke markers" d=" M 341.04688262939453 260.31561279296875 C 363.07852087229173 260.31561279296875 378.02774896413405 304.02809143066406 400.05938720703125 304.02809143066406" stroke-miterlimit="10" stroke-dasharray=""/><path fill="none" stroke="#505050" paint-order="fill stroke markers" d=" M 341.7093811035156 376.328125 C 348.676662877407 376.328125 350.8327365366555 359.58123779296875 357.8000183105469 359.58123779296875" stroke-miterlimit="10" stroke-dasharray=""/><path fill="none" stroke="#505050" paint-order="fill stroke markers" d=" M 342.26251220703125 315.8874816894531 C 349.78801759101304 315.8874816894531 350.2745129265651 335.58123779296875 357.8000183105469 335.58123779296875" stroke-miterlimit="10" stroke-dasharray=""/><path fill="none" stroke="#505050" paint-order="fill stroke markers" d=" M 381.8000183105469 335.58123779296875 C 387.7279953282273 335.58123779296875 394.13141018935085 328.02809143066406 400.05938720703125 328.02809143066406" stroke-miterlimit="10" stroke-dasharray=""/><path fill="none" stroke="#505050" paint-order="fill stroke markers" d=" M 339.37500762939453 341.58123779296875 C 345.1882074086944 341.58123779296875 351.986818531247 347.58123779296875 357.8000183105469 347.58123779296875" stroke-miterlimit="10" stroke-dasharray=""/><path fill="none" stroke="#505050" paint-order="fill stroke markers" d=" M 424.05938720703125 304.02809143066406 C 427.36244092530006 304.02809143066406 431.7641154711843 304.25782775878906 435.0671691894531 304.25782775878906" stroke-miterlimit="10" stroke-dasharray=""/><path fill="none" stroke="#505050" paint-order="fill stroke markers" d=" M 1066.003173828125 160.69998168945312 C 1070.803173828125 160.69998168945312 1077.203173828125 160.69998168945312 1082.003173828125 160.69998168945312" stroke-miterlimit="10" stroke-dasharray=""/><path fill="none" stroke="#505050" paint-order="fill stroke markers" d=" M 982.7249755859375 203.90623474121094 C 996.3900334415581 203.90623474121094 1012.3381159725044 189.69998168945312 1026.003173828125 189.69998168945312" stroke-miterlimit="10" stroke-dasharray=""/><path fill="none" stroke="#505050" paint-order="fill stroke markers" d=" M 978.8594360351562 158.03436279296875 C 993.9628975380012 158.03436279296875 1010.89971232528 175.69998168945312 1026.003173828125 175.69998168945312" stroke-miterlimit="10" stroke-dasharray=""/><path fill="none" stroke="#505050" paint-order="fill stroke markers" d=" M 981.9906616210938 180.24061584472656 C 996.3181551600502 180.24061584472656 1011.6756802891686 161.69998168945312 1026.003173828125 161.69998168945312" stroke-miterlimit="10" stroke-dasharray=""/></g></g></svg>