<svg version="1.1" xmlns="http://www.w3.org/2000/svg" xmlns:xlink="http://www.w3.org/1999/xlink" width="994.1719551086426" height="489.37497329711914"><defs/><g transform="translate(-164.26562118530273,-40.55940628051758)"><g><path fill="white" stroke="#505050" paint-order="fill stroke markers" d=" M 405.0626220703125 49.55940628051758 L 405.0626220703125 220.81564712524414 Q 405.0626220703125 228.81564712524414 413.0626220703125 228.81564712524414 L 810.1157379150391 228.81564712524414 Q 818.1157379150391 228.81564712524414 818.1157379150391 220.81564712524414 L 818.1157379150391 49.55940628051758 Q 818.1157379150391 41.55940628051758 810.1157379150391 41.55940628051758 L 413.0626220703125 41.55940628051758 Q 405.0626220703125 41.55940628051758 405.0626220703125 49.55940628051758" stroke-miterlimit="10" stroke-width="0.5" stroke-dasharray=""/><path fill="#F0F0F0" stroke="#505050" paint-order="fill stroke markers" d=" M 737.1157379150391 174.81564712524414 L 810.1157379150391 174.81564712524414 L 810.1157379150391 220.81564712524414 L 737.1157379150391 220.81564712524414 L 737.1157379150391 174.81564712524414 Z" stroke-miterlimit="10" stroke-width="0.5" stroke-dasharray=""/><text fill="#505050" stroke="none" font-family="monospace" font-size="14px" font-style="normal" font-weight="normal" text-decoration="normal" x="773.6157379150391" y="192.81564712524414" text-anchor="middle" dominant-baseline="text-after-edge">facstep</text><path fill="none" stroke="#505050" paint-order="fill stroke markers" d=" M 737.1157379150391 193.81564712524414 L 745.1157379150391 193.81564712524414 L 745.1157379150391 201.81564712524414 L 737.1157379150391 201.81564712524414 L 737.1157379150391 193.81564712524414 Z" stroke-miterlimit="10" stroke-width="0.5" stroke-dasharray=""/><text fill="#505050" stroke="none" font-family="monospace" font-size="14px" font-style="normal" font-weight="normal" text-decoration="normal" x="753.1157379150391" y="206.81564712524414" text-anchor="start" dominant-baseline="text-after-edge">n</text><path fill="none" stroke="#505050" paint-order="fill stroke markers" d=" M 737.1157379150391 207.81564712524414 L 745.1157379150391 207.81564712524414 L 745.1157379150391 215.81564712524414 L 737.1157379150391 215.81564712524414 L 737.1157379150391 207.81564712524414 Z" stroke-miterlimit="10" stroke-width="0.5" stroke-dasharray=""/><text fill="#505050" stroke="none" font-family="monospace" font-size="14px" font-style="normal" font-weight="normal" text-decoration="normal" x="753.1157379150391" y="220.81564712524414" text-anchor="start" dominant-baseline="text-after-edge">acc</text><path fill="none" stroke="#505050" paint-order="fill stroke markers" d=" M 802.1157379150391 192.81564712524414 L 810.1157379150391 192.81564712524414 L 810.1157379150391 200.81564712524414 L 802.1157379150391 200.81564712524414 L 802.1157379150391 192.81564712524414 Z" stroke-miterlimit="10" stroke-width="0.5" stroke-dasharray=""/><path fill="white" stroke="#505050" paint-order="fill stroke markers" d=" M 660.4688873291016 76.3469009399414 L 692.4688873291016 76.3469009399414 L 692.4688873291016 130.3469009399414 L 660.4688873291016 130.3469009399414 L 660.4688873291016 76.3469009399414 Z" stroke-miterlimit="10" stroke-width="0.5" stroke-dasharray=""/><text fill="#505050" stroke="none" font-family="monospace" font-size="14px" font-style="normal" font-weight="normal" text-decoration="normal" x="676.4688873291016" y="94.3469009399414" text-anchor="middle" dominant-baseline="text-after-edge">?</text><path fill="none" stroke="#505050" paint-order="fill stroke markers" d=" M 660.4688873291016 94.3469009399414 L 668.4688873291016 94.3469009399414 L 668.4688873291016 102.3469009399414 L 660.4688873291016 102.3469009399414 L 660.4688873291016 94.3469009399414 Z" stroke-miterlimit="10" stroke-width="0.5" stroke-dasharray=""/><path fill="none" stroke="#505050" paint-order="fill stroke markers" d=" M 660.4688873291016 106.3469009399414 L 668.4688873291016 106.3469009399414 L 668.4688873291016 114.3469009399414 L 660.4688873291016 114.3469009399414 L 660.4688873291016 106.3469009399414 Z" stroke-miterlimit="10" stroke-width="0.5" stroke-dasharray=""/><path fill="none" stroke="#505050" paint-order="fill stroke markers" d=" M 660.4688873291016 118.3469009399414 L 668.4688873291016 118.3469009399414 L 668.4688873291016 126.3469009399414 L 660.4688873291016 126.3469009399414 L 660.4688873291016 118.3469009399414 Z" stroke-miterlimit="10" stroke-width="0.5" stroke-dasharray=""/><path fill="none" stroke="#505050" paint-order="fill stroke markers" d=" M 684.4688873291016 94.3469009399414 L 692.4688873291016 94.3469009399414 L 692.4688873291016 102.3469009399414 L 684.4688873291016 102.3469009399414 L 684.4688873291016 94.3469009399414 Z" stroke-miterlimit="10" stroke-width="0.5" stroke-dasharray=""/><path fill="white" stroke="#505050" paint-order="fill stroke markers" d=" M 713.1157379150391 78.80316162109375 L 721.1157379150391 78.80316162109375 L 729.1157379150391 86.80316162109375 L 721.1157379150391 94.80316162109375 L 713.1157379150391 94.80316162109375 L 713.1157379150391 78.80316162109375" stroke-miterlimit="10" stroke-width="0.5" stroke-dasharray=""/><path fill="none" stroke="#505050" paint-order="fill stroke markers" d=" M 713.1157379150391 82.80316162109375 L 721.1157379150391 82.80316162109375 L 721.1157379150391 90.80316162109375 L 713.1157379150391 90.80316162109375 L 713.1157379150391 82.80316162109375 Z" stroke-miterlimit="10" stroke-width="0.5" stroke-dasharray=""/><path fill="white" stroke="#505050" paint-order="fill stroke markers" d=" M 527.9938888549805 166.18127822875977 L 559.9938888549805 166.18127822875977 L 559.9938888549805 208.18127822875977 L 527.9938888549805 208.18127822875977 L 527.9938888549805 166.18127822875977 Z" stroke-miterlimit="10" stroke-width="0.5" stroke-dasharray=""/><text fill="#505050" stroke="none" font-family="monospace" font-size="14px" font-style="normal" font-weight="normal" text-decoration="normal" x="543.9938888549805" y="184.18127822875977" text-anchor="middle" dominant-baseline="text-after-edge">*</text><path fill="none" stroke="#505050" paint-order="fill stroke markers" d=" M 527.9938888549805 184.18127822875977 L 535.9938888549805 184.18127822875977 L 535.9938888549805 192.18127822875977 L 527.9938888549805 192.18127822875977 L 527.9938888549805 184.18127822875977 Z" stroke-miterlimit="10" stroke-width="0.5" stroke-dasharray=""/><path fill="none" stroke="#505050" paint-order="fill stroke markers" d=" M 527.9938888549805 196.18127822875977 L 535.9938888549805 196.18127822875977 L 535.9938888549805 204.18127822875977 L 527.9938888549805 204.18127822875977 L 527.9938888549805 196.18127822875977 Z" stroke-miterlimit="10" stroke-width="0.5" stroke-dasharray=""/><path fill="none" stroke="#505050" paint-order="fill stroke markers" d=" M 551.9938888549805 184.18127822875977 L 559.9938888549805 184.18127822875977 L 559.9938888549805 192.18127822875977 L 551.9938888549805 192.18127822875977 L 551.9938888549805 184.18127822875977 Z" stroke-miterlimit="10" stroke-width="0.5" stroke-dasharray=""/><path fill="white" stroke="#505050" paint-order="fill stroke markers" d=" M 419.7845458984375 139.09689903259277 L 476.7845458984375 139.09689903259277 L 476.7845458984375 157.09689903259277 L 419.7845458984375 157.09689903259277 L 427.7845458984375 148.09689903259277 L 419.7845458984375 139.09689903259277" stroke-miterlimit="10" stroke-width="0.5" stroke-dasharray=""/><path fill="none" stroke="#505050" paint-order="fill stroke markers" d=" M 468.7845458984375 144.09689903259277 L 476.7845458984375 144.09689903259277 L 476.7845458984375 152.09689903259277 L 468.7845458984375 152.09689903259277 L 468.7845458984375 144.09689903259277 Z" stroke-miterlimit="10" stroke-width="0.5" stroke-dasharray=""/><text fill="#505050" stroke="none" font-family="monospace" font-size="14px" font-style="normal" font-weight="normal" text-decoration="normal" x="460.7845458984375" y="157.09689903259277" text-anchor="end" dominant-baseline="text-after-edge">acc</text><path fill="white" stroke="#505050" paint-order="fill stroke markers" d=" M 422.1907958984375 93.43440818786621 L 462.1907958984375 93.43440818786621 L 462.1907958984375 111.43440818786621 L 422.1907958984375 111.43440818786621 L 430.1907958984375 102.43440818786621 L 422.1907958984375 93.43440818786621" stroke-miterlimit="10" stroke-width="0.5" stroke-dasharray=""/><path fill="none" stroke="#505050" paint-order="fill stroke markers" d=" M 454.1907958984375 98.43440818786621 L 462.1907958984375 98.43440818786621 L 462.1907958984375 106.43440818786621 L 454.1907958984375 106.43440818786621 L 454.1907958984375 98.43440818786621 Z" stroke-miterlimit="10" stroke-width="0.5" stroke-dasharray=""/><text fill="#505050" stroke="none" font-family="monospace" font-size="14px" font-style="normal" font-weight="normal" text-decoration="normal" x="446.1907958984375" y="111.43440818786621" text-anchor="end" dominant-baseline="text-after-edge">n</text><path fill="white" stroke="#505050" paint-order="fill stroke markers" d=" M 566.3376693725586 57.328163146972656 L 598.3376693725586 57.328163146972656 L 598.3376693725586 99.32816314697266 L 566.3376693725586 99.32816314697266 L 566.3376693725586 57.328163146972656 Z" stroke-miterlimit="10" stroke-width="0.5" stroke-dasharray=""/><text fill="#505050" stroke="none" font-family="monospace" font-size="14px" font-style="normal" font-weight="normal" text-decoration="normal" x="582.3376693725586" y="75.32816314697266" text-anchor="middle" dominant-baseline="text-after-edge">&lt;=</text><path fill="none" stroke="#505050" paint-order="fill stroke markers" d=" M 566.3376693725586 75.32816314697266 L 574.3376693725586 75.32816314697266 L 574.3376693725586 83.32816314697266 L 566.3376693725586 83.32816314697266 L 566.3376693725586 75.32816314697266 Z" stroke-miterlimit="10" stroke-width="0.5" stroke-dasharray=""/><path fill="none" stroke="#505050" paint-order="fill stroke markers" d=" M 566.3376693725586 87.32816314697266 L 574.3376693725586 87.32816314697266 L 574.3376693725586 95.32816314697266 L 566.3376693725586 95.32816314697266 L 566.3376693725586 87.32816314697266 Z" stroke-miterlimit="10" stroke-width="0.5" stroke-dasharray=""/><path fill="none" stroke="#505050" paint-order="fill stroke markers" d=" M 590.3376693725586 75.32816314697266 L 598.3376693725586 75.32816314697266 L 598.3376693725586 83.32816314697266 L 590.3376693725586 83.32816314697266 L 590.3376693725586 75.32816314697266 Z" stroke-miterlimit="10" stroke-width="0.5" stroke-dasharray=""/><path fill="white" stroke="#505050" paint-order="fill stroke markers" d=" M 508.8939018249512 99.33753967285156 L 548.8939018249512 99.33753967285156 L 548.8939018249512 117.33753967285156 L 508.8939018249512 117.33753967285156 L 508.8939018249512 99.33753967285156 Z" stroke-miterlimit="10" stroke-width="0.5" stroke-dasharray=""/><path fill="none" stroke="#505050" paint-order="fill stroke markers" d=" M 540.8939018249512 104.33753967285156 L 548.8939018249512 104.33753967285156 L 548.8939018249512 112.33753967285156 L 540.8939018249512 112.33753967285156 L 540.8939018249512 104.33753967285156 Z" stroke-miterlimit="10" stroke-width="0.5" stroke-dasharray=""/><text fill="#505050" stroke="none" font-family="monospace" font-size="14px" font-style="normal" font-weight="normal" text-decoration="normal" x="532.8939018249512" y="117.33753967285156" text-anchor="end" dominant-baseline="text-after-edge">1</text><path fill="white" stroke="#505050" paint-order="fill stroke markers" d=" M 620.7939605712891 166.81564712524414 L 693.7939605712891 166.81564712524414 L 693.7939605712891 212.81564712524414 L 620.7939605712891 212.81564712524414 L 620.7939605712891 166.81564712524414 Z" stroke-miterlimit="10" stroke-width="0.5" stroke-dasharray=""/><text fill="#505050" stroke="none" font-family="monospace" font-size="14px" font-style="normal" font-weight="normal" text-decoration="normal" x="657.2939605712891" y="184.81564712524414" text-anchor="middle" dominant-baseline="text-after-edge">facstep</text><path fill="none" stroke="#505050" paint-order="fill stroke markers" d=" M 620.7939605712891 185.81564712524414 L 628.7939605712891 185.81564712524414 L 628.7939605712891 193.81564712524414 L 620.7939605712891 193.81564712524414 L 620.7939605712891 185.81564712524414 Z" stroke-miterlimit="10" stroke-width="0.5" stroke-dasharray=""/><text fill="#505050" stroke="none" font-family="monospace" font-size="14px" font-style="normal" font-weight="normal" text-decoration="normal" x="636.7939605712891" y="198.81564712524414" text-anchor="start" dominant-baseline="text-after-edge">n</text><path fill="none" stroke="#505050" paint-order="fill stroke markers" d=" M 620.7939605712891 199.81564712524414 L 628.7939605712891 199.81564712524414 L 628.7939605712891 207.81564712524414 L 620.7939605712891 207.81564712524414 L 620.7939605712891 199.81564712524414 Z" stroke-miterlimit="10" stroke-width="0.5" stroke-dasharray=""/><text fill="#505050" stroke="none" font-family="monospace" font-size="14px" font-style="normal" font-weight="normal" text-decoration="normal" x="636.7939605712891" y="212.81564712524414" text-anchor="start" dominant-baseline="text-after-edge">acc</text><path fill="none" stroke="#505050" paint-order="fill stroke markers" d=" M 685.7939605712891 184.81564712524414 L 693.7939605712891 184.81564712524414 L 693.7939605712891 192.81564712524414 L 685.7939605712891 192.81564712524414 L 685.7939605712891 184.81564712524414 Z" stroke-miterlimit="10" stroke-width="0.5" stroke-dasharray=""/><path fill="white" stroke="#505050" paint-order="fill stroke markers" d=" M 568.6656150817871 139.03125762939453 L 600.6656150817871 139.03125762939453 L 600.6656150817871 169.03125762939453 L 568.6656150817871 169.03125762939453 L 568.6656150817871 139.03125762939453 Z" stroke-miterlimit="10" stroke-width="0.5" stroke-dasharray=""/><text fill="#505050" stroke="none" font-family="monospace" font-size="14px" font-style="normal" font-weight="normal" text-decoration="normal" x="584.6656150817871" y="157.03125762939453" text-anchor="middle" dominant-baseline="text-after-edge">-1</text><path fill="none" stroke="#505050" paint-order="fill stroke markers" d=" M 568.6656150817871 157.03125762939453 L 576.6656150817871 157.03125762939453 L 576.6656150817871 165.03125762939453 L 568.6656150817871 165.03125762939453 L 568.6656150817871 157.03125762939453 Z" stroke-miterlimit="10" stroke-width="0.5" stroke-dasharray=""/><path fill="none" stroke="#505050" paint-order="fill stroke markers" d=" M 592.6656150817871 157.03125762939453 L 600.6656150817871 157.03125762939453 L 600.6656150817871 165.03125762939453 L 592.6656150817871 165.03125762939453 L 592.6656150817871 157.03125762939453 Z" stroke-miterlimit="10" stroke-width="0.5" stroke-dasharray=""/><path fill="white" stroke="#505050" paint-order="fill stroke markers" d=" M 165.26562118530273 232.0156478881836 L 165.26562118530273 297.7656478881836 Q 165.26562118530273 305.7656478881836 173.26562118530273 305.7656478881836 L 351.70312118530273 305.7656478881836 Q 359.70312118530273 305.7656478881836 359.70312118530273 297.7656478881836 L 359.70312118530273 232.0156478881836 Q 359.70312118530273 224.0156478881836 351.70312118530273 224.0156478881836 L 173.26562118530273 224.0156478881836 Q 165.26562118530273 224.0156478881836 165.26562118530273 232.0156478881836" stroke-miterlimit="10" stroke-width="0.5" stroke-dasharray=""/><path fill="#F0F0F0" stroke="#505050" paint-order="fill stroke markers" d=" M 319.70312118530273 267.7656478881836 L 351.70312118530273 267.7656478881836 L 351.70312118530273 297.7656478881836 L 319.70312118530273 297.7656478881836 L 319.70312118530273 267.7656478881836 Z" stroke-miterlimit="10" stroke-width="0.5" stroke-dasharray=""/><text fill="#505050" stroke="none" font-family="monospace" font-size="14px" font-style="normal" font-weight="normal" text-decoration="normal" x="335.70312118530273" y="285.7656478881836" text-anchor="middle" dominant-baseline="text-after-edge">-1</text><path fill="none" stroke="#505050" paint-order="fill stroke markers" d=" M 319.70312118530273 285.7656478881836 L 327.70312118530273 285.7656478881836 L 327.70312118530273 293.7656478881836 L 319.70312118530273 293.7656478881836 L 319.70312118530273 285.7656478881836 Z" stroke-miterlimit="10" stroke-width="0.5" stroke-dasharray=""/><path fill="none" stroke="#505050" paint-order="fill stroke markers" d=" M 343.70312118530273 285.7656478881836 L 351.70312118530273 285.7656478881836 L 351.70312118530273 293.7656478881836 L 343.70312118530273 293.7656478881836 L 343.70312118530273 285.7656478881836 Z" stroke-miterlimit="10" stroke-width="0.5" stroke-dasharray=""/><path fill="white" stroke="#505050" paint-order="fill stroke markers" d=" M 231.70312118530273 232.0156478881836 L 263.70312118530273 232.0156478881836 L 263.70312118530273 274.0156478881836 L 231.70312118530273 274.0156478881836 L 231.70312118530273 232.0156478881836 Z" stroke-miterlimit="10" stroke-width="0.5" stroke-dasharray=""/><text fill="#505050" stroke="none" font-family="monospace" font-size="14px" font-style="normal" font-weight="normal" text-decoration="normal" x="247.70312118530273" y="250.0156478881836" text-anchor="middle" dominant-baseline="text-after-edge">-</text><path fill="none" stroke="#505050" paint-order="fill stroke markers" d=" M 231.70312118530273 250.0156478881836 L 239.70312118530273 250.0156478881836 L 239.70312118530273 258.0156478881836 L 231.70312118530273 258.0156478881836 L 231.70312118530273 250.0156478881836 Z" stroke-miterlimit="10" stroke-width="0.5" stroke-dasharray=""/><path fill="none" stroke="#505050" paint-order="fill stroke markers" d=" M 231.70312118530273 262.0156478881836 L 239.70312118530273 262.0156478881836 L 239.70312118530273 270.0156478881836 L 231.70312118530273 270.0156478881836 L 231.70312118530273 262.0156478881836 Z" stroke-miterlimit="10" stroke-width="0.5" stroke-dasharray=""/><path fill="none" stroke="#505050" paint-order="fill stroke markers" d=" M 255.70312118530273 250.0156478881836 L 263.70312118530273 250.0156478881836 L 263.70312118530273 258.0156478881836 L 255.70312118530273 258.0156478881836 L 255.70312118530273 250.0156478881836 Z" stroke-miterlimit="10" stroke-width="0.5" stroke-dasharray=""/><path fill="white" stroke="#505050" paint-order="fill stroke markers" d=" M 295.70312118530273 246.0156478881836 L 303.70312118530273 246.0156478881836 L 311.70312118530273 254.0156478881836 L 303.70312118530273 262.0156478881836 L 295.70312118530273 262.0156478881836 L 295.70312118530273 246.0156478881836" stroke-miterlimit="10" stroke-width="0.5" stroke-dasharray=""/><path fill="none" stroke="#505050" paint-order="fill stroke markers" d=" M 295.70312118530273 250.0156478881836 L 303.70312118530273 250.0156478881836 L 303.70312118530273 258.0156478881836 L 295.70312118530273 258.0156478881836 L 295.70312118530273 250.0156478881836 Z" stroke-miterlimit="10" stroke-width="0.5" stroke-dasharray=""/><path fill="white" stroke="#505050" paint-order="fill stroke markers" d=" M 168.78437423706055 271.7656478881836 L 208.78437423706055 271.7656478881836 L 208.78437423706055 289.7656478881836 L 168.78437423706055 289.7656478881836 L 168.78437423706055 271.7656478881836 Z" stroke-miterlimit="10" stroke-width="0.5" stroke-dasharray=""/><path fill="none" stroke="#505050" paint-order="fill stroke markers" d=" M 200.78437423706055 276.7656478881836 L 208.78437423706055 276.7656478881836 L 208.78437423706055 284.7656478881836 L 200.78437423706055 284.7656478881836 L 200.78437423706055 276.7656478881836 Z" stroke-miterlimit="10" stroke-width="0.5" stroke-dasharray=""/><text fill="#505050" stroke="none" font-family="monospace" font-size="14px" font-style="normal" font-weight="normal" text-decoration="normal" x="192.78437423706055" y="289.7656478881836" text-anchor="end" dominant-baseline="text-after-edge">1</text><path fill="white" stroke="#505050" paint-order="fill stroke markers" d=" M 183.70312118530273 246.0156478881836 L 199.70312118530273 246.0156478881836 L 199.70312118530273 262.0156478881836 L 183.70312118530273 262.0156478881836 L 191.70312118530273 254.0156478881836 L 183.70312118530273 246.0156478881836" stroke-miterlimit="10" stroke-width="0.5" stroke-dasharray=""/><path fill="none" stroke="#505050" paint-order="fill stroke markers" d=" M 191.70312118530273 250.0156478881836 L 199.70312118530273 250.0156478881836 L 199.70312118530273 258.0156478881836 L 191.70312118530273 258.0156478881836 L 191.70312118530273 250.0156478881836 Z" stroke-miterlimit="10" stroke-width="0.5" stroke-dasharray=""/><path fill="white" stroke="#505050" paint-order="fill stroke markers" d=" M 859.1281890869141 94.94061660766602 L 859.1281890869141 159.45001602172852 Q 859.1281890869141 167.45001602172852 867.1281890869141 167.45001602172852 L 1078.2188262939453 167.45001602172852 Q 1086.2188262939453 167.45001602172852 1086.2188262939453 159.45001602172852 L 1086.2188262939453 94.94061660766602 Q 1086.2188262939453 86.94061660766602 1078.2188262939453 86.94061660766602 L 867.1281890869141 86.94061660766602 Q 859.1281890869141 86.94061660766602 859.1281890869141 94.94061660766602" stroke-miterlimit="10" stroke-width="0.5" stroke-dasharray=""/><path fill="#F0F0F0" stroke="#505050" paint-order="fill stroke markers" d=" M 1046.2188262939453 129.45001602172852 L 1078.2188262939453 129.45001602172852 L 1078.2188262939453 159.45001602172852 L 1046.2188262939453 159.45001602172852 L 1046.2188262939453 129.45001602172852 Z" stroke-miterlimit="10" stroke-width="0.5" stroke-dasharray=""/><text fill="#505050" stroke="none" font-family="monospace" font-size="14px" font-style="normal" font-weight="normal" text-decoration="normal" x="1062.2188262939453" y="147.45001602172852" text-anchor="middle" dominant-baseline="text-after-edge">n!</text><path fill="none" stroke="#505050" paint-order="fill stroke markers" d=" M 1046.2188262939453 147.45001602172852 L 1054.2188262939453 147.45001602172852 L 1054.2188262939453 155.45001602172852 L 1046.2188262939453 155.45001602172852 L 1046.2188262939453 147.45001602172852 Z" stroke-miterlimit="10" stroke-width="0.5" stroke-dasharray=""/><path fill="none" stroke="#505050" paint-order="fill stroke markers" d=" M 1070.2188262939453 147.45001602172852 L 1078.2188262939453 147.45001602172852 L 1078.2188262939453 155.45001602172852 L 1070.2188262939453 155.45001602172852 L 1070.2188262939453 147.45001602172852 Z" stroke-miterlimit="10" stroke-width="0.5" stroke-dasharray=""/><path fill="white" stroke="#505050" paint-order="fill stroke markers" d=" M 917.2188262939453 94.94061660766602 L 990.2188262939453 94.94061660766602 L 990.2188262939453 140.94061660766602 L 917.2188262939453 140.94061660766602 L 917.2188262939453 94.94061660766602 Z" stroke-miterlimit="10" stroke-width="0.5" stroke-dasharray=""/><text fill="#505050" stroke="none" font-family="monospace" font-size="14px" font-style="normal" font-weight="normal" text-decoration="normal" x="953.7188262939453" y="112.94061660766602" text-anchor="middle" dominant-baseline="text-after-edge">facstep</text><path fill="none" stroke="#505050" paint-order="fill stroke markers" d=" M 917.2188262939453 113.94061660766602 L 925.2188262939453 113.94061660766602 L 925.2188262939453 121.94061660766602 L 917.2188262939453 121.94061660766602 L 917.2188262939453 113.94061660766602 Z" stroke-miterlimit="10" stroke-width="0.5" stroke-dasharray=""/><text fill="#505050" stroke="none" font-family="monospace" font-size="14px" font-style="normal" font-weight="normal" text-decoration="normal" x="933.2188262939453" y="126.94061660766602" text-anchor="start" dominant-baseline="text-after-edge">n</text><path fill="none" stroke="#505050" paint-order="fill stroke markers" d=" M 917.2188262939453 127.94061660766602 L 925.2188262939453 127.94061660766602 L 925.2188262939453 135.94061660766602 L 917.2188262939453 135.94061660766602 L 917.2188262939453 127.94061660766602 Z" stroke-miterlimit="10" stroke-width="0.5" stroke-dasharray=""/><text fill="#505050" stroke="none" font-family="monospace" font-size="14px" font-style="normal" font-weight="normal" text-decoration="normal" x="933.2188262939453" y="140.94061660766602" text-anchor="start" dominant-baseline="text-after-edge">acc</text><path fill="none" stroke="#505050" paint-order="fill stroke markers" d=" M 982.2188262939453 112.94061660766602 L 990.2188262939453 112.94061660766602 L 990.2188262939453 120.94061660766602 L 982.2188262939453 120.94061660766602 L 982.2188262939453 112.94061660766602 Z" stroke-miterlimit="10" stroke-width="0.5" stroke-dasharray=""/><path fill="white" stroke="#505050" paint-order="fill stroke markers" d=" M 1022.2188262939453 94.94061660766602 L 1030.2188262939453 94.94061660766602 L 1038.2188262939453 102.94061660766602 L 1030.2188262939453 110.94061660766602 L 1022.2188262939453 110.94061660766602 L 1022.2188262939453 94.94061660766602" stroke-miterlimit="10" stroke-width="0.5" stroke-dasharray=""/><path fill="none" stroke="#505050" paint-order="fill stroke markers" d=" M 1022.2188262939453 98.94061660766602 L 1030.2188262939453 98.94061660766602 L 1030.2188262939453 106.94061660766602 L 1022.2188262939453 106.94061660766602 L 1022.2188262939453 98.94061660766602 Z" stroke-miterlimit="10" stroke-width="0.5" stroke-dasharray=""/><path fill="white" stroke="#505050" paint-order="fill stroke markers" d=" M 864.5656890869141 133.45001602172852 L 904.5656890869141 133.45001602172852 L 904.5656890869141 151.45001602172852 L 864.5656890869141 151.45001602172852 L 864.5656890869141 133.45001602172852 Z" stroke-miterlimit="10" stroke-width="0.5" stroke-dasharray=""/><path fill="none" stroke="#505050" paint-order="fill stroke markers" d=" M 896.5656890869141 138.45001602172852 L 904.5656890869141 138.45001602172852 L 904.5656890869141 146.45001602172852 L 896.5656890869141 146.45001602172852 L 896.5656890869141 138.45001602172852 Z" stroke-miterlimit="10" stroke-width="0.5" stroke-dasharray=""/><text fill="#505050" stroke="none" font-family="monospace" font-size="14px" font-style="normal" font-weight="normal" text-decoration="normal" x="888.5656890869141" y="151.45001602172852" text-anchor="end" dominant-baseline="text-after-edge">1</text><path fill="white" stroke="#505050" paint-order="fill stroke markers" d=" M 869.2188262939453 95.94061660766602 L 885.2188262939453 95.94061660766602 L 885.2188262939453 111.94061660766602 L 869.2188262939453 111.94061660766602 L 877.2188262939453 103.94061660766602 L 869.2188262939453 95.94061660766602" stroke-miterlimit="10" stroke-width="0.5" stroke-dasharray=""/><path fill="none" stroke="#505050" paint-order="fill stroke markers" d=" M 877.2188262939453 99.94061660766602 L 885.2188262939453 99.94061660766602 L 885.2188262939453 107.94061660766602 L 877.2188262939453 107.94061660766602 L 877.2188262939453 99.94061660766602 Z" stroke-miterlimit="10" stroke-width="0.5" stroke-dasharray=""/><path fill="white" stroke="#505050" paint-order="fill stroke markers" d=" M 417.4969787597656 290.00627517700195 L 417.4969787597656 475.2625160217285 Q 417.4969787597656 483.2625160217285 425.4969787597656 483.2625160217285 L 829.5500946044922 483.2625160217285 Q 837.5500946044922 483.2625160217285 837.5500946044922 475.2625160217285 L 837.5500946044922 290.00627517700195 Q 837.5500946044922 282.00627517700195 829.5500946044922 282.00627517700195 L 425.4969787597656 282.00627517700195 Q 417.4969787597656 282.00627517700195 417.4969787597656 290.00627517700195" stroke-miterlimit="10" stroke-width="0.5" stroke-dasharray=""/><path fill="#F0F0F0" stroke="#505050" paint-order="fill stroke markers" d=" M 754.5500946044922 415.2625160217285 L 829.5500946044922 415.2625160217285 L 829.5500946044922 475.2625160217285 L 754.5500946044922 475.2625160217285 L 754.5500946044922 415.2625160217285 Z" stroke-miterlimit="10" stroke-width="0.5" stroke-dasharray=""/><text fill="#505050" stroke="none" font-family="monospace" font-size="14px" font-style="normal" font-weight="normal" text-decoration="normal" x="792.0500946044922" y="433.2625160217285" text-anchor="middle" dominant-baseline="text-after-edge">foldstep</text><path fill="none" stroke="#505050" paint-order="fill stroke markers" d=" M 754.5500946044922 434.2625160217285 L 762.5500946044922 434.2625160217285 L 762.5500946044922 442.2625160217285 L 754.5500946044922 442.2625160217285 L 754.5500946044922 434.2625160217285 Z" stroke-miterlimit="10" stroke-width="0.5" stroke-dasharray=""/><text fill="#505050" stroke="none" font-family="monospace" font-size="14px" font-style="normal" font-weight="normal" text-decoration="normal" x="770.5500946044922" y="447.2625160217285" text-anchor="start" dominant-baseline="text-after-edge">n</text><path fill="none" stroke="#505050" paint-order="fill stroke markers" d=" M 754.5500946044922 448.2625160217285 L 762.5500946044922 448.2625160217285 L 762.5500946044922 456.2625160217285 L 754.5500946044922 456.2625160217285 L 754.5500946044922 448.2625160217285 Z" stroke-miterlimit="10" stroke-width="0.5" stroke-dasharray=""/><text fill="#505050" stroke="none" font-family="monospace" font-size="14px" font-style="normal" font-weight="normal" text-decoration="normal" x="770.5500946044922" y="461.2625160217285" text-anchor="start" dominant-baseline="text-after-edge">acc</text><path fill="none" stroke="#505050" paint-order="fill stroke markers" d=" M 754.5500946044922 462.2625160217285 L 762.5500946044922 462.2625160217285 L 762.5500946044922 470.2625160217285 L 754.5500946044922 470.2625160217285 L 754.5500946044922 462.2625160217285 Z" stroke-miterlimit="10" stroke-width="0.5" stroke-dasharray=""/><text fill="#505050" stroke="none" font-family="monospace" font-size="14px" font-style="normal" font-weight="normal" text-decoration="normal" x="770.5500946044922" y="475.2625160217285" text-anchor="start" dominant-baseline="text-after-edge">f</text><path fill="none" stroke="#505050" paint-order="fill stroke markers" d=" M 821.5500946044922 433.2625160217285 L 829.5500946044922 433.2625160217285 L 829.5500946044922 441.2625160217285 L 821.5500946044922 441.2625160217285 L 821.5500946044922 433.2625160217285 Z" stroke-miterlimit="10" stroke-width="0.5" stroke-dasharray=""/><path fill="white" stroke="#505050" paint-order="fill stroke markers" d=" M 672.9032440185547 316.7937698364258 L 704.9032440185547 316.7937698364258 L 704.9032440185547 370.7937698364258 L 672.9032440185547 370.7937698364258 L 672.9032440185547 316.7937698364258 Z" stroke-miterlimit="10" stroke-width="0.5" stroke-dasharray=""/><text fill="#505050" stroke="none" font-family="monospace" font-size="14px" font-style="normal" font-weight="normal" text-decoration="normal" x="688.9032440185547" y="334.7937698364258" text-anchor="middle" dominant-baseline="text-after-edge">?</text><path fill="none" stroke="#505050" paint-order="fill stroke markers" d=" M 672.9032440185547 334.7937698364258 L 680.9032440185547 334.7937698364258 L 680.9032440185547 342.7937698364258 L 672.9032440185547 342.7937698364258 L 672.9032440185547 334.7937698364258 Z" stroke-miterlimit="10" stroke-width="0.5" stroke-dasharray=""/><path fill="none" stroke="#505050" paint-order="fill stroke markers" d=" M 672.9032440185547 346.7937698364258 L 680.9032440185547 346.7937698364258 L 680.9032440185547 354.7937698364258 L 672.9032440185547 354.7937698364258 L 672.9032440185547 346.7937698364258 Z" stroke-miterlimit="10" stroke-width="0.5" stroke-dasharray=""/><path fill="none" stroke="#505050" paint-order="fill stroke markers" d=" M 672.9032440185547 358.7937698364258 L 680.9032440185547 358.7937698364258 L 680.9032440185547 366.7937698364258 L 672.9032440185547 366.7937698364258 L 672.9032440185547 358.7937698364258 Z" stroke-miterlimit="10" stroke-width="0.5" stroke-dasharray=""/><path fill="none" stroke="#505050" paint-order="fill stroke markers" d=" M 696.9032440185547 334.7937698364258 L 704.9032440185547 334.7937698364258 L 704.9032440185547 342.7937698364258 L 696.9032440185547 342.7937698364258 L 696.9032440185547 334.7937698364258 Z" stroke-miterlimit="10" stroke-width="0.5" stroke-dasharray=""/><path fill="white" stroke="#505050" paint-order="fill stroke markers" d=" M 725.5500946044922 319.2500305175781 L 733.5500946044922 319.2500305175781 L 741.5500946044922 327.2500305175781 L 733.5500946044922 335.2500305175781 L 725.5500946044922 335.2500305175781 L 725.5500946044922 319.2500305175781" stroke-miterlimit="10" stroke-width="0.5" stroke-dasharray=""/><path fill="none" stroke="#505050" paint-order="fill stroke markers" d=" M 725.5500946044922 323.2500305175781 L 733.5500946044922 323.2500305175781 L 733.5500946044922 331.2500305175781 L 725.5500946044922 331.2500305175781 L 725.5500946044922 323.2500305175781 Z" stroke-miterlimit="10" stroke-width="0.5" stroke-dasharray=""/><path fill="white" stroke="#505050" paint-order="fill stroke markers" d=" M 432.2189025878906 379.54376792907715 L 489.2189025878906 379.54376792907715 L 489.2189025878906 397.54376792907715 L 432.2189025878906 397.54376792907715 L 440.2189025878906 388.54376792907715 L 432.2189025878906 379.54376792907715" stroke-miterlimit="10" stroke-width="0.5" stroke-dasharray=""/><path fill="none" stroke="#505050" paint-order="fill stroke markers" d=" M 481.2189025878906 384.54376792907715 L 489.2189025878906 384.54376792907715 L 489.2189025878906 392.54376792907715 L 481.2189025878906 392.54376792907715 L 481.2189025878906 384.54376792907715 Z" stroke-miterlimit="10" stroke-width="0.5" stroke-dasharray=""/><text fill="#505050" stroke="none" font-family="monospace" font-size="14px" font-style="normal" font-weight="normal" text-decoration="normal" x="473.2189025878906" y="397.54376792907715" text-anchor="end" dominant-baseline="text-after-edge">acc</text><path fill="white" stroke="#505050" paint-order="fill stroke markers" d=" M 434.6251525878906 333.8812770843506 L 474.6251525878906 333.8812770843506 L 474.6251525878906 351.8812770843506 L 434.6251525878906 351.8812770843506 L 442.6251525878906 342.8812770843506 L 434.6251525878906 333.8812770843506" stroke-miterlimit="10" stroke-width="0.5" stroke-dasharray=""/><path fill="none" stroke="#505050" paint-order="fill stroke markers" d=" M 466.6251525878906 338.8812770843506 L 474.6251525878906 338.8812770843506 L 474.6251525878906 346.8812770843506 L 466.6251525878906 346.8812770843506 L 466.6251525878906 338.8812770843506 Z" stroke-miterlimit="10" stroke-width="0.5" stroke-dasharray=""/><text fill="#505050" stroke="none" font-family="monospace" font-size="14px" font-style="normal" font-weight="normal" text-decoration="normal" x="458.6251525878906" y="351.8812770843506" text-anchor="end" dominant-baseline="text-after-edge">n</text><path fill="white" stroke="#505050" paint-order="fill stroke markers" d=" M 578.7720260620117 297.77503204345703 L 610.7720260620117 297.77503204345703 L 610.7720260620117 339.77503204345703 L 578.7720260620117 339.77503204345703 L 578.7720260620117 297.77503204345703 Z" stroke-miterlimit="10" stroke-width="0.5" stroke-dasharray=""/><text fill="#505050" stroke="none" font-family="monospace" font-size="14px" font-style="normal" font-weight="normal" text-decoration="normal" x="594.7720260620117" y="315.77503204345703" text-anchor="middle" dominant-baseline="text-after-edge">&lt;=</text><path fill="none" stroke="#505050" paint-order="fill stroke markers" d=" M 578.7720260620117 315.77503204345703 L 586.7720260620117 315.77503204345703 L 586.7720260620117 323.77503204345703 L 578.7720260620117 323.77503204345703 L 578.7720260620117 315.77503204345703 Z" stroke-miterlimit="10" stroke-width="0.5" stroke-dasharray=""/><path fill="none" stroke="#505050" paint-order="fill stroke markers" d=" M 578.7720260620117 327.77503204345703 L 586.7720260620117 327.77503204345703 L 586.7720260620117 335.77503204345703 L 578.7720260620117 335.77503204345703 L 578.7720260620117 327.77503204345703 Z" stroke-miterlimit="10" stroke-width="0.5" stroke-dasharray=""/><path fill="none" stroke="#505050" paint-order="fill stroke markers" d=" M 602.7720260620117 315.77503204345703 L 610.7720260620117 315.77503204345703 L 610.7720260620117 323.77503204345703 L 602.7720260620117 323.77503204345703 L 602.7720260620117 315.77503204345703 Z" stroke-miterlimit="10" stroke-width="0.5" stroke-dasharray=""/><path fill="white" stroke="#505050" paint-order="fill stroke markers" d=" M 521.3282585144043 339.78440856933594 L 561.3282585144043 339.78440856933594 L 561.3282585144043 357.78440856933594 L 521.3282585144043 357.78440856933594 L 521.3282585144043 339.78440856933594 Z" stroke-miterlimit="10" stroke-width="0.5" stroke-dasharray=""/><path fill="none" stroke="#505050" paint-order="fill stroke markers" d=" M 553.3282585144043 344.78440856933594 L 561.3282585144043 344.78440856933594 L 561.3282585144043 352.78440856933594 L 553.3282585144043 352.78440856933594 L 553.3282585144043 344.78440856933594 Z" stroke-miterlimit="10" stroke-width="0.5" stroke-dasharray=""/><text fill="#505050" stroke="none" font-family="monospace" font-size="14px" font-style="normal" font-weight="normal" text-decoration="normal" x="545.3282585144043" y="357.78440856933594" text-anchor="end" dominant-baseline="text-after-edge">1</text><path fill="white" stroke="#505050" paint-order="fill stroke markers" d=" M 633.2283172607422 407.2625160217285 L 708.2283172607422 407.2625160217285 L 708.2283172607422 467.2625160217285 L 633.2283172607422 467.2625160217285 L 633.2283172607422 407.2625160217285 Z" stroke-miterlimit="10" stroke-width="0.5" stroke-dasharray=""/><text fill="#505050" stroke="none" font-family="monospace" font-size="14px" font-style="normal" font-weight="normal" text-decoration="normal" x="670.7283172607422" y="425.2625160217285" text-anchor="middle" dominant-baseline="text-after-edge">foldstep</text><path fill="none" stroke="#505050" paint-order="fill stroke markers" d=" M 633.2283172607422 426.2625160217285 L 641.2283172607422 426.2625160217285 L 641.2283172607422 434.2625160217285 L 633.2283172607422 434.2625160217285 L 633.2283172607422 426.2625160217285 Z" stroke-miterlimit="10" stroke-width="0.5" stroke-dasharray=""/><text fill="#505050" stroke="none" font-family="monospace" font-size="14px" font-style="normal" font-weight="normal" text-decoration="normal" x="649.2283172607422" y="439.2625160217285" text-anchor="start" dominant-baseline="text-after-edge">n</text><path fill="none" stroke="#505050" paint-order="fill stroke markers" d=" M 633.2283172607422 440.2625160217285 L 641.2283172607422 440.2625160217285 L 641.2283172607422 448.2625160217285 L 633.2283172607422 448.2625160217285 L 633.2283172607422 440.2625160217285 Z" stroke-miterlimit="10" stroke-width="0.5" stroke-dasharray=""/><text fill="#505050" stroke="none" font-family="monospace" font-size="14px" font-style="normal" font-weight="normal" text-decoration="normal" x="649.2283172607422" y="453.2625160217285" text-anchor="start" dominant-baseline="text-after-edge">acc</text><path fill="none" stroke="#505050" paint-order="fill stroke markers" d=" M 633.2283172607422 454.2625160217285 L 641.2283172607422 454.2625160217285 L 641.2283172607422 462.2625160217285 L 633.2283172607422 462.2625160217285 L 633.2283172607422 454.2625160217285 Z" stroke-miterlimit="10" stroke-width="0.5" stroke-dasharray=""/><text fill="#505050" stroke="none" font-family="monospace" font-size="14px" font-style="normal" font-weight="normal" text-decoration="normal" x="649.2283172607422" y="467.2625160217285" text-anchor="start" dominant-baseline="text-after-edge">f</text><path fill="none" stroke="#505050" paint-order="fill stroke markers" d=" M 700.2283172607422 425.2625160217285 L 708.2283172607422 425.2625160217285 L 708.2283172607422 433.2625160217285 L 700.2283172607422 433.2625160217285 L 700.2283172607422 425.2625160217285 Z" stroke-miterlimit="10" stroke-width="0.5" stroke-dasharray=""/><path fill="white" stroke="#505050" paint-order="fill stroke markers" d=" M 587.5876426696777 378.32189178466797 L 619.5876426696777 378.32189178466797 L 619.5876426696777 408.32189178466797 L 587.5876426696777 408.32189178466797 L 587.5876426696777 378.32189178466797 Z" stroke-miterlimit="10" stroke-width="0.5" stroke-dasharray=""/><text fill="#505050" stroke="none" font-family="monospace" font-size="14px" font-style="normal" font-weight="normal" text-decoration="normal" x="603.5876426696777" y="396.32189178466797" text-anchor="middle" dominant-baseline="text-after-edge">-1</text><path fill="none" stroke="#505050" paint-order="fill stroke markers" d=" M 587.5876426696777 396.32189178466797 L 595.5876426696777 396.32189178466797 L 595.5876426696777 404.32189178466797 L 587.5876426696777 404.32189178466797 L 587.5876426696777 396.32189178466797 Z" stroke-miterlimit="10" stroke-width="0.5" stroke-dasharray=""/><path fill="none" stroke="#505050" paint-order="fill stroke markers" d=" M 611.5876426696777 396.32189178466797 L 619.5876426696777 396.32189178466797 L 619.5876426696777 404.32189178466797 L 611.5876426696777 404.32189178466797 L 611.5876426696777 396.32189178466797 Z" stroke-miterlimit="10" stroke-width="0.5" stroke-dasharray=""/><path fill="white" stroke="#505050" paint-order="fill stroke markers" d=" M 527.4188766479492 409.69690322875977 L 559.4188766479492 409.69690322875977 L 559.4188766479492 449.69690322875977 L 527.4188766479492 449.69690322875977 L 527.4188766479492 409.69690322875977 Z" stroke-miterlimit="10" stroke-width="0.5" stroke-dasharray=""/><path fill="none" stroke="#505050" paint-order="fill stroke markers" d=" M 527.4188766479492 413.69690322875977 L 535.4188766479492 413.69690322875977 L 535.4188766479492 421.69690322875977 L 527.4188766479492 421.69690322875977 L 527.4188766479492 413.69690322875977 Z" stroke-miterlimit="10" stroke-width="0.5" stroke-dasharray=""/><path fill="none" stroke="#505050" paint-order="fill stroke markers" d=" M 527.4188766479492 425.69690322875977 L 535.4188766479492 425.69690322875977 L 535.4188766479492 433.69690322875977 L 527.4188766479492 433.69690322875977 L 527.4188766479492 425.69690322875977 Z" stroke-miterlimit="10" stroke-width="0.5" stroke-dasharray=""/><path fill="none" stroke="#505050" paint-order="fill stroke markers" d=" M 551.4188766479492 413.69690322875977 L 559.4188766479492 413.69690322875977 L 559.4188766479492 421.69690322875977 L 551.4188766479492 421.69690322875977 L 551.4188766479492 413.69690322875977 Z" stroke-miterlimit="10" stroke-width="0.5" stroke-dasharray=""/><path fill="none" stroke="#505050" paint-order="fill stroke markers" d=" M 539.4188766479492 441.69690322875977 L 547.4188766479492 441.69690322875977 L 547.4188766479492 449.69690322875977 L 539.4188766479492 449.69690322875977 L 539.4188766479492 441.69690322875977 Z" stroke-miterlimit="10" stroke-width="0.5" stroke-dasharray=""/><path fill="white" stroke="#505050" paint-order="fill stroke markers" d=" M 446.06575775146484 428.646915435791 L 486.06575775146484 428.646915435791 L 486.06575775146484 446.646915435791 L 446.06575775146484 446.646915435791 L 454.06575775146484 437.646915435791 L 446.06575775146484 428.646915435791" stroke-miterlimit="10" stroke-width="0.5" stroke-dasharray=""/><path fill="none" stroke="#505050" paint-order="fill stroke markers" d=" M 478.06575775146484 433.646915435791 L 486.06575775146484 433.646915435791 L 486.06575775146484 441.646915435791 L 478.06575775146484 441.646915435791 L 478.06575775146484 433.646915435791 Z" stroke-miterlimit="10" stroke-width="0.5" stroke-dasharray=""/><text fill="#505050" stroke="none" font-family="monospace" font-size="14px" font-style="normal" font-weight="normal" text-decoration="normal" x="470.06575775146484" y="446.646915435791" text-anchor="end" dominant-baseline="text-after-edge">f</text><path fill="white" stroke="#505050" paint-order="fill stroke markers" d=" M 875.4875640869141 239.13750076293945 L 875.4875640869141 331.0749702453613 Q 875.4875640869141 339.0749702453613 883.4875640869141 339.0749702453613 L 1142.5782012939453 339.0749702453613 Q 1150.5782012939453 339.0749702453613 1150.5782012939453 331.0749702453613 L 1150.5782012939453 239.13750076293945 Q 1150.5782012939453 231.13750076293945 1142.5782012939453 231.13750076293945 L 883.4875640869141 231.13750076293945 Q 875.4875640869141 231.13750076293945 875.4875640869141 239.13750076293945" stroke-miterlimit="10" stroke-width="0.5" stroke-dasharray=""/><path fill="#F0F0F0" stroke="#505050" paint-order="fill stroke markers" d=" M 1086.5782012939453 287.0749702453613 L 1142.5782012939453 287.0749702453613 L 1142.5782012939453 331.0749702453613 L 1086.5782012939453 331.0749702453613 L 1086.5782012939453 287.0749702453613 Z" stroke-miterlimit="10" stroke-width="0.5" stroke-dasharray=""/><text fill="#505050" stroke="none" font-family="monospace" font-size="14px" font-style="normal" font-weight="normal" text-decoration="normal" x="1114.5782012939453" y="305.0749702453613" text-anchor="middle" dominant-baseline="text-after-edge">fold</text><path fill="none" stroke="#505050" paint-order="fill stroke markers" d=" M 1086.5782012939453 305.0749702453613 L 1094.5782012939453 305.0749702453613 L 1094.5782012939453 313.0749702453613 L 1086.5782012939453 313.0749702453613 L 1086.5782012939453 305.0749702453613 Z" stroke-miterlimit="10" stroke-width="0.5" stroke-dasharray=""/><path fill="none" stroke="#505050" paint-order="fill stroke markers" d=" M 1086.5782012939453 318.0749702453613 L 1094.5782012939453 318.0749702453613 L 1094.5782012939453 326.0749702453613 L 1086.5782012939453 326.0749702453613 L 1086.5782012939453 318.0749702453613 Z" stroke-miterlimit="10" stroke-width="0.5" stroke-dasharray=""/><text fill="#505050" stroke="none" font-family="monospace" font-size="14px" font-style="normal" font-weight="normal" text-decoration="normal" x="1102.5782012939453" y="331.0749702453613" text-anchor="start" dominant-baseline="text-after-edge">f</text><path fill="none" stroke="#505050" paint-order="fill stroke markers" d=" M 1134.5782012939453 305.0749702453613 L 1142.5782012939453 305.0749702453613 L 1142.5782012939453 313.0749702453613 L 1134.5782012939453 313.0749702453613 L 1134.5782012939453 305.0749702453613 Z" stroke-miterlimit="10" stroke-width="0.5" stroke-dasharray=""/><path fill="white" stroke="#505050" paint-order="fill stroke markers" d=" M 1038.5782012939453 239.13750076293945 L 1046.5782012939453 239.13750076293945 L 1054.5782012939453 247.13750076293945 L 1046.5782012939453 255.13750076293945 L 1038.5782012939453 255.13750076293945 L 1038.5782012939453 239.13750076293945" stroke-miterlimit="10" stroke-width="0.5" stroke-dasharray=""/><path fill="none" stroke="#505050" paint-order="fill stroke markers" d=" M 1038.5782012939453 243.13750076293945 L 1046.5782012939453 243.13750076293945 L 1046.5782012939453 251.13750076293945 L 1038.5782012939453 251.13750076293945 L 1038.5782012939453 243.13750076293945 Z" stroke-miterlimit="10" stroke-width="0.5" stroke-dasharray=""/><path fill="white" stroke="#505050" paint-order="fill stroke markers" d=" M 880.9250640869141 277.64690017700195 L 920.9250640869141 277.64690017700195 L 920.9250640869141 295.64690017700195 L 880.9250640869141 295.64690017700195 L 880.9250640869141 277.64690017700195 Z" stroke-miterlimit="10" stroke-width="0.5" stroke-dasharray=""/><path fill="none" stroke="#505050" paint-order="fill stroke markers" d=" M 912.9250640869141 282.64690017700195 L 920.9250640869141 282.64690017700195 L 920.9250640869141 290.64690017700195 L 912.9250640869141 290.64690017700195 L 912.9250640869141 282.64690017700195 Z" stroke-miterlimit="10" stroke-width="0.5" stroke-dasharray=""/><text fill="#505050" stroke="none" font-family="monospace" font-size="14px" font-style="normal" font-weight="normal" text-decoration="normal" x="904.9250640869141" y="295.64690017700195" text-anchor="end" dominant-baseline="text-after-edge">1</text><path fill="white" stroke="#505050" paint-order="fill stroke markers" d=" M 885.5782012939453 240.13750076293945 L 901.5782012939453 240.13750076293945 L 901.5782012939453 256.13750076293945 L 885.5782012939453 256.13750076293945 L 893.5782012939453 248.13750076293945 L 885.5782012939453 240.13750076293945" stroke-miterlimit="10" stroke-width="0.5" stroke-dasharray=""/><path fill="none" stroke="#505050" paint-order="fill stroke markers" d=" M 893.5782012939453 244.13750076293945 L 901.5782012939453 244.13750076293945 L 901.5782012939453 252.13750076293945 L 893.5782012939453 252.13750076293945 L 893.5782012939453 244.13750076293945 Z" stroke-miterlimit="10" stroke-width="0.5" stroke-dasharray=""/><path fill="white" stroke="#505050" paint-order="fill stroke markers" d=" M 943.5094757080078 239.63747024536133 L 1018.5094757080078 239.63747024536133 L 1018.5094757080078 299.6374702453613 L 943.5094757080078 299.6374702453613 L 943.5094757080078 239.63747024536133 Z" stroke-miterlimit="10" stroke-width="0.5" stroke-dasharray=""/><text fill="#505050" stroke="none" font-family="monospace" font-size="14px" font-style="normal" font-weight="normal" text-decoration="normal" x="981.0094757080078" y="257.6374702453613" text-anchor="middle" dominant-baseline="text-after-edge">foldstep</text><path fill="none" stroke="#505050" paint-order="fill stroke markers" d=" M 943.5094757080078 258.6374702453613 L 951.5094757080078 258.6374702453613 L 951.5094757080078 266.6374702453613 L 943.5094757080078 266.6374702453613 L 943.5094757080078 258.6374702453613 Z" stroke-miterlimit="10" stroke-width="0.5" stroke-dasharray=""/><text fill="#505050" stroke="none" font-family="monospace" font-size="14px" font-style="normal" font-weight="normal" text-decoration="normal" x="959.5094757080078" y="271.6374702453613" text-anchor="start" dominant-baseline="text-after-edge">n</text><path fill="none" stroke="#505050" paint-order="fill stroke markers" d=" M 943.5094757080078 272.6374702453613 L 951.5094757080078 272.6374702453613 L 951.5094757080078 280.6374702453613 L 943.5094757080078 280.6374702453613 L 943.5094757080078 272.6374702453613 Z" stroke-miterlimit="10" stroke-width="0.5" stroke-dasharray=""/><text fill="#505050" stroke="none" font-family="monospace" font-size="14px" font-style="normal" font-weight="normal" text-decoration="normal" x="959.5094757080078" y="285.6374702453613" text-anchor="start" dominant-baseline="text-after-edge">acc</text><path fill="none" stroke="#505050" paint-order="fill stroke markers" d=" M 943.5094757080078 286.6374702453613 L 951.5094757080078 286.6374702453613 L 951.5094757080078 294.6374702453613 L 943.5094757080078 294.6374702453613 L 943.5094757080078 286.6374702453613 Z" stroke-miterlimit="10" stroke-width="0.5" stroke-dasharray=""/><text fill="#505050" stroke="none" font-family="monospace" font-size="14px" font-style="normal" font-weight="normal" text-decoration="normal" x="959.5094757080078" y="299.6374702453613" text-anchor="start" dominant-baseline="text-after-edge">f</text><path fill="none" stroke="#505050" paint-order="fill stroke markers" d=" M 1010.5094757080078 257.6374702453613 L 1018.5094757080078 257.6374702453613 L 1018.5094757080078 265.6374702453613 L 1010.5094757080078 265.6374702453613 L 1010.5094757080078 257.6374702453613 Z" stroke-miterlimit="10" stroke-width="0.5" stroke-dasharray=""/><path fill="white" stroke="#505050" paint-order="fill stroke markers" d=" M 892.6281890869141 305.0749702453613 L 932.6281890869141 305.0749702453613 L 932.6281890869141 323.0749702453613 L 892.6281890869141 323.0749702453613 L 900.6281890869141 314.0749702453613 L 892.6281890869141 305.0749702453613" stroke-miterlimit="10" stroke-width="0.5" stroke-dasharray=""/><path fill="none" stroke="#505050" paint-order="fill stroke markers" d=" M 924.6281890869141 310.0749702453613 L 932.6281890869141 310.0749702453613 L 932.6281890869141 318.0749702453613 L 924.6281890869141 318.0749702453613 L 924.6281890869141 310.0749702453613 Z" stroke-miterlimit="10" stroke-width="0.5" stroke-dasharray=""/><text fill="#505050" stroke="none" font-family="monospace" font-size="14px" font-style="normal" font-weight="normal" text-decoration="normal" x="916.6281890869141" y="323.0749702453613" text-anchor="end" dominant-baseline="text-after-edge">f</text><path fill="white" stroke="#505050" paint-order="fill stroke markers" d=" M 882.3469390869141 385.9906196594238 L 882.3469390869141 520.9343795776367 Q 882.3469390869141 528.9343795776367 890.3469390869141 528.9343795776367 L 1149.4375762939453 528.9343795776367 Q 1157.4375762939453 528.9343795776367 1157.4375762939453 520.9343795776367 L 1157.4375762939453 385.9906196594238 Q 1157.4375762939453 377.9906196594238 1149.4375762939453 377.9906196594238 L 890.3469390869141 377.9906196594238 Q 882.3469390869141 377.9906196594238 882.3469390869141 385.9906196594238" stroke-miterlimit="10" stroke-width="0.5" stroke-dasharray=""/><path fill="#F0F0F0" stroke="#505050" paint-order="fill stroke markers" d=" M 1117.4375762939453 490.9343795776367 L 1149.4375762939453 490.9343795776367 L 1149.4375762939453 520.9343795776367 L 1117.4375762939453 520.9343795776367 L 1117.4375762939453 490.9343795776367 Z" stroke-miterlimit="10" stroke-width="0.5" stroke-dasharray=""/><text fill="#505050" stroke="none" font-family="monospace" font-size="14px" font-style="normal" font-weight="normal" text-decoration="normal" x="1133.4375762939453" y="508.9343795776367" text-anchor="middle" dominant-baseline="text-after-edge">n!</text><path fill="none" stroke="#505050" paint-order="fill stroke markers" d=" M 1117.4375762939453 508.9343795776367 L 1125.4375762939453 508.9343795776367 L 1125.4375762939453 516.9343795776367 L 1117.4375762939453 516.9343795776367 L 1117.4375762939453 508.9343795776367 Z" stroke-miterlimit="10" stroke-width="0.5" stroke-dasharray=""/><path fill="none" stroke="#505050" paint-order="fill stroke markers" d=" M 1141.4375762939453 508.9343795776367 L 1149.4375762939453 508.9343795776367 L 1149.4375762939453 516.9343795776367 L 1141.4375762939453 516.9343795776367 L 1141.4375762939453 508.9343795776367 Z" stroke-miterlimit="10" stroke-width="0.5" stroke-dasharray=""/><path fill="white" stroke="#505050" paint-order="fill stroke markers" d=" M 1045.4375762939453 385.9906196594238 L 1053.4375762939453 385.9906196594238 L 1061.4375762939453 393.9906196594238 L 1053.4375762939453 401.9906196594238 L 1045.4375762939453 401.9906196594238 L 1045.4375762939453 385.9906196594238" stroke-miterlimit="10" stroke-width="0.5" stroke-dasharray=""/><path fill="none" stroke="#505050" paint-order="fill stroke markers" d=" M 1045.4375762939453 389.9906196594238 L 1053.4375762939453 389.9906196594238 L 1053.4375762939453 397.9906196594238 L 1045.4375762939453 397.9906196594238 L 1045.4375762939453 389.9906196594238 Z" stroke-miterlimit="10" stroke-width="0.5" stroke-dasharray=""/><path fill="white" stroke="#505050" paint-order="fill stroke markers" d=" M 887.7844390869141 424.5000190734863 L 927.7844390869141 424.5000190734863 L 927.7844390869141 442.5000190734863 L 887.7844390869141 442.5000190734863 L 887.7844390869141 424.5000190734863 Z" stroke-miterlimit="10" stroke-width="0.5" stroke-dasharray=""/><path fill="none" stroke="#505050" paint-order="fill stroke markers" d=" M 919.7844390869141 429.5000190734863 L 927.7844390869141 429.5000190734863 L 927.7844390869141 437.5000190734863 L 919.7844390869141 437.5000190734863 L 919.7844390869141 429.5000190734863 Z" stroke-miterlimit="10" stroke-width="0.5" stroke-dasharray=""/><text fill="#505050" stroke="none" font-family="monospace" font-size="14px" font-style="normal" font-weight="normal" text-decoration="normal" x="911.7844390869141" y="442.5000190734863" text-anchor="end" dominant-baseline="text-after-edge">1</text><path fill="white" stroke="#505050" paint-order="fill stroke markers" d=" M 892.4375762939453 386.9906196594238 L 908.4375762939453 386.9906196594238 L 908.4375762939453 402.9906196594238 L 892.4375762939453 402.9906196594238 L 900.4375762939453 394.9906196594238 L 892.4375762939453 386.9906196594238" stroke-miterlimit="10" stroke-width="0.5" stroke-dasharray=""/><path fill="none" stroke="#505050" paint-order="fill stroke markers" d=" M 900.4375762939453 390.9906196594238 L 908.4375762939453 390.9906196594238 L 908.4375762939453 398.9906196594238 L 900.4375762939453 398.9906196594238 L 900.4375762939453 390.9906196594238 Z" stroke-miterlimit="10" stroke-width="0.5" stroke-dasharray=""/><path fill="white" stroke="#505050" paint-order="fill stroke markers" d=" M 950.3688507080078 386.4905891418457 L 1025.3688507080078 386.4905891418457 L 1025.3688507080078 446.4905891418457 L 950.3688507080078 446.4905891418457 L 950.3688507080078 386.4905891418457 Z" stroke-miterlimit="10" stroke-width="0.5" stroke-dasharray=""/><text fill="#505050" stroke="none" font-family="monospace" font-size="14px" font-style="normal" font-weight="normal" text-decoration="normal" x="987.8688507080078" y="404.4905891418457" text-anchor="middle" dominant-baseline="text-after-edge">foldstep</text><path fill="none" stroke="#505050" paint-order="fill stroke markers" d=" M 950.3688507080078 405.4905891418457 L 958.3688507080078 405.4905891418457 L 958.3688507080078 413.4905891418457 L 950.3688507080078 413.4905891418457 L 950.3688507080078 405.4905891418457 Z" stroke-miterlimit="10" stroke-width="0.5" stroke-dasharray=""/><text fill="#505050" stroke="none" font-family="monospace" font-size="14px" font-style="normal" font-weight="normal" text-decoration="normal" x="966.3688507080078" y="418.4905891418457" text-anchor="start" dominant-baseline="text-after-edge">n</text><path fill="none" stroke="#505050" paint-order="fill stroke markers" d=" M 950.3688507080078 419.4905891418457 L 958.3688507080078 419.4905891418457 L 958.3688507080078 427.4905891418457 L 950.3688507080078 427.4905891418457 L 950.3688507080078 419.4905891418457 Z" stroke-miterlimit="10" stroke-width="0.5" stroke-dasharray=""/><text fill="#505050" stroke="none" font-family="monospace" font-size="14px" font-style="normal" font-weight="normal" text-decoration="normal" x="966.3688507080078" y="432.4905891418457" text-anchor="start" dominant-baseline="text-after-edge">acc</text><path fill="none" stroke="#505050" paint-order="fill stroke markers" d=" M 950.3688507080078 433.4905891418457 L 958.3688507080078 433.4905891418457 L 958.3688507080078 441.4905891418457 L 950.3688507080078 441.4905891418457 L 950.3688507080078 433.4905891418457 Z" stroke-miterlimit="10" stroke-width="0.5" stroke-dasharray=""/><text fill="#505050" stroke="none" font-family="monospace" font-size="14px" font-style="normal" font-weight="normal" text-decoration="normal" x="966.3688507080078" y="446.4905891418457" text-anchor="start" dominant-baseline="text-after-edge">f</text><path fill="none" stroke="#505050" paint-order="fill stroke markers" d=" M 1017.3688507080078 404.4905891418457 L 1025.3688507080078 404.4905891418457 L 1025.3688507080078 412.4905891418457 L 1017.3688507080078 412.4905891418457 L 1017.3688507080078 404.4905891418457 Z" stroke-miterlimit="10" stroke-width="0.5" stroke-dasharray=""/><path fill="white" stroke="#505050" paint-order="fill stroke markers" d=" M 894.1125183105469 454.9343795776367 L 950.1125183105469 454.9343795776367 L 950.1125183105469 512.9343795776367 L 894.1125183105469 512.9343795776367 L 894.1125183105469 454.9343795776367 Z M 902.1125183105469 462.9343795776367 L 934.1125183105469 462.9343795776367 L 934.1125183105469 504.9343795776367 L 902.1125183105469 504.9343795776367 L 902.1125183105469 462.9343795776367 Z" stroke-miterlimit="10" stroke-width="0.5" stroke-dasharray=""/><text fill="#505050" stroke="none" font-family="monospace" font-size="14px" font-style="normal" font-weight="normal" text-decoration="normal" x="918.1125183105469" y="480.9343795776367" text-anchor="middle" dominant-baseline="text-after-edge">*</text><path fill="none" stroke="#505050" paint-order="fill stroke markers" d=" M 902.1125183105469 480.9343795776367 L 910.1125183105469 480.9343795776367 L 910.1125183105469 488.9343795776367 L 902.1125183105469 488.9343795776367 L 902.1125183105469 480.9343795776367 Z" stroke-miterlimit="10" stroke-width="0.5" stroke-dasharray=""/><path fill="none" stroke="#505050" paint-order="fill stroke markers" d=" M 902.1125183105469 492.9343795776367 L 910.1125183105469 492.9343795776367 L 910.1125183105469 500.9343795776367 L 902.1125183105469 500.9343795776367 L 902.1125183105469 492.9343795776367 Z" stroke-miterlimit="10" stroke-width="0.5" stroke-dasharray=""/><path fill="none" stroke="#505050" paint-order="fill stroke markers" d=" M 926.1125183105469 480.9343795776367 L 934.1125183105469 480.9343795776367 L 934.1125183105469 488.9343795776367 L 926.1125183105469 488.9343795776367 L 926.1125183105469 480.9343795776367 Z" stroke-miterlimit="10" stroke-width="0.5" stroke-dasharray=""/><path fill="none" stroke="#505050" paint-order="fill stroke markers" d=" M 942.1125183105469 479.9343795776367 L 950.1125183105469 479.9343795776367 L 950.1125183105469 487.9343795776367 L 942.1125183105469 487.9343795776367 L 942.1125183105469 479.9343795776367 Z" stroke-miterlimit="10" stroke-width="0.5" stroke-dasharray=""/><path fill="none" stroke="#505050" paint-order="fill stroke markers" d=" M 548.8939018249512 108.33753967285156 C 572.8939018249512 108.33753967285156 542.3376693725586 91.32816314697266 566.3376693725586 91.32816314697266" stroke-miterlimit="10" stroke-dasharray=""/><path fill="none" stroke="#505050" paint-order="fill stroke markers" d=" M 462.1907958984375 102.43440818786621 C 486.1907958984375 102.43440818786621 542.3376693725586 79.32816314697266 566.3376693725586 79.32816314697266" stroke-miterlimit="10" stroke-dasharray=""/><path fill="none" stroke="#505050" paint-order="fill stroke markers" d=" M 476.7845458984375 148.09689903259277 C 500.7845458984375 148.09689903259277 503.99388885498047 200.18127822875977 527.9938888549805 200.18127822875977" stroke-miterlimit="10" stroke-dasharray=""/><path fill="none" stroke="#505050" paint-order="fill stroke markers" d=" M 462.1907958984375 102.43440818786621 C 486.1907958984375 102.43440818786621 503.99388885498047 188.18127822875977 527.9938888549805 188.18127822875977" stroke-miterlimit="10" stroke-dasharray=""/><path fill="none" stroke="#505050" paint-order="fill stroke markers" d=" M 692.4688873291016 98.3469009399414 C 716.4688873291016 98.3469009399414 689.1157379150391 86.80316162109375 713.1157379150391 86.80316162109375" stroke-miterlimit="10" stroke-dasharray=""/><path fill="none" stroke="#505050" paint-order="fill stroke markers" d=" M 559.9938888549805 188.18127822875977 C 583.9938888549805 188.18127822875977 596.7939605712891 203.81564712524414 620.7939605712891 203.81564712524414" stroke-miterlimit="10" stroke-dasharray=""/><path fill="none" stroke="#505050" paint-order="fill stroke markers" d=" M 476.7845458984375 148.09689903259277 C 500.7845458984375 148.09689903259277 636.4688873291016 110.3469009399414 660.4688873291016 110.3469009399414" stroke-miterlimit="10" stroke-dasharray=""/><path fill="none" stroke="#505050" paint-order="fill stroke markers" d=" M 598.3376693725586 79.32816314697266 C 622.3376693725586 79.32816314697266 636.4688873291016 98.3469009399414 660.4688873291016 98.3469009399414" stroke-miterlimit="10" stroke-dasharray=""/><path fill="none" stroke="#505050" paint-order="fill stroke markers" d=" M 693.7939605712891 188.81564712524414 C 717.7939605712891 188.81564712524414 636.4688873291016 122.3469009399414 660.4688873291016 122.3469009399414" stroke-miterlimit="10" stroke-dasharray=""/><path fill="none" stroke="#505050" paint-order="fill stroke markers" d=" M 462.1907958984375 102.43440818786621 C 486.1907958984375 102.43440818786621 544.6656150817871 161.03125762939453 568.6656150817871 161.03125762939453" stroke-miterlimit="10" stroke-dasharray=""/><path fill="none" stroke="#505050" paint-order="fill stroke markers" d=" M 600.6656150817871 161.03125762939453 C 624.6656150817871 161.03125762939453 596.7939605712891 189.81564712524414 620.7939605712891 189.81564712524414" stroke-miterlimit="10" stroke-dasharray=""/><path fill="none" stroke="#505050" paint-order="fill stroke markers" d=" M 263.70312118530273 254.0156478881836 C 287.70312118530273 254.0156478881836 271.70312118530273 254.0156478881836 295.70312118530273 254.0156478881836" stroke-miterlimit="10" stroke-dasharray=""/><path fill="none" stroke="#505050" paint-order="fill stroke markers" d=" M 208.78437423706055 280.7656478881836 C 232.78437423706055 280.7656478881836 207.70312118530273 266.0156478881836 231.70312118530273 266.0156478881836" stroke-miterlimit="10" stroke-dasharray=""/><path fill="none" stroke="#505050" paint-order="fill stroke markers" d=" M 199.70312118530273 254.0156478881836 C 223.70312118530273 254.0156478881836 207.70312118530273 254.0156478881836 231.70312118530273 254.0156478881836" stroke-miterlimit="10" stroke-dasharray=""/><path fill="none" stroke="#505050" paint-order="fill stroke markers" d=" M 990.2188262939453 116.94061660766602 C 1014.2188262939453 116.94061660766602 998.2188262939453 102.94061660766602 1022.2188262939453 102.94061660766602" stroke-miterlimit="10" stroke-dasharray=""/><path fill="none" stroke="#505050" paint-order="fill stroke markers" d=" M 904.5656890869141 142.45001602172852 C 928.5656890869141 142.45001602172852 893.2188262939453 131.94061660766602 917.2188262939453 131.94061660766602" stroke-miterlimit="10" stroke-dasharray=""/><path fill="none" stroke="#505050" paint-order="fill stroke markers" d=" M 885.2188262939453 103.94061660766602 C 909.2188262939453 103.94061660766602 893.2188262939453 117.94061660766602 917.2188262939453 117.94061660766602" stroke-miterlimit="10" stroke-dasharray=""/><path fill="none" stroke="#505050" paint-order="fill stroke markers" d=" M 561.3282585144043 348.78440856933594 C 585.3282585144043 348.78440856933594 554.7720260620117 331.77503204345703 578.7720260620117 331.77503204345703" stroke-miterlimit="10" stroke-dasharray=""/><path fill="none" stroke="#505050" paint-order="fill stroke markers" d=" M 474.6251525878906 342.8812770843506 C 498.6251525878906 342.8812770843506 554.7720260620117 319.77503204345703 578.7720260620117 319.77503204345703" stroke-miterlimit="10" stroke-dasharray=""/><path fill="none" stroke="#505050" paint-order="fill stroke markers" d=" M 489.2189025878906 388.54376792907715 C 513.2189025878906 388.54376792907715 503.4188766479492 429.69690322875977 527.4188766479492 429.69690322875977" stroke-miterlimit="10" stroke-dasharray=""/><path fill="none" stroke="#505050" paint-order="fill stroke markers" d=" M 474.6251525878906 342.8812770843506 C 498.6251525878906 342.8812770843506 503.4188766479492 417.69690322875977 527.4188766479492 417.69690322875977" stroke-miterlimit="10" stroke-dasharray=""/><path fill="none" stroke="#505050" paint-order="fill stroke markers" d=" M 704.9032440185547 338.7937698364258 C 728.9032440185547 338.7937698364258 701.5500946044922 327.2500305175781 725.5500946044922 327.2500305175781" stroke-miterlimit="10" stroke-dasharray=""/><path fill="none" stroke="#505050" paint-order="fill stroke markers" d=" M 559.4188766479492 417.69690322875977 C 583.4188766479492 417.69690322875977 609.2283172607422 444.2625160217285 633.2283172607422 444.2625160217285" stroke-miterlimit="10" stroke-dasharray=""/><path fill="none" stroke="#505050" paint-order="fill stroke markers" d=" M 489.2189025878906 388.54376792907715 C 513.2189025878906 388.54376792907715 648.9032440185547 350.7937698364258 672.9032440185547 350.7937698364258" stroke-miterlimit="10" stroke-dasharray=""/><path fill="none" stroke="#505050" paint-order="fill stroke markers" d=" M 610.7720260620117 319.77503204345703 C 634.7720260620117 319.77503204345703 648.9032440185547 338.7937698364258 672.9032440185547 338.7937698364258" stroke-miterlimit="10" stroke-dasharray=""/><path fill="none" stroke="#505050" paint-order="fill stroke markers" d=" M 474.6251525878906 342.8812770843506 C 498.6251525878906 342.8812770843506 563.5876426696777 400.32189178466797 587.5876426696777 400.32189178466797" stroke-miterlimit="10" stroke-dasharray=""/><path fill="none" stroke="#505050" paint-order="fill stroke markers" d=" M 708.2283172607422 429.2625160217285 C 732.2283172607422 429.2625160217285 648.9032440185547 362.7937698364258 672.9032440185547 362.7937698364258" stroke-miterlimit="10" stroke-dasharray=""/><path fill="none" stroke="#505050" paint-order="fill stroke markers" d=" M 619.5876426696777 400.32189178466797 C 643.5876426696777 400.32189178466797 609.2283172607422 430.2625160217285 633.2283172607422 430.2625160217285" stroke-miterlimit="10" stroke-dasharray=""/><path fill="none" stroke="#505050" paint-order="fill stroke markers" d=" M 486.06575775146484 437.646915435791 C 510.06575775146484 437.646915435791 543.4188766479492 473.69690322875977 543.4188766479492 449.69690322875977" stroke-miterlimit="10" stroke-dasharray=""/><path fill="none" stroke="#505050" paint-order="fill stroke markers" d=" M 1018.5094757080078 261.6374702453613 C 1042.5094757080078 261.6374702453613 1014.5782012939453 247.13750076293945 1038.5782012939453 247.13750076293945" stroke-miterlimit="10" stroke-dasharray=""/><path fill="none" stroke="#505050" paint-order="fill stroke markers" d=" M 920.9250640869141 286.64690017700195 C 944.9250640869141 286.64690017700195 919.5094757080078 276.6374702453613 943.5094757080078 276.6374702453613" stroke-miterlimit="10" stroke-dasharray=""/><path fill="none" stroke="#505050" paint-order="fill stroke markers" d=" M 901.5782012939453 248.13750076293945 C 925.5782012939453 248.13750076293945 919.5094757080078 262.6374702453613 943.5094757080078 262.6374702453613" stroke-miterlimit="10" stroke-dasharray=""/><path fill="none" stroke="#505050" paint-order="fill stroke markers" d=" M 932.6281890869141 314.0749702453613 C 956.6281890869141 314.0749702453613 919.5094757080078 290.6374702453613 943.5094757080078 290.6374702453613" stroke-miterlimit="10" stroke-dasharray=""/><path fill="none" stroke="#505050" paint-order="fill stroke markers" d=" M 1025.3688507080078 408.4905891418457 C 1049.3688507080078 408.4905891418457 1021.4375762939453 393.9906196594238 1045.4375762939453 393.9906196594238" stroke-miterlimit="10" stroke-dasharray=""/><path fill="none" stroke="#505050" paint-order="fill stroke markers" d=" M 927.7844390869141 433.5000190734863 C 951.7844390869141 433.5000190734863 926.3688507080078 423.4905891418457 950.3688507080078 423.4905891418457" stroke-miterlimit="10" stroke-dasharray=""/><path fill="none" stroke="#505050" paint-order="fill stroke markers" d=" M 908.4375762939453 394.9906196594238 C 932.4375762939453 394.9906196594238 926.3688507080078 409.4905891418457 950.3688507080078 409.4905891418457" stroke-miterlimit="10" stroke-dasharray=""/><path fill="none" stroke="#505050" paint-order="fill stroke markers" d=" M 950.1125183105469 483.9343795776367 C 974.1125183105469 483.9343795776367 926.3688507080078 437.4905891418457 950.3688507080078 437.4905891418457" stroke-miterlimit="10" stroke-dasharray=""/></g></g></svg>