<svg version="1.1" xmlns="http://www.w3.org/2000/svg" xmlns:xlink="http://www.w3.org/1999/xlink" width="625.907585144043" height="450.24727630615234"><defs/><g transform="translate(-331.4401168823242,-52.747257232666016)"><g><path fill="white" stroke="#505050" paint-order="fill stroke markers" d=" M 446.37231063842773 63.79322814941406 L 446.37231063842773 114.99422454833984 Q 446.37231063842773 122.99422454833984 454.37231063842773 122.99422454833984 L 550.4514122009277 122.99422454833984 Q 558.4514122009277 122.99422454833984 558.4514122009277 114.99422454833984 L 558.4514122009277 63.79322814941406 Q 558.4514122009277 55.79322814941406 550.4514122009277 55.79322814941406 L 454.37231063842773 55.79322814941406 Q 446.37231063842773 55.79322814941406 446.37231063842773 63.79322814941406" stroke-miterlimit="10" stroke-width="0.5" stroke-dasharray=""/><path fill="#F0F0F0" stroke="#505050" paint-order="fill stroke markers" d=" M 533.4514122009277 63.79322814941406 L 558.4514122009277 63.79322814941406 L 558.4514122009277 93.79322814941406 L 533.4514122009277 93.79322814941406 L 533.4514122009277 63.79322814941406 Z" stroke-miterlimit="10" stroke-width="0.5" stroke-dasharray=""/><path fill="none" stroke="none"/><text fill="#505050" stroke="none" font-family="monospace" font-size="14px" font-style="normal" font-weight="normal" text-decoration="normal" x="545.9514122009277" y="81.79322814941406" text-anchor="middle" dominant-baseline="text-after-edge">-1</text><path fill="none" stroke="#505050" paint-order="fill stroke markers" d=" M 533.4514122009277 81.79322814941406 L 541.4514122009277 81.79322814941406 L 541.4514122009277 89.79322814941406 L 533.4514122009277 89.79322814941406 L 533.4514122009277 81.79322814941406 Z" stroke-miterlimit="10" stroke-width="0.5" stroke-dasharray=""/><path fill="none" stroke="#505050" paint-order="fill stroke markers" d=" M 550.4514122009277 81.79322814941406 L 558.4514122009277 81.79322814941406 L 558.4514122009277 89.79322814941406 L 550.4514122009277 89.79322814941406 L 550.4514122009277 81.79322814941406 Z" stroke-miterlimit="10" stroke-width="0.5" stroke-dasharray=""/><path fill="none" stroke="#505050" paint-order="fill stroke markers" d=" M 492.5967674255371 85.11141204833984 L 484.5967674255371 85.11141204833984 M 516.5967674255371 85.11141204833984 L 524.5967674255371 85.11141204833984" stroke-miterlimit="10" stroke-dasharray=""/><path fill="white" stroke="#505050" paint-order="fill stroke markers" d=" M 492.5967674255371 63.111412048339844 L 516.5967674255371 63.111412048339844 L 516.5967674255371 105.11141204833984 L 492.5967674255371 105.11141204833984 L 492.5967674255371 63.111412048339844 Z" stroke-miterlimit="10" stroke-width="0.5" stroke-dasharray=""/><path fill="#F0F0F0" stroke="none" paint-order="stroke fill markers" d=""/><path fill="none" stroke="none"/><text fill="#505050" stroke="none" font-family="monospace" font-size="14px" font-style="normal" font-weight="normal" text-decoration="normal" x="504.5967674255371" y="81.11141204833984" text-anchor="middle" dominant-baseline="text-after-edge">-</text><path fill="none" stroke="#505050" paint-order="fill stroke markers" d=" M 492.5967674255371 81.11141204833984 L 500.5967674255371 81.11141204833984 L 500.5967674255371 89.11141204833984 L 492.5967674255371 89.11141204833984 L 492.5967674255371 81.11141204833984 Z" stroke-miterlimit="10" stroke-width="0.5" stroke-dasharray=""/><path fill="none" stroke="#505050" paint-order="fill stroke markers" d=" M 492.5967674255371 93.11141204833984 L 500.5967674255371 93.11141204833984 L 500.5967674255371 101.11141204833984 L 492.5967674255371 101.11141204833984 L 492.5967674255371 93.11141204833984 Z" stroke-miterlimit="10" stroke-width="0.5" stroke-dasharray=""/><path fill="none" stroke="#505050" paint-order="fill stroke markers" d=" M 508.5967674255371 81.11141204833984 L 516.5967674255371 81.11141204833984 L 516.5967674255371 89.11141204833984 L 508.5967674255371 89.11141204833984 L 508.5967674255371 81.11141204833984 Z" stroke-miterlimit="10" stroke-width="0.5" stroke-dasharray=""/><path fill="white" stroke="#505050" paint-order="fill stroke markers" d=" M 450.5267448425293 88.99422454833984 L 482.5267448425293 88.99422454833984 L 482.5267448425293 106.99422454833984 L 450.5267448425293 106.99422454833984 L 450.5267448425293 88.99422454833984 Z" stroke-miterlimit="10" stroke-width="0.5" stroke-dasharray=""/><path fill="#F0F0F0" stroke="none" paint-order="stroke fill markers" d=""/><path fill="none" stroke="none"/><path fill="none" stroke="#505050" paint-order="fill stroke markers" d=" M 474.5267448425293 92.99422454833984 L 482.5267448425293 92.99422454833984 L 482.5267448425293 100.99422454833984 L 474.5267448425293 100.99422454833984 L 474.5267448425293 92.99422454833984 Z" stroke-miterlimit="10" stroke-width="0.5" stroke-dasharray=""/><text fill="#505050" stroke="none" font-family="monospace" font-size="14px" font-style="normal" font-weight="normal" text-decoration="normal" x="466.5267448425293" y="106.99422454833984" text-anchor="end" dominant-baseline="text-after-edge">1</text><path fill="white" stroke="#505050" paint-order="fill stroke markers" d=" M 492.9070587158203 368.268985748291 L 492.9070587158203 493.99453353881836 Q 492.9070587158203 501.99453353881836 500.9070587158203 501.99453353881836 L 725.7205963134766 501.99453353881836 Q 733.7205963134766 501.99453353881836 733.7205963134766 493.99453353881836 L 733.7205963134766 368.268985748291 Q 733.7205963134766 360.268985748291 725.7205963134766 360.268985748291 L 500.9070587158203 360.268985748291 Q 492.9070587158203 360.268985748291 492.9070587158203 368.268985748291" stroke-miterlimit="10" stroke-width="0.5" stroke-dasharray=""/><path fill="#F0F0F0" stroke="#505050" paint-order="fill stroke markers" d=" M 693.7205963134766 368.268985748291 L 733.7205963134766 368.268985748291 L 733.7205963134766 400.268985748291 L 693.7205963134766 400.268985748291 L 693.7205963134766 368.268985748291 Z" stroke-miterlimit="10" stroke-width="0.5" stroke-dasharray=""/><path fill="none" stroke="none"/><text fill="#505050" stroke="none" font-family="monospace" font-size="14px" font-style="normal" font-weight="normal" text-decoration="normal" x="713.7205963134766" y="386.268985748291" text-anchor="middle" dominant-baseline="text-after-edge">n!</text><path fill="none" stroke="#505050" paint-order="fill stroke markers" d=" M 693.7205963134766 386.268985748291 L 701.7205963134766 386.268985748291 L 701.7205963134766 394.268985748291 L 693.7205963134766 394.268985748291 L 693.7205963134766 386.268985748291 Z" stroke-miterlimit="10" stroke-width="0.5" stroke-dasharray=""/><text fill="#505050" stroke="none" font-family="monospace" font-size="14px" font-style="normal" font-weight="normal" text-decoration="normal" x="709.7205963134766" y="400.268985748291" text-anchor="start" dominant-baseline="text-after-edge">n</text><path fill="none" stroke="#505050" paint-order="fill stroke markers" d=" M 725.7205963134766 386.268985748291 L 733.7205963134766 386.268985748291 L 733.7205963134766 394.268985748291 L 725.7205963134766 394.268985748291 L 725.7205963134766 386.268985748291 Z" stroke-miterlimit="10" stroke-width="0.5" stroke-dasharray=""/><path fill="none" stroke="#505050" paint-order="fill stroke markers" d=" M 677.2174016833305 389.52710247039795 L 685.2174016833305 389.52710247039795" stroke-miterlimit="10" stroke-dasharray=""/><path fill="white" stroke="#505050" paint-order="fill stroke markers" d=" M 502.89833068847656 398.30124282836914 L 534.8983306884766 398.30124282836914 L 534.8983306884766 416.30124282836914 L 502.89833068847656 416.30124282836914 L 502.89833068847656 398.30124282836914 Z" stroke-miterlimit="10" stroke-width="0.5" stroke-dasharray=""/><path fill="#F0F0F0" stroke="none" paint-order="stroke fill markers" d=""/><path fill="none" stroke="none"/><path fill="none" stroke="#505050" paint-order="fill stroke markers" d=" M 526.8983306884766 402.30124282836914 L 534.8983306884766 402.30124282836914 L 534.8983306884766 410.30124282836914 L 526.8983306884766 410.30124282836914 L 526.8983306884766 402.30124282836914 Z" stroke-miterlimit="10" stroke-width="0.5" stroke-dasharray=""/><text fill="#505050" stroke="none" font-family="monospace" font-size="14px" font-style="normal" font-weight="normal" text-decoration="normal" x="518.8983306884766" y="416.30124282836914" text-anchor="end" dominant-baseline="text-after-edge">1</text><path fill="white" stroke="#505050" paint-order="fill stroke markers" d=" M 497.1079864501953 430.8895835876465 L 497.1079864501953 477.99453353881836 Q 497.1079864501953 485.99453353881836 505.1079864501953 485.99453353881836 L 563.5089263916016 485.99453353881836 Q 571.5089263916016 485.99453353881836 571.5089263916016 477.99453353881836 L 571.5089263916016 430.8895835876465 Q 571.5089263916016 422.8895835876465 563.5089263916016 422.8895835876465 L 505.1079864501953 422.8895835876465 Q 497.1079864501953 422.8895835876465 497.1079864501953 430.8895835876465" stroke-miterlimit="10" stroke-width="0.5" stroke-dasharray=""/><path fill="#F0F0F0" stroke="#505050" paint-order="fill stroke markers" d=" M 547.5089263916016 430.8895835876465 L 571.5089263916016 430.8895835876465 L 571.5089263916016 458.8895835876465 L 547.5089263916016 458.8895835876465 L 547.5089263916016 430.8895835876465 Z" stroke-miterlimit="10" stroke-width="0.5" stroke-dasharray=""/><path fill="none" stroke="none"/><path fill="none" stroke="#505050" paint-order="fill stroke markers" d=" M 547.5089263916016 434.8895835876465 L 555.5089263916016 434.8895835876465 L 555.5089263916016 442.8895835876465 L 547.5089263916016 442.8895835876465 L 547.5089263916016 434.8895835876465 Z" stroke-miterlimit="10" stroke-width="0.5" stroke-dasharray=""/><path fill="none" stroke="#505050" paint-order="fill stroke markers" d=" M 547.5089263916016 446.8895835876465 L 555.5089263916016 446.8895835876465 L 555.5089263916016 454.8895835876465 L 547.5089263916016 454.8895835876465 L 547.5089263916016 446.8895835876465 Z" stroke-miterlimit="10" stroke-width="0.5" stroke-dasharray=""/><path fill="none" stroke="#505050" paint-order="fill stroke markers" d=" M 563.5089263916016 434.8895835876465 L 571.5089263916016 434.8895835876465 L 571.5089263916016 442.8895835876465 L 563.5089263916016 442.8895835876465 L 563.5089263916016 434.8895835876465 Z" stroke-miterlimit="10" stroke-width="0.5" stroke-dasharray=""/><path fill="none" stroke="#505050" paint-order="fill stroke markers" d=" M 509.6234588623047 449.99453353881836 L 501.6234588623047 449.99453353881836 M 509.6234588623047 461.99453353881836 L 501.6234588623047 461.99453353881836 M 533.6234588623047 449.99453353881836 L 541.6234588623047 449.99453353881836" stroke-miterlimit="10" stroke-dasharray=""/><path fill="white" stroke="#505050" paint-order="fill stroke markers" d=" M 509.6234588623047 427.99453353881836 L 533.6234588623047 427.99453353881836 L 533.6234588623047 469.99453353881836 L 509.6234588623047 469.99453353881836 L 509.6234588623047 427.99453353881836 Z" stroke-miterlimit="10" stroke-width="0.5" stroke-dasharray=""/><path fill="#F0F0F0" stroke="none" paint-order="stroke fill markers" d=""/><path fill="none" stroke="none"/><text fill="#505050" stroke="none" font-family="monospace" font-size="14px" font-style="normal" font-weight="normal" text-decoration="normal" x="521.6234588623047" y="445.99453353881836" text-anchor="middle" dominant-baseline="text-after-edge">*</text><path fill="none" stroke="#505050" paint-order="fill stroke markers" d=" M 509.6234588623047 445.99453353881836 L 517.6234588623047 445.99453353881836 L 517.6234588623047 453.99453353881836 L 509.6234588623047 453.99453353881836 L 509.6234588623047 445.99453353881836 Z" stroke-miterlimit="10" stroke-width="0.5" stroke-dasharray=""/><path fill="none" stroke="#505050" paint-order="fill stroke markers" d=" M 509.6234588623047 457.99453353881836 L 517.6234588623047 457.99453353881836 L 517.6234588623047 465.99453353881836 L 509.6234588623047 465.99453353881836 L 509.6234588623047 457.99453353881836 Z" stroke-miterlimit="10" stroke-width="0.5" stroke-dasharray=""/><path fill="none" stroke="#505050" paint-order="fill stroke markers" d=" M 525.6234588623047 445.99453353881836 L 533.6234588623047 445.99453353881836 L 533.6234588623047 453.99453353881836 L 525.6234588623047 453.99453353881836 L 525.6234588623047 445.99453353881836 Z" stroke-miterlimit="10" stroke-width="0.5" stroke-dasharray=""/><path fill="white" stroke="#505050" paint-order="fill stroke markers" d=" M 588.2174016833305 367.52710247039795 L 677.2174016833305 367.52710247039795 L 677.2174016833305 463.52710247039795 L 588.2174016833305 463.52710247039795 L 588.2174016833305 367.52710247039795 Z" stroke-miterlimit="10" stroke-width="0.5" stroke-dasharray=""/><path fill="#F0F0F0" stroke="none" paint-order="stroke fill markers" d=""/><path fill="none" stroke="none"/><text fill="#505050" stroke="none" font-family="monospace" font-size="14px" font-style="normal" font-weight="normal" text-decoration="normal" x="632.7174016833305" y="385.52710247039795" text-anchor="middle" dominant-baseline="text-after-edge">reduce</text><path fill="none" stroke="#505050" paint-order="fill stroke markers" d=" M 588.2174016833305 385.52710247039795 L 596.2174016833305 385.52710247039795 L 596.2174016833305 393.52710247039795 L 588.2174016833305 393.52710247039795 L 588.2174016833305 385.52710247039795 Z" stroke-miterlimit="10" stroke-width="0.5" stroke-dasharray=""/><text fill="#505050" stroke="none" font-family="monospace" font-size="14px" font-style="normal" font-weight="normal" text-decoration="normal" x="604.2174016833305" y="399.52710247039795" text-anchor="start" dominant-baseline="text-after-edge">n</text><path fill="none" stroke="#505050" paint-order="fill stroke markers" d=" M 588.2174016833305 399.52710247039795 L 596.2174016833305 399.52710247039795 L 596.2174016833305 407.52710247039795 L 588.2174016833305 407.52710247039795 L 588.2174016833305 399.52710247039795 Z" stroke-miterlimit="10" stroke-width="0.5" stroke-dasharray=""/><text fill="#505050" stroke="none" font-family="monospace" font-size="14px" font-style="normal" font-weight="normal" text-decoration="normal" x="604.2174016833305" y="413.52710247039795" text-anchor="start" dominant-baseline="text-after-edge">acc</text><path fill="none" stroke="#505050" paint-order="fill stroke markers" d=" M 588.2174016833305 413.52710247039795 L 596.2174016833305 413.52710247039795 L 596.2174016833305 421.52710247039795 L 588.2174016833305 421.52710247039795 L 588.2174016833305 413.52710247039795 Z" stroke-miterlimit="10" stroke-width="0.5" stroke-dasharray=""/><text fill="#505050" stroke="none" font-family="monospace" font-size="14px" font-style="normal" font-weight="normal" text-decoration="normal" x="604.2174016833305" y="427.52710247039795" text-anchor="start" dominant-baseline="text-after-edge">end</text><path fill="none" stroke="#505050" paint-order="fill stroke markers" d=" M 588.2174016833305 427.52710247039795 L 645.2174016833305 427.52710247039795 L 645.2174016833305 459.52710247039795 L 588.2174016833305 459.52710247039795 L 588.2174016833305 427.52710247039795 Z" stroke-miterlimit="10" stroke-width="0.5" stroke-dasharray=""/><path fill="none" stroke="none"/><path fill="none" stroke="#505050" paint-order="fill stroke markers" d=" M 588.2174016833305 431.52710247039795 L 596.2174016833305 431.52710247039795 L 596.2174016833305 439.52710247039795 L 588.2174016833305 439.52710247039795 L 588.2174016833305 431.52710247039795 Z" stroke-miterlimit="10" stroke-width="0.5" stroke-dasharray=""/><text fill="#505050" stroke="none" font-family="monospace" font-size="14px" font-style="normal" font-weight="normal" text-decoration="normal" x="604.2174016833305" y="445.52710247039795" text-anchor="start" dominant-baseline="text-after-edge">i</text><path fill="none" stroke="#505050" paint-order="fill stroke markers" d=" M 588.2174016833305 445.52710247039795 L 596.2174016833305 445.52710247039795 L 596.2174016833305 453.52710247039795 L 588.2174016833305 453.52710247039795 L 588.2174016833305 445.52710247039795 Z" stroke-miterlimit="10" stroke-width="0.5" stroke-dasharray=""/><text fill="#505050" stroke="none" font-family="monospace" font-size="14px" font-style="normal" font-weight="normal" text-decoration="normal" x="604.2174016833305" y="459.52710247039795" text-anchor="start" dominant-baseline="text-after-edge">acc</text><path fill="none" stroke="#505050" paint-order="fill stroke markers" d=" M 637.2174016833305 431.52710247039795 L 645.2174016833305 431.52710247039795 L 645.2174016833305 439.52710247039795 L 637.2174016833305 439.52710247039795 L 637.2174016833305 431.52710247039795 Z" stroke-miterlimit="10" stroke-width="0.5" stroke-dasharray=""/><text fill="#505050" stroke="none" font-family="monospace" font-size="14px" font-style="normal" font-weight="normal" text-decoration="normal" x="653.2174016833305" y="452.52710247039795" text-anchor="start" dominant-baseline="text-after-edge">f</text><path fill="none" stroke="#505050" paint-order="fill stroke markers" d=" M 669.2174016833305 385.52710247039795 L 677.2174016833305 385.52710247039795 L 677.2174016833305 393.52710247039795 L 669.2174016833305 393.52710247039795 L 669.2174016833305 385.52710247039795 Z" stroke-miterlimit="10" stroke-width="0.5" stroke-dasharray=""/><path fill="white" stroke="#505050" paint-order="fill stroke markers" d=" M 507.9692937731743 371.2411861419678 L 539.9692937731743 371.2411861419678 L 539.9692937731743 389.2411861419678 L 507.9692937731743 389.2411861419678 L 515.9692937731743 380.2411861419678 L 507.9692937731743 371.2411861419678" stroke-miterlimit="10" stroke-width="0.5" stroke-dasharray=""/><path fill="none" stroke="none"/><path fill="none" stroke="#505050" paint-order="fill stroke markers" d=" M 531.9692937731743 375.2411861419678 L 539.9692937731743 375.2411861419678 L 539.9692937731743 383.2411861419678 L 531.9692937731743 383.2411861419678 L 531.9692937731743 375.2411861419678 Z" stroke-miterlimit="10" stroke-width="0.5" stroke-dasharray=""/><text fill="#505050" stroke="none" font-family="monospace" font-size="14px" font-style="normal" font-weight="normal" text-decoration="normal" x="523.9692937731743" y="389.2411861419678" text-anchor="end" dominant-baseline="text-after-edge">n</text><path fill="white" stroke="#505050" paint-order="fill stroke markers" d=" M 589.5232162475586 61.747257232666016 L 589.5232162475586 117.30478286743164 Q 589.5232162475586 125.30478286743164 597.5232162475586 125.30478286743164 L 728.5232162475586 125.30478286743164 Q 736.5232162475586 125.30478286743164 736.5232162475586 117.30478286743164 L 736.5232162475586 61.747257232666016 Q 736.5232162475586 53.747257232666016 728.5232162475586 53.747257232666016 L 597.5232162475586 53.747257232666016 Q 589.5232162475586 53.747257232666016 589.5232162475586 61.747257232666016" stroke-miterlimit="10" stroke-width="0.5" stroke-dasharray=""/><path fill="#F0F0F0" stroke="#505050" paint-order="fill stroke markers" d=" M 679.5232162475586 61.747257232666016 L 736.5232162475586 61.747257232666016 L 736.5232162475586 107.74725723266602 L 679.5232162475586 107.74725723266602 L 679.5232162475586 61.747257232666016 Z" stroke-miterlimit="10" stroke-width="0.5" stroke-dasharray="6,3"/><path fill="none" stroke="none"/><text fill="#505050" stroke="none" font-family="monospace" font-size="14px" font-style="normal" font-weight="normal" text-decoration="normal" x="708.0232162475586" y="79.74725723266602" text-anchor="middle" dominant-baseline="text-after-edge">f</text><path fill="none" stroke="#505050" paint-order="fill stroke markers" d=" M 679.5232162475586 79.74725723266602 L 687.5232162475586 79.74725723266602 L 687.5232162475586 87.74725723266602 L 679.5232162475586 87.74725723266602 L 679.5232162475586 79.74725723266602 Z" stroke-miterlimit="10" stroke-width="0.5" stroke-dasharray="0"/><text fill="#505050" stroke="none" font-family="monospace" font-size="14px" font-style="normal" font-weight="normal" text-decoration="normal" x="695.5232162475586" y="93.74725723266602" text-anchor="start" dominant-baseline="text-after-edge">i</text><path fill="none" stroke="#505050" paint-order="fill stroke markers" d=" M 679.5232162475586 93.74725723266602 L 687.5232162475586 93.74725723266602 L 687.5232162475586 101.74725723266602 L 679.5232162475586 101.74725723266602 L 679.5232162475586 93.74725723266602 Z" stroke-miterlimit="10" stroke-width="0.5" stroke-dasharray="0"/><text fill="#505050" stroke="none" font-family="monospace" font-size="14px" font-style="normal" font-weight="normal" text-decoration="normal" x="695.5232162475586" y="107.74725723266602" text-anchor="start" dominant-baseline="text-after-edge">acc</text><path fill="none" stroke="#505050" paint-order="fill stroke markers" d=" M 728.5232162475586 79.74725723266602 L 736.5232162475586 79.74725723266602 L 736.5232162475586 87.74725723266602 L 728.5232162475586 87.74725723266602 L 728.5232162475586 79.74725723266602 Z" stroke-miterlimit="10" stroke-width="0.5" stroke-dasharray="0"/><path fill="white" stroke="#505050" paint-order="fill stroke markers" d=" M 597.5232162475586 61.747257232666016 L 629.5232162475586 61.747257232666016 L 629.5232162475586 79.74725723266602 L 597.5232162475586 79.74725723266602 L 605.5232162475586 70.74725723266602 L 597.5232162475586 61.747257232666016" stroke-miterlimit="10" stroke-width="0.5" stroke-dasharray="0"/><path fill="none" stroke="none"/><path fill="none" stroke="#505050" paint-order="fill stroke markers" d=" M 621.5232162475586 65.74725723266602 L 629.5232162475586 65.74725723266602 L 629.5232162475586 73.74725723266602 L 621.5232162475586 73.74725723266602 L 621.5232162475586 65.74725723266602 Z" stroke-miterlimit="10" stroke-width="0.5" stroke-dasharray="0"/><text fill="#505050" stroke="none" font-family="monospace" font-size="14px" font-style="normal" font-weight="normal" text-decoration="normal" x="613.5232162475586" y="79.74725723266602" text-anchor="end" dominant-baseline="text-after-edge">i</text><path fill="white" stroke="#505050" paint-order="fill stroke markers" d=" M 594.9380111694336 91.30478286743164 L 643.9380111694336 91.30478286743164 L 643.9380111694336 109.30478286743164 L 594.9380111694336 109.30478286743164 L 602.9380111694336 100.30478286743164 L 594.9380111694336 91.30478286743164" stroke-miterlimit="10" stroke-width="0.5" stroke-dasharray="0"/><path fill="none" stroke="none"/><path fill="none" stroke="#505050" paint-order="fill stroke markers" d=" M 635.9380111694336 95.30478286743164 L 643.9380111694336 95.30478286743164 L 643.9380111694336 103.30478286743164 L 635.9380111694336 103.30478286743164 L 635.9380111694336 95.30478286743164 Z" stroke-miterlimit="10" stroke-width="0.5" stroke-dasharray="0"/><text fill="#505050" stroke="none" font-family="monospace" font-size="14px" font-style="normal" font-weight="normal" text-decoration="normal" x="627.9380111694336" y="109.30478286743164" text-anchor="end" dominant-baseline="text-after-edge">acc</text><path fill="white" stroke="#505050" paint-order="fill stroke markers" d=" M 637.6233749389648 62.37936782836914 L 645.6233749389648 62.37936782836914 L 653.6233749389648 70.37936782836914 L 645.6233749389648 78.37936782836914 L 637.6233749389648 78.37936782836914 L 637.6233749389648 62.37936782836914" stroke-miterlimit="10" stroke-width="0.5" stroke-dasharray="0"/><path fill="none" stroke="none"/><path fill="none" stroke="#505050" paint-order="fill stroke markers" d=" M 637.6233749389648 66.37936782836914 L 645.6233749389648 66.37936782836914 L 645.6233749389648 74.37936782836914 L 637.6233749389648 74.37936782836914 L 637.6233749389648 66.37936782836914 Z" stroke-miterlimit="10" stroke-width="0.5" stroke-dasharray="0"/><path fill="white" stroke="#505050" paint-order="fill stroke markers" d=" M 332.4401168823242 141.1862449645996 L 332.4401168823242 318.7221908569336 Q 332.4401168823242 326.7221908569336 340.4401168823242 326.7221908569336 L 948.3477020263672 326.7221908569336 Q 956.3477020263672 326.7221908569336 956.3477020263672 318.7221908569336 L 956.3477020263672 141.1862449645996 Q 956.3477020263672 133.1862449645996 948.3477020263672 133.1862449645996 L 340.4401168823242 133.1862449645996 Q 332.4401168823242 133.1862449645996 332.4401168823242 141.1862449645996" stroke-miterlimit="10" stroke-width="0.5" stroke-dasharray="0"/><path fill="#F0F0F0" stroke="#505050" paint-order="fill stroke markers" d=" M 867.3477020263672 141.1862449645996 L 956.3477020263672 141.1862449645996 L 956.3477020263672 237.1862449645996 L 867.3477020263672 237.1862449645996 L 867.3477020263672 141.1862449645996 Z" stroke-miterlimit="10" stroke-width="0.5" stroke-dasharray="0"/><path fill="none" stroke="none"/><text fill="#505050" stroke="none" font-family="monospace" font-size="14px" font-style="normal" font-weight="normal" text-decoration="normal" x="911.8477020263672" y="159.1862449645996" text-anchor="middle" dominant-baseline="text-after-edge">reduce</text><path fill="none" stroke="#505050" paint-order="fill stroke markers" d=" M 867.3477020263672 159.1862449645996 L 875.3477020263672 159.1862449645996 L 875.3477020263672 167.1862449645996 L 867.3477020263672 167.1862449645996 L 867.3477020263672 159.1862449645996 Z" stroke-miterlimit="10" stroke-width="0.5" stroke-dasharray="0"/><text fill="#505050" stroke="none" font-family="monospace" font-size="14px" font-style="normal" font-weight="normal" text-decoration="normal" x="883.3477020263672" y="173.1862449645996" text-anchor="start" dominant-baseline="text-after-edge">n</text><path fill="none" stroke="#505050" paint-order="fill stroke markers" d=" M 867.3477020263672 173.1862449645996 L 875.3477020263672 173.1862449645996 L 875.3477020263672 181.1862449645996 L 867.3477020263672 181.1862449645996 L 867.3477020263672 173.1862449645996 Z" stroke-miterlimit="10" stroke-width="0.5" stroke-dasharray="0"/><text fill="#505050" stroke="none" font-family="monospace" font-size="14px" font-style="normal" font-weight="normal" text-decoration="normal" x="883.3477020263672" y="187.1862449645996" text-anchor="start" dominant-baseline="text-after-edge">acc</text><path fill="none" stroke="#505050" paint-order="fill stroke markers" d=" M 867.3477020263672 187.1862449645996 L 875.3477020263672 187.1862449645996 L 875.3477020263672 195.1862449645996 L 867.3477020263672 195.1862449645996 L 867.3477020263672 187.1862449645996 Z" stroke-miterlimit="10" stroke-width="0.5" stroke-dasharray="0"/><text fill="#505050" stroke="none" font-family="monospace" font-size="14px" font-style="normal" font-weight="normal" text-decoration="normal" x="883.3477020263672" y="201.1862449645996" text-anchor="start" dominant-baseline="text-after-edge">end</text><path fill="none" stroke="#505050" paint-order="fill stroke markers" d=" M 867.3477020263672 201.1862449645996 L 924.3477020263672 201.1862449645996 L 924.3477020263672 233.1862449645996 L 867.3477020263672 233.1862449645996 L 867.3477020263672 201.1862449645996 Z" stroke-miterlimit="10" stroke-width="0.5" stroke-dasharray="0"/><path fill="none" stroke="none"/><path fill="none" stroke="#505050" paint-order="fill stroke markers" d=" M 867.3477020263672 205.1862449645996 L 875.3477020263672 205.1862449645996 L 875.3477020263672 213.1862449645996 L 867.3477020263672 213.1862449645996 L 867.3477020263672 205.1862449645996 Z" stroke-miterlimit="10" stroke-width="0.5" stroke-dasharray="0"/><text fill="#505050" stroke="none" font-family="monospace" font-size="14px" font-style="normal" font-weight="normal" text-decoration="normal" x="883.3477020263672" y="219.1862449645996" text-anchor="start" dominant-baseline="text-after-edge">i</text><path fill="none" stroke="#505050" paint-order="fill stroke markers" d=" M 867.3477020263672 219.1862449645996 L 875.3477020263672 219.1862449645996 L 875.3477020263672 227.1862449645996 L 867.3477020263672 227.1862449645996 L 867.3477020263672 219.1862449645996 Z" stroke-miterlimit="10" stroke-width="0.5" stroke-dasharray="0"/><text fill="#505050" stroke="none" font-family="monospace" font-size="14px" font-style="normal" font-weight="normal" text-decoration="normal" x="883.3477020263672" y="233.1862449645996" text-anchor="start" dominant-baseline="text-after-edge">acc</text><path fill="none" stroke="#505050" paint-order="fill stroke markers" d=" M 916.3477020263672 205.1862449645996 L 924.3477020263672 205.1862449645996 L 924.3477020263672 213.1862449645996 L 916.3477020263672 213.1862449645996 L 916.3477020263672 205.1862449645996 Z" stroke-miterlimit="10" stroke-width="0.5" stroke-dasharray="0"/><text fill="#505050" stroke="none" font-family="monospace" font-size="14px" font-style="normal" font-weight="normal" text-decoration="normal" x="932.3477020263672" y="226.1862449645996" text-anchor="start" dominant-baseline="text-after-edge">f</text><path fill="none" stroke="#505050" paint-order="fill stroke markers" d=" M 948.3477020263672 159.1862449645996 L 956.3477020263672 159.1862449645996 L 956.3477020263672 167.1862449645996 L 948.3477020263672 167.1862449645996 L 948.3477020263672 159.1862449645996 Z" stroke-miterlimit="10" stroke-width="0.5" stroke-dasharray="0"/><path fill="none" stroke="#505050" paint-order="fill stroke markers" d=" M 795.7954656481743 169.2024335861206 L 787.7954656481743 169.2024335861206 M 795.7954656481743 183.2024335861206 L 787.7954656481743 183.2024335861206 M 852.7954656481743 169.2024335861206 L 860.7954656481743 169.2024335861206" stroke-miterlimit="10" stroke-dasharray="0"/><path fill="white" stroke="#505050" paint-order="fill stroke markers" d=" M 422.5317077636719 155.26578903198242 L 422.5317077636719 302.7221908569336 Q 422.5317077636719 310.7221908569336 430.5317077636719 310.7221908569336 L 771.1154022216797 310.7221908569336 Q 779.1154022216797 310.7221908569336 779.1154022216797 302.7221908569336 L 779.1154022216797 155.26578903198242 Q 779.1154022216797 147.26578903198242 771.1154022216797 147.26578903198242 L 430.5317077636719 147.26578903198242 Q 422.5317077636719 147.26578903198242 422.5317077636719 155.26578903198242" stroke-miterlimit="10" stroke-width="0.5" stroke-dasharray="0"/><path fill="#F0F0F0" stroke="#505050" paint-order="fill stroke markers" d=" M 722.1154022216797 155.26578903198242 L 779.1154022216797 155.26578903198242 L 779.1154022216797 201.26578903198242 L 722.1154022216797 201.26578903198242 L 722.1154022216797 155.26578903198242 Z" stroke-miterlimit="10" stroke-width="0.5" stroke-dasharray="0"/><path fill="none" stroke="none"/><text fill="#505050" stroke="none" font-family="monospace" font-size="14px" font-style="normal" font-weight="normal" text-decoration="normal" x="750.6154022216797" y="173.26578903198242" text-anchor="middle" dominant-baseline="text-after-edge">step</text><path fill="none" stroke="#505050" paint-order="fill stroke markers" d=" M 722.1154022216797 173.26578903198242 L 730.1154022216797 173.26578903198242 L 730.1154022216797 181.26578903198242 L 722.1154022216797 181.26578903198242 L 722.1154022216797 173.26578903198242 Z" stroke-miterlimit="10" stroke-width="0.5" stroke-dasharray="0"/><text fill="#505050" stroke="none" font-family="monospace" font-size="14px" font-style="normal" font-weight="normal" text-decoration="normal" x="738.1154022216797" y="187.26578903198242" text-anchor="start" dominant-baseline="text-after-edge">n</text><path fill="none" stroke="#505050" paint-order="fill stroke markers" d=" M 722.1154022216797 187.26578903198242 L 730.1154022216797 187.26578903198242 L 730.1154022216797 195.26578903198242 L 722.1154022216797 195.26578903198242 L 722.1154022216797 187.26578903198242 Z" stroke-miterlimit="10" stroke-width="0.5" stroke-dasharray="0"/><text fill="#505050" stroke="none" font-family="monospace" font-size="14px" font-style="normal" font-weight="normal" text-decoration="normal" x="738.1154022216797" y="201.26578903198242" text-anchor="start" dominant-baseline="text-after-edge">acc</text><path fill="none" stroke="#505050" paint-order="fill stroke markers" d=" M 771.1154022216797 173.26578903198242 L 779.1154022216797 173.26578903198242 L 779.1154022216797 181.26578903198242 L 771.1154022216797 181.26578903198242 L 771.1154022216797 173.26578903198242 Z" stroke-miterlimit="10" stroke-width="0.5" stroke-dasharray="0"/><path fill="white" stroke="#505050" paint-order="fill stroke markers" d=" M 665.4878082275391 172.3231964111328 L 689.4878082275391 172.3231964111328 L 689.4878082275391 226.3231964111328 L 665.4878082275391 226.3231964111328 L 665.4878082275391 172.3231964111328 Z" stroke-miterlimit="10" stroke-width="0.5" stroke-dasharray="0"/><path fill="#F0F0F0" stroke="none" paint-order="stroke fill markers" d=""/><path fill="none" stroke="none"/><text fill="#505050" stroke="none" font-family="monospace" font-size="14px" font-style="normal" font-weight="normal" text-decoration="normal" x="677.4878082275391" y="190.3231964111328" text-anchor="middle" dominant-baseline="text-after-edge">?</text><path fill="none" stroke="#505050" paint-order="fill stroke markers" d=" M 665.4878082275391 190.3231964111328 L 673.4878082275391 190.3231964111328 L 673.4878082275391 198.3231964111328 L 665.4878082275391 198.3231964111328 L 665.4878082275391 190.3231964111328 Z" stroke-miterlimit="10" stroke-width="0.5" stroke-dasharray="0"/><path fill="none" stroke="#505050" paint-order="fill stroke markers" d=" M 665.4878082275391 202.3231964111328 L 673.4878082275391 202.3231964111328 L 673.4878082275391 210.3231964111328 L 665.4878082275391 210.3231964111328 L 665.4878082275391 202.3231964111328 Z" stroke-miterlimit="10" stroke-width="0.5" stroke-dasharray="0"/><path fill="none" stroke="#505050" paint-order="fill stroke markers" d=" M 665.4878082275391 214.3231964111328 L 673.4878082275391 214.3231964111328 L 673.4878082275391 222.3231964111328 L 665.4878082275391 222.3231964111328 L 665.4878082275391 214.3231964111328 Z" stroke-miterlimit="10" stroke-width="0.5" stroke-dasharray="0"/><path fill="none" stroke="#505050" paint-order="fill stroke markers" d=" M 681.4878082275391 190.3231964111328 L 689.4878082275391 190.3231964111328 L 689.4878082275391 198.3231964111328 L 681.4878082275391 198.3231964111328 L 681.4878082275391 190.3231964111328 Z" stroke-miterlimit="10" stroke-width="0.5" stroke-dasharray="0"/><path fill="white" stroke="#505050" paint-order="fill stroke markers" d=" M 699.3596954345703 185.9320297241211 L 707.3596954345703 185.9320297241211 L 715.3596954345703 193.9320297241211 L 707.3596954345703 201.9320297241211 L 699.3596954345703 201.9320297241211 L 699.3596954345703 185.9320297241211" stroke-miterlimit="10" stroke-width="0.5" stroke-dasharray="0"/><path fill="none" stroke="none"/><path fill="none" stroke="#505050" paint-order="fill stroke markers" d=" M 699.3596954345703 189.9320297241211 L 707.3596954345703 189.9320297241211 L 707.3596954345703 197.9320297241211 L 699.3596954345703 197.9320297241211 L 699.3596954345703 189.9320297241211 Z" stroke-miterlimit="10" stroke-width="0.5" stroke-dasharray="0"/><path fill="white" stroke="#505050" paint-order="fill stroke markers" d=" M 421.96246337890625 195.91834831237793 L 470.96246337890625 195.91834831237793 L 470.96246337890625 213.91834831237793 L 421.96246337890625 213.91834831237793 L 429.96246337890625 204.91834831237793 L 421.96246337890625 195.91834831237793" stroke-miterlimit="10" stroke-width="0.5" stroke-dasharray="0"/><path fill="none" stroke="none"/><path fill="none" stroke="#505050" paint-order="fill stroke markers" d=" M 462.96246337890625 199.91834831237793 L 470.96246337890625 199.91834831237793 L 470.96246337890625 207.91834831237793 L 462.96246337890625 207.91834831237793 L 462.96246337890625 199.91834831237793 Z" stroke-miterlimit="10" stroke-width="0.5" stroke-dasharray="0"/><text fill="#505050" stroke="none" font-family="monospace" font-size="14px" font-style="normal" font-weight="normal" text-decoration="normal" x="454.96246337890625" y="213.91834831237793" text-anchor="end" dominant-baseline="text-after-edge">acc</text><path fill="white" stroke="#505050" paint-order="fill stroke markers" d=" M 447.88427734375 157.79137229919434 L 479.88427734375 157.79137229919434 L 479.88427734375 175.79137229919434 L 447.88427734375 175.79137229919434 L 455.88427734375 166.79137229919434 L 447.88427734375 157.79137229919434" stroke-miterlimit="10" stroke-width="0.5" stroke-dasharray="0"/><path fill="none" stroke="none"/><path fill="none" stroke="#505050" paint-order="fill stroke markers" d=" M 471.88427734375 161.79137229919434 L 479.88427734375 161.79137229919434 L 479.88427734375 169.79137229919434 L 471.88427734375 169.79137229919434 L 471.88427734375 161.79137229919434 Z" stroke-miterlimit="10" stroke-width="0.5" stroke-dasharray="0"/><text fill="#505050" stroke="none" font-family="monospace" font-size="14px" font-style="normal" font-weight="normal" text-decoration="normal" x="463.88427734375" y="175.79137229919434" text-anchor="end" dominant-baseline="text-after-edge">n</text><path fill="white" stroke="#505050" paint-order="fill stroke markers" d=" M 579.9644393920898 152.2355499267578 L 604.9644393920898 152.2355499267578 L 604.9644393920898 194.2355499267578 L 579.9644393920898 194.2355499267578 L 579.9644393920898 152.2355499267578 Z" stroke-miterlimit="10" stroke-width="0.5" stroke-dasharray="0"/><path fill="#F0F0F0" stroke="none" paint-order="stroke fill markers" d=""/><path fill="none" stroke="none"/><text fill="#505050" stroke="none" font-family="monospace" font-size="14px" font-style="normal" font-weight="normal" text-decoration="normal" x="592.4644393920898" y="170.2355499267578" text-anchor="middle" dominant-baseline="text-after-edge">&lt;=</text><path fill="none" stroke="#505050" paint-order="fill stroke markers" d=" M 579.9644393920898 170.2355499267578 L 587.9644393920898 170.2355499267578 L 587.9644393920898 178.2355499267578 L 579.9644393920898 178.2355499267578 L 579.9644393920898 170.2355499267578 Z" stroke-miterlimit="10" stroke-width="0.5" stroke-dasharray="0"/><path fill="none" stroke="#505050" paint-order="fill stroke markers" d=" M 579.9644393920898 182.2355499267578 L 587.9644393920898 182.2355499267578 L 587.9644393920898 190.2355499267578 L 579.9644393920898 190.2355499267578 L 579.9644393920898 182.2355499267578 Z" stroke-miterlimit="10" stroke-width="0.5" stroke-dasharray="0"/><path fill="none" stroke="#505050" paint-order="fill stroke markers" d=" M 596.9644393920898 170.2355499267578 L 604.9644393920898 170.2355499267578 L 604.9644393920898 178.2355499267578 L 596.9644393920898 178.2355499267578 L 596.9644393920898 170.2355499267578 Z" stroke-miterlimit="10" stroke-width="0.5" stroke-dasharray="0"/><path fill="white" stroke="#505050" paint-order="fill stroke markers" d=" M 585.7052764892578 217.62160873413086 L 642.7052764892578 217.62160873413086 L 642.7052764892578 263.62160873413086 L 585.7052764892578 263.62160873413086 L 585.7052764892578 217.62160873413086 Z" stroke-miterlimit="10" stroke-width="0.5" stroke-dasharray="0"/><path fill="#F0F0F0" stroke="none" paint-order="stroke fill markers" d=""/><path fill="none" stroke="none"/><text fill="#505050" stroke="none" font-family="monospace" font-size="14px" font-style="normal" font-weight="normal" text-decoration="normal" x="614.2052764892578" y="235.62160873413086" text-anchor="middle" dominant-baseline="text-after-edge">step</text><path fill="none" stroke="#505050" paint-order="fill stroke markers" d=" M 585.7052764892578 235.62160873413086 L 593.7052764892578 235.62160873413086 L 593.7052764892578 243.62160873413086 L 585.7052764892578 243.62160873413086 L 585.7052764892578 235.62160873413086 Z" stroke-miterlimit="10" stroke-width="0.5" stroke-dasharray="0"/><text fill="#505050" stroke="none" font-family="monospace" font-size="14px" font-style="normal" font-weight="normal" text-decoration="normal" x="601.7052764892578" y="249.62160873413086" text-anchor="start" dominant-baseline="text-after-edge">n</text><path fill="none" stroke="#505050" paint-order="fill stroke markers" d=" M 585.7052764892578 249.62160873413086 L 593.7052764892578 249.62160873413086 L 593.7052764892578 257.62160873413086 L 585.7052764892578 257.62160873413086 L 585.7052764892578 249.62160873413086 Z" stroke-miterlimit="10" stroke-width="0.5" stroke-dasharray="0"/><text fill="#505050" stroke="none" font-family="monospace" font-size="14px" font-style="normal" font-weight="normal" text-decoration="normal" x="601.7052764892578" y="263.62160873413086" text-anchor="start" dominant-baseline="text-after-edge">acc</text><path fill="none" stroke="#505050" paint-order="fill stroke markers" d=" M 634.7052764892578 235.62160873413086 L 642.7052764892578 235.62160873413086 L 642.7052764892578 243.62160873413086 L 634.7052764892578 243.62160873413086 L 634.7052764892578 235.62160873413086 Z" stroke-miterlimit="10" stroke-width="0.5" stroke-dasharray="0"/><path fill="white" stroke="#505050" paint-order="fill stroke markers" d=" M 535.9214744567871 210.9286880493164 L 560.9214744567871 210.9286880493164 L 560.9214744567871 240.9286880493164 L 535.9214744567871 240.9286880493164 L 535.9214744567871 210.9286880493164 Z" stroke-miterlimit="10" stroke-width="0.5" stroke-dasharray="0"/><path fill="#F0F0F0" stroke="none" paint-order="stroke fill markers" d=""/><path fill="none" stroke="none"/><text fill="#505050" stroke="none" font-family="monospace" font-size="14px" font-style="normal" font-weight="normal" text-decoration="normal" x="548.4214744567871" y="228.9286880493164" text-anchor="middle" dominant-baseline="text-after-edge">-1</text><path fill="none" stroke="#505050" paint-order="fill stroke markers" d=" M 535.9214744567871 228.9286880493164 L 543.9214744567871 228.9286880493164 L 543.9214744567871 236.9286880493164 L 535.9214744567871 236.9286880493164 L 535.9214744567871 228.9286880493164 Z" stroke-miterlimit="10" stroke-width="0.5" stroke-dasharray="0"/><path fill="none" stroke="#505050" paint-order="fill stroke markers" d=" M 552.9214744567871 228.9286880493164 L 560.9214744567871 228.9286880493164 L 560.9214744567871 236.9286880493164 L 552.9214744567871 236.9286880493164 L 552.9214744567871 228.9286880493164 Z" stroke-miterlimit="10" stroke-width="0.5" stroke-dasharray="0"/><path fill="white" stroke="#505050" paint-order="fill stroke markers" d=" M 518.4643188416958 248.22502899169922 L 575.4643188416958 248.22502899169922 L 575.4643188416958 294.2250289916992 L 518.4643188416958 294.2250289916992 L 518.4643188416958 248.22502899169922 Z" stroke-miterlimit="10" stroke-width="0.5" stroke-dasharray="0"/><path fill="#F0F0F0" stroke="none" paint-order="stroke fill markers" d=""/><path fill="none" stroke="none"/><text fill="#505050" stroke="none" font-family="monospace" font-size="14px" font-style="normal" font-weight="normal" text-decoration="normal" x="546.9643188416958" y="266.2250289916992" text-anchor="middle" dominant-baseline="text-after-edge">f</text><path fill="none" stroke="#505050" paint-order="fill stroke markers" d=" M 518.4643188416958 266.2250289916992 L 526.4643188416958 266.2250289916992 L 526.4643188416958 274.2250289916992 L 518.4643188416958 274.2250289916992 L 518.4643188416958 266.2250289916992 Z" stroke-miterlimit="10" stroke-width="0.5" stroke-dasharray="0"/><text fill="#505050" stroke="none" font-family="monospace" font-size="14px" font-style="normal" font-weight="normal" text-decoration="normal" x="534.4643188416958" y="280.2250289916992" text-anchor="start" dominant-baseline="text-after-edge">i</text><path fill="none" stroke="#505050" paint-order="fill stroke markers" d=" M 518.4643188416958 280.2250289916992 L 526.4643188416958 280.2250289916992 L 526.4643188416958 288.2250289916992 L 518.4643188416958 288.2250289916992 L 518.4643188416958 280.2250289916992 Z" stroke-miterlimit="10" stroke-width="0.5" stroke-dasharray="0"/><text fill="#505050" stroke="none" font-family="monospace" font-size="14px" font-style="normal" font-weight="normal" text-decoration="normal" x="534.4643188416958" y="294.2250289916992" text-anchor="start" dominant-baseline="text-after-edge">acc</text><path fill="none" stroke="#505050" paint-order="fill stroke markers" d=" M 567.4643188416958 266.2250289916992 L 575.4643188416958 266.2250289916992 L 575.4643188416958 274.2250289916992 L 567.4643188416958 274.2250289916992 L 567.4643188416958 266.2250289916992 Z" stroke-miterlimit="10" stroke-width="0.5" stroke-dasharray="0"/><path fill="#e0e0e0" stroke="none" paint-order="stroke fill markers" d=" M 418.49691009521484 263.1427879333496 L 410.49691009521484 240.1427879333496 L 410.49691009521484 286.1427879333496 Z M 510.4643188416958 271.2250289916992 L 518.4643188416958 248.22502899169922 L 518.4643188416958 294.2250289916992 Z"/><path fill="none" stroke="none"/><path fill="none" stroke="#e0e0e0" paint-order="fill stroke markers" d=" M 418.49691009521484 263.1427879333496 C 446.19346981453884 263.1427879333496 482.7677591223718 271.2250289916992 510.4643188416958 271.2250289916992" stroke-miterlimit="10" stroke-width="2" stroke-dasharray="0"/><path fill="none" stroke="none"/><path fill="white" stroke="#505050" paint-order="fill stroke markers" d=" M 337.49691009521484 236.1427879333496 L 410.49691009521484 236.1427879333496 L 410.49691009521484 290.1427879333496 L 337.49691009521484 290.1427879333496 L 345.49691009521484 263.1427879333496 L 337.49691009521484 236.1427879333496" stroke-miterlimit="10" stroke-width="0.5" stroke-dasharray="0"/><path fill="#F0F0F0" stroke="none" paint-order="stroke fill markers" d=" M 353.49691009521484 240.1427879333496 L 410.49691009521484 240.1427879333496 L 410.49691009521484 286.1427879333496 L 353.49691009521484 286.1427879333496 L 353.49691009521484 240.1427879333496 Z"/><path fill="none" stroke="none"/><path fill="none" stroke="#505050" paint-order="fill stroke markers" d=" M 353.49691009521484 240.1427879333496 L 410.49691009521484 240.1427879333496 L 410.49691009521484 286.1427879333496 L 353.49691009521484 286.1427879333496 L 353.49691009521484 240.1427879333496 Z" stroke-miterlimit="10" stroke-width="0.5" stroke-dasharray="0"/><path fill="none" stroke="none"/><text fill="#505050" stroke="none" font-family="monospace" font-size="14px" font-style="normal" font-weight="normal" text-decoration="normal" x="381.99691009521484" y="258.1427879333496" text-anchor="middle" dominant-baseline="text-after-edge">f</text><path fill="none" stroke="#505050" paint-order="fill stroke markers" d=" M 353.49691009521484 258.1427879333496 L 361.49691009521484 258.1427879333496 L 361.49691009521484 266.1427879333496 L 353.49691009521484 266.1427879333496 L 353.49691009521484 258.1427879333496 Z" stroke-miterlimit="10" stroke-width="0.5" stroke-dasharray="0"/><text fill="#505050" stroke="none" font-family="monospace" font-size="14px" font-style="normal" font-weight="normal" text-decoration="normal" x="369.49691009521484" y="272.1427879333496" text-anchor="start" dominant-baseline="text-after-edge">i</text><path fill="none" stroke="#505050" paint-order="fill stroke markers" d=" M 353.49691009521484 272.1427879333496 L 361.49691009521484 272.1427879333496 L 361.49691009521484 280.1427879333496 L 353.49691009521484 280.1427879333496 L 353.49691009521484 272.1427879333496 Z" stroke-miterlimit="10" stroke-width="0.5" stroke-dasharray="0"/><text fill="#505050" stroke="none" font-family="monospace" font-size="14px" font-style="normal" font-weight="normal" text-decoration="normal" x="369.49691009521484" y="286.1427879333496" text-anchor="start" dominant-baseline="text-after-edge">acc</text><path fill="none" stroke="#505050" paint-order="fill stroke markers" d=" M 402.49691009521484 258.1427879333496 L 410.49691009521484 258.1427879333496 L 410.49691009521484 266.1427879333496 L 402.49691009521484 266.1427879333496 L 402.49691009521484 258.1427879333496 Z" stroke-miterlimit="10" stroke-width="0.5" stroke-dasharray="0"/><path fill="none" stroke="#505050" paint-order="fill stroke markers" d=" M 353.49691009521484 240.1427879333496 L 410.49691009521484 240.1427879333496 L 410.49691009521484 286.1427879333496 L 353.49691009521484 286.1427879333496 L 353.49691009521484 240.1427879333496 Z" stroke-miterlimit="10" stroke-width="0.5" stroke-dasharray="6,3"/><path fill="#F0F0F0" stroke="none" paint-order="stroke fill markers" d=""/><path fill="none" stroke="none"/><text fill="#505050" stroke="none" font-family="monospace" font-size="14px" font-style="normal" font-weight="normal" text-decoration="normal" x="381.99691009521484" y="258.1427879333496" text-anchor="middle" dominant-baseline="text-after-edge">f</text><path fill="none" stroke="#505050" paint-order="fill stroke markers" d=" M 353.49691009521484 258.1427879333496 L 361.49691009521484 258.1427879333496 L 361.49691009521484 266.1427879333496 L 353.49691009521484 266.1427879333496 L 353.49691009521484 258.1427879333496 Z" stroke-miterlimit="10" stroke-width="0.5" stroke-dasharray="0"/><text fill="#505050" stroke="none" font-family="monospace" font-size="14px" font-style="normal" font-weight="normal" text-decoration="normal" x="369.49691009521484" y="272.1427879333496" text-anchor="start" dominant-baseline="text-after-edge">i</text><path fill="none" stroke="#505050" paint-order="fill stroke markers" d=" M 353.49691009521484 272.1427879333496 L 361.49691009521484 272.1427879333496 L 361.49691009521484 280.1427879333496 L 353.49691009521484 280.1427879333496 L 353.49691009521484 272.1427879333496 Z" stroke-miterlimit="10" stroke-width="0.5" stroke-dasharray="0"/><text fill="#505050" stroke="none" font-family="monospace" font-size="14px" font-style="normal" font-weight="normal" text-decoration="normal" x="369.49691009521484" y="286.1427879333496" text-anchor="start" dominant-baseline="text-after-edge">acc</text><path fill="none" stroke="#505050" paint-order="fill stroke markers" d=" M 402.49691009521484 258.1427879333496 L 410.49691009521484 258.1427879333496 L 410.49691009521484 266.1427879333496 L 402.49691009521484 266.1427879333496 L 402.49691009521484 258.1427879333496 Z" stroke-miterlimit="10" stroke-width="0.5" stroke-dasharray="0"/><path fill="white" stroke="#505050" paint-order="fill stroke markers" d=" M 365.4752616882324 179.79889678955078 L 414.4752616882324 179.79889678955078 L 414.4752616882324 197.79889678955078 L 365.4752616882324 197.79889678955078 L 373.4752616882324 188.79889678955078 L 365.4752616882324 179.79889678955078" stroke-miterlimit="10" stroke-width="0.5" stroke-dasharray="0"/><path fill="none" stroke="none"/><path fill="none" stroke="#505050" paint-order="fill stroke markers" d=" M 406.4752616882324 183.79889678955078 L 414.4752616882324 183.79889678955078 L 414.4752616882324 191.79889678955078 L 406.4752616882324 191.79889678955078 L 406.4752616882324 183.79889678955078 Z" stroke-miterlimit="10" stroke-width="0.5" stroke-dasharray="0"/><text fill="#505050" stroke="none" font-family="monospace" font-size="14px" font-style="normal" font-weight="normal" text-decoration="normal" x="398.4752616882324" y="197.79889678955078" text-anchor="end" dominant-baseline="text-after-edge">end</text><path fill="white" stroke="#505050" paint-order="fill stroke markers" d=" M 795.7954656481743 147.2024335861206 L 852.7954656481743 147.2024335861206 L 852.7954656481743 193.2024335861206 L 795.7954656481743 193.2024335861206 L 795.7954656481743 147.2024335861206 Z" stroke-miterlimit="10" stroke-width="0.5" stroke-dasharray="0"/><path fill="#F0F0F0" stroke="none" paint-order="stroke fill markers" d=""/><path fill="none" stroke="none"/><text fill="#505050" stroke="none" font-family="monospace" font-size="14px" font-style="normal" font-weight="normal" text-decoration="normal" x="824.2954656481743" y="165.2024335861206" text-anchor="middle" dominant-baseline="text-after-edge">step</text><path fill="none" stroke="#505050" paint-order="fill stroke markers" d=" M 795.7954656481743 165.2024335861206 L 803.7954656481743 165.2024335861206 L 803.7954656481743 173.2024335861206 L 795.7954656481743 173.2024335861206 L 795.7954656481743 165.2024335861206 Z" stroke-miterlimit="10" stroke-width="0.5" stroke-dasharray="0"/><text fill="#505050" stroke="none" font-family="monospace" font-size="14px" font-style="normal" font-weight="normal" text-decoration="normal" x="811.7954656481743" y="179.2024335861206" text-anchor="start" dominant-baseline="text-after-edge">n</text><path fill="none" stroke="#505050" paint-order="fill stroke markers" d=" M 795.7954656481743 179.2024335861206 L 803.7954656481743 179.2024335861206 L 803.7954656481743 187.2024335861206 L 795.7954656481743 187.2024335861206 L 795.7954656481743 179.2024335861206 Z" stroke-miterlimit="10" stroke-width="0.5" stroke-dasharray="0"/><text fill="#505050" stroke="none" font-family="monospace" font-size="14px" font-style="normal" font-weight="normal" text-decoration="normal" x="811.7954656481743" y="193.2024335861206" text-anchor="start" dominant-baseline="text-after-edge">acc</text><path fill="none" stroke="#505050" paint-order="fill stroke markers" d=" M 844.7954656481743 165.2024335861206 L 852.7954656481743 165.2024335861206 L 852.7954656481743 173.2024335861206 L 844.7954656481743 173.2024335861206 L 844.7954656481743 165.2024335861206 Z" stroke-miterlimit="10" stroke-width="0.5" stroke-dasharray="0"/><path fill="none" stroke="#505050" paint-order="fill stroke markers" d=" M 482.5267448425293 96.99422454833984 C 485.54795617176796 96.99422454833984 489.57555609629844 97.11141204833984 492.5967674255371 97.11141204833984" stroke-miterlimit="10" stroke-dasharray="0"/><path fill="none" stroke="#505050" paint-order="fill stroke markers" d=" M 571.5089263916016 444.8895835876465 C 576.5381067545659 444.8895835876465 583.1882213203662 443.52710247039795 588.2174016833305 443.52710247039795" stroke-miterlimit="10" stroke-dasharray="0"/><path fill="none" stroke="#505050" paint-order="fill stroke markers" d=" M 534.8983306884766 406.30124282836914 C 551.2447337509583 406.30124282836914 571.8709986208488 417.52710247039795 588.2174016833305 417.52710247039795" stroke-miterlimit="10" stroke-dasharray="0"/><path fill="none" stroke="#505050" paint-order="fill stroke markers" d=" M 534.8983306884766 406.30124282836914 C 550.9156877358549 406.30124282836914 572.2000446359522 403.52710247039795 588.2174016833305 403.52710247039795" stroke-miterlimit="10" stroke-dasharray="0"/><path fill="none" stroke="#505050" paint-order="fill stroke markers" d=" M 539.9692937731743 379.2411861419678 C 554.7689964474275 379.2411861419678 573.4176990090773 389.52710247039795 588.2174016833305 389.52710247039795" stroke-miterlimit="10" stroke-dasharray="0"/><path fill="none" stroke="#505050" paint-order="fill stroke markers" d=" M 414.4752616882324 187.79889678955078 C 464.12423024898004 187.79889678955078 530.3154708313422 186.2355499267578 579.9644393920898 186.2355499267578" stroke-miterlimit="10" stroke-dasharray="0"/><path fill="none" stroke="#505050" paint-order="fill stroke markers" d=" M 689.4878082275391 194.3231964111328 C 692.4516984340892 194.3231964111328 696.3958052280202 193.9320297241211 699.3596954345703 193.9320297241211" stroke-miterlimit="10" stroke-dasharray="0"/><path fill="none" stroke="#505050" paint-order="fill stroke markers" d=" M 470.96246337890625 203.91834831237793 C 529.3245262062018 203.91834831237793 607.1257454002435 206.3231964111328 665.4878082275391 206.3231964111328" stroke-miterlimit="10" stroke-dasharray="0"/><path fill="none" stroke="#505050" paint-order="fill stroke markers" d=" M 604.9644393920898 174.2355499267578 C 624.0953895640645 174.2355499267578 646.3568580555644 194.3231964111328 665.4878082275391 194.3231964111328" stroke-miterlimit="10" stroke-dasharray="0"/><path fill="none" stroke="#505050" paint-order="fill stroke markers" d=" M 642.7052764892578 239.62160873413086 C 652.0615551720334 239.62160873413086 656.1315295447635 218.3231964111328 665.4878082275391 218.3231964111328" stroke-miterlimit="10" stroke-dasharray="0"/><path fill="none" stroke="#505050" paint-order="fill stroke markers" d=" M 479.88427734375 165.79137229919434 C 513.2838692977485 165.79137229919434 485.0647268876972 270.2250289916992 518.4643188416958 270.2250289916992" stroke-miterlimit="10" stroke-dasharray="0"/><path fill="none" stroke="#505050" paint-order="fill stroke markers" d=" M 470.96246337890625 203.91834831237793 C 498.95358752697217 203.91834831237793 490.47319469362986 284.2250289916992 518.4643188416958 284.2250289916992" stroke-miterlimit="10" stroke-dasharray="0"/><path fill="none" stroke="#505050" paint-order="fill stroke markers" d=" M 575.4643188416958 270.2250289916992 C 581.3166320596441 270.2250289916992 579.8529632713095 253.62160873413086 585.7052764892578 253.62160873413086" stroke-miterlimit="10" stroke-dasharray="0"/><path fill="none" stroke="#505050" paint-order="fill stroke markers" d=" M 479.88427734375 165.79137229919434 C 510.01500696366634 165.79137229919434 549.8337097721735 174.2355499267578 579.9644393920898 174.2355499267578" stroke-miterlimit="10" stroke-dasharray="0"/><path fill="none" stroke="#505050" paint-order="fill stroke markers" d=" M 560.9214744567871 232.9286880493164 C 568.6229602058496 232.9286880493164 578.0037907401953 239.62160873413086 585.7052764892578 239.62160873413086" stroke-miterlimit="10" stroke-dasharray="0"/><path fill="none" stroke="#505050" paint-order="fill stroke markers" d=" M 479.88427734375 165.79137229919434 C 506.1194216425246 165.79137229919434 509.6863301580125 232.9286880493164 535.9214744567871 232.9286880493164" stroke-miterlimit="10" stroke-dasharray="0"/></g></g></svg>