<svg version="1.1" xmlns="http://www.w3.org/2000/svg" xmlns:xlink="http://www.w3.org/1999/xlink" width="906.1375923156738" height="189.25624084472656"><defs/><g transform="translate(-164.26562118530273,-178.01877212524414)"><g><path fill="white" stroke="#505050" paint-order="fill stroke markers" d=" M 404.58135986328125 187.01877212524414 L 404.58135986328125 358.2750129699707 Q 404.58135986328125 366.2750129699707 412.58135986328125 366.2750129699707 L 809.6344757080078 366.2750129699707 Q 817.6344757080078 366.2750129699707 817.6344757080078 358.2750129699707 L 817.6344757080078 187.01877212524414 Q 817.6344757080078 179.01877212524414 809.6344757080078 179.01877212524414 L 412.58135986328125 179.01877212524414 Q 404.58135986328125 179.01877212524414 404.58135986328125 187.01877212524414" stroke-miterlimit="10" stroke-width="0.5" stroke-dasharray=""/><path fill="#F0F0F0" stroke="#505050" paint-order="fill stroke markers" d=" M 736.6344757080078 312.2750129699707 L 809.6344757080078 312.2750129699707 L 809.6344757080078 358.2750129699707 L 736.6344757080078 358.2750129699707 L 736.6344757080078 312.2750129699707 Z" stroke-miterlimit="10" stroke-width="0.5" stroke-dasharray=""/><text fill="#505050" stroke="none" font-family="monospace" font-size="14px" font-style="normal" font-weight="normal" text-decoration="normal" x="773.1344757080078" y="330.2750129699707" text-anchor="middle" dominant-baseline="text-after-edge">facstep</text><path fill="none" stroke="#505050" paint-order="fill stroke markers" d=" M 736.6344757080078 331.2750129699707 L 744.6344757080078 331.2750129699707 L 744.6344757080078 339.2750129699707 L 736.6344757080078 339.2750129699707 L 736.6344757080078 331.2750129699707 Z" stroke-miterlimit="10" stroke-width="0.5" stroke-dasharray=""/><text fill="#505050" stroke="none" font-family="monospace" font-size="14px" font-style="normal" font-weight="normal" text-decoration="normal" x="752.6344757080078" y="344.2750129699707" text-anchor="start" dominant-baseline="text-after-edge">n</text><path fill="none" stroke="#505050" paint-order="fill stroke markers" d=" M 736.6344757080078 345.2750129699707 L 744.6344757080078 345.2750129699707 L 744.6344757080078 353.2750129699707 L 736.6344757080078 353.2750129699707 L 736.6344757080078 345.2750129699707 Z" stroke-miterlimit="10" stroke-width="0.5" stroke-dasharray=""/><text fill="#505050" stroke="none" font-family="monospace" font-size="14px" font-style="normal" font-weight="normal" text-decoration="normal" x="752.6344757080078" y="358.2750129699707" text-anchor="start" dominant-baseline="text-after-edge">acc</text><path fill="none" stroke="#505050" paint-order="fill stroke markers" d=" M 801.6344757080078 330.2750129699707 L 809.6344757080078 330.2750129699707 L 809.6344757080078 338.2750129699707 L 801.6344757080078 338.2750129699707 L 801.6344757080078 330.2750129699707 Z" stroke-miterlimit="10" stroke-width="0.5" stroke-dasharray=""/><path fill="white" stroke="#505050" paint-order="fill stroke markers" d=" M 659.9876251220703 213.80626678466797 L 691.9876251220703 213.80626678466797 L 691.9876251220703 267.80626678466797 L 659.9876251220703 267.80626678466797 L 659.9876251220703 213.80626678466797 Z" stroke-miterlimit="10" stroke-width="0.5" stroke-dasharray=""/><text fill="#505050" stroke="none" font-family="monospace" font-size="14px" font-style="normal" font-weight="normal" text-decoration="normal" x="675.9876251220703" y="231.80626678466797" text-anchor="middle" dominant-baseline="text-after-edge">?</text><path fill="none" stroke="#505050" paint-order="fill stroke markers" d=" M 659.9876251220703 231.80626678466797 L 667.9876251220703 231.80626678466797 L 667.9876251220703 239.80626678466797 L 659.9876251220703 239.80626678466797 L 659.9876251220703 231.80626678466797 Z" stroke-miterlimit="10" stroke-width="0.5" stroke-dasharray=""/><path fill="none" stroke="#505050" paint-order="fill stroke markers" d=" M 659.9876251220703 243.80626678466797 L 667.9876251220703 243.80626678466797 L 667.9876251220703 251.80626678466797 L 659.9876251220703 251.80626678466797 L 659.9876251220703 243.80626678466797 Z" stroke-miterlimit="10" stroke-width="0.5" stroke-dasharray=""/><path fill="none" stroke="#505050" paint-order="fill stroke markers" d=" M 659.9876251220703 255.80626678466797 L 667.9876251220703 255.80626678466797 L 667.9876251220703 263.80626678466797 L 659.9876251220703 263.80626678466797 L 659.9876251220703 255.80626678466797 Z" stroke-miterlimit="10" stroke-width="0.5" stroke-dasharray=""/><path fill="none" stroke="#505050" paint-order="fill stroke markers" d=" M 683.9876251220703 231.80626678466797 L 691.9876251220703 231.80626678466797 L 691.9876251220703 239.80626678466797 L 683.9876251220703 239.80626678466797 L 683.9876251220703 231.80626678466797 Z" stroke-miterlimit="10" stroke-width="0.5" stroke-dasharray=""/><path fill="white" stroke="#505050" paint-order="fill stroke markers" d=" M 712.6344757080078 216.2625274658203 L 720.6344757080078 216.2625274658203 L 728.6344757080078 224.2625274658203 L 720.6344757080078 232.2625274658203 L 712.6344757080078 232.2625274658203 L 712.6344757080078 216.2625274658203" stroke-miterlimit="10" stroke-width="0.5" stroke-dasharray=""/><path fill="none" stroke="#505050" paint-order="fill stroke markers" d=" M 712.6344757080078 220.2625274658203 L 720.6344757080078 220.2625274658203 L 720.6344757080078 228.2625274658203 L 712.6344757080078 228.2625274658203 L 712.6344757080078 220.2625274658203 Z" stroke-miterlimit="10" stroke-width="0.5" stroke-dasharray=""/><path fill="white" stroke="#505050" paint-order="fill stroke markers" d=" M 527.5126266479492 303.6406440734863 L 559.5126266479492 303.6406440734863 L 559.5126266479492 345.6406440734863 L 527.5126266479492 345.6406440734863 L 527.5126266479492 303.6406440734863 Z" stroke-miterlimit="10" stroke-width="0.5" stroke-dasharray=""/><text fill="#505050" stroke="none" font-family="monospace" font-size="14px" font-style="normal" font-weight="normal" text-decoration="normal" x="543.5126266479492" y="321.6406440734863" text-anchor="middle" dominant-baseline="text-after-edge">*</text><path fill="none" stroke="#505050" paint-order="fill stroke markers" d=" M 527.5126266479492 321.6406440734863 L 535.5126266479492 321.6406440734863 L 535.5126266479492 329.6406440734863 L 527.5126266479492 329.6406440734863 L 527.5126266479492 321.6406440734863 Z" stroke-miterlimit="10" stroke-width="0.5" stroke-dasharray=""/><path fill="none" stroke="#505050" paint-order="fill stroke markers" d=" M 527.5126266479492 333.6406440734863 L 535.5126266479492 333.6406440734863 L 535.5126266479492 341.6406440734863 L 527.5126266479492 341.6406440734863 L 527.5126266479492 333.6406440734863 Z" stroke-miterlimit="10" stroke-width="0.5" stroke-dasharray=""/><path fill="none" stroke="#505050" paint-order="fill stroke markers" d=" M 551.5126266479492 321.6406440734863 L 559.5126266479492 321.6406440734863 L 559.5126266479492 329.6406440734863 L 551.5126266479492 329.6406440734863 L 551.5126266479492 321.6406440734863 Z" stroke-miterlimit="10" stroke-width="0.5" stroke-dasharray=""/><path fill="white" stroke="#505050" paint-order="fill stroke markers" d=" M 419.30328369140625 276.55626487731934 L 476.30328369140625 276.55626487731934 L 476.30328369140625 294.55626487731934 L 419.30328369140625 294.55626487731934 L 427.30328369140625 285.55626487731934 L 419.30328369140625 276.55626487731934" stroke-miterlimit="10" stroke-width="0.5" stroke-dasharray=""/><path fill="none" stroke="#505050" paint-order="fill stroke markers" d=" M 468.30328369140625 281.55626487731934 L 476.30328369140625 281.55626487731934 L 476.30328369140625 289.55626487731934 L 468.30328369140625 289.55626487731934 L 468.30328369140625 281.55626487731934 Z" stroke-miterlimit="10" stroke-width="0.5" stroke-dasharray=""/><text fill="#505050" stroke="none" font-family="monospace" font-size="14px" font-style="normal" font-weight="normal" text-decoration="normal" x="460.30328369140625" y="294.55626487731934" text-anchor="end" dominant-baseline="text-after-edge">acc</text><path fill="white" stroke="#505050" paint-order="fill stroke markers" d=" M 421.70953369140625 230.89377403259277 L 461.70953369140625 230.89377403259277 L 461.70953369140625 248.89377403259277 L 421.70953369140625 248.89377403259277 L 429.70953369140625 239.89377403259277 L 421.70953369140625 230.89377403259277" stroke-miterlimit="10" stroke-width="0.5" stroke-dasharray=""/><path fill="none" stroke="#505050" paint-order="fill stroke markers" d=" M 453.70953369140625 235.89377403259277 L 461.70953369140625 235.89377403259277 L 461.70953369140625 243.89377403259277 L 453.70953369140625 243.89377403259277 L 453.70953369140625 235.89377403259277 Z" stroke-miterlimit="10" stroke-width="0.5" stroke-dasharray=""/><text fill="#505050" stroke="none" font-family="monospace" font-size="14px" font-style="normal" font-weight="normal" text-decoration="normal" x="445.70953369140625" y="248.89377403259277" text-anchor="end" dominant-baseline="text-after-edge">n</text><path fill="white" stroke="#505050" paint-order="fill stroke markers" d=" M 565.8564071655273 194.78752899169922 L 597.8564071655273 194.78752899169922 L 597.8564071655273 236.78752899169922 L 565.8564071655273 236.78752899169922 L 565.8564071655273 194.78752899169922 Z" stroke-miterlimit="10" stroke-width="0.5" stroke-dasharray=""/><text fill="#505050" stroke="none" font-family="monospace" font-size="14px" font-style="normal" font-weight="normal" text-decoration="normal" x="581.8564071655273" y="212.78752899169922" text-anchor="middle" dominant-baseline="text-after-edge">&lt;=</text><path fill="none" stroke="#505050" paint-order="fill stroke markers" d=" M 565.8564071655273 212.78752899169922 L 573.8564071655273 212.78752899169922 L 573.8564071655273 220.78752899169922 L 565.8564071655273 220.78752899169922 L 565.8564071655273 212.78752899169922 Z" stroke-miterlimit="10" stroke-width="0.5" stroke-dasharray=""/><path fill="none" stroke="#505050" paint-order="fill stroke markers" d=" M 565.8564071655273 224.78752899169922 L 573.8564071655273 224.78752899169922 L 573.8564071655273 232.78752899169922 L 565.8564071655273 232.78752899169922 L 565.8564071655273 224.78752899169922 Z" stroke-miterlimit="10" stroke-width="0.5" stroke-dasharray=""/><path fill="none" stroke="#505050" paint-order="fill stroke markers" d=" M 589.8564071655273 212.78752899169922 L 597.8564071655273 212.78752899169922 L 597.8564071655273 220.78752899169922 L 589.8564071655273 220.78752899169922 L 589.8564071655273 212.78752899169922 Z" stroke-miterlimit="10" stroke-width="0.5" stroke-dasharray=""/><path fill="white" stroke="#505050" paint-order="fill stroke markers" d=" M 508.4126396179199 236.79690551757812 L 548.4126396179199 236.79690551757812 L 548.4126396179199 254.79690551757812 L 508.4126396179199 254.79690551757812 L 508.4126396179199 236.79690551757812 Z" stroke-miterlimit="10" stroke-width="0.5" stroke-dasharray=""/><path fill="none" stroke="#505050" paint-order="fill stroke markers" d=" M 540.4126396179199 241.79690551757812 L 548.4126396179199 241.79690551757812 L 548.4126396179199 249.79690551757812 L 540.4126396179199 249.79690551757812 L 540.4126396179199 241.79690551757812 Z" stroke-miterlimit="10" stroke-width="0.5" stroke-dasharray=""/><text fill="#505050" stroke="none" font-family="monospace" font-size="14px" font-style="normal" font-weight="normal" text-decoration="normal" x="532.4126396179199" y="254.79690551757812" text-anchor="end" dominant-baseline="text-after-edge">1</text><path fill="white" stroke="#505050" paint-order="fill stroke markers" d=" M 620.3126983642578 304.2750129699707 L 693.3126983642578 304.2750129699707 L 693.3126983642578 350.2750129699707 L 620.3126983642578 350.2750129699707 L 620.3126983642578 304.2750129699707 Z" stroke-miterlimit="10" stroke-width="0.5" stroke-dasharray=""/><text fill="#505050" stroke="none" font-family="monospace" font-size="14px" font-style="normal" font-weight="normal" text-decoration="normal" x="656.8126983642578" y="322.2750129699707" text-anchor="middle" dominant-baseline="text-after-edge">facstep</text><path fill="none" stroke="#505050" paint-order="fill stroke markers" d=" M 620.3126983642578 323.2750129699707 L 628.3126983642578 323.2750129699707 L 628.3126983642578 331.2750129699707 L 620.3126983642578 331.2750129699707 L 620.3126983642578 323.2750129699707 Z" stroke-miterlimit="10" stroke-width="0.5" stroke-dasharray=""/><text fill="#505050" stroke="none" font-family="monospace" font-size="14px" font-style="normal" font-weight="normal" text-decoration="normal" x="636.3126983642578" y="336.2750129699707" text-anchor="start" dominant-baseline="text-after-edge">n</text><path fill="none" stroke="#505050" paint-order="fill stroke markers" d=" M 620.3126983642578 337.2750129699707 L 628.3126983642578 337.2750129699707 L 628.3126983642578 345.2750129699707 L 620.3126983642578 345.2750129699707 L 620.3126983642578 337.2750129699707 Z" stroke-miterlimit="10" stroke-width="0.5" stroke-dasharray=""/><text fill="#505050" stroke="none" font-family="monospace" font-size="14px" font-style="normal" font-weight="normal" text-decoration="normal" x="636.3126983642578" y="350.2750129699707" text-anchor="start" dominant-baseline="text-after-edge">acc</text><path fill="none" stroke="#505050" paint-order="fill stroke markers" d=" M 685.3126983642578 322.2750129699707 L 693.3126983642578 322.2750129699707 L 693.3126983642578 330.2750129699707 L 685.3126983642578 330.2750129699707 L 685.3126983642578 322.2750129699707 Z" stroke-miterlimit="10" stroke-width="0.5" stroke-dasharray=""/><path fill="white" stroke="#505050" paint-order="fill stroke markers" d=" M 574.6720237731934 275.33438873291016 L 606.6720237731934 275.33438873291016 L 606.6720237731934 305.33438873291016 L 574.6720237731934 305.33438873291016 L 574.6720237731934 275.33438873291016 Z" stroke-miterlimit="10" stroke-width="0.5" stroke-dasharray=""/><text fill="#505050" stroke="none" font-family="monospace" font-size="14px" font-style="normal" font-weight="normal" text-decoration="normal" x="590.6720237731934" y="293.33438873291016" text-anchor="middle" dominant-baseline="text-after-edge">-1</text><path fill="none" stroke="#505050" paint-order="fill stroke markers" d=" M 574.6720237731934 293.33438873291016 L 582.6720237731934 293.33438873291016 L 582.6720237731934 301.33438873291016 L 574.6720237731934 301.33438873291016 L 574.6720237731934 293.33438873291016 Z" stroke-miterlimit="10" stroke-width="0.5" stroke-dasharray=""/><path fill="none" stroke="#505050" paint-order="fill stroke markers" d=" M 598.6720237731934 293.33438873291016 L 606.6720237731934 293.33438873291016 L 606.6720237731934 301.33438873291016 L 598.6720237731934 301.33438873291016 L 598.6720237731934 293.33438873291016 Z" stroke-miterlimit="10" stroke-width="0.5" stroke-dasharray=""/><path fill="white" stroke="#505050" paint-order="fill stroke markers" d=" M 165.26562118530273 232.0156478881836 L 165.26562118530273 297.7656478881836 Q 165.26562118530273 305.7656478881836 173.26562118530273 305.7656478881836 L 351.70312118530273 305.7656478881836 Q 359.70312118530273 305.7656478881836 359.70312118530273 297.7656478881836 L 359.70312118530273 232.0156478881836 Q 359.70312118530273 224.0156478881836 351.70312118530273 224.0156478881836 L 173.26562118530273 224.0156478881836 Q 165.26562118530273 224.0156478881836 165.26562118530273 232.0156478881836" stroke-miterlimit="10" stroke-width="0.5" stroke-dasharray=""/><path fill="#F0F0F0" stroke="#505050" paint-order="fill stroke markers" d=" M 319.70312118530273 267.7656478881836 L 351.70312118530273 267.7656478881836 L 351.70312118530273 297.7656478881836 L 319.70312118530273 297.7656478881836 L 319.70312118530273 267.7656478881836 Z" stroke-miterlimit="10" stroke-width="0.5" stroke-dasharray=""/><text fill="#505050" stroke="none" font-family="monospace" font-size="14px" font-style="normal" font-weight="normal" text-decoration="normal" x="335.70312118530273" y="285.7656478881836" text-anchor="middle" dominant-baseline="text-after-edge">-1</text><path fill="none" stroke="#505050" paint-order="fill stroke markers" d=" M 319.70312118530273 285.7656478881836 L 327.70312118530273 285.7656478881836 L 327.70312118530273 293.7656478881836 L 319.70312118530273 293.7656478881836 L 319.70312118530273 285.7656478881836 Z" stroke-miterlimit="10" stroke-width="0.5" stroke-dasharray=""/><path fill="none" stroke="#505050" paint-order="fill stroke markers" d=" M 343.70312118530273 285.7656478881836 L 351.70312118530273 285.7656478881836 L 351.70312118530273 293.7656478881836 L 343.70312118530273 293.7656478881836 L 343.70312118530273 285.7656478881836 Z" stroke-miterlimit="10" stroke-width="0.5" stroke-dasharray=""/><path fill="white" stroke="#505050" paint-order="fill stroke markers" d=" M 231.70312118530273 232.0156478881836 L 263.70312118530273 232.0156478881836 L 263.70312118530273 274.0156478881836 L 231.70312118530273 274.0156478881836 L 231.70312118530273 232.0156478881836 Z" stroke-miterlimit="10" stroke-width="0.5" stroke-dasharray=""/><text fill="#505050" stroke="none" font-family="monospace" font-size="14px" font-style="normal" font-weight="normal" text-decoration="normal" x="247.70312118530273" y="250.0156478881836" text-anchor="middle" dominant-baseline="text-after-edge">-</text><path fill="none" stroke="#505050" paint-order="fill stroke markers" d=" M 231.70312118530273 250.0156478881836 L 239.70312118530273 250.0156478881836 L 239.70312118530273 258.0156478881836 L 231.70312118530273 258.0156478881836 L 231.70312118530273 250.0156478881836 Z" stroke-miterlimit="10" stroke-width="0.5" stroke-dasharray=""/><path fill="none" stroke="#505050" paint-order="fill stroke markers" d=" M 231.70312118530273 262.0156478881836 L 239.70312118530273 262.0156478881836 L 239.70312118530273 270.0156478881836 L 231.70312118530273 270.0156478881836 L 231.70312118530273 262.0156478881836 Z" stroke-miterlimit="10" stroke-width="0.5" stroke-dasharray=""/><path fill="none" stroke="#505050" paint-order="fill stroke markers" d=" M 255.70312118530273 250.0156478881836 L 263.70312118530273 250.0156478881836 L 263.70312118530273 258.0156478881836 L 255.70312118530273 258.0156478881836 L 255.70312118530273 250.0156478881836 Z" stroke-miterlimit="10" stroke-width="0.5" stroke-dasharray=""/><path fill="white" stroke="#505050" paint-order="fill stroke markers" d=" M 295.70312118530273 246.0156478881836 L 303.70312118530273 246.0156478881836 L 311.70312118530273 254.0156478881836 L 303.70312118530273 262.0156478881836 L 295.70312118530273 262.0156478881836 L 295.70312118530273 246.0156478881836" stroke-miterlimit="10" stroke-width="0.5" stroke-dasharray=""/><path fill="none" stroke="#505050" paint-order="fill stroke markers" d=" M 295.70312118530273 250.0156478881836 L 303.70312118530273 250.0156478881836 L 303.70312118530273 258.0156478881836 L 295.70312118530273 258.0156478881836 L 295.70312118530273 250.0156478881836 Z" stroke-miterlimit="10" stroke-width="0.5" stroke-dasharray=""/><path fill="white" stroke="#505050" paint-order="fill stroke markers" d=" M 168.78437423706055 271.7656478881836 L 208.78437423706055 271.7656478881836 L 208.78437423706055 289.7656478881836 L 168.78437423706055 289.7656478881836 L 168.78437423706055 271.7656478881836 Z" stroke-miterlimit="10" stroke-width="0.5" stroke-dasharray=""/><path fill="none" stroke="#505050" paint-order="fill stroke markers" d=" M 200.78437423706055 276.7656478881836 L 208.78437423706055 276.7656478881836 L 208.78437423706055 284.7656478881836 L 200.78437423706055 284.7656478881836 L 200.78437423706055 276.7656478881836 Z" stroke-miterlimit="10" stroke-width="0.5" stroke-dasharray=""/><text fill="#505050" stroke="none" font-family="monospace" font-size="14px" font-style="normal" font-weight="normal" text-decoration="normal" x="192.78437423706055" y="289.7656478881836" text-anchor="end" dominant-baseline="text-after-edge">1</text><path fill="white" stroke="#505050" paint-order="fill stroke markers" d=" M 183.70312118530273 246.0156478881836 L 199.70312118530273 246.0156478881836 L 199.70312118530273 262.0156478881836 L 183.70312118530273 262.0156478881836 L 191.70312118530273 254.0156478881836 L 183.70312118530273 246.0156478881836" stroke-miterlimit="10" stroke-width="0.5" stroke-dasharray=""/><path fill="none" stroke="#505050" paint-order="fill stroke markers" d=" M 191.70312118530273 250.0156478881836 L 199.70312118530273 250.0156478881836 L 199.70312118530273 258.0156478881836 L 191.70312118530273 258.0156478881836 L 191.70312118530273 250.0156478881836 Z" stroke-miterlimit="10" stroke-width="0.5" stroke-dasharray=""/><path fill="white" stroke="#505050" paint-order="fill stroke markers" d=" M 842.3125762939453 241.45936965942383 L 842.3125762939453 297.7281379699707 Q 842.3125762939453 305.7281379699707 850.3125762939453 305.7281379699707 L 1061.4032135009766 305.7281379699707 Q 1069.4032135009766 305.7281379699707 1069.4032135009766 297.7281379699707 L 1069.4032135009766 241.45936965942383 Q 1069.4032135009766 233.45936965942383 1061.4032135009766 233.45936965942383 L 850.3125762939453 233.45936965942383 Q 842.3125762939453 233.45936965942383 842.3125762939453 241.45936965942383" stroke-miterlimit="10" stroke-width="0.5" stroke-dasharray=""/><path fill="#F0F0F0" stroke="#505050" paint-order="fill stroke markers" d=" M 1029.4032135009766 267.7281379699707 L 1061.4032135009766 267.7281379699707 L 1061.4032135009766 297.7281379699707 L 1029.4032135009766 297.7281379699707 L 1029.4032135009766 267.7281379699707 Z" stroke-miterlimit="10" stroke-width="0.5" stroke-dasharray=""/><text fill="#505050" stroke="none" font-family="monospace" font-size="14px" font-style="normal" font-weight="normal" text-decoration="normal" x="1045.4032135009766" y="285.7281379699707" text-anchor="middle" dominant-baseline="text-after-edge">n!</text><path fill="none" stroke="#505050" paint-order="fill stroke markers" d=" M 1029.4032135009766 285.7281379699707 L 1037.4032135009766 285.7281379699707 L 1037.4032135009766 293.7281379699707 L 1029.4032135009766 293.7281379699707 L 1029.4032135009766 285.7281379699707 Z" stroke-miterlimit="10" stroke-width="0.5" stroke-dasharray=""/><path fill="none" stroke="#505050" paint-order="fill stroke markers" d=" M 1053.4032135009766 285.7281379699707 L 1061.4032135009766 285.7281379699707 L 1061.4032135009766 293.7281379699707 L 1053.4032135009766 293.7281379699707 L 1053.4032135009766 285.7281379699707 Z" stroke-miterlimit="10" stroke-width="0.5" stroke-dasharray=""/><path fill="white" stroke="#505050" paint-order="fill stroke markers" d=" M 900.4032135009766 241.45936965942383 L 973.4032135009766 241.45936965942383 L 973.4032135009766 287.4593696594238 L 900.4032135009766 287.4593696594238 L 900.4032135009766 241.45936965942383 Z" stroke-miterlimit="10" stroke-width="0.5" stroke-dasharray=""/><text fill="#505050" stroke="none" font-family="monospace" font-size="14px" font-style="normal" font-weight="normal" text-decoration="normal" x="936.9032135009766" y="259.4593696594238" text-anchor="middle" dominant-baseline="text-after-edge">facstep</text><path fill="none" stroke="#505050" paint-order="fill stroke markers" d=" M 900.4032135009766 260.4593696594238 L 908.4032135009766 260.4593696594238 L 908.4032135009766 268.4593696594238 L 900.4032135009766 268.4593696594238 L 900.4032135009766 260.4593696594238 Z" stroke-miterlimit="10" stroke-width="0.5" stroke-dasharray=""/><text fill="#505050" stroke="none" font-family="monospace" font-size="14px" font-style="normal" font-weight="normal" text-decoration="normal" x="916.4032135009766" y="273.4593696594238" text-anchor="start" dominant-baseline="text-after-edge">n</text><path fill="none" stroke="#505050" paint-order="fill stroke markers" d=" M 900.4032135009766 274.4593696594238 L 908.4032135009766 274.4593696594238 L 908.4032135009766 282.4593696594238 L 900.4032135009766 282.4593696594238 L 900.4032135009766 274.4593696594238 Z" stroke-miterlimit="10" stroke-width="0.5" stroke-dasharray=""/><text fill="#505050" stroke="none" font-family="monospace" font-size="14px" font-style="normal" font-weight="normal" text-decoration="normal" x="916.4032135009766" y="287.4593696594238" text-anchor="start" dominant-baseline="text-after-edge">acc</text><path fill="none" stroke="#505050" paint-order="fill stroke markers" d=" M 965.4032135009766 259.4593696594238 L 973.4032135009766 259.4593696594238 L 973.4032135009766 267.4593696594238 L 965.4032135009766 267.4593696594238 L 965.4032135009766 259.4593696594238 Z" stroke-miterlimit="10" stroke-width="0.5" stroke-dasharray=""/><path fill="white" stroke="#505050" paint-order="fill stroke markers" d=" M 1005.4032135009766 241.45936965942383 L 1013.4032135009766 241.45936965942383 L 1021.4032135009766 249.45936965942383 L 1013.4032135009766 257.4593696594238 L 1005.4032135009766 257.4593696594238 L 1005.4032135009766 241.45936965942383" stroke-miterlimit="10" stroke-width="0.5" stroke-dasharray=""/><path fill="none" stroke="#505050" paint-order="fill stroke markers" d=" M 1005.4032135009766 245.45936965942383 L 1013.4032135009766 245.45936965942383 L 1013.4032135009766 253.45936965942383 L 1005.4032135009766 253.45936965942383 L 1005.4032135009766 245.45936965942383 Z" stroke-miterlimit="10" stroke-width="0.5" stroke-dasharray=""/><path fill="white" stroke="#505050" paint-order="fill stroke markers" d=" M 850.3125762939453 271.7281379699707 L 890.3125762939453 271.7281379699707 L 890.3125762939453 289.7281379699707 L 850.3125762939453 289.7281379699707 L 850.3125762939453 271.7281379699707 Z" stroke-miterlimit="10" stroke-width="0.5" stroke-dasharray=""/><path fill="none" stroke="#505050" paint-order="fill stroke markers" d=" M 882.3125762939453 276.7281379699707 L 890.3125762939453 276.7281379699707 L 890.3125762939453 284.7281379699707 L 882.3125762939453 284.7281379699707 L 882.3125762939453 276.7281379699707 Z" stroke-miterlimit="10" stroke-width="0.5" stroke-dasharray=""/><text fill="#505050" stroke="none" font-family="monospace" font-size="14px" font-style="normal" font-weight="normal" text-decoration="normal" x="874.3125762939453" y="289.7281379699707" text-anchor="end" dominant-baseline="text-after-edge">1</text><path fill="white" stroke="#505050" paint-order="fill stroke markers" d=" M 852.4032135009766 242.45936965942383 L 868.4032135009766 242.45936965942383 L 868.4032135009766 258.4593696594238 L 852.4032135009766 258.4593696594238 L 860.4032135009766 250.45936965942383 L 852.4032135009766 242.45936965942383" stroke-miterlimit="10" stroke-width="0.5" stroke-dasharray=""/><path fill="none" stroke="#505050" paint-order="fill stroke markers" d=" M 860.4032135009766 246.45936965942383 L 868.4032135009766 246.45936965942383 L 868.4032135009766 254.45936965942383 L 860.4032135009766 254.45936965942383 L 860.4032135009766 246.45936965942383 Z" stroke-miterlimit="10" stroke-width="0.5" stroke-dasharray=""/><path fill="none" stroke="#505050" paint-order="fill stroke markers" d=" M 548.4126396179199 245.79690551757812 C 572.4126396179199 245.79690551757812 541.8564071655273 228.78752899169922 565.8564071655273 228.78752899169922" stroke-miterlimit="10" stroke-dasharray=""/><path fill="none" stroke="#505050" paint-order="fill stroke markers" d=" M 461.70953369140625 239.89377403259277 C 485.70953369140625 239.89377403259277 541.8564071655273 216.78752899169922 565.8564071655273 216.78752899169922" stroke-miterlimit="10" stroke-dasharray=""/><path fill="none" stroke="#505050" paint-order="fill stroke markers" d=" M 476.30328369140625 285.55626487731934 C 500.30328369140625 285.55626487731934 503.5126266479492 337.6406440734863 527.5126266479492 337.6406440734863" stroke-miterlimit="10" stroke-dasharray=""/><path fill="none" stroke="#505050" paint-order="fill stroke markers" d=" M 461.70953369140625 239.89377403259277 C 485.70953369140625 239.89377403259277 503.5126266479492 325.6406440734863 527.5126266479492 325.6406440734863" stroke-miterlimit="10" stroke-dasharray=""/><path fill="none" stroke="#505050" paint-order="fill stroke markers" d=" M 691.9876251220703 235.80626678466797 C 715.9876251220703 235.80626678466797 688.6344757080078 224.2625274658203 712.6344757080078 224.2625274658203" stroke-miterlimit="10" stroke-dasharray=""/><path fill="none" stroke="#505050" paint-order="fill stroke markers" d=" M 559.5126266479492 325.6406440734863 C 583.5126266479492 325.6406440734863 596.3126983642578 341.2750129699707 620.3126983642578 341.2750129699707" stroke-miterlimit="10" stroke-dasharray=""/><path fill="none" stroke="#505050" paint-order="fill stroke markers" d=" M 476.30328369140625 285.55626487731934 C 500.30328369140625 285.55626487731934 635.9876251220703 247.80626678466797 659.9876251220703 247.80626678466797" stroke-miterlimit="10" stroke-dasharray=""/><path fill="none" stroke="#505050" paint-order="fill stroke markers" d=" M 597.8564071655273 216.78752899169922 C 621.8564071655273 216.78752899169922 635.9876251220703 235.80626678466797 659.9876251220703 235.80626678466797" stroke-miterlimit="10" stroke-dasharray=""/><path fill="none" stroke="#505050" paint-order="fill stroke markers" d=" M 461.70953369140625 239.89377403259277 C 485.70953369140625 239.89377403259277 550.6720237731934 297.33438873291016 574.6720237731934 297.33438873291016" stroke-miterlimit="10" stroke-dasharray=""/><path fill="none" stroke="#505050" paint-order="fill stroke markers" d=" M 693.3126983642578 326.2750129699707 C 717.3126983642578 326.2750129699707 635.9876251220703 259.80626678466797 659.9876251220703 259.80626678466797" stroke-miterlimit="10" stroke-dasharray=""/><path fill="none" stroke="#505050" paint-order="fill stroke markers" d=" M 263.70312118530273 254.0156478881836 C 287.70312118530273 254.0156478881836 271.70312118530273 254.0156478881836 295.70312118530273 254.0156478881836" stroke-miterlimit="10" stroke-dasharray=""/><path fill="none" stroke="#505050" paint-order="fill stroke markers" d=" M 208.78437423706055 280.7656478881836 C 232.78437423706055 280.7656478881836 207.70312118530273 266.0156478881836 231.70312118530273 266.0156478881836" stroke-miterlimit="10" stroke-dasharray=""/><path fill="none" stroke="#505050" paint-order="fill stroke markers" d=" M 199.70312118530273 254.0156478881836 C 223.70312118530273 254.0156478881836 207.70312118530273 254.0156478881836 231.70312118530273 254.0156478881836" stroke-miterlimit="10" stroke-dasharray=""/><path fill="none" stroke="#505050" paint-order="fill stroke markers" d=" M 973.4032135009766 263.4593696594238 C 997.4032135009766 263.4593696594238 981.4032135009766 249.45936965942383 1005.4032135009766 249.45936965942383" stroke-miterlimit="10" stroke-dasharray=""/><path fill="none" stroke="#505050" paint-order="fill stroke markers" d=" M 890.3125762939453 280.7281379699707 C 914.3125762939453 280.7281379699707 876.4032135009766 278.4593696594238 900.4032135009766 278.4593696594238" stroke-miterlimit="10" stroke-dasharray=""/><path fill="none" stroke="#505050" paint-order="fill stroke markers" d=" M 868.4032135009766 250.45936965942383 C 892.4032135009766 250.45936965942383 876.4032135009766 264.4593696594238 900.4032135009766 264.4593696594238" stroke-miterlimit="10" stroke-dasharray=""/></g></g></svg>