<svg version="1.1" xmlns="http://www.w3.org/2000/svg" xmlns:xlink="http://www.w3.org/1999/xlink" width="737.939624786377" height="187.80152893066406"><defs/><g transform="translate(-271.9303855895996,-171.01877212524414)"><g><path fill="white" stroke="#505050" paint-order="fill stroke markers" d=" M 404.58135986328125 187.01877212524414 L 404.58135986328125 342.8203010559082 Q 404.58135986328125 350.8203010559082 412.58135986328125 350.8203010559082 L 775.1103057861328 350.8203010559082 Q 783.1103057861328 350.8203010559082 783.1103057861328 342.8203010559082 L 783.1103057861328 187.01877212524414 Q 783.1103057861328 179.01877212524414 775.1103057861328 179.01877212524414 L 412.58135986328125 179.01877212524414 Q 404.58135986328125 179.01877212524414 404.58135986328125 187.01877212524414" stroke-miterlimit="10" stroke-width="0.5" stroke-dasharray=""/><path fill="#F0F0F0" stroke="#505050" paint-order="fill stroke markers" d=" M 726.1103057861328 187.01877212524414 L 783.1103057861328 187.01877212524414 L 783.1103057861328 233.01877212524414 L 726.1103057861328 233.01877212524414 L 726.1103057861328 187.01877212524414 Z" stroke-miterlimit="10" stroke-width="0.5" stroke-dasharray=""/><path fill="none" stroke="none"/><text fill="#505050" stroke="none" font-family="monospace" font-size="14px" font-style="normal" font-weight="normal" text-decoration="normal" x="754.6103057861328" y="205.01877212524414" text-anchor="middle" dominant-baseline="text-after-edge">step</text><path fill="none" stroke="#505050" paint-order="fill stroke markers" d=" M 726.1103057861328 205.01877212524414 L 734.1103057861328 205.01877212524414 L 734.1103057861328 213.01877212524414 L 726.1103057861328 213.01877212524414 L 726.1103057861328 205.01877212524414 Z" stroke-miterlimit="10" stroke-width="0.5" stroke-dasharray=""/><text fill="#505050" stroke="none" font-family="monospace" font-size="14px" font-style="normal" font-weight="normal" text-decoration="normal" x="742.1103057861328" y="219.01877212524414" text-anchor="start" dominant-baseline="text-after-edge">n</text><path fill="none" stroke="#505050" paint-order="fill stroke markers" d=" M 726.1103057861328 219.01877212524414 L 734.1103057861328 219.01877212524414 L 734.1103057861328 227.01877212524414 L 726.1103057861328 227.01877212524414 L 726.1103057861328 219.01877212524414 Z" stroke-miterlimit="10" stroke-width="0.5" stroke-dasharray=""/><text fill="#505050" stroke="none" font-family="monospace" font-size="14px" font-style="normal" font-weight="normal" text-decoration="normal" x="742.1103057861328" y="233.01877212524414" text-anchor="start" dominant-baseline="text-after-edge">acc</text><path fill="none" stroke="#505050" paint-order="fill stroke markers" d=" M 775.1103057861328 205.01877212524414 L 783.1103057861328 205.01877212524414 L 783.1103057861328 213.01877212524414 L 775.1103057861328 213.01877212524414 L 775.1103057861328 205.01877212524414 Z" stroke-miterlimit="10" stroke-width="0.5" stroke-dasharray=""/><path fill="white" stroke="#505050" paint-order="fill stroke markers" d=" M 684.9343414306641 234.31053924560547 L 708.9343414306641 234.31053924560547 L 708.9343414306641 288.31053924560547 L 684.9343414306641 288.31053924560547 L 684.9343414306641 234.31053924560547 Z" stroke-miterlimit="10" stroke-width="0.5" stroke-dasharray=""/><path fill="#F0F0F0" stroke="none" paint-order="stroke fill markers" d=""/><path fill="none" stroke="none"/><text fill="#505050" stroke="none" font-family="monospace" font-size="14px" font-style="normal" font-weight="normal" text-decoration="normal" x="696.9343414306641" y="252.31053924560547" text-anchor="middle" dominant-baseline="text-after-edge">?</text><path fill="none" stroke="#505050" paint-order="fill stroke markers" d=" M 684.9343414306641 252.31053924560547 L 692.9343414306641 252.31053924560547 L 692.9343414306641 260.31053924560547 L 684.9343414306641 260.31053924560547 L 684.9343414306641 252.31053924560547 Z" stroke-miterlimit="10" stroke-width="0.5" stroke-dasharray=""/><path fill="none" stroke="#505050" paint-order="fill stroke markers" d=" M 684.9343414306641 264.31053924560547 L 692.9343414306641 264.31053924560547 L 692.9343414306641 272.31053924560547 L 684.9343414306641 272.31053924560547 L 684.9343414306641 264.31053924560547 Z" stroke-miterlimit="10" stroke-width="0.5" stroke-dasharray=""/><path fill="none" stroke="#505050" paint-order="fill stroke markers" d=" M 684.9343414306641 276.31053924560547 L 692.9343414306641 276.31053924560547 L 692.9343414306641 284.31053924560547 L 684.9343414306641 284.31053924560547 L 684.9343414306641 276.31053924560547 Z" stroke-miterlimit="10" stroke-width="0.5" stroke-dasharray=""/><path fill="none" stroke="#505050" paint-order="fill stroke markers" d=" M 700.9343414306641 252.31053924560547 L 708.9343414306641 252.31053924560547 L 708.9343414306641 260.31053924560547 L 700.9343414306641 260.31053924560547 L 700.9343414306641 252.31053924560547 Z" stroke-miterlimit="10" stroke-width="0.5" stroke-dasharray=""/><path fill="white" stroke="#505050" paint-order="fill stroke markers" d=" M 719.7331695556641 248.09844970703125 L 727.7331695556641 248.09844970703125 L 735.7331695556641 256.09844970703125 L 727.7331695556641 264.09844970703125 L 719.7331695556641 264.09844970703125 L 719.7331695556641 248.09844970703125" stroke-miterlimit="10" stroke-width="0.5" stroke-dasharray=""/><path fill="none" stroke="none"/><path fill="none" stroke="#505050" paint-order="fill stroke markers" d=" M 719.7331695556641 252.09844970703125 L 727.7331695556641 252.09844970703125 L 727.7331695556641 260.09844970703125 L 719.7331695556641 260.09844970703125 L 719.7331695556641 252.09844970703125 Z" stroke-miterlimit="10" stroke-width="0.5" stroke-dasharray=""/><path fill="white" stroke="#505050" paint-order="fill stroke markers" d=" M 532.881950378418 292.8203010559082 L 556.881950378418 292.8203010559082 L 556.881950378418 334.8203010559082 L 532.881950378418 334.8203010559082 L 532.881950378418 292.8203010559082 Z" stroke-miterlimit="10" stroke-width="0.5" stroke-dasharray=""/><path fill="#F0F0F0" stroke="none" paint-order="stroke fill markers" d=""/><path fill="none" stroke="none"/><text fill="#505050" stroke="none" font-family="monospace" font-size="14px" font-style="normal" font-weight="normal" text-decoration="normal" x="544.881950378418" y="310.8203010559082" text-anchor="middle" dominant-baseline="text-after-edge">*</text><path fill="none" stroke="#505050" paint-order="fill stroke markers" d=" M 532.881950378418 310.8203010559082 L 540.881950378418 310.8203010559082 L 540.881950378418 318.8203010559082 L 532.881950378418 318.8203010559082 L 532.881950378418 310.8203010559082 Z" stroke-miterlimit="10" stroke-width="0.5" stroke-dasharray=""/><path fill="none" stroke="#505050" paint-order="fill stroke markers" d=" M 532.881950378418 322.8203010559082 L 540.881950378418 322.8203010559082 L 540.881950378418 330.8203010559082 L 532.881950378418 330.8203010559082 L 532.881950378418 322.8203010559082 Z" stroke-miterlimit="10" stroke-width="0.5" stroke-dasharray=""/><path fill="none" stroke="#505050" paint-order="fill stroke markers" d=" M 548.881950378418 310.8203010559082 L 556.881950378418 310.8203010559082 L 556.881950378418 318.8203010559082 L 548.881950378418 318.8203010559082 L 548.881950378418 310.8203010559082 Z" stroke-miterlimit="10" stroke-width="0.5" stroke-dasharray=""/><path fill="white" stroke="#505050" paint-order="fill stroke markers" d=" M 416.21380615234375 262.3552761077881 L 465.21380615234375 262.3552761077881 L 465.21380615234375 280.3552761077881 L 416.21380615234375 280.3552761077881 L 424.21380615234375 271.3552761077881 L 416.21380615234375 262.3552761077881" stroke-miterlimit="10" stroke-width="0.5" stroke-dasharray=""/><path fill="none" stroke="none"/><path fill="none" stroke="#505050" paint-order="fill stroke markers" d=" M 457.21380615234375 266.3552761077881 L 465.21380615234375 266.3552761077881 L 465.21380615234375 274.3552761077881 L 457.21380615234375 274.3552761077881 L 457.21380615234375 266.3552761077881 Z" stroke-miterlimit="10" stroke-width="0.5" stroke-dasharray=""/><text fill="#505050" stroke="none" font-family="monospace" font-size="14px" font-style="normal" font-weight="normal" text-decoration="normal" x="449.21380615234375" y="280.3552761077881" text-anchor="end" dominant-baseline="text-after-edge">acc</text><path fill="white" stroke="#505050" paint-order="fill stroke markers" d=" M 421.70953369140625 230.89377403259277 L 453.70953369140625 230.89377403259277 L 453.70953369140625 248.89377403259277 L 421.70953369140625 248.89377403259277 L 429.70953369140625 239.89377403259277 L 421.70953369140625 230.89377403259277" stroke-miterlimit="10" stroke-width="0.5" stroke-dasharray=""/><path fill="none" stroke="none"/><path fill="none" stroke="#505050" paint-order="fill stroke markers" d=" M 445.70953369140625 234.89377403259277 L 453.70953369140625 234.89377403259277 L 453.70953369140625 242.89377403259277 L 445.70953369140625 242.89377403259277 L 445.70953369140625 234.89377403259277 Z" stroke-miterlimit="10" stroke-width="0.5" stroke-dasharray=""/><text fill="#505050" stroke="none" font-family="monospace" font-size="14px" font-style="normal" font-weight="normal" text-decoration="normal" x="437.70953369140625" y="248.89377403259277" text-anchor="end" dominant-baseline="text-after-edge">n</text><path fill="white" stroke="#505050" paint-order="fill stroke markers" d=" M 565.8564071655273 194.78752899169922 L 590.8564071655273 194.78752899169922 L 590.8564071655273 236.78752899169922 L 565.8564071655273 236.78752899169922 L 565.8564071655273 194.78752899169922 Z" stroke-miterlimit="10" stroke-width="0.5" stroke-dasharray=""/><path fill="#F0F0F0" stroke="none" paint-order="stroke fill markers" d=""/><path fill="none" stroke="none"/><text fill="#505050" stroke="none" font-family="monospace" font-size="14px" font-style="normal" font-weight="normal" text-decoration="normal" x="578.3564071655273" y="212.78752899169922" text-anchor="middle" dominant-baseline="text-after-edge">&lt;=</text><path fill="none" stroke="#505050" paint-order="fill stroke markers" d=" M 565.8564071655273 212.78752899169922 L 573.8564071655273 212.78752899169922 L 573.8564071655273 220.78752899169922 L 565.8564071655273 220.78752899169922 L 565.8564071655273 212.78752899169922 Z" stroke-miterlimit="10" stroke-width="0.5" stroke-dasharray=""/><path fill="none" stroke="#505050" paint-order="fill stroke markers" d=" M 565.8564071655273 224.78752899169922 L 573.8564071655273 224.78752899169922 L 573.8564071655273 232.78752899169922 L 565.8564071655273 232.78752899169922 L 565.8564071655273 224.78752899169922 Z" stroke-miterlimit="10" stroke-width="0.5" stroke-dasharray=""/><path fill="none" stroke="#505050" paint-order="fill stroke markers" d=" M 582.8564071655273 212.78752899169922 L 590.8564071655273 212.78752899169922 L 590.8564071655273 220.78752899169922 L 582.8564071655273 220.78752899169922 L 582.8564071655273 212.78752899169922 Z" stroke-miterlimit="10" stroke-width="0.5" stroke-dasharray=""/><path fill="white" stroke="#505050" paint-order="fill stroke markers" d=" M 508.4126396179199 236.79690551757812 L 540.4126396179199 236.79690551757812 L 540.4126396179199 254.79690551757812 L 508.4126396179199 254.79690551757812 L 508.4126396179199 236.79690551757812 Z" stroke-miterlimit="10" stroke-width="0.5" stroke-dasharray=""/><path fill="#F0F0F0" stroke="none" paint-order="stroke fill markers" d=""/><path fill="none" stroke="none"/><path fill="none" stroke="#505050" paint-order="fill stroke markers" d=" M 532.4126396179199 240.79690551757812 L 540.4126396179199 240.79690551757812 L 540.4126396179199 248.79690551757812 L 532.4126396179199 248.79690551757812 L 532.4126396179199 240.79690551757812 Z" stroke-miterlimit="10" stroke-width="0.5" stroke-dasharray=""/><text fill="#505050" stroke="none" font-family="monospace" font-size="14px" font-style="normal" font-weight="normal" text-decoration="normal" x="524.4126396179199" y="254.79690551757812" text-anchor="end" dominant-baseline="text-after-edge">1</text><path fill="white" stroke="#505050" paint-order="fill stroke markers" d=" M 608.8567047119141 281.2317085266113 L 665.8567047119141 281.2317085266113 L 665.8567047119141 327.2317085266113 L 608.8567047119141 327.2317085266113 L 608.8567047119141 281.2317085266113 Z" stroke-miterlimit="10" stroke-width="0.5" stroke-dasharray=""/><path fill="#F0F0F0" stroke="none" paint-order="stroke fill markers" d=""/><path fill="none" stroke="none"/><text fill="#505050" stroke="none" font-family="monospace" font-size="14px" font-style="normal" font-weight="normal" text-decoration="normal" x="637.3567047119141" y="299.2317085266113" text-anchor="middle" dominant-baseline="text-after-edge">step</text><path fill="none" stroke="#505050" paint-order="fill stroke markers" d=" M 608.8567047119141 299.2317085266113 L 616.8567047119141 299.2317085266113 L 616.8567047119141 307.2317085266113 L 608.8567047119141 307.2317085266113 L 608.8567047119141 299.2317085266113 Z" stroke-miterlimit="10" stroke-width="0.5" stroke-dasharray=""/><text fill="#505050" stroke="none" font-family="monospace" font-size="14px" font-style="normal" font-weight="normal" text-decoration="normal" x="624.8567047119141" y="313.2317085266113" text-anchor="start" dominant-baseline="text-after-edge">n</text><path fill="none" stroke="#505050" paint-order="fill stroke markers" d=" M 608.8567047119141 313.2317085266113 L 616.8567047119141 313.2317085266113 L 616.8567047119141 321.2317085266113 L 608.8567047119141 321.2317085266113 L 608.8567047119141 313.2317085266113 Z" stroke-miterlimit="10" stroke-width="0.5" stroke-dasharray=""/><text fill="#505050" stroke="none" font-family="monospace" font-size="14px" font-style="normal" font-weight="normal" text-decoration="normal" x="624.8567047119141" y="327.2317085266113" text-anchor="start" dominant-baseline="text-after-edge">acc</text><path fill="none" stroke="#505050" paint-order="fill stroke markers" d=" M 657.8567047119141 299.2317085266113 L 665.8567047119141 299.2317085266113 L 665.8567047119141 307.2317085266113 L 657.8567047119141 307.2317085266113 L 657.8567047119141 299.2317085266113 Z" stroke-miterlimit="10" stroke-width="0.5" stroke-dasharray=""/><path fill="white" stroke="#505050" paint-order="fill stroke markers" d=" M 567.5768699645996 276.15470123291016 L 592.5768699645996 276.15470123291016 L 592.5768699645996 306.15470123291016 L 567.5768699645996 306.15470123291016 L 567.5768699645996 276.15470123291016 Z" stroke-miterlimit="10" stroke-width="0.5" stroke-dasharray=""/><path fill="#F0F0F0" stroke="none" paint-order="stroke fill markers" d=""/><path fill="none" stroke="none"/><text fill="#505050" stroke="none" font-family="monospace" font-size="14px" font-style="normal" font-weight="normal" text-decoration="normal" x="580.0768699645996" y="294.15470123291016" text-anchor="middle" dominant-baseline="text-after-edge">-1</text><path fill="none" stroke="#505050" paint-order="fill stroke markers" d=" M 567.5768699645996 294.15470123291016 L 575.5768699645996 294.15470123291016 L 575.5768699645996 302.15470123291016 L 567.5768699645996 302.15470123291016 L 567.5768699645996 294.15470123291016 Z" stroke-miterlimit="10" stroke-width="0.5" stroke-dasharray=""/><path fill="none" stroke="#505050" paint-order="fill stroke markers" d=" M 584.5768699645996 294.15470123291016 L 592.5768699645996 294.15470123291016 L 592.5768699645996 302.15470123291016 L 584.5768699645996 302.15470123291016 L 584.5768699645996 294.15470123291016 Z" stroke-miterlimit="10" stroke-width="0.5" stroke-dasharray=""/><path fill="white" stroke="#505050" paint-order="fill stroke markers" d=" M 279.9303855895996 187.81293487548828 L 279.9303855895996 238.91448211669922 Q 279.9303855895996 246.91448211669922 287.9303855895996 246.91448211669922 L 380.3961753845215 246.91448211669922 Q 388.3961753845215 246.91448211669922 388.3961753845215 238.91448211669922 L 388.3961753845215 187.81293487548828 Q 388.3961753845215 179.81293487548828 380.3961753845215 179.81293487548828 L 287.9303855895996 179.81293487548828 Q 279.9303855895996 179.81293487548828 279.9303855895996 187.81293487548828" stroke-miterlimit="10" stroke-width="0.5" stroke-dasharray=""/><path fill="#F0F0F0" stroke="#505050" paint-order="fill stroke markers" d=" M 363.3961753845215 187.81293487548828 L 388.3961753845215 187.81293487548828 L 388.3961753845215 217.81293487548828 L 363.3961753845215 217.81293487548828 L 363.3961753845215 187.81293487548828 Z" stroke-miterlimit="10" stroke-width="0.5" stroke-dasharray=""/><path fill="none" stroke="none"/><text fill="#505050" stroke="none" font-family="monospace" font-size="14px" font-style="normal" font-weight="normal" text-decoration="normal" x="375.8961753845215" y="205.81293487548828" text-anchor="middle" dominant-baseline="text-after-edge">-1</text><path fill="none" stroke="#505050" paint-order="fill stroke markers" d=" M 363.3961753845215 205.81293487548828 L 371.3961753845215 205.81293487548828 L 371.3961753845215 213.81293487548828 L 363.3961753845215 213.81293487548828 L 363.3961753845215 205.81293487548828 Z" stroke-miterlimit="10" stroke-width="0.5" stroke-dasharray=""/><path fill="none" stroke="#505050" paint-order="fill stroke markers" d=" M 380.3961753845215 205.81293487548828 L 388.3961753845215 205.81293487548828 L 388.3961753845215 213.81293487548828 L 380.3961753845215 213.81293487548828 L 380.3961753845215 205.81293487548828 Z" stroke-miterlimit="10" stroke-width="0.5" stroke-dasharray=""/><path fill="none" stroke="#505050" paint-order="fill stroke markers" d=" M 326.86632919311523 209.1899185180664 L 318.86632919311523 209.1899185180664 M 350.86632919311523 209.1899185180664 L 358.86632919311523 209.1899185180664" stroke-miterlimit="10" stroke-dasharray=""/><path fill="white" stroke="#505050" paint-order="fill stroke markers" d=" M 326.86632919311523 187.1899185180664 L 350.86632919311523 187.1899185180664 L 350.86632919311523 229.1899185180664 L 326.86632919311523 229.1899185180664 L 326.86632919311523 187.1899185180664 Z" stroke-miterlimit="10" stroke-width="0.5" stroke-dasharray=""/><path fill="#F0F0F0" stroke="none" paint-order="stroke fill markers" d=""/><path fill="none" stroke="none"/><text fill="#505050" stroke="none" font-family="monospace" font-size="14px" font-style="normal" font-weight="normal" text-decoration="normal" x="338.86632919311523" y="205.1899185180664" text-anchor="middle" dominant-baseline="text-after-edge">-</text><path fill="none" stroke="#505050" paint-order="fill stroke markers" d=" M 326.86632919311523 205.1899185180664 L 334.86632919311523 205.1899185180664 L 334.86632919311523 213.1899185180664 L 326.86632919311523 213.1899185180664 L 326.86632919311523 205.1899185180664 Z" stroke-miterlimit="10" stroke-width="0.5" stroke-dasharray=""/><path fill="none" stroke="#505050" paint-order="fill stroke markers" d=" M 326.86632919311523 217.1899185180664 L 334.86632919311523 217.1899185180664 L 334.86632919311523 225.1899185180664 L 326.86632919311523 225.1899185180664 L 326.86632919311523 217.1899185180664 Z" stroke-miterlimit="10" stroke-width="0.5" stroke-dasharray=""/><path fill="none" stroke="#505050" paint-order="fill stroke markers" d=" M 342.86632919311523 205.1899185180664 L 350.86632919311523 205.1899185180664 L 350.86632919311523 213.1899185180664 L 342.86632919311523 213.1899185180664 L 342.86632919311523 205.1899185180664 Z" stroke-miterlimit="10" stroke-width="0.5" stroke-dasharray=""/><path fill="white" stroke="#505050" paint-order="fill stroke markers" d=" M 284.233943939209 212.91448211669922 L 316.233943939209 212.91448211669922 L 316.233943939209 230.91448211669922 L 284.233943939209 230.91448211669922 L 284.233943939209 212.91448211669922 Z" stroke-miterlimit="10" stroke-width="0.5" stroke-dasharray=""/><path fill="#F0F0F0" stroke="none" paint-order="stroke fill markers" d=""/><path fill="none" stroke="none"/><path fill="none" stroke="#505050" paint-order="fill stroke markers" d=" M 308.233943939209 216.91448211669922 L 316.233943939209 216.91448211669922 L 316.233943939209 224.91448211669922 L 308.233943939209 224.91448211669922 L 308.233943939209 216.91448211669922 Z" stroke-miterlimit="10" stroke-width="0.5" stroke-dasharray=""/><text fill="#505050" stroke="none" font-family="monospace" font-size="14px" font-style="normal" font-weight="normal" text-decoration="normal" x="300.233943939209" y="230.91448211669922" text-anchor="end" dominant-baseline="text-after-edge">1</text><path fill="white" stroke="#505050" paint-order="fill stroke markers" d=" M 820.2394561767578 280.9835090637207 L 820.2394561767578 337.6681709289551 Q 820.2394561767578 345.6681709289551 828.2394561767578 345.6681709289551 L 993.8700103759766 345.6681709289551 Q 1001.8700103759766 345.6681709289551 1001.8700103759766 337.6681709289551 L 1001.8700103759766 280.9835090637207 Q 1001.8700103759766 272.9835090637207 993.8700103759766 272.9835090637207 L 828.2394561767578 272.9835090637207 Q 820.2394561767578 272.9835090637207 820.2394561767578 280.9835090637207" stroke-miterlimit="10" stroke-width="0.5" stroke-dasharray=""/><path fill="#F0F0F0" stroke="#505050" paint-order="fill stroke markers" d=" M 961.8700103759766 280.9835090637207 L 1001.8700103759766 280.9835090637207 L 1001.8700103759766 312.9835090637207 L 961.8700103759766 312.9835090637207 L 961.8700103759766 280.9835090637207 Z" stroke-miterlimit="10" stroke-width="0.5" stroke-dasharray=""/><path fill="none" stroke="none"/><text fill="#505050" stroke="none" font-family="monospace" font-size="14px" font-style="normal" font-weight="normal" text-decoration="normal" x="981.8700103759766" y="298.9835090637207" text-anchor="middle" dominant-baseline="text-after-edge">n!</text><path fill="none" stroke="#505050" paint-order="fill stroke markers" d=" M 961.8700103759766 298.9835090637207 L 969.8700103759766 298.9835090637207 L 969.8700103759766 306.9835090637207 L 961.8700103759766 306.9835090637207 L 961.8700103759766 298.9835090637207 Z" stroke-miterlimit="10" stroke-width="0.5" stroke-dasharray=""/><text fill="#505050" stroke="none" font-family="monospace" font-size="14px" font-style="normal" font-weight="normal" text-decoration="normal" x="977.8700103759766" y="312.9835090637207" text-anchor="start" dominant-baseline="text-after-edge">n</text><path fill="none" stroke="#505050" paint-order="fill stroke markers" d=" M 993.8700103759766 298.9835090637207 L 1001.8700103759766 298.9835090637207 L 1001.8700103759766 306.9835090637207 L 993.8700103759766 306.9835090637207 L 993.8700103759766 298.9835090637207 Z" stroke-miterlimit="10" stroke-width="0.5" stroke-dasharray=""/><path fill="none" stroke="#505050" paint-order="fill stroke markers" d=" M 870.7303619384766 304.5613594055176 L 862.7303619384766 304.5613594055176 M 927.7303619384766 304.5613594055176 L 935.7303619384766 304.5613594055176" stroke-miterlimit="10" stroke-dasharray=""/><path fill="white" stroke="#505050" paint-order="fill stroke markers" d=" M 870.7303619384766 282.5613594055176 L 927.7303619384766 282.5613594055176 L 927.7303619384766 328.5613594055176 L 870.7303619384766 328.5613594055176 L 870.7303619384766 282.5613594055176 Z" stroke-miterlimit="10" stroke-width="0.5" stroke-dasharray=""/><path fill="#F0F0F0" stroke="none" paint-order="stroke fill markers" d=""/><path fill="none" stroke="none"/><text fill="#505050" stroke="none" font-family="monospace" font-size="14px" font-style="normal" font-weight="normal" text-decoration="normal" x="899.2303619384766" y="300.5613594055176" text-anchor="middle" dominant-baseline="text-after-edge">step</text><path fill="none" stroke="#505050" paint-order="fill stroke markers" d=" M 870.7303619384766 300.5613594055176 L 878.7303619384766 300.5613594055176 L 878.7303619384766 308.5613594055176 L 870.7303619384766 308.5613594055176 L 870.7303619384766 300.5613594055176 Z" stroke-miterlimit="10" stroke-width="0.5" stroke-dasharray=""/><text fill="#505050" stroke="none" font-family="monospace" font-size="14px" font-style="normal" font-weight="normal" text-decoration="normal" x="886.7303619384766" y="314.5613594055176" text-anchor="start" dominant-baseline="text-after-edge">n</text><path fill="none" stroke="#505050" paint-order="fill stroke markers" d=" M 870.7303619384766 314.5613594055176 L 878.7303619384766 314.5613594055176 L 878.7303619384766 322.5613594055176 L 870.7303619384766 322.5613594055176 L 870.7303619384766 314.5613594055176 Z" stroke-miterlimit="10" stroke-width="0.5" stroke-dasharray=""/><text fill="#505050" stroke="none" font-family="monospace" font-size="14px" font-style="normal" font-weight="normal" text-decoration="normal" x="886.7303619384766" y="328.5613594055176" text-anchor="start" dominant-baseline="text-after-edge">acc</text><path fill="none" stroke="#505050" paint-order="fill stroke markers" d=" M 919.7303619384766 300.5613594055176 L 927.7303619384766 300.5613594055176 L 927.7303619384766 308.5613594055176 L 919.7303619384766 308.5613594055176 L 919.7303619384766 300.5613594055176 Z" stroke-miterlimit="10" stroke-width="0.5" stroke-dasharray=""/><path fill="white" stroke="#505050" paint-order="fill stroke markers" d=" M 823.8751373291016 310.08749771118164 L 855.8751373291016 310.08749771118164 L 855.8751373291016 328.08749771118164 L 823.8751373291016 328.08749771118164 L 823.8751373291016 310.08749771118164 Z" stroke-miterlimit="10" stroke-width="0.5" stroke-dasharray=""/><path fill="#F0F0F0" stroke="none" paint-order="stroke fill markers" d=""/><path fill="none" stroke="none"/><path fill="none" stroke="#505050" paint-order="fill stroke markers" d=" M 847.8751373291016 314.08749771118164 L 855.8751373291016 314.08749771118164 L 855.8751373291016 322.08749771118164 L 847.8751373291016 322.08749771118164 L 847.8751373291016 314.08749771118164 Z" stroke-miterlimit="10" stroke-width="0.5" stroke-dasharray=""/><text fill="#505050" stroke="none" font-family="monospace" font-size="14px" font-style="normal" font-weight="normal" text-decoration="normal" x="839.8751373291016" y="328.08749771118164" text-anchor="end" dominant-baseline="text-after-edge">1</text><path fill="none" stroke="none"/><path fill="none" stroke="#e0e0e0" paint-order="fill stroke markers" d=" M 787.1103057861328 210.01877212524414 C 848.659641477836 210.01877212524414 543.3073690202109 304.2317085266113 604.8567047119141 304.2317085266113" stroke-miterlimit="10" stroke-width="2" stroke-dasharray=""/><path fill="none" stroke="none"/><path fill="none" stroke="#e0e0e0" paint-order="fill stroke markers" d=" M 787.1103057861328 210.01877212524414 C 824.4211157389065 210.01877212524414 829.4195519857029 305.5613594055176 866.7303619384766 305.5613594055176" stroke-miterlimit="10" stroke-width="2" stroke-dasharray=""/><path fill="none" stroke="#505050" paint-order="fill stroke markers" d=" M 540.4126396179199 244.79690551757812 C 549.4310480106888 244.79690551757812 556.8379987727585 228.78752899169922 565.8564071655273 228.78752899169922" stroke-miterlimit="10" stroke-dasharray=""/><path fill="none" stroke="#505050" paint-order="fill stroke markers" d=" M 453.70953369140625 238.89377403259277 C 488.0009999327989 238.89377403259277 531.5649409241347 216.78752899169922 565.8564071655273 216.78752899169922" stroke-miterlimit="10" stroke-dasharray=""/><path fill="none" stroke="#505050" paint-order="fill stroke markers" d=" M 465.21380615234375 270.3552761077881 C 491.6534527211868 270.3552761077881 506.4423038095749 326.8203010559082 532.881950378418 326.8203010559082" stroke-miterlimit="10" stroke-dasharray=""/><path fill="none" stroke="#505050" paint-order="fill stroke markers" d=" M 453.70953369140625 238.89377403259277 C 486.6181923740321 238.89377403259277 499.9732916957921 314.8203010559082 532.881950378418 314.8203010559082" stroke-miterlimit="10" stroke-dasharray=""/><path fill="none" stroke="#505050" paint-order="fill stroke markers" d=" M 708.9343414306641 256.31053924560547 C 712.1746146253361 256.31053924560547 716.4928963609921 256.09844970703125 719.7331695556641 256.09844970703125" stroke-miterlimit="10" stroke-dasharray=""/><path fill="none" stroke="#505050" paint-order="fill stroke markers" d=" M 556.881950378418 314.8203010559082 C 572.4911495142331 314.8203010559082 593.2475055760989 317.2317085266113 608.8567047119141 317.2317085266113" stroke-miterlimit="10" stroke-dasharray=""/><path fill="none" stroke="#505050" paint-order="fill stroke markers" d=" M 465.21380615234375 270.3552761077881 C 531.1328209467447 270.3552761077881 619.0153266362631 268.31053924560547 684.9343414306641 268.31053924560547" stroke-miterlimit="10" stroke-dasharray=""/><path fill="none" stroke="#505050" paint-order="fill stroke markers" d=" M 590.8564071655273 216.78752899169922 C 621.469236909955 216.78752899169922 654.3215116862364 256.31053924560547 684.9343414306641 256.31053924560547" stroke-miterlimit="10" stroke-dasharray=""/><path fill="none" stroke="#505050" paint-order="fill stroke markers" d=" M 665.8567047119141 303.2317085266113 C 674.8032269500969 303.2317085266113 675.9878191924812 280.31053924560547 684.9343414306641 280.31053924560547" stroke-miterlimit="10" stroke-dasharray=""/><path fill="none" stroke="#505050" paint-order="fill stroke markers" d=" M 592.5768699645996 298.15470123291016 C 597.6928070265086 298.15470123291016 603.7407676500051 303.2317085266113 608.8567047119141 303.2317085266113" stroke-miterlimit="10" stroke-dasharray=""/><path fill="none" stroke="#505050" paint-order="fill stroke markers" d=" M 453.70953369140625 238.89377403259277 C 492.21909742086757 238.89377403259277 529.0673062351383 298.15470123291016 567.5768699645996 298.15470123291016" stroke-miterlimit="10" stroke-dasharray=""/><path fill="none" stroke="#505050" paint-order="fill stroke markers" d=" M 316.233943939209 220.91448211669922 C 319.4247296302076 220.91448211669922 323.6755435021166 221.1899185180664 326.86632919311523 221.1899185180664" stroke-miterlimit="10" stroke-dasharray=""/><path fill="none" stroke="#505050" paint-order="fill stroke markers" d=" M 855.8751373291016 318.08749771118164 C 860.3339714680925 318.08749771118164 866.2715277994856 318.5613594055176 870.7303619384766 318.5613594055176" stroke-miterlimit="10" stroke-dasharray=""/></g></g></svg>