<svg version="1.1" xmlns="http://www.w3.org/2000/svg" xmlns:xlink="http://www.w3.org/1999/xlink" width="730.1325836181641" height="568.7435054779053"><defs/><g transform="translate(-362.072021484375,-5.10284423828125)"><g><path fill="white" stroke="#505050" paint-order="fill stroke markers" d=" M 363.072021484375 103.36566543579102 L 363.072021484375 325.3646240234375 Q 363.072021484375 333.3646240234375 371.072021484375 333.3646240234375 L 787.5576934814453 333.3646240234375 Q 795.5576934814453 333.3646240234375 795.5576934814453 325.3646240234375 L 795.5576934814453 103.36566543579102 Q 795.5576934814453 95.36566543579102 787.5576934814453 95.36566543579102 L 371.072021484375 95.36566543579102 Q 363.072021484375 95.36566543579102 363.072021484375 103.36566543579102" stroke-miterlimit="10" stroke-width="0.5" stroke-dasharray=""/><path fill="#F0F0F0" stroke="#505050" paint-order="fill stroke markers" d=" M 680.5576934814453 103.36566543579102 L 795.5576934814453 103.36566543579102 L 795.5576934814453 181.36566543579102 L 680.5576934814453 181.36566543579102 L 680.5576934814453 103.36566543579102 Z" stroke-miterlimit="10" stroke-width="0.5" stroke-dasharray=""/><text fill="#505050" stroke="none" font-family="monospace" font-size="14px" font-style="normal" font-weight="normal" text-decoration="normal" x="738.0576934814453" y="121.36566543579102" text-anchor="middle" dominant-baseline="text-after-edge">reduce</text><path fill="none" stroke="#505050" paint-order="fill stroke markers" d=" M 680.5576934814453 121.36566543579102 L 688.5576934814453 121.36566543579102 L 688.5576934814453 129.36566543579102 L 680.5576934814453 129.36566543579102 L 680.5576934814453 121.36566543579102 Z" stroke-miterlimit="10" stroke-width="0.5" stroke-dasharray=""/><text fill="#505050" stroke="none" font-family="monospace" font-size="14px" font-style="normal" font-weight="normal" text-decoration="normal" x="696.5576934814453" y="135.36566543579102" text-anchor="start" dominant-baseline="text-after-edge">n</text><path fill="none" stroke="#505050" paint-order="fill stroke markers" d=" M 680.5576934814453 135.36566543579102 L 688.5576934814453 135.36566543579102 L 688.5576934814453 143.36566543579102 L 680.5576934814453 143.36566543579102 L 680.5576934814453 135.36566543579102 Z" stroke-miterlimit="10" stroke-width="0.5" stroke-dasharray=""/><text fill="#505050" stroke="none" font-family="monospace" font-size="14px" font-style="normal" font-weight="normal" text-decoration="normal" x="696.5576934814453" y="149.36566543579102" text-anchor="start" dominant-baseline="text-after-edge">acc</text><path fill="none" stroke="#505050" paint-order="fill stroke markers" d=" M 680.5576934814453 149.36566543579102 L 704.5576934814453 149.36566543579102 L 704.5576934814453 177.36566543579102 L 680.5576934814453 177.36566543579102 L 680.5576934814453 149.36566543579102 Z" stroke-miterlimit="10" stroke-width="0.5" stroke-dasharray=""/><path fill="none" stroke="#505050" paint-order="fill stroke markers" d=" M 680.5576934814453 153.36566543579102 L 688.5576934814453 153.36566543579102 L 688.5576934814453 161.36566543579102 L 680.5576934814453 161.36566543579102 L 680.5576934814453 153.36566543579102 Z" stroke-miterlimit="10" stroke-width="0.5" stroke-dasharray=""/><path fill="none" stroke="#505050" paint-order="fill stroke markers" d=" M 680.5576934814453 165.36566543579102 L 688.5576934814453 165.36566543579102 L 688.5576934814453 173.36566543579102 L 680.5576934814453 173.36566543579102 L 680.5576934814453 165.36566543579102 Z" stroke-miterlimit="10" stroke-width="0.5" stroke-dasharray=""/><path fill="none" stroke="#505050" paint-order="fill stroke markers" d=" M 696.5576934814453 153.36566543579102 L 704.5576934814453 153.36566543579102 L 704.5576934814453 161.36566543579102 L 696.5576934814453 161.36566543579102 L 696.5576934814453 153.36566543579102 Z" stroke-miterlimit="10" stroke-width="0.5" stroke-dasharray=""/><text fill="#505050" stroke="none" font-family="monospace" font-size="14px" font-style="normal" font-weight="normal" text-decoration="normal" x="712.5576934814453" y="172.36566543579102" text-anchor="start" dominant-baseline="text-after-edge">callback</text><path fill="none" stroke="#505050" paint-order="fill stroke markers" d=" M 787.5576934814453 121.36566543579102 L 795.5576934814453 121.36566543579102 L 795.5576934814453 129.36566543579102 L 787.5576934814453 129.36566543579102 L 787.5576934814453 121.36566543579102 Z" stroke-miterlimit="10" stroke-width="0.5" stroke-dasharray=""/><path fill="white" stroke="#505050" paint-order="fill stroke markers" d=" M 725.4633941650391 187.75969696044922 L 749.4633941650391 187.75969696044922 L 749.4633941650391 241.75969696044922 L 725.4633941650391 241.75969696044922 L 725.4633941650391 187.75969696044922 Z" stroke-miterlimit="10" stroke-width="0.5" stroke-dasharray=""/><path fill="#F0F0F0" stroke="none" paint-order="stroke fill markers" d=""/><text fill="#505050" stroke="none" font-family="monospace" font-size="14px" font-style="normal" font-weight="normal" text-decoration="normal" x="737.4633941650391" y="205.75969696044922" text-anchor="middle" dominant-baseline="text-after-edge">?</text><path fill="none" stroke="#505050" paint-order="fill stroke markers" d=" M 725.4633941650391 205.75969696044922 L 733.4633941650391 205.75969696044922 L 733.4633941650391 213.75969696044922 L 725.4633941650391 213.75969696044922 L 725.4633941650391 205.75969696044922 Z" stroke-miterlimit="10" stroke-width="0.5" stroke-dasharray=""/><path fill="none" stroke="#505050" paint-order="fill stroke markers" d=" M 725.4633941650391 217.75969696044922 L 733.4633941650391 217.75969696044922 L 733.4633941650391 225.75969696044922 L 725.4633941650391 225.75969696044922 L 725.4633941650391 217.75969696044922 Z" stroke-miterlimit="10" stroke-width="0.5" stroke-dasharray=""/><path fill="none" stroke="#505050" paint-order="fill stroke markers" d=" M 725.4633941650391 229.75969696044922 L 733.4633941650391 229.75969696044922 L 733.4633941650391 237.75969696044922 L 725.4633941650391 237.75969696044922 L 725.4633941650391 229.75969696044922 Z" stroke-miterlimit="10" stroke-width="0.5" stroke-dasharray=""/><path fill="none" stroke="#505050" paint-order="fill stroke markers" d=" M 741.4633941650391 205.75969696044922 L 749.4633941650391 205.75969696044922 L 749.4633941650391 213.75969696044922 L 741.4633941650391 213.75969696044922 L 741.4633941650391 205.75969696044922 Z" stroke-miterlimit="10" stroke-width="0.5" stroke-dasharray=""/><path fill="white" stroke="#505050" paint-order="fill stroke markers" d=" M 763.5576934814453 201.77873992919922 L 771.5576934814453 201.77873992919922 L 779.5576934814453 209.77873992919922 L 771.5576934814453 217.77873992919922 L 763.5576934814453 217.77873992919922 L 763.5576934814453 201.77873992919922" stroke-miterlimit="10" stroke-width="0.5" stroke-dasharray=""/><path fill="none" stroke="#505050" paint-order="fill stroke markers" d=" M 763.5576934814453 205.77873992919922 L 771.5576934814453 205.77873992919922 L 771.5576934814453 213.77873992919922 L 763.5576934814453 213.77873992919922 L 763.5576934814453 205.77873992919922 Z" stroke-miterlimit="10" stroke-width="0.5" stroke-dasharray=""/><path fill="white" stroke="#505050" paint-order="fill stroke markers" d=" M 377.7939453125 192.9031581878662 L 426.7939453125 192.9031581878662 L 426.7939453125 210.9031581878662 L 377.7939453125 210.9031581878662 L 385.7939453125 201.9031581878662 L 377.7939453125 192.9031581878662" stroke-miterlimit="10" stroke-width="0.5" stroke-dasharray=""/><path fill="none" stroke="#505050" paint-order="fill stroke markers" d=" M 418.7939453125 196.9031581878662 L 426.7939453125 196.9031581878662 L 426.7939453125 204.9031581878662 L 418.7939453125 204.9031581878662 L 418.7939453125 196.9031581878662 Z" stroke-miterlimit="10" stroke-width="0.5" stroke-dasharray=""/><text fill="#505050" stroke="none" font-family="monospace" font-size="14px" font-style="normal" font-weight="normal" text-decoration="normal" x="410.7939453125" y="210.9031581878662" text-anchor="end" dominant-baseline="text-after-edge">acc</text><path fill="white" stroke="#505050" paint-order="fill stroke markers" d=" M 380.2001953125 147.24066734313965 L 412.2001953125 147.24066734313965 L 412.2001953125 165.24066734313965 L 380.2001953125 165.24066734313965 L 388.2001953125 156.24066734313965 L 380.2001953125 147.24066734313965" stroke-miterlimit="10" stroke-width="0.5" stroke-dasharray=""/><path fill="none" stroke="#505050" paint-order="fill stroke markers" d=" M 404.2001953125 151.24066734313965 L 412.2001953125 151.24066734313965 L 412.2001953125 159.24066734313965 L 404.2001953125 159.24066734313965 L 404.2001953125 151.24066734313965 Z" stroke-miterlimit="10" stroke-width="0.5" stroke-dasharray=""/><text fill="#505050" stroke="none" font-family="monospace" font-size="14px" font-style="normal" font-weight="normal" text-decoration="normal" x="396.2001953125" y="165.24066734313965" text-anchor="end" dominant-baseline="text-after-edge">n</text><path fill="white" stroke="#505050" paint-order="fill stroke markers" d=" M 524.3470687866211 111.1344223022461 L 549.3470687866211 111.1344223022461 L 549.3470687866211 153.1344223022461 L 524.3470687866211 153.1344223022461 L 524.3470687866211 111.1344223022461 Z" stroke-miterlimit="10" stroke-width="0.5" stroke-dasharray=""/><path fill="#F0F0F0" stroke="none" paint-order="stroke fill markers" d=""/><text fill="#505050" stroke="none" font-family="monospace" font-size="14px" font-style="normal" font-weight="normal" text-decoration="normal" x="536.8470687866211" y="129.1344223022461" text-anchor="middle" dominant-baseline="text-after-edge">&lt;=</text><path fill="none" stroke="#505050" paint-order="fill stroke markers" d=" M 524.3470687866211 129.1344223022461 L 532.3470687866211 129.1344223022461 L 532.3470687866211 137.1344223022461 L 524.3470687866211 137.1344223022461 L 524.3470687866211 129.1344223022461 Z" stroke-miterlimit="10" stroke-width="0.5" stroke-dasharray=""/><path fill="none" stroke="#505050" paint-order="fill stroke markers" d=" M 524.3470687866211 141.1344223022461 L 532.3470687866211 141.1344223022461 L 532.3470687866211 149.1344223022461 L 524.3470687866211 149.1344223022461 L 524.3470687866211 141.1344223022461 Z" stroke-miterlimit="10" stroke-width="0.5" stroke-dasharray=""/><path fill="none" stroke="#505050" paint-order="fill stroke markers" d=" M 541.3470687866211 129.1344223022461 L 549.3470687866211 129.1344223022461 L 549.3470687866211 137.1344223022461 L 541.3470687866211 137.1344223022461 L 541.3470687866211 129.1344223022461 Z" stroke-miterlimit="10" stroke-width="0.5" stroke-dasharray=""/><path fill="white" stroke="#505050" paint-order="fill stroke markers" d=" M 466.9033012390137 153.143798828125 L 498.9033012390137 153.143798828125 L 498.9033012390137 171.143798828125 L 466.9033012390137 171.143798828125 L 466.9033012390137 153.143798828125 Z" stroke-miterlimit="10" stroke-width="0.5" stroke-dasharray=""/><path fill="#F0F0F0" stroke="none" paint-order="stroke fill markers" d=""/><path fill="none" stroke="#505050" paint-order="fill stroke markers" d=" M 490.9033012390137 157.143798828125 L 498.9033012390137 157.143798828125 L 498.9033012390137 165.143798828125 L 490.9033012390137 165.143798828125 L 490.9033012390137 157.143798828125 Z" stroke-miterlimit="10" stroke-width="0.5" stroke-dasharray=""/><text fill="#505050" stroke="none" font-family="monospace" font-size="14px" font-style="normal" font-weight="normal" text-decoration="normal" x="482.9033012390137" y="171.143798828125" text-anchor="end" dominant-baseline="text-after-edge">1</text><path fill="white" stroke="#505050" paint-order="fill stroke markers" d=" M 593.6782379150391 231.8755989074707 L 708.6782379150391 231.8755989074707 L 708.6782379150391 309.8755989074707 L 593.6782379150391 309.8755989074707 L 593.6782379150391 231.8755989074707 Z" stroke-miterlimit="10" stroke-width="0.5" stroke-dasharray=""/><path fill="#F0F0F0" stroke="none" paint-order="stroke fill markers" d=""/><text fill="#505050" stroke="none" font-family="monospace" font-size="14px" font-style="normal" font-weight="normal" text-decoration="normal" x="651.1782379150391" y="249.8755989074707" text-anchor="middle" dominant-baseline="text-after-edge">reduce</text><path fill="none" stroke="#505050" paint-order="fill stroke markers" d=" M 593.6782379150391 249.8755989074707 L 601.6782379150391 249.8755989074707 L 601.6782379150391 257.8755989074707 L 593.6782379150391 257.8755989074707 L 593.6782379150391 249.8755989074707 Z" stroke-miterlimit="10" stroke-width="0.5" stroke-dasharray=""/><text fill="#505050" stroke="none" font-family="monospace" font-size="14px" font-style="normal" font-weight="normal" text-decoration="normal" x="609.6782379150391" y="263.8755989074707" text-anchor="start" dominant-baseline="text-after-edge">n</text><path fill="none" stroke="#505050" paint-order="fill stroke markers" d=" M 593.6782379150391 263.8755989074707 L 601.6782379150391 263.8755989074707 L 601.6782379150391 271.8755989074707 L 593.6782379150391 271.8755989074707 L 593.6782379150391 263.8755989074707 Z" stroke-miterlimit="10" stroke-width="0.5" stroke-dasharray=""/><text fill="#505050" stroke="none" font-family="monospace" font-size="14px" font-style="normal" font-weight="normal" text-decoration="normal" x="609.6782379150391" y="277.8755989074707" text-anchor="start" dominant-baseline="text-after-edge">acc</text><path fill="none" stroke="#505050" paint-order="fill stroke markers" d=" M 593.6782379150391 277.8755989074707 L 617.6782379150391 277.8755989074707 L 617.6782379150391 305.8755989074707 L 593.6782379150391 305.8755989074707 L 593.6782379150391 277.8755989074707 Z" stroke-miterlimit="10" stroke-width="0.5" stroke-dasharray=""/><path fill="none" stroke="#505050" paint-order="fill stroke markers" d=" M 593.6782379150391 281.8755989074707 L 601.6782379150391 281.8755989074707 L 601.6782379150391 289.8755989074707 L 593.6782379150391 289.8755989074707 L 593.6782379150391 281.8755989074707 Z" stroke-miterlimit="10" stroke-width="0.5" stroke-dasharray=""/><path fill="none" stroke="#505050" paint-order="fill stroke markers" d=" M 593.6782379150391 293.8755989074707 L 601.6782379150391 293.8755989074707 L 601.6782379150391 301.8755989074707 L 593.6782379150391 301.8755989074707 L 593.6782379150391 293.8755989074707 Z" stroke-miterlimit="10" stroke-width="0.5" stroke-dasharray=""/><path fill="none" stroke="#505050" paint-order="fill stroke markers" d=" M 609.6782379150391 281.8755989074707 L 617.6782379150391 281.8755989074707 L 617.6782379150391 289.8755989074707 L 609.6782379150391 289.8755989074707 L 609.6782379150391 281.8755989074707 Z" stroke-miterlimit="10" stroke-width="0.5" stroke-dasharray=""/><text fill="#505050" stroke="none" font-family="monospace" font-size="14px" font-style="normal" font-weight="normal" text-decoration="normal" x="625.6782379150391" y="300.8755989074707" text-anchor="start" dominant-baseline="text-after-edge">callback</text><path fill="none" stroke="#505050" paint-order="fill stroke markers" d=" M 700.6782379150391 249.8755989074707 L 708.6782379150391 249.8755989074707 L 708.6782379150391 257.8755989074707 L 700.6782379150391 257.8755989074707 L 700.6782379150391 249.8755989074707 Z" stroke-miterlimit="10" stroke-width="0.5" stroke-dasharray=""/><path fill="#e0e0e0" stroke="none" paint-order="stroke fill markers" d=" M 803.5576934814453 142.36566543579102 L 795.5576934814453 103.36566543579102 L 795.5576934814453 181.36566543579102 Z M 585.6782379150391 270.8755989074707 L 593.6782379150391 231.8755989074707 L 593.6782379150391 309.8755989074707 Z"/><path fill="none" stroke="none"/><path fill="none" stroke="#e0e0e0" paint-order="fill stroke markers" d=" M 803.5576934814453 142.36566543579102 C 879.4442101645349 142.36566543579102 509.79172123194957 270.8755989074707 585.6782379150391 270.8755989074707" stroke-miterlimit="10" stroke-width="2" stroke-dasharray=""/><path fill="white" stroke="#505050" paint-order="fill stroke markers" d=" M 527.6051902770996 170.39221954345703 L 552.6051902770996 170.39221954345703 L 552.6051902770996 200.39221954345703 L 527.6051902770996 200.39221954345703 L 527.6051902770996 170.39221954345703 Z" stroke-miterlimit="10" stroke-width="0.5" stroke-dasharray=""/><path fill="#F0F0F0" stroke="none" paint-order="stroke fill markers" d=""/><text fill="#505050" stroke="none" font-family="monospace" font-size="14px" font-style="normal" font-weight="normal" text-decoration="normal" x="540.1051902770996" y="188.39221954345703" text-anchor="middle" dominant-baseline="text-after-edge">-1</text><path fill="none" stroke="#505050" paint-order="fill stroke markers" d=" M 527.6051902770996 188.39221954345703 L 535.6051902770996 188.39221954345703 L 535.6051902770996 196.39221954345703 L 527.6051902770996 196.39221954345703 L 527.6051902770996 188.39221954345703 Z" stroke-miterlimit="10" stroke-width="0.5" stroke-dasharray=""/><path fill="none" stroke="#505050" paint-order="fill stroke markers" d=" M 544.6051902770996 188.39221954345703 L 552.6051902770996 188.39221954345703 L 552.6051902770996 196.39221954345703 L 544.6051902770996 196.39221954345703 L 544.6051902770996 188.39221954345703 Z" stroke-miterlimit="10" stroke-width="0.5" stroke-dasharray=""/><path fill="none" stroke="none"/><path fill="white" stroke="#505050" paint-order="fill stroke markers" d=" M 369.4988570213318 267.3646240234375 L 460.4988570213318 267.3646240234375 L 460.4988570213318 317.3646240234375 L 369.4988570213318 317.3646240234375 L 377.4988570213318 292.3646240234375 L 369.4988570213318 267.3646240234375" stroke-miterlimit="10" stroke-width="0.5" stroke-dasharray="6,3"/><path fill="#F0F0F0" stroke="none" paint-order="stroke fill markers" d=" M 385.4988570213318 271.3646240234375 L 460.4988570213318 271.3646240234375 L 460.4988570213318 313.3646240234375 L 385.4988570213318 313.3646240234375 L 385.4988570213318 271.3646240234375 Z"/><path fill="none" stroke="#505050" paint-order="fill stroke markers" d=" M 385.4988570213318 271.3646240234375 L 460.4988570213318 271.3646240234375 L 460.4988570213318 313.3646240234375 L 385.4988570213318 313.3646240234375 L 385.4988570213318 271.3646240234375 Z" stroke-miterlimit="10" stroke-width="0.5" stroke-dasharray="0"/><text fill="#505050" stroke="none" font-family="monospace" font-size="14px" font-style="normal" font-weight="normal" text-decoration="normal" x="422.9988570213318" y="289.3646240234375" text-anchor="middle" dominant-baseline="text-after-edge">callback</text><path fill="none" stroke="#505050" paint-order="fill stroke markers" d=" M 385.4988570213318 289.3646240234375 L 393.4988570213318 289.3646240234375 L 393.4988570213318 297.3646240234375 L 385.4988570213318 297.3646240234375 L 385.4988570213318 289.3646240234375 Z" stroke-miterlimit="10" stroke-width="0.5" stroke-dasharray="0"/><path fill="none" stroke="#505050" paint-order="fill stroke markers" d=" M 385.4988570213318 301.3646240234375 L 393.4988570213318 301.3646240234375 L 393.4988570213318 309.3646240234375 L 385.4988570213318 309.3646240234375 L 385.4988570213318 301.3646240234375 Z" stroke-miterlimit="10" stroke-width="0.5" stroke-dasharray="0"/><path fill="none" stroke="#505050" paint-order="fill stroke markers" d=" M 452.4988570213318 289.3646240234375 L 460.4988570213318 289.3646240234375 L 460.4988570213318 297.3646240234375 L 452.4988570213318 297.3646240234375 L 452.4988570213318 289.3646240234375 Z" stroke-miterlimit="10" stroke-width="0.5" stroke-dasharray="0"/><path fill="none" stroke="#505050" paint-order="fill stroke markers" d=" M 385.4988570213318 271.3646240234375 L 460.4988570213318 271.3646240234375 L 460.4988570213318 313.3646240234375 L 385.4988570213318 313.3646240234375 L 385.4988570213318 271.3646240234375 Z" stroke-miterlimit="10" stroke-width="0.5" stroke-dasharray="6,3"/><path fill="#F0F0F0" stroke="none" paint-order="stroke fill markers" d=""/><text fill="#505050" stroke="none" font-family="monospace" font-size="14px" font-style="normal" font-weight="normal" text-decoration="normal" x="422.9988570213318" y="289.3646240234375" text-anchor="middle" dominant-baseline="text-after-edge">callback</text><path fill="none" stroke="#505050" paint-order="fill stroke markers" d=" M 385.4988570213318 289.3646240234375 L 393.4988570213318 289.3646240234375 L 393.4988570213318 297.3646240234375 L 385.4988570213318 297.3646240234375 L 385.4988570213318 289.3646240234375 Z" stroke-miterlimit="10" stroke-width="0.5" stroke-dasharray="0"/><path fill="none" stroke="#505050" paint-order="fill stroke markers" d=" M 385.4988570213318 301.3646240234375 L 393.4988570213318 301.3646240234375 L 393.4988570213318 309.3646240234375 L 385.4988570213318 309.3646240234375 L 385.4988570213318 301.3646240234375 Z" stroke-miterlimit="10" stroke-width="0.5" stroke-dasharray="0"/><path fill="none" stroke="#505050" paint-order="fill stroke markers" d=" M 452.4988570213318 289.3646240234375 L 460.4988570213318 289.3646240234375 L 460.4988570213318 297.3646240234375 L 452.4988570213318 297.3646240234375 L 452.4988570213318 289.3646240234375 Z" stroke-miterlimit="10" stroke-width="0.5" stroke-dasharray="0"/><path fill="white" stroke="#505050" paint-order="fill stroke markers" d=" M 493.94054555892944 232.85709762573242 L 568.9405455589294 232.85709762573242 L 568.9405455589294 274.8570976257324 L 493.94054555892944 274.8570976257324 L 493.94054555892944 232.85709762573242 Z" stroke-miterlimit="10" stroke-width="0.5" stroke-dasharray="0"/><path fill="#F0F0F0" stroke="none" paint-order="stroke fill markers" d=""/><text fill="#505050" stroke="none" font-family="monospace" font-size="14px" font-style="normal" font-weight="normal" text-decoration="normal" x="531.4405455589294" y="250.85709762573242" text-anchor="middle" dominant-baseline="text-after-edge">callback</text><path fill="none" stroke="#505050" paint-order="fill stroke markers" d=" M 493.94054555892944 250.85709762573242 L 501.94054555892944 250.85709762573242 L 501.94054555892944 258.8570976257324 L 493.94054555892944 258.8570976257324 L 493.94054555892944 250.85709762573242 Z" stroke-miterlimit="10" stroke-width="0.5" stroke-dasharray="0"/><path fill="none" stroke="#505050" paint-order="fill stroke markers" d=" M 493.94054555892944 262.8570976257324 L 501.94054555892944 262.8570976257324 L 501.94054555892944 270.8570976257324 L 493.94054555892944 270.8570976257324 L 493.94054555892944 262.8570976257324 Z" stroke-miterlimit="10" stroke-width="0.5" stroke-dasharray="0"/><path fill="none" stroke="#505050" paint-order="fill stroke markers" d=" M 560.9405455589294 250.85709762573242 L 568.9405455589294 250.85709762573242 L 568.9405455589294 258.8570976257324 L 560.9405455589294 258.8570976257324 L 560.9405455589294 250.85709762573242 Z" stroke-miterlimit="10" stroke-width="0.5" stroke-dasharray="0"/><path fill="#e0e0e0" stroke="none" paint-order="stroke fill markers" d=" M 468.4988570213318 292.3646240234375 L 460.4988570213318 271.3646240234375 L 460.4988570213318 313.3646240234375 Z M 485.94054555892944 253.85709762573242 L 493.94054555892944 232.85709762573242 L 493.94054555892944 274.8570976257324 Z"/><path fill="none" stroke="none"/><path fill="none" stroke="#e0e0e0" paint-order="fill stroke markers" d=" M 468.4988570213318 292.3646240234375 C 481.1808831980958 292.3646240234375 473.25851938216545 253.85709762573242 485.94054555892944 253.85709762573242" stroke-miterlimit="10" stroke-width="2" stroke-dasharray="0"/><path fill="white" stroke="#505050" paint-order="fill stroke markers" d=" M 370.33568954467773 14.10284423828125 L 370.33568954467773 66.65909576416016 Q 370.33568954467773 74.65909576416016 378.33568954467773 74.65909576416016 L 496.6419334411621 74.65909576416016 Q 504.6419334411621 74.65909576416016 504.6419334411621 66.65909576416016 L 504.6419334411621 14.10284423828125 Q 504.6419334411621 6.10284423828125 496.6419334411621 6.10284423828125 L 378.33568954467773 6.10284423828125 Q 370.33568954467773 6.10284423828125 370.33568954467773 14.10284423828125" stroke-miterlimit="10" stroke-width="0.5" stroke-dasharray="0"/><path fill="#F0F0F0" stroke="#505050" paint-order="fill stroke markers" d=" M 479.6419334411621 14.10284423828125 L 504.6419334411621 14.10284423828125 L 504.6419334411621 44.10284423828125 L 479.6419334411621 44.10284423828125 L 479.6419334411621 14.10284423828125 Z" stroke-miterlimit="10" stroke-width="0.5" stroke-dasharray="0"/><text fill="#505050" stroke="none" font-family="monospace" font-size="14px" font-style="normal" font-weight="normal" text-decoration="normal" x="492.1419334411621" y="32.10284423828125" text-anchor="middle" dominant-baseline="text-after-edge">-1</text><path fill="none" stroke="#505050" paint-order="fill stroke markers" d=" M 479.6419334411621 32.10284423828125 L 487.6419334411621 32.10284423828125 L 487.6419334411621 40.10284423828125 L 479.6419334411621 40.10284423828125 L 479.6419334411621 32.10284423828125 Z" stroke-miterlimit="10" stroke-width="0.5" stroke-dasharray="0"/><path fill="none" stroke="#505050" paint-order="fill stroke markers" d=" M 496.6419334411621 32.10284423828125 L 504.6419334411621 32.10284423828125 L 504.6419334411621 40.10284423828125 L 496.6419334411621 40.10284423828125 L 496.6419334411621 32.10284423828125 Z" stroke-miterlimit="10" stroke-width="0.5" stroke-dasharray="0"/><path fill="white" stroke="#505050" paint-order="fill stroke markers" d=" M 419.1669273376465 10.65909481048584 L 443.1669273376465 10.65909481048584 L 443.1669273376465 52.65909481048584 L 419.1669273376465 52.65909481048584 L 419.1669273376465 10.65909481048584 Z" stroke-miterlimit="10" stroke-width="0.5" stroke-dasharray="0"/><path fill="#F0F0F0" stroke="none" paint-order="stroke fill markers" d=""/><text fill="#505050" stroke="none" font-family="monospace" font-size="14px" font-style="normal" font-weight="normal" text-decoration="normal" x="431.1669273376465" y="28.65909481048584" text-anchor="middle" dominant-baseline="text-after-edge">-</text><path fill="none" stroke="#505050" paint-order="fill stroke markers" d=" M 419.1669273376465 28.65909481048584 L 427.1669273376465 28.65909481048584 L 427.1669273376465 36.65909481048584 L 419.1669273376465 36.65909481048584 L 419.1669273376465 28.65909481048584 Z" stroke-miterlimit="10" stroke-width="0.5" stroke-dasharray="0"/><path fill="none" stroke="#505050" paint-order="fill stroke markers" d=" M 419.1669273376465 40.65909481048584 L 427.1669273376465 40.65909481048584 L 427.1669273376465 48.65909481048584 L 419.1669273376465 48.65909481048584 L 419.1669273376465 40.65909481048584 Z" stroke-miterlimit="10" stroke-width="0.5" stroke-dasharray="0"/><path fill="none" stroke="#505050" paint-order="fill stroke markers" d=" M 435.1669273376465 28.65909481048584 L 443.1669273376465 28.65909481048584 L 443.1669273376465 36.65909481048584 L 435.1669273376465 36.65909481048584 L 435.1669273376465 28.65909481048584 Z" stroke-miterlimit="10" stroke-width="0.5" stroke-dasharray="0"/><path fill="white" stroke="#505050" paint-order="fill stroke markers" d=" M 454.35488510131836 24.514915466308594 L 462.35488510131836 24.514915466308594 L 470.35488510131836 32.514915466308594 L 462.35488510131836 40.514915466308594 L 454.35488510131836 40.514915466308594 L 454.35488510131836 24.514915466308594" stroke-miterlimit="10" stroke-width="0.5" stroke-dasharray="0"/><path fill="none" stroke="#505050" paint-order="fill stroke markers" d=" M 454.35488510131836 28.514915466308594 L 462.35488510131836 28.514915466308594 L 462.35488510131836 36.514915466308594 L 454.35488510131836 36.514915466308594 L 454.35488510131836 28.514915466308594 Z" stroke-miterlimit="10" stroke-width="0.5" stroke-dasharray="0"/><path fill="white" stroke="#505050" paint-order="fill stroke markers" d=" M 373.6419486999512 40.659095764160156 L 405.6419486999512 40.659095764160156 L 405.6419486999512 58.659095764160156 L 373.6419486999512 58.659095764160156 L 373.6419486999512 40.659095764160156 Z" stroke-miterlimit="10" stroke-width="0.5" stroke-dasharray="0"/><path fill="#F0F0F0" stroke="none" paint-order="stroke fill markers" d=""/><path fill="none" stroke="#505050" paint-order="fill stroke markers" d=" M 397.6419486999512 44.659095764160156 L 405.6419486999512 44.659095764160156 L 405.6419486999512 52.659095764160156 L 397.6419486999512 52.659095764160156 L 397.6419486999512 44.659095764160156 Z" stroke-miterlimit="10" stroke-width="0.5" stroke-dasharray="0"/><text fill="#505050" stroke="none" font-family="monospace" font-size="14px" font-style="normal" font-weight="normal" text-decoration="normal" x="389.6419486999512" y="58.659095764160156" text-anchor="end" dominant-baseline="text-after-edge">1</text><path fill="white" stroke="#505050" paint-order="fill stroke markers" d=" M 379.27944564819336 13.540343284606934 L 395.27944564819336 13.540343284606934 L 395.27944564819336 29.540343284606934 L 379.27944564819336 29.540343284606934 L 387.27944564819336 21.540343284606934 L 379.27944564819336 13.540343284606934" stroke-miterlimit="10" stroke-width="0.5" stroke-dasharray="0"/><path fill="none" stroke="#505050" paint-order="fill stroke markers" d=" M 387.27944564819336 17.540343284606934 L 395.27944564819336 17.540343284606934 L 395.27944564819336 25.540343284606934 L 387.27944564819336 25.540343284606934 L 387.27944564819336 17.540343284606934 Z" stroke-miterlimit="10" stroke-width="0.5" stroke-dasharray="0"/><path fill="white" stroke="#505050" paint-order="fill stroke markers" d=" M 860.3419342041016 147.05612564086914 L 860.3419342041016 270.7655143737793 Q 860.3419342041016 278.7655143737793 868.3419342041016 278.7655143737793 L 1083.204605102539 278.7655143737793 Q 1091.204605102539 278.7655143737793 1091.204605102539 270.7655143737793 L 1091.204605102539 147.05612564086914 Q 1091.204605102539 139.05612564086914 1083.204605102539 139.05612564086914 L 868.3419342041016 139.05612564086914 Q 860.3419342041016 139.05612564086914 860.3419342041016 147.05612564086914" stroke-miterlimit="10" stroke-width="0.5" stroke-dasharray="0"/><path fill="#F0F0F0" stroke="#505050" paint-order="fill stroke markers" d=" M 1066.204605102539 147.05612564086914 L 1091.204605102539 147.05612564086914 L 1091.204605102539 177.05612564086914 L 1066.204605102539 177.05612564086914 L 1066.204605102539 147.05612564086914 Z" stroke-miterlimit="10" stroke-width="0.5" stroke-dasharray="0"/><text fill="#505050" stroke="none" font-family="monospace" font-size="14px" font-style="normal" font-weight="normal" text-decoration="normal" x="1078.704605102539" y="165.05612564086914" text-anchor="middle" dominant-baseline="text-after-edge">n!</text><path fill="none" stroke="#505050" paint-order="fill stroke markers" d=" M 1066.204605102539 165.05612564086914 L 1074.204605102539 165.05612564086914 L 1074.204605102539 173.05612564086914 L 1066.204605102539 173.05612564086914 L 1066.204605102539 165.05612564086914 Z" stroke-miterlimit="10" stroke-width="0.5" stroke-dasharray="0"/><path fill="none" stroke="#505050" paint-order="fill stroke markers" d=" M 1083.204605102539 165.05612564086914 L 1091.204605102539 165.05612564086914 L 1091.204605102539 173.05612564086914 L 1083.204605102539 173.05612564086914 L 1083.204605102539 165.05612564086914 Z" stroke-miterlimit="10" stroke-width="0.5" stroke-dasharray="0"/><path fill="white" stroke="#505050" paint-order="fill stroke markers" d=" M 929.1513214111328 174.04277420043945 L 1044.1513214111328 174.04277420043945 L 1044.1513214111328 252.04277420043945 L 929.1513214111328 252.04277420043945 L 929.1513214111328 174.04277420043945 Z" stroke-miterlimit="10" stroke-width="0.5" stroke-dasharray="0"/><path fill="#F0F0F0" stroke="none" paint-order="stroke fill markers" d=""/><text fill="#505050" stroke="none" font-family="monospace" font-size="14px" font-style="normal" font-weight="normal" text-decoration="normal" x="986.6513214111328" y="192.04277420043945" text-anchor="middle" dominant-baseline="text-after-edge">reduce</text><path fill="none" stroke="#505050" paint-order="fill stroke markers" d=" M 929.1513214111328 192.04277420043945 L 937.1513214111328 192.04277420043945 L 937.1513214111328 200.04277420043945 L 929.1513214111328 200.04277420043945 L 929.1513214111328 192.04277420043945 Z" stroke-miterlimit="10" stroke-width="0.5" stroke-dasharray="0"/><text fill="#505050" stroke="none" font-family="monospace" font-size="14px" font-style="normal" font-weight="normal" text-decoration="normal" x="945.1513214111328" y="206.04277420043945" text-anchor="start" dominant-baseline="text-after-edge">n</text><path fill="none" stroke="#505050" paint-order="fill stroke markers" d=" M 929.1513214111328 206.04277420043945 L 937.1513214111328 206.04277420043945 L 937.1513214111328 214.04277420043945 L 929.1513214111328 214.04277420043945 L 929.1513214111328 206.04277420043945 Z" stroke-miterlimit="10" stroke-width="0.5" stroke-dasharray="0"/><text fill="#505050" stroke="none" font-family="monospace" font-size="14px" font-style="normal" font-weight="normal" text-decoration="normal" x="945.1513214111328" y="220.04277420043945" text-anchor="start" dominant-baseline="text-after-edge">acc</text><path fill="none" stroke="#505050" paint-order="fill stroke markers" d=" M 929.1513214111328 220.04277420043945 L 953.1513214111328 220.04277420043945 L 953.1513214111328 248.04277420043945 L 929.1513214111328 248.04277420043945 L 929.1513214111328 220.04277420043945 Z" stroke-miterlimit="10" stroke-width="0.5" stroke-dasharray="0"/><path fill="none" stroke="#505050" paint-order="fill stroke markers" d=" M 929.1513214111328 224.04277420043945 L 937.1513214111328 224.04277420043945 L 937.1513214111328 232.04277420043945 L 929.1513214111328 232.04277420043945 L 929.1513214111328 224.04277420043945 Z" stroke-miterlimit="10" stroke-width="0.5" stroke-dasharray="0"/><path fill="none" stroke="#505050" paint-order="fill stroke markers" d=" M 929.1513214111328 236.04277420043945 L 937.1513214111328 236.04277420043945 L 937.1513214111328 244.04277420043945 L 929.1513214111328 244.04277420043945 L 929.1513214111328 236.04277420043945 Z" stroke-miterlimit="10" stroke-width="0.5" stroke-dasharray="0"/><path fill="none" stroke="#505050" paint-order="fill stroke markers" d=" M 945.1513214111328 224.04277420043945 L 953.1513214111328 224.04277420043945 L 953.1513214111328 232.04277420043945 L 945.1513214111328 232.04277420043945 L 945.1513214111328 224.04277420043945 Z" stroke-miterlimit="10" stroke-width="0.5" stroke-dasharray="0"/><text fill="#505050" stroke="none" font-family="monospace" font-size="14px" font-style="normal" font-weight="normal" text-decoration="normal" x="961.1513214111328" y="243.04277420043945" text-anchor="start" dominant-baseline="text-after-edge">callback</text><path fill="none" stroke="#505050" paint-order="fill stroke markers" d=" M 1036.1513214111328 192.04277420043945 L 1044.1513214111328 192.04277420043945 L 1044.1513214111328 200.04277420043945 L 1036.1513214111328 200.04277420043945 L 1036.1513214111328 192.04277420043945 Z" stroke-miterlimit="10" stroke-width="0.5" stroke-dasharray="0"/><path fill="#e0e0e0" stroke="none" paint-order="stroke fill markers" d=" M 803.5576934814453 142.36566543579102 L 795.5576934814453 103.36566543579102 L 795.5576934814453 181.36566543579102 Z M 921.1513214111328 213.04277420043945 L 929.1513214111328 174.04277420043945 L 929.1513214111328 252.04277420043945 Z"/><path fill="none" stroke="none"/><path fill="none" stroke="#e0e0e0" paint-order="fill stroke markers" d=" M 803.5576934814453 142.36566543579102 C 844.7173381952863 142.36566543579102 879.9916766972918 213.04277420043945 921.1513214111328 213.04277420043945" stroke-miterlimit="10" stroke-width="2" stroke-dasharray="0"/><path fill="white" stroke="#505050" paint-order="fill stroke markers" d=" M 1059.204605102539 187.75101852416992 L 1067.204605102539 187.75101852416992 L 1075.204605102539 195.75101852416992 L 1067.204605102539 203.75101852416992 L 1059.204605102539 203.75101852416992 L 1059.204605102539 187.75101852416992" stroke-miterlimit="10" stroke-width="0.5" stroke-dasharray="0"/><path fill="none" stroke="#505050" paint-order="fill stroke markers" d=" M 1059.204605102539 191.75101852416992 L 1067.204605102539 191.75101852416992 L 1067.204605102539 199.75101852416992 L 1059.204605102539 199.75101852416992 L 1059.204605102539 191.75101852416992 Z" stroke-miterlimit="10" stroke-width="0.5" stroke-dasharray="0"/><path fill="white" stroke="#505050" paint-order="fill stroke markers" d=" M 867.6450347900391 184.13739395141602 L 899.6450347900391 184.13739395141602 L 899.6450347900391 202.13739395141602 L 867.6450347900391 202.13739395141602 L 867.6450347900391 184.13739395141602 Z" stroke-miterlimit="10" stroke-width="0.5" stroke-dasharray="0"/><path fill="#F0F0F0" stroke="none" paint-order="stroke fill markers" d=""/><path fill="none" stroke="#505050" paint-order="fill stroke markers" d=" M 891.6450347900391 188.13739395141602 L 899.6450347900391 188.13739395141602 L 899.6450347900391 196.13739395141602 L 891.6450347900391 196.13739395141602 L 891.6450347900391 188.13739395141602 Z" stroke-miterlimit="10" stroke-width="0.5" stroke-dasharray="0"/><text fill="#505050" stroke="none" font-family="monospace" font-size="14px" font-style="normal" font-weight="normal" text-decoration="normal" x="883.6450347900391" y="202.13739395141602" text-anchor="end" dominant-baseline="text-after-edge">1</text><path fill="white" stroke="#505050" paint-order="fill stroke markers" d=" M 870.4325714111328 148.05612564086914 L 886.4325714111328 148.05612564086914 L 886.4325714111328 164.05612564086914 L 870.4325714111328 164.05612564086914 L 878.4325714111328 156.05612564086914 L 870.4325714111328 148.05612564086914" stroke-miterlimit="10" stroke-width="0.5" stroke-dasharray="0"/><path fill="none" stroke="#505050" paint-order="fill stroke markers" d=" M 878.4325714111328 152.05612564086914 L 886.4325714111328 152.05612564086914 L 886.4325714111328 160.05612564086914 L 878.4325714111328 160.05612564086914 L 878.4325714111328 152.05612564086914 Z" stroke-miterlimit="10" stroke-width="0.5" stroke-dasharray="0"/><path fill="none" stroke="none"/><path fill="white" stroke="#505050" paint-order="fill stroke markers" d=" M 866.3852889537811 212.7655143737793 L 898.3852889537811 212.7655143737793 L 906.3852889537811 237.7655143737793 L 898.3852889537811 262.7655143737793 L 866.3852889537811 262.7655143737793 L 866.3852889537811 212.7655143737793" stroke-miterlimit="10" stroke-width="0.5" stroke-dasharray="0"/><path fill="none" stroke="#505050" paint-order="fill stroke markers" d=" M 874.3852889537811 216.7655143737793 L 898.3852889537811 216.7655143737793 L 898.3852889537811 258.7655143737793 L 874.3852889537811 258.7655143737793 L 874.3852889537811 216.7655143737793 Z" stroke-miterlimit="10" stroke-width="0.5" stroke-dasharray="0"/><text fill="#505050" stroke="none" font-family="monospace" font-size="14px" font-style="normal" font-weight="normal" text-decoration="normal" x="886.3852889537811" y="234.7655143737793" text-anchor="middle" dominant-baseline="text-after-edge">*</text><path fill="none" stroke="#505050" paint-order="fill stroke markers" d=" M 874.3852889537811 234.7655143737793 L 882.3852889537811 234.7655143737793 L 882.3852889537811 242.7655143737793 L 874.3852889537811 242.7655143737793 L 874.3852889537811 234.7655143737793 Z" stroke-miterlimit="10" stroke-width="0.5" stroke-dasharray="0"/><path fill="none" stroke="#505050" paint-order="fill stroke markers" d=" M 874.3852889537811 246.7655143737793 L 882.3852889537811 246.7655143737793 L 882.3852889537811 254.7655143737793 L 874.3852889537811 254.7655143737793 L 874.3852889537811 246.7655143737793 Z" stroke-miterlimit="10" stroke-width="0.5" stroke-dasharray="0"/><path fill="none" stroke="#505050" paint-order="fill stroke markers" d=" M 890.3852889537811 234.7655143737793 L 898.3852889537811 234.7655143737793 L 898.3852889537811 242.7655143737793 L 890.3852889537811 242.7655143737793 L 890.3852889537811 234.7655143737793 Z" stroke-miterlimit="10" stroke-width="0.5" stroke-dasharray="0"/><path fill="none" stroke="#505050" paint-order="fill stroke markers" d=" M 874.3852889537811 216.7655143737793 L 898.3852889537811 216.7655143737793 L 898.3852889537811 258.7655143737793 L 874.3852889537811 258.7655143737793 L 874.3852889537811 216.7655143737793 Z" stroke-miterlimit="10" stroke-width="0.5" stroke-dasharray="0"/><path fill="#F0F0F0" stroke="none" paint-order="stroke fill markers" d=""/><text fill="#505050" stroke="none" font-family="monospace" font-size="14px" font-style="normal" font-weight="normal" text-decoration="normal" x="886.3852889537811" y="234.7655143737793" text-anchor="middle" dominant-baseline="text-after-edge">*</text><path fill="none" stroke="#505050" paint-order="fill stroke markers" d=" M 874.3852889537811 234.7655143737793 L 882.3852889537811 234.7655143737793 L 882.3852889537811 242.7655143737793 L 874.3852889537811 242.7655143737793 L 874.3852889537811 234.7655143737793 Z" stroke-miterlimit="10" stroke-width="0.5" stroke-dasharray="0"/><path fill="none" stroke="#505050" paint-order="fill stroke markers" d=" M 874.3852889537811 246.7655143737793 L 882.3852889537811 246.7655143737793 L 882.3852889537811 254.7655143737793 L 874.3852889537811 254.7655143737793 L 874.3852889537811 246.7655143737793 Z" stroke-miterlimit="10" stroke-width="0.5" stroke-dasharray="0"/><path fill="none" stroke="#505050" paint-order="fill stroke markers" d=" M 890.3852889537811 234.7655143737793 L 898.3852889537811 234.7655143737793 L 898.3852889537811 242.7655143737793 L 890.3852889537811 242.7655143737793 L 890.3852889537811 234.7655143737793 Z" stroke-miterlimit="10" stroke-width="0.5" stroke-dasharray="0"/><path fill="white" stroke="#505050" paint-order="fill stroke markers" d=" M 801.6116180419922 364.1295051574707 L 801.6116180419922 532.8358917236328 Q 801.6116180419922 540.8358917236328 809.6116180419922 540.8358917236328 L 1052.1508026123047 540.8358917236328 Q 1060.1508026123047 540.8358917236328 1060.1508026123047 532.8358917236328 L 1060.1508026123047 364.1295051574707 Q 1060.1508026123047 356.1295051574707 1052.1508026123047 356.1295051574707 L 809.6116180419922 356.1295051574707 Q 801.6116180419922 356.1295051574707 801.6116180419922 364.1295051574707" stroke-miterlimit="10" stroke-width="0.5" stroke-dasharray="0"/><path fill="#F0F0F0" stroke="#505050" paint-order="fill stroke markers" d=" M 985.1508026123047 364.1295051574707 L 1060.1508026123047 364.1295051574707 L 1060.1508026123047 394.1295051574707 L 985.1508026123047 394.1295051574707 L 985.1508026123047 364.1295051574707 Z" stroke-miterlimit="10" stroke-width="0.5" stroke-dasharray="0"/><text fill="#505050" stroke="none" font-family="monospace" font-size="14px" font-style="normal" font-weight="normal" text-decoration="normal" x="1022.6508026123047" y="382.1295051574707" text-anchor="middle" dominant-baseline="text-after-edge">arraySum</text><path fill="none" stroke="#505050" paint-order="fill stroke markers" d=" M 1052.1508026123047 382.1295051574707 L 1060.1508026123047 382.1295051574707 L 1060.1508026123047 390.1295051574707 L 1052.1508026123047 390.1295051574707 L 1052.1508026123047 382.1295051574707 Z" stroke-miterlimit="10" stroke-width="0.5" stroke-dasharray="0"/><path fill="white" stroke="#505050" paint-order="fill stroke markers" d=" M 899.1951141357422 402.4023323059082 L 1014.1951141357422 402.4023323059082 L 1014.1951141357422 480.4023323059082 L 899.1951141357422 480.4023323059082 L 899.1951141357422 402.4023323059082 Z" stroke-miterlimit="10" stroke-width="0.5" stroke-dasharray="0"/><path fill="#F0F0F0" stroke="none" paint-order="stroke fill markers" d=""/><text fill="#505050" stroke="none" font-family="monospace" font-size="14px" font-style="normal" font-weight="normal" text-decoration="normal" x="956.6951141357422" y="420.4023323059082" text-anchor="middle" dominant-baseline="text-after-edge">reduce</text><path fill="none" stroke="#505050" paint-order="fill stroke markers" d=" M 899.1951141357422 420.4023323059082 L 907.1951141357422 420.4023323059082 L 907.1951141357422 428.4023323059082 L 899.1951141357422 428.4023323059082 L 899.1951141357422 420.4023323059082 Z" stroke-miterlimit="10" stroke-width="0.5" stroke-dasharray="0"/><text fill="#505050" stroke="none" font-family="monospace" font-size="14px" font-style="normal" font-weight="normal" text-decoration="normal" x="915.1951141357422" y="434.4023323059082" text-anchor="start" dominant-baseline="text-after-edge">n</text><path fill="none" stroke="#505050" paint-order="fill stroke markers" d=" M 899.1951141357422 434.4023323059082 L 907.1951141357422 434.4023323059082 L 907.1951141357422 442.4023323059082 L 899.1951141357422 442.4023323059082 L 899.1951141357422 434.4023323059082 Z" stroke-miterlimit="10" stroke-width="0.5" stroke-dasharray="0"/><text fill="#505050" stroke="none" font-family="monospace" font-size="14px" font-style="normal" font-weight="normal" text-decoration="normal" x="915.1951141357422" y="448.4023323059082" text-anchor="start" dominant-baseline="text-after-edge">acc</text><path fill="none" stroke="#505050" paint-order="fill stroke markers" d=" M 899.1951141357422 448.4023323059082 L 923.1951141357422 448.4023323059082 L 923.1951141357422 476.4023323059082 L 899.1951141357422 476.4023323059082 L 899.1951141357422 448.4023323059082 Z" stroke-miterlimit="10" stroke-width="0.5" stroke-dasharray="0"/><path fill="none" stroke="#505050" paint-order="fill stroke markers" d=" M 899.1951141357422 452.4023323059082 L 907.1951141357422 452.4023323059082 L 907.1951141357422 460.4023323059082 L 899.1951141357422 460.4023323059082 L 899.1951141357422 452.4023323059082 Z" stroke-miterlimit="10" stroke-width="0.5" stroke-dasharray="0"/><path fill="none" stroke="#505050" paint-order="fill stroke markers" d=" M 899.1951141357422 464.4023323059082 L 907.1951141357422 464.4023323059082 L 907.1951141357422 472.4023323059082 L 899.1951141357422 472.4023323059082 L 899.1951141357422 464.4023323059082 Z" stroke-miterlimit="10" stroke-width="0.5" stroke-dasharray="0"/><path fill="none" stroke="#505050" paint-order="fill stroke markers" d=" M 915.1951141357422 452.4023323059082 L 923.1951141357422 452.4023323059082 L 923.1951141357422 460.4023323059082 L 915.1951141357422 460.4023323059082 L 915.1951141357422 452.4023323059082 Z" stroke-miterlimit="10" stroke-width="0.5" stroke-dasharray="0"/><text fill="#505050" stroke="none" font-family="monospace" font-size="14px" font-style="normal" font-weight="normal" text-decoration="normal" x="931.1951141357422" y="471.4023323059082" text-anchor="start" dominant-baseline="text-after-edge">callback</text><path fill="none" stroke="#505050" paint-order="fill stroke markers" d=" M 1006.1951141357422 420.4023323059082 L 1014.1951141357422 420.4023323059082 L 1014.1951141357422 428.4023323059082 L 1006.1951141357422 428.4023323059082 L 1006.1951141357422 420.4023323059082 Z" stroke-miterlimit="10" stroke-width="0.5" stroke-dasharray="0"/><path fill="#e0e0e0" stroke="none" paint-order="stroke fill markers" d=" M 803.5576934814453 142.36566543579102 L 795.5576934814453 103.36566543579102 L 795.5576934814453 181.36566543579102 Z M 891.1951141357422 441.4023323059082 L 899.1951141357422 402.4023323059082 L 899.1951141357422 480.4023323059082 Z"/><path fill="none" stroke="none"/><path fill="none" stroke="#e0e0e0" paint-order="fill stroke markers" d=" M 803.5576934814453 142.36566543579102 C 897.0418745328697 142.36566543579102 797.7109330843178 441.4023323059082 891.1951141357422 441.4023323059082" stroke-miterlimit="10" stroke-width="2" stroke-dasharray="0"/><path fill="white" stroke="#505050" paint-order="fill stroke markers" d=" M 1028.1508026123047 416.4238471984863 L 1036.1508026123047 416.4238471984863 L 1044.1508026123047 424.4238471984863 L 1036.1508026123047 432.4238471984863 L 1028.1508026123047 432.4238471984863 L 1028.1508026123047 416.4238471984863" stroke-miterlimit="10" stroke-width="0.5" stroke-dasharray="0"/><path fill="none" stroke="#505050" paint-order="fill stroke markers" d=" M 1028.1508026123047 420.4238471984863 L 1036.1508026123047 420.4238471984863 L 1036.1508026123047 428.4238471984863 L 1028.1508026123047 428.4238471984863 L 1028.1508026123047 420.4238471984863 Z" stroke-miterlimit="10" stroke-width="0.5" stroke-dasharray="0"/><path fill="white" stroke="#505050" paint-order="fill stroke markers" d=" M 814.8415985107422 435.41533279418945 L 846.8415985107422 435.41533279418945 L 846.8415985107422 453.41533279418945 L 814.8415985107422 453.41533279418945 L 814.8415985107422 435.41533279418945 Z" stroke-miterlimit="10" stroke-width="0.5" stroke-dasharray="0"/><path fill="#F0F0F0" stroke="none" paint-order="stroke fill markers" d=""/><path fill="none" stroke="#505050" paint-order="fill stroke markers" d=" M 838.8415985107422 439.41533279418945 L 846.8415985107422 439.41533279418945 L 846.8415985107422 447.41533279418945 L 838.8415985107422 447.41533279418945 L 838.8415985107422 439.41533279418945 Z" stroke-miterlimit="10" stroke-width="0.5" stroke-dasharray="0"/><text fill="#505050" stroke="none" font-family="monospace" font-size="14px" font-style="normal" font-weight="normal" text-decoration="normal" x="830.8415985107422" y="453.41533279418945" text-anchor="end" dominant-baseline="text-after-edge">1</text><path fill="none" stroke="none"/><path fill="white" stroke="#505050" paint-order="fill stroke markers" d=" M 805.6178340911865 468.4033966064453 L 888.6178340911865 468.4033966064453 L 896.6178340911865 493.4033966064453 L 888.6178340911865 518.4033966064453 L 805.6178340911865 518.4033966064453 L 805.6178340911865 468.4033966064453" stroke-miterlimit="10" stroke-width="0.5" stroke-dasharray="0"/><path fill="none" stroke="#505050" paint-order="fill stroke markers" d=" M 813.6178340911865 472.4033966064453 L 888.6178340911865 472.4033966064453 L 888.6178340911865 514.4033966064453 L 813.6178340911865 514.4033966064453 L 813.6178340911865 472.4033966064453 Z" stroke-miterlimit="10" stroke-width="0.5" stroke-dasharray="0"/><text fill="#505050" stroke="none" font-family="monospace" font-size="14px" font-style="normal" font-weight="normal" text-decoration="normal" x="851.1178340911865" y="490.4033966064453" text-anchor="middle" dominant-baseline="text-after-edge">a[i]+acc</text><path fill="none" stroke="#505050" paint-order="fill stroke markers" d=" M 813.6178340911865 490.4033966064453 L 821.6178340911865 490.4033966064453 L 821.6178340911865 498.4033966064453 L 813.6178340911865 498.4033966064453 L 813.6178340911865 490.4033966064453 Z" stroke-miterlimit="10" stroke-width="0.5" stroke-dasharray="0"/><path fill="none" stroke="#505050" paint-order="fill stroke markers" d=" M 813.6178340911865 502.4033966064453 L 821.6178340911865 502.4033966064453 L 821.6178340911865 510.4033966064453 L 813.6178340911865 510.4033966064453 L 813.6178340911865 502.4033966064453 Z" stroke-miterlimit="10" stroke-width="0.5" stroke-dasharray="0"/><path fill="none" stroke="#505050" paint-order="fill stroke markers" d=" M 880.6178340911865 490.4033966064453 L 888.6178340911865 490.4033966064453 L 888.6178340911865 498.4033966064453 L 880.6178340911865 498.4033966064453 L 880.6178340911865 490.4033966064453 Z" stroke-miterlimit="10" stroke-width="0.5" stroke-dasharray="0"/><path fill="none" stroke="#505050" paint-order="fill stroke markers" d=" M 813.6178340911865 472.4033966064453 L 888.6178340911865 472.4033966064453 L 888.6178340911865 514.4033966064453 L 813.6178340911865 514.4033966064453 L 813.6178340911865 472.4033966064453 Z" stroke-miterlimit="10" stroke-width="0.5" stroke-dasharray="0"/><path fill="#F0F0F0" stroke="none" paint-order="stroke fill markers" d=""/><text fill="#505050" stroke="none" font-family="monospace" font-size="14px" font-style="normal" font-weight="normal" text-decoration="normal" x="851.1178340911865" y="490.4033966064453" text-anchor="middle" dominant-baseline="text-after-edge">a[i]+acc</text><path fill="none" stroke="#505050" paint-order="fill stroke markers" d=" M 813.6178340911865 490.4033966064453 L 821.6178340911865 490.4033966064453 L 821.6178340911865 498.4033966064453 L 813.6178340911865 498.4033966064453 L 813.6178340911865 490.4033966064453 Z" stroke-miterlimit="10" stroke-width="0.5" stroke-dasharray="0"/><path fill="none" stroke="#505050" paint-order="fill stroke markers" d=" M 813.6178340911865 502.4033966064453 L 821.6178340911865 502.4033966064453 L 821.6178340911865 510.4033966064453 L 813.6178340911865 510.4033966064453 L 813.6178340911865 502.4033966064453 Z" stroke-miterlimit="10" stroke-width="0.5" stroke-dasharray="0"/><path fill="none" stroke="#505050" paint-order="fill stroke markers" d=" M 880.6178340911865 490.4033966064453 L 888.6178340911865 490.4033966064453 L 888.6178340911865 498.4033966064453 L 880.6178340911865 498.4033966064453 L 880.6178340911865 490.4033966064453 Z" stroke-miterlimit="10" stroke-width="0.5" stroke-dasharray="0"/><path fill="#e0e0e0" stroke="none" paint-order="stroke fill markers" d=" M 782.3746490478516 492.2756485044956 L 774.3746490478516 471.2756485044956 L 774.3746490478516 513.2756485044956 Z M 805.6178340911865 493.4033966064453 L 813.6178340911865 472.4033966064453 L 813.6178340911865 514.4033966064453 Z"/><path fill="none" stroke="none"/><path fill="none" stroke="#e0e0e0" paint-order="fill stroke markers" d=" M 782.3746490478516 492.2756485044956 C 789.3558074049306 492.2756485044956 798.6366757341075 493.4033966064453 805.6178340911865 493.4033966064453" stroke-miterlimit="10" stroke-width="2" stroke-dasharray="0"/><path fill="white" stroke="#505050" paint-order="fill stroke markers" d=" M 451.6024475097656 402.2929977476597 L 526.6024475097656 402.2929977476597 L 526.6024475097656 468.2929977476597 L 451.6024475097656 468.2929977476597 L 451.6024475097656 402.2929977476597 Z" stroke-miterlimit="10" stroke-width="0.5" stroke-dasharray="0"/><path fill="#F0F0F0" stroke="none" paint-order="stroke fill markers" d=" M 493.6024475097656 434.2929977476597 L 526.6024475097656 434.2929977476597 L 526.6024475097656 464.2929977476597 L 493.6024475097656 464.2929977476597 L 493.6024475097656 434.2929977476597 Z"/><text fill="#505050" stroke="none" font-family="monospace" font-size="14px" font-style="normal" font-weight="normal" text-decoration="normal" x="489.1024475097656" y="420.2929977476597" text-anchor="middle" dominant-baseline="text-after-edge">Array</text><path fill="none" stroke="#505050" paint-order="fill stroke markers" d=" M 518.6024475097656 420.2929977476597 L 526.6024475097656 420.2929977476597 L 526.6024475097656 428.2929977476597 L 518.6024475097656 428.2929977476597 L 518.6024475097656 420.2929977476597 Z" stroke-miterlimit="10" stroke-width="0.5" stroke-dasharray="0"/><text fill="#505050" stroke="none" font-family="monospace" font-size="14px" font-style="normal" font-weight="normal" text-decoration="normal" x="510.6024475097656" y="434.2929977476597" text-anchor="end" dominant-baseline="text-after-edge">length</text><path fill="none" stroke="#505050" paint-order="fill stroke markers" d=" M 493.6024475097656 434.2929977476597 L 526.6024475097656 434.2929977476597 L 526.6024475097656 464.2929977476597 L 493.6024475097656 464.2929977476597 L 493.6024475097656 434.2929977476597 Z" stroke-miterlimit="10" stroke-width="0.5" stroke-dasharray="0"/><text fill="#505050" stroke="none" font-family="monospace" font-size="14px" font-style="normal" font-weight="normal" text-decoration="normal" x="510.1024475097656" y="452.2929977476597" text-anchor="middle" dominant-baseline="text-after-edge">[i]</text><path fill="none" stroke="#505050" paint-order="fill stroke markers" d=" M 493.6024475097656 452.2929977476597 L 501.6024475097656 452.2929977476597 L 501.6024475097656 460.2929977476597 L 493.6024475097656 460.2929977476597 L 493.6024475097656 452.2929977476597 Z" stroke-miterlimit="10" stroke-width="0.5" stroke-dasharray="0"/><path fill="none" stroke="#505050" paint-order="fill stroke markers" d=" M 518.6024475097656 452.2929977476597 L 526.6024475097656 452.2929977476597 L 526.6024475097656 460.2929977476597 L 518.6024475097656 460.2929977476597 L 518.6024475097656 452.2929977476597 Z" stroke-miterlimit="10" stroke-width="0.5" stroke-dasharray="0"/><path fill="white" stroke="#505050" paint-order="fill stroke markers" d=" M 578.8533782958984 471.2756485044956 L 578.8533782958984 564.8463497161865 Q 578.8533782958984 572.8463497161865 586.8533782958984 572.8463497161865 L 766.3746490478516 572.8463497161865 Q 774.3746490478516 572.8463497161865 774.3746490478516 564.8463497161865 L 774.3746490478516 471.2756485044956 Q 774.3746490478516 463.2756485044956 766.3746490478516 463.2756485044956 L 586.8533782958984 463.2756485044956 Q 578.8533782958984 463.2756485044956 578.8533782958984 471.2756485044956" stroke-miterlimit="10" stroke-width="0.5" stroke-dasharray="0"/><path fill="#F0F0F0" stroke="#505050" paint-order="fill stroke markers" d=" M 699.3746490478516 471.2756485044956 L 774.3746490478516 471.2756485044956 L 774.3746490478516 513.2756485044956 L 699.3746490478516 513.2756485044956 L 699.3746490478516 471.2756485044956 Z" stroke-miterlimit="10" stroke-width="0.5" stroke-dasharray="0"/><text fill="#505050" stroke="none" font-family="monospace" font-size="14px" font-style="normal" font-weight="normal" text-decoration="normal" x="736.8746490478516" y="489.2756485044956" text-anchor="middle" dominant-baseline="text-after-edge">a[i]+acc</text><path fill="none" stroke="#505050" paint-order="fill stroke markers" d=" M 699.3746490478516 489.2756485044956 L 707.3746490478516 489.2756485044956 L 707.3746490478516 497.2756485044956 L 699.3746490478516 497.2756485044956 L 699.3746490478516 489.2756485044956 Z" stroke-miterlimit="10" stroke-width="0.5" stroke-dasharray="0"/><path fill="none" stroke="#505050" paint-order="fill stroke markers" d=" M 699.3746490478516 501.2756485044956 L 707.3746490478516 501.2756485044956 L 707.3746490478516 509.2756485044956 L 699.3746490478516 509.2756485044956 L 699.3746490478516 501.2756485044956 Z" stroke-miterlimit="10" stroke-width="0.5" stroke-dasharray="0"/><path fill="none" stroke="#505050" paint-order="fill stroke markers" d=" M 766.3746490478516 489.2756485044956 L 774.3746490478516 489.2756485044956 L 774.3746490478516 497.2756485044956 L 766.3746490478516 497.2756485044956 L 766.3746490478516 489.2756485044956 Z" stroke-miterlimit="10" stroke-width="0.5" stroke-dasharray="0"/><path fill="white" stroke="#505050" paint-order="fill stroke markers" d=" M 588.0468597412109 472.829345703125 L 604.0468597412109 472.829345703125 L 604.0468597412109 488.829345703125 L 588.0468597412109 488.829345703125 L 596.0468597412109 480.829345703125 L 588.0468597412109 472.829345703125" stroke-miterlimit="10" stroke-width="0.5" stroke-dasharray="0"/><path fill="none" stroke="#505050" paint-order="fill stroke markers" d=" M 596.0468597412109 476.829345703125 L 604.0468597412109 476.829345703125 L 604.0468597412109 484.829345703125 L 596.0468597412109 484.829345703125 L 596.0468597412109 476.829345703125 Z" stroke-miterlimit="10" stroke-width="0.5" stroke-dasharray="0"/><path fill="white" stroke="#505050" paint-order="fill stroke markers" d=" M 704.4875640869141 522.2616119384766 L 712.4875640869141 522.2616119384766 L 720.4875640869141 530.2616119384766 L 712.4875640869141 538.2616119384766 L 704.4875640869141 538.2616119384766 L 704.4875640869141 522.2616119384766" stroke-miterlimit="10" stroke-width="0.5" stroke-dasharray="0"/><path fill="none" stroke="#505050" paint-order="fill stroke markers" d=" M 704.4875640869141 526.2616119384766 L 712.4875640869141 526.2616119384766 L 712.4875640869141 534.2616119384766 L 704.4875640869141 534.2616119384766 L 704.4875640869141 526.2616119384766 Z" stroke-miterlimit="10" stroke-width="0.5" stroke-dasharray="0"/><path fill="white" stroke="#505050" paint-order="fill stroke markers" d=" M 668.8540191650391 508.1462593078613 L 692.8540191650391 508.1462593078613 L 692.8540191650391 550.1462593078613 L 668.8540191650391 550.1462593078613 L 668.8540191650391 508.1462593078613 Z" stroke-miterlimit="10" stroke-width="0.5" stroke-dasharray="0"/><path fill="#F0F0F0" stroke="none" paint-order="stroke fill markers" d=""/><text fill="#505050" stroke="none" font-family="monospace" font-size="14px" font-style="normal" font-weight="normal" text-decoration="normal" x="680.8540191650391" y="526.1462593078613" text-anchor="middle" dominant-baseline="text-after-edge">+</text><path fill="none" stroke="#505050" paint-order="fill stroke markers" d=" M 668.8540191650391 526.1462593078613 L 676.8540191650391 526.1462593078613 L 676.8540191650391 534.1462593078613 L 668.8540191650391 534.1462593078613 L 668.8540191650391 526.1462593078613 Z" stroke-miterlimit="10" stroke-width="0.5" stroke-dasharray="0"/><path fill="none" stroke="#505050" paint-order="fill stroke markers" d=" M 668.8540191650391 538.1462593078613 L 676.8540191650391 538.1462593078613 L 676.8540191650391 546.1462593078613 L 668.8540191650391 546.1462593078613 L 668.8540191650391 538.1462593078613 Z" stroke-miterlimit="10" stroke-width="0.5" stroke-dasharray="0"/><path fill="none" stroke="#505050" paint-order="fill stroke markers" d=" M 684.8540191650391 526.1462593078613 L 692.8540191650391 526.1462593078613 L 692.8540191650391 534.1462593078613 L 684.8540191650391 534.1462593078613 L 684.8540191650391 526.1462593078613 Z" stroke-miterlimit="10" stroke-width="0.5" stroke-dasharray="0"/><path fill="white" stroke="#505050" paint-order="fill stroke markers" d=" M 588.7921600341797 497.2919921875 L 604.7921600341797 497.2919921875 L 604.7921600341797 513.2919921875 L 588.7921600341797 513.2919921875 L 596.7921600341797 505.2919921875 L 588.7921600341797 497.2919921875" stroke-miterlimit="10" stroke-width="0.5" stroke-dasharray="0"/><path fill="none" stroke="#505050" paint-order="fill stroke markers" d=" M 596.7921600341797 501.2919921875 L 604.7921600341797 501.2919921875 L 604.7921600341797 509.2919921875 L 596.7921600341797 509.2919921875 L 596.7921600341797 501.2919921875 Z" stroke-miterlimit="10" stroke-width="0.5" stroke-dasharray="0"/><path fill="white" stroke="#505050" paint-order="fill stroke markers" d=" M 621.5142698287964 526.8463497161865 L 654.5142698287964 526.8463497161865 L 654.5142698287964 556.8463497161865 L 621.5142698287964 556.8463497161865 L 621.5142698287964 526.8463497161865 Z" stroke-miterlimit="10" stroke-width="0.5" stroke-dasharray="0"/><path fill="#F0F0F0" stroke="none" paint-order="stroke fill markers" d=""/><text fill="#505050" stroke="none" font-family="monospace" font-size="14px" font-style="normal" font-weight="normal" text-decoration="normal" x="638.0142698287964" y="544.8463497161865" text-anchor="middle" dominant-baseline="text-after-edge">[i]</text><path fill="none" stroke="#505050" paint-order="fill stroke markers" d=" M 621.5142698287964 544.8463497161865 L 629.5142698287964 544.8463497161865 L 629.5142698287964 552.8463497161865 L 621.5142698287964 552.8463497161865 L 621.5142698287964 544.8463497161865 Z" stroke-miterlimit="10" stroke-width="0.5" stroke-dasharray="0"/><path fill="none" stroke="#505050" paint-order="fill stroke markers" d=" M 646.5142698287964 544.8463497161865 L 654.5142698287964 544.8463497161865 L 654.5142698287964 552.8463497161865 L 646.5142698287964 552.8463497161865 L 646.5142698287964 544.8463497161865 Z" stroke-miterlimit="10" stroke-width="0.5" stroke-dasharray="0"/><path fill="#e0e0e0" stroke="none" paint-order="stroke fill markers" d=" M 534.6024475097656 449.2929977476597 L 526.6024475097656 434.2929977476597 L 526.6024475097656 464.2929977476597 Z M 613.5142698287964 541.8463497161865 L 621.5142698287964 526.8463497161865 L 621.5142698287964 556.8463497161865 Z"/><path fill="none" stroke="none"/><path fill="none" stroke="#e0e0e0" paint-order="fill stroke markers" d=" M 534.6024475097656 449.2929977476597 C 571.090635730186 449.2929977476597 577.026081608376 541.8463497161865 613.5142698287964 541.8463497161865" stroke-miterlimit="10" stroke-width="2" stroke-dasharray="0"/><path fill="none" stroke="#505050" paint-order="fill stroke markers" d=" M 526.6024475097656 424.2929977476597 C 638.3802523100709 424.2929977476597 787.4173093354369 424.4023323059082 899.1951141357422 424.4023323059082" stroke-miterlimit="10" stroke-dasharray="0"/><path fill="none" stroke="#505050" paint-order="fill stroke markers" d=" M 498.9033012390137 161.143798828125 C 507.92170963178256 161.143798828125 515.3286603938523 145.1344223022461 524.3470687866211 145.1344223022461" stroke-miterlimit="10" stroke-dasharray="0"/><path fill="none" stroke="#505050" paint-order="fill stroke markers" d=" M 412.2001953125 155.24066734313965 C 446.49166155389264 155.24066734313965 490.05560254522845 133.1344223022461 524.3470687866211 133.1344223022461" stroke-miterlimit="10" stroke-dasharray="0"/><path fill="none" stroke="#505050" paint-order="fill stroke markers" d=" M 749.4633941650391 209.75969696044922 C 753.691687819335 209.75969696044922 759.3293998271494 209.77873992919922 763.5576934814453 209.77873992919922" stroke-miterlimit="10" stroke-dasharray="0"/><path fill="none" stroke="#505050" paint-order="fill stroke markers" d=" M 426.7939453125 200.9031581878662 C 516.612980822077 200.9031581878662 635.644358655462 221.75969696044922 725.4633941650391 221.75969696044922" stroke-miterlimit="10" stroke-dasharray="0"/><path fill="none" stroke="#505050" paint-order="fill stroke markers" d=" M 549.3470687866211 133.1344223022461 C 606.9661224955443 133.1344223022461 667.8443404561159 209.75969696044922 725.4633941650391 209.75969696044922" stroke-miterlimit="10" stroke-dasharray="0"/><path fill="none" stroke="#505050" paint-order="fill stroke markers" d=" M 552.6051902770996 192.39221954345703 C 574.7873476614906 192.39221954345703 571.4960805306481 253.8755989074707 593.6782379150391 253.8755989074707" stroke-miterlimit="10" stroke-dasharray="0"/><path fill="none" stroke="#505050" paint-order="fill stroke markers" d=" M 412.2001953125 155.24066734313965 C 448.57146917568076 155.24066734313965 491.23391641391885 192.39221954345703 527.6051902770996 192.39221954345703" stroke-miterlimit="10" stroke-dasharray="0"/><path fill="none" stroke="#505050" paint-order="fill stroke markers" d=" M 708.6782379150391 253.8755989074707 C 716.5379572696419 253.8755989074707 717.6036748104362 233.75969696044922 725.4633941650391 233.75969696044922" stroke-miterlimit="10" stroke-dasharray="0"/><path fill="none" stroke="#505050" paint-order="fill stroke markers" d=" M 412.2001953125 155.24066734313965 C 450.8582167784132 155.24066734313965 455.28252409301626 254.85709762573242 493.94054555892944 254.85709762573242" stroke-miterlimit="10" stroke-dasharray="0"/><path fill="none" stroke="#505050" paint-order="fill stroke markers" d=" M 426.7939453125 200.9031581878662 C 455.02996706986653 200.9031581878662 465.7045238015629 266.8570976257324 493.94054555892944 266.8570976257324" stroke-miterlimit="10" stroke-dasharray="0"/><path fill="none" stroke="#505050" paint-order="fill stroke markers" d=" M 568.9405455589294 254.85709762573242 C 577.3267921499577 254.85709762573242 585.2919913240108 267.8755989074707 593.6782379150391 267.8755989074707" stroke-miterlimit="10" stroke-dasharray="0"/><path fill="none" stroke="#505050" paint-order="fill stroke markers" d=" M 460.4988570213318 292.3646240234375 C 500.4529406382985 292.3646240234375 553.7241542980723 291.8755989074707 593.6782379150391 291.8755989074707" stroke-miterlimit="10" stroke-dasharray="0"/><path fill="none" stroke="#505050" paint-order="fill stroke markers" d=" M 443.1669273376465 32.65909481048584 C 446.5235933613148 32.65909481048584 450.99821907765005 32.514915466308594 454.35488510131836 32.514915466308594" stroke-miterlimit="10" stroke-dasharray="0"/><path fill="none" stroke="#505050" paint-order="fill stroke markers" d=" M 405.6419486999512 48.659095764160156 C 409.87317250993283 48.659095764160156 414.9357035276648 44.65909481048584 419.1669273376465 44.65909481048584" stroke-miterlimit="10" stroke-dasharray="0"/><path fill="none" stroke="#505050" paint-order="fill stroke markers" d=" M 395.27944564819336 21.540343284606934 C 403.1839669826093 21.540343284606934 411.2624060032305 32.65909481048584 419.1669273376465 32.65909481048584" stroke-miterlimit="10" stroke-dasharray="0"/><path fill="none" stroke="#505050" paint-order="fill stroke markers" d=" M 1044.1513214111328 196.04277420043945 C 1048.668154639643 196.04277420043945 1054.6877718740288 195.75101852416992 1059.204605102539 195.75101852416992" stroke-miterlimit="10" stroke-dasharray="0"/><path fill="none" stroke="#505050" paint-order="fill stroke markers" d=" M 899.6450347900391 192.13739395141602 C 909.99926693359 192.13739395141602 918.7970892675819 210.04277420043945 929.1513214111328 210.04277420043945" stroke-miterlimit="10" stroke-dasharray="0"/><path fill="none" stroke="#505050" paint-order="fill stroke markers" d=" M 886.4325714111328 156.05612564086914 C 903.9866059847861 156.05612564086914 911.5972868374795 196.04277420043945 929.1513214111328 196.04277420043945" stroke-miterlimit="10" stroke-dasharray="0"/><path fill="none" stroke="#505050" paint-order="fill stroke markers" d=" M 898.3852889537811 237.7655143737793 C 907.6824218064863 237.7655143737793 919.8541885584276 234.04277420043945 929.1513214111328 234.04277420043945" stroke-miterlimit="10" stroke-dasharray="0"/><path fill="none" stroke="#505050" paint-order="fill stroke markers" d=" M 1014.1951141357422 424.4023323059082 C 1018.3818256539975 424.4023323059082 1023.9640910940494 424.4238471984863 1028.1508026123047 424.4238471984863" stroke-miterlimit="10" stroke-dasharray="0"/><path fill="none" stroke="#505050" paint-order="fill stroke markers" d=" M 846.8415985107422 443.41533279418945 C 862.6194903058248 443.41533279418945 883.4172223406596 438.4023323059082 899.1951141357422 438.4023323059082" stroke-miterlimit="10" stroke-dasharray="0"/><path fill="none" stroke="#505050" paint-order="fill stroke markers" d=" M 888.6178340911865 493.4033966064453 C 898.4445851148784 493.4033966064453 889.3683631120504 462.4023323059082 899.1951141357422 462.4023323059082" stroke-miterlimit="10" stroke-dasharray="0"/><path fill="none" stroke="#505050" paint-order="fill stroke markers" d=" M 692.8540191650391 530.1462593078613 C 696.3442542045573 530.1462593078613 700.9973290473959 530.2616119384766 704.4875640869141 530.2616119384766" stroke-miterlimit="10" stroke-dasharray="0"/><path fill="none" stroke="#505050" paint-order="fill stroke markers" d=" M 604.7921600341797 505.2919921875 C 625.4064530136955 505.2919921875 648.2397261855233 530.1462593078613 668.8540191650391 530.1462593078613" stroke-miterlimit="10" stroke-dasharray="0"/><path fill="none" stroke="#505050" paint-order="fill stroke markers" d=" M 604.0468597412109 480.829345703125 C 625.1140876677148 480.829345703125 600.4470419022925 548.8463497161865 621.5142698287964 548.8463497161865" stroke-miterlimit="10" stroke-dasharray="0"/><path fill="none" stroke="#505050" paint-order="fill stroke markers" d=" M 654.5142698287964 548.8463497161865 C 659.2626133321183 548.8463497161865 664.1056756617171 542.1462593078613 668.8540191650391 542.1462593078613" stroke-miterlimit="10" stroke-dasharray="0"/></g></g></svg>