<svg version="1.1" xmlns="http://www.w3.org/2000/svg" xmlns:xlink="http://www.w3.org/1999/xlink" width="783.0802192687988" height="190.73124313354492"><defs/><g transform="translate(-228.93749618530273,-176.54376983642578)"><g><path fill="white" stroke="#505050" paint-order="fill stroke markers" d=" M 404.58135986328125 187.01877212524414 L 404.58135986328125 358.2750129699707 Q 404.58135986328125 366.2750129699707 412.58135986328125 366.2750129699707 L 775.1103057861328 366.2750129699707 Q 783.1103057861328 366.2750129699707 783.1103057861328 358.2750129699707 L 783.1103057861328 187.01877212524414 Q 783.1103057861328 179.01877212524414 775.1103057861328 179.01877212524414 L 412.58135986328125 179.01877212524414 Q 404.58135986328125 179.01877212524414 404.58135986328125 187.01877212524414" stroke-miterlimit="10" stroke-width="0.5" stroke-dasharray=""/><path fill="#F0F0F0" stroke="#505050" paint-order="fill stroke markers" d=" M 699.1103057861328 187.01877212524414 L 783.1103057861328 187.01877212524414 L 783.1103057861328 233.01877212524414 L 699.1103057861328 233.01877212524414 L 699.1103057861328 187.01877212524414 Z" stroke-miterlimit="10" stroke-width="0.5" stroke-dasharray=""/><text fill="#505050" stroke="none" font-family="monospace" font-size="14px" font-style="normal" font-weight="normal" text-decoration="normal" x="741.1103057861328" y="205.01877212524414" text-anchor="middle" dominant-baseline="text-after-edge">factorial</text><path fill="none" stroke="#505050" paint-order="fill stroke markers" d=" M 699.1103057861328 205.01877212524414 L 707.1103057861328 205.01877212524414 L 707.1103057861328 213.01877212524414 L 699.1103057861328 213.01877212524414 L 699.1103057861328 205.01877212524414 Z" stroke-miterlimit="10" stroke-width="0.5" stroke-dasharray=""/><text fill="#505050" stroke="none" font-family="monospace" font-size="14px" font-style="normal" font-weight="normal" text-decoration="normal" x="715.1103057861328" y="219.01877212524414" text-anchor="start" dominant-baseline="text-after-edge">n</text><path fill="none" stroke="#505050" paint-order="fill stroke markers" d=" M 699.1103057861328 219.01877212524414 L 707.1103057861328 219.01877212524414 L 707.1103057861328 227.01877212524414 L 699.1103057861328 227.01877212524414 L 699.1103057861328 219.01877212524414 Z" stroke-miterlimit="10" stroke-width="0.5" stroke-dasharray=""/><text fill="#505050" stroke="none" font-family="monospace" font-size="14px" font-style="normal" font-weight="normal" text-decoration="normal" x="715.1103057861328" y="233.01877212524414" text-anchor="start" dominant-baseline="text-after-edge">acc</text><path fill="none" stroke="#505050" paint-order="fill stroke markers" d=" M 775.1103057861328 205.01877212524414 L 783.1103057861328 205.01877212524414 L 783.1103057861328 213.01877212524414 L 775.1103057861328 213.01877212524414 L 775.1103057861328 205.01877212524414 Z" stroke-miterlimit="10" stroke-width="0.5" stroke-dasharray=""/><path fill="white" stroke="#505050" paint-order="fill stroke markers" d=" M 659.9876251220703 213.80626678466797 L 683.9876251220703 213.80626678466797 L 683.9876251220703 267.80626678466797 L 659.9876251220703 267.80626678466797 L 659.9876251220703 213.80626678466797 Z" stroke-miterlimit="10" stroke-width="0.5" stroke-dasharray=""/><path fill="#F0F0F0" stroke="none" paint-order="stroke fill markers" d=""/><text fill="#505050" stroke="none" font-family="monospace" font-size="14px" font-style="normal" font-weight="normal" text-decoration="normal" x="671.9876251220703" y="231.80626678466797" text-anchor="middle" dominant-baseline="text-after-edge">?</text><path fill="none" stroke="#505050" paint-order="fill stroke markers" d=" M 659.9876251220703 231.80626678466797 L 667.9876251220703 231.80626678466797 L 667.9876251220703 239.80626678466797 L 659.9876251220703 239.80626678466797 L 659.9876251220703 231.80626678466797 Z" stroke-miterlimit="10" stroke-width="0.5" stroke-dasharray=""/><path fill="none" stroke="#505050" paint-order="fill stroke markers" d=" M 659.9876251220703 243.80626678466797 L 667.9876251220703 243.80626678466797 L 667.9876251220703 251.80626678466797 L 659.9876251220703 251.80626678466797 L 659.9876251220703 243.80626678466797 Z" stroke-miterlimit="10" stroke-width="0.5" stroke-dasharray=""/><path fill="none" stroke="#505050" paint-order="fill stroke markers" d=" M 659.9876251220703 255.80626678466797 L 667.9876251220703 255.80626678466797 L 667.9876251220703 263.80626678466797 L 659.9876251220703 263.80626678466797 L 659.9876251220703 255.80626678466797 Z" stroke-miterlimit="10" stroke-width="0.5" stroke-dasharray=""/><path fill="none" stroke="#505050" paint-order="fill stroke markers" d=" M 675.9876251220703 231.80626678466797 L 683.9876251220703 231.80626678466797 L 683.9876251220703 239.80626678466797 L 675.9876251220703 239.80626678466797 L 675.9876251220703 231.80626678466797 Z" stroke-miterlimit="10" stroke-width="0.5" stroke-dasharray=""/><path fill="white" stroke="#505050" paint-order="fill stroke markers" d=" M 694.7864532470703 227.59417724609375 L 702.7864532470703 227.59417724609375 L 710.7864532470703 235.59417724609375 L 702.7864532470703 243.59417724609375 L 694.7864532470703 243.59417724609375 L 694.7864532470703 227.59417724609375" stroke-miterlimit="10" stroke-width="0.5" stroke-dasharray=""/><path fill="none" stroke="#505050" paint-order="fill stroke markers" d=" M 694.7864532470703 231.59417724609375 L 702.7864532470703 231.59417724609375 L 702.7864532470703 239.59417724609375 L 694.7864532470703 239.59417724609375 L 694.7864532470703 231.59417724609375 Z" stroke-miterlimit="10" stroke-width="0.5" stroke-dasharray=""/><path fill="white" stroke="#505050" paint-order="fill stroke markers" d=" M 527.5126266479492 303.6406440734863 L 551.5126266479492 303.6406440734863 L 551.5126266479492 345.6406440734863 L 527.5126266479492 345.6406440734863 L 527.5126266479492 303.6406440734863 Z" stroke-miterlimit="10" stroke-width="0.5" stroke-dasharray=""/><path fill="#F0F0F0" stroke="none" paint-order="stroke fill markers" d=""/><text fill="#505050" stroke="none" font-family="monospace" font-size="14px" font-style="normal" font-weight="normal" text-decoration="normal" x="539.5126266479492" y="321.6406440734863" text-anchor="middle" dominant-baseline="text-after-edge">*</text><path fill="none" stroke="#505050" paint-order="fill stroke markers" d=" M 527.5126266479492 321.6406440734863 L 535.5126266479492 321.6406440734863 L 535.5126266479492 329.6406440734863 L 527.5126266479492 329.6406440734863 L 527.5126266479492 321.6406440734863 Z" stroke-miterlimit="10" stroke-width="0.5" stroke-dasharray=""/><path fill="none" stroke="#505050" paint-order="fill stroke markers" d=" M 527.5126266479492 333.6406440734863 L 535.5126266479492 333.6406440734863 L 535.5126266479492 341.6406440734863 L 527.5126266479492 341.6406440734863 L 527.5126266479492 333.6406440734863 Z" stroke-miterlimit="10" stroke-width="0.5" stroke-dasharray=""/><path fill="none" stroke="#505050" paint-order="fill stroke markers" d=" M 543.5126266479492 321.6406440734863 L 551.5126266479492 321.6406440734863 L 551.5126266479492 329.6406440734863 L 543.5126266479492 329.6406440734863 L 543.5126266479492 321.6406440734863 Z" stroke-miterlimit="10" stroke-width="0.5" stroke-dasharray=""/><path fill="white" stroke="#505050" paint-order="fill stroke markers" d=" M 419.30328369140625 276.55626487731934 L 468.30328369140625 276.55626487731934 L 468.30328369140625 294.55626487731934 L 419.30328369140625 294.55626487731934 L 427.30328369140625 285.55626487731934 L 419.30328369140625 276.55626487731934" stroke-miterlimit="10" stroke-width="0.5" stroke-dasharray=""/><path fill="none" stroke="#505050" paint-order="fill stroke markers" d=" M 460.30328369140625 280.55626487731934 L 468.30328369140625 280.55626487731934 L 468.30328369140625 288.55626487731934 L 460.30328369140625 288.55626487731934 L 460.30328369140625 280.55626487731934 Z" stroke-miterlimit="10" stroke-width="0.5" stroke-dasharray=""/><text fill="#505050" stroke="none" font-family="monospace" font-size="14px" font-style="normal" font-weight="normal" text-decoration="normal" x="452.30328369140625" y="294.55626487731934" text-anchor="end" dominant-baseline="text-after-edge">acc</text><path fill="white" stroke="#505050" paint-order="fill stroke markers" d=" M 421.70953369140625 230.89377403259277 L 453.70953369140625 230.89377403259277 L 453.70953369140625 248.89377403259277 L 421.70953369140625 248.89377403259277 L 429.70953369140625 239.89377403259277 L 421.70953369140625 230.89377403259277" stroke-miterlimit="10" stroke-width="0.5" stroke-dasharray=""/><path fill="none" stroke="#505050" paint-order="fill stroke markers" d=" M 445.70953369140625 234.89377403259277 L 453.70953369140625 234.89377403259277 L 453.70953369140625 242.89377403259277 L 445.70953369140625 242.89377403259277 L 445.70953369140625 234.89377403259277 Z" stroke-miterlimit="10" stroke-width="0.5" stroke-dasharray=""/><text fill="#505050" stroke="none" font-family="monospace" font-size="14px" font-style="normal" font-weight="normal" text-decoration="normal" x="437.70953369140625" y="248.89377403259277" text-anchor="end" dominant-baseline="text-after-edge">n</text><path fill="white" stroke="#505050" paint-order="fill stroke markers" d=" M 565.8564071655273 194.78752899169922 L 590.8564071655273 194.78752899169922 L 590.8564071655273 236.78752899169922 L 565.8564071655273 236.78752899169922 L 565.8564071655273 194.78752899169922 Z" stroke-miterlimit="10" stroke-width="0.5" stroke-dasharray=""/><path fill="#F0F0F0" stroke="none" paint-order="stroke fill markers" d=""/><text fill="#505050" stroke="none" font-family="monospace" font-size="14px" font-style="normal" font-weight="normal" text-decoration="normal" x="578.3564071655273" y="212.78752899169922" text-anchor="middle" dominant-baseline="text-after-edge">&lt;=</text><path fill="none" stroke="#505050" paint-order="fill stroke markers" d=" M 565.8564071655273 212.78752899169922 L 573.8564071655273 212.78752899169922 L 573.8564071655273 220.78752899169922 L 565.8564071655273 220.78752899169922 L 565.8564071655273 212.78752899169922 Z" stroke-miterlimit="10" stroke-width="0.5" stroke-dasharray=""/><path fill="none" stroke="#505050" paint-order="fill stroke markers" d=" M 565.8564071655273 224.78752899169922 L 573.8564071655273 224.78752899169922 L 573.8564071655273 232.78752899169922 L 565.8564071655273 232.78752899169922 L 565.8564071655273 224.78752899169922 Z" stroke-miterlimit="10" stroke-width="0.5" stroke-dasharray=""/><path fill="none" stroke="#505050" paint-order="fill stroke markers" d=" M 582.8564071655273 212.78752899169922 L 590.8564071655273 212.78752899169922 L 590.8564071655273 220.78752899169922 L 582.8564071655273 220.78752899169922 L 582.8564071655273 212.78752899169922 Z" stroke-miterlimit="10" stroke-width="0.5" stroke-dasharray=""/><path fill="white" stroke="#505050" paint-order="fill stroke markers" d=" M 508.4126396179199 236.79690551757812 L 540.4126396179199 236.79690551757812 L 540.4126396179199 254.79690551757812 L 508.4126396179199 254.79690551757812 L 508.4126396179199 236.79690551757812 Z" stroke-miterlimit="10" stroke-width="0.5" stroke-dasharray=""/><path fill="#F0F0F0" stroke="none" paint-order="stroke fill markers" d=""/><path fill="none" stroke="#505050" paint-order="fill stroke markers" d=" M 532.4126396179199 240.79690551757812 L 540.4126396179199 240.79690551757812 L 540.4126396179199 248.79690551757812 L 532.4126396179199 248.79690551757812 L 532.4126396179199 240.79690551757812 Z" stroke-miterlimit="10" stroke-width="0.5" stroke-dasharray=""/><text fill="#505050" stroke="none" font-family="monospace" font-size="14px" font-style="normal" font-weight="normal" text-decoration="normal" x="524.4126396179199" y="254.79690551757812" text-anchor="end" dominant-baseline="text-after-edge">1</text><path fill="white" stroke="#505050" paint-order="fill stroke markers" d=" M 620.3126983642578 304.2750129699707 L 704.3126983642578 304.2750129699707 L 704.3126983642578 350.2750129699707 L 620.3126983642578 350.2750129699707 L 620.3126983642578 304.2750129699707 Z" stroke-miterlimit="10" stroke-width="0.5" stroke-dasharray=""/><path fill="#F0F0F0" stroke="none" paint-order="stroke fill markers" d=""/><text fill="#505050" stroke="none" font-family="monospace" font-size="14px" font-style="normal" font-weight="normal" text-decoration="normal" x="662.3126983642578" y="322.2750129699707" text-anchor="middle" dominant-baseline="text-after-edge">factorial</text><path fill="none" stroke="#505050" paint-order="fill stroke markers" d=" M 620.3126983642578 322.2750129699707 L 628.3126983642578 322.2750129699707 L 628.3126983642578 330.2750129699707 L 620.3126983642578 330.2750129699707 L 620.3126983642578 322.2750129699707 Z" stroke-miterlimit="10" stroke-width="0.5" stroke-dasharray=""/><text fill="#505050" stroke="none" font-family="monospace" font-size="14px" font-style="normal" font-weight="normal" text-decoration="normal" x="636.3126983642578" y="336.2750129699707" text-anchor="start" dominant-baseline="text-after-edge">n</text><path fill="none" stroke="#505050" paint-order="fill stroke markers" d=" M 620.3126983642578 336.2750129699707 L 628.3126983642578 336.2750129699707 L 628.3126983642578 344.2750129699707 L 620.3126983642578 344.2750129699707 L 620.3126983642578 336.2750129699707 Z" stroke-miterlimit="10" stroke-width="0.5" stroke-dasharray=""/><text fill="#505050" stroke="none" font-family="monospace" font-size="14px" font-style="normal" font-weight="normal" text-decoration="normal" x="636.3126983642578" y="350.2750129699707" text-anchor="start" dominant-baseline="text-after-edge">acc</text><path fill="none" stroke="#505050" paint-order="fill stroke markers" d=" M 696.3126983642578 322.2750129699707 L 704.3126983642578 322.2750129699707 L 704.3126983642578 330.2750129699707 L 696.3126983642578 330.2750129699707 L 696.3126983642578 322.2750129699707 Z" stroke-miterlimit="10" stroke-width="0.5" stroke-dasharray=""/><path fill="#e0e0e0" stroke="none" paint-order="stroke fill markers" d=" M 791.1103057861328 210.01877212524414 L 783.1103057861328 187.01877212524414 L 783.1103057861328 233.01877212524414 Z M 612.3126983642578 327.2750129699707 L 620.3126983642578 304.2750129699707 L 620.3126983642578 350.2750129699707 Z"/><path fill="none" stroke="none"/><path fill="none" stroke="#e0e0e0" paint-order="fill stroke markers" d=" M 791.1103057861328 210.01877212524414 C 855.2553362975771 210.01877212524414 548.1676678528136 327.2750129699707 612.3126983642578 327.2750129699707" stroke-miterlimit="10" stroke-width="2" stroke-dasharray=""/><path fill="white" stroke="#505050" paint-order="fill stroke markers" d=" M 561.3552513122559 277.94803619384766 L 586.3552513122559 277.94803619384766 L 586.3552513122559 307.94803619384766 L 561.3552513122559 307.94803619384766 L 561.3552513122559 277.94803619384766 Z" stroke-miterlimit="10" stroke-width="0.5" stroke-dasharray=""/><path fill="#F0F0F0" stroke="none" paint-order="stroke fill markers" d=""/><text fill="#505050" stroke="none" font-family="monospace" font-size="14px" font-style="normal" font-weight="normal" text-decoration="normal" x="573.8552513122559" y="295.94803619384766" text-anchor="middle" dominant-baseline="text-after-edge">-1</text><path fill="none" stroke="#505050" paint-order="fill stroke markers" d=" M 561.3552513122559 295.94803619384766 L 569.3552513122559 295.94803619384766 L 569.3552513122559 303.94803619384766 L 561.3552513122559 303.94803619384766 L 561.3552513122559 295.94803619384766 Z" stroke-miterlimit="10" stroke-width="0.5" stroke-dasharray=""/><path fill="none" stroke="#505050" paint-order="fill stroke markers" d=" M 578.3552513122559 295.94803619384766 L 586.3552513122559 295.94803619384766 L 586.3552513122559 303.94803619384766 L 578.3552513122559 303.94803619384766 L 578.3552513122559 295.94803619384766 Z" stroke-miterlimit="10" stroke-width="0.5" stroke-dasharray=""/><path fill="white" stroke="#505050" paint-order="fill stroke markers" d=" M 229.93749618530273 185.54376983642578 L 229.93749618530273 236.64531707763672 Q 229.93749618530273 244.64531707763672 237.93749618530273 244.64531707763672 L 330.4032859802246 244.64531707763672 Q 338.4032859802246 244.64531707763672 338.4032859802246 236.64531707763672 L 338.4032859802246 185.54376983642578 Q 338.4032859802246 177.54376983642578 330.4032859802246 177.54376983642578 L 237.93749618530273 177.54376983642578 Q 229.93749618530273 177.54376983642578 229.93749618530273 185.54376983642578" stroke-miterlimit="10" stroke-width="0.5" stroke-dasharray=""/><path fill="#F0F0F0" stroke="#505050" paint-order="fill stroke markers" d=" M 313.4032859802246 185.54376983642578 L 338.4032859802246 185.54376983642578 L 338.4032859802246 215.54376983642578 L 313.4032859802246 215.54376983642578 L 313.4032859802246 185.54376983642578 Z" stroke-miterlimit="10" stroke-width="0.5" stroke-dasharray=""/><text fill="#505050" stroke="none" font-family="monospace" font-size="14px" font-style="normal" font-weight="normal" text-decoration="normal" x="325.9032859802246" y="203.54376983642578" text-anchor="middle" dominant-baseline="text-after-edge">-1</text><path fill="none" stroke="#505050" paint-order="fill stroke markers" d=" M 313.4032859802246 203.54376983642578 L 321.4032859802246 203.54376983642578 L 321.4032859802246 211.54376983642578 L 313.4032859802246 211.54376983642578 L 313.4032859802246 203.54376983642578 Z" stroke-miterlimit="10" stroke-width="0.5" stroke-dasharray=""/><path fill="none" stroke="#505050" paint-order="fill stroke markers" d=" M 330.4032859802246 203.54376983642578 L 338.4032859802246 203.54376983642578 L 338.4032859802246 211.54376983642578 L 330.4032859802246 211.54376983642578 L 330.4032859802246 203.54376983642578 Z" stroke-miterlimit="10" stroke-width="0.5" stroke-dasharray=""/><path fill="white" stroke="#505050" paint-order="fill stroke markers" d=" M 276.87343978881836 184.9207534790039 L 300.87343978881836 184.9207534790039 L 300.87343978881836 226.9207534790039 L 276.87343978881836 226.9207534790039 L 276.87343978881836 184.9207534790039 Z" stroke-miterlimit="10" stroke-width="0.5" stroke-dasharray=""/><path fill="#F0F0F0" stroke="none" paint-order="stroke fill markers" d=""/><text fill="#505050" stroke="none" font-family="monospace" font-size="14px" font-style="normal" font-weight="normal" text-decoration="normal" x="288.87343978881836" y="202.9207534790039" text-anchor="middle" dominant-baseline="text-after-edge">-</text><path fill="none" stroke="#505050" paint-order="fill stroke markers" d=" M 276.87343978881836 202.9207534790039 L 284.87343978881836 202.9207534790039 L 284.87343978881836 210.9207534790039 L 276.87343978881836 210.9207534790039 L 276.87343978881836 202.9207534790039 Z" stroke-miterlimit="10" stroke-width="0.5" stroke-dasharray=""/><path fill="none" stroke="#505050" paint-order="fill stroke markers" d=" M 276.87343978881836 214.9207534790039 L 284.87343978881836 214.9207534790039 L 284.87343978881836 222.9207534790039 L 276.87343978881836 222.9207534790039 L 276.87343978881836 214.9207534790039 Z" stroke-miterlimit="10" stroke-width="0.5" stroke-dasharray=""/><path fill="none" stroke="#505050" paint-order="fill stroke markers" d=" M 292.87343978881836 202.9207534790039 L 300.87343978881836 202.9207534790039 L 300.87343978881836 210.9207534790039 L 292.87343978881836 210.9207534790039 L 292.87343978881836 202.9207534790039 Z" stroke-miterlimit="10" stroke-width="0.5" stroke-dasharray=""/><path fill="white" stroke="#505050" paint-order="fill stroke markers" d=" M 234.2410545349121 210.64531707763672 L 266.2410545349121 210.64531707763672 L 266.2410545349121 228.64531707763672 L 234.2410545349121 228.64531707763672 L 234.2410545349121 210.64531707763672 Z" stroke-miterlimit="10" stroke-width="0.5" stroke-dasharray=""/><path fill="#F0F0F0" stroke="none" paint-order="stroke fill markers" d=""/><path fill="none" stroke="#505050" paint-order="fill stroke markers" d=" M 258.2410545349121 214.64531707763672 L 266.2410545349121 214.64531707763672 L 266.2410545349121 222.64531707763672 L 258.2410545349121 222.64531707763672 L 258.2410545349121 214.64531707763672 Z" stroke-miterlimit="10" stroke-width="0.5" stroke-dasharray=""/><text fill="#505050" stroke="none" font-family="monospace" font-size="14px" font-style="normal" font-weight="normal" text-decoration="normal" x="250.2410545349121" y="228.64531707763672" text-anchor="end" dominant-baseline="text-after-edge">1</text><path fill="white" stroke="#505050" paint-order="fill stroke markers" d=" M 829.3871612548828 186.20012283325195 L 829.3871612548828 256.0523872375488 Q 829.3871612548828 264.0523872375488 837.3871612548828 264.0523872375488 L 1003.0177154541016 264.0523872375488 Q 1011.0177154541016 264.0523872375488 1011.0177154541016 256.0523872375488 L 1011.0177154541016 186.20012283325195 Q 1011.0177154541016 178.20012283325195 1003.0177154541016 178.20012283325195 L 837.3871612548828 178.20012283325195 Q 829.3871612548828 178.20012283325195 829.3871612548828 186.20012283325195" stroke-miterlimit="10" stroke-width="0.5" stroke-dasharray=""/><path fill="#F0F0F0" stroke="#505050" paint-order="fill stroke markers" d=" M 971.0177154541016 186.20012283325195 L 1011.0177154541016 186.20012283325195 L 1011.0177154541016 218.20012283325195 L 971.0177154541016 218.20012283325195 L 971.0177154541016 186.20012283325195 Z" stroke-miterlimit="10" stroke-width="0.5" stroke-dasharray=""/><text fill="#505050" stroke="none" font-family="monospace" font-size="14px" font-style="normal" font-weight="normal" text-decoration="normal" x="991.0177154541016" y="204.20012283325195" text-anchor="middle" dominant-baseline="text-after-edge">n!</text><path fill="none" stroke="#505050" paint-order="fill stroke markers" d=" M 971.0177154541016 204.20012283325195 L 979.0177154541016 204.20012283325195 L 979.0177154541016 212.20012283325195 L 971.0177154541016 212.20012283325195 L 971.0177154541016 204.20012283325195 Z" stroke-miterlimit="10" stroke-width="0.5" stroke-dasharray=""/><text fill="#505050" stroke="none" font-family="monospace" font-size="14px" font-style="normal" font-weight="normal" text-decoration="normal" x="987.0177154541016" y="218.20012283325195" text-anchor="start" dominant-baseline="text-after-edge">n</text><path fill="none" stroke="#505050" paint-order="fill stroke markers" d=" M 1003.0177154541016 204.20012283325195 L 1011.0177154541016 204.20012283325195 L 1011.0177154541016 212.20012283325195 L 1003.0177154541016 212.20012283325195 L 1003.0177154541016 204.20012283325195 Z" stroke-miterlimit="10" stroke-width="0.5" stroke-dasharray=""/><path fill="white" stroke="#505050" paint-order="fill stroke markers" d=" M 879.8780670166016 187.77797317504883 L 963.8780670166016 187.77797317504883 L 963.8780670166016 233.77797317504883 L 879.8780670166016 233.77797317504883 L 879.8780670166016 187.77797317504883 Z" stroke-miterlimit="10" stroke-width="0.5" stroke-dasharray=""/><path fill="#F0F0F0" stroke="none" paint-order="stroke fill markers" d=""/><text fill="#505050" stroke="none" font-family="monospace" font-size="14px" font-style="normal" font-weight="normal" text-decoration="normal" x="921.8780670166016" y="205.77797317504883" text-anchor="middle" dominant-baseline="text-after-edge">factorial</text><path fill="none" stroke="#505050" paint-order="fill stroke markers" d=" M 879.8780670166016 205.77797317504883 L 887.8780670166016 205.77797317504883 L 887.8780670166016 213.77797317504883 L 879.8780670166016 213.77797317504883 L 879.8780670166016 205.77797317504883 Z" stroke-miterlimit="10" stroke-width="0.5" stroke-dasharray=""/><text fill="#505050" stroke="none" font-family="monospace" font-size="14px" font-style="normal" font-weight="normal" text-decoration="normal" x="895.8780670166016" y="219.77797317504883" text-anchor="start" dominant-baseline="text-after-edge">n</text><path fill="none" stroke="#505050" paint-order="fill stroke markers" d=" M 879.8780670166016 219.77797317504883 L 887.8780670166016 219.77797317504883 L 887.8780670166016 227.77797317504883 L 879.8780670166016 227.77797317504883 L 879.8780670166016 219.77797317504883 Z" stroke-miterlimit="10" stroke-width="0.5" stroke-dasharray=""/><text fill="#505050" stroke="none" font-family="monospace" font-size="14px" font-style="normal" font-weight="normal" text-decoration="normal" x="895.8780670166016" y="233.77797317504883" text-anchor="start" dominant-baseline="text-after-edge">acc</text><path fill="none" stroke="#505050" paint-order="fill stroke markers" d=" M 955.8780670166016 205.77797317504883 L 963.8780670166016 205.77797317504883 L 963.8780670166016 213.77797317504883 L 955.8780670166016 213.77797317504883 L 955.8780670166016 205.77797317504883 Z" stroke-miterlimit="10" stroke-width="0.5" stroke-dasharray=""/><path fill="#e0e0e0" stroke="none" paint-order="stroke fill markers" d=" M 791.1103057861328 210.01877212524414 L 783.1103057861328 187.01877212524414 L 783.1103057861328 233.01877212524414 Z M 871.8780670166016 210.77797317504883 L 879.8780670166016 187.77797317504883 L 879.8780670166016 233.77797317504883 Z"/><path fill="none" stroke="none"/><path fill="none" stroke="#e0e0e0" paint-order="fill stroke markers" d=" M 791.1103057861328 210.01877212524414 C 815.3417045826827 210.01877212524414 847.6466682200517 210.77797317504883 871.8780670166016 210.77797317504883" stroke-miterlimit="10" stroke-width="2" stroke-dasharray=""/><path fill="white" stroke="#505050" paint-order="fill stroke markers" d=" M 833.0228424072266 215.3041114807129 L 865.0228424072266 215.3041114807129 L 865.0228424072266 233.3041114807129 L 833.0228424072266 233.3041114807129 L 833.0228424072266 215.3041114807129 Z" stroke-miterlimit="10" stroke-width="0.5" stroke-dasharray=""/><path fill="#F0F0F0" stroke="none" paint-order="stroke fill markers" d=""/><path fill="none" stroke="#505050" paint-order="fill stroke markers" d=" M 857.0228424072266 219.3041114807129 L 865.0228424072266 219.3041114807129 L 865.0228424072266 227.3041114807129 L 857.0228424072266 227.3041114807129 L 857.0228424072266 219.3041114807129 Z" stroke-miterlimit="10" stroke-width="0.5" stroke-dasharray=""/><text fill="#505050" stroke="none" font-family="monospace" font-size="14px" font-style="normal" font-weight="normal" text-decoration="normal" x="849.0228424072266" y="233.3041114807129" text-anchor="end" dominant-baseline="text-after-edge">1</text><path fill="none" stroke="#505050" paint-order="fill stroke markers" d=" M 540.4126396179199 244.79690551757812 C 549.4310480106888 244.79690551757812 556.8379987727585 228.78752899169922 565.8564071655273 228.78752899169922" stroke-miterlimit="10" stroke-dasharray=""/><path fill="none" stroke="#505050" paint-order="fill stroke markers" d=" M 453.70953369140625 238.89377403259277 C 488.0009999327989 238.89377403259277 531.5649409241347 216.78752899169922 565.8564071655273 216.78752899169922" stroke-miterlimit="10" stroke-dasharray=""/><path fill="none" stroke="#505050" paint-order="fill stroke markers" d=" M 468.30328369140625 284.55626487731934 C 492.15978772529434 284.55626487731934 503.65612261406113 337.6406440734863 527.5126266479492 337.6406440734863" stroke-miterlimit="10" stroke-dasharray=""/><path fill="none" stroke="#505050" paint-order="fill stroke markers" d=" M 453.70953369140625 238.89377403259277 C 487.87782951174154 238.89377403259277 493.34433082761393 325.6406440734863 527.5126266479492 325.6406440734863" stroke-miterlimit="10" stroke-dasharray=""/><path fill="none" stroke="#505050" paint-order="fill stroke markers" d=" M 683.9876251220703 235.80626678466797 C 687.2278983167423 235.80626678466797 691.5461800523983 235.59417724609375 694.7864532470703 235.59417724609375" stroke-miterlimit="10" stroke-dasharray=""/><path fill="none" stroke="#505050" paint-order="fill stroke markers" d=" M 551.5126266479492 325.6406440734863 C 572.6144113095621 325.6406440734863 599.2109137026449 340.2750129699707 620.3126983642578 340.2750129699707" stroke-miterlimit="10" stroke-dasharray=""/><path fill="none" stroke="#505050" paint-order="fill stroke markers" d=" M 468.30328369140625 284.55626487731934 C 526.8559131785314 284.55626487731934 601.4349956349452 247.80626678466797 659.9876251220703 247.80626678466797" stroke-miterlimit="10" stroke-dasharray=""/><path fill="none" stroke="#505050" paint-order="fill stroke markers" d=" M 590.8564071655273 216.78752899169922 C 612.3662977162797 216.78752899169922 638.4777345713179 235.80626678466797 659.9876251220703 235.80626678466797" stroke-miterlimit="10" stroke-dasharray=""/><path fill="none" stroke="#505050" paint-order="fill stroke markers" d=" M 704.3126983642578 326.2750129699707 C 728.2804385656917 326.2750129699707 636.0198849206364 259.80626678466797 659.9876251220703 259.80626678466797" stroke-miterlimit="10" stroke-dasharray=""/><path fill="none" stroke="#505050" paint-order="fill stroke markers" d=" M 540.4126396179199 244.79690551757812 C 558.1107078161884 244.79690551757812 543.6571831139873 299.94803619384766 561.3552513122559 299.94803619384766" stroke-miterlimit="10" stroke-dasharray=""/><path fill="none" stroke="#505050" paint-order="fill stroke markers" d=" M 586.3552513122559 299.94803619384766 C 599.2455427163089 299.94803619384766 607.4224069602047 326.2750129699707 620.3126983642578 326.2750129699707" stroke-miterlimit="10" stroke-dasharray=""/><path fill="none" stroke="#505050" paint-order="fill stroke markers" d=" M 266.2410545349121 218.64531707763672 C 269.4318402259107 218.64531707763672 273.68265409781975 218.9207534790039 276.87343978881836 218.9207534790039" stroke-miterlimit="10" stroke-dasharray=""/><path fill="none" stroke="#505050" paint-order="fill stroke markers" d=" M 865.0228424072266 223.3041114807129 C 869.4816765462175 223.3041114807129 875.4192328776106 223.77797317504883 879.8780670166016 223.77797317504883" stroke-miterlimit="10" stroke-dasharray=""/></g></g></svg>