<svg version="1.1" xmlns="http://www.w3.org/2000/svg" xmlns:xlink="http://www.w3.org/1999/xlink" width="850.9992218017578" height="645.6881160736084"><defs/><g transform="translate(-362.072021484375,-5.10284423828125)"><g><path fill="white" stroke="#505050" paint-order="fill stroke markers" d=" M 363.072021484375 103.36566543579102 L 363.072021484375 318.08123779296875 Q 363.072021484375 326.08123779296875 371.072021484375 326.08123779296875 L 745.6509552001953 326.08123779296875 Q 753.6509552001953 326.08123779296875 753.6509552001953 318.08123779296875 L 753.6509552001953 103.36566543579102 Q 753.6509552001953 95.36566543579102 745.6509552001953 95.36566543579102 L 371.072021484375 95.36566543579102 Q 363.072021484375 95.36566543579102 363.072021484375 103.36566543579102" stroke-miterlimit="10" stroke-width="0.5" stroke-dasharray=""/><path fill="#F0F0F0" stroke="#505050" paint-order="fill stroke markers" d=" M 694.6509552001953 103.36566543579102 L 753.6509552001953 103.36566543579102 L 753.6509552001953 181.36566543579102 L 694.6509552001953 181.36566543579102 L 694.6509552001953 103.36566543579102 Z" stroke-miterlimit="10" stroke-width="0.5" stroke-dasharray=""/><text fill="#505050" stroke="none" font-family="monospace" font-size="14px" font-style="normal" font-weight="normal" text-decoration="normal" x="724.1509552001953" y="121.36566543579102" text-anchor="middle" dominant-baseline="text-after-edge">reduce</text><path fill="none" stroke="#505050" paint-order="fill stroke markers" d=" M 694.6509552001953 122.36566543579102 L 702.6509552001953 122.36566543579102 L 702.6509552001953 130.36566543579102 L 694.6509552001953 130.36566543579102 L 694.6509552001953 122.36566543579102 Z" stroke-miterlimit="10" stroke-width="0.5" stroke-dasharray=""/><text fill="#505050" stroke="none" font-family="monospace" font-size="14px" font-style="normal" font-weight="normal" text-decoration="normal" x="710.6509552001953" y="135.36566543579102" text-anchor="start" dominant-baseline="text-after-edge">n</text><path fill="none" stroke="#505050" paint-order="fill stroke markers" d=" M 694.6509552001953 136.36566543579102 L 702.6509552001953 136.36566543579102 L 702.6509552001953 144.36566543579102 L 694.6509552001953 144.36566543579102 L 694.6509552001953 136.36566543579102 Z" stroke-miterlimit="10" stroke-width="0.5" stroke-dasharray=""/><text fill="#505050" stroke="none" font-family="monospace" font-size="14px" font-style="normal" font-weight="normal" text-decoration="normal" x="710.6509552001953" y="149.36566543579102" text-anchor="start" dominant-baseline="text-after-edge">acc</text><path fill="none" stroke="#505050" paint-order="fill stroke markers" d=" M 694.6509552001953 149.36566543579102 L 718.6509552001953 149.36566543579102 L 718.6509552001953 177.36566543579102 L 694.6509552001953 177.36566543579102 L 694.6509552001953 149.36566543579102 Z" stroke-miterlimit="10" stroke-width="0.5" stroke-dasharray=""/><path fill="none" stroke="#505050" paint-order="fill stroke markers" d=" M 694.6509552001953 153.36566543579102 L 702.6509552001953 153.36566543579102 L 702.6509552001953 161.36566543579102 L 694.6509552001953 161.36566543579102 L 694.6509552001953 153.36566543579102 Z" stroke-miterlimit="10" stroke-width="0.5" stroke-dasharray=""/><path fill="none" stroke="#505050" paint-order="fill stroke markers" d=" M 694.6509552001953 165.36566543579102 L 702.6509552001953 165.36566543579102 L 702.6509552001953 173.36566543579102 L 694.6509552001953 173.36566543579102 L 694.6509552001953 165.36566543579102 Z" stroke-miterlimit="10" stroke-width="0.5" stroke-dasharray=""/><path fill="none" stroke="#505050" paint-order="fill stroke markers" d=" M 710.6509552001953 153.36566543579102 L 718.6509552001953 153.36566543579102 L 718.6509552001953 161.36566543579102 L 710.6509552001953 161.36566543579102 L 710.6509552001953 153.36566543579102 Z" stroke-miterlimit="10" stroke-width="0.5" stroke-dasharray=""/><text fill="#505050" stroke="none" font-family="monospace" font-size="14px" font-style="normal" font-weight="normal" text-decoration="normal" x="726.6509552001953" y="172.36566543579102" text-anchor="start" dominant-baseline="text-after-edge">*</text><path fill="none" stroke="#505050" paint-order="fill stroke markers" d=" M 745.6509552001953 121.36566543579102 L 753.6509552001953 121.36566543579102 L 753.6509552001953 129.36566543579102 L 745.6509552001953 129.36566543579102 L 745.6509552001953 121.36566543579102 Z" stroke-miterlimit="10" stroke-width="0.5" stroke-dasharray=""/><path fill="white" stroke="#505050" paint-order="fill stroke markers" d=" M 618.4782867431641 130.15316009521484 L 642.4782867431641 130.15316009521484 L 642.4782867431641 184.15316009521484 L 618.4782867431641 184.15316009521484 L 618.4782867431641 130.15316009521484 Z" stroke-miterlimit="10" stroke-width="0.5" stroke-dasharray=""/><path fill="#F0F0F0" stroke="none" paint-order="stroke fill markers" d=""/><text fill="#505050" stroke="none" font-family="monospace" font-size="14px" font-style="normal" font-weight="normal" text-decoration="normal" x="630.4782867431641" y="148.15316009521484" text-anchor="middle" dominant-baseline="text-after-edge">?</text><path fill="none" stroke="#505050" paint-order="fill stroke markers" d=" M 618.4782867431641 148.15316009521484 L 626.4782867431641 148.15316009521484 L 626.4782867431641 156.15316009521484 L 618.4782867431641 156.15316009521484 L 618.4782867431641 148.15316009521484 Z" stroke-miterlimit="10" stroke-width="0.5" stroke-dasharray=""/><path fill="none" stroke="#505050" paint-order="fill stroke markers" d=" M 618.4782867431641 160.15316009521484 L 626.4782867431641 160.15316009521484 L 626.4782867431641 168.15316009521484 L 618.4782867431641 168.15316009521484 L 618.4782867431641 160.15316009521484 Z" stroke-miterlimit="10" stroke-width="0.5" stroke-dasharray=""/><path fill="none" stroke="#505050" paint-order="fill stroke markers" d=" M 618.4782867431641 172.15316009521484 L 626.4782867431641 172.15316009521484 L 626.4782867431641 180.15316009521484 L 618.4782867431641 180.15316009521484 L 618.4782867431641 172.15316009521484 Z" stroke-miterlimit="10" stroke-width="0.5" stroke-dasharray=""/><path fill="none" stroke="#505050" paint-order="fill stroke markers" d=" M 634.4782867431641 148.15316009521484 L 642.4782867431641 148.15316009521484 L 642.4782867431641 156.15316009521484 L 634.4782867431641 156.15316009521484 L 634.4782867431641 148.15316009521484 Z" stroke-miterlimit="10" stroke-width="0.5" stroke-dasharray=""/><path fill="white" stroke="#505050" paint-order="fill stroke markers" d=" M 656.5725860595703 144.17220306396484 L 664.5725860595703 144.17220306396484 L 672.5725860595703 152.17220306396484 L 664.5725860595703 160.17220306396484 L 656.5725860595703 160.17220306396484 L 656.5725860595703 144.17220306396484" stroke-miterlimit="10" stroke-width="0.5" stroke-dasharray=""/><path fill="none" stroke="#505050" paint-order="fill stroke markers" d=" M 656.5725860595703 148.17220306396484 L 664.5725860595703 148.17220306396484 L 664.5725860595703 156.17220306396484 L 656.5725860595703 156.17220306396484 L 656.5725860595703 148.17220306396484 Z" stroke-miterlimit="10" stroke-width="0.5" stroke-dasharray=""/><path fill="white" stroke="#505050" paint-order="fill stroke markers" d=" M 377.7939453125 192.9031581878662 L 426.7939453125 192.9031581878662 L 426.7939453125 210.9031581878662 L 377.7939453125 210.9031581878662 L 385.7939453125 201.9031581878662 L 377.7939453125 192.9031581878662" stroke-miterlimit="10" stroke-width="0.5" stroke-dasharray=""/><path fill="none" stroke="#505050" paint-order="fill stroke markers" d=" M 418.7939453125 197.9031581878662 L 426.7939453125 197.9031581878662 L 426.7939453125 205.9031581878662 L 418.7939453125 205.9031581878662 L 418.7939453125 197.9031581878662 Z" stroke-miterlimit="10" stroke-width="0.5" stroke-dasharray=""/><text fill="#505050" stroke="none" font-family="monospace" font-size="14px" font-style="normal" font-weight="normal" text-decoration="normal" x="410.7939453125" y="210.9031581878662" text-anchor="end" dominant-baseline="text-after-edge">acc</text><path fill="white" stroke="#505050" paint-order="fill stroke markers" d=" M 380.2001953125 147.24066734313965 L 412.2001953125 147.24066734313965 L 412.2001953125 165.24066734313965 L 380.2001953125 165.24066734313965 L 388.2001953125 156.24066734313965 L 380.2001953125 147.24066734313965" stroke-miterlimit="10" stroke-width="0.5" stroke-dasharray=""/><path fill="none" stroke="#505050" paint-order="fill stroke markers" d=" M 404.2001953125 152.24066734313965 L 412.2001953125 152.24066734313965 L 412.2001953125 160.24066734313965 L 404.2001953125 160.24066734313965 L 404.2001953125 152.24066734313965 Z" stroke-miterlimit="10" stroke-width="0.5" stroke-dasharray=""/><text fill="#505050" stroke="none" font-family="monospace" font-size="14px" font-style="normal" font-weight="normal" text-decoration="normal" x="396.2001953125" y="165.24066734313965" text-anchor="end" dominant-baseline="text-after-edge">n</text><path fill="white" stroke="#505050" paint-order="fill stroke markers" d=" M 524.3470687866211 111.1344223022461 L 549.3470687866211 111.1344223022461 L 549.3470687866211 153.1344223022461 L 524.3470687866211 153.1344223022461 L 524.3470687866211 111.1344223022461 Z" stroke-miterlimit="10" stroke-width="0.5" stroke-dasharray=""/><path fill="#F0F0F0" stroke="none" paint-order="stroke fill markers" d=""/><text fill="#505050" stroke="none" font-family="monospace" font-size="14px" font-style="normal" font-weight="normal" text-decoration="normal" x="536.8470687866211" y="129.1344223022461" text-anchor="middle" dominant-baseline="text-after-edge">&lt;=</text><path fill="none" stroke="#505050" paint-order="fill stroke markers" d=" M 524.3470687866211 129.1344223022461 L 532.3470687866211 129.1344223022461 L 532.3470687866211 137.1344223022461 L 524.3470687866211 137.1344223022461 L 524.3470687866211 129.1344223022461 Z" stroke-miterlimit="10" stroke-width="0.5" stroke-dasharray=""/><path fill="none" stroke="#505050" paint-order="fill stroke markers" d=" M 524.3470687866211 141.1344223022461 L 532.3470687866211 141.1344223022461 L 532.3470687866211 149.1344223022461 L 524.3470687866211 149.1344223022461 L 524.3470687866211 141.1344223022461 Z" stroke-miterlimit="10" stroke-width="0.5" stroke-dasharray=""/><path fill="none" stroke="#505050" paint-order="fill stroke markers" d=" M 541.3470687866211 129.1344223022461 L 549.3470687866211 129.1344223022461 L 549.3470687866211 137.1344223022461 L 541.3470687866211 137.1344223022461 L 541.3470687866211 129.1344223022461 Z" stroke-miterlimit="10" stroke-width="0.5" stroke-dasharray=""/><path fill="white" stroke="#505050" paint-order="fill stroke markers" d=" M 466.9033012390137 153.143798828125 L 498.9033012390137 153.143798828125 L 498.9033012390137 171.143798828125 L 466.9033012390137 171.143798828125 L 466.9033012390137 153.143798828125 Z" stroke-miterlimit="10" stroke-width="0.5" stroke-dasharray=""/><path fill="#F0F0F0" stroke="none" paint-order="stroke fill markers" d=""/><path fill="none" stroke="#505050" paint-order="fill stroke markers" d=" M 490.9033012390137 158.143798828125 L 498.9033012390137 158.143798828125 L 498.9033012390137 166.143798828125 L 490.9033012390137 166.143798828125 L 490.9033012390137 158.143798828125 Z" stroke-miterlimit="10" stroke-width="0.5" stroke-dasharray=""/><text fill="#505050" stroke="none" font-family="monospace" font-size="14px" font-style="normal" font-weight="normal" text-decoration="normal" x="482.9033012390137" y="171.143798828125" text-anchor="end" dominant-baseline="text-after-edge">1</text><path fill="white" stroke="#505050" paint-order="fill stroke markers" d=" M 575.5283355712891 223.85002517700195 L 634.5283355712891 223.85002517700195 L 634.5283355712891 301.85002517700195 L 575.5283355712891 301.85002517700195 L 575.5283355712891 223.85002517700195 Z" stroke-miterlimit="10" stroke-width="0.5" stroke-dasharray=""/><path fill="#F0F0F0" stroke="none" paint-order="stroke fill markers" d=""/><text fill="#505050" stroke="none" font-family="monospace" font-size="14px" font-style="normal" font-weight="normal" text-decoration="normal" x="605.0283355712891" y="241.85002517700195" text-anchor="middle" dominant-baseline="text-after-edge">reduce</text><path fill="none" stroke="#505050" paint-order="fill stroke markers" d=" M 575.5283355712891 242.85002517700195 L 583.5283355712891 242.85002517700195 L 583.5283355712891 250.85002517700195 L 575.5283355712891 250.85002517700195 L 575.5283355712891 242.85002517700195 Z" stroke-miterlimit="10" stroke-width="0.5" stroke-dasharray=""/><text fill="#505050" stroke="none" font-family="monospace" font-size="14px" font-style="normal" font-weight="normal" text-decoration="normal" x="591.5283355712891" y="255.85002517700195" text-anchor="start" dominant-baseline="text-after-edge">n</text><path fill="none" stroke="#505050" paint-order="fill stroke markers" d=" M 575.5283355712891 256.85002517700195 L 583.5283355712891 256.85002517700195 L 583.5283355712891 264.85002517700195 L 575.5283355712891 264.85002517700195 L 575.5283355712891 256.85002517700195 Z" stroke-miterlimit="10" stroke-width="0.5" stroke-dasharray=""/><text fill="#505050" stroke="none" font-family="monospace" font-size="14px" font-style="normal" font-weight="normal" text-decoration="normal" x="591.5283355712891" y="269.85002517700195" text-anchor="start" dominant-baseline="text-after-edge">acc</text><path fill="none" stroke="#505050" paint-order="fill stroke markers" d=" M 575.5283355712891 269.85002517700195 L 599.5283355712891 269.85002517700195 L 599.5283355712891 297.85002517700195 L 575.5283355712891 297.85002517700195 L 575.5283355712891 269.85002517700195 Z" stroke-miterlimit="10" stroke-width="0.5" stroke-dasharray=""/><path fill="none" stroke="#505050" paint-order="fill stroke markers" d=" M 575.5283355712891 273.85002517700195 L 583.5283355712891 273.85002517700195 L 583.5283355712891 281.85002517700195 L 575.5283355712891 281.85002517700195 L 575.5283355712891 273.85002517700195 Z" stroke-miterlimit="10" stroke-width="0.5" stroke-dasharray=""/><path fill="none" stroke="#505050" paint-order="fill stroke markers" d=" M 575.5283355712891 285.85002517700195 L 583.5283355712891 285.85002517700195 L 583.5283355712891 293.85002517700195 L 575.5283355712891 293.85002517700195 L 575.5283355712891 285.85002517700195 Z" stroke-miterlimit="10" stroke-width="0.5" stroke-dasharray=""/><path fill="none" stroke="#505050" paint-order="fill stroke markers" d=" M 591.5283355712891 273.85002517700195 L 599.5283355712891 273.85002517700195 L 599.5283355712891 281.85002517700195 L 591.5283355712891 281.85002517700195 L 591.5283355712891 273.85002517700195 Z" stroke-miterlimit="10" stroke-width="0.5" stroke-dasharray=""/><text fill="#505050" stroke="none" font-family="monospace" font-size="14px" font-style="normal" font-weight="normal" text-decoration="normal" x="607.5283355712891" y="292.85002517700195" text-anchor="start" dominant-baseline="text-after-edge">*</text><path fill="none" stroke="#505050" paint-order="fill stroke markers" d=" M 626.5283355712891 241.85002517700195 L 634.5283355712891 241.85002517700195 L 634.5283355712891 249.85002517700195 L 626.5283355712891 249.85002517700195 L 626.5283355712891 241.85002517700195 Z" stroke-miterlimit="10" stroke-width="0.5" stroke-dasharray=""/><path fill="white" stroke="#505050" paint-order="fill stroke markers" d=" M 533.1626853942871 191.68128204345703 L 558.1626853942871 191.68128204345703 L 558.1626853942871 221.68128204345703 L 533.1626853942871 221.68128204345703 L 533.1626853942871 191.68128204345703 Z" stroke-miterlimit="10" stroke-width="0.5" stroke-dasharray=""/><path fill="#F0F0F0" stroke="none" paint-order="stroke fill markers" d=""/><text fill="#505050" stroke="none" font-family="monospace" font-size="14px" font-style="normal" font-weight="normal" text-decoration="normal" x="545.6626853942871" y="209.68128204345703" text-anchor="middle" dominant-baseline="text-after-edge">-1</text><path fill="none" stroke="#505050" paint-order="fill stroke markers" d=" M 533.1626853942871 209.68128204345703 L 541.1626853942871 209.68128204345703 L 541.1626853942871 217.68128204345703 L 533.1626853942871 217.68128204345703 L 533.1626853942871 209.68128204345703 Z" stroke-miterlimit="10" stroke-width="0.5" stroke-dasharray=""/><path fill="none" stroke="#505050" paint-order="fill stroke markers" d=" M 550.1626853942871 209.68128204345703 L 558.1626853942871 209.68128204345703 L 558.1626853942871 217.68128204345703 L 550.1626853942871 217.68128204345703 L 550.1626853942871 209.68128204345703 Z" stroke-miterlimit="10" stroke-width="0.5" stroke-dasharray=""/><path fill="none" stroke="none"/><path fill="white" stroke="#505050" paint-order="fill stroke markers" d=" M 386.3312544822693 260.08123779296875 L 426.3312544822693 260.08123779296875 L 426.3312544822693 310.08123779296875 L 386.3312544822693 310.08123779296875 L 394.3312544822693 285.08123779296875 L 386.3312544822693 260.08123779296875" stroke-miterlimit="10" stroke-width="0.5" stroke-dasharray=""/><path fill="#F0F0F0" stroke="none" paint-order="stroke fill markers" d=" M 402.3312544822693 264.08123779296875 L 426.3312544822693 264.08123779296875 L 426.3312544822693 306.08123779296875 L 402.3312544822693 306.08123779296875 L 402.3312544822693 264.08123779296875 Z"/><path fill="none" stroke="#505050" paint-order="fill stroke markers" d=" M 402.3312544822693 264.08123779296875 L 426.3312544822693 264.08123779296875 L 426.3312544822693 306.08123779296875 L 402.3312544822693 306.08123779296875 L 402.3312544822693 264.08123779296875 Z" stroke-miterlimit="10" stroke-width="0.5" stroke-dasharray=""/><text fill="#505050" stroke="none" font-family="monospace" font-size="14px" font-style="normal" font-weight="normal" text-decoration="normal" x="414.3312544822693" y="282.08123779296875" text-anchor="middle" dominant-baseline="text-after-edge">*</text><path fill="none" stroke="#505050" paint-order="fill stroke markers" d=" M 402.3312544822693 282.08123779296875 L 410.3312544822693 282.08123779296875 L 410.3312544822693 290.08123779296875 L 402.3312544822693 290.08123779296875 L 402.3312544822693 282.08123779296875 Z" stroke-miterlimit="10" stroke-width="0.5" stroke-dasharray=""/><path fill="none" stroke="#505050" paint-order="fill stroke markers" d=" M 402.3312544822693 294.08123779296875 L 410.3312544822693 294.08123779296875 L 410.3312544822693 302.08123779296875 L 402.3312544822693 302.08123779296875 L 402.3312544822693 294.08123779296875 Z" stroke-miterlimit="10" stroke-width="0.5" stroke-dasharray=""/><path fill="none" stroke="#505050" paint-order="fill stroke markers" d=" M 418.3312544822693 282.08123779296875 L 426.3312544822693 282.08123779296875 L 426.3312544822693 290.08123779296875 L 418.3312544822693 290.08123779296875 L 418.3312544822693 282.08123779296875 Z" stroke-miterlimit="10" stroke-width="0.5" stroke-dasharray=""/><path fill="white" stroke="#505050" paint-order="fill stroke markers" d=" M 402.3312544822693 264.08123779296875 L 426.3312544822693 264.08123779296875 L 426.3312544822693 306.08123779296875 L 402.3312544822693 306.08123779296875 L 402.3312544822693 264.08123779296875 Z" stroke-miterlimit="10" stroke-width="0.5" stroke-dasharray=""/><path fill="#F0F0F0" stroke="none" paint-order="stroke fill markers" d=""/><text fill="#505050" stroke="none" font-family="monospace" font-size="14px" font-style="normal" font-weight="normal" text-decoration="normal" x="414.3312544822693" y="282.08123779296875" text-anchor="middle" dominant-baseline="text-after-edge">*</text><path fill="none" stroke="#505050" paint-order="fill stroke markers" d=" M 402.3312544822693 282.08123779296875 L 410.3312544822693 282.08123779296875 L 410.3312544822693 290.08123779296875 L 402.3312544822693 290.08123779296875 L 402.3312544822693 282.08123779296875 Z" stroke-miterlimit="10" stroke-width="0.5" stroke-dasharray=""/><path fill="none" stroke="#505050" paint-order="fill stroke markers" d=" M 402.3312544822693 294.08123779296875 L 410.3312544822693 294.08123779296875 L 410.3312544822693 302.08123779296875 L 402.3312544822693 302.08123779296875 L 402.3312544822693 294.08123779296875 Z" stroke-miterlimit="10" stroke-width="0.5" stroke-dasharray=""/><path fill="none" stroke="#505050" paint-order="fill stroke markers" d=" M 418.3312544822693 282.08123779296875 L 426.3312544822693 282.08123779296875 L 426.3312544822693 290.08123779296875 L 418.3312544822693 290.08123779296875 L 418.3312544822693 282.08123779296875 Z" stroke-miterlimit="10" stroke-width="0.5" stroke-dasharray=""/><path fill="white" stroke="#505050" paint-order="fill stroke markers" d=" M 495.32189321517944 224.95937728881836 L 519.3218932151794 224.95937728881836 L 519.3218932151794 266.95937728881836 L 495.32189321517944 266.95937728881836 L 495.32189321517944 224.95937728881836 Z" stroke-miterlimit="10" stroke-width="0.5" stroke-dasharray=""/><path fill="#F0F0F0" stroke="none" paint-order="stroke fill markers" d=""/><text fill="#505050" stroke="none" font-family="monospace" font-size="14px" font-style="normal" font-weight="normal" text-decoration="normal" x="507.32189321517944" y="242.95937728881836" text-anchor="middle" dominant-baseline="text-after-edge">*</text><path fill="none" stroke="#505050" paint-order="fill stroke markers" d=" M 495.32189321517944 242.95937728881836 L 503.32189321517944 242.95937728881836 L 503.32189321517944 250.95937728881836 L 495.32189321517944 250.95937728881836 L 495.32189321517944 242.95937728881836 Z" stroke-miterlimit="10" stroke-width="0.5" stroke-dasharray=""/><path fill="none" stroke="#505050" paint-order="fill stroke markers" d=" M 495.32189321517944 254.95937728881836 L 503.32189321517944 254.95937728881836 L 503.32189321517944 262.95937728881836 L 495.32189321517944 262.95937728881836 L 495.32189321517944 254.95937728881836 Z" stroke-miterlimit="10" stroke-width="0.5" stroke-dasharray=""/><path fill="none" stroke="#505050" paint-order="fill stroke markers" d=" M 511.32189321517944 242.95937728881836 L 519.3218932151794 242.95937728881836 L 519.3218932151794 250.95937728881836 L 511.32189321517944 250.95937728881836 L 511.32189321517944 242.95937728881836 Z" stroke-miterlimit="10" stroke-width="0.5" stroke-dasharray=""/><path fill="white" stroke="#505050" paint-order="fill stroke markers" d=" M 370.33568954467773 14.10284423828125 L 370.33568954467773 66.65909576416016 Q 370.33568954467773 74.65909576416016 378.33568954467773 74.65909576416016 L 496.6419334411621 74.65909576416016 Q 504.6419334411621 74.65909576416016 504.6419334411621 66.65909576416016 L 504.6419334411621 14.10284423828125 Q 504.6419334411621 6.10284423828125 496.6419334411621 6.10284423828125 L 378.33568954467773 6.10284423828125 Q 370.33568954467773 6.10284423828125 370.33568954467773 14.10284423828125" stroke-miterlimit="10" stroke-width="0.5" stroke-dasharray=""/><path fill="#F0F0F0" stroke="#505050" paint-order="fill stroke markers" d=" M 479.6419334411621 14.10284423828125 L 504.6419334411621 14.10284423828125 L 504.6419334411621 44.10284423828125 L 479.6419334411621 44.10284423828125 L 479.6419334411621 14.10284423828125 Z" stroke-miterlimit="10" stroke-width="0.5" stroke-dasharray=""/><text fill="#505050" stroke="none" font-family="monospace" font-size="14px" font-style="normal" font-weight="normal" text-decoration="normal" x="492.1419334411621" y="32.10284423828125" text-anchor="middle" dominant-baseline="text-after-edge">-1</text><path fill="none" stroke="#505050" paint-order="fill stroke markers" d=" M 479.6419334411621 32.10284423828125 L 487.6419334411621 32.10284423828125 L 487.6419334411621 40.10284423828125 L 479.6419334411621 40.10284423828125 L 479.6419334411621 32.10284423828125 Z" stroke-miterlimit="10" stroke-width="0.5" stroke-dasharray=""/><path fill="none" stroke="#505050" paint-order="fill stroke markers" d=" M 496.6419334411621 32.10284423828125 L 504.6419334411621 32.10284423828125 L 504.6419334411621 40.10284423828125 L 496.6419334411621 40.10284423828125 L 496.6419334411621 32.10284423828125 Z" stroke-miterlimit="10" stroke-width="0.5" stroke-dasharray=""/><path fill="white" stroke="#505050" paint-order="fill stroke markers" d=" M 419.1669273376465 10.65909481048584 L 443.1669273376465 10.65909481048584 L 443.1669273376465 52.65909481048584 L 419.1669273376465 52.65909481048584 L 419.1669273376465 10.65909481048584 Z" stroke-miterlimit="10" stroke-width="0.5" stroke-dasharray=""/><path fill="#F0F0F0" stroke="none" paint-order="stroke fill markers" d=""/><text fill="#505050" stroke="none" font-family="monospace" font-size="14px" font-style="normal" font-weight="normal" text-decoration="normal" x="431.1669273376465" y="28.65909481048584" text-anchor="middle" dominant-baseline="text-after-edge">-</text><path fill="none" stroke="#505050" paint-order="fill stroke markers" d=" M 419.1669273376465 28.65909481048584 L 427.1669273376465 28.65909481048584 L 427.1669273376465 36.65909481048584 L 419.1669273376465 36.65909481048584 L 419.1669273376465 28.65909481048584 Z" stroke-miterlimit="10" stroke-width="0.5" stroke-dasharray=""/><path fill="none" stroke="#505050" paint-order="fill stroke markers" d=" M 419.1669273376465 40.65909481048584 L 427.1669273376465 40.65909481048584 L 427.1669273376465 48.65909481048584 L 419.1669273376465 48.65909481048584 L 419.1669273376465 40.65909481048584 Z" stroke-miterlimit="10" stroke-width="0.5" stroke-dasharray=""/><path fill="none" stroke="#505050" paint-order="fill stroke markers" d=" M 435.1669273376465 28.65909481048584 L 443.1669273376465 28.65909481048584 L 443.1669273376465 36.65909481048584 L 435.1669273376465 36.65909481048584 L 435.1669273376465 28.65909481048584 Z" stroke-miterlimit="10" stroke-width="0.5" stroke-dasharray=""/><path fill="white" stroke="#505050" paint-order="fill stroke markers" d=" M 454.35488510131836 24.514915466308594 L 462.35488510131836 24.514915466308594 L 470.35488510131836 32.514915466308594 L 462.35488510131836 40.514915466308594 L 454.35488510131836 40.514915466308594 L 454.35488510131836 24.514915466308594" stroke-miterlimit="10" stroke-width="0.5" stroke-dasharray=""/><path fill="none" stroke="#505050" paint-order="fill stroke markers" d=" M 454.35488510131836 28.514915466308594 L 462.35488510131836 28.514915466308594 L 462.35488510131836 36.514915466308594 L 454.35488510131836 36.514915466308594 L 454.35488510131836 28.514915466308594 Z" stroke-miterlimit="10" stroke-width="0.5" stroke-dasharray=""/><path fill="white" stroke="#505050" paint-order="fill stroke markers" d=" M 373.6419486999512 40.659095764160156 L 405.6419486999512 40.659095764160156 L 405.6419486999512 58.659095764160156 L 373.6419486999512 58.659095764160156 L 373.6419486999512 40.659095764160156 Z" stroke-miterlimit="10" stroke-width="0.5" stroke-dasharray=""/><path fill="#F0F0F0" stroke="none" paint-order="stroke fill markers" d=""/><path fill="none" stroke="#505050" paint-order="fill stroke markers" d=" M 397.6419486999512 45.659095764160156 L 405.6419486999512 45.659095764160156 L 405.6419486999512 53.659095764160156 L 397.6419486999512 53.659095764160156 L 397.6419486999512 45.659095764160156 Z" stroke-miterlimit="10" stroke-width="0.5" stroke-dasharray=""/><text fill="#505050" stroke="none" font-family="monospace" font-size="14px" font-style="normal" font-weight="normal" text-decoration="normal" x="389.6419486999512" y="58.659095764160156" text-anchor="end" dominant-baseline="text-after-edge">1</text><path fill="white" stroke="#505050" paint-order="fill stroke markers" d=" M 379.27944564819336 13.540343284606934 L 395.27944564819336 13.540343284606934 L 395.27944564819336 29.540343284606934 L 379.27944564819336 29.540343284606934 L 387.27944564819336 21.540343284606934 L 379.27944564819336 13.540343284606934" stroke-miterlimit="10" stroke-width="0.5" stroke-dasharray=""/><path fill="none" stroke="#505050" paint-order="fill stroke markers" d=" M 387.27944564819336 17.540343284606934 L 395.27944564819336 17.540343284606934 L 395.27944564819336 25.540343284606934 L 387.27944564819336 25.540343284606934 L 387.27944564819336 17.540343284606934 Z" stroke-miterlimit="10" stroke-width="0.5" stroke-dasharray=""/><path fill="white" stroke="#505050" paint-order="fill stroke markers" d=" M 808.0764312744141 127.15552139282227 L 808.0764312744141 281.2086601257324 Q 808.0764312744141 289.2086601257324 816.0764312744141 289.2086601257324 L 1006.3346710205078 289.2086601257324 Q 1014.3346710205078 289.2086601257324 1014.3346710205078 281.2086601257324 L 1014.3346710205078 127.15552139282227 Q 1014.3346710205078 119.15552139282227 1006.3346710205078 119.15552139282227 L 816.0764312744141 119.15552139282227 Q 808.0764312744141 119.15552139282227 808.0764312744141 127.15552139282227" stroke-miterlimit="10" stroke-width="0.5" stroke-dasharray=""/><path fill="#F0F0F0" stroke="#505050" paint-order="fill stroke markers" d=" M 989.3346710205078 127.15552139282227 L 1014.3346710205078 127.15552139282227 L 1014.3346710205078 157.15552139282227 L 989.3346710205078 157.15552139282227 L 989.3346710205078 127.15552139282227 Z" stroke-miterlimit="10" stroke-width="0.5" stroke-dasharray=""/><text fill="#505050" stroke="none" font-family="monospace" font-size="14px" font-style="normal" font-weight="normal" text-decoration="normal" x="1001.8346710205078" y="145.15552139282227" text-anchor="middle" dominant-baseline="text-after-edge">n!</text><path fill="none" stroke="#505050" paint-order="fill stroke markers" d=" M 989.3346710205078 145.15552139282227 L 997.3346710205078 145.15552139282227 L 997.3346710205078 153.15552139282227 L 989.3346710205078 153.15552139282227 L 989.3346710205078 145.15552139282227 Z" stroke-miterlimit="10" stroke-width="0.5" stroke-dasharray=""/><path fill="none" stroke="#505050" paint-order="fill stroke markers" d=" M 1006.3346710205078 145.15552139282227 L 1014.3346710205078 145.15552139282227 L 1014.3346710205078 153.15552139282227 L 1006.3346710205078 153.15552139282227 L 1006.3346710205078 145.15552139282227 Z" stroke-miterlimit="10" stroke-width="0.5" stroke-dasharray=""/><path fill="white" stroke="#505050" paint-order="fill stroke markers" d=" M 875.4795684814453 136.18051528930664 L 934.4795684814453 136.18051528930664 L 934.4795684814453 214.18051528930664 L 875.4795684814453 214.18051528930664 L 875.4795684814453 136.18051528930664 Z" stroke-miterlimit="10" stroke-width="0.5" stroke-dasharray=""/><path fill="#F0F0F0" stroke="none" paint-order="stroke fill markers" d=""/><text fill="#505050" stroke="none" font-family="monospace" font-size="14px" font-style="normal" font-weight="normal" text-decoration="normal" x="904.9795684814453" y="154.18051528930664" text-anchor="middle" dominant-baseline="text-after-edge">reduce</text><path fill="none" stroke="#505050" paint-order="fill stroke markers" d=" M 875.4795684814453 155.18051528930664 L 883.4795684814453 155.18051528930664 L 883.4795684814453 163.18051528930664 L 875.4795684814453 163.18051528930664 L 875.4795684814453 155.18051528930664 Z" stroke-miterlimit="10" stroke-width="0.5" stroke-dasharray=""/><text fill="#505050" stroke="none" font-family="monospace" font-size="14px" font-style="normal" font-weight="normal" text-decoration="normal" x="891.4795684814453" y="168.18051528930664" text-anchor="start" dominant-baseline="text-after-edge">n</text><path fill="none" stroke="#505050" paint-order="fill stroke markers" d=" M 875.4795684814453 169.18051528930664 L 883.4795684814453 169.18051528930664 L 883.4795684814453 177.18051528930664 L 875.4795684814453 177.18051528930664 L 875.4795684814453 169.18051528930664 Z" stroke-miterlimit="10" stroke-width="0.5" stroke-dasharray=""/><text fill="#505050" stroke="none" font-family="monospace" font-size="14px" font-style="normal" font-weight="normal" text-decoration="normal" x="891.4795684814453" y="182.18051528930664" text-anchor="start" dominant-baseline="text-after-edge">acc</text><path fill="none" stroke="#505050" paint-order="fill stroke markers" d=" M 875.4795684814453 182.18051528930664 L 899.4795684814453 182.18051528930664 L 899.4795684814453 210.18051528930664 L 875.4795684814453 210.18051528930664 L 875.4795684814453 182.18051528930664 Z" stroke-miterlimit="10" stroke-width="0.5" stroke-dasharray=""/><path fill="none" stroke="#505050" paint-order="fill stroke markers" d=" M 875.4795684814453 186.18051528930664 L 883.4795684814453 186.18051528930664 L 883.4795684814453 194.18051528930664 L 875.4795684814453 194.18051528930664 L 875.4795684814453 186.18051528930664 Z" stroke-miterlimit="10" stroke-width="0.5" stroke-dasharray=""/><path fill="none" stroke="#505050" paint-order="fill stroke markers" d=" M 875.4795684814453 198.18051528930664 L 883.4795684814453 198.18051528930664 L 883.4795684814453 206.18051528930664 L 875.4795684814453 206.18051528930664 L 875.4795684814453 198.18051528930664 Z" stroke-miterlimit="10" stroke-width="0.5" stroke-dasharray=""/><path fill="none" stroke="#505050" paint-order="fill stroke markers" d=" M 891.4795684814453 186.18051528930664 L 899.4795684814453 186.18051528930664 L 899.4795684814453 194.18051528930664 L 891.4795684814453 194.18051528930664 L 891.4795684814453 186.18051528930664 Z" stroke-miterlimit="10" stroke-width="0.5" stroke-dasharray=""/><text fill="#505050" stroke="none" font-family="monospace" font-size="14px" font-style="normal" font-weight="normal" text-decoration="normal" x="907.4795684814453" y="205.18051528930664" text-anchor="start" dominant-baseline="text-after-edge">*</text><path fill="none" stroke="#505050" paint-order="fill stroke markers" d=" M 926.4795684814453 154.18051528930664 L 934.4795684814453 154.18051528930664 L 934.4795684814453 162.18051528930664 L 926.4795684814453 162.18051528930664 L 926.4795684814453 154.18051528930664 Z" stroke-miterlimit="10" stroke-width="0.5" stroke-dasharray=""/><path fill="white" stroke="#505050" paint-order="fill stroke markers" d=" M 947.8659210205078 149.92427444458008 L 955.8659210205078 149.92427444458008 L 963.8659210205078 157.92427444458008 L 955.8659210205078 165.92427444458008 L 947.8659210205078 165.92427444458008 L 947.8659210205078 149.92427444458008" stroke-miterlimit="10" stroke-width="0.5" stroke-dasharray=""/><path fill="none" stroke="#505050" paint-order="fill stroke markers" d=" M 947.8659210205078 153.92427444458008 L 955.8659210205078 153.92427444458008 L 955.8659210205078 161.92427444458008 L 947.8659210205078 161.92427444458008 L 947.8659210205078 153.92427444458008 Z" stroke-miterlimit="10" stroke-width="0.5" stroke-dasharray=""/><path fill="white" stroke="#505050" paint-order="fill stroke markers" d=" M 815.3795318603516 164.23678970336914 L 847.3795318603516 164.23678970336914 L 847.3795318603516 182.23678970336914 L 815.3795318603516 182.23678970336914 L 815.3795318603516 164.23678970336914 Z" stroke-miterlimit="10" stroke-width="0.5" stroke-dasharray=""/><path fill="#F0F0F0" stroke="none" paint-order="stroke fill markers" d=""/><path fill="none" stroke="#505050" paint-order="fill stroke markers" d=" M 839.3795318603516 169.23678970336914 L 847.3795318603516 169.23678970336914 L 847.3795318603516 177.23678970336914 L 839.3795318603516 177.23678970336914 L 839.3795318603516 169.23678970336914 Z" stroke-miterlimit="10" stroke-width="0.5" stroke-dasharray=""/><text fill="#505050" stroke="none" font-family="monospace" font-size="14px" font-style="normal" font-weight="normal" text-decoration="normal" x="831.3795318603516" y="182.23678970336914" text-anchor="end" dominant-baseline="text-after-edge">1</text><path fill="white" stroke="#505050" paint-order="fill stroke markers" d=" M 818.1670684814453 128.15552139282227 L 834.1670684814453 128.15552139282227 L 834.1670684814453 144.15552139282227 L 818.1670684814453 144.15552139282227 L 826.1670684814453 136.15552139282227 L 818.1670684814453 128.15552139282227" stroke-miterlimit="10" stroke-width="0.5" stroke-dasharray=""/><path fill="none" stroke="#505050" paint-order="fill stroke markers" d=" M 826.1670684814453 132.15552139282227 L 834.1670684814453 132.15552139282227 L 834.1670684814453 140.15552139282227 L 826.1670684814453 140.15552139282227 L 826.1670684814453 132.15552139282227 Z" stroke-miterlimit="10" stroke-width="0.5" stroke-dasharray=""/><path fill="none" stroke="none"/><path fill="white" stroke="#505050" paint-order="fill stroke markers" d=" M 816.5701034069061 215.20866012573242 L 848.5701034069061 215.20866012573242 L 856.5701034069061 240.20866012573242 L 848.5701034069061 265.2086601257324 L 816.5701034069061 265.2086601257324 L 816.5701034069061 215.20866012573242" stroke-miterlimit="10" stroke-width="0.5" stroke-dasharray=""/><path fill="white" stroke="#505050" paint-order="fill stroke markers" d=" M 824.5701034069061 219.20866012573242 L 848.5701034069061 219.20866012573242 L 848.5701034069061 261.2086601257324 L 824.5701034069061 261.2086601257324 L 824.5701034069061 219.20866012573242 Z" stroke-miterlimit="10" stroke-width="0.5" stroke-dasharray=""/><path fill="#F0F0F0" stroke="none" paint-order="stroke fill markers" d=""/><text fill="#505050" stroke="none" font-family="monospace" font-size="14px" font-style="normal" font-weight="normal" text-decoration="normal" x="836.5701034069061" y="237.20866012573242" text-anchor="middle" dominant-baseline="text-after-edge">*</text><path fill="none" stroke="#505050" paint-order="fill stroke markers" d=" M 824.5701034069061 237.20866012573242 L 832.5701034069061 237.20866012573242 L 832.5701034069061 245.20866012573242 L 824.5701034069061 245.20866012573242 L 824.5701034069061 237.20866012573242 Z" stroke-miterlimit="10" stroke-width="0.5" stroke-dasharray=""/><path fill="none" stroke="#505050" paint-order="fill stroke markers" d=" M 824.5701034069061 249.20866012573242 L 832.5701034069061 249.20866012573242 L 832.5701034069061 257.2086601257324 L 824.5701034069061 257.2086601257324 L 824.5701034069061 249.20866012573242 Z" stroke-miterlimit="10" stroke-width="0.5" stroke-dasharray=""/><path fill="none" stroke="#505050" paint-order="fill stroke markers" d=" M 840.5701034069061 237.20866012573242 L 848.5701034069061 237.20866012573242 L 848.5701034069061 245.20866012573242 L 840.5701034069061 245.20866012573242 L 840.5701034069061 237.20866012573242 Z" stroke-miterlimit="10" stroke-width="0.5" stroke-dasharray=""/><path fill="white" stroke="#505050" paint-order="fill stroke markers" d=" M 960.2586822509766 423.4654731750488 L 960.2586822509766 581.1289558410645 Q 960.2586822509766 589.1289558410645 968.2586822509766 589.1289558410645 L 1204.0712432861328 589.1289558410645 Q 1212.0712432861328 589.1289558410645 1212.0712432861328 581.1289558410645 L 1212.0712432861328 423.4654731750488 Q 1212.0712432861328 415.4654731750488 1204.0712432861328 415.4654731750488 L 968.2586822509766 415.4654731750488 Q 960.2586822509766 415.4654731750488 960.2586822509766 423.4654731750488" stroke-miterlimit="10" stroke-width="0.5" stroke-dasharray=""/><path fill="#F0F0F0" stroke="#505050" paint-order="fill stroke markers" d=" M 1137.0712432861328 423.4654731750488 L 1212.0712432861328 423.4654731750488 L 1212.0712432861328 467.4654731750488 L 1137.0712432861328 467.4654731750488 L 1137.0712432861328 423.4654731750488 Z" stroke-miterlimit="10" stroke-width="0.5" stroke-dasharray=""/><text fill="#505050" stroke="none" font-family="monospace" font-size="14px" font-style="normal" font-weight="normal" text-decoration="normal" x="1174.5712432861328" y="441.4654731750488" text-anchor="middle" dominant-baseline="text-after-edge">arraySum</text><path fill="none" stroke="#505050" paint-order="fill stroke markers" d=" M 1137.0712432861328 442.4654731750488 L 1145.0712432861328 442.4654731750488 L 1145.0712432861328 450.4654731750488 L 1137.0712432861328 450.4654731750488 L 1137.0712432861328 442.4654731750488 Z" stroke-miterlimit="10" stroke-width="0.5" stroke-dasharray=""/><text fill="#505050" stroke="none" font-family="monospace" font-size="14px" font-style="normal" font-weight="normal" text-decoration="normal" x="1153.0712432861328" y="455.4654731750488" text-anchor="start" dominant-baseline="text-after-edge">n</text><path fill="none" stroke="#505050" paint-order="fill stroke markers" d=" M 1137.0712432861328 455.4654731750488 L 1145.0712432861328 455.4654731750488 L 1145.0712432861328 463.4654731750488 L 1137.0712432861328 463.4654731750488 L 1137.0712432861328 455.4654731750488 Z" stroke-miterlimit="10" stroke-width="0.5" stroke-dasharray=""/><path fill="none" stroke="#505050" paint-order="fill stroke markers" d=" M 1204.0712432861328 441.4654731750488 L 1212.0712432861328 441.4654731750488 L 1212.0712432861328 449.4654731750488 L 1204.0712432861328 449.4654731750488 L 1204.0712432861328 441.4654731750488 Z" stroke-miterlimit="10" stroke-width="0.5" stroke-dasharray=""/><path fill="white" stroke="#505050" paint-order="fill stroke markers" d=" M 1038.1333770751953 423.85124588012695 L 1097.1333770751953 423.85124588012695 L 1097.1333770751953 501.85124588012695 L 1038.1333770751953 501.85124588012695 L 1038.1333770751953 423.85124588012695 Z" stroke-miterlimit="10" stroke-width="0.5" stroke-dasharray=""/><path fill="#F0F0F0" stroke="none" paint-order="stroke fill markers" d=""/><text fill="#505050" stroke="none" font-family="monospace" font-size="14px" font-style="normal" font-weight="normal" text-decoration="normal" x="1067.6333770751953" y="441.85124588012695" text-anchor="middle" dominant-baseline="text-after-edge">reduce</text><path fill="none" stroke="#505050" paint-order="fill stroke markers" d=" M 1038.1333770751953 442.85124588012695 L 1046.1333770751953 442.85124588012695 L 1046.1333770751953 450.85124588012695 L 1038.1333770751953 450.85124588012695 L 1038.1333770751953 442.85124588012695 Z" stroke-miterlimit="10" stroke-width="0.5" stroke-dasharray=""/><text fill="#505050" stroke="none" font-family="monospace" font-size="14px" font-style="normal" font-weight="normal" text-decoration="normal" x="1054.1333770751953" y="455.85124588012695" text-anchor="start" dominant-baseline="text-after-edge">n</text><path fill="none" stroke="#505050" paint-order="fill stroke markers" d=" M 1038.1333770751953 456.85124588012695 L 1046.1333770751953 456.85124588012695 L 1046.1333770751953 464.85124588012695 L 1038.1333770751953 464.85124588012695 L 1038.1333770751953 456.85124588012695 Z" stroke-miterlimit="10" stroke-width="0.5" stroke-dasharray=""/><text fill="#505050" stroke="none" font-family="monospace" font-size="14px" font-style="normal" font-weight="normal" text-decoration="normal" x="1054.1333770751953" y="469.85124588012695" text-anchor="start" dominant-baseline="text-after-edge">acc</text><path fill="none" stroke="#505050" paint-order="fill stroke markers" d=" M 1038.1333770751953 469.85124588012695 L 1062.1333770751953 469.85124588012695 L 1062.1333770751953 497.85124588012695 L 1038.1333770751953 497.85124588012695 L 1038.1333770751953 469.85124588012695 Z" stroke-miterlimit="10" stroke-width="0.5" stroke-dasharray=""/><path fill="none" stroke="#505050" paint-order="fill stroke markers" d=" M 1038.1333770751953 473.85124588012695 L 1046.1333770751953 473.85124588012695 L 1046.1333770751953 481.85124588012695 L 1038.1333770751953 481.85124588012695 L 1038.1333770751953 473.85124588012695 Z" stroke-miterlimit="10" stroke-width="0.5" stroke-dasharray=""/><path fill="none" stroke="#505050" paint-order="fill stroke markers" d=" M 1038.1333770751953 485.85124588012695 L 1046.1333770751953 485.85124588012695 L 1046.1333770751953 493.85124588012695 L 1038.1333770751953 493.85124588012695 L 1038.1333770751953 485.85124588012695 Z" stroke-miterlimit="10" stroke-width="0.5" stroke-dasharray=""/><path fill="none" stroke="#505050" paint-order="fill stroke markers" d=" M 1054.1333770751953 473.85124588012695 L 1062.1333770751953 473.85124588012695 L 1062.1333770751953 481.85124588012695 L 1054.1333770751953 481.85124588012695 L 1054.1333770751953 473.85124588012695 Z" stroke-miterlimit="10" stroke-width="0.5" stroke-dasharray=""/><text fill="#505050" stroke="none" font-family="monospace" font-size="14px" font-style="normal" font-weight="normal" text-decoration="normal" x="1070.1333770751953" y="492.85124588012695" text-anchor="start" dominant-baseline="text-after-edge">*</text><path fill="none" stroke="#505050" paint-order="fill stroke markers" d=" M 1089.1333770751953 441.85124588012695 L 1097.1333770751953 441.85124588012695 L 1097.1333770751953 449.85124588012695 L 1089.1333770751953 449.85124588012695 L 1089.1333770751953 441.85124588012695 Z" stroke-miterlimit="10" stroke-width="0.5" stroke-dasharray=""/><path fill="white" stroke="#505050" paint-order="fill stroke markers" d=" M 1112.3980865478516 438.1568183898926 L 1120.3980865478516 438.1568183898926 L 1128.3980865478516 446.1568183898926 L 1120.3980865478516 454.1568183898926 L 1112.3980865478516 454.1568183898926 L 1112.3980865478516 438.1568183898926" stroke-miterlimit="10" stroke-width="0.5" stroke-dasharray=""/><path fill="none" stroke="#505050" paint-order="fill stroke markers" d=" M 1112.3980865478516 442.1568183898926 L 1120.3980865478516 442.1568183898926 L 1120.3980865478516 450.1568183898926 L 1112.3980865478516 450.1568183898926 L 1112.3980865478516 442.1568183898926 Z" stroke-miterlimit="10" stroke-width="0.5" stroke-dasharray=""/><path fill="white" stroke="#505050" paint-order="fill stroke markers" d=" M 967.5617828369141 460.5467414855957 L 999.5617828369141 460.5467414855957 L 999.5617828369141 478.5467414855957 L 967.5617828369141 478.5467414855957 L 967.5617828369141 460.5467414855957 Z" stroke-miterlimit="10" stroke-width="0.5" stroke-dasharray=""/><path fill="#F0F0F0" stroke="none" paint-order="stroke fill markers" d=""/><path fill="none" stroke="#505050" paint-order="fill stroke markers" d=" M 991.5617828369141 465.5467414855957 L 999.5617828369141 465.5467414855957 L 999.5617828369141 473.5467414855957 L 991.5617828369141 473.5467414855957 L 991.5617828369141 465.5467414855957 Z" stroke-miterlimit="10" stroke-width="0.5" stroke-dasharray=""/><text fill="#505050" stroke="none" font-family="monospace" font-size="14px" font-style="normal" font-weight="normal" text-decoration="normal" x="983.5617828369141" y="478.5467414855957" text-anchor="end" dominant-baseline="text-after-edge">1</text><path fill="white" stroke="#505050" paint-order="fill stroke markers" d=" M 970.3493194580078 424.4654731750488 L 1002.3493194580078 424.4654731750488 L 1002.3493194580078 442.4654731750488 L 970.3493194580078 442.4654731750488 L 978.3493194580078 433.4654731750488 L 970.3493194580078 424.4654731750488" stroke-miterlimit="10" stroke-width="0.5" stroke-dasharray=""/><path fill="none" stroke="#505050" paint-order="fill stroke markers" d=" M 994.3493194580078 429.4654731750488 L 1002.3493194580078 429.4654731750488 L 1002.3493194580078 437.4654731750488 L 994.3493194580078 437.4654731750488 L 994.3493194580078 429.4654731750488 Z" stroke-miterlimit="10" stroke-width="0.5" stroke-dasharray=""/><text fill="#505050" stroke="none" font-family="monospace" font-size="14px" font-style="normal" font-weight="normal" text-decoration="normal" x="986.3493194580078" y="442.4654731750488" text-anchor="end" dominant-baseline="text-after-edge">n</text><path fill="white" stroke="#505050" paint-order="fill stroke markers" d=" M 967.3527374267578 525.8227119445801 L 983.3527374267578 525.8227119445801 L 983.3527374267578 541.8227119445801 L 967.3527374267578 541.8227119445801 L 975.3527374267578 533.8227119445801 L 967.3527374267578 525.8227119445801" stroke-miterlimit="10" stroke-width="0.5" stroke-dasharray=""/><path fill="none" stroke="#505050" paint-order="fill stroke markers" d=" M 975.3527374267578 529.8227119445801 L 983.3527374267578 529.8227119445801 L 983.3527374267578 537.8227119445801 L 975.3527374267578 537.8227119445801 L 975.3527374267578 529.8227119445801 Z" stroke-miterlimit="10" stroke-width="0.5" stroke-dasharray=""/><path fill="white" stroke="#505050" paint-order="fill stroke markers" d=" M 995.730785369873 512.1633491516113 L 1035.730785369873 512.1633491516113 L 1035.730785369873 562.1633491516113 L 995.730785369873 562.1633491516113 L 995.730785369873 512.1633491516113 Z" stroke-miterlimit="10" stroke-width="0.5" stroke-dasharray=""/><path fill="#F0F0F0" stroke="none" paint-order="stroke fill markers" d=" M 1011.730785369873 530.1633491516113 L 1035.730785369873 530.1633491516113 L 1035.730785369873 558.1633491516113 L 1011.730785369873 558.1633491516113 L 1011.730785369873 530.1633491516113 Z"/><text fill="#505050" stroke="none" font-family="monospace" font-size="14px" font-style="normal" font-weight="normal" text-decoration="normal" x="1015.730785369873" y="530.1633491516113" text-anchor="middle" dominant-baseline="text-after-edge">add</text><path fill="none" stroke="#505050" paint-order="fill stroke markers" d=" M 995.730785369873 530.1633491516113 L 1003.730785369873 530.1633491516113 L 1003.730785369873 538.1633491516113 L 995.730785369873 538.1633491516113 L 995.730785369873 530.1633491516113 Z" stroke-miterlimit="10" stroke-width="0.5" stroke-dasharray=""/><path fill="none" stroke="#505050" paint-order="fill stroke markers" d=" M 1011.730785369873 530.1633491516113 L 1035.730785369873 530.1633491516113 L 1035.730785369873 558.1633491516113 L 1011.730785369873 558.1633491516113 L 1011.730785369873 530.1633491516113 Z" stroke-miterlimit="10" stroke-width="0.5" stroke-dasharray=""/><path fill="none" stroke="#505050" paint-order="fill stroke markers" d=" M 1011.730785369873 534.1633491516113 L 1019.730785369873 534.1633491516113 L 1019.730785369873 542.1633491516113 L 1011.730785369873 542.1633491516113 L 1011.730785369873 534.1633491516113 Z" stroke-miterlimit="10" stroke-width="0.5" stroke-dasharray=""/><path fill="none" stroke="#505050" paint-order="fill stroke markers" d=" M 1011.730785369873 546.1633491516113 L 1019.730785369873 546.1633491516113 L 1019.730785369873 554.1633491516113 L 1011.730785369873 554.1633491516113 L 1011.730785369873 546.1633491516113 Z" stroke-miterlimit="10" stroke-width="0.5" stroke-dasharray=""/><path fill="none" stroke="#505050" paint-order="fill stroke markers" d=" M 1027.730785369873 534.1633491516113 L 1035.730785369873 534.1633491516113 L 1035.730785369873 542.1633491516113 L 1027.730785369873 542.1633491516113 L 1027.730785369873 534.1633491516113 Z" stroke-miterlimit="10" stroke-width="0.5" stroke-dasharray=""/><path fill="white" stroke="#505050" paint-order="fill stroke markers" d=" M 371.97996520996094 367.61698761582375 L 371.97996520996094 641.7909603118896 Q 371.97996520996094 649.7909603118896 379.97996520996094 649.7909603118896 L 634.5345916748047 649.7909603118896 Q 642.5345916748047 649.7909603118896 642.5345916748047 641.7909603118896 L 642.5345916748047 367.61698761582375 Q 642.5345916748047 359.61698761582375 634.5345916748047 359.61698761582375 L 379.97996520996094 359.61698761582375 Q 371.97996520996094 359.61698761582375 371.97996520996094 367.61698761582375" stroke-miterlimit="10" stroke-width="0.5" stroke-dasharray=""/><path fill="#F0F0F0" stroke="#505050" paint-order="fill stroke markers" d=" M 551.5345916748047 367.61698761582375 L 642.5345916748047 367.61698761582375 L 642.5345916748047 417.61698761582375 L 551.5345916748047 417.61698761582375 L 551.5345916748047 367.61698761582375 Z" stroke-miterlimit="10" stroke-width="0.5" stroke-dasharray=""/><path fill="none" stroke="#505050" paint-order="fill stroke markers" d=" M 551.5345916748047 371.61698761582375 L 559.5345916748047 371.61698761582375 L 559.5345916748047 379.61698761582375 L 551.5345916748047 379.61698761582375 L 551.5345916748047 371.61698761582375 Z" stroke-miterlimit="10" stroke-width="0.5" stroke-dasharray=""/><path fill="none" stroke="#505050" paint-order="fill stroke markers" d=" M 567.5345916748047 371.61698761582375 L 642.5345916748047 371.61698761582375 L 642.5345916748047 413.61698761582375 L 567.5345916748047 413.61698761582375 L 567.5345916748047 371.61698761582375 Z" stroke-miterlimit="10" stroke-width="0.5" stroke-dasharray=""/><text fill="#505050" stroke="none" font-family="monospace" font-size="14px" font-style="normal" font-weight="normal" text-decoration="normal" x="605.0345916748047" y="389.61698761582375" text-anchor="middle" dominant-baseline="text-after-edge">a[i]+acc</text><path fill="none" stroke="#505050" paint-order="fill stroke markers" d=" M 567.5345916748047 389.61698761582375 L 575.5345916748047 389.61698761582375 L 575.5345916748047 397.61698761582375 L 567.5345916748047 397.61698761582375 L 567.5345916748047 389.61698761582375 Z" stroke-miterlimit="10" stroke-width="0.5" stroke-dasharray=""/><path fill="none" stroke="#505050" paint-order="fill stroke markers" d=" M 567.5345916748047 401.61698761582375 L 575.5345916748047 401.61698761582375 L 575.5345916748047 409.61698761582375 L 567.5345916748047 409.61698761582375 L 567.5345916748047 401.61698761582375 Z" stroke-miterlimit="10" stroke-width="0.5" stroke-dasharray=""/><path fill="none" stroke="#505050" paint-order="fill stroke markers" d=" M 634.5345916748047 389.61698761582375 L 642.5345916748047 389.61698761582375 L 642.5345916748047 397.61698761582375 L 634.5345916748047 397.61698761582375 L 634.5345916748047 389.61698761582375 Z" stroke-miterlimit="10" stroke-width="0.5" stroke-dasharray=""/><path fill="white" stroke="#505050" paint-order="fill stroke markers" d=" M 404.52455139160156 436.648542791605 L 404.52455139160156 625.7909603118896 Q 404.52455139160156 633.7909603118896 412.52455139160156 633.7909603118896 L 588.9208221435547 633.7909603118896 Q 596.9208221435547 633.7909603118896 596.9208221435547 625.7909603118896 L 596.9208221435547 436.648542791605 Q 596.9208221435547 428.648542791605 588.9208221435547 428.648542791605 L 412.52455139160156 428.648542791605 Q 404.52455139160156 428.648542791605 404.52455139160156 436.648542791605" stroke-miterlimit="10" stroke-width="0.5" stroke-dasharray=""/><path fill="#F0F0F0" stroke="#505050" paint-order="fill stroke markers" d=" M 521.9208221435547 436.648542791605 L 596.9208221435547 436.648542791605 L 596.9208221435547 478.648542791605 L 521.9208221435547 478.648542791605 L 521.9208221435547 436.648542791605 Z" stroke-miterlimit="10" stroke-width="0.5" stroke-dasharray=""/><text fill="#505050" stroke="none" font-family="monospace" font-size="14px" font-style="normal" font-weight="normal" text-decoration="normal" x="559.4208221435547" y="454.648542791605" text-anchor="middle" dominant-baseline="text-after-edge">a[i]+acc</text><path fill="none" stroke="#505050" paint-order="fill stroke markers" d=" M 521.9208221435547 454.648542791605 L 529.9208221435547 454.648542791605 L 529.9208221435547 462.648542791605 L 521.9208221435547 462.648542791605 L 521.9208221435547 454.648542791605 Z" stroke-miterlimit="10" stroke-width="0.5" stroke-dasharray=""/><path fill="none" stroke="#505050" paint-order="fill stroke markers" d=" M 521.9208221435547 466.648542791605 L 529.9208221435547 466.648542791605 L 529.9208221435547 474.648542791605 L 521.9208221435547 474.648542791605 L 521.9208221435547 466.648542791605 Z" stroke-miterlimit="10" stroke-width="0.5" stroke-dasharray=""/><path fill="none" stroke="#505050" paint-order="fill stroke markers" d=" M 588.9208221435547 454.648542791605 L 596.9208221435547 454.648542791605 L 596.9208221435547 462.648542791605 L 588.9208221435547 462.648542791605 L 588.9208221435547 454.648542791605 Z" stroke-miterlimit="10" stroke-width="0.5" stroke-dasharray=""/><path fill="white" stroke="#505050" paint-order="fill stroke markers" d=" M 419.9120788574219 435.3079208433628 L 502.9120788574219 435.3079208433628 L 502.9120788574219 547.3079208433628 L 419.9120788574219 547.3079208433628 L 419.9120788574219 435.3079208433628 Z" stroke-miterlimit="10" stroke-width="0.5" stroke-dasharray=""/><path fill="#F0F0F0" stroke="none" paint-order="stroke fill markers" d=" M 443.9120788574219 467.3079208433628 L 502.9120788574219 467.3079208433628 L 502.9120788574219 497.3079208433628 L 443.9120788574219 497.3079208433628 L 443.9120788574219 467.3079208433628 Z M 435.9120788574219 501.3079208433628 L 502.9120788574219 501.3079208433628 L 502.9120788574219 543.3079208433628 L 435.9120788574219 543.3079208433628 L 435.9120788574219 501.3079208433628 Z"/><text fill="#505050" stroke="none" font-family="monospace" font-size="14px" font-style="normal" font-weight="normal" text-decoration="normal" x="461.4120788574219" y="453.3079208433628" text-anchor="middle" dominant-baseline="text-after-edge">Array</text><path fill="none" stroke="#505050" paint-order="fill stroke markers" d=" M 419.9120788574219 453.3079208433628 L 427.9120788574219 453.3079208433628 L 427.9120788574219 461.3079208433628 L 419.9120788574219 461.3079208433628 L 419.9120788574219 453.3079208433628 Z" stroke-miterlimit="10" stroke-width="0.5" stroke-dasharray=""/><path fill="none" stroke="#505050" paint-order="fill stroke markers" d=" M 494.9120788574219 454.3079208433628 L 502.9120788574219 454.3079208433628 L 502.9120788574219 462.3079208433628 L 494.9120788574219 462.3079208433628 L 494.9120788574219 454.3079208433628 Z" stroke-miterlimit="10" stroke-width="0.5" stroke-dasharray=""/><text fill="#505050" stroke="none" font-family="monospace" font-size="14px" font-style="normal" font-weight="normal" text-decoration="normal" x="486.9120788574219" y="467.3079208433628" text-anchor="end" dominant-baseline="text-after-edge">length</text><path fill="none" stroke="#505050" paint-order="fill stroke markers" d=" M 443.9120788574219 467.3079208433628 L 502.9120788574219 467.3079208433628 L 502.9120788574219 497.3079208433628 L 443.9120788574219 497.3079208433628 L 443.9120788574219 467.3079208433628 Z" stroke-miterlimit="10" stroke-width="0.5" stroke-dasharray=""/><text fill="#505050" stroke="none" font-family="monospace" font-size="14px" font-style="normal" font-weight="normal" text-decoration="normal" x="473.4120788574219" y="485.3079208433628" text-anchor="middle" dominant-baseline="text-after-edge">get[i]</text><path fill="none" stroke="#505050" paint-order="fill stroke markers" d=" M 443.9120788574219 485.3079208433628 L 451.9120788574219 485.3079208433628 L 451.9120788574219 493.3079208433628 L 443.9120788574219 493.3079208433628 L 443.9120788574219 485.3079208433628 Z" stroke-miterlimit="10" stroke-width="0.5" stroke-dasharray=""/><path fill="none" stroke="#505050" paint-order="fill stroke markers" d=" M 494.9120788574219 485.3079208433628 L 502.9120788574219 485.3079208433628 L 502.9120788574219 493.3079208433628 L 494.9120788574219 493.3079208433628 L 494.9120788574219 485.3079208433628 Z" stroke-miterlimit="10" stroke-width="0.5" stroke-dasharray=""/><path fill="none" stroke="#505050" paint-order="fill stroke markers" d=" M 435.9120788574219 501.3079208433628 L 502.9120788574219 501.3079208433628 L 502.9120788574219 543.3079208433628 L 435.9120788574219 543.3079208433628 L 435.9120788574219 501.3079208433628 Z" stroke-miterlimit="10" stroke-width="0.5" stroke-dasharray=""/><text fill="#505050" stroke="none" font-family="monospace" font-size="14px" font-style="normal" font-weight="normal" text-decoration="normal" x="469.4120788574219" y="519.3079208433628" text-anchor="middle" dominant-baseline="text-after-edge">set[i]]</text><path fill="none" stroke="#505050" paint-order="fill stroke markers" d=" M 435.9120788574219 519.3079208433628 L 443.9120788574219 519.3079208433628 L 443.9120788574219 527.3079208433628 L 435.9120788574219 527.3079208433628 L 435.9120788574219 519.3079208433628 Z" stroke-miterlimit="10" stroke-width="0.5" stroke-dasharray=""/><path fill="none" stroke="#505050" paint-order="fill stroke markers" d=" M 435.9120788574219 531.3079208433628 L 443.9120788574219 531.3079208433628 L 443.9120788574219 539.3079208433628 L 435.9120788574219 539.3079208433628 L 435.9120788574219 531.3079208433628 Z" stroke-miterlimit="10" stroke-width="0.5" stroke-dasharray=""/><path fill="none" stroke="#505050" paint-order="fill stroke markers" d=" M 494.9120788574219 519.3079208433628 L 502.9120788574219 519.3079208433628 L 502.9120788574219 527.3079208433628 L 494.9120788574219 527.3079208433628 L 494.9120788574219 519.3079208433628 Z" stroke-miterlimit="10" stroke-width="0.5" stroke-dasharray=""/><path fill="white" stroke="#505050" paint-order="fill stroke markers" d=" M 418.56532287597656 586.376953125 L 434.56532287597656 586.376953125 L 434.56532287597656 602.376953125 L 418.56532287597656 602.376953125 L 426.56532287597656 594.376953125 L 418.56532287597656 586.376953125" stroke-miterlimit="10" stroke-width="0.5" stroke-dasharray=""/><path fill="none" stroke="#505050" paint-order="fill stroke markers" d=" M 426.56532287597656 590.376953125 L 434.56532287597656 590.376953125 L 434.56532287597656 598.376953125 L 426.56532287597656 598.376953125 L 426.56532287597656 590.376953125 Z" stroke-miterlimit="10" stroke-width="0.5" stroke-dasharray=""/><path fill="white" stroke="#505050" paint-order="fill stroke markers" d=" M 564.9208221435547 557.7587738037109 L 572.9208221435547 557.7587738037109 L 580.9208221435547 565.7587738037109 L 572.9208221435547 573.7587738037109 L 564.9208221435547 573.7587738037109 L 564.9208221435547 557.7587738037109" stroke-miterlimit="10" stroke-width="0.5" stroke-dasharray=""/><path fill="none" stroke="#505050" paint-order="fill stroke markers" d=" M 564.9208221435547 561.7587738037109 L 572.9208221435547 561.7587738037109 L 572.9208221435547 569.7587738037109 L 564.9208221435547 569.7587738037109 L 564.9208221435547 561.7587738037109 Z" stroke-miterlimit="10" stroke-width="0.5" stroke-dasharray=""/><path fill="white" stroke="#505050" paint-order="fill stroke markers" d=" M 528.7866058349609 542.9012336730957 L 552.7866058349609 542.9012336730957 L 552.7866058349609 584.9012336730957 L 528.7866058349609 584.9012336730957 L 528.7866058349609 542.9012336730957 Z" stroke-miterlimit="10" stroke-width="0.5" stroke-dasharray=""/><path fill="#F0F0F0" stroke="none" paint-order="stroke fill markers" d=""/><text fill="#505050" stroke="none" font-family="monospace" font-size="14px" font-style="normal" font-weight="normal" text-decoration="normal" x="540.7866058349609" y="560.9012336730957" text-anchor="middle" dominant-baseline="text-after-edge">+</text><path fill="none" stroke="#505050" paint-order="fill stroke markers" d=" M 528.7866058349609 560.9012336730957 L 536.7866058349609 560.9012336730957 L 536.7866058349609 568.9012336730957 L 528.7866058349609 568.9012336730957 L 528.7866058349609 560.9012336730957 Z" stroke-miterlimit="10" stroke-width="0.5" stroke-dasharray=""/><path fill="none" stroke="#505050" paint-order="fill stroke markers" d=" M 528.7866058349609 572.9012336730957 L 536.7866058349609 572.9012336730957 L 536.7866058349609 580.9012336730957 L 528.7866058349609 580.9012336730957 L 528.7866058349609 572.9012336730957 Z" stroke-miterlimit="10" stroke-width="0.5" stroke-dasharray=""/><path fill="none" stroke="#505050" paint-order="fill stroke markers" d=" M 544.7866058349609 560.9012336730957 L 552.7866058349609 560.9012336730957 L 552.7866058349609 568.9012336730957 L 544.7866058349609 568.9012336730957 L 544.7866058349609 560.9012336730957 Z" stroke-miterlimit="10" stroke-width="0.5" stroke-dasharray=""/><path fill="white" stroke="#505050" paint-order="fill stroke markers" d=" M 421.45909118652344 562.9738464355469 L 437.45909118652344 562.9738464355469 L 437.45909118652344 578.9738464355469 L 421.45909118652344 578.9738464355469 L 429.45909118652344 570.9738464355469 L 421.45909118652344 562.9738464355469" stroke-miterlimit="10" stroke-width="0.5" stroke-dasharray=""/><path fill="none" stroke="#505050" paint-order="fill stroke markers" d=" M 429.45909118652344 566.9738464355469 L 437.45909118652344 566.9738464355469 L 437.45909118652344 574.9738464355469 L 429.45909118652344 574.9738464355469 L 429.45909118652344 566.9738464355469 Z" stroke-miterlimit="10" stroke-width="0.5" stroke-dasharray=""/><path fill="white" stroke="#505050" paint-order="fill stroke markers" d=" M 453.392840385437 587.7909603118896 L 512.392840385437 587.7909603118896 L 512.392840385437 617.7909603118896 L 453.392840385437 617.7909603118896 L 453.392840385437 587.7909603118896 Z" stroke-miterlimit="10" stroke-width="0.5" stroke-dasharray=""/><path fill="#F0F0F0" stroke="none" paint-order="stroke fill markers" d=""/><text fill="#505050" stroke="none" font-family="monospace" font-size="14px" font-style="normal" font-weight="normal" text-decoration="normal" x="482.892840385437" y="605.7909603118896" text-anchor="middle" dominant-baseline="text-after-edge">get[i]</text><path fill="none" stroke="#505050" paint-order="fill stroke markers" d=" M 453.392840385437 605.7909603118896 L 461.392840385437 605.7909603118896 L 461.392840385437 613.7909603118896 L 453.392840385437 613.7909603118896 L 453.392840385437 605.7909603118896 Z" stroke-miterlimit="10" stroke-width="0.5" stroke-dasharray=""/><path fill="none" stroke="#505050" paint-order="fill stroke markers" d=" M 504.392840385437 605.7909603118896 L 512.392840385437 605.7909603118896 L 512.392840385437 613.7909603118896 L 504.392840385437 613.7909603118896 L 504.392840385437 605.7909603118896 Z" stroke-miterlimit="10" stroke-width="0.5" stroke-dasharray=""/><path fill="white" stroke="#505050" paint-order="fill stroke markers" d=" M 377.06407165527344 447.31886291503906 L 393.06407165527344 447.31886291503906 L 393.06407165527344 463.31886291503906 L 377.06407165527344 463.31886291503906 L 385.06407165527344 455.31886291503906 L 377.06407165527344 447.31886291503906" stroke-miterlimit="10" stroke-width="0.5" stroke-dasharray=""/><path fill="none" stroke="#505050" paint-order="fill stroke markers" d=" M 385.06407165527344 451.31886291503906 L 393.06407165527344 451.31886291503906 L 393.06407165527344 459.31886291503906 L 385.06407165527344 459.31886291503906 L 385.06407165527344 451.31886291503906 Z" stroke-miterlimit="10" stroke-width="0.5" stroke-dasharray=""/><path fill="white" stroke="#505050" paint-order="fill stroke markers" d=" M 610.5345916748047 448.65791168808937 L 618.5345916748047 448.65791168808937 L 626.5345916748047 456.65791168808937 L 618.5345916748047 464.65791168808937 L 610.5345916748047 464.65791168808937 L 610.5345916748047 448.65791168808937" stroke-miterlimit="10" stroke-width="0.5" stroke-dasharray=""/><path fill="none" stroke="#505050" paint-order="fill stroke markers" d=" M 610.5345916748047 452.65791168808937 L 618.5345916748047 452.65791168808937 L 618.5345916748047 460.65791168808937 L 610.5345916748047 460.65791168808937 L 610.5345916748047 452.65791168808937 Z" stroke-miterlimit="10" stroke-width="0.5" stroke-dasharray=""/><path fill="white" stroke="#505050" paint-order="fill stroke markers" d=" M 664.461742401123 449.88122177124023 L 664.461742401123 552.348697334528 Q 664.461742401123 560.348697334528 672.461742401123 560.348697334528 L 927.0704069137573 560.348697334528 Q 935.0704069137573 560.348697334528 935.0704069137573 552.348697334528 L 935.0704069137573 449.88122177124023 Q 935.0704069137573 441.88122177124023 927.0704069137573 441.88122177124023 L 672.461742401123 441.88122177124023 Q 664.461742401123 441.88122177124023 664.461742401123 449.88122177124023" stroke-miterlimit="10" stroke-width="0.5" stroke-dasharray=""/><path fill="#F0F0F0" stroke="#505050" paint-order="fill stroke markers" d=" M 895.0704069137573 449.88122177124023 L 935.0704069137573 449.88122177124023 L 935.0704069137573 499.88122177124023 L 895.0704069137573 499.88122177124023 L 895.0704069137573 449.88122177124023 Z" stroke-miterlimit="10" stroke-width="0.5" stroke-dasharray=""/><text fill="#505050" stroke="none" font-family="monospace" font-size="14px" font-style="normal" font-weight="normal" text-decoration="normal" x="915.0704069137573" y="467.88122177124023" text-anchor="middle" dominant-baseline="text-after-edge">add</text><path fill="none" stroke="#505050" paint-order="fill stroke markers" d=" M 895.0704069137573 467.88122177124023 L 903.0704069137573 467.88122177124023 L 903.0704069137573 475.88122177124023 L 895.0704069137573 475.88122177124023 L 895.0704069137573 467.88122177124023 Z" stroke-miterlimit="10" stroke-width="0.5" stroke-dasharray=""/><path fill="none" stroke="#505050" paint-order="fill stroke markers" d=" M 911.0704069137573 467.88122177124023 L 935.0704069137573 467.88122177124023 L 935.0704069137573 495.88122177124023 L 911.0704069137573 495.88122177124023 L 911.0704069137573 467.88122177124023 Z" stroke-miterlimit="10" stroke-width="0.5" stroke-dasharray=""/><path fill="none" stroke="#505050" paint-order="fill stroke markers" d=" M 911.0704069137573 471.88122177124023 L 919.0704069137573 471.88122177124023 L 919.0704069137573 479.88122177124023 L 911.0704069137573 479.88122177124023 L 911.0704069137573 471.88122177124023 Z" stroke-miterlimit="10" stroke-width="0.5" stroke-dasharray=""/><path fill="none" stroke="#505050" paint-order="fill stroke markers" d=" M 911.0704069137573 483.88122177124023 L 919.0704069137573 483.88122177124023 L 919.0704069137573 491.88122177124023 L 911.0704069137573 491.88122177124023 L 911.0704069137573 483.88122177124023 Z" stroke-miterlimit="10" stroke-width="0.5" stroke-dasharray=""/><path fill="none" stroke="#505050" paint-order="fill stroke markers" d=" M 927.0704069137573 471.88122177124023 L 935.0704069137573 471.88122177124023 L 935.0704069137573 479.88122177124023 L 927.0704069137573 479.88122177124023 L 927.0704069137573 471.88122177124023 Z" stroke-miterlimit="10" stroke-width="0.5" stroke-dasharray=""/><path fill="white" stroke="#505050" paint-order="fill stroke markers" d=" M 666.3132658004761 509.7107810974121 L 682.3132658004761 509.7107810974121 L 682.3132658004761 525.7107810974121 L 666.3132658004761 525.7107810974121 L 674.3132658004761 517.7107810974121 L 666.3132658004761 509.7107810974121" stroke-miterlimit="10" stroke-width="0.5" stroke-dasharray=""/><path fill="none" stroke="#505050" paint-order="fill stroke markers" d=" M 674.3132658004761 513.7107810974121 L 682.3132658004761 513.7107810974121 L 682.3132658004761 521.7107810974121 L 674.3132658004761 521.7107810974121 L 674.3132658004761 513.7107810974121 Z" stroke-miterlimit="10" stroke-width="0.5" stroke-dasharray=""/><path fill="white" stroke="#505050" paint-order="fill stroke markers" d=" M 693.8658561706543 454.89785385131836 L 784.8658561706543 454.89785385131836 L 784.8658561706543 504.89785385131836 L 693.8658561706543 504.89785385131836 L 693.8658561706543 454.89785385131836 Z" stroke-miterlimit="10" stroke-width="0.5" stroke-dasharray=""/><path fill="#F0F0F0" stroke="none" paint-order="stroke fill markers" d=" M 709.8658561706543 458.89785385131836 L 784.8658561706543 458.89785385131836 L 784.8658561706543 500.89785385131836 L 709.8658561706543 500.89785385131836 L 709.8658561706543 458.89785385131836 Z"/><path fill="none" stroke="#505050" paint-order="fill stroke markers" d=" M 693.8658561706543 458.89785385131836 L 701.8658561706543 458.89785385131836 L 701.8658561706543 466.89785385131836 L 693.8658561706543 466.89785385131836 L 693.8658561706543 458.89785385131836 Z" stroke-miterlimit="10" stroke-width="0.5" stroke-dasharray=""/><path fill="none" stroke="#505050" paint-order="fill stroke markers" d=" M 709.8658561706543 458.89785385131836 L 784.8658561706543 458.89785385131836 L 784.8658561706543 500.89785385131836 L 709.8658561706543 500.89785385131836 L 709.8658561706543 458.89785385131836 Z" stroke-miterlimit="10" stroke-width="0.5" stroke-dasharray=""/><text fill="#505050" stroke="none" font-family="monospace" font-size="14px" font-style="normal" font-weight="normal" text-decoration="normal" x="747.3658561706543" y="476.89785385131836" text-anchor="middle" dominant-baseline="text-after-edge">a[i]+acc</text><path fill="none" stroke="#505050" paint-order="fill stroke markers" d=" M 709.8658561706543 476.89785385131836 L 717.8658561706543 476.89785385131836 L 717.8658561706543 484.89785385131836 L 709.8658561706543 484.89785385131836 L 709.8658561706543 476.89785385131836 Z" stroke-miterlimit="10" stroke-width="0.5" stroke-dasharray=""/><path fill="none" stroke="#505050" paint-order="fill stroke markers" d=" M 709.8658561706543 488.89785385131836 L 717.8658561706543 488.89785385131836 L 717.8658561706543 496.89785385131836 L 709.8658561706543 496.89785385131836 L 709.8658561706543 488.89785385131836 Z" stroke-miterlimit="10" stroke-width="0.5" stroke-dasharray=""/><path fill="none" stroke="#505050" paint-order="fill stroke markers" d=" M 776.8658561706543 476.89785385131836 L 784.8658561706543 476.89785385131836 L 784.8658561706543 484.89785385131836 L 776.8658561706543 484.89785385131836 L 776.8658561706543 476.89785385131836 Z" stroke-miterlimit="10" stroke-width="0.5" stroke-dasharray=""/><path fill="none" stroke="none"/><path fill="white" stroke="#505050" paint-order="fill stroke markers" d=" M 801.6047697067261 494.34869733452797 L 884.6047697067261 494.34869733452797 L 892.6047697067261 519.348697334528 L 884.6047697067261 544.348697334528 L 801.6047697067261 544.348697334528 L 801.6047697067261 494.34869733452797" stroke-miterlimit="10" stroke-width="0.5" stroke-dasharray=""/><path fill="white" stroke="#505050" paint-order="fill stroke markers" d=" M 809.6047697067261 498.34869733452797 L 884.6047697067261 498.34869733452797 L 884.6047697067261 540.348697334528 L 809.6047697067261 540.348697334528 L 809.6047697067261 498.34869733452797 Z" stroke-miterlimit="10" stroke-width="0.5" stroke-dasharray=""/><path fill="#F0F0F0" stroke="none" paint-order="stroke fill markers" d=""/><text fill="#505050" stroke="none" font-family="monospace" font-size="14px" font-style="normal" font-weight="normal" text-decoration="normal" x="847.1047697067261" y="516.348697334528" text-anchor="middle" dominant-baseline="text-after-edge">a[i]+acc</text><path fill="none" stroke="#505050" paint-order="fill stroke markers" d=" M 809.6047697067261 516.348697334528 L 817.6047697067261 516.348697334528 L 817.6047697067261 524.348697334528 L 809.6047697067261 524.348697334528 L 809.6047697067261 516.348697334528 Z" stroke-miterlimit="10" stroke-width="0.5" stroke-dasharray=""/><path fill="none" stroke="#505050" paint-order="fill stroke markers" d=" M 809.6047697067261 528.348697334528 L 817.6047697067261 528.348697334528 L 817.6047697067261 536.348697334528 L 809.6047697067261 536.348697334528 L 809.6047697067261 528.348697334528 Z" stroke-miterlimit="10" stroke-width="0.5" stroke-dasharray=""/><path fill="none" stroke="#505050" paint-order="fill stroke markers" d=" M 876.6047697067261 516.348697334528 L 884.6047697067261 516.348697334528 L 884.6047697067261 524.348697334528 L 876.6047697067261 524.348697334528 L 876.6047697067261 516.348697334528 Z" stroke-miterlimit="10" stroke-width="0.5" stroke-dasharray=""/><path fill="#e0e0e0" stroke="none" paint-order="stroke fill markers" d=" M 792.8658561706543 479.89785385131836 L 784.8658561706543 458.89785385131836 L 784.8658561706543 500.89785385131836 Z M 801.6047697067261 519.348697334528 L 809.6047697067261 498.34869733452797 L 809.6047697067261 540.348697334528 Z"/><path fill="none" stroke="none"/><path fill="none" stroke="#e0e0e0" paint-order="fill stroke markers" d=" M 792.8658561706543 479.89785385131836 C 804.9880007630723 479.89785385131836 789.4826251143081 519.348697334528 801.6047697067261 519.348697334528" stroke-miterlimit="10" stroke-width="2" stroke-dasharray=""/><path fill="white" stroke="#505050" paint-order="fill stroke markers" d=" M 897.5500144958496 504.4812469482422 L 905.5500144958496 504.4812469482422 L 913.5500144958496 512.4812469482422 L 905.5500144958496 520.4812469482422 L 897.5500144958496 520.4812469482422 L 897.5500144958496 504.4812469482422" stroke-miterlimit="10" stroke-width="0.5" stroke-dasharray=""/><path fill="none" stroke="#505050" paint-order="fill stroke markers" d=" M 897.5500144958496 508.4812469482422 L 905.5500144958496 508.4812469482422 L 905.5500144958496 516.4812469482422 L 897.5500144958496 516.4812469482422 L 897.5500144958496 508.4812469482422 Z" stroke-miterlimit="10" stroke-width="0.5" stroke-dasharray=""/><path fill="none" stroke="#505050" paint-order="fill stroke markers" d=" M 498.9033012390137 162.143798828125 C 508.0849883232821 162.143798828125 515.1653817023526 145.1344223022461 524.3470687866211 145.1344223022461" stroke-miterlimit="10" stroke-dasharray=""/><path fill="none" stroke="#505050" paint-order="fill stroke markers" d=" M 412.2001953125 156.24066734313965 C 446.55094175405395 156.24066734313965 489.99632234506714 133.1344223022461 524.3470687866211 133.1344223022461" stroke-miterlimit="10" stroke-dasharray=""/><path fill="none" stroke="#505050" paint-order="fill stroke markers" d=" M 642.4782867431641 152.15316009521484 C 646.70658039746 152.15316009521484 652.3442924052744 152.17220306396484 656.5725860595703 152.17220306396484" stroke-miterlimit="10" stroke-dasharray=""/><path fill="none" stroke="#505050" paint-order="fill stroke markers" d=" M 426.7939453125 201.9031581878662 C 485.4038030116382 201.9031581878662 559.8684290440258 164.15316009521484 618.4782867431641 164.15316009521484" stroke-miterlimit="10" stroke-dasharray=""/><path fill="none" stroke="#505050" paint-order="fill stroke markers" d=" M 549.3470687866211 133.1344223022461 C 570.8569593373735 133.1344223022461 596.9683961924117 152.15316009521484 618.4782867431641 152.15316009521484" stroke-miterlimit="10" stroke-dasharray=""/><path fill="none" stroke="#505050" paint-order="fill stroke markers" d=" M 558.1626853942871 213.68128204345703 C 569.3945961596742 213.68128204345703 564.296424805902 246.85002517700195 575.5283355712891 246.85002517700195" stroke-miterlimit="10" stroke-dasharray=""/><path fill="none" stroke="#505050" paint-order="fill stroke markers" d=" M 412.2001953125 156.24066734313965 C 452.37259056289935 156.24066734313965 492.99029014388776 213.68128204345703 533.1626853942871 213.68128204345703" stroke-miterlimit="10" stroke-dasharray=""/><path fill="none" stroke="#505050" paint-order="fill stroke markers" d=" M 634.5283355712891 245.85002517700195 C 655.9846431815296 245.85002517700195 597.0219791329235 176.15316009521484 618.4782867431641 176.15316009521484" stroke-miterlimit="10" stroke-dasharray=""/><path fill="none" stroke="#505050" paint-order="fill stroke markers" d=" M 412.2001953125 156.24066734313965 C 449.11251154541776 156.24066734313965 458.4095769822617 246.95937728881836 495.32189321517944 246.95937728881836" stroke-miterlimit="10" stroke-dasharray=""/><path fill="none" stroke="#505050" paint-order="fill stroke markers" d=" M 426.7939453125 201.9031581878662 C 453.5452865941318 201.9031581878662 468.5705519335476 258.95937728881836 495.32189321517944 258.95937728881836" stroke-miterlimit="10" stroke-dasharray=""/><path fill="none" stroke="#505050" paint-order="fill stroke markers" d=" M 519.3218932151794 246.95937728881836 C 536.6911270352872 246.95937728881836 558.1591017511813 260.85002517700195 575.5283355712891 260.85002517700195" stroke-miterlimit="10" stroke-dasharray=""/><path fill="none" stroke="#505050" paint-order="fill stroke markers" d=" M 426.3312544822693 285.08123779296875 C 471.0919028254181 285.08123779296875 530.7676872281402 283.85002517700195 575.5283355712891 283.85002517700195" stroke-miterlimit="10" stroke-dasharray=""/><path fill="none" stroke="#505050" paint-order="fill stroke markers" d=" M 443.1669273376465 32.65909481048584 C 446.5235933613148 32.65909481048584 450.99821907765005 32.514915466308594 454.35488510131836 32.514915466308594" stroke-miterlimit="10" stroke-dasharray=""/><path fill="none" stroke="#505050" paint-order="fill stroke markers" d=" M 405.6419486999512 49.659095764160156 C 409.96783070271283 49.659095764160156 414.8410453348848 44.65909481048584 419.1669273376465 44.65909481048584" stroke-miterlimit="10" stroke-dasharray=""/><path fill="none" stroke="#505050" paint-order="fill stroke markers" d=" M 395.27944564819336 21.540343284606934 C 403.1839669826093 21.540343284606934 411.2624060032305 32.65909481048584 419.1669273376465 32.65909481048584" stroke-miterlimit="10" stroke-dasharray=""/><path fill="none" stroke="#505050" paint-order="fill stroke markers" d=" M 934.4795684814453 158.18051528930664 C 938.4962099180626 158.18051528930664 943.8492795838905 157.92427444458008 947.8659210205078 157.92427444458008" stroke-miterlimit="10" stroke-dasharray=""/><path fill="none" stroke="#505050" paint-order="fill stroke markers" d=" M 847.3795318603516 173.23678970336914 C 855.8095597513187 173.23678970336914 867.0495405904782 173.18051528930664 875.4795684814453 173.18051528930664" stroke-miterlimit="10" stroke-dasharray=""/><path fill="none" stroke="#505050" paint-order="fill stroke markers" d=" M 834.1670684814453 136.15552139282227 C 848.3557460102527 136.15552139282227 861.2908909526379 159.18051528930664 875.4795684814453 159.18051528930664" stroke-miterlimit="10" stroke-dasharray=""/><path fill="none" stroke="#505050" paint-order="fill stroke markers" d=" M 848.5701034069061 240.20866012573242 C 864.0502105237888 240.20866012573242 859.9994613645626 196.18051528930664 875.4795684814453 196.18051528930664" stroke-miterlimit="10" stroke-dasharray=""/><path fill="none" stroke="#505050" paint-order="fill stroke markers" d=" M 1097.1333770751953 445.85124588012695 C 1101.7137073783392 445.85124588012695 1107.8177562447077 446.1568183898926 1112.3980865478516 446.1568183898926" stroke-miterlimit="10" stroke-dasharray=""/><path fill="none" stroke="#505050" paint-order="fill stroke markers" d=" M 999.5617828369141 469.5467414855957 C 1011.4236611591555 469.5467414855957 1026.271498752954 460.85124588012695 1038.1333770751953 460.85124588012695" stroke-miterlimit="10" stroke-dasharray=""/><path fill="none" stroke="#505050" paint-order="fill stroke markers" d=" M 1002.3493194580078 433.4654731750488 C 1013.8110380089756 433.4654731750488 1026.6716585242275 446.85124588012695 1038.1333770751953 446.85124588012695" stroke-miterlimit="10" stroke-dasharray=""/><path fill="none" stroke="#505050" paint-order="fill stroke markers" d=" M 983.3527374267578 533.8227119445801 C 987.0675576664192 533.8227119445801 992.0159651302116 534.1633491516113 995.730785369873 534.1633491516113" stroke-miterlimit="10" stroke-dasharray=""/><path fill="none" stroke="#505050" paint-order="fill stroke markers" d=" M 1035.730785369873 544.1633491516113 C 1053.8387670993188 544.1633491516113 1020.0253953457495 483.85124588012695 1038.1333770751953 483.85124588012695" stroke-miterlimit="10" stroke-dasharray=""/><path fill="none" stroke="#505050" paint-order="fill stroke markers" d=" M 393.06407165527344 455.31886291503906 C 401.1405477305922 455.31886291503906 411.83560278210314 457.3079208433628 419.9120788574219 457.3079208433628" stroke-miterlimit="10" stroke-dasharray=""/><path fill="none" stroke="#505050" paint-order="fill stroke markers" d=" M 596.9208221435547 457.648542791605 C 601.0157514927611 457.648542791605 606.4396623255983 456.65791168808937 610.5345916748047 456.65791168808937" stroke-miterlimit="10" stroke-dasharray=""/><path fill="none" stroke="#505050" paint-order="fill stroke markers" d=" M 552.7866058349609 564.9012336730957 C 556.4359499191687 564.9012336730957 561.2714780593469 565.7587738037109 564.9208221435547 565.7587738037109" stroke-miterlimit="10" stroke-dasharray=""/><path fill="none" stroke="#505050" paint-order="fill stroke markers" d=" M 437.45909118652344 570.9738464355469 C 464.91499030891964 570.9738464355469 501.33070671256473 576.9012336730957 528.7866058349609 576.9012336730957" stroke-miterlimit="10" stroke-dasharray=""/><path fill="none" stroke="#505050" paint-order="fill stroke markers" d=" M 434.56532287597656 594.376953125 C 441.86505115731603 594.376953125 446.09311210409754 609.7909603118896 453.392840385437 609.7909603118896" stroke-miterlimit="10" stroke-dasharray=""/><path fill="none" stroke="#505050" paint-order="fill stroke markers" d=" M 512.392840385437 609.7909603118896 C 526.729711707269 609.7909603118896 514.449734513129 564.9012336730957 528.7866058349609 564.9012336730957" stroke-miterlimit="10" stroke-dasharray=""/><path fill="none" stroke="#505050" paint-order="fill stroke markers" d=" M 682.3132658004761 517.7107810974121 C 699.1184060968021 517.7107810974121 677.0607158743283 462.89785385131836 693.8658561706543 462.89785385131836" stroke-miterlimit="10" stroke-dasharray=""/><path fill="none" stroke="#505050" paint-order="fill stroke markers" d=" M 884.6047697067261 512.348697334528 C 888.4885467194468 512.348697334528 893.6662374831288 512.4812469482422 897.5500144958496 512.4812469482422" stroke-miterlimit="10" stroke-dasharray=""/></g></g></svg>