<svg version="1.1" xmlns="http://www.w3.org/2000/svg" xmlns:xlink="http://www.w3.org/1999/xlink" width="661.1175079345703" height="322.823230355978"><defs/><g transform="translate(-379.8460388183594,-28.52311936020851)"><g><path fill="white" stroke="#505050" paint-order="fill stroke markers" d=" M 730.8552093505859 141.6295051574707 L 730.8552093505859 316.68144607543945 Q 730.8552093505859 324.68144607543945 738.8552093505859 324.68144607543945 L 1031.9635467529297 324.68144607543945 Q 1039.9635467529297 324.68144607543945 1039.9635467529297 316.68144607543945 L 1039.9635467529297 141.6295051574707 Q 1039.9635467529297 133.6295051574707 1031.9635467529297 133.6295051574707 L 738.8552093505859 133.6295051574707 Q 730.8552093505859 133.6295051574707 730.8552093505859 141.6295051574707" stroke-miterlimit="10" stroke-width="0.5" stroke-dasharray=""/><path fill="#F0F0F0" stroke="#505050" paint-order="fill stroke markers" d=" M 964.9635467529297 141.6295051574707 L 1039.9635467529297 141.6295051574707 L 1039.9635467529297 171.6295051574707 L 964.9635467529297 171.6295051574707 L 964.9635467529297 141.6295051574707 Z" stroke-miterlimit="10" stroke-width="0.5" stroke-dasharray=""/><text fill="#505050" stroke="none" font-family="monospace" font-size="14px" font-style="normal" font-weight="normal" text-decoration="normal" x="1002.4635467529297" y="159.6295051574707" text-anchor="middle" dominant-baseline="text-after-edge">arraySum</text><path fill="none" stroke="#505050" paint-order="fill stroke markers" d=" M 1031.9635467529297 159.6295051574707 L 1039.9635467529297 159.6295051574707 L 1039.9635467529297 167.6295051574707 L 1031.9635467529297 167.6295051574707 L 1031.9635467529297 159.6295051574707 Z" stroke-miterlimit="10" stroke-width="0.5" stroke-dasharray=""/><path fill="white" stroke="#505050" paint-order="fill stroke markers" d=" M 1001.7765350341797 191.94232559204102 L 1009.7765350341797 191.94232559204102 L 1017.7765350341797 199.94232559204102 L 1009.7765350341797 207.94232559204102 L 1001.7765350341797 207.94232559204102 L 1001.7765350341797 191.94232559204102" stroke-miterlimit="10" stroke-width="0.5" stroke-dasharray=""/><path fill="none" stroke="#505050" paint-order="fill stroke markers" d=" M 1001.7765350341797 195.94232559204102 L 1009.7765350341797 195.94232559204102 L 1009.7765350341797 203.94232559204102 L 1001.7765350341797 203.94232559204102 L 1001.7765350341797 195.94232559204102 Z" stroke-miterlimit="10" stroke-width="0.5" stroke-dasharray=""/><path fill="white" stroke="#505050" paint-order="fill stroke markers" d=" M 744.0851898193359 212.91533279418945 L 776.0851898193359 212.91533279418945 L 776.0851898193359 230.91533279418945 L 744.0851898193359 230.91533279418945 L 744.0851898193359 212.91533279418945 Z" stroke-miterlimit="10" stroke-width="0.5" stroke-dasharray=""/><path fill="#F0F0F0" stroke="none" paint-order="stroke fill markers" d=""/><path fill="none" stroke="#505050" paint-order="fill stroke markers" d=" M 768.0851898193359 216.91533279418945 L 776.0851898193359 216.91533279418945 L 776.0851898193359 224.91533279418945 L 768.0851898193359 224.91533279418945 L 768.0851898193359 216.91533279418945 Z" stroke-miterlimit="10" stroke-width="0.5" stroke-dasharray=""/><text fill="#505050" stroke="none" font-family="monospace" font-size="14px" font-style="normal" font-weight="normal" text-decoration="normal" x="760.0851898193359" y="230.91533279418945" text-anchor="end" dominant-baseline="text-after-edge">0</text><path fill="none" stroke="none"/><path fill="white" stroke="#505050" paint-order="fill stroke markers" d=" M 734.8614253997803 245.9033966064453 L 817.8614253997803 245.9033966064453 L 825.8614253997803 272.9033966064453 L 817.8614253997803 299.9033966064453 L 734.8614253997803 299.9033966064453 L 734.8614253997803 245.9033966064453" stroke-miterlimit="10" stroke-width="0.5" stroke-dasharray=""/><path fill="none" stroke="#505050" paint-order="fill stroke markers" d=" M 742.8614253997803 249.9033966064453 L 817.8614253997803 249.9033966064453 L 817.8614253997803 295.9033966064453 L 742.8614253997803 295.9033966064453 L 742.8614253997803 249.9033966064453 Z" stroke-miterlimit="10" stroke-width="0.5" stroke-dasharray=""/><text fill="#505050" stroke="none" font-family="monospace" font-size="14px" font-style="normal" font-weight="normal" text-decoration="normal" x="780.3614253997803" y="267.9033966064453" text-anchor="middle" dominant-baseline="text-after-edge">a[i]+acc</text><path fill="none" stroke="#505050" paint-order="fill stroke markers" d=" M 742.8614253997803 267.9033966064453 L 750.8614253997803 267.9033966064453 L 750.8614253997803 275.9033966064453 L 742.8614253997803 275.9033966064453 L 742.8614253997803 267.9033966064453 Z" stroke-miterlimit="10" stroke-width="0.5" stroke-dasharray=""/><text fill="#505050" stroke="none" font-family="monospace" font-size="14px" font-style="normal" font-weight="normal" text-decoration="normal" x="758.8614253997803" y="281.9033966064453" text-anchor="start" dominant-baseline="text-after-edge">i</text><path fill="none" stroke="#505050" paint-order="fill stroke markers" d=" M 742.8614253997803 281.9033966064453 L 750.8614253997803 281.9033966064453 L 750.8614253997803 289.9033966064453 L 742.8614253997803 289.9033966064453 L 742.8614253997803 281.9033966064453 Z" stroke-miterlimit="10" stroke-width="0.5" stroke-dasharray=""/><text fill="#505050" stroke="none" font-family="monospace" font-size="14px" font-style="normal" font-weight="normal" text-decoration="normal" x="758.8614253997803" y="295.9033966064453" text-anchor="start" dominant-baseline="text-after-edge">acc</text><path fill="none" stroke="#505050" paint-order="fill stroke markers" d=" M 809.8614253997803 267.9033966064453 L 817.8614253997803 267.9033966064453 L 817.8614253997803 275.9033966064453 L 809.8614253997803 275.9033966064453 L 809.8614253997803 267.9033966064453 Z" stroke-miterlimit="10" stroke-width="0.5" stroke-dasharray=""/><path fill="none" stroke="#505050" paint-order="fill stroke markers" d=" M 742.8614253997803 249.9033966064453 L 817.8614253997803 249.9033966064453 L 817.8614253997803 295.9033966064453 L 742.8614253997803 295.9033966064453 L 742.8614253997803 249.9033966064453 Z" stroke-miterlimit="10" stroke-width="0.5" stroke-dasharray=""/><path fill="#F0F0F0" stroke="none" paint-order="stroke fill markers" d=""/><text fill="#505050" stroke="none" font-family="monospace" font-size="14px" font-style="normal" font-weight="normal" text-decoration="normal" x="780.3614253997803" y="267.9033966064453" text-anchor="middle" dominant-baseline="text-after-edge">a[i]+acc</text><path fill="none" stroke="#505050" paint-order="fill stroke markers" d=" M 742.8614253997803 267.9033966064453 L 750.8614253997803 267.9033966064453 L 750.8614253997803 275.9033966064453 L 742.8614253997803 275.9033966064453 L 742.8614253997803 267.9033966064453 Z" stroke-miterlimit="10" stroke-width="0.5" stroke-dasharray=""/><text fill="#505050" stroke="none" font-family="monospace" font-size="14px" font-style="normal" font-weight="normal" text-decoration="normal" x="758.8614253997803" y="281.9033966064453" text-anchor="start" dominant-baseline="text-after-edge">i</text><path fill="none" stroke="#505050" paint-order="fill stroke markers" d=" M 742.8614253997803 281.9033966064453 L 750.8614253997803 281.9033966064453 L 750.8614253997803 289.9033966064453 L 742.8614253997803 289.9033966064453 L 742.8614253997803 281.9033966064453 Z" stroke-miterlimit="10" stroke-width="0.5" stroke-dasharray=""/><text fill="#505050" stroke="none" font-family="monospace" font-size="14px" font-style="normal" font-weight="normal" text-decoration="normal" x="758.8614253997803" y="295.9033966064453" text-anchor="start" dominant-baseline="text-after-edge">acc</text><path fill="none" stroke="#505050" paint-order="fill stroke markers" d=" M 809.8614253997803 267.9033966064453 L 817.8614253997803 267.9033966064453 L 817.8614253997803 275.9033966064453 L 809.8614253997803 275.9033966064453 L 809.8614253997803 267.9033966064453 Z" stroke-miterlimit="10" stroke-width="0.5" stroke-dasharray=""/><path fill="#e0e0e0" stroke="none" paint-order="stroke fill markers" d=" M 711.6182403564453 271.7756485044956 L 703.6182403564453 248.77564850449562 L 703.6182403564453 294.7756485044956 Z M 734.8614253997803 272.9033966064453 L 742.8614253997803 249.9033966064453 L 742.8614253997803 295.9033966064453 Z"/><path fill="none" stroke="none"/><path fill="none" stroke="#e0e0e0" paint-order="fill stroke markers" d=" M 711.6182403564453 271.7756485044956 C 718.5993987135244 271.7756485044956 727.8802670427012 272.9033966064453 734.8614253997803 272.9033966064453" stroke-miterlimit="10" stroke-width="2" stroke-dasharray=""/><path fill="white" stroke="#505050" paint-order="fill stroke markers" d=" M 837.3521575927734 177.81427383422852 L 985.3521575927734 177.81427383422852 L 985.3521575927734 259.8142738342285 L 837.3521575927734 259.8142738342285 L 837.3521575927734 177.81427383422852 Z" stroke-miterlimit="10" stroke-width="0.5" stroke-dasharray=""/><path fill="#F0F0F0" stroke="none" paint-order="stroke fill markers" d=""/><text fill="#505050" stroke="none" font-family="monospace" font-size="14px" font-style="normal" font-weight="normal" text-decoration="normal" x="911.3521575927734" y="195.81427383422852" text-anchor="middle" dominant-baseline="text-after-edge">reduce</text><path fill="none" stroke="#505050" paint-order="fill stroke markers" d=" M 837.3521575927734 195.81427383422852 L 845.3521575927734 195.81427383422852 L 845.3521575927734 203.81427383422852 L 837.3521575927734 203.81427383422852 L 837.3521575927734 195.81427383422852 Z" stroke-miterlimit="10" stroke-width="0.5" stroke-dasharray=""/><text fill="#505050" stroke="none" font-family="monospace" font-size="14px" font-style="normal" font-weight="normal" text-decoration="normal" x="853.3521575927734" y="209.81427383422852" text-anchor="start" dominant-baseline="text-after-edge">n</text><path fill="none" stroke="#505050" paint-order="fill stroke markers" d=" M 837.3521575927734 209.81427383422852 L 845.3521575927734 209.81427383422852 L 845.3521575927734 217.81427383422852 L 837.3521575927734 217.81427383422852 L 837.3521575927734 209.81427383422852 Z" stroke-miterlimit="10" stroke-width="0.5" stroke-dasharray=""/><text fill="#505050" stroke="none" font-family="monospace" font-size="14px" font-style="normal" font-weight="normal" text-decoration="normal" x="853.3521575927734" y="223.81427383422852" text-anchor="start" dominant-baseline="text-after-edge">acc</text><path fill="none" stroke="#505050" paint-order="fill stroke markers" d=" M 837.3521575927734 223.81427383422852 L 894.3521575927734 223.81427383422852 L 894.3521575927734 255.81427383422852 L 837.3521575927734 255.81427383422852 L 837.3521575927734 223.81427383422852 Z" stroke-miterlimit="10" stroke-width="0.5" stroke-dasharray=""/><path fill="none" stroke="#505050" paint-order="fill stroke markers" d=" M 837.3521575927734 227.81427383422852 L 845.3521575927734 227.81427383422852 L 845.3521575927734 235.81427383422852 L 837.3521575927734 235.81427383422852 L 837.3521575927734 227.81427383422852 Z" stroke-miterlimit="10" stroke-width="0.5" stroke-dasharray=""/><text fill="#505050" stroke="none" font-family="monospace" font-size="14px" font-style="normal" font-weight="normal" text-decoration="normal" x="853.3521575927734" y="241.81427383422852" text-anchor="start" dominant-baseline="text-after-edge">i</text><path fill="none" stroke="#505050" paint-order="fill stroke markers" d=" M 837.3521575927734 241.81427383422852 L 845.3521575927734 241.81427383422852 L 845.3521575927734 249.81427383422852 L 837.3521575927734 249.81427383422852 L 837.3521575927734 241.81427383422852 Z" stroke-miterlimit="10" stroke-width="0.5" stroke-dasharray=""/><text fill="#505050" stroke="none" font-family="monospace" font-size="14px" font-style="normal" font-weight="normal" text-decoration="normal" x="853.3521575927734" y="255.81427383422852" text-anchor="start" dominant-baseline="text-after-edge">acc</text><path fill="none" stroke="#505050" paint-order="fill stroke markers" d=" M 886.3521575927734 227.81427383422852 L 894.3521575927734 227.81427383422852 L 894.3521575927734 235.81427383422852 L 886.3521575927734 235.81427383422852 L 886.3521575927734 227.81427383422852 Z" stroke-miterlimit="10" stroke-width="0.5" stroke-dasharray=""/><text fill="#505050" stroke="none" font-family="monospace" font-size="14px" font-style="normal" font-weight="normal" text-decoration="normal" x="902.3521575927734" y="248.81427383422852" text-anchor="start" dominant-baseline="text-after-edge">callback</text><path fill="none" stroke="#505050" paint-order="fill stroke markers" d=" M 977.3521575927734 195.81427383422852 L 985.3521575927734 195.81427383422852 L 985.3521575927734 203.81427383422852 L 977.3521575927734 203.81427383422852 L 977.3521575927734 195.81427383422852 Z" stroke-miterlimit="10" stroke-width="0.5" stroke-dasharray=""/><path fill="white" stroke="#505050" paint-order="fill stroke markers" d=" M 380.8460388183594 179.79299774765968 L 455.8460388183594 179.79299774765968 L 455.8460388183594 245.79299774765968 L 380.8460388183594 245.79299774765968 L 380.8460388183594 179.79299774765968 Z" stroke-miterlimit="10" stroke-width="0.5" stroke-dasharray=""/><path fill="#F0F0F0" stroke="none" paint-order="stroke fill markers" d=" M 422.8460388183594 211.79299774765968 L 455.8460388183594 211.79299774765968 L 455.8460388183594 241.79299774765968 L 422.8460388183594 241.79299774765968 L 422.8460388183594 211.79299774765968 Z"/><text fill="#505050" stroke="none" font-family="monospace" font-size="14px" font-style="normal" font-weight="normal" text-decoration="normal" x="418.3460388183594" y="197.79299774765968" text-anchor="middle" dominant-baseline="text-after-edge">Array</text><path fill="none" stroke="#505050" paint-order="fill stroke markers" d=" M 447.8460388183594 197.79299774765968 L 455.8460388183594 197.79299774765968 L 455.8460388183594 205.79299774765968 L 447.8460388183594 205.79299774765968 L 447.8460388183594 197.79299774765968 Z" stroke-miterlimit="10" stroke-width="0.5" stroke-dasharray=""/><text fill="#505050" stroke="none" font-family="monospace" font-size="14px" font-style="normal" font-weight="normal" text-decoration="normal" x="439.8460388183594" y="211.79299774765968" text-anchor="end" dominant-baseline="text-after-edge">length</text><path fill="none" stroke="#505050" paint-order="fill stroke markers" d=" M 422.8460388183594 211.79299774765968 L 455.8460388183594 211.79299774765968 L 455.8460388183594 241.79299774765968 L 422.8460388183594 241.79299774765968 L 422.8460388183594 211.79299774765968 Z" stroke-miterlimit="10" stroke-width="0.5" stroke-dasharray=""/><text fill="#505050" stroke="none" font-family="monospace" font-size="14px" font-style="normal" font-weight="normal" text-decoration="normal" x="439.3460388183594" y="229.79299774765968" text-anchor="middle" dominant-baseline="text-after-edge">[i]</text><path fill="none" stroke="#505050" paint-order="fill stroke markers" d=" M 422.8460388183594 229.79299774765968 L 430.8460388183594 229.79299774765968 L 430.8460388183594 237.79299774765968 L 422.8460388183594 237.79299774765968 L 422.8460388183594 229.79299774765968 Z" stroke-miterlimit="10" stroke-width="0.5" stroke-dasharray=""/><path fill="none" stroke="#505050" paint-order="fill stroke markers" d=" M 447.8460388183594 229.79299774765968 L 455.8460388183594 229.79299774765968 L 455.8460388183594 237.79299774765968 L 447.8460388183594 237.79299774765968 L 447.8460388183594 229.79299774765968 Z" stroke-miterlimit="10" stroke-width="0.5" stroke-dasharray=""/><path fill="white" stroke="#505050" paint-order="fill stroke markers" d=" M 508.0969696044922 248.77564850449562 L 508.0969696044922 342.3463497161865 Q 508.0969696044922 350.3463497161865 516.0969696044922 350.3463497161865 L 695.6182403564453 350.3463497161865 Q 703.6182403564453 350.3463497161865 703.6182403564453 342.3463497161865 L 703.6182403564453 248.77564850449562 Q 703.6182403564453 240.77564850449562 695.6182403564453 240.77564850449562 L 516.0969696044922 240.77564850449562 Q 508.0969696044922 240.77564850449562 508.0969696044922 248.77564850449562" stroke-miterlimit="10" stroke-width="0.5" stroke-dasharray=""/><path fill="#F0F0F0" stroke="#505050" paint-order="fill stroke markers" d=" M 628.6182403564453 248.77564850449562 L 703.6182403564453 248.77564850449562 L 703.6182403564453 294.7756485044956 L 628.6182403564453 294.7756485044956 L 628.6182403564453 248.77564850449562 Z" stroke-miterlimit="10" stroke-width="0.5" stroke-dasharray=""/><text fill="#505050" stroke="none" font-family="monospace" font-size="14px" font-style="normal" font-weight="normal" text-decoration="normal" x="666.1182403564453" y="266.7756485044956" text-anchor="middle" dominant-baseline="text-after-edge">a[i]+acc</text><path fill="none" stroke="#505050" paint-order="fill stroke markers" d=" M 628.6182403564453 266.7756485044956 L 636.6182403564453 266.7756485044956 L 636.6182403564453 274.7756485044956 L 628.6182403564453 274.7756485044956 L 628.6182403564453 266.7756485044956 Z" stroke-miterlimit="10" stroke-width="0.5" stroke-dasharray=""/><text fill="#505050" stroke="none" font-family="monospace" font-size="14px" font-style="normal" font-weight="normal" text-decoration="normal" x="644.6182403564453" y="280.7756485044956" text-anchor="start" dominant-baseline="text-after-edge">i</text><path fill="none" stroke="#505050" paint-order="fill stroke markers" d=" M 628.6182403564453 280.7756485044956 L 636.6182403564453 280.7756485044956 L 636.6182403564453 288.7756485044956 L 628.6182403564453 288.7756485044956 L 628.6182403564453 280.7756485044956 Z" stroke-miterlimit="10" stroke-width="0.5" stroke-dasharray=""/><text fill="#505050" stroke="none" font-family="monospace" font-size="14px" font-style="normal" font-weight="normal" text-decoration="normal" x="644.6182403564453" y="294.7756485044956" text-anchor="start" dominant-baseline="text-after-edge">acc</text><path fill="none" stroke="#505050" paint-order="fill stroke markers" d=" M 695.6182403564453 266.7756485044956 L 703.6182403564453 266.7756485044956 L 703.6182403564453 274.7756485044956 L 695.6182403564453 274.7756485044956 L 695.6182403564453 266.7756485044956 Z" stroke-miterlimit="10" stroke-width="0.5" stroke-dasharray=""/><path fill="white" stroke="#505050" paint-order="fill stroke markers" d=" M 517.2904510498047 250.329345703125 L 549.2904510498047 250.329345703125 L 549.2904510498047 268.329345703125 L 517.2904510498047 268.329345703125 L 525.2904510498047 259.329345703125 L 517.2904510498047 250.329345703125" stroke-miterlimit="10" stroke-width="0.5" stroke-dasharray=""/><path fill="none" stroke="#505050" paint-order="fill stroke markers" d=" M 541.2904510498047 254.329345703125 L 549.2904510498047 254.329345703125 L 549.2904510498047 262.329345703125 L 541.2904510498047 262.329345703125 L 541.2904510498047 254.329345703125 Z" stroke-miterlimit="10" stroke-width="0.5" stroke-dasharray=""/><text fill="#505050" stroke="none" font-family="monospace" font-size="14px" font-style="normal" font-weight="normal" text-decoration="normal" x="533.2904510498047" y="268.329345703125" text-anchor="end" dominant-baseline="text-after-edge">i</text><path fill="white" stroke="#505050" paint-order="fill stroke markers" d=" M 633.7311553955078 299.76161193847656 L 641.7311553955078 299.76161193847656 L 649.7311553955078 307.76161193847656 L 641.7311553955078 315.76161193847656 L 633.7311553955078 315.76161193847656 L 633.7311553955078 299.76161193847656" stroke-miterlimit="10" stroke-width="0.5" stroke-dasharray=""/><path fill="none" stroke="#505050" paint-order="fill stroke markers" d=" M 633.7311553955078 303.76161193847656 L 641.7311553955078 303.76161193847656 L 641.7311553955078 311.76161193847656 L 633.7311553955078 311.76161193847656 L 633.7311553955078 303.76161193847656 Z" stroke-miterlimit="10" stroke-width="0.5" stroke-dasharray=""/><path fill="white" stroke="#505050" paint-order="fill stroke markers" d=" M 598.0976104736328 285.6462593078613 L 622.0976104736328 285.6462593078613 L 622.0976104736328 327.6462593078613 L 598.0976104736328 327.6462593078613 L 598.0976104736328 285.6462593078613 Z" stroke-miterlimit="10" stroke-width="0.5" stroke-dasharray=""/><path fill="#F0F0F0" stroke="none" paint-order="stroke fill markers" d=""/><text fill="#505050" stroke="none" font-family="monospace" font-size="14px" font-style="normal" font-weight="normal" text-decoration="normal" x="610.0976104736328" y="303.6462593078613" text-anchor="middle" dominant-baseline="text-after-edge">+</text><path fill="none" stroke="#505050" paint-order="fill stroke markers" d=" M 598.0976104736328 303.6462593078613 L 606.0976104736328 303.6462593078613 L 606.0976104736328 311.6462593078613 L 598.0976104736328 311.6462593078613 L 598.0976104736328 303.6462593078613 Z" stroke-miterlimit="10" stroke-width="0.5" stroke-dasharray=""/><path fill="none" stroke="#505050" paint-order="fill stroke markers" d=" M 598.0976104736328 315.6462593078613 L 606.0976104736328 315.6462593078613 L 606.0976104736328 323.6462593078613 L 598.0976104736328 323.6462593078613 L 598.0976104736328 315.6462593078613 Z" stroke-miterlimit="10" stroke-width="0.5" stroke-dasharray=""/><path fill="none" stroke="#505050" paint-order="fill stroke markers" d=" M 614.0976104736328 303.6462593078613 L 622.0976104736328 303.6462593078613 L 622.0976104736328 311.6462593078613 L 614.0976104736328 311.6462593078613 L 614.0976104736328 303.6462593078613 Z" stroke-miterlimit="10" stroke-width="0.5" stroke-dasharray=""/><path fill="white" stroke="#505050" paint-order="fill stroke markers" d=" M 518.0357513427734 274.7919921875 L 567.0357513427734 274.7919921875 L 567.0357513427734 292.7919921875 L 518.0357513427734 292.7919921875 L 526.0357513427734 283.7919921875 L 518.0357513427734 274.7919921875" stroke-miterlimit="10" stroke-width="0.5" stroke-dasharray=""/><path fill="none" stroke="#505050" paint-order="fill stroke markers" d=" M 559.0357513427734 278.7919921875 L 567.0357513427734 278.7919921875 L 567.0357513427734 286.7919921875 L 559.0357513427734 286.7919921875 L 559.0357513427734 278.7919921875 Z" stroke-miterlimit="10" stroke-width="0.5" stroke-dasharray=""/><text fill="#505050" stroke="none" font-family="monospace" font-size="14px" font-style="normal" font-weight="normal" text-decoration="normal" x="551.0357513427734" y="292.7919921875" text-anchor="end" dominant-baseline="text-after-edge">acc</text><path fill="white" stroke="#505050" paint-order="fill stroke markers" d=" M 550.7578611373901 304.3463497161865 L 583.7578611373901 304.3463497161865 L 583.7578611373901 334.3463497161865 L 550.7578611373901 334.3463497161865 L 550.7578611373901 304.3463497161865 Z" stroke-miterlimit="10" stroke-width="0.5" stroke-dasharray=""/><path fill="#F0F0F0" stroke="none" paint-order="stroke fill markers" d=""/><text fill="#505050" stroke="none" font-family="monospace" font-size="14px" font-style="normal" font-weight="normal" text-decoration="normal" x="567.2578611373901" y="322.3463497161865" text-anchor="middle" dominant-baseline="text-after-edge">[i]</text><path fill="none" stroke="#505050" paint-order="fill stroke markers" d=" M 550.7578611373901 322.3463497161865 L 558.7578611373901 322.3463497161865 L 558.7578611373901 330.3463497161865 L 550.7578611373901 330.3463497161865 L 550.7578611373901 322.3463497161865 Z" stroke-miterlimit="10" stroke-width="0.5" stroke-dasharray=""/><path fill="none" stroke="#505050" paint-order="fill stroke markers" d=" M 575.7578611373901 322.3463497161865 L 583.7578611373901 322.3463497161865 L 583.7578611373901 330.3463497161865 L 575.7578611373901 330.3463497161865 L 575.7578611373901 322.3463497161865 Z" stroke-miterlimit="10" stroke-width="0.5" stroke-dasharray=""/><path fill="#e0e0e0" stroke="none" paint-order="stroke fill markers" d=" M 463.8460388183594 226.79299774765968 L 455.8460388183594 211.79299774765968 L 455.8460388183594 241.79299774765968 Z M 542.7578611373901 319.3463497161865 L 550.7578611373901 304.3463497161865 L 550.7578611373901 334.3463497161865 Z"/><path fill="none" stroke="none"/><path fill="none" stroke="#e0e0e0" paint-order="fill stroke markers" d=" M 463.8460388183594 226.79299774765968 C 500.3342270387798 226.79299774765968 506.26967291696974 319.3463497161865 542.7578611373901 319.3463497161865" stroke-miterlimit="10" stroke-width="2" stroke-dasharray=""/><path fill="white" stroke="#505050" paint-order="fill stroke markers" d=" M 670.6506958007812 29.52311936020851 L 745.6506958007812 29.52311936020851 L 745.6506958007812 95.52311936020851 L 670.6506958007812 95.52311936020851 L 670.6506958007812 29.52311936020851 Z" stroke-miterlimit="10" stroke-width="0.5" stroke-dasharray=""/><path fill="#F0F0F0" stroke="none" paint-order="stroke fill markers" d=" M 712.6506958007812 61.52311936020851 L 745.6506958007812 61.52311936020851 L 745.6506958007812 91.52311936020851 L 712.6506958007812 91.52311936020851 L 712.6506958007812 61.52311936020851 Z"/><text fill="#505050" stroke="none" font-family="monospace" font-size="14px" font-style="normal" font-weight="normal" text-decoration="normal" x="708.1506958007812" y="47.52311936020851" text-anchor="middle" dominant-baseline="text-after-edge">Array</text><path fill="none" stroke="#505050" paint-order="fill stroke markers" d=" M 737.6506958007812 47.52311936020851 L 745.6506958007812 47.52311936020851 L 745.6506958007812 55.52311936020851 L 737.6506958007812 55.52311936020851 L 737.6506958007812 47.52311936020851 Z" stroke-miterlimit="10" stroke-width="0.5" stroke-dasharray=""/><text fill="#505050" stroke="none" font-family="monospace" font-size="14px" font-style="normal" font-weight="normal" text-decoration="normal" x="729.6506958007812" y="61.52311936020851" text-anchor="end" dominant-baseline="text-after-edge">length</text><path fill="none" stroke="#505050" paint-order="fill stroke markers" d=" M 712.6506958007812 61.52311936020851 L 745.6506958007812 61.52311936020851 L 745.6506958007812 91.52311936020851 L 712.6506958007812 91.52311936020851 L 712.6506958007812 61.52311936020851 Z" stroke-miterlimit="10" stroke-width="0.5" stroke-dasharray=""/><text fill="#505050" stroke="none" font-family="monospace" font-size="14px" font-style="normal" font-weight="normal" text-decoration="normal" x="729.1506958007812" y="79.52311936020851" text-anchor="middle" dominant-baseline="text-after-edge">[i]</text><path fill="none" stroke="#505050" paint-order="fill stroke markers" d=" M 712.6506958007812 79.52311936020851 L 720.6506958007812 79.52311936020851 L 720.6506958007812 87.52311936020851 L 712.6506958007812 87.52311936020851 L 712.6506958007812 79.52311936020851 Z" stroke-miterlimit="10" stroke-width="0.5" stroke-dasharray=""/><path fill="none" stroke="#505050" paint-order="fill stroke markers" d=" M 737.6506958007812 79.52311936020851 L 745.6506958007812 79.52311936020851 L 745.6506958007812 87.52311936020851 L 737.6506958007812 87.52311936020851 L 737.6506958007812 79.52311936020851 Z" stroke-miterlimit="10" stroke-width="0.5" stroke-dasharray=""/><path fill="none" stroke="#505050" paint-order="fill stroke markers" d=" M 455.8460388183594 201.79299774765968 C 570.2994138710762 201.79299774765968 722.8987825400566 199.81427383422852 837.3521575927734 199.81427383422852" stroke-miterlimit="10" stroke-dasharray=""/><path fill="none" stroke="#505050" paint-order="fill stroke markers" d=" M 985.3521575927734 199.81427383422852 C 990.2796205751956 199.81427383422852 996.8490720517575 199.94232559204102 1001.7765350341797 199.94232559204102" stroke-miterlimit="10" stroke-dasharray=""/><path fill="none" stroke="#505050" paint-order="fill stroke markers" d=" M 776.0851898193359 220.91533279418945 C 794.5883239880486 220.91533279418945 818.8490234240608 213.81427383422852 837.3521575927734 213.81427383422852" stroke-miterlimit="10" stroke-dasharray=""/><path fill="none" stroke="#505050" paint-order="fill stroke markers" d=" M 817.8614253997803 272.9033966064453 C 829.3822796151952 272.9033966064453 825.8313033773585 239.81427383422852 837.3521575927734 239.81427383422852" stroke-miterlimit="10" stroke-dasharray=""/><path fill="none" stroke="#505050" paint-order="fill stroke markers" d=" M 622.0976104736328 307.6462593078613 C 625.587845513151 307.6462593078613 630.2409203559896 307.76161193847656 633.7311553955078 307.76161193847656" stroke-miterlimit="10" stroke-dasharray=""/><path fill="none" stroke="#505050" paint-order="fill stroke markers" d=" M 567.0357513427734 282.7919921875 C 578.9702237570868 282.7919921875 586.1631380593194 307.6462593078613 598.0976104736328 307.6462593078613" stroke-miterlimit="10" stroke-dasharray=""/><path fill="none" stroke="#505050" paint-order="fill stroke markers" d=" M 549.2904510498047 258.329345703125 C 569.7003004234531 258.329345703125 530.3480117637417 326.3463497161865 550.7578611373901 326.3463497161865" stroke-miterlimit="10" stroke-dasharray=""/><path fill="none" stroke="#505050" paint-order="fill stroke markers" d=" M 583.7578611373901 326.3463497161865 C 588.5062046407121 326.3463497161865 593.3492669703109 319.6462593078613 598.0976104736328 319.6462593078613" stroke-miterlimit="10" stroke-dasharray=""/></g></g></svg>