<svg version="1.1" xmlns="http://www.w3.org/2000/svg" xmlns:xlink="http://www.w3.org/1999/xlink" width="790.2712593078613" height="190.73124313354492"><defs/><g transform="translate(-228.93749618530273,-176.54376983642578)"><g><path fill="white" stroke="#505050" paint-order="fill stroke markers" d=" M 404.58135986328125 187.01877212524414 L 404.58135986328125 358.2750129699707 Q 404.58135986328125 366.2750129699707 412.58135986328125 366.2750129699707 L 775.1103057861328 366.2750129699707 Q 783.1103057861328 366.2750129699707 783.1103057861328 358.2750129699707 L 783.1103057861328 187.01877212524414 Q 783.1103057861328 179.01877212524414 775.1103057861328 179.01877212524414 L 412.58135986328125 179.01877212524414 Q 404.58135986328125 179.01877212524414 404.58135986328125 187.01877212524414" stroke-miterlimit="10" stroke-width="0.5" stroke-dasharray=""/><path fill="#F0F0F0" stroke="#505050" paint-order="fill stroke markers" d=" M 716.1103057861328 187.01877212524414 L 783.1103057861328 187.01877212524414 L 783.1103057861328 233.01877212524414 L 716.1103057861328 233.01877212524414 L 716.1103057861328 187.01877212524414 Z" stroke-miterlimit="10" stroke-width="0.5" stroke-dasharray=""/><text fill="#505050" stroke="none" font-family="monospace" font-size="14px" font-style="normal" font-weight="normal" text-decoration="normal" x="749.6103057861328" y="205.01877212524414" text-anchor="middle" dominant-baseline="text-after-edge">facstep</text><path fill="none" stroke="#505050" paint-order="fill stroke markers" d=" M 716.1103057861328 206.01877212524414 L 724.1103057861328 206.01877212524414 L 724.1103057861328 214.01877212524414 L 716.1103057861328 214.01877212524414 L 716.1103057861328 206.01877212524414 Z" stroke-miterlimit="10" stroke-width="0.5" stroke-dasharray=""/><text fill="#505050" stroke="none" font-family="monospace" font-size="14px" font-style="normal" font-weight="normal" text-decoration="normal" x="732.1103057861328" y="219.01877212524414" text-anchor="start" dominant-baseline="text-after-edge">n</text><path fill="none" stroke="#505050" paint-order="fill stroke markers" d=" M 716.1103057861328 220.01877212524414 L 724.1103057861328 220.01877212524414 L 724.1103057861328 228.01877212524414 L 716.1103057861328 228.01877212524414 L 716.1103057861328 220.01877212524414 Z" stroke-miterlimit="10" stroke-width="0.5" stroke-dasharray=""/><text fill="#505050" stroke="none" font-family="monospace" font-size="14px" font-style="normal" font-weight="normal" text-decoration="normal" x="732.1103057861328" y="233.01877212524414" text-anchor="start" dominant-baseline="text-after-edge">acc</text><path fill="none" stroke="#505050" paint-order="fill stroke markers" d=" M 775.1103057861328 205.01877212524414 L 783.1103057861328 205.01877212524414 L 783.1103057861328 213.01877212524414 L 775.1103057861328 213.01877212524414 L 775.1103057861328 205.01877212524414 Z" stroke-miterlimit="10" stroke-width="0.5" stroke-dasharray=""/><path fill="white" stroke="#505050" paint-order="fill stroke markers" d=" M 659.9876251220703 213.80626678466797 L 683.9876251220703 213.80626678466797 L 683.9876251220703 267.80626678466797 L 659.9876251220703 267.80626678466797 L 659.9876251220703 213.80626678466797 Z" stroke-miterlimit="10" stroke-width="0.5" stroke-dasharray=""/><path fill="#F0F0F0" stroke="none" paint-order="stroke fill markers" d=""/><text fill="#505050" stroke="none" font-family="monospace" font-size="14px" font-style="normal" font-weight="normal" text-decoration="normal" x="671.9876251220703" y="231.80626678466797" text-anchor="middle" dominant-baseline="text-after-edge">?</text><path fill="none" stroke="#505050" paint-order="fill stroke markers" d=" M 659.9876251220703 231.80626678466797 L 667.9876251220703 231.80626678466797 L 667.9876251220703 239.80626678466797 L 659.9876251220703 239.80626678466797 L 659.9876251220703 231.80626678466797 Z" stroke-miterlimit="10" stroke-width="0.5" stroke-dasharray=""/><path fill="none" stroke="#505050" paint-order="fill stroke markers" d=" M 659.9876251220703 243.80626678466797 L 667.9876251220703 243.80626678466797 L 667.9876251220703 251.80626678466797 L 659.9876251220703 251.80626678466797 L 659.9876251220703 243.80626678466797 Z" stroke-miterlimit="10" stroke-width="0.5" stroke-dasharray=""/><path fill="none" stroke="#505050" paint-order="fill stroke markers" d=" M 659.9876251220703 255.80626678466797 L 667.9876251220703 255.80626678466797 L 667.9876251220703 263.80626678466797 L 659.9876251220703 263.80626678466797 L 659.9876251220703 255.80626678466797 Z" stroke-miterlimit="10" stroke-width="0.5" stroke-dasharray=""/><path fill="none" stroke="#505050" paint-order="fill stroke markers" d=" M 675.9876251220703 231.80626678466797 L 683.9876251220703 231.80626678466797 L 683.9876251220703 239.80626678466797 L 675.9876251220703 239.80626678466797 L 675.9876251220703 231.80626678466797 Z" stroke-miterlimit="10" stroke-width="0.5" stroke-dasharray=""/><path fill="white" stroke="#505050" paint-order="fill stroke markers" d=" M 710.4611358642578 251.8448944091797 L 718.4611358642578 251.8448944091797 L 726.4611358642578 259.8448944091797 L 718.4611358642578 267.8448944091797 L 710.4611358642578 267.8448944091797 L 710.4611358642578 251.8448944091797" stroke-miterlimit="10" stroke-width="0.5" stroke-dasharray=""/><path fill="none" stroke="#505050" paint-order="fill stroke markers" d=" M 710.4611358642578 255.8448944091797 L 718.4611358642578 255.8448944091797 L 718.4611358642578 263.8448944091797 L 710.4611358642578 263.8448944091797 L 710.4611358642578 255.8448944091797 Z" stroke-miterlimit="10" stroke-width="0.5" stroke-dasharray=""/><path fill="white" stroke="#505050" paint-order="fill stroke markers" d=" M 527.5126266479492 303.6406440734863 L 551.5126266479492 303.6406440734863 L 551.5126266479492 345.6406440734863 L 527.5126266479492 345.6406440734863 L 527.5126266479492 303.6406440734863 Z" stroke-miterlimit="10" stroke-width="0.5" stroke-dasharray=""/><path fill="#F0F0F0" stroke="none" paint-order="stroke fill markers" d=""/><text fill="#505050" stroke="none" font-family="monospace" font-size="14px" font-style="normal" font-weight="normal" text-decoration="normal" x="539.5126266479492" y="321.6406440734863" text-anchor="middle" dominant-baseline="text-after-edge">*</text><path fill="none" stroke="#505050" paint-order="fill stroke markers" d=" M 527.5126266479492 321.6406440734863 L 535.5126266479492 321.6406440734863 L 535.5126266479492 329.6406440734863 L 527.5126266479492 329.6406440734863 L 527.5126266479492 321.6406440734863 Z" stroke-miterlimit="10" stroke-width="0.5" stroke-dasharray=""/><path fill="none" stroke="#505050" paint-order="fill stroke markers" d=" M 527.5126266479492 333.6406440734863 L 535.5126266479492 333.6406440734863 L 535.5126266479492 341.6406440734863 L 527.5126266479492 341.6406440734863 L 527.5126266479492 333.6406440734863 Z" stroke-miterlimit="10" stroke-width="0.5" stroke-dasharray=""/><path fill="none" stroke="#505050" paint-order="fill stroke markers" d=" M 543.5126266479492 321.6406440734863 L 551.5126266479492 321.6406440734863 L 551.5126266479492 329.6406440734863 L 543.5126266479492 329.6406440734863 L 543.5126266479492 321.6406440734863 Z" stroke-miterlimit="10" stroke-width="0.5" stroke-dasharray=""/><path fill="white" stroke="#505050" paint-order="fill stroke markers" d=" M 419.30328369140625 276.55626487731934 L 468.30328369140625 276.55626487731934 L 468.30328369140625 294.55626487731934 L 419.30328369140625 294.55626487731934 L 427.30328369140625 285.55626487731934 L 419.30328369140625 276.55626487731934" stroke-miterlimit="10" stroke-width="0.5" stroke-dasharray=""/><path fill="none" stroke="#505050" paint-order="fill stroke markers" d=" M 460.30328369140625 281.55626487731934 L 468.30328369140625 281.55626487731934 L 468.30328369140625 289.55626487731934 L 460.30328369140625 289.55626487731934 L 460.30328369140625 281.55626487731934 Z" stroke-miterlimit="10" stroke-width="0.5" stroke-dasharray=""/><text fill="#505050" stroke="none" font-family="monospace" font-size="14px" font-style="normal" font-weight="normal" text-decoration="normal" x="452.30328369140625" y="294.55626487731934" text-anchor="end" dominant-baseline="text-after-edge">acc</text><path fill="white" stroke="#505050" paint-order="fill stroke markers" d=" M 421.70953369140625 230.89377403259277 L 453.70953369140625 230.89377403259277 L 453.70953369140625 248.89377403259277 L 421.70953369140625 248.89377403259277 L 429.70953369140625 239.89377403259277 L 421.70953369140625 230.89377403259277" stroke-miterlimit="10" stroke-width="0.5" stroke-dasharray=""/><path fill="none" stroke="#505050" paint-order="fill stroke markers" d=" M 445.70953369140625 235.89377403259277 L 453.70953369140625 235.89377403259277 L 453.70953369140625 243.89377403259277 L 445.70953369140625 243.89377403259277 L 445.70953369140625 235.89377403259277 Z" stroke-miterlimit="10" stroke-width="0.5" stroke-dasharray=""/><text fill="#505050" stroke="none" font-family="monospace" font-size="14px" font-style="normal" font-weight="normal" text-decoration="normal" x="437.70953369140625" y="248.89377403259277" text-anchor="end" dominant-baseline="text-after-edge">n</text><path fill="white" stroke="#505050" paint-order="fill stroke markers" d=" M 565.8564071655273 194.78752899169922 L 590.8564071655273 194.78752899169922 L 590.8564071655273 236.78752899169922 L 565.8564071655273 236.78752899169922 L 565.8564071655273 194.78752899169922 Z" stroke-miterlimit="10" stroke-width="0.5" stroke-dasharray=""/><path fill="#F0F0F0" stroke="none" paint-order="stroke fill markers" d=""/><text fill="#505050" stroke="none" font-family="monospace" font-size="14px" font-style="normal" font-weight="normal" text-decoration="normal" x="578.3564071655273" y="212.78752899169922" text-anchor="middle" dominant-baseline="text-after-edge">&lt;=</text><path fill="none" stroke="#505050" paint-order="fill stroke markers" d=" M 565.8564071655273 212.78752899169922 L 573.8564071655273 212.78752899169922 L 573.8564071655273 220.78752899169922 L 565.8564071655273 220.78752899169922 L 565.8564071655273 212.78752899169922 Z" stroke-miterlimit="10" stroke-width="0.5" stroke-dasharray=""/><path fill="none" stroke="#505050" paint-order="fill stroke markers" d=" M 565.8564071655273 224.78752899169922 L 573.8564071655273 224.78752899169922 L 573.8564071655273 232.78752899169922 L 565.8564071655273 232.78752899169922 L 565.8564071655273 224.78752899169922 Z" stroke-miterlimit="10" stroke-width="0.5" stroke-dasharray=""/><path fill="none" stroke="#505050" paint-order="fill stroke markers" d=" M 582.8564071655273 212.78752899169922 L 590.8564071655273 212.78752899169922 L 590.8564071655273 220.78752899169922 L 582.8564071655273 220.78752899169922 L 582.8564071655273 212.78752899169922 Z" stroke-miterlimit="10" stroke-width="0.5" stroke-dasharray=""/><path fill="white" stroke="#505050" paint-order="fill stroke markers" d=" M 508.4126396179199 236.79690551757812 L 540.4126396179199 236.79690551757812 L 540.4126396179199 254.79690551757812 L 508.4126396179199 254.79690551757812 L 508.4126396179199 236.79690551757812 Z" stroke-miterlimit="10" stroke-width="0.5" stroke-dasharray=""/><path fill="#F0F0F0" stroke="none" paint-order="stroke fill markers" d=""/><path fill="none" stroke="#505050" paint-order="fill stroke markers" d=" M 532.4126396179199 241.79690551757812 L 540.4126396179199 241.79690551757812 L 540.4126396179199 249.79690551757812 L 532.4126396179199 249.79690551757812 L 532.4126396179199 241.79690551757812 Z" stroke-miterlimit="10" stroke-width="0.5" stroke-dasharray=""/><text fill="#505050" stroke="none" font-family="monospace" font-size="14px" font-style="normal" font-weight="normal" text-decoration="normal" x="524.4126396179199" y="254.79690551757812" text-anchor="end" dominant-baseline="text-after-edge">1</text><path fill="white" stroke="#505050" paint-order="fill stroke markers" d=" M 620.3126983642578 304.2750129699707 L 687.3126983642578 304.2750129699707 L 687.3126983642578 350.2750129699707 L 620.3126983642578 350.2750129699707 L 620.3126983642578 304.2750129699707 Z" stroke-miterlimit="10" stroke-width="0.5" stroke-dasharray=""/><path fill="#F0F0F0" stroke="none" paint-order="stroke fill markers" d=""/><text fill="#505050" stroke="none" font-family="monospace" font-size="14px" font-style="normal" font-weight="normal" text-decoration="normal" x="653.8126983642578" y="322.2750129699707" text-anchor="middle" dominant-baseline="text-after-edge">facstep</text><path fill="none" stroke="#505050" paint-order="fill stroke markers" d=" M 620.3126983642578 323.2750129699707 L 628.3126983642578 323.2750129699707 L 628.3126983642578 331.2750129699707 L 620.3126983642578 331.2750129699707 L 620.3126983642578 323.2750129699707 Z" stroke-miterlimit="10" stroke-width="0.5" stroke-dasharray=""/><text fill="#505050" stroke="none" font-family="monospace" font-size="14px" font-style="normal" font-weight="normal" text-decoration="normal" x="636.3126983642578" y="336.2750129699707" text-anchor="start" dominant-baseline="text-after-edge">n</text><path fill="none" stroke="#505050" paint-order="fill stroke markers" d=" M 620.3126983642578 337.2750129699707 L 628.3126983642578 337.2750129699707 L 628.3126983642578 345.2750129699707 L 620.3126983642578 345.2750129699707 L 620.3126983642578 337.2750129699707 Z" stroke-miterlimit="10" stroke-width="0.5" stroke-dasharray=""/><text fill="#505050" stroke="none" font-family="monospace" font-size="14px" font-style="normal" font-weight="normal" text-decoration="normal" x="636.3126983642578" y="350.2750129699707" text-anchor="start" dominant-baseline="text-after-edge">acc</text><path fill="none" stroke="#505050" paint-order="fill stroke markers" d=" M 679.3126983642578 322.2750129699707 L 687.3126983642578 322.2750129699707 L 687.3126983642578 330.2750129699707 L 679.3126983642578 330.2750129699707 L 679.3126983642578 322.2750129699707 Z" stroke-miterlimit="10" stroke-width="0.5" stroke-dasharray=""/><path fill="#e0e0e0" stroke="none" paint-order="stroke fill markers" d=" M 791.1103057861328 210.01877212524414 L 783.1103057861328 187.01877212524414 L 783.1103057861328 233.01877212524414 Z M 612.3126983642578 327.2750129699707 L 620.3126983642578 304.2750129699707 L 620.3126983642578 350.2750129699707 Z"/><path fill="none" stroke="none"/><path fill="none" stroke="#e0e0e0" paint-order="fill stroke markers" d=" M 791.1103057861328 210.01877212524414 C 855.2553362975771 210.01877212524414 548.1676678528136 327.2750129699707 612.3126983642578 327.2750129699707" stroke-miterlimit="10" stroke-width="2" stroke-dasharray=""/><path fill="white" stroke="#505050" paint-order="fill stroke markers" d=" M 574.6720237731934 275.33438873291016 L 599.6720237731934 275.33438873291016 L 599.6720237731934 305.33438873291016 L 574.6720237731934 305.33438873291016 L 574.6720237731934 275.33438873291016 Z" stroke-miterlimit="10" stroke-width="0.5" stroke-dasharray=""/><path fill="#F0F0F0" stroke="none" paint-order="stroke fill markers" d=""/><text fill="#505050" stroke="none" font-family="monospace" font-size="14px" font-style="normal" font-weight="normal" text-decoration="normal" x="587.1720237731934" y="293.33438873291016" text-anchor="middle" dominant-baseline="text-after-edge">-1</text><path fill="none" stroke="#505050" paint-order="fill stroke markers" d=" M 574.6720237731934 293.33438873291016 L 582.6720237731934 293.33438873291016 L 582.6720237731934 301.33438873291016 L 574.6720237731934 301.33438873291016 L 574.6720237731934 293.33438873291016 Z" stroke-miterlimit="10" stroke-width="0.5" stroke-dasharray=""/><path fill="none" stroke="#505050" paint-order="fill stroke markers" d=" M 591.6720237731934 293.33438873291016 L 599.6720237731934 293.33438873291016 L 599.6720237731934 301.33438873291016 L 591.6720237731934 301.33438873291016 L 591.6720237731934 293.33438873291016 Z" stroke-miterlimit="10" stroke-width="0.5" stroke-dasharray=""/><path fill="white" stroke="#505050" paint-order="fill stroke markers" d=" M 229.93749618530273 185.54376983642578 L 229.93749618530273 251.29376983642578 Q 229.93749618530273 259.2937698364258 237.93749618530273 259.2937698364258 L 364.72500228881836 259.2937698364258 Q 372.72500228881836 259.2937698364258 372.72500228881836 251.29376983642578 L 372.72500228881836 185.54376983642578 Q 372.72500228881836 177.54376983642578 364.72500228881836 177.54376983642578 L 237.93749618530273 177.54376983642578 Q 229.93749618530273 177.54376983642578 229.93749618530273 185.54376983642578" stroke-miterlimit="10" stroke-width="0.5" stroke-dasharray=""/><path fill="#F0F0F0" stroke="#505050" paint-order="fill stroke markers" d=" M 347.72500228881836 185.54376983642578 L 372.72500228881836 185.54376983642578 L 372.72500228881836 215.54376983642578 L 347.72500228881836 215.54376983642578 L 347.72500228881836 185.54376983642578 Z" stroke-miterlimit="10" stroke-width="0.5" stroke-dasharray=""/><text fill="#505050" stroke="none" font-family="monospace" font-size="14px" font-style="normal" font-weight="normal" text-decoration="normal" x="360.22500228881836" y="203.54376983642578" text-anchor="middle" dominant-baseline="text-after-edge">-1</text><path fill="none" stroke="#505050" paint-order="fill stroke markers" d=" M 347.72500228881836 203.54376983642578 L 355.72500228881836 203.54376983642578 L 355.72500228881836 211.54376983642578 L 347.72500228881836 211.54376983642578 L 347.72500228881836 203.54376983642578 Z" stroke-miterlimit="10" stroke-width="0.5" stroke-dasharray=""/><path fill="none" stroke="#505050" paint-order="fill stroke markers" d=" M 364.72500228881836 203.54376983642578 L 372.72500228881836 203.54376983642578 L 372.72500228881836 211.54376983642578 L 364.72500228881836 211.54376983642578 L 364.72500228881836 203.54376983642578 Z" stroke-miterlimit="10" stroke-width="0.5" stroke-dasharray=""/><path fill="white" stroke="#505050" paint-order="fill stroke markers" d=" M 278.86562728881836 193.5500259399414 L 302.86562728881836 193.5500259399414 L 302.86562728881836 235.5500259399414 L 278.86562728881836 235.5500259399414 L 278.86562728881836 193.5500259399414 Z" stroke-miterlimit="10" stroke-width="0.5" stroke-dasharray=""/><path fill="#F0F0F0" stroke="none" paint-order="stroke fill markers" d=""/><text fill="#505050" stroke="none" font-family="monospace" font-size="14px" font-style="normal" font-weight="normal" text-decoration="normal" x="290.86562728881836" y="211.5500259399414" text-anchor="middle" dominant-baseline="text-after-edge">-</text><path fill="none" stroke="#505050" paint-order="fill stroke markers" d=" M 278.86562728881836 211.5500259399414 L 286.86562728881836 211.5500259399414 L 286.86562728881836 219.5500259399414 L 278.86562728881836 219.5500259399414 L 278.86562728881836 211.5500259399414 Z" stroke-miterlimit="10" stroke-width="0.5" stroke-dasharray=""/><path fill="none" stroke="#505050" paint-order="fill stroke markers" d=" M 278.86562728881836 223.5500259399414 L 286.86562728881836 223.5500259399414 L 286.86562728881836 231.5500259399414 L 278.86562728881836 231.5500259399414 L 278.86562728881836 223.5500259399414 Z" stroke-miterlimit="10" stroke-width="0.5" stroke-dasharray=""/><path fill="none" stroke="#505050" paint-order="fill stroke markers" d=" M 294.86562728881836 211.5500259399414 L 302.86562728881836 211.5500259399414 L 302.86562728881836 219.5500259399414 L 294.86562728881836 219.5500259399414 L 294.86562728881836 211.5500259399414 Z" stroke-miterlimit="10" stroke-width="0.5" stroke-dasharray=""/><path fill="white" stroke="#505050" paint-order="fill stroke markers" d=" M 316.9781150817871 207.52814483642578 L 324.9781150817871 207.52814483642578 L 332.9781150817871 215.52814483642578 L 324.9781150817871 223.52814483642578 L 316.9781150817871 223.52814483642578 L 316.9781150817871 207.52814483642578" stroke-miterlimit="10" stroke-width="0.5" stroke-dasharray=""/><path fill="none" stroke="#505050" paint-order="fill stroke markers" d=" M 316.9781150817871 211.52814483642578 L 324.9781150817871 211.52814483642578 L 324.9781150817871 219.52814483642578 L 316.9781150817871 219.52814483642578 L 316.9781150817871 211.52814483642578 Z" stroke-miterlimit="10" stroke-width="0.5" stroke-dasharray=""/><path fill="white" stroke="#505050" paint-order="fill stroke markers" d=" M 233.45624923706055 225.29376983642578 L 265.45624923706055 225.29376983642578 L 265.45624923706055 243.29376983642578 L 233.45624923706055 243.29376983642578 L 233.45624923706055 225.29376983642578 Z" stroke-miterlimit="10" stroke-width="0.5" stroke-dasharray=""/><path fill="#F0F0F0" stroke="none" paint-order="stroke fill markers" d=""/><path fill="none" stroke="#505050" paint-order="fill stroke markers" d=" M 257.45624923706055 230.29376983642578 L 265.45624923706055 230.29376983642578 L 265.45624923706055 238.29376983642578 L 257.45624923706055 238.29376983642578 L 257.45624923706055 230.29376983642578 Z" stroke-miterlimit="10" stroke-width="0.5" stroke-dasharray=""/><text fill="#505050" stroke="none" font-family="monospace" font-size="14px" font-style="normal" font-weight="normal" text-decoration="normal" x="249.45624923706055" y="243.29376983642578" text-anchor="end" dominant-baseline="text-after-edge">1</text><path fill="white" stroke="#505050" paint-order="fill stroke markers" d=" M 248.37499618530273 199.54376983642578 L 264.37499618530273 199.54376983642578 L 264.37499618530273 215.54376983642578 L 248.37499618530273 215.54376983642578 L 256.37499618530273 207.54376983642578 L 248.37499618530273 199.54376983642578" stroke-miterlimit="10" stroke-width="0.5" stroke-dasharray=""/><path fill="none" stroke="#505050" paint-order="fill stroke markers" d=" M 256.37499618530273 203.54376983642578 L 264.37499618530273 203.54376983642578 L 264.37499618530273 211.54376983642578 L 256.37499618530273 211.54376983642578 L 256.37499618530273 203.54376983642578 Z" stroke-miterlimit="10" stroke-width="0.5" stroke-dasharray=""/><path fill="white" stroke="#505050" paint-order="fill stroke markers" d=" M 836.5782012939453 200.52186965942383 L 836.5782012939453 270.3741340637207 Q 836.5782012939453 278.3741340637207 844.5782012939453 278.3741340637207 L 1010.2087554931641 278.3741340637207 Q 1018.2087554931641 278.3741340637207 1018.2087554931641 270.3741340637207 L 1018.2087554931641 200.52186965942383 Q 1018.2087554931641 192.52186965942383 1010.2087554931641 192.52186965942383 L 844.5782012939453 192.52186965942383 Q 836.5782012939453 192.52186965942383 836.5782012939453 200.52186965942383" stroke-miterlimit="10" stroke-width="0.5" stroke-dasharray=""/><path fill="#F0F0F0" stroke="#505050" paint-order="fill stroke markers" d=" M 993.2087554931641 200.52186965942383 L 1018.2087554931641 200.52186965942383 L 1018.2087554931641 230.52186965942383 L 993.2087554931641 230.52186965942383 L 993.2087554931641 200.52186965942383 Z" stroke-miterlimit="10" stroke-width="0.5" stroke-dasharray=""/><text fill="#505050" stroke="none" font-family="monospace" font-size="14px" font-style="normal" font-weight="normal" text-decoration="normal" x="1005.7087554931641" y="218.52186965942383" text-anchor="middle" dominant-baseline="text-after-edge">n!</text><path fill="none" stroke="#505050" paint-order="fill stroke markers" d=" M 993.2087554931641 218.52186965942383 L 1001.2087554931641 218.52186965942383 L 1001.2087554931641 226.52186965942383 L 993.2087554931641 226.52186965942383 L 993.2087554931641 218.52186965942383 Z" stroke-miterlimit="10" stroke-width="0.5" stroke-dasharray=""/><path fill="none" stroke="#505050" paint-order="fill stroke markers" d=" M 1010.2087554931641 218.52186965942383 L 1018.2087554931641 218.52186965942383 L 1018.2087554931641 226.52186965942383 L 1010.2087554931641 226.52186965942383 L 1010.2087554931641 218.52186965942383 Z" stroke-miterlimit="10" stroke-width="0.5" stroke-dasharray=""/><path fill="white" stroke="#505050" paint-order="fill stroke markers" d=" M 887.0691070556641 202.0997200012207 L 954.0691070556641 202.0997200012207 L 954.0691070556641 248.0997200012207 L 887.0691070556641 248.0997200012207 L 887.0691070556641 202.0997200012207 Z" stroke-miterlimit="10" stroke-width="0.5" stroke-dasharray=""/><path fill="#F0F0F0" stroke="none" paint-order="stroke fill markers" d=""/><text fill="#505050" stroke="none" font-family="monospace" font-size="14px" font-style="normal" font-weight="normal" text-decoration="normal" x="920.5691070556641" y="220.0997200012207" text-anchor="middle" dominant-baseline="text-after-edge">facstep</text><path fill="none" stroke="#505050" paint-order="fill stroke markers" d=" M 887.0691070556641 221.0997200012207 L 895.0691070556641 221.0997200012207 L 895.0691070556641 229.0997200012207 L 887.0691070556641 229.0997200012207 L 887.0691070556641 221.0997200012207 Z" stroke-miterlimit="10" stroke-width="0.5" stroke-dasharray=""/><text fill="#505050" stroke="none" font-family="monospace" font-size="14px" font-style="normal" font-weight="normal" text-decoration="normal" x="903.0691070556641" y="234.0997200012207" text-anchor="start" dominant-baseline="text-after-edge">n</text><path fill="none" stroke="#505050" paint-order="fill stroke markers" d=" M 887.0691070556641 235.0997200012207 L 895.0691070556641 235.0997200012207 L 895.0691070556641 243.0997200012207 L 887.0691070556641 243.0997200012207 L 887.0691070556641 235.0997200012207 Z" stroke-miterlimit="10" stroke-width="0.5" stroke-dasharray=""/><text fill="#505050" stroke="none" font-family="monospace" font-size="14px" font-style="normal" font-weight="normal" text-decoration="normal" x="903.0691070556641" y="248.0997200012207" text-anchor="start" dominant-baseline="text-after-edge">acc</text><path fill="none" stroke="#505050" paint-order="fill stroke markers" d=" M 946.0691070556641 220.0997200012207 L 954.0691070556641 220.0997200012207 L 954.0691070556641 228.0997200012207 L 946.0691070556641 228.0997200012207 L 946.0691070556641 220.0997200012207 Z" stroke-miterlimit="10" stroke-width="0.5" stroke-dasharray=""/><path fill="#e0e0e0" stroke="none" paint-order="stroke fill markers" d=" M 791.1103057861328 210.01877212524414 L 783.1103057861328 187.01877212524414 L 783.1103057861328 233.01877212524414 Z M 879.0691070556641 225.0997200012207 L 887.0691070556641 202.0997200012207 L 887.0691070556641 248.0997200012207 Z"/><path fill="none" stroke="none"/><path fill="none" stroke="#e0e0e0" paint-order="fill stroke markers" d=" M 791.1103057861328 210.01877212524414 C 817.8829917527103 210.01877212524414 852.2964210890866 225.0997200012207 879.0691070556641 225.0997200012207" stroke-miterlimit="10" stroke-width="2" stroke-dasharray=""/><path fill="white" stroke="#505050" paint-order="fill stroke markers" d=" M 965.0243682861328 216.32574844360352 L 973.0243682861328 216.32574844360352 L 981.0243682861328 224.32574844360352 L 973.0243682861328 232.32574844360352 L 965.0243682861328 232.32574844360352 L 965.0243682861328 216.32574844360352" stroke-miterlimit="10" stroke-width="0.5" stroke-dasharray=""/><path fill="none" stroke="#505050" paint-order="fill stroke markers" d=" M 965.0243682861328 220.32574844360352 L 973.0243682861328 220.32574844360352 L 973.0243682861328 228.32574844360352 L 965.0243682861328 228.32574844360352 L 965.0243682861328 220.32574844360352 Z" stroke-miterlimit="10" stroke-width="0.5" stroke-dasharray=""/><path fill="white" stroke="#505050" paint-order="fill stroke markers" d=" M 839.0774688720703 240.15498733520508 L 871.0774688720703 240.15498733520508 L 871.0774688720703 258.1549873352051 L 839.0774688720703 258.1549873352051 L 839.0774688720703 240.15498733520508 Z" stroke-miterlimit="10" stroke-width="0.5" stroke-dasharray=""/><path fill="#F0F0F0" stroke="none" paint-order="stroke fill markers" d=""/><path fill="none" stroke="#505050" paint-order="fill stroke markers" d=" M 863.0774688720703 245.15498733520508 L 871.0774688720703 245.15498733520508 L 871.0774688720703 253.15498733520508 L 863.0774688720703 253.15498733520508 L 863.0774688720703 245.15498733520508 Z" stroke-miterlimit="10" stroke-width="0.5" stroke-dasharray=""/><text fill="#505050" stroke="none" font-family="monospace" font-size="14px" font-style="normal" font-weight="normal" text-decoration="normal" x="855.0774688720703" y="258.1549873352051" text-anchor="end" dominant-baseline="text-after-edge">1</text><path fill="white" stroke="#505050" paint-order="fill stroke markers" d=" M 846.6688385009766 201.52186965942383 L 862.6688385009766 201.52186965942383 L 862.6688385009766 217.52186965942383 L 846.6688385009766 217.52186965942383 L 854.6688385009766 209.52186965942383 L 846.6688385009766 201.52186965942383" stroke-miterlimit="10" stroke-width="0.5" stroke-dasharray=""/><path fill="none" stroke="#505050" paint-order="fill stroke markers" d=" M 854.6688385009766 205.52186965942383 L 862.6688385009766 205.52186965942383 L 862.6688385009766 213.52186965942383 L 854.6688385009766 213.52186965942383 L 854.6688385009766 205.52186965942383 Z" stroke-miterlimit="10" stroke-width="0.5" stroke-dasharray=""/><path fill="none" stroke="#505050" paint-order="fill stroke markers" d=" M 540.4126396179199 245.79690551757812 C 549.5943267021884 245.79690551757812 556.6747200812589 228.78752899169922 565.8564071655273 228.78752899169922" stroke-miterlimit="10" stroke-dasharray=""/><path fill="none" stroke="#505050" paint-order="fill stroke markers" d=" M 453.70953369140625 239.89377403259277 C 488.0602801329602 239.89377403259277 531.5056607239734 216.78752899169922 565.8564071655273 216.78752899169922" stroke-miterlimit="10" stroke-dasharray=""/><path fill="none" stroke="#505050" paint-order="fill stroke markers" d=" M 468.30328369140625 285.55626487731934 C 491.96057847469893 285.55626487731934 503.85533186465653 337.6406440734863 527.5126266479492 337.6406440734863" stroke-miterlimit="10" stroke-dasharray=""/><path fill="none" stroke="#505050" paint-order="fill stroke markers" d=" M 453.70953369140625 239.89377403259277 C 487.64989318653505 239.89377403259277 493.5722671528204 325.6406440734863 527.5126266479492 325.6406440734863" stroke-miterlimit="10" stroke-dasharray=""/><path fill="none" stroke="#505050" paint-order="fill stroke markers" d=" M 683.9876251220703 235.80626678466797 C 694.7153096354124 235.80626678466797 699.7334513509157 259.8448944091797 710.4611358642578 259.8448944091797" stroke-miterlimit="10" stroke-dasharray=""/><path fill="none" stroke="#505050" paint-order="fill stroke markers" d=" M 551.5126266479492 325.6406440734863 C 572.6788616061663 325.6406440734863 599.1464634060408 341.2750129699707 620.3126983642578 341.2750129699707" stroke-miterlimit="10" stroke-dasharray=""/><path fill="none" stroke="#505050" paint-order="fill stroke markers" d=" M 468.30328369140625 285.55626487731934 C 526.9131413905445 285.55626487731934 601.377767422932 247.80626678466797 659.9876251220703 247.80626678466797" stroke-miterlimit="10" stroke-dasharray=""/><path fill="none" stroke="#505050" paint-order="fill stroke markers" d=" M 590.8564071655273 216.78752899169922 C 612.3662977162797 216.78752899169922 638.4777345713179 235.80626678466797 659.9876251220703 235.80626678466797" stroke-miterlimit="10" stroke-dasharray=""/><path fill="none" stroke="#505050" paint-order="fill stroke markers" d=" M 599.6720237731934 297.33438873291016 C 610.5817927191938 297.33438873291016 609.4029294182574 327.2750129699707 620.3126983642578 327.2750129699707" stroke-miterlimit="10" stroke-dasharray=""/><path fill="none" stroke="#505050" paint-order="fill stroke markers" d=" M 453.70953369140625 239.89377403259277 C 493.8819289418056 239.89377403259277 534.499628522794 297.33438873291016 574.6720237731934 297.33438873291016" stroke-miterlimit="10" stroke-dasharray=""/><path fill="none" stroke="#505050" paint-order="fill stroke markers" d=" M 687.3126983642578 326.2750129699707 C 708.8725649279065 326.2750129699707 638.4277585584216 259.80626678466797 659.9876251220703 259.80626678466797" stroke-miterlimit="10" stroke-dasharray=""/><path fill="none" stroke="#505050" paint-order="fill stroke markers" d=" M 302.86562728881836 215.5500259399414 C 307.09937871563176 215.5500259399414 312.7443636549737 215.52814483642578 316.9781150817871 215.52814483642578" stroke-miterlimit="10" stroke-dasharray=""/><path fill="none" stroke="#505050" paint-order="fill stroke markers" d=" M 265.45624923706055 234.29376983642578 C 269.959143321188 234.29376983642578 274.3627332046909 227.5500259399414 278.86562728881836 227.5500259399414" stroke-miterlimit="10" stroke-dasharray=""/><path fill="none" stroke="#505050" paint-order="fill stroke markers" d=" M 264.37499618530273 207.54376983642578 C 269.3415913360668 207.54376983642578 273.8990321380543 215.5500259399414 278.86562728881836 215.5500259399414" stroke-miterlimit="10" stroke-dasharray=""/><path fill="none" stroke="#505050" paint-order="fill stroke markers" d=" M 954.0691070556641 224.0997200012207 C 957.3563848616324 224.0997200012207 961.7370904801645 224.32574844360352 965.0243682861328 224.32574844360352" stroke-miterlimit="10" stroke-dasharray=""/><path fill="none" stroke="#505050" paint-order="fill stroke markers" d=" M 871.0774688720703 249.15498733520508 C 876.7445386939233 249.15498733520508 881.402037233811 239.0997200012207 887.0691070556641 239.0997200012207" stroke-miterlimit="10" stroke-dasharray=""/><path fill="none" stroke="#505050" paint-order="fill stroke markers" d=" M 862.6688385009766 209.52186965942383 C 871.3535277535121 209.52186965942383 878.3844178031285 225.0997200012207 887.0691070556641 225.0997200012207" stroke-miterlimit="10" stroke-dasharray=""/></g></g></svg>