<svg version="1.1" xmlns="http://www.w3.org/2000/svg" xmlns:xlink="http://www.w3.org/1999/xlink" width="961.6598892211914" height="352.06420516967773"><defs/><g transform="translate(-167.6425552368164,-19.683120727539062)"><g><path fill="white" stroke="#505050" paint-order="fill stroke markers" d=" M 359.3748474121094 131.02929306030273 L 359.3748474121094 362.7473258972168 Q 359.3748474121094 370.7473258972168 367.3748474121094 370.7473258972168 L 816.7192230224609 370.7473258972168 Q 824.7192230224609 370.7473258972168 824.7192230224609 362.7473258972168 L 824.7192230224609 131.02929306030273 Q 824.7192230224609 123.02929306030273 816.7192230224609 123.02929306030273 L 367.3748474121094 123.02929306030273 Q 359.3748474121094 123.02929306030273 359.3748474121094 131.02929306030273" stroke-miterlimit="10" stroke-width="0.5" stroke-dasharray=""/><path fill="#F0F0F0" stroke="#505050" paint-order="fill stroke markers" d=" M 676.7192230224609 131.02929306030273 L 824.7192230224609 131.02929306030273 L 824.7192230224609 213.02929306030273 L 676.7192230224609 213.02929306030273 L 676.7192230224609 131.02929306030273 Z" stroke-miterlimit="10" stroke-width="0.5" stroke-dasharray=""/><text fill="#505050" stroke="none" font-family="monospace" font-size="14px" font-style="normal" font-weight="normal" text-decoration="normal" x="750.7192230224609" y="149.02929306030273" text-anchor="middle" dominant-baseline="text-after-edge">reduce</text><path fill="none" stroke="#505050" paint-order="fill stroke markers" d=" M 676.7192230224609 149.02929306030273 L 684.7192230224609 149.02929306030273 L 684.7192230224609 157.02929306030273 L 676.7192230224609 157.02929306030273 L 676.7192230224609 149.02929306030273 Z" stroke-miterlimit="10" stroke-width="0.5" stroke-dasharray=""/><text fill="#505050" stroke="none" font-family="monospace" font-size="14px" font-style="normal" font-weight="normal" text-decoration="normal" x="692.7192230224609" y="163.02929306030273" text-anchor="start" dominant-baseline="text-after-edge">n</text><path fill="none" stroke="#505050" paint-order="fill stroke markers" d=" M 676.7192230224609 163.02929306030273 L 684.7192230224609 163.02929306030273 L 684.7192230224609 171.02929306030273 L 676.7192230224609 171.02929306030273 L 676.7192230224609 163.02929306030273 Z" stroke-miterlimit="10" stroke-width="0.5" stroke-dasharray=""/><text fill="#505050" stroke="none" font-family="monospace" font-size="14px" font-style="normal" font-weight="normal" text-decoration="normal" x="692.7192230224609" y="177.02929306030273" text-anchor="start" dominant-baseline="text-after-edge">acc</text><path fill="none" stroke="#505050" paint-order="fill stroke markers" d=" M 676.7192230224609 177.02929306030273 L 733.7192230224609 177.02929306030273 L 733.7192230224609 209.02929306030273 L 676.7192230224609 209.02929306030273 L 676.7192230224609 177.02929306030273 Z" stroke-miterlimit="10" stroke-width="0.5" stroke-dasharray=""/><path fill="none" stroke="#505050" paint-order="fill stroke markers" d=" M 676.7192230224609 181.02929306030273 L 684.7192230224609 181.02929306030273 L 684.7192230224609 189.02929306030273 L 676.7192230224609 189.02929306030273 L 676.7192230224609 181.02929306030273 Z" stroke-miterlimit="10" stroke-width="0.5" stroke-dasharray=""/><text fill="#505050" stroke="none" font-family="monospace" font-size="14px" font-style="normal" font-weight="normal" text-decoration="normal" x="692.7192230224609" y="195.02929306030273" text-anchor="start" dominant-baseline="text-after-edge">i</text><path fill="none" stroke="#505050" paint-order="fill stroke markers" d=" M 676.7192230224609 195.02929306030273 L 684.7192230224609 195.02929306030273 L 684.7192230224609 203.02929306030273 L 676.7192230224609 203.02929306030273 L 676.7192230224609 195.02929306030273 Z" stroke-miterlimit="10" stroke-width="0.5" stroke-dasharray=""/><text fill="#505050" stroke="none" font-family="monospace" font-size="14px" font-style="normal" font-weight="normal" text-decoration="normal" x="692.7192230224609" y="209.02929306030273" text-anchor="start" dominant-baseline="text-after-edge">acc</text><path fill="none" stroke="#505050" paint-order="fill stroke markers" d=" M 725.7192230224609 181.02929306030273 L 733.7192230224609 181.02929306030273 L 733.7192230224609 189.02929306030273 L 725.7192230224609 189.02929306030273 L 725.7192230224609 181.02929306030273 Z" stroke-miterlimit="10" stroke-width="0.5" stroke-dasharray=""/><text fill="#505050" stroke="none" font-family="monospace" font-size="14px" font-style="normal" font-weight="normal" text-decoration="normal" x="741.7192230224609" y="202.02929306030273" text-anchor="start" dominant-baseline="text-after-edge">callback</text><path fill="none" stroke="#505050" paint-order="fill stroke markers" d=" M 816.7192230224609 149.02929306030273 L 824.7192230224609 149.02929306030273 L 824.7192230224609 157.02929306030273 L 816.7192230224609 157.02929306030273 L 816.7192230224609 149.02929306030273 Z" stroke-miterlimit="10" stroke-width="0.5" stroke-dasharray=""/><path fill="white" stroke="#505050" paint-order="fill stroke markers" d=" M 747.9203948974609 221.60940551757812 L 771.9203948974609 221.60940551757812 L 771.9203948974609 275.6094055175781 L 747.9203948974609 275.6094055175781 L 747.9203948974609 221.60940551757812 Z" stroke-miterlimit="10" stroke-width="0.5" stroke-dasharray=""/><path fill="#F0F0F0" stroke="none" paint-order="stroke fill markers" d=""/><text fill="#505050" stroke="none" font-family="monospace" font-size="14px" font-style="normal" font-weight="normal" text-decoration="normal" x="759.9203948974609" y="239.60940551757812" text-anchor="middle" dominant-baseline="text-after-edge">?</text><path fill="none" stroke="#505050" paint-order="fill stroke markers" d=" M 747.9203948974609 239.60940551757812 L 755.9203948974609 239.60940551757812 L 755.9203948974609 247.60940551757812 L 747.9203948974609 247.60940551757812 L 747.9203948974609 239.60940551757812 Z" stroke-miterlimit="10" stroke-width="0.5" stroke-dasharray=""/><path fill="none" stroke="#505050" paint-order="fill stroke markers" d=" M 747.9203948974609 251.60940551757812 L 755.9203948974609 251.60940551757812 L 755.9203948974609 259.6094055175781 L 747.9203948974609 259.6094055175781 L 747.9203948974609 251.60940551757812 Z" stroke-miterlimit="10" stroke-width="0.5" stroke-dasharray=""/><path fill="none" stroke="#505050" paint-order="fill stroke markers" d=" M 747.9203948974609 263.6094055175781 L 755.9203948974609 263.6094055175781 L 755.9203948974609 271.6094055175781 L 747.9203948974609 271.6094055175781 L 747.9203948974609 263.6094055175781 Z" stroke-miterlimit="10" stroke-width="0.5" stroke-dasharray=""/><path fill="none" stroke="#505050" paint-order="fill stroke markers" d=" M 763.9203948974609 239.60940551757812 L 771.9203948974609 239.60940551757812 L 771.9203948974609 247.60940551757812 L 763.9203948974609 247.60940551757812 L 763.9203948974609 239.60940551757812 Z" stroke-miterlimit="10" stroke-width="0.5" stroke-dasharray=""/><path fill="white" stroke="#505050" paint-order="fill stroke markers" d=" M 787.8932342529297 234.15644073486328 L 795.8932342529297 234.15644073486328 L 803.8932342529297 242.15644073486328 L 795.8932342529297 250.15644073486328 L 787.8932342529297 250.15644073486328 L 787.8932342529297 234.15644073486328" stroke-miterlimit="10" stroke-width="0.5" stroke-dasharray=""/><path fill="none" stroke="#505050" paint-order="fill stroke markers" d=" M 787.8932342529297 238.15644073486328 L 795.8932342529297 238.15644073486328 L 795.8932342529297 246.15644073486328 L 787.8932342529297 246.15644073486328 L 787.8932342529297 238.15644073486328 Z" stroke-miterlimit="10" stroke-width="0.5" stroke-dasharray=""/><path fill="white" stroke="#505050" paint-order="fill stroke markers" d=" M 372.8432312011719 225.57032585144043 L 421.8432312011719 225.57032585144043 L 421.8432312011719 243.57032585144043 L 372.8432312011719 243.57032585144043 L 380.8432312011719 234.57032585144043 L 372.8432312011719 225.57032585144043" stroke-miterlimit="10" stroke-width="0.5" stroke-dasharray=""/><path fill="none" stroke="#505050" paint-order="fill stroke markers" d=" M 413.8432312011719 229.57032585144043 L 421.8432312011719 229.57032585144043 L 421.8432312011719 237.57032585144043 L 413.8432312011719 237.57032585144043 L 413.8432312011719 229.57032585144043 Z" stroke-miterlimit="10" stroke-width="0.5" stroke-dasharray=""/><text fill="#505050" stroke="none" font-family="monospace" font-size="14px" font-style="normal" font-weight="normal" text-decoration="normal" x="405.8432312011719" y="243.57032585144043" text-anchor="end" dominant-baseline="text-after-edge">acc</text><path fill="white" stroke="#505050" paint-order="fill stroke markers" d=" M 376.5030212402344 174.90429496765137 L 408.5030212402344 174.90429496765137 L 408.5030212402344 192.90429496765137 L 376.5030212402344 192.90429496765137 L 384.5030212402344 183.90429496765137 L 376.5030212402344 174.90429496765137" stroke-miterlimit="10" stroke-width="0.5" stroke-dasharray=""/><path fill="none" stroke="#505050" paint-order="fill stroke markers" d=" M 400.5030212402344 178.90429496765137 L 408.5030212402344 178.90429496765137 L 408.5030212402344 186.90429496765137 L 400.5030212402344 186.90429496765137 L 400.5030212402344 178.90429496765137 Z" stroke-miterlimit="10" stroke-width="0.5" stroke-dasharray=""/><text fill="#505050" stroke="none" font-family="monospace" font-size="14px" font-style="normal" font-weight="normal" text-decoration="normal" x="392.5030212402344" y="192.90429496765137" text-anchor="end" dominant-baseline="text-after-edge">n</text><path fill="white" stroke="#505050" paint-order="fill stroke markers" d=" M 530.6818771362305 135.0089874267578 L 555.6818771362305 135.0089874267578 L 555.6818771362305 177.0089874267578 L 530.6818771362305 177.0089874267578 L 530.6818771362305 135.0089874267578 Z" stroke-miterlimit="10" stroke-width="0.5" stroke-dasharray=""/><path fill="#F0F0F0" stroke="none" paint-order="stroke fill markers" d=""/><text fill="#505050" stroke="none" font-family="monospace" font-size="14px" font-style="normal" font-weight="normal" text-decoration="normal" x="543.1818771362305" y="153.0089874267578" text-anchor="middle" dominant-baseline="text-after-edge">&lt;=</text><path fill="none" stroke="#505050" paint-order="fill stroke markers" d=" M 530.6818771362305 153.0089874267578 L 538.6818771362305 153.0089874267578 L 538.6818771362305 161.0089874267578 L 530.6818771362305 161.0089874267578 L 530.6818771362305 153.0089874267578 Z" stroke-miterlimit="10" stroke-width="0.5" stroke-dasharray=""/><path fill="none" stroke="#505050" paint-order="fill stroke markers" d=" M 530.6818771362305 165.0089874267578 L 538.6818771362305 165.0089874267578 L 538.6818771362305 173.0089874267578 L 530.6818771362305 173.0089874267578 L 530.6818771362305 165.0089874267578 Z" stroke-miterlimit="10" stroke-width="0.5" stroke-dasharray=""/><path fill="none" stroke="#505050" paint-order="fill stroke markers" d=" M 547.6818771362305 153.0089874267578 L 555.6818771362305 153.0089874267578 L 555.6818771362305 161.0089874267578 L 547.6818771362305 161.0089874267578 L 547.6818771362305 153.0089874267578 Z" stroke-miterlimit="10" stroke-width="0.5" stroke-dasharray=""/><path fill="white" stroke="#505050" paint-order="fill stroke markers" d=" M 463.20612716674805 180.80742645263672 L 495.20612716674805 180.80742645263672 L 495.20612716674805 198.80742645263672 L 463.20612716674805 198.80742645263672 L 463.20612716674805 180.80742645263672 Z" stroke-miterlimit="10" stroke-width="0.5" stroke-dasharray=""/><path fill="#F0F0F0" stroke="none" paint-order="stroke fill markers" d=""/><path fill="none" stroke="#505050" paint-order="fill stroke markers" d=" M 487.20612716674805 184.80742645263672 L 495.20612716674805 184.80742645263672 L 495.20612716674805 192.80742645263672 L 487.20612716674805 192.80742645263672 L 487.20612716674805 184.80742645263672 Z" stroke-miterlimit="10" stroke-width="0.5" stroke-dasharray=""/><text fill="#505050" stroke="none" font-family="monospace" font-size="14px" font-style="normal" font-weight="normal" text-decoration="normal" x="479.20612716674805" y="198.80742645263672" text-anchor="end" dominant-baseline="text-after-edge">1</text><path fill="white" stroke="#505050" paint-order="fill stroke markers" d=" M 580.8581390380859 258.7473258972168 L 728.8581390380859 258.7473258972168 L 728.8581390380859 340.7473258972168 L 580.8581390380859 340.7473258972168 L 580.8581390380859 258.7473258972168 Z" stroke-miterlimit="10" stroke-width="0.5" stroke-dasharray=""/><path fill="#F0F0F0" stroke="none" paint-order="stroke fill markers" d=""/><text fill="#505050" stroke="none" font-family="monospace" font-size="14px" font-style="normal" font-weight="normal" text-decoration="normal" x="654.8581390380859" y="276.7473258972168" text-anchor="middle" dominant-baseline="text-after-edge">reduce</text><path fill="none" stroke="#505050" paint-order="fill stroke markers" d=" M 580.8581390380859 276.7473258972168 L 588.8581390380859 276.7473258972168 L 588.8581390380859 284.7473258972168 L 580.8581390380859 284.7473258972168 L 580.8581390380859 276.7473258972168 Z" stroke-miterlimit="10" stroke-width="0.5" stroke-dasharray=""/><text fill="#505050" stroke="none" font-family="monospace" font-size="14px" font-style="normal" font-weight="normal" text-decoration="normal" x="596.8581390380859" y="290.7473258972168" text-anchor="start" dominant-baseline="text-after-edge">n</text><path fill="none" stroke="#505050" paint-order="fill stroke markers" d=" M 580.8581390380859 290.7473258972168 L 588.8581390380859 290.7473258972168 L 588.8581390380859 298.7473258972168 L 580.8581390380859 298.7473258972168 L 580.8581390380859 290.7473258972168 Z" stroke-miterlimit="10" stroke-width="0.5" stroke-dasharray=""/><text fill="#505050" stroke="none" font-family="monospace" font-size="14px" font-style="normal" font-weight="normal" text-decoration="normal" x="596.8581390380859" y="304.7473258972168" text-anchor="start" dominant-baseline="text-after-edge">acc</text><path fill="none" stroke="#505050" paint-order="fill stroke markers" d=" M 580.8581390380859 304.7473258972168 L 637.8581390380859 304.7473258972168 L 637.8581390380859 336.7473258972168 L 580.8581390380859 336.7473258972168 L 580.8581390380859 304.7473258972168 Z" stroke-miterlimit="10" stroke-width="0.5" stroke-dasharray=""/><path fill="none" stroke="#505050" paint-order="fill stroke markers" d=" M 580.8581390380859 308.7473258972168 L 588.8581390380859 308.7473258972168 L 588.8581390380859 316.7473258972168 L 580.8581390380859 316.7473258972168 L 580.8581390380859 308.7473258972168 Z" stroke-miterlimit="10" stroke-width="0.5" stroke-dasharray=""/><text fill="#505050" stroke="none" font-family="monospace" font-size="14px" font-style="normal" font-weight="normal" text-decoration="normal" x="596.8581390380859" y="322.7473258972168" text-anchor="start" dominant-baseline="text-after-edge">i</text><path fill="none" stroke="#505050" paint-order="fill stroke markers" d=" M 580.8581390380859 322.7473258972168 L 588.8581390380859 322.7473258972168 L 588.8581390380859 330.7473258972168 L 580.8581390380859 330.7473258972168 L 580.8581390380859 322.7473258972168 Z" stroke-miterlimit="10" stroke-width="0.5" stroke-dasharray=""/><text fill="#505050" stroke="none" font-family="monospace" font-size="14px" font-style="normal" font-weight="normal" text-decoration="normal" x="596.8581390380859" y="336.7473258972168" text-anchor="start" dominant-baseline="text-after-edge">acc</text><path fill="none" stroke="#505050" paint-order="fill stroke markers" d=" M 629.8581390380859 308.7473258972168 L 637.8581390380859 308.7473258972168 L 637.8581390380859 316.7473258972168 L 629.8581390380859 316.7473258972168 L 629.8581390380859 308.7473258972168 Z" stroke-miterlimit="10" stroke-width="0.5" stroke-dasharray=""/><text fill="#505050" stroke="none" font-family="monospace" font-size="14px" font-style="normal" font-weight="normal" text-decoration="normal" x="645.8581390380859" y="329.7473258972168" text-anchor="start" dominant-baseline="text-after-edge">callback</text><path fill="none" stroke="#505050" paint-order="fill stroke markers" d=" M 720.8581390380859 276.7473258972168 L 728.8581390380859 276.7473258972168 L 728.8581390380859 284.7473258972168 L 720.8581390380859 284.7473258972168 L 720.8581390380859 276.7473258972168 Z" stroke-miterlimit="10" stroke-width="0.5" stroke-dasharray=""/><path fill="#e0e0e0" stroke="none" paint-order="stroke fill markers" d=" M 832.7192230224609 172.02929306030273 L 824.7192230224609 131.02929306030273 L 824.7192230224609 213.02929306030273 Z M 572.8581390380859 299.7473258972168 L 580.8581390380859 258.7473258972168 L 580.8581390380859 340.7473258972168 Z"/><path fill="none" stroke="none"/><path fill="none" stroke="#e0e0e0" paint-order="fill stroke markers" d=" M 832.7192230224609 172.02929306030273 C 919.5844698091586 172.02929306030273 485.99289225138824 299.7473258972168 572.8581390380859 299.7473258972168" stroke-miterlimit="10" stroke-width="2" stroke-dasharray=""/><path fill="white" stroke="#505050" paint-order="fill stroke markers" d=" M 502.61535263061523 204.41592407226562 L 527.6153526306152 204.41592407226562 L 527.6153526306152 234.41592407226562 L 502.61535263061523 234.41592407226562 L 502.61535263061523 204.41592407226562 Z" stroke-miterlimit="10" stroke-width="0.5" stroke-dasharray=""/><path fill="#F0F0F0" stroke="none" paint-order="stroke fill markers" d=""/><text fill="#505050" stroke="none" font-family="monospace" font-size="14px" font-style="normal" font-weight="normal" text-decoration="normal" x="515.1153526306152" y="222.41592407226562" text-anchor="middle" dominant-baseline="text-after-edge">-1</text><path fill="none" stroke="#505050" paint-order="fill stroke markers" d=" M 502.61535263061523 222.41592407226562 L 510.61535263061523 222.41592407226562 L 510.61535263061523 230.41592407226562 L 502.61535263061523 230.41592407226562 L 502.61535263061523 222.41592407226562 Z" stroke-miterlimit="10" stroke-width="0.5" stroke-dasharray=""/><path fill="none" stroke="#505050" paint-order="fill stroke markers" d=" M 519.6153526306152 222.41592407226562 L 527.6153526306152 222.41592407226562 L 527.6153526306152 230.41592407226562 L 519.6153526306152 230.41592407226562 L 519.6153526306152 222.41592407226562 Z" stroke-miterlimit="10" stroke-width="0.5" stroke-dasharray=""/><path fill="none" stroke="none"/><path fill="white" stroke="#505050" paint-order="fill stroke markers" d=" M 363.0083236694336 292.8260154724121 L 454.0083236694336 292.8260154724121 L 454.0083236694336 346.8260154724121 L 363.0083236694336 346.8260154724121 L 371.0083236694336 319.8260154724121 L 363.0083236694336 292.8260154724121" stroke-miterlimit="10" stroke-width="0.5" stroke-dasharray="6,3"/><path fill="#F0F0F0" stroke="none" paint-order="stroke fill markers" d=" M 379.0083236694336 296.8260154724121 L 454.0083236694336 296.8260154724121 L 454.0083236694336 342.8260154724121 L 379.0083236694336 342.8260154724121 L 379.0083236694336 296.8260154724121 Z"/><path fill="none" stroke="#505050" paint-order="fill stroke markers" d=" M 379.0083236694336 296.8260154724121 L 454.0083236694336 296.8260154724121 L 454.0083236694336 342.8260154724121 L 379.0083236694336 342.8260154724121 L 379.0083236694336 296.8260154724121 Z" stroke-miterlimit="10" stroke-width="0.5" stroke-dasharray="0"/><text fill="#505050" stroke="none" font-family="monospace" font-size="14px" font-style="normal" font-weight="normal" text-decoration="normal" x="416.5083236694336" y="314.8260154724121" text-anchor="middle" dominant-baseline="text-after-edge">callback</text><path fill="none" stroke="#505050" paint-order="fill stroke markers" d=" M 379.0083236694336 314.8260154724121 L 387.0083236694336 314.8260154724121 L 387.0083236694336 322.8260154724121 L 379.0083236694336 322.8260154724121 L 379.0083236694336 314.8260154724121 Z" stroke-miterlimit="10" stroke-width="0.5" stroke-dasharray="0"/><text fill="#505050" stroke="none" font-family="monospace" font-size="14px" font-style="normal" font-weight="normal" text-decoration="normal" x="395.0083236694336" y="328.8260154724121" text-anchor="start" dominant-baseline="text-after-edge">i</text><path fill="none" stroke="#505050" paint-order="fill stroke markers" d=" M 379.0083236694336 328.8260154724121 L 387.0083236694336 328.8260154724121 L 387.0083236694336 336.8260154724121 L 379.0083236694336 336.8260154724121 L 379.0083236694336 328.8260154724121 Z" stroke-miterlimit="10" stroke-width="0.5" stroke-dasharray="0"/><text fill="#505050" stroke="none" font-family="monospace" font-size="14px" font-style="normal" font-weight="normal" text-decoration="normal" x="395.0083236694336" y="342.8260154724121" text-anchor="start" dominant-baseline="text-after-edge">acc</text><path fill="none" stroke="#505050" paint-order="fill stroke markers" d=" M 446.0083236694336 314.8260154724121 L 454.0083236694336 314.8260154724121 L 454.0083236694336 322.8260154724121 L 446.0083236694336 322.8260154724121 L 446.0083236694336 314.8260154724121 Z" stroke-miterlimit="10" stroke-width="0.5" stroke-dasharray="0"/><path fill="none" stroke="#505050" paint-order="fill stroke markers" d=" M 379.0083236694336 296.8260154724121 L 454.0083236694336 296.8260154724121 L 454.0083236694336 342.8260154724121 L 379.0083236694336 342.8260154724121 L 379.0083236694336 296.8260154724121 Z" stroke-miterlimit="10" stroke-width="0.5" stroke-dasharray="6,3"/><path fill="#F0F0F0" stroke="none" paint-order="stroke fill markers" d=""/><text fill="#505050" stroke="none" font-family="monospace" font-size="14px" font-style="normal" font-weight="normal" text-decoration="normal" x="416.5083236694336" y="314.8260154724121" text-anchor="middle" dominant-baseline="text-after-edge">callback</text><path fill="none" stroke="#505050" paint-order="fill stroke markers" d=" M 379.0083236694336 314.8260154724121 L 387.0083236694336 314.8260154724121 L 387.0083236694336 322.8260154724121 L 379.0083236694336 322.8260154724121 L 379.0083236694336 314.8260154724121 Z" stroke-miterlimit="10" stroke-width="0.5" stroke-dasharray="0"/><text fill="#505050" stroke="none" font-family="monospace" font-size="14px" font-style="normal" font-weight="normal" text-decoration="normal" x="395.0083236694336" y="328.8260154724121" text-anchor="start" dominant-baseline="text-after-edge">i</text><path fill="none" stroke="#505050" paint-order="fill stroke markers" d=" M 379.0083236694336 328.8260154724121 L 387.0083236694336 328.8260154724121 L 387.0083236694336 336.8260154724121 L 379.0083236694336 336.8260154724121 L 379.0083236694336 328.8260154724121 Z" stroke-miterlimit="10" stroke-width="0.5" stroke-dasharray="0"/><text fill="#505050" stroke="none" font-family="monospace" font-size="14px" font-style="normal" font-weight="normal" text-decoration="normal" x="395.0083236694336" y="342.8260154724121" text-anchor="start" dominant-baseline="text-after-edge">acc</text><path fill="none" stroke="#505050" paint-order="fill stroke markers" d=" M 446.0083236694336 314.8260154724121 L 454.0083236694336 314.8260154724121 L 454.0083236694336 322.8260154724121 L 446.0083236694336 322.8260154724121 L 446.0083236694336 314.8260154724121 Z" stroke-miterlimit="10" stroke-width="0.5" stroke-dasharray="0"/><path fill="#e0e0e0" stroke="none" paint-order="stroke fill markers" d=" M 323.6425552368164 318.4546012878418 L 315.6425552368164 295.4546012878418 L 315.6425552368164 341.4546012878418 Z M 371.0083236694336 319.8260154724121 L 379.0083236694336 296.8260154724121 L 379.0083236694336 342.8260154724121 Z"/><path fill="none" stroke="none"/><path fill="none" stroke="#e0e0e0" paint-order="fill stroke markers" d=" M 323.6425552368164 318.4546012878418 C 337.8582406457939 318.4546012878418 356.7926382604561 319.8260154724121 371.0083236694336 319.8260154724121" stroke-miterlimit="10" stroke-width="2" stroke-dasharray="0"/><path fill="white" stroke="#505050" paint-order="fill stroke markers" d=" M 480.86492308974266 263.8855209350586 L 555.8649230897427 263.8855209350586 L 555.8649230897427 309.8855209350586 L 480.86492308974266 309.8855209350586 L 480.86492308974266 263.8855209350586 Z" stroke-miterlimit="10" stroke-width="0.5" stroke-dasharray="0"/><path fill="#F0F0F0" stroke="none" paint-order="stroke fill markers" d=""/><text fill="#505050" stroke="none" font-family="monospace" font-size="14px" font-style="normal" font-weight="normal" text-decoration="normal" x="518.3649230897427" y="281.8855209350586" text-anchor="middle" dominant-baseline="text-after-edge">callback</text><path fill="none" stroke="#505050" paint-order="fill stroke markers" d=" M 480.86492308974266 281.8855209350586 L 488.86492308974266 281.8855209350586 L 488.86492308974266 289.8855209350586 L 480.86492308974266 289.8855209350586 L 480.86492308974266 281.8855209350586 Z" stroke-miterlimit="10" stroke-width="0.5" stroke-dasharray="0"/><text fill="#505050" stroke="none" font-family="monospace" font-size="14px" font-style="normal" font-weight="normal" text-decoration="normal" x="496.86492308974266" y="295.8855209350586" text-anchor="start" dominant-baseline="text-after-edge">i</text><path fill="none" stroke="#505050" paint-order="fill stroke markers" d=" M 480.86492308974266 295.8855209350586 L 488.86492308974266 295.8855209350586 L 488.86492308974266 303.8855209350586 L 480.86492308974266 303.8855209350586 L 480.86492308974266 295.8855209350586 Z" stroke-miterlimit="10" stroke-width="0.5" stroke-dasharray="0"/><text fill="#505050" stroke="none" font-family="monospace" font-size="14px" font-style="normal" font-weight="normal" text-decoration="normal" x="496.86492308974266" y="309.8855209350586" text-anchor="start" dominant-baseline="text-after-edge">acc</text><path fill="none" stroke="#505050" paint-order="fill stroke markers" d=" M 547.8649230897427 281.8855209350586 L 555.8649230897427 281.8855209350586 L 555.8649230897427 289.8855209350586 L 547.8649230897427 289.8855209350586 L 547.8649230897427 281.8855209350586 Z" stroke-miterlimit="10" stroke-width="0.5" stroke-dasharray="0"/><path fill="#e0e0e0" stroke="none" paint-order="stroke fill markers" d=" M 462.0083236694336 319.8260154724121 L 454.0083236694336 296.8260154724121 L 454.0083236694336 342.8260154724121 Z M 472.86492308974266 286.8855209350586 L 480.86492308974266 263.8855209350586 L 480.86492308974266 309.8855209350586 Z"/><path fill="none" stroke="none"/><path fill="none" stroke="#e0e0e0" paint-order="fill stroke markers" d=" M 462.0083236694336 319.8260154724121 C 472.4133596530553 319.8260154724121 462.45988710612096 286.8855209350586 472.86492308974266 286.8855209350586" stroke-miterlimit="10" stroke-width="2" stroke-dasharray="0"/><path fill="white" stroke="#505050" paint-order="fill stroke markers" d=" M 357.9099540710449 28.683120727539062 L 357.9099540710449 94.43312072753906 Q 357.9099540710449 102.43312072753906 365.9099540710449 102.43312072753906 L 501.8505668640137 102.43312072753906 Q 509.8505668640137 102.43312072753906 509.8505668640137 94.43312072753906 L 509.8505668640137 28.683120727539062 Q 509.8505668640137 20.683120727539062 501.8505668640137 20.683120727539062 L 365.9099540710449 20.683120727539062 Q 357.9099540710449 20.683120727539062 357.9099540710449 28.683120727539062" stroke-miterlimit="10" stroke-width="0.5" stroke-dasharray="0"/><path fill="#F0F0F0" stroke="#505050" paint-order="fill stroke markers" d=" M 484.8505668640137 28.683120727539062 L 509.8505668640137 28.683120727539062 L 509.8505668640137 58.68312072753906 L 484.8505668640137 58.68312072753906 L 484.8505668640137 28.683120727539062 Z" stroke-miterlimit="10" stroke-width="0.5" stroke-dasharray="0"/><text fill="#505050" stroke="none" font-family="monospace" font-size="14px" font-style="normal" font-weight="normal" text-decoration="normal" x="497.3505668640137" y="46.68312072753906" text-anchor="middle" dominant-baseline="text-after-edge">-1</text><path fill="none" stroke="#505050" paint-order="fill stroke markers" d=" M 484.8505668640137 46.68312072753906 L 492.8505668640137 46.68312072753906 L 492.8505668640137 54.68312072753906 L 484.8505668640137 54.68312072753906 L 484.8505668640137 46.68312072753906 Z" stroke-miterlimit="10" stroke-width="0.5" stroke-dasharray="0"/><path fill="none" stroke="#505050" paint-order="fill stroke markers" d=" M 501.8505668640137 46.68312072753906 L 509.8505668640137 46.68312072753906 L 509.8505668640137 54.68312072753906 L 501.8505668640137 54.68312072753906 L 501.8505668640137 46.68312072753906 Z" stroke-miterlimit="10" stroke-width="0.5" stroke-dasharray="0"/><path fill="white" stroke="#505050" paint-order="fill stroke markers" d=" M 424.3474540710449 28.683120727539062 L 448.3474540710449 28.683120727539062 L 448.3474540710449 70.68312072753906 L 424.3474540710449 70.68312072753906 L 424.3474540710449 28.683120727539062 Z" stroke-miterlimit="10" stroke-width="0.5" stroke-dasharray="0"/><path fill="#F0F0F0" stroke="none" paint-order="stroke fill markers" d=""/><text fill="#505050" stroke="none" font-family="monospace" font-size="14px" font-style="normal" font-weight="normal" text-decoration="normal" x="436.3474540710449" y="46.68312072753906" text-anchor="middle" dominant-baseline="text-after-edge">-</text><path fill="none" stroke="#505050" paint-order="fill stroke markers" d=" M 424.3474540710449 46.68312072753906 L 432.3474540710449 46.68312072753906 L 432.3474540710449 54.68312072753906 L 424.3474540710449 54.68312072753906 L 424.3474540710449 46.68312072753906 Z" stroke-miterlimit="10" stroke-width="0.5" stroke-dasharray="0"/><path fill="none" stroke="#505050" paint-order="fill stroke markers" d=" M 424.3474540710449 58.68312072753906 L 432.3474540710449 58.68312072753906 L 432.3474540710449 66.68312072753906 L 424.3474540710449 66.68312072753906 L 424.3474540710449 58.68312072753906 Z" stroke-miterlimit="10" stroke-width="0.5" stroke-dasharray="0"/><path fill="none" stroke="#505050" paint-order="fill stroke markers" d=" M 440.3474540710449 46.68312072753906 L 448.3474540710449 46.68312072753906 L 448.3474540710449 54.68312072753906 L 440.3474540710449 54.68312072753906 L 440.3474540710449 46.68312072753906 Z" stroke-miterlimit="10" stroke-width="0.5" stroke-dasharray="0"/><path fill="white" stroke="#505050" paint-order="fill stroke markers" d=" M 462.634090423584 43.06379699707031 L 470.634090423584 43.06379699707031 L 478.634090423584 51.06379699707031 L 470.634090423584 59.06379699707031 L 462.634090423584 59.06379699707031 L 462.634090423584 43.06379699707031" stroke-miterlimit="10" stroke-width="0.5" stroke-dasharray="0"/><path fill="none" stroke="#505050" paint-order="fill stroke markers" d=" M 462.634090423584 47.06379699707031 L 470.634090423584 47.06379699707031 L 470.634090423584 55.06379699707031 L 462.634090423584 55.06379699707031 L 462.634090423584 47.06379699707031 Z" stroke-miterlimit="10" stroke-width="0.5" stroke-dasharray="0"/><path fill="white" stroke="#505050" paint-order="fill stroke markers" d=" M 361.42870712280273 68.43312072753906 L 393.42870712280273 68.43312072753906 L 393.42870712280273 86.43312072753906 L 361.42870712280273 86.43312072753906 L 361.42870712280273 68.43312072753906 Z" stroke-miterlimit="10" stroke-width="0.5" stroke-dasharray="0"/><path fill="#F0F0F0" stroke="none" paint-order="stroke fill markers" d=""/><path fill="none" stroke="#505050" paint-order="fill stroke markers" d=" M 385.42870712280273 72.43312072753906 L 393.42870712280273 72.43312072753906 L 393.42870712280273 80.43312072753906 L 385.42870712280273 80.43312072753906 L 385.42870712280273 72.43312072753906 Z" stroke-miterlimit="10" stroke-width="0.5" stroke-dasharray="0"/><text fill="#505050" stroke="none" font-family="monospace" font-size="14px" font-style="normal" font-weight="normal" text-decoration="normal" x="377.42870712280273" y="86.43312072753906" text-anchor="end" dominant-baseline="text-after-edge">1</text><path fill="white" stroke="#505050" paint-order="fill stroke markers" d=" M 376.3474540710449 42.68312072753906 L 392.3474540710449 42.68312072753906 L 392.3474540710449 58.68312072753906 L 376.3474540710449 58.68312072753906 L 384.3474540710449 50.68312072753906 L 376.3474540710449 42.68312072753906" stroke-miterlimit="10" stroke-width="0.5" stroke-dasharray="0"/><path fill="none" stroke="#505050" paint-order="fill stroke markers" d=" M 384.3474540710449 46.68312072753906 L 392.3474540710449 46.68312072753906 L 392.3474540710449 54.68312072753906 L 384.3474540710449 54.68312072753906 L 384.3474540710449 46.68312072753906 Z" stroke-miterlimit="10" stroke-width="0.5" stroke-dasharray="0"/><path fill="white" stroke="#505050" paint-order="fill stroke markers" d=" M 862.7906646728516 172.20253372192383 L 862.7906646728516 305.6775588989258 Q 862.7906646728516 313.6775588989258 870.7906646728516 313.6775588989258 L 1120.3024444580078 313.6775588989258 Q 1128.3024444580078 313.6775588989258 1128.3024444580078 305.6775588989258 L 1128.3024444580078 172.20253372192383 Q 1128.3024444580078 164.20253372192383 1120.3024444580078 164.20253372192383 L 870.7906646728516 164.20253372192383 Q 862.7906646728516 164.20253372192383 862.7906646728516 172.20253372192383" stroke-miterlimit="10" stroke-width="0.5" stroke-dasharray="0"/><path fill="#F0F0F0" stroke="#505050" paint-order="fill stroke markers" d=" M 1103.3024444580078 172.20253372192383 L 1128.3024444580078 172.20253372192383 L 1128.3024444580078 202.20253372192383 L 1103.3024444580078 202.20253372192383 L 1103.3024444580078 172.20253372192383 Z" stroke-miterlimit="10" stroke-width="0.5" stroke-dasharray="0"/><text fill="#505050" stroke="none" font-family="monospace" font-size="14px" font-style="normal" font-weight="normal" text-decoration="normal" x="1115.8024444580078" y="190.20253372192383" text-anchor="middle" dominant-baseline="text-after-edge">n!</text><path fill="none" stroke="#505050" paint-order="fill stroke markers" d=" M 1103.3024444580078 190.20253372192383 L 1111.3024444580078 190.20253372192383 L 1111.3024444580078 198.20253372192383 L 1103.3024444580078 198.20253372192383 L 1103.3024444580078 190.20253372192383 Z" stroke-miterlimit="10" stroke-width="0.5" stroke-dasharray="0"/><path fill="none" stroke="#505050" paint-order="fill stroke markers" d=" M 1120.3024444580078 190.20253372192383 L 1128.3024444580078 190.20253372192383 L 1128.3024444580078 198.20253372192383 L 1120.3024444580078 198.20253372192383 L 1120.3024444580078 190.20253372192383 Z" stroke-miterlimit="10" stroke-width="0.5" stroke-dasharray="0"/><path fill="white" stroke="#505050" paint-order="fill stroke markers" d=" M 1085.5616607666016 192.07114028930664 L 1093.5616607666016 192.07114028930664 L 1101.5616607666016 200.07114028930664 L 1093.5616607666016 208.07114028930664 L 1085.5616607666016 208.07114028930664 L 1085.5616607666016 192.07114028930664" stroke-miterlimit="10" stroke-width="0.5" stroke-dasharray="0"/><path fill="none" stroke="#505050" paint-order="fill stroke markers" d=" M 1085.5616607666016 196.07114028930664 L 1093.5616607666016 196.07114028930664 L 1093.5616607666016 204.07114028930664 L 1085.5616607666016 204.07114028930664 L 1085.5616607666016 196.07114028930664 Z" stroke-miterlimit="10" stroke-width="0.5" stroke-dasharray="0"/><path fill="white" stroke="#505050" paint-order="fill stroke markers" d=" M 870.0937652587891 209.2838020324707 L 902.0937652587891 209.2838020324707 L 902.0937652587891 227.2838020324707 L 870.0937652587891 227.2838020324707 L 870.0937652587891 209.2838020324707 Z" stroke-miterlimit="10" stroke-width="0.5" stroke-dasharray="0"/><path fill="#F0F0F0" stroke="none" paint-order="stroke fill markers" d=""/><path fill="none" stroke="#505050" paint-order="fill stroke markers" d=" M 894.0937652587891 213.2838020324707 L 902.0937652587891 213.2838020324707 L 902.0937652587891 221.2838020324707 L 894.0937652587891 221.2838020324707 L 894.0937652587891 213.2838020324707 Z" stroke-miterlimit="10" stroke-width="0.5" stroke-dasharray="0"/><text fill="#505050" stroke="none" font-family="monospace" font-size="14px" font-style="normal" font-weight="normal" text-decoration="normal" x="886.0937652587891" y="227.2838020324707" text-anchor="end" dominant-baseline="text-after-edge">1</text><path fill="white" stroke="#505050" paint-order="fill stroke markers" d=" M 872.8813018798828 173.20253372192383 L 888.8813018798828 173.20253372192383 L 888.8813018798828 189.20253372192383 L 872.8813018798828 189.20253372192383 L 880.8813018798828 181.20253372192383 L 872.8813018798828 173.20253372192383" stroke-miterlimit="10" stroke-width="0.5" stroke-dasharray="0"/><path fill="none" stroke="#505050" paint-order="fill stroke markers" d=" M 880.8813018798828 177.20253372192383 L 888.8813018798828 177.20253372192383 L 888.8813018798828 185.20253372192383 L 880.8813018798828 185.20253372192383 L 880.8813018798828 177.20253372192383 Z" stroke-miterlimit="10" stroke-width="0.5" stroke-dasharray="0"/><path fill="none" stroke="none"/><path fill="white" stroke="#505050" paint-order="fill stroke markers" d=" M 872.0874526500702 247.67755889892578 L 904.0874526500702 247.67755889892578 L 912.0874526500702 272.6775588989258 L 904.0874526500702 297.6775588989258 L 872.0874526500702 297.6775588989258 L 872.0874526500702 247.67755889892578" stroke-miterlimit="10" stroke-width="0.5" stroke-dasharray="0"/><path fill="none" stroke="#505050" paint-order="fill stroke markers" d=" M 880.0874526500702 251.67755889892578 L 904.0874526500702 251.67755889892578 L 904.0874526500702 293.6775588989258 L 880.0874526500702 293.6775588989258 L 880.0874526500702 251.67755889892578 Z" stroke-miterlimit="10" stroke-width="0.5" stroke-dasharray="0"/><text fill="#505050" stroke="none" font-family="monospace" font-size="14px" font-style="normal" font-weight="normal" text-decoration="normal" x="892.0874526500702" y="269.6775588989258" text-anchor="middle" dominant-baseline="text-after-edge">*</text><path fill="none" stroke="#505050" paint-order="fill stroke markers" d=" M 880.0874526500702 269.6775588989258 L 888.0874526500702 269.6775588989258 L 888.0874526500702 277.6775588989258 L 880.0874526500702 277.6775588989258 L 880.0874526500702 269.6775588989258 Z" stroke-miterlimit="10" stroke-width="0.5" stroke-dasharray="0"/><path fill="none" stroke="#505050" paint-order="fill stroke markers" d=" M 880.0874526500702 281.6775588989258 L 888.0874526500702 281.6775588989258 L 888.0874526500702 289.6775588989258 L 880.0874526500702 289.6775588989258 L 880.0874526500702 281.6775588989258 Z" stroke-miterlimit="10" stroke-width="0.5" stroke-dasharray="0"/><path fill="none" stroke="#505050" paint-order="fill stroke markers" d=" M 896.0874526500702 269.6775588989258 L 904.0874526500702 269.6775588989258 L 904.0874526500702 277.6775588989258 L 896.0874526500702 277.6775588989258 L 896.0874526500702 269.6775588989258 Z" stroke-miterlimit="10" stroke-width="0.5" stroke-dasharray="0"/><path fill="none" stroke="#505050" paint-order="fill stroke markers" d=" M 880.0874526500702 251.67755889892578 L 904.0874526500702 251.67755889892578 L 904.0874526500702 293.6775588989258 L 880.0874526500702 293.6775588989258 L 880.0874526500702 251.67755889892578 Z" stroke-miterlimit="10" stroke-width="0.5" stroke-dasharray="0"/><path fill="#F0F0F0" stroke="none" paint-order="stroke fill markers" d=""/><text fill="#505050" stroke="none" font-family="monospace" font-size="14px" font-style="normal" font-weight="normal" text-decoration="normal" x="892.0874526500702" y="269.6775588989258" text-anchor="middle" dominant-baseline="text-after-edge">*</text><path fill="none" stroke="#505050" paint-order="fill stroke markers" d=" M 880.0874526500702 269.6775588989258 L 888.0874526500702 269.6775588989258 L 888.0874526500702 277.6775588989258 L 880.0874526500702 277.6775588989258 L 880.0874526500702 269.6775588989258 Z" stroke-miterlimit="10" stroke-width="0.5" stroke-dasharray="0"/><path fill="none" stroke="#505050" paint-order="fill stroke markers" d=" M 880.0874526500702 281.6775588989258 L 888.0874526500702 281.6775588989258 L 888.0874526500702 289.6775588989258 L 880.0874526500702 289.6775588989258 L 880.0874526500702 281.6775588989258 Z" stroke-miterlimit="10" stroke-width="0.5" stroke-dasharray="0"/><path fill="none" stroke="#505050" paint-order="fill stroke markers" d=" M 896.0874526500702 269.6775588989258 L 904.0874526500702 269.6775588989258 L 904.0874526500702 277.6775588989258 L 896.0874526500702 277.6775588989258 L 896.0874526500702 269.6775588989258 Z" stroke-miterlimit="10" stroke-width="0.5" stroke-dasharray="0"/><path fill="white" stroke="#505050" paint-order="fill stroke markers" d=" M 925.7975006103516 177.93916702270508 L 1073.7975006103516 177.93916702270508 L 1073.7975006103516 259.9391670227051 L 925.7975006103516 259.9391670227051 L 925.7975006103516 177.93916702270508 Z" stroke-miterlimit="10" stroke-width="0.5" stroke-dasharray="0"/><path fill="#F0F0F0" stroke="none" paint-order="stroke fill markers" d=""/><text fill="#505050" stroke="none" font-family="monospace" font-size="14px" font-style="normal" font-weight="normal" text-decoration="normal" x="999.7975006103516" y="195.93916702270508" text-anchor="middle" dominant-baseline="text-after-edge">reduce</text><path fill="none" stroke="#505050" paint-order="fill stroke markers" d=" M 925.7975006103516 195.93916702270508 L 933.7975006103516 195.93916702270508 L 933.7975006103516 203.93916702270508 L 925.7975006103516 203.93916702270508 L 925.7975006103516 195.93916702270508 Z" stroke-miterlimit="10" stroke-width="0.5" stroke-dasharray="0"/><text fill="#505050" stroke="none" font-family="monospace" font-size="14px" font-style="normal" font-weight="normal" text-decoration="normal" x="941.7975006103516" y="209.93916702270508" text-anchor="start" dominant-baseline="text-after-edge">n</text><path fill="none" stroke="#505050" paint-order="fill stroke markers" d=" M 925.7975006103516 209.93916702270508 L 933.7975006103516 209.93916702270508 L 933.7975006103516 217.93916702270508 L 925.7975006103516 217.93916702270508 L 925.7975006103516 209.93916702270508 Z" stroke-miterlimit="10" stroke-width="0.5" stroke-dasharray="0"/><text fill="#505050" stroke="none" font-family="monospace" font-size="14px" font-style="normal" font-weight="normal" text-decoration="normal" x="941.7975006103516" y="223.93916702270508" text-anchor="start" dominant-baseline="text-after-edge">acc</text><path fill="none" stroke="#505050" paint-order="fill stroke markers" d=" M 925.7975006103516 223.93916702270508 L 982.7975006103516 223.93916702270508 L 982.7975006103516 255.93916702270508 L 925.7975006103516 255.93916702270508 L 925.7975006103516 223.93916702270508 Z" stroke-miterlimit="10" stroke-width="0.5" stroke-dasharray="0"/><path fill="none" stroke="#505050" paint-order="fill stroke markers" d=" M 925.7975006103516 227.93916702270508 L 933.7975006103516 227.93916702270508 L 933.7975006103516 235.93916702270508 L 925.7975006103516 235.93916702270508 L 925.7975006103516 227.93916702270508 Z" stroke-miterlimit="10" stroke-width="0.5" stroke-dasharray="0"/><text fill="#505050" stroke="none" font-family="monospace" font-size="14px" font-style="normal" font-weight="normal" text-decoration="normal" x="941.7975006103516" y="241.93916702270508" text-anchor="start" dominant-baseline="text-after-edge">i</text><path fill="none" stroke="#505050" paint-order="fill stroke markers" d=" M 925.7975006103516 241.93916702270508 L 933.7975006103516 241.93916702270508 L 933.7975006103516 249.93916702270508 L 925.7975006103516 249.93916702270508 L 925.7975006103516 241.93916702270508 Z" stroke-miterlimit="10" stroke-width="0.5" stroke-dasharray="0"/><text fill="#505050" stroke="none" font-family="monospace" font-size="14px" font-style="normal" font-weight="normal" text-decoration="normal" x="941.7975006103516" y="255.93916702270508" text-anchor="start" dominant-baseline="text-after-edge">acc</text><path fill="none" stroke="#505050" paint-order="fill stroke markers" d=" M 974.7975006103516 227.93916702270508 L 982.7975006103516 227.93916702270508 L 982.7975006103516 235.93916702270508 L 974.7975006103516 235.93916702270508 L 974.7975006103516 227.93916702270508 Z" stroke-miterlimit="10" stroke-width="0.5" stroke-dasharray="0"/><text fill="#505050" stroke="none" font-family="monospace" font-size="14px" font-style="normal" font-weight="normal" text-decoration="normal" x="990.7975006103516" y="248.93916702270508" text-anchor="start" dominant-baseline="text-after-edge">callback</text><path fill="none" stroke="#505050" paint-order="fill stroke markers" d=" M 1065.7975006103516 195.93916702270508 L 1073.7975006103516 195.93916702270508 L 1073.7975006103516 203.93916702270508 L 1065.7975006103516 203.93916702270508 L 1065.7975006103516 195.93916702270508 Z" stroke-miterlimit="10" stroke-width="0.5" stroke-dasharray="0"/><path fill="#e0e0e0" stroke="none" paint-order="stroke fill markers" d=" M 832.7192230224609 172.02929306030273 L 824.7192230224609 131.02929306030273 L 824.7192230224609 213.02929306030273 Z M 917.7975006103516 218.93916702270508 L 925.7975006103516 177.93916702270508 L 925.7975006103516 259.9391670227051 Z"/><path fill="none" stroke="none"/><path fill="none" stroke="#e0e0e0" paint-order="fill stroke markers" d=" M 832.7192230224609 172.02929306030273 C 861.8653456346397 172.02929306030273 888.6513779981728 218.93916702270508 917.7975006103516 218.93916702270508" stroke-miterlimit="10" stroke-width="2" stroke-dasharray="0"/><path fill="white" stroke="#505050" paint-order="fill stroke markers" d=" M 168.6425552368164 295.4546012878418 L 168.6425552368164 351.0121269226074 Q 168.6425552368164 359.0121269226074 176.6425552368164 359.0121269226074 L 307.6425552368164 359.0121269226074 Q 315.6425552368164 359.0121269226074 315.6425552368164 351.0121269226074 L 315.6425552368164 295.4546012878418 Q 315.6425552368164 287.4546012878418 307.6425552368164 287.4546012878418 L 176.6425552368164 287.4546012878418 Q 168.6425552368164 287.4546012878418 168.6425552368164 295.4546012878418" stroke-miterlimit="10" stroke-width="0.5" stroke-dasharray="0"/><path fill="#F0F0F0" stroke="#505050" paint-order="fill stroke markers" d=" M 240.6425552368164 295.4546012878418 L 315.6425552368164 295.4546012878418 L 315.6425552368164 341.4546012878418 L 240.6425552368164 341.4546012878418 L 240.6425552368164 295.4546012878418 Z" stroke-miterlimit="10" stroke-width="0.5" stroke-dasharray="6,3"/><text fill="#505050" stroke="none" font-family="monospace" font-size="14px" font-style="normal" font-weight="normal" text-decoration="normal" x="278.1425552368164" y="313.4546012878418" text-anchor="middle" dominant-baseline="text-after-edge">callback</text><path fill="none" stroke="#505050" paint-order="fill stroke markers" d=" M 240.6425552368164 313.4546012878418 L 248.6425552368164 313.4546012878418 L 248.6425552368164 321.4546012878418 L 240.6425552368164 321.4546012878418 L 240.6425552368164 313.4546012878418 Z" stroke-miterlimit="10" stroke-width="0.5" stroke-dasharray="0"/><text fill="#505050" stroke="none" font-family="monospace" font-size="14px" font-style="normal" font-weight="normal" text-decoration="normal" x="256.6425552368164" y="327.4546012878418" text-anchor="start" dominant-baseline="text-after-edge">i</text><path fill="none" stroke="#505050" paint-order="fill stroke markers" d=" M 240.6425552368164 327.4546012878418 L 248.6425552368164 327.4546012878418 L 248.6425552368164 335.4546012878418 L 240.6425552368164 335.4546012878418 L 240.6425552368164 327.4546012878418 Z" stroke-miterlimit="10" stroke-width="0.5" stroke-dasharray="0"/><text fill="#505050" stroke="none" font-family="monospace" font-size="14px" font-style="normal" font-weight="normal" text-decoration="normal" x="256.6425552368164" y="341.4546012878418" text-anchor="start" dominant-baseline="text-after-edge">acc</text><path fill="none" stroke="#505050" paint-order="fill stroke markers" d=" M 307.6425552368164 313.4546012878418 L 315.6425552368164 313.4546012878418 L 315.6425552368164 321.4546012878418 L 307.6425552368164 321.4546012878418 L 307.6425552368164 313.4546012878418 Z" stroke-miterlimit="10" stroke-width="0.5" stroke-dasharray="0"/><path fill="white" stroke="#505050" paint-order="fill stroke markers" d=" M 176.6425552368164 295.4546012878418 L 208.6425552368164 295.4546012878418 L 208.6425552368164 313.4546012878418 L 176.6425552368164 313.4546012878418 L 184.6425552368164 304.4546012878418 L 176.6425552368164 295.4546012878418" stroke-miterlimit="10" stroke-width="0.5" stroke-dasharray="0"/><path fill="none" stroke="#505050" paint-order="fill stroke markers" d=" M 200.6425552368164 299.4546012878418 L 208.6425552368164 299.4546012878418 L 208.6425552368164 307.4546012878418 L 200.6425552368164 307.4546012878418 L 200.6425552368164 299.4546012878418 Z" stroke-miterlimit="10" stroke-width="0.5" stroke-dasharray="0"/><text fill="#505050" stroke="none" font-family="monospace" font-size="14px" font-style="normal" font-weight="normal" text-decoration="normal" x="192.6425552368164" y="313.4546012878418" text-anchor="end" dominant-baseline="text-after-edge">i</text><path fill="white" stroke="#505050" paint-order="fill stroke markers" d=" M 174.0573501586914 325.0121269226074 L 223.0573501586914 325.0121269226074 L 223.0573501586914 343.0121269226074 L 174.0573501586914 343.0121269226074 L 182.0573501586914 334.0121269226074 L 174.0573501586914 325.0121269226074" stroke-miterlimit="10" stroke-width="0.5" stroke-dasharray="0"/><path fill="none" stroke="#505050" paint-order="fill stroke markers" d=" M 215.0573501586914 329.0121269226074 L 223.0573501586914 329.0121269226074 L 223.0573501586914 337.0121269226074 L 215.0573501586914 337.0121269226074 L 215.0573501586914 329.0121269226074 Z" stroke-miterlimit="10" stroke-width="0.5" stroke-dasharray="0"/><text fill="#505050" stroke="none" font-family="monospace" font-size="14px" font-style="normal" font-weight="normal" text-decoration="normal" x="207.0573501586914" y="343.0121269226074" text-anchor="end" dominant-baseline="text-after-edge">acc</text><path fill="white" stroke="#505050" paint-order="fill stroke markers" d=" M 216.74271392822266 296.0867118835449 L 224.74271392822266 296.0867118835449 L 232.74271392822266 304.0867118835449 L 224.74271392822266 312.0867118835449 L 216.74271392822266 312.0867118835449 L 216.74271392822266 296.0867118835449" stroke-miterlimit="10" stroke-width="0.5" stroke-dasharray="0"/><path fill="none" stroke="#505050" paint-order="fill stroke markers" d=" M 216.74271392822266 300.0867118835449 L 224.74271392822266 300.0867118835449 L 224.74271392822266 308.0867118835449 L 216.74271392822266 308.0867118835449 L 216.74271392822266 300.0867118835449 Z" stroke-miterlimit="10" stroke-width="0.5" stroke-dasharray="0"/><path fill="none" stroke="#505050" paint-order="fill stroke markers" d=" M 495.20612716674805 188.80742645263672 C 507.39405693920247 188.80742645263672 518.4939473637761 169.0089874267578 530.6818771362305 169.0089874267578" stroke-miterlimit="10" stroke-dasharray="0"/><path fill="none" stroke="#505050" paint-order="fill stroke markers" d=" M 408.5030212402344 182.90429496765137 C 445.970895215979 182.90429496765137 493.21400316048585 157.0089874267578 530.6818771362305 157.0089874267578" stroke-miterlimit="10" stroke-dasharray="0"/><path fill="none" stroke="#505050" paint-order="fill stroke markers" d=" M 771.9203948974609 243.60940551757812 C 776.7320311405895 243.60940551757812 783.0815980098012 242.15644073486328 787.8932342529297 242.15644073486328" stroke-miterlimit="10" stroke-dasharray="0"/><path fill="none" stroke="#505050" paint-order="fill stroke markers" d=" M 421.8432312011719 233.57032585144043 C 519.8895640979571 233.57032585144043 649.8740620006757 255.60940551757812 747.9203948974609 255.60940551757812" stroke-miterlimit="10" stroke-dasharray="0"/><path fill="none" stroke="#505050" paint-order="fill stroke markers" d=" M 555.6818771362305 157.0089874267578 C 618.9351395912895 157.0089874267578 684.6671324424019 243.60940551757812 747.9203948974609 243.60940551757812" stroke-miterlimit="10" stroke-dasharray="0"/><path fill="none" stroke="#505050" paint-order="fill stroke markers" d=" M 527.6153526306152 226.41592407226562 C 550.436452463503 226.41592407226562 558.0370392051982 280.7473258972168 580.8581390380859 280.7473258972168" stroke-miterlimit="10" stroke-dasharray="0"/><path fill="none" stroke="#505050" paint-order="fill stroke markers" d=" M 408.5030212402344 182.90429496765137 C 439.60825152127126 182.90429496765137 471.51012234957835 226.41592407226562 502.61535263061523 226.41592407226562" stroke-miterlimit="10" stroke-dasharray="0"/><path fill="none" stroke="#505050" paint-order="fill stroke markers" d=" M 728.8581390380859 280.7473258972168 C 735.8034762891847 280.7473258972168 740.9750576463622 267.6094055175781 747.9203948974609 267.6094055175781" stroke-miterlimit="10" stroke-dasharray="0"/><path fill="none" stroke="#505050" paint-order="fill stroke markers" d=" M 454.0083236694336 319.8260154724121 C 492.06427198867016 319.8260154724121 542.8021907188494 320.7473258972168 580.8581390380859 320.7473258972168" stroke-miterlimit="10" stroke-dasharray="0"/><path fill="none" stroke="#505050" paint-order="fill stroke markers" d=" M 408.5030212402344 182.90429496765137 C 446.2617817693159 182.90429496765137 443.1061625606611 285.8855209350586 480.86492308974266 285.8855209350586" stroke-miterlimit="10" stroke-dasharray="0"/><path fill="none" stroke="#505050" paint-order="fill stroke markers" d=" M 421.8432312011719 233.57032585144043 C 448.4761782614034 233.57032585144043 454.23197602951115 299.8855209350586 480.86492308974266 299.8855209350586" stroke-miterlimit="10" stroke-dasharray="0"/><path fill="none" stroke="#505050" paint-order="fill stroke markers" d=" M 555.8649230897427 285.8855209350586 C 563.8202558141802 285.8855209350586 572.9028063136484 294.7473258972168 580.8581390380859 294.7473258972168" stroke-miterlimit="10" stroke-dasharray="0"/><path fill="none" stroke="#505050" paint-order="fill stroke markers" d=" M 448.3474540710449 50.68312072753906 C 452.63496621006783 50.68312072753906 458.3465782845611 51.06379699707031 462.634090423584 51.06379699707031" stroke-miterlimit="10" stroke-dasharray="0"/><path fill="none" stroke="#505050" paint-order="fill stroke markers" d=" M 393.42870712280273 76.43312072753906 C 403.58020096146754 76.43312072753906 414.1959602323801 62.68312072753906 424.3474540710449 62.68312072753906" stroke-miterlimit="10" stroke-dasharray="0"/><path fill="none" stroke="#505050" paint-order="fill stroke markers" d=" M 392.3474540710449 50.68312072753906 C 401.94745407104494 50.68312072753906 414.7474540710449 50.68312072753906 424.3474540710449 50.68312072753906" stroke-miterlimit="10" stroke-dasharray="0"/><path fill="none" stroke="#505050" paint-order="fill stroke markers" d=" M 1073.7975006103516 199.93916702270508 C 1077.3269707265658 199.93916702270508 1082.0321906503873 200.07114028930664 1085.5616607666016 200.07114028930664" stroke-miterlimit="10" stroke-dasharray="0"/><path fill="none" stroke="#505050" paint-order="fill stroke markers" d=" M 902.0937652587891 217.2838020324707 C 909.2753269807888 217.2838020324707 918.6159388883518 213.93916702270508 925.7975006103516 213.93916702270508" stroke-miterlimit="10" stroke-dasharray="0"/><path fill="none" stroke="#505050" paint-order="fill stroke markers" d=" M 888.8813018798828 181.20253372192383 C 901.300965484586 181.20253372192383 913.3778370056484 199.93916702270508 925.7975006103516 199.93916702270508" stroke-miterlimit="10" stroke-dasharray="0"/><path fill="none" stroke="#505050" paint-order="fill stroke markers" d=" M 904.0874526500702 272.6775588989258 C 915.872254882483 272.6775588989258 914.0126983779387 239.93916702270508 925.7975006103516 239.93916702270508" stroke-miterlimit="10" stroke-dasharray="0"/></g></g></svg>