<svg version="1.1" xmlns="http://www.w3.org/2000/svg" xmlns:xlink="http://www.w3.org/1999/xlink" width="686.09375" height="200.7734375"><defs/><g transform="translate(-202.65625,-76.6796875)"><g><path fill="white" stroke="#505050" paint-order="fill stroke markers" d=" M 203.65625 204.98828125 L 203.65625 268.453125 Q 203.65625 276.453125 211.65625 276.453125 L 354.69921875 276.453125 Q 362.69921875 276.453125 362.69921875 268.453125 L 362.69921875 204.98828125 Q 362.69921875 196.98828125 354.69921875 196.98828125 L 211.65625 196.98828125 Q 203.65625 196.98828125 203.65625 204.98828125" stroke-miterlimit="10" stroke-width="0.5" stroke-dasharray=""/><path fill="#F0F0F0" stroke="#505050" paint-order="fill stroke markers" d=" M 321.69921875 234.453125 L 354.69921875 234.453125 L 354.69921875 268.453125 L 321.69921875 268.453125 L 321.69921875 234.453125 Z" stroke-miterlimit="10" stroke-width="0.5" stroke-dasharray=""/><text fill="#505050" stroke="none" font-family="monospace" font-size="14px" font-style="normal" font-weight="normal" text-decoration="normal" x="338.19921875" y="252.453125" text-anchor="middle" dominant-baseline="text-after-edge">-1</text><path fill="none" stroke="#505050" paint-order="fill stroke markers" d=" M 321.69921875 256.453125 L 329.69921875 256.453125 L 329.69921875 264.453125 L 321.69921875 264.453125 L 321.69921875 256.453125 Z" stroke-miterlimit="10" stroke-width="0.5" stroke-dasharray=""/><path fill="none" stroke="#505050" paint-order="fill stroke markers" d=" M 346.69921875 256.453125 L 354.69921875 256.453125 L 354.69921875 264.453125 L 346.69921875 264.453125 L 346.69921875 256.453125 Z" stroke-miterlimit="10" stroke-width="0.5" stroke-dasharray=""/><path fill="white" stroke="#505050" paint-order="fill stroke markers" d=" M 281.69921875 204.98828125 L 313.69921875 204.98828125 L 313.69921875 250.98828125 L 281.69921875 250.98828125 L 281.69921875 204.98828125 Z" stroke-miterlimit="10" stroke-width="0.5" stroke-dasharray=""/><text fill="#505050" stroke="none" font-family="monospace" font-size="14px" font-style="normal" font-weight="normal" text-decoration="normal" x="297.69921875" y="222.98828125" text-anchor="middle" dominant-baseline="text-after-edge">-</text><path fill="none" stroke="#505050" paint-order="fill stroke markers" d=" M 281.69921875 226.98828125 L 289.69921875 226.98828125 L 289.69921875 234.98828125 L 281.69921875 234.98828125 L 281.69921875 226.98828125 Z" stroke-miterlimit="10" stroke-width="0.5" stroke-dasharray=""/><path fill="none" stroke="#505050" paint-order="fill stroke markers" d=" M 281.69921875 238.98828125 L 289.69921875 238.98828125 L 289.69921875 246.98828125 L 281.69921875 246.98828125 L 281.69921875 238.98828125 Z" stroke-miterlimit="10" stroke-width="0.5" stroke-dasharray=""/><path fill="none" stroke="#505050" paint-order="fill stroke markers" d=" M 305.69921875 226.98828125 L 313.69921875 226.98828125 L 313.69921875 234.98828125 L 305.69921875 234.98828125 L 305.69921875 226.98828125 Z" stroke-miterlimit="10" stroke-width="0.5" stroke-dasharray=""/><path fill="white" stroke="#505050" paint-order="fill stroke markers" d=" M 211.65625 238.453125 L 259.65625 238.453125 L 259.65625 260.453125 L 211.65625 260.453125 L 211.65625 238.453125 Z" stroke-miterlimit="10" stroke-width="0.5" stroke-dasharray=""/><path fill="none" stroke="#505050" paint-order="fill stroke markers" d=" M 251.65625 247.453125 L 259.65625 247.453125 L 259.65625 255.453125 L 251.65625 255.453125 L 251.65625 247.453125 Z" stroke-miterlimit="10" stroke-width="0.5" stroke-dasharray=""/><text fill="#505050" stroke="none" font-family="monospace" font-size="14px" font-style="normal" font-weight="normal" text-decoration="normal" x="243.65625" y="256.453125" text-anchor="end" dominant-baseline="text-after-edge">1</text><path fill="white" stroke="#505050" paint-order="fill stroke markers" d=" M 414.06640625 85.6796875 L 414.06640625 256.234375 Q 414.06640625 264.234375 422.06640625 264.234375 L 879.75 264.234375 Q 887.75 264.234375 887.75 256.234375 L 887.75 85.6796875 Q 887.75 77.6796875 879.75 77.6796875 L 422.06640625 77.6796875 Q 414.06640625 77.6796875 414.06640625 85.6796875" stroke-miterlimit="10" stroke-width="0.5" stroke-dasharray=""/><path fill="#F0F0F0" stroke="#505050" paint-order="fill stroke markers" d=" M 814.75 234.234375 L 879.75 234.234375 L 879.75 256.234375 L 814.75 256.234375 L 814.75 234.234375 Z" stroke-miterlimit="10" stroke-width="0.5" stroke-dasharray=""/><path fill="none" stroke="#505050" paint-order="fill stroke markers" d=" M 814.75 242.234375 L 822.75 242.234375 L 822.75 250.234375 L 814.75 250.234375 L 814.75 242.234375 Z" stroke-miterlimit="10" stroke-width="0.5" stroke-dasharray=""/><path fill="none" stroke="#505050" paint-order="fill stroke markers" d=" M 871.75 243.234375 L 879.75 243.234375 L 879.75 251.234375 L 871.75 251.234375 L 871.75 243.234375 Z" stroke-miterlimit="10" stroke-width="0.5" stroke-dasharray=""/><text fill="#505050" stroke="none" font-family="monospace" font-size="14px" font-style="normal" font-weight="normal" text-decoration="normal" x="863.75" y="252.234375" text-anchor="end" dominant-baseline="text-after-edge">n!</text><path fill="white" stroke="#505050" paint-order="fill stroke markers" d=" M 593.81640625 153.26171875 L 625.81640625 153.26171875 L 625.81640625 199.26171875 L 593.81640625 199.26171875 L 593.81640625 153.26171875 Z" stroke-miterlimit="10" stroke-width="0.5" stroke-dasharray=""/><text fill="#505050" stroke="none" font-family="monospace" font-size="14px" font-style="normal" font-weight="normal" text-decoration="normal" x="609.81640625" y="171.26171875" text-anchor="middle" dominant-baseline="text-after-edge">*</text><path fill="none" stroke="#505050" paint-order="fill stroke markers" d=" M 593.81640625 175.26171875 L 601.81640625 175.26171875 L 601.81640625 183.26171875 L 593.81640625 183.26171875 L 593.81640625 175.26171875 Z" stroke-miterlimit="10" stroke-width="0.5" stroke-dasharray=""/><path fill="none" stroke="#505050" paint-order="fill stroke markers" d=" M 593.81640625 187.26171875 L 601.81640625 187.26171875 L 601.81640625 195.26171875 L 593.81640625 195.26171875 L 593.81640625 187.26171875 Z" stroke-miterlimit="10" stroke-width="0.5" stroke-dasharray=""/><path fill="none" stroke="#505050" paint-order="fill stroke markers" d=" M 617.81640625 175.26171875 L 625.81640625 175.26171875 L 625.81640625 183.26171875 L 617.81640625 183.26171875 L 617.81640625 175.26171875 Z" stroke-miterlimit="10" stroke-width="0.5" stroke-dasharray=""/><path fill="white" stroke="#505050" paint-order="fill stroke markers" d=" M 661.75 101.94921875 L 693.75 101.94921875 L 693.75 159.94921875 L 661.75 159.94921875 L 661.75 101.94921875 Z" stroke-miterlimit="10" stroke-width="0.5" stroke-dasharray=""/><text fill="#505050" stroke="none" font-family="monospace" font-size="14px" font-style="normal" font-weight="normal" text-decoration="normal" x="677.75" y="119.94921875" text-anchor="middle" dominant-baseline="text-after-edge">?</text><path fill="none" stroke="#505050" paint-order="fill stroke markers" d=" M 661.75 123.94921875 L 669.75 123.94921875 L 669.75 131.94921875 L 661.75 131.94921875 L 661.75 123.94921875 Z" stroke-miterlimit="10" stroke-width="0.5" stroke-dasharray=""/><path fill="none" stroke="#505050" paint-order="fill stroke markers" d=" M 669.75 139.94921875 A 4 4 0 1 0 669.7499980000001 139.95321874933333" stroke-miterlimit="10" stroke-width="0.5" stroke-dasharray=""/><path fill="none" stroke="#505050" paint-order="fill stroke markers" d=" M 669.75 151.94921875 A 4 4 0 1 0 669.7499980000001 151.95321874933333" stroke-miterlimit="10" stroke-width="0.5" stroke-dasharray=""/><path fill="none" stroke="#505050" paint-order="fill stroke markers" d=" M 693.75 127.94921875 A 4 4 0 1 0 693.7499980000001 127.95321874933333" stroke-miterlimit="10" stroke-width="0.5" stroke-dasharray=""/><path fill="white" stroke="#505050" paint-order="fill stroke markers" d=" M 423.2109375 138.06640625 L 471.2109375 138.06640625 L 471.2109375 160.06640625 L 423.2109375 160.06640625 L 423.2109375 138.06640625 Z" stroke-miterlimit="10" stroke-width="0.5" stroke-dasharray=""/><path fill="none" stroke="#505050" paint-order="fill stroke markers" d=" M 463.2109375 147.06640625 L 471.2109375 147.06640625 L 471.2109375 155.06640625 L 463.2109375 155.06640625 L 463.2109375 147.06640625 Z" stroke-miterlimit="10" stroke-width="0.5" stroke-dasharray=""/><text fill="#505050" stroke="none" font-family="monospace" font-size="14px" font-style="normal" font-weight="normal" text-decoration="normal" x="455.2109375" y="156.06640625" text-anchor="end" dominant-baseline="text-after-edge">1</text><path fill="white" stroke="#505050" paint-order="fill stroke markers" d=" M 517.3828125 85.6796875 L 550.3828125 85.6796875 L 550.3828125 131.6796875 L 517.3828125 131.6796875 L 517.3828125 85.6796875 Z" stroke-miterlimit="10" stroke-width="0.5" stroke-dasharray=""/><text fill="#505050" stroke="none" font-family="monospace" font-size="14px" font-style="normal" font-weight="normal" text-decoration="normal" x="533.8828125" y="103.6796875" text-anchor="middle" dominant-baseline="text-after-edge">&lt;=</text><path fill="none" stroke="#505050" paint-order="fill stroke markers" d=" M 517.3828125 107.6796875 L 525.3828125 107.6796875 L 525.3828125 115.6796875 L 517.3828125 115.6796875 L 517.3828125 107.6796875 Z" stroke-miterlimit="10" stroke-width="0.5" stroke-dasharray=""/><path fill="none" stroke="#505050" paint-order="fill stroke markers" d=" M 517.3828125 119.6796875 L 525.3828125 119.6796875 L 525.3828125 127.6796875 L 517.3828125 127.6796875 L 517.3828125 119.6796875 Z" stroke-miterlimit="10" stroke-width="0.5" stroke-dasharray=""/><path fill="none" stroke="#505050" paint-order="fill stroke markers" d=" M 542.3828125 107.6796875 L 550.3828125 107.6796875 L 550.3828125 115.6796875 L 542.3828125 115.6796875 L 542.3828125 107.6796875 Z" stroke-miterlimit="10" stroke-width="0.5" stroke-dasharray=""/><path fill="white" stroke="#505050" paint-order="fill stroke markers" d=" M 424.52734375 91.32421875 L 448.52734375 91.32421875 L 448.52734375 111.32421875 L 424.52734375 111.32421875 L 432.52734375 101.32421875 L 424.52734375 91.32421875" stroke-miterlimit="10" stroke-width="0.5" stroke-dasharray=""/><path fill="none" stroke="#505050" paint-order="fill stroke markers" d=" M 448.52734375 103.32421875 A 4 4 0 1 0 448.5273417500002 103.32821874933333" stroke-miterlimit="10" stroke-width="0.5" stroke-dasharray=""/><path fill="white" stroke="#505050" paint-order="fill stroke markers" d=" M 510.65625 162.3984375 L 543.65625 162.3984375 L 543.65625 196.3984375 L 510.65625 196.3984375 L 510.65625 162.3984375 Z" stroke-miterlimit="10" stroke-width="0.5" stroke-dasharray=""/><text fill="#505050" stroke="none" font-family="monospace" font-size="14px" font-style="normal" font-weight="normal" text-decoration="normal" x="527.15625" y="180.3984375" text-anchor="middle" dominant-baseline="text-after-edge">-1</text><path fill="none" stroke="#505050" paint-order="fill stroke markers" d=" M 510.65625 184.3984375 L 518.65625 184.3984375 L 518.65625 192.3984375 L 510.65625 192.3984375 L 510.65625 184.3984375 Z" stroke-miterlimit="10" stroke-width="0.5" stroke-dasharray=""/><path fill="none" stroke="#505050" paint-order="fill stroke markers" d=" M 535.65625 184.3984375 L 543.65625 184.3984375 L 543.65625 192.3984375 L 535.65625 192.3984375 L 535.65625 184.3984375 Z" stroke-miterlimit="10" stroke-width="0.5" stroke-dasharray=""/><path fill="white" stroke="#505050" paint-order="fill stroke markers" d=" M 536.40625 221.2109375 L 601.40625 221.2109375 L 601.40625 243.2109375 L 536.40625 243.2109375 L 536.40625 221.2109375 Z" stroke-miterlimit="10" stroke-width="0.5" stroke-dasharray=""/><path fill="none" stroke="#505050" paint-order="fill stroke markers" d=" M 536.40625 229.2109375 L 544.40625 229.2109375 L 544.40625 237.2109375 L 536.40625 237.2109375 L 536.40625 229.2109375 Z" stroke-miterlimit="10" stroke-width="0.5" stroke-dasharray=""/><path fill="none" stroke="#505050" paint-order="fill stroke markers" d=" M 593.40625 230.2109375 L 601.40625 230.2109375 L 601.40625 238.2109375 L 593.40625 238.2109375 L 593.40625 230.2109375 Z" stroke-miterlimit="10" stroke-width="0.5" stroke-dasharray=""/><text fill="#505050" stroke="none" font-family="monospace" font-size="14px" font-style="normal" font-weight="normal" text-decoration="normal" x="585.40625" y="239.2109375" text-anchor="end" dominant-baseline="text-after-edge">n!</text><path fill="white" stroke="#505050" paint-order="fill stroke markers" d=" M 713.96484375 98.4765625 L 762.96484375 98.4765625 L 770.96484375 109.4765625 L 762.96484375 120.4765625 L 713.96484375 120.4765625 L 713.96484375 98.4765625" stroke-miterlimit="10" stroke-width="0.5" stroke-dasharray=""/><path fill="none" stroke="#505050" paint-order="fill stroke markers" d=" M 721.96484375 111.4765625 A 4 4 0 1 0 721.9648417500001 111.48056249933333" stroke-miterlimit="10" stroke-width="0.5" stroke-dasharray=""/><text fill="#505050" stroke="none" font-family="monospace" font-size="14px" font-style="normal" font-weight="normal" text-decoration="normal" x="729.96484375" y="116.4765625" text-anchor="start" dominant-baseline="text-after-edge">n!</text><path fill="none" stroke="#505050" paint-order="fill stroke markers" d=" M 259.65625 251.453125 C 283.65625 251.453125 257.69921875 242.98828125 281.69921875 242.98828125" stroke-miterlimit="10" stroke-dasharray=""/><path fill="none" stroke="#505050" paint-order="fill stroke markers" d=" M 543.65625 188.3984375 C 567.65625 188.3984375 512.40625 233.2109375 536.40625 233.2109375" stroke-miterlimit="10" stroke-dasharray=""/><path fill="none" stroke="#505050" paint-order="fill stroke markers" d=" M 471.2109375 151.06640625 C 495.2109375 151.06640625 493.3828125 123.6796875 517.3828125 123.6796875" stroke-miterlimit="10" stroke-dasharray=""/><path fill="none" stroke="#505050" paint-order="fill stroke markers" d=" M 471.2109375 151.06640625 C 495.2109375 151.06640625 637.75 139.94921875 661.75 139.94921875" stroke-miterlimit="10" stroke-dasharray=""/><path fill="none" stroke="#505050" paint-order="fill stroke markers" d=" M 550.3828125 111.6796875 C 574.3828125 111.6796875 637.75 127.94921875 661.75 127.94921875" stroke-miterlimit="10" stroke-dasharray=""/><path fill="none" stroke="#505050" paint-order="fill stroke markers" d=" M 625.81640625 179.26171875 C 649.81640625 179.26171875 637.75 151.94921875 661.75 151.94921875" stroke-miterlimit="10" stroke-dasharray=""/><path fill="none" stroke="#505050" paint-order="fill stroke markers" d=" M 601.40625 234.2109375 C 625.40625 234.2109375 569.81640625 191.26171875 593.81640625 191.26171875" stroke-miterlimit="10" stroke-dasharray=""/><path fill="none" stroke="#505050" paint-order="fill stroke markers" d=" M 693.75 127.94921875 C 717.75 127.94921875 689.96484375 111.4765625 713.96484375 111.4765625" stroke-miterlimit="10" stroke-dasharray=""/><path fill="none" stroke="#505050" paint-order="fill stroke markers" d=" M 448.52734375 103.32421875 C 472.52734375 103.32421875 493.3828125 111.6796875 517.3828125 111.6796875" stroke-miterlimit="10" stroke-dasharray=""/><path fill="none" stroke="#505050" paint-order="fill stroke markers" d=" M 448.52734375 103.32421875 C 472.52734375 103.32421875 569.81640625 179.26171875 593.81640625 179.26171875" stroke-miterlimit="10" stroke-dasharray=""/><path fill="none" stroke="#505050" paint-order="fill stroke markers" d=" M 448.52734375 103.32421875 C 472.52734375 103.32421875 486.65625 188.3984375 510.65625 188.3984375" stroke-miterlimit="10" stroke-dasharray=""/></g></g></svg>