<svg version="1.1" xmlns="http://www.w3.org/2000/svg" xmlns:xlink="http://www.w3.org/1999/xlink" width="1026.1046981811523" height="222.4801902770996"><defs/><g transform="translate(-356.2252731323242,-43.01827621459961)"><g><path fill="white" stroke="#505050" paint-order="fill stroke markers" d=" M 1141.5437774658203 146.30414199829102 L 1141.5437774658203 243.89819622039795 Q 1141.5437774658203 251.89819622039795 1149.5437774658203 251.89819622039795 L 1366.3299713134766 251.89819622039795 Q 1374.3299713134766 251.89819622039795 1374.3299713134766 243.89819622039795 L 1374.3299713134766 146.30414199829102 Q 1374.3299713134766 138.30414199829102 1366.3299713134766 138.30414199829102 L 1149.5437774658203 138.30414199829102 Q 1141.5437774658203 138.30414199829102 1141.5437774658203 146.30414199829102" stroke-miterlimit="10" stroke-width="0.5" stroke-dasharray=""/><path fill="#F0F0F0" stroke="#505050" paint-order="fill stroke markers" d=" M 1349.3299713134766 146.30414199829102 L 1374.3299713134766 146.30414199829102 L 1374.3299713134766 176.30414199829102 L 1349.3299713134766 176.30414199829102 L 1349.3299713134766 146.30414199829102 Z" stroke-miterlimit="10" stroke-width="0.5" stroke-dasharray=""/><path fill="none" stroke="none"/><text fill="#505050" stroke="none" font-family="monospace" font-size="14px" font-style="normal" font-weight="normal" text-decoration="normal" x="1361.8299713134766" y="164.30414199829102" text-anchor="middle" dominant-baseline="text-after-edge">n!</text><path fill="none" stroke="#505050" paint-order="fill stroke markers" d=" M 1349.3299713134766 164.30414199829102 L 1357.3299713134766 164.30414199829102 L 1357.3299713134766 172.30414199829102 L 1349.3299713134766 172.30414199829102 L 1349.3299713134766 164.30414199829102 Z" stroke-miterlimit="10" stroke-width="0.5" stroke-dasharray=""/><path fill="none" stroke="#505050" paint-order="fill stroke markers" d=" M 1366.3299713134766 164.30414199829102 L 1374.3299713134766 164.30414199829102 L 1374.3299713134766 172.30414199829102 L 1366.3299713134766 172.30414199829102 L 1366.3299713134766 164.30414199829102 Z" stroke-miterlimit="10" stroke-width="0.5" stroke-dasharray=""/><path fill="white" stroke="#505050" paint-order="fill stroke markers" d=" M 1150.4608306884766 177.38718032836914 L 1182.4608306884766 177.38718032836914 L 1182.4608306884766 195.38718032836914 L 1150.4608306884766 195.38718032836914 L 1150.4608306884766 177.38718032836914 Z" stroke-miterlimit="10" stroke-width="0.5" stroke-dasharray=""/><path fill="#F0F0F0" stroke="none" paint-order="stroke fill markers" d=""/><path fill="none" stroke="none"/><path fill="none" stroke="#505050" paint-order="fill stroke markers" d=" M 1174.4608306884766 181.38718032836914 L 1182.4608306884766 181.38718032836914 L 1182.4608306884766 189.38718032836914 L 1174.4608306884766 189.38718032836914 L 1174.4608306884766 181.38718032836914 Z" stroke-miterlimit="10" stroke-width="0.5" stroke-dasharray=""/><text fill="#505050" stroke="none" font-family="monospace" font-size="14px" font-style="normal" font-weight="normal" text-decoration="normal" x="1166.4608306884766" y="195.38718032836914" text-anchor="end" dominant-baseline="text-after-edge">1</text><path fill="white" stroke="#505050" paint-order="fill stroke markers" d=" M 1200.3033391833305 143.89819622039795 L 1291.3033391833305 143.89819622039795 L 1291.3033391833305 235.89819622039795 L 1200.3033391833305 235.89819622039795 L 1200.3033391833305 143.89819622039795 Z" stroke-miterlimit="10" stroke-width="0.5" stroke-dasharray=""/><path fill="#F0F0F0" stroke="none" paint-order="stroke fill markers" d=""/><path fill="none" stroke="none"/><text fill="#505050" stroke="none" font-family="monospace" font-size="14px" font-style="normal" font-weight="normal" text-decoration="normal" x="1245.8033391833305" y="161.89819622039795" text-anchor="middle" dominant-baseline="text-after-edge">reduce</text><path fill="none" stroke="#505050" paint-order="fill stroke markers" d=" M 1200.3033391833305 161.89819622039795 L 1208.3033391833305 161.89819622039795 L 1208.3033391833305 169.89819622039795 L 1200.3033391833305 169.89819622039795 L 1200.3033391833305 161.89819622039795 Z" stroke-miterlimit="10" stroke-width="0.5" stroke-dasharray=""/><text fill="#505050" stroke="none" font-family="monospace" font-size="14px" font-style="normal" font-weight="normal" text-decoration="normal" x="1216.3033391833305" y="175.89819622039795" text-anchor="start" dominant-baseline="text-after-edge">n</text><path fill="none" stroke="#505050" paint-order="fill stroke markers" d=" M 1200.3033391833305 175.89819622039795 L 1208.3033391833305 175.89819622039795 L 1208.3033391833305 183.89819622039795 L 1200.3033391833305 183.89819622039795 L 1200.3033391833305 175.89819622039795 Z" stroke-miterlimit="10" stroke-width="0.5" stroke-dasharray=""/><text fill="#505050" stroke="none" font-family="monospace" font-size="14px" font-style="normal" font-weight="normal" text-decoration="normal" x="1216.3033391833305" y="189.89819622039795" text-anchor="start" dominant-baseline="text-after-edge">end</text><path fill="none" stroke="#505050" paint-order="fill stroke markers" d=" M 1200.3033391833305 189.89819622039795 L 1208.3033391833305 189.89819622039795 L 1208.3033391833305 197.89819622039795 L 1200.3033391833305 197.89819622039795 L 1200.3033391833305 189.89819622039795 Z" stroke-miterlimit="10" stroke-width="0.5" stroke-dasharray=""/><text fill="#505050" stroke="none" font-family="monospace" font-size="14px" font-style="normal" font-weight="normal" text-decoration="normal" x="1216.3033391833305" y="203.89819622039795" text-anchor="start" dominant-baseline="text-after-edge">acc = 1</text><path fill="none" stroke="#505050" paint-order="fill stroke markers" d=" M 1200.3033391833305 203.89819622039795 L 1224.3033391833305 203.89819622039795 L 1224.3033391833305 231.89819622039795 L 1200.3033391833305 231.89819622039795 L 1200.3033391833305 203.89819622039795 Z" stroke-miterlimit="10" stroke-width="0.5" stroke-dasharray=""/><path fill="none" stroke="none"/><path fill="none" stroke="#505050" paint-order="fill stroke markers" d=" M 1200.3033391833305 207.89819622039795 L 1208.3033391833305 207.89819622039795 L 1208.3033391833305 215.89819622039795 L 1200.3033391833305 215.89819622039795 L 1200.3033391833305 207.89819622039795 Z" stroke-miterlimit="10" stroke-width="0.5" stroke-dasharray=""/><path fill="none" stroke="#505050" paint-order="fill stroke markers" d=" M 1200.3033391833305 219.89819622039795 L 1208.3033391833305 219.89819622039795 L 1208.3033391833305 227.89819622039795 L 1200.3033391833305 227.89819622039795 L 1200.3033391833305 219.89819622039795 Z" stroke-miterlimit="10" stroke-width="0.5" stroke-dasharray=""/><path fill="none" stroke="#505050" paint-order="fill stroke markers" d=" M 1216.3033391833305 207.89819622039795 L 1224.3033391833305 207.89819622039795 L 1224.3033391833305 215.89819622039795 L 1216.3033391833305 215.89819622039795 L 1216.3033391833305 207.89819622039795 Z" stroke-miterlimit="10" stroke-width="0.5" stroke-dasharray=""/><text fill="#505050" stroke="none" font-family="monospace" font-size="14px" font-style="normal" font-weight="normal" text-decoration="normal" x="1232.3033391833305" y="226.89819622039795" text-anchor="start" dominant-baseline="text-after-edge">*</text><path fill="none" stroke="#505050" paint-order="fill stroke markers" d=" M 1283.3033391833305 161.89819622039795 L 1291.3033391833305 161.89819622039795 L 1291.3033391833305 169.89819622039795 L 1283.3033391833305 169.89819622039795 L 1283.3033391833305 161.89819622039795 Z" stroke-miterlimit="10" stroke-width="0.5" stroke-dasharray=""/><path fill="white" stroke="#505050" paint-order="fill stroke markers" d=" M 1151.8872625231743 152.38571739196777 L 1167.8872625231743 152.38571739196777 L 1167.8872625231743 168.38571739196777 L 1151.8872625231743 168.38571739196777 L 1159.8872625231743 160.38571739196777 L 1151.8872625231743 152.38571739196777" stroke-miterlimit="10" stroke-width="0.5" stroke-dasharray=""/><path fill="none" stroke="none"/><path fill="none" stroke="#505050" paint-order="fill stroke markers" d=" M 1167.8872625231743 160.38571739196777 A 4 4 0 1 0 1167.8872605231745 160.3897173913011" stroke-miterlimit="10" stroke-width="0.5" stroke-dasharray=""/><path fill="white" stroke="#505050" paint-order="fill stroke markers" d=" M 1305.5 157.6875 L 1313.5 157.6875 L 1321.5 165.6875 L 1313.5 173.6875 L 1305.5 173.6875 L 1305.5 157.6875" stroke-miterlimit="10" stroke-width="0.5" stroke-dasharray=""/><path fill="none" stroke="none"/><path fill="none" stroke="#505050" paint-order="fill stroke markers" d=" M 1313.5 165.6875 A 4 4 0 1 0 1313.4999980000002 165.69149999933333" stroke-miterlimit="10" stroke-width="0.5" stroke-dasharray=""/><path fill="white" stroke="#505050" paint-order="fill stroke markers" d=" M 364.2252731323242 59.01827621459961 L 364.2252731323242 249.49846649169922 Q 364.2252731323242 257.4984664916992 372.2252731323242 257.4984664916992 L 1093.8555145263672 257.4984664916992 Q 1101.8555145263672 257.4984664916992 1101.8555145263672 249.49846649169922 L 1101.8555145263672 59.01827621459961 Q 1101.8555145263672 51.01827621459961 1093.8555145263672 51.01827621459961 L 372.2252731323242 51.01827621459961 Q 364.2252731323242 51.01827621459961 364.2252731323242 59.01827621459961" stroke-miterlimit="10" stroke-width="0.5" stroke-dasharray=""/><path fill="#F0F0F0" stroke="#505050" paint-order="fill stroke markers" d=" M 1042.8555145263672 59.01827621459961 L 1101.8555145263672 59.01827621459961 L 1101.8555145263672 145.0182762145996 L 1042.8555145263672 145.0182762145996 L 1042.8555145263672 59.01827621459961 Z" stroke-miterlimit="10" stroke-width="0.5" stroke-dasharray=""/><path fill="none" stroke="none"/><text fill="#505050" stroke="none" font-family="monospace" font-size="14px" font-style="normal" font-weight="normal" text-decoration="normal" x="1072.3555145263672" y="77.01827621459961" text-anchor="middle" dominant-baseline="text-after-edge">reduce</text><path fill="none" stroke="#505050" paint-order="fill stroke markers" d=" M 1042.8555145263672 77.01827621459961 L 1050.8555145263672 77.01827621459961 L 1050.8555145263672 85.01827621459961 L 1042.8555145263672 85.01827621459961 L 1042.8555145263672 77.01827621459961 Z" stroke-miterlimit="10" stroke-width="0.5" stroke-dasharray=""/><path fill="none" stroke="#505050" paint-order="fill stroke markers" d=" M 1042.8555145263672 89.01827621459961 L 1050.8555145263672 89.01827621459961 L 1050.8555145263672 97.01827621459961 L 1042.8555145263672 97.01827621459961 L 1042.8555145263672 89.01827621459961 Z" stroke-miterlimit="10" stroke-width="0.5" stroke-dasharray=""/><path fill="none" stroke="#505050" paint-order="fill stroke markers" d=" M 1042.8555145263672 101.01827621459961 L 1050.8555145263672 101.01827621459961 L 1050.8555145263672 109.01827621459961 L 1042.8555145263672 109.01827621459961 L 1042.8555145263672 101.01827621459961 Z" stroke-miterlimit="10" stroke-width="0.5" stroke-dasharray=""/><path fill="none" stroke="#505050" paint-order="fill stroke markers" d=" M 1042.8555145263672 113.01827621459961 L 1066.8555145263672 113.01827621459961 L 1066.8555145263672 141.0182762145996 L 1042.8555145263672 141.0182762145996 L 1042.8555145263672 113.01827621459961 Z" stroke-miterlimit="10" stroke-width="0.5" stroke-dasharray=""/><path fill="none" stroke="none"/><path fill="none" stroke="#505050" paint-order="fill stroke markers" d=" M 1042.8555145263672 117.01827621459961 L 1050.8555145263672 117.01827621459961 L 1050.8555145263672 125.01827621459961 L 1042.8555145263672 125.01827621459961 L 1042.8555145263672 117.01827621459961 Z" stroke-miterlimit="10" stroke-width="0.5" stroke-dasharray=""/><path fill="none" stroke="#505050" paint-order="fill stroke markers" d=" M 1042.8555145263672 129.0182762145996 L 1050.8555145263672 129.0182762145996 L 1050.8555145263672 137.0182762145996 L 1042.8555145263672 137.0182762145996 L 1042.8555145263672 129.0182762145996 Z" stroke-miterlimit="10" stroke-width="0.5" stroke-dasharray=""/><path fill="none" stroke="#505050" paint-order="fill stroke markers" d=" M 1058.8555145263672 117.01827621459961 L 1066.8555145263672 117.01827621459961 L 1066.8555145263672 125.01827621459961 L 1058.8555145263672 125.01827621459961 L 1058.8555145263672 117.01827621459961 Z" stroke-miterlimit="10" stroke-width="0.5" stroke-dasharray=""/><text fill="#505050" stroke="none" font-family="monospace" font-size="14px" font-style="normal" font-weight="normal" text-decoration="normal" x="1074.8555145263672" y="136.0182762145996" text-anchor="start" dominant-baseline="text-after-edge">*</text><path fill="none" stroke="#505050" paint-order="fill stroke markers" d=" M 1093.8555145263672 77.01827621459961 L 1101.8555145263672 77.01827621459961 L 1101.8555145263672 85.01827621459961 L 1093.8555145263672 85.01827621459961 L 1093.8555145263672 77.01827621459961 Z" stroke-miterlimit="10" stroke-width="0.5" stroke-dasharray=""/><path fill="none" stroke="#505050" paint-order="fill stroke markers" d=" M 909.0103093981743 110.9758710861206 L 901.0103093981743 110.9758710861206 M 909.0103093981743 124.9758710861206 L 901.0103093981743 124.9758710861206 M 1000.0103093981743 110.9758710861206 L 1008.0103093981743 110.9758710861206" stroke-miterlimit="10" stroke-dasharray=""/><path fill="white" stroke="#505050" paint-order="fill stroke markers" d=" M 461.5043640136719 82.78532028198242 L 461.5043640136719 233.49846649169922 Q 461.5043640136719 241.49846649169922 469.5043640136719 241.49846649169922 L 869.8518829345703 241.49846649169922 Q 877.8518829345703 241.49846649169922 877.8518829345703 233.49846649169922 L 877.8518829345703 82.78532028198242 Q 877.8518829345703 74.78532028198242 869.8518829345703 74.78532028198242 L 469.5043640136719 74.78532028198242 Q 461.5043640136719 74.78532028198242 461.5043640136719 82.78532028198242" stroke-miterlimit="10" stroke-width="0.5" stroke-dasharray=""/><path fill="#F0F0F0" stroke="#505050" paint-order="fill stroke markers" d=" M 835.8518829345703 82.78532028198242 L 877.8518829345703 82.78532028198242 L 877.8518829345703 124.78532028198242 L 835.8518829345703 124.78532028198242 L 835.8518829345703 82.78532028198242 Z" stroke-miterlimit="10" stroke-width="0.5" stroke-dasharray=""/><path fill="none" stroke="none"/><text fill="#505050" stroke="none" font-family="monospace" font-size="14px" font-style="normal" font-weight="normal" text-decoration="normal" x="856.8518829345703" y="100.78532028198242" text-anchor="middle" dominant-baseline="text-after-edge">step</text><path fill="none" stroke="#505050" paint-order="fill stroke markers" d=" M 835.8518829345703 100.78532028198242 L 843.8518829345703 100.78532028198242 L 843.8518829345703 108.78532028198242 L 835.8518829345703 108.78532028198242 L 835.8518829345703 100.78532028198242 Z" stroke-miterlimit="10" stroke-width="0.5" stroke-dasharray=""/><path fill="none" stroke="#505050" paint-order="fill stroke markers" d=" M 835.8518829345703 112.78532028198242 L 843.8518829345703 112.78532028198242 L 843.8518829345703 120.78532028198242 L 835.8518829345703 120.78532028198242 L 835.8518829345703 112.78532028198242 Z" stroke-miterlimit="10" stroke-width="0.5" stroke-dasharray=""/><path fill="none" stroke="#505050" paint-order="fill stroke markers" d=" M 869.8518829345703 100.78532028198242 L 877.8518829345703 100.78532028198242 L 877.8518829345703 108.78532028198242 L 869.8518829345703 108.78532028198242 L 869.8518829345703 100.78532028198242 Z" stroke-miterlimit="10" stroke-width="0.5" stroke-dasharray=""/><path fill="white" stroke="#505050" paint-order="fill stroke markers" d=" M 811.6518707275391 135.3153839111328 L 835.6518707275391 135.3153839111328 L 835.6518707275391 189.3153839111328 L 811.6518707275391 189.3153839111328 L 811.6518707275391 135.3153839111328 Z" stroke-miterlimit="10" stroke-width="0.5" stroke-dasharray=""/><path fill="#F0F0F0" stroke="none" paint-order="stroke fill markers" d=""/><path fill="none" stroke="none"/><text fill="#505050" stroke="none" font-family="monospace" font-size="14px" font-style="normal" font-weight="normal" text-decoration="normal" x="823.6518707275391" y="153.3153839111328" text-anchor="middle" dominant-baseline="text-after-edge">?</text><path fill="none" stroke="#505050" paint-order="fill stroke markers" d=" M 811.6518707275391 153.3153839111328 L 819.6518707275391 153.3153839111328 L 819.6518707275391 161.3153839111328 L 811.6518707275391 161.3153839111328 L 811.6518707275391 153.3153839111328 Z" stroke-miterlimit="10" stroke-width="0.5" stroke-dasharray=""/><path fill="none" stroke="#505050" paint-order="fill stroke markers" d=" M 819.6518707275391 169.3153839111328 A 4 4 0 1 0 819.6518687275392 169.31938391046614" stroke-miterlimit="10" stroke-width="0.5" stroke-dasharray=""/><path fill="none" stroke="#505050" paint-order="fill stroke markers" d=" M 819.6518707275391 181.3153839111328 A 4 4 0 1 0 819.6518687275392 181.31938391046614" stroke-miterlimit="10" stroke-width="0.5" stroke-dasharray=""/><path fill="none" stroke="#505050" paint-order="fill stroke markers" d=" M 835.6518707275391 157.3153839111328 A 4 4 0 1 0 835.6518687275392 157.31938391046614" stroke-miterlimit="10" stroke-width="0.5" stroke-dasharray=""/><path fill="white" stroke="#505050" paint-order="fill stroke markers" d=" M 845.8518829345703 149.5296859741211 L 853.8518829345703 149.5296859741211 L 861.8518829345703 157.5296859741211 L 853.8518829345703 165.5296859741211 L 845.8518829345703 165.5296859741211 L 845.8518829345703 149.5296859741211" stroke-miterlimit="10" stroke-width="0.5" stroke-dasharray=""/><path fill="none" stroke="none"/><path fill="none" stroke="#505050" paint-order="fill stroke markers" d=" M 853.8518829345703 157.5296859741211 A 4 4 0 1 0 853.8518809345704 157.53368597345442" stroke-miterlimit="10" stroke-width="0.5" stroke-dasharray=""/><path fill="white" stroke="#505050" paint-order="fill stroke markers" d=" M 464.30621337890625 126.50819206237793 L 480.30621337890625 126.50819206237793 L 480.30621337890625 142.50819206237793 L 464.30621337890625 142.50819206237793 L 472.30621337890625 134.50819206237793 L 464.30621337890625 126.50819206237793" stroke-miterlimit="10" stroke-width="0.5" stroke-dasharray=""/><path fill="none" stroke="none"/><path fill="none" stroke="#505050" paint-order="fill stroke markers" d=" M 480.30621337890625 134.50819206237793 A 4 4 0 1 0 480.3062113789064 134.51219206171126" stroke-miterlimit="10" stroke-width="0.5" stroke-dasharray=""/><path fill="white" stroke="#505050" paint-order="fill stroke markers" d=" M 510.53271484375 88.11559104919434 L 526.53271484375 88.11559104919434 L 526.53271484375 104.11559104919434 L 510.53271484375 104.11559104919434 L 518.53271484375 96.11559104919434 L 510.53271484375 88.11559104919434" stroke-miterlimit="10" stroke-width="0.5" stroke-dasharray=""/><path fill="none" stroke="none"/><path fill="none" stroke="#505050" paint-order="fill stroke markers" d=" M 526.53271484375 96.11559104919434 A 4 4 0 1 0 526.5327128437501 96.11959104852767" stroke-miterlimit="10" stroke-width="0.5" stroke-dasharray=""/><path fill="white" stroke="#505050" paint-order="fill stroke markers" d=" M 618.9370956420898 79.75508117675781 L 643.9370956420898 79.75508117675781 L 643.9370956420898 121.75508117675781 L 618.9370956420898 121.75508117675781 L 618.9370956420898 79.75508117675781 Z" stroke-miterlimit="10" stroke-width="0.5" stroke-dasharray=""/><path fill="#F0F0F0" stroke="none" paint-order="stroke fill markers" d=""/><path fill="none" stroke="none"/><text fill="#505050" stroke="none" font-family="monospace" font-size="14px" font-style="normal" font-weight="normal" text-decoration="normal" x="631.4370956420898" y="97.75508117675781" text-anchor="middle" dominant-baseline="text-after-edge">&lt;=</text><path fill="none" stroke="#505050" paint-order="fill stroke markers" d=" M 618.9370956420898 97.75508117675781 L 626.9370956420898 97.75508117675781 L 626.9370956420898 105.75508117675781 L 618.9370956420898 105.75508117675781 L 618.9370956420898 97.75508117675781 Z" stroke-miterlimit="10" stroke-width="0.5" stroke-dasharray=""/><path fill="none" stroke="#505050" paint-order="fill stroke markers" d=" M 618.9370956420898 109.75508117675781 L 626.9370956420898 109.75508117675781 L 626.9370956420898 117.75508117675781 L 618.9370956420898 117.75508117675781 L 618.9370956420898 109.75508117675781 Z" stroke-miterlimit="10" stroke-width="0.5" stroke-dasharray=""/><path fill="none" stroke="#505050" paint-order="fill stroke markers" d=" M 635.9370956420898 97.75508117675781 L 643.9370956420898 97.75508117675781 L 643.9370956420898 105.75508117675781 L 635.9370956420898 105.75508117675781 L 635.9370956420898 97.75508117675781 Z" stroke-miterlimit="10" stroke-width="0.5" stroke-dasharray=""/><path fill="white" stroke="#505050" paint-order="fill stroke markers" d=" M 677.2013702392578 173.91848373413086 L 768.2013702392578 173.91848373413086 L 768.2013702392578 219.91848373413086 L 677.2013702392578 219.91848373413086 L 677.2013702392578 173.91848373413086 Z" stroke-miterlimit="10" stroke-width="0.5" stroke-dasharray=""/><path fill="#F0F0F0" stroke="none" paint-order="stroke fill markers" d=""/><path fill="none" stroke="none"/><text fill="#505050" stroke="none" font-family="monospace" font-size="14px" font-style="normal" font-weight="normal" text-decoration="normal" x="722.7013702392578" y="191.91848373413086" text-anchor="middle" dominant-baseline="text-after-edge">step</text><path fill="none" stroke="#505050" paint-order="fill stroke markers" d=" M 677.2013702392578 191.91848373413086 L 685.2013702392578 191.91848373413086 L 685.2013702392578 199.91848373413086 L 677.2013702392578 199.91848373413086 L 677.2013702392578 191.91848373413086 Z" stroke-miterlimit="10" stroke-width="0.5" stroke-dasharray=""/><text fill="#505050" stroke="none" font-family="monospace" font-size="14px" font-style="normal" font-weight="normal" text-decoration="normal" x="693.2013702392578" y="205.91848373413086" text-anchor="start" dominant-baseline="text-after-edge">n</text><path fill="none" stroke="#505050" paint-order="fill stroke markers" d=" M 677.2013702392578 205.91848373413086 L 685.2013702392578 205.91848373413086 L 685.2013702392578 213.91848373413086 L 677.2013702392578 213.91848373413086 L 677.2013702392578 205.91848373413086 Z" stroke-miterlimit="10" stroke-width="0.5" stroke-dasharray=""/><text fill="#505050" stroke="none" font-family="monospace" font-size="14px" font-style="normal" font-weight="normal" text-decoration="normal" x="693.2013702392578" y="219.91848373413086" text-anchor="start" dominant-baseline="text-after-edge">acc = 1</text><path fill="none" stroke="#505050" paint-order="fill stroke markers" d=" M 760.2013702392578 191.91848373413086 L 768.2013702392578 191.91848373413086 L 768.2013702392578 199.91848373413086 L 760.2013702392578 199.91848373413086 L 760.2013702392578 191.91848373413086 Z" stroke-miterlimit="10" stroke-width="0.5" stroke-dasharray=""/><path fill="white" stroke="#505050" paint-order="fill stroke markers" d=" M 620.3783813416958 181.64690399169922 L 644.3783813416958 181.64690399169922 L 644.3783813416958 223.64690399169922 L 620.3783813416958 223.64690399169922 L 620.3783813416958 181.64690399169922 Z" stroke-miterlimit="10" stroke-width="0.5" stroke-dasharray=""/><path fill="#F0F0F0" stroke="none" paint-order="stroke fill markers" d=""/><path fill="none" stroke="none"/><text fill="#505050" stroke="none" font-family="monospace" font-size="14px" font-style="normal" font-weight="normal" text-decoration="normal" x="632.3783813416958" y="199.64690399169922" text-anchor="middle" dominant-baseline="text-after-edge">*</text><path fill="none" stroke="#505050" paint-order="fill stroke markers" d=" M 620.3783813416958 199.64690399169922 L 628.3783813416958 199.64690399169922 L 628.3783813416958 207.64690399169922 L 620.3783813416958 207.64690399169922 L 620.3783813416958 199.64690399169922 Z" stroke-miterlimit="10" stroke-width="0.5" stroke-dasharray=""/><path fill="none" stroke="#505050" paint-order="fill stroke markers" d=" M 620.3783813416958 211.64690399169922 L 628.3783813416958 211.64690399169922 L 628.3783813416958 219.64690399169922 L 620.3783813416958 219.64690399169922 L 620.3783813416958 211.64690399169922 Z" stroke-miterlimit="10" stroke-width="0.5" stroke-dasharray=""/><path fill="none" stroke="#505050" paint-order="fill stroke markers" d=" M 636.3783813416958 199.64690399169922 L 644.3783813416958 199.64690399169922 L 644.3783813416958 207.64690399169922 L 636.3783813416958 207.64690399169922 L 636.3783813416958 199.64690399169922 Z" stroke-miterlimit="10" stroke-width="0.5" stroke-dasharray=""/><path fill="white" stroke="#505050" paint-order="fill stroke markers" d=" M 618.1949119567871 146.2021255493164 L 643.1949119567871 146.2021255493164 L 643.1949119567871 176.2021255493164 L 618.1949119567871 176.2021255493164 L 618.1949119567871 146.2021255493164 Z" stroke-miterlimit="10" stroke-width="0.5" stroke-dasharray=""/><path fill="#F0F0F0" stroke="none" paint-order="stroke fill markers" d=""/><path fill="none" stroke="none"/><text fill="#505050" stroke="none" font-family="monospace" font-size="14px" font-style="normal" font-weight="normal" text-decoration="normal" x="630.6949119567871" y="164.2021255493164" text-anchor="middle" dominant-baseline="text-after-edge">-1</text><path fill="none" stroke="#505050" paint-order="fill stroke markers" d=" M 618.1949119567871 164.2021255493164 L 626.1949119567871 164.2021255493164 L 626.1949119567871 172.2021255493164 L 618.1949119567871 172.2021255493164 L 618.1949119567871 164.2021255493164 Z" stroke-miterlimit="10" stroke-width="0.5" stroke-dasharray=""/><path fill="none" stroke="#505050" paint-order="fill stroke markers" d=" M 635.1949119567871 164.2021255493164 L 643.1949119567871 164.2021255493164 L 643.1949119567871 172.2021255493164 L 635.1949119567871 172.2021255493164 L 635.1949119567871 164.2021255493164 Z" stroke-miterlimit="10" stroke-width="0.5" stroke-dasharray=""/><path fill="none" stroke="none"/><path fill="white" stroke="#505050" paint-order="fill stroke markers" d=" M 381.12581634521484 151.9045066833496 L 421.12581634521484 151.9045066833496 L 421.12581634521484 201.9045066833496 L 381.12581634521484 201.9045066833496 L 389.12581634521484 176.9045066833496 L 381.12581634521484 151.9045066833496" stroke-miterlimit="10" stroke-width="0.5" stroke-dasharray=""/><path fill="#F0F0F0" stroke="none" paint-order="stroke fill markers" d=" M 397.12581634521484 155.9045066833496 L 421.12581634521484 155.9045066833496 L 421.12581634521484 197.9045066833496 L 397.12581634521484 197.9045066833496 L 397.12581634521484 155.9045066833496 Z"/><path fill="none" stroke="none"/><path fill="none" stroke="#505050" paint-order="fill stroke markers" d=" M 397.12581634521484 155.9045066833496 L 421.12581634521484 155.9045066833496 L 421.12581634521484 197.9045066833496 L 397.12581634521484 197.9045066833496 L 397.12581634521484 155.9045066833496 Z" stroke-miterlimit="10" stroke-width="0.5" stroke-dasharray=""/><path fill="none" stroke="none"/><text fill="#505050" stroke="none" font-family="monospace" font-size="14px" font-style="normal" font-weight="normal" text-decoration="normal" x="409.12581634521484" y="173.9045066833496" text-anchor="middle" dominant-baseline="text-after-edge">*</text><path fill="none" stroke="#505050" paint-order="fill stroke markers" d=" M 397.12581634521484 173.9045066833496 L 405.12581634521484 173.9045066833496 L 405.12581634521484 181.9045066833496 L 397.12581634521484 181.9045066833496 L 397.12581634521484 173.9045066833496 Z" stroke-miterlimit="10" stroke-width="0.5" stroke-dasharray=""/><path fill="none" stroke="#505050" paint-order="fill stroke markers" d=" M 397.12581634521484 185.9045066833496 L 405.12581634521484 185.9045066833496 L 405.12581634521484 193.9045066833496 L 397.12581634521484 193.9045066833496 L 397.12581634521484 185.9045066833496 Z" stroke-miterlimit="10" stroke-width="0.5" stroke-dasharray=""/><path fill="none" stroke="#505050" paint-order="fill stroke markers" d=" M 413.12581634521484 173.9045066833496 L 421.12581634521484 173.9045066833496 L 421.12581634521484 181.9045066833496 L 413.12581634521484 181.9045066833496 L 413.12581634521484 173.9045066833496 Z" stroke-miterlimit="10" stroke-width="0.5" stroke-dasharray=""/><path fill="white" stroke="#505050" paint-order="fill stroke markers" d=" M 395.2994804382324 104.99420928955078 L 411.2994804382324 104.99420928955078 L 411.2994804382324 120.99420928955078 L 395.2994804382324 120.99420928955078 L 403.2994804382324 112.99420928955078 L 395.2994804382324 104.99420928955078" stroke-miterlimit="10" stroke-width="0.5" stroke-dasharray=""/><path fill="none" stroke="none"/><path fill="none" stroke="#505050" paint-order="fill stroke markers" d=" M 411.2994804382324 112.99420928955078 A 4 4 0 1 0 411.2994784382326 112.99820928888411" stroke-miterlimit="10" stroke-width="0.5" stroke-dasharray=""/><path fill="white" stroke="#505050" paint-order="fill stroke markers" d=" M 909.0103093981743 88.9758710861206 L 1000.0103093981743 88.9758710861206 L 1000.0103093981743 134.9758710861206 L 909.0103093981743 134.9758710861206 L 909.0103093981743 88.9758710861206 Z" stroke-miterlimit="10" stroke-width="0.5" stroke-dasharray=""/><path fill="#F0F0F0" stroke="none" paint-order="stroke fill markers" d=""/><path fill="none" stroke="none"/><text fill="#505050" stroke="none" font-family="monospace" font-size="14px" font-style="normal" font-weight="normal" text-decoration="normal" x="954.5103093981743" y="106.9758710861206" text-anchor="middle" dominant-baseline="text-after-edge">step</text><path fill="none" stroke="#505050" paint-order="fill stroke markers" d=" M 909.0103093981743 106.9758710861206 L 917.0103093981743 106.9758710861206 L 917.0103093981743 114.9758710861206 L 909.0103093981743 114.9758710861206 L 909.0103093981743 106.9758710861206 Z" stroke-miterlimit="10" stroke-width="0.5" stroke-dasharray=""/><text fill="#505050" stroke="none" font-family="monospace" font-size="14px" font-style="normal" font-weight="normal" text-decoration="normal" x="925.0103093981743" y="120.9758710861206" text-anchor="start" dominant-baseline="text-after-edge">n</text><path fill="none" stroke="#505050" paint-order="fill stroke markers" d=" M 909.0103093981743 120.9758710861206 L 917.0103093981743 120.9758710861206 L 917.0103093981743 128.9758710861206 L 909.0103093981743 128.9758710861206 L 909.0103093981743 120.9758710861206 Z" stroke-miterlimit="10" stroke-width="0.5" stroke-dasharray=""/><text fill="#505050" stroke="none" font-family="monospace" font-size="14px" font-style="normal" font-weight="normal" text-decoration="normal" x="925.0103093981743" y="134.9758710861206" text-anchor="start" dominant-baseline="text-after-edge">acc = 1</text><path fill="none" stroke="#505050" paint-order="fill stroke markers" d=" M 992.0103093981743 106.9758710861206 L 1000.0103093981743 106.9758710861206 L 1000.0103093981743 114.9758710861206 L 992.0103093981743 114.9758710861206 L 992.0103093981743 106.9758710861206 Z" stroke-miterlimit="10" stroke-width="0.5" stroke-dasharray=""/><path fill="none" stroke="none"/><path fill="none" stroke="#e0e0e0" paint-order="fill stroke markers" d=" M 1105.8555145263672 102.01827621459961 C 1154.07801333484 102.01827621459961 1148.0808403748576 234.89819622039795 1196.3033391833305 234.89819622039795" stroke-miterlimit="10" stroke-width="2" stroke-dasharray=""/><path fill="none" stroke="none"/><path fill="none" stroke="#e0e0e0" paint-order="fill stroke markers" d=" M 881.8518829345703 103.78532028198242 C 953.3442696600562 103.78532028198242 601.708983513772 218.91848373413086 673.2013702392578 218.91848373413086" stroke-miterlimit="10" stroke-width="2" stroke-dasharray=""/><path fill="none" stroke="none"/><path fill="none" stroke="#e0e0e0" paint-order="fill stroke markers" d=" M 425.12581634521484 176.9045066833496 C 484.1198155962601 176.9045066833496 557.3843820906505 222.64690399169922 616.3783813416958 222.64690399169922" stroke-miterlimit="10" stroke-width="2" stroke-dasharray=""/><path fill="none" stroke="none"/><path fill="none" stroke="#e0e0e0" paint-order="fill stroke markers" d=" M 881.8518829345703 103.78532028198242 C 893.2668024117925 103.78532028198242 893.5953899209521 133.9758710861206 905.0103093981743 133.9758710861206" stroke-miterlimit="10" stroke-width="2" stroke-dasharray=""/><path fill="none" stroke="#505050" paint-order="fill stroke markers" d=" M 1182.4608306884766 185.38718032836914 C 1188.061148985983 185.38718032836914 1194.7030208858241 179.89819622039795 1200.3033391833305 179.89819622039795" stroke-miterlimit="10" stroke-dasharray=""/><path fill="none" stroke="#505050" paint-order="fill stroke markers" d=" M 1167.8872625231743 160.38571739196777 C 1177.7516961307563 160.38571739196777 1190.4389055757485 165.89819622039795 1200.3033391833305 165.89819622039795" stroke-miterlimit="10" stroke-dasharray=""/><path fill="none" stroke="#505050" paint-order="fill stroke markers" d=" M 1291.3033391833305 165.89819622039795 C 1295.5628064518603 165.89819622039795 1301.2405327314702 165.6875 1305.5 165.6875" stroke-miterlimit="10" stroke-dasharray=""/><path fill="none" stroke="#505050" paint-order="fill stroke markers" d=" M 411.2994804382324 112.99420928955078 C 473.5911832213612 112.99420928955078 556.645392858961 113.75508117675781 618.9370956420898 113.75508117675781" stroke-miterlimit="10" stroke-dasharray=""/><path fill="none" stroke="#505050" paint-order="fill stroke markers" d=" M 835.6518707275391 157.3153839111328 C 838.712549687476 157.3153839111328 842.7912039746334 157.5296859741211 845.8518829345703 157.5296859741211" stroke-miterlimit="10" stroke-dasharray=""/><path fill="none" stroke="#505050" paint-order="fill stroke markers" d=" M 480.30621337890625 134.50819206237793 C 580.2568695665343 134.50819206237793 711.701214539911 169.3153839111328 811.6518707275391 169.3153839111328" stroke-miterlimit="10" stroke-dasharray=""/><path fill="none" stroke="#505050" paint-order="fill stroke markers" d=" M 643.9370956420898 101.75508117675781 C 696.9405613020903 101.75508117675781 758.6484050675386 157.3153839111328 811.6518707275391 157.3153839111328" stroke-miterlimit="10" stroke-dasharray=""/><path fill="none" stroke="#505050" paint-order="fill stroke markers" d=" M 768.2013702392578 195.91848373413086 C 781.9530132880368 195.91848373413086 797.9002276787601 181.3153839111328 811.6518707275391 181.3153839111328" stroke-miterlimit="10" stroke-dasharray=""/><path fill="none" stroke="#505050" paint-order="fill stroke markers" d=" M 526.53271484375 96.11559104919434 C 569.3497595166654 96.11559104919434 577.5613366687804 203.64690399169922 620.3783813416958 203.64690399169922" stroke-miterlimit="10" stroke-dasharray=""/><path fill="none" stroke="#505050" paint-order="fill stroke markers" d=" M 480.30621337890625 134.50819206237793 C 528.868886833125 134.50819206237793 571.8157078874771 215.64690399169922 620.3783813416958 215.64690399169922" stroke-miterlimit="10" stroke-dasharray=""/><path fill="none" stroke="#505050" paint-order="fill stroke markers" d=" M 644.3783813416958 203.64690399169922 C 654.4034159120683 203.64690399169922 667.1763356688853 209.91848373413086 677.2013702392578 209.91848373413086" stroke-miterlimit="10" stroke-dasharray=""/><path fill="none" stroke="#505050" paint-order="fill stroke markers" d=" M 526.53271484375 96.11559104919434 C 554.3056082754059 96.11559104919434 591.1642022104339 101.75508117675781 618.9370956420898 101.75508117675781" stroke-miterlimit="10" stroke-dasharray=""/><path fill="none" stroke="#505050" paint-order="fill stroke markers" d=" M 643.1949119567871 168.2021255493164 C 656.3561130583269 168.2021255493164 664.0401691377181 195.91848373413086 677.2013702392578 195.91848373413086" stroke-miterlimit="10" stroke-dasharray=""/><path fill="none" stroke="#505050" paint-order="fill stroke markers" d=" M 526.53271484375 96.11559104919434 C 561.5164026885783 96.11559104919434 583.2112241119588 168.2021255493164 618.1949119567871 168.2021255493164" stroke-miterlimit="10" stroke-dasharray=""/></g></g></svg>