<svg version="1.1" xmlns="http://www.w3.org/2000/svg" xmlns:xlink="http://www.w3.org/1999/xlink" width="910.6158218383789" height="352.06420516967773"><defs/><g transform="translate(-167.6425552368164,-19.683120727539062)"><g><path fill="white" stroke="#505050" paint-order="fill stroke markers" d=" M 359.3748474121094 131.02929306030273 L 359.3748474121094 362.7473258972168 Q 359.3748474121094 370.7473258972168 367.3748474121094 370.7473258972168 L 779.7447967529297 370.7473258972168 Q 787.7447967529297 370.7473258972168 787.7447967529297 362.7473258972168 L 787.7447967529297 131.02929306030273 Q 787.7447967529297 123.02929306030273 779.7447967529297 123.02929306030273 L 367.3748474121094 123.02929306030273 Q 359.3748474121094 123.02929306030273 359.3748474121094 131.02929306030273" stroke-miterlimit="10" stroke-width="0.5" stroke-dasharray=""/><path fill="#F0F0F0" stroke="#505050" paint-order="fill stroke markers" d=" M 639.7447967529297 131.02929306030273 L 787.7447967529297 131.02929306030273 L 787.7447967529297 213.02929306030273 L 639.7447967529297 213.02929306030273 L 639.7447967529297 131.02929306030273 Z" stroke-miterlimit="10" stroke-width="0.5" stroke-dasharray=""/><text fill="#505050" stroke="none" font-family="monospace" font-size="14px" font-style="normal" font-weight="normal" text-decoration="normal" x="713.7447967529297" y="149.02929306030273" text-anchor="middle" dominant-baseline="text-after-edge">reduce</text><path fill="none" stroke="#505050" paint-order="fill stroke markers" d=" M 639.7447967529297 149.02929306030273 L 647.7447967529297 149.02929306030273 L 647.7447967529297 157.02929306030273 L 639.7447967529297 157.02929306030273 L 639.7447967529297 149.02929306030273 Z" stroke-miterlimit="10" stroke-width="0.5" stroke-dasharray=""/><text fill="#505050" stroke="none" font-family="monospace" font-size="14px" font-style="normal" font-weight="normal" text-decoration="normal" x="655.7447967529297" y="163.02929306030273" text-anchor="start" dominant-baseline="text-after-edge">n</text><path fill="none" stroke="#505050" paint-order="fill stroke markers" d=" M 639.7447967529297 163.02929306030273 L 647.7447967529297 163.02929306030273 L 647.7447967529297 171.02929306030273 L 639.7447967529297 171.02929306030273 L 639.7447967529297 163.02929306030273 Z" stroke-miterlimit="10" stroke-width="0.5" stroke-dasharray=""/><text fill="#505050" stroke="none" font-family="monospace" font-size="14px" font-style="normal" font-weight="normal" text-decoration="normal" x="655.7447967529297" y="177.02929306030273" text-anchor="start" dominant-baseline="text-after-edge">acc</text><path fill="none" stroke="#505050" paint-order="fill stroke markers" d=" M 639.7447967529297 177.02929306030273 L 696.7447967529297 177.02929306030273 L 696.7447967529297 209.02929306030273 L 639.7447967529297 209.02929306030273 L 639.7447967529297 177.02929306030273 Z" stroke-miterlimit="10" stroke-width="0.5" stroke-dasharray=""/><path fill="none" stroke="#505050" paint-order="fill stroke markers" d=" M 639.7447967529297 181.02929306030273 L 647.7447967529297 181.02929306030273 L 647.7447967529297 189.02929306030273 L 639.7447967529297 189.02929306030273 L 639.7447967529297 181.02929306030273 Z" stroke-miterlimit="10" stroke-width="0.5" stroke-dasharray=""/><text fill="#505050" stroke="none" font-family="monospace" font-size="14px" font-style="normal" font-weight="normal" text-decoration="normal" x="655.7447967529297" y="195.02929306030273" text-anchor="start" dominant-baseline="text-after-edge">i</text><path fill="none" stroke="#505050" paint-order="fill stroke markers" d=" M 639.7447967529297 195.02929306030273 L 647.7447967529297 195.02929306030273 L 647.7447967529297 203.02929306030273 L 639.7447967529297 203.02929306030273 L 639.7447967529297 195.02929306030273 Z" stroke-miterlimit="10" stroke-width="0.5" stroke-dasharray=""/><text fill="#505050" stroke="none" font-family="monospace" font-size="14px" font-style="normal" font-weight="normal" text-decoration="normal" x="655.7447967529297" y="209.02929306030273" text-anchor="start" dominant-baseline="text-after-edge">acc</text><path fill="none" stroke="#505050" paint-order="fill stroke markers" d=" M 688.7447967529297 181.02929306030273 L 696.7447967529297 181.02929306030273 L 696.7447967529297 189.02929306030273 L 688.7447967529297 189.02929306030273 L 688.7447967529297 181.02929306030273 Z" stroke-miterlimit="10" stroke-width="0.5" stroke-dasharray=""/><text fill="#505050" stroke="none" font-family="monospace" font-size="14px" font-style="normal" font-weight="normal" text-decoration="normal" x="704.7447967529297" y="202.02929306030273" text-anchor="start" dominant-baseline="text-after-edge">callback</text><path fill="none" stroke="#505050" paint-order="fill stroke markers" d=" M 779.7447967529297 149.02929306030273 L 787.7447967529297 149.02929306030273 L 787.7447967529297 157.02929306030273 L 779.7447967529297 157.02929306030273 L 779.7447967529297 149.02929306030273 Z" stroke-miterlimit="10" stroke-width="0.5" stroke-dasharray=""/><path fill="white" stroke="#505050" paint-order="fill stroke markers" d=" M 710.9459686279297 218.4204864501953 L 734.9459686279297 218.4204864501953 L 734.9459686279297 272.4204864501953 L 710.9459686279297 272.4204864501953 L 710.9459686279297 218.4204864501953 Z" stroke-miterlimit="10" stroke-width="0.5" stroke-dasharray=""/><path fill="#F0F0F0" stroke="none" paint-order="stroke fill markers" d=""/><text fill="#505050" stroke="none" font-family="monospace" font-size="14px" font-style="normal" font-weight="normal" text-decoration="normal" x="722.9459686279297" y="236.4204864501953" text-anchor="middle" dominant-baseline="text-after-edge">?</text><path fill="none" stroke="#505050" paint-order="fill stroke markers" d=" M 710.9459686279297 236.4204864501953 L 718.9459686279297 236.4204864501953 L 718.9459686279297 244.4204864501953 L 710.9459686279297 244.4204864501953 L 710.9459686279297 236.4204864501953 Z" stroke-miterlimit="10" stroke-width="0.5" stroke-dasharray=""/><path fill="none" stroke="#505050" paint-order="fill stroke markers" d=" M 710.9459686279297 248.4204864501953 L 718.9459686279297 248.4204864501953 L 718.9459686279297 256.4204864501953 L 710.9459686279297 256.4204864501953 L 710.9459686279297 248.4204864501953 Z" stroke-miterlimit="10" stroke-width="0.5" stroke-dasharray=""/><path fill="none" stroke="#505050" paint-order="fill stroke markers" d=" M 710.9459686279297 260.4204864501953 L 718.9459686279297 260.4204864501953 L 718.9459686279297 268.4204864501953 L 710.9459686279297 268.4204864501953 L 710.9459686279297 260.4204864501953 Z" stroke-miterlimit="10" stroke-width="0.5" stroke-dasharray=""/><path fill="none" stroke="#505050" paint-order="fill stroke markers" d=" M 726.9459686279297 236.4204864501953 L 734.9459686279297 236.4204864501953 L 734.9459686279297 244.4204864501953 L 726.9459686279297 244.4204864501953 L 726.9459686279297 236.4204864501953 Z" stroke-miterlimit="10" stroke-width="0.5" stroke-dasharray=""/><path fill="white" stroke="#505050" paint-order="fill stroke markers" d=" M 755.7447967529297 233.61310577392578 L 763.7447967529297 233.61310577392578 L 771.7447967529297 241.61310577392578 L 763.7447967529297 249.61310577392578 L 755.7447967529297 249.61310577392578 L 755.7447967529297 233.61310577392578" stroke-miterlimit="10" stroke-width="0.5" stroke-dasharray=""/><path fill="none" stroke="#505050" paint-order="fill stroke markers" d=" M 755.7447967529297 237.61310577392578 L 763.7447967529297 237.61310577392578 L 763.7447967529297 245.61310577392578 L 755.7447967529297 245.61310577392578 L 755.7447967529297 237.61310577392578 Z" stroke-miterlimit="10" stroke-width="0.5" stroke-dasharray=""/><path fill="white" stroke="#505050" paint-order="fill stroke markers" d=" M 372.8432312011719 225.57032585144043 L 421.8432312011719 225.57032585144043 L 421.8432312011719 243.57032585144043 L 372.8432312011719 243.57032585144043 L 380.8432312011719 234.57032585144043 L 372.8432312011719 225.57032585144043" stroke-miterlimit="10" stroke-width="0.5" stroke-dasharray=""/><path fill="none" stroke="#505050" paint-order="fill stroke markers" d=" M 413.8432312011719 229.57032585144043 L 421.8432312011719 229.57032585144043 L 421.8432312011719 237.57032585144043 L 413.8432312011719 237.57032585144043 L 413.8432312011719 229.57032585144043 Z" stroke-miterlimit="10" stroke-width="0.5" stroke-dasharray=""/><text fill="#505050" stroke="none" font-family="monospace" font-size="14px" font-style="normal" font-weight="normal" text-decoration="normal" x="405.8432312011719" y="243.57032585144043" text-anchor="end" dominant-baseline="text-after-edge">acc</text><path fill="white" stroke="#505050" paint-order="fill stroke markers" d=" M 376.5030212402344 174.90429496765137 L 408.5030212402344 174.90429496765137 L 408.5030212402344 192.90429496765137 L 376.5030212402344 192.90429496765137 L 384.5030212402344 183.90429496765137 L 376.5030212402344 174.90429496765137" stroke-miterlimit="10" stroke-width="0.5" stroke-dasharray=""/><path fill="none" stroke="#505050" paint-order="fill stroke markers" d=" M 400.5030212402344 178.90429496765137 L 408.5030212402344 178.90429496765137 L 408.5030212402344 186.90429496765137 L 400.5030212402344 186.90429496765137 L 400.5030212402344 178.90429496765137 Z" stroke-miterlimit="10" stroke-width="0.5" stroke-dasharray=""/><text fill="#505050" stroke="none" font-family="monospace" font-size="14px" font-style="normal" font-weight="normal" text-decoration="normal" x="392.5030212402344" y="192.90429496765137" text-anchor="end" dominant-baseline="text-after-edge">n</text><path fill="white" stroke="#505050" paint-order="fill stroke markers" d=" M 530.6818771362305 135.0089874267578 L 555.6818771362305 135.0089874267578 L 555.6818771362305 177.0089874267578 L 530.6818771362305 177.0089874267578 L 530.6818771362305 135.0089874267578 Z" stroke-miterlimit="10" stroke-width="0.5" stroke-dasharray=""/><path fill="#F0F0F0" stroke="none" paint-order="stroke fill markers" d=""/><text fill="#505050" stroke="none" font-family="monospace" font-size="14px" font-style="normal" font-weight="normal" text-decoration="normal" x="543.1818771362305" y="153.0089874267578" text-anchor="middle" dominant-baseline="text-after-edge">&lt;=</text><path fill="none" stroke="#505050" paint-order="fill stroke markers" d=" M 530.6818771362305 153.0089874267578 L 538.6818771362305 153.0089874267578 L 538.6818771362305 161.0089874267578 L 530.6818771362305 161.0089874267578 L 530.6818771362305 153.0089874267578 Z" stroke-miterlimit="10" stroke-width="0.5" stroke-dasharray=""/><path fill="none" stroke="#505050" paint-order="fill stroke markers" d=" M 530.6818771362305 165.0089874267578 L 538.6818771362305 165.0089874267578 L 538.6818771362305 173.0089874267578 L 530.6818771362305 173.0089874267578 L 530.6818771362305 165.0089874267578 Z" stroke-miterlimit="10" stroke-width="0.5" stroke-dasharray=""/><path fill="none" stroke="#505050" paint-order="fill stroke markers" d=" M 547.6818771362305 153.0089874267578 L 555.6818771362305 153.0089874267578 L 555.6818771362305 161.0089874267578 L 547.6818771362305 161.0089874267578 L 547.6818771362305 153.0089874267578 Z" stroke-miterlimit="10" stroke-width="0.5" stroke-dasharray=""/><path fill="white" stroke="#505050" paint-order="fill stroke markers" d=" M 463.20612716674805 180.80742645263672 L 495.20612716674805 180.80742645263672 L 495.20612716674805 198.80742645263672 L 463.20612716674805 198.80742645263672 L 463.20612716674805 180.80742645263672 Z" stroke-miterlimit="10" stroke-width="0.5" stroke-dasharray=""/><path fill="#F0F0F0" stroke="none" paint-order="stroke fill markers" d=""/><path fill="none" stroke="#505050" paint-order="fill stroke markers" d=" M 487.20612716674805 184.80742645263672 L 495.20612716674805 184.80742645263672 L 495.20612716674805 192.80742645263672 L 487.20612716674805 192.80742645263672 L 487.20612716674805 184.80742645263672 Z" stroke-miterlimit="10" stroke-width="0.5" stroke-dasharray=""/><text fill="#505050" stroke="none" font-family="monospace" font-size="14px" font-style="normal" font-weight="normal" text-decoration="normal" x="479.20612716674805" y="198.80742645263672" text-anchor="end" dominant-baseline="text-after-edge">1</text><path fill="white" stroke="#505050" paint-order="fill stroke markers" d=" M 580.8581390380859 258.7473258972168 L 671.8581390380859 258.7473258972168 L 671.8581390380859 354.7473258972168 L 580.8581390380859 354.7473258972168 L 580.8581390380859 258.7473258972168 Z" stroke-miterlimit="10" stroke-width="0.5" stroke-dasharray=""/><path fill="#F0F0F0" stroke="none" paint-order="stroke fill markers" d=""/><text fill="#505050" stroke="none" font-family="monospace" font-size="14px" font-style="normal" font-weight="normal" text-decoration="normal" x="626.3581390380859" y="276.7473258972168" text-anchor="middle" dominant-baseline="text-after-edge">reduce</text><path fill="none" stroke="#505050" paint-order="fill stroke markers" d=" M 580.8581390380859 276.7473258972168 L 588.8581390380859 276.7473258972168 L 588.8581390380859 284.7473258972168 L 580.8581390380859 284.7473258972168 L 580.8581390380859 276.7473258972168 Z" stroke-miterlimit="10" stroke-width="0.5" stroke-dasharray=""/><text fill="#505050" stroke="none" font-family="monospace" font-size="14px" font-style="normal" font-weight="normal" text-decoration="normal" x="596.8581390380859" y="290.7473258972168" text-anchor="start" dominant-baseline="text-after-edge">n</text><path fill="none" stroke="#505050" paint-order="fill stroke markers" d=" M 580.8581390380859 290.7473258972168 L 588.8581390380859 290.7473258972168 L 588.8581390380859 298.7473258972168 L 580.8581390380859 298.7473258972168 L 580.8581390380859 290.7473258972168 Z" stroke-miterlimit="10" stroke-width="0.5" stroke-dasharray=""/><text fill="#505050" stroke="none" font-family="monospace" font-size="14px" font-style="normal" font-weight="normal" text-decoration="normal" x="596.8581390380859" y="304.7473258972168" text-anchor="start" dominant-baseline="text-after-edge">acc</text><path fill="none" stroke="#505050" paint-order="fill stroke markers" d=" M 580.8581390380859 304.7473258972168 L 655.8581390380859 304.7473258972168 L 655.8581390380859 350.7473258972168 L 580.8581390380859 350.7473258972168 L 580.8581390380859 304.7473258972168 Z" stroke-miterlimit="10" stroke-width="0.5" stroke-dasharray=""/><text fill="#505050" stroke="none" font-family="monospace" font-size="14px" font-style="normal" font-weight="normal" text-decoration="normal" x="618.3581390380859" y="322.7473258972168" text-anchor="middle" dominant-baseline="text-after-edge">callback</text><path fill="none" stroke="#505050" paint-order="fill stroke markers" d=" M 580.8581390380859 322.7473258972168 L 588.8581390380859 322.7473258972168 L 588.8581390380859 330.7473258972168 L 580.8581390380859 330.7473258972168 L 580.8581390380859 322.7473258972168 Z" stroke-miterlimit="10" stroke-width="0.5" stroke-dasharray=""/><text fill="#505050" stroke="none" font-family="monospace" font-size="14px" font-style="normal" font-weight="normal" text-decoration="normal" x="596.8581390380859" y="336.7473258972168" text-anchor="start" dominant-baseline="text-after-edge">i</text><path fill="none" stroke="#505050" paint-order="fill stroke markers" d=" M 580.8581390380859 336.7473258972168 L 588.8581390380859 336.7473258972168 L 588.8581390380859 344.7473258972168 L 580.8581390380859 344.7473258972168 L 580.8581390380859 336.7473258972168 Z" stroke-miterlimit="10" stroke-width="0.5" stroke-dasharray=""/><text fill="#505050" stroke="none" font-family="monospace" font-size="14px" font-style="normal" font-weight="normal" text-decoration="normal" x="596.8581390380859" y="350.7473258972168" text-anchor="start" dominant-baseline="text-after-edge">acc</text><path fill="none" stroke="#505050" paint-order="fill stroke markers" d=" M 647.8581390380859 322.7473258972168 L 655.8581390380859 322.7473258972168 L 655.8581390380859 330.7473258972168 L 647.8581390380859 330.7473258972168 L 647.8581390380859 322.7473258972168 Z" stroke-miterlimit="10" stroke-width="0.5" stroke-dasharray=""/><path fill="none" stroke="#505050" paint-order="fill stroke markers" d=" M 663.8581390380859 276.7473258972168 L 671.8581390380859 276.7473258972168 L 671.8581390380859 284.7473258972168 L 663.8581390380859 284.7473258972168 L 663.8581390380859 276.7473258972168 Z" stroke-miterlimit="10" stroke-width="0.5" stroke-dasharray=""/><path fill="#e0e0e0" stroke="none" paint-order="stroke fill markers" d=" M 795.7447967529297 172.02929306030273 L 787.7447967529297 124.02929306030273 L 787.7447967529297 220.02929306030273 Z M 572.8581390380859 306.7473258972168 L 580.8581390380859 258.7473258972168 L 580.8581390380859 354.7473258972168 Z"/><path fill="none" stroke="none"/><path fill="none" stroke="#e0e0e0" paint-order="fill stroke markers" d=" M 795.7447967529297 172.02929306030273 C 873.8758849975379 172.02929306030273 494.7270507934777 306.7473258972168 572.8581390380859 306.7473258972168" stroke-miterlimit="10" stroke-width="2" stroke-dasharray=""/><path fill="white" stroke="#505050" paint-order="fill stroke markers" d=" M 502.61535263061523 204.41592407226562 L 527.6153526306152 204.41592407226562 L 527.6153526306152 234.41592407226562 L 502.61535263061523 234.41592407226562 L 502.61535263061523 204.41592407226562 Z" stroke-miterlimit="10" stroke-width="0.5" stroke-dasharray=""/><path fill="#F0F0F0" stroke="none" paint-order="stroke fill markers" d=""/><text fill="#505050" stroke="none" font-family="monospace" font-size="14px" font-style="normal" font-weight="normal" text-decoration="normal" x="515.1153526306152" y="222.41592407226562" text-anchor="middle" dominant-baseline="text-after-edge">-1</text><path fill="none" stroke="#505050" paint-order="fill stroke markers" d=" M 502.61535263061523 222.41592407226562 L 510.61535263061523 222.41592407226562 L 510.61535263061523 230.41592407226562 L 502.61535263061523 230.41592407226562 L 502.61535263061523 222.41592407226562 Z" stroke-miterlimit="10" stroke-width="0.5" stroke-dasharray=""/><path fill="none" stroke="#505050" paint-order="fill stroke markers" d=" M 519.6153526306152 222.41592407226562 L 527.6153526306152 222.41592407226562 L 527.6153526306152 230.41592407226562 L 519.6153526306152 230.41592407226562 L 519.6153526306152 222.41592407226562 Z" stroke-miterlimit="10" stroke-width="0.5" stroke-dasharray=""/><path fill="none" stroke="none"/><path fill="white" stroke="#505050" paint-order="fill stroke markers" d=" M 363.0083236694336 292.8260154724121 L 454.0083236694336 292.8260154724121 L 454.0083236694336 346.8260154724121 L 363.0083236694336 346.8260154724121 L 371.0083236694336 319.8260154724121 L 363.0083236694336 292.8260154724121" stroke-miterlimit="10" stroke-width="0.5" stroke-dasharray="6,3"/><path fill="#F0F0F0" stroke="none" paint-order="stroke fill markers" d=" M 379.0083236694336 296.8260154724121 L 454.0083236694336 296.8260154724121 L 454.0083236694336 342.8260154724121 L 379.0083236694336 342.8260154724121 L 379.0083236694336 296.8260154724121 Z"/><path fill="none" stroke="#505050" paint-order="fill stroke markers" d=" M 379.0083236694336 296.8260154724121 L 454.0083236694336 296.8260154724121 L 454.0083236694336 342.8260154724121 L 379.0083236694336 342.8260154724121 L 379.0083236694336 296.8260154724121 Z" stroke-miterlimit="10" stroke-width="0.5" stroke-dasharray="0"/><text fill="#505050" stroke="none" font-family="monospace" font-size="14px" font-style="normal" font-weight="normal" text-decoration="normal" x="416.5083236694336" y="314.8260154724121" text-anchor="middle" dominant-baseline="text-after-edge">callback</text><path fill="none" stroke="#505050" paint-order="fill stroke markers" d=" M 379.0083236694336 314.8260154724121 L 387.0083236694336 314.8260154724121 L 387.0083236694336 322.8260154724121 L 379.0083236694336 322.8260154724121 L 379.0083236694336 314.8260154724121 Z" stroke-miterlimit="10" stroke-width="0.5" stroke-dasharray="0"/><text fill="#505050" stroke="none" font-family="monospace" font-size="14px" font-style="normal" font-weight="normal" text-decoration="normal" x="395.0083236694336" y="328.8260154724121" text-anchor="start" dominant-baseline="text-after-edge">i</text><path fill="none" stroke="#505050" paint-order="fill stroke markers" d=" M 379.0083236694336 328.8260154724121 L 387.0083236694336 328.8260154724121 L 387.0083236694336 336.8260154724121 L 379.0083236694336 336.8260154724121 L 379.0083236694336 328.8260154724121 Z" stroke-miterlimit="10" stroke-width="0.5" stroke-dasharray="0"/><text fill="#505050" stroke="none" font-family="monospace" font-size="14px" font-style="normal" font-weight="normal" text-decoration="normal" x="395.0083236694336" y="342.8260154724121" text-anchor="start" dominant-baseline="text-after-edge">acc</text><path fill="none" stroke="#505050" paint-order="fill stroke markers" d=" M 446.0083236694336 314.8260154724121 L 454.0083236694336 314.8260154724121 L 454.0083236694336 322.8260154724121 L 446.0083236694336 322.8260154724121 L 446.0083236694336 314.8260154724121 Z" stroke-miterlimit="10" stroke-width="0.5" stroke-dasharray="0"/><path fill="none" stroke="#505050" paint-order="fill stroke markers" d=" M 379.0083236694336 296.8260154724121 L 454.0083236694336 296.8260154724121 L 454.0083236694336 342.8260154724121 L 379.0083236694336 342.8260154724121 L 379.0083236694336 296.8260154724121 Z" stroke-miterlimit="10" stroke-width="0.5" stroke-dasharray="6,3"/><path fill="#F0F0F0" stroke="none" paint-order="stroke fill markers" d=""/><text fill="#505050" stroke="none" font-family="monospace" font-size="14px" font-style="normal" font-weight="normal" text-decoration="normal" x="416.5083236694336" y="314.8260154724121" text-anchor="middle" dominant-baseline="text-after-edge">callback</text><path fill="none" stroke="#505050" paint-order="fill stroke markers" d=" M 379.0083236694336 314.8260154724121 L 387.0083236694336 314.8260154724121 L 387.0083236694336 322.8260154724121 L 379.0083236694336 322.8260154724121 L 379.0083236694336 314.8260154724121 Z" stroke-miterlimit="10" stroke-width="0.5" stroke-dasharray="0"/><text fill="#505050" stroke="none" font-family="monospace" font-size="14px" font-style="normal" font-weight="normal" text-decoration="normal" x="395.0083236694336" y="328.8260154724121" text-anchor="start" dominant-baseline="text-after-edge">i</text><path fill="none" stroke="#505050" paint-order="fill stroke markers" d=" M 379.0083236694336 328.8260154724121 L 387.0083236694336 328.8260154724121 L 387.0083236694336 336.8260154724121 L 379.0083236694336 336.8260154724121 L 379.0083236694336 328.8260154724121 Z" stroke-miterlimit="10" stroke-width="0.5" stroke-dasharray="0"/><text fill="#505050" stroke="none" font-family="monospace" font-size="14px" font-style="normal" font-weight="normal" text-decoration="normal" x="395.0083236694336" y="342.8260154724121" text-anchor="start" dominant-baseline="text-after-edge">acc</text><path fill="none" stroke="#505050" paint-order="fill stroke markers" d=" M 446.0083236694336 314.8260154724121 L 454.0083236694336 314.8260154724121 L 454.0083236694336 322.8260154724121 L 446.0083236694336 322.8260154724121 L 446.0083236694336 314.8260154724121 Z" stroke-miterlimit="10" stroke-width="0.5" stroke-dasharray="0"/><path fill="#e0e0e0" stroke="none" paint-order="stroke fill markers" d=" M 323.6425552368164 318.4546012878418 L 315.6425552368164 295.4546012878418 L 315.6425552368164 341.4546012878418 Z M 371.0083236694336 319.8260154724121 L 379.0083236694336 296.8260154724121 L 379.0083236694336 342.8260154724121 Z"/><path fill="none" stroke="none"/><path fill="none" stroke="#e0e0e0" paint-order="fill stroke markers" d=" M 323.6425552368164 318.4546012878418 C 337.8582406457939 318.4546012878418 356.7926382604561 319.8260154724121 371.0083236694336 319.8260154724121" stroke-miterlimit="10" stroke-width="2" stroke-dasharray="0"/><path fill="white" stroke="#505050" paint-order="fill stroke markers" d=" M 480.86492308974266 263.8855209350586 L 555.8649230897427 263.8855209350586 L 555.8649230897427 309.8855209350586 L 480.86492308974266 309.8855209350586 L 480.86492308974266 263.8855209350586 Z" stroke-miterlimit="10" stroke-width="0.5" stroke-dasharray="0"/><path fill="#F0F0F0" stroke="none" paint-order="stroke fill markers" d=""/><text fill="#505050" stroke="none" font-family="monospace" font-size="14px" font-style="normal" font-weight="normal" text-decoration="normal" x="518.3649230897427" y="281.8855209350586" text-anchor="middle" dominant-baseline="text-after-edge">callback</text><path fill="none" stroke="#505050" paint-order="fill stroke markers" d=" M 480.86492308974266 281.8855209350586 L 488.86492308974266 281.8855209350586 L 488.86492308974266 289.8855209350586 L 480.86492308974266 289.8855209350586 L 480.86492308974266 281.8855209350586 Z" stroke-miterlimit="10" stroke-width="0.5" stroke-dasharray="0"/><text fill="#505050" stroke="none" font-family="monospace" font-size="14px" font-style="normal" font-weight="normal" text-decoration="normal" x="496.86492308974266" y="295.8855209350586" text-anchor="start" dominant-baseline="text-after-edge">i</text><path fill="none" stroke="#505050" paint-order="fill stroke markers" d=" M 480.86492308974266 295.8855209350586 L 488.86492308974266 295.8855209350586 L 488.86492308974266 303.8855209350586 L 480.86492308974266 303.8855209350586 L 480.86492308974266 295.8855209350586 Z" stroke-miterlimit="10" stroke-width="0.5" stroke-dasharray="0"/><text fill="#505050" stroke="none" font-family="monospace" font-size="14px" font-style="normal" font-weight="normal" text-decoration="normal" x="496.86492308974266" y="309.8855209350586" text-anchor="start" dominant-baseline="text-after-edge">acc</text><path fill="none" stroke="#505050" paint-order="fill stroke markers" d=" M 547.8649230897427 281.8855209350586 L 555.8649230897427 281.8855209350586 L 555.8649230897427 289.8855209350586 L 547.8649230897427 289.8855209350586 L 547.8649230897427 281.8855209350586 Z" stroke-miterlimit="10" stroke-width="0.5" stroke-dasharray="0"/><path fill="#e0e0e0" stroke="none" paint-order="stroke fill markers" d=" M 462.0083236694336 319.8260154724121 L 454.0083236694336 296.8260154724121 L 454.0083236694336 342.8260154724121 Z M 472.86492308974266 286.8855209350586 L 480.86492308974266 263.8855209350586 L 480.86492308974266 309.8855209350586 Z"/><path fill="none" stroke="none"/><path fill="none" stroke="#e0e0e0" paint-order="fill stroke markers" d=" M 462.0083236694336 319.8260154724121 C 472.4133596530553 319.8260154724121 462.45988710612096 286.8855209350586 472.86492308974266 286.8855209350586" stroke-miterlimit="10" stroke-width="2" stroke-dasharray="0"/><path fill="white" stroke="#505050" paint-order="fill stroke markers" d=" M 357.9099540710449 28.683120727539062 L 357.9099540710449 94.43312072753906 Q 357.9099540710449 102.43312072753906 365.9099540710449 102.43312072753906 L 501.8505668640137 102.43312072753906 Q 509.8505668640137 102.43312072753906 509.8505668640137 94.43312072753906 L 509.8505668640137 28.683120727539062 Q 509.8505668640137 20.683120727539062 501.8505668640137 20.683120727539062 L 365.9099540710449 20.683120727539062 Q 357.9099540710449 20.683120727539062 357.9099540710449 28.683120727539062" stroke-miterlimit="10" stroke-width="0.5" stroke-dasharray="0"/><path fill="#F0F0F0" stroke="#505050" paint-order="fill stroke markers" d=" M 484.8505668640137 28.683120727539062 L 509.8505668640137 28.683120727539062 L 509.8505668640137 58.68312072753906 L 484.8505668640137 58.68312072753906 L 484.8505668640137 28.683120727539062 Z" stroke-miterlimit="10" stroke-width="0.5" stroke-dasharray="0"/><text fill="#505050" stroke="none" font-family="monospace" font-size="14px" font-style="normal" font-weight="normal" text-decoration="normal" x="497.3505668640137" y="46.68312072753906" text-anchor="middle" dominant-baseline="text-after-edge">-1</text><path fill="none" stroke="#505050" paint-order="fill stroke markers" d=" M 484.8505668640137 46.68312072753906 L 492.8505668640137 46.68312072753906 L 492.8505668640137 54.68312072753906 L 484.8505668640137 54.68312072753906 L 484.8505668640137 46.68312072753906 Z" stroke-miterlimit="10" stroke-width="0.5" stroke-dasharray="0"/><path fill="none" stroke="#505050" paint-order="fill stroke markers" d=" M 501.8505668640137 46.68312072753906 L 509.8505668640137 46.68312072753906 L 509.8505668640137 54.68312072753906 L 501.8505668640137 54.68312072753906 L 501.8505668640137 46.68312072753906 Z" stroke-miterlimit="10" stroke-width="0.5" stroke-dasharray="0"/><path fill="white" stroke="#505050" paint-order="fill stroke markers" d=" M 424.3474540710449 28.683120727539062 L 448.3474540710449 28.683120727539062 L 448.3474540710449 70.68312072753906 L 424.3474540710449 70.68312072753906 L 424.3474540710449 28.683120727539062 Z" stroke-miterlimit="10" stroke-width="0.5" stroke-dasharray="0"/><path fill="#F0F0F0" stroke="none" paint-order="stroke fill markers" d=""/><text fill="#505050" stroke="none" font-family="monospace" font-size="14px" font-style="normal" font-weight="normal" text-decoration="normal" x="436.3474540710449" y="46.68312072753906" text-anchor="middle" dominant-baseline="text-after-edge">-</text><path fill="none" stroke="#505050" paint-order="fill stroke markers" d=" M 424.3474540710449 46.68312072753906 L 432.3474540710449 46.68312072753906 L 432.3474540710449 54.68312072753906 L 424.3474540710449 54.68312072753906 L 424.3474540710449 46.68312072753906 Z" stroke-miterlimit="10" stroke-width="0.5" stroke-dasharray="0"/><path fill="none" stroke="#505050" paint-order="fill stroke markers" d=" M 424.3474540710449 58.68312072753906 L 432.3474540710449 58.68312072753906 L 432.3474540710449 66.68312072753906 L 424.3474540710449 66.68312072753906 L 424.3474540710449 58.68312072753906 Z" stroke-miterlimit="10" stroke-width="0.5" stroke-dasharray="0"/><path fill="none" stroke="#505050" paint-order="fill stroke markers" d=" M 440.3474540710449 46.68312072753906 L 448.3474540710449 46.68312072753906 L 448.3474540710449 54.68312072753906 L 440.3474540710449 54.68312072753906 L 440.3474540710449 46.68312072753906 Z" stroke-miterlimit="10" stroke-width="0.5" stroke-dasharray="0"/><path fill="white" stroke="#505050" paint-order="fill stroke markers" d=" M 462.634090423584 43.06379699707031 L 470.634090423584 43.06379699707031 L 478.634090423584 51.06379699707031 L 470.634090423584 59.06379699707031 L 462.634090423584 59.06379699707031 L 462.634090423584 43.06379699707031" stroke-miterlimit="10" stroke-width="0.5" stroke-dasharray="0"/><path fill="none" stroke="#505050" paint-order="fill stroke markers" d=" M 462.634090423584 47.06379699707031 L 470.634090423584 47.06379699707031 L 470.634090423584 55.06379699707031 L 462.634090423584 55.06379699707031 L 462.634090423584 47.06379699707031 Z" stroke-miterlimit="10" stroke-width="0.5" stroke-dasharray="0"/><path fill="white" stroke="#505050" paint-order="fill stroke markers" d=" M 361.42870712280273 68.43312072753906 L 393.42870712280273 68.43312072753906 L 393.42870712280273 86.43312072753906 L 361.42870712280273 86.43312072753906 L 361.42870712280273 68.43312072753906 Z" stroke-miterlimit="10" stroke-width="0.5" stroke-dasharray="0"/><path fill="#F0F0F0" stroke="none" paint-order="stroke fill markers" d=""/><path fill="none" stroke="#505050" paint-order="fill stroke markers" d=" M 385.42870712280273 72.43312072753906 L 393.42870712280273 72.43312072753906 L 393.42870712280273 80.43312072753906 L 385.42870712280273 80.43312072753906 L 385.42870712280273 72.43312072753906 Z" stroke-miterlimit="10" stroke-width="0.5" stroke-dasharray="0"/><text fill="#505050" stroke="none" font-family="monospace" font-size="14px" font-style="normal" font-weight="normal" text-decoration="normal" x="377.42870712280273" y="86.43312072753906" text-anchor="end" dominant-baseline="text-after-edge">1</text><path fill="white" stroke="#505050" paint-order="fill stroke markers" d=" M 376.3474540710449 42.68312072753906 L 392.3474540710449 42.68312072753906 L 392.3474540710449 58.68312072753906 L 376.3474540710449 58.68312072753906 L 384.3474540710449 50.68312072753906 L 376.3474540710449 42.68312072753906" stroke-miterlimit="10" stroke-width="0.5" stroke-dasharray="0"/><path fill="none" stroke="#505050" paint-order="fill stroke markers" d=" M 384.3474540710449 46.68312072753906 L 392.3474540710449 46.68312072753906 L 392.3474540710449 54.68312072753906 L 384.3474540710449 54.68312072753906 L 384.3474540710449 46.68312072753906 Z" stroke-miterlimit="10" stroke-width="0.5" stroke-dasharray="0"/><path fill="white" stroke="#505050" paint-order="fill stroke markers" d=" M 845.8552398681641 166.03419876098633 L 845.8552398681641 307.5092239379883 Q 845.8552398681641 315.5092239379883 853.8552398681641 315.5092239379883 L 1069.2583770751953 315.5092239379883 Q 1077.2583770751953 315.5092239379883 1077.2583770751953 307.5092239379883 L 1077.2583770751953 166.03419876098633 Q 1077.2583770751953 158.03419876098633 1069.2583770751953 158.03419876098633 L 853.8552398681641 158.03419876098633 Q 845.8552398681641 158.03419876098633 845.8552398681641 166.03419876098633" stroke-miterlimit="10" stroke-width="0.5" stroke-dasharray="0"/><path fill="#F0F0F0" stroke="#505050" paint-order="fill stroke markers" d=" M 1052.2583770751953 166.03419876098633 L 1077.2583770751953 166.03419876098633 L 1077.2583770751953 196.03419876098633 L 1052.2583770751953 196.03419876098633 L 1052.2583770751953 166.03419876098633 Z" stroke-miterlimit="10" stroke-width="0.5" stroke-dasharray="0"/><text fill="#505050" stroke="none" font-family="monospace" font-size="14px" font-style="normal" font-weight="normal" text-decoration="normal" x="1064.7583770751953" y="184.03419876098633" text-anchor="middle" dominant-baseline="text-after-edge">n!</text><path fill="none" stroke="#505050" paint-order="fill stroke markers" d=" M 1052.2583770751953 184.03419876098633 L 1060.2583770751953 184.03419876098633 L 1060.2583770751953 192.03419876098633 L 1052.2583770751953 192.03419876098633 L 1052.2583770751953 184.03419876098633 Z" stroke-miterlimit="10" stroke-width="0.5" stroke-dasharray="0"/><path fill="none" stroke="#505050" paint-order="fill stroke markers" d=" M 1069.2583770751953 184.03419876098633 L 1077.2583770751953 184.03419876098633 L 1077.2583770751953 192.03419876098633 L 1069.2583770751953 192.03419876098633 L 1069.2583770751953 184.03419876098633 Z" stroke-miterlimit="10" stroke-width="0.5" stroke-dasharray="0"/><path fill="white" stroke="#505050" paint-order="fill stroke markers" d=" M 913.2583770751953 175.0591926574707 L 1004.2583770751953 175.0591926574707 L 1004.2583770751953 271.0591926574707 L 913.2583770751953 271.0591926574707 L 913.2583770751953 175.0591926574707 Z" stroke-miterlimit="10" stroke-width="0.5" stroke-dasharray="0"/><path fill="#F0F0F0" stroke="none" paint-order="stroke fill markers" d=""/><text fill="#505050" stroke="none" font-family="monospace" font-size="14px" font-style="normal" font-weight="normal" text-decoration="normal" x="958.7583770751953" y="193.0591926574707" text-anchor="middle" dominant-baseline="text-after-edge">reduce</text><path fill="none" stroke="#505050" paint-order="fill stroke markers" d=" M 913.2583770751953 193.0591926574707 L 921.2583770751953 193.0591926574707 L 921.2583770751953 201.0591926574707 L 913.2583770751953 201.0591926574707 L 913.2583770751953 193.0591926574707 Z" stroke-miterlimit="10" stroke-width="0.5" stroke-dasharray="0"/><text fill="#505050" stroke="none" font-family="monospace" font-size="14px" font-style="normal" font-weight="normal" text-decoration="normal" x="929.2583770751953" y="207.0591926574707" text-anchor="start" dominant-baseline="text-after-edge">n</text><path fill="none" stroke="#505050" paint-order="fill stroke markers" d=" M 913.2583770751953 207.0591926574707 L 921.2583770751953 207.0591926574707 L 921.2583770751953 215.0591926574707 L 913.2583770751953 215.0591926574707 L 913.2583770751953 207.0591926574707 Z" stroke-miterlimit="10" stroke-width="0.5" stroke-dasharray="0"/><text fill="#505050" stroke="none" font-family="monospace" font-size="14px" font-style="normal" font-weight="normal" text-decoration="normal" x="929.2583770751953" y="221.0591926574707" text-anchor="start" dominant-baseline="text-after-edge">acc</text><path fill="none" stroke="#505050" paint-order="fill stroke markers" d=" M 913.2583770751953 221.0591926574707 L 988.2583770751953 221.0591926574707 L 988.2583770751953 267.0591926574707 L 913.2583770751953 267.0591926574707 L 913.2583770751953 221.0591926574707 Z" stroke-miterlimit="10" stroke-width="0.5" stroke-dasharray="0"/><text fill="#505050" stroke="none" font-family="monospace" font-size="14px" font-style="normal" font-weight="normal" text-decoration="normal" x="950.7583770751953" y="239.0591926574707" text-anchor="middle" dominant-baseline="text-after-edge">callback</text><path fill="none" stroke="#505050" paint-order="fill stroke markers" d=" M 913.2583770751953 239.0591926574707 L 921.2583770751953 239.0591926574707 L 921.2583770751953 247.0591926574707 L 913.2583770751953 247.0591926574707 L 913.2583770751953 239.0591926574707 Z" stroke-miterlimit="10" stroke-width="0.5" stroke-dasharray="0"/><text fill="#505050" stroke="none" font-family="monospace" font-size="14px" font-style="normal" font-weight="normal" text-decoration="normal" x="929.2583770751953" y="253.0591926574707" text-anchor="start" dominant-baseline="text-after-edge">i</text><path fill="none" stroke="#505050" paint-order="fill stroke markers" d=" M 913.2583770751953 253.0591926574707 L 921.2583770751953 253.0591926574707 L 921.2583770751953 261.0591926574707 L 913.2583770751953 261.0591926574707 L 913.2583770751953 253.0591926574707 Z" stroke-miterlimit="10" stroke-width="0.5" stroke-dasharray="0"/><text fill="#505050" stroke="none" font-family="monospace" font-size="14px" font-style="normal" font-weight="normal" text-decoration="normal" x="929.2583770751953" y="267.0591926574707" text-anchor="start" dominant-baseline="text-after-edge">acc</text><path fill="none" stroke="#505050" paint-order="fill stroke markers" d=" M 980.2583770751953 239.0591926574707 L 988.2583770751953 239.0591926574707 L 988.2583770751953 247.0591926574707 L 980.2583770751953 247.0591926574707 L 980.2583770751953 239.0591926574707 Z" stroke-miterlimit="10" stroke-width="0.5" stroke-dasharray="0"/><path fill="none" stroke="#505050" paint-order="fill stroke markers" d=" M 996.2583770751953 193.0591926574707 L 1004.2583770751953 193.0591926574707 L 1004.2583770751953 201.0591926574707 L 996.2583770751953 201.0591926574707 L 996.2583770751953 193.0591926574707 Z" stroke-miterlimit="10" stroke-width="0.5" stroke-dasharray="0"/><path fill="#e0e0e0" stroke="none" paint-order="stroke fill markers" d=" M 795.7447967529297 172.02929306030273 L 787.7447967529297 124.02929306030273 L 787.7447967529297 220.02929306030273 Z M 905.2583770751953 223.0591926574707 L 913.2583770751953 175.0591926574707 L 913.2583770751953 271.0591926574707 Z"/><path fill="none" stroke="none"/><path fill="none" stroke="#e0e0e0" paint-order="fill stroke markers" d=" M 795.7447967529297 172.02929306030273 C 831.9905515872665 172.02929306030273 869.0126222408585 223.0591926574707 905.2583770751953 223.0591926574707" stroke-miterlimit="10" stroke-width="2" stroke-dasharray="0"/><path fill="white" stroke="#505050" paint-order="fill stroke markers" d=" M 1012.8023834228516 210.15350723266602 L 1020.8023834228516 210.15350723266602 L 1028.8023834228516 218.15350723266602 L 1020.8023834228516 226.15350723266602 L 1012.8023834228516 226.15350723266602 L 1012.8023834228516 210.15350723266602" stroke-miterlimit="10" stroke-width="0.5" stroke-dasharray="0"/><path fill="none" stroke="#505050" paint-order="fill stroke markers" d=" M 1012.8023834228516 214.15350723266602 L 1020.8023834228516 214.15350723266602 L 1020.8023834228516 222.15350723266602 L 1012.8023834228516 222.15350723266602 L 1012.8023834228516 214.15350723266602 Z" stroke-miterlimit="10" stroke-width="0.5" stroke-dasharray="0"/><path fill="white" stroke="#505050" paint-order="fill stroke markers" d=" M 853.1583404541016 203.1154670715332 L 885.1583404541016 203.1154670715332 L 885.1583404541016 221.1154670715332 L 853.1583404541016 221.1154670715332 L 853.1583404541016 203.1154670715332 Z" stroke-miterlimit="10" stroke-width="0.5" stroke-dasharray="0"/><path fill="#F0F0F0" stroke="none" paint-order="stroke fill markers" d=""/><path fill="none" stroke="#505050" paint-order="fill stroke markers" d=" M 877.1583404541016 207.1154670715332 L 885.1583404541016 207.1154670715332 L 885.1583404541016 215.1154670715332 L 877.1583404541016 215.1154670715332 L 877.1583404541016 207.1154670715332 Z" stroke-miterlimit="10" stroke-width="0.5" stroke-dasharray="0"/><text fill="#505050" stroke="none" font-family="monospace" font-size="14px" font-style="normal" font-weight="normal" text-decoration="normal" x="869.1583404541016" y="221.1154670715332" text-anchor="end" dominant-baseline="text-after-edge">1</text><path fill="white" stroke="#505050" paint-order="fill stroke markers" d=" M 855.9458770751953 167.03419876098633 L 871.9458770751953 167.03419876098633 L 871.9458770751953 183.03419876098633 L 855.9458770751953 183.03419876098633 L 863.9458770751953 175.03419876098633 L 855.9458770751953 167.03419876098633" stroke-miterlimit="10" stroke-width="0.5" stroke-dasharray="0"/><path fill="none" stroke="#505050" paint-order="fill stroke markers" d=" M 863.9458770751953 171.03419876098633 L 871.9458770751953 171.03419876098633 L 871.9458770751953 179.03419876098633 L 863.9458770751953 179.03419876098633 L 863.9458770751953 171.03419876098633 Z" stroke-miterlimit="10" stroke-width="0.5" stroke-dasharray="0"/><path fill="none" stroke="none"/><path fill="white" stroke="#505050" paint-order="fill stroke markers" d=" M 855.1520278453827 241.50922393798828 L 887.1520278453827 241.50922393798828 L 895.1520278453827 266.5092239379883 L 887.1520278453827 291.5092239379883 L 855.1520278453827 291.5092239379883 L 855.1520278453827 241.50922393798828" stroke-miterlimit="10" stroke-width="0.5" stroke-dasharray="0"/><path fill="none" stroke="#505050" paint-order="fill stroke markers" d=" M 863.1520278453827 245.50922393798828 L 887.1520278453827 245.50922393798828 L 887.1520278453827 287.5092239379883 L 863.1520278453827 287.5092239379883 L 863.1520278453827 245.50922393798828 Z" stroke-miterlimit="10" stroke-width="0.5" stroke-dasharray="0"/><text fill="#505050" stroke="none" font-family="monospace" font-size="14px" font-style="normal" font-weight="normal" text-decoration="normal" x="875.1520278453827" y="263.5092239379883" text-anchor="middle" dominant-baseline="text-after-edge">*</text><path fill="none" stroke="#505050" paint-order="fill stroke markers" d=" M 863.1520278453827 263.5092239379883 L 871.1520278453827 263.5092239379883 L 871.1520278453827 271.5092239379883 L 863.1520278453827 271.5092239379883 L 863.1520278453827 263.5092239379883 Z" stroke-miterlimit="10" stroke-width="0.5" stroke-dasharray="0"/><path fill="none" stroke="#505050" paint-order="fill stroke markers" d=" M 863.1520278453827 275.5092239379883 L 871.1520278453827 275.5092239379883 L 871.1520278453827 283.5092239379883 L 863.1520278453827 283.5092239379883 L 863.1520278453827 275.5092239379883 Z" stroke-miterlimit="10" stroke-width="0.5" stroke-dasharray="0"/><path fill="none" stroke="#505050" paint-order="fill stroke markers" d=" M 879.1520278453827 263.5092239379883 L 887.1520278453827 263.5092239379883 L 887.1520278453827 271.5092239379883 L 879.1520278453827 271.5092239379883 L 879.1520278453827 263.5092239379883 Z" stroke-miterlimit="10" stroke-width="0.5" stroke-dasharray="0"/><path fill="none" stroke="#505050" paint-order="fill stroke markers" d=" M 863.1520278453827 245.50922393798828 L 887.1520278453827 245.50922393798828 L 887.1520278453827 287.5092239379883 L 863.1520278453827 287.5092239379883 L 863.1520278453827 245.50922393798828 Z" stroke-miterlimit="10" stroke-width="0.5" stroke-dasharray="0"/><path fill="#F0F0F0" stroke="none" paint-order="stroke fill markers" d=""/><text fill="#505050" stroke="none" font-family="monospace" font-size="14px" font-style="normal" font-weight="normal" text-decoration="normal" x="875.1520278453827" y="263.5092239379883" text-anchor="middle" dominant-baseline="text-after-edge">*</text><path fill="none" stroke="#505050" paint-order="fill stroke markers" d=" M 863.1520278453827 263.5092239379883 L 871.1520278453827 263.5092239379883 L 871.1520278453827 271.5092239379883 L 863.1520278453827 271.5092239379883 L 863.1520278453827 263.5092239379883 Z" stroke-miterlimit="10" stroke-width="0.5" stroke-dasharray="0"/><path fill="none" stroke="#505050" paint-order="fill stroke markers" d=" M 863.1520278453827 275.5092239379883 L 871.1520278453827 275.5092239379883 L 871.1520278453827 283.5092239379883 L 863.1520278453827 283.5092239379883 L 863.1520278453827 275.5092239379883 Z" stroke-miterlimit="10" stroke-width="0.5" stroke-dasharray="0"/><path fill="none" stroke="#505050" paint-order="fill stroke markers" d=" M 879.1520278453827 263.5092239379883 L 887.1520278453827 263.5092239379883 L 887.1520278453827 271.5092239379883 L 879.1520278453827 271.5092239379883 L 879.1520278453827 263.5092239379883 Z" stroke-miterlimit="10" stroke-width="0.5" stroke-dasharray="0"/><path fill="white" stroke="#505050" paint-order="fill stroke markers" d=" M 168.6425552368164 295.4546012878418 L 168.6425552368164 351.0121269226074 Q 168.6425552368164 359.0121269226074 176.6425552368164 359.0121269226074 L 307.6425552368164 359.0121269226074 Q 315.6425552368164 359.0121269226074 315.6425552368164 351.0121269226074 L 315.6425552368164 295.4546012878418 Q 315.6425552368164 287.4546012878418 307.6425552368164 287.4546012878418 L 176.6425552368164 287.4546012878418 Q 168.6425552368164 287.4546012878418 168.6425552368164 295.4546012878418" stroke-miterlimit="10" stroke-width="0.5" stroke-dasharray="0"/><path fill="#F0F0F0" stroke="#505050" paint-order="fill stroke markers" d=" M 240.6425552368164 295.4546012878418 L 315.6425552368164 295.4546012878418 L 315.6425552368164 341.4546012878418 L 240.6425552368164 341.4546012878418 L 240.6425552368164 295.4546012878418 Z" stroke-miterlimit="10" stroke-width="0.5" stroke-dasharray="6,3"/><text fill="#505050" stroke="none" font-family="monospace" font-size="14px" font-style="normal" font-weight="normal" text-decoration="normal" x="278.1425552368164" y="313.4546012878418" text-anchor="middle" dominant-baseline="text-after-edge">callback</text><path fill="none" stroke="#505050" paint-order="fill stroke markers" d=" M 240.6425552368164 313.4546012878418 L 248.6425552368164 313.4546012878418 L 248.6425552368164 321.4546012878418 L 240.6425552368164 321.4546012878418 L 240.6425552368164 313.4546012878418 Z" stroke-miterlimit="10" stroke-width="0.5" stroke-dasharray="0"/><text fill="#505050" stroke="none" font-family="monospace" font-size="14px" font-style="normal" font-weight="normal" text-decoration="normal" x="256.6425552368164" y="327.4546012878418" text-anchor="start" dominant-baseline="text-after-edge">i</text><path fill="none" stroke="#505050" paint-order="fill stroke markers" d=" M 240.6425552368164 327.4546012878418 L 248.6425552368164 327.4546012878418 L 248.6425552368164 335.4546012878418 L 240.6425552368164 335.4546012878418 L 240.6425552368164 327.4546012878418 Z" stroke-miterlimit="10" stroke-width="0.5" stroke-dasharray="0"/><text fill="#505050" stroke="none" font-family="monospace" font-size="14px" font-style="normal" font-weight="normal" text-decoration="normal" x="256.6425552368164" y="341.4546012878418" text-anchor="start" dominant-baseline="text-after-edge">acc</text><path fill="none" stroke="#505050" paint-order="fill stroke markers" d=" M 307.6425552368164 313.4546012878418 L 315.6425552368164 313.4546012878418 L 315.6425552368164 321.4546012878418 L 307.6425552368164 321.4546012878418 L 307.6425552368164 313.4546012878418 Z" stroke-miterlimit="10" stroke-width="0.5" stroke-dasharray="0"/><path fill="white" stroke="#505050" paint-order="fill stroke markers" d=" M 176.6425552368164 295.4546012878418 L 208.6425552368164 295.4546012878418 L 208.6425552368164 313.4546012878418 L 176.6425552368164 313.4546012878418 L 184.6425552368164 304.4546012878418 L 176.6425552368164 295.4546012878418" stroke-miterlimit="10" stroke-width="0.5" stroke-dasharray="0"/><path fill="none" stroke="#505050" paint-order="fill stroke markers" d=" M 200.6425552368164 299.4546012878418 L 208.6425552368164 299.4546012878418 L 208.6425552368164 307.4546012878418 L 200.6425552368164 307.4546012878418 L 200.6425552368164 299.4546012878418 Z" stroke-miterlimit="10" stroke-width="0.5" stroke-dasharray="0"/><text fill="#505050" stroke="none" font-family="monospace" font-size="14px" font-style="normal" font-weight="normal" text-decoration="normal" x="192.6425552368164" y="313.4546012878418" text-anchor="end" dominant-baseline="text-after-edge">i</text><path fill="white" stroke="#505050" paint-order="fill stroke markers" d=" M 174.0573501586914 325.0121269226074 L 223.0573501586914 325.0121269226074 L 223.0573501586914 343.0121269226074 L 174.0573501586914 343.0121269226074 L 182.0573501586914 334.0121269226074 L 174.0573501586914 325.0121269226074" stroke-miterlimit="10" stroke-width="0.5" stroke-dasharray="0"/><path fill="none" stroke="#505050" paint-order="fill stroke markers" d=" M 215.0573501586914 329.0121269226074 L 223.0573501586914 329.0121269226074 L 223.0573501586914 337.0121269226074 L 215.0573501586914 337.0121269226074 L 215.0573501586914 329.0121269226074 Z" stroke-miterlimit="10" stroke-width="0.5" stroke-dasharray="0"/><text fill="#505050" stroke="none" font-family="monospace" font-size="14px" font-style="normal" font-weight="normal" text-decoration="normal" x="207.0573501586914" y="343.0121269226074" text-anchor="end" dominant-baseline="text-after-edge">acc</text><path fill="white" stroke="#505050" paint-order="fill stroke markers" d=" M 216.74271392822266 296.0867118835449 L 224.74271392822266 296.0867118835449 L 232.74271392822266 304.0867118835449 L 224.74271392822266 312.0867118835449 L 216.74271392822266 312.0867118835449 L 216.74271392822266 296.0867118835449" stroke-miterlimit="10" stroke-width="0.5" stroke-dasharray="0"/><path fill="none" stroke="#505050" paint-order="fill stroke markers" d=" M 216.74271392822266 300.0867118835449 L 224.74271392822266 300.0867118835449 L 224.74271392822266 308.0867118835449 L 216.74271392822266 308.0867118835449 L 216.74271392822266 300.0867118835449 Z" stroke-miterlimit="10" stroke-width="0.5" stroke-dasharray="0"/><path fill="none" stroke="#505050" paint-order="fill stroke markers" d=" M 495.20612716674805 188.80742645263672 C 507.39405693920247 188.80742645263672 518.4939473637761 169.0089874267578 530.6818771362305 169.0089874267578" stroke-miterlimit="10" stroke-dasharray="0"/><path fill="none" stroke="#505050" paint-order="fill stroke markers" d=" M 408.5030212402344 182.90429496765137 C 445.970895215979 182.90429496765137 493.21400316048585 157.0089874267578 530.6818771362305 157.0089874267578" stroke-miterlimit="10" stroke-dasharray="0"/><path fill="none" stroke="#505050" paint-order="fill stroke markers" d=" M 734.9459686279297 240.4204864501953 C 741.1958664911125 240.4204864501953 749.4948988897469 241.61310577392578 755.7447967529297 241.61310577392578" stroke-miterlimit="10" stroke-dasharray="0"/><path fill="none" stroke="#505050" paint-order="fill stroke markers" d=" M 421.8432312011719 233.57032585144043 C 508.7582179457025 233.57032585144043 624.030981883399 252.4204864501953 710.9459686279297 252.4204864501953" stroke-miterlimit="10" stroke-dasharray="0"/><path fill="none" stroke="#505050" paint-order="fill stroke markers" d=" M 555.6818771362305 157.0089874267578 C 608.5571782213984 157.0089874267578 658.0706675427617 240.4204864501953 710.9459686279297 240.4204864501953" stroke-miterlimit="10" stroke-dasharray="0"/><path fill="none" stroke="#505050" paint-order="fill stroke markers" d=" M 527.6153526306152 226.41592407226562 C 550.436452463503 226.41592407226562 558.0370392051982 280.7473258972168 580.8581390380859 280.7473258972168" stroke-miterlimit="10" stroke-dasharray="0"/><path fill="none" stroke="#505050" paint-order="fill stroke markers" d=" M 408.5030212402344 182.90429496765137 C 439.60825152127126 182.90429496765137 471.51012234957835 226.41592407226562 502.61535263061523 226.41592407226562" stroke-miterlimit="10" stroke-dasharray="0"/><path fill="none" stroke="#505050" paint-order="fill stroke markers" d=" M 671.8581390380859 280.7473258972168 C 684.5663320549398 280.7473258972168 698.2377756110758 264.4204864501953 710.9459686279297 264.4204864501953" stroke-miterlimit="10" stroke-dasharray="0"/><path fill="none" stroke="#505050" paint-order="fill stroke markers" d=" M 454.0083236694336 319.8260154724121 C 492.1373946469916 319.8260154724121 542.7290680605279 327.7473258972168 580.8581390380859 327.7473258972168" stroke-miterlimit="10" stroke-dasharray="0"/><path fill="none" stroke="#505050" paint-order="fill stroke markers" d=" M 408.5030212402344 182.90429496765137 C 446.2617817693159 182.90429496765137 443.1061625606611 285.8855209350586 480.86492308974266 285.8855209350586" stroke-miterlimit="10" stroke-dasharray="0"/><path fill="none" stroke="#505050" paint-order="fill stroke markers" d=" M 421.8432312011719 233.57032585144043 C 448.4761782614034 233.57032585144043 454.23197602951115 299.8855209350586 480.86492308974266 299.8855209350586" stroke-miterlimit="10" stroke-dasharray="0"/><path fill="none" stroke="#505050" paint-order="fill stroke markers" d=" M 555.8649230897427 285.8855209350586 C 563.8202558141802 285.8855209350586 572.9028063136484 294.7473258972168 580.8581390380859 294.7473258972168" stroke-miterlimit="10" stroke-dasharray="0"/><path fill="none" stroke="#505050" paint-order="fill stroke markers" d=" M 448.3474540710449 50.68312072753906 C 452.63496621006783 50.68312072753906 458.3465782845611 51.06379699707031 462.634090423584 51.06379699707031" stroke-miterlimit="10" stroke-dasharray="0"/><path fill="none" stroke="#505050" paint-order="fill stroke markers" d=" M 393.42870712280273 76.43312072753906 C 403.58020096146754 76.43312072753906 414.1959602323801 62.68312072753906 424.3474540710449 62.68312072753906" stroke-miterlimit="10" stroke-dasharray="0"/><path fill="none" stroke="#505050" paint-order="fill stroke markers" d=" M 392.3474540710449 50.68312072753906 C 401.94745407104494 50.68312072753906 414.7474540710449 50.68312072753906 424.3474540710449 50.68312072753906" stroke-miterlimit="10" stroke-dasharray="0"/><path fill="none" stroke="#505050" paint-order="fill stroke markers" d=" M 1004.2583770751953 197.0591926574707 C 1011.0860643606492 197.0591926574707 1005.9746961373977 218.15350723266602 1012.8023834228516 218.15350723266602" stroke-miterlimit="10" stroke-dasharray="0"/><path fill="none" stroke="#505050" paint-order="fill stroke markers" d=" M 885.1583404541016 211.1154670715332 C 893.5883683450687 211.1154670715332 904.8283491842282 211.0591926574707 913.2583770751953 211.0591926574707" stroke-miterlimit="10" stroke-dasharray="0"/><path fill="none" stroke="#505050" paint-order="fill stroke markers" d=" M 871.9458770751953 175.03419876098633 C 885.9909499164132 175.03419876098633 899.2133042339774 197.0591926574707 913.2583770751953 197.0591926574707" stroke-miterlimit="10" stroke-dasharray="0"/><path fill="none" stroke="#505050" paint-order="fill stroke markers" d=" M 887.1520278453827 266.5092239379883 C 897.4815526996276 266.5092239379883 902.9288522209504 244.0591926574707 913.2583770751953 244.0591926574707" stroke-miterlimit="10" stroke-dasharray="0"/></g></g></svg>