<svg version="1.1" xmlns="http://www.w3.org/2000/svg" xmlns:xlink="http://www.w3.org/1999/xlink" width="938.9198989868164" height="272.2491455078125"><defs/><g transform="translate(-162.0523452758789,-115.02929306030273)"><g><path fill="white" stroke="#505050" paint-order="fill stroke markers" d=" M 359.3748474121094 131.02929306030273 L 359.3748474121094 371.27843856811523 Q 359.3748474121094 379.27843856811523 367.3748474121094 379.27843856811523 L 816.7192230224609 379.27843856811523 Q 824.7192230224609 379.27843856811523 824.7192230224609 371.27843856811523 L 824.7192230224609 131.02929306030273 Q 824.7192230224609 123.02929306030273 816.7192230224609 123.02929306030273 L 367.3748474121094 123.02929306030273 Q 359.3748474121094 123.02929306030273 359.3748474121094 131.02929306030273" stroke-miterlimit="10" stroke-width="0.5" stroke-dasharray=""/><path fill="#F0F0F0" stroke="#505050" paint-order="fill stroke markers" d=" M 735.7192230224609 131.02929306030273 L 824.7192230224609 131.02929306030273 L 824.7192230224609 227.02929306030273 L 735.7192230224609 227.02929306030273 L 735.7192230224609 131.02929306030273 Z" stroke-miterlimit="10" stroke-width="0.5" stroke-dasharray=""/><path fill="none" stroke="none"/><text fill="#505050" stroke="none" font-family="monospace" font-size="14px" font-style="normal" font-weight="normal" text-decoration="normal" x="780.2192230224609" y="149.02929306030273" text-anchor="middle" dominant-baseline="text-after-edge">reduce</text><path fill="none" stroke="#505050" paint-order="fill stroke markers" d=" M 735.7192230224609 149.02929306030273 L 743.7192230224609 149.02929306030273 L 743.7192230224609 157.02929306030273 L 735.7192230224609 157.02929306030273 L 735.7192230224609 149.02929306030273 Z" stroke-miterlimit="10" stroke-width="0.5" stroke-dasharray=""/><text fill="#505050" stroke="none" font-family="monospace" font-size="14px" font-style="normal" font-weight="normal" text-decoration="normal" x="751.7192230224609" y="163.02929306030273" text-anchor="start" dominant-baseline="text-after-edge">n</text><path fill="none" stroke="#505050" paint-order="fill stroke markers" d=" M 735.7192230224609 163.02929306030273 L 743.7192230224609 163.02929306030273 L 743.7192230224609 171.02929306030273 L 735.7192230224609 171.02929306030273 L 735.7192230224609 163.02929306030273 Z" stroke-miterlimit="10" stroke-width="0.5" stroke-dasharray=""/><text fill="#505050" stroke="none" font-family="monospace" font-size="14px" font-style="normal" font-weight="normal" text-decoration="normal" x="751.7192230224609" y="177.02929306030273" text-anchor="start" dominant-baseline="text-after-edge">end</text><path fill="none" stroke="#505050" paint-order="fill stroke markers" d=" M 735.7192230224609 177.02929306030273 L 743.7192230224609 177.02929306030273 L 743.7192230224609 185.02929306030273 L 735.7192230224609 185.02929306030273 L 735.7192230224609 177.02929306030273 Z" stroke-miterlimit="10" stroke-width="0.5" stroke-dasharray=""/><text fill="#505050" stroke="none" font-family="monospace" font-size="14px" font-style="normal" font-weight="normal" text-decoration="normal" x="751.7192230224609" y="191.02929306030273" text-anchor="start" dominant-baseline="text-after-edge">acc</text><path fill="none" stroke="#505050" paint-order="fill stroke markers" d=" M 735.7192230224609 191.02929306030273 L 792.7192230224609 191.02929306030273 L 792.7192230224609 223.02929306030273 L 735.7192230224609 223.02929306030273 L 735.7192230224609 191.02929306030273 Z" stroke-miterlimit="10" stroke-width="0.5" stroke-dasharray=""/><path fill="none" stroke="none"/><path fill="none" stroke="#505050" paint-order="fill stroke markers" d=" M 735.7192230224609 195.02929306030273 L 743.7192230224609 195.02929306030273 L 743.7192230224609 203.02929306030273 L 735.7192230224609 203.02929306030273 L 735.7192230224609 195.02929306030273 Z" stroke-miterlimit="10" stroke-width="0.5" stroke-dasharray=""/><text fill="#505050" stroke="none" font-family="monospace" font-size="14px" font-style="normal" font-weight="normal" text-decoration="normal" x="751.7192230224609" y="209.02929306030273" text-anchor="start" dominant-baseline="text-after-edge">i</text><path fill="none" stroke="#505050" paint-order="fill stroke markers" d=" M 735.7192230224609 209.02929306030273 L 743.7192230224609 209.02929306030273 L 743.7192230224609 217.02929306030273 L 735.7192230224609 217.02929306030273 L 735.7192230224609 209.02929306030273 Z" stroke-miterlimit="10" stroke-width="0.5" stroke-dasharray=""/><text fill="#505050" stroke="none" font-family="monospace" font-size="14px" font-style="normal" font-weight="normal" text-decoration="normal" x="751.7192230224609" y="223.02929306030273" text-anchor="start" dominant-baseline="text-after-edge">acc</text><path fill="none" stroke="#505050" paint-order="fill stroke markers" d=" M 784.7192230224609 195.02929306030273 L 792.7192230224609 195.02929306030273 L 792.7192230224609 203.02929306030273 L 784.7192230224609 203.02929306030273 L 784.7192230224609 195.02929306030273 Z" stroke-miterlimit="10" stroke-width="0.5" stroke-dasharray=""/><text fill="#505050" stroke="none" font-family="monospace" font-size="14px" font-style="normal" font-weight="normal" text-decoration="normal" x="800.7192230224609" y="216.02929306030273" text-anchor="start" dominant-baseline="text-after-edge">f</text><path fill="none" stroke="#505050" paint-order="fill stroke markers" d=" M 816.7192230224609 149.02929306030273 L 824.7192230224609 149.02929306030273 L 824.7192230224609 157.02929306030273 L 816.7192230224609 157.02929306030273 L 816.7192230224609 149.02929306030273 Z" stroke-miterlimit="10" stroke-width="0.5" stroke-dasharray=""/><path fill="white" stroke="#505050" paint-order="fill stroke markers" d=" M 668.5844573974609 186.50643920898438 L 692.5844573974609 186.50643920898438 L 692.5844573974609 240.50643920898438 L 668.5844573974609 240.50643920898438 L 668.5844573974609 186.50643920898438 Z" stroke-miterlimit="10" stroke-width="0.5" stroke-dasharray=""/><path fill="#F0F0F0" stroke="none" paint-order="stroke fill markers" d=""/><path fill="none" stroke="none"/><text fill="#505050" stroke="none" font-family="monospace" font-size="14px" font-style="normal" font-weight="normal" text-decoration="normal" x="680.5844573974609" y="204.50643920898438" text-anchor="middle" dominant-baseline="text-after-edge">?</text><path fill="none" stroke="#505050" paint-order="fill stroke markers" d=" M 668.5844573974609 204.50643920898438 L 676.5844573974609 204.50643920898438 L 676.5844573974609 212.50643920898438 L 668.5844573974609 212.50643920898438 L 668.5844573974609 204.50643920898438 Z" stroke-miterlimit="10" stroke-width="0.5" stroke-dasharray=""/><path fill="none" stroke="#505050" paint-order="fill stroke markers" d=" M 668.5844573974609 216.50643920898438 L 676.5844573974609 216.50643920898438 L 676.5844573974609 224.50643920898438 L 668.5844573974609 224.50643920898438 L 668.5844573974609 216.50643920898438 Z" stroke-miterlimit="10" stroke-width="0.5" stroke-dasharray=""/><path fill="none" stroke="#505050" paint-order="fill stroke markers" d=" M 668.5844573974609 228.50643920898438 L 676.5844573974609 228.50643920898438 L 676.5844573974609 236.50643920898438 L 668.5844573974609 236.50643920898438 L 668.5844573974609 228.50643920898438 Z" stroke-miterlimit="10" stroke-width="0.5" stroke-dasharray=""/><path fill="none" stroke="#505050" paint-order="fill stroke markers" d=" M 684.5844573974609 204.50643920898438 L 692.5844573974609 204.50643920898438 L 692.5844573974609 212.50643920898438 L 684.5844573974609 212.50643920898438 L 684.5844573974609 204.50643920898438 Z" stroke-miterlimit="10" stroke-width="0.5" stroke-dasharray=""/><path fill="white" stroke="#505050" paint-order="fill stroke markers" d=" M 708.5608367919922 200.75090789794922 L 716.5608367919922 200.75090789794922 L 724.5608367919922 208.75090789794922 L 716.5608367919922 216.75090789794922 L 708.5608367919922 216.75090789794922 L 708.5608367919922 200.75090789794922" stroke-miterlimit="10" stroke-width="0.5" stroke-dasharray=""/><path fill="none" stroke="none"/><path fill="none" stroke="#505050" paint-order="fill stroke markers" d=" M 708.5608367919922 204.75090789794922 L 716.5608367919922 204.75090789794922 L 716.5608367919922 212.75090789794922 L 708.5608367919922 212.75090789794922 L 708.5608367919922 204.75090789794922 Z" stroke-miterlimit="10" stroke-width="0.5" stroke-dasharray=""/><path fill="white" stroke="#505050" paint-order="fill stroke markers" d=" M 375.3006286621094 232.605131149292 L 424.3006286621094 232.605131149292 L 424.3006286621094 250.605131149292 L 375.3006286621094 250.605131149292 L 383.3006286621094 241.605131149292 L 375.3006286621094 232.605131149292" stroke-miterlimit="10" stroke-width="0.5" stroke-dasharray=""/><path fill="none" stroke="none"/><path fill="none" stroke="#505050" paint-order="fill stroke markers" d=" M 416.3006286621094 236.605131149292 L 424.3006286621094 236.605131149292 L 424.3006286621094 244.605131149292 L 416.3006286621094 244.605131149292 L 416.3006286621094 236.605131149292 Z" stroke-miterlimit="10" stroke-width="0.5" stroke-dasharray=""/><text fill="#505050" stroke="none" font-family="monospace" font-size="14px" font-style="normal" font-weight="normal" text-decoration="normal" x="408.3006286621094" y="250.605131149292" text-anchor="end" dominant-baseline="text-after-edge">acc</text><path fill="white" stroke="#505050" paint-order="fill stroke markers" d=" M 376.5030212402344 174.90429496765137 L 408.5030212402344 174.90429496765137 L 408.5030212402344 192.90429496765137 L 376.5030212402344 192.90429496765137 L 384.5030212402344 183.90429496765137 L 376.5030212402344 174.90429496765137" stroke-miterlimit="10" stroke-width="0.5" stroke-dasharray=""/><path fill="none" stroke="none"/><path fill="none" stroke="#505050" paint-order="fill stroke markers" d=" M 400.5030212402344 178.90429496765137 L 408.5030212402344 178.90429496765137 L 408.5030212402344 186.90429496765137 L 400.5030212402344 186.90429496765137 L 400.5030212402344 178.90429496765137 Z" stroke-miterlimit="10" stroke-width="0.5" stroke-dasharray=""/><text fill="#505050" stroke="none" font-family="monospace" font-size="14px" font-style="normal" font-weight="normal" text-decoration="normal" x="392.5030212402344" y="192.90429496765137" text-anchor="end" dominant-baseline="text-after-edge">n</text><path fill="white" stroke="#505050" paint-order="fill stroke markers" d=" M 530.6818771362305 135.0089874267578 L 555.6818771362305 135.0089874267578 L 555.6818771362305 177.0089874267578 L 530.6818771362305 177.0089874267578 L 530.6818771362305 135.0089874267578 Z" stroke-miterlimit="10" stroke-width="0.5" stroke-dasharray=""/><path fill="#F0F0F0" stroke="none" paint-order="stroke fill markers" d=""/><path fill="none" stroke="none"/><text fill="#505050" stroke="none" font-family="monospace" font-size="14px" font-style="normal" font-weight="normal" text-decoration="normal" x="543.1818771362305" y="153.0089874267578" text-anchor="middle" dominant-baseline="text-after-edge">&lt;=</text><path fill="none" stroke="#505050" paint-order="fill stroke markers" d=" M 530.6818771362305 153.0089874267578 L 538.6818771362305 153.0089874267578 L 538.6818771362305 161.0089874267578 L 530.6818771362305 161.0089874267578 L 530.6818771362305 153.0089874267578 Z" stroke-miterlimit="10" stroke-width="0.5" stroke-dasharray=""/><path fill="none" stroke="#505050" paint-order="fill stroke markers" d=" M 530.6818771362305 165.0089874267578 L 538.6818771362305 165.0089874267578 L 538.6818771362305 173.0089874267578 L 530.6818771362305 173.0089874267578 L 530.6818771362305 165.0089874267578 Z" stroke-miterlimit="10" stroke-width="0.5" stroke-dasharray=""/><path fill="none" stroke="#505050" paint-order="fill stroke markers" d=" M 547.6818771362305 153.0089874267578 L 555.6818771362305 153.0089874267578 L 555.6818771362305 161.0089874267578 L 547.6818771362305 161.0089874267578 L 547.6818771362305 153.0089874267578 Z" stroke-miterlimit="10" stroke-width="0.5" stroke-dasharray=""/><path fill="white" stroke="#505050" paint-order="fill stroke markers" d=" M 502.2176170349121 239.3804168701172 L 527.2176170349121 239.3804168701172 L 527.2176170349121 269.3804168701172 L 502.2176170349121 269.3804168701172 L 502.2176170349121 239.3804168701172 Z" stroke-miterlimit="10" stroke-width="0.5" stroke-dasharray=""/><path fill="#F0F0F0" stroke="none" paint-order="stroke fill markers" d=""/><path fill="none" stroke="none"/><text fill="#505050" stroke="none" font-family="monospace" font-size="14px" font-style="normal" font-weight="normal" text-decoration="normal" x="514.7176170349121" y="257.3804168701172" text-anchor="middle" dominant-baseline="text-after-edge">-1</text><path fill="none" stroke="#505050" paint-order="fill stroke markers" d=" M 502.2176170349121 257.3804168701172 L 510.2176170349121 257.3804168701172 L 510.2176170349121 265.3804168701172 L 502.2176170349121 265.3804168701172 L 502.2176170349121 257.3804168701172 Z" stroke-miterlimit="10" stroke-width="0.5" stroke-dasharray=""/><path fill="none" stroke="#505050" paint-order="fill stroke markers" d=" M 519.2176170349121 257.3804168701172 L 527.2176170349121 257.3804168701172 L 527.2176170349121 265.3804168701172 L 519.2176170349121 265.3804168701172 L 519.2176170349121 257.3804168701172 Z" stroke-miterlimit="10" stroke-width="0.5" stroke-dasharray=""/><path fill="none" stroke="none"/><path fill="white" stroke="#505050" paint-order="fill stroke markers" d=" M 365.18871307373047 309.27843856811523 L 438.18871307373047 309.27843856811523 L 438.18871307373047 363.27843856811523 L 365.18871307373047 363.27843856811523 L 373.18871307373047 336.27843856811523 L 365.18871307373047 309.27843856811523" stroke-miterlimit="10" stroke-width="0.5" stroke-dasharray=""/><path fill="#F0F0F0" stroke="none" paint-order="stroke fill markers" d=" M 381.18871307373047 313.27843856811523 L 438.18871307373047 313.27843856811523 L 438.18871307373047 359.27843856811523 L 381.18871307373047 359.27843856811523 L 381.18871307373047 313.27843856811523 Z"/><path fill="none" stroke="none"/><path fill="none" stroke="#505050" paint-order="fill stroke markers" d=" M 381.18871307373047 313.27843856811523 L 438.18871307373047 313.27843856811523 L 438.18871307373047 359.27843856811523 L 381.18871307373047 359.27843856811523 L 381.18871307373047 313.27843856811523 Z" stroke-miterlimit="10" stroke-width="0.5" stroke-dasharray=""/><path fill="none" stroke="none"/><text fill="#505050" stroke="none" font-family="monospace" font-size="14px" font-style="normal" font-weight="normal" text-decoration="normal" x="409.68871307373047" y="331.27843856811523" text-anchor="middle" dominant-baseline="text-after-edge">f</text><path fill="none" stroke="#505050" paint-order="fill stroke markers" d=" M 381.18871307373047 331.27843856811523 L 389.18871307373047 331.27843856811523 L 389.18871307373047 339.27843856811523 L 381.18871307373047 339.27843856811523 L 381.18871307373047 331.27843856811523 Z" stroke-miterlimit="10" stroke-width="0.5" stroke-dasharray=""/><text fill="#505050" stroke="none" font-family="monospace" font-size="14px" font-style="normal" font-weight="normal" text-decoration="normal" x="397.18871307373047" y="345.27843856811523" text-anchor="start" dominant-baseline="text-after-edge">i</text><path fill="none" stroke="#505050" paint-order="fill stroke markers" d=" M 381.18871307373047 345.27843856811523 L 389.18871307373047 345.27843856811523 L 389.18871307373047 353.27843856811523 L 381.18871307373047 353.27843856811523 L 381.18871307373047 345.27843856811523 Z" stroke-miterlimit="10" stroke-width="0.5" stroke-dasharray=""/><text fill="#505050" stroke="none" font-family="monospace" font-size="14px" font-style="normal" font-weight="normal" text-decoration="normal" x="397.18871307373047" y="359.27843856811523" text-anchor="start" dominant-baseline="text-after-edge">acc</text><path fill="none" stroke="#505050" paint-order="fill stroke markers" d=" M 430.18871307373047 331.27843856811523 L 438.18871307373047 331.27843856811523 L 438.18871307373047 339.27843856811523 L 430.18871307373047 339.27843856811523 L 430.18871307373047 331.27843856811523 Z" stroke-miterlimit="10" stroke-width="0.5" stroke-dasharray=""/><path fill="white" stroke="#505050" paint-order="fill stroke markers" d=" M 481.5609069764614 273.0226058959961 L 538.5609069764614 273.0226058959961 L 538.5609069764614 319.0226058959961 L 481.5609069764614 319.0226058959961 L 481.5609069764614 273.0226058959961 Z" stroke-miterlimit="10" stroke-width="0.5" stroke-dasharray=""/><path fill="#F0F0F0" stroke="none" paint-order="stroke fill markers" d=""/><path fill="none" stroke="none"/><text fill="#505050" stroke="none" font-family="monospace" font-size="14px" font-style="normal" font-weight="normal" text-decoration="normal" x="510.0609069764614" y="291.0226058959961" text-anchor="middle" dominant-baseline="text-after-edge">f</text><path fill="none" stroke="#505050" paint-order="fill stroke markers" d=" M 481.5609069764614 291.0226058959961 L 489.5609069764614 291.0226058959961 L 489.5609069764614 299.0226058959961 L 481.5609069764614 299.0226058959961 L 481.5609069764614 291.0226058959961 Z" stroke-miterlimit="10" stroke-width="0.5" stroke-dasharray=""/><text fill="#505050" stroke="none" font-family="monospace" font-size="14px" font-style="normal" font-weight="normal" text-decoration="normal" x="497.5609069764614" y="305.0226058959961" text-anchor="start" dominant-baseline="text-after-edge">i</text><path fill="none" stroke="#505050" paint-order="fill stroke markers" d=" M 481.5609069764614 305.0226058959961 L 489.5609069764614 305.0226058959961 L 489.5609069764614 313.0226058959961 L 481.5609069764614 313.0226058959961 L 481.5609069764614 305.0226058959961 Z" stroke-miterlimit="10" stroke-width="0.5" stroke-dasharray=""/><text fill="#505050" stroke="none" font-family="monospace" font-size="14px" font-style="normal" font-weight="normal" text-decoration="normal" x="497.5609069764614" y="319.0226058959961" text-anchor="start" dominant-baseline="text-after-edge">acc</text><path fill="none" stroke="#505050" paint-order="fill stroke markers" d=" M 530.5609069764614 291.0226058959961 L 538.5609069764614 291.0226058959961 L 538.5609069764614 299.0226058959961 L 530.5609069764614 299.0226058959961 L 530.5609069764614 291.0226058959961 Z" stroke-miterlimit="10" stroke-width="0.5" stroke-dasharray=""/><path fill="white" stroke="#505050" paint-order="fill stroke markers" d=" M 462.92914962768555 178.05529022216797 L 511.92914962768555 178.05529022216797 L 511.92914962768555 196.05529022216797 L 462.92914962768555 196.05529022216797 L 470.92914962768555 187.05529022216797 L 462.92914962768555 178.05529022216797" stroke-miterlimit="10" stroke-width="0.5" stroke-dasharray=""/><path fill="none" stroke="none"/><path fill="none" stroke="#505050" paint-order="fill stroke markers" d=" M 503.92914962768555 182.05529022216797 L 511.92914962768555 182.05529022216797 L 511.92914962768555 190.05529022216797 L 503.92914962768555 190.05529022216797 L 503.92914962768555 182.05529022216797 Z" stroke-miterlimit="10" stroke-width="0.5" stroke-dasharray=""/><text fill="#505050" stroke="none" font-family="monospace" font-size="14px" font-style="normal" font-weight="normal" text-decoration="normal" x="495.92914962768555" y="196.05529022216797" text-anchor="end" dominant-baseline="text-after-edge">end</text><path fill="white" stroke="#505050" paint-order="fill stroke markers" d=" M 572.3425140380859 252.66779708862305 L 661.3425140380859 252.66779708862305 L 661.3425140380859 348.66779708862305 L 572.3425140380859 348.66779708862305 L 572.3425140380859 252.66779708862305 Z" stroke-miterlimit="10" stroke-width="0.5" stroke-dasharray=""/><path fill="#F0F0F0" stroke="none" paint-order="stroke fill markers" d=""/><path fill="none" stroke="none"/><text fill="#505050" stroke="none" font-family="monospace" font-size="14px" font-style="normal" font-weight="normal" text-decoration="normal" x="616.8425140380859" y="270.66779708862305" text-anchor="middle" dominant-baseline="text-after-edge">reduce</text><path fill="none" stroke="#505050" paint-order="fill stroke markers" d=" M 572.3425140380859 270.66779708862305 L 580.3425140380859 270.66779708862305 L 580.3425140380859 278.66779708862305 L 572.3425140380859 278.66779708862305 L 572.3425140380859 270.66779708862305 Z" stroke-miterlimit="10" stroke-width="0.5" stroke-dasharray=""/><text fill="#505050" stroke="none" font-family="monospace" font-size="14px" font-style="normal" font-weight="normal" text-decoration="normal" x="588.3425140380859" y="284.66779708862305" text-anchor="start" dominant-baseline="text-after-edge">n</text><path fill="none" stroke="#505050" paint-order="fill stroke markers" d=" M 572.3425140380859 284.66779708862305 L 580.3425140380859 284.66779708862305 L 580.3425140380859 292.66779708862305 L 572.3425140380859 292.66779708862305 L 572.3425140380859 284.66779708862305 Z" stroke-miterlimit="10" stroke-width="0.5" stroke-dasharray=""/><text fill="#505050" stroke="none" font-family="monospace" font-size="14px" font-style="normal" font-weight="normal" text-decoration="normal" x="588.3425140380859" y="298.66779708862305" text-anchor="start" dominant-baseline="text-after-edge">end</text><path fill="none" stroke="#505050" paint-order="fill stroke markers" d=" M 572.3425140380859 298.66779708862305 L 580.3425140380859 298.66779708862305 L 580.3425140380859 306.66779708862305 L 572.3425140380859 306.66779708862305 L 572.3425140380859 298.66779708862305 Z" stroke-miterlimit="10" stroke-width="0.5" stroke-dasharray=""/><text fill="#505050" stroke="none" font-family="monospace" font-size="14px" font-style="normal" font-weight="normal" text-decoration="normal" x="588.3425140380859" y="312.66779708862305" text-anchor="start" dominant-baseline="text-after-edge">acc</text><path fill="none" stroke="#505050" paint-order="fill stroke markers" d=" M 572.3425140380859 312.66779708862305 L 629.3425140380859 312.66779708862305 L 629.3425140380859 344.66779708862305 L 572.3425140380859 344.66779708862305 L 572.3425140380859 312.66779708862305 Z" stroke-miterlimit="10" stroke-width="0.5" stroke-dasharray=""/><path fill="none" stroke="none"/><path fill="none" stroke="#505050" paint-order="fill stroke markers" d=" M 572.3425140380859 316.66779708862305 L 580.3425140380859 316.66779708862305 L 580.3425140380859 324.66779708862305 L 572.3425140380859 324.66779708862305 L 572.3425140380859 316.66779708862305 Z" stroke-miterlimit="10" stroke-width="0.5" stroke-dasharray=""/><text fill="#505050" stroke="none" font-family="monospace" font-size="14px" font-style="normal" font-weight="normal" text-decoration="normal" x="588.3425140380859" y="330.66779708862305" text-anchor="start" dominant-baseline="text-after-edge">i</text><path fill="none" stroke="#505050" paint-order="fill stroke markers" d=" M 572.3425140380859 330.66779708862305 L 580.3425140380859 330.66779708862305 L 580.3425140380859 338.66779708862305 L 572.3425140380859 338.66779708862305 L 572.3425140380859 330.66779708862305 Z" stroke-miterlimit="10" stroke-width="0.5" stroke-dasharray=""/><text fill="#505050" stroke="none" font-family="monospace" font-size="14px" font-style="normal" font-weight="normal" text-decoration="normal" x="588.3425140380859" y="344.66779708862305" text-anchor="start" dominant-baseline="text-after-edge">acc</text><path fill="none" stroke="#505050" paint-order="fill stroke markers" d=" M 621.3425140380859 316.66779708862305 L 629.3425140380859 316.66779708862305 L 629.3425140380859 324.66779708862305 L 621.3425140380859 324.66779708862305 L 621.3425140380859 316.66779708862305 Z" stroke-miterlimit="10" stroke-width="0.5" stroke-dasharray=""/><text fill="#505050" stroke="none" font-family="monospace" font-size="14px" font-style="normal" font-weight="normal" text-decoration="normal" x="637.3425140380859" y="337.66779708862305" text-anchor="start" dominant-baseline="text-after-edge">f</text><path fill="none" stroke="#505050" paint-order="fill stroke markers" d=" M 653.3425140380859 270.66779708862305 L 661.3425140380859 270.66779708862305 L 661.3425140380859 278.66779708862305 L 653.3425140380859 278.66779708862305 L 653.3425140380859 270.66779708862305 Z" stroke-miterlimit="10" stroke-width="0.5" stroke-dasharray=""/><path fill="white" stroke="#505050" paint-order="fill stroke markers" d=" M 188.49946212768555 174.6880874633789 L 188.49946212768555 225.8890838623047 Q 188.49946212768555 233.8890838623047 196.49946212768555 233.8890838623047 L 292.57856369018555 233.8890838623047 Q 300.57856369018555 233.8890838623047 300.57856369018555 225.8890838623047 L 300.57856369018555 174.6880874633789 Q 300.57856369018555 166.6880874633789 292.57856369018555 166.6880874633789 L 196.49946212768555 166.6880874633789 Q 188.49946212768555 166.6880874633789 188.49946212768555 174.6880874633789" stroke-miterlimit="10" stroke-width="0.5" stroke-dasharray=""/><path fill="#F0F0F0" stroke="#505050" paint-order="fill stroke markers" d=" M 275.57856369018555 174.6880874633789 L 300.57856369018555 174.6880874633789 L 300.57856369018555 204.6880874633789 L 275.57856369018555 204.6880874633789 L 275.57856369018555 174.6880874633789 Z" stroke-miterlimit="10" stroke-width="0.5" stroke-dasharray=""/><path fill="none" stroke="none"/><text fill="#505050" stroke="none" font-family="monospace" font-size="14px" font-style="normal" font-weight="normal" text-decoration="normal" x="288.07856369018555" y="192.6880874633789" text-anchor="middle" dominant-baseline="text-after-edge">-1</text><path fill="none" stroke="#505050" paint-order="fill stroke markers" d=" M 275.57856369018555 192.6880874633789 L 283.57856369018555 192.6880874633789 L 283.57856369018555 200.6880874633789 L 275.57856369018555 200.6880874633789 L 275.57856369018555 192.6880874633789 Z" stroke-miterlimit="10" stroke-width="0.5" stroke-dasharray=""/><path fill="none" stroke="#505050" paint-order="fill stroke markers" d=" M 292.57856369018555 192.6880874633789 L 300.57856369018555 192.6880874633789 L 300.57856369018555 200.6880874633789 L 292.57856369018555 200.6880874633789 L 292.57856369018555 192.6880874633789 Z" stroke-miterlimit="10" stroke-width="0.5" stroke-dasharray=""/><path fill="none" stroke="#505050" paint-order="fill stroke markers" d=" M 234.72391891479492 196.0062713623047 L 226.72391891479492 196.0062713623047 M 258.7239189147949 196.0062713623047 L 266.7239189147949 196.0062713623047" stroke-miterlimit="10" stroke-dasharray=""/><path fill="white" stroke="#505050" paint-order="fill stroke markers" d=" M 234.72391891479492 174.0062713623047 L 258.7239189147949 174.0062713623047 L 258.7239189147949 216.0062713623047 L 234.72391891479492 216.0062713623047 L 234.72391891479492 174.0062713623047 Z" stroke-miterlimit="10" stroke-width="0.5" stroke-dasharray=""/><path fill="#F0F0F0" stroke="none" paint-order="stroke fill markers" d=""/><path fill="none" stroke="none"/><text fill="#505050" stroke="none" font-family="monospace" font-size="14px" font-style="normal" font-weight="normal" text-decoration="normal" x="246.72391891479492" y="192.0062713623047" text-anchor="middle" dominant-baseline="text-after-edge">-</text><path fill="none" stroke="#505050" paint-order="fill stroke markers" d=" M 234.72391891479492 192.0062713623047 L 242.72391891479492 192.0062713623047 L 242.72391891479492 200.0062713623047 L 234.72391891479492 200.0062713623047 L 234.72391891479492 192.0062713623047 Z" stroke-miterlimit="10" stroke-width="0.5" stroke-dasharray=""/><path fill="none" stroke="#505050" paint-order="fill stroke markers" d=" M 234.72391891479492 204.0062713623047 L 242.72391891479492 204.0062713623047 L 242.72391891479492 212.0062713623047 L 234.72391891479492 212.0062713623047 L 234.72391891479492 204.0062713623047 Z" stroke-miterlimit="10" stroke-width="0.5" stroke-dasharray=""/><path fill="none" stroke="#505050" paint-order="fill stroke markers" d=" M 250.72391891479492 192.0062713623047 L 258.7239189147949 192.0062713623047 L 258.7239189147949 200.0062713623047 L 250.72391891479492 200.0062713623047 L 250.72391891479492 192.0062713623047 Z" stroke-miterlimit="10" stroke-width="0.5" stroke-dasharray=""/><path fill="white" stroke="#505050" paint-order="fill stroke markers" d=" M 192.6538963317871 199.8890838623047 L 224.6538963317871 199.8890838623047 L 224.6538963317871 217.8890838623047 L 192.6538963317871 217.8890838623047 L 192.6538963317871 199.8890838623047 Z" stroke-miterlimit="10" stroke-width="0.5" stroke-dasharray=""/><path fill="#F0F0F0" stroke="none" paint-order="stroke fill markers" d=""/><path fill="none" stroke="none"/><path fill="none" stroke="#505050" paint-order="fill stroke markers" d=" M 216.6538963317871 203.8890838623047 L 224.6538963317871 203.8890838623047 L 224.6538963317871 211.8890838623047 L 216.6538963317871 211.8890838623047 L 216.6538963317871 203.8890838623047 Z" stroke-miterlimit="10" stroke-width="0.5" stroke-dasharray=""/><text fill="#505050" stroke="none" font-family="monospace" font-size="14px" font-style="normal" font-weight="normal" text-decoration="normal" x="208.6538963317871" y="217.8890838623047" text-anchor="end" dominant-baseline="text-after-edge">1</text><path fill="white" stroke="#505050" paint-order="fill stroke markers" d=" M 854.4952545166016 247.52211380004883 L 854.4952545166016 365.24073791503906 Q 854.4952545166016 373.24073791503906 862.4952545166016 373.24073791503906 L 1084.9722442626953 373.24073791503906 Q 1092.9722442626953 373.24073791503906 1092.9722442626953 365.24073791503906 L 1092.9722442626953 247.52211380004883 Q 1092.9722442626953 239.52211380004883 1084.9722442626953 239.52211380004883 L 862.4952545166016 239.52211380004883 Q 854.4952545166016 239.52211380004883 854.4952545166016 247.52211380004883" stroke-miterlimit="10" stroke-width="0.5" stroke-dasharray=""/><path fill="#F0F0F0" stroke="#505050" paint-order="fill stroke markers" d=" M 1052.9722442626953 247.52211380004883 L 1092.9722442626953 247.52211380004883 L 1092.9722442626953 279.5221138000488 L 1052.9722442626953 279.5221138000488 L 1052.9722442626953 247.52211380004883 Z" stroke-miterlimit="10" stroke-width="0.5" stroke-dasharray=""/><path fill="none" stroke="none"/><text fill="#505050" stroke="none" font-family="monospace" font-size="14px" font-style="normal" font-weight="normal" text-decoration="normal" x="1072.9722442626953" y="265.5221138000488" text-anchor="middle" dominant-baseline="text-after-edge">n!</text><path fill="none" stroke="#505050" paint-order="fill stroke markers" d=" M 1052.9722442626953 265.5221138000488 L 1060.9722442626953 265.5221138000488 L 1060.9722442626953 273.5221138000488 L 1052.9722442626953 273.5221138000488 L 1052.9722442626953 265.5221138000488 Z" stroke-miterlimit="10" stroke-width="0.5" stroke-dasharray=""/><text fill="#505050" stroke="none" font-family="monospace" font-size="14px" font-style="normal" font-weight="normal" text-decoration="normal" x="1068.9722442626953" y="279.5221138000488" text-anchor="start" dominant-baseline="text-after-edge">n</text><path fill="none" stroke="#505050" paint-order="fill stroke markers" d=" M 1084.9722442626953 265.5221138000488 L 1092.9722442626953 265.5221138000488 L 1092.9722442626953 273.5221138000488 L 1084.9722442626953 273.5221138000488 L 1084.9722442626953 265.5221138000488 Z" stroke-miterlimit="10" stroke-width="0.5" stroke-dasharray=""/><path fill="none" stroke="#505050" paint-order="fill stroke markers" d=" M 932.7470245361328 266.98816299438477 L 924.7470245361328 266.98816299438477 M 1021.7470245361328 266.98816299438477 L 1029.7470245361328 266.98816299438477" stroke-miterlimit="10" stroke-dasharray=""/><path fill="white" stroke="#505050" paint-order="fill stroke markers" d=" M 862.5156402587891 279.40166091918945 L 894.5156402587891 279.40166091918945 L 894.5156402587891 297.40166091918945 L 862.5156402587891 297.40166091918945 L 862.5156402587891 279.40166091918945 Z" stroke-miterlimit="10" stroke-width="0.5" stroke-dasharray=""/><path fill="#F0F0F0" stroke="none" paint-order="stroke fill markers" d=""/><path fill="none" stroke="none"/><path fill="none" stroke="#505050" paint-order="fill stroke markers" d=" M 886.5156402587891 283.40166091918945 L 894.5156402587891 283.40166091918945 L 894.5156402587891 291.40166091918945 L 886.5156402587891 291.40166091918945 L 886.5156402587891 283.40166091918945 Z" stroke-miterlimit="10" stroke-width="0.5" stroke-dasharray=""/><text fill="#505050" stroke="none" font-family="monospace" font-size="14px" font-style="normal" font-weight="normal" text-decoration="normal" x="878.5156402587891" y="297.40166091918945" text-anchor="end" dominant-baseline="text-after-edge">1</text><path fill="white" stroke="#505050" paint-order="fill stroke markers" d=" M 932.7470245361328 244.98816299438477 L 1021.7470245361328 244.98816299438477 L 1021.7470245361328 340.98816299438477 L 932.7470245361328 340.98816299438477 L 932.7470245361328 244.98816299438477 Z" stroke-miterlimit="10" stroke-width="0.5" stroke-dasharray=""/><path fill="#F0F0F0" stroke="none" paint-order="stroke fill markers" d=""/><path fill="none" stroke="none"/><text fill="#505050" stroke="none" font-family="monospace" font-size="14px" font-style="normal" font-weight="normal" text-decoration="normal" x="977.2470245361328" y="262.98816299438477" text-anchor="middle" dominant-baseline="text-after-edge">reduce</text><path fill="none" stroke="#505050" paint-order="fill stroke markers" d=" M 932.7470245361328 262.98816299438477 L 940.7470245361328 262.98816299438477 L 940.7470245361328 270.98816299438477 L 932.7470245361328 270.98816299438477 L 932.7470245361328 262.98816299438477 Z" stroke-miterlimit="10" stroke-width="0.5" stroke-dasharray=""/><text fill="#505050" stroke="none" font-family="monospace" font-size="14px" font-style="normal" font-weight="normal" text-decoration="normal" x="948.7470245361328" y="276.98816299438477" text-anchor="start" dominant-baseline="text-after-edge">n</text><path fill="none" stroke="#505050" paint-order="fill stroke markers" d=" M 932.7470245361328 276.98816299438477 L 940.7470245361328 276.98816299438477 L 940.7470245361328 284.98816299438477 L 932.7470245361328 284.98816299438477 L 932.7470245361328 276.98816299438477 Z" stroke-miterlimit="10" stroke-width="0.5" stroke-dasharray=""/><text fill="#505050" stroke="none" font-family="monospace" font-size="14px" font-style="normal" font-weight="normal" text-decoration="normal" x="948.7470245361328" y="290.98816299438477" text-anchor="start" dominant-baseline="text-after-edge">end</text><path fill="none" stroke="#505050" paint-order="fill stroke markers" d=" M 932.7470245361328 290.98816299438477 L 940.7470245361328 290.98816299438477 L 940.7470245361328 298.98816299438477 L 932.7470245361328 298.98816299438477 L 932.7470245361328 290.98816299438477 Z" stroke-miterlimit="10" stroke-width="0.5" stroke-dasharray=""/><text fill="#505050" stroke="none" font-family="monospace" font-size="14px" font-style="normal" font-weight="normal" text-decoration="normal" x="948.7470245361328" y="304.98816299438477" text-anchor="start" dominant-baseline="text-after-edge">acc</text><path fill="none" stroke="#505050" paint-order="fill stroke markers" d=" M 932.7470245361328 304.98816299438477 L 989.7470245361328 304.98816299438477 L 989.7470245361328 336.98816299438477 L 932.7470245361328 336.98816299438477 L 932.7470245361328 304.98816299438477 Z" stroke-miterlimit="10" stroke-width="0.5" stroke-dasharray=""/><path fill="none" stroke="none"/><path fill="none" stroke="#505050" paint-order="fill stroke markers" d=" M 932.7470245361328 308.98816299438477 L 940.7470245361328 308.98816299438477 L 940.7470245361328 316.98816299438477 L 932.7470245361328 316.98816299438477 L 932.7470245361328 308.98816299438477 Z" stroke-miterlimit="10" stroke-width="0.5" stroke-dasharray=""/><text fill="#505050" stroke="none" font-family="monospace" font-size="14px" font-style="normal" font-weight="normal" text-decoration="normal" x="948.7470245361328" y="322.98816299438477" text-anchor="start" dominant-baseline="text-after-edge">i</text><path fill="none" stroke="#505050" paint-order="fill stroke markers" d=" M 932.7470245361328 322.98816299438477 L 940.7470245361328 322.98816299438477 L 940.7470245361328 330.98816299438477 L 932.7470245361328 330.98816299438477 L 932.7470245361328 322.98816299438477 Z" stroke-miterlimit="10" stroke-width="0.5" stroke-dasharray=""/><text fill="#505050" stroke="none" font-family="monospace" font-size="14px" font-style="normal" font-weight="normal" text-decoration="normal" x="948.7470245361328" y="336.98816299438477" text-anchor="start" dominant-baseline="text-after-edge">acc</text><path fill="none" stroke="#505050" paint-order="fill stroke markers" d=" M 981.7470245361328 308.98816299438477 L 989.7470245361328 308.98816299438477 L 989.7470245361328 316.98816299438477 L 981.7470245361328 316.98816299438477 L 981.7470245361328 308.98816299438477 Z" stroke-miterlimit="10" stroke-width="0.5" stroke-dasharray=""/><text fill="#505050" stroke="none" font-family="monospace" font-size="14px" font-style="normal" font-weight="normal" text-decoration="normal" x="997.7470245361328" y="329.98816299438477" text-anchor="start" dominant-baseline="text-after-edge">f</text><path fill="none" stroke="#505050" paint-order="fill stroke markers" d=" M 1013.7470245361328 262.98816299438477 L 1021.7470245361328 262.98816299438477 L 1021.7470245361328 270.98816299438477 L 1013.7470245361328 270.98816299438477 L 1013.7470245361328 262.98816299438477 Z" stroke-miterlimit="10" stroke-width="0.5" stroke-dasharray=""/><path fill="none" stroke="none"/><path fill="white" stroke="#505050" paint-order="fill stroke markers" d=" M 863.965217590332 307.24073791503906 L 895.965217590332 307.24073791503906 L 903.965217590332 332.24073791503906 L 895.965217590332 357.24073791503906 L 863.965217590332 357.24073791503906 L 863.965217590332 307.24073791503906" stroke-miterlimit="10" stroke-width="0.5" stroke-dasharray=""/><path fill="none" stroke="none"/><path fill="none" stroke="#505050" paint-order="fill stroke markers" d=" M 871.965217590332 311.24073791503906 L 895.965217590332 311.24073791503906 L 895.965217590332 353.24073791503906 L 871.965217590332 353.24073791503906 L 871.965217590332 311.24073791503906 Z" stroke-miterlimit="10" stroke-width="0.5" stroke-dasharray=""/><path fill="none" stroke="none"/><text fill="#505050" stroke="none" font-family="monospace" font-size="14px" font-style="normal" font-weight="normal" text-decoration="normal" x="883.965217590332" y="329.24073791503906" text-anchor="middle" dominant-baseline="text-after-edge">*</text><path fill="none" stroke="#505050" paint-order="fill stroke markers" d=" M 871.965217590332 329.24073791503906 L 879.965217590332 329.24073791503906 L 879.965217590332 337.24073791503906 L 871.965217590332 337.24073791503906 L 871.965217590332 329.24073791503906 Z" stroke-miterlimit="10" stroke-width="0.5" stroke-dasharray=""/><path fill="none" stroke="#505050" paint-order="fill stroke markers" d=" M 871.965217590332 341.24073791503906 L 879.965217590332 341.24073791503906 L 879.965217590332 349.24073791503906 L 871.965217590332 349.24073791503906 L 871.965217590332 341.24073791503906 Z" stroke-miterlimit="10" stroke-width="0.5" stroke-dasharray=""/><path fill="none" stroke="#505050" paint-order="fill stroke markers" d=" M 887.965217590332 329.24073791503906 L 895.965217590332 329.24073791503906 L 895.965217590332 337.24073791503906 L 887.965217590332 337.24073791503906 L 887.965217590332 329.24073791503906 Z" stroke-miterlimit="10" stroke-width="0.5" stroke-dasharray=""/><path fill="white" stroke="#505050" paint-order="fill stroke markers" d=" M 170.0523452758789 313.0256462097168 L 170.0523452758789 368.5831718444824 Q 170.0523452758789 376.5831718444824 178.0523452758789 376.5831718444824 L 309.0523452758789 376.5831718444824 Q 317.0523452758789 376.5831718444824 317.0523452758789 368.5831718444824 L 317.0523452758789 313.0256462097168 Q 317.0523452758789 305.0256462097168 309.0523452758789 305.0256462097168 L 178.0523452758789 305.0256462097168 Q 170.0523452758789 305.0256462097168 170.0523452758789 313.0256462097168" stroke-miterlimit="10" stroke-width="0.5" stroke-dasharray=""/><path fill="#F0F0F0" stroke="#505050" paint-order="fill stroke markers" d=" M 260.0523452758789 313.0256462097168 L 317.0523452758789 313.0256462097168 L 317.0523452758789 359.0256462097168 L 260.0523452758789 359.0256462097168 L 260.0523452758789 313.0256462097168 Z" stroke-miterlimit="10" stroke-width="0.5" stroke-dasharray="6,3"/><path fill="none" stroke="none"/><text fill="#505050" stroke="none" font-family="monospace" font-size="14px" font-style="normal" font-weight="normal" text-decoration="normal" x="288.5523452758789" y="331.0256462097168" text-anchor="middle" dominant-baseline="text-after-edge">f</text><path fill="none" stroke="#505050" paint-order="fill stroke markers" d=" M 260.0523452758789 331.0256462097168 L 268.0523452758789 331.0256462097168 L 268.0523452758789 339.0256462097168 L 260.0523452758789 339.0256462097168 L 260.0523452758789 331.0256462097168 Z" stroke-miterlimit="10" stroke-width="0.5"/><text fill="#505050" stroke="none" font-family="monospace" font-size="14px" font-style="normal" font-weight="normal" text-decoration="normal" x="276.0523452758789" y="345.0256462097168" text-anchor="start" dominant-baseline="text-after-edge">i</text><path fill="none" stroke="#505050" paint-order="fill stroke markers" d=" M 260.0523452758789 345.0256462097168 L 268.0523452758789 345.0256462097168 L 268.0523452758789 353.0256462097168 L 260.0523452758789 353.0256462097168 L 260.0523452758789 345.0256462097168 Z" stroke-miterlimit="10" stroke-width="0.5"/><text fill="#505050" stroke="none" font-family="monospace" font-size="14px" font-style="normal" font-weight="normal" text-decoration="normal" x="276.0523452758789" y="359.0256462097168" text-anchor="start" dominant-baseline="text-after-edge">acc</text><path fill="none" stroke="#505050" paint-order="fill stroke markers" d=" M 309.0523452758789 331.0256462097168 L 317.0523452758789 331.0256462097168 L 317.0523452758789 339.0256462097168 L 309.0523452758789 339.0256462097168 L 309.0523452758789 331.0256462097168 Z" stroke-miterlimit="10" stroke-width="0.5"/><path fill="white" stroke="#505050" paint-order="fill stroke markers" d=" M 178.0523452758789 313.0256462097168 L 210.0523452758789 313.0256462097168 L 210.0523452758789 331.0256462097168 L 178.0523452758789 331.0256462097168 L 186.0523452758789 322.0256462097168 L 178.0523452758789 313.0256462097168" stroke-miterlimit="10" stroke-width="0.5"/><path fill="none" stroke="none"/><path fill="none" stroke="#505050" paint-order="fill stroke markers" d=" M 202.0523452758789 317.0256462097168 L 210.0523452758789 317.0256462097168 L 210.0523452758789 325.0256462097168 L 202.0523452758789 325.0256462097168 L 202.0523452758789 317.0256462097168 Z" stroke-miterlimit="10" stroke-width="0.5"/><text fill="#505050" stroke="none" font-family="monospace" font-size="14px" font-style="normal" font-weight="normal" text-decoration="normal" x="194.0523452758789" y="331.0256462097168" text-anchor="end" dominant-baseline="text-after-edge">i</text><path fill="white" stroke="#505050" paint-order="fill stroke markers" d=" M 175.4671401977539 342.5831718444824 L 224.4671401977539 342.5831718444824 L 224.4671401977539 360.5831718444824 L 175.4671401977539 360.5831718444824 L 183.4671401977539 351.5831718444824 L 175.4671401977539 342.5831718444824" stroke-miterlimit="10" stroke-width="0.5"/><path fill="none" stroke="none"/><path fill="none" stroke="#505050" paint-order="fill stroke markers" d=" M 216.4671401977539 346.5831718444824 L 224.4671401977539 346.5831718444824 L 224.4671401977539 354.5831718444824 L 216.4671401977539 354.5831718444824 L 216.4671401977539 346.5831718444824 Z" stroke-miterlimit="10" stroke-width="0.5"/><text fill="#505050" stroke="none" font-family="monospace" font-size="14px" font-style="normal" font-weight="normal" text-decoration="normal" x="208.4671401977539" y="360.5831718444824" text-anchor="end" dominant-baseline="text-after-edge">acc</text><path fill="white" stroke="#505050" paint-order="fill stroke markers" d=" M 218.15250396728516 313.6577568054199 L 226.15250396728516 313.6577568054199 L 234.15250396728516 321.6577568054199 L 226.15250396728516 329.6577568054199 L 218.15250396728516 329.6577568054199 L 218.15250396728516 313.6577568054199" stroke-miterlimit="10" stroke-width="0.5"/><path fill="none" stroke="none"/><path fill="none" stroke="#505050" paint-order="fill stroke markers" d=" M 218.15250396728516 317.6577568054199 L 226.15250396728516 317.6577568054199 L 226.15250396728516 325.6577568054199 L 218.15250396728516 325.6577568054199 L 218.15250396728516 317.6577568054199 Z" stroke-miterlimit="10" stroke-width="0.5"/><path fill="none" stroke="none"/><path fill="none" stroke="#e0e0e0" paint-order="fill stroke markers" d=" M 321.0523452758789 336.0256462097168 C 339.1681690262732 336.0256462097168 359.0728893233362 358.27843856811523 377.18871307373047 358.27843856811523" stroke-miterlimit="10" stroke-width="2"/><path fill="none" stroke="none"/><path fill="none" stroke="#e0e0e0" paint-order="fill stroke markers" d=" M 442.18871307373047 336.27843856811523 C 454.1303242516257 336.27843856811523 465.61929579856616 318.0226058959961 477.5609069764614 318.0226058959961" stroke-miterlimit="10" stroke-width="2"/><path fill="none" stroke="none"/><path fill="none" stroke="#e0e0e0" paint-order="fill stroke markers" d=" M 828.7192230224609 179.02929306030273 C 921.7845108908167 179.02929306030273 475.2772261697301 347.66779708862305 568.3425140380859 347.66779708862305" stroke-miterlimit="10" stroke-width="2"/><path fill="none" stroke="none"/><path fill="none" stroke="#e0e0e0" paint-order="fill stroke markers" d=" M 828.7192230224609 179.02929306030273 C 885.5716521680162 179.02929306030273 871.8945953905776 339.98816299438477 928.7470245361328 339.98816299438477" stroke-miterlimit="10" stroke-width="2"/><path fill="none" stroke="#505050" paint-order="fill stroke markers" d=" M 511.92914962768555 186.05529022216797 C 519.5318932456322 186.05529022216797 523.0791335182838 169.0089874267578 530.6818771362305 169.0089874267578" stroke-miterlimit="10"/><path fill="none" stroke="#505050" paint-order="fill stroke markers" d=" M 408.5030212402344 182.90429496765137 C 445.970895215979 182.90429496765137 493.21400316048585 157.0089874267578 530.6818771362305 157.0089874267578" stroke-miterlimit="10"/><path fill="none" stroke="#505050" paint-order="fill stroke markers" d=" M 692.5844573974609 208.50643920898438 C 697.3779323076707 208.50643920898438 703.7673618817824 208.75090789794922 708.5608367919922 208.75090789794922" stroke-miterlimit="10"/><path fill="none" stroke="#505050" paint-order="fill stroke markers" d=" M 424.3006286621094 240.605131149292 C 497.83340486387027 240.605131149292 595.0516811957 220.50643920898438 668.5844573974609 220.50643920898438" stroke-miterlimit="10"/><path fill="none" stroke="#505050" paint-order="fill stroke markers" d=" M 555.6818771362305 157.0089874267578 C 592.9096653497891 157.0089874267578 631.3566691839023 208.50643920898438 668.5844573974609 208.50643920898438" stroke-miterlimit="10"/><path fill="none" stroke="#505050" paint-order="fill stroke markers" d=" M 661.3425140380859 274.66779708862305 C 674.1761544323303 274.66779708862305 655.7508170032165 232.50643920898438 668.5844573974609 232.50643920898438" stroke-miterlimit="10"/><path fill="none" stroke="#505050" paint-order="fill stroke markers" d=" M 438.18871307373047 336.27843856811523 C 478.49956491194143 336.27843856811523 532.031662199875 328.66779708862305 572.3425140380859 328.66779708862305" stroke-miterlimit="10"/><path fill="none" stroke="#505050" paint-order="fill stroke markers" d=" M 408.5030212402344 182.90429496765137 C 448.64922066471956 182.90429496765137 441.4147075519762 295.0226058959961 481.5609069764614 295.0226058959961" stroke-miterlimit="10"/><path fill="none" stroke="#505050" paint-order="fill stroke markers" d=" M 424.3006286621094 240.605131149292 C 451.06575763810656 240.605131149292 454.7957780004642 309.0226058959961 481.5609069764614 309.0226058959961" stroke-miterlimit="10"/><path fill="none" stroke="#505050" paint-order="fill stroke markers" d=" M 538.5609069764614 295.0226058959961 C 548.9516785148701 295.0226058959961 561.9517424996773 302.66779708862305 572.3425140380859 302.66779708862305" stroke-miterlimit="10"/><path fill="none" stroke="#505050" paint-order="fill stroke markers" d=" M 408.5030212402344 182.90429496765137 C 445.17294686932377 182.90429496765137 465.5476914058227 261.3804168701172 502.2176170349121 261.3804168701172" stroke-miterlimit="10"/><path fill="none" stroke="#505050" paint-order="fill stroke markers" d=" M 527.2176170349121 261.3804168701172 C 543.0377678049355 261.3804168701172 556.5223632680626 288.66779708862305 572.3425140380859 288.66779708862305" stroke-miterlimit="10"/><path fill="none" stroke="#505050" paint-order="fill stroke markers" d=" M 511.92914962768555 186.05529022216797 C 544.1032943331587 186.05529022216797 540.1683693326128 274.66779708862305 572.3425140380859 274.66779708862305" stroke-miterlimit="10"/><path fill="none" stroke="#505050" paint-order="fill stroke markers" d=" M 224.6538963317871 207.8890838623047 C 227.67510766102575 207.8890838623047 231.70270758555628 208.0062713623047 234.72391891479492 208.0062713623047" stroke-miterlimit="10"/><path fill="none" stroke="#505050" paint-order="fill stroke markers" d=" M 894.5156402587891 287.40166091918945 C 906.2086911085416 287.40166091918945 921.0539736863802 294.98816299438477 932.7470245361328 294.98816299438477" stroke-miterlimit="10"/><path fill="none" stroke="#505050" paint-order="fill stroke markers" d=" M 894.5156402587891 287.40166091918945 C 906.1453200886642 287.40166091918945 921.1173447062577 280.98816299438477 932.7470245361328 280.98816299438477" stroke-miterlimit="10"/><path fill="none" stroke="#505050" paint-order="fill stroke markers" d=" M 895.965217590332 332.24073791503906 C 907.5045832058621 332.24073791503906 921.2076589206027 320.98816299438477 932.7470245361328 320.98816299438477" stroke-miterlimit="10"/></g></g></svg>