<svg version="1.1" xmlns="http://www.w3.org/2000/svg" xmlns:xlink="http://www.w3.org/1999/xlink" width="696.8924293518066" height="340.14289474487305"><defs/><g transform="translate(-356.9099540710449,-19.683120727539062)"><g><path fill="white" stroke="#505050" paint-order="fill stroke markers" d=" M 359.3748474121094 131.02929306030273 L 359.3748474121094 350.8260154724121 Q 359.3748474121094 358.8260154724121 367.3748474121094 358.8260154724121 L 779.7447967529297 358.8260154724121 Q 787.7447967529297 358.8260154724121 787.7447967529297 350.8260154724121 L 787.7447967529297 131.02929306030273 Q 787.7447967529297 123.02929306030273 779.7447967529297 123.02929306030273 L 367.3748474121094 123.02929306030273 Q 359.3748474121094 123.02929306030273 359.3748474121094 131.02929306030273" stroke-miterlimit="10" stroke-width="0.5" stroke-dasharray=""/><path fill="#F0F0F0" stroke="#505050" paint-order="fill stroke markers" d=" M 672.7447967529297 131.02929306030273 L 787.7447967529297 131.02929306030273 L 787.7447967529297 209.02929306030273 L 672.7447967529297 209.02929306030273 L 672.7447967529297 131.02929306030273 Z" stroke-miterlimit="10" stroke-width="0.5" stroke-dasharray=""/><text fill="#505050" stroke="none" font-family="monospace" font-size="14px" font-style="normal" font-weight="normal" text-decoration="normal" x="730.2447967529297" y="149.02929306030273" text-anchor="middle" dominant-baseline="text-after-edge">reduce</text><path fill="none" stroke="#505050" paint-order="fill stroke markers" d=" M 672.7447967529297 149.02929306030273 L 680.7447967529297 149.02929306030273 L 680.7447967529297 157.02929306030273 L 672.7447967529297 157.02929306030273 L 672.7447967529297 149.02929306030273 Z" stroke-miterlimit="10" stroke-width="0.5" stroke-dasharray=""/><text fill="#505050" stroke="none" font-family="monospace" font-size="14px" font-style="normal" font-weight="normal" text-decoration="normal" x="688.7447967529297" y="163.02929306030273" text-anchor="start" dominant-baseline="text-after-edge">n</text><path fill="none" stroke="#505050" paint-order="fill stroke markers" d=" M 672.7447967529297 163.02929306030273 L 680.7447967529297 163.02929306030273 L 680.7447967529297 171.02929306030273 L 672.7447967529297 171.02929306030273 L 672.7447967529297 163.02929306030273 Z" stroke-miterlimit="10" stroke-width="0.5" stroke-dasharray=""/><text fill="#505050" stroke="none" font-family="monospace" font-size="14px" font-style="normal" font-weight="normal" text-decoration="normal" x="688.7447967529297" y="177.02929306030273" text-anchor="start" dominant-baseline="text-after-edge">acc</text><path fill="none" stroke="#505050" paint-order="fill stroke markers" d=" M 672.7447967529297 177.02929306030273 L 696.7447967529297 177.02929306030273 L 696.7447967529297 205.02929306030273 L 672.7447967529297 205.02929306030273 L 672.7447967529297 177.02929306030273 Z" stroke-miterlimit="10" stroke-width="0.5" stroke-dasharray=""/><path fill="none" stroke="#505050" paint-order="fill stroke markers" d=" M 672.7447967529297 181.02929306030273 L 680.7447967529297 181.02929306030273 L 680.7447967529297 189.02929306030273 L 672.7447967529297 189.02929306030273 L 672.7447967529297 181.02929306030273 Z" stroke-miterlimit="10" stroke-width="0.5" stroke-dasharray=""/><path fill="none" stroke="#505050" paint-order="fill stroke markers" d=" M 672.7447967529297 193.02929306030273 L 680.7447967529297 193.02929306030273 L 680.7447967529297 201.02929306030273 L 672.7447967529297 201.02929306030273 L 672.7447967529297 193.02929306030273 Z" stroke-miterlimit="10" stroke-width="0.5" stroke-dasharray=""/><path fill="none" stroke="#505050" paint-order="fill stroke markers" d=" M 688.7447967529297 181.02929306030273 L 696.7447967529297 181.02929306030273 L 696.7447967529297 189.02929306030273 L 688.7447967529297 189.02929306030273 L 688.7447967529297 181.02929306030273 Z" stroke-miterlimit="10" stroke-width="0.5" stroke-dasharray=""/><text fill="#505050" stroke="none" font-family="monospace" font-size="14px" font-style="normal" font-weight="normal" text-decoration="normal" x="704.7447967529297" y="200.02929306030273" text-anchor="start" dominant-baseline="text-after-edge">callback</text><path fill="none" stroke="#505050" paint-order="fill stroke markers" d=" M 779.7447967529297 149.02929306030273 L 787.7447967529297 149.02929306030273 L 787.7447967529297 157.02929306030273 L 779.7447967529297 157.02929306030273 L 779.7447967529297 149.02929306030273 Z" stroke-miterlimit="10" stroke-width="0.5" stroke-dasharray=""/><path fill="white" stroke="#505050" paint-order="fill stroke markers" d=" M 710.9459686279297 218.4204864501953 L 734.9459686279297 218.4204864501953 L 734.9459686279297 272.4204864501953 L 710.9459686279297 272.4204864501953 L 710.9459686279297 218.4204864501953 Z" stroke-miterlimit="10" stroke-width="0.5" stroke-dasharray=""/><path fill="#F0F0F0" stroke="none" paint-order="stroke fill markers" d=""/><text fill="#505050" stroke="none" font-family="monospace" font-size="14px" font-style="normal" font-weight="normal" text-decoration="normal" x="722.9459686279297" y="236.4204864501953" text-anchor="middle" dominant-baseline="text-after-edge">?</text><path fill="none" stroke="#505050" paint-order="fill stroke markers" d=" M 710.9459686279297 236.4204864501953 L 718.9459686279297 236.4204864501953 L 718.9459686279297 244.4204864501953 L 710.9459686279297 244.4204864501953 L 710.9459686279297 236.4204864501953 Z" stroke-miterlimit="10" stroke-width="0.5" stroke-dasharray=""/><path fill="none" stroke="#505050" paint-order="fill stroke markers" d=" M 710.9459686279297 248.4204864501953 L 718.9459686279297 248.4204864501953 L 718.9459686279297 256.4204864501953 L 710.9459686279297 256.4204864501953 L 710.9459686279297 248.4204864501953 Z" stroke-miterlimit="10" stroke-width="0.5" stroke-dasharray=""/><path fill="none" stroke="#505050" paint-order="fill stroke markers" d=" M 710.9459686279297 260.4204864501953 L 718.9459686279297 260.4204864501953 L 718.9459686279297 268.4204864501953 L 710.9459686279297 268.4204864501953 L 710.9459686279297 260.4204864501953 Z" stroke-miterlimit="10" stroke-width="0.5" stroke-dasharray=""/><path fill="none" stroke="#505050" paint-order="fill stroke markers" d=" M 726.9459686279297 236.4204864501953 L 734.9459686279297 236.4204864501953 L 734.9459686279297 244.4204864501953 L 726.9459686279297 244.4204864501953 L 726.9459686279297 236.4204864501953 Z" stroke-miterlimit="10" stroke-width="0.5" stroke-dasharray=""/><path fill="white" stroke="#505050" paint-order="fill stroke markers" d=" M 755.7447967529297 233.61310577392578 L 763.7447967529297 233.61310577392578 L 771.7447967529297 241.61310577392578 L 763.7447967529297 249.61310577392578 L 755.7447967529297 249.61310577392578 L 755.7447967529297 233.61310577392578" stroke-miterlimit="10" stroke-width="0.5" stroke-dasharray=""/><path fill="none" stroke="#505050" paint-order="fill stroke markers" d=" M 755.7447967529297 237.61310577392578 L 763.7447967529297 237.61310577392578 L 763.7447967529297 245.61310577392578 L 755.7447967529297 245.61310577392578 L 755.7447967529297 237.61310577392578 Z" stroke-miterlimit="10" stroke-width="0.5" stroke-dasharray=""/><path fill="white" stroke="#505050" paint-order="fill stroke markers" d=" M 372.8432312011719 225.57032585144043 L 421.8432312011719 225.57032585144043 L 421.8432312011719 243.57032585144043 L 372.8432312011719 243.57032585144043 L 380.8432312011719 234.57032585144043 L 372.8432312011719 225.57032585144043" stroke-miterlimit="10" stroke-width="0.5" stroke-dasharray=""/><path fill="none" stroke="#505050" paint-order="fill stroke markers" d=" M 413.8432312011719 229.57032585144043 L 421.8432312011719 229.57032585144043 L 421.8432312011719 237.57032585144043 L 413.8432312011719 237.57032585144043 L 413.8432312011719 229.57032585144043 Z" stroke-miterlimit="10" stroke-width="0.5" stroke-dasharray=""/><text fill="#505050" stroke="none" font-family="monospace" font-size="14px" font-style="normal" font-weight="normal" text-decoration="normal" x="405.8432312011719" y="243.57032585144043" text-anchor="end" dominant-baseline="text-after-edge">acc</text><path fill="white" stroke="#505050" paint-order="fill stroke markers" d=" M 376.5030212402344 174.90429496765137 L 408.5030212402344 174.90429496765137 L 408.5030212402344 192.90429496765137 L 376.5030212402344 192.90429496765137 L 384.5030212402344 183.90429496765137 L 376.5030212402344 174.90429496765137" stroke-miterlimit="10" stroke-width="0.5" stroke-dasharray=""/><path fill="none" stroke="#505050" paint-order="fill stroke markers" d=" M 400.5030212402344 178.90429496765137 L 408.5030212402344 178.90429496765137 L 408.5030212402344 186.90429496765137 L 400.5030212402344 186.90429496765137 L 400.5030212402344 178.90429496765137 Z" stroke-miterlimit="10" stroke-width="0.5" stroke-dasharray=""/><text fill="#505050" stroke="none" font-family="monospace" font-size="14px" font-style="normal" font-weight="normal" text-decoration="normal" x="392.5030212402344" y="192.90429496765137" text-anchor="end" dominant-baseline="text-after-edge">n</text><path fill="white" stroke="#505050" paint-order="fill stroke markers" d=" M 530.6818771362305 135.0089874267578 L 555.6818771362305 135.0089874267578 L 555.6818771362305 177.0089874267578 L 530.6818771362305 177.0089874267578 L 530.6818771362305 135.0089874267578 Z" stroke-miterlimit="10" stroke-width="0.5" stroke-dasharray=""/><path fill="#F0F0F0" stroke="none" paint-order="stroke fill markers" d=""/><text fill="#505050" stroke="none" font-family="monospace" font-size="14px" font-style="normal" font-weight="normal" text-decoration="normal" x="543.1818771362305" y="153.0089874267578" text-anchor="middle" dominant-baseline="text-after-edge">&lt;=</text><path fill="none" stroke="#505050" paint-order="fill stroke markers" d=" M 530.6818771362305 153.0089874267578 L 538.6818771362305 153.0089874267578 L 538.6818771362305 161.0089874267578 L 530.6818771362305 161.0089874267578 L 530.6818771362305 153.0089874267578 Z" stroke-miterlimit="10" stroke-width="0.5" stroke-dasharray=""/><path fill="none" stroke="#505050" paint-order="fill stroke markers" d=" M 530.6818771362305 165.0089874267578 L 538.6818771362305 165.0089874267578 L 538.6818771362305 173.0089874267578 L 530.6818771362305 173.0089874267578 L 530.6818771362305 165.0089874267578 Z" stroke-miterlimit="10" stroke-width="0.5" stroke-dasharray=""/><path fill="none" stroke="#505050" paint-order="fill stroke markers" d=" M 547.6818771362305 153.0089874267578 L 555.6818771362305 153.0089874267578 L 555.6818771362305 161.0089874267578 L 547.6818771362305 161.0089874267578 L 547.6818771362305 153.0089874267578 Z" stroke-miterlimit="10" stroke-width="0.5" stroke-dasharray=""/><path fill="white" stroke="#505050" paint-order="fill stroke markers" d=" M 463.20612716674805 180.80742645263672 L 495.20612716674805 180.80742645263672 L 495.20612716674805 198.80742645263672 L 463.20612716674805 198.80742645263672 L 463.20612716674805 180.80742645263672 Z" stroke-miterlimit="10" stroke-width="0.5" stroke-dasharray=""/><path fill="#F0F0F0" stroke="none" paint-order="stroke fill markers" d=""/><path fill="none" stroke="#505050" paint-order="fill stroke markers" d=" M 487.20612716674805 184.80742645263672 L 495.20612716674805 184.80742645263672 L 495.20612716674805 192.80742645263672 L 487.20612716674805 192.80742645263672 L 487.20612716674805 184.80742645263672 Z" stroke-miterlimit="10" stroke-width="0.5" stroke-dasharray=""/><text fill="#505050" stroke="none" font-family="monospace" font-size="14px" font-style="normal" font-weight="normal" text-decoration="normal" x="479.20612716674805" y="198.80742645263672" text-anchor="end" dominant-baseline="text-after-edge">1</text><path fill="white" stroke="#505050" paint-order="fill stroke markers" d=" M 580.8581390380859 258.7473258972168 L 695.8581390380859 258.7473258972168 L 695.8581390380859 336.7473258972168 L 580.8581390380859 336.7473258972168 L 580.8581390380859 258.7473258972168 Z" stroke-miterlimit="10" stroke-width="0.5" stroke-dasharray=""/><path fill="#F0F0F0" stroke="none" paint-order="stroke fill markers" d=""/><text fill="#505050" stroke="none" font-family="monospace" font-size="14px" font-style="normal" font-weight="normal" text-decoration="normal" x="638.3581390380859" y="276.7473258972168" text-anchor="middle" dominant-baseline="text-after-edge">reduce</text><path fill="none" stroke="#505050" paint-order="fill stroke markers" d=" M 580.8581390380859 276.7473258972168 L 588.8581390380859 276.7473258972168 L 588.8581390380859 284.7473258972168 L 580.8581390380859 284.7473258972168 L 580.8581390380859 276.7473258972168 Z" stroke-miterlimit="10" stroke-width="0.5" stroke-dasharray=""/><text fill="#505050" stroke="none" font-family="monospace" font-size="14px" font-style="normal" font-weight="normal" text-decoration="normal" x="596.8581390380859" y="290.7473258972168" text-anchor="start" dominant-baseline="text-after-edge">n</text><path fill="none" stroke="#505050" paint-order="fill stroke markers" d=" M 580.8581390380859 290.7473258972168 L 588.8581390380859 290.7473258972168 L 588.8581390380859 298.7473258972168 L 580.8581390380859 298.7473258972168 L 580.8581390380859 290.7473258972168 Z" stroke-miterlimit="10" stroke-width="0.5" stroke-dasharray=""/><text fill="#505050" stroke="none" font-family="monospace" font-size="14px" font-style="normal" font-weight="normal" text-decoration="normal" x="596.8581390380859" y="304.7473258972168" text-anchor="start" dominant-baseline="text-after-edge">acc</text><path fill="none" stroke="#505050" paint-order="fill stroke markers" d=" M 580.8581390380859 304.7473258972168 L 604.8581390380859 304.7473258972168 L 604.8581390380859 332.7473258972168 L 580.8581390380859 332.7473258972168 L 580.8581390380859 304.7473258972168 Z" stroke-miterlimit="10" stroke-width="0.5" stroke-dasharray=""/><path fill="none" stroke="#505050" paint-order="fill stroke markers" d=" M 580.8581390380859 308.7473258972168 L 588.8581390380859 308.7473258972168 L 588.8581390380859 316.7473258972168 L 580.8581390380859 316.7473258972168 L 580.8581390380859 308.7473258972168 Z" stroke-miterlimit="10" stroke-width="0.5" stroke-dasharray=""/><path fill="none" stroke="#505050" paint-order="fill stroke markers" d=" M 580.8581390380859 320.7473258972168 L 588.8581390380859 320.7473258972168 L 588.8581390380859 328.7473258972168 L 580.8581390380859 328.7473258972168 L 580.8581390380859 320.7473258972168 Z" stroke-miterlimit="10" stroke-width="0.5" stroke-dasharray=""/><path fill="none" stroke="#505050" paint-order="fill stroke markers" d=" M 596.8581390380859 308.7473258972168 L 604.8581390380859 308.7473258972168 L 604.8581390380859 316.7473258972168 L 596.8581390380859 316.7473258972168 L 596.8581390380859 308.7473258972168 Z" stroke-miterlimit="10" stroke-width="0.5" stroke-dasharray=""/><text fill="#505050" stroke="none" font-family="monospace" font-size="14px" font-style="normal" font-weight="normal" text-decoration="normal" x="612.8581390380859" y="327.7473258972168" text-anchor="start" dominant-baseline="text-after-edge">callback</text><path fill="none" stroke="#505050" paint-order="fill stroke markers" d=" M 687.8581390380859 276.7473258972168 L 695.8581390380859 276.7473258972168 L 695.8581390380859 284.7473258972168 L 687.8581390380859 284.7473258972168 L 687.8581390380859 276.7473258972168 Z" stroke-miterlimit="10" stroke-width="0.5" stroke-dasharray=""/><path fill="#e0e0e0" stroke="none" paint-order="stroke fill markers" d=" M 795.7447967529297 170.02929306030273 L 787.7447967529297 131.02929306030273 L 787.7447967529297 209.02929306030273 Z M 572.8581390380859 297.7473258972168 L 580.8581390380859 258.7473258972168 L 580.8581390380859 336.7473258972168 Z"/><path fill="none" stroke="none"/><path fill="none" stroke="#e0e0e0" paint-order="fill stroke markers" d=" M 795.7447967529297 170.02929306030273 C 872.8105623620005 170.02929306030273 495.7923734290151 297.7473258972168 572.8581390380859 297.7473258972168" stroke-miterlimit="10" stroke-width="2" stroke-dasharray=""/><path fill="white" stroke="#505050" paint-order="fill stroke markers" d=" M 502.61535263061523 204.41592407226562 L 527.6153526306152 204.41592407226562 L 527.6153526306152 234.41592407226562 L 502.61535263061523 234.41592407226562 L 502.61535263061523 204.41592407226562 Z" stroke-miterlimit="10" stroke-width="0.5" stroke-dasharray=""/><path fill="#F0F0F0" stroke="none" paint-order="stroke fill markers" d=""/><text fill="#505050" stroke="none" font-family="monospace" font-size="14px" font-style="normal" font-weight="normal" text-decoration="normal" x="515.1153526306152" y="222.41592407226562" text-anchor="middle" dominant-baseline="text-after-edge">-1</text><path fill="none" stroke="#505050" paint-order="fill stroke markers" d=" M 502.61535263061523 222.41592407226562 L 510.61535263061523 222.41592407226562 L 510.61535263061523 230.41592407226562 L 502.61535263061523 230.41592407226562 L 502.61535263061523 222.41592407226562 Z" stroke-miterlimit="10" stroke-width="0.5" stroke-dasharray=""/><path fill="none" stroke="#505050" paint-order="fill stroke markers" d=" M 519.6153526306152 222.41592407226562 L 527.6153526306152 222.41592407226562 L 527.6153526306152 230.41592407226562 L 519.6153526306152 230.41592407226562 L 519.6153526306152 222.41592407226562 Z" stroke-miterlimit="10" stroke-width="0.5" stroke-dasharray=""/><path fill="none" stroke="none"/><path fill="white" stroke="#505050" paint-order="fill stroke markers" d=" M 363.0083236694336 292.8260154724121 L 454.0083236694336 292.8260154724121 L 454.0083236694336 342.8260154724121 L 363.0083236694336 342.8260154724121 L 371.0083236694336 317.8260154724121 L 363.0083236694336 292.8260154724121" stroke-miterlimit="10" stroke-width="0.5" stroke-dasharray="6,3"/><path fill="#F0F0F0" stroke="none" paint-order="stroke fill markers" d=" M 379.0083236694336 296.8260154724121 L 454.0083236694336 296.8260154724121 L 454.0083236694336 338.8260154724121 L 379.0083236694336 338.8260154724121 L 379.0083236694336 296.8260154724121 Z"/><path fill="none" stroke="#505050" paint-order="fill stroke markers" d=" M 379.0083236694336 296.8260154724121 L 454.0083236694336 296.8260154724121 L 454.0083236694336 338.8260154724121 L 379.0083236694336 338.8260154724121 L 379.0083236694336 296.8260154724121 Z" stroke-miterlimit="10" stroke-width="0.5" stroke-dasharray="0"/><text fill="#505050" stroke="none" font-family="monospace" font-size="14px" font-style="normal" font-weight="normal" text-decoration="normal" x="416.5083236694336" y="314.8260154724121" text-anchor="middle" dominant-baseline="text-after-edge">callback</text><path fill="none" stroke="#505050" paint-order="fill stroke markers" d=" M 379.0083236694336 314.8260154724121 L 387.0083236694336 314.8260154724121 L 387.0083236694336 322.8260154724121 L 379.0083236694336 322.8260154724121 L 379.0083236694336 314.8260154724121 Z" stroke-miterlimit="10" stroke-width="0.5" stroke-dasharray="0"/><path fill="none" stroke="#505050" paint-order="fill stroke markers" d=" M 379.0083236694336 326.8260154724121 L 387.0083236694336 326.8260154724121 L 387.0083236694336 334.8260154724121 L 379.0083236694336 334.8260154724121 L 379.0083236694336 326.8260154724121 Z" stroke-miterlimit="10" stroke-width="0.5" stroke-dasharray="0"/><path fill="none" stroke="#505050" paint-order="fill stroke markers" d=" M 446.0083236694336 314.8260154724121 L 454.0083236694336 314.8260154724121 L 454.0083236694336 322.8260154724121 L 446.0083236694336 322.8260154724121 L 446.0083236694336 314.8260154724121 Z" stroke-miterlimit="10" stroke-width="0.5" stroke-dasharray="0"/><path fill="none" stroke="#505050" paint-order="fill stroke markers" d=" M 379.0083236694336 296.8260154724121 L 454.0083236694336 296.8260154724121 L 454.0083236694336 338.8260154724121 L 379.0083236694336 338.8260154724121 L 379.0083236694336 296.8260154724121 Z" stroke-miterlimit="10" stroke-width="0.5" stroke-dasharray="6,3"/><path fill="#F0F0F0" stroke="none" paint-order="stroke fill markers" d=""/><text fill="#505050" stroke="none" font-family="monospace" font-size="14px" font-style="normal" font-weight="normal" text-decoration="normal" x="416.5083236694336" y="314.8260154724121" text-anchor="middle" dominant-baseline="text-after-edge">callback</text><path fill="none" stroke="#505050" paint-order="fill stroke markers" d=" M 379.0083236694336 314.8260154724121 L 387.0083236694336 314.8260154724121 L 387.0083236694336 322.8260154724121 L 379.0083236694336 322.8260154724121 L 379.0083236694336 314.8260154724121 Z" stroke-miterlimit="10" stroke-width="0.5" stroke-dasharray="0"/><path fill="none" stroke="#505050" paint-order="fill stroke markers" d=" M 379.0083236694336 326.8260154724121 L 387.0083236694336 326.8260154724121 L 387.0083236694336 334.8260154724121 L 379.0083236694336 334.8260154724121 L 379.0083236694336 326.8260154724121 Z" stroke-miterlimit="10" stroke-width="0.5" stroke-dasharray="0"/><path fill="none" stroke="#505050" paint-order="fill stroke markers" d=" M 446.0083236694336 314.8260154724121 L 454.0083236694336 314.8260154724121 L 454.0083236694336 322.8260154724121 L 446.0083236694336 322.8260154724121 L 446.0083236694336 314.8260154724121 Z" stroke-miterlimit="10" stroke-width="0.5" stroke-dasharray="0"/><path fill="white" stroke="#505050" paint-order="fill stroke markers" d=" M 480.86492308974266 263.8855209350586 L 555.8649230897427 263.8855209350586 L 555.8649230897427 305.8855209350586 L 480.86492308974266 305.8855209350586 L 480.86492308974266 263.8855209350586 Z" stroke-miterlimit="10" stroke-width="0.5" stroke-dasharray="0"/><path fill="#F0F0F0" stroke="none" paint-order="stroke fill markers" d=""/><text fill="#505050" stroke="none" font-family="monospace" font-size="14px" font-style="normal" font-weight="normal" text-decoration="normal" x="518.3649230897427" y="281.8855209350586" text-anchor="middle" dominant-baseline="text-after-edge">callback</text><path fill="none" stroke="#505050" paint-order="fill stroke markers" d=" M 480.86492308974266 281.8855209350586 L 488.86492308974266 281.8855209350586 L 488.86492308974266 289.8855209350586 L 480.86492308974266 289.8855209350586 L 480.86492308974266 281.8855209350586 Z" stroke-miterlimit="10" stroke-width="0.5" stroke-dasharray="0"/><path fill="none" stroke="#505050" paint-order="fill stroke markers" d=" M 480.86492308974266 293.8855209350586 L 488.86492308974266 293.8855209350586 L 488.86492308974266 301.8855209350586 L 480.86492308974266 301.8855209350586 L 480.86492308974266 293.8855209350586 Z" stroke-miterlimit="10" stroke-width="0.5" stroke-dasharray="0"/><path fill="none" stroke="#505050" paint-order="fill stroke markers" d=" M 547.8649230897427 281.8855209350586 L 555.8649230897427 281.8855209350586 L 555.8649230897427 289.8855209350586 L 547.8649230897427 289.8855209350586 L 547.8649230897427 281.8855209350586 Z" stroke-miterlimit="10" stroke-width="0.5" stroke-dasharray="0"/><path fill="#e0e0e0" stroke="none" paint-order="stroke fill markers" d=" M 462.0083236694336 317.8260154724121 L 454.0083236694336 296.8260154724121 L 454.0083236694336 338.8260154724121 Z M 472.86492308974266 284.8855209350586 L 480.86492308974266 263.8855209350586 L 480.86492308974266 305.8855209350586 Z"/><path fill="none" stroke="none"/><path fill="none" stroke="#e0e0e0" paint-order="fill stroke markers" d=" M 462.0083236694336 317.8260154724121 C 472.4133596530553 317.8260154724121 462.45988710612096 284.8855209350586 472.86492308974266 284.8855209350586" stroke-miterlimit="10" stroke-width="2" stroke-dasharray="0"/><path fill="white" stroke="#505050" paint-order="fill stroke markers" d=" M 357.9099540710449 28.683120727539062 L 357.9099540710449 94.43312072753906 Q 357.9099540710449 102.43312072753906 365.9099540710449 102.43312072753906 L 501.8505668640137 102.43312072753906 Q 509.8505668640137 102.43312072753906 509.8505668640137 94.43312072753906 L 509.8505668640137 28.683120727539062 Q 509.8505668640137 20.683120727539062 501.8505668640137 20.683120727539062 L 365.9099540710449 20.683120727539062 Q 357.9099540710449 20.683120727539062 357.9099540710449 28.683120727539062" stroke-miterlimit="10" stroke-width="0.5" stroke-dasharray="0"/><path fill="#F0F0F0" stroke="#505050" paint-order="fill stroke markers" d=" M 484.8505668640137 28.683120727539062 L 509.8505668640137 28.683120727539062 L 509.8505668640137 58.68312072753906 L 484.8505668640137 58.68312072753906 L 484.8505668640137 28.683120727539062 Z" stroke-miterlimit="10" stroke-width="0.5" stroke-dasharray="0"/><text fill="#505050" stroke="none" font-family="monospace" font-size="14px" font-style="normal" font-weight="normal" text-decoration="normal" x="497.3505668640137" y="46.68312072753906" text-anchor="middle" dominant-baseline="text-after-edge">-1</text><path fill="none" stroke="#505050" paint-order="fill stroke markers" d=" M 484.8505668640137 46.68312072753906 L 492.8505668640137 46.68312072753906 L 492.8505668640137 54.68312072753906 L 484.8505668640137 54.68312072753906 L 484.8505668640137 46.68312072753906 Z" stroke-miterlimit="10" stroke-width="0.5" stroke-dasharray="0"/><path fill="none" stroke="#505050" paint-order="fill stroke markers" d=" M 501.8505668640137 46.68312072753906 L 509.8505668640137 46.68312072753906 L 509.8505668640137 54.68312072753906 L 501.8505668640137 54.68312072753906 L 501.8505668640137 46.68312072753906 Z" stroke-miterlimit="10" stroke-width="0.5" stroke-dasharray="0"/><path fill="white" stroke="#505050" paint-order="fill stroke markers" d=" M 424.3474540710449 28.683120727539062 L 448.3474540710449 28.683120727539062 L 448.3474540710449 70.68312072753906 L 424.3474540710449 70.68312072753906 L 424.3474540710449 28.683120727539062 Z" stroke-miterlimit="10" stroke-width="0.5" stroke-dasharray="0"/><path fill="#F0F0F0" stroke="none" paint-order="stroke fill markers" d=""/><text fill="#505050" stroke="none" font-family="monospace" font-size="14px" font-style="normal" font-weight="normal" text-decoration="normal" x="436.3474540710449" y="46.68312072753906" text-anchor="middle" dominant-baseline="text-after-edge">-</text><path fill="none" stroke="#505050" paint-order="fill stroke markers" d=" M 424.3474540710449 46.68312072753906 L 432.3474540710449 46.68312072753906 L 432.3474540710449 54.68312072753906 L 424.3474540710449 54.68312072753906 L 424.3474540710449 46.68312072753906 Z" stroke-miterlimit="10" stroke-width="0.5" stroke-dasharray="0"/><path fill="none" stroke="#505050" paint-order="fill stroke markers" d=" M 424.3474540710449 58.68312072753906 L 432.3474540710449 58.68312072753906 L 432.3474540710449 66.68312072753906 L 424.3474540710449 66.68312072753906 L 424.3474540710449 58.68312072753906 Z" stroke-miterlimit="10" stroke-width="0.5" stroke-dasharray="0"/><path fill="none" stroke="#505050" paint-order="fill stroke markers" d=" M 440.3474540710449 46.68312072753906 L 448.3474540710449 46.68312072753906 L 448.3474540710449 54.68312072753906 L 440.3474540710449 54.68312072753906 L 440.3474540710449 46.68312072753906 Z" stroke-miterlimit="10" stroke-width="0.5" stroke-dasharray="0"/><path fill="white" stroke="#505050" paint-order="fill stroke markers" d=" M 462.634090423584 43.06379699707031 L 470.634090423584 43.06379699707031 L 478.634090423584 51.06379699707031 L 470.634090423584 59.06379699707031 L 462.634090423584 59.06379699707031 L 462.634090423584 43.06379699707031" stroke-miterlimit="10" stroke-width="0.5" stroke-dasharray="0"/><path fill="none" stroke="#505050" paint-order="fill stroke markers" d=" M 462.634090423584 47.06379699707031 L 470.634090423584 47.06379699707031 L 470.634090423584 55.06379699707031 L 462.634090423584 55.06379699707031 L 462.634090423584 47.06379699707031 Z" stroke-miterlimit="10" stroke-width="0.5" stroke-dasharray="0"/><path fill="white" stroke="#505050" paint-order="fill stroke markers" d=" M 361.42870712280273 68.43312072753906 L 393.42870712280273 68.43312072753906 L 393.42870712280273 86.43312072753906 L 361.42870712280273 86.43312072753906 L 361.42870712280273 68.43312072753906 Z" stroke-miterlimit="10" stroke-width="0.5" stroke-dasharray="0"/><path fill="#F0F0F0" stroke="none" paint-order="stroke fill markers" d=""/><path fill="none" stroke="#505050" paint-order="fill stroke markers" d=" M 385.42870712280273 72.43312072753906 L 393.42870712280273 72.43312072753906 L 393.42870712280273 80.43312072753906 L 385.42870712280273 80.43312072753906 L 385.42870712280273 72.43312072753906 Z" stroke-miterlimit="10" stroke-width="0.5" stroke-dasharray="0"/><text fill="#505050" stroke="none" font-family="monospace" font-size="14px" font-style="normal" font-weight="normal" text-decoration="normal" x="377.42870712280273" y="86.43312072753906" text-anchor="end" dominant-baseline="text-after-edge">1</text><path fill="white" stroke="#505050" paint-order="fill stroke markers" d=" M 376.3474540710449 42.68312072753906 L 392.3474540710449 42.68312072753906 L 392.3474540710449 58.68312072753906 L 376.3474540710449 58.68312072753906 L 384.3474540710449 50.68312072753906 L 376.3474540710449 42.68312072753906" stroke-miterlimit="10" stroke-width="0.5" stroke-dasharray="0"/><path fill="none" stroke="#505050" paint-order="fill stroke markers" d=" M 384.3474540710449 46.68312072753906 L 392.3474540710449 46.68312072753906 L 392.3474540710449 54.68312072753906 L 384.3474540710449 54.68312072753906 L 384.3474540710449 46.68312072753906 Z" stroke-miterlimit="10" stroke-width="0.5" stroke-dasharray="0"/><path fill="white" stroke="#505050" paint-order="fill stroke markers" d=" M 845.8552398681641 166.03419876098633 L 845.8552398681641 307.5092239379883 Q 845.8552398681641 315.5092239379883 853.8552398681641 315.5092239379883 L 1044.8023834228516 315.5092239379883 Q 1052.8023834228516 315.5092239379883 1052.8023834228516 307.5092239379883 L 1052.8023834228516 166.03419876098633 Q 1052.8023834228516 158.03419876098633 1044.8023834228516 158.03419876098633 L 853.8552398681641 158.03419876098633 Q 845.8552398681641 158.03419876098633 845.8552398681641 166.03419876098633" stroke-miterlimit="10" stroke-width="0.5" stroke-dasharray="0"/><path fill="#F0F0F0" stroke="#505050" paint-order="fill stroke markers" d=" M 1027.8023834228516 166.03419876098633 L 1052.8023834228516 166.03419876098633 L 1052.8023834228516 196.03419876098633 L 1027.8023834228516 196.03419876098633 L 1027.8023834228516 166.03419876098633 Z" stroke-miterlimit="10" stroke-width="0.5" stroke-dasharray="0"/><text fill="#505050" stroke="none" font-family="monospace" font-size="14px" font-style="normal" font-weight="normal" text-decoration="normal" x="1040.3023834228516" y="184.03419876098633" text-anchor="middle" dominant-baseline="text-after-edge">n!</text><path fill="none" stroke="#505050" paint-order="fill stroke markers" d=" M 1027.8023834228516 184.03419876098633 L 1035.8023834228516 184.03419876098633 L 1035.8023834228516 192.03419876098633 L 1027.8023834228516 192.03419876098633 L 1027.8023834228516 184.03419876098633 Z" stroke-miterlimit="10" stroke-width="0.5" stroke-dasharray="0"/><path fill="none" stroke="#505050" paint-order="fill stroke markers" d=" M 1044.8023834228516 184.03419876098633 L 1052.8023834228516 184.03419876098633 L 1052.8023834228516 192.03419876098633 L 1044.8023834228516 192.03419876098633 L 1044.8023834228516 184.03419876098633 Z" stroke-miterlimit="10" stroke-width="0.5" stroke-dasharray="0"/><path fill="white" stroke="#505050" paint-order="fill stroke markers" d=" M 913.2583770751953 175.0591926574707 L 1028.2583770751953 175.0591926574707 L 1028.2583770751953 253.0591926574707 L 913.2583770751953 253.0591926574707 L 913.2583770751953 175.0591926574707 Z" stroke-miterlimit="10" stroke-width="0.5" stroke-dasharray="0"/><path fill="#F0F0F0" stroke="none" paint-order="stroke fill markers" d=""/><text fill="#505050" stroke="none" font-family="monospace" font-size="14px" font-style="normal" font-weight="normal" text-decoration="normal" x="970.7583770751953" y="193.0591926574707" text-anchor="middle" dominant-baseline="text-after-edge">reduce</text><path fill="none" stroke="#505050" paint-order="fill stroke markers" d=" M 913.2583770751953 193.0591926574707 L 921.2583770751953 193.0591926574707 L 921.2583770751953 201.0591926574707 L 913.2583770751953 201.0591926574707 L 913.2583770751953 193.0591926574707 Z" stroke-miterlimit="10" stroke-width="0.5" stroke-dasharray="0"/><text fill="#505050" stroke="none" font-family="monospace" font-size="14px" font-style="normal" font-weight="normal" text-decoration="normal" x="929.2583770751953" y="207.0591926574707" text-anchor="start" dominant-baseline="text-after-edge">n</text><path fill="none" stroke="#505050" paint-order="fill stroke markers" d=" M 913.2583770751953 207.0591926574707 L 921.2583770751953 207.0591926574707 L 921.2583770751953 215.0591926574707 L 913.2583770751953 215.0591926574707 L 913.2583770751953 207.0591926574707 Z" stroke-miterlimit="10" stroke-width="0.5" stroke-dasharray="0"/><text fill="#505050" stroke="none" font-family="monospace" font-size="14px" font-style="normal" font-weight="normal" text-decoration="normal" x="929.2583770751953" y="221.0591926574707" text-anchor="start" dominant-baseline="text-after-edge">acc</text><path fill="none" stroke="#505050" paint-order="fill stroke markers" d=" M 913.2583770751953 221.0591926574707 L 937.2583770751953 221.0591926574707 L 937.2583770751953 249.0591926574707 L 913.2583770751953 249.0591926574707 L 913.2583770751953 221.0591926574707 Z" stroke-miterlimit="10" stroke-width="0.5" stroke-dasharray="0"/><path fill="none" stroke="#505050" paint-order="fill stroke markers" d=" M 913.2583770751953 225.0591926574707 L 921.2583770751953 225.0591926574707 L 921.2583770751953 233.0591926574707 L 913.2583770751953 233.0591926574707 L 913.2583770751953 225.0591926574707 Z" stroke-miterlimit="10" stroke-width="0.5" stroke-dasharray="0"/><path fill="none" stroke="#505050" paint-order="fill stroke markers" d=" M 913.2583770751953 237.0591926574707 L 921.2583770751953 237.0591926574707 L 921.2583770751953 245.0591926574707 L 913.2583770751953 245.0591926574707 L 913.2583770751953 237.0591926574707 Z" stroke-miterlimit="10" stroke-width="0.5" stroke-dasharray="0"/><path fill="none" stroke="#505050" paint-order="fill stroke markers" d=" M 929.2583770751953 225.0591926574707 L 937.2583770751953 225.0591926574707 L 937.2583770751953 233.0591926574707 L 929.2583770751953 233.0591926574707 L 929.2583770751953 225.0591926574707 Z" stroke-miterlimit="10" stroke-width="0.5" stroke-dasharray="0"/><text fill="#505050" stroke="none" font-family="monospace" font-size="14px" font-style="normal" font-weight="normal" text-decoration="normal" x="945.2583770751953" y="244.0591926574707" text-anchor="start" dominant-baseline="text-after-edge">callback</text><path fill="none" stroke="#505050" paint-order="fill stroke markers" d=" M 1020.2583770751953 193.0591926574707 L 1028.2583770751953 193.0591926574707 L 1028.2583770751953 201.0591926574707 L 1020.2583770751953 201.0591926574707 L 1020.2583770751953 193.0591926574707 Z" stroke-miterlimit="10" stroke-width="0.5" stroke-dasharray="0"/><path fill="#e0e0e0" stroke="none" paint-order="stroke fill markers" d=" M 795.7447967529297 170.02929306030273 L 787.7447967529297 131.02929306030273 L 787.7447967529297 209.02929306030273 Z M 905.2583770751953 214.0591926574707 L 913.2583770751953 175.0591926574707 L 913.2583770751953 253.0591926574707 Z"/><path fill="none" stroke="none"/><path fill="none" stroke="#e0e0e0" paint-order="fill stroke markers" d=" M 795.7447967529297 170.02929306030273 C 831.1547822092726 170.02929306030273 869.8483916188524 214.0591926574707 905.2583770751953 214.0591926574707" stroke-miterlimit="10" stroke-width="2" stroke-dasharray="0"/><path fill="white" stroke="#505050" paint-order="fill stroke markers" d=" M 1012.8023834228516 210.15350723266602 L 1020.8023834228516 210.15350723266602 L 1028.8023834228516 218.15350723266602 L 1020.8023834228516 226.15350723266602 L 1012.8023834228516 226.15350723266602 L 1012.8023834228516 210.15350723266602" stroke-miterlimit="10" stroke-width="0.5" stroke-dasharray="0"/><path fill="none" stroke="#505050" paint-order="fill stroke markers" d=" M 1012.8023834228516 214.15350723266602 L 1020.8023834228516 214.15350723266602 L 1020.8023834228516 222.15350723266602 L 1012.8023834228516 222.15350723266602 L 1012.8023834228516 214.15350723266602 Z" stroke-miterlimit="10" stroke-width="0.5" stroke-dasharray="0"/><path fill="white" stroke="#505050" paint-order="fill stroke markers" d=" M 853.1583404541016 203.1154670715332 L 885.1583404541016 203.1154670715332 L 885.1583404541016 221.1154670715332 L 853.1583404541016 221.1154670715332 L 853.1583404541016 203.1154670715332 Z" stroke-miterlimit="10" stroke-width="0.5" stroke-dasharray="0"/><path fill="#F0F0F0" stroke="none" paint-order="stroke fill markers" d=""/><path fill="none" stroke="#505050" paint-order="fill stroke markers" d=" M 877.1583404541016 207.1154670715332 L 885.1583404541016 207.1154670715332 L 885.1583404541016 215.1154670715332 L 877.1583404541016 215.1154670715332 L 877.1583404541016 207.1154670715332 Z" stroke-miterlimit="10" stroke-width="0.5" stroke-dasharray="0"/><text fill="#505050" stroke="none" font-family="monospace" font-size="14px" font-style="normal" font-weight="normal" text-decoration="normal" x="869.1583404541016" y="221.1154670715332" text-anchor="end" dominant-baseline="text-after-edge">1</text><path fill="white" stroke="#505050" paint-order="fill stroke markers" d=" M 855.9458770751953 167.03419876098633 L 871.9458770751953 167.03419876098633 L 871.9458770751953 183.03419876098633 L 855.9458770751953 183.03419876098633 L 863.9458770751953 175.03419876098633 L 855.9458770751953 167.03419876098633" stroke-miterlimit="10" stroke-width="0.5" stroke-dasharray="0"/><path fill="none" stroke="#505050" paint-order="fill stroke markers" d=" M 863.9458770751953 171.03419876098633 L 871.9458770751953 171.03419876098633 L 871.9458770751953 179.03419876098633 L 863.9458770751953 179.03419876098633 L 863.9458770751953 171.03419876098633 Z" stroke-miterlimit="10" stroke-width="0.5" stroke-dasharray="0"/><path fill="none" stroke="none"/><path fill="white" stroke="#505050" paint-order="fill stroke markers" d=" M 855.1520278453827 241.50922393798828 L 887.1520278453827 241.50922393798828 L 895.1520278453827 266.5092239379883 L 887.1520278453827 291.5092239379883 L 855.1520278453827 291.5092239379883 L 855.1520278453827 241.50922393798828" stroke-miterlimit="10" stroke-width="0.5" stroke-dasharray="0"/><path fill="none" stroke="#505050" paint-order="fill stroke markers" d=" M 863.1520278453827 245.50922393798828 L 887.1520278453827 245.50922393798828 L 887.1520278453827 287.5092239379883 L 863.1520278453827 287.5092239379883 L 863.1520278453827 245.50922393798828 Z" stroke-miterlimit="10" stroke-width="0.5" stroke-dasharray="0"/><text fill="#505050" stroke="none" font-family="monospace" font-size="14px" font-style="normal" font-weight="normal" text-decoration="normal" x="875.1520278453827" y="263.5092239379883" text-anchor="middle" dominant-baseline="text-after-edge">*</text><path fill="none" stroke="#505050" paint-order="fill stroke markers" d=" M 863.1520278453827 263.5092239379883 L 871.1520278453827 263.5092239379883 L 871.1520278453827 271.5092239379883 L 863.1520278453827 271.5092239379883 L 863.1520278453827 263.5092239379883 Z" stroke-miterlimit="10" stroke-width="0.5" stroke-dasharray="0"/><path fill="none" stroke="#505050" paint-order="fill stroke markers" d=" M 863.1520278453827 275.5092239379883 L 871.1520278453827 275.5092239379883 L 871.1520278453827 283.5092239379883 L 863.1520278453827 283.5092239379883 L 863.1520278453827 275.5092239379883 Z" stroke-miterlimit="10" stroke-width="0.5" stroke-dasharray="0"/><path fill="none" stroke="#505050" paint-order="fill stroke markers" d=" M 879.1520278453827 263.5092239379883 L 887.1520278453827 263.5092239379883 L 887.1520278453827 271.5092239379883 L 879.1520278453827 271.5092239379883 L 879.1520278453827 263.5092239379883 Z" stroke-miterlimit="10" stroke-width="0.5" stroke-dasharray="0"/><path fill="none" stroke="#505050" paint-order="fill stroke markers" d=" M 863.1520278453827 245.50922393798828 L 887.1520278453827 245.50922393798828 L 887.1520278453827 287.5092239379883 L 863.1520278453827 287.5092239379883 L 863.1520278453827 245.50922393798828 Z" stroke-miterlimit="10" stroke-width="0.5" stroke-dasharray="0"/><path fill="#F0F0F0" stroke="none" paint-order="stroke fill markers" d=""/><text fill="#505050" stroke="none" font-family="monospace" font-size="14px" font-style="normal" font-weight="normal" text-decoration="normal" x="875.1520278453827" y="263.5092239379883" text-anchor="middle" dominant-baseline="text-after-edge">*</text><path fill="none" stroke="#505050" paint-order="fill stroke markers" d=" M 863.1520278453827 263.5092239379883 L 871.1520278453827 263.5092239379883 L 871.1520278453827 271.5092239379883 L 863.1520278453827 271.5092239379883 L 863.1520278453827 263.5092239379883 Z" stroke-miterlimit="10" stroke-width="0.5" stroke-dasharray="0"/><path fill="none" stroke="#505050" paint-order="fill stroke markers" d=" M 863.1520278453827 275.5092239379883 L 871.1520278453827 275.5092239379883 L 871.1520278453827 283.5092239379883 L 863.1520278453827 283.5092239379883 L 863.1520278453827 275.5092239379883 Z" stroke-miterlimit="10" stroke-width="0.5" stroke-dasharray="0"/><path fill="none" stroke="#505050" paint-order="fill stroke markers" d=" M 879.1520278453827 263.5092239379883 L 887.1520278453827 263.5092239379883 L 887.1520278453827 271.5092239379883 L 879.1520278453827 271.5092239379883 L 879.1520278453827 263.5092239379883 Z" stroke-miterlimit="10" stroke-width="0.5" stroke-dasharray="0"/><path fill="none" stroke="#505050" paint-order="fill stroke markers" d=" M 495.20612716674805 188.80742645263672 C 507.39405693920247 188.80742645263672 518.4939473637761 169.0089874267578 530.6818771362305 169.0089874267578" stroke-miterlimit="10" stroke-dasharray="0"/><path fill="none" stroke="#505050" paint-order="fill stroke markers" d=" M 408.5030212402344 182.90429496765137 C 445.970895215979 182.90429496765137 493.21400316048585 157.0089874267578 530.6818771362305 157.0089874267578" stroke-miterlimit="10" stroke-dasharray="0"/><path fill="none" stroke="#505050" paint-order="fill stroke markers" d=" M 734.9459686279297 240.4204864501953 C 741.1958664911125 240.4204864501953 749.4948988897469 241.61310577392578 755.7447967529297 241.61310577392578" stroke-miterlimit="10" stroke-dasharray="0"/><path fill="none" stroke="#505050" paint-order="fill stroke markers" d=" M 421.8432312011719 233.57032585144043 C 508.7582179457025 233.57032585144043 624.030981883399 252.4204864501953 710.9459686279297 252.4204864501953" stroke-miterlimit="10" stroke-dasharray="0"/><path fill="none" stroke="#505050" paint-order="fill stroke markers" d=" M 555.6818771362305 157.0089874267578 C 608.5571782213984 157.0089874267578 658.0706675427617 240.4204864501953 710.9459686279297 240.4204864501953" stroke-miterlimit="10" stroke-dasharray="0"/><path fill="none" stroke="#505050" paint-order="fill stroke markers" d=" M 527.6153526306152 226.41592407226562 C 550.436452463503 226.41592407226562 558.0370392051982 280.7473258972168 580.8581390380859 280.7473258972168" stroke-miterlimit="10" stroke-dasharray="0"/><path fill="none" stroke="#505050" paint-order="fill stroke markers" d=" M 408.5030212402344 182.90429496765137 C 439.60825152127126 182.90429496765137 471.51012234957835 226.41592407226562 502.61535263061523 226.41592407226562" stroke-miterlimit="10" stroke-dasharray="0"/><path fill="none" stroke="#505050" paint-order="fill stroke markers" d=" M 695.8581390380859 280.7473258972168 C 702.5273778196478 280.7473258972168 704.2767298463679 264.4204864501953 710.9459686279297 264.4204864501953" stroke-miterlimit="10" stroke-dasharray="0"/><path fill="none" stroke="#505050" paint-order="fill stroke markers" d=" M 454.0083236694336 317.8260154724121 C 492.06427198867016 317.8260154724121 542.8021907188494 318.7473258972168 580.8581390380859 318.7473258972168" stroke-miterlimit="10" stroke-dasharray="0"/><path fill="none" stroke="#505050" paint-order="fill stroke markers" d=" M 408.5030212402344 182.90429496765137 C 446.2617817693159 182.90429496765137 443.1061625606611 285.8855209350586 480.86492308974266 285.8855209350586" stroke-miterlimit="10" stroke-dasharray="0"/><path fill="none" stroke="#505050" paint-order="fill stroke markers" d=" M 421.8432312011719 233.57032585144043 C 448.03102222834696 233.57032585144043 454.6771320625676 297.8855209350586 480.86492308974266 297.8855209350586" stroke-miterlimit="10" stroke-dasharray="0"/><path fill="none" stroke="#505050" paint-order="fill stroke markers" d=" M 555.8649230897427 285.8855209350586 C 563.8202558141802 285.8855209350586 572.9028063136484 294.7473258972168 580.8581390380859 294.7473258972168" stroke-miterlimit="10" stroke-dasharray="0"/><path fill="none" stroke="#505050" paint-order="fill stroke markers" d=" M 448.3474540710449 50.68312072753906 C 452.63496621006783 50.68312072753906 458.3465782845611 51.06379699707031 462.634090423584 51.06379699707031" stroke-miterlimit="10" stroke-dasharray="0"/><path fill="none" stroke="#505050" paint-order="fill stroke markers" d=" M 393.42870712280273 76.43312072753906 C 403.58020096146754 76.43312072753906 414.1959602323801 62.68312072753906 424.3474540710449 62.68312072753906" stroke-miterlimit="10" stroke-dasharray="0"/><path fill="none" stroke="#505050" paint-order="fill stroke markers" d=" M 392.3474540710449 50.68312072753906 C 401.94745407104494 50.68312072753906 414.7474540710449 50.68312072753906 424.3474540710449 50.68312072753906" stroke-miterlimit="10" stroke-dasharray="0"/><path fill="none" stroke="#505050" paint-order="fill stroke markers" d=" M 1028.2583770751953 197.0591926574707 C 1036.1035798288578 197.0591926574707 1004.9571806691891 218.15350723266602 1012.8023834228516 218.15350723266602" stroke-miterlimit="10" stroke-dasharray="0"/><path fill="none" stroke="#505050" paint-order="fill stroke markers" d=" M 885.1583404541016 211.1154670715332 C 893.5883683450687 211.1154670715332 904.8283491842282 211.0591926574707 913.2583770751953 211.0591926574707" stroke-miterlimit="10" stroke-dasharray="0"/><path fill="none" stroke="#505050" paint-order="fill stroke markers" d=" M 871.9458770751953 175.03419876098633 C 885.9909499164132 175.03419876098633 899.2133042339774 197.0591926574707 913.2583770751953 197.0591926574707" stroke-miterlimit="10" stroke-dasharray="0"/><path fill="none" stroke="#505050" paint-order="fill stroke markers" d=" M 887.1520278453827 266.5092239379883 C 899.4140886178998 266.5092239379883 900.9963163026782 235.0591926574707 913.2583770751953 235.0591926574707" stroke-miterlimit="10" stroke-dasharray="0"/></g></g></svg>