<svg version="1.1" xmlns="http://www.w3.org/2000/svg" xmlns:xlink="http://www.w3.org/1999/xlink" width="613.7568511962891" height="195.73278427124023"><defs/><g transform="translate(-391.0172424316406,-174.72040176391602)"><g><path fill="white" stroke="#505050" paint-order="fill stroke markers" d=" M 741.9844818115234 190.72040176391602 L 741.9844818115234 301.700626373291 Q 741.9844818115234 309.700626373291 749.9844818115234 309.700626373291 L 988.7740936279297 309.700626373291 Q 996.7740936279297 309.700626373291 996.7740936279297 301.700626373291 L 996.7740936279297 190.72040176391602 Q 996.7740936279297 182.72040176391602 988.7740936279297 182.72040176391602 L 749.9844818115234 182.72040176391602 Q 741.9844818115234 182.72040176391602 741.9844818115234 190.72040176391602" stroke-miterlimit="10" stroke-width="0.5" stroke-dasharray=""/><path fill="#F0F0F0" stroke="#505050" paint-order="fill stroke markers" d=" M 921.7740936279297 190.72040176391602 L 996.7740936279297 190.72040176391602 L 996.7740936279297 220.72040176391602 L 921.7740936279297 220.72040176391602 L 921.7740936279297 190.72040176391602 Z" stroke-miterlimit="10" stroke-width="0.5" stroke-dasharray=""/><path fill="none" stroke="none"/><text fill="#505050" stroke="none" font-family="monospace" font-size="14px" font-style="normal" font-weight="normal" text-decoration="normal" x="959.2740936279297" y="208.72040176391602" text-anchor="middle" dominant-baseline="text-after-edge">arraySum</text><path fill="none" stroke="#505050" paint-order="fill stroke markers" d=" M 988.7740936279297 208.72040176391602 L 996.7740936279297 208.72040176391602 L 996.7740936279297 216.72040176391602 L 988.7740936279297 216.72040176391602 L 988.7740936279297 208.72040176391602 Z" stroke-miterlimit="10" stroke-width="0.5" stroke-dasharray=""/><path fill="none" stroke="#505050" paint-order="fill stroke markers" d=" M 902.8621063232422 219.70062637329102 L 910.8621063232422 219.70062637329102" stroke-miterlimit="10" stroke-dasharray=""/><path fill="white" stroke="#505050" paint-order="fill stroke markers" d=" M 749.9304046630859 232.02753067016602 L 781.9304046630859 232.02753067016602 L 781.9304046630859 250.02753067016602 L 749.9304046630859 250.02753067016602 L 749.9304046630859 232.02753067016602 Z" stroke-miterlimit="10" stroke-width="0.5" stroke-dasharray=""/><path fill="#F0F0F0" stroke="none" paint-order="stroke fill markers" d=""/><path fill="none" stroke="none"/><path fill="none" stroke="#505050" paint-order="fill stroke markers" d=" M 773.9304046630859 236.02753067016602 L 781.9304046630859 236.02753067016602 L 781.9304046630859 244.02753067016602 L 773.9304046630859 244.02753067016602 L 773.9304046630859 236.02753067016602 Z" stroke-miterlimit="10" stroke-width="0.5" stroke-dasharray=""/><text fill="#505050" stroke="none" font-family="monospace" font-size="14px" font-style="normal" font-weight="normal" text-decoration="normal" x="765.9304046630859" y="250.02753067016602" text-anchor="end" dominant-baseline="text-after-edge">0</text><path fill="white" stroke="#505050" paint-order="fill stroke markers" d=" M 811.8621063232422 197.70062637329102 L 902.8621063232422 197.70062637329102 L 902.8621063232422 289.700626373291 L 811.8621063232422 289.700626373291 L 811.8621063232422 197.70062637329102 Z" stroke-miterlimit="10" stroke-width="0.5" stroke-dasharray=""/><path fill="#F0F0F0" stroke="none" paint-order="stroke fill markers" d=""/><path fill="none" stroke="none"/><text fill="#505050" stroke="none" font-family="monospace" font-size="14px" font-style="normal" font-weight="normal" text-decoration="normal" x="857.3621063232422" y="215.70062637329102" text-anchor="middle" dominant-baseline="text-after-edge">reduce</text><path fill="none" stroke="#505050" paint-order="fill stroke markers" d=" M 811.8621063232422 215.70062637329102 L 819.8621063232422 215.70062637329102 L 819.8621063232422 223.70062637329102 L 811.8621063232422 223.70062637329102 L 811.8621063232422 215.70062637329102 Z" stroke-miterlimit="10" stroke-width="0.5" stroke-dasharray=""/><text fill="#505050" stroke="none" font-family="monospace" font-size="14px" font-style="normal" font-weight="normal" text-decoration="normal" x="827.8621063232422" y="229.70062637329102" text-anchor="start" dominant-baseline="text-after-edge">n</text><path fill="none" stroke="#505050" paint-order="fill stroke markers" d=" M 811.8621063232422 229.70062637329102 L 819.8621063232422 229.70062637329102 L 819.8621063232422 237.70062637329102 L 811.8621063232422 237.70062637329102 L 811.8621063232422 229.70062637329102 Z" stroke-miterlimit="10" stroke-width="0.5" stroke-dasharray=""/><text fill="#505050" stroke="none" font-family="monospace" font-size="14px" font-style="normal" font-weight="normal" text-decoration="normal" x="827.8621063232422" y="243.70062637329102" text-anchor="start" dominant-baseline="text-after-edge">end</text><path fill="none" stroke="#505050" paint-order="fill stroke markers" d=" M 811.8621063232422 243.70062637329102 L 819.8621063232422 243.70062637329102 L 819.8621063232422 251.70062637329102 L 811.8621063232422 251.70062637329102 L 811.8621063232422 243.70062637329102 Z" stroke-miterlimit="10" stroke-width="0.5" stroke-dasharray=""/><text fill="#505050" stroke="none" font-family="monospace" font-size="14px" font-style="normal" font-weight="normal" text-decoration="normal" x="827.8621063232422" y="257.700626373291" text-anchor="start" dominant-baseline="text-after-edge">acc = 1</text><path fill="none" stroke="#505050" paint-order="fill stroke markers" d=" M 811.8621063232422 257.700626373291 L 835.8621063232422 257.700626373291 L 835.8621063232422 285.700626373291 L 811.8621063232422 285.700626373291 L 811.8621063232422 257.700626373291 Z" stroke-miterlimit="10" stroke-width="0.5" stroke-dasharray=""/><path fill="none" stroke="none"/><path fill="none" stroke="#505050" paint-order="fill stroke markers" d=" M 811.8621063232422 261.700626373291 L 819.8621063232422 261.700626373291 L 819.8621063232422 269.700626373291 L 811.8621063232422 269.700626373291 L 811.8621063232422 261.700626373291 Z" stroke-miterlimit="10" stroke-width="0.5" stroke-dasharray=""/><path fill="none" stroke="#505050" paint-order="fill stroke markers" d=" M 811.8621063232422 273.700626373291 L 819.8621063232422 273.700626373291 L 819.8621063232422 281.700626373291 L 811.8621063232422 281.700626373291 L 811.8621063232422 273.700626373291 Z" stroke-miterlimit="10" stroke-width="0.5" stroke-dasharray=""/><path fill="none" stroke="#505050" paint-order="fill stroke markers" d=" M 827.8621063232422 261.700626373291 L 835.8621063232422 261.700626373291 L 835.8621063232422 269.700626373291 L 827.8621063232422 269.700626373291 L 827.8621063232422 261.700626373291 Z" stroke-miterlimit="10" stroke-width="0.5" stroke-dasharray=""/><text fill="#505050" stroke="none" font-family="monospace" font-size="14px" font-style="normal" font-weight="normal" text-decoration="normal" x="843.8621063232422" y="280.700626373291" text-anchor="start" dominant-baseline="text-after-edge">*</text><path fill="none" stroke="#505050" paint-order="fill stroke markers" d=" M 894.8621063232422 215.70062637329102 L 902.8621063232422 215.70062637329102 L 902.8621063232422 223.70062637329102 L 894.8621063232422 223.70062637329102 L 894.8621063232422 215.70062637329102 Z" stroke-miterlimit="10" stroke-width="0.5" stroke-dasharray=""/><path fill="white" stroke="#505050" paint-order="fill stroke markers" d=" M 399.0172424316406 197.06571808457375 L 474.0172424316406 197.06571808457375 L 474.0172424316406 263.06571808457375 L 399.0172424316406 263.06571808457375 L 399.0172424316406 197.06571808457375 Z" stroke-miterlimit="10" stroke-width="0.5" stroke-dasharray=""/><path fill="#F0F0F0" stroke="none" paint-order="stroke fill markers" d=" M 441.0172424316406 229.06571808457375 L 474.0172424316406 229.06571808457375 L 474.0172424316406 259.06571808457375 L 441.0172424316406 259.06571808457375 L 441.0172424316406 229.06571808457375 Z"/><path fill="none" stroke="none"/><text fill="#505050" stroke="none" font-family="monospace" font-size="14px" font-style="normal" font-weight="normal" text-decoration="normal" x="436.5172424316406" y="215.06571808457375" text-anchor="middle" dominant-baseline="text-after-edge">Array</text><path fill="none" stroke="#505050" paint-order="fill stroke markers" d=" M 466.0172424316406 215.06571808457375 L 474.0172424316406 215.06571808457375 L 474.0172424316406 223.06571808457375 L 466.0172424316406 223.06571808457375 L 466.0172424316406 215.06571808457375 Z" stroke-miterlimit="10" stroke-width="0.5" stroke-dasharray=""/><text fill="#505050" stroke="none" font-family="monospace" font-size="14px" font-style="normal" font-weight="normal" text-decoration="normal" x="458.0172424316406" y="229.06571808457375" text-anchor="end" dominant-baseline="text-after-edge">length</text><path fill="none" stroke="#505050" paint-order="fill stroke markers" d=" M 441.0172424316406 229.06571808457375 L 474.0172424316406 229.06571808457375 L 474.0172424316406 259.06571808457375 L 441.0172424316406 259.06571808457375 L 441.0172424316406 229.06571808457375 Z" stroke-miterlimit="10" stroke-width="0.5" stroke-dasharray=""/><path fill="none" stroke="none"/><text fill="#505050" stroke="none" font-family="monospace" font-size="14px" font-style="normal" font-weight="normal" text-decoration="normal" x="457.5172424316406" y="247.06571808457375" text-anchor="middle" dominant-baseline="text-after-edge">[i]</text><path fill="none" stroke="#505050" paint-order="fill stroke markers" d=" M 441.0172424316406 247.06571808457375 L 449.0172424316406 247.06571808457375 L 449.0172424316406 255.06571808457375 L 441.0172424316406 255.06571808457375 L 441.0172424316406 247.06571808457375 Z" stroke-miterlimit="10" stroke-width="0.5" stroke-dasharray=""/><path fill="none" stroke="#505050" paint-order="fill stroke markers" d=" M 466.0172424316406 247.06571808457375 L 474.0172424316406 247.06571808457375 L 474.0172424316406 255.06571808457375 L 466.0172424316406 255.06571808457375 L 466.0172424316406 247.06571808457375 Z" stroke-miterlimit="10" stroke-width="0.5" stroke-dasharray=""/><path fill="white" stroke="#505050" paint-order="fill stroke markers" d=" M 493.7539520263672 283.0831436216831 L 493.7539520263672 354.45318603515625 Q 493.7539520263672 362.45318603515625 501.7539520263672 362.45318603515625 L 692.0919952392578 362.45318603515625 Q 700.0919952392578 362.45318603515625 700.0919952392578 354.45318603515625 L 700.0919952392578 283.0831436216831 Q 700.0919952392578 275.0831436216831 692.0919952392578 275.0831436216831 L 501.7539520263672 275.0831436216831 Q 493.7539520263672 275.0831436216831 493.7539520263672 283.0831436216831" stroke-miterlimit="10" stroke-width="0.5" stroke-dasharray=""/><path fill="#F0F0F0" stroke="#505050" paint-order="fill stroke markers" d=" M 625.0919952392578 283.0831436216831 L 700.0919952392578 283.0831436216831 L 700.0919952392578 329.0831436216831 L 625.0919952392578 329.0831436216831 L 625.0919952392578 283.0831436216831 Z" stroke-miterlimit="10" stroke-width="0.5" stroke-dasharray=""/><path fill="none" stroke="none"/><text fill="#505050" stroke="none" font-family="monospace" font-size="14px" font-style="normal" font-weight="normal" text-decoration="normal" x="662.5919952392578" y="301.0831436216831" text-anchor="middle" dominant-baseline="text-after-edge">a[i]+acc</text><path fill="none" stroke="#505050" paint-order="fill stroke markers" d=" M 625.0919952392578 301.0831436216831 L 633.0919952392578 301.0831436216831 L 633.0919952392578 309.0831436216831 L 625.0919952392578 309.0831436216831 L 625.0919952392578 301.0831436216831 Z" stroke-miterlimit="10" stroke-width="0.5" stroke-dasharray=""/><text fill="#505050" stroke="none" font-family="monospace" font-size="14px" font-style="normal" font-weight="normal" text-decoration="normal" x="641.0919952392578" y="315.0831436216831" text-anchor="start" dominant-baseline="text-after-edge">i</text><path fill="none" stroke="#505050" paint-order="fill stroke markers" d=" M 625.0919952392578 315.0831436216831 L 633.0919952392578 315.0831436216831 L 633.0919952392578 323.0831436216831 L 625.0919952392578 323.0831436216831 L 625.0919952392578 315.0831436216831 Z" stroke-miterlimit="10" stroke-width="0.5" stroke-dasharray=""/><text fill="#505050" stroke="none" font-family="monospace" font-size="14px" font-style="normal" font-weight="normal" text-decoration="normal" x="641.0919952392578" y="329.0831436216831" text-anchor="start" dominant-baseline="text-after-edge">acc</text><path fill="none" stroke="#505050" paint-order="fill stroke markers" d=" M 692.0919952392578 301.0831436216831 L 700.0919952392578 301.0831436216831 L 700.0919952392578 309.0831436216831 L 692.0919952392578 309.0831436216831 L 692.0919952392578 301.0831436216831 Z" stroke-miterlimit="10" stroke-width="0.5" stroke-dasharray=""/><path fill="none" stroke="#505050" paint-order="fill stroke markers" d=" M 611.9910430908203 309.5993537902832 L 619.9910430908203 309.5993537902832" stroke-miterlimit="10" stroke-dasharray=""/><path fill="white" stroke="#505050" paint-order="fill stroke markers" d=" M 500.4474334716797 295.32574462890625 L 532.4474334716797 295.32574462890625 L 532.4474334716797 313.32574462890625 L 500.4474334716797 313.32574462890625 L 508.4474334716797 304.32574462890625 L 500.4474334716797 295.32574462890625" stroke-miterlimit="10" stroke-width="0.5" stroke-dasharray=""/><path fill="none" stroke="none"/><path fill="none" stroke="#505050" paint-order="fill stroke markers" d=" M 524.4474334716797 299.32574462890625 L 532.4474334716797 299.32574462890625 L 532.4474334716797 307.32574462890625 L 524.4474334716797 307.32574462890625 L 524.4474334716797 299.32574462890625 Z" stroke-miterlimit="10" stroke-width="0.5" stroke-dasharray=""/><text fill="#505050" stroke="none" font-family="monospace" font-size="14px" font-style="normal" font-weight="normal" text-decoration="normal" x="516.4474334716797" y="313.32574462890625" text-anchor="end" dominant-baseline="text-after-edge">i</text><path fill="white" stroke="#505050" paint-order="fill stroke markers" d=" M 587.9910430908203 287.5993537902832 L 611.9910430908203 287.5993537902832 L 611.9910430908203 329.5993537902832 L 587.9910430908203 329.5993537902832 L 587.9910430908203 287.5993537902832 Z" stroke-miterlimit="10" stroke-width="0.5" stroke-dasharray=""/><path fill="#F0F0F0" stroke="none" paint-order="stroke fill markers" d=""/><path fill="none" stroke="none"/><text fill="#505050" stroke="none" font-family="monospace" font-size="14px" font-style="normal" font-weight="normal" text-decoration="normal" x="599.9910430908203" y="305.5993537902832" text-anchor="middle" dominant-baseline="text-after-edge">+</text><path fill="none" stroke="#505050" paint-order="fill stroke markers" d=" M 587.9910430908203 305.5993537902832 L 595.9910430908203 305.5993537902832 L 595.9910430908203 313.5993537902832 L 587.9910430908203 313.5993537902832 L 587.9910430908203 305.5993537902832 Z" stroke-miterlimit="10" stroke-width="0.5" stroke-dasharray=""/><path fill="none" stroke="#505050" paint-order="fill stroke markers" d=" M 587.9910430908203 317.5993537902832 L 595.9910430908203 317.5993537902832 L 595.9910430908203 325.5993537902832 L 587.9910430908203 325.5993537902832 L 587.9910430908203 317.5993537902832 Z" stroke-miterlimit="10" stroke-width="0.5" stroke-dasharray=""/><path fill="none" stroke="#505050" paint-order="fill stroke markers" d=" M 603.9910430908203 305.5993537902832 L 611.9910430908203 305.5993537902832 L 611.9910430908203 313.5993537902832 L 603.9910430908203 313.5993537902832 L 603.9910430908203 305.5993537902832 Z" stroke-miterlimit="10" stroke-width="0.5" stroke-dasharray=""/><path fill="white" stroke="#505050" paint-order="fill stroke markers" d=" M 501.4519500732422 328.45318603515625 L 550.4519500732422 328.45318603515625 L 550.4519500732422 346.45318603515625 L 501.4519500732422 346.45318603515625 L 509.4519500732422 337.45318603515625 L 501.4519500732422 328.45318603515625" stroke-miterlimit="10" stroke-width="0.5" stroke-dasharray=""/><path fill="none" stroke="none"/><path fill="none" stroke="#505050" paint-order="fill stroke markers" d=" M 542.4519500732422 332.45318603515625 L 550.4519500732422 332.45318603515625 L 550.4519500732422 340.45318603515625 L 542.4519500732422 340.45318603515625 L 542.4519500732422 332.45318603515625 Z" stroke-miterlimit="10" stroke-width="0.5" stroke-dasharray=""/><text fill="#505050" stroke="none" font-family="monospace" font-size="14px" font-style="normal" font-weight="normal" text-decoration="normal" x="534.4519500732422" y="346.45318603515625" text-anchor="end" dominant-baseline="text-after-edge">acc</text><path fill="white" stroke="#505050" paint-order="fill stroke markers" d=" M 542.2635374069214 281.15741539001465 L 575.2635374069214 281.15741539001465 L 575.2635374069214 311.15741539001465 L 542.2635374069214 311.15741539001465 L 542.2635374069214 281.15741539001465 Z" stroke-miterlimit="10" stroke-width="0.5" stroke-dasharray=""/><path fill="#F0F0F0" stroke="none" paint-order="stroke fill markers" d=""/><path fill="none" stroke="none"/><text fill="#505050" stroke="none" font-family="monospace" font-size="14px" font-style="normal" font-weight="normal" text-decoration="normal" x="558.7635374069214" y="299.15741539001465" text-anchor="middle" dominant-baseline="text-after-edge">[i]</text><path fill="none" stroke="#505050" paint-order="fill stroke markers" d=" M 542.2635374069214 299.15741539001465 L 550.2635374069214 299.15741539001465 L 550.2635374069214 307.15741539001465 L 542.2635374069214 307.15741539001465 L 542.2635374069214 299.15741539001465 Z" stroke-miterlimit="10" stroke-width="0.5" stroke-dasharray=""/><path fill="none" stroke="#505050" paint-order="fill stroke markers" d=" M 567.2635374069214 299.15741539001465 L 575.2635374069214 299.15741539001465 L 575.2635374069214 307.15741539001465 L 567.2635374069214 307.15741539001465 L 567.2635374069214 299.15741539001465 Z" stroke-miterlimit="10" stroke-width="0.5" stroke-dasharray=""/><path fill="none" stroke="none"/><path fill="none" stroke="#e0e0e0" paint-order="fill stroke markers" d=" M 478.0172424316406 244.06571808457375 C 504.8462484882695 244.06571808457375 511.4345313502925 310.15741539001465 538.2635374069214 310.15741539001465" stroke-miterlimit="10" stroke-width="2" stroke-dasharray=""/><path fill="none" stroke="#505050" paint-order="fill stroke markers" d=" M 474.0172424316406 219.06571808457375 C 575.3708805754304 219.06571808457375 710.5084681794524 219.70062637329102 811.8621063232422 219.70062637329102" stroke-miterlimit="10" stroke-dasharray=""/><path fill="none" stroke="#505050" paint-order="fill stroke markers" d=" M 700.0919952392578 306.0831436216831 C 735.1736766437401 306.0831436216831 776.7804249187599 271.700626373291 811.8621063232422 271.700626373291" stroke-miterlimit="10" stroke-dasharray=""/><path fill="none" stroke="#505050" paint-order="fill stroke markers" d=" M 781.9304046630859 240.02753067016602 C 791.200274380335 240.02753067016602 802.5922366059931 247.70062637329102 811.8621063232422 247.70062637329102" stroke-miterlimit="10" stroke-dasharray=""/><path fill="none" stroke="#505050" paint-order="fill stroke markers" d=" M 781.9304046630859 240.02753067016602 C 791.1083283609 240.02753067016602 802.6841826254281 233.70062637329102 811.8621063232422 233.70062637329102" stroke-miterlimit="10" stroke-dasharray=""/><path fill="none" stroke="#505050" paint-order="fill stroke markers" d=" M 550.4519500732422 336.45318603515625 C 562.5632582323433 336.45318603515625 575.8797349317192 321.5993537902832 587.9910430908203 321.5993537902832" stroke-miterlimit="10" stroke-dasharray=""/><path fill="none" stroke="#505050" paint-order="fill stroke markers" d=" M 532.4474334716797 303.32574462890625 C 535.3926976038098 303.32574462890625 539.3182732747913 303.15741539001465 542.2635374069214 303.15741539001465" stroke-miterlimit="10" stroke-dasharray=""/><path fill="none" stroke="#505050" paint-order="fill stroke markers" d=" M 575.2635374069214 303.15741539001465 C 579.5430137085018 303.15741539001465 583.7115667892399 309.5993537902832 587.9910430908203 309.5993537902832" stroke-miterlimit="10" stroke-dasharray=""/></g></g></svg>