<svg version="1.1" xmlns="http://www.w3.org/2000/svg" xmlns:xlink="http://www.w3.org/1999/xlink" width="712.1874389648438" height="259.8171033859253"><defs/><g transform="translate(-374.36761474609375,-49.368263244628906)"><g><path fill="white" stroke="#505050" paint-order="fill stroke markers" d=" M 375.36761474609375 58.368263244628906 L 375.36761474609375 104.46854400634766 Q 375.36761474609375 112.46854400634766 383.36761474609375 112.46854400634766 L 472.5987548828125 112.46854400634766 Q 480.5987548828125 112.46854400634766 480.5987548828125 104.46854400634766 L 480.5987548828125 58.368263244628906 Q 480.5987548828125 50.368263244628906 472.5987548828125 50.368263244628906 L 383.36761474609375 50.368263244628906 Q 375.36761474609375 50.368263244628906 375.36761474609375 58.368263244628906" stroke-miterlimit="10" stroke-width="0.5" stroke-dasharray=""/><path fill="#F0F0F0" stroke="#505050" paint-order="fill stroke markers" d=" M 455.5987548828125 58.368263244628906 L 480.5987548828125 58.368263244628906 L 480.5987548828125 88.3682632446289 L 455.5987548828125 88.3682632446289 L 455.5987548828125 58.368263244628906 Z" stroke-miterlimit="10" stroke-width="0.5" stroke-dasharray=""/><path fill="none" stroke="none"/><text fill="#505050" stroke="none" font-family="monospace" font-size="14px" font-style="normal" font-weight="normal" text-decoration="normal" x="468.0987548828125" y="76.3682632446289" text-anchor="middle" dominant-baseline="text-after-edge">-1</text><path fill="none" stroke="#505050" paint-order="fill stroke markers" d=" M 455.5987548828125 76.3682632446289 L 463.5987548828125 76.3682632446289 L 463.5987548828125 84.3682632446289 L 455.5987548828125 84.3682632446289 L 455.5987548828125 76.3682632446289 Z" stroke-miterlimit="10" stroke-width="0.5" stroke-dasharray=""/><path fill="none" stroke="#505050" paint-order="fill stroke markers" d=" M 472.5987548828125 76.3682632446289 L 480.5987548828125 76.3682632446289 L 480.5987548828125 84.3682632446289 L 472.5987548828125 84.3682632446289 L 472.5987548828125 76.3682632446289 Z" stroke-miterlimit="10" stroke-width="0.5" stroke-dasharray=""/><path fill="none" stroke="#505050" paint-order="fill stroke markers" d=" M 423.67552185058594 74.77679443359375 L 415.67552185058594 74.77679443359375 M 447.67552185058594 74.77679443359375 L 455.67552185058594 74.77679443359375" stroke-miterlimit="10" stroke-dasharray=""/><path fill="white" stroke="#505050" paint-order="fill stroke markers" d=" M 423.67552185058594 52.77679443359375 L 447.67552185058594 52.77679443359375 L 447.67552185058594 94.77679443359375 L 423.67552185058594 94.77679443359375 L 423.67552185058594 52.77679443359375 Z" stroke-miterlimit="10" stroke-width="0.5" stroke-dasharray=""/><path fill="#F0F0F0" stroke="none" paint-order="stroke fill markers" d=""/><path fill="none" stroke="none"/><text fill="#505050" stroke="none" font-family="monospace" font-size="14px" font-style="normal" font-weight="normal" text-decoration="normal" x="435.67552185058594" y="70.77679443359375" text-anchor="middle" dominant-baseline="text-after-edge">-</text><path fill="none" stroke="#505050" paint-order="fill stroke markers" d=" M 423.67552185058594 70.77679443359375 L 431.67552185058594 70.77679443359375 L 431.67552185058594 78.77679443359375 L 423.67552185058594 78.77679443359375 L 423.67552185058594 70.77679443359375 Z" stroke-miterlimit="10" stroke-width="0.5" stroke-dasharray=""/><path fill="none" stroke="#505050" paint-order="fill stroke markers" d=" M 423.67552185058594 82.77679443359375 L 431.67552185058594 82.77679443359375 L 431.67552185058594 90.77679443359375 L 423.67552185058594 90.77679443359375 L 423.67552185058594 82.77679443359375 Z" stroke-miterlimit="10" stroke-width="0.5" stroke-dasharray=""/><path fill="none" stroke="#505050" paint-order="fill stroke markers" d=" M 439.67552185058594 70.77679443359375 L 447.67552185058594 70.77679443359375 L 447.67552185058594 78.77679443359375 L 439.67552185058594 78.77679443359375 L 439.67552185058594 70.77679443359375 Z" stroke-miterlimit="10" stroke-width="0.5" stroke-dasharray=""/><path fill="white" stroke="#505050" paint-order="fill stroke markers" d=" M 381.78472900390625 78.46854400634766 L 413.78472900390625 78.46854400634766 L 413.78472900390625 96.46854400634766 L 381.78472900390625 96.46854400634766 L 381.78472900390625 78.46854400634766 Z" stroke-miterlimit="10" stroke-width="0.5" stroke-dasharray=""/><path fill="#F0F0F0" stroke="none" paint-order="stroke fill markers" d=""/><path fill="none" stroke="none"/><path fill="none" stroke="#505050" paint-order="fill stroke markers" d=" M 405.78472900390625 82.46854400634766 L 413.78472900390625 82.46854400634766 L 413.78472900390625 90.46854400634766 L 405.78472900390625 90.46854400634766 L 405.78472900390625 82.46854400634766 Z" stroke-miterlimit="10" stroke-width="0.5" stroke-dasharray=""/><text fill="#505050" stroke="none" font-family="monospace" font-size="14px" font-style="normal" font-weight="normal" text-decoration="normal" x="397.78472900390625" y="96.46854400634766" text-anchor="end" dominant-baseline="text-after-edge">1</text><path fill="white" stroke="#505050" paint-order="fill stroke markers" d=" M 533.5847778320312 58.47918701171875 L 533.5847778320312 238.85809326171875 Q 533.5847778320312 246.85809326171875 541.5847778320312 246.85809326171875 L 872.3972778320312 246.85809326171875 Q 880.3972778320312 246.85809326171875 880.3972778320312 238.85809326171875 L 880.3972778320312 58.47918701171875 Q 880.3972778320312 50.47918701171875 872.3972778320312 50.47918701171875 L 541.5847778320312 50.47918701171875 Q 533.5847778320312 50.47918701171875 533.5847778320312 58.47918701171875" stroke-miterlimit="10" stroke-width="0.5" stroke-dasharray=""/><path fill="#F0F0F0" stroke="#505050" paint-order="fill stroke markers" d=" M 813.3972778320312 58.47918701171875 L 880.3972778320312 58.47918701171875 L 880.3972778320312 118.47918701171875 L 813.3972778320312 118.47918701171875 L 813.3972778320312 58.47918701171875 Z" stroke-miterlimit="10" stroke-width="0.5" stroke-dasharray=""/><path fill="none" stroke="none"/><text fill="#505050" stroke="none" font-family="monospace" font-size="14px" font-style="normal" font-weight="normal" text-decoration="normal" x="846.8972778320312" y="76.47918701171875" text-anchor="middle" dominant-baseline="text-after-edge">fibstep</text><path fill="none" stroke="#505050" paint-order="fill stroke markers" d=" M 813.3972778320312 76.47918701171875 L 821.3972778320312 76.47918701171875 L 821.3972778320312 84.47918701171875 L 813.3972778320312 84.47918701171875 L 813.3972778320312 76.47918701171875 Z" stroke-miterlimit="10" stroke-width="0.5" stroke-dasharray=""/><text fill="#505050" stroke="none" font-family="monospace" font-size="14px" font-style="normal" font-weight="normal" text-decoration="normal" x="829.3972778320312" y="90.47918701171875" text-anchor="start" dominant-baseline="text-after-edge">n</text><path fill="none" stroke="#505050" paint-order="fill stroke markers" d=" M 813.3972778320312 90.47918701171875 L 821.3972778320312 90.47918701171875 L 821.3972778320312 98.47918701171875 L 813.3972778320312 98.47918701171875 L 813.3972778320312 90.47918701171875 Z" stroke-miterlimit="10" stroke-width="0.5" stroke-dasharray=""/><text fill="#505050" stroke="none" font-family="monospace" font-size="14px" font-style="normal" font-weight="normal" text-decoration="normal" x="829.3972778320312" y="104.47918701171875" text-anchor="start" dominant-baseline="text-after-edge">v0</text><path fill="none" stroke="#505050" paint-order="fill stroke markers" d=" M 813.3972778320312 104.47918701171875 L 821.3972778320312 104.47918701171875 L 821.3972778320312 112.47918701171875 L 813.3972778320312 112.47918701171875 L 813.3972778320312 104.47918701171875 Z" stroke-miterlimit="10" stroke-width="0.5" stroke-dasharray=""/><text fill="#505050" stroke="none" font-family="monospace" font-size="14px" font-style="normal" font-weight="normal" text-decoration="normal" x="829.3972778320312" y="118.47918701171875" text-anchor="start" dominant-baseline="text-after-edge">v1</text><path fill="none" stroke="#505050" paint-order="fill stroke markers" d=" M 872.3972778320312 76.47918701171875 L 880.3972778320312 76.47918701171875 L 880.3972778320312 84.47918701171875 L 872.3972778320312 84.47918701171875 L 872.3972778320312 76.47918701171875 Z" stroke-miterlimit="10" stroke-width="0.5" stroke-dasharray=""/><path fill="white" stroke="#505050" paint-order="fill stroke markers" d=" M 753.4534912109375 86.45433044433594 L 777.4534912109375 86.45433044433594 L 777.4534912109375 140.45433044433594 L 753.4534912109375 140.45433044433594 L 753.4534912109375 86.45433044433594 Z" stroke-miterlimit="10" stroke-width="0.5" stroke-dasharray=""/><path fill="#F0F0F0" stroke="none" paint-order="stroke fill markers" d=""/><path fill="none" stroke="none"/><text fill="#505050" stroke="none" font-family="monospace" font-size="14px" font-style="normal" font-weight="normal" text-decoration="normal" x="765.4534912109375" y="104.45433044433594" text-anchor="middle" dominant-baseline="text-after-edge">?</text><path fill="none" stroke="#505050" paint-order="fill stroke markers" d=" M 753.4534912109375 104.45433044433594 L 761.4534912109375 104.45433044433594 L 761.4534912109375 112.45433044433594 L 753.4534912109375 112.45433044433594 L 753.4534912109375 104.45433044433594 Z" stroke-miterlimit="10" stroke-width="0.5" stroke-dasharray=""/><path fill="none" stroke="#505050" paint-order="fill stroke markers" d=" M 753.4534912109375 116.45433044433594 L 761.4534912109375 116.45433044433594 L 761.4534912109375 124.45433044433594 L 753.4534912109375 124.45433044433594 L 753.4534912109375 116.45433044433594 Z" stroke-miterlimit="10" stroke-width="0.5" stroke-dasharray=""/><path fill="none" stroke="#505050" paint-order="fill stroke markers" d=" M 753.4534912109375 128.45433044433594 L 761.4534912109375 128.45433044433594 L 761.4534912109375 136.45433044433594 L 753.4534912109375 136.45433044433594 L 753.4534912109375 128.45433044433594 Z" stroke-miterlimit="10" stroke-width="0.5" stroke-dasharray=""/><path fill="none" stroke="#505050" paint-order="fill stroke markers" d=" M 769.4534912109375 104.45433044433594 L 777.4534912109375 104.45433044433594 L 777.4534912109375 112.45433044433594 L 769.4534912109375 112.45433044433594 L 769.4534912109375 104.45433044433594 Z" stroke-miterlimit="10" stroke-width="0.5" stroke-dasharray=""/><path fill="white" stroke="#505050" paint-order="fill stroke markers" d=" M 541.5847778320312 143.12762451171875 L 582.5847778320312 143.12762451171875 L 582.5847778320312 161.12762451171875 L 541.5847778320312 161.12762451171875 L 549.5847778320312 152.12762451171875 L 541.5847778320312 143.12762451171875" stroke-miterlimit="10" stroke-width="0.5" stroke-dasharray=""/><path fill="none" stroke="none"/><path fill="none" stroke="#505050" paint-order="fill stroke markers" d=" M 574.5847778320312 147.12762451171875 L 582.5847778320312 147.12762451171875 L 582.5847778320312 155.12762451171875 L 574.5847778320312 155.12762451171875 L 574.5847778320312 147.12762451171875 Z" stroke-miterlimit="10" stroke-width="0.5" stroke-dasharray=""/><text fill="#505050" stroke="none" font-family="monospace" font-size="14px" font-style="normal" font-weight="normal" text-decoration="normal" x="566.5847778320312" y="161.12762451171875" text-anchor="end" dominant-baseline="text-after-edge">v0</text><path fill="white" stroke="#505050" paint-order="fill stroke markers" d=" M 639.8425903320312 188.85809326171875 L 663.8425903320312 188.85809326171875 L 663.8425903320312 230.85809326171875 L 639.8425903320312 230.85809326171875 L 639.8425903320312 188.85809326171875 Z" stroke-miterlimit="10" stroke-width="0.5" stroke-dasharray=""/><path fill="#F0F0F0" stroke="none" paint-order="stroke fill markers" d=""/><path fill="none" stroke="none"/><text fill="#505050" stroke="none" font-family="monospace" font-size="14px" font-style="normal" font-weight="normal" text-decoration="normal" x="651.8425903320312" y="206.85809326171875" text-anchor="middle" dominant-baseline="text-after-edge">+</text><path fill="none" stroke="#505050" paint-order="fill stroke markers" d=" M 639.8425903320312 206.85809326171875 L 647.8425903320312 206.85809326171875 L 647.8425903320312 214.85809326171875 L 639.8425903320312 214.85809326171875 L 639.8425903320312 206.85809326171875 Z" stroke-miterlimit="10" stroke-width="0.5" stroke-dasharray=""/><path fill="none" stroke="#505050" paint-order="fill stroke markers" d=" M 639.8425903320312 218.85809326171875 L 647.8425903320312 218.85809326171875 L 647.8425903320312 226.85809326171875 L 639.8425903320312 226.85809326171875 L 639.8425903320312 218.85809326171875 Z" stroke-miterlimit="10" stroke-width="0.5" stroke-dasharray=""/><path fill="none" stroke="#505050" paint-order="fill stroke markers" d=" M 655.8425903320312 206.85809326171875 L 663.8425903320312 206.85809326171875 L 663.8425903320312 214.85809326171875 L 655.8425903320312 214.85809326171875 L 655.8425903320312 206.85809326171875 Z" stroke-miterlimit="10" stroke-width="0.5" stroke-dasharray=""/><path fill="white" stroke="#505050" paint-order="fill stroke markers" d=" M 542.0925903320312 179.97137451171875 L 583.0925903320312 179.97137451171875 L 583.0925903320312 197.97137451171875 L 542.0925903320312 197.97137451171875 L 550.0925903320312 188.97137451171875 L 542.0925903320312 179.97137451171875" stroke-miterlimit="10" stroke-width="0.5" stroke-dasharray=""/><path fill="none" stroke="none"/><path fill="none" stroke="#505050" paint-order="fill stroke markers" d=" M 575.0925903320312 183.97137451171875 L 583.0925903320312 183.97137451171875 L 583.0925903320312 191.97137451171875 L 575.0925903320312 191.97137451171875 L 575.0925903320312 183.97137451171875 Z" stroke-miterlimit="10" stroke-width="0.5" stroke-dasharray=""/><text fill="#505050" stroke="none" font-family="monospace" font-size="14px" font-style="normal" font-weight="normal" text-decoration="normal" x="567.0925903320312" y="197.97137451171875" text-anchor="end" dominant-baseline="text-after-edge">v1</text><path fill="white" stroke="#505050" paint-order="fill stroke markers" d=" M 710.1785278320312 60.43621826171875 L 735.1785278320312 60.43621826171875 L 735.1785278320312 102.43621826171875 L 710.1785278320312 102.43621826171875 L 710.1785278320312 60.43621826171875 Z" stroke-miterlimit="10" stroke-width="0.5" stroke-dasharray=""/><path fill="#F0F0F0" stroke="none" paint-order="stroke fill markers" d=""/><path fill="none" stroke="none"/><text fill="#505050" stroke="none" font-family="monospace" font-size="14px" font-style="normal" font-weight="normal" text-decoration="normal" x="722.6785278320312" y="78.43621826171875" text-anchor="middle" dominant-baseline="text-after-edge">&lt;=</text><path fill="none" stroke="#505050" paint-order="fill stroke markers" d=" M 710.1785278320312 78.43621826171875 L 718.1785278320312 78.43621826171875 L 718.1785278320312 86.43621826171875 L 710.1785278320312 86.43621826171875 L 710.1785278320312 78.43621826171875 Z" stroke-miterlimit="10" stroke-width="0.5" stroke-dasharray=""/><path fill="none" stroke="#505050" paint-order="fill stroke markers" d=" M 710.1785278320312 90.43621826171875 L 718.1785278320312 90.43621826171875 L 718.1785278320312 98.43621826171875 L 710.1785278320312 98.43621826171875 L 710.1785278320312 90.43621826171875 Z" stroke-miterlimit="10" stroke-width="0.5" stroke-dasharray=""/><path fill="none" stroke="#505050" paint-order="fill stroke markers" d=" M 727.1785278320312 78.43621826171875 L 735.1785278320312 78.43621826171875 L 735.1785278320312 86.43621826171875 L 727.1785278320312 86.43621826171875 L 727.1785278320312 78.43621826171875 Z" stroke-miterlimit="10" stroke-width="0.5" stroke-dasharray=""/><path fill="white" stroke="#505050" paint-order="fill stroke markers" d=" M 648.5964965820312 92.05340576171875 L 680.5964965820312 92.05340576171875 L 680.5964965820312 110.05340576171875 L 648.5964965820312 110.05340576171875 L 648.5964965820312 92.05340576171875 Z" stroke-miterlimit="10" stroke-width="0.5" stroke-dasharray=""/><path fill="#F0F0F0" stroke="none" paint-order="stroke fill markers" d=""/><path fill="none" stroke="none"/><path fill="none" stroke="#505050" paint-order="fill stroke markers" d=" M 672.5964965820312 96.05340576171875 L 680.5964965820312 96.05340576171875 L 680.5964965820312 104.05340576171875 L 672.5964965820312 104.05340576171875 L 672.5964965820312 96.05340576171875 Z" stroke-miterlimit="10" stroke-width="0.5" stroke-dasharray=""/><text fill="#505050" stroke="none" font-family="monospace" font-size="14px" font-style="normal" font-weight="normal" text-decoration="normal" x="664.5964965820312" y="110.05340576171875" text-anchor="end" dominant-baseline="text-after-edge">2</text><path fill="white" stroke="#505050" paint-order="fill stroke markers" d=" M 541.4633178710938 58.37407684326172 L 573.4633178710938 58.37407684326172 L 573.4633178710938 76.37407684326172 L 541.4633178710938 76.37407684326172 L 549.4633178710938 67.37407684326172 L 541.4633178710938 58.37407684326172" stroke-miterlimit="10" stroke-width="0.5" stroke-dasharray=""/><path fill="none" stroke="none"/><path fill="none" stroke="#505050" paint-order="fill stroke markers" d=" M 565.4633178710938 62.37407684326172 L 573.4633178710938 62.37407684326172 L 573.4633178710938 70.37407684326172 L 565.4633178710938 70.37407684326172 L 565.4633178710938 62.37407684326172 Z" stroke-miterlimit="10" stroke-width="0.5" stroke-dasharray=""/><text fill="#505050" stroke="none" font-family="monospace" font-size="14px" font-style="normal" font-weight="normal" text-decoration="normal" x="557.4633178710938" y="76.37407684326172" text-anchor="end" dominant-baseline="text-after-edge">n</text><path fill="white" stroke="#505050" paint-order="fill stroke markers" d=" M 789.2284545898438 100.5246353149414 L 797.2284545898438 100.5246353149414 L 805.2284545898438 108.5246353149414 L 797.2284545898438 116.5246353149414 L 789.2284545898438 116.5246353149414 L 789.2284545898438 100.5246353149414" stroke-miterlimit="10" stroke-width="0.5" stroke-dasharray=""/><path fill="none" stroke="none"/><path fill="none" stroke="#505050" paint-order="fill stroke markers" d=" M 789.2284545898438 104.5246353149414 L 797.2284545898438 104.5246353149414 L 797.2284545898438 112.5246353149414 L 789.2284545898438 112.5246353149414 L 789.2284545898438 104.5246353149414 Z" stroke-miterlimit="10" stroke-width="0.5" stroke-dasharray=""/><path fill="white" stroke="#505050" paint-order="fill stroke markers" d=" M 675.3433837890625 135.97683715820312 L 742.3433837890625 135.97683715820312 L 742.3433837890625 195.97683715820312 L 675.3433837890625 195.97683715820312 L 675.3433837890625 135.97683715820312 Z" stroke-miterlimit="10" stroke-width="0.5" stroke-dasharray=""/><path fill="#F0F0F0" stroke="none" paint-order="stroke fill markers" d=""/><path fill="none" stroke="none"/><text fill="#505050" stroke="none" font-family="monospace" font-size="14px" font-style="normal" font-weight="normal" text-decoration="normal" x="708.8433837890625" y="153.97683715820312" text-anchor="middle" dominant-baseline="text-after-edge">fibstep</text><path fill="none" stroke="#505050" paint-order="fill stroke markers" d=" M 675.3433837890625 153.97683715820312 L 683.3433837890625 153.97683715820312 L 683.3433837890625 161.97683715820312 L 675.3433837890625 161.97683715820312 L 675.3433837890625 153.97683715820312 Z" stroke-miterlimit="10" stroke-width="0.5" stroke-dasharray=""/><text fill="#505050" stroke="none" font-family="monospace" font-size="14px" font-style="normal" font-weight="normal" text-decoration="normal" x="691.3433837890625" y="167.97683715820312" text-anchor="start" dominant-baseline="text-after-edge">n</text><path fill="none" stroke="#505050" paint-order="fill stroke markers" d=" M 675.3433837890625 167.97683715820312 L 683.3433837890625 167.97683715820312 L 683.3433837890625 175.97683715820312 L 675.3433837890625 175.97683715820312 L 675.3433837890625 167.97683715820312 Z" stroke-miterlimit="10" stroke-width="0.5" stroke-dasharray=""/><text fill="#505050" stroke="none" font-family="monospace" font-size="14px" font-style="normal" font-weight="normal" text-decoration="normal" x="691.3433837890625" y="181.97683715820312" text-anchor="start" dominant-baseline="text-after-edge">v0</text><path fill="none" stroke="#505050" paint-order="fill stroke markers" d=" M 675.3433837890625 181.97683715820312 L 683.3433837890625 181.97683715820312 L 683.3433837890625 189.97683715820312 L 675.3433837890625 189.97683715820312 L 675.3433837890625 181.97683715820312 Z" stroke-miterlimit="10" stroke-width="0.5" stroke-dasharray=""/><text fill="#505050" stroke="none" font-family="monospace" font-size="14px" font-style="normal" font-weight="normal" text-decoration="normal" x="691.3433837890625" y="195.97683715820312" text-anchor="start" dominant-baseline="text-after-edge">v1</text><path fill="none" stroke="#505050" paint-order="fill stroke markers" d=" M 734.3433837890625 153.97683715820312 L 742.3433837890625 153.97683715820312 L 742.3433837890625 161.97683715820312 L 734.3433837890625 161.97683715820312 L 734.3433837890625 153.97683715820312 Z" stroke-miterlimit="10" stroke-width="0.5" stroke-dasharray=""/><path fill="#e0e0e0" stroke="none" paint-order="stroke fill markers" d=" M 888.3972778320312 88.47918701171875 L 880.3972778320312 58.47918701171875 L 880.3972778320312 118.47918701171875 Z M 667.3433837890625 165.97683715820312 L 675.3433837890625 135.97683715820312 L 675.3433837890625 195.97683715820312 Z"/><path fill="none" stroke="none"/><path fill="none" stroke="#e0e0e0" paint-order="fill stroke markers" d=" M 888.3972778320312 88.47918701171875 C 958.6707713162805 88.47918701171875 597.0698903048133 165.97683715820312 667.3433837890625 165.97683715820312" stroke-miterlimit="10" stroke-width="2" stroke-dasharray=""/><path fill="white" stroke="#505050" paint-order="fill stroke markers" d=" M 600.4324951171875 103.98542785644531 L 625.4324951171875 103.98542785644531 L 625.4324951171875 133.9854278564453 L 600.4324951171875 133.9854278564453 L 600.4324951171875 103.98542785644531 Z" stroke-miterlimit="10" stroke-width="0.5" stroke-dasharray=""/><path fill="#F0F0F0" stroke="none" paint-order="stroke fill markers" d=""/><path fill="none" stroke="none"/><text fill="#505050" stroke="none" font-family="monospace" font-size="14px" font-style="normal" font-weight="normal" text-decoration="normal" x="612.9324951171875" y="121.98542785644531" text-anchor="middle" dominant-baseline="text-after-edge">-1</text><path fill="none" stroke="#505050" paint-order="fill stroke markers" d=" M 600.4324951171875 121.98542785644531 L 608.4324951171875 121.98542785644531 L 608.4324951171875 129.9854278564453 L 600.4324951171875 129.9854278564453 L 600.4324951171875 121.98542785644531 Z" stroke-miterlimit="10" stroke-width="0.5" stroke-dasharray=""/><path fill="none" stroke="#505050" paint-order="fill stroke markers" d=" M 617.4324951171875 121.98542785644531 L 625.4324951171875 121.98542785644531 L 625.4324951171875 129.9854278564453 L 617.4324951171875 129.9854278564453 L 617.4324951171875 121.98542785644531 Z" stroke-miterlimit="10" stroke-width="0.5" stroke-dasharray=""/><path fill="white" stroke="#505050" paint-order="fill stroke markers" d=" M 912.2986450195312 116.3226318359375 L 912.2986450195312 186.91722106933594 Q 912.2986450195312 194.91722106933594 920.2986450195312 194.91722106933594 L 1077.5550537109375 194.91722106933594 Q 1085.5550537109375 194.91722106933594 1085.5550537109375 186.91722106933594 L 1085.5550537109375 116.3226318359375 Q 1085.5550537109375 108.3226318359375 1077.5550537109375 108.3226318359375 L 920.2986450195312 108.3226318359375 Q 912.2986450195312 108.3226318359375 912.2986450195312 116.3226318359375" stroke-miterlimit="10" stroke-width="0.5" stroke-dasharray=""/><path fill="#F0F0F0" stroke="#505050" paint-order="fill stroke markers" d=" M 1045.5550537109375 116.3226318359375 L 1085.5550537109375 116.3226318359375 L 1085.5550537109375 148.3226318359375 L 1045.5550537109375 148.3226318359375 L 1045.5550537109375 116.3226318359375 Z" stroke-miterlimit="10" stroke-width="0.5" stroke-dasharray=""/><path fill="none" stroke="none"/><text fill="#505050" stroke="none" font-family="monospace" font-size="14px" font-style="normal" font-weight="normal" text-decoration="normal" x="1065.5550537109375" y="134.3226318359375" text-anchor="middle" dominant-baseline="text-after-edge">Fₖ</text><path fill="none" stroke="#505050" paint-order="fill stroke markers" d=" M 1045.5550537109375 134.3226318359375 L 1053.5550537109375 134.3226318359375 L 1053.5550537109375 142.3226318359375 L 1045.5550537109375 142.3226318359375 L 1045.5550537109375 134.3226318359375 Z" stroke-miterlimit="10" stroke-width="0.5" stroke-dasharray=""/><text fill="#505050" stroke="none" font-family="monospace" font-size="14px" font-style="normal" font-weight="normal" text-decoration="normal" x="1061.5550537109375" y="148.3226318359375" text-anchor="start" dominant-baseline="text-after-edge">n</text><path fill="none" stroke="#505050" paint-order="fill stroke markers" d=" M 1077.5550537109375 134.3226318359375 L 1085.5550537109375 134.3226318359375 L 1085.5550537109375 142.3226318359375 L 1077.5550537109375 142.3226318359375 L 1077.5550537109375 134.3226318359375 Z" stroke-miterlimit="10" stroke-width="0.5" stroke-dasharray=""/><path fill="none" stroke="#505050" paint-order="fill stroke markers" d=" M 963.8395385742188 134.73242950439453 L 955.8395385742188 134.73242950439453 M 1030.8395385742188 134.73242950439453 L 1038.8395385742188 134.73242950439453" stroke-miterlimit="10" stroke-dasharray=""/><path fill="white" stroke="#505050" paint-order="fill stroke markers" d=" M 963.8395385742188 112.73242950439453 L 1030.8395385742188 112.73242950439453 L 1030.8395385742188 172.73242950439453 L 963.8395385742188 172.73242950439453 L 963.8395385742188 112.73242950439453 Z" stroke-miterlimit="10" stroke-width="0.5" stroke-dasharray=""/><path fill="#F0F0F0" stroke="none" paint-order="stroke fill markers" d=""/><path fill="none" stroke="none"/><text fill="#505050" stroke="none" font-family="monospace" font-size="14px" font-style="normal" font-weight="normal" text-decoration="normal" x="997.3395385742188" y="130.73242950439453" text-anchor="middle" dominant-baseline="text-after-edge">fibstep</text><path fill="none" stroke="#505050" paint-order="fill stroke markers" d=" M 963.8395385742188 130.73242950439453 L 971.8395385742188 130.73242950439453 L 971.8395385742188 138.73242950439453 L 963.8395385742188 138.73242950439453 L 963.8395385742188 130.73242950439453 Z" stroke-miterlimit="10" stroke-width="0.5" stroke-dasharray=""/><text fill="#505050" stroke="none" font-family="monospace" font-size="14px" font-style="normal" font-weight="normal" text-decoration="normal" x="979.8395385742188" y="144.73242950439453" text-anchor="start" dominant-baseline="text-after-edge">n</text><path fill="none" stroke="#505050" paint-order="fill stroke markers" d=" M 963.8395385742188 144.73242950439453 L 971.8395385742188 144.73242950439453 L 971.8395385742188 152.73242950439453 L 963.8395385742188 152.73242950439453 L 963.8395385742188 144.73242950439453 Z" stroke-miterlimit="10" stroke-width="0.5" stroke-dasharray=""/><text fill="#505050" stroke="none" font-family="monospace" font-size="14px" font-style="normal" font-weight="normal" text-decoration="normal" x="979.8395385742188" y="158.73242950439453" text-anchor="start" dominant-baseline="text-after-edge">v0</text><path fill="none" stroke="#505050" paint-order="fill stroke markers" d=" M 963.8395385742188 158.73242950439453 L 971.8395385742188 158.73242950439453 L 971.8395385742188 166.73242950439453 L 963.8395385742188 166.73242950439453 L 963.8395385742188 158.73242950439453 Z" stroke-miterlimit="10" stroke-width="0.5" stroke-dasharray=""/><text fill="#505050" stroke="none" font-family="monospace" font-size="14px" font-style="normal" font-weight="normal" text-decoration="normal" x="979.8395385742188" y="172.73242950439453" text-anchor="start" dominant-baseline="text-after-edge">v1</text><path fill="none" stroke="#505050" paint-order="fill stroke markers" d=" M 1022.8395385742188 130.73242950439453 L 1030.8395385742188 130.73242950439453 L 1030.8395385742188 138.73242950439453 L 1022.8395385742188 138.73242950439453 L 1022.8395385742188 130.73242950439453 Z" stroke-miterlimit="10" stroke-width="0.5" stroke-dasharray=""/><path fill="#e0e0e0" stroke="none" paint-order="stroke fill markers" d=" M 888.3972778320312 88.47918701171875 L 880.3972778320312 58.47918701171875 L 880.3972778320312 118.47918701171875 Z M 955.8395385742188 142.73242950439453 L 963.8395385742188 112.73242950439453 L 963.8395385742188 172.73242950439453 Z"/><path fill="none" stroke="none"/><path fill="none" stroke="#e0e0e0" paint-order="fill stroke markers" d=" M 888.3972778320312 88.47918701171875 C 914.3639595019861 88.47918701171875 929.8728569042639 142.73242950439453 955.8395385742188 142.73242950439453" stroke-miterlimit="10" stroke-width="2" stroke-dasharray=""/><path fill="white" stroke="#505050" paint-order="fill stroke markers" d=" M 920.2986450195312 152.8109130859375 L 952.2986450195312 152.8109130859375 L 952.2986450195312 170.8109130859375 L 920.2986450195312 170.8109130859375 L 920.2986450195312 152.8109130859375 Z" stroke-miterlimit="10" stroke-width="0.5" stroke-dasharray=""/><path fill="#F0F0F0" stroke="none" paint-order="stroke fill markers" d=""/><path fill="none" stroke="none"/><path fill="none" stroke="#505050" paint-order="fill stroke markers" d=" M 944.2986450195312 156.8109130859375 L 952.2986450195312 156.8109130859375 L 952.2986450195312 164.8109130859375 L 944.2986450195312 164.8109130859375 L 944.2986450195312 156.8109130859375 Z" stroke-miterlimit="10" stroke-width="0.5" stroke-dasharray=""/><text fill="#505050" stroke="none" font-family="monospace" font-size="14px" font-style="normal" font-weight="normal" text-decoration="normal" x="936.2986450195312" y="170.8109130859375" text-anchor="end" dominant-baseline="text-after-edge">1</text><path fill="white" stroke="#505050" paint-order="fill stroke markers" d=" M 664.0403442382812 275.8443832397461 L 704.0403442382812 275.8443832397461 L 704.0403442382812 307.8443832397461 L 664.0403442382812 307.8443832397461 L 664.0403442382812 275.8443832397461 Z" stroke-miterlimit="10" stroke-width="0.5" stroke-dasharray=""/><path fill="#F0F0F0" stroke="none" paint-order="stroke fill markers" d=""/><path fill="none" stroke="none"/><text fill="#505050" stroke="none" font-family="monospace" font-size="14px" font-style="normal" font-weight="normal" text-decoration="normal" x="684.0403442382812" y="293.8443832397461" text-anchor="middle" dominant-baseline="text-after-edge">Fₖ</text><path fill="none" stroke="#505050" paint-order="fill stroke markers" d=" M 664.0403442382812 293.8443832397461 L 672.0403442382812 293.8443832397461 L 672.0403442382812 301.8443832397461 L 664.0403442382812 301.8443832397461 L 664.0403442382812 293.8443832397461 Z" stroke-miterlimit="10" stroke-width="0.5" stroke-dasharray=""/><text fill="#505050" stroke="none" font-family="monospace" font-size="14px" font-style="normal" font-weight="normal" text-decoration="normal" x="680.0403442382812" y="307.8443832397461" text-anchor="start" dominant-baseline="text-after-edge">n</text><path fill="none" stroke="#505050" paint-order="fill stroke markers" d=" M 696.0403442382812 293.8443832397461 L 704.0403442382812 293.8443832397461 L 704.0403442382812 301.8443832397461 L 696.0403442382812 301.8443832397461 L 696.0403442382812 293.8443832397461 Z" stroke-miterlimit="10" stroke-width="0.5" stroke-dasharray=""/><path fill="white" stroke="#505050" paint-order="fill stroke markers" d=" M 607.2919645309448 290.1853666305542 L 648.2919645309448 290.1853666305542 L 648.2919645309448 308.1853666305542 L 607.2919645309448 308.1853666305542 L 607.2919645309448 290.1853666305542 Z" stroke-miterlimit="10" stroke-width="0.5" stroke-dasharray=""/><path fill="#F0F0F0" stroke="none" paint-order="stroke fill markers" d=""/><path fill="none" stroke="none"/><path fill="none" stroke="#505050" paint-order="fill stroke markers" d=" M 640.2919645309448 294.1853666305542 L 648.2919645309448 294.1853666305542 L 648.2919645309448 302.1853666305542 L 640.2919645309448 302.1853666305542 L 640.2919645309448 294.1853666305542 Z" stroke-miterlimit="10" stroke-width="0.5" stroke-dasharray=""/><text fill="#505050" stroke="none" font-family="monospace" font-size="14px" font-style="normal" font-weight="normal" text-decoration="normal" x="632.2919645309448" y="308.1853666305542" text-anchor="end" dominant-baseline="text-after-edge">20</text><path fill="white" stroke="#505050" paint-order="fill stroke markers" d=" M 722.9579801559448 276.5206022262573 L 840.9579801559448 276.5206022262573 L 840.9579801559448 306.5206022262573 L 722.9579801559448 306.5206022262573 L 722.9579801559448 276.5206022262573 Z" stroke-miterlimit="10" stroke-width="0.5" stroke-dasharray=""/><path fill="#F0F0F0" stroke="none" paint-order="stroke fill markers" d=""/><path fill="none" stroke="none"/><text fill="#505050" stroke="none" font-family="monospace" font-size="14px" font-style="normal" font-weight="normal" text-decoration="normal" x="781.9579801559448" y="294.5206022262573" text-anchor="middle" dominant-baseline="text-after-edge">console.print</text><path fill="none" stroke="#505050" paint-order="fill stroke markers" d=" M 722.9579801559448 294.5206022262573 L 730.9579801559448 294.5206022262573 L 730.9579801559448 302.5206022262573 L 722.9579801559448 302.5206022262573 L 722.9579801559448 294.5206022262573 Z" stroke-miterlimit="10" stroke-width="0.5" stroke-dasharray=""/><path fill="none" stroke="#505050" paint-order="fill stroke markers" d=" M 648.2919645309448 298.1853666305542 C 653.017585757528 298.1853666305542 659.3147230116981 297.8443832397461 664.0403442382812 297.8443832397461" stroke-miterlimit="10" stroke-dasharray=""/><path fill="none" stroke="#505050" paint-order="fill stroke markers" d=" M 704.0403442382812 297.8443832397461 C 709.7192596166602 297.8443832397461 717.2790647775658 298.5206022262573 722.9579801559448 298.5206022262573" stroke-miterlimit="10" stroke-dasharray=""/><path fill="none" stroke="#505050" paint-order="fill stroke markers" d=" M 413.78472900390625 86.46854400634766 C 416.7534075199407 86.46854400634766 420.7068433345515 86.77679443359375 423.67552185058594 86.77679443359375" stroke-miterlimit="10" stroke-dasharray=""/><path fill="none" stroke="#505050" paint-order="fill stroke markers" d=" M 680.5964965820312 100.05340576171875 C 689.6296822407982 100.05340576171875 701.1453421732643 94.43621826171875 710.1785278320312 94.43621826171875" stroke-miterlimit="10" stroke-dasharray=""/><path fill="none" stroke="#505050" paint-order="fill stroke markers" d=" M 573.4633178710938 66.37407684326172 C 614.7599726017723 66.37407684326172 668.8818731013527 82.43621826171875 710.1785278320312 82.43621826171875" stroke-miterlimit="10" stroke-dasharray=""/><path fill="none" stroke="#505050" paint-order="fill stroke markers" d=" M 583.0925903320312 187.97137451171875 C 603.0772871789375 187.97137451171875 619.857893485125 222.85809326171875 639.8425903320312 222.85809326171875" stroke-miterlimit="10" stroke-dasharray=""/><path fill="none" stroke="#505050" paint-order="fill stroke markers" d=" M 582.5847778320312 151.12762451171875 C 607.4072825212078 151.12762451171875 615.0200856428547 210.85809326171875 639.8425903320312 210.85809326171875" stroke-miterlimit="10" stroke-dasharray=""/><path fill="none" stroke="#505050" paint-order="fill stroke markers" d=" M 582.5847778320312 151.12762451171875 C 634.664784900614 151.12762451171875 701.3734841423548 120.45433044433594 753.4534912109375 120.45433044433594" stroke-miterlimit="10" stroke-dasharray=""/><path fill="none" stroke="#505050" paint-order="fill stroke markers" d=" M 735.1785278320312 82.43621826171875 C 744.7170015214789 82.43621826171875 743.9150175214899 108.45433044433594 753.4534912109375 108.45433044433594" stroke-miterlimit="10" stroke-dasharray=""/><path fill="none" stroke="#505050" paint-order="fill stroke markers" d=" M 777.4534912109375 108.45433044433594 C 780.9860431895285 108.45433044433594 785.6959026112528 108.5246353149414 789.2284545898438 108.5246353149414" stroke-miterlimit="10" stroke-dasharray=""/><path fill="none" stroke="#505050" paint-order="fill stroke markers" d=" M 583.0925903320312 187.97137451171875 C 611.1807207552979 187.97137451171875 647.2552533657959 171.97683715820312 675.3433837890625 171.97683715820312" stroke-miterlimit="10" stroke-dasharray=""/><path fill="none" stroke="#505050" paint-order="fill stroke markers" d=" M 663.8425903320312 210.85809326171875 C 672.0657931137157 210.85809326171875 667.120181007378 185.97683715820312 675.3433837890625 185.97683715820312" stroke-miterlimit="10" stroke-dasharray=""/><path fill="none" stroke="#505050" paint-order="fill stroke markers" d=" M 742.3433837890625 157.97683715820312 C 750.6941295778918 157.97683715820312 745.1027454221082 132.45433044433594 753.4534912109375 132.45433044433594" stroke-miterlimit="10" stroke-dasharray=""/><path fill="none" stroke="#505050" paint-order="fill stroke markers" d=" M 573.4633178710938 66.37407684326172 C 593.0917786407348 66.37407684326172 580.8040343475465 125.98542785644531 600.4324951171875 125.98542785644531" stroke-miterlimit="10" stroke-dasharray=""/><path fill="none" stroke="#505050" paint-order="fill stroke markers" d=" M 625.4324951171875 125.98542785644531 C 643.2175797934436 125.98542785644531 657.5582991128064 157.97683715820312 675.3433837890625 157.97683715820312" stroke-miterlimit="10" stroke-dasharray=""/><path fill="none" stroke="#505050" paint-order="fill stroke markers" d=" M 952.2986450195312 160.8109130859375 C 955.8085738571051 160.8109130859375 960.3296097366449 162.73242950439453 963.8395385742188 162.73242950439453" stroke-miterlimit="10" stroke-dasharray=""/><path fill="none" stroke="#505050" paint-order="fill stroke markers" d=" M 952.2986450195312 160.8109130859375 C 957.3103691809672 160.8109130859375 958.8278144127828 148.73242950439453 963.8395385742188 148.73242950439453" stroke-miterlimit="10" stroke-dasharray=""/></g></g></svg>