<svg version="1.1" xmlns="http://www.w3.org/2000/svg" xmlns:xlink="http://www.w3.org/1999/xlink" width="848.0249633789062" height="198.48983001708984"><defs/><g transform="translate(-317.95782470703125,-52.15235137939453)"><g><path fill="white" stroke="#505050" paint-order="fill stroke markers" d=" M 318.95782470703125 61.15235137939453 L 318.95782470703125 135.86328887939453 Q 318.95782470703125 143.86328887939453 326.95782470703125 143.86328887939453 L 437.5774841308594 143.86328887939453 Q 445.5774841308594 143.86328887939453 445.5774841308594 135.86328887939453 L 445.5774841308594 61.15235137939453 Q 445.5774841308594 53.15235137939453 437.5774841308594 53.15235137939453 L 326.95782470703125 53.15235137939453 Q 318.95782470703125 53.15235137939453 318.95782470703125 61.15235137939453" stroke-miterlimit="10" stroke-width="0.5" stroke-dasharray=""/><path fill="#F0F0F0" stroke="#505050" paint-order="fill stroke markers" d=" M 420.5774841308594 61.15235137939453 L 445.5774841308594 61.15235137939453 L 445.5774841308594 91.15235137939453 L 420.5774841308594 91.15235137939453 L 420.5774841308594 61.15235137939453 Z" stroke-miterlimit="10" stroke-width="0.5" stroke-dasharray=""/><text fill="#505050" stroke="none" font-family="monospace" font-size="14px" font-style="normal" font-weight="normal" text-decoration="normal" x="433.0774841308594" y="79.15235137939453" text-anchor="middle" dominant-baseline="text-after-edge">-1</text><path fill="none" stroke="#505050" paint-order="fill stroke markers" d=" M 420.5774841308594 79.15235137939453 L 428.5774841308594 79.15235137939453 L 428.5774841308594 87.15235137939453 L 420.5774841308594 87.15235137939453 L 420.5774841308594 79.15235137939453 Z" stroke-miterlimit="10" stroke-width="0.5" stroke-dasharray=""/><path fill="none" stroke="#505050" paint-order="fill stroke markers" d=" M 437.5774841308594 79.15235137939453 L 445.5774841308594 79.15235137939453 L 445.5774841308594 87.15235137939453 L 437.5774841308594 87.15235137939453 L 437.5774841308594 79.15235137939453 Z" stroke-miterlimit="10" stroke-width="0.5" stroke-dasharray=""/><path fill="white" stroke="#505050" paint-order="fill stroke markers" d=" M 366.5945587158203 77.28673553466797 L 390.5945587158203 77.28673553466797 L 390.5945587158203 119.28673553466797 L 366.5945587158203 119.28673553466797 L 366.5945587158203 77.28673553466797 Z" stroke-miterlimit="10" stroke-width="0.5" stroke-dasharray=""/><path fill="#F0F0F0" stroke="none" paint-order="stroke fill markers" d=""/><text fill="#505050" stroke="none" font-family="monospace" font-size="14px" font-style="normal" font-weight="normal" text-decoration="normal" x="378.5945587158203" y="95.28673553466797" text-anchor="middle" dominant-baseline="text-after-edge">-</text><path fill="none" stroke="#505050" paint-order="fill stroke markers" d=" M 366.5945587158203 95.28673553466797 L 374.5945587158203 95.28673553466797 L 374.5945587158203 103.28673553466797 L 366.5945587158203 103.28673553466797 L 366.5945587158203 95.28673553466797 Z" stroke-miterlimit="10" stroke-width="0.5" stroke-dasharray=""/><path fill="none" stroke="#505050" paint-order="fill stroke markers" d=" M 366.5945587158203 107.28673553466797 L 374.5945587158203 107.28673553466797 L 374.5945587158203 115.28673553466797 L 366.5945587158203 115.28673553466797 L 366.5945587158203 107.28673553466797 Z" stroke-miterlimit="10" stroke-width="0.5" stroke-dasharray=""/><path fill="none" stroke="#505050" paint-order="fill stroke markers" d=" M 382.5945587158203 95.28673553466797 L 390.5945587158203 95.28673553466797 L 390.5945587158203 103.28673553466797 L 382.5945587158203 103.28673553466797 L 382.5945587158203 95.28673553466797 Z" stroke-miterlimit="10" stroke-width="0.5" stroke-dasharray=""/><path fill="white" stroke="#505050" paint-order="fill stroke markers" d=" M 402.6274871826172 92.22819519042969 L 410.6274871826172 92.22819519042969 L 418.6274871826172 100.22819519042969 L 410.6274871826172 108.22819519042969 L 402.6274871826172 108.22819519042969 L 402.6274871826172 92.22819519042969" stroke-miterlimit="10" stroke-width="0.5" stroke-dasharray=""/><path fill="none" stroke="#505050" paint-order="fill stroke markers" d=" M 402.6274871826172 96.22819519042969 L 410.6274871826172 96.22819519042969 L 410.6274871826172 104.22819519042969 L 402.6274871826172 104.22819519042969 L 402.6274871826172 96.22819519042969 Z" stroke-miterlimit="10" stroke-width="0.5" stroke-dasharray=""/><path fill="white" stroke="#505050" paint-order="fill stroke markers" d=" M 321.7226867675781 109.86328887939453 L 353.7226867675781 109.86328887939453 L 353.7226867675781 127.86328887939453 L 321.7226867675781 127.86328887939453 L 321.7226867675781 109.86328887939453 Z" stroke-miterlimit="10" stroke-width="0.5" stroke-dasharray=""/><path fill="#F0F0F0" stroke="none" paint-order="stroke fill markers" d=""/><path fill="none" stroke="#505050" paint-order="fill stroke markers" d=" M 345.7226867675781 114.86328887939453 L 353.7226867675781 114.86328887939453 L 353.7226867675781 122.86328887939453 L 345.7226867675781 122.86328887939453 L 345.7226867675781 114.86328887939453 Z" stroke-miterlimit="10" stroke-width="0.5" stroke-dasharray=""/><text fill="#505050" stroke="none" font-family="monospace" font-size="14px" font-style="normal" font-weight="normal" text-decoration="normal" x="337.7226867675781" y="127.86328887939453" text-anchor="end" dominant-baseline="text-after-edge">1</text><path fill="white" stroke="#505050" paint-order="fill stroke markers" d=" M 325.8172149658203 78.68126678466797 L 341.8172149658203 78.68126678466797 L 341.8172149658203 94.68126678466797 L 325.8172149658203 94.68126678466797 L 333.8172149658203 86.68126678466797 L 325.8172149658203 78.68126678466797" stroke-miterlimit="10" stroke-width="0.5" stroke-dasharray=""/><path fill="none" stroke="#505050" paint-order="fill stroke markers" d=" M 333.8172149658203 82.68126678466797 L 341.8172149658203 82.68126678466797 L 341.8172149658203 90.68126678466797 L 333.8172149658203 90.68126678466797 L 333.8172149658203 82.68126678466797 Z" stroke-miterlimit="10" stroke-width="0.5" stroke-dasharray=""/><path fill="white" stroke="#505050" paint-order="fill stroke markers" d=" M 477.17498779296875 61.263275146484375 L 477.17498779296875 241.64218139648438 Q 477.17498779296875 249.64218139648438 485.17498779296875 249.64218139648438 L 815.9874877929688 249.64218139648438 Q 823.9874877929688 249.64218139648438 823.9874877929688 241.64218139648438 L 823.9874877929688 61.263275146484375 Q 823.9874877929688 53.263275146484375 815.9874877929688 53.263275146484375 L 485.17498779296875 53.263275146484375 Q 477.17498779296875 53.263275146484375 477.17498779296875 61.263275146484375" stroke-miterlimit="10" stroke-width="0.5" stroke-dasharray=""/><path fill="#F0F0F0" stroke="#505050" paint-order="fill stroke markers" d=" M 756.9874877929688 61.263275146484375 L 823.9874877929688 61.263275146484375 L 823.9874877929688 121.26327514648438 L 756.9874877929688 121.26327514648438 L 756.9874877929688 61.263275146484375 Z" stroke-miterlimit="10" stroke-width="0.5" stroke-dasharray=""/><text fill="#505050" stroke="none" font-family="monospace" font-size="14px" font-style="normal" font-weight="normal" text-decoration="normal" x="790.4874877929688" y="79.26327514648438" text-anchor="middle" dominant-baseline="text-after-edge">fibstep</text><path fill="none" stroke="#505050" paint-order="fill stroke markers" d=" M 756.9874877929688 80.26327514648438 L 764.9874877929688 80.26327514648438 L 764.9874877929688 88.26327514648438 L 756.9874877929688 88.26327514648438 L 756.9874877929688 80.26327514648438 Z" stroke-miterlimit="10" stroke-width="0.5" stroke-dasharray=""/><text fill="#505050" stroke="none" font-family="monospace" font-size="14px" font-style="normal" font-weight="normal" text-decoration="normal" x="772.9874877929688" y="93.26327514648438" text-anchor="start" dominant-baseline="text-after-edge">n</text><path fill="none" stroke="#505050" paint-order="fill stroke markers" d=" M 756.9874877929688 94.26327514648438 L 764.9874877929688 94.26327514648438 L 764.9874877929688 102.26327514648438 L 756.9874877929688 102.26327514648438 L 756.9874877929688 94.26327514648438 Z" stroke-miterlimit="10" stroke-width="0.5" stroke-dasharray=""/><text fill="#505050" stroke="none" font-family="monospace" font-size="14px" font-style="normal" font-weight="normal" text-decoration="normal" x="772.9874877929688" y="107.26327514648438" text-anchor="start" dominant-baseline="text-after-edge">v0</text><path fill="none" stroke="#505050" paint-order="fill stroke markers" d=" M 756.9874877929688 108.26327514648438 L 764.9874877929688 108.26327514648438 L 764.9874877929688 116.26327514648438 L 756.9874877929688 116.26327514648438 L 756.9874877929688 108.26327514648438 Z" stroke-miterlimit="10" stroke-width="0.5" stroke-dasharray=""/><text fill="#505050" stroke="none" font-family="monospace" font-size="14px" font-style="normal" font-weight="normal" text-decoration="normal" x="772.9874877929688" y="121.26327514648438" text-anchor="start" dominant-baseline="text-after-edge">v1</text><path fill="none" stroke="#505050" paint-order="fill stroke markers" d=" M 815.9874877929688 79.26327514648438 L 823.9874877929688 79.26327514648438 L 823.9874877929688 87.26327514648438 L 815.9874877929688 87.26327514648438 L 815.9874877929688 79.26327514648438 Z" stroke-miterlimit="10" stroke-width="0.5" stroke-dasharray=""/><path fill="white" stroke="#505050" paint-order="fill stroke markers" d=" M 697.043701171875 89.23841857910156 L 721.043701171875 89.23841857910156 L 721.043701171875 143.23841857910156 L 697.043701171875 143.23841857910156 L 697.043701171875 89.23841857910156 Z" stroke-miterlimit="10" stroke-width="0.5" stroke-dasharray=""/><path fill="#F0F0F0" stroke="none" paint-order="stroke fill markers" d=""/><text fill="#505050" stroke="none" font-family="monospace" font-size="14px" font-style="normal" font-weight="normal" text-decoration="normal" x="709.043701171875" y="107.23841857910156" text-anchor="middle" dominant-baseline="text-after-edge">?</text><path fill="none" stroke="#505050" paint-order="fill stroke markers" d=" M 697.043701171875 107.23841857910156 L 705.043701171875 107.23841857910156 L 705.043701171875 115.23841857910156 L 697.043701171875 115.23841857910156 L 697.043701171875 107.23841857910156 Z" stroke-miterlimit="10" stroke-width="0.5" stroke-dasharray=""/><path fill="none" stroke="#505050" paint-order="fill stroke markers" d=" M 697.043701171875 119.23841857910156 L 705.043701171875 119.23841857910156 L 705.043701171875 127.23841857910156 L 697.043701171875 127.23841857910156 L 697.043701171875 119.23841857910156 Z" stroke-miterlimit="10" stroke-width="0.5" stroke-dasharray=""/><path fill="none" stroke="#505050" paint-order="fill stroke markers" d=" M 697.043701171875 131.23841857910156 L 705.043701171875 131.23841857910156 L 705.043701171875 139.23841857910156 L 697.043701171875 139.23841857910156 L 697.043701171875 131.23841857910156 Z" stroke-miterlimit="10" stroke-width="0.5" stroke-dasharray=""/><path fill="none" stroke="#505050" paint-order="fill stroke markers" d=" M 713.043701171875 107.23841857910156 L 721.043701171875 107.23841857910156 L 721.043701171875 115.23841857910156 L 713.043701171875 115.23841857910156 L 713.043701171875 107.23841857910156 Z" stroke-miterlimit="10" stroke-width="0.5" stroke-dasharray=""/><path fill="white" stroke="#505050" paint-order="fill stroke markers" d=" M 485.17498779296875 145.91171264648438 L 526.1749877929688 145.91171264648438 L 526.1749877929688 163.91171264648438 L 485.17498779296875 163.91171264648438 L 493.17498779296875 154.91171264648438 L 485.17498779296875 145.91171264648438" stroke-miterlimit="10" stroke-width="0.5" stroke-dasharray=""/><path fill="none" stroke="#505050" paint-order="fill stroke markers" d=" M 518.1749877929688 150.91171264648438 L 526.1749877929688 150.91171264648438 L 526.1749877929688 158.91171264648438 L 518.1749877929688 158.91171264648438 L 518.1749877929688 150.91171264648438 Z" stroke-miterlimit="10" stroke-width="0.5" stroke-dasharray=""/><text fill="#505050" stroke="none" font-family="monospace" font-size="14px" font-style="normal" font-weight="normal" text-decoration="normal" x="510.17498779296875" y="163.91171264648438" text-anchor="end" dominant-baseline="text-after-edge">v0</text><path fill="white" stroke="#505050" paint-order="fill stroke markers" d=" M 583.4328002929688 191.64218139648438 L 607.4328002929688 191.64218139648438 L 607.4328002929688 233.64218139648438 L 583.4328002929688 233.64218139648438 L 583.4328002929688 191.64218139648438 Z" stroke-miterlimit="10" stroke-width="0.5" stroke-dasharray=""/><path fill="#F0F0F0" stroke="none" paint-order="stroke fill markers" d=""/><text fill="#505050" stroke="none" font-family="monospace" font-size="14px" font-style="normal" font-weight="normal" text-decoration="normal" x="595.4328002929688" y="209.64218139648438" text-anchor="middle" dominant-baseline="text-after-edge">+</text><path fill="none" stroke="#505050" paint-order="fill stroke markers" d=" M 583.4328002929688 209.64218139648438 L 591.4328002929688 209.64218139648438 L 591.4328002929688 217.64218139648438 L 583.4328002929688 217.64218139648438 L 583.4328002929688 209.64218139648438 Z" stroke-miterlimit="10" stroke-width="0.5" stroke-dasharray=""/><path fill="none" stroke="#505050" paint-order="fill stroke markers" d=" M 583.4328002929688 221.64218139648438 L 591.4328002929688 221.64218139648438 L 591.4328002929688 229.64218139648438 L 583.4328002929688 229.64218139648438 L 583.4328002929688 221.64218139648438 Z" stroke-miterlimit="10" stroke-width="0.5" stroke-dasharray=""/><path fill="none" stroke="#505050" paint-order="fill stroke markers" d=" M 599.4328002929688 209.64218139648438 L 607.4328002929688 209.64218139648438 L 607.4328002929688 217.64218139648438 L 599.4328002929688 217.64218139648438 L 599.4328002929688 209.64218139648438 Z" stroke-miterlimit="10" stroke-width="0.5" stroke-dasharray=""/><path fill="white" stroke="#505050" paint-order="fill stroke markers" d=" M 485.68280029296875 174.20077514648438 L 526.6828002929688 174.20077514648438 L 526.6828002929688 192.20077514648438 L 485.68280029296875 192.20077514648438 L 493.68280029296875 183.20077514648438 L 485.68280029296875 174.20077514648438" stroke-miterlimit="10" stroke-width="0.5" stroke-dasharray=""/><path fill="none" stroke="#505050" paint-order="fill stroke markers" d=" M 518.6828002929688 179.20077514648438 L 526.6828002929688 179.20077514648438 L 526.6828002929688 187.20077514648438 L 518.6828002929688 187.20077514648438 L 518.6828002929688 179.20077514648438 Z" stroke-miterlimit="10" stroke-width="0.5" stroke-dasharray=""/><text fill="#505050" stroke="none" font-family="monospace" font-size="14px" font-style="normal" font-weight="normal" text-decoration="normal" x="510.68280029296875" y="192.20077514648438" text-anchor="end" dominant-baseline="text-after-edge">v1</text><path fill="white" stroke="#505050" paint-order="fill stroke markers" d=" M 653.7687377929688 63.220306396484375 L 678.7687377929688 63.220306396484375 L 678.7687377929688 105.22030639648438 L 653.7687377929688 105.22030639648438 L 653.7687377929688 63.220306396484375 Z" stroke-miterlimit="10" stroke-width="0.5" stroke-dasharray=""/><path fill="#F0F0F0" stroke="none" paint-order="stroke fill markers" d=""/><text fill="#505050" stroke="none" font-family="monospace" font-size="14px" font-style="normal" font-weight="normal" text-decoration="normal" x="666.2687377929688" y="81.22030639648438" text-anchor="middle" dominant-baseline="text-after-edge">&lt;=</text><path fill="none" stroke="#505050" paint-order="fill stroke markers" d=" M 653.7687377929688 81.22030639648438 L 661.7687377929688 81.22030639648438 L 661.7687377929688 89.22030639648438 L 653.7687377929688 89.22030639648438 L 653.7687377929688 81.22030639648438 Z" stroke-miterlimit="10" stroke-width="0.5" stroke-dasharray=""/><path fill="none" stroke="#505050" paint-order="fill stroke markers" d=" M 653.7687377929688 93.22030639648438 L 661.7687377929688 93.22030639648438 L 661.7687377929688 101.22030639648438 L 653.7687377929688 101.22030639648438 L 653.7687377929688 93.22030639648438 Z" stroke-miterlimit="10" stroke-width="0.5" stroke-dasharray=""/><path fill="none" stroke="#505050" paint-order="fill stroke markers" d=" M 670.7687377929688 81.22030639648438 L 678.7687377929688 81.22030639648438 L 678.7687377929688 89.22030639648438 L 670.7687377929688 89.22030639648438 L 670.7687377929688 81.22030639648438 Z" stroke-miterlimit="10" stroke-width="0.5" stroke-dasharray=""/><path fill="white" stroke="#505050" paint-order="fill stroke markers" d=" M 592.1867065429688 94.83749389648438 L 624.1867065429688 94.83749389648438 L 624.1867065429688 112.83749389648438 L 592.1867065429688 112.83749389648438 L 592.1867065429688 94.83749389648438 Z" stroke-miterlimit="10" stroke-width="0.5" stroke-dasharray=""/><path fill="#F0F0F0" stroke="none" paint-order="stroke fill markers" d=""/><path fill="none" stroke="#505050" paint-order="fill stroke markers" d=" M 616.1867065429688 99.83749389648438 L 624.1867065429688 99.83749389648438 L 624.1867065429688 107.83749389648438 L 616.1867065429688 107.83749389648438 L 616.1867065429688 99.83749389648438 Z" stroke-miterlimit="10" stroke-width="0.5" stroke-dasharray=""/><text fill="#505050" stroke="none" font-family="monospace" font-size="14px" font-style="normal" font-weight="normal" text-decoration="normal" x="608.1867065429688" y="112.83749389648438" text-anchor="end" dominant-baseline="text-after-edge">1</text><path fill="white" stroke="#505050" paint-order="fill stroke markers" d=" M 491.92498779296875 63.896087646484375 L 523.9249877929688 63.896087646484375 L 523.9249877929688 81.89608764648438 L 491.92498779296875 81.89608764648438 L 499.92498779296875 72.89608764648438 L 491.92498779296875 63.896087646484375" stroke-miterlimit="10" stroke-width="0.5" stroke-dasharray=""/><path fill="none" stroke="#505050" paint-order="fill stroke markers" d=" M 515.9249877929688 68.89608764648438 L 523.9249877929688 68.89608764648438 L 523.9249877929688 76.89608764648438 L 515.9249877929688 76.89608764648438 L 515.9249877929688 68.89608764648438 Z" stroke-miterlimit="10" stroke-width="0.5" stroke-dasharray=""/><text fill="#505050" stroke="none" font-family="monospace" font-size="14px" font-style="normal" font-weight="normal" text-decoration="normal" x="507.92498779296875" y="81.89608764648438" text-anchor="end" dominant-baseline="text-after-edge">n</text><path fill="white" stroke="#505050" paint-order="fill stroke markers" d=" M 732.8186645507812 103.30872344970703 L 740.8186645507812 103.30872344970703 L 748.8186645507812 111.30872344970703 L 740.8186645507812 119.30872344970703 L 732.8186645507812 119.30872344970703 L 732.8186645507812 103.30872344970703" stroke-miterlimit="10" stroke-width="0.5" stroke-dasharray=""/><path fill="none" stroke="#505050" paint-order="fill stroke markers" d=" M 732.8186645507812 107.30872344970703 L 740.8186645507812 107.30872344970703 L 740.8186645507812 115.30872344970703 L 732.8186645507812 115.30872344970703 L 732.8186645507812 107.30872344970703 Z" stroke-miterlimit="10" stroke-width="0.5" stroke-dasharray=""/><path fill="white" stroke="#505050" paint-order="fill stroke markers" d=" M 618.93359375 138.76092529296875 L 685.93359375 138.76092529296875 L 685.93359375 198.76092529296875 L 618.93359375 198.76092529296875 L 618.93359375 138.76092529296875 Z" stroke-miterlimit="10" stroke-width="0.5" stroke-dasharray=""/><path fill="#F0F0F0" stroke="none" paint-order="stroke fill markers" d=""/><text fill="#505050" stroke="none" font-family="monospace" font-size="14px" font-style="normal" font-weight="normal" text-decoration="normal" x="652.43359375" y="156.76092529296875" text-anchor="middle" dominant-baseline="text-after-edge">fibstep</text><path fill="none" stroke="#505050" paint-order="fill stroke markers" d=" M 618.93359375 157.76092529296875 L 626.93359375 157.76092529296875 L 626.93359375 165.76092529296875 L 618.93359375 165.76092529296875 L 618.93359375 157.76092529296875 Z" stroke-miterlimit="10" stroke-width="0.5" stroke-dasharray=""/><text fill="#505050" stroke="none" font-family="monospace" font-size="14px" font-style="normal" font-weight="normal" text-decoration="normal" x="634.93359375" y="170.76092529296875" text-anchor="start" dominant-baseline="text-after-edge">n</text><path fill="none" stroke="#505050" paint-order="fill stroke markers" d=" M 618.93359375 171.76092529296875 L 626.93359375 171.76092529296875 L 626.93359375 179.76092529296875 L 618.93359375 179.76092529296875 L 618.93359375 171.76092529296875 Z" stroke-miterlimit="10" stroke-width="0.5" stroke-dasharray=""/><text fill="#505050" stroke="none" font-family="monospace" font-size="14px" font-style="normal" font-weight="normal" text-decoration="normal" x="634.93359375" y="184.76092529296875" text-anchor="start" dominant-baseline="text-after-edge">v0</text><path fill="none" stroke="#505050" paint-order="fill stroke markers" d=" M 618.93359375 185.76092529296875 L 626.93359375 185.76092529296875 L 626.93359375 193.76092529296875 L 618.93359375 193.76092529296875 L 618.93359375 185.76092529296875 Z" stroke-miterlimit="10" stroke-width="0.5" stroke-dasharray=""/><text fill="#505050" stroke="none" font-family="monospace" font-size="14px" font-style="normal" font-weight="normal" text-decoration="normal" x="634.93359375" y="198.76092529296875" text-anchor="start" dominant-baseline="text-after-edge">v1</text><path fill="none" stroke="#505050" paint-order="fill stroke markers" d=" M 677.93359375 156.76092529296875 L 685.93359375 156.76092529296875 L 685.93359375 164.76092529296875 L 677.93359375 164.76092529296875 L 677.93359375 156.76092529296875 Z" stroke-miterlimit="10" stroke-width="0.5" stroke-dasharray=""/><path fill="#e0e0e0" stroke="none" paint-order="stroke fill markers" d=" M 831.9874877929688 91.26327514648438 L 823.9874877929688 61.263275146484375 L 823.9874877929688 121.26327514648438 Z M 610.93359375 168.76092529296875 L 618.93359375 138.76092529296875 L 618.93359375 198.76092529296875 Z"/><path fill="none" stroke="none"/><path fill="none" stroke="#e0e0e0" paint-order="fill stroke markers" d=" M 831.9874877929688 91.26327514648438 C 902.260981277218 91.26327514648438 540.6601002657508 168.76092529296875 610.93359375 168.76092529296875" stroke-miterlimit="10" stroke-width="2" stroke-dasharray=""/><path fill="white" stroke="#505050" paint-order="fill stroke markers" d=" M 544.022705078125 106.76951599121094 L 569.022705078125 106.76951599121094 L 569.022705078125 136.76951599121094 L 544.022705078125 136.76951599121094 L 544.022705078125 106.76951599121094 Z" stroke-miterlimit="10" stroke-width="0.5" stroke-dasharray=""/><path fill="#F0F0F0" stroke="none" paint-order="stroke fill markers" d=""/><text fill="#505050" stroke="none" font-family="monospace" font-size="14px" font-style="normal" font-weight="normal" text-decoration="normal" x="556.522705078125" y="124.76951599121094" text-anchor="middle" dominant-baseline="text-after-edge">-1</text><path fill="none" stroke="#505050" paint-order="fill stroke markers" d=" M 544.022705078125 124.76951599121094 L 552.022705078125 124.76951599121094 L 552.022705078125 132.76951599121094 L 544.022705078125 132.76951599121094 L 544.022705078125 124.76951599121094 Z" stroke-miterlimit="10" stroke-width="0.5" stroke-dasharray=""/><path fill="none" stroke="#505050" paint-order="fill stroke markers" d=" M 561.022705078125 124.76951599121094 L 569.022705078125 124.76951599121094 L 569.022705078125 132.76951599121094 L 561.022705078125 132.76951599121094 L 561.022705078125 124.76951599121094 Z" stroke-miterlimit="10" stroke-width="0.5" stroke-dasharray=""/><path fill="white" stroke="#505050" paint-order="fill stroke markers" d=" M 860.5265502929688 63.3929443359375 L 860.5265502929688 133.90231323242188 Q 860.5265502929688 141.90231323242188 868.5265502929688 141.90231323242188 L 1083.76953125 141.90231323242188 Q 1091.76953125 141.90231323242188 1091.76953125 133.90231323242188 L 1091.76953125 63.3929443359375 Q 1091.76953125 55.3929443359375 1083.76953125 55.3929443359375 L 868.5265502929688 55.3929443359375 Q 860.5265502929688 55.3929443359375 860.5265502929688 63.3929443359375" stroke-miterlimit="10" stroke-width="0.5" stroke-dasharray=""/><path fill="#F0F0F0" stroke="#505050" paint-order="fill stroke markers" d=" M 1067.76953125 63.3929443359375 L 1091.76953125 63.3929443359375 L 1091.76953125 93.3929443359375 L 1067.76953125 93.3929443359375 L 1067.76953125 63.3929443359375 Z" stroke-miterlimit="10" stroke-width="0.5" stroke-dasharray=""/><text fill="#505050" stroke="none" font-family="monospace" font-size="14px" font-style="normal" font-weight="normal" text-decoration="normal" x="1079.76953125" y="81.3929443359375" text-anchor="middle" dominant-baseline="text-after-edge">Fₖ</text><path fill="none" stroke="#505050" paint-order="fill stroke markers" d=" M 1067.76953125 81.3929443359375 L 1075.76953125 81.3929443359375 L 1075.76953125 89.3929443359375 L 1067.76953125 89.3929443359375 L 1067.76953125 81.3929443359375 Z" stroke-miterlimit="10" stroke-width="0.5" stroke-dasharray=""/><path fill="none" stroke="#505050" paint-order="fill stroke markers" d=" M 1083.76953125 81.3929443359375 L 1091.76953125 81.3929443359375 L 1091.76953125 89.3929443359375 L 1083.76953125 89.3929443359375 L 1083.76953125 81.3929443359375 Z" stroke-miterlimit="10" stroke-width="0.5" stroke-dasharray=""/><path fill="white" stroke="#505050" paint-order="fill stroke markers" d=" M 887.9640502929688 69.9320068359375 L 903.9640502929688 69.9320068359375 L 903.9640502929688 85.9320068359375 L 887.9640502929688 85.9320068359375 L 895.9640502929688 77.9320068359375 L 887.9640502929688 69.9320068359375" stroke-miterlimit="10" stroke-width="0.5" stroke-dasharray=""/><path fill="none" stroke="#505050" paint-order="fill stroke markers" d=" M 895.9640502929688 73.9320068359375 L 903.9640502929688 73.9320068359375 L 903.9640502929688 81.9320068359375 L 895.9640502929688 81.9320068359375 L 895.9640502929688 73.9320068359375 Z" stroke-miterlimit="10" stroke-width="0.5" stroke-dasharray=""/><path fill="white" stroke="#505050" paint-order="fill stroke markers" d=" M 955.5617065429688 63.3929443359375 L 1022.5617065429688 63.3929443359375 L 1022.5617065429688 123.3929443359375 L 955.5617065429688 123.3929443359375 L 955.5617065429688 63.3929443359375 Z" stroke-miterlimit="10" stroke-width="0.5" stroke-dasharray=""/><path fill="#F0F0F0" stroke="none" paint-order="stroke fill markers" d=""/><text fill="#505050" stroke="none" font-family="monospace" font-size="14px" font-style="normal" font-weight="normal" text-decoration="normal" x="989.0617065429688" y="81.3929443359375" text-anchor="middle" dominant-baseline="text-after-edge">fibstep</text><path fill="none" stroke="#505050" paint-order="fill stroke markers" d=" M 955.5617065429688 82.3929443359375 L 963.5617065429688 82.3929443359375 L 963.5617065429688 90.3929443359375 L 955.5617065429688 90.3929443359375 L 955.5617065429688 82.3929443359375 Z" stroke-miterlimit="10" stroke-width="0.5" stroke-dasharray=""/><text fill="#505050" stroke="none" font-family="monospace" font-size="14px" font-style="normal" font-weight="normal" text-decoration="normal" x="971.5617065429688" y="95.3929443359375" text-anchor="start" dominant-baseline="text-after-edge">n</text><path fill="none" stroke="#505050" paint-order="fill stroke markers" d=" M 955.5617065429688 96.3929443359375 L 963.5617065429688 96.3929443359375 L 963.5617065429688 104.3929443359375 L 955.5617065429688 104.3929443359375 L 955.5617065429688 96.3929443359375 Z" stroke-miterlimit="10" stroke-width="0.5" stroke-dasharray=""/><text fill="#505050" stroke="none" font-family="monospace" font-size="14px" font-style="normal" font-weight="normal" text-decoration="normal" x="971.5617065429688" y="109.3929443359375" text-anchor="start" dominant-baseline="text-after-edge">v0</text><path fill="none" stroke="#505050" paint-order="fill stroke markers" d=" M 955.5617065429688 110.3929443359375 L 963.5617065429688 110.3929443359375 L 963.5617065429688 118.3929443359375 L 955.5617065429688 118.3929443359375 L 955.5617065429688 110.3929443359375 Z" stroke-miterlimit="10" stroke-width="0.5" stroke-dasharray=""/><text fill="#505050" stroke="none" font-family="monospace" font-size="14px" font-style="normal" font-weight="normal" text-decoration="normal" x="971.5617065429688" y="123.3929443359375" text-anchor="start" dominant-baseline="text-after-edge">v1</text><path fill="none" stroke="#505050" paint-order="fill stroke markers" d=" M 1014.5617065429688 81.3929443359375 L 1022.5617065429688 81.3929443359375 L 1022.5617065429688 89.3929443359375 L 1014.5617065429688 89.3929443359375 L 1014.5617065429688 81.3929443359375 Z" stroke-miterlimit="10" stroke-width="0.5" stroke-dasharray=""/><path fill="#e0e0e0" stroke="none" paint-order="stroke fill markers" d=" M 831.9874877929688 91.26327514648438 L 823.9874877929688 61.263275146484375 L 823.9874877929688 121.26327514648438 Z M 947.5617065429688 93.3929443359375 L 955.5617065429688 63.3929443359375 L 955.5617065429688 123.3929443359375 Z"/><path fill="none" stroke="none"/><path fill="none" stroke="#e0e0e0" paint-order="fill stroke markers" d=" M 831.9874877929688 91.26327514648438 C 866.6656393836698 91.26327514648438 912.8835549522677 93.3929443359375 947.5617065429688 93.3929443359375" stroke-miterlimit="10" stroke-width="2" stroke-dasharray=""/><path fill="white" stroke="#505050" paint-order="fill stroke markers" d=" M 1038.6820068359375 77.74862670898438 L 1046.6820068359375 77.74862670898438 L 1054.6820068359375 85.74862670898438 L 1046.6820068359375 93.74862670898438 L 1038.6820068359375 93.74862670898438 L 1038.6820068359375 77.74862670898438" stroke-miterlimit="10" stroke-width="0.5" stroke-dasharray=""/><path fill="none" stroke="#505050" paint-order="fill stroke markers" d=" M 1038.6820068359375 81.74862670898438 L 1046.6820068359375 81.74862670898438 L 1046.6820068359375 89.74862670898438 L 1038.6820068359375 89.74862670898438 L 1038.6820068359375 81.74862670898438 Z" stroke-miterlimit="10" stroke-width="0.5" stroke-dasharray=""/><path fill="white" stroke="#505050" paint-order="fill stroke markers" d=" M 868.5265502929688 99.8812255859375 L 900.5265502929688 99.8812255859375 L 900.5265502929688 117.8812255859375 L 868.5265502929688 117.8812255859375 L 868.5265502929688 99.8812255859375 Z" stroke-miterlimit="10" stroke-width="0.5" stroke-dasharray=""/><path fill="#F0F0F0" stroke="none" paint-order="stroke fill markers" d=""/><path fill="none" stroke="#505050" paint-order="fill stroke markers" d=" M 892.5265502929688 104.8812255859375 L 900.5265502929688 104.8812255859375 L 900.5265502929688 112.8812255859375 L 892.5265502929688 112.8812255859375 L 892.5265502929688 104.8812255859375 Z" stroke-miterlimit="10" stroke-width="0.5" stroke-dasharray=""/><text fill="#505050" stroke="none" font-family="monospace" font-size="14px" font-style="normal" font-weight="normal" text-decoration="normal" x="884.5265502929688" y="117.8812255859375" text-anchor="end" dominant-baseline="text-after-edge">1</text><path fill="white" stroke="#505050" paint-order="fill stroke markers" d=" M 1140.9827880859375 64.29608154296875 L 1164.9827880859375 64.29608154296875 L 1164.9827880859375 94.29608154296875 L 1140.9827880859375 94.29608154296875 L 1140.9827880859375 64.29608154296875 Z" stroke-miterlimit="10" stroke-width="0.5" stroke-dasharray=""/><path fill="#F0F0F0" stroke="none" paint-order="stroke fill markers" d=""/><text fill="#505050" stroke="none" font-family="monospace" font-size="14px" font-style="normal" font-weight="normal" text-decoration="normal" x="1152.9827880859375" y="82.29608154296875" text-anchor="middle" dominant-baseline="text-after-edge">Fₖ</text><path fill="none" stroke="#505050" paint-order="fill stroke markers" d=" M 1140.9827880859375 82.29608154296875 L 1148.9827880859375 82.29608154296875 L 1148.9827880859375 90.29608154296875 L 1140.9827880859375 90.29608154296875 L 1140.9827880859375 82.29608154296875 Z" stroke-miterlimit="10" stroke-width="0.5" stroke-dasharray=""/><path fill="none" stroke="#505050" paint-order="fill stroke markers" d=" M 1156.9827880859375 82.29608154296875 L 1164.9827880859375 82.29608154296875 L 1164.9827880859375 90.29608154296875 L 1156.9827880859375 90.29608154296875 L 1156.9827880859375 82.29608154296875 Z" stroke-miterlimit="10" stroke-width="0.5" stroke-dasharray=""/><path fill="#e0e0e0" stroke="none" paint-order="stroke fill markers" d=" M 1099.76953125 78.3929443359375 L 1091.76953125 63.3929443359375 L 1091.76953125 93.3929443359375 Z M 1132.9827880859375 79.29608154296875 L 1140.9827880859375 64.29608154296875 L 1140.9827880859375 94.29608154296875 Z"/><path fill="none" stroke="none"/><path fill="none" stroke="#e0e0e0" paint-order="fill stroke markers" d=" M 1099.76953125 78.3929443359375 C 1109.7371913456202 78.3929443359375 1123.0151279903173 79.29608154296875 1132.9827880859375 79.29608154296875" stroke-miterlimit="10" stroke-width="2" stroke-dasharray=""/><path fill="none" stroke="#505050" paint-order="fill stroke markers" d=" M 390.5945587158203 99.28673553466797 C 394.21546940780695 99.28673553466797 399.00657649063055 100.22819519042969 402.6274871826172 100.22819519042969" stroke-miterlimit="10" stroke-dasharray=""/><path fill="none" stroke="#505050" paint-order="fill stroke markers" d=" M 353.7226867675781 118.86328887939453 C 358.2035385084159 118.86328887939453 362.11370697498256 111.28673553466797 366.5945587158203 111.28673553466797" stroke-miterlimit="10" stroke-dasharray=""/><path fill="none" stroke="#505050" paint-order="fill stroke markers" d=" M 341.8172149658203 86.68126678466797 C 350.15707794516 86.68126678466797 358.25469573648064 99.28673553466797 366.5945587158203 99.28673553466797" stroke-miterlimit="10" stroke-dasharray=""/><path fill="none" stroke="#505050" paint-order="fill stroke markers" d=" M 624.1867065429688 103.83749389648438 C 633.2806351162396 103.83749389648438 644.6748092196979 97.22030639648438 653.7687377929688 97.22030639648438" stroke-miterlimit="10" stroke-dasharray=""/><path fill="none" stroke="#505050" paint-order="fill stroke markers" d=" M 523.9249877929688 72.89608764648438 C 563.053183769367 72.89608764648438 614.6405418165705 85.22030639648438 653.7687377929688 85.22030639648438" stroke-miterlimit="10" stroke-dasharray=""/><path fill="none" stroke="#505050" paint-order="fill stroke markers" d=" M 526.6828002929688 183.20077514648438 C 547.9422732827439 183.20077514648438 562.1733273031936 225.64218139648438 583.4328002929688 225.64218139648438" stroke-miterlimit="10" stroke-dasharray=""/><path fill="none" stroke="#505050" paint-order="fill stroke markers" d=" M 526.1749877929688 154.91171264648438 C 550.7818009687782 154.91171264648438 558.8259871171593 213.64218139648438 583.4328002929688 213.64218139648438" stroke-miterlimit="10" stroke-dasharray=""/><path fill="none" stroke="#505050" paint-order="fill stroke markers" d=" M 526.1749877929688 154.91171264648438 C 578.3088379212276 154.91171264648438 644.9098510436162 123.23841857910156 697.043701171875 123.23841857910156" stroke-miterlimit="10" stroke-dasharray=""/><path fill="none" stroke="#505050" paint-order="fill stroke markers" d=" M 678.7687377929688 85.22030639648438 C 688.3072114824164 85.22030639648438 687.5052274824274 111.23841857910156 697.043701171875 111.23841857910156" stroke-miterlimit="10" stroke-dasharray=""/><path fill="none" stroke="#505050" paint-order="fill stroke markers" d=" M 721.043701171875 111.23841857910156 C 724.576253150466 111.23841857910156 729.2861125721903 111.30872344970703 732.8186645507812 111.30872344970703" stroke-miterlimit="10" stroke-dasharray=""/><path fill="none" stroke="#505050" paint-order="fill stroke markers" d=" M 523.9249877929688 72.89608764648438 C 541.7384164678775 72.89608764648438 526.2092764032162 128.76951599121094 544.022705078125 128.76951599121094" stroke-miterlimit="10" stroke-dasharray=""/><path fill="none" stroke="#505050" paint-order="fill stroke markers" d=" M 569.022705078125 128.76951599121094 C 586.9714568624669 128.76951599121094 600.9848419656581 161.76092529296875 618.93359375 161.76092529296875" stroke-miterlimit="10" stroke-dasharray=""/><path fill="none" stroke="#505050" paint-order="fill stroke markers" d=" M 526.6828002929688 183.20077514648438 C 554.4478939059304 183.20077514648438 591.1685001370383 175.76092529296875 618.93359375 175.76092529296875" stroke-miterlimit="10" stroke-dasharray=""/><path fill="none" stroke="#505050" paint-order="fill stroke markers" d=" M 607.4328002929688 213.64218139648438 C 615.3846829562171 213.64218139648438 610.9817110867516 189.76092529296875 618.93359375 189.76092529296875" stroke-miterlimit="10" stroke-dasharray=""/><path fill="none" stroke="#505050" paint-order="fill stroke markers" d=" M 685.93359375 160.76092529296875 C 694.2843395388293 160.76092529296875 688.6929553830457 135.23841857910156 697.043701171875 135.23841857910156" stroke-miterlimit="10" stroke-dasharray=""/><path fill="none" stroke="#505050" paint-order="fill stroke markers" d=" M 1022.5617065429688 85.3929443359375 C 1027.3989736674657 85.3929443359375 1033.8447397114405 85.74862670898438 1038.6820068359375 85.74862670898438" stroke-miterlimit="10" stroke-dasharray=""/><path fill="none" stroke="#505050" paint-order="fill stroke markers" d=" M 900.5265502929688 108.8812255859375 C 917.1196895991305 108.8812255859375 938.968567236807 114.3929443359375 955.5617065429688 114.3929443359375" stroke-miterlimit="10" stroke-dasharray=""/><path fill="none" stroke="#505050" paint-order="fill stroke markers" d=" M 900.5265502929688 108.8812255859375 C 917.2323199784305 108.8812255859375 938.855936857507 100.3929443359375 955.5617065429688 100.3929443359375" stroke-miterlimit="10" stroke-dasharray=""/><path fill="none" stroke="#505050" paint-order="fill stroke markers" d=" M 903.9640502929688 77.9320068359375 C 919.6500792183688 77.9320068359375 939.8756776175687 86.3929443359375 955.5617065429688 86.3929443359375" stroke-miterlimit="10" stroke-dasharray=""/></g></g></svg>