<svg version="1.1" xmlns="http://www.w3.org/2000/svg" xmlns:xlink="http://www.w3.org/1999/xlink" width="774.796875" height="321.484375"><defs/><g transform="translate(-284.4765625,-51.18359375)"><g><path fill="white" stroke="#505050" paint-order="fill stroke markers" d=" M 285.4765625 60.18359375 L 285.4765625 141.44140625 Q 285.4765625 149.44140625 293.4765625 149.44140625 L 515.48046875 149.44140625 Q 523.48046875 149.44140625 523.48046875 141.44140625 L 523.48046875 60.18359375 Q 523.48046875 52.18359375 515.48046875 52.18359375 L 293.4765625 52.18359375 Q 285.4765625 52.18359375 285.4765625 60.18359375" stroke-miterlimit="10" stroke-width="0.5" stroke-dasharray=""/><path fill="#F0F0F0" stroke="#505050" paint-order="fill stroke markers" d=" M 483.48046875 111.44140625 L 515.48046875 111.44140625 L 515.48046875 141.44140625 L 483.48046875 141.44140625 L 483.48046875 111.44140625 Z" stroke-miterlimit="10" stroke-width="0.5" stroke-dasharray=""/><text fill="#505050" stroke="none" font-family="monospace" font-size="14px" font-style="normal" font-weight="normal" text-decoration="normal" x="499.48046875" y="129.44140625" text-anchor="middle" dominant-baseline="text-after-edge">-1</text><path fill="none" stroke="#505050" paint-order="fill stroke markers" d=" M 483.48046875 129.44140625 L 491.48046875 129.44140625 L 491.48046875 137.44140625 L 483.48046875 137.44140625 L 483.48046875 129.44140625 Z" stroke-miterlimit="10" stroke-width="0.5" stroke-dasharray=""/><path fill="none" stroke="#505050" paint-order="fill stroke markers" d=" M 507.48046875 129.44140625 L 515.48046875 129.44140625 L 515.48046875 137.44140625 L 507.48046875 137.44140625 L 507.48046875 129.44140625 Z" stroke-miterlimit="10" stroke-width="0.5" stroke-dasharray=""/><path fill="white" stroke="#505050" paint-order="fill stroke markers" d=" M 371.26953125 60.18359375 L 403.26953125 60.18359375 L 403.26953125 102.18359375 L 371.26953125 102.18359375 L 371.26953125 60.18359375 Z" stroke-miterlimit="10" stroke-width="0.5" stroke-dasharray=""/><text fill="#505050" stroke="none" font-family="monospace" font-size="14px" font-style="normal" font-weight="normal" text-decoration="normal" x="387.26953125" y="78.18359375" text-anchor="middle" dominant-baseline="text-after-edge">-</text><path fill="none" stroke="#505050" paint-order="fill stroke markers" d=" M 371.26953125 78.18359375 L 379.26953125 78.18359375 L 379.26953125 86.18359375 L 371.26953125 86.18359375 L 371.26953125 78.18359375 Z" stroke-miterlimit="10" stroke-width="0.5" stroke-dasharray=""/><path fill="none" stroke="#505050" paint-order="fill stroke markers" d=" M 371.26953125 90.18359375 L 379.26953125 90.18359375 L 379.26953125 98.18359375 L 371.26953125 98.18359375 L 371.26953125 90.18359375 Z" stroke-miterlimit="10" stroke-width="0.5" stroke-dasharray=""/><path fill="none" stroke="#505050" paint-order="fill stroke markers" d=" M 395.26953125 78.18359375 L 403.26953125 78.18359375 L 403.26953125 86.18359375 L 395.26953125 86.18359375 L 395.26953125 78.18359375 Z" stroke-miterlimit="10" stroke-width="0.5" stroke-dasharray=""/><path fill="white" stroke="#505050" paint-order="fill stroke markers" d=" M 393.48046875 111.44140625 L 401.48046875 111.44140625 L 409.48046875 119.44140625 L 401.48046875 127.44140625 L 393.48046875 127.44140625 L 393.48046875 111.44140625" stroke-miterlimit="10" stroke-width="0.5" stroke-dasharray=""/><path fill="none" stroke="#505050" paint-order="fill stroke markers" d=" M 393.48046875 115.44140625 L 401.48046875 115.44140625 L 401.48046875 123.44140625 L 393.48046875 123.44140625 L 393.48046875 115.44140625 Z" stroke-miterlimit="10" stroke-width="0.5" stroke-dasharray=""/><path fill="white" stroke="#505050" paint-order="fill stroke markers" d=" M 308.23828125 101.39453125 L 348.23828125 101.39453125 L 348.23828125 119.39453125 L 308.23828125 119.39453125 L 308.23828125 101.39453125 Z" stroke-miterlimit="10" stroke-width="0.5" stroke-dasharray=""/><path fill="none" stroke="#505050" paint-order="fill stroke markers" d=" M 340.23828125 106.39453125 L 348.23828125 106.39453125 L 348.23828125 114.39453125 L 340.23828125 114.39453125 L 340.23828125 106.39453125 Z" stroke-miterlimit="10" stroke-width="0.5" stroke-dasharray=""/><text fill="#505050" stroke="none" font-family="monospace" font-size="14px" font-style="normal" font-weight="normal" text-decoration="normal" x="332.23828125" y="119.39453125" text-anchor="end" dominant-baseline="text-after-edge">1</text><path fill="white" stroke="#505050" paint-order="fill stroke markers" d=" M 330.4921875 61.578125 L 346.4921875 61.578125 L 346.4921875 77.578125 L 330.4921875 77.578125 L 338.4921875 69.578125 L 330.4921875 61.578125" stroke-miterlimit="10" stroke-width="0.5" stroke-dasharray=""/><path fill="none" stroke="#505050" paint-order="fill stroke markers" d=" M 338.4921875 65.578125 L 346.4921875 65.578125 L 346.4921875 73.578125 L 338.4921875 73.578125 L 338.4921875 65.578125 Z" stroke-miterlimit="10" stroke-width="0.5" stroke-dasharray=""/><path fill="white" stroke="#505050" paint-order="fill stroke markers" d=" M 572.625 60.44140625 L 572.625 244.8203125 Q 572.625 252.8203125 580.625 252.8203125 L 1011.4375 252.8203125 Q 1019.4375 252.8203125 1019.4375 244.8203125 L 1019.4375 60.44140625 Q 1019.4375 52.44140625 1011.4375 52.44140625 L 580.625 52.44140625 Q 572.625 52.44140625 572.625 60.44140625" stroke-miterlimit="10" stroke-width="0.5" stroke-dasharray=""/><path fill="#F0F0F0" stroke="#505050" paint-order="fill stroke markers" d=" M 944.4375 184.8203125 L 1011.4375 184.8203125 L 1011.4375 244.8203125 L 944.4375 244.8203125 L 944.4375 184.8203125 Z" stroke-miterlimit="10" stroke-width="0.5" stroke-dasharray=""/><text fill="#505050" stroke="none" font-family="monospace" font-size="14px" font-style="normal" font-weight="normal" text-decoration="normal" x="977.9375" y="202.8203125" text-anchor="middle" dominant-baseline="text-after-edge">fibstep</text><path fill="none" stroke="#505050" paint-order="fill stroke markers" d=" M 944.4375 203.8203125 L 952.4375 203.8203125 L 952.4375 211.8203125 L 944.4375 211.8203125 L 944.4375 203.8203125 Z" stroke-miterlimit="10" stroke-width="0.5" stroke-dasharray=""/><text fill="#505050" stroke="none" font-family="monospace" font-size="14px" font-style="normal" font-weight="normal" text-decoration="normal" x="960.4375" y="216.8203125" text-anchor="start" dominant-baseline="text-after-edge">n</text><path fill="none" stroke="#505050" paint-order="fill stroke markers" d=" M 944.4375 217.8203125 L 952.4375 217.8203125 L 952.4375 225.8203125 L 944.4375 225.8203125 L 944.4375 217.8203125 Z" stroke-miterlimit="10" stroke-width="0.5" stroke-dasharray=""/><text fill="#505050" stroke="none" font-family="monospace" font-size="14px" font-style="normal" font-weight="normal" text-decoration="normal" x="960.4375" y="230.8203125" text-anchor="start" dominant-baseline="text-after-edge">v0</text><path fill="none" stroke="#505050" paint-order="fill stroke markers" d=" M 944.4375 231.8203125 L 952.4375 231.8203125 L 952.4375 239.8203125 L 944.4375 239.8203125 L 944.4375 231.8203125 Z" stroke-miterlimit="10" stroke-width="0.5" stroke-dasharray=""/><text fill="#505050" stroke="none" font-family="monospace" font-size="14px" font-style="normal" font-weight="normal" text-decoration="normal" x="960.4375" y="244.8203125" text-anchor="start" dominant-baseline="text-after-edge">v1</text><path fill="none" stroke="#505050" paint-order="fill stroke markers" d=" M 1003.4375 202.8203125 L 1011.4375 202.8203125 L 1011.4375 210.8203125 L 1003.4375 210.8203125 L 1003.4375 202.8203125 Z" stroke-miterlimit="10" stroke-width="0.5" stroke-dasharray=""/><path fill="white" stroke="#505050" paint-order="fill stroke markers" d=" M 822.29296875 76.27734375 L 854.29296875 76.27734375 L 854.29296875 130.27734375 L 822.29296875 130.27734375 L 822.29296875 76.27734375 Z" stroke-miterlimit="10" stroke-width="0.5" stroke-dasharray=""/><text fill="#505050" stroke="none" font-family="monospace" font-size="14px" font-style="normal" font-weight="normal" text-decoration="normal" x="838.29296875" y="94.27734375" text-anchor="middle" dominant-baseline="text-after-edge">?</text><path fill="none" stroke="#505050" paint-order="fill stroke markers" d=" M 822.29296875 94.27734375 L 830.29296875 94.27734375 L 830.29296875 102.27734375 L 822.29296875 102.27734375 L 822.29296875 94.27734375 Z" stroke-miterlimit="10" stroke-width="0.5" stroke-dasharray=""/><path fill="none" stroke="#505050" paint-order="fill stroke markers" d=" M 822.29296875 106.27734375 L 830.29296875 106.27734375 L 830.29296875 114.27734375 L 822.29296875 114.27734375 L 822.29296875 106.27734375 Z" stroke-miterlimit="10" stroke-width="0.5" stroke-dasharray=""/><path fill="none" stroke="#505050" paint-order="fill stroke markers" d=" M 822.29296875 118.27734375 L 830.29296875 118.27734375 L 830.29296875 126.27734375 L 822.29296875 126.27734375 L 822.29296875 118.27734375 Z" stroke-miterlimit="10" stroke-width="0.5" stroke-dasharray=""/><path fill="none" stroke="#505050" paint-order="fill stroke markers" d=" M 846.29296875 94.27734375 L 854.29296875 94.27734375 L 854.29296875 102.27734375 L 846.29296875 102.27734375 L 846.29296875 94.27734375 Z" stroke-miterlimit="10" stroke-width="0.5" stroke-dasharray=""/><path fill="white" stroke="#505050" paint-order="fill stroke markers" d=" M 580.625 145.08984375 L 629.625 145.08984375 L 629.625 163.08984375 L 580.625 163.08984375 L 588.625 154.08984375 L 580.625 145.08984375" stroke-miterlimit="10" stroke-width="0.5" stroke-dasharray=""/><path fill="none" stroke="#505050" paint-order="fill stroke markers" d=" M 621.625 150.08984375 L 629.625 150.08984375 L 629.625 158.08984375 L 621.625 158.08984375 L 621.625 150.08984375 Z" stroke-miterlimit="10" stroke-width="0.5" stroke-dasharray=""/><text fill="#505050" stroke="none" font-family="monospace" font-size="14px" font-style="normal" font-weight="normal" text-decoration="normal" x="613.625" y="163.08984375" text-anchor="end" dominant-baseline="text-after-edge">v0</text><path fill="white" stroke="#505050" paint-order="fill stroke markers" d=" M 678.8828125 190.8203125 L 710.8828125 190.8203125 L 710.8828125 232.8203125 L 678.8828125 232.8203125 L 678.8828125 190.8203125 Z" stroke-miterlimit="10" stroke-width="0.5" stroke-dasharray=""/><text fill="#505050" stroke="none" font-family="monospace" font-size="14px" font-style="normal" font-weight="normal" text-decoration="normal" x="694.8828125" y="208.8203125" text-anchor="middle" dominant-baseline="text-after-edge">+</text><path fill="none" stroke="#505050" paint-order="fill stroke markers" d=" M 678.8828125 208.8203125 L 686.8828125 208.8203125 L 686.8828125 216.8203125 L 678.8828125 216.8203125 L 678.8828125 208.8203125 Z" stroke-miterlimit="10" stroke-width="0.5" stroke-dasharray=""/><path fill="none" stroke="#505050" paint-order="fill stroke markers" d=" M 678.8828125 220.8203125 L 686.8828125 220.8203125 L 686.8828125 228.8203125 L 678.8828125 228.8203125 L 678.8828125 220.8203125 Z" stroke-miterlimit="10" stroke-width="0.5" stroke-dasharray=""/><path fill="none" stroke="#505050" paint-order="fill stroke markers" d=" M 702.8828125 208.8203125 L 710.8828125 208.8203125 L 710.8828125 216.8203125 L 702.8828125 216.8203125 L 702.8828125 208.8203125 Z" stroke-miterlimit="10" stroke-width="0.5" stroke-dasharray=""/><path fill="white" stroke="#505050" paint-order="fill stroke markers" d=" M 581.1328125 173.37890625 L 630.1328125 173.37890625 L 630.1328125 191.37890625 L 581.1328125 191.37890625 L 589.1328125 182.37890625 L 581.1328125 173.37890625" stroke-miterlimit="10" stroke-width="0.5" stroke-dasharray=""/><path fill="none" stroke="#505050" paint-order="fill stroke markers" d=" M 622.1328125 178.37890625 L 630.1328125 178.37890625 L 630.1328125 186.37890625 L 622.1328125 186.37890625 L 622.1328125 178.37890625 Z" stroke-miterlimit="10" stroke-width="0.5" stroke-dasharray=""/><text fill="#505050" stroke="none" font-family="monospace" font-size="14px" font-style="normal" font-weight="normal" text-decoration="normal" x="614.1328125" y="191.37890625" text-anchor="end" dominant-baseline="text-after-edge">v1</text><path fill="white" stroke="#505050" paint-order="fill stroke markers" d=" M 749.21875 62.3984375 L 781.21875 62.3984375 L 781.21875 104.3984375 L 749.21875 104.3984375 L 749.21875 62.3984375 Z" stroke-miterlimit="10" stroke-width="0.5" stroke-dasharray=""/><text fill="#505050" stroke="none" font-family="monospace" font-size="14px" font-style="normal" font-weight="normal" text-decoration="normal" x="765.21875" y="80.3984375" text-anchor="middle" dominant-baseline="text-after-edge">&lt;=</text><path fill="none" stroke="#505050" paint-order="fill stroke markers" d=" M 749.21875 80.3984375 L 757.21875 80.3984375 L 757.21875 88.3984375 L 749.21875 88.3984375 L 749.21875 80.3984375 Z" stroke-miterlimit="10" stroke-width="0.5" stroke-dasharray=""/><path fill="none" stroke="#505050" paint-order="fill stroke markers" d=" M 749.21875 92.3984375 L 757.21875 92.3984375 L 757.21875 100.3984375 L 749.21875 100.3984375 L 749.21875 92.3984375 Z" stroke-miterlimit="10" stroke-width="0.5" stroke-dasharray=""/><path fill="none" stroke="#505050" paint-order="fill stroke markers" d=" M 773.21875 80.3984375 L 781.21875 80.3984375 L 781.21875 88.3984375 L 773.21875 88.3984375 L 773.21875 80.3984375 Z" stroke-miterlimit="10" stroke-width="0.5" stroke-dasharray=""/><path fill="white" stroke="#505050" paint-order="fill stroke markers" d=" M 687.63671875 94.015625 L 727.63671875 94.015625 L 727.63671875 112.015625 L 687.63671875 112.015625 L 687.63671875 94.015625 Z" stroke-miterlimit="10" stroke-width="0.5" stroke-dasharray=""/><path fill="none" stroke="#505050" paint-order="fill stroke markers" d=" M 719.63671875 99.015625 L 727.63671875 99.015625 L 727.63671875 107.015625 L 719.63671875 107.015625 L 719.63671875 99.015625 Z" stroke-miterlimit="10" stroke-width="0.5" stroke-dasharray=""/><text fill="#505050" stroke="none" font-family="monospace" font-size="14px" font-style="normal" font-weight="normal" text-decoration="normal" x="711.63671875" y="112.015625" text-anchor="end" dominant-baseline="text-after-edge">1</text><path fill="white" stroke="#505050" paint-order="fill stroke markers" d=" M 587.375 63.07421875 L 627.375 63.07421875 L 627.375 81.07421875 L 587.375 81.07421875 L 595.375 72.07421875 L 587.375 63.07421875" stroke-miterlimit="10" stroke-width="0.5" stroke-dasharray=""/><path fill="none" stroke="#505050" paint-order="fill stroke markers" d=" M 619.375 68.07421875 L 627.375 68.07421875 L 627.375 76.07421875 L 619.375 76.07421875 L 619.375 68.07421875 Z" stroke-miterlimit="10" stroke-width="0.5" stroke-dasharray=""/><text fill="#505050" stroke="none" font-family="monospace" font-size="14px" font-style="normal" font-weight="normal" text-decoration="normal" x="611.375" y="81.07421875" text-anchor="end" dominant-baseline="text-after-edge">n</text><path fill="white" stroke="#505050" paint-order="fill stroke markers" d=" M 879.4375 79.94921875 L 887.4375 79.94921875 L 895.4375 87.94921875 L 887.4375 95.94921875 L 879.4375 95.94921875 L 879.4375 79.94921875" stroke-miterlimit="10" stroke-width="0.5" stroke-dasharray=""/><path fill="none" stroke="#505050" paint-order="fill stroke markers" d=" M 879.4375 83.94921875 L 887.4375 83.94921875 L 887.4375 91.94921875 L 879.4375 91.94921875 L 879.4375 83.94921875 Z" stroke-miterlimit="10" stroke-width="0.5" stroke-dasharray=""/><path fill="white" stroke="#505050" paint-order="fill stroke markers" d=" M 735.29296875 143.4296875 L 802.29296875 143.4296875 L 802.29296875 203.4296875 L 735.29296875 203.4296875 L 735.29296875 143.4296875 Z" stroke-miterlimit="10" stroke-width="0.5" stroke-dasharray=""/><text fill="#505050" stroke="none" font-family="monospace" font-size="14px" font-style="normal" font-weight="normal" text-decoration="normal" x="768.79296875" y="161.4296875" text-anchor="middle" dominant-baseline="text-after-edge">fibstep</text><path fill="none" stroke="#505050" paint-order="fill stroke markers" d=" M 735.29296875 162.4296875 L 743.29296875 162.4296875 L 743.29296875 170.4296875 L 735.29296875 170.4296875 L 735.29296875 162.4296875 Z" stroke-miterlimit="10" stroke-width="0.5" stroke-dasharray=""/><text fill="#505050" stroke="none" font-family="monospace" font-size="14px" font-style="normal" font-weight="normal" text-decoration="normal" x="751.29296875" y="175.4296875" text-anchor="start" dominant-baseline="text-after-edge">n</text><path fill="none" stroke="#505050" paint-order="fill stroke markers" d=" M 735.29296875 176.4296875 L 743.29296875 176.4296875 L 743.29296875 184.4296875 L 735.29296875 184.4296875 L 735.29296875 176.4296875 Z" stroke-miterlimit="10" stroke-width="0.5" stroke-dasharray=""/><text fill="#505050" stroke="none" font-family="monospace" font-size="14px" font-style="normal" font-weight="normal" text-decoration="normal" x="751.29296875" y="189.4296875" text-anchor="start" dominant-baseline="text-after-edge">v0</text><path fill="none" stroke="#505050" paint-order="fill stroke markers" d=" M 735.29296875 190.4296875 L 743.29296875 190.4296875 L 743.29296875 198.4296875 L 735.29296875 198.4296875 L 735.29296875 190.4296875 Z" stroke-miterlimit="10" stroke-width="0.5" stroke-dasharray=""/><text fill="#505050" stroke="none" font-family="monospace" font-size="14px" font-style="normal" font-weight="normal" text-decoration="normal" x="751.29296875" y="203.4296875" text-anchor="start" dominant-baseline="text-after-edge">v1</text><path fill="none" stroke="#505050" paint-order="fill stroke markers" d=" M 794.29296875 161.4296875 L 802.29296875 161.4296875 L 802.29296875 169.4296875 L 794.29296875 169.4296875 L 794.29296875 161.4296875 Z" stroke-miterlimit="10" stroke-width="0.5" stroke-dasharray=""/><path fill="white" stroke="#505050" paint-order="fill stroke markers" d=" M 639.4727172851562 105.94764709472656 L 671.4727172851562 105.94764709472656 L 671.4727172851562 135.94764709472656 L 639.4727172851562 135.94764709472656 L 639.4727172851562 105.94764709472656 Z" stroke-miterlimit="10" stroke-width="0.5" stroke-dasharray=""/><text fill="#505050" stroke="none" font-family="monospace" font-size="14px" font-style="normal" font-weight="normal" text-decoration="normal" x="655.4727172851562" y="123.94764709472656" text-anchor="middle" dominant-baseline="text-after-edge">-1</text><path fill="none" stroke="#505050" paint-order="fill stroke markers" d=" M 639.4727172851562 123.94764709472656 L 647.4727172851562 123.94764709472656 L 647.4727172851562 131.94764709472656 L 639.4727172851562 131.94764709472656 L 639.4727172851562 123.94764709472656 Z" stroke-miterlimit="10" stroke-width="0.5" stroke-dasharray=""/><path fill="none" stroke="#505050" paint-order="fill stroke markers" d=" M 663.4727172851562 123.94764709472656 L 671.4727172851562 123.94764709472656 L 671.4727172851562 131.94764709472656 L 663.4727172851562 131.94764709472656 L 663.4727172851562 123.94764709472656 Z" stroke-miterlimit="10" stroke-width="0.5" stroke-dasharray=""/><path fill="white" stroke="#505050" paint-order="fill stroke markers" d=" M 575.6796875 291.66796875 L 575.6796875 363.66796875 Q 575.6796875 371.66796875 583.6796875 371.66796875 L 913.82421875 371.66796875 Q 921.82421875 371.66796875 921.82421875 363.66796875 L 921.82421875 291.66796875 Q 921.82421875 283.66796875 913.82421875 283.66796875 L 583.6796875 283.66796875 Q 575.6796875 283.66796875 575.6796875 291.66796875" stroke-miterlimit="10" stroke-width="0.5" stroke-dasharray=""/><path fill="#F0F0F0" stroke="#505050" paint-order="fill stroke markers" d=" M 881.82421875 333.66796875 L 913.82421875 333.66796875 L 913.82421875 363.66796875 L 881.82421875 363.66796875 L 881.82421875 333.66796875 Z" stroke-miterlimit="10" stroke-width="0.5" stroke-dasharray=""/><text fill="#505050" stroke="none" font-family="monospace" font-size="14px" font-style="normal" font-weight="normal" text-decoration="normal" x="897.82421875" y="351.66796875" text-anchor="middle" dominant-baseline="text-after-edge">Fₖ</text><path fill="none" stroke="#505050" paint-order="fill stroke markers" d=" M 881.82421875 351.66796875 L 889.82421875 351.66796875 L 889.82421875 359.66796875 L 881.82421875 359.66796875 L 881.82421875 351.66796875 Z" stroke-miterlimit="10" stroke-width="0.5" stroke-dasharray=""/><path fill="none" stroke="#505050" paint-order="fill stroke markers" d=" M 905.82421875 351.66796875 L 913.82421875 351.66796875 L 913.82421875 359.66796875 L 905.82421875 359.66796875 L 905.82421875 351.66796875 Z" stroke-miterlimit="10" stroke-width="0.5" stroke-dasharray=""/><path fill="white" stroke="#505050" paint-order="fill stroke markers" d=" M 603.1171875 298.20703125 L 619.1171875 298.20703125 L 619.1171875 314.20703125 L 603.1171875 314.20703125 L 611.1171875 306.20703125 L 603.1171875 298.20703125" stroke-miterlimit="10" stroke-width="0.5" stroke-dasharray=""/><path fill="none" stroke="#505050" paint-order="fill stroke markers" d=" M 611.1171875 302.20703125 L 619.1171875 302.20703125 L 619.1171875 310.20703125 L 611.1171875 310.20703125 L 611.1171875 302.20703125 Z" stroke-miterlimit="10" stroke-width="0.5" stroke-dasharray=""/><path fill="white" stroke="#505050" paint-order="fill stroke markers" d=" M 670.71484375 291.66796875 L 737.71484375 291.66796875 L 737.71484375 351.66796875 L 670.71484375 351.66796875 L 670.71484375 291.66796875 Z" stroke-miterlimit="10" stroke-width="0.5" stroke-dasharray=""/><text fill="#505050" stroke="none" font-family="monospace" font-size="14px" font-style="normal" font-weight="normal" text-decoration="normal" x="704.21484375" y="309.66796875" text-anchor="middle" dominant-baseline="text-after-edge">fibstep</text><path fill="none" stroke="#505050" paint-order="fill stroke markers" d=" M 670.71484375 310.66796875 L 678.71484375 310.66796875 L 678.71484375 318.66796875 L 670.71484375 318.66796875 L 670.71484375 310.66796875 Z" stroke-miterlimit="10" stroke-width="0.5" stroke-dasharray=""/><text fill="#505050" stroke="none" font-family="monospace" font-size="14px" font-style="normal" font-weight="normal" text-decoration="normal" x="686.71484375" y="323.66796875" text-anchor="start" dominant-baseline="text-after-edge">n</text><path fill="none" stroke="#505050" paint-order="fill stroke markers" d=" M 670.71484375 324.66796875 L 678.71484375 324.66796875 L 678.71484375 332.66796875 L 670.71484375 332.66796875 L 670.71484375 324.66796875 Z" stroke-miterlimit="10" stroke-width="0.5" stroke-dasharray=""/><text fill="#505050" stroke="none" font-family="monospace" font-size="14px" font-style="normal" font-weight="normal" text-decoration="normal" x="686.71484375" y="337.66796875" text-anchor="start" dominant-baseline="text-after-edge">v0</text><path fill="none" stroke="#505050" paint-order="fill stroke markers" d=" M 670.71484375 338.66796875 L 678.71484375 338.66796875 L 678.71484375 346.66796875 L 670.71484375 346.66796875 L 670.71484375 338.66796875 Z" stroke-miterlimit="10" stroke-width="0.5" stroke-dasharray=""/><text fill="#505050" stroke="none" font-family="monospace" font-size="14px" font-style="normal" font-weight="normal" text-decoration="normal" x="686.71484375" y="351.66796875" text-anchor="start" dominant-baseline="text-after-edge">v1</text><path fill="none" stroke="#505050" paint-order="fill stroke markers" d=" M 729.71484375 309.66796875 L 737.71484375 309.66796875 L 737.71484375 317.66796875 L 729.71484375 317.66796875 L 729.71484375 309.66796875 Z" stroke-miterlimit="10" stroke-width="0.5" stroke-dasharray=""/><path fill="white" stroke="#505050" paint-order="fill stroke markers" d=" M 789.82421875 293.17578125 L 797.82421875 293.17578125 L 805.82421875 301.17578125 L 797.82421875 309.17578125 L 789.82421875 309.17578125 L 789.82421875 293.17578125" stroke-miterlimit="10" stroke-width="0.5" stroke-dasharray=""/><path fill="none" stroke="#505050" paint-order="fill stroke markers" d=" M 789.82421875 297.17578125 L 797.82421875 297.17578125 L 797.82421875 305.17578125 L 789.82421875 305.17578125 L 789.82421875 297.17578125 Z" stroke-miterlimit="10" stroke-width="0.5" stroke-dasharray=""/><path fill="white" stroke="#505050" paint-order="fill stroke markers" d=" M 583.6796875 328.15625 L 623.6796875 328.15625 L 623.6796875 346.15625 L 583.6796875 346.15625 L 583.6796875 328.15625 Z" stroke-miterlimit="10" stroke-width="0.5" stroke-dasharray=""/><path fill="none" stroke="#505050" paint-order="fill stroke markers" d=" M 615.6796875 333.15625 L 623.6796875 333.15625 L 623.6796875 341.15625 L 615.6796875 341.15625 L 615.6796875 333.15625 Z" stroke-miterlimit="10" stroke-width="0.5" stroke-dasharray=""/><text fill="#505050" stroke="none" font-family="monospace" font-size="14px" font-style="normal" font-weight="normal" text-decoration="normal" x="607.6796875" y="346.15625" text-anchor="end" dominant-baseline="text-after-edge">1</text><path fill="white" stroke="#505050" paint-order="fill stroke markers" d=" M 1026.2734375 329.66796875 L 1058.2734375 329.66796875 L 1058.2734375 359.66796875 L 1026.2734375 359.66796875 L 1026.2734375 329.66796875 Z" stroke-miterlimit="10" stroke-width="0.5" stroke-dasharray=""/><text fill="#505050" stroke="none" font-family="monospace" font-size="14px" font-style="normal" font-weight="normal" text-decoration="normal" x="1042.2734375" y="347.66796875" text-anchor="middle" dominant-baseline="text-after-edge">Fₖ</text><path fill="none" stroke="#505050" paint-order="fill stroke markers" d=" M 1026.2734375 347.66796875 L 1034.2734375 347.66796875 L 1034.2734375 355.66796875 L 1026.2734375 355.66796875 L 1026.2734375 347.66796875 Z" stroke-miterlimit="10" stroke-width="0.5" stroke-dasharray=""/><path fill="none" stroke="#505050" paint-order="fill stroke markers" d=" M 1050.2734375 347.66796875 L 1058.2734375 347.66796875 L 1058.2734375 355.66796875 L 1050.2734375 355.66796875 L 1050.2734375 347.66796875 Z" stroke-miterlimit="10" stroke-width="0.5" stroke-dasharray=""/><path fill="none" stroke="#505050" paint-order="fill stroke markers" d=" M 403.26953125 82.18359375 C 427.26953125 82.18359375 369.48046875 119.44140625 393.48046875 119.44140625" stroke-miterlimit="10" stroke-dasharray=""/><path fill="none" stroke="#505050" paint-order="fill stroke markers" d=" M 348.23828125 110.39453125 C 372.23828125 110.39453125 347.26953125 94.18359375 371.26953125 94.18359375" stroke-miterlimit="10" stroke-dasharray=""/><path fill="none" stroke="#505050" paint-order="fill stroke markers" d=" M 346.4921875 69.578125 C 370.4921875 69.578125 347.26953125 82.18359375 371.26953125 82.18359375" stroke-miterlimit="10" stroke-dasharray=""/><path fill="none" stroke="#505050" paint-order="fill stroke markers" d=" M 727.63671875 103.015625 C 751.63671875 103.015625 725.21875 96.3984375 749.21875 96.3984375" stroke-miterlimit="10" stroke-dasharray=""/><path fill="none" stroke="#505050" paint-order="fill stroke markers" d=" M 627.375 72.07421875 C 651.375 72.07421875 725.21875 84.3984375 749.21875 84.3984375" stroke-miterlimit="10" stroke-dasharray=""/><path fill="none" stroke="#505050" paint-order="fill stroke markers" d=" M 630.1328125 182.37890625 C 654.1328125 182.37890625 654.8828125 224.8203125 678.8828125 224.8203125" stroke-miterlimit="10" stroke-dasharray=""/><path fill="none" stroke="#505050" paint-order="fill stroke markers" d=" M 629.625 154.08984375 C 653.625 154.08984375 654.8828125 212.8203125 678.8828125 212.8203125" stroke-miterlimit="10" stroke-dasharray=""/><path fill="none" stroke="#505050" paint-order="fill stroke markers" d=" M 629.625 154.08984375 C 653.625 154.08984375 798.29296875 110.27734375 822.29296875 110.27734375" stroke-miterlimit="10" stroke-dasharray=""/><path fill="none" stroke="#505050" paint-order="fill stroke markers" d=" M 781.21875 84.3984375 C 805.21875 84.3984375 798.29296875 98.27734375 822.29296875 98.27734375" stroke-miterlimit="10" stroke-dasharray=""/><path fill="none" stroke="#505050" paint-order="fill stroke markers" d=" M 854.29296875 98.27734375 C 878.29296875 98.27734375 855.4375 87.94921875 879.4375 87.94921875" stroke-miterlimit="10" stroke-dasharray=""/><path fill="none" stroke="#505050" paint-order="fill stroke markers" d=" M 627.375 72.07421875 C 651.375 72.07421875 615.4727172851562 127.94764709472656 639.4727172851562 127.94764709472656" stroke-miterlimit="10" stroke-dasharray=""/><path fill="none" stroke="#505050" paint-order="fill stroke markers" d=" M 671.4727172851562 127.94764709472656 C 695.4727172851562 127.94764709472656 711.29296875 166.4296875 735.29296875 166.4296875" stroke-miterlimit="10" stroke-dasharray=""/><path fill="none" stroke="#505050" paint-order="fill stroke markers" d=" M 630.1328125 182.37890625 C 654.1328125 182.37890625 711.29296875 180.4296875 735.29296875 180.4296875" stroke-miterlimit="10" stroke-dasharray=""/><path fill="none" stroke="#505050" paint-order="fill stroke markers" d=" M 710.8828125 212.8203125 C 734.8828125 212.8203125 711.29296875 194.4296875 735.29296875 194.4296875" stroke-miterlimit="10" stroke-dasharray=""/><path fill="none" stroke="#505050" paint-order="fill stroke markers" d=" M 802.29296875 165.4296875 C 826.29296875 165.4296875 798.29296875 122.27734375 822.29296875 122.27734375" stroke-miterlimit="10" stroke-dasharray=""/><path fill="none" stroke="#505050" paint-order="fill stroke markers" d=" M 737.71484375 313.66796875 C 761.71484375 313.66796875 765.82421875 301.17578125 789.82421875 301.17578125" stroke-miterlimit="10" stroke-dasharray=""/><path fill="none" stroke="#505050" paint-order="fill stroke markers" d=" M 623.6796875 337.15625 C 647.6796875 337.15625 646.71484375 342.66796875 670.71484375 342.66796875" stroke-miterlimit="10" stroke-dasharray=""/><path fill="none" stroke="#505050" paint-order="fill stroke markers" d=" M 623.6796875 337.15625 C 647.6796875 337.15625 646.71484375 328.66796875 670.71484375 328.66796875" stroke-miterlimit="10" stroke-dasharray=""/><path fill="none" stroke="#505050" paint-order="fill stroke markers" d=" M 619.1171875 306.20703125 C 643.1171875 306.20703125 646.71484375 314.66796875 670.71484375 314.66796875" stroke-miterlimit="10" stroke-dasharray=""/></g></g></svg>