<svg version="1.1" xmlns="http://www.w3.org/2000/svg" xmlns:xlink="http://www.w3.org/1999/xlink" width="632.9588928222656" height="106.26280212402344"><defs/><g transform="translate(-402.3686065673828,-74.0570855140686)"><g><path fill="white" stroke="#505050" paint-order="fill stroke markers" d=" M 403.3686065673828 83.6690239906311 L 403.3686065673828 171.1058373451233 Q 403.3686065673828 179.1058373451233 411.3686065673828 179.1058373451233 L 520.2400360107422 179.1058373451233 Q 528.2400360107422 179.1058373451233 528.2400360107422 171.1058373451233 L 528.2400360107422 83.6690239906311 Q 528.2400360107422 75.6690239906311 520.2400360107422 75.6690239906311 L 411.3686065673828 75.6690239906311 Q 403.3686065673828 75.6690239906311 403.3686065673828 83.6690239906311" stroke-miterlimit="10" stroke-width="0.5" stroke-dasharray=""/><path fill="#F0F0F0" stroke="#505050" paint-order="fill stroke markers" d=" M 504.2400360107422 83.6690239906311 L 528.2400360107422 83.6690239906311 L 528.2400360107422 161.6690239906311 L 504.2400360107422 161.6690239906311 L 504.2400360107422 83.6690239906311 Z" stroke-miterlimit="10" stroke-width="0.5" stroke-dasharray=""/><path fill="none" stroke="none"/><text fill="#505050" stroke="none" font-family="monospace" font-size="14px" font-style="normal" font-weight="normal" text-decoration="normal" x="516.2400360107422" y="101.6690239906311" text-anchor="middle" dominant-baseline="text-after-edge">a</text><path fill="none" stroke="#505050" paint-order="fill stroke markers" d=" M 504.2400360107422 101.6690239906311 L 512.2400360107422 101.6690239906311 L 512.2400360107422 109.6690239906311 L 504.2400360107422 109.6690239906311 L 504.2400360107422 101.6690239906311 Z" stroke-miterlimit="10" stroke-width="0.5" stroke-dasharray=""/><path fill="none" stroke="#505050" paint-order="fill stroke markers" d=" M 504.2400360107422 113.6690239906311 L 512.2400360107422 113.6690239906311 L 512.2400360107422 121.6690239906311 L 504.2400360107422 121.6690239906311 L 504.2400360107422 113.6690239906311 Z" stroke-miterlimit="10" stroke-width="0.5" stroke-dasharray=""/><path fill="none" stroke="#505050" paint-order="fill stroke markers" d=" M 504.2400360107422 125.6690239906311 L 512.2400360107422 125.6690239906311 L 512.2400360107422 133.6690239906311 L 504.2400360107422 133.6690239906311 L 504.2400360107422 125.6690239906311 Z" stroke-miterlimit="10" stroke-width="0.5" stroke-dasharray=""/><path fill="none" stroke="#505050" paint-order="fill stroke markers" d=" M 504.2400360107422 137.6690239906311 L 512.2400360107422 137.6690239906311 L 512.2400360107422 145.6690239906311 L 504.2400360107422 145.6690239906311 L 504.2400360107422 137.6690239906311 Z" stroke-miterlimit="10" stroke-width="0.5" stroke-dasharray=""/><path fill="none" stroke="#505050" paint-order="fill stroke markers" d=" M 504.2400360107422 149.6690239906311 L 512.2400360107422 149.6690239906311 L 512.2400360107422 157.6690239906311 L 504.2400360107422 157.6690239906311 L 504.2400360107422 149.6690239906311 Z" stroke-miterlimit="10" stroke-width="0.5" stroke-dasharray=""/><path fill="none" stroke="#505050" paint-order="fill stroke markers" d=" M 520.2400360107422 101.6690239906311 L 528.2400360107422 101.6690239906311 L 528.2400360107422 109.6690239906311 L 520.2400360107422 109.6690239906311 L 520.2400360107422 101.6690239906311 Z" stroke-miterlimit="10" stroke-width="0.5" stroke-dasharray=""/><path fill="none" stroke="#505050" paint-order="fill stroke markers" d=" M 459.02125549316406 106.39700555801392 L 451.02125549316406 106.39700555801392 M 459.02125549316406 118.39700555801392 L 451.02125549316406 118.39700555801392 M 416.07740783691406 130.3174614906311 L 408.07740783691406 130.3174614906311 M 416.07740783691406 142.3174614906311 L 408.07740783691406 142.3174614906311 M 416.07740783691406 154.3174614906311 L 408.07740783691406 154.3174614906311 M 483.02125549316406 106.39700555801392 L 491.02125549316406 106.39700555801392" stroke-miterlimit="10" stroke-dasharray=""/><path fill="white" stroke="#505050" paint-order="fill stroke markers" d=" M 416.07740783691406 108.3174614906311 L 440.07740783691406 108.3174614906311 L 440.07740783691406 162.3174614906311 L 416.07740783691406 162.3174614906311 L 416.07740783691406 108.3174614906311 Z" stroke-miterlimit="10" stroke-width="0.5" stroke-dasharray=""/><path fill="#F0F0F0" stroke="none" paint-order="stroke fill markers" d=""/><path fill="none" stroke="none"/><text fill="#505050" stroke="none" font-family="monospace" font-size="14px" font-style="normal" font-weight="normal" text-decoration="normal" x="428.07740783691406" y="126.3174614906311" text-anchor="middle" dominant-baseline="text-after-edge">?</text><path fill="none" stroke="#505050" paint-order="fill stroke markers" d=" M 416.07740783691406 126.3174614906311 L 424.07740783691406 126.3174614906311 L 424.07740783691406 134.3174614906311 L 416.07740783691406 134.3174614906311 L 416.07740783691406 126.3174614906311 Z" stroke-miterlimit="10" stroke-width="0.5" stroke-dasharray=""/><path fill="none" stroke="#505050" paint-order="fill stroke markers" d=" M 416.07740783691406 138.3174614906311 L 424.07740783691406 138.3174614906311 L 424.07740783691406 146.3174614906311 L 416.07740783691406 146.3174614906311 L 416.07740783691406 138.3174614906311 Z" stroke-miterlimit="10" stroke-width="0.5" stroke-dasharray=""/><path fill="none" stroke="#505050" paint-order="fill stroke markers" d=" M 416.07740783691406 150.3174614906311 L 424.07740783691406 150.3174614906311 L 424.07740783691406 158.3174614906311 L 416.07740783691406 158.3174614906311 L 416.07740783691406 150.3174614906311 Z" stroke-miterlimit="10" stroke-width="0.5" stroke-dasharray=""/><path fill="none" stroke="#505050" paint-order="fill stroke markers" d=" M 432.07740783691406 126.3174614906311 L 440.07740783691406 126.3174614906311 L 440.07740783691406 134.3174614906311 L 432.07740783691406 134.3174614906311 L 432.07740783691406 126.3174614906311 Z" stroke-miterlimit="10" stroke-width="0.5" stroke-dasharray=""/><path fill="white" stroke="#505050" paint-order="fill stroke markers" d=" M 459.02125549316406 84.39700555801392 L 483.02125549316406 84.39700555801392 L 483.02125549316406 138.39700555801392 L 459.02125549316406 138.39700555801392 L 459.02125549316406 84.39700555801392 Z" stroke-miterlimit="10" stroke-width="0.5" stroke-dasharray=""/><path fill="#F0F0F0" stroke="none" paint-order="stroke fill markers" d=""/><path fill="none" stroke="none"/><text fill="#505050" stroke="none" font-family="monospace" font-size="14px" font-style="normal" font-weight="normal" text-decoration="normal" x="471.02125549316406" y="102.39700555801392" text-anchor="middle" dominant-baseline="text-after-edge">?</text><path fill="none" stroke="#505050" paint-order="fill stroke markers" d=" M 459.02125549316406 102.39700555801392 L 467.02125549316406 102.39700555801392 L 467.02125549316406 110.39700555801392 L 459.02125549316406 110.39700555801392 L 459.02125549316406 102.39700555801392 Z" stroke-miterlimit="10" stroke-width="0.5" stroke-dasharray=""/><path fill="none" stroke="#505050" paint-order="fill stroke markers" d=" M 459.02125549316406 114.39700555801392 L 467.02125549316406 114.39700555801392 L 467.02125549316406 122.39700555801392 L 459.02125549316406 122.39700555801392 L 459.02125549316406 114.39700555801392 Z" stroke-miterlimit="10" stroke-width="0.5" stroke-dasharray=""/><path fill="none" stroke="#505050" paint-order="fill stroke markers" d=" M 459.02125549316406 126.39700555801392 L 467.02125549316406 126.39700555801392 L 467.02125549316406 134.39700555801392 L 459.02125549316406 134.39700555801392 L 459.02125549316406 126.39700555801392 Z" stroke-miterlimit="10" stroke-width="0.5" stroke-dasharray=""/><path fill="none" stroke="#505050" paint-order="fill stroke markers" d=" M 475.02125549316406 102.39700555801392 L 483.02125549316406 102.39700555801392 L 483.02125549316406 110.39700555801392 L 475.02125549316406 110.39700555801392 L 475.02125549316406 102.39700555801392 Z" stroke-miterlimit="10" stroke-width="0.5" stroke-dasharray=""/><path fill="white" stroke="#505050" paint-order="fill stroke markers" d=" M 545.6591644287109 84.94388055801392 L 545.6591644287109 171.31988763809204 Q 545.6591644287109 179.31988763809204 553.6591644287109 179.31988763809204 L 643.6918182373047 179.31988763809204 Q 651.6918182373047 179.31988763809204 651.6918182373047 171.31988763809204 L 651.6918182373047 84.94388055801392 Q 651.6918182373047 76.94388055801392 643.6918182373047 76.94388055801392 L 553.6591644287109 76.94388055801392 Q 545.6591644287109 76.94388055801392 545.6591644287109 84.94388055801392" stroke-miterlimit="10" stroke-width="0.5" stroke-dasharray=""/><path fill="#F0F0F0" stroke="#505050" paint-order="fill stroke markers" d=" M 635.6918182373047 84.94388055801392 L 651.6918182373047 84.94388055801392 L 651.6918182373047 102.94388055801392 L 635.6918182373047 102.94388055801392 L 635.6918182373047 84.94388055801392 Z" stroke-miterlimit="10" stroke-width="0.5" stroke-dasharray=""/><path fill="none" stroke="none"/><text fill="#505050" stroke="none" font-family="monospace" font-size="14px" font-style="normal" font-weight="normal" text-decoration="normal" x="643.6918182373047" y="102.94388055801392" text-anchor="middle" dominant-baseline="text-after-edge">b</text><path fill="white" stroke="#505050" paint-order="fill stroke markers" d=" M 554.6122894287109 109.31988763809204 L 578.6122894287109 109.31988763809204 L 578.6122894287109 163.31988763809204 L 554.6122894287109 163.31988763809204 L 554.6122894287109 109.31988763809204 Z" stroke-miterlimit="10" stroke-width="0.5" stroke-dasharray=""/><path fill="#F0F0F0" stroke="none" paint-order="stroke fill markers" d=""/><path fill="none" stroke="none"/><text fill="#505050" stroke="none" font-family="monospace" font-size="14px" font-style="normal" font-weight="normal" text-decoration="normal" x="566.6122894287109" y="127.31988763809204" text-anchor="middle" dominant-baseline="text-after-edge">?</text><path fill="none" stroke="#505050" paint-order="fill stroke markers" d=" M 554.6122894287109 127.31988763809204 L 562.6122894287109 127.31988763809204 L 562.6122894287109 135.31988763809204 L 554.6122894287109 135.31988763809204 L 554.6122894287109 127.31988763809204 Z" stroke-miterlimit="10" stroke-width="0.5" stroke-dasharray=""/><path fill="none" stroke="#505050" paint-order="fill stroke markers" d=" M 554.6122894287109 139.31988763809204 L 562.6122894287109 139.31988763809204 L 562.6122894287109 147.31988763809204 L 554.6122894287109 147.31988763809204 L 554.6122894287109 139.31988763809204 Z" stroke-miterlimit="10" stroke-width="0.5" stroke-dasharray=""/><path fill="none" stroke="#505050" paint-order="fill stroke markers" d=" M 554.6122894287109 151.31988763809204 L 562.6122894287109 151.31988763809204 L 562.6122894287109 159.31988763809204 L 554.6122894287109 159.31988763809204 L 554.6122894287109 151.31988763809204 Z" stroke-miterlimit="10" stroke-width="0.5" stroke-dasharray=""/><path fill="none" stroke="#505050" paint-order="fill stroke markers" d=" M 570.6122894287109 127.31988763809204 L 578.6122894287109 127.31988763809204 L 578.6122894287109 135.31988763809204 L 570.6122894287109 135.31988763809204 L 570.6122894287109 127.31988763809204 Z" stroke-miterlimit="10" stroke-width="0.5" stroke-dasharray=""/><path fill="white" stroke="#505050" paint-order="fill stroke markers" d=" M 592.6008758544922 85.30253839492798 L 616.6008758544922 85.30253839492798 L 616.6008758544922 139.30253839492798 L 592.6008758544922 139.30253839492798 L 592.6008758544922 85.30253839492798 Z" stroke-miterlimit="10" stroke-width="0.5" stroke-dasharray=""/><path fill="#F0F0F0" stroke="none" paint-order="stroke fill markers" d=""/><path fill="none" stroke="none"/><text fill="#505050" stroke="none" font-family="monospace" font-size="14px" font-style="normal" font-weight="normal" text-decoration="normal" x="604.6008758544922" y="103.30253839492798" text-anchor="middle" dominant-baseline="text-after-edge">?</text><path fill="none" stroke="#505050" paint-order="fill stroke markers" d=" M 592.6008758544922 103.30253839492798 L 600.6008758544922 103.30253839492798 L 600.6008758544922 111.30253839492798 L 592.6008758544922 111.30253839492798 L 592.6008758544922 103.30253839492798 Z" stroke-miterlimit="10" stroke-width="0.5" stroke-dasharray=""/><path fill="none" stroke="#505050" paint-order="fill stroke markers" d=" M 592.6008758544922 115.30253839492798 L 600.6008758544922 115.30253839492798 L 600.6008758544922 123.30253839492798 L 592.6008758544922 123.30253839492798 L 592.6008758544922 115.30253839492798 Z" stroke-miterlimit="10" stroke-width="0.5" stroke-dasharray=""/><path fill="none" stroke="#505050" paint-order="fill stroke markers" d=" M 592.6008758544922 127.30253839492798 L 600.6008758544922 127.30253839492798 L 600.6008758544922 135.30253839492798 L 592.6008758544922 135.30253839492798 L 592.6008758544922 127.30253839492798 Z" stroke-miterlimit="10" stroke-width="0.5" stroke-dasharray=""/><path fill="none" stroke="#505050" paint-order="fill stroke markers" d=" M 608.6008758544922 103.30253839492798 L 616.6008758544922 103.30253839492798 L 616.6008758544922 111.30253839492798 L 608.6008758544922 111.30253839492798 L 608.6008758544922 103.30253839492798 Z" stroke-miterlimit="10" stroke-width="0.5" stroke-dasharray=""/><path fill="white" stroke="#505050" paint-order="fill stroke markers" d=" M 677.4240570068359 84.97938394546509 L 677.4240570068359 170.3991379737854 Q 677.4240570068359 178.3991379737854 685.4240570068359 178.3991379737854 L 859.2713470458984 178.3991379737854 Q 867.2713470458984 178.3991379737854 867.2713470458984 170.3991379737854 L 867.2713470458984 84.97938394546509 Q 867.2713470458984 76.97938394546509 859.2713470458984 76.97938394546509 L 685.4240570068359 76.97938394546509 Q 677.4240570068359 76.97938394546509 677.4240570068359 84.97938394546509" stroke-miterlimit="10" stroke-width="0.5" stroke-dasharray=""/><path fill="#F0F0F0" stroke="#505050" paint-order="fill stroke markers" d=" M 843.2713470458984 84.97938394546509 L 867.2713470458984 84.97938394546509 L 867.2713470458984 162.9793839454651 L 843.2713470458984 162.9793839454651 L 843.2713470458984 84.97938394546509 Z" stroke-miterlimit="10" stroke-width="0.5" stroke-dasharray=""/><path fill="none" stroke="none"/><text fill="#505050" stroke="none" font-family="monospace" font-size="14px" font-style="normal" font-weight="normal" text-decoration="normal" x="855.2713470458984" y="102.97938394546509" text-anchor="middle" dominant-baseline="text-after-edge">c</text><path fill="none" stroke="#505050" paint-order="fill stroke markers" d=" M 843.2713470458984 102.97938394546509 L 851.2713470458984 102.97938394546509 L 851.2713470458984 110.97938394546509 L 843.2713470458984 110.97938394546509 L 843.2713470458984 102.97938394546509 Z" stroke-miterlimit="10" stroke-width="0.5" stroke-dasharray=""/><path fill="none" stroke="#505050" paint-order="fill stroke markers" d=" M 843.2713470458984 114.97938394546509 L 851.2713470458984 114.97938394546509 L 851.2713470458984 122.97938394546509 L 843.2713470458984 122.97938394546509 L 843.2713470458984 114.97938394546509 Z" stroke-miterlimit="10" stroke-width="0.5" stroke-dasharray=""/><path fill="none" stroke="#505050" paint-order="fill stroke markers" d=" M 843.2713470458984 126.97938394546509 L 851.2713470458984 126.97938394546509 L 851.2713470458984 134.9793839454651 L 843.2713470458984 134.9793839454651 L 843.2713470458984 126.97938394546509 Z" stroke-miterlimit="10" stroke-width="0.5" stroke-dasharray=""/><path fill="none" stroke="#505050" paint-order="fill stroke markers" d=" M 843.2713470458984 138.9793839454651 L 851.2713470458984 138.9793839454651 L 851.2713470458984 146.9793839454651 L 843.2713470458984 146.9793839454651 L 843.2713470458984 138.9793839454651 Z" stroke-miterlimit="10" stroke-width="0.5" stroke-dasharray=""/><path fill="none" stroke="#505050" paint-order="fill stroke markers" d=" M 843.2713470458984 150.9793839454651 L 851.2713470458984 150.9793839454651 L 851.2713470458984 158.9793839454651 L 843.2713470458984 158.9793839454651 L 843.2713470458984 150.9793839454651 Z" stroke-miterlimit="10" stroke-width="0.5" stroke-dasharray=""/><path fill="none" stroke="#505050" paint-order="fill stroke markers" d=" M 859.2713470458984 102.97938394546509 L 867.2713470458984 102.97938394546509 L 867.2713470458984 110.97938394546509 L 859.2713470458984 110.97938394546509 L 859.2713470458984 102.97938394546509 Z" stroke-miterlimit="10" stroke-width="0.5" stroke-dasharray=""/><path fill="white" stroke="#505050" paint-order="fill stroke markers" d=" M 705.3459320068359 107.90553140640259 L 729.3459320068359 107.90553140640259 L 729.3459320068359 161.9055314064026 L 705.3459320068359 161.9055314064026 L 705.3459320068359 107.90553140640259 Z" stroke-miterlimit="10" stroke-width="0.5" stroke-dasharray=""/><path fill="#F0F0F0" stroke="none" paint-order="stroke fill markers" d=""/><path fill="none" stroke="none"/><text fill="#505050" stroke="none" font-family="monospace" font-size="14px" font-style="normal" font-weight="normal" text-decoration="normal" x="717.3459320068359" y="125.90553140640259" text-anchor="middle" dominant-baseline="text-after-edge">?</text><path fill="none" stroke="#505050" paint-order="fill stroke markers" d=" M 705.3459320068359 125.90553140640259 L 713.3459320068359 125.90553140640259 L 713.3459320068359 133.9055314064026 L 705.3459320068359 133.9055314064026 L 705.3459320068359 125.90553140640259 Z" stroke-miterlimit="10" stroke-width="0.5" stroke-dasharray=""/><path fill="none" stroke="#505050" paint-order="fill stroke markers" d=" M 705.3459320068359 137.9055314064026 L 713.3459320068359 137.9055314064026 L 713.3459320068359 145.9055314064026 L 705.3459320068359 145.9055314064026 L 705.3459320068359 137.9055314064026 Z" stroke-miterlimit="10" stroke-width="0.5" stroke-dasharray=""/><path fill="none" stroke="#505050" paint-order="fill stroke markers" d=" M 705.3459320068359 149.9055314064026 L 713.3459320068359 149.9055314064026 L 713.3459320068359 157.9055314064026 L 705.3459320068359 157.9055314064026 L 705.3459320068359 149.9055314064026 Z" stroke-miterlimit="10" stroke-width="0.5" stroke-dasharray=""/><path fill="none" stroke="#505050" paint-order="fill stroke markers" d=" M 721.3459320068359 125.90553140640259 L 729.3459320068359 125.90553140640259 L 729.3459320068359 133.9055314064026 L 721.3459320068359 133.9055314064026 L 721.3459320068359 125.90553140640259 Z" stroke-miterlimit="10" stroke-width="0.5" stroke-dasharray=""/><path fill="white" stroke="#505050" paint-order="fill stroke markers" d=" M 778.4105682373047 83.6761155128479 L 802.4105682373047 83.6761155128479 L 802.4105682373047 137.6761155128479 L 778.4105682373047 137.6761155128479 L 778.4105682373047 83.6761155128479 Z" stroke-miterlimit="10" stroke-width="0.5" stroke-dasharray=""/><path fill="#F0F0F0" stroke="none" paint-order="stroke fill markers" d=""/><path fill="none" stroke="none"/><text fill="#505050" stroke="none" font-family="monospace" font-size="14px" font-style="normal" font-weight="normal" text-decoration="normal" x="790.4105682373047" y="101.6761155128479" text-anchor="middle" dominant-baseline="text-after-edge">?</text><path fill="none" stroke="#505050" paint-order="fill stroke markers" d=" M 778.4105682373047 101.6761155128479 L 786.4105682373047 101.6761155128479 L 786.4105682373047 109.6761155128479 L 778.4105682373047 109.6761155128479 L 778.4105682373047 101.6761155128479 Z" stroke-miterlimit="10" stroke-width="0.5" stroke-dasharray=""/><path fill="none" stroke="#505050" paint-order="fill stroke markers" d=" M 778.4105682373047 113.6761155128479 L 786.4105682373047 113.6761155128479 L 786.4105682373047 121.6761155128479 L 778.4105682373047 121.6761155128479 L 778.4105682373047 113.6761155128479 Z" stroke-miterlimit="10" stroke-width="0.5" stroke-dasharray=""/><path fill="none" stroke="#505050" paint-order="fill stroke markers" d=" M 778.4105682373047 125.6761155128479 L 786.4105682373047 125.6761155128479 L 786.4105682373047 133.6761155128479 L 778.4105682373047 133.6761155128479 L 778.4105682373047 125.6761155128479 Z" stroke-miterlimit="10" stroke-width="0.5" stroke-dasharray=""/><path fill="none" stroke="#505050" paint-order="fill stroke markers" d=" M 794.4105682373047 101.6761155128479 L 802.4105682373047 101.6761155128479 L 802.4105682373047 109.6761155128479 L 794.4105682373047 109.6761155128479 L 794.4105682373047 101.6761155128479 Z" stroke-miterlimit="10" stroke-width="0.5" stroke-dasharray=""/><path fill="white" stroke="#505050" paint-order="fill stroke markers" d=" M 677.4240570068359 122.3991379737854 L 693.4240570068359 122.3991379737854 L 693.4240570068359 138.3991379737854 L 677.4240570068359 138.3991379737854 L 685.4240570068359 130.3991379737854 L 677.4240570068359 122.3991379737854" stroke-miterlimit="10" stroke-width="0.5" stroke-dasharray=""/><path fill="none" stroke="none"/><path fill="none" stroke="#505050" paint-order="fill stroke markers" d=" M 685.4240570068359 126.3991379737854 L 693.4240570068359 126.3991379737854 L 693.4240570068359 134.3991379737854 L 685.4240570068359 134.3991379737854 L 685.4240570068359 126.3991379737854 Z" stroke-miterlimit="10" stroke-width="0.5" stroke-dasharray=""/><path fill="white" stroke="#505050" paint-order="fill stroke markers" d=" M 677.4240570068359 134.3991379737854 L 693.4240570068359 134.3991379737854 L 693.4240570068359 150.3991379737854 L 677.4240570068359 150.3991379737854 L 685.4240570068359 142.3991379737854 L 677.4240570068359 134.3991379737854" stroke-miterlimit="10" stroke-width="0.5" stroke-dasharray=""/><path fill="none" stroke="none"/><path fill="none" stroke="#505050" paint-order="fill stroke markers" d=" M 685.4240570068359 138.3991379737854 L 693.4240570068359 138.3991379737854 L 693.4240570068359 146.3991379737854 L 685.4240570068359 146.3991379737854 L 685.4240570068359 138.3991379737854 Z" stroke-miterlimit="10" stroke-width="0.5" stroke-dasharray=""/><path fill="white" stroke="#505050" paint-order="fill stroke markers" d=" M 677.4240570068359 146.3991379737854 L 693.4240570068359 146.3991379737854 L 693.4240570068359 162.3991379737854 L 677.4240570068359 162.3991379737854 L 685.4240570068359 154.3991379737854 L 677.4240570068359 146.3991379737854" stroke-miterlimit="10" stroke-width="0.5" stroke-dasharray=""/><path fill="none" stroke="none"/><path fill="none" stroke="#505050" paint-order="fill stroke markers" d=" M 685.4240570068359 150.3991379737854 L 693.4240570068359 150.3991379737854 L 693.4240570068359 158.3991379737854 L 685.4240570068359 158.3991379737854 L 685.4240570068359 150.3991379737854 Z" stroke-miterlimit="10" stroke-width="0.5" stroke-dasharray=""/><path fill="white" stroke="#505050" paint-order="fill stroke markers" d=" M 746.4105682373047 97.6761155128479 L 762.4105682373047 97.6761155128479 L 762.4105682373047 113.6761155128479 L 746.4105682373047 113.6761155128479 L 754.4105682373047 105.6761155128479 L 746.4105682373047 97.6761155128479" stroke-miterlimit="10" stroke-width="0.5" stroke-dasharray=""/><path fill="none" stroke="none"/><path fill="none" stroke="#505050" paint-order="fill stroke markers" d=" M 754.4105682373047 101.6761155128479 L 762.4105682373047 101.6761155128479 L 762.4105682373047 109.6761155128479 L 754.4105682373047 109.6761155128479 L 754.4105682373047 101.6761155128479 Z" stroke-miterlimit="10" stroke-width="0.5" stroke-dasharray=""/><path fill="white" stroke="#505050" paint-order="fill stroke markers" d=" M 746.4105682373047 109.6761155128479 L 762.4105682373047 109.6761155128479 L 762.4105682373047 125.6761155128479 L 746.4105682373047 125.6761155128479 L 754.4105682373047 117.6761155128479 L 746.4105682373047 109.6761155128479" stroke-miterlimit="10" stroke-width="0.5" stroke-dasharray=""/><path fill="none" stroke="none"/><path fill="none" stroke="#505050" paint-order="fill stroke markers" d=" M 754.4105682373047 113.6761155128479 L 762.4105682373047 113.6761155128479 L 762.4105682373047 121.6761155128479 L 754.4105682373047 121.6761155128479 L 754.4105682373047 113.6761155128479 Z" stroke-miterlimit="10" stroke-width="0.5" stroke-dasharray=""/><path fill="white" stroke="#505050" paint-order="fill stroke markers" d=" M 818.4105682373047 97.6761155128479 L 826.4105682373047 97.6761155128479 L 834.4105682373047 105.6761155128479 L 826.4105682373047 113.6761155128479 L 818.4105682373047 113.6761155128479 L 818.4105682373047 97.6761155128479" stroke-miterlimit="10" stroke-width="0.5" stroke-dasharray=""/><path fill="none" stroke="none"/><path fill="none" stroke="#505050" paint-order="fill stroke markers" d=" M 818.4105682373047 101.6761155128479 L 826.4105682373047 101.6761155128479 L 826.4105682373047 109.6761155128479 L 818.4105682373047 109.6761155128479 L 818.4105682373047 101.6761155128479 Z" stroke-miterlimit="10" stroke-width="0.5" stroke-dasharray=""/><path fill="white" stroke="#505050" paint-order="fill stroke markers" d=" M 896.4162445068359 83.0570855140686 L 896.4162445068359 169.88308954238892 Q 896.4162445068359 177.88308954238892 904.4162445068359 177.88308954238892 L 1026.3274993896484 177.88308954238892 Q 1034.3274993896484 177.88308954238892 1034.3274993896484 169.88308954238892 L 1034.3274993896484 83.0570855140686 Q 1034.3274993896484 75.0570855140686 1026.3274993896484 75.0570855140686 L 904.4162445068359 75.0570855140686 Q 896.4162445068359 75.0570855140686 896.4162445068359 83.0570855140686" stroke-miterlimit="10" stroke-width="0.5" stroke-dasharray=""/><path fill="#F0F0F0" stroke="#505050" paint-order="fill stroke markers" d=" M 1010.3274993896484 83.0570855140686 L 1034.3274993896484 83.0570855140686 L 1034.3274993896484 161.0570855140686 L 1010.3274993896484 161.0570855140686 L 1010.3274993896484 83.0570855140686 Z" stroke-miterlimit="10" stroke-width="0.5" stroke-dasharray=""/><path fill="none" stroke="none"/><text fill="#505050" stroke="none" font-family="monospace" font-size="14px" font-style="normal" font-weight="normal" text-decoration="normal" x="1022.3274993896484" y="101.0570855140686" text-anchor="middle" dominant-baseline="text-after-edge">d</text><path fill="none" stroke="#505050" paint-order="fill stroke markers" d=" M 1010.3274993896484 101.0570855140686 L 1018.3274993896484 101.0570855140686 L 1018.3274993896484 109.0570855140686 L 1010.3274993896484 109.0570855140686 L 1010.3274993896484 101.0570855140686 Z" stroke-miterlimit="10" stroke-width="0.5" stroke-dasharray=""/><path fill="none" stroke="#505050" paint-order="fill stroke markers" d=" M 1010.3274993896484 113.0570855140686 L 1018.3274993896484 113.0570855140686 L 1018.3274993896484 121.0570855140686 L 1010.3274993896484 121.0570855140686 L 1010.3274993896484 113.0570855140686 Z" stroke-miterlimit="10" stroke-width="0.5" stroke-dasharray=""/><path fill="none" stroke="#505050" paint-order="fill stroke markers" d=" M 1010.3274993896484 125.0570855140686 L 1018.3274993896484 125.0570855140686 L 1018.3274993896484 133.0570855140686 L 1010.3274993896484 133.0570855140686 L 1010.3274993896484 125.0570855140686 Z" stroke-miterlimit="10" stroke-width="0.5" stroke-dasharray=""/><path fill="none" stroke="#505050" paint-order="fill stroke markers" d=" M 1010.3274993896484 137.0570855140686 L 1018.3274993896484 137.0570855140686 L 1018.3274993896484 145.0570855140686 L 1010.3274993896484 145.0570855140686 L 1010.3274993896484 137.0570855140686 Z" stroke-miterlimit="10" stroke-width="0.5" stroke-dasharray=""/><path fill="none" stroke="#505050" paint-order="fill stroke markers" d=" M 1010.3274993896484 149.0570855140686 L 1018.3274993896484 149.0570855140686 L 1018.3274993896484 157.0570855140686 L 1010.3274993896484 157.0570855140686 L 1010.3274993896484 149.0570855140686 Z" stroke-miterlimit="10" stroke-width="0.5" stroke-dasharray=""/><path fill="none" stroke="#505050" paint-order="fill stroke markers" d=" M 1026.3274993896484 101.0570855140686 L 1034.3274993896484 101.0570855140686 L 1034.3274993896484 109.0570855140686 L 1026.3274993896484 109.0570855140686 L 1026.3274993896484 101.0570855140686 Z" stroke-miterlimit="10" stroke-width="0.5" stroke-dasharray=""/><path fill="none" stroke="#505050" paint-order="fill stroke markers" d=" M 1026.3274993896484 113.0570855140686 L 1034.3274993896484 113.0570855140686 L 1034.3274993896484 121.0570855140686 L 1026.3274993896484 121.0570855140686 L 1026.3274993896484 113.0570855140686 Z" stroke-miterlimit="10" stroke-width="0.5" stroke-dasharray=""/><path fill="none" stroke="#505050" paint-order="fill stroke markers" d=" M 968.6633148193359 115.17498254776001 L 960.6633148193359 115.17498254776001 M 968.6633148193359 127.17498254776001 L 960.6633148193359 127.17498254776001 M 924.6150360107422 141.88308954238892 L 916.6150360107422 141.88308954238892 M 924.6150360107422 153.88308954238892 L 916.6150360107422 153.88308954238892 M 992.6633148193359 103.17498254776001 L 1000.6633148193359 103.17498254776001 M 948.6150360107422 129.88308954238892 L 956.6150360107422 129.88308954238892" stroke-miterlimit="10" stroke-dasharray=""/><path fill="white" stroke="#505050" paint-order="fill stroke markers" d=" M 924.6150360107422 107.88308954238892 L 948.6150360107422 107.88308954238892 L 948.6150360107422 161.88308954238892 L 924.6150360107422 161.88308954238892 L 924.6150360107422 107.88308954238892 Z" stroke-miterlimit="10" stroke-width="0.5" stroke-dasharray=""/><path fill="#F0F0F0" stroke="none" paint-order="stroke fill markers" d=""/><path fill="none" stroke="none"/><text fill="#505050" stroke="none" font-family="monospace" font-size="14px" font-style="normal" font-weight="normal" text-decoration="normal" x="936.6150360107422" y="125.88308954238892" text-anchor="middle" dominant-baseline="text-after-edge">?</text><path fill="none" stroke="#505050" paint-order="fill stroke markers" d=" M 924.6150360107422 125.88308954238892 L 932.6150360107422 125.88308954238892 L 932.6150360107422 133.88308954238892 L 924.6150360107422 133.88308954238892 L 924.6150360107422 125.88308954238892 Z" stroke-miterlimit="10" stroke-width="0.5" stroke-dasharray=""/><path fill="none" stroke="#505050" paint-order="fill stroke markers" d=" M 924.6150360107422 137.88308954238892 L 932.6150360107422 137.88308954238892 L 932.6150360107422 145.88308954238892 L 924.6150360107422 145.88308954238892 L 924.6150360107422 137.88308954238892 Z" stroke-miterlimit="10" stroke-width="0.5" stroke-dasharray=""/><path fill="none" stroke="#505050" paint-order="fill stroke markers" d=" M 924.6150360107422 149.88308954238892 L 932.6150360107422 149.88308954238892 L 932.6150360107422 157.88308954238892 L 924.6150360107422 157.88308954238892 L 924.6150360107422 149.88308954238892 Z" stroke-miterlimit="10" stroke-width="0.5" stroke-dasharray=""/><path fill="none" stroke="#505050" paint-order="fill stroke markers" d=" M 940.6150360107422 125.88308954238892 L 948.6150360107422 125.88308954238892 L 948.6150360107422 133.88308954238892 L 940.6150360107422 133.88308954238892 L 940.6150360107422 125.88308954238892 Z" stroke-miterlimit="10" stroke-width="0.5" stroke-dasharray=""/><path fill="white" stroke="#505050" paint-order="fill stroke markers" d=" M 968.6633148193359 81.17498254776001 L 992.6633148193359 81.17498254776001 L 992.6633148193359 135.17498254776 L 968.6633148193359 135.17498254776 L 968.6633148193359 81.17498254776001 Z" stroke-miterlimit="10" stroke-width="0.5" stroke-dasharray=""/><path fill="#F0F0F0" stroke="none" paint-order="stroke fill markers" d=""/><path fill="none" stroke="none"/><text fill="#505050" stroke="none" font-family="monospace" font-size="14px" font-style="normal" font-weight="normal" text-decoration="normal" x="980.6633148193359" y="99.17498254776001" text-anchor="middle" dominant-baseline="text-after-edge">?</text><path fill="none" stroke="#505050" paint-order="fill stroke markers" d=" M 968.6633148193359 99.17498254776001 L 976.6633148193359 99.17498254776001 L 976.6633148193359 107.17498254776001 L 968.6633148193359 107.17498254776001 L 968.6633148193359 99.17498254776001 Z" stroke-miterlimit="10" stroke-width="0.5" stroke-dasharray=""/><path fill="none" stroke="#505050" paint-order="fill stroke markers" d=" M 968.6633148193359 111.17498254776001 L 976.6633148193359 111.17498254776001 L 976.6633148193359 119.17498254776001 L 968.6633148193359 119.17498254776001 L 968.6633148193359 111.17498254776001 Z" stroke-miterlimit="10" stroke-width="0.5" stroke-dasharray=""/><path fill="none" stroke="#505050" paint-order="fill stroke markers" d=" M 968.6633148193359 123.17498254776001 L 976.6633148193359 123.17498254776001 L 976.6633148193359 131.17498254776 L 968.6633148193359 131.17498254776 L 968.6633148193359 123.17498254776001 Z" stroke-miterlimit="10" stroke-width="0.5" stroke-dasharray=""/><path fill="none" stroke="#505050" paint-order="fill stroke markers" d=" M 984.6633148193359 99.17498254776001 L 992.6633148193359 99.17498254776001 L 992.6633148193359 107.17498254776001 L 984.6633148193359 107.17498254776001 L 984.6633148193359 99.17498254776001 Z" stroke-miterlimit="10" stroke-width="0.5" stroke-dasharray=""/><path fill="white" stroke="#505050" paint-order="fill stroke markers" d=" M 900.5533294677734 82.67002391815186 L 916.5533294677734 82.67002391815186 L 916.5533294677734 98.67002391815186 L 900.5533294677734 98.67002391815186 L 908.5533294677734 90.67002391815186 L 900.5533294677734 82.67002391815186" stroke-miterlimit="10" stroke-width="0.5" stroke-dasharray=""/><path fill="none" stroke="none"/><path fill="none" stroke="#505050" paint-order="fill stroke markers" d=" M 908.5533294677734 86.67002391815186 L 916.5533294677734 86.67002391815186 L 916.5533294677734 94.67002391815186 L 908.5533294677734 94.67002391815186 L 908.5533294677734 86.67002391815186 Z" stroke-miterlimit="10" stroke-width="0.5" stroke-dasharray=""/><path fill="none" stroke="#505050" paint-order="fill stroke markers" d=" M 440.07740783691406 130.3174614906311 C 445.76061223367543 130.3174614906311 453.3380510964027 130.39700555801392 459.02125549316406 130.39700555801392" stroke-miterlimit="10" stroke-dasharray=""/><path fill="none" stroke="#505050" paint-order="fill stroke markers" d=" M 578.6122894287109 131.31988763809204 C 582.808868584035 131.31988763809204 588.4042966991681 131.30253839492798 592.6008758544922 131.30253839492798" stroke-miterlimit="10" stroke-dasharray=""/><path fill="none" stroke="#505050" paint-order="fill stroke markers" d=" M 729.3459320068359 129.9055314064026 C 744.0654837801488 129.9055314064026 763.6910164639918 129.6761155128479 778.4105682373047 129.6761155128479" stroke-miterlimit="10" stroke-dasharray=""/><path fill="none" stroke="#505050" paint-order="fill stroke markers" d=" M 693.4240570068359 130.3991379737854 C 697.0036837452416 130.3991379737854 701.7663052684303 129.9055314064026 705.3459320068359 129.9055314064026" stroke-miterlimit="10" stroke-dasharray=""/><path fill="none" stroke="#505050" paint-order="fill stroke markers" d=" M 693.4240570068359 142.3991379737854 C 697.0036837452416 142.3991379737854 701.7663052684303 141.9055314064026 705.3459320068359 141.9055314064026" stroke-miterlimit="10" stroke-dasharray=""/><path fill="none" stroke="#505050" paint-order="fill stroke markers" d=" M 693.4240570068359 154.3991379737854 C 697.0036837452416 154.3991379737854 701.7663052684303 153.9055314064026 705.3459320068359 153.9055314064026" stroke-miterlimit="10" stroke-dasharray=""/><path fill="none" stroke="#505050" paint-order="fill stroke markers" d=" M 762.4105682373047 105.6761155128479 C 767.2105682373046 105.6761155128479 773.6105682373047 105.6761155128479 778.4105682373047 105.6761155128479" stroke-miterlimit="10" stroke-dasharray=""/><path fill="none" stroke="#505050" paint-order="fill stroke markers" d=" M 762.4105682373047 117.6761155128479 C 767.2105682373046 117.6761155128479 773.6105682373047 117.6761155128479 778.4105682373047 117.6761155128479" stroke-miterlimit="10" stroke-dasharray=""/><path fill="none" stroke="#505050" paint-order="fill stroke markers" d=" M 802.4105682373047 105.6761155128479 C 807.2105682373046 105.6761155128479 813.6105682373047 105.6761155128479 818.4105682373047 105.6761155128479" stroke-miterlimit="10" stroke-dasharray=""/><path fill="none" stroke="#505050" paint-order="fill stroke markers" d=" M 916.5533294677734 90.67002391815186 C 932.6301516267122 90.67002391815186 952.5864926603972 103.17498254776001 968.6633148193359 103.17498254776001" stroke-miterlimit="10" stroke-dasharray=""/><path fill="none" stroke="#505050" paint-order="fill stroke markers" d=" M 916.5533294677734 90.67002391815186 C 928.5632839440906 90.67002391815186 912.605081534425 129.88308954238892 924.6150360107422 129.88308954238892" stroke-miterlimit="10" stroke-dasharray=""/></g></g></svg>