<svg version="1.1" xmlns="http://www.w3.org/2000/svg" xmlns:xlink="http://www.w3.org/1999/xlink" width="634.3643798828125" height="121.77870559692383"><defs/><g transform="translate(-337.03733825683594,-68.00672769546509)"><g><path fill="white" stroke="#505050" paint-order="fill stroke markers" d=" M 677.6342315673828 84.7705864906311 L 677.6342315673828 172.2073998451233 Q 677.6342315673828 180.2073998451233 685.6342315673828 180.2073998451233 L 794.5056610107422 180.2073998451233 Q 802.5056610107422 180.2073998451233 802.5056610107422 172.2073998451233 L 802.5056610107422 84.7705864906311 Q 802.5056610107422 76.7705864906311 794.5056610107422 76.7705864906311 L 685.6342315673828 76.7705864906311 Q 677.6342315673828 76.7705864906311 677.6342315673828 84.7705864906311" stroke-miterlimit="10" stroke-width="0.5" stroke-dasharray=""/><path fill="#F0F0F0" stroke="#505050" paint-order="fill stroke markers" d=" M 778.5056610107422 84.7705864906311 L 802.5056610107422 84.7705864906311 L 802.5056610107422 162.7705864906311 L 778.5056610107422 162.7705864906311 L 778.5056610107422 84.7705864906311 Z" stroke-miterlimit="10" stroke-width="0.5" stroke-dasharray=""/><path fill="none" stroke="none"/><text fill="#505050" stroke="none" font-family="monospace" font-size="14px" font-style="normal" font-weight="normal" text-decoration="normal" x="790.5056610107422" y="102.7705864906311" text-anchor="middle" dominant-baseline="text-after-edge">c</text><path fill="none" stroke="#505050" paint-order="fill stroke markers" d=" M 778.5056610107422 102.7705864906311 L 786.5056610107422 102.7705864906311 L 786.5056610107422 110.7705864906311 L 778.5056610107422 110.7705864906311 L 778.5056610107422 102.7705864906311 Z" stroke-miterlimit="10" stroke-width="0.5" stroke-dasharray=""/><path fill="none" stroke="#505050" paint-order="fill stroke markers" d=" M 778.5056610107422 114.7705864906311 L 786.5056610107422 114.7705864906311 L 786.5056610107422 122.7705864906311 L 778.5056610107422 122.7705864906311 L 778.5056610107422 114.7705864906311 Z" stroke-miterlimit="10" stroke-width="0.5" stroke-dasharray=""/><path fill="none" stroke="#505050" paint-order="fill stroke markers" d=" M 778.5056610107422 126.7705864906311 L 786.5056610107422 126.7705864906311 L 786.5056610107422 134.7705864906311 L 778.5056610107422 134.7705864906311 L 778.5056610107422 126.7705864906311 Z" stroke-miterlimit="10" stroke-width="0.5" stroke-dasharray=""/><path fill="none" stroke="#505050" paint-order="fill stroke markers" d=" M 778.5056610107422 138.7705864906311 L 786.5056610107422 138.7705864906311 L 786.5056610107422 146.7705864906311 L 778.5056610107422 146.7705864906311 L 778.5056610107422 138.7705864906311 Z" stroke-miterlimit="10" stroke-width="0.5" stroke-dasharray=""/><path fill="none" stroke="#505050" paint-order="fill stroke markers" d=" M 778.5056610107422 150.7705864906311 L 786.5056610107422 150.7705864906311 L 786.5056610107422 158.7705864906311 L 778.5056610107422 158.7705864906311 L 778.5056610107422 150.7705864906311 Z" stroke-miterlimit="10" stroke-width="0.5" stroke-dasharray=""/><path fill="none" stroke="#505050" paint-order="fill stroke markers" d=" M 794.5056610107422 102.7705864906311 L 802.5056610107422 102.7705864906311 L 802.5056610107422 110.7705864906311 L 794.5056610107422 110.7705864906311 L 794.5056610107422 102.7705864906311 Z" stroke-miterlimit="10" stroke-width="0.5" stroke-dasharray=""/><path fill="none" stroke="#505050" paint-order="fill stroke markers" d=" M 733.2868804931641 107.49856805801392 L 725.2868804931641 107.49856805801392 M 733.2868804931641 119.49856805801392 L 725.2868804931641 119.49856805801392 M 690.3430328369141 131.4190239906311 L 682.3430328369141 131.4190239906311 M 690.3430328369141 143.4190239906311 L 682.3430328369141 143.4190239906311 M 690.3430328369141 155.4190239906311 L 682.3430328369141 155.4190239906311 M 757.2868804931641 107.49856805801392 L 765.2868804931641 107.49856805801392" stroke-miterlimit="10" stroke-dasharray=""/><path fill="white" stroke="#505050" paint-order="fill stroke markers" d=" M 690.3430328369141 109.4190239906311 L 714.3430328369141 109.4190239906311 L 714.3430328369141 163.4190239906311 L 690.3430328369141 163.4190239906311 L 690.3430328369141 109.4190239906311 Z" stroke-miterlimit="10" stroke-width="0.5" stroke-dasharray=""/><path fill="#F0F0F0" stroke="none" paint-order="stroke fill markers" d=""/><path fill="none" stroke="none"/><text fill="#505050" stroke="none" font-family="monospace" font-size="14px" font-style="normal" font-weight="normal" text-decoration="normal" x="702.3430328369141" y="127.4190239906311" text-anchor="middle" dominant-baseline="text-after-edge">?</text><path fill="none" stroke="#505050" paint-order="fill stroke markers" d=" M 690.3430328369141 127.4190239906311 L 698.3430328369141 127.4190239906311 L 698.3430328369141 135.4190239906311 L 690.3430328369141 135.4190239906311 L 690.3430328369141 127.4190239906311 Z" stroke-miterlimit="10" stroke-width="0.5" stroke-dasharray=""/><path fill="none" stroke="#505050" paint-order="fill stroke markers" d=" M 690.3430328369141 139.4190239906311 L 698.3430328369141 139.4190239906311 L 698.3430328369141 147.4190239906311 L 690.3430328369141 147.4190239906311 L 690.3430328369141 139.4190239906311 Z" stroke-miterlimit="10" stroke-width="0.5" stroke-dasharray=""/><path fill="none" stroke="#505050" paint-order="fill stroke markers" d=" M 690.3430328369141 151.4190239906311 L 698.3430328369141 151.4190239906311 L 698.3430328369141 159.4190239906311 L 690.3430328369141 159.4190239906311 L 690.3430328369141 151.4190239906311 Z" stroke-miterlimit="10" stroke-width="0.5" stroke-dasharray=""/><path fill="none" stroke="#505050" paint-order="fill stroke markers" d=" M 706.3430328369141 127.4190239906311 L 714.3430328369141 127.4190239906311 L 714.3430328369141 135.4190239906311 L 706.3430328369141 135.4190239906311 L 706.3430328369141 127.4190239906311 Z" stroke-miterlimit="10" stroke-width="0.5" stroke-dasharray=""/><path fill="white" stroke="#505050" paint-order="fill stroke markers" d=" M 733.2868804931641 85.49856805801392 L 757.2868804931641 85.49856805801392 L 757.2868804931641 139.49856805801392 L 733.2868804931641 139.49856805801392 L 733.2868804931641 85.49856805801392 Z" stroke-miterlimit="10" stroke-width="0.5" stroke-dasharray=""/><path fill="#F0F0F0" stroke="none" paint-order="stroke fill markers" d=""/><path fill="none" stroke="none"/><text fill="#505050" stroke="none" font-family="monospace" font-size="14px" font-style="normal" font-weight="normal" text-decoration="normal" x="745.2868804931641" y="103.49856805801392" text-anchor="middle" dominant-baseline="text-after-edge">?</text><path fill="none" stroke="#505050" paint-order="fill stroke markers" d=" M 733.2868804931641 103.49856805801392 L 741.2868804931641 103.49856805801392 L 741.2868804931641 111.49856805801392 L 733.2868804931641 111.49856805801392 L 733.2868804931641 103.49856805801392 Z" stroke-miterlimit="10" stroke-width="0.5" stroke-dasharray=""/><path fill="none" stroke="#505050" paint-order="fill stroke markers" d=" M 733.2868804931641 115.49856805801392 L 741.2868804931641 115.49856805801392 L 741.2868804931641 123.49856805801392 L 733.2868804931641 123.49856805801392 L 733.2868804931641 115.49856805801392 Z" stroke-miterlimit="10" stroke-width="0.5" stroke-dasharray=""/><path fill="none" stroke="#505050" paint-order="fill stroke markers" d=" M 733.2868804931641 127.49856805801392 L 741.2868804931641 127.49856805801392 L 741.2868804931641 135.49856805801392 L 733.2868804931641 135.49856805801392 L 733.2868804931641 127.49856805801392 Z" stroke-miterlimit="10" stroke-width="0.5" stroke-dasharray=""/><path fill="none" stroke="#505050" paint-order="fill stroke markers" d=" M 749.2868804931641 103.49856805801392 L 757.2868804931641 103.49856805801392 L 757.2868804931641 111.49856805801392 L 749.2868804931641 111.49856805801392 L 749.2868804931641 103.49856805801392 Z" stroke-miterlimit="10" stroke-width="0.5" stroke-dasharray=""/><path fill="white" stroke="#505050" paint-order="fill stroke markers" d=" M 551.8622894287109 84.71731805801392 L 551.8622894287109 171.09332513809204 Q 551.8622894287109 179.09332513809204 559.8622894287109 179.09332513809204 L 649.8949432373047 179.09332513809204 Q 657.8949432373047 179.09332513809204 657.8949432373047 171.09332513809204 L 657.8949432373047 84.71731805801392 Q 657.8949432373047 76.71731805801392 649.8949432373047 76.71731805801392 L 559.8622894287109 76.71731805801392 Q 551.8622894287109 76.71731805801392 551.8622894287109 84.71731805801392" stroke-miterlimit="10" stroke-width="0.5" stroke-dasharray=""/><path fill="#F0F0F0" stroke="#505050" paint-order="fill stroke markers" d=" M 641.8949432373047 84.71731805801392 L 657.8949432373047 84.71731805801392 L 657.8949432373047 102.71731805801392 L 641.8949432373047 102.71731805801392 L 641.8949432373047 84.71731805801392 Z" stroke-miterlimit="10" stroke-width="0.5" stroke-dasharray=""/><path fill="none" stroke="none"/><text fill="#505050" stroke="none" font-family="monospace" font-size="14px" font-style="normal" font-weight="normal" text-decoration="normal" x="649.8949432373047" y="102.71731805801392" text-anchor="middle" dominant-baseline="text-after-edge">b</text><path fill="white" stroke="#505050" paint-order="fill stroke markers" d=" M 560.8154144287109 109.09332513809204 L 584.8154144287109 109.09332513809204 L 584.8154144287109 163.09332513809204 L 560.8154144287109 163.09332513809204 L 560.8154144287109 109.09332513809204 Z" stroke-miterlimit="10" stroke-width="0.5" stroke-dasharray=""/><path fill="#F0F0F0" stroke="none" paint-order="stroke fill markers" d=""/><path fill="none" stroke="none"/><text fill="#505050" stroke="none" font-family="monospace" font-size="14px" font-style="normal" font-weight="normal" text-decoration="normal" x="572.8154144287109" y="127.09332513809204" text-anchor="middle" dominant-baseline="text-after-edge">?</text><path fill="none" stroke="#505050" paint-order="fill stroke markers" d=" M 560.8154144287109 127.09332513809204 L 568.8154144287109 127.09332513809204 L 568.8154144287109 135.09332513809204 L 560.8154144287109 135.09332513809204 L 560.8154144287109 127.09332513809204 Z" stroke-miterlimit="10" stroke-width="0.5" stroke-dasharray=""/><path fill="none" stroke="#505050" paint-order="fill stroke markers" d=" M 560.8154144287109 139.09332513809204 L 568.8154144287109 139.09332513809204 L 568.8154144287109 147.09332513809204 L 560.8154144287109 147.09332513809204 L 560.8154144287109 139.09332513809204 Z" stroke-miterlimit="10" stroke-width="0.5" stroke-dasharray=""/><path fill="none" stroke="#505050" paint-order="fill stroke markers" d=" M 560.8154144287109 151.09332513809204 L 568.8154144287109 151.09332513809204 L 568.8154144287109 159.09332513809204 L 560.8154144287109 159.09332513809204 L 560.8154144287109 151.09332513809204 Z" stroke-miterlimit="10" stroke-width="0.5" stroke-dasharray=""/><path fill="none" stroke="#505050" paint-order="fill stroke markers" d=" M 576.8154144287109 127.09332513809204 L 584.8154144287109 127.09332513809204 L 584.8154144287109 135.09332513809204 L 576.8154144287109 135.09332513809204 L 576.8154144287109 127.09332513809204 Z" stroke-miterlimit="10" stroke-width="0.5" stroke-dasharray=""/><path fill="white" stroke="#505050" paint-order="fill stroke markers" d=" M 598.8040008544922 85.07597589492798 L 622.8040008544922 85.07597589492798 L 622.8040008544922 139.07597589492798 L 598.8040008544922 139.07597589492798 L 598.8040008544922 85.07597589492798 Z" stroke-miterlimit="10" stroke-width="0.5" stroke-dasharray=""/><path fill="#F0F0F0" stroke="none" paint-order="stroke fill markers" d=""/><path fill="none" stroke="none"/><text fill="#505050" stroke="none" font-family="monospace" font-size="14px" font-style="normal" font-weight="normal" text-decoration="normal" x="610.8040008544922" y="103.07597589492798" text-anchor="middle" dominant-baseline="text-after-edge">?</text><path fill="none" stroke="#505050" paint-order="fill stroke markers" d=" M 598.8040008544922 103.07597589492798 L 606.8040008544922 103.07597589492798 L 606.8040008544922 111.07597589492798 L 598.8040008544922 111.07597589492798 L 598.8040008544922 103.07597589492798 Z" stroke-miterlimit="10" stroke-width="0.5" stroke-dasharray=""/><path fill="none" stroke="#505050" paint-order="fill stroke markers" d=" M 598.8040008544922 115.07597589492798 L 606.8040008544922 115.07597589492798 L 606.8040008544922 123.07597589492798 L 598.8040008544922 123.07597589492798 L 598.8040008544922 115.07597589492798 Z" stroke-miterlimit="10" stroke-width="0.5" stroke-dasharray=""/><path fill="none" stroke="#505050" paint-order="fill stroke markers" d=" M 598.8040008544922 127.07597589492798 L 606.8040008544922 127.07597589492798 L 606.8040008544922 135.07597589492798 L 598.8040008544922 135.07597589492798 L 598.8040008544922 127.07597589492798 Z" stroke-miterlimit="10" stroke-width="0.5" stroke-dasharray=""/><path fill="none" stroke="#505050" paint-order="fill stroke markers" d=" M 614.8040008544922 103.07597589492798 L 622.8040008544922 103.07597589492798 L 622.8040008544922 111.07597589492798 L 614.8040008544922 111.07597589492798 L 614.8040008544922 103.07597589492798 Z" stroke-miterlimit="10" stroke-width="0.5" stroke-dasharray=""/><path fill="white" stroke="#505050" paint-order="fill stroke markers" d=" M 345.03733825683594 84.00672769546509 L 345.03733825683594 169.4264817237854 Q 345.03733825683594 177.4264817237854 353.03733825683594 177.4264817237854 L 526.8846282958984 177.4264817237854 Q 534.8846282958984 177.4264817237854 534.8846282958984 169.4264817237854 L 534.8846282958984 84.00672769546509 Q 534.8846282958984 76.00672769546509 526.8846282958984 76.00672769546509 L 353.03733825683594 76.00672769546509 Q 345.03733825683594 76.00672769546509 345.03733825683594 84.00672769546509" stroke-miterlimit="10" stroke-width="0.5" stroke-dasharray=""/><path fill="#F0F0F0" stroke="#505050" paint-order="fill stroke markers" d=" M 510.88462829589844 84.00672769546509 L 534.8846282958984 84.00672769546509 L 534.8846282958984 162.0067276954651 L 510.88462829589844 162.0067276954651 L 510.88462829589844 84.00672769546509 Z" stroke-miterlimit="10" stroke-width="0.5" stroke-dasharray=""/><path fill="none" stroke="none"/><text fill="#505050" stroke="none" font-family="monospace" font-size="14px" font-style="normal" font-weight="normal" text-decoration="normal" x="522.8846282958984" y="102.00672769546509" text-anchor="middle" dominant-baseline="text-after-edge">a</text><path fill="none" stroke="#505050" paint-order="fill stroke markers" d=" M 510.88462829589844 102.00672769546509 L 518.8846282958984 102.00672769546509 L 518.8846282958984 110.00672769546509 L 510.88462829589844 110.00672769546509 L 510.88462829589844 102.00672769546509 Z" stroke-miterlimit="10" stroke-width="0.5" stroke-dasharray=""/><path fill="none" stroke="#505050" paint-order="fill stroke markers" d=" M 510.88462829589844 114.00672769546509 L 518.8846282958984 114.00672769546509 L 518.8846282958984 122.00672769546509 L 510.88462829589844 122.00672769546509 L 510.88462829589844 114.00672769546509 Z" stroke-miterlimit="10" stroke-width="0.5" stroke-dasharray=""/><path fill="none" stroke="#505050" paint-order="fill stroke markers" d=" M 510.88462829589844 126.00672769546509 L 518.8846282958984 126.00672769546509 L 518.8846282958984 134.0067276954651 L 510.88462829589844 134.0067276954651 L 510.88462829589844 126.00672769546509 Z" stroke-miterlimit="10" stroke-width="0.5" stroke-dasharray=""/><path fill="none" stroke="#505050" paint-order="fill stroke markers" d=" M 510.88462829589844 138.0067276954651 L 518.8846282958984 138.0067276954651 L 518.8846282958984 146.0067276954651 L 510.88462829589844 146.0067276954651 L 510.88462829589844 138.0067276954651 Z" stroke-miterlimit="10" stroke-width="0.5" stroke-dasharray=""/><path fill="none" stroke="#505050" paint-order="fill stroke markers" d=" M 510.88462829589844 150.0067276954651 L 518.8846282958984 150.0067276954651 L 518.8846282958984 158.0067276954651 L 510.88462829589844 158.0067276954651 L 510.88462829589844 150.0067276954651 Z" stroke-miterlimit="10" stroke-width="0.5" stroke-dasharray=""/><path fill="none" stroke="#505050" paint-order="fill stroke markers" d=" M 526.8846282958984 102.00672769546509 L 534.8846282958984 102.00672769546509 L 534.8846282958984 110.00672769546509 L 526.8846282958984 110.00672769546509 L 526.8846282958984 102.00672769546509 Z" stroke-miterlimit="10" stroke-width="0.5" stroke-dasharray=""/><path fill="white" stroke="#505050" paint-order="fill stroke markers" d=" M 372.95921325683594 106.93287515640259 L 396.95921325683594 106.93287515640259 L 396.95921325683594 160.9328751564026 L 372.95921325683594 160.9328751564026 L 372.95921325683594 106.93287515640259 Z" stroke-miterlimit="10" stroke-width="0.5" stroke-dasharray=""/><path fill="#F0F0F0" stroke="none" paint-order="stroke fill markers" d=""/><path fill="none" stroke="none"/><text fill="#505050" stroke="none" font-family="monospace" font-size="14px" font-style="normal" font-weight="normal" text-decoration="normal" x="384.95921325683594" y="124.93287515640259" text-anchor="middle" dominant-baseline="text-after-edge">?</text><path fill="none" stroke="#505050" paint-order="fill stroke markers" d=" M 372.95921325683594 124.93287515640259 L 380.95921325683594 124.93287515640259 L 380.95921325683594 132.9328751564026 L 372.95921325683594 132.9328751564026 L 372.95921325683594 124.93287515640259 Z" stroke-miterlimit="10" stroke-width="0.5" stroke-dasharray=""/><path fill="none" stroke="#505050" paint-order="fill stroke markers" d=" M 372.95921325683594 136.9328751564026 L 380.95921325683594 136.9328751564026 L 380.95921325683594 144.9328751564026 L 372.95921325683594 144.9328751564026 L 372.95921325683594 136.9328751564026 Z" stroke-miterlimit="10" stroke-width="0.5" stroke-dasharray=""/><path fill="none" stroke="#505050" paint-order="fill stroke markers" d=" M 372.95921325683594 148.9328751564026 L 380.95921325683594 148.9328751564026 L 380.95921325683594 156.9328751564026 L 372.95921325683594 156.9328751564026 L 372.95921325683594 148.9328751564026 Z" stroke-miterlimit="10" stroke-width="0.5" stroke-dasharray=""/><path fill="none" stroke="#505050" paint-order="fill stroke markers" d=" M 388.95921325683594 124.93287515640259 L 396.95921325683594 124.93287515640259 L 396.95921325683594 132.9328751564026 L 388.95921325683594 132.9328751564026 L 388.95921325683594 124.93287515640259 Z" stroke-miterlimit="10" stroke-width="0.5" stroke-dasharray=""/><path fill="white" stroke="#505050" paint-order="fill stroke markers" d=" M 446.0238494873047 82.7034592628479 L 470.0238494873047 82.7034592628479 L 470.0238494873047 136.7034592628479 L 446.0238494873047 136.7034592628479 L 446.0238494873047 82.7034592628479 Z" stroke-miterlimit="10" stroke-width="0.5" stroke-dasharray=""/><path fill="#F0F0F0" stroke="none" paint-order="stroke fill markers" d=""/><path fill="none" stroke="none"/><text fill="#505050" stroke="none" font-family="monospace" font-size="14px" font-style="normal" font-weight="normal" text-decoration="normal" x="458.0238494873047" y="100.7034592628479" text-anchor="middle" dominant-baseline="text-after-edge">?</text><path fill="none" stroke="#505050" paint-order="fill stroke markers" d=" M 446.0238494873047 100.7034592628479 L 454.0238494873047 100.7034592628479 L 454.0238494873047 108.7034592628479 L 446.0238494873047 108.7034592628479 L 446.0238494873047 100.7034592628479 Z" stroke-miterlimit="10" stroke-width="0.5" stroke-dasharray=""/><path fill="none" stroke="#505050" paint-order="fill stroke markers" d=" M 446.0238494873047 112.7034592628479 L 454.0238494873047 112.7034592628479 L 454.0238494873047 120.7034592628479 L 446.0238494873047 120.7034592628479 L 446.0238494873047 112.7034592628479 Z" stroke-miterlimit="10" stroke-width="0.5" stroke-dasharray=""/><path fill="none" stroke="#505050" paint-order="fill stroke markers" d=" M 446.0238494873047 124.7034592628479 L 454.0238494873047 124.7034592628479 L 454.0238494873047 132.7034592628479 L 446.0238494873047 132.7034592628479 L 446.0238494873047 124.7034592628479 Z" stroke-miterlimit="10" stroke-width="0.5" stroke-dasharray=""/><path fill="none" stroke="#505050" paint-order="fill stroke markers" d=" M 462.0238494873047 100.7034592628479 L 470.0238494873047 100.7034592628479 L 470.0238494873047 108.7034592628479 L 462.0238494873047 108.7034592628479 L 462.0238494873047 100.7034592628479 Z" stroke-miterlimit="10" stroke-width="0.5" stroke-dasharray=""/><path fill="white" stroke="#505050" paint-order="fill stroke markers" d=" M 345.03733825683594 121.4264817237854 L 361.03733825683594 121.4264817237854 L 361.03733825683594 137.4264817237854 L 345.03733825683594 137.4264817237854 L 353.03733825683594 129.4264817237854 L 345.03733825683594 121.4264817237854" stroke-miterlimit="10" stroke-width="0.5" stroke-dasharray=""/><path fill="none" stroke="none"/><path fill="none" stroke="#505050" paint-order="fill stroke markers" d=" M 353.03733825683594 125.4264817237854 L 361.03733825683594 125.4264817237854 L 361.03733825683594 133.4264817237854 L 353.03733825683594 133.4264817237854 L 353.03733825683594 125.4264817237854 Z" stroke-miterlimit="10" stroke-width="0.5" stroke-dasharray=""/><path fill="white" stroke="#505050" paint-order="fill stroke markers" d=" M 345.03733825683594 133.4264817237854 L 361.03733825683594 133.4264817237854 L 361.03733825683594 149.4264817237854 L 345.03733825683594 149.4264817237854 L 353.03733825683594 141.4264817237854 L 345.03733825683594 133.4264817237854" stroke-miterlimit="10" stroke-width="0.5" stroke-dasharray=""/><path fill="none" stroke="none"/><path fill="none" stroke="#505050" paint-order="fill stroke markers" d=" M 353.03733825683594 137.4264817237854 L 361.03733825683594 137.4264817237854 L 361.03733825683594 145.4264817237854 L 353.03733825683594 145.4264817237854 L 353.03733825683594 137.4264817237854 Z" stroke-miterlimit="10" stroke-width="0.5" stroke-dasharray=""/><path fill="white" stroke="#505050" paint-order="fill stroke markers" d=" M 345.03733825683594 145.4264817237854 L 361.03733825683594 145.4264817237854 L 361.03733825683594 161.4264817237854 L 345.03733825683594 161.4264817237854 L 353.03733825683594 153.4264817237854 L 345.03733825683594 145.4264817237854" stroke-miterlimit="10" stroke-width="0.5" stroke-dasharray=""/><path fill="none" stroke="none"/><path fill="none" stroke="#505050" paint-order="fill stroke markers" d=" M 353.03733825683594 149.4264817237854 L 361.03733825683594 149.4264817237854 L 361.03733825683594 157.4264817237854 L 353.03733825683594 157.4264817237854 L 353.03733825683594 149.4264817237854 Z" stroke-miterlimit="10" stroke-width="0.5" stroke-dasharray=""/><path fill="white" stroke="#505050" paint-order="fill stroke markers" d=" M 414.0238494873047 96.7034592628479 L 430.0238494873047 96.7034592628479 L 430.0238494873047 112.7034592628479 L 414.0238494873047 112.7034592628479 L 422.0238494873047 104.7034592628479 L 414.0238494873047 96.7034592628479" stroke-miterlimit="10" stroke-width="0.5" stroke-dasharray=""/><path fill="none" stroke="none"/><path fill="none" stroke="#505050" paint-order="fill stroke markers" d=" M 422.0238494873047 100.7034592628479 L 430.0238494873047 100.7034592628479 L 430.0238494873047 108.7034592628479 L 422.0238494873047 108.7034592628479 L 422.0238494873047 100.7034592628479 Z" stroke-miterlimit="10" stroke-width="0.5" stroke-dasharray=""/><path fill="white" stroke="#505050" paint-order="fill stroke markers" d=" M 414.0238494873047 108.7034592628479 L 430.0238494873047 108.7034592628479 L 430.0238494873047 124.7034592628479 L 414.0238494873047 124.7034592628479 L 422.0238494873047 116.7034592628479 L 414.0238494873047 108.7034592628479" stroke-miterlimit="10" stroke-width="0.5" stroke-dasharray=""/><path fill="none" stroke="none"/><path fill="none" stroke="#505050" paint-order="fill stroke markers" d=" M 422.0238494873047 112.7034592628479 L 430.0238494873047 112.7034592628479 L 430.0238494873047 120.7034592628479 L 422.0238494873047 120.7034592628479 L 422.0238494873047 112.7034592628479 Z" stroke-miterlimit="10" stroke-width="0.5" stroke-dasharray=""/><path fill="white" stroke="#505050" paint-order="fill stroke markers" d=" M 486.0238494873047 96.7034592628479 L 494.0238494873047 96.7034592628479 L 502.0238494873047 104.7034592628479 L 494.0238494873047 112.7034592628479 L 486.0238494873047 112.7034592628479 L 486.0238494873047 96.7034592628479" stroke-miterlimit="10" stroke-width="0.5" stroke-dasharray=""/><path fill="none" stroke="none"/><path fill="none" stroke="#505050" paint-order="fill stroke markers" d=" M 486.0238494873047 100.7034592628479 L 494.0238494873047 100.7034592628479 L 494.0238494873047 108.7034592628479 L 486.0238494873047 108.7034592628479 L 486.0238494873047 100.7034592628479 Z" stroke-miterlimit="10" stroke-width="0.5" stroke-dasharray=""/><path fill="white" stroke="#505050" paint-order="fill stroke markers" d=" M 825.4904632568359 86.9594292640686 L 825.4904632568359 173.78543329238892 Q 825.4904632568359 181.78543329238892 833.4904632568359 181.78543329238892 L 955.4017181396484 181.78543329238892 Q 963.4017181396484 181.78543329238892 963.4017181396484 173.78543329238892 L 963.4017181396484 86.9594292640686 Q 963.4017181396484 78.9594292640686 955.4017181396484 78.9594292640686 L 833.4904632568359 78.9594292640686 Q 825.4904632568359 78.9594292640686 825.4904632568359 86.9594292640686" stroke-miterlimit="10" stroke-width="0.5" stroke-dasharray=""/><path fill="#F0F0F0" stroke="#505050" paint-order="fill stroke markers" d=" M 939.4017181396484 86.9594292640686 L 963.4017181396484 86.9594292640686 L 963.4017181396484 164.9594292640686 L 939.4017181396484 164.9594292640686 L 939.4017181396484 86.9594292640686 Z" stroke-miterlimit="10" stroke-width="0.5" stroke-dasharray=""/><path fill="none" stroke="none"/><text fill="#505050" stroke="none" font-family="monospace" font-size="14px" font-style="normal" font-weight="normal" text-decoration="normal" x="951.4017181396484" y="104.9594292640686" text-anchor="middle" dominant-baseline="text-after-edge">d</text><path fill="none" stroke="#505050" paint-order="fill stroke markers" d=" M 939.4017181396484 104.9594292640686 L 947.4017181396484 104.9594292640686 L 947.4017181396484 112.9594292640686 L 939.4017181396484 112.9594292640686 L 939.4017181396484 104.9594292640686 Z" stroke-miterlimit="10" stroke-width="0.5" stroke-dasharray=""/><path fill="none" stroke="#505050" paint-order="fill stroke markers" d=" M 939.4017181396484 116.9594292640686 L 947.4017181396484 116.9594292640686 L 947.4017181396484 124.9594292640686 L 939.4017181396484 124.9594292640686 L 939.4017181396484 116.9594292640686 Z" stroke-miterlimit="10" stroke-width="0.5" stroke-dasharray=""/><path fill="none" stroke="#505050" paint-order="fill stroke markers" d=" M 939.4017181396484 128.9594292640686 L 947.4017181396484 128.9594292640686 L 947.4017181396484 136.9594292640686 L 939.4017181396484 136.9594292640686 L 939.4017181396484 128.9594292640686 Z" stroke-miterlimit="10" stroke-width="0.5" stroke-dasharray=""/><path fill="none" stroke="#505050" paint-order="fill stroke markers" d=" M 939.4017181396484 140.9594292640686 L 947.4017181396484 140.9594292640686 L 947.4017181396484 148.9594292640686 L 939.4017181396484 148.9594292640686 L 939.4017181396484 140.9594292640686 Z" stroke-miterlimit="10" stroke-width="0.5" stroke-dasharray=""/><path fill="none" stroke="#505050" paint-order="fill stroke markers" d=" M 939.4017181396484 152.9594292640686 L 947.4017181396484 152.9594292640686 L 947.4017181396484 160.9594292640686 L 939.4017181396484 160.9594292640686 L 939.4017181396484 152.9594292640686 Z" stroke-miterlimit="10" stroke-width="0.5" stroke-dasharray=""/><path fill="none" stroke="#505050" paint-order="fill stroke markers" d=" M 955.4017181396484 104.9594292640686 L 963.4017181396484 104.9594292640686 L 963.4017181396484 112.9594292640686 L 955.4017181396484 112.9594292640686 L 955.4017181396484 104.9594292640686 Z" stroke-miterlimit="10" stroke-width="0.5" stroke-dasharray=""/><path fill="none" stroke="#505050" paint-order="fill stroke markers" d=" M 955.4017181396484 116.9594292640686 L 963.4017181396484 116.9594292640686 L 963.4017181396484 124.9594292640686 L 955.4017181396484 124.9594292640686 L 955.4017181396484 116.9594292640686 Z" stroke-miterlimit="10" stroke-width="0.5" stroke-dasharray=""/><path fill="none" stroke="#505050" paint-order="fill stroke markers" d=" M 897.7375335693359 119.07732629776001 L 889.7375335693359 119.07732629776001 M 897.7375335693359 131.07732629776 L 889.7375335693359 131.07732629776 M 853.6892547607422 145.78543329238892 L 845.6892547607422 145.78543329238892 M 853.6892547607422 157.78543329238892 L 845.6892547607422 157.78543329238892 M 921.7375335693359 107.07732629776001 L 929.7375335693359 107.07732629776001 M 877.6892547607422 133.78543329238892 L 885.6892547607422 133.78543329238892" stroke-miterlimit="10" stroke-dasharray=""/><path fill="white" stroke="#505050" paint-order="fill stroke markers" d=" M 853.6892547607422 111.78543329238892 L 877.6892547607422 111.78543329238892 L 877.6892547607422 165.78543329238892 L 853.6892547607422 165.78543329238892 L 853.6892547607422 111.78543329238892 Z" stroke-miterlimit="10" stroke-width="0.5" stroke-dasharray=""/><path fill="#F0F0F0" stroke="none" paint-order="stroke fill markers" d=""/><path fill="none" stroke="none"/><text fill="#505050" stroke="none" font-family="monospace" font-size="14px" font-style="normal" font-weight="normal" text-decoration="normal" x="865.6892547607422" y="129.78543329238892" text-anchor="middle" dominant-baseline="text-after-edge">?</text><path fill="none" stroke="#505050" paint-order="fill stroke markers" d=" M 853.6892547607422 129.78543329238892 L 861.6892547607422 129.78543329238892 L 861.6892547607422 137.78543329238892 L 853.6892547607422 137.78543329238892 L 853.6892547607422 129.78543329238892 Z" stroke-miterlimit="10" stroke-width="0.5" stroke-dasharray=""/><path fill="none" stroke="#505050" paint-order="fill stroke markers" d=" M 853.6892547607422 141.78543329238892 L 861.6892547607422 141.78543329238892 L 861.6892547607422 149.78543329238892 L 853.6892547607422 149.78543329238892 L 853.6892547607422 141.78543329238892 Z" stroke-miterlimit="10" stroke-width="0.5" stroke-dasharray=""/><path fill="none" stroke="#505050" paint-order="fill stroke markers" d=" M 853.6892547607422 153.78543329238892 L 861.6892547607422 153.78543329238892 L 861.6892547607422 161.78543329238892 L 853.6892547607422 161.78543329238892 L 853.6892547607422 153.78543329238892 Z" stroke-miterlimit="10" stroke-width="0.5" stroke-dasharray=""/><path fill="none" stroke="#505050" paint-order="fill stroke markers" d=" M 869.6892547607422 129.78543329238892 L 877.6892547607422 129.78543329238892 L 877.6892547607422 137.78543329238892 L 869.6892547607422 137.78543329238892 L 869.6892547607422 129.78543329238892 Z" stroke-miterlimit="10" stroke-width="0.5" stroke-dasharray=""/><path fill="white" stroke="#505050" paint-order="fill stroke markers" d=" M 897.7375335693359 85.07732629776001 L 921.7375335693359 85.07732629776001 L 921.7375335693359 139.07732629776 L 897.7375335693359 139.07732629776 L 897.7375335693359 85.07732629776001 Z" stroke-miterlimit="10" stroke-width="0.5" stroke-dasharray=""/><path fill="#F0F0F0" stroke="none" paint-order="stroke fill markers" d=""/><path fill="none" stroke="none"/><text fill="#505050" stroke="none" font-family="monospace" font-size="14px" font-style="normal" font-weight="normal" text-decoration="normal" x="909.7375335693359" y="103.07732629776001" text-anchor="middle" dominant-baseline="text-after-edge">?</text><path fill="none" stroke="#505050" paint-order="fill stroke markers" d=" M 897.7375335693359 103.07732629776001 L 905.7375335693359 103.07732629776001 L 905.7375335693359 111.07732629776001 L 897.7375335693359 111.07732629776001 L 897.7375335693359 103.07732629776001 Z" stroke-miterlimit="10" stroke-width="0.5" stroke-dasharray=""/><path fill="none" stroke="#505050" paint-order="fill stroke markers" d=" M 897.7375335693359 115.07732629776001 L 905.7375335693359 115.07732629776001 L 905.7375335693359 123.07732629776001 L 897.7375335693359 123.07732629776001 L 897.7375335693359 115.07732629776001 Z" stroke-miterlimit="10" stroke-width="0.5" stroke-dasharray=""/><path fill="none" stroke="#505050" paint-order="fill stroke markers" d=" M 897.7375335693359 127.07732629776001 L 905.7375335693359 127.07732629776001 L 905.7375335693359 135.07732629776 L 897.7375335693359 135.07732629776 L 897.7375335693359 127.07732629776001 Z" stroke-miterlimit="10" stroke-width="0.5" stroke-dasharray=""/><path fill="none" stroke="#505050" paint-order="fill stroke markers" d=" M 913.7375335693359 103.07732629776001 L 921.7375335693359 103.07732629776001 L 921.7375335693359 111.07732629776001 L 913.7375335693359 111.07732629776001 L 913.7375335693359 103.07732629776001 Z" stroke-miterlimit="10" stroke-width="0.5" stroke-dasharray=""/><path fill="white" stroke="#505050" paint-order="fill stroke markers" d=" M 829.6275482177734 86.57236766815186 L 845.6275482177734 86.57236766815186 L 845.6275482177734 102.57236766815186 L 829.6275482177734 102.57236766815186 L 837.6275482177734 94.57236766815186 L 829.6275482177734 86.57236766815186" stroke-miterlimit="10" stroke-width="0.5" stroke-dasharray=""/><path fill="none" stroke="none"/><path fill="none" stroke="#505050" paint-order="fill stroke markers" d=" M 837.6275482177734 90.57236766815186 L 845.6275482177734 90.57236766815186 L 845.6275482177734 98.57236766815186 L 837.6275482177734 98.57236766815186 L 837.6275482177734 90.57236766815186 Z" stroke-miterlimit="10" stroke-width="0.5" stroke-dasharray=""/><path fill="none" stroke="#505050" paint-order="fill stroke markers" d=" M 714.3430328369141 131.4190239906311 C 720.0262372336755 131.4190239906311 727.6036760964026 131.49856805801392 733.2868804931641 131.49856805801392" stroke-miterlimit="10" stroke-dasharray=""/><path fill="none" stroke="#505050" paint-order="fill stroke markers" d=" M 584.8154144287109 131.09332513809204 C 589.011993584035 131.09332513809204 594.6074216991681 131.07597589492798 598.8040008544922 131.07597589492798" stroke-miterlimit="10" stroke-dasharray=""/><path fill="none" stroke="#505050" paint-order="fill stroke markers" d=" M 396.95921325683594 128.9328751564026 C 411.67876503014884 128.9328751564026 431.3042977139918 128.7034592628479 446.0238494873047 128.7034592628479" stroke-miterlimit="10" stroke-dasharray=""/><path fill="none" stroke="#505050" paint-order="fill stroke markers" d=" M 361.03733825683594 129.4264817237854 C 364.61696499524163 129.4264817237854 369.37958651843024 128.9328751564026 372.95921325683594 128.9328751564026" stroke-miterlimit="10" stroke-dasharray=""/><path fill="none" stroke="#505050" paint-order="fill stroke markers" d=" M 361.03733825683594 141.4264817237854 C 364.61696499524163 141.4264817237854 369.37958651843024 140.9328751564026 372.95921325683594 140.9328751564026" stroke-miterlimit="10" stroke-dasharray=""/><path fill="none" stroke="#505050" paint-order="fill stroke markers" d=" M 361.03733825683594 153.4264817237854 C 364.61696499524163 153.4264817237854 369.37958651843024 152.9328751564026 372.95921325683594 152.9328751564026" stroke-miterlimit="10" stroke-dasharray=""/><path fill="none" stroke="#505050" paint-order="fill stroke markers" d=" M 430.0238494873047 104.7034592628479 C 434.8238494873047 104.7034592628479 441.2238494873047 104.7034592628479 446.0238494873047 104.7034592628479" stroke-miterlimit="10" stroke-dasharray=""/><path fill="none" stroke="#505050" paint-order="fill stroke markers" d=" M 430.0238494873047 116.7034592628479 C 434.8238494873047 116.7034592628479 441.2238494873047 116.7034592628479 446.0238494873047 116.7034592628479" stroke-miterlimit="10" stroke-dasharray=""/><path fill="none" stroke="#505050" paint-order="fill stroke markers" d=" M 470.0238494873047 104.7034592628479 C 474.8238494873047 104.7034592628479 481.2238494873047 104.7034592628479 486.0238494873047 104.7034592628479" stroke-miterlimit="10" stroke-dasharray=""/><path fill="none" stroke="#505050" paint-order="fill stroke markers" d=" M 845.6275482177734 94.57236766815186 C 861.7043703767122 94.57236766815186 881.6607114103972 107.07732629776001 897.7375335693359 107.07732629776001" stroke-miterlimit="10" stroke-dasharray=""/><path fill="none" stroke="#505050" paint-order="fill stroke markers" d=" M 845.6275482177734 94.57236766815186 C 857.6375026940906 94.57236766815186 841.679300284425 133.78543329238892 853.6892547607422 133.78543329238892" stroke-miterlimit="10" stroke-dasharray=""/></g></g></svg>