<svg version="1.1" xmlns="http://www.w3.org/2000/svg" xmlns:xlink="http://www.w3.org/1999/xlink" width="814.6840896606445" height="466"><defs/><g transform="translate(-433.7868375778198,-23.395606994628906)"><g><path fill="white" stroke="#505050" paint-order="fill stroke markers" d=" M 453.08881759643555 40.453834533691406 L 453.08881759643555 83.56249809265137 Q 453.08881759643555 91.56249809265137 461.08881759643555 91.56249809265137 L 501.08881759643555 91.56249809265137 Q 509.08881759643555 91.56249809265137 509.08881759643555 83.56249809265137 L 509.08881759643555 40.453834533691406 Q 509.08881759643555 32.453834533691406 501.08881759643555 32.453834533691406 L 461.08881759643555 32.453834533691406 Q 453.08881759643555 32.453834533691406 453.08881759643555 40.453834533691406" stroke-miterlimit="10" stroke-width="0.5" stroke-dasharray=""/><path fill="#F0F0F0" stroke="#505050" paint-order="fill stroke markers" d=" M 493.08881759643555 40.453834533691406 L 509.08881759643555 40.453834533691406 L 509.08881759643555 68.4538345336914 L 493.08881759643555 68.4538345336914 L 493.08881759643555 40.453834533691406 Z" stroke-miterlimit="10" stroke-width="0.5" stroke-dasharray="6,3"/><path fill="none" stroke="none"/><path fill="none" stroke="#505050" paint-order="fill stroke markers" d=" M 501.08881759643555 44.453834533691406 L 509.08881759643555 44.453834533691406 L 509.08881759643555 52.453834533691406 L 501.08881759643555 52.453834533691406 L 501.08881759643555 44.453834533691406 Z" stroke-miterlimit="10" stroke-width="0.5" stroke-dasharray="0"/><path fill="none" stroke="#505050" paint-order="fill stroke markers" d=" M 501.08881759643555 56.453834533691406 L 509.08881759643555 56.453834533691406 L 509.08881759643555 64.4538345336914 L 501.08881759643555 64.4538345336914 L 501.08881759643555 56.453834533691406 Z" stroke-miterlimit="10" stroke-width="0.5" stroke-dasharray="0"/><path fill="none" stroke="#505050" paint-order="fill stroke markers" d="" stroke-miterlimit="10" stroke-dasharray="0"/><path fill="white" stroke="#505050" paint-order="fill stroke markers" d=" M 460.01708221435547 38.280540466308594 L 468.01708221435547 38.280540466308594 L 476.01708221435547 46.280540466308594 L 468.01708221435547 54.280540466308594 L 460.01708221435547 54.280540466308594 L 460.01708221435547 38.280540466308594" stroke-miterlimit="10" stroke-width="0.5" stroke-dasharray="0"/><path fill="none" stroke="none"/><path fill="none" stroke="#505050" paint-order="fill stroke markers" d=" M 460.01708221435547 42.280540466308594 L 468.01708221435547 42.280540466308594 L 468.01708221435547 50.280540466308594 L 460.01708221435547 50.280540466308594 L 460.01708221435547 42.280540466308594 Z" stroke-miterlimit="10" stroke-width="0.5" stroke-dasharray="0"/><path fill="white" stroke="#505050" paint-order="fill stroke markers" d=" M 459.40981101989746 58.57528495788574 L 467.40981101989746 58.57528495788574 L 475.40981101989746 66.57528495788574 L 467.40981101989746 74.57528495788574 L 459.40981101989746 74.57528495788574 L 459.40981101989746 58.57528495788574" stroke-miterlimit="10" stroke-width="0.5" stroke-dasharray="0"/><path fill="none" stroke="none"/><path fill="none" stroke="#505050" paint-order="fill stroke markers" d=" M 459.40981101989746 62.57528495788574 L 467.40981101989746 62.57528495788574 L 467.40981101989746 70.57528495788574 L 459.40981101989746 70.57528495788574 L 459.40981101989746 62.57528495788574 Z" stroke-miterlimit="10" stroke-width="0.5" stroke-dasharray="0"/><path fill="white" stroke="#505050" paint-order="fill stroke markers" d=" M 530.5710601806641 39.395606994628906 L 530.5710601806641 80.43181896209717 Q 530.5710601806641 88.43181896209717 538.5710601806641 88.43181896209717 L 623.5994415283203 88.43181896209717 Q 631.5994415283203 88.43181896209717 631.5994415283203 80.43181896209717 L 631.5994415283203 39.395606994628906 Q 631.5994415283203 31.395606994628906 623.5994415283203 31.395606994628906 L 538.5710601806641 31.395606994628906 Q 530.5710601806641 31.395606994628906 530.5710601806641 39.395606994628906" stroke-miterlimit="10" stroke-width="0.5" stroke-dasharray="0"/><path fill="#F0F0F0" stroke="#505050" paint-order="fill stroke markers" d=" M 599.5994415283203 39.395606994628906 L 631.5994415283203 39.395606994628906 L 631.5994415283203 75.3956069946289 L 599.5994415283203 75.3956069946289 L 599.5994415283203 39.395606994628906 Z" stroke-miterlimit="10" stroke-width="0.5" stroke-dasharray="0"/><path fill="none" stroke="none"/><path fill="none" stroke="#505050" paint-order="fill stroke markers" d=" M 599.5994415283203 43.395606994628906 L 615.5994415283203 43.395606994628906 L 615.5994415283203 71.3956069946289 L 599.5994415283203 71.3956069946289 L 599.5994415283203 43.395606994628906 Z" stroke-miterlimit="10" stroke-width="0.5" stroke-dasharray="0"/><path fill="none" stroke="none"/><path fill="none" stroke="#505050" paint-order="fill stroke markers" d=" M 607.5994415283203 47.395606994628906 L 615.5994415283203 47.395606994628906 L 615.5994415283203 55.395606994628906 L 607.5994415283203 55.395606994628906 L 607.5994415283203 47.395606994628906 Z" stroke-miterlimit="10" stroke-width="0.5" stroke-dasharray="0"/><path fill="none" stroke="#505050" paint-order="fill stroke markers" d=" M 607.5994415283203 59.395606994628906 L 615.5994415283203 59.395606994628906 L 615.5994415283203 67.3956069946289 L 607.5994415283203 67.3956069946289 L 607.5994415283203 59.395606994628906 Z" stroke-miterlimit="10" stroke-width="0.5" stroke-dasharray="0"/><path fill="none" stroke="#505050" paint-order="fill stroke markers" d=" M 623.5994415283203 43.395606994628906 L 631.5994415283203 43.395606994628906 L 631.5994415283203 51.395606994628906 L 623.5994415283203 51.395606994628906 L 623.5994415283203 43.395606994628906 Z" stroke-miterlimit="10" stroke-width="0.5" stroke-dasharray="0"/><path fill="none" stroke="#505050" paint-order="fill stroke markers" d=" M 623.5994415283203 55.395606994628906 L 631.5994415283203 55.395606994628906 L 631.5994415283203 63.395606994628906 L 623.5994415283203 63.395606994628906 L 623.5994415283203 55.395606994628906 Z" stroke-miterlimit="10" stroke-width="0.5" stroke-dasharray="0"/><path fill="white" stroke="#505050" paint-order="fill stroke markers" d=" M 543.0540800094604 40.81179332733154 L 559.0540800094604 40.81179332733154 L 559.0540800094604 68.81179332733154 L 543.0540800094604 68.81179332733154 L 543.0540800094604 40.81179332733154 Z" stroke-miterlimit="10" stroke-width="0.5" stroke-dasharray="6,3"/><path fill="#F0F0F0" stroke="none" paint-order="stroke fill markers" d=""/><path fill="none" stroke="none"/><path fill="none" stroke="#505050" paint-order="fill stroke markers" d=" M 551.0540800094604 44.81179332733154 L 559.0540800094604 44.81179332733154 L 559.0540800094604 52.81179332733154 L 551.0540800094604 52.81179332733154 L 551.0540800094604 44.81179332733154 Z" stroke-miterlimit="10" stroke-width="0.5" stroke-dasharray="0"/><path fill="none" stroke="#505050" paint-order="fill stroke markers" d=" M 551.0540800094604 56.81179332733154 L 559.0540800094604 56.81179332733154 L 559.0540800094604 64.81179332733154 L 551.0540800094604 64.81179332733154 L 551.0540800094604 56.81179332733154 Z" stroke-miterlimit="10" stroke-width="0.5" stroke-dasharray="0"/><path fill="white" stroke="#505050" paint-order="fill stroke markers" d=" M 571.6832618713379 37.83310317993164 L 579.6832618713379 37.83310317993164 L 587.6832618713379 45.83310317993164 L 579.6832618713379 53.83310317993164 L 571.6832618713379 53.83310317993164 L 571.6832618713379 37.83310317993164" stroke-miterlimit="10" stroke-width="0.5" stroke-dasharray="0"/><path fill="none" stroke="none"/><path fill="none" stroke="#505050" paint-order="fill stroke markers" d=" M 571.6832618713379 41.83310317993164 L 579.6832618713379 41.83310317993164 L 579.6832618713379 49.83310317993164 L 571.6832618713379 49.83310317993164 L 571.6832618713379 41.83310317993164 Z" stroke-miterlimit="10" stroke-width="0.5" stroke-dasharray="0"/><path fill="white" stroke="#505050" paint-order="fill stroke markers" d=" M 572.4716215133667 56.43181896209717 L 580.4716215133667 56.43181896209717 L 588.4716215133667 64.43181896209717 L 580.4716215133667 72.43181896209717 L 572.4716215133667 72.43181896209717 L 572.4716215133667 56.43181896209717" stroke-miterlimit="10" stroke-width="0.5" stroke-dasharray="0"/><path fill="none" stroke="none"/><path fill="none" stroke="#505050" paint-order="fill stroke markers" d=" M 572.4716215133667 60.43181896209717 L 580.4716215133667 60.43181896209717 L 580.4716215133667 68.43181896209717 L 572.4716215133667 68.43181896209717 L 572.4716215133667 60.43181896209717 Z" stroke-miterlimit="10" stroke-width="0.5" stroke-dasharray="0"/><path fill="white" stroke="#505050" paint-order="fill stroke markers" d=" M 650.578067779541 39.86789321899414 L 650.578067779541 99.29402828216553 Q 650.578067779541 107.29402828216553 658.578067779541 107.29402828216553 L 782.7563629150391 107.29402828216553 Q 790.7563629150391 107.29402828216553 790.7563629150391 99.29402828216553 L 790.7563629150391 39.86789321899414 Q 790.7563629150391 31.86789321899414 782.7563629150391 31.86789321899414 L 658.578067779541 31.86789321899414 Q 650.578067779541 31.86789321899414 650.578067779541 39.86789321899414" stroke-miterlimit="10" stroke-width="0.5" stroke-dasharray="0"/><path fill="#F0F0F0" stroke="#505050" paint-order="fill stroke markers" d=" M 758.7563629150391 39.86789321899414 L 790.7563629150391 39.86789321899414 L 790.7563629150391 75.86789321899414 L 758.7563629150391 75.86789321899414 L 758.7563629150391 39.86789321899414 Z" stroke-miterlimit="10" stroke-width="0.5" stroke-dasharray="0"/><path fill="none" stroke="none"/><path fill="none" stroke="#505050" paint-order="fill stroke markers" d=" M 758.7563629150391 43.86789321899414 L 766.7563629150391 43.86789321899414 L 766.7563629150391 51.86789321899414 L 758.7563629150391 51.86789321899414 L 758.7563629150391 43.86789321899414 Z" stroke-miterlimit="10" stroke-width="0.5" stroke-dasharray="0"/><path fill="none" stroke="#505050" paint-order="fill stroke markers" d=" M 758.7563629150391 55.86789321899414 L 766.7563629150391 55.86789321899414 L 766.7563629150391 63.86789321899414 L 758.7563629150391 63.86789321899414 L 758.7563629150391 55.86789321899414 Z" stroke-miterlimit="10" stroke-width="0.5" stroke-dasharray="0"/><path fill="none" stroke="#505050" paint-order="fill stroke markers" d=" M 774.7563629150391 43.86789321899414 L 790.7563629150391 43.86789321899414 L 790.7563629150391 71.86789321899414 L 774.7563629150391 71.86789321899414 L 774.7563629150391 43.86789321899414 Z" stroke-miterlimit="10" stroke-width="0.5" stroke-dasharray="0"/><path fill="none" stroke="none"/><path fill="none" stroke="#505050" paint-order="fill stroke markers" d=" M 782.7563629150391 47.86789321899414 L 790.7563629150391 47.86789321899414 L 790.7563629150391 55.86789321899414 L 782.7563629150391 55.86789321899414 L 782.7563629150391 47.86789321899414 Z" stroke-miterlimit="10" stroke-width="0.5" stroke-dasharray="0"/><path fill="none" stroke="#505050" paint-order="fill stroke markers" d=" M 782.7563629150391 59.86789321899414 L 790.7563629150391 59.86789321899414 L 790.7563629150391 67.86789321899414 L 782.7563629150391 67.86789321899414 L 782.7563629150391 59.86789321899414 Z" stroke-miterlimit="10" stroke-width="0.5" stroke-dasharray="0"/><path fill="none" stroke="#505050" paint-order="fill stroke markers" d=" M 739.5609893798828 59.826698303222656 L 747.5609893798828 59.826698303222656" stroke-miterlimit="10" stroke-dasharray="0"/><path fill="white" stroke="#505050" paint-order="fill stroke markers" d=" M 657.1689987182617 40.212345123291016 L 673.1689987182617 40.212345123291016 L 673.1689987182617 56.212345123291016 L 657.1689987182617 56.212345123291016 L 665.1689987182617 48.212345123291016 L 657.1689987182617 40.212345123291016" stroke-miterlimit="10" stroke-width="0.5" stroke-dasharray="0"/><path fill="none" stroke="none"/><path fill="none" stroke="#505050" paint-order="fill stroke markers" d=" M 665.1689987182617 44.212345123291016 L 673.1689987182617 44.212345123291016 L 673.1689987182617 52.212345123291016 L 665.1689987182617 52.212345123291016 L 665.1689987182617 44.212345123291016 Z" stroke-miterlimit="10" stroke-width="0.5" stroke-dasharray="0"/><path fill="white" stroke="#505050" paint-order="fill stroke markers" d=" M 657.4388637542725 59.974416732788086 L 673.4388637542725 59.974416732788086 L 673.4388637542725 75.97441673278809 L 657.4388637542725 75.97441673278809 L 665.4388637542725 67.97441673278809 L 657.4388637542725 59.974416732788086" stroke-miterlimit="10" stroke-width="0.5" stroke-dasharray="0"/><path fill="none" stroke="none"/><path fill="none" stroke="#505050" paint-order="fill stroke markers" d=" M 665.4388637542725 63.974416732788086 L 673.4388637542725 63.974416732788086 L 673.4388637542725 71.97441673278809 L 665.4388637542725 71.97441673278809 L 665.4388637542725 63.974416732788086 Z" stroke-miterlimit="10" stroke-width="0.5" stroke-dasharray="0"/><path fill="white" stroke="#505050" paint-order="fill stroke markers" d=" M 683.5609893798828 45.826698303222656 L 683.5609893798828 83.29402828216553 Q 683.5609893798828 91.29402828216553 691.5609893798828 91.29402828216553 L 731.5609893798828 91.29402828216553 Q 739.5609893798828 91.29402828216553 739.5609893798828 83.29402828216553 L 739.5609893798828 45.826698303222656 Q 739.5609893798828 37.826698303222656 731.5609893798828 37.826698303222656 L 691.5609893798828 37.826698303222656 Q 683.5609893798828 37.826698303222656 683.5609893798828 45.826698303222656" stroke-miterlimit="10" stroke-width="0.5" stroke-dasharray="0"/><path fill="#F0F0F0" stroke="#505050" paint-order="fill stroke markers" d=" M 723.5609893798828 45.826698303222656 L 739.5609893798828 45.826698303222656 L 739.5609893798828 73.82669830322266 L 723.5609893798828 73.82669830322266 L 723.5609893798828 45.826698303222656 Z" stroke-miterlimit="10" stroke-width="0.5" stroke-dasharray="0"/><path fill="none" stroke="none"/><path fill="none" stroke="#505050" paint-order="fill stroke markers" d=" M 731.5609893798828 49.826698303222656 L 739.5609893798828 49.826698303222656 L 739.5609893798828 57.826698303222656 L 731.5609893798828 57.826698303222656 L 731.5609893798828 49.826698303222656 Z" stroke-miterlimit="10" stroke-width="0.5" stroke-dasharray="0"/><path fill="none" stroke="#505050" paint-order="fill stroke markers" d=" M 731.5609893798828 61.826698303222656 L 739.5609893798828 61.826698303222656 L 739.5609893798828 69.82669830322266 L 731.5609893798828 69.82669830322266 L 731.5609893798828 61.826698303222656 Z" stroke-miterlimit="10" stroke-width="0.5" stroke-dasharray="0"/><path fill="white" stroke="#505050" paint-order="fill stroke markers" d=" M 695.6178007125854 40.19956874847412 L 703.6178007125854 40.19956874847412 L 711.6178007125854 48.19956874847412 L 703.6178007125854 56.19956874847412 L 695.6178007125854 56.19956874847412 L 695.6178007125854 40.19956874847412" stroke-miterlimit="10" stroke-width="0.5" stroke-dasharray="0"/><path fill="none" stroke="none"/><path fill="none" stroke="#505050" paint-order="fill stroke markers" d=" M 695.6178007125854 44.19956874847412 L 703.6178007125854 44.19956874847412 L 703.6178007125854 52.19956874847412 L 695.6178007125854 52.19956874847412 L 695.6178007125854 44.19956874847412 Z" stroke-miterlimit="10" stroke-width="0.5" stroke-dasharray="0"/><path fill="white" stroke="#505050" paint-order="fill stroke markers" d=" M 695.5645780563354 59.29402828216553 L 703.5645780563354 59.29402828216553 L 711.5645780563354 67.29402828216553 L 703.5645780563354 75.29402828216553 L 695.5645780563354 75.29402828216553 L 695.5645780563354 59.29402828216553" stroke-miterlimit="10" stroke-width="0.5" stroke-dasharray="0"/><path fill="none" stroke="none"/><path fill="none" stroke="#505050" paint-order="fill stroke markers" d=" M 695.5645780563354 63.29402828216553 L 703.5645780563354 63.29402828216553 L 703.5645780563354 71.29402828216553 L 695.5645780563354 71.29402828216553 L 695.5645780563354 63.29402828216553 Z" stroke-miterlimit="10" stroke-width="0.5" stroke-dasharray="0"/><path fill="white" stroke="#505050" paint-order="fill stroke markers" d=" M 790.2420682907104 144.87996673583984 L 790.2420682907104 249.3934555053711 Q 790.2420682907104 257.3934555053711 798.2420682907104 257.3934555053711 L 1012.31312084198 257.3934555053711 Q 1020.31312084198 257.3934555053711 1020.31312084198 249.3934555053711 L 1020.31312084198 144.87996673583984 Q 1020.31312084198 136.87996673583984 1012.31312084198 136.87996673583984 L 798.2420682907104 136.87996673583984 Q 790.2420682907104 136.87996673583984 790.2420682907104 144.87996673583984" stroke-miterlimit="10" stroke-width="0.5" stroke-dasharray="0"/><path fill="#F0F0F0" stroke="#505050" paint-order="fill stroke markers" d=" M 945.31312084198 144.87996673583984 L 1020.31312084198 144.87996673583984 L 1020.31312084198 226.87996673583984 L 945.31312084198 226.87996673583984 L 945.31312084198 144.87996673583984 Z" stroke-miterlimit="10" stroke-width="0.5" stroke-dasharray="0"/><path fill="none" stroke="none"/><text fill="#505050" stroke="none" font-family="monospace" font-size="14px" font-style="normal" font-weight="normal" text-decoration="normal" x="982.81312084198" y="162.87996673583984" text-anchor="middle" dominant-baseline="text-after-edge">disjoint</text><path fill="none" stroke="#505050" paint-order="fill stroke markers" d=" M 945.31312084198 162.87996673583984 L 961.31312084198 162.87996673583984 L 961.31312084198 190.87996673583984 L 945.31312084198 190.87996673583984 L 945.31312084198 162.87996673583984 Z" stroke-miterlimit="10" stroke-width="0.5" stroke-dasharray="0"/><path fill="none" stroke="none"/><path fill="none" stroke="#505050" paint-order="fill stroke markers" d=" M 953.31312084198 166.87996673583984 L 961.31312084198 166.87996673583984 L 961.31312084198 174.87996673583984 L 953.31312084198 174.87996673583984 L 953.31312084198 166.87996673583984 Z" stroke-miterlimit="10" stroke-width="0.5" stroke-dasharray="0"/><path fill="none" stroke="#505050" paint-order="fill stroke markers" d=" M 953.31312084198 178.87996673583984 L 961.31312084198 178.87996673583984 L 961.31312084198 186.87996673583984 L 953.31312084198 186.87996673583984 L 953.31312084198 178.87996673583984 Z" stroke-miterlimit="10" stroke-width="0.5" stroke-dasharray="0"/><path fill="none" stroke="#505050" paint-order="fill stroke markers" d=" M 945.31312084198 194.87996673583984 L 961.31312084198 194.87996673583984 L 961.31312084198 222.87996673583984 L 945.31312084198 222.87996673583984 L 945.31312084198 194.87996673583984 Z" stroke-miterlimit="10" stroke-width="0.5" stroke-dasharray="0"/><path fill="none" stroke="none"/><path fill="none" stroke="#505050" paint-order="fill stroke markers" d=" M 953.31312084198 198.87996673583984 L 961.31312084198 198.87996673583984 L 961.31312084198 206.87996673583984 L 953.31312084198 206.87996673583984 L 953.31312084198 198.87996673583984 Z" stroke-miterlimit="10" stroke-width="0.5" stroke-dasharray="0"/><path fill="none" stroke="#505050" paint-order="fill stroke markers" d=" M 953.31312084198 210.87996673583984 L 961.31312084198 210.87996673583984 L 961.31312084198 218.87996673583984 L 953.31312084198 218.87996673583984 L 953.31312084198 210.87996673583984 Z" stroke-miterlimit="10" stroke-width="0.5" stroke-dasharray="0"/><path fill="none" stroke="#505050" paint-order="fill stroke markers" d=" M 1012.31312084198 162.87996673583984 L 1020.31312084198 162.87996673583984 L 1020.31312084198 170.87996673583984 L 1012.31312084198 170.87996673583984 L 1012.31312084198 162.87996673583984 Z" stroke-miterlimit="10" stroke-width="0.5" stroke-dasharray="0"/><path fill="none" stroke="#505050" paint-order="fill stroke markers" d=" M 925.7263898849487 187.3523063659668 L 933.7263898849487 187.3523063659668" stroke-miterlimit="10" stroke-dasharray="0"/><path fill="white" stroke="#505050" paint-order="fill stroke markers" d=" M 900.7263898849487 165.3523063659668 L 925.7263898849487 165.3523063659668 L 925.7263898849487 207.3523063659668 L 900.7263898849487 207.3523063659668 L 900.7263898849487 165.3523063659668 Z" stroke-miterlimit="10" stroke-width="0.5" stroke-dasharray="0"/><path fill="#F0F0F0" stroke="none" paint-order="stroke fill markers" d=""/><path fill="none" stroke="none"/><text fill="#505050" stroke="none" font-family="monospace" font-size="14px" font-style="normal" font-weight="normal" text-decoration="normal" x="913.2263898849487" y="183.3523063659668" text-anchor="middle" dominant-baseline="text-after-edge">||</text><path fill="none" stroke="#505050" paint-order="fill stroke markers" d=" M 900.7263898849487 183.3523063659668 L 908.7263898849487 183.3523063659668 L 908.7263898849487 191.3523063659668 L 900.7263898849487 191.3523063659668 L 900.7263898849487 183.3523063659668 Z" stroke-miterlimit="10" stroke-width="0.5" stroke-dasharray="0"/><path fill="none" stroke="#505050" paint-order="fill stroke markers" d=" M 900.7263898849487 195.3523063659668 L 908.7263898849487 195.3523063659668 L 908.7263898849487 203.3523063659668 L 900.7263898849487 203.3523063659668 L 900.7263898849487 195.3523063659668 Z" stroke-miterlimit="10" stroke-width="0.5" stroke-dasharray="0"/><path fill="none" stroke="#505050" paint-order="fill stroke markers" d=" M 917.7263898849487 183.3523063659668 L 925.7263898849487 183.3523063659668 L 925.7263898849487 191.3523063659668 L 917.7263898849487 191.3523063659668 L 917.7263898849487 183.3523063659668 Z" stroke-miterlimit="10" stroke-width="0.5" stroke-dasharray="0"/><path fill="white" stroke="#505050" paint-order="fill stroke markers" d=" M 846.9444046020508 199.3934555053711 L 870.9444046020508 199.3934555053711 L 870.9444046020508 241.3934555053711 L 846.9444046020508 241.3934555053711 L 846.9444046020508 199.3934555053711 Z" stroke-miterlimit="10" stroke-width="0.5" stroke-dasharray="0"/><path fill="#F0F0F0" stroke="none" paint-order="stroke fill markers" d=""/><path fill="none" stroke="none"/><text fill="#505050" stroke="none" font-family="monospace" font-size="14px" font-style="normal" font-weight="normal" text-decoration="normal" x="858.9444046020508" y="217.3934555053711" text-anchor="middle" dominant-baseline="text-after-edge">&gt;</text><path fill="none" stroke="#505050" paint-order="fill stroke markers" d=" M 846.9444046020508 217.3934555053711 L 854.9444046020508 217.3934555053711 L 854.9444046020508 225.3934555053711 L 846.9444046020508 225.3934555053711 L 846.9444046020508 217.3934555053711 Z" stroke-miterlimit="10" stroke-width="0.5" stroke-dasharray="0"/><path fill="none" stroke="#505050" paint-order="fill stroke markers" d=" M 846.9444046020508 229.3934555053711 L 854.9444046020508 229.3934555053711 L 854.9444046020508 237.3934555053711 L 846.9444046020508 237.3934555053711 L 846.9444046020508 229.3934555053711 Z" stroke-miterlimit="10" stroke-width="0.5" stroke-dasharray="0"/><path fill="none" stroke="#505050" paint-order="fill stroke markers" d=" M 862.9444046020508 217.3934555053711 L 870.9444046020508 217.3934555053711 L 870.9444046020508 225.3934555053711 L 862.9444046020508 225.3934555053711 L 862.9444046020508 217.3934555053711 Z" stroke-miterlimit="10" stroke-width="0.5" stroke-dasharray="0"/><path fill="white" stroke="#505050" paint-order="fill stroke markers" d=" M 798.2420682907104 158.7272825241089 L 814.2420682907104 158.7272825241089 L 814.2420682907104 186.7272825241089 L 798.2420682907104 186.7272825241089 L 798.2420682907104 158.7272825241089 Z" stroke-miterlimit="10" stroke-width="0.5" stroke-dasharray="6,3"/><path fill="#F0F0F0" stroke="none" paint-order="stroke fill markers" d=""/><path fill="none" stroke="none"/><path fill="none" stroke="#505050" paint-order="fill stroke markers" d=" M 806.2420682907104 162.7272825241089 L 814.2420682907104 162.7272825241089 L 814.2420682907104 170.7272825241089 L 806.2420682907104 170.7272825241089 L 806.2420682907104 162.7272825241089 Z" stroke-miterlimit="10" stroke-width="0.5" stroke-dasharray="0"/><path fill="none" stroke="#505050" paint-order="fill stroke markers" d=" M 806.2420682907104 174.7272825241089 L 814.2420682907104 174.7272825241089 L 814.2420682907104 182.7272825241089 L 806.2420682907104 182.7272825241089 L 806.2420682907104 174.7272825241089 Z" stroke-miterlimit="10" stroke-width="0.5" stroke-dasharray="0"/><path fill="white" stroke="#505050" paint-order="fill stroke markers" d=" M 847.335090637207 144.87996673583984 L 871.335090637207 144.87996673583984 L 871.335090637207 186.87996673583984 L 847.335090637207 186.87996673583984 L 847.335090637207 144.87996673583984 Z" stroke-miterlimit="10" stroke-width="0.5" stroke-dasharray="0"/><path fill="#F0F0F0" stroke="none" paint-order="stroke fill markers" d=""/><path fill="none" stroke="none"/><text fill="#505050" stroke="none" font-family="monospace" font-size="14px" font-style="normal" font-weight="normal" text-decoration="normal" x="859.335090637207" y="162.87996673583984" text-anchor="middle" dominant-baseline="text-after-edge">&gt;</text><path fill="none" stroke="#505050" paint-order="fill stroke markers" d=" M 847.335090637207 162.87996673583984 L 855.335090637207 162.87996673583984 L 855.335090637207 170.87996673583984 L 847.335090637207 170.87996673583984 L 847.335090637207 162.87996673583984 Z" stroke-miterlimit="10" stroke-width="0.5" stroke-dasharray="0"/><path fill="none" stroke="#505050" paint-order="fill stroke markers" d=" M 847.335090637207 174.87996673583984 L 855.335090637207 174.87996673583984 L 855.335090637207 182.87996673583984 L 847.335090637207 182.87996673583984 L 847.335090637207 174.87996673583984 Z" stroke-miterlimit="10" stroke-width="0.5" stroke-dasharray="0"/><path fill="none" stroke="#505050" paint-order="fill stroke markers" d=" M 863.335090637207 162.87996673583984 L 871.335090637207 162.87996673583984 L 871.335090637207 170.87996673583984 L 863.335090637207 170.87996673583984 L 863.335090637207 162.87996673583984 Z" stroke-miterlimit="10" stroke-width="0.5" stroke-dasharray="0"/><path fill="white" stroke="#505050" paint-order="fill stroke markers" d=" M 799.1689176559448 198.43965435028076 L 815.1689176559448 198.43965435028076 L 815.1689176559448 226.43965435028076 L 799.1689176559448 226.43965435028076 L 799.1689176559448 198.43965435028076 Z" stroke-miterlimit="10" stroke-width="0.5" stroke-dasharray="6,3"/><path fill="#F0F0F0" stroke="none" paint-order="stroke fill markers" d=""/><path fill="none" stroke="none"/><path fill="none" stroke="#505050" paint-order="fill stroke markers" d=" M 807.1689176559448 202.43965435028076 L 815.1689176559448 202.43965435028076 L 815.1689176559448 210.43965435028076 L 807.1689176559448 210.43965435028076 L 807.1689176559448 202.43965435028076 Z" stroke-miterlimit="10" stroke-width="0.5" stroke-dasharray="0"/><path fill="none" stroke="#505050" paint-order="fill stroke markers" d=" M 807.1689176559448 214.43965435028076 L 815.1689176559448 214.43965435028076 L 815.1689176559448 222.43965435028076 L 807.1689176559448 222.43965435028076 L 807.1689176559448 214.43965435028076 Z" stroke-miterlimit="10" stroke-width="0.5" stroke-dasharray="0"/><path fill="white" stroke="#505050" paint-order="fill stroke markers" d=" M 1041.7691097259521 134.6996030807495 L 1041.7691097259521 261.8004722595215 Q 1041.7691097259521 269.8004722595215 1049.7691097259521 269.8004722595215 L 1232.4709272384644 269.8004722595215 Q 1240.4709272384644 269.8004722595215 1240.4709272384644 261.8004722595215 L 1240.4709272384644 134.6996030807495 Q 1240.4709272384644 126.69960308074951 1232.4709272384644 126.69960308074951 L 1049.7691097259521 126.69960308074951 Q 1041.7691097259521 126.69960308074951 1041.7691097259521 134.6996030807495" stroke-miterlimit="10" stroke-width="0.5" stroke-dasharray="0"/><path fill="#F0F0F0" stroke="#505050" paint-order="fill stroke markers" d=" M 1156.4709272384644 134.6996030807495 L 1240.4709272384644 134.6996030807495 L 1240.4709272384644 216.6996030807495 L 1156.4709272384644 216.6996030807495 L 1156.4709272384644 134.6996030807495 Z" stroke-miterlimit="10" stroke-width="0.5" stroke-dasharray="0"/><path fill="none" stroke="none"/><text fill="#505050" stroke="none" font-family="monospace" font-size="14px" font-style="normal" font-weight="normal" text-decoration="normal" x="1198.4709272384644" y="152.6996030807495" text-anchor="middle" dominant-baseline="text-after-edge">intersect</text><path fill="none" stroke="#505050" paint-order="fill stroke markers" d=" M 1156.4709272384644 152.6996030807495 L 1172.4709272384644 152.6996030807495 L 1172.4709272384644 180.6996030807495 L 1156.4709272384644 180.6996030807495 L 1156.4709272384644 152.6996030807495 Z" stroke-miterlimit="10" stroke-width="0.5" stroke-dasharray="0"/><path fill="none" stroke="none"/><path fill="none" stroke="#505050" paint-order="fill stroke markers" d=" M 1164.4709272384644 156.6996030807495 L 1172.4709272384644 156.6996030807495 L 1172.4709272384644 164.6996030807495 L 1164.4709272384644 164.6996030807495 L 1164.4709272384644 156.6996030807495 Z" stroke-miterlimit="10" stroke-width="0.5" stroke-dasharray="0"/><path fill="none" stroke="#505050" paint-order="fill stroke markers" d=" M 1164.4709272384644 168.6996030807495 L 1172.4709272384644 168.6996030807495 L 1172.4709272384644 176.6996030807495 L 1164.4709272384644 176.6996030807495 L 1164.4709272384644 168.6996030807495 Z" stroke-miterlimit="10" stroke-width="0.5" stroke-dasharray="0"/><path fill="none" stroke="#505050" paint-order="fill stroke markers" d=" M 1156.4709272384644 184.6996030807495 L 1172.4709272384644 184.6996030807495 L 1172.4709272384644 212.6996030807495 L 1156.4709272384644 212.6996030807495 L 1156.4709272384644 184.6996030807495 Z" stroke-miterlimit="10" stroke-width="0.5" stroke-dasharray="0"/><path fill="none" stroke="none"/><path fill="none" stroke="#505050" paint-order="fill stroke markers" d=" M 1164.4709272384644 188.6996030807495 L 1172.4709272384644 188.6996030807495 L 1172.4709272384644 196.6996030807495 L 1164.4709272384644 196.6996030807495 L 1164.4709272384644 188.6996030807495 Z" stroke-miterlimit="10" stroke-width="0.5" stroke-dasharray="0"/><path fill="none" stroke="#505050" paint-order="fill stroke markers" d=" M 1164.4709272384644 200.6996030807495 L 1172.4709272384644 200.6996030807495 L 1172.4709272384644 208.6996030807495 L 1164.4709272384644 208.6996030807495 L 1164.4709272384644 200.6996030807495 Z" stroke-miterlimit="10" stroke-width="0.5" stroke-dasharray="0"/><path fill="none" stroke="#505050" paint-order="fill stroke markers" d=" M 1232.4709272384644 152.6996030807495 L 1240.4709272384644 152.6996030807495 L 1240.4709272384644 160.6996030807495 L 1232.4709272384644 160.6996030807495 L 1232.4709272384644 152.6996030807495 Z" stroke-miterlimit="10" stroke-width="0.5" stroke-dasharray="0"/><path fill="none" stroke="#505050" paint-order="fill stroke markers" d=" M 1053.1143245697021 172.21097087860107 L 1045.1143245697021 172.21097087860107 M 1053.1143245697021 204.21097087860107 L 1045.1143245697021 204.21097087860107 M 1175.8771772384644 245.80047225952148 L 1183.8771772384644 245.80047225952148" stroke-miterlimit="10" stroke-dasharray="0"/><path fill="white" stroke="#505050" paint-order="fill stroke markers" d=" M 1151.8771772384644 223.80047225952148 L 1175.8771772384644 223.80047225952148 L 1175.8771772384644 253.80047225952148 L 1151.8771772384644 253.80047225952148 L 1151.8771772384644 223.80047225952148 Z" stroke-miterlimit="10" stroke-width="0.5" stroke-dasharray="0"/><path fill="#F0F0F0" stroke="none" paint-order="stroke fill markers" d=""/><path fill="none" stroke="none"/><text fill="#505050" stroke="none" font-family="monospace" font-size="14px" font-style="normal" font-weight="normal" text-decoration="normal" x="1163.8771772384644" y="241.80047225952148" text-anchor="middle" dominant-baseline="text-after-edge">!</text><path fill="none" stroke="#505050" paint-order="fill stroke markers" d=" M 1151.8771772384644 241.80047225952148 L 1159.8771772384644 241.80047225952148 L 1159.8771772384644 249.80047225952148 L 1151.8771772384644 249.80047225952148 L 1151.8771772384644 241.80047225952148 Z" stroke-miterlimit="10" stroke-width="0.5" stroke-dasharray="0"/><path fill="none" stroke="#505050" paint-order="fill stroke markers" d=" M 1167.8771772384644 241.80047225952148 L 1175.8771772384644 241.80047225952148 L 1175.8771772384644 249.80047225952148 L 1167.8771772384644 249.80047225952148 L 1167.8771772384644 241.80047225952148 Z" stroke-miterlimit="10" stroke-width="0.5" stroke-dasharray="0"/><path fill="white" stroke="#505050" paint-order="fill stroke markers" d=" M 1053.1143245697021 140.21097087860107 L 1128.1143245697021 140.21097087860107 L 1128.1143245697021 222.21097087860107 L 1053.1143245697021 222.21097087860107 L 1053.1143245697021 140.21097087860107 Z" stroke-miterlimit="10" stroke-width="0.5" stroke-dasharray="0"/><path fill="#F0F0F0" stroke="none" paint-order="stroke fill markers" d=""/><path fill="none" stroke="none"/><text fill="#505050" stroke="none" font-family="monospace" font-size="14px" font-style="normal" font-weight="normal" text-decoration="normal" x="1090.6143245697021" y="158.21097087860107" text-anchor="middle" dominant-baseline="text-after-edge">disjoint</text><path fill="none" stroke="#505050" paint-order="fill stroke markers" d=" M 1053.1143245697021 158.21097087860107 L 1069.1143245697021 158.21097087860107 L 1069.1143245697021 186.21097087860107 L 1053.1143245697021 186.21097087860107 L 1053.1143245697021 158.21097087860107 Z" stroke-miterlimit="10" stroke-width="0.5" stroke-dasharray="0"/><path fill="none" stroke="none"/><path fill="none" stroke="#505050" paint-order="fill stroke markers" d=" M 1061.1143245697021 162.21097087860107 L 1069.1143245697021 162.21097087860107 L 1069.1143245697021 170.21097087860107 L 1061.1143245697021 170.21097087860107 L 1061.1143245697021 162.21097087860107 Z" stroke-miterlimit="10" stroke-width="0.5" stroke-dasharray="0"/><path fill="none" stroke="#505050" paint-order="fill stroke markers" d=" M 1061.1143245697021 174.21097087860107 L 1069.1143245697021 174.21097087860107 L 1069.1143245697021 182.21097087860107 L 1061.1143245697021 182.21097087860107 L 1061.1143245697021 174.21097087860107 Z" stroke-miterlimit="10" stroke-width="0.5" stroke-dasharray="0"/><path fill="none" stroke="#505050" paint-order="fill stroke markers" d=" M 1053.1143245697021 190.21097087860107 L 1069.1143245697021 190.21097087860107 L 1069.1143245697021 218.21097087860107 L 1053.1143245697021 218.21097087860107 L 1053.1143245697021 190.21097087860107 Z" stroke-miterlimit="10" stroke-width="0.5" stroke-dasharray="0"/><path fill="none" stroke="none"/><path fill="none" stroke="#505050" paint-order="fill stroke markers" d=" M 1061.1143245697021 194.21097087860107 L 1069.1143245697021 194.21097087860107 L 1069.1143245697021 202.21097087860107 L 1061.1143245697021 202.21097087860107 L 1061.1143245697021 194.21097087860107 Z" stroke-miterlimit="10" stroke-width="0.5" stroke-dasharray="0"/><path fill="none" stroke="#505050" paint-order="fill stroke markers" d=" M 1061.1143245697021 206.21097087860107 L 1069.1143245697021 206.21097087860107 L 1069.1143245697021 214.21097087860107 L 1061.1143245697021 214.21097087860107 L 1061.1143245697021 206.21097087860107 Z" stroke-miterlimit="10" stroke-width="0.5" stroke-dasharray="0"/><path fill="none" stroke="#505050" paint-order="fill stroke markers" d=" M 1120.1143245697021 158.21097087860107 L 1128.1143245697021 158.21097087860107 L 1128.1143245697021 166.21097087860107 L 1120.1143245697021 166.21097087860107 L 1120.1143245697021 158.21097087860107 Z" stroke-miterlimit="10" stroke-width="0.5" stroke-dasharray="0"/><path fill="white" stroke="#505050" paint-order="fill stroke markers" d=" M 632.944582939148 172.06746673583984 L 632.944582939148 222.319598197937 Q 632.944582939148 230.319598197937 640.944582939148 230.319598197937 L 754.9211196899414 230.319598197937 Q 762.9211196899414 230.319598197937 762.9211196899414 222.319598197937 L 762.9211196899414 172.06746673583984 Q 762.9211196899414 164.06746673583984 754.9211196899414 164.06746673583984 L 640.944582939148 164.06746673583984 Q 632.944582939148 164.06746673583984 632.944582939148 172.06746673583984" stroke-miterlimit="10" stroke-width="0.5" stroke-dasharray="0"/><path fill="#F0F0F0" stroke="#505050" paint-order="fill stroke markers" d=" M 712.9211196899414 172.06746673583984 L 762.9211196899414 172.06746673583984 L 762.9211196899414 222.06746673583984 L 712.9211196899414 222.06746673583984 L 712.9211196899414 172.06746673583984 Z" stroke-miterlimit="10" stroke-width="0.5" stroke-dasharray="0"/><path fill="none" stroke="none"/><text fill="#505050" stroke="none" font-family="monospace" font-size="14px" font-style="normal" font-weight="normal" text-decoration="normal" x="737.9211196899414" y="190.06746673583984" text-anchor="middle" dominant-baseline="text-after-edge">empty</text><path fill="none" stroke="#505050" paint-order="fill stroke markers" d=" M 712.9211196899414 190.06746673583984 L 728.9211196899414 190.06746673583984 L 728.9211196899414 218.06746673583984 L 712.9211196899414 218.06746673583984 L 712.9211196899414 190.06746673583984 Z" stroke-miterlimit="10" stroke-width="0.5" stroke-dasharray="0"/><path fill="none" stroke="none"/><path fill="none" stroke="#505050" paint-order="fill stroke markers" d=" M 720.9211196899414 194.06746673583984 L 728.9211196899414 194.06746673583984 L 728.9211196899414 202.06746673583984 L 720.9211196899414 202.06746673583984 L 720.9211196899414 194.06746673583984 Z" stroke-miterlimit="10" stroke-width="0.5" stroke-dasharray="0"/><path fill="none" stroke="#505050" paint-order="fill stroke markers" d=" M 720.9211196899414 206.06746673583984 L 728.9211196899414 206.06746673583984 L 728.9211196899414 214.06746673583984 L 720.9211196899414 214.06746673583984 L 720.9211196899414 206.06746673583984 Z" stroke-miterlimit="10" stroke-width="0.5" stroke-dasharray="0"/><path fill="none" stroke="#505050" paint-order="fill stroke markers" d=" M 754.9211196899414 190.06746673583984 L 762.9211196899414 190.06746673583984 L 762.9211196899414 198.06746673583984 L 754.9211196899414 198.06746673583984 L 754.9211196899414 190.06746673583984 Z" stroke-miterlimit="10" stroke-width="0.5" stroke-dasharray="0"/><path fill="none" stroke="#505050" paint-order="fill stroke markers" d=" M 699.1228408813477 194.06746673583984 L 707.1228408813477 194.06746673583984" stroke-miterlimit="10" stroke-dasharray="0"/><path fill="white" stroke="#505050" paint-order="fill stroke markers" d=" M 675.1228408813477 172.06746673583984 L 699.1228408813477 172.06746673583984 L 699.1228408813477 214.06746673583984 L 675.1228408813477 214.06746673583984 L 675.1228408813477 172.06746673583984 Z" stroke-miterlimit="10" stroke-width="0.5" stroke-dasharray="0"/><path fill="#F0F0F0" stroke="none" paint-order="stroke fill markers" d=""/><path fill="none" stroke="none"/><text fill="#505050" stroke="none" font-family="monospace" font-size="14px" font-style="normal" font-weight="normal" text-decoration="normal" x="687.1228408813477" y="190.06746673583984" text-anchor="middle" dominant-baseline="text-after-edge">&gt;</text><path fill="none" stroke="#505050" paint-order="fill stroke markers" d=" M 675.1228408813477 190.06746673583984 L 683.1228408813477 190.06746673583984 L 683.1228408813477 198.06746673583984 L 675.1228408813477 198.06746673583984 L 675.1228408813477 190.06746673583984 Z" stroke-miterlimit="10" stroke-width="0.5" stroke-dasharray="0"/><path fill="none" stroke="#505050" paint-order="fill stroke markers" d=" M 675.1228408813477 202.06746673583984 L 683.1228408813477 202.06746673583984 L 683.1228408813477 210.06746673583984 L 675.1228408813477 210.06746673583984 L 675.1228408813477 202.06746673583984 Z" stroke-miterlimit="10" stroke-width="0.5" stroke-dasharray="0"/><path fill="none" stroke="#505050" paint-order="fill stroke markers" d=" M 691.1228408813477 190.06746673583984 L 699.1228408813477 190.06746673583984 L 699.1228408813477 198.06746673583984 L 691.1228408813477 198.06746673583984 L 691.1228408813477 190.06746673583984 Z" stroke-miterlimit="10" stroke-width="0.5" stroke-dasharray="0"/><path fill="white" stroke="#505050" paint-order="fill stroke markers" d=" M 640.944582939148 186.319598197937 L 656.944582939148 186.319598197937 L 656.944582939148 214.319598197937 L 640.944582939148 214.319598197937 L 640.944582939148 186.319598197937 Z" stroke-miterlimit="10" stroke-width="0.5" stroke-dasharray="6,3"/><path fill="#F0F0F0" stroke="none" paint-order="stroke fill markers" d=""/><path fill="none" stroke="none"/><path fill="none" stroke="#505050" paint-order="fill stroke markers" d=" M 648.944582939148 190.319598197937 L 656.944582939148 190.319598197937 L 656.944582939148 198.319598197937 L 648.944582939148 198.319598197937 L 648.944582939148 190.319598197937 Z" stroke-miterlimit="10" stroke-width="0.5" stroke-dasharray="0"/><path fill="none" stroke="#505050" paint-order="fill stroke markers" d=" M 648.944582939148 202.319598197937 L 656.944582939148 202.319598197937 L 656.944582939148 210.319598197937 L 648.944582939148 210.319598197937 L 648.944582939148 202.319598197937 Z" stroke-miterlimit="10" stroke-width="0.5" stroke-dasharray="0"/><path fill="white" stroke="#505050" paint-order="fill stroke markers" d=" M 443.1989393234253 159.2215347290039 L 443.1989393234253 231.87279510498047 Q 443.1989393234253 239.87279510498047 451.1989393234253 239.87279510498047 L 594.6080274581909 239.87279510498047 Q 602.6080274581909 239.87279510498047 602.6080274581909 231.87279510498047 L 602.6080274581909 159.2215347290039 Q 602.6080274581909 151.2215347290039 594.6080274581909 151.2215347290039 L 451.1989393234253 151.2215347290039 Q 443.1989393234253 151.2215347290039 443.1989393234253 159.2215347290039" stroke-miterlimit="10" stroke-width="0.5" stroke-dasharray="0"/><path fill="#F0F0F0" stroke="#505050" paint-order="fill stroke markers" d=" M 562.6080274581909 159.2215347290039 L 602.6080274581909 159.2215347290039 L 602.6080274581909 199.2215347290039 L 562.6080274581909 199.2215347290039 L 562.6080274581909 159.2215347290039 Z" stroke-miterlimit="10" stroke-width="0.5" stroke-dasharray="0"/><path fill="none" stroke="none"/><path fill="none" stroke="#505050" paint-order="fill stroke markers" d=" M 570.6080274581909 163.2215347290039 L 602.6080274581909 163.2215347290039 L 602.6080274581909 195.2215347290039 L 570.6080274581909 195.2215347290039 L 570.6080274581909 163.2215347290039 Z" stroke-miterlimit="10" stroke-width="0.5" stroke-dasharray="0"/><path fill="none" stroke="none"/><path fill="none" stroke="#505050" paint-order="fill stroke markers" d=" M 594.6080274581909 167.2215347290039 L 602.6080274581909 167.2215347290039 L 602.6080274581909 175.2215347290039 L 594.6080274581909 175.2215347290039 L 594.6080274581909 167.2215347290039 Z" stroke-miterlimit="10" stroke-width="0.5" stroke-dasharray="0"/><text fill="#505050" stroke="none" font-family="monospace" font-size="14px" font-style="normal" font-weight="normal" text-decoration="normal" x="586.6080274581909" y="181.2215347290039" text-anchor="end" dominant-baseline="text-after-edge">1</text><path fill="none" stroke="#505050" paint-order="fill stroke markers" d=" M 594.6080274581909 181.2215347290039 L 602.6080274581909 181.2215347290039 L 602.6080274581909 189.2215347290039 L 594.6080274581909 189.2215347290039 L 594.6080274581909 181.2215347290039 Z" stroke-miterlimit="10" stroke-width="0.5" stroke-dasharray="0"/><text fill="#505050" stroke="none" font-family="monospace" font-size="14px" font-style="normal" font-weight="normal" text-decoration="normal" x="586.6080274581909" y="195.2215347290039" text-anchor="end" dominant-baseline="text-after-edge">0</text><path fill="none" stroke="#505050" paint-order="fill stroke markers" d=" M 550.0341234207153 183.55960083007812 L 558.0341234207153 183.55960083007812" stroke-miterlimit="10" stroke-dasharray="0"/><path fill="white" stroke="#505050" paint-order="fill stroke markers" d=" M 451.8601369857788 167.55960083007812 L 451.8601369857788 215.87279510498047 Q 451.8601369857788 223.87279510498047 459.8601369857788 223.87279510498047 L 542.0341234207153 223.87279510498047 Q 550.0341234207153 223.87279510498047 550.0341234207153 215.87279510498047 L 550.0341234207153 167.55960083007812 Q 550.0341234207153 159.55960083007812 542.0341234207153 159.55960083007812 L 459.8601369857788 159.55960083007812 Q 451.8601369857788 159.55960083007812 451.8601369857788 167.55960083007812" stroke-miterlimit="10" stroke-width="0.5" stroke-dasharray="0"/><path fill="#F0F0F0" stroke="#505050" paint-order="fill stroke markers" d=" M 518.0341234207153 167.55960083007812 L 550.0341234207153 167.55960083007812 L 550.0341234207153 199.55960083007812 L 518.0341234207153 199.55960083007812 L 518.0341234207153 167.55960083007812 Z" stroke-miterlimit="10" stroke-width="0.5" stroke-dasharray="0"/><path fill="none" stroke="none"/><path fill="none" stroke="#505050" paint-order="fill stroke markers" d=" M 542.0341234207153 171.55960083007812 L 550.0341234207153 171.55960083007812 L 550.0341234207153 179.55960083007812 L 542.0341234207153 179.55960083007812 L 542.0341234207153 171.55960083007812 Z" stroke-miterlimit="10" stroke-width="0.5" stroke-dasharray="0"/><text fill="#505050" stroke="none" font-family="monospace" font-size="14px" font-style="normal" font-weight="normal" text-decoration="normal" x="534.0341234207153" y="185.55960083007812" text-anchor="end" dominant-baseline="text-after-edge">1</text><path fill="none" stroke="#505050" paint-order="fill stroke markers" d=" M 542.0341234207153 185.55960083007812 L 550.0341234207153 185.55960083007812 L 550.0341234207153 193.55960083007812 L 542.0341234207153 193.55960083007812 L 542.0341234207153 185.55960083007812 Z" stroke-miterlimit="10" stroke-width="0.5" stroke-dasharray="0"/><text fill="#505050" stroke="none" font-family="monospace" font-size="14px" font-style="normal" font-weight="normal" text-decoration="normal" x="534.0341234207153" y="199.55960083007812" text-anchor="end" dominant-baseline="text-after-edge">0</text><path fill="none" stroke="#505050" paint-order="fill stroke markers" d=" M 493.10016345977783 174.64122772216797 L 501.10016345977783 174.64122772216797 M 493.08241748809814 197.87279510498047 L 501.08241748809814 197.87279510498047" stroke-miterlimit="10" stroke-dasharray="0"/><path fill="white" stroke="#505050" paint-order="fill stroke markers" d=" M 461.10016345977783 166.64122772216797 L 493.10016345977783 166.64122772216797 L 493.10016345977783 184.64122772216797 L 461.10016345977783 184.64122772216797 L 461.10016345977783 166.64122772216797 Z" stroke-miterlimit="10" stroke-width="0.5" stroke-dasharray="0"/><path fill="#F0F0F0" stroke="none" paint-order="stroke fill markers" d=""/><path fill="none" stroke="none"/><path fill="none" stroke="#505050" paint-order="fill stroke markers" d=" M 485.10016345977783 170.64122772216797 L 493.10016345977783 170.64122772216797 L 493.10016345977783 178.64122772216797 L 485.10016345977783 178.64122772216797 L 485.10016345977783 170.64122772216797 Z" stroke-miterlimit="10" stroke-width="0.5" stroke-dasharray="0"/><text fill="#505050" stroke="none" font-family="monospace" font-size="14px" font-style="normal" font-weight="normal" text-decoration="normal" x="477.10016345977783" y="184.64122772216797" text-anchor="end" dominant-baseline="text-after-edge">1</text><path fill="white" stroke="#505050" paint-order="fill stroke markers" d=" M 461.08241748809814 189.87279510498047 L 493.08241748809814 189.87279510498047 L 493.08241748809814 207.87279510498047 L 461.08241748809814 207.87279510498047 L 461.08241748809814 189.87279510498047 Z" stroke-miterlimit="10" stroke-width="0.5" stroke-dasharray="0"/><path fill="#F0F0F0" stroke="none" paint-order="stroke fill markers" d=""/><path fill="none" stroke="none"/><path fill="none" stroke="#505050" paint-order="fill stroke markers" d=" M 485.08241748809814 193.87279510498047 L 493.08241748809814 193.87279510498047 L 493.08241748809814 201.87279510498047 L 485.08241748809814 201.87279510498047 L 485.08241748809814 193.87279510498047 Z" stroke-miterlimit="10" stroke-width="0.5" stroke-dasharray="0"/><text fill="#505050" stroke="none" font-family="monospace" font-size="14px" font-style="normal" font-weight="normal" text-decoration="normal" x="477.08241748809814" y="207.87279510498047" text-anchor="end" dominant-baseline="text-after-edge">0</text><path fill="white" stroke="#505050" paint-order="fill stroke markers" d=" M 790.4339017868042 307.60013580322266 L 790.4339017868042 473.3956069946289 Q 790.4339017868042 481.3956069946289 798.4339017868042 481.3956069946289 L 1209.5005598068237 481.3956069946289 Q 1217.5005598068237 481.3956069946289 1217.5005598068237 473.3956069946289 L 1217.5005598068237 307.60013580322266 Q 1217.5005598068237 299.60013580322266 1209.5005598068237 299.60013580322266 L 798.4339017868042 299.60013580322266 Q 790.4339017868042 299.60013580322266 790.4339017868042 307.60013580322266" stroke-miterlimit="10" stroke-width="0.5" stroke-dasharray="0"/><path fill="#F0F0F0" stroke="#505050" paint-order="fill stroke markers" d=" M 1108.5005598068237 307.60013580322266 L 1217.5005598068237 307.60013580322266 L 1217.5005598068237 389.60013580322266 L 1108.5005598068237 389.60013580322266 L 1108.5005598068237 307.60013580322266 Z" stroke-miterlimit="10" stroke-width="0.5" stroke-dasharray="0"/><path fill="none" stroke="none"/><text fill="#505050" stroke="none" font-family="monospace" font-size="14px" font-style="normal" font-weight="normal" text-decoration="normal" x="1163.0005598068237" y="325.60013580322266" text-anchor="middle" dominant-baseline="text-after-edge">intersection</text><path fill="none" stroke="#505050" paint-order="fill stroke markers" d=" M 1108.5005598068237 325.60013580322266 L 1124.5005598068237 325.60013580322266 L 1124.5005598068237 353.60013580322266 L 1108.5005598068237 353.60013580322266 L 1108.5005598068237 325.60013580322266 Z" stroke-miterlimit="10" stroke-width="0.5" stroke-dasharray="0"/><path fill="none" stroke="none"/><path fill="none" stroke="#505050" paint-order="fill stroke markers" d=" M 1116.5005598068237 329.60013580322266 L 1124.5005598068237 329.60013580322266 L 1124.5005598068237 337.60013580322266 L 1116.5005598068237 337.60013580322266 L 1116.5005598068237 329.60013580322266 Z" stroke-miterlimit="10" stroke-width="0.5" stroke-dasharray="0"/><path fill="none" stroke="#505050" paint-order="fill stroke markers" d=" M 1116.5005598068237 341.60013580322266 L 1124.5005598068237 341.60013580322266 L 1124.5005598068237 349.60013580322266 L 1116.5005598068237 349.60013580322266 L 1116.5005598068237 341.60013580322266 Z" stroke-miterlimit="10" stroke-width="0.5" stroke-dasharray="0"/><path fill="none" stroke="#505050" paint-order="fill stroke markers" d=" M 1108.5005598068237 357.60013580322266 L 1124.5005598068237 357.60013580322266 L 1124.5005598068237 385.60013580322266 L 1108.5005598068237 385.60013580322266 L 1108.5005598068237 357.60013580322266 Z" stroke-miterlimit="10" stroke-width="0.5" stroke-dasharray="0"/><path fill="none" stroke="none"/><path fill="none" stroke="#505050" paint-order="fill stroke markers" d=" M 1116.5005598068237 361.60013580322266 L 1124.5005598068237 361.60013580322266 L 1124.5005598068237 369.60013580322266 L 1116.5005598068237 369.60013580322266 L 1116.5005598068237 361.60013580322266 Z" stroke-miterlimit="10" stroke-width="0.5" stroke-dasharray="0"/><path fill="none" stroke="#505050" paint-order="fill stroke markers" d=" M 1116.5005598068237 373.60013580322266 L 1124.5005598068237 373.60013580322266 L 1124.5005598068237 381.60013580322266 L 1116.5005598068237 381.60013580322266 L 1116.5005598068237 373.60013580322266 Z" stroke-miterlimit="10" stroke-width="0.5" stroke-dasharray="0"/><path fill="none" stroke="#505050" paint-order="fill stroke markers" d=" M 1201.5005598068237 325.60013580322266 L 1217.5005598068237 325.60013580322266 L 1217.5005598068237 353.60013580322266 L 1201.5005598068237 353.60013580322266 L 1201.5005598068237 325.60013580322266 Z" stroke-miterlimit="10" stroke-width="0.5" stroke-dasharray="0"/><path fill="none" stroke="none"/><path fill="none" stroke="#505050" paint-order="fill stroke markers" d=" M 1209.5005598068237 329.60013580322266 L 1217.5005598068237 329.60013580322266 L 1217.5005598068237 337.60013580322266 L 1209.5005598068237 337.60013580322266 L 1209.5005598068237 329.60013580322266 Z" stroke-miterlimit="10" stroke-width="0.5" stroke-dasharray="0"/><path fill="none" stroke="#505050" paint-order="fill stroke markers" d=" M 1209.5005598068237 341.60013580322266 L 1217.5005598068237 341.60013580322266 L 1217.5005598068237 349.60013580322266 L 1209.5005598068237 349.60013580322266 L 1209.5005598068237 341.60013580322266 Z" stroke-miterlimit="10" stroke-width="0.5" stroke-dasharray="0"/><path fill="none" stroke="#505050" paint-order="fill stroke markers" d=" M 1135.3487272262573 423.94673585891724 L 1143.3487272262573 423.94673585891724" stroke-miterlimit="10" stroke-dasharray="0"/><path fill="white" stroke="#505050" paint-order="fill stroke markers" d=" M 941.1932706832886 304.2734570503235 L 1016.1932706832886 304.2734570503235 L 1016.1932706832886 386.2734570503235 L 941.1932706832886 386.2734570503235 L 941.1932706832886 304.2734570503235 Z" stroke-miterlimit="10" stroke-width="0.5" stroke-dasharray="0"/><path fill="#F0F0F0" stroke="none" paint-order="stroke fill markers" d=""/><path fill="none" stroke="none"/><text fill="#505050" stroke="none" font-family="monospace" font-size="14px" font-style="normal" font-weight="normal" text-decoration="normal" x="978.6932706832886" y="322.2734570503235" text-anchor="middle" dominant-baseline="text-after-edge">disjoint</text><path fill="none" stroke="#505050" paint-order="fill stroke markers" d=" M 941.1932706832886 322.2734570503235 L 957.1932706832886 322.2734570503235 L 957.1932706832886 350.2734570503235 L 941.1932706832886 350.2734570503235 L 941.1932706832886 322.2734570503235 Z" stroke-miterlimit="10" stroke-width="0.5" stroke-dasharray="0"/><path fill="none" stroke="none"/><path fill="none" stroke="#505050" paint-order="fill stroke markers" d=" M 949.1932706832886 326.2734570503235 L 957.1932706832886 326.2734570503235 L 957.1932706832886 334.2734570503235 L 949.1932706832886 334.2734570503235 L 949.1932706832886 326.2734570503235 Z" stroke-miterlimit="10" stroke-width="0.5" stroke-dasharray="0"/><path fill="none" stroke="#505050" paint-order="fill stroke markers" d=" M 949.1932706832886 338.2734570503235 L 957.1932706832886 338.2734570503235 L 957.1932706832886 346.2734570503235 L 949.1932706832886 346.2734570503235 L 949.1932706832886 338.2734570503235 Z" stroke-miterlimit="10" stroke-width="0.5" stroke-dasharray="0"/><path fill="none" stroke="#505050" paint-order="fill stroke markers" d=" M 941.1932706832886 354.2734570503235 L 957.1932706832886 354.2734570503235 L 957.1932706832886 382.2734570503235 L 941.1932706832886 382.2734570503235 L 941.1932706832886 354.2734570503235 Z" stroke-miterlimit="10" stroke-width="0.5" stroke-dasharray="0"/><path fill="none" stroke="none"/><path fill="none" stroke="#505050" paint-order="fill stroke markers" d=" M 949.1932706832886 358.2734570503235 L 957.1932706832886 358.2734570503235 L 957.1932706832886 366.2734570503235 L 949.1932706832886 366.2734570503235 L 949.1932706832886 358.2734570503235 Z" stroke-miterlimit="10" stroke-width="0.5" stroke-dasharray="0"/><path fill="none" stroke="#505050" paint-order="fill stroke markers" d=" M 949.1932706832886 370.2734570503235 L 957.1932706832886 370.2734570503235 L 957.1932706832886 378.2734570503235 L 949.1932706832886 378.2734570503235 L 949.1932706832886 370.2734570503235 Z" stroke-miterlimit="10" stroke-width="0.5" stroke-dasharray="0"/><path fill="none" stroke="#505050" paint-order="fill stroke markers" d=" M 1008.1932706832886 322.2734570503235 L 1016.1932706832886 322.2734570503235 L 1016.1932706832886 330.2734570503235 L 1008.1932706832886 330.2734570503235 L 1008.1932706832886 322.2734570503235 Z" stroke-miterlimit="10" stroke-width="0.5" stroke-dasharray="0"/><path fill="none" stroke="none"/><path fill="white" stroke="#505050" paint-order="fill stroke markers" d=" M 795.9494962692261 359.40125274658203 L 827.9494962692261 359.40125274658203 L 827.9494962692261 395.40125274658203 L 795.9494962692261 395.40125274658203 L 803.9494962692261 377.40125274658203 L 795.9494962692261 359.40125274658203" stroke-miterlimit="10" stroke-width="0.5" stroke-dasharray="0"/><path fill="#F0F0F0" stroke="none" paint-order="stroke fill markers" d=" M 811.9494962692261 363.40125274658203 L 827.9494962692261 363.40125274658203 L 827.9494962692261 391.40125274658203 L 811.9494962692261 391.40125274658203 L 811.9494962692261 363.40125274658203 Z"/><path fill="none" stroke="none"/><path fill="none" stroke="#505050" paint-order="fill stroke markers" d=" M 811.9494962692261 363.40125274658203 L 827.9494962692261 363.40125274658203 L 827.9494962692261 391.40125274658203 L 811.9494962692261 391.40125274658203 L 811.9494962692261 363.40125274658203 Z" stroke-miterlimit="10" stroke-width="0.5" stroke-dasharray="0"/><path fill="none" stroke="none"/><path fill="none" stroke="#505050" paint-order="fill stroke markers" d=" M 819.9494962692261 367.40125274658203 L 827.9494962692261 367.40125274658203 L 827.9494962692261 375.40125274658203 L 819.9494962692261 375.40125274658203 L 819.9494962692261 367.40125274658203 Z" stroke-miterlimit="10" stroke-width="0.5" stroke-dasharray="0"/><path fill="none" stroke="#505050" paint-order="fill stroke markers" d=" M 819.9494962692261 379.40125274658203 L 827.9494962692261 379.40125274658203 L 827.9494962692261 387.40125274658203 L 819.9494962692261 387.40125274658203 L 819.9494962692261 379.40125274658203 Z" stroke-miterlimit="10" stroke-width="0.5" stroke-dasharray="0"/><path fill="none" stroke="none"/><path fill="white" stroke="#505050" paint-order="fill stroke markers" d=" M 808.5773649215698 315.48792266845703 L 840.5773649215698 315.48792266845703 L 840.5773649215698 351.48792266845703 L 808.5773649215698 351.48792266845703 L 816.5773649215698 333.48792266845703 L 808.5773649215698 315.48792266845703" stroke-miterlimit="10" stroke-width="0.5" stroke-dasharray="0"/><path fill="#F0F0F0" stroke="none" paint-order="stroke fill markers" d=" M 824.5773649215698 319.48792266845703 L 840.5773649215698 319.48792266845703 L 840.5773649215698 347.48792266845703 L 824.5773649215698 347.48792266845703 L 824.5773649215698 319.48792266845703 Z"/><path fill="none" stroke="none"/><path fill="none" stroke="#505050" paint-order="fill stroke markers" d=" M 824.5773649215698 319.48792266845703 L 840.5773649215698 319.48792266845703 L 840.5773649215698 347.48792266845703 L 824.5773649215698 347.48792266845703 L 824.5773649215698 319.48792266845703 Z" stroke-miterlimit="10" stroke-width="0.5" stroke-dasharray="0"/><path fill="none" stroke="none"/><path fill="none" stroke="#505050" paint-order="fill stroke markers" d=" M 832.5773649215698 323.48792266845703 L 840.5773649215698 323.48792266845703 L 840.5773649215698 331.48792266845703 L 832.5773649215698 331.48792266845703 L 832.5773649215698 323.48792266845703 Z" stroke-miterlimit="10" stroke-width="0.5" stroke-dasharray="0"/><path fill="none" stroke="#505050" paint-order="fill stroke markers" d=" M 832.5773649215698 335.48792266845703 L 840.5773649215698 335.48792266845703 L 840.5773649215698 343.48792266845703 L 832.5773649215698 343.48792266845703 L 832.5773649215698 335.48792266845703 Z" stroke-miterlimit="10" stroke-width="0.5" stroke-dasharray="0"/><path fill="white" stroke="#505050" paint-order="fill stroke markers" d=" M 1062.6612701416016 332.0674910545349 L 1086.6612701416016 332.0674910545349 L 1086.6612701416016 386.0674910545349 L 1062.6612701416016 386.0674910545349 L 1062.6612701416016 332.0674910545349 Z" stroke-miterlimit="10" stroke-width="0.5" stroke-dasharray="0"/><path fill="#F0F0F0" stroke="none" paint-order="stroke fill markers" d=""/><path fill="none" stroke="none"/><text fill="#505050" stroke="none" font-family="monospace" font-size="14px" font-style="normal" font-weight="normal" text-decoration="normal" x="1074.6612701416016" y="350.0674910545349" text-anchor="middle" dominant-baseline="text-after-edge">?</text><path fill="none" stroke="#505050" paint-order="fill stroke markers" d=" M 1062.6612701416016 350.0674910545349 L 1070.6612701416016 350.0674910545349 L 1070.6612701416016 358.0674910545349 L 1062.6612701416016 358.0674910545349 L 1062.6612701416016 350.0674910545349 Z" stroke-miterlimit="10" stroke-width="0.5" stroke-dasharray="0"/><path fill="none" stroke="#505050" paint-order="fill stroke markers" d=" M 1062.6612701416016 362.0674910545349 L 1070.6612701416016 362.0674910545349 L 1070.6612701416016 370.0674910545349 L 1062.6612701416016 370.0674910545349 L 1062.6612701416016 362.0674910545349 Z" stroke-miterlimit="10" stroke-width="0.5" stroke-dasharray="0"/><path fill="none" stroke="#505050" paint-order="fill stroke markers" d=" M 1062.6612701416016 374.0674910545349 L 1070.6612701416016 374.0674910545349 L 1070.6612701416016 382.0674910545349 L 1062.6612701416016 382.0674910545349 L 1062.6612701416016 374.0674910545349 Z" stroke-miterlimit="10" stroke-width="0.5" stroke-dasharray="0"/><path fill="none" stroke="#505050" paint-order="fill stroke markers" d=" M 1078.6612701416016 350.0674910545349 L 1086.6612701416016 350.0674910545349 L 1086.6612701416016 358.0674910545349 L 1078.6612701416016 358.0674910545349 L 1078.6612701416016 350.0674910545349 Z" stroke-miterlimit="10" stroke-width="0.5" stroke-dasharray="0"/><path fill="white" stroke="#505050" paint-order="fill stroke markers" d=" M 986.3495206832886 346.5802502632141 L 1026.3495206832886 346.5802502632141 L 1026.3495206832886 386.5802502632141 L 986.3495206832886 386.5802502632141 L 986.3495206832886 346.5802502632141 Z" stroke-miterlimit="10" stroke-width="0.5" stroke-dasharray="0"/><path fill="#F0F0F0" stroke="none" paint-order="stroke fill markers" d=" M 994.3495206832886 350.5802502632141 L 1026.3495206832886 350.5802502632141 L 1026.3495206832886 382.5802502632141 L 994.3495206832886 382.5802502632141 L 994.3495206832886 350.5802502632141 Z"/><path fill="none" stroke="none"/><path fill="none" stroke="#505050" paint-order="fill stroke markers" d=" M 994.3495206832886 350.5802502632141 L 1026.3495206832886 350.5802502632141 L 1026.3495206832886 382.5802502632141 L 994.3495206832886 382.5802502632141 L 994.3495206832886 350.5802502632141 Z" stroke-miterlimit="10" stroke-width="0.5" stroke-dasharray="0"/><path fill="none" stroke="none"/><path fill="none" stroke="#505050" paint-order="fill stroke markers" d=" M 1018.3495206832886 354.5802502632141 L 1026.3495206832886 354.5802502632141 L 1026.3495206832886 362.5802502632141 L 1018.3495206832886 362.5802502632141 L 1018.3495206832886 354.5802502632141 Z" stroke-miterlimit="10" stroke-width="0.5" stroke-dasharray="0"/><text fill="#505050" stroke="none" font-family="monospace" font-size="14px" font-style="normal" font-weight="normal" text-decoration="normal" x="1010.3495206832886" y="368.5802502632141" text-anchor="end" dominant-baseline="text-after-edge">1</text><path fill="none" stroke="#505050" paint-order="fill stroke markers" d=" M 1018.3495206832886 368.5802502632141 L 1026.3495206832886 368.5802502632141 L 1026.3495206832886 376.5802502632141 L 1018.3495206832886 376.5802502632141 L 1018.3495206832886 368.5802502632141 Z" stroke-miterlimit="10" stroke-width="0.5" stroke-dasharray="0"/><text fill="#505050" stroke="none" font-family="monospace" font-size="14px" font-style="normal" font-weight="normal" text-decoration="normal" x="1010.3495206832886" y="382.5802502632141" text-anchor="end" dominant-baseline="text-after-edge">0</text><path fill="white" stroke="#505050" paint-order="fill stroke markers" d=" M 1103.3487272262573 405.94673585891724 L 1135.3487272262573 405.94673585891724 L 1135.3487272262573 441.94673585891724 L 1103.3487272262573 441.94673585891724 L 1103.3487272262573 405.94673585891724 Z" stroke-miterlimit="10" stroke-width="0.5" stroke-dasharray="0"/><path fill="#F0F0F0" stroke="none" paint-order="stroke fill markers" d=" M 1119.3487272262573 409.94673585891724 L 1135.3487272262573 409.94673585891724 L 1135.3487272262573 437.94673585891724 L 1119.3487272262573 437.94673585891724 L 1119.3487272262573 409.94673585891724 Z"/><path fill="none" stroke="none"/><path fill="none" stroke="#505050" paint-order="fill stroke markers" d=" M 1103.3487272262573 409.94673585891724 L 1111.3487272262573 409.94673585891724 L 1111.3487272262573 417.94673585891724 L 1103.3487272262573 417.94673585891724 L 1103.3487272262573 409.94673585891724 Z" stroke-miterlimit="10" stroke-width="0.5" stroke-dasharray="0"/><path fill="none" stroke="#505050" paint-order="fill stroke markers" d=" M 1119.3487272262573 409.94673585891724 L 1135.3487272262573 409.94673585891724 L 1135.3487272262573 437.94673585891724 L 1119.3487272262573 437.94673585891724 L 1119.3487272262573 409.94673585891724 Z" stroke-miterlimit="10" stroke-width="0.5" stroke-dasharray="0"/><path fill="none" stroke="none"/><path fill="none" stroke="#505050" paint-order="fill stroke markers" d=" M 1127.3487272262573 413.94673585891724 L 1135.3487272262573 413.94673585891724 L 1135.3487272262573 421.94673585891724 L 1127.3487272262573 421.94673585891724 L 1127.3487272262573 413.94673585891724 Z" stroke-miterlimit="10" stroke-width="0.5" stroke-dasharray="0"/><path fill="none" stroke="#505050" paint-order="fill stroke markers" d=" M 1127.3487272262573 425.94673585891724 L 1135.3487272262573 425.94673585891724 L 1135.3487272262573 433.94673585891724 L 1127.3487272262573 433.94673585891724 L 1127.3487272262573 425.94673585891724 Z" stroke-miterlimit="10" stroke-width="0.5" stroke-dasharray="0"/><path fill="white" stroke="#505050" paint-order="fill stroke markers" d=" M 896.9063138961792 375.7783737182617 L 929.9063138961792 375.7783737182617 L 929.9063138961792 417.7783737182617 L 896.9063138961792 417.7783737182617 L 896.9063138961792 375.7783737182617 Z" stroke-miterlimit="10" stroke-width="0.5" stroke-dasharray="0"/><path fill="#F0F0F0" stroke="none" paint-order="stroke fill markers" d=""/><path fill="none" stroke="none"/><text fill="#505050" stroke="none" font-family="monospace" font-size="14px" font-style="normal" font-weight="normal" text-decoration="normal" x="913.4063138961792" y="393.7783737182617" text-anchor="middle" dominant-baseline="text-after-edge">max</text><path fill="none" stroke="#505050" paint-order="fill stroke markers" d=" M 896.9063138961792 393.7783737182617 L 904.9063138961792 393.7783737182617 L 904.9063138961792 401.7783737182617 L 896.9063138961792 401.7783737182617 L 896.9063138961792 393.7783737182617 Z" stroke-miterlimit="10" stroke-width="0.5" stroke-dasharray="0"/><path fill="none" stroke="#505050" paint-order="fill stroke markers" d=" M 896.9063138961792 405.7783737182617 L 904.9063138961792 405.7783737182617 L 904.9063138961792 413.7783737182617 L 896.9063138961792 413.7783737182617 L 896.9063138961792 405.7783737182617 Z" stroke-miterlimit="10" stroke-width="0.5" stroke-dasharray="0"/><path fill="none" stroke="#505050" paint-order="fill stroke markers" d=" M 921.9063138961792 393.7783737182617 L 929.9063138961792 393.7783737182617 L 929.9063138961792 401.7783737182617 L 921.9063138961792 401.7783737182617 L 921.9063138961792 393.7783737182617 Z" stroke-miterlimit="10" stroke-width="0.5" stroke-dasharray="0"/><path fill="white" stroke="#505050" paint-order="fill stroke markers" d=" M 860.9517545700073 389.7357692718506 L 876.9517545700073 389.7357692718506 L 876.9517545700073 417.7357692718506 L 860.9517545700073 417.7357692718506 L 860.9517545700073 389.7357692718506 Z" stroke-miterlimit="10" stroke-width="0.5" stroke-dasharray="0"/><path fill="#F0F0F0" stroke="none" paint-order="stroke fill markers" d=""/><path fill="none" stroke="none"/><path fill="none" stroke="#505050" paint-order="fill stroke markers" d=" M 868.9517545700073 393.7357692718506 L 876.9517545700073 393.7357692718506 L 876.9517545700073 401.7357692718506 L 868.9517545700073 401.7357692718506 L 868.9517545700073 393.7357692718506 Z" stroke-miterlimit="10" stroke-width="0.5" stroke-dasharray="0"/><path fill="none" stroke="#505050" paint-order="fill stroke markers" d=" M 868.9517545700073 405.7357692718506 L 876.9517545700073 405.7357692718506 L 876.9517545700073 413.7357692718506 L 868.9517545700073 413.7357692718506 L 868.9517545700073 405.7357692718506 Z" stroke-miterlimit="10" stroke-width="0.5" stroke-dasharray="0"/><path fill="white" stroke="#505050" paint-order="fill stroke markers" d=" M 897.165530204773 423.3956069946289 L 930.165530204773 423.3956069946289 L 930.165530204773 465.3956069946289 L 897.165530204773 465.3956069946289 L 897.165530204773 423.3956069946289 Z" stroke-miterlimit="10" stroke-width="0.5" stroke-dasharray="0"/><path fill="#F0F0F0" stroke="none" paint-order="stroke fill markers" d=""/><path fill="none" stroke="none"/><text fill="#505050" stroke="none" font-family="monospace" font-size="14px" font-style="normal" font-weight="normal" text-decoration="normal" x="913.665530204773" y="441.3956069946289" text-anchor="middle" dominant-baseline="text-after-edge">min</text><path fill="none" stroke="#505050" paint-order="fill stroke markers" d=" M 897.165530204773 441.3956069946289 L 905.165530204773 441.3956069946289 L 905.165530204773 449.3956069946289 L 897.165530204773 449.3956069946289 L 897.165530204773 441.3956069946289 Z" stroke-miterlimit="10" stroke-width="0.5" stroke-dasharray="0"/><path fill="none" stroke="#505050" paint-order="fill stroke markers" d=" M 897.165530204773 453.3956069946289 L 905.165530204773 453.3956069946289 L 905.165530204773 461.3956069946289 L 897.165530204773 461.3956069946289 L 897.165530204773 453.3956069946289 Z" stroke-miterlimit="10" stroke-width="0.5" stroke-dasharray="0"/><path fill="none" stroke="#505050" paint-order="fill stroke markers" d=" M 922.165530204773 441.3956069946289 L 930.165530204773 441.3956069946289 L 930.165530204773 449.3956069946289 L 922.165530204773 449.3956069946289 L 922.165530204773 441.3956069946289 Z" stroke-miterlimit="10" stroke-width="0.5" stroke-dasharray="0"/><path fill="white" stroke="#505050" paint-order="fill stroke markers" d=" M 863.2742033004761 437.0049648284912 L 879.2742033004761 437.0049648284912 L 879.2742033004761 465.0049648284912 L 863.2742033004761 465.0049648284912 L 863.2742033004761 437.0049648284912 Z" stroke-miterlimit="10" stroke-width="0.5" stroke-dasharray="0"/><path fill="#F0F0F0" stroke="none" paint-order="stroke fill markers" d=""/><path fill="none" stroke="none"/><path fill="none" stroke="#505050" paint-order="fill stroke markers" d=" M 871.2742033004761 441.0049648284912 L 879.2742033004761 441.0049648284912 L 879.2742033004761 449.0049648284912 L 871.2742033004761 449.0049648284912 L 871.2742033004761 441.0049648284912 Z" stroke-miterlimit="10" stroke-width="0.5" stroke-dasharray="0"/><path fill="none" stroke="#505050" paint-order="fill stroke markers" d=" M 871.2742033004761 453.0049648284912 L 879.2742033004761 453.0049648284912 L 879.2742033004761 461.0049648284912 L 871.2742033004761 461.0049648284912 L 871.2742033004761 453.0049648284912 Z" stroke-miterlimit="10" stroke-width="0.5" stroke-dasharray="0"/><path fill="white" stroke="#505050" paint-order="fill stroke markers" d=" M 961.4062833786011 413.01561546325684 L 993.4062833786011 413.01561546325684 L 993.4062833786011 449.01561546325684 L 961.4062833786011 449.01561546325684 L 961.4062833786011 413.01561546325684 Z" stroke-miterlimit="10" stroke-width="0.5" stroke-dasharray="0"/><path fill="#F0F0F0" stroke="none" paint-order="stroke fill markers" d=" M 977.4062833786011 417.01561546325684 L 993.4062833786011 417.01561546325684 L 993.4062833786011 445.01561546325684 L 977.4062833786011 445.01561546325684 L 977.4062833786011 417.01561546325684 Z"/><path fill="none" stroke="none"/><path fill="none" stroke="#505050" paint-order="fill stroke markers" d=" M 961.4062833786011 417.01561546325684 L 969.4062833786011 417.01561546325684 L 969.4062833786011 425.01561546325684 L 961.4062833786011 425.01561546325684 L 961.4062833786011 417.01561546325684 Z" stroke-miterlimit="10" stroke-width="0.5" stroke-dasharray="0"/><path fill="none" stroke="#505050" paint-order="fill stroke markers" d=" M 961.4062833786011 429.01561546325684 L 969.4062833786011 429.01561546325684 L 969.4062833786011 437.01561546325684 L 961.4062833786011 437.01561546325684 L 961.4062833786011 429.01561546325684 Z" stroke-miterlimit="10" stroke-width="0.5" stroke-dasharray="0"/><path fill="none" stroke="#505050" paint-order="fill stroke markers" d=" M 977.4062833786011 417.01561546325684 L 993.4062833786011 417.01561546325684 L 993.4062833786011 445.01561546325684 L 977.4062833786011 445.01561546325684 L 977.4062833786011 417.01561546325684 Z" stroke-miterlimit="10" stroke-width="0.5" stroke-dasharray="0"/><path fill="none" stroke="none"/><path fill="none" stroke="#505050" paint-order="fill stroke markers" d=" M 985.4062833786011 421.01561546325684 L 993.4062833786011 421.01561546325684 L 993.4062833786011 429.01561546325684 L 985.4062833786011 429.01561546325684 L 985.4062833786011 421.01561546325684 Z" stroke-miterlimit="10" stroke-width="0.5" stroke-dasharray="0"/><path fill="none" stroke="#505050" paint-order="fill stroke markers" d=" M 985.4062833786011 433.01561546325684 L 993.4062833786011 433.01561546325684 L 993.4062833786011 441.01561546325684 L 985.4062833786011 441.01561546325684 L 985.4062833786011 433.01561546325684 Z" stroke-miterlimit="10" stroke-width="0.5" stroke-dasharray="0"/><path fill="white" stroke="#505050" paint-order="fill stroke markers" d=" M 441.7868375778198 305.6718215942383 L 441.7868375778198 407.6590042114258 Q 441.7868375778198 415.6590042114258 449.7868375778198 415.6590042114258 L 723.4031782150269 415.6590042114258 Q 731.4031782150269 415.6590042114258 731.4031782150269 407.6590042114258 L 731.4031782150269 305.6718215942383 Q 731.4031782150269 297.6718215942383 723.4031782150269 297.6718215942383 L 449.7868375778198 297.6718215942383 Q 441.7868375778198 297.6718215942383 441.7868375778198 305.6718215942383" stroke-miterlimit="10" stroke-width="0.5" stroke-dasharray="0"/><path fill="#F0F0F0" stroke="#505050" paint-order="fill stroke markers" d=" M 681.4031782150269 305.6718215942383 L 731.4031782150269 305.6718215942383 L 731.4031782150269 387.6718215942383 L 681.4031782150269 387.6718215942383 L 681.4031782150269 305.6718215942383 Z" stroke-miterlimit="10" stroke-width="0.5" stroke-dasharray="0"/><path fill="none" stroke="none"/><text fill="#505050" stroke="none" font-family="monospace" font-size="14px" font-style="normal" font-weight="normal" text-decoration="normal" x="706.4031782150269" y="323.6718215942383" text-anchor="middle" dominant-baseline="text-after-edge">union</text><path fill="none" stroke="#505050" paint-order="fill stroke markers" d=" M 681.4031782150269 323.6718215942383 L 697.4031782150269 323.6718215942383 L 697.4031782150269 351.6718215942383 L 681.4031782150269 351.6718215942383 L 681.4031782150269 323.6718215942383 Z" stroke-miterlimit="10" stroke-width="0.5" stroke-dasharray="0"/><path fill="none" stroke="none"/><path fill="none" stroke="#505050" paint-order="fill stroke markers" d=" M 689.4031782150269 327.6718215942383 L 697.4031782150269 327.6718215942383 L 697.4031782150269 335.6718215942383 L 689.4031782150269 335.6718215942383 L 689.4031782150269 327.6718215942383 Z" stroke-miterlimit="10" stroke-width="0.5" stroke-dasharray="0"/><path fill="none" stroke="#505050" paint-order="fill stroke markers" d=" M 689.4031782150269 339.6718215942383 L 697.4031782150269 339.6718215942383 L 697.4031782150269 347.6718215942383 L 689.4031782150269 347.6718215942383 L 689.4031782150269 339.6718215942383 Z" stroke-miterlimit="10" stroke-width="0.5" stroke-dasharray="0"/><path fill="none" stroke="#505050" paint-order="fill stroke markers" d=" M 681.4031782150269 355.6718215942383 L 697.4031782150269 355.6718215942383 L 697.4031782150269 383.6718215942383 L 681.4031782150269 383.6718215942383 L 681.4031782150269 355.6718215942383 Z" stroke-miterlimit="10" stroke-width="0.5" stroke-dasharray="0"/><path fill="none" stroke="none"/><path fill="none" stroke="#505050" paint-order="fill stroke markers" d=" M 689.4031782150269 359.6718215942383 L 697.4031782150269 359.6718215942383 L 697.4031782150269 367.6718215942383 L 689.4031782150269 367.6718215942383 L 689.4031782150269 359.6718215942383 Z" stroke-miterlimit="10" stroke-width="0.5" stroke-dasharray="0"/><path fill="none" stroke="#505050" paint-order="fill stroke markers" d=" M 689.4031782150269 371.6718215942383 L 697.4031782150269 371.6718215942383 L 697.4031782150269 379.6718215942383 L 689.4031782150269 379.6718215942383 L 689.4031782150269 371.6718215942383 Z" stroke-miterlimit="10" stroke-width="0.5" stroke-dasharray="0"/><path fill="none" stroke="#505050" paint-order="fill stroke markers" d=" M 715.4031782150269 323.6718215942383 L 731.4031782150269 323.6718215942383 L 731.4031782150269 351.6718215942383 L 715.4031782150269 351.6718215942383 L 715.4031782150269 323.6718215942383 Z" stroke-miterlimit="10" stroke-width="0.5" stroke-dasharray="0"/><path fill="none" stroke="none"/><path fill="none" stroke="#505050" paint-order="fill stroke markers" d=" M 723.4031782150269 327.6718215942383 L 731.4031782150269 327.6718215942383 L 731.4031782150269 335.6718215942383 L 723.4031782150269 335.6718215942383 L 723.4031782150269 327.6718215942383 Z" stroke-miterlimit="10" stroke-width="0.5" stroke-dasharray="0"/><path fill="none" stroke="#505050" paint-order="fill stroke markers" d=" M 723.4031782150269 339.6718215942383 L 731.4031782150269 339.6718215942383 L 731.4031782150269 347.6718215942383 L 723.4031782150269 347.6718215942383 L 723.4031782150269 339.6718215942383 Z" stroke-miterlimit="10" stroke-width="0.5" stroke-dasharray="0"/><path fill="none" stroke="#505050" paint-order="fill stroke markers" d=" M 645.3060941696167 361.51271629333496 L 653.3060941696167 361.51271629333496" stroke-miterlimit="10" stroke-dasharray="0"/><path fill="none" stroke="none"/><path fill="white" stroke="#505050" paint-order="fill stroke markers" d=" M 460.8286771774292 363.6590042114258 L 492.8286771774292 363.6590042114258 L 492.8286771774292 399.6590042114258 L 460.8286771774292 399.6590042114258 L 468.8286771774292 381.6590042114258 L 460.8286771774292 363.6590042114258" stroke-miterlimit="10" stroke-width="0.5" stroke-dasharray="0"/><path fill="#F0F0F0" stroke="none" paint-order="stroke fill markers" d=" M 476.8286771774292 367.6590042114258 L 492.8286771774292 367.6590042114258 L 492.8286771774292 395.6590042114258 L 476.8286771774292 395.6590042114258 L 476.8286771774292 367.6590042114258 Z"/><path fill="none" stroke="none"/><path fill="none" stroke="#505050" paint-order="fill stroke markers" d=" M 476.8286771774292 367.6590042114258 L 492.8286771774292 367.6590042114258 L 492.8286771774292 395.6590042114258 L 476.8286771774292 395.6590042114258 L 476.8286771774292 367.6590042114258 Z" stroke-miterlimit="10" stroke-width="0.5" stroke-dasharray="0"/><path fill="none" stroke="none"/><path fill="none" stroke="#505050" paint-order="fill stroke markers" d=" M 484.8286771774292 371.6590042114258 L 492.8286771774292 371.6590042114258 L 492.8286771774292 379.6590042114258 L 484.8286771774292 379.6590042114258 L 484.8286771774292 371.6590042114258 Z" stroke-miterlimit="10" stroke-width="0.5" stroke-dasharray="0"/><path fill="none" stroke="#505050" paint-order="fill stroke markers" d=" M 484.8286771774292 383.6590042114258 L 492.8286771774292 383.6590042114258 L 492.8286771774292 391.6590042114258 L 484.8286771774292 391.6590042114258 L 484.8286771774292 383.6590042114258 Z" stroke-miterlimit="10" stroke-width="0.5" stroke-dasharray="0"/><path fill="none" stroke="none"/><path fill="white" stroke="#505050" paint-order="fill stroke markers" d=" M 459.93030071258545 313.55960845947266 L 491.93030071258545 313.55960845947266 L 491.93030071258545 349.55960845947266 L 459.93030071258545 349.55960845947266 L 467.93030071258545 331.55960845947266 L 459.93030071258545 313.55960845947266" stroke-miterlimit="10" stroke-width="0.5" stroke-dasharray="0"/><path fill="#F0F0F0" stroke="none" paint-order="stroke fill markers" d=" M 475.93030071258545 317.55960845947266 L 491.93030071258545 317.55960845947266 L 491.93030071258545 345.55960845947266 L 475.93030071258545 345.55960845947266 L 475.93030071258545 317.55960845947266 Z"/><path fill="none" stroke="none"/><path fill="none" stroke="#505050" paint-order="fill stroke markers" d=" M 475.93030071258545 317.55960845947266 L 491.93030071258545 317.55960845947266 L 491.93030071258545 345.55960845947266 L 475.93030071258545 345.55960845947266 L 475.93030071258545 317.55960845947266 Z" stroke-miterlimit="10" stroke-width="0.5" stroke-dasharray="0"/><path fill="none" stroke="none"/><path fill="none" stroke="#505050" paint-order="fill stroke markers" d=" M 483.93030071258545 321.55960845947266 L 491.93030071258545 321.55960845947266 L 491.93030071258545 329.55960845947266 L 483.93030071258545 329.55960845947266 L 483.93030071258545 321.55960845947266 Z" stroke-miterlimit="10" stroke-width="0.5" stroke-dasharray="0"/><path fill="none" stroke="#505050" paint-order="fill stroke markers" d=" M 483.93030071258545 333.55960845947266 L 491.93030071258545 333.55960845947266 L 491.93030071258545 341.55960845947266 L 483.93030071258545 341.55960845947266 L 483.93030071258545 333.55960845947266 Z" stroke-miterlimit="10" stroke-width="0.5" stroke-dasharray="0"/><path fill="white" stroke="#505050" paint-order="fill stroke markers" d=" M 548.8061246871948 306.27547454833984 L 581.8061246871948 306.27547454833984 L 581.8061246871948 348.27547454833984 L 548.8061246871948 348.27547454833984 L 548.8061246871948 306.27547454833984 Z" stroke-miterlimit="10" stroke-width="0.5" stroke-dasharray="0"/><path fill="#F0F0F0" stroke="none" paint-order="stroke fill markers" d=""/><path fill="none" stroke="none"/><text fill="#505050" stroke="none" font-family="monospace" font-size="14px" font-style="normal" font-weight="normal" text-decoration="normal" x="565.3061246871948" y="324.27547454833984" text-anchor="middle" dominant-baseline="text-after-edge">min</text><path fill="none" stroke="#505050" paint-order="fill stroke markers" d=" M 548.8061246871948 324.27547454833984 L 556.8061246871948 324.27547454833984 L 556.8061246871948 332.27547454833984 L 548.8061246871948 332.27547454833984 L 548.8061246871948 324.27547454833984 Z" stroke-miterlimit="10" stroke-width="0.5" stroke-dasharray="0"/><path fill="none" stroke="#505050" paint-order="fill stroke markers" d=" M 548.8061246871948 336.27547454833984 L 556.8061246871948 336.27547454833984 L 556.8061246871948 344.27547454833984 L 548.8061246871948 344.27547454833984 L 548.8061246871948 336.27547454833984 Z" stroke-miterlimit="10" stroke-width="0.5" stroke-dasharray="0"/><path fill="none" stroke="#505050" paint-order="fill stroke markers" d=" M 573.8061246871948 324.27547454833984 L 581.8061246871948 324.27547454833984 L 581.8061246871948 332.27547454833984 L 573.8061246871948 332.27547454833984 L 573.8061246871948 324.27547454833984 Z" stroke-miterlimit="10" stroke-width="0.5" stroke-dasharray="0"/><path fill="white" stroke="#505050" paint-order="fill stroke markers" d=" M 512.851565361023 320.2328701019287 L 528.851565361023 320.2328701019287 L 528.851565361023 348.2328701019287 L 512.851565361023 348.2328701019287 L 512.851565361023 320.2328701019287 Z" stroke-miterlimit="10" stroke-width="0.5" stroke-dasharray="0"/><path fill="#F0F0F0" stroke="none" paint-order="stroke fill markers" d=""/><path fill="none" stroke="none"/><path fill="none" stroke="#505050" paint-order="fill stroke markers" d=" M 520.851565361023 324.2328701019287 L 528.851565361023 324.2328701019287 L 528.851565361023 332.2328701019287 L 520.851565361023 332.2328701019287 L 520.851565361023 324.2328701019287 Z" stroke-miterlimit="10" stroke-width="0.5" stroke-dasharray="0"/><path fill="none" stroke="#505050" paint-order="fill stroke markers" d=" M 520.851565361023 336.2328701019287 L 528.851565361023 336.2328701019287 L 528.851565361023 344.2328701019287 L 520.851565361023 344.2328701019287 L 520.851565361023 336.2328701019287 Z" stroke-miterlimit="10" stroke-width="0.5" stroke-dasharray="0"/><path fill="white" stroke="#505050" paint-order="fill stroke markers" d=" M 549.0653409957886 353.89270782470703 L 582.0653409957886 353.89270782470703 L 582.0653409957886 395.89270782470703 L 549.0653409957886 395.89270782470703 L 549.0653409957886 353.89270782470703 Z" stroke-miterlimit="10" stroke-width="0.5" stroke-dasharray="0"/><path fill="#F0F0F0" stroke="none" paint-order="stroke fill markers" d=""/><path fill="none" stroke="none"/><text fill="#505050" stroke="none" font-family="monospace" font-size="14px" font-style="normal" font-weight="normal" text-decoration="normal" x="565.5653409957886" y="371.89270782470703" text-anchor="middle" dominant-baseline="text-after-edge">max</text><path fill="none" stroke="#505050" paint-order="fill stroke markers" d=" M 549.0653409957886 371.89270782470703 L 557.0653409957886 371.89270782470703 L 557.0653409957886 379.89270782470703 L 549.0653409957886 379.89270782470703 L 549.0653409957886 371.89270782470703 Z" stroke-miterlimit="10" stroke-width="0.5" stroke-dasharray="0"/><path fill="none" stroke="#505050" paint-order="fill stroke markers" d=" M 549.0653409957886 383.89270782470703 L 557.0653409957886 383.89270782470703 L 557.0653409957886 391.89270782470703 L 549.0653409957886 391.89270782470703 L 549.0653409957886 383.89270782470703 Z" stroke-miterlimit="10" stroke-width="0.5" stroke-dasharray="0"/><path fill="none" stroke="#505050" paint-order="fill stroke markers" d=" M 574.0653409957886 371.89270782470703 L 582.0653409957886 371.89270782470703 L 582.0653409957886 379.89270782470703 L 574.0653409957886 379.89270782470703 L 574.0653409957886 371.89270782470703 Z" stroke-miterlimit="10" stroke-width="0.5" stroke-dasharray="0"/><path fill="white" stroke="#505050" paint-order="fill stroke markers" d=" M 515.1740140914917 367.50206565856934 L 531.1740140914917 367.50206565856934 L 531.1740140914917 395.50206565856934 L 515.1740140914917 395.50206565856934 L 515.1740140914917 367.50206565856934 Z" stroke-miterlimit="10" stroke-width="0.5" stroke-dasharray="0"/><path fill="#F0F0F0" stroke="none" paint-order="stroke fill markers" d=""/><path fill="none" stroke="none"/><path fill="none" stroke="#505050" paint-order="fill stroke markers" d=" M 523.1740140914917 371.50206565856934 L 531.1740140914917 371.50206565856934 L 531.1740140914917 379.50206565856934 L 523.1740140914917 379.50206565856934 L 523.1740140914917 371.50206565856934 Z" stroke-miterlimit="10" stroke-width="0.5" stroke-dasharray="0"/><path fill="none" stroke="#505050" paint-order="fill stroke markers" d=" M 523.1740140914917 383.50206565856934 L 531.1740140914917 383.50206565856934 L 531.1740140914917 391.50206565856934 L 523.1740140914917 391.50206565856934 L 523.1740140914917 383.50206565856934 Z" stroke-miterlimit="10" stroke-width="0.5" stroke-dasharray="0"/><path fill="white" stroke="#505050" paint-order="fill stroke markers" d=" M 613.3060941696167 343.51271629333496 L 645.3060941696167 343.51271629333496 L 645.3060941696167 379.51271629333496 L 613.3060941696167 379.51271629333496 L 613.3060941696167 343.51271629333496 Z" stroke-miterlimit="10" stroke-width="0.5" stroke-dasharray="0"/><path fill="#F0F0F0" stroke="none" paint-order="stroke fill markers" d=" M 629.3060941696167 347.51271629333496 L 645.3060941696167 347.51271629333496 L 645.3060941696167 375.51271629333496 L 629.3060941696167 375.51271629333496 L 629.3060941696167 347.51271629333496 Z"/><path fill="none" stroke="none"/><path fill="none" stroke="#505050" paint-order="fill stroke markers" d=" M 613.3060941696167 347.51271629333496 L 621.3060941696167 347.51271629333496 L 621.3060941696167 355.51271629333496 L 613.3060941696167 355.51271629333496 L 613.3060941696167 347.51271629333496 Z" stroke-miterlimit="10" stroke-width="0.5" stroke-dasharray="0"/><path fill="none" stroke="#505050" paint-order="fill stroke markers" d=" M 613.3060941696167 359.51271629333496 L 621.3060941696167 359.51271629333496 L 621.3060941696167 367.51271629333496 L 613.3060941696167 367.51271629333496 L 613.3060941696167 359.51271629333496 Z" stroke-miterlimit="10" stroke-width="0.5" stroke-dasharray="0"/><path fill="none" stroke="#505050" paint-order="fill stroke markers" d=" M 629.3060941696167 347.51271629333496 L 645.3060941696167 347.51271629333496 L 645.3060941696167 375.51271629333496 L 629.3060941696167 375.51271629333496 L 629.3060941696167 347.51271629333496 Z" stroke-miterlimit="10" stroke-width="0.5" stroke-dasharray="0"/><path fill="none" stroke="none"/><path fill="none" stroke="#505050" paint-order="fill stroke markers" d=" M 637.3060941696167 351.51271629333496 L 645.3060941696167 351.51271629333496 L 645.3060941696167 359.51271629333496 L 637.3060941696167 359.51271629333496 L 637.3060941696167 351.51271629333496 Z" stroke-miterlimit="10" stroke-width="0.5" stroke-dasharray="0"/><path fill="none" stroke="#505050" paint-order="fill stroke markers" d=" M 637.3060941696167 363.51271629333496 L 645.3060941696167 363.51271629333496 L 645.3060941696167 371.51271629333496 L 637.3060941696167 371.51271629333496 L 637.3060941696167 363.51271629333496 Z" stroke-miterlimit="10" stroke-width="0.5" stroke-dasharray="0"/><path fill="none" stroke="none"/><path fill="none" stroke="#e0e0e0" paint-order="fill stroke markers" d=" M 844.5773649215698 333.48792266845703 C 865.9761894790701 333.48792266845703 835.5529300125071 403.7357692718506 856.9517545700073 403.7357692718506" stroke-miterlimit="10" stroke-width="2" stroke-dasharray="0"/><path fill="none" stroke="none"/><path fill="none" stroke="#e0e0e0" paint-order="fill stroke markers" d=" M 831.9494962692261 377.40125274658203 C 855.5031190095227 377.40125274658203 835.7205805601794 451.0049648284912 859.2742033004761 451.0049648284912" stroke-miterlimit="10" stroke-width="2" stroke-dasharray="0"/><path fill="none" stroke="none"/><path fill="none" stroke="#e0e0e0" paint-order="fill stroke markers" d=" M 495.93030071258545 331.55960845947266 C 499.88877096170427 331.55960845947266 504.89309511190413 334.2328701019287 508.85156536102295 334.2328701019287" stroke-miterlimit="10" stroke-width="2" stroke-dasharray="0"/><path fill="none" stroke="none"/><path fill="none" stroke="#e0e0e0" paint-order="fill stroke markers" d=" M 496.8286771774292 381.6590042114258 C 501.1325357810383 381.6590042114258 506.8701554878826 381.50206565856934 511.1740140914917 381.50206565856934" stroke-miterlimit="10" stroke-width="2" stroke-dasharray="0"/><path fill="none" stroke="#505050" paint-order="fill stroke markers" d=" M 559.0540800094604 48.81179332733154 C 562.9467904603563 48.81179332733154 567.7905514204421 45.83310317993164 571.6832618713379 45.83310317993164" stroke-miterlimit="10" stroke-dasharray="0"/><path fill="none" stroke="#505050" paint-order="fill stroke markers" d=" M 559.0540800094604 60.81179332733154 C 563.2232706388857 60.81179332733154 568.3024308839415 64.43181896209717 572.4716215133667 64.43181896209717" stroke-miterlimit="10" stroke-dasharray="0"/><path fill="none" stroke="#505050" paint-order="fill stroke markers" d=" M 673.1689987182617 48.212345123291016 C 679.903640407279 48.212345123291016 688.8831590235682 48.19956874847412 695.6178007125854 48.19956874847412" stroke-miterlimit="10" stroke-dasharray="0"/><path fill="none" stroke="#505050" paint-order="fill stroke markers" d=" M 673.4388637542725 67.97441673278809 C 680.0797156999058 67.97441673278809 688.9237261107021 67.29402828216553 695.5645780563354 67.29402828216553" stroke-miterlimit="10" stroke-dasharray="0"/><path fill="none" stroke="#505050" paint-order="fill stroke markers" d=" M 815.1689176559448 218.43965435028076 C 830.4648923276399 218.43965435028076 832.039115965512 178.87996673583984 847.335090637207 178.87996673583984" stroke-miterlimit="10" stroke-dasharray="0"/><path fill="none" stroke="#505050" paint-order="fill stroke markers" d=" M 814.2420682907104 166.7272825241089 C 824.1700806620001 166.7272825241089 837.4070782659173 166.87996673583984 847.335090637207 166.87996673583984" stroke-miterlimit="10" stroke-dasharray="0"/><path fill="none" stroke="#505050" paint-order="fill stroke markers" d=" M 814.2420682907104 178.7272825241089 C 833.3524056550103 178.7272825241089 827.8340672377509 233.3934555053711 846.9444046020508 233.3934555053711" stroke-miterlimit="10" stroke-dasharray="0"/><path fill="none" stroke="#505050" paint-order="fill stroke markers" d=" M 815.1689176559448 206.43965435028076 C 825.7044193795616 206.43965435028076 836.408902878434 221.3934555053711 846.9444046020508 221.3934555053711" stroke-miterlimit="10" stroke-dasharray="0"/><path fill="none" stroke="#505050" paint-order="fill stroke markers" d=" M 870.9444046020508 221.3934555053711 C 882.0597139207274 221.3934555053711 889.6110805662721 199.3523063659668 900.7263898849487 199.3523063659668" stroke-miterlimit="10" stroke-dasharray="0"/><path fill="none" stroke="#505050" paint-order="fill stroke markers" d=" M 871.335090637207 166.87996673583984 C 882.0806415549656 166.87996673583984 889.9808389671902 187.3523063659668 900.7263898849487 187.3523063659668" stroke-miterlimit="10" stroke-dasharray="0"/><path fill="none" stroke="#505050" paint-order="fill stroke markers" d=" M 1128.1143245697021 162.21097087860107 C 1154.1847870076056 162.21097087860107 1125.806714800561 245.80047225952148 1151.8771772384644 245.80047225952148" stroke-miterlimit="10" stroke-dasharray="0"/><path fill="none" stroke="#505050" paint-order="fill stroke markers" d=" M 656.944582939148 206.319598197937 C 662.3985848540595 206.319598197937 669.668838966436 206.06746673583984 675.1228408813477 206.06746673583984" stroke-miterlimit="10" stroke-dasharray="0"/><path fill="none" stroke="#505050" paint-order="fill stroke markers" d=" M 656.944582939148 194.319598197937 C 662.3985848540595 194.319598197937 669.668838966436 194.06746673583984 675.1228408813477 194.06746673583984" stroke-miterlimit="10" stroke-dasharray="0"/><path fill="none" stroke="#505050" paint-order="fill stroke markers" d=" M 840.5773649215698 333.48792266845703 C 870.7737019918823 333.48792266845703 910.9969336129761 336.2734570503235 941.1932706832886 336.2734570503235" stroke-miterlimit="10" stroke-dasharray="0"/><path fill="none" stroke="#505050" paint-order="fill stroke markers" d=" M 827.9494962692261 377.40125274658203 C 862.0328091775015 377.40125274658203 907.1099577750132 368.2734570503235 941.1932706832886 368.2734570503235" stroke-miterlimit="10" stroke-dasharray="0"/><path fill="none" stroke="#505050" paint-order="fill stroke markers" d=" M 1016.1932706832886 326.2734570503235 C 1032.4370540169105 326.2734570503235 1046.4174868079797 354.0674910545349 1062.6612701416016 354.0674910545349" stroke-miterlimit="10" stroke-dasharray="0"/><path fill="none" stroke="#505050" paint-order="fill stroke markers" d=" M 1026.3495206832886 366.5802502632141 C 1037.2441315696692 366.5802502632141 1051.766659255221 366.0674910545349 1062.6612701416016 366.0674910545349" stroke-miterlimit="10" stroke-dasharray="0"/><path fill="none" stroke="#505050" paint-order="fill stroke markers" d=" M 1086.6612701416016 354.0674910545349 C 1105.309582837569 354.0674910545349 1084.70041453029 413.94673585891724 1103.3487272262573 413.94673585891724" stroke-miterlimit="10" stroke-dasharray="0"/><path fill="none" stroke="#505050" paint-order="fill stroke markers" d=" M 876.9517545700073 397.7357692718506 C 882.9381360123856 397.7357692718506 890.9199324538009 397.7783737182617 896.9063138961792 397.7783737182617" stroke-miterlimit="10" stroke-dasharray="0"/><path fill="none" stroke="#505050" paint-order="fill stroke markers" d=" M 879.2742033004761 445.0049648284912 C 891.0920865321541 445.0049648284912 885.0884306645012 409.7783737182617 896.9063138961792 409.7783737182617" stroke-miterlimit="10" stroke-dasharray="0"/><path fill="none" stroke="#505050" paint-order="fill stroke markers" d=" M 876.9517545700073 409.7357692718506 C 889.2489033315893 409.7357692718506 884.868381443191 445.3956069946289 897.165530204773 445.3956069946289" stroke-miterlimit="10" stroke-dasharray="0"/><path fill="none" stroke="#505050" paint-order="fill stroke markers" d=" M 879.2742033004761 457.0049648284912 C 884.6428806210881 457.0049648284912 891.7968528841609 457.3956069946289 897.165530204773 457.3956069946289" stroke-miterlimit="10" stroke-dasharray="0"/><path fill="none" stroke="#505050" paint-order="fill stroke markers" d=" M 930.165530204773 445.3956069946289 C 940.2468196275919 445.3956069946289 951.3249939557821 433.01561546325684 961.4062833786011 433.01561546325684" stroke-miterlimit="10" stroke-dasharray="0"/><path fill="none" stroke="#505050" paint-order="fill stroke markers" d=" M 929.9063138961792 397.7783737182617 C 941.6493787992528 397.7783737182617 949.6632184755275 421.01561546325684 961.4062833786011 421.01561546325684" stroke-miterlimit="10" stroke-dasharray="0"/><path fill="none" stroke="#505050" paint-order="fill stroke markers" d=" M 993.4062833786011 431.01561546325684 C 1019.5592590466782 431.01561546325684 1036.5082944735243 378.0674910545349 1062.6612701416016 378.0674910545349" stroke-miterlimit="10" stroke-dasharray="0"/><path fill="none" stroke="#505050" paint-order="fill stroke markers" d=" M 528.851565361023 328.2328701019287 C 534.8379468034012 328.2328701019287 542.8197432448166 328.27547454833984 548.8061246871948 328.27547454833984" stroke-miterlimit="10" stroke-dasharray="0"/><path fill="none" stroke="#505050" paint-order="fill stroke markers" d=" M 531.1740140914917 375.50206565856934 C 542.9918973231697 375.50206565856934 536.9882414555168 340.27547454833984 548.8061246871948 340.27547454833984" stroke-miterlimit="10" stroke-dasharray="0"/><path fill="none" stroke="#505050" paint-order="fill stroke markers" d=" M 528.851565361023 340.2328701019287 C 541.1487141226049 340.2328701019287 536.7681922342066 375.89270782470703 549.0653409957886 375.89270782470703" stroke-miterlimit="10" stroke-dasharray="0"/><path fill="none" stroke="#505050" paint-order="fill stroke markers" d=" M 531.1740140914917 387.50206565856934 C 536.5426914121037 387.50206565856934 543.6966636751765 387.89270782470703 549.0653409957886 387.89270782470703" stroke-miterlimit="10" stroke-dasharray="0"/><path fill="none" stroke="#505050" paint-order="fill stroke markers" d=" M 582.0653409957886 375.89270782470703 C 592.1466304186075 375.89270782470703 603.2248047467978 363.51271629333496 613.3060941696167 363.51271629333496" stroke-miterlimit="10" stroke-dasharray="0"/><path fill="none" stroke="#505050" paint-order="fill stroke markers" d=" M 581.8061246871948 328.27547454833984 C 593.5491895902684 328.27547454833984 601.5630292665431 351.51271629333496 613.3060941696167 351.51271629333496" stroke-miterlimit="10" stroke-dasharray="0"/></g></g></svg>