<svg version="1.1" xmlns="http://www.w3.org/2000/svg" xmlns:xlink="http://www.w3.org/1999/xlink" width="738.2562927305698" height="738.2562927305698"><defs/><g transform="translate(-343.53753051161766,-17.57187271118164)"><g><path fill="white" stroke="#505050" paint-order="fill stroke markers" d=" M 347.7281242311001 39.821876525878906 L 347.7281242311001 69.8218765258789 Q 347.7281242311001 77.8218765258789 355.7281242311001 77.8218765258789 L 427.44999465346336 77.8218765258789 Q 435.44999465346336 77.8218765258789 435.44999465346336 69.8218765258789 L 435.44999465346336 39.821876525878906 Q 435.44999465346336 31.821876525878906 427.44999465346336 31.821876525878906 L 355.7281242311001 31.821876525878906 Q 347.7281242311001 31.821876525878906 347.7281242311001 39.821876525878906" stroke-miterlimit="10" stroke-width="0.5" stroke-dasharray=""/><path fill="#F0F0F0" stroke="#505050" paint-order="fill stroke markers" d=" M 393.44999465346336 39.821876525878906 L 435.44999465346336 39.821876525878906 L 435.44999465346336 69.8218765258789 L 393.44999465346336 69.8218765258789 L 393.44999465346336 39.821876525878906 Z" stroke-miterlimit="10" stroke-width="0.5" stroke-dasharray="6,3"/><text fill="#505050" stroke="none" font-family="monospace" font-size="14px" font-style="normal" font-weight="normal" text-decoration="normal" x="414.44999465346336" y="57.821876525878906" text-anchor="middle" dominant-baseline="text-after-edge">body</text><path fill="none" stroke="#505050" paint-order="fill stroke markers" d=" M 393.44999465346336 57.821876525878906 L 401.44999465346336 57.821876525878906 L 401.44999465346336 65.8218765258789 L 393.44999465346336 65.8218765258789 L 393.44999465346336 57.821876525878906 Z" stroke-miterlimit="10" stroke-width="0.5" stroke-dasharray="0"/><path fill="none" stroke="#505050" paint-order="fill stroke markers" d=" M 427.44999465346336 57.821876525878906 L 435.44999465346336 57.821876525878906 L 435.44999465346336 65.8218765258789 L 427.44999465346336 65.8218765258789 L 427.44999465346336 57.821876525878906 Z" stroke-miterlimit="10" stroke-width="0.5" stroke-dasharray="0"/><path fill="white" stroke="#505050" paint-order="fill stroke markers" d=" M 375.34689101576805 39.06872749328613 L 383.34689101576805 39.06872749328613 L 391.34689101576805 47.06872749328613 L 383.34689101576805 55.06872749328613 L 375.34689101576805 55.06872749328613 L 375.34689101576805 39.06872749328613" stroke-miterlimit="10" stroke-width="0.5" stroke-dasharray="0"/><path fill="none" stroke="#505050" paint-order="fill stroke markers" d=" M 375.34689101576805 43.06872749328613 L 383.34689101576805 43.06872749328613 L 383.34689101576805 51.06872749328613 L 375.34689101576805 51.06872749328613 L 375.34689101576805 43.06872749328613 Z" stroke-miterlimit="10" stroke-width="0.5" stroke-dasharray="0"/><path fill="white" stroke="#505050" paint-order="fill stroke markers" d=" M 351.43437346816063 38.84062194824219 L 367.43437346816063 38.84062194824219 L 367.43437346816063 54.84062194824219 L 351.43437346816063 54.84062194824219 L 359.43437346816063 46.84062194824219 L 351.43437346816063 38.84062194824219" stroke-miterlimit="10" stroke-width="0.5" stroke-dasharray="0"/><path fill="none" stroke="#505050" paint-order="fill stroke markers" d=" M 359.43437346816063 42.84062194824219 L 367.43437346816063 42.84062194824219 L 367.43437346816063 50.84062194824219 L 359.43437346816063 50.84062194824219 L 359.43437346816063 42.84062194824219 Z" stroke-miterlimit="10" stroke-width="0.5" stroke-dasharray="0"/><path fill="white" stroke="#505050" paint-order="fill stroke markers" d=" M 344.53753051161766 114.76560974121094 L 344.53753051161766 393.51873779296875 Q 344.53753051161766 401.51873779296875 352.53753051161766 401.51873779296875 L 837.6937255859375 401.51873779296875 Q 845.6937255859375 401.51873779296875 845.6937255859375 393.51873779296875 L 845.6937255859375 114.76560974121094 Q 845.6937255859375 106.76560974121094 837.6937255859375 106.76560974121094 L 352.53753051161766 106.76560974121094 Q 344.53753051161766 106.76560974121094 344.53753051161766 114.76560974121094" stroke-miterlimit="10" stroke-width="0.5" stroke-dasharray="0"/><path fill="#F0F0F0" stroke="#505050" paint-order="fill stroke markers" d=" M 731.6937255859375 114.76560974121094 L 845.6937255859375 114.76560974121094 L 845.6937255859375 146.76560974121094 L 731.6937255859375 146.76560974121094 L 731.6937255859375 114.76560974121094 Z" stroke-miterlimit="10" stroke-width="0.5" stroke-dasharray="0"/><path fill="none" stroke="#505050" paint-order="fill stroke markers" d=" M 731.6937255859375 119.76560974121094 L 739.6937255859375 119.76560974121094 L 739.6937255859375 127.76560974121094 L 731.6937255859375 127.76560974121094 L 731.6937255859375 119.76560974121094 Z" stroke-miterlimit="10" stroke-width="0.5" stroke-dasharray="0"/><text fill="#505050" stroke="none" font-family="monospace" font-size="14px" font-style="normal" font-weight="normal" text-decoration="normal" x="747.6937255859375" y="132.76560974121094" text-anchor="start" dominant-baseline="text-after-edge">n</text><path fill="none" stroke="#505050" paint-order="fill stroke markers" d=" M 805.6937255859375 118.76560974121094 L 845.6937255859375 118.76560974121094 L 845.6937255859375 142.76560974121094 L 805.6937255859375 142.76560974121094 L 805.6937255859375 118.76560974121094 Z" stroke-miterlimit="10" stroke-width="0.5" stroke-dasharray="0"/><path fill="none" stroke="#505050" paint-order="fill stroke markers" d=" M 805.6937255859375 122.76560974121094 L 829.6937255859375 122.76560974121094 L 829.6937255859375 138.76560974121094 L 805.6937255859375 138.76560974121094 L 805.6937255859375 122.76560974121094 Z" stroke-miterlimit="10" stroke-width="0.5" stroke-dasharray="0"/><path fill="none" stroke="#505050" paint-order="fill stroke markers" d=" M 805.6937255859375 126.76560974121094 L 813.6937255859375 126.76560974121094 L 813.6937255859375 134.76560974121094 L 805.6937255859375 134.76560974121094 L 805.6937255859375 126.76560974121094 Z" stroke-miterlimit="10" stroke-width="0.5" stroke-dasharray="0"/><path fill="none" stroke="#505050" paint-order="fill stroke markers" d=" M 821.6937255859375 126.76560974121094 L 829.6937255859375 126.76560974121094 L 829.6937255859375 134.76560974121094 L 821.6937255859375 134.76560974121094 L 821.6937255859375 126.76560974121094 Z" stroke-miterlimit="10" stroke-width="0.5" stroke-dasharray="0"/><path fill="none" stroke="#505050" paint-order="fill stroke markers" d=" M 837.6937255859375 122.76560974121094 L 845.6937255859375 122.76560974121094 L 845.6937255859375 130.76560974121094 L 837.6937255859375 130.76560974121094 L 837.6937255859375 122.76560974121094 Z" stroke-miterlimit="10" stroke-width="0.5" stroke-dasharray="0"/><text fill="#505050" stroke="none" font-family="monospace" font-size="14px" font-style="normal" font-weight="normal" text-decoration="normal" x="797.6937255859375" y="139.76560974121094" text-anchor="end" dominant-baseline="text-after-edge">iter</text><path fill="white" stroke="#505050" paint-order="fill stroke markers" d=" M 393.9406677186489 127.44061279296875 L 393.9406677186489 289.8625030517578 Q 393.9406677186489 297.8625030517578 401.9406677186489 297.8625030517578 L 699.8812499940395 297.8625030517578 Q 707.8812499940395 297.8625030517578 707.8812499940395 289.8625030517578 L 707.8812499940395 127.44061279296875 Q 707.8812499940395 119.44061279296875 699.8812499940395 119.44061279296875 L 401.9406677186489 119.44061279296875 Q 393.9406677186489 119.44061279296875 393.9406677186489 127.44061279296875" stroke-miterlimit="10" stroke-width="0.5" stroke-dasharray="0"/><path fill="#F0F0F0" stroke="#505050" paint-order="fill stroke markers" d=" M 625.8812499940395 127.44061279296875 L 707.8812499940395 127.44061279296875 L 707.8812499940395 165.44061279296875 L 625.8812499940395 165.44061279296875 L 625.8812499940395 127.44061279296875 Z" stroke-miterlimit="10" stroke-width="0.5" stroke-dasharray="0"/><path fill="none" stroke="#505050" paint-order="fill stroke markers" d=" M 625.8812499940395 132.44061279296875 L 633.8812499940395 132.44061279296875 L 633.8812499940395 140.44061279296875 L 625.8812499940395 140.44061279296875 L 625.8812499940395 132.44061279296875 Z" stroke-miterlimit="10" stroke-width="0.5" stroke-dasharray="0"/><text fill="#505050" stroke="none" font-family="monospace" font-size="14px" font-style="normal" font-weight="normal" text-decoration="normal" x="641.8812499940395" y="145.44061279296875" text-anchor="start" dominant-baseline="text-after-edge">i</text><path fill="none" stroke="#505050" paint-order="fill stroke markers" d=" M 625.8812499940395 145.44061279296875 L 649.8812499940395 145.44061279296875 L 649.8812499940395 161.44061279296875 L 625.8812499940395 161.44061279296875 L 625.8812499940395 145.44061279296875 Z" stroke-miterlimit="10" stroke-width="0.5" stroke-dasharray="0"/><path fill="none" stroke="#505050" paint-order="fill stroke markers" d=" M 625.8812499940395 149.44061279296875 L 633.8812499940395 149.44061279296875 L 633.8812499940395 157.44061279296875 L 625.8812499940395 157.44061279296875 L 625.8812499940395 149.44061279296875 Z" stroke-miterlimit="10" stroke-width="0.5" stroke-dasharray="0"/><path fill="none" stroke="#505050" paint-order="fill stroke markers" d=" M 641.8812499940395 149.44061279296875 L 649.8812499940395 149.44061279296875 L 649.8812499940395 157.44061279296875 L 641.8812499940395 157.44061279296875 L 641.8812499940395 149.44061279296875 Z" stroke-miterlimit="10" stroke-width="0.5" stroke-dasharray="0"/><text fill="#505050" stroke="none" font-family="monospace" font-size="14px" font-style="normal" font-weight="normal" text-decoration="normal" x="657.8812499940395" y="162.44061279296875" text-anchor="start" dominant-baseline="text-after-edge">body</text><path fill="none" stroke="#505050" paint-order="fill stroke markers" d=" M 699.8812499940395 131.44061279296875 L 707.8812499940395 131.44061279296875 L 707.8812499940395 139.44061279296875 L 699.8812499940395 139.44061279296875 L 699.8812499940395 131.44061279296875 Z" stroke-miterlimit="10" stroke-width="0.5" stroke-dasharray="0"/><path fill="white" stroke="#505050" paint-order="fill stroke markers" d=" M 461.7937866151333 125.34060668945312 L 485.7937866151333 125.34060668945312 L 485.7937866151333 167.34060668945312 L 461.7937866151333 167.34060668945312 L 461.7937866151333 125.34060668945312 Z" stroke-miterlimit="10" stroke-width="0.5" stroke-dasharray="0"/><path fill="#F0F0F0" stroke="none" paint-order="stroke fill markers" d=""/><text fill="#505050" stroke="none" font-family="monospace" font-size="14px" font-style="normal" font-weight="normal" text-decoration="normal" x="473.7937866151333" y="143.34060668945312" text-anchor="middle" dominant-baseline="text-after-edge">&lt;</text><path fill="none" stroke="#505050" paint-order="fill stroke markers" d=" M 461.7937866151333 143.34060668945312 L 469.7937866151333 143.34060668945312 L 469.7937866151333 151.34060668945312 L 461.7937866151333 151.34060668945312 L 461.7937866151333 143.34060668945312 Z" stroke-miterlimit="10" stroke-width="0.5" stroke-dasharray="0"/><path fill="none" stroke="#505050" paint-order="fill stroke markers" d=" M 461.7937866151333 155.34060668945312 L 469.7937866151333 155.34060668945312 L 469.7937866151333 163.34060668945312 L 461.7937866151333 163.34060668945312 L 461.7937866151333 155.34060668945312 Z" stroke-miterlimit="10" stroke-width="0.5" stroke-dasharray="0"/><path fill="none" stroke="#505050" paint-order="fill stroke markers" d=" M 477.7937866151333 143.34060668945312 L 485.7937866151333 143.34060668945312 L 485.7937866151333 151.34060668945312 L 477.7937866151333 151.34060668945312 L 477.7937866151333 143.34060668945312 Z" stroke-miterlimit="10" stroke-width="0.5" stroke-dasharray="0"/><path fill="white" stroke="#505050" paint-order="fill stroke markers" d=" M 397.0125366151333 129.27813720703125 L 429.0125366151333 129.27813720703125 L 429.0125366151333 147.27813720703125 L 397.0125366151333 147.27813720703125 L 405.0125366151333 138.27813720703125 L 397.0125366151333 129.27813720703125" stroke-miterlimit="10" stroke-width="0.5" stroke-dasharray="0"/><path fill="none" stroke="#505050" paint-order="fill stroke markers" d=" M 421.0125366151333 134.27813720703125 L 429.0125366151333 134.27813720703125 L 429.0125366151333 142.27813720703125 L 421.0125366151333 142.27813720703125 L 421.0125366151333 134.27813720703125 Z" stroke-miterlimit="10" stroke-width="0.5" stroke-dasharray="0"/><text fill="#505050" stroke="none" font-family="monospace" font-size="14px" font-style="normal" font-weight="normal" text-decoration="normal" x="413.0125366151333" y="147.27813720703125" text-anchor="end" dominant-baseline="text-after-edge">i</text><path fill="white" stroke="#505050" paint-order="fill stroke markers" d=" M 521.7718444764614 234.7687225341797 L 603.7718444764614 234.7687225341797 L 603.7718444764614 272.7687225341797 L 521.7718444764614 272.7687225341797 L 521.7718444764614 234.7687225341797 Z" stroke-miterlimit="10" stroke-width="0.5" stroke-dasharray="0"/><path fill="#F0F0F0" stroke="none" paint-order="stroke fill markers" d=""/><path fill="none" stroke="#505050" paint-order="fill stroke markers" d=" M 521.7718444764614 239.7687225341797 L 529.7718444764614 239.7687225341797 L 529.7718444764614 247.7687225341797 L 521.7718444764614 247.7687225341797 L 521.7718444764614 239.7687225341797 Z" stroke-miterlimit="10" stroke-width="0.5" stroke-dasharray="0"/><text fill="#505050" stroke="none" font-family="monospace" font-size="14px" font-style="normal" font-weight="normal" text-decoration="normal" x="537.7718444764614" y="252.7687225341797" text-anchor="start" dominant-baseline="text-after-edge">i</text><path fill="none" stroke="#505050" paint-order="fill stroke markers" d=" M 521.7718444764614 252.7687225341797 L 545.7718444764614 252.7687225341797 L 545.7718444764614 268.7687225341797 L 521.7718444764614 268.7687225341797 L 521.7718444764614 252.7687225341797 Z" stroke-miterlimit="10" stroke-width="0.5" stroke-dasharray="0"/><path fill="none" stroke="#505050" paint-order="fill stroke markers" d=" M 521.7718444764614 256.7687225341797 L 529.7718444764614 256.7687225341797 L 529.7718444764614 264.7687225341797 L 521.7718444764614 264.7687225341797 L 521.7718444764614 256.7687225341797 Z" stroke-miterlimit="10" stroke-width="0.5" stroke-dasharray="0"/><path fill="none" stroke="#505050" paint-order="fill stroke markers" d=" M 537.7718444764614 256.7687225341797 L 545.7718444764614 256.7687225341797 L 545.7718444764614 264.7687225341797 L 537.7718444764614 264.7687225341797 L 537.7718444764614 256.7687225341797 Z" stroke-miterlimit="10" stroke-width="0.5" stroke-dasharray="0"/><text fill="#505050" stroke="none" font-family="monospace" font-size="14px" font-style="normal" font-weight="normal" text-decoration="normal" x="553.7718444764614" y="269.7687225341797" text-anchor="start" dominant-baseline="text-after-edge">body</text><path fill="none" stroke="#505050" paint-order="fill stroke markers" d=" M 595.7718444764614 238.7687225341797 L 603.7718444764614 238.7687225341797 L 603.7718444764614 246.7687225341797 L 595.7718444764614 246.7687225341797 L 595.7718444764614 238.7687225341797 Z" stroke-miterlimit="10" stroke-width="0.5" stroke-dasharray="0"/><path fill="#e0e0e0" stroke="none" paint-order="stroke fill markers" d=" M 715.8812499940395 146.44061279296875 L 707.8812499940395 127.44061279296875 L 707.8812499940395 165.44061279296875 Z M 513.7718444764614 253.7687225341797 L 521.7718444764614 234.7687225341797 L 521.7718444764614 272.7687225341797 Z"/><path fill="none" stroke="none"/><path fill="none" stroke="#e0e0e0" paint-order="fill stroke markers" d=" M 715.8812499940395 146.44061279296875 C 784.5331119100584 146.44061279296875 445.1199825604425 253.7687225341797 513.7718444764614 253.7687225341797" stroke-miterlimit="10" stroke-width="2" stroke-dasharray="0"/><path fill="white" stroke="#505050" paint-order="fill stroke markers" d=" M 471.29372557997704 210.6812286376953 L 496.29372557997704 210.6812286376953 L 496.29372557997704 240.6812286376953 L 471.29372557997704 240.6812286376953 L 471.29372557997704 210.6812286376953 Z" stroke-miterlimit="10" stroke-width="0.5" stroke-dasharray="0"/><path fill="#F0F0F0" stroke="none" paint-order="stroke fill markers" d=""/><text fill="#505050" stroke="none" font-family="monospace" font-size="14px" font-style="normal" font-weight="normal" text-decoration="normal" x="483.79372557997704" y="228.6812286376953" text-anchor="middle" dominant-baseline="text-after-edge">+1</text><path fill="none" stroke="#505050" paint-order="fill stroke markers" d=" M 471.29372557997704 228.6812286376953 L 479.29372557997704 228.6812286376953 L 479.29372557997704 236.6812286376953 L 471.29372557997704 236.6812286376953 L 471.29372557997704 228.6812286376953 Z" stroke-miterlimit="10" stroke-width="0.5" stroke-dasharray="0"/><path fill="none" stroke="#505050" paint-order="fill stroke markers" d=" M 488.29372557997704 228.6812286376953 L 496.29372557997704 228.6812286376953 L 496.29372557997704 236.6812286376953 L 488.29372557997704 236.6812286376953 L 488.29372557997704 228.6812286376953 Z" stroke-miterlimit="10" stroke-width="0.5" stroke-dasharray="0"/><path fill="white" stroke="#505050" paint-order="fill stroke markers" d=" M 528.8936706483364 131.4437599182129 L 552.8936706483364 131.4437599182129 L 552.8936706483364 185.4437599182129 L 528.8936706483364 185.4437599182129 L 528.8936706483364 131.4437599182129 Z" stroke-miterlimit="10" stroke-width="0.5" stroke-dasharray="0"/><path fill="#F0F0F0" stroke="none" paint-order="stroke fill markers" d=""/><text fill="#505050" stroke="none" font-family="monospace" font-size="14px" font-style="normal" font-weight="normal" text-decoration="normal" x="540.8936706483364" y="149.4437599182129" text-anchor="middle" dominant-baseline="text-after-edge">?</text><path fill="none" stroke="#505050" paint-order="fill stroke markers" d=" M 528.8936706483364 149.4437599182129 L 536.8936706483364 149.4437599182129 L 536.8936706483364 157.4437599182129 L 528.8936706483364 157.4437599182129 L 528.8936706483364 149.4437599182129 Z" stroke-miterlimit="10" stroke-width="0.5" stroke-dasharray="0"/><path fill="none" stroke="#505050" paint-order="fill stroke markers" d=" M 528.8936706483364 161.4437599182129 L 536.8936706483364 161.4437599182129 L 536.8936706483364 169.4437599182129 L 528.8936706483364 169.4437599182129 L 528.8936706483364 161.4437599182129 Z" stroke-miterlimit="10" stroke-width="0.5" stroke-dasharray="0"/><path fill="none" stroke="#505050" paint-order="fill stroke markers" d=" M 528.8936706483364 173.4437599182129 L 536.8936706483364 173.4437599182129 L 536.8936706483364 181.4437599182129 L 528.8936706483364 181.4437599182129 L 528.8936706483364 173.4437599182129 Z" stroke-miterlimit="10" stroke-width="0.5" stroke-dasharray="0"/><path fill="none" stroke="#505050" paint-order="fill stroke markers" d=" M 544.8936706483364 149.4437599182129 L 552.8936706483364 149.4437599182129 L 552.8936706483364 157.4437599182129 L 544.8936706483364 157.4437599182129 L 544.8936706483364 149.4437599182129 Z" stroke-miterlimit="10" stroke-width="0.5" stroke-dasharray="0"/><path fill="white" stroke="#505050" paint-order="fill stroke markers" d=" M 675.8812499940395 220.44688415527344 L 683.8812499940395 220.44688415527344 L 691.8812499940395 228.44688415527344 L 683.8812499940395 236.44688415527344 L 675.8812499940395 236.44688415527344 L 675.8812499940395 220.44688415527344" stroke-miterlimit="10" stroke-width="0.5" stroke-dasharray="0"/><path fill="none" stroke="#505050" paint-order="fill stroke markers" d=" M 675.8812499940395 224.44688415527344 L 683.8812499940395 224.44688415527344 L 683.8812499940395 232.44688415527344 L 675.8812499940395 232.44688415527344 L 675.8812499940395 224.44688415527344 Z" stroke-miterlimit="10" stroke-width="0.5" stroke-dasharray="0"/><path fill="white" stroke="#505050" paint-order="fill stroke markers" d=" M 636.6780944764614 206.5749855041504 L 660.6780944764614 206.5749855041504 L 660.6780944764614 260.5749855041504 L 636.6780944764614 260.5749855041504 L 636.6780944764614 206.5749855041504 Z" stroke-miterlimit="10" stroke-width="0.5" stroke-dasharray="0"/><path fill="#F0F0F0" stroke="none" paint-order="stroke fill markers" d=""/><text fill="#505050" stroke="none" font-family="monospace" font-size="14px" font-style="normal" font-weight="normal" text-decoration="normal" x="648.6780944764614" y="224.5749855041504" text-anchor="middle" dominant-baseline="text-after-edge">?</text><path fill="none" stroke="#505050" paint-order="fill stroke markers" d=" M 636.6780944764614 224.5749855041504 L 644.6780944764614 224.5749855041504 L 644.6780944764614 232.5749855041504 L 636.6780944764614 232.5749855041504 L 636.6780944764614 224.5749855041504 Z" stroke-miterlimit="10" stroke-width="0.5" stroke-dasharray="0"/><path fill="none" stroke="#505050" paint-order="fill stroke markers" d=" M 636.6780944764614 236.5749855041504 L 644.6780944764614 236.5749855041504 L 644.6780944764614 244.5749855041504 L 636.6780944764614 244.5749855041504 L 636.6780944764614 236.5749855041504 Z" stroke-miterlimit="10" stroke-width="0.5" stroke-dasharray="0"/><path fill="none" stroke="#505050" paint-order="fill stroke markers" d=" M 636.6780944764614 248.5749855041504 L 644.6780944764614 248.5749855041504 L 644.6780944764614 256.5749855041504 L 636.6780944764614 256.5749855041504 L 636.6780944764614 248.5749855041504 Z" stroke-miterlimit="10" stroke-width="0.5" stroke-dasharray="0"/><path fill="none" stroke="#505050" paint-order="fill stroke markers" d=" M 652.6780944764614 224.5749855041504 L 660.6780944764614 224.5749855041504 L 660.6780944764614 232.5749855041504 L 652.6780944764614 232.5749855041504 L 652.6780944764614 224.5749855041504 Z" stroke-miterlimit="10" stroke-width="0.5" stroke-dasharray="0"/><path fill="none" stroke="none"/><path fill="white" stroke="#505050" paint-order="fill stroke markers" d=" M 401.7281127870083 243.8625030517578 L 459.7281127870083 243.8625030517578 L 459.7281127870083 281.8625030517578 L 401.7281127870083 281.8625030517578 L 409.7281127870083 262.8625030517578 L 401.7281127870083 243.8625030517578" stroke-miterlimit="10" stroke-width="0.5" stroke-dasharray="0"/><path fill="#F0F0F0" stroke="none" paint-order="stroke fill markers" d=" M 417.7281127870083 247.8625030517578 L 459.7281127870083 247.8625030517578 L 459.7281127870083 277.8625030517578 L 417.7281127870083 277.8625030517578 L 417.7281127870083 247.8625030517578 Z"/><path fill="none" stroke="#505050" paint-order="fill stroke markers" d=" M 417.7281127870083 247.8625030517578 L 459.7281127870083 247.8625030517578 L 459.7281127870083 277.8625030517578 L 417.7281127870083 277.8625030517578 L 417.7281127870083 247.8625030517578 Z" stroke-miterlimit="10" stroke-width="0.5" stroke-dasharray="0"/><text fill="#505050" stroke="none" font-family="monospace" font-size="14px" font-style="normal" font-weight="normal" text-decoration="normal" x="438.7281127870083" y="265.8625030517578" text-anchor="middle" dominant-baseline="text-after-edge">body</text><path fill="none" stroke="#505050" paint-order="fill stroke markers" d=" M 417.7281127870083 265.8625030517578 L 425.7281127870083 265.8625030517578 L 425.7281127870083 273.8625030517578 L 417.7281127870083 273.8625030517578 L 417.7281127870083 265.8625030517578 Z" stroke-miterlimit="10" stroke-width="0.5" stroke-dasharray="0"/><path fill="none" stroke="#505050" paint-order="fill stroke markers" d=" M 451.7281127870083 265.8625030517578 L 459.7281127870083 265.8625030517578 L 459.7281127870083 273.8625030517578 L 451.7281127870083 273.8625030517578 L 451.7281127870083 265.8625030517578 Z" stroke-miterlimit="10" stroke-width="0.5" stroke-dasharray="0"/><path fill="white" stroke="#505050" paint-order="fill stroke markers" d=" M 475.11871337890625 173.05313110351562 L 517.1187133789062 173.05313110351562 L 517.1187133789062 203.05313110351562 L 475.11871337890625 203.05313110351562 L 475.11871337890625 173.05313110351562 Z" stroke-miterlimit="10" stroke-width="0.5" stroke-dasharray="0"/><path fill="#F0F0F0" stroke="none" paint-order="stroke fill markers" d=""/><text fill="#505050" stroke="none" font-family="monospace" font-size="14px" font-style="normal" font-weight="normal" text-decoration="normal" x="496.11871337890625" y="191.05313110351562" text-anchor="middle" dominant-baseline="text-after-edge">body</text><path fill="none" stroke="#505050" paint-order="fill stroke markers" d=" M 475.11871337890625 191.05313110351562 L 483.11871337890625 191.05313110351562 L 483.11871337890625 199.05313110351562 L 475.11871337890625 199.05313110351562 L 475.11871337890625 191.05313110351562 Z" stroke-miterlimit="10" stroke-width="0.5" stroke-dasharray="0"/><path fill="none" stroke="#505050" paint-order="fill stroke markers" d=" M 509.11871337890625 191.05313110351562 L 517.1187133789062 191.05313110351562 L 517.1187133789062 199.05313110351562 L 509.11871337890625 199.05313110351562 L 509.11871337890625 191.05313110351562 Z" stroke-miterlimit="10" stroke-width="0.5" stroke-dasharray="0"/><path fill="white" stroke="#505050" paint-order="fill stroke markers" d=" M 351.9344116151333 152.1593780517578 L 383.9344116151333 152.1593780517578 L 383.9344116151333 170.1593780517578 L 351.9344116151333 170.1593780517578 L 359.9344116151333 161.1593780517578 L 351.9344116151333 152.1593780517578" stroke-miterlimit="10" stroke-width="0.5" stroke-dasharray="0"/><path fill="none" stroke="#505050" paint-order="fill stroke markers" d=" M 375.9344116151333 157.1593780517578 L 383.9344116151333 157.1593780517578 L 383.9344116151333 165.1593780517578 L 375.9344116151333 165.1593780517578 L 375.9344116151333 157.1593780517578 Z" stroke-miterlimit="10" stroke-width="0.5" stroke-dasharray="0"/><text fill="#505050" stroke="none" font-family="monospace" font-size="14px" font-style="normal" font-weight="normal" text-decoration="normal" x="367.9344116151333" y="170.1593780517578" text-anchor="end" dominant-baseline="text-after-edge">n</text><path fill="white" stroke="#505050" paint-order="fill stroke markers" d=" M 502.8030639588833 318.5124969482422 L 502.8030639588833 375.453125 Q 502.8030639588833 383.453125 510.8030639588833 383.453125 L 693.684350579977 383.453125 Q 701.684350579977 383.453125 701.684350579977 375.453125 L 701.684350579977 318.5124969482422 Q 701.684350579977 310.5124969482422 693.684350579977 310.5124969482422 L 510.8030639588833 310.5124969482422 Q 502.8030639588833 310.5124969482422 502.8030639588833 318.5124969482422" stroke-miterlimit="10" stroke-width="0.5" stroke-dasharray="0"/><path fill="#F0F0F0" stroke="#505050" paint-order="fill stroke markers" d=" M 661.684350579977 318.5124969482422 L 701.684350579977 318.5124969482422 L 701.684350579977 342.5124969482422 L 661.684350579977 342.5124969482422 L 661.684350579977 318.5124969482422 Z" stroke-miterlimit="10" stroke-width="0.5" stroke-dasharray="0"/><path fill="none" stroke="#505050" paint-order="fill stroke markers" d=" M 661.684350579977 322.5124969482422 L 685.684350579977 322.5124969482422 L 685.684350579977 338.5124969482422 L 661.684350579977 338.5124969482422 L 661.684350579977 322.5124969482422 Z" stroke-miterlimit="10" stroke-width="0.5" stroke-dasharray="0"/><path fill="none" stroke="#505050" paint-order="fill stroke markers" d=" M 661.684350579977 326.5124969482422 L 669.684350579977 326.5124969482422 L 669.684350579977 334.5124969482422 L 661.684350579977 334.5124969482422 L 661.684350579977 326.5124969482422 Z" stroke-miterlimit="10" stroke-width="0.5" stroke-dasharray="0"/><path fill="none" stroke="#505050" paint-order="fill stroke markers" d=" M 677.684350579977 326.5124969482422 L 685.684350579977 326.5124969482422 L 685.684350579977 334.5124969482422 L 677.684350579977 334.5124969482422 L 677.684350579977 326.5124969482422 Z" stroke-miterlimit="10" stroke-width="0.5" stroke-dasharray="0"/><path fill="none" stroke="#505050" paint-order="fill stroke markers" d=" M 693.684350579977 322.5124969482422 L 701.684350579977 322.5124969482422 L 701.684350579977 330.5124969482422 L 693.684350579977 330.5124969482422 L 693.684350579977 322.5124969482422 Z" stroke-miterlimit="10" stroke-width="0.5" stroke-dasharray="0"/><path fill="white" stroke="#505050" paint-order="fill stroke markers" d=" M 570.8343505859375 319.1781311035156 L 652.8343505859375 319.1781311035156 L 652.8343505859375 357.1781311035156 L 570.8343505859375 357.1781311035156 L 570.8343505859375 319.1781311035156 Z" stroke-miterlimit="10" stroke-width="0.5" stroke-dasharray="0"/><path fill="#F0F0F0" stroke="none" paint-order="stroke fill markers" d=""/><path fill="none" stroke="#505050" paint-order="fill stroke markers" d=" M 570.8343505859375 324.1781311035156 L 578.8343505859375 324.1781311035156 L 578.8343505859375 332.1781311035156 L 570.8343505859375 332.1781311035156 L 570.8343505859375 324.1781311035156 Z" stroke-miterlimit="10" stroke-width="0.5" stroke-dasharray="0"/><text fill="#505050" stroke="none" font-family="monospace" font-size="14px" font-style="normal" font-weight="normal" text-decoration="normal" x="586.8343505859375" y="337.1781311035156" text-anchor="start" dominant-baseline="text-after-edge">i</text><path fill="none" stroke="#505050" paint-order="fill stroke markers" d=" M 570.8343505859375 337.1781311035156 L 594.8343505859375 337.1781311035156 L 594.8343505859375 353.1781311035156 L 570.8343505859375 353.1781311035156 L 570.8343505859375 337.1781311035156 Z" stroke-miterlimit="10" stroke-width="0.5" stroke-dasharray="0"/><path fill="none" stroke="#505050" paint-order="fill stroke markers" d=" M 570.8343505859375 341.1781311035156 L 578.8343505859375 341.1781311035156 L 578.8343505859375 349.1781311035156 L 570.8343505859375 349.1781311035156 L 570.8343505859375 341.1781311035156 Z" stroke-miterlimit="10" stroke-width="0.5" stroke-dasharray="0"/><path fill="none" stroke="#505050" paint-order="fill stroke markers" d=" M 586.8343505859375 341.1781311035156 L 594.8343505859375 341.1781311035156 L 594.8343505859375 349.1781311035156 L 586.8343505859375 349.1781311035156 L 586.8343505859375 341.1781311035156 Z" stroke-miterlimit="10" stroke-width="0.5" stroke-dasharray="0"/><text fill="#505050" stroke="none" font-family="monospace" font-size="14px" font-style="normal" font-weight="normal" text-decoration="normal" x="602.8343505859375" y="354.1781311035156" text-anchor="start" dominant-baseline="text-after-edge">body</text><path fill="none" stroke="#505050" paint-order="fill stroke markers" d=" M 644.8343505859375 323.1781311035156 L 652.8343505859375 323.1781311035156 L 652.8343505859375 331.1781311035156 L 644.8343505859375 331.1781311035156 L 644.8343505859375 323.1781311035156 Z" stroke-miterlimit="10" stroke-width="0.5" stroke-dasharray="0"/><path fill="#e0e0e0" stroke="none" paint-order="stroke fill markers" d=" M 715.8812499940395 146.44061279296875 L 707.8812499940395 127.44061279296875 L 707.8812499940395 165.44061279296875 Z M 562.8343505859375 338.1781311035156 L 570.8343505859375 319.1781311035156 L 570.8343505859375 357.1781311035156 Z"/><path fill="none" stroke="none"/><path fill="none" stroke="#e0e0e0" paint-order="fill stroke markers" d=" M 715.8812499940395 146.44061279296875 C 789.4801402110047 146.44061279296875 489.2354603689723 338.1781311035156 562.8343505859375 338.1781311035156" stroke-miterlimit="10" stroke-width="2" stroke-dasharray="0"/><path fill="white" stroke="#505050" paint-order="fill stroke markers" d=" M 669.684350579977 319.4750061035156 L 677.684350579977 319.4750061035156 L 685.684350579977 327.4750061035156 L 677.684350579977 335.4750061035156 L 669.684350579977 335.4750061035156 L 669.684350579977 319.4750061035156" stroke-miterlimit="10" stroke-width="0.5" stroke-dasharray="0"/><path fill="none" stroke="#505050" paint-order="fill stroke markers" d=" M 669.684350579977 323.4750061035156 L 677.684350579977 323.4750061035156 L 677.684350579977 331.4750061035156 L 669.684350579977 331.4750061035156 L 669.684350579977 323.4750061035156 Z" stroke-miterlimit="10" stroke-width="0.5" stroke-dasharray="0"/><path fill="white" stroke="#505050" paint-order="fill stroke markers" d=" M 524.059350579977 351.453125 L 540.059350579977 351.453125 L 540.059350579977 367.453125 L 524.059350579977 367.453125 L 532.059350579977 359.453125 L 524.059350579977 351.453125" stroke-miterlimit="10" stroke-width="0.5" stroke-dasharray="0"/><path fill="none" stroke="#505050" paint-order="fill stroke markers" d=" M 532.059350579977 355.453125 L 540.059350579977 355.453125 L 540.059350579977 363.453125 L 532.059350579977 363.453125 L 532.059350579977 355.453125 Z" stroke-miterlimit="10" stroke-width="0.5" stroke-dasharray="0"/><path fill="white" stroke="#505050" paint-order="fill stroke markers" d=" M 510.8030639588833 318.5124969482422 L 542.8030639588833 318.5124969482422 L 542.8030639588833 336.5124969482422 L 510.8030639588833 336.5124969482422 L 510.8030639588833 318.5124969482422 Z" stroke-miterlimit="10" stroke-width="0.5" stroke-dasharray="0"/><path fill="#F0F0F0" stroke="none" paint-order="stroke fill markers" d=""/><path fill="none" stroke="#505050" paint-order="fill stroke markers" d=" M 534.8030639588833 323.5124969482422 L 542.8030639588833 323.5124969482422 L 542.8030639588833 331.5124969482422 L 534.8030639588833 331.5124969482422 L 534.8030639588833 323.5124969482422 Z" stroke-miterlimit="10" stroke-width="0.5" stroke-dasharray="0"/><text fill="#505050" stroke="none" font-family="monospace" font-size="14px" font-style="normal" font-weight="normal" text-decoration="normal" x="526.8030639588833" y="336.5124969482422" text-anchor="end" dominant-baseline="text-after-edge">0</text><path fill="white" stroke="#505050" paint-order="fill stroke markers" d=" M 740.546875 300.5343933105469 L 788.546875 300.5343933105469 L 788.546875 332.5343933105469 L 740.546875 332.5343933105469 L 740.546875 300.5343933105469 Z" stroke-miterlimit="10" stroke-width="0.5" stroke-dasharray="0"/><path fill="white" stroke="#505050" paint-order="fill stroke markers" d=" M 748.546875 304.5343933105469 L 788.546875 304.5343933105469 L 788.546875 328.5343933105469 L 748.546875 328.5343933105469 L 748.546875 304.5343933105469 Z" stroke-miterlimit="10" stroke-width="0.5" stroke-dasharray="0"/><path fill="#F0F0F0" stroke="none" paint-order="stroke fill markers" d=""/><path fill="none" stroke="#505050" paint-order="fill stroke markers" d=" M 748.546875 308.5343933105469 L 772.546875 308.5343933105469 L 772.546875 324.5343933105469 L 748.546875 324.5343933105469 L 748.546875 308.5343933105469 Z" stroke-miterlimit="10" stroke-width="0.5" stroke-dasharray="0"/><path fill="none" stroke="#505050" paint-order="fill stroke markers" d=" M 748.546875 312.5343933105469 L 756.546875 312.5343933105469 L 756.546875 320.5343933105469 L 748.546875 320.5343933105469 L 748.546875 312.5343933105469 Z" stroke-miterlimit="10" stroke-width="0.5" stroke-dasharray="0"/><path fill="none" stroke="#505050" paint-order="fill stroke markers" d=" M 764.546875 312.5343933105469 L 772.546875 312.5343933105469 L 772.546875 320.5343933105469 L 764.546875 320.5343933105469 L 764.546875 312.5343933105469 Z" stroke-miterlimit="10" stroke-width="0.5" stroke-dasharray="0"/><path fill="none" stroke="#505050" paint-order="fill stroke markers" d=" M 780.546875 308.5343933105469 L 788.546875 308.5343933105469 L 788.546875 316.5343933105469 L 780.546875 316.5343933105469 L 780.546875 308.5343933105469 Z" stroke-miterlimit="10" stroke-width="0.5" stroke-dasharray="0"/><path fill="white" stroke="#505050" paint-order="fill stroke markers" d=" M 472.5812736451626 26.57187271118164 L 472.5812736451626 77.7874870300293 Q 472.5812736451626 85.7874870300293 480.5812736451626 85.7874870300293 L 604.2500167787075 85.7874870300293 Q 612.2500167787075 85.7874870300293 612.2500167787075 77.7874870300293 L 612.2500167787075 26.57187271118164 Q 612.2500167787075 18.57187271118164 604.2500167787075 18.57187271118164 L 480.5812736451626 18.57187271118164 Q 472.5812736451626 18.57187271118164 472.5812736451626 26.57187271118164" stroke-miterlimit="10" stroke-width="0.5" stroke-dasharray="0"/><path fill="#F0F0F0" stroke="#505050" paint-order="fill stroke markers" d=" M 587.2500167787075 26.57187271118164 L 612.2500167787075 26.57187271118164 L 612.2500167787075 56.57187271118164 L 587.2500167787075 56.57187271118164 L 587.2500167787075 26.57187271118164 Z" stroke-miterlimit="10" stroke-width="0.5" stroke-dasharray="0"/><text fill="#505050" stroke="none" font-family="monospace" font-size="14px" font-style="normal" font-weight="normal" text-decoration="normal" x="599.7500167787075" y="44.57187271118164" text-anchor="middle" dominant-baseline="text-after-edge">+1</text><path fill="none" stroke="#505050" paint-order="fill stroke markers" d=" M 587.2500167787075 44.57187271118164 L 595.2500167787075 44.57187271118164 L 595.2500167787075 52.57187271118164 L 587.2500167787075 52.57187271118164 L 587.2500167787075 44.57187271118164 Z" stroke-miterlimit="10" stroke-width="0.5" stroke-dasharray="0"/><path fill="none" stroke="#505050" paint-order="fill stroke markers" d=" M 604.2500167787075 44.57187271118164 L 612.2500167787075 44.57187271118164 L 612.2500167787075 52.57187271118164 L 604.2500167787075 52.57187271118164 L 604.2500167787075 44.57187271118164 Z" stroke-miterlimit="10" stroke-width="0.5" stroke-dasharray="0"/><path fill="white" stroke="#505050" paint-order="fill stroke markers" d=" M 527.0781265199184 22.33749771118164 L 551.0781265199184 22.33749771118164 L 551.0781265199184 64.33749771118164 L 527.0781265199184 64.33749771118164 L 527.0781265199184 22.33749771118164 Z" stroke-miterlimit="10" stroke-width="0.5" stroke-dasharray="0"/><path fill="#F0F0F0" stroke="none" paint-order="stroke fill markers" d=""/><text fill="#505050" stroke="none" font-family="monospace" font-size="14px" font-style="normal" font-weight="normal" text-decoration="normal" x="539.0781265199184" y="40.33749771118164" text-anchor="middle" dominant-baseline="text-after-edge">+</text><path fill="none" stroke="#505050" paint-order="fill stroke markers" d=" M 527.0781265199184 40.33749771118164 L 535.0781265199184 40.33749771118164 L 535.0781265199184 48.33749771118164 L 527.0781265199184 48.33749771118164 L 527.0781265199184 40.33749771118164 Z" stroke-miterlimit="10" stroke-width="0.5" stroke-dasharray="0"/><path fill="none" stroke="#505050" paint-order="fill stroke markers" d=" M 527.0781265199184 52.33749771118164 L 535.0781265199184 52.33749771118164 L 535.0781265199184 60.33749771118164 L 527.0781265199184 60.33749771118164 L 527.0781265199184 52.33749771118164 Z" stroke-miterlimit="10" stroke-width="0.5" stroke-dasharray="0"/><path fill="none" stroke="#505050" paint-order="fill stroke markers" d=" M 543.0781265199184 40.33749771118164 L 551.0781265199184 40.33749771118164 L 551.0781265199184 48.33749771118164 L 543.0781265199184 48.33749771118164 L 543.0781265199184 40.33749771118164 Z" stroke-miterlimit="10" stroke-width="0.5" stroke-dasharray="0"/><path fill="white" stroke="#505050" paint-order="fill stroke markers" d=" M 480.5812736451626 51.7874870300293 L 512.5812736451626 51.7874870300293 L 512.5812736451626 69.7874870300293 L 480.5812736451626 69.7874870300293 L 480.5812736451626 51.7874870300293 Z" stroke-miterlimit="10" stroke-width="0.5" stroke-dasharray="0"/><path fill="#F0F0F0" stroke="none" paint-order="stroke fill markers" d=""/><path fill="none" stroke="#505050" paint-order="fill stroke markers" d=" M 504.5812736451626 56.7874870300293 L 512.5812736451626 56.7874870300293 L 512.5812736451626 64.7874870300293 L 504.5812736451626 64.7874870300293 L 504.5812736451626 56.7874870300293 Z" stroke-miterlimit="10" stroke-width="0.5" stroke-dasharray="0"/><text fill="#505050" stroke="none" font-family="monospace" font-size="14px" font-style="normal" font-weight="normal" text-decoration="normal" x="496.5812736451626" y="69.7874870300293" text-anchor="end" dominant-baseline="text-after-edge">0</text><path fill="white" stroke="#505050" paint-order="fill stroke markers" d=" M 482.2406402528286 34.671878814697266 L 498.2406402528286 34.671878814697266 L 498.2406402528286 50.671878814697266 L 482.2406402528286 50.671878814697266 L 490.2406402528286 42.671878814697266 L 482.2406402528286 34.671878814697266" stroke-miterlimit="10" stroke-width="0.5" stroke-dasharray="0"/><path fill="none" stroke="#505050" paint-order="fill stroke markers" d=" M 490.2406402528286 38.671878814697266 L 498.2406402528286 38.671878814697266 L 498.2406402528286 46.671878814697266 L 490.2406402528286 46.671878814697266 L 490.2406402528286 38.671878814697266 Z" stroke-miterlimit="10" stroke-width="0.5" stroke-dasharray="0"/><path fill="white" stroke="#505050" paint-order="fill stroke markers" d=" M 564.0156417787075 36.384342193603516 L 572.0156417787075 36.384342193603516 L 580.0156417787075 44.384342193603516 L 572.0156417787075 52.384342193603516 L 564.0156417787075 52.384342193603516 L 564.0156417787075 36.384342193603516" stroke-miterlimit="10" stroke-width="0.5" stroke-dasharray="0"/><path fill="none" stroke="#505050" paint-order="fill stroke markers" d=" M 564.0156417787075 40.384342193603516 L 572.0156417787075 40.384342193603516 L 572.0156417787075 48.384342193603516 L 564.0156417787075 48.384342193603516 L 564.0156417787075 40.384342193603516 Z" stroke-miterlimit="10" stroke-width="0.5" stroke-dasharray="0"/><path fill="white" stroke="#505050" paint-order="fill stroke markers" d=" M 906.8937377929688 137.34375 L 1020.8937377929688 137.34375 L 1020.8937377929688 169.34375 L 906.8937377929688 169.34375 L 906.8937377929688 137.34375 Z" stroke-miterlimit="10" stroke-width="0.5" stroke-dasharray="0"/><path fill="#F0F0F0" stroke="none" paint-order="stroke fill markers" d=" M 980.8937377929688 141.34375 L 1020.8937377929688 141.34375 L 1020.8937377929688 165.34375 L 980.8937377929688 165.34375 L 980.8937377929688 141.34375 Z"/><path fill="none" stroke="#505050" paint-order="fill stroke markers" d=" M 906.8937377929688 142.34375 L 914.8937377929688 142.34375 L 914.8937377929688 150.34375 L 906.8937377929688 150.34375 L 906.8937377929688 142.34375 Z" stroke-miterlimit="10" stroke-width="0.5" stroke-dasharray="0"/><text fill="#505050" stroke="none" font-family="monospace" font-size="14px" font-style="normal" font-weight="normal" text-decoration="normal" x="922.8937377929688" y="155.34375" text-anchor="start" dominant-baseline="text-after-edge">n</text><path fill="none" stroke="#505050" paint-order="fill stroke markers" d=" M 980.8937377929688 141.34375 L 1020.8937377929688 141.34375 L 1020.8937377929688 165.34375 L 980.8937377929688 165.34375 L 980.8937377929688 141.34375 Z" stroke-miterlimit="10" stroke-width="0.5" stroke-dasharray="0"/><path fill="none" stroke="#505050" paint-order="fill stroke markers" d=" M 980.8937377929688 145.34375 L 1004.8937377929688 145.34375 L 1004.8937377929688 161.34375 L 980.8937377929688 161.34375 L 980.8937377929688 145.34375 Z" stroke-miterlimit="10" stroke-width="0.5" stroke-dasharray="0"/><path fill="none" stroke="#505050" paint-order="fill stroke markers" d=" M 980.8937377929688 149.34375 L 988.8937377929688 149.34375 L 988.8937377929688 157.34375 L 980.8937377929688 157.34375 L 980.8937377929688 149.34375 Z" stroke-miterlimit="10" stroke-width="0.5" stroke-dasharray="0"/><path fill="none" stroke="#505050" paint-order="fill stroke markers" d=" M 996.8937377929688 149.34375 L 1004.8937377929688 149.34375 L 1004.8937377929688 157.34375 L 996.8937377929688 157.34375 L 996.8937377929688 149.34375 Z" stroke-miterlimit="10" stroke-width="0.5" stroke-dasharray="0"/><path fill="none" stroke="#505050" paint-order="fill stroke markers" d=" M 1012.8937377929688 145.34375 L 1020.8937377929688 145.34375 L 1020.8937377929688 153.34375 L 1012.8937377929688 153.34375 L 1012.8937377929688 145.34375 Z" stroke-miterlimit="10" stroke-width="0.5" stroke-dasharray="0"/><text fill="#505050" stroke="none" font-family="monospace" font-size="14px" font-style="normal" font-weight="normal" text-decoration="normal" x="972.8937377929688" y="162.34375" text-anchor="end" dominant-baseline="text-after-edge">iter</text><path fill="white" stroke="#505050" paint-order="fill stroke markers" d=" M 1040.7938232421875 198.3625030517578 L 1080.7938232421875 198.3625030517578 L 1080.7938232421875 222.3625030517578 L 1040.7938232421875 222.3625030517578 L 1040.7938232421875 198.3625030517578 Z" stroke-miterlimit="10" stroke-width="0.5" stroke-dasharray="0"/><path fill="#F0F0F0" stroke="none" paint-order="stroke fill markers" d=""/><path fill="none" stroke="#505050" paint-order="fill stroke markers" d=" M 1040.7938232421875 202.3625030517578 L 1064.7938232421875 202.3625030517578 L 1064.7938232421875 218.3625030517578 L 1040.7938232421875 218.3625030517578 L 1040.7938232421875 202.3625030517578 Z" stroke-miterlimit="10" stroke-width="0.5" stroke-dasharray="0"/><path fill="none" stroke="#505050" paint-order="fill stroke markers" d=" M 1040.7938232421875 206.3625030517578 L 1048.7938232421875 206.3625030517578 L 1048.7938232421875 214.3625030517578 L 1040.7938232421875 214.3625030517578 L 1040.7938232421875 206.3625030517578 Z" stroke-miterlimit="10" stroke-width="0.5" stroke-dasharray="0"/><path fill="none" stroke="#505050" paint-order="fill stroke markers" d=" M 1056.7938232421875 206.3625030517578 L 1064.7938232421875 206.3625030517578 L 1064.7938232421875 214.3625030517578 L 1056.7938232421875 214.3625030517578 L 1056.7938232421875 206.3625030517578 Z" stroke-miterlimit="10" stroke-width="0.5" stroke-dasharray="0"/><path fill="none" stroke="#505050" paint-order="fill stroke markers" d=" M 1072.7938232421875 202.3625030517578 L 1080.7938232421875 202.3625030517578 L 1080.7938232421875 210.3625030517578 L 1072.7938232421875 210.3625030517578 L 1072.7938232421875 202.3625030517578 Z" stroke-miterlimit="10" stroke-width="0.5" stroke-dasharray="0"/><path fill="none" stroke="#505050" paint-order="fill stroke markers" d=" M 383.9344116151333 161.1593780517578 C 407.2985961380159 161.1593780517578 438.42960209225066 159.34060668945312 461.7937866151333 159.34060668945312" stroke-miterlimit="10" stroke-dasharray="0"/><path fill="none" stroke="#505050" paint-order="fill stroke markers" d=" M 429.0125366151333 138.27813720703125 C 439.2157950859067 138.27813720703125 451.5905281443599 147.34060668945312 461.7937866151333 147.34060668945312" stroke-miterlimit="10" stroke-dasharray="0"/><path fill="none" stroke="#505050" paint-order="fill stroke markers" d=" M 429.0125366151333 138.27813720703125 C 460.0442596590644 138.27813720703125 440.26200253604594 232.6812286376953 471.29372557997704 232.6812286376953" stroke-miterlimit="10" stroke-dasharray="0"/><path fill="none" stroke="#505050" paint-order="fill stroke markers" d=" M 496.29372557997704 232.6812286376953 C 504.62955401551466 232.6812286376953 513.4360160409238 243.7687225341797 521.7718444764614 243.7687225341797" stroke-miterlimit="10" stroke-dasharray="0"/><path fill="none" stroke="#505050" paint-order="fill stroke markers" d=" M 485.7937866151333 147.34060668945312 C 498.8527438273626 147.34060668945312 515.8347134361071 153.4437599182129 528.8936706483364 153.4437599182129" stroke-miterlimit="10" stroke-dasharray="0"/><path fill="none" stroke="#505050" paint-order="fill stroke markers" d=" M 660.6780944764614 228.5749855041504 C 665.2392030356006 228.5749855041504 671.3201414349004 228.44688415527344 675.8812499940395 228.44688415527344" stroke-miterlimit="10" stroke-dasharray="0"/><path fill="none" stroke="#505050" paint-order="fill stroke markers" d=" M 552.8936706483364 153.4437599182129 C 586.6547098219612 153.4437599182129 602.9170553028366 228.5749855041504 636.6780944764614 228.5749855041504" stroke-miterlimit="10" stroke-dasharray="0"/><path fill="none" stroke="#505050" paint-order="fill stroke markers" d=" M 603.7718444764614 242.7687225341797 C 613.6656323966539 242.7687225341797 626.7843065562689 240.5749855041504 636.6780944764614 240.5749855041504" stroke-miterlimit="10" stroke-dasharray="0"/><path fill="none" stroke="#505050" paint-order="fill stroke markers" d=" M 459.7281127870083 262.8625030517578 C 478.35182805257165 262.8625030517578 503.14812921089805 260.7687225341797 521.7718444764614 260.7687225341797" stroke-miterlimit="10" stroke-dasharray="0"/><path fill="none" stroke="#505050" paint-order="fill stroke markers" d=" M 517.1187133789062 195.05313110351562 C 526.6781486792645 195.05313110351562 519.3342353479782 165.4437599182129 528.8936706483364 165.4437599182129" stroke-miterlimit="10" stroke-dasharray="0"/><path fill="none" stroke="#505050" paint-order="fill stroke markers" d=" M 429.0125366151333 138.27813720703125 C 450.9539620951387 138.27813720703125 453.17728789890083 195.05313110351562 475.11871337890625 195.05313110351562" stroke-miterlimit="10" stroke-dasharray="0"/><path fill="none" stroke="#505050" paint-order="fill stroke markers" d=" M 652.8343505859375 327.1781311035156 C 657.8901351057552 327.1781311035156 664.6285660601593 327.4750061035156 669.684350579977 327.4750061035156" stroke-miterlimit="10" stroke-dasharray="0"/><path fill="none" stroke="#505050" paint-order="fill stroke markers" d=" M 540.059350579977 359.453125 C 550.2367199281946 359.453125 560.65698123772 345.1781311035156 570.8343505859375 345.1781311035156" stroke-miterlimit="10" stroke-dasharray="0"/><path fill="none" stroke="#505050" paint-order="fill stroke markers" d=" M 542.8030639588833 327.5124969482422 C 551.2148205466423 327.5124969482422 562.4225939981785 328.1781311035156 570.8343505859375 328.1781311035156" stroke-miterlimit="10" stroke-dasharray="0"/><path fill="none" stroke="#505050" paint-order="fill stroke markers" d=" M 512.5812736451626 60.7874870300293 C 517.1306146236908 60.7874870300293 522.5287855413902 56.33749771118164 527.0781265199184 56.33749771118164" stroke-miterlimit="10" stroke-dasharray="0"/><path fill="none" stroke="#505050" paint-order="fill stroke markers" d=" M 498.2406402528286 42.671878814697266 C 506.9063047424199 42.671878814697266 518.4124620303272 44.33749771118164 527.0781265199184 44.33749771118164" stroke-miterlimit="10" stroke-dasharray="0"/><path fill="none" stroke="#505050" paint-order="fill stroke markers" d=" M 551.0781265199184 44.33749771118164 C 554.9594065398247 44.33749771118164 560.1343617588012 44.384342193603516 564.0156417787075 44.384342193603516" stroke-miterlimit="10" stroke-dasharray="0"/></g></g></svg>