<svg version="1.1" xmlns="http://www.w3.org/2000/svg" xmlns:xlink="http://www.w3.org/1999/xlink" width="859.2156256735325" height="431.0687561035156"><defs/><g transform="translate(-282.97501143813133,-9.556243896484375)"><g><path fill="white" stroke="#505050" paint-order="fill stroke markers" d=" M 283.97501143813133 23.378108978271484 L 283.97501143813133 74.59372329711914 Q 283.97501143813133 82.59372329711914 291.97501143813133 82.59372329711914 L 415.64375457167625 82.59372329711914 Q 423.64375457167625 82.59372329711914 423.64375457167625 74.59372329711914 L 423.64375457167625 23.378108978271484 Q 423.64375457167625 15.378108978271484 415.64375457167625 15.378108978271484 L 291.97501143813133 15.378108978271484 Q 283.97501143813133 15.378108978271484 283.97501143813133 23.378108978271484" stroke-miterlimit="10" stroke-width="0.5" stroke-dasharray=""/><path fill="#F0F0F0" stroke="#505050" paint-order="fill stroke markers" d=" M 398.64375457167625 23.378108978271484 L 423.64375457167625 23.378108978271484 L 423.64375457167625 53.378108978271484 L 398.64375457167625 53.378108978271484 L 398.64375457167625 23.378108978271484 Z" stroke-miterlimit="10" stroke-width="0.5" stroke-dasharray=""/><text fill="#505050" stroke="none" font-family="monospace" font-size="14px" font-style="normal" font-weight="normal" text-decoration="normal" x="411.14375457167625" y="41.378108978271484" text-anchor="middle" dominant-baseline="text-after-edge">+1</text><path fill="none" stroke="#505050" paint-order="fill stroke markers" d=" M 398.64375457167625 41.378108978271484 L 406.64375457167625 41.378108978271484 L 406.64375457167625 49.378108978271484 L 398.64375457167625 49.378108978271484 L 398.64375457167625 41.378108978271484 Z" stroke-miterlimit="10" stroke-width="0.5" stroke-dasharray=""/><path fill="none" stroke="#505050" paint-order="fill stroke markers" d=" M 415.64375457167625 41.378108978271484 L 423.64375457167625 41.378108978271484 L 423.64375457167625 49.378108978271484 L 415.64375457167625 49.378108978271484 L 415.64375457167625 41.378108978271484 Z" stroke-miterlimit="10" stroke-width="0.5" stroke-dasharray=""/><path fill="white" stroke="#505050" paint-order="fill stroke markers" d=" M 338.4718643128872 19.143733978271484 L 362.4718643128872 19.143733978271484 L 362.4718643128872 61.143733978271484 L 338.4718643128872 61.143733978271484 L 338.4718643128872 19.143733978271484 Z" stroke-miterlimit="10" stroke-width="0.5" stroke-dasharray=""/><path fill="#F0F0F0" stroke="none" paint-order="stroke fill markers" d=""/><text fill="#505050" stroke="none" font-family="monospace" font-size="14px" font-style="normal" font-weight="normal" text-decoration="normal" x="350.4718643128872" y="37.143733978271484" text-anchor="middle" dominant-baseline="text-after-edge">+</text><path fill="none" stroke="#505050" paint-order="fill stroke markers" d=" M 338.4718643128872 37.143733978271484 L 346.4718643128872 37.143733978271484 L 346.4718643128872 45.143733978271484 L 338.4718643128872 45.143733978271484 L 338.4718643128872 37.143733978271484 Z" stroke-miterlimit="10" stroke-width="0.5" stroke-dasharray=""/><path fill="none" stroke="#505050" paint-order="fill stroke markers" d=" M 338.4718643128872 49.143733978271484 L 346.4718643128872 49.143733978271484 L 346.4718643128872 57.143733978271484 L 338.4718643128872 57.143733978271484 L 338.4718643128872 49.143733978271484 Z" stroke-miterlimit="10" stroke-width="0.5" stroke-dasharray=""/><path fill="none" stroke="#505050" paint-order="fill stroke markers" d=" M 354.4718643128872 37.143733978271484 L 362.4718643128872 37.143733978271484 L 362.4718643128872 45.143733978271484 L 354.4718643128872 45.143733978271484 L 354.4718643128872 37.143733978271484 Z" stroke-miterlimit="10" stroke-width="0.5" stroke-dasharray=""/><path fill="white" stroke="#505050" paint-order="fill stroke markers" d=" M 291.97501143813133 48.59372329711914 L 323.97501143813133 48.59372329711914 L 323.97501143813133 66.59372329711914 L 291.97501143813133 66.59372329711914 L 291.97501143813133 48.59372329711914 Z" stroke-miterlimit="10" stroke-width="0.5" stroke-dasharray=""/><path fill="#F0F0F0" stroke="none" paint-order="stroke fill markers" d=""/><path fill="none" stroke="#505050" paint-order="fill stroke markers" d=" M 315.97501143813133 53.59372329711914 L 323.97501143813133 53.59372329711914 L 323.97501143813133 61.59372329711914 L 315.97501143813133 61.59372329711914 L 315.97501143813133 53.59372329711914 Z" stroke-miterlimit="10" stroke-width="0.5" stroke-dasharray=""/><text fill="#505050" stroke="none" font-family="monospace" font-size="14px" font-style="normal" font-weight="normal" text-decoration="normal" x="307.97501143813133" y="66.59372329711914" text-anchor="end" dominant-baseline="text-after-edge">1</text><path fill="white" stroke="#505050" paint-order="fill stroke markers" d=" M 297.5437408387661 25.206233978271484 L 313.5437408387661 25.206233978271484 L 313.5437408387661 41.206233978271484 L 297.5437408387661 41.206233978271484 L 305.5437408387661 33.206233978271484 L 297.5437408387661 25.206233978271484" stroke-miterlimit="10" stroke-width="0.5" stroke-dasharray=""/><path fill="none" stroke="#505050" paint-order="fill stroke markers" d=" M 305.5437408387661 29.206233978271484 L 313.5437408387661 29.206233978271484 L 313.5437408387661 37.206233978271484 L 305.5437408387661 37.206233978271484 L 305.5437408387661 29.206233978271484 Z" stroke-miterlimit="10" stroke-width="0.5" stroke-dasharray=""/><path fill="white" stroke="#505050" paint-order="fill stroke markers" d=" M 375.40937957167625 33.19057846069336 L 383.40937957167625 33.19057846069336 L 391.40937957167625 41.19057846069336 L 383.40937957167625 49.19057846069336 L 375.40937957167625 49.19057846069336 L 375.40937957167625 33.19057846069336" stroke-miterlimit="10" stroke-width="0.5" stroke-dasharray=""/><path fill="none" stroke="#505050" paint-order="fill stroke markers" d=" M 375.40937957167625 37.19057846069336 L 383.40937957167625 37.19057846069336 L 383.40937957167625 45.19057846069336 L 375.40937957167625 45.19057846069336 L 375.40937957167625 37.19057846069336 Z" stroke-miterlimit="10" stroke-width="0.5" stroke-dasharray=""/><path fill="white" stroke="#505050" paint-order="fill stroke markers" d=" M 300.25306472182274 124.42813873291016 L 300.25306472182274 154.42813873291016 Q 300.25306472182274 162.42813873291016 308.25306472182274 162.42813873291016 L 386.68117293715477 162.42813873291016 Q 394.68117293715477 162.42813873291016 394.68117293715477 154.42813873291016 L 394.68117293715477 124.42813873291016 Q 394.68117293715477 116.42813873291016 386.68117293715477 116.42813873291016 L 308.25306472182274 116.42813873291016 Q 300.25306472182274 116.42813873291016 300.25306472182274 124.42813873291016" stroke-miterlimit="10" stroke-width="0.5" stroke-dasharray=""/><path fill="#F0F0F0" stroke="#505050" paint-order="fill stroke markers" d=" M 352.68117293715477 124.42813873291016 L 394.68117293715477 124.42813873291016 L 394.68117293715477 154.42813873291016 L 352.68117293715477 154.42813873291016 L 352.68117293715477 124.42813873291016 Z" stroke-miterlimit="10" stroke-width="0.5" stroke-dasharray="6,3"/><text fill="#505050" stroke="none" font-family="monospace" font-size="14px" font-style="normal" font-weight="normal" text-decoration="normal" x="373.68117293715477" y="142.42813873291016" text-anchor="middle" dominant-baseline="text-after-edge">body</text><path fill="none" stroke="#505050" paint-order="fill stroke markers" d=" M 352.68117293715477 142.42813873291016 L 360.68117293715477 142.42813873291016 L 360.68117293715477 150.42813873291016 L 352.68117293715477 150.42813873291016 L 352.68117293715477 142.42813873291016 Z" stroke-miterlimit="10" stroke-width="0.5" stroke-dasharray="0"/><path fill="none" stroke="#505050" paint-order="fill stroke markers" d=" M 386.68117293715477 142.42813873291016 L 394.68117293715477 142.42813873291016 L 394.68117293715477 150.42813873291016 L 386.68117293715477 150.42813873291016 L 386.68117293715477 142.42813873291016 Z" stroke-miterlimit="10" stroke-width="0.5" stroke-dasharray="0"/><path fill="white" stroke="#505050" paint-order="fill stroke markers" d=" M 330.94681319594383 123.38749885559082 L 338.94681319594383 123.38749885559082 L 346.94681319594383 131.38749885559082 L 338.94681319594383 139.38749885559082 L 330.94681319594383 139.38749885559082 L 330.94681319594383 123.38749885559082" stroke-miterlimit="10" stroke-width="0.5" stroke-dasharray="0"/><path fill="none" stroke="#505050" paint-order="fill stroke markers" d=" M 330.94681319594383 127.38749885559082 L 338.94681319594383 127.38749885559082 L 338.94681319594383 135.38749885559082 L 330.94681319594383 135.38749885559082 L 330.94681319594383 127.38749885559082 Z" stroke-miterlimit="10" stroke-width="0.5" stroke-dasharray="0"/><path fill="white" stroke="#505050" paint-order="fill stroke markers" d=" M 303.9593139588833 123.44688415527344 L 319.9593139588833 123.44688415527344 L 319.9593139588833 139.44688415527344 L 303.9593139588833 139.44688415527344 L 311.9593139588833 131.44688415527344 L 303.9593139588833 123.44688415527344" stroke-miterlimit="10" stroke-width="0.5" stroke-dasharray="0"/><path fill="none" stroke="#505050" paint-order="fill stroke markers" d=" M 311.9593139588833 127.44688415527344 L 319.9593139588833 127.44688415527344 L 319.9593139588833 135.44688415527344 L 311.9593139588833 135.44688415527344 L 311.9593139588833 127.44688415527344 Z" stroke-miterlimit="10" stroke-width="0.5" stroke-dasharray="0"/><path fill="white" stroke="#505050" paint-order="fill stroke markers" d=" M 445.5938659608364 18.556243896484375 L 445.5938659608364 189.89686584472656 Q 445.5938659608364 197.89686584472656 453.5938659608364 197.89686584472656 L 1076.0220580995083 197.89686584472656 Q 1084.0220580995083 197.89686584472656 1084.0220580995083 189.89686584472656 L 1084.0220580995083 18.556243896484375 Q 1084.0220580995083 10.556243896484375 1076.0220580995083 10.556243896484375 L 453.5938659608364 10.556243896484375 Q 445.5938659608364 10.556243896484375 445.5938659608364 18.556243896484375" stroke-miterlimit="10" stroke-width="0.5" stroke-dasharray="0"/><path fill="#F0F0F0" stroke="#505050" paint-order="fill stroke markers" d=" M 968.0220580995083 18.556243896484375 L 1084.0220580995083 18.556243896484375 L 1084.0220580995083 58.556243896484375 L 968.0220580995083 58.556243896484375 L 968.0220580995083 18.556243896484375 Z" stroke-miterlimit="10" stroke-width="0.5" stroke-dasharray="0"/><path fill="none" stroke="#505050" paint-order="fill stroke markers" d=" M 968.0220580995083 22.556243896484375 L 992.0220580995083 22.556243896484375 L 992.0220580995083 38.556243896484375 L 968.0220580995083 38.556243896484375 L 968.0220580995083 22.556243896484375 Z" stroke-miterlimit="10" stroke-width="0.5" stroke-dasharray="0"/><path fill="none" stroke="#505050" paint-order="fill stroke markers" d=" M 968.0220580995083 26.556243896484375 L 976.0220580995083 26.556243896484375 L 976.0220580995083 34.556243896484375 L 968.0220580995083 34.556243896484375 L 968.0220580995083 26.556243896484375 Z" stroke-miterlimit="10" stroke-width="0.5" stroke-dasharray="0"/><path fill="none" stroke="#505050" paint-order="fill stroke markers" d=" M 984.0220580995083 26.556243896484375 L 992.0220580995083 26.556243896484375 L 992.0220580995083 34.556243896484375 L 984.0220580995083 34.556243896484375 L 984.0220580995083 26.556243896484375 Z" stroke-miterlimit="10" stroke-width="0.5" stroke-dasharray="0"/><text fill="#505050" stroke="none" font-family="monospace" font-size="14px" font-style="normal" font-weight="normal" text-decoration="normal" x="1000.0220580995083" y="39.556243896484375" text-anchor="start" dominant-baseline="text-after-edge">body</text><path fill="none" stroke="#505050" paint-order="fill stroke markers" d=" M 968.0220580995083 43.556243896484375 L 976.0220580995083 43.556243896484375 L 976.0220580995083 51.556243896484375 L 968.0220580995083 51.556243896484375 L 968.0220580995083 43.556243896484375 Z" stroke-miterlimit="10" stroke-width="0.5" stroke-dasharray="0"/><text fill="#505050" stroke="none" font-family="monospace" font-size="14px" font-style="normal" font-weight="normal" text-decoration="normal" x="984.0220580995083" y="56.556243896484375" text-anchor="start" dominant-baseline="text-after-edge">end</text><path fill="none" stroke="#505050" paint-order="fill stroke markers" d=" M 1042.0220580995083 22.556243896484375 L 1084.0220580995083 22.556243896484375 L 1084.0220580995083 54.556243896484375 L 1042.0220580995083 54.556243896484375 L 1042.0220580995083 22.556243896484375 Z" stroke-miterlimit="10" stroke-width="0.5" stroke-dasharray="0"/><text fill="#505050" stroke="none" font-family="monospace" font-size="14px" font-style="normal" font-weight="normal" text-decoration="normal" x="1063.0220580995083" y="40.556243896484375" text-anchor="middle" dominant-baseline="text-after-edge">iter</text><path fill="none" stroke="#505050" paint-order="fill stroke markers" d=" M 1042.0220580995083 41.556243896484375 L 1050.0220580995083 41.556243896484375 L 1050.0220580995083 49.556243896484375 L 1042.0220580995083 49.556243896484375 L 1042.0220580995083 41.556243896484375 Z" stroke-miterlimit="10" stroke-width="0.5" stroke-dasharray="0"/><text fill="#505050" stroke="none" font-family="monospace" font-size="14px" font-style="normal" font-weight="normal" text-decoration="normal" x="1058.0220580995083" y="54.556243896484375" text-anchor="start" dominant-baseline="text-after-edge">i</text><path fill="none" stroke="#505050" paint-order="fill stroke markers" d=" M 1076.0220580995083 40.556243896484375 L 1084.0220580995083 40.556243896484375 L 1084.0220580995083 48.556243896484375 L 1076.0220580995083 48.556243896484375 L 1076.0220580995083 40.556243896484375 Z" stroke-miterlimit="10" stroke-width="0.5" stroke-dasharray="0"/><path fill="white" stroke="#505050" paint-order="fill stroke markers" d=" M 529.3314147889614 30.603103637695312 L 529.3314147889614 173.89686584472656 Q 529.3314147889614 181.89686584472656 537.3314147889614 181.89686584472656 L 890.0187408328056 181.89686584472656 Q 898.0187408328056 181.89686584472656 898.0187408328056 173.89686584472656 L 898.0187408328056 30.603103637695312 Q 898.0187408328056 22.603103637695312 890.0187408328056 22.603103637695312 L 537.3314147889614 22.603103637695312 Q 529.3314147889614 22.603103637695312 529.3314147889614 30.603103637695312" stroke-miterlimit="10" stroke-width="0.5" stroke-dasharray="0"/><path fill="#F0F0F0" stroke="#505050" paint-order="fill stroke markers" d=" M 856.0187408328056 30.603103637695312 L 898.0187408328056 30.603103637695312 L 898.0187408328056 62.60310363769531 L 856.0187408328056 62.60310363769531 L 856.0187408328056 30.603103637695312 Z" stroke-miterlimit="10" stroke-width="0.5" stroke-dasharray="0"/><text fill="#505050" stroke="none" font-family="monospace" font-size="14px" font-style="normal" font-weight="normal" text-decoration="normal" x="877.0187408328056" y="48.60310363769531" text-anchor="middle" dominant-baseline="text-after-edge">iter</text><path fill="none" stroke="#505050" paint-order="fill stroke markers" d=" M 856.0187408328056 49.60310363769531 L 864.0187408328056 49.60310363769531 L 864.0187408328056 57.60310363769531 L 856.0187408328056 57.60310363769531 L 856.0187408328056 49.60310363769531 Z" stroke-miterlimit="10" stroke-width="0.5" stroke-dasharray="0"/><text fill="#505050" stroke="none" font-family="monospace" font-size="14px" font-style="normal" font-weight="normal" text-decoration="normal" x="872.0187408328056" y="62.60310363769531" text-anchor="start" dominant-baseline="text-after-edge">i</text><path fill="none" stroke="#505050" paint-order="fill stroke markers" d=" M 890.0187408328056 48.60310363769531 L 898.0187408328056 48.60310363769531 L 898.0187408328056 56.60310363769531 L 890.0187408328056 56.60310363769531 L 890.0187408328056 48.60310363769531 Z" stroke-miterlimit="10" stroke-width="0.5" stroke-dasharray="0"/><path fill="white" stroke="#505050" paint-order="fill stroke markers" d=" M 533.7689147889614 48.30310821533203 L 565.7689147889614 48.30310821533203 L 565.7689147889614 66.30310821533203 L 533.7689147889614 66.30310821533203 L 541.7689147889614 57.30310821533203 L 533.7689147889614 48.30310821533203" stroke-miterlimit="10" stroke-width="0.5" stroke-dasharray="0"/><path fill="none" stroke="#505050" paint-order="fill stroke markers" d=" M 557.7689147889614 53.30310821533203 L 565.7689147889614 53.30310821533203 L 565.7689147889614 61.30310821533203 L 557.7689147889614 61.30310821533203 L 557.7689147889614 53.30310821533203 Z" stroke-miterlimit="10" stroke-width="0.5" stroke-dasharray="0"/><text fill="#505050" stroke="none" font-family="monospace" font-size="14px" font-style="normal" font-weight="normal" text-decoration="normal" x="549.7689147889614" y="66.30310821533203" text-anchor="end" dominant-baseline="text-after-edge">i</text><path fill="white" stroke="#505050" paint-order="fill stroke markers" d=" M 684.3312560915947 118.72500610351562 L 726.3312560915947 118.72500610351562 L 726.3312560915947 150.72500610351562 L 684.3312560915947 150.72500610351562 L 684.3312560915947 118.72500610351562 Z" stroke-miterlimit="10" stroke-width="0.5" stroke-dasharray="0"/><path fill="#F0F0F0" stroke="none" paint-order="stroke fill markers" d=""/><text fill="#505050" stroke="none" font-family="monospace" font-size="14px" font-style="normal" font-weight="normal" text-decoration="normal" x="705.3312560915947" y="136.72500610351562" text-anchor="middle" dominant-baseline="text-after-edge">iter</text><path fill="none" stroke="#505050" paint-order="fill stroke markers" d=" M 684.3312560915947 137.72500610351562 L 692.3312560915947 137.72500610351562 L 692.3312560915947 145.72500610351562 L 684.3312560915947 145.72500610351562 L 684.3312560915947 137.72500610351562 Z" stroke-miterlimit="10" stroke-width="0.5" stroke-dasharray="0"/><text fill="#505050" stroke="none" font-family="monospace" font-size="14px" font-style="normal" font-weight="normal" text-decoration="normal" x="700.3312560915947" y="150.72500610351562" text-anchor="start" dominant-baseline="text-after-edge">i</text><path fill="none" stroke="#505050" paint-order="fill stroke markers" d=" M 718.3312560915947 136.72500610351562 L 726.3312560915947 136.72500610351562 L 726.3312560915947 144.72500610351562 L 718.3312560915947 144.72500610351562 L 718.3312560915947 136.72500610351562 Z" stroke-miterlimit="10" stroke-width="0.5" stroke-dasharray="0"/><path fill="#e0e0e0" stroke="none" paint-order="stroke fill markers" d=" M 906.0187408328056 46.60310363769531 L 898.0187408328056 30.603103637695312 L 898.0187408328056 62.60310363769531 Z M 676.3312560915947 134.72500610351562 L 684.3312560915947 118.72500610351562 L 684.3312560915947 150.72500610351562 Z"/><path fill="none" stroke="none"/><path fill="none" stroke="#e0e0e0" paint-order="fill stroke markers" d=" M 906.0187408328056 46.60310363769531 C 979.8222836385853 46.60310363769531 602.527713285815 134.72500610351562 676.3312560915947 134.72500610351562" stroke-miterlimit="10" stroke-width="2" stroke-dasharray="0"/><path fill="white" stroke="#505050" paint-order="fill stroke markers" d=" M 761.9126373231411 58.76249694824219 L 785.9126373231411 58.76249694824219 L 785.9126373231411 112.76249694824219 L 761.9126373231411 112.76249694824219 L 761.9126373231411 58.76249694824219 Z" stroke-miterlimit="10" stroke-width="0.5" stroke-dasharray="0"/><path fill="#F0F0F0" stroke="none" paint-order="stroke fill markers" d=""/><text fill="#505050" stroke="none" font-family="monospace" font-size="14px" font-style="normal" font-weight="normal" text-decoration="normal" x="773.9126373231411" y="76.76249694824219" text-anchor="middle" dominant-baseline="text-after-edge">?</text><path fill="none" stroke="#505050" paint-order="fill stroke markers" d=" M 761.9126373231411 76.76249694824219 L 769.9126373231411 76.76249694824219 L 769.9126373231411 84.76249694824219 L 761.9126373231411 84.76249694824219 L 761.9126373231411 76.76249694824219 Z" stroke-miterlimit="10" stroke-width="0.5" stroke-dasharray="0"/><path fill="none" stroke="#505050" paint-order="fill stroke markers" d=" M 761.9126373231411 88.76249694824219 L 769.9126373231411 88.76249694824219 L 769.9126373231411 96.76249694824219 L 761.9126373231411 96.76249694824219 L 761.9126373231411 88.76249694824219 Z" stroke-miterlimit="10" stroke-width="0.5" stroke-dasharray="0"/><path fill="none" stroke="#505050" paint-order="fill stroke markers" d=" M 761.9126373231411 100.76249694824219 L 769.9126373231411 100.76249694824219 L 769.9126373231411 108.76249694824219 L 761.9126373231411 108.76249694824219 L 761.9126373231411 100.76249694824219 Z" stroke-miterlimit="10" stroke-width="0.5" stroke-dasharray="0"/><path fill="none" stroke="#505050" paint-order="fill stroke markers" d=" M 777.9126373231411 76.76249694824219 L 785.9126373231411 76.76249694824219 L 785.9126373231411 84.76249694824219 L 777.9126373231411 84.76249694824219 L 777.9126373231411 76.76249694824219 Z" stroke-miterlimit="10" stroke-width="0.5" stroke-dasharray="0"/><path fill="white" stroke="#505050" paint-order="fill stroke markers" d=" M 799.6249420046806 72.62812662124634 L 807.6249420046806 72.62812662124634 L 815.6249420046806 80.62812662124634 L 807.6249420046806 88.62812662124634 L 799.6249420046806 88.62812662124634 L 799.6249420046806 72.62812662124634" stroke-miterlimit="10" stroke-width="0.5" stroke-dasharray="0"/><path fill="none" stroke="#505050" paint-order="fill stroke markers" d=" M 799.6249420046806 76.62812662124634 L 807.6249420046806 76.62812662124634 L 807.6249420046806 84.62812662124634 L 799.6249420046806 84.62812662124634 L 799.6249420046806 76.62812662124634 Z" stroke-miterlimit="10" stroke-width="0.5" stroke-dasharray="0"/><path fill="white" stroke="#505050" paint-order="fill stroke markers" d=" M 630.6437622010708 87.8843765258789 L 672.6437622010708 87.8843765258789 L 672.6437622010708 117.8843765258789 L 630.6437622010708 117.8843765258789 L 630.6437622010708 87.8843765258789 Z" stroke-miterlimit="10" stroke-width="0.5" stroke-dasharray="0"/><path fill="#F0F0F0" stroke="none" paint-order="stroke fill markers" d=""/><text fill="#505050" stroke="none" font-family="monospace" font-size="14px" font-style="normal" font-weight="normal" text-decoration="normal" x="651.6437622010708" y="105.8843765258789" text-anchor="middle" dominant-baseline="text-after-edge">body</text><path fill="none" stroke="#505050" paint-order="fill stroke markers" d=" M 630.6437622010708 105.8843765258789 L 638.6437622010708 105.8843765258789 L 638.6437622010708 113.8843765258789 L 630.6437622010708 113.8843765258789 L 630.6437622010708 105.8843765258789 Z" stroke-miterlimit="10" stroke-width="0.5" stroke-dasharray="0"/><path fill="none" stroke="#505050" paint-order="fill stroke markers" d=" M 664.6437622010708 105.8843765258789 L 672.6437622010708 105.8843765258789 L 672.6437622010708 113.8843765258789 L 664.6437622010708 113.8843765258789 L 664.6437622010708 105.8843765258789 Z" stroke-miterlimit="10" stroke-width="0.5" stroke-dasharray="0"/><path fill="#e0e0e0" stroke="none" paint-order="stroke fill markers" d=" M 522.6812805235386 78.98434448242188 L 514.6812805235386 63.984344482421875 L 514.6812805235386 93.98434448242188 Z M 622.6437622010708 102.8843765258789 L 630.6437622010708 87.8843765258789 L 630.6437622010708 117.8843765258789 Z"/><path fill="none" stroke="none"/><path fill="none" stroke="#e0e0e0" paint-order="fill stroke markers" d=" M 522.6812805235386 78.98434448242188 C 553.5152526116889 78.98434448242188 591.8097901129205 102.8843765258789 622.6437622010708 102.8843765258789" stroke-miterlimit="10" stroke-width="2" stroke-dasharray="0"/><path fill="white" stroke="#505050" paint-order="fill stroke markers" d=" M 718.7031646668911 44.05315399169922 L 743.7031646668911 44.05315399169922 L 743.7031646668911 86.05315399169922 L 718.7031646668911 86.05315399169922 L 718.7031646668911 44.05315399169922 Z" stroke-miterlimit="10" stroke-width="0.5" stroke-dasharray="0"/><path fill="#F0F0F0" stroke="none" paint-order="stroke fill markers" d=""/><text fill="#505050" stroke="none" font-family="monospace" font-size="14px" font-style="normal" font-weight="normal" text-decoration="normal" x="731.2031646668911" y="62.05315399169922" text-anchor="middle" dominant-baseline="text-after-edge">&amp;&amp;</text><path fill="none" stroke="#505050" paint-order="fill stroke markers" d=" M 718.7031646668911 62.05315399169922 L 726.7031646668911 62.05315399169922 L 726.7031646668911 70.05315399169922 L 718.7031646668911 70.05315399169922 L 718.7031646668911 62.05315399169922 Z" stroke-miterlimit="10" stroke-width="0.5" stroke-dasharray="0"/><path fill="none" stroke="#505050" paint-order="fill stroke markers" d=" M 718.7031646668911 74.05315399169922 L 726.7031646668911 74.05315399169922 L 726.7031646668911 82.05315399169922 L 718.7031646668911 82.05315399169922 L 718.7031646668911 74.05315399169922 Z" stroke-miterlimit="10" stroke-width="0.5" stroke-dasharray="0"/><path fill="none" stroke="#505050" paint-order="fill stroke markers" d=" M 735.7031646668911 62.05315399169922 L 743.7031646668911 62.05315399169922 L 743.7031646668911 70.05315399169922 L 735.7031646668911 70.05315399169922 L 735.7031646668911 62.05315399169922 Z" stroke-miterlimit="10" stroke-width="0.5" stroke-dasharray="0"/><path fill="white" stroke="#505050" paint-order="fill stroke markers" d=" M 645.6062988340855 27.06561279296875 L 669.6062988340855 27.06561279296875 L 669.6062988340855 69.06561279296875 L 645.6062988340855 69.06561279296875 L 645.6062988340855 27.06561279296875 Z" stroke-miterlimit="10" stroke-width="0.5" stroke-dasharray="0"/><path fill="#F0F0F0" stroke="none" paint-order="stroke fill markers" d=""/><text fill="#505050" stroke="none" font-family="monospace" font-size="14px" font-style="normal" font-weight="normal" text-decoration="normal" x="657.6062988340855" y="45.06561279296875" text-anchor="middle" dominant-baseline="text-after-edge">&lt;</text><path fill="none" stroke="#505050" paint-order="fill stroke markers" d=" M 645.6062988340855 45.06561279296875 L 653.6062988340855 45.06561279296875 L 653.6062988340855 53.06561279296875 L 645.6062988340855 53.06561279296875 L 645.6062988340855 45.06561279296875 Z" stroke-miterlimit="10" stroke-width="0.5" stroke-dasharray="0"/><path fill="none" stroke="#505050" paint-order="fill stroke markers" d=" M 645.6062988340855 57.06561279296875 L 653.6062988340855 57.06561279296875 L 653.6062988340855 65.06561279296875 L 645.6062988340855 65.06561279296875 L 645.6062988340855 57.06561279296875 Z" stroke-miterlimit="10" stroke-width="0.5" stroke-dasharray="0"/><path fill="none" stroke="#505050" paint-order="fill stroke markers" d=" M 661.6062988340855 45.06561279296875 L 669.6062988340855 45.06561279296875 L 669.6062988340855 53.06561279296875 L 661.6062988340855 53.06561279296875 L 661.6062988340855 45.06561279296875 Z" stroke-miterlimit="10" stroke-width="0.5" stroke-dasharray="0"/><path fill="white" stroke="#505050" paint-order="fill stroke markers" d=" M 617.831274420023 135.89686584472656 L 642.831274420023 135.89686584472656 L 642.831274420023 165.89686584472656 L 617.831274420023 165.89686584472656 L 617.831274420023 135.89686584472656 Z" stroke-miterlimit="10" stroke-width="0.5" stroke-dasharray="0"/><path fill="#F0F0F0" stroke="none" paint-order="stroke fill markers" d=""/><text fill="#505050" stroke="none" font-family="monospace" font-size="14px" font-style="normal" font-weight="normal" text-decoration="normal" x="630.331274420023" y="153.89686584472656" text-anchor="middle" dominant-baseline="text-after-edge">+1</text><path fill="none" stroke="#505050" paint-order="fill stroke markers" d=" M 617.831274420023 153.89686584472656 L 625.831274420023 153.89686584472656 L 625.831274420023 161.89686584472656 L 617.831274420023 161.89686584472656 L 617.831274420023 153.89686584472656 Z" stroke-miterlimit="10" stroke-width="0.5" stroke-dasharray="0"/><path fill="none" stroke="#505050" paint-order="fill stroke markers" d=" M 634.831274420023 153.89686584472656 L 642.831274420023 153.89686584472656 L 642.831274420023 161.89686584472656 L 634.831274420023 161.89686584472656 L 634.831274420023 153.89686584472656 Z" stroke-miterlimit="10" stroke-width="0.5" stroke-dasharray="0"/><path fill="white" stroke="#505050" paint-order="fill stroke markers" d=" M 921.5531188845634 38.15623092651367 L 929.5531188845634 38.15623092651367 L 937.5531188845634 46.15623092651367 L 929.5531188845634 54.15623092651367 L 921.5531188845634 54.15623092651367 L 921.5531188845634 38.15623092651367" stroke-miterlimit="10" stroke-width="0.5" stroke-dasharray="0"/><path fill="none" stroke="#505050" paint-order="fill stroke markers" d=" M 921.5531188845634 42.15623092651367 L 929.5531188845634 42.15623092651367 L 929.5531188845634 50.15623092651367 L 921.5531188845634 50.15623092651367 L 921.5531188845634 42.15623092651367 Z" stroke-miterlimit="10" stroke-width="0.5" stroke-dasharray="0"/><path fill="none" stroke="none"/><path fill="white" stroke="#505050" paint-order="fill stroke markers" d=" M 456.6812805235386 59.984344482421875 L 514.6812805235386 59.984344482421875 L 514.6812805235386 97.98434448242188 L 456.6812805235386 97.98434448242188 L 464.6812805235386 78.98434448242188 L 456.6812805235386 59.984344482421875" stroke-miterlimit="10" stroke-width="0.5" stroke-dasharray="6,3"/><path fill="#F0F0F0" stroke="none" paint-order="stroke fill markers" d=" M 472.6812805235386 63.984344482421875 L 514.6812805235386 63.984344482421875 L 514.6812805235386 93.98434448242188 L 472.6812805235386 93.98434448242188 L 472.6812805235386 63.984344482421875 Z"/><path fill="none" stroke="#505050" paint-order="fill stroke markers" d=" M 472.6812805235386 63.984344482421875 L 514.6812805235386 63.984344482421875 L 514.6812805235386 93.98434448242188 L 472.6812805235386 93.98434448242188 L 472.6812805235386 63.984344482421875 Z" stroke-miterlimit="10" stroke-width="0.5" stroke-dasharray="0"/><text fill="#505050" stroke="none" font-family="monospace" font-size="14px" font-style="normal" font-weight="normal" text-decoration="normal" x="493.6812805235386" y="81.98434448242188" text-anchor="middle" dominant-baseline="text-after-edge">body</text><path fill="none" stroke="#505050" paint-order="fill stroke markers" d=" M 472.6812805235386 81.98434448242188 L 480.6812805235386 81.98434448242188 L 480.6812805235386 89.98434448242188 L 472.6812805235386 89.98434448242188 L 472.6812805235386 81.98434448242188 Z" stroke-miterlimit="10" stroke-width="0.5" stroke-dasharray="0"/><path fill="none" stroke="#505050" paint-order="fill stroke markers" d=" M 506.6812805235386 81.98434448242188 L 514.6812805235386 81.98434448242188 L 514.6812805235386 89.98434448242188 L 506.6812805235386 89.98434448242188 L 506.6812805235386 81.98434448242188 Z" stroke-miterlimit="10" stroke-width="0.5" stroke-dasharray="0"/><path fill="white" stroke="#505050" paint-order="fill stroke markers" d=" M 472.6812805235386 63.984344482421875 L 514.6812805235386 63.984344482421875 L 514.6812805235386 93.98434448242188 L 472.6812805235386 93.98434448242188 L 472.6812805235386 63.984344482421875 Z" stroke-miterlimit="10" stroke-width="0.5" stroke-dasharray="6,3"/><path fill="#F0F0F0" stroke="none" paint-order="stroke fill markers" d=""/><text fill="#505050" stroke="none" font-family="monospace" font-size="14px" font-style="normal" font-weight="normal" text-decoration="normal" x="493.6812805235386" y="81.98434448242188" text-anchor="middle" dominant-baseline="text-after-edge">body</text><path fill="none" stroke="#505050" paint-order="fill stroke markers" d=" M 472.6812805235386 81.98434448242188 L 480.6812805235386 81.98434448242188 L 480.6812805235386 89.98434448242188 L 472.6812805235386 89.98434448242188 L 472.6812805235386 81.98434448242188 Z" stroke-miterlimit="10" stroke-width="0.5" stroke-dasharray="0"/><path fill="none" stroke="#505050" paint-order="fill stroke markers" d=" M 506.6812805235386 81.98434448242188 L 514.6812805235386 81.98434448242188 L 514.6812805235386 89.98434448242188 L 506.6812805235386 89.98434448242188 L 506.6812805235386 81.98434448242188 Z" stroke-miterlimit="10" stroke-width="0.5" stroke-dasharray="0"/><path fill="#e0e0e0" stroke="none" paint-order="stroke fill markers" d=" M 402.68117293715477 139.42813873291016 L 394.68117293715477 124.42813873291016 L 394.68117293715477 154.42813873291016 Z M 464.6812805235386 78.98434448242188 L 472.6812805235386 63.984344482421875 L 472.6812805235386 93.98434448242188 Z"/><path fill="none" stroke="none"/><path fill="none" stroke="#e0e0e0" paint-order="fill stroke markers" d=" M 402.68117293715477 139.42813873291016 C 428.6575449773506 139.42813873291016 438.70490848334276 78.98434448242188 464.6812805235386 78.98434448242188" stroke-miterlimit="10" stroke-width="2" stroke-dasharray="0"/><path fill="white" stroke="#505050" paint-order="fill stroke markers" d=" M 467.04058799147606 108.44064331054688 L 516.0405879914761 108.44064331054688 L 516.0405879914761 126.44064331054688 L 467.04058799147606 126.44064331054688 L 475.04058799147606 117.44064331054688 L 467.04058799147606 108.44064331054688" stroke-miterlimit="10" stroke-width="0.5" stroke-dasharray="0"/><path fill="none" stroke="#505050" paint-order="fill stroke markers" d=" M 508.04058799147606 113.44064331054688 L 516.0405879914761 113.44064331054688 L 516.0405879914761 121.44064331054688 L 508.04058799147606 121.44064331054688 L 508.04058799147606 113.44064331054688 Z" stroke-miterlimit="10" stroke-width="0.5" stroke-dasharray="0"/><text fill="#505050" stroke="none" font-family="monospace" font-size="14px" font-style="normal" font-weight="normal" text-decoration="normal" x="500.04058799147606" y="126.44064331054688" text-anchor="end" dominant-baseline="text-after-edge">end</text><path fill="white" stroke="#505050" paint-order="fill stroke markers" d=" M 717.3500244021416 314.2250556945801 L 717.3500244021416 431.625 Q 717.3500244021416 439.625 725.3500244021416 439.625 L 1133.1906371116638 439.625 Q 1141.1906371116638 439.625 1141.1906371116638 431.625 L 1141.1906371116638 314.2250556945801 Q 1141.1906371116638 306.2250556945801 1133.1906371116638 306.2250556945801 L 725.3500244021416 306.2250556945801 Q 717.3500244021416 306.2250556945801 717.3500244021416 314.2250556945801" stroke-miterlimit="10" stroke-width="0.5" stroke-dasharray="0"/><path fill="#F0F0F0" stroke="#505050" paint-order="fill stroke markers" d=" M 1116.1906371116638 314.2250556945801 L 1141.1906371116638 314.2250556945801 L 1141.1906371116638 344.2250556945801 L 1116.1906371116638 344.2250556945801 L 1116.1906371116638 314.2250556945801 Z" stroke-miterlimit="10" stroke-width="0.5" stroke-dasharray="0"/><text fill="#505050" stroke="none" font-family="monospace" font-size="14px" font-style="normal" font-weight="normal" text-decoration="normal" x="1128.6906371116638" y="332.2250556945801" text-anchor="middle" dominant-baseline="text-after-edge">n!</text><path fill="none" stroke="#505050" paint-order="fill stroke markers" d=" M 1116.1906371116638 332.2250556945801 L 1124.1906371116638 332.2250556945801 L 1124.1906371116638 340.2250556945801 L 1116.1906371116638 340.2250556945801 L 1116.1906371116638 332.2250556945801 Z" stroke-miterlimit="10" stroke-width="0.5" stroke-dasharray="0"/><path fill="none" stroke="#505050" paint-order="fill stroke markers" d=" M 1133.1906371116638 332.2250556945801 L 1141.1906371116638 332.2250556945801 L 1141.1906371116638 340.2250556945801 L 1133.1906371116638 340.2250556945801 L 1133.1906371116638 332.2250556945801 Z" stroke-miterlimit="10" stroke-width="0.5" stroke-dasharray="0"/><path fill="white" stroke="#505050" paint-order="fill stroke markers" d=" M 891.2125121951103 357.3750305175781 L 923.2125121951103 357.3750305175781 L 923.2125121951103 375.3750305175781 L 891.2125121951103 375.3750305175781 L 891.2125121951103 357.3750305175781 Z" stroke-miterlimit="10" stroke-width="0.5" stroke-dasharray="0"/><path fill="#F0F0F0" stroke="none" paint-order="stroke fill markers" d=""/><path fill="none" stroke="#505050" paint-order="fill stroke markers" d=" M 915.2125121951103 362.3750305175781 L 923.2125121951103 362.3750305175781 L 923.2125121951103 370.3750305175781 L 915.2125121951103 370.3750305175781 L 915.2125121951103 362.3750305175781 Z" stroke-miterlimit="10" stroke-width="0.5" stroke-dasharray="0"/><text fill="#505050" stroke="none" font-family="monospace" font-size="14px" font-style="normal" font-weight="normal" text-decoration="normal" x="907.2125121951103" y="375.3750305175781" text-anchor="end" dominant-baseline="text-after-edge">1</text><path fill="white" stroke="#505050" paint-order="fill stroke markers" d=" M 722.9469482302666 319.2718811035156 L 722.9469482302666 415.625 Q 722.9469482302666 423.625 730.9469482302666 423.625 L 873.4875518679619 423.625 Q 881.4875518679619 423.625 881.4875518679619 415.625 L 881.4875518679619 319.2718811035156 Q 881.4875518679619 311.2718811035156 873.4875518679619 311.2718811035156 L 730.9469482302666 311.2718811035156 Q 722.9469482302666 311.2718811035156 722.9469482302666 319.2718811035156" stroke-miterlimit="10" stroke-width="0.5" stroke-dasharray="0"/><path fill="#F0F0F0" stroke="#505050" paint-order="fill stroke markers" d=" M 857.4875518679619 319.2718811035156 L 881.4875518679619 319.2718811035156 L 881.4875518679619 335.2718811035156 L 857.4875518679619 335.2718811035156 L 857.4875518679619 319.2718811035156 Z" stroke-miterlimit="10" stroke-width="0.5" stroke-dasharray="0"/><path fill="none" stroke="#505050" paint-order="fill stroke markers" d=" M 857.4875518679619 323.2718811035156 L 865.4875518679619 323.2718811035156 L 865.4875518679619 331.2718811035156 L 857.4875518679619 331.2718811035156 L 857.4875518679619 323.2718811035156 Z" stroke-miterlimit="10" stroke-width="0.5" stroke-dasharray="0"/><path fill="none" stroke="#505050" paint-order="fill stroke markers" d=" M 873.4875518679619 323.2718811035156 L 881.4875518679619 323.2718811035156 L 881.4875518679619 331.2718811035156 L 873.4875518679619 331.2718811035156 L 873.4875518679619 323.2718811035156 Z" stroke-miterlimit="10" stroke-width="0.5" stroke-dasharray="0"/><path fill="white" stroke="#505050" paint-order="fill stroke markers" d=" M 805.9906951785088 380.203125 L 829.9906951785088 380.203125 L 829.9906951785088 396.203125 L 805.9906951785088 396.203125 L 805.9906951785088 380.203125 Z" stroke-miterlimit="10" stroke-width="0.5" stroke-dasharray="0"/><path fill="#F0F0F0" stroke="none" paint-order="stroke fill markers" d=""/><path fill="none" stroke="#505050" paint-order="fill stroke markers" d=" M 805.9906951785088 384.203125 L 813.9906951785088 384.203125 L 813.9906951785088 392.203125 L 805.9906951785088 392.203125 L 805.9906951785088 384.203125 Z" stroke-miterlimit="10" stroke-width="0.5" stroke-dasharray="0"/><path fill="none" stroke="#505050" paint-order="fill stroke markers" d=" M 821.9906951785088 384.203125 L 829.9906951785088 384.203125 L 829.9906951785088 392.203125 L 821.9906951785088 392.203125 L 821.9906951785088 384.203125 Z" stroke-miterlimit="10" stroke-width="0.5" stroke-dasharray="0"/><path fill="#e0e0e0" stroke="none" paint-order="stroke fill markers" d=" M 771.9469482302666 385.87811279296875 L 763.9469482302666 377.87811279296875 L 763.9469482302666 393.87811279296875 Z M 797.9906951785088 388.203125 L 805.9906951785088 380.203125 L 805.9906951785088 396.203125 Z"/><path fill="none" stroke="none"/><path fill="none" stroke="#e0e0e0" paint-order="fill stroke markers" d=" M 771.9469482302666 385.87811279296875 C 779.7911447677089 385.87811279296875 790.1464986410664 388.203125 797.9906951785088 388.203125" stroke-miterlimit="10" stroke-width="2" stroke-dasharray="0"/><path fill="white" stroke="#505050" paint-order="fill stroke markers" d=" M 776.56570738554 322.984375 L 800.56570738554 322.984375 L 800.56570738554 364.984375 L 776.56570738554 364.984375 L 776.56570738554 322.984375 Z" stroke-miterlimit="10" stroke-width="0.5" stroke-dasharray="0"/><path fill="#F0F0F0" stroke="none" paint-order="stroke fill markers" d=""/><text fill="#505050" stroke="none" font-family="monospace" font-size="14px" font-style="normal" font-weight="normal" text-decoration="normal" x="788.56570738554" y="340.984375" text-anchor="middle" dominant-baseline="text-after-edge">*</text><path fill="none" stroke="#505050" paint-order="fill stroke markers" d=" M 776.56570738554 340.984375 L 784.56570738554 340.984375 L 784.56570738554 348.984375 L 776.56570738554 348.984375 L 776.56570738554 340.984375 Z" stroke-miterlimit="10" stroke-width="0.5" stroke-dasharray="0"/><path fill="none" stroke="#505050" paint-order="fill stroke markers" d=" M 776.56570738554 352.984375 L 784.56570738554 352.984375 L 784.56570738554 360.984375 L 776.56570738554 360.984375 L 776.56570738554 352.984375 Z" stroke-miterlimit="10" stroke-width="0.5" stroke-dasharray="0"/><path fill="none" stroke="#505050" paint-order="fill stroke markers" d=" M 792.56570738554 340.984375 L 800.56570738554 340.984375 L 800.56570738554 348.984375 L 792.56570738554 348.984375 L 792.56570738554 340.984375 Z" stroke-miterlimit="10" stroke-width="0.5" stroke-dasharray="0"/><path fill="white" stroke="#505050" paint-order="fill stroke markers" d=" M 824.8344299197197 337.3000183105469 L 832.8344299197197 337.3000183105469 L 840.8344299197197 345.3000183105469 L 832.8344299197197 353.3000183105469 L 824.8344299197197 353.3000183105469 L 824.8344299197197 337.3000183105469" stroke-miterlimit="10" stroke-width="0.5" stroke-dasharray="0"/><path fill="none" stroke="#505050" paint-order="fill stroke markers" d=" M 824.8344299197197 341.3000183105469 L 832.8344299197197 341.3000183105469 L 832.8344299197197 349.3000183105469 L 824.8344299197197 349.3000183105469 L 824.8344299197197 341.3000183105469 Z" stroke-miterlimit="10" stroke-width="0.5" stroke-dasharray="0"/><path fill="white" stroke="#505050" paint-order="fill stroke markers" d=" M 730.9469482302666 347.87811279296875 L 763.9469482302666 347.87811279296875 L 763.9469482302666 397.87811279296875 L 730.9469482302666 397.87811279296875 L 730.9469482302666 347.87811279296875 Z" stroke-miterlimit="10" stroke-width="0.5" stroke-dasharray="0"/><path fill="#F0F0F0" stroke="none" paint-order="stroke fill markers" d=" M 739.9469482302666 377.87811279296875 L 763.9469482302666 377.87811279296875 L 763.9469482302666 393.87811279296875 L 739.9469482302666 393.87811279296875 L 739.9469482302666 377.87811279296875 Z"/><text fill="#505050" stroke="none" font-family="monospace" font-size="14px" font-style="normal" font-weight="normal" text-decoration="normal" x="747.4469482302666" y="365.87811279296875" text-anchor="middle" dominant-baseline="text-after-edge">var</text><path fill="none" stroke="#505050" paint-order="fill stroke markers" d=" M 755.9469482302666 365.87811279296875 L 763.9469482302666 365.87811279296875 L 763.9469482302666 373.87811279296875 L 755.9469482302666 373.87811279296875 L 755.9469482302666 365.87811279296875 Z" stroke-miterlimit="10" stroke-width="0.5" stroke-dasharray="0"/><path fill="none" stroke="#505050" paint-order="fill stroke markers" d=" M 739.9469482302666 377.87811279296875 L 763.9469482302666 377.87811279296875 L 763.9469482302666 393.87811279296875 L 739.9469482302666 393.87811279296875 L 739.9469482302666 377.87811279296875 Z" stroke-miterlimit="10" stroke-width="0.5" stroke-dasharray="0"/><path fill="none" stroke="#505050" paint-order="fill stroke markers" d=" M 739.9469482302666 381.87811279296875 L 747.9469482302666 381.87811279296875 L 747.9469482302666 389.87811279296875 L 739.9469482302666 389.87811279296875 L 739.9469482302666 381.87811279296875 Z" stroke-miterlimit="10" stroke-width="0.5" stroke-dasharray="0"/><path fill="none" stroke="#505050" paint-order="fill stroke markers" d=" M 755.9469482302666 381.87811279296875 L 763.9469482302666 381.87811279296875 L 763.9469482302666 389.87811279296875 L 755.9469482302666 389.87811279296875 L 755.9469482302666 381.87811279296875 Z" stroke-miterlimit="10" stroke-width="0.5" stroke-dasharray="0"/><path fill="white" stroke="#505050" paint-order="fill stroke markers" d=" M 730.9906799197197 317.99688720703125 L 746.9906799197197 317.99688720703125 L 746.9906799197197 333.99688720703125 L 730.9906799197197 333.99688720703125 L 738.9906799197197 325.99688720703125 L 730.9906799197197 317.99688720703125" stroke-miterlimit="10" stroke-width="0.5" stroke-dasharray="0"/><path fill="none" stroke="#505050" paint-order="fill stroke markers" d=" M 738.9906799197197 321.99688720703125 L 746.9906799197197 321.99688720703125 L 746.9906799197197 329.99688720703125 L 738.9906799197197 329.99688720703125 L 738.9906799197197 321.99688720703125 Z" stroke-miterlimit="10" stroke-width="0.5" stroke-dasharray="0"/><path fill="white" stroke="#505050" paint-order="fill stroke markers" d=" M 841.4875518679619 387.625 L 841.4875518679619 399.625 Q 841.4875518679619 407.625 849.4875518679619 407.625 L 857.4875518679619 407.625 Q 865.4875518679619 407.625 865.4875518679619 399.625 L 865.4875518679619 387.625 Q 865.4875518679619 379.625 857.4875518679619 379.625 L 849.4875518679619 379.625 Q 841.4875518679619 379.625 841.4875518679619 387.625" stroke-miterlimit="10" stroke-width="0.5" stroke-dasharray="0"/><path fill="none" stroke="#505050" paint-order="fill stroke markers" d=" M 841.4875518679619 383.625 L 849.4875518679619 383.625 L 849.4875518679619 391.625 L 841.4875518679619 391.625 L 841.4875518679619 383.625 Z" stroke-miterlimit="10" stroke-width="0.5" stroke-dasharray="0"/><path fill="none" stroke="#505050" paint-order="fill stroke markers" d=" M 841.4875518679619 395.625 L 849.4875518679619 395.625 L 849.4875518679619 403.625 L 841.4875518679619 403.625 L 841.4875518679619 395.625 Z" stroke-miterlimit="10" stroke-width="0.5" stroke-dasharray="0"/><path fill="none" stroke="#505050" paint-order="fill stroke markers" d=" M 857.4875518679619 383.625 L 865.4875518679619 383.625 L 865.4875518679619 391.625 L 857.4875518679619 391.625 L 857.4875518679619 383.625 Z" stroke-miterlimit="10" stroke-width="0.5" stroke-dasharray="0"/><path fill="white" stroke="#505050" paint-order="fill stroke markers" d=" M 948.5249876976013 329.5687561035156 L 1064.5249876976013 329.5687561035156 L 1064.5249876976013 369.5687561035156 L 948.5249876976013 369.5687561035156 L 948.5249876976013 329.5687561035156 Z" stroke-miterlimit="10" stroke-width="0.5" stroke-dasharray="0"/><path fill="#F0F0F0" stroke="none" paint-order="stroke fill markers" d=" M 1022.5249876976013 333.5687561035156 L 1064.5249876976013 333.5687561035156 L 1064.5249876976013 365.5687561035156 L 1022.5249876976013 365.5687561035156 L 1022.5249876976013 333.5687561035156 Z"/><path fill="none" stroke="#505050" paint-order="fill stroke markers" d=" M 948.5249876976013 333.5687561035156 L 972.5249876976013 333.5687561035156 L 972.5249876976013 349.5687561035156 L 948.5249876976013 349.5687561035156 L 948.5249876976013 333.5687561035156 Z" stroke-miterlimit="10" stroke-width="0.5" stroke-dasharray="0"/><path fill="none" stroke="#505050" paint-order="fill stroke markers" d=" M 948.5249876976013 337.5687561035156 L 956.5249876976013 337.5687561035156 L 956.5249876976013 345.5687561035156 L 948.5249876976013 345.5687561035156 L 948.5249876976013 337.5687561035156 Z" stroke-miterlimit="10" stroke-width="0.5" stroke-dasharray="0"/><path fill="none" stroke="#505050" paint-order="fill stroke markers" d=" M 964.5249876976013 337.5687561035156 L 972.5249876976013 337.5687561035156 L 972.5249876976013 345.5687561035156 L 964.5249876976013 345.5687561035156 L 964.5249876976013 337.5687561035156 Z" stroke-miterlimit="10" stroke-width="0.5" stroke-dasharray="0"/><text fill="#505050" stroke="none" font-family="monospace" font-size="14px" font-style="normal" font-weight="normal" text-decoration="normal" x="980.5249876976013" y="350.5687561035156" text-anchor="start" dominant-baseline="text-after-edge">body</text><path fill="none" stroke="#505050" paint-order="fill stroke markers" d=" M 948.5249876976013 354.5687561035156 L 956.5249876976013 354.5687561035156 L 956.5249876976013 362.5687561035156 L 948.5249876976013 362.5687561035156 L 948.5249876976013 354.5687561035156 Z" stroke-miterlimit="10" stroke-width="0.5" stroke-dasharray="0"/><text fill="#505050" stroke="none" font-family="monospace" font-size="14px" font-style="normal" font-weight="normal" text-decoration="normal" x="964.5249876976013" y="367.5687561035156" text-anchor="start" dominant-baseline="text-after-edge">end</text><path fill="none" stroke="#505050" paint-order="fill stroke markers" d=" M 1022.5249876976013 333.5687561035156 L 1064.5249876976013 333.5687561035156 L 1064.5249876976013 365.5687561035156 L 1022.5249876976013 365.5687561035156 L 1022.5249876976013 333.5687561035156 Z" stroke-miterlimit="10" stroke-width="0.5" stroke-dasharray="0"/><text fill="#505050" stroke="none" font-family="monospace" font-size="14px" font-style="normal" font-weight="normal" text-decoration="normal" x="1043.5249876976013" y="351.5687561035156" text-anchor="middle" dominant-baseline="text-after-edge">iter</text><path fill="none" stroke="#505050" paint-order="fill stroke markers" d=" M 1022.5249876976013 352.5687561035156 L 1030.5249876976013 352.5687561035156 L 1030.5249876976013 360.5687561035156 L 1022.5249876976013 360.5687561035156 L 1022.5249876976013 352.5687561035156 Z" stroke-miterlimit="10" stroke-width="0.5" stroke-dasharray="0"/><text fill="#505050" stroke="none" font-family="monospace" font-size="14px" font-style="normal" font-weight="normal" text-decoration="normal" x="1038.5249876976013" y="365.5687561035156" text-anchor="start" dominant-baseline="text-after-edge">i</text><path fill="none" stroke="#505050" paint-order="fill stroke markers" d=" M 1056.5249876976013 351.5687561035156 L 1064.5249876976013 351.5687561035156 L 1064.5249876976013 359.5687561035156 L 1056.5249876976013 359.5687561035156 L 1056.5249876976013 351.5687561035156 Z" stroke-miterlimit="10" stroke-width="0.5" stroke-dasharray="0"/><path fill="#e0e0e0" stroke="none" paint-order="stroke fill markers" d=" M 1092.0220580995083 38.556243896484375 L 1084.0220580995083 18.556243896484375 L 1084.0220580995083 58.556243896484375 Z M 940.5249876976013 349.5687561035156 L 948.5249876976013 329.5687561035156 L 948.5249876976013 369.5687561035156 Z"/><path fill="none" stroke="none"/><path fill="none" stroke="#e0e0e0" paint-order="fill stroke markers" d=" M 1092.0220580995083 38.556243896484375 C 1195.8065128992134 38.556243896484375 836.7405328978963 349.5687561035156 940.5249876976013 349.5687561035156" stroke-miterlimit="10" stroke-width="2" stroke-dasharray="0"/><path fill="white" stroke="#505050" paint-order="fill stroke markers" d=" M 996.7593626976013 387.34375 L 1038.7593626976013 387.34375 L 1038.7593626976013 419.34375 L 996.7593626976013 419.34375 L 996.7593626976013 387.34375 Z" stroke-miterlimit="10" stroke-width="0.5" stroke-dasharray="0"/><path fill="#F0F0F0" stroke="none" paint-order="stroke fill markers" d=""/><text fill="#505050" stroke="none" font-family="monospace" font-size="14px" font-style="normal" font-weight="normal" text-decoration="normal" x="1017.7593626976013" y="405.34375" text-anchor="middle" dominant-baseline="text-after-edge">iter</text><path fill="none" stroke="#505050" paint-order="fill stroke markers" d=" M 996.7593626976013 406.34375 L 1004.7593626976013 406.34375 L 1004.7593626976013 414.34375 L 996.7593626976013 414.34375 L 996.7593626976013 406.34375 Z" stroke-miterlimit="10" stroke-width="0.5" stroke-dasharray="0"/><text fill="#505050" stroke="none" font-family="monospace" font-size="14px" font-style="normal" font-weight="normal" text-decoration="normal" x="1012.7593626976013" y="419.34375" text-anchor="start" dominant-baseline="text-after-edge">i</text><path fill="none" stroke="#505050" paint-order="fill stroke markers" d=" M 1030.7593626976013 405.34375 L 1038.7593626976013 405.34375 L 1038.7593626976013 413.34375 L 1030.7593626976013 413.34375 L 1030.7593626976013 405.34375 Z" stroke-miterlimit="10" stroke-width="0.5" stroke-dasharray="0"/><path fill="#e0e0e0" stroke="none" paint-order="stroke fill markers" d=" M 1072.5249876976013 349.5687561035156 L 1064.5249876976013 333.5687561035156 L 1064.5249876976013 365.5687561035156 Z M 988.7593626976013 403.34375 L 996.7593626976013 387.34375 L 996.7593626976013 419.34375 Z"/><path fill="none" stroke="none"/><path fill="none" stroke="#e0e0e0" paint-order="fill stroke markers" d=" M 1072.5249876976013 349.5687561035156 C 1102.387316659333 349.5687561035156 958.8970337358696 403.34375 988.7593626976013 403.34375" stroke-miterlimit="10" stroke-width="2" stroke-dasharray="0"/><path fill="white" stroke="#505050" paint-order="fill stroke markers" d=" M 964.7593626976013 402.34375 L 980.7593626976013 402.34375 L 980.7593626976013 418.34375 L 964.7593626976013 418.34375 L 972.7593626976013 410.34375 L 964.7593626976013 402.34375" stroke-miterlimit="10" stroke-width="0.5" stroke-dasharray="0"/><path fill="none" stroke="#505050" paint-order="fill stroke markers" d=" M 972.7593626976013 406.34375 L 980.7593626976013 406.34375 L 980.7593626976013 414.34375 L 972.7593626976013 414.34375 L 972.7593626976013 406.34375 Z" stroke-miterlimit="10" stroke-width="0.5" stroke-dasharray="0"/><path fill="white" stroke="#505050" paint-order="fill stroke markers" d=" M 1086.7593626976013 401.34375 L 1094.7593626976013 401.34375 L 1102.7593626976013 409.34375 L 1094.7593626976013 417.34375 L 1086.7593626976013 417.34375 L 1086.7593626976013 401.34375" stroke-miterlimit="10" stroke-width="0.5" stroke-dasharray="0"/><path fill="none" stroke="#505050" paint-order="fill stroke markers" d=" M 1086.7593626976013 405.34375 L 1094.7593626976013 405.34375 L 1094.7593626976013 413.34375 L 1086.7593626976013 413.34375 L 1086.7593626976013 405.34375 Z" stroke-miterlimit="10" stroke-width="0.5" stroke-dasharray="0"/><path fill="white" stroke="#505050" paint-order="fill stroke markers" d=" M 536.3438598513603 235.45626831054688 L 536.3438598513603 331.80938720703125 Q 536.3438598513603 339.80938720703125 544.3438598513603 339.80938720703125 L 686.8844634890556 339.80938720703125 Q 694.8844634890556 339.80938720703125 694.8844634890556 331.80938720703125 L 694.8844634890556 235.45626831054688 Q 694.8844634890556 227.45626831054688 686.8844634890556 227.45626831054688 L 544.3438598513603 227.45626831054688 Q 536.3438598513603 227.45626831054688 536.3438598513603 235.45626831054688" stroke-miterlimit="10" stroke-width="0.5" stroke-dasharray="0"/><path fill="#F0F0F0" stroke="#505050" paint-order="fill stroke markers" d=" M 670.8844634890556 235.45626831054688 L 694.8844634890556 235.45626831054688 L 694.8844634890556 251.45626831054688 L 670.8844634890556 251.45626831054688 L 670.8844634890556 235.45626831054688 Z" stroke-miterlimit="10" stroke-width="0.5" stroke-dasharray="0"/><path fill="none" stroke="#505050" paint-order="fill stroke markers" d=" M 670.8844634890556 239.45626831054688 L 678.8844634890556 239.45626831054688 L 678.8844634890556 247.45626831054688 L 670.8844634890556 247.45626831054688 L 670.8844634890556 239.45626831054688 Z" stroke-miterlimit="10" stroke-width="0.5" stroke-dasharray="0"/><path fill="none" stroke="#505050" paint-order="fill stroke markers" d=" M 686.8844634890556 239.45626831054688 L 694.8844634890556 239.45626831054688 L 694.8844634890556 247.45626831054688 L 686.8844634890556 247.45626831054688 L 686.8844634890556 239.45626831054688 Z" stroke-miterlimit="10" stroke-width="0.5" stroke-dasharray="0"/><path fill="white" stroke="#505050" paint-order="fill stroke markers" d=" M 619.3876067996025 296.38751220703125 L 643.3876067996025 296.38751220703125 L 643.3876067996025 312.38751220703125 L 619.3876067996025 312.38751220703125 L 619.3876067996025 296.38751220703125 Z" stroke-miterlimit="10" stroke-width="0.5" stroke-dasharray="0"/><path fill="#F0F0F0" stroke="none" paint-order="stroke fill markers" d=""/><path fill="none" stroke="#505050" paint-order="fill stroke markers" d=" M 619.3876067996025 300.38751220703125 L 627.3876067996025 300.38751220703125 L 627.3876067996025 308.38751220703125 L 619.3876067996025 308.38751220703125 L 619.3876067996025 300.38751220703125 Z" stroke-miterlimit="10" stroke-width="0.5" stroke-dasharray="0"/><path fill="none" stroke="#505050" paint-order="fill stroke markers" d=" M 635.3876067996025 300.38751220703125 L 643.3876067996025 300.38751220703125 L 643.3876067996025 308.38751220703125 L 635.3876067996025 308.38751220703125 L 635.3876067996025 300.38751220703125 Z" stroke-miterlimit="10" stroke-width="0.5" stroke-dasharray="0"/><path fill="#e0e0e0" stroke="none" paint-order="stroke fill markers" d=" M 585.3438598513603 302.0625 L 577.3438598513603 294.0625 L 577.3438598513603 310.0625 Z M 611.3876067996025 304.38751220703125 L 619.3876067996025 296.38751220703125 L 619.3876067996025 312.38751220703125 Z"/><path fill="none" stroke="none"/><path fill="none" stroke="#e0e0e0" paint-order="fill stroke markers" d=" M 585.3438598513603 302.0625 C 593.1880563888027 302.0625 603.5434102621601 304.38751220703125 611.3876067996025 304.38751220703125" stroke-miterlimit="10" stroke-width="2" stroke-dasharray="0"/><path fill="white" stroke="#505050" paint-order="fill stroke markers" d=" M 589.9626190066338 239.16876220703125 L 613.9626190066338 239.16876220703125 L 613.9626190066338 281.16876220703125 L 589.9626190066338 281.16876220703125 L 589.9626190066338 239.16876220703125 Z" stroke-miterlimit="10" stroke-width="0.5" stroke-dasharray="0"/><path fill="#F0F0F0" stroke="none" paint-order="stroke fill markers" d=""/><text fill="#505050" stroke="none" font-family="monospace" font-size="14px" font-style="normal" font-weight="normal" text-decoration="normal" x="601.9626190066338" y="257.16876220703125" text-anchor="middle" dominant-baseline="text-after-edge">*</text><path fill="none" stroke="#505050" paint-order="fill stroke markers" d=" M 589.9626190066338 257.16876220703125 L 597.9626190066338 257.16876220703125 L 597.9626190066338 265.16876220703125 L 589.9626190066338 265.16876220703125 L 589.9626190066338 257.16876220703125 Z" stroke-miterlimit="10" stroke-width="0.5" stroke-dasharray="0"/><path fill="none" stroke="#505050" paint-order="fill stroke markers" d=" M 589.9626190066338 269.16876220703125 L 597.9626190066338 269.16876220703125 L 597.9626190066338 277.16876220703125 L 589.9626190066338 277.16876220703125 L 589.9626190066338 269.16876220703125 Z" stroke-miterlimit="10" stroke-width="0.5" stroke-dasharray="0"/><path fill="none" stroke="#505050" paint-order="fill stroke markers" d=" M 605.9626190066338 257.16876220703125 L 613.9626190066338 257.16876220703125 L 613.9626190066338 265.16876220703125 L 605.9626190066338 265.16876220703125 L 605.9626190066338 257.16876220703125 Z" stroke-miterlimit="10" stroke-width="0.5" stroke-dasharray="0"/><path fill="white" stroke="#505050" paint-order="fill stroke markers" d=" M 638.2313415408134 253.48440551757812 L 646.2313415408134 253.48440551757812 L 654.2313415408134 261.4844055175781 L 646.2313415408134 269.4844055175781 L 638.2313415408134 269.4844055175781 L 638.2313415408134 253.48440551757812" stroke-miterlimit="10" stroke-width="0.5" stroke-dasharray="0"/><path fill="none" stroke="#505050" paint-order="fill stroke markers" d=" M 638.2313415408134 257.4844055175781 L 646.2313415408134 257.4844055175781 L 646.2313415408134 265.4844055175781 L 638.2313415408134 265.4844055175781 L 638.2313415408134 257.4844055175781 Z" stroke-miterlimit="10" stroke-width="0.5" stroke-dasharray="0"/><path fill="white" stroke="#505050" paint-order="fill stroke markers" d=" M 544.3438598513603 264.0625 L 577.3438598513603 264.0625 L 577.3438598513603 314.0625 L 544.3438598513603 314.0625 L 544.3438598513603 264.0625 Z" stroke-miterlimit="10" stroke-width="0.5" stroke-dasharray="0"/><path fill="#F0F0F0" stroke="none" paint-order="stroke fill markers" d=" M 553.3438598513603 294.0625 L 577.3438598513603 294.0625 L 577.3438598513603 310.0625 L 553.3438598513603 310.0625 L 553.3438598513603 294.0625 Z"/><text fill="#505050" stroke="none" font-family="monospace" font-size="14px" font-style="normal" font-weight="normal" text-decoration="normal" x="560.8438598513603" y="282.0625" text-anchor="middle" dominant-baseline="text-after-edge">var</text><path fill="none" stroke="#505050" paint-order="fill stroke markers" d=" M 569.3438598513603 282.0625 L 577.3438598513603 282.0625 L 577.3438598513603 290.0625 L 569.3438598513603 290.0625 L 569.3438598513603 282.0625 Z" stroke-miterlimit="10" stroke-width="0.5" stroke-dasharray="0"/><path fill="none" stroke="#505050" paint-order="fill stroke markers" d=" M 553.3438598513603 294.0625 L 577.3438598513603 294.0625 L 577.3438598513603 310.0625 L 553.3438598513603 310.0625 L 553.3438598513603 294.0625 Z" stroke-miterlimit="10" stroke-width="0.5" stroke-dasharray="0"/><path fill="none" stroke="#505050" paint-order="fill stroke markers" d=" M 553.3438598513603 298.0625 L 561.3438598513603 298.0625 L 561.3438598513603 306.0625 L 553.3438598513603 306.0625 L 553.3438598513603 298.0625 Z" stroke-miterlimit="10" stroke-width="0.5" stroke-dasharray="0"/><path fill="none" stroke="#505050" paint-order="fill stroke markers" d=" M 569.3438598513603 298.0625 L 577.3438598513603 298.0625 L 577.3438598513603 306.0625 L 569.3438598513603 306.0625 L 569.3438598513603 298.0625 Z" stroke-miterlimit="10" stroke-width="0.5" stroke-dasharray="0"/><path fill="white" stroke="#505050" paint-order="fill stroke markers" d=" M 544.3875915408134 234.1812744140625 L 560.3875915408134 234.1812744140625 L 560.3875915408134 250.1812744140625 L 544.3875915408134 250.1812744140625 L 552.3875915408134 242.1812744140625 L 544.3875915408134 234.1812744140625" stroke-miterlimit="10" stroke-width="0.5" stroke-dasharray="0"/><path fill="none" stroke="#505050" paint-order="fill stroke markers" d=" M 552.3875915408134 238.1812744140625 L 560.3875915408134 238.1812744140625 L 560.3875915408134 246.1812744140625 L 552.3875915408134 246.1812744140625 L 552.3875915408134 238.1812744140625 Z" stroke-miterlimit="10" stroke-width="0.5" stroke-dasharray="0"/><path fill="white" stroke="#505050" paint-order="fill stroke markers" d=" M 654.8844634890556 303.80938720703125 L 654.8844634890556 315.80938720703125 Q 654.8844634890556 323.80938720703125 662.8844634890556 323.80938720703125 L 670.8844634890556 323.80938720703125 Q 678.8844634890556 323.80938720703125 678.8844634890556 315.80938720703125 L 678.8844634890556 303.80938720703125 Q 678.8844634890556 295.80938720703125 670.8844634890556 295.80938720703125 L 662.8844634890556 295.80938720703125 Q 654.8844634890556 295.80938720703125 654.8844634890556 303.80938720703125" stroke-miterlimit="10" stroke-width="0.5" stroke-dasharray="0"/><path fill="none" stroke="#505050" paint-order="fill stroke markers" d=" M 654.8844634890556 299.80938720703125 L 662.8844634890556 299.80938720703125 L 662.8844634890556 307.80938720703125 L 654.8844634890556 307.80938720703125 L 654.8844634890556 299.80938720703125 Z" stroke-miterlimit="10" stroke-width="0.5" stroke-dasharray="0"/><path fill="none" stroke="#505050" paint-order="fill stroke markers" d=" M 654.8844634890556 311.80938720703125 L 662.8844634890556 311.80938720703125 L 662.8844634890556 319.80938720703125 L 654.8844634890556 319.80938720703125 L 654.8844634890556 311.80938720703125 Z" stroke-miterlimit="10" stroke-width="0.5" stroke-dasharray="0"/><path fill="none" stroke="#505050" paint-order="fill stroke markers" d=" M 670.8844634890556 299.80938720703125 L 678.8844634890556 299.80938720703125 L 678.8844634890556 307.80938720703125 L 670.8844634890556 307.80938720703125 L 670.8844634890556 299.80938720703125 Z" stroke-miterlimit="10" stroke-width="0.5" stroke-dasharray="0"/><path fill="none" stroke="#505050" paint-order="fill stroke markers" d=" M 323.97501143813133 57.59372329711914 C 328.5243524166595 57.59372329711914 333.922523334359 53.143733978271484 338.4718643128872 53.143733978271484" stroke-miterlimit="10" stroke-dasharray="0"/><path fill="none" stroke="#505050" paint-order="fill stroke markers" d=" M 313.5437408387661 33.206233978271484 C 321.3921401760318 33.206233978271484 330.6234649756215 41.143733978271484 338.4718643128872 41.143733978271484" stroke-miterlimit="10" stroke-dasharray="0"/><path fill="none" stroke="#505050" paint-order="fill stroke markers" d=" M 362.4718643128872 41.143733978271484 C 366.35314433279353 41.143733978271484 371.5280995517699 41.19057846069336 375.40937957167625 41.19057846069336" stroke-miterlimit="10" stroke-dasharray="0"/><path fill="none" stroke="#505050" paint-order="fill stroke markers" d=" M 898.0187408328056 46.60310363769531 C 905.0803269220122 46.60310363769531 914.4915327953569 46.15623092651367 921.5531188845634 46.15623092651367" stroke-miterlimit="10" stroke-dasharray="0"/><path fill="none" stroke="#505050" paint-order="fill stroke markers" d=" M 516.0405879914761 117.44064331054688 C 558.4302987038739 117.44064331054688 603.2165881216877 61.06561279296875 645.6062988340855 61.06561279296875" stroke-miterlimit="10" stroke-dasharray="0"/><path fill="none" stroke="#505050" paint-order="fill stroke markers" d=" M 743.7031646668911 66.05315399169922 C 750.7256620728623 66.05315399169922 754.8901399171699 80.76249694824219 761.9126373231411 80.76249694824219" stroke-miterlimit="10" stroke-dasharray="0"/><path fill="none" stroke="#505050" paint-order="fill stroke markers" d=" M 565.7689147889614 57.30310821533203 C 589.8472822581273 57.30310821533203 621.5279313649196 49.06561279296875 645.6062988340855 49.06561279296875" stroke-miterlimit="10" stroke-dasharray="0"/><path fill="none" stroke="#505050" paint-order="fill stroke markers" d=" M 669.6062988340855 49.06561279296875 C 685.1920965728115 49.06561279296875 703.1173669281651 66.05315399169922 718.7031646668911 66.05315399169922" stroke-miterlimit="10" stroke-dasharray="0"/><path fill="none" stroke="#505050" paint-order="fill stroke markers" d=" M 565.7689147889614 57.30310821533203 C 599.7492532627315 57.30310821533203 583.8509359462529 157.89686584472656 617.831274420023 157.89686584472656" stroke-miterlimit="10" stroke-dasharray="0"/><path fill="none" stroke="#505050" paint-order="fill stroke markers" d=" M 642.831274420023 157.89686584472656 C 656.1931596672745 157.89686584472656 670.9693708443432 141.72500610351562 684.3312560915947 141.72500610351562" stroke-miterlimit="10" stroke-dasharray="0"/><path fill="none" stroke="#505050" paint-order="fill stroke markers" d=" M 726.3312560915947 140.72500610351562 C 744.2471520427686 140.72500610351562 743.9967413719672 92.76249694824219 761.9126373231411 92.76249694824219" stroke-miterlimit="10" stroke-dasharray="0"/><path fill="none" stroke="#505050" paint-order="fill stroke markers" d=" M 785.9126373231411 80.76249694824219 C 790.026526232163 80.76249694824219 795.5110530956588 80.62812662124634 799.6249420046806 80.62812662124634" stroke-miterlimit="10" stroke-dasharray="0"/><path fill="none" stroke="#505050" paint-order="fill stroke markers" d=" M 565.7689147889614 57.30310821533203 C 626.3100397550702 57.30310821533203 701.3715123570323 104.76249694824219 761.9126373231411 104.76249694824219" stroke-miterlimit="10" stroke-dasharray="0"/><path fill="none" stroke="#505050" paint-order="fill stroke markers" d=" M 672.6437622010708 109.8843765258789 C 689.4402670612374 109.8843765258789 701.9066598067245 78.05315399169922 718.7031646668911 78.05315399169922" stroke-miterlimit="10" stroke-dasharray="0"/><path fill="none" stroke="#505050" paint-order="fill stroke markers" d=" M 565.7689147889614 57.30310821533203 C 590.8212241505776 57.30310821533203 605.5914528394546 109.8843765258789 630.6437622010708 109.8843765258789" stroke-miterlimit="10" stroke-dasharray="0"/><path fill="none" stroke="#505050" paint-order="fill stroke markers" d=" M 881.4875518679619 327.2718811035156 C 902.0510549587311 327.2718811035156 927.9614846068321 341.5687561035156 948.5249876976013 341.5687561035156" stroke-miterlimit="10" stroke-dasharray="0"/><path fill="none" stroke="#505050" paint-order="fill stroke markers" d=" M 923.2125121951103 366.3750305175781 C 931.1591681123039 366.3750305175781 940.5783317804078 358.5687561035156 948.5249876976013 358.5687561035156" stroke-miterlimit="10" stroke-dasharray="0"/><path fill="none" stroke="#505050" paint-order="fill stroke markers" d=" M 980.7593626976013 410.34375 C 985.5593626976013 410.34375 991.9593626976014 410.34375 996.7593626976013 410.34375" stroke-miterlimit="10" stroke-dasharray="0"/><path fill="none" stroke="#505050" paint-order="fill stroke markers" d=" M 1038.7593626976013 409.34375 C 1053.1593626976014 409.34375 1072.3593626976012 409.34375 1086.7593626976013 409.34375" stroke-miterlimit="10" stroke-dasharray="0"/><path fill="none" stroke="#505050" paint-order="fill stroke markers" d=" M 800.56570738554 344.984375 C 807.8469399166878 344.984375 817.5531973885719 345.3000183105469 824.8344299197197 345.3000183105469" stroke-miterlimit="10" stroke-dasharray="0"/><path fill="none" stroke="#505050" paint-order="fill stroke markers" d=" M 763.9469482302666 369.87811279296875 C 769.3592804558729 369.87811279296875 771.1533751599337 356.984375 776.56570738554 356.984375" stroke-miterlimit="10" stroke-dasharray="0"/><path fill="none" stroke="#505050" paint-order="fill stroke markers" d=" M 746.9906799197197 325.99688720703125 C 757.5343332147733 325.99688720703125 766.0220540904864 344.984375 776.56570738554 344.984375" stroke-miterlimit="10" stroke-dasharray="0"/><path fill="none" stroke="#505050" paint-order="fill stroke markers" d=" M 800.56570738554 344.984375 C 813.6330780457176 344.984375 792.9233245183311 388.203125 805.9906951785088 388.203125" stroke-miterlimit="10" stroke-dasharray="0"/><path fill="none" stroke="#505050" paint-order="fill stroke markers" d=" M 829.9906951785088 388.203125 C 833.4441101264712 388.203125 838.0341369199995 387.625 841.4875518679619 387.625" stroke-miterlimit="10" stroke-dasharray="0"/><path fill="none" stroke="#505050" paint-order="fill stroke markers" d=" M 613.9626190066338 261.16876220703125 C 621.2438515377816 261.16876220703125 630.9501090096657 261.4844055175781 638.2313415408134 261.4844055175781" stroke-miterlimit="10" stroke-dasharray="0"/><path fill="none" stroke="#505050" paint-order="fill stroke markers" d=" M 577.3438598513603 286.0625 C 582.7561920769666 286.0625 584.5502867810275 273.16876220703125 589.9626190066338 273.16876220703125" stroke-miterlimit="10" stroke-dasharray="0"/><path fill="none" stroke="#505050" paint-order="fill stroke markers" d=" M 560.3875915408134 242.1812744140625 C 570.931244835867 242.1812744140625 579.4189657115802 261.16876220703125 589.9626190066338 261.16876220703125" stroke-miterlimit="10" stroke-dasharray="0"/><path fill="none" stroke="#505050" paint-order="fill stroke markers" d=" M 613.9626190066338 261.16876220703125 C 627.0299896668114 261.16876220703125 606.3202361394249 304.38751220703125 619.3876067996025 304.38751220703125" stroke-miterlimit="10" stroke-dasharray="0"/><path fill="none" stroke="#505050" paint-order="fill stroke markers" d=" M 643.3876067996025 304.38751220703125 C 646.8410217475649 304.38751220703125 651.4310485410932 303.80938720703125 654.8844634890556 303.80938720703125" stroke-miterlimit="10" stroke-dasharray="0"/></g></g></svg>