<svg version="1.1" xmlns="http://www.w3.org/2000/svg" xmlns:xlink="http://www.w3.org/1999/xlink" width="802.047046661377" height="491.1968688964844"><defs/><g transform="translate(-282.97501143813133,-9.556243896484375)"><g><path fill="white" stroke="#505050" paint-order="fill stroke markers" d=" M 283.97501143813133 23.378108978271484 L 283.97501143813133 74.59372329711914 Q 283.97501143813133 82.59372329711914 291.97501143813133 82.59372329711914 L 415.64375457167625 82.59372329711914 Q 423.64375457167625 82.59372329711914 423.64375457167625 74.59372329711914 L 423.64375457167625 23.378108978271484 Q 423.64375457167625 15.378108978271484 415.64375457167625 15.378108978271484 L 291.97501143813133 15.378108978271484 Q 283.97501143813133 15.378108978271484 283.97501143813133 23.378108978271484" stroke-miterlimit="10" stroke-width="0.5" stroke-dasharray=""/><path fill="#F0F0F0" stroke="#505050" paint-order="fill stroke markers" d=" M 398.64375457167625 23.378108978271484 L 423.64375457167625 23.378108978271484 L 423.64375457167625 53.378108978271484 L 398.64375457167625 53.378108978271484 L 398.64375457167625 23.378108978271484 Z" stroke-miterlimit="10" stroke-width="0.5" stroke-dasharray=""/><text fill="#505050" stroke="none" font-family="monospace" font-size="14px" font-style="normal" font-weight="normal" text-decoration="normal" x="411.14375457167625" y="41.378108978271484" text-anchor="middle" dominant-baseline="text-after-edge">+1</text><path fill="none" stroke="#505050" paint-order="fill stroke markers" d=" M 398.64375457167625 41.378108978271484 L 406.64375457167625 41.378108978271484 L 406.64375457167625 49.378108978271484 L 398.64375457167625 49.378108978271484 L 398.64375457167625 41.378108978271484 Z" stroke-miterlimit="10" stroke-width="0.5" stroke-dasharray=""/><path fill="none" stroke="#505050" paint-order="fill stroke markers" d=" M 415.64375457167625 41.378108978271484 L 423.64375457167625 41.378108978271484 L 423.64375457167625 49.378108978271484 L 415.64375457167625 49.378108978271484 L 415.64375457167625 41.378108978271484 Z" stroke-miterlimit="10" stroke-width="0.5" stroke-dasharray=""/><path fill="white" stroke="#505050" paint-order="fill stroke markers" d=" M 338.4718643128872 19.143733978271484 L 362.4718643128872 19.143733978271484 L 362.4718643128872 61.143733978271484 L 338.4718643128872 61.143733978271484 L 338.4718643128872 19.143733978271484 Z" stroke-miterlimit="10" stroke-width="0.5" stroke-dasharray=""/><path fill="#F0F0F0" stroke="none" paint-order="stroke fill markers" d=""/><text fill="#505050" stroke="none" font-family="monospace" font-size="14px" font-style="normal" font-weight="normal" text-decoration="normal" x="350.4718643128872" y="37.143733978271484" text-anchor="middle" dominant-baseline="text-after-edge">+</text><path fill="none" stroke="#505050" paint-order="fill stroke markers" d=" M 338.4718643128872 37.143733978271484 L 346.4718643128872 37.143733978271484 L 346.4718643128872 45.143733978271484 L 338.4718643128872 45.143733978271484 L 338.4718643128872 37.143733978271484 Z" stroke-miterlimit="10" stroke-width="0.5" stroke-dasharray=""/><path fill="none" stroke="#505050" paint-order="fill stroke markers" d=" M 338.4718643128872 49.143733978271484 L 346.4718643128872 49.143733978271484 L 346.4718643128872 57.143733978271484 L 338.4718643128872 57.143733978271484 L 338.4718643128872 49.143733978271484 Z" stroke-miterlimit="10" stroke-width="0.5" stroke-dasharray=""/><path fill="none" stroke="#505050" paint-order="fill stroke markers" d=" M 354.4718643128872 37.143733978271484 L 362.4718643128872 37.143733978271484 L 362.4718643128872 45.143733978271484 L 354.4718643128872 45.143733978271484 L 354.4718643128872 37.143733978271484 Z" stroke-miterlimit="10" stroke-width="0.5" stroke-dasharray=""/><path fill="white" stroke="#505050" paint-order="fill stroke markers" d=" M 291.97501143813133 48.59372329711914 L 323.97501143813133 48.59372329711914 L 323.97501143813133 66.59372329711914 L 291.97501143813133 66.59372329711914 L 291.97501143813133 48.59372329711914 Z" stroke-miterlimit="10" stroke-width="0.5" stroke-dasharray=""/><path fill="#F0F0F0" stroke="none" paint-order="stroke fill markers" d=""/><path fill="none" stroke="#505050" paint-order="fill stroke markers" d=" M 315.97501143813133 53.59372329711914 L 323.97501143813133 53.59372329711914 L 323.97501143813133 61.59372329711914 L 315.97501143813133 61.59372329711914 L 315.97501143813133 53.59372329711914 Z" stroke-miterlimit="10" stroke-width="0.5" stroke-dasharray=""/><text fill="#505050" stroke="none" font-family="monospace" font-size="14px" font-style="normal" font-weight="normal" text-decoration="normal" x="307.97501143813133" y="66.59372329711914" text-anchor="end" dominant-baseline="text-after-edge">1</text><path fill="white" stroke="#505050" paint-order="fill stroke markers" d=" M 297.5437408387661 25.206233978271484 L 313.5437408387661 25.206233978271484 L 313.5437408387661 41.206233978271484 L 297.5437408387661 41.206233978271484 L 305.5437408387661 33.206233978271484 L 297.5437408387661 25.206233978271484" stroke-miterlimit="10" stroke-width="0.5" stroke-dasharray=""/><path fill="none" stroke="#505050" paint-order="fill stroke markers" d=" M 305.5437408387661 29.206233978271484 L 313.5437408387661 29.206233978271484 L 313.5437408387661 37.206233978271484 L 305.5437408387661 37.206233978271484 L 305.5437408387661 29.206233978271484 Z" stroke-miterlimit="10" stroke-width="0.5" stroke-dasharray=""/><path fill="white" stroke="#505050" paint-order="fill stroke markers" d=" M 375.40937957167625 33.19057846069336 L 383.40937957167625 33.19057846069336 L 391.40937957167625 41.19057846069336 L 383.40937957167625 49.19057846069336 L 375.40937957167625 49.19057846069336 L 375.40937957167625 33.19057846069336" stroke-miterlimit="10" stroke-width="0.5" stroke-dasharray=""/><path fill="none" stroke="#505050" paint-order="fill stroke markers" d=" M 375.40937957167625 37.19057846069336 L 383.40937957167625 37.19057846069336 L 383.40937957167625 45.19057846069336 L 375.40937957167625 45.19057846069336 L 375.40937957167625 37.19057846069336 Z" stroke-miterlimit="10" stroke-width="0.5" stroke-dasharray=""/><path fill="white" stroke="#505050" paint-order="fill stroke markers" d=" M 300.25306472182274 124.42813873291016 L 300.25306472182274 154.42813873291016 Q 300.25306472182274 162.42813873291016 308.25306472182274 162.42813873291016 L 386.68117293715477 162.42813873291016 Q 394.68117293715477 162.42813873291016 394.68117293715477 154.42813873291016 L 394.68117293715477 124.42813873291016 Q 394.68117293715477 116.42813873291016 386.68117293715477 116.42813873291016 L 308.25306472182274 116.42813873291016 Q 300.25306472182274 116.42813873291016 300.25306472182274 124.42813873291016" stroke-miterlimit="10" stroke-width="0.5" stroke-dasharray=""/><path fill="#F0F0F0" stroke="#505050" paint-order="fill stroke markers" d=" M 352.68117293715477 124.42813873291016 L 394.68117293715477 124.42813873291016 L 394.68117293715477 154.42813873291016 L 352.68117293715477 154.42813873291016 L 352.68117293715477 124.42813873291016 Z" stroke-miterlimit="10" stroke-width="0.5" stroke-dasharray="6,3"/><text fill="#505050" stroke="none" font-family="monospace" font-size="14px" font-style="normal" font-weight="normal" text-decoration="normal" x="373.68117293715477" y="142.42813873291016" text-anchor="middle" dominant-baseline="text-after-edge">body</text><path fill="none" stroke="#505050" paint-order="fill stroke markers" d=" M 352.68117293715477 142.42813873291016 L 360.68117293715477 142.42813873291016 L 360.68117293715477 150.42813873291016 L 352.68117293715477 150.42813873291016 L 352.68117293715477 142.42813873291016 Z" stroke-miterlimit="10" stroke-width="0.5" stroke-dasharray="0"/><path fill="none" stroke="#505050" paint-order="fill stroke markers" d=" M 386.68117293715477 142.42813873291016 L 394.68117293715477 142.42813873291016 L 394.68117293715477 150.42813873291016 L 386.68117293715477 150.42813873291016 L 386.68117293715477 142.42813873291016 Z" stroke-miterlimit="10" stroke-width="0.5" stroke-dasharray="0"/><path fill="white" stroke="#505050" paint-order="fill stroke markers" d=" M 330.94681319594383 123.38749885559082 L 338.94681319594383 123.38749885559082 L 346.94681319594383 131.38749885559082 L 338.94681319594383 139.38749885559082 L 330.94681319594383 139.38749885559082 L 330.94681319594383 123.38749885559082" stroke-miterlimit="10" stroke-width="0.5" stroke-dasharray="0"/><path fill="none" stroke="#505050" paint-order="fill stroke markers" d=" M 330.94681319594383 127.38749885559082 L 338.94681319594383 127.38749885559082 L 338.94681319594383 135.38749885559082 L 330.94681319594383 135.38749885559082 L 330.94681319594383 127.38749885559082 Z" stroke-miterlimit="10" stroke-width="0.5" stroke-dasharray="0"/><path fill="white" stroke="#505050" paint-order="fill stroke markers" d=" M 303.9593139588833 123.44688415527344 L 319.9593139588833 123.44688415527344 L 319.9593139588833 139.44688415527344 L 303.9593139588833 139.44688415527344 L 311.9593139588833 131.44688415527344 L 303.9593139588833 123.44688415527344" stroke-miterlimit="10" stroke-width="0.5" stroke-dasharray="0"/><path fill="none" stroke="#505050" paint-order="fill stroke markers" d=" M 311.9593139588833 127.44688415527344 L 319.9593139588833 127.44688415527344 L 319.9593139588833 135.44688415527344 L 311.9593139588833 135.44688415527344 L 311.9593139588833 127.44688415527344 Z" stroke-miterlimit="10" stroke-width="0.5" stroke-dasharray="0"/><path fill="white" stroke="#505050" paint-order="fill stroke markers" d=" M 445.5938659608364 18.556243896484375 L 445.5938659608364 189.89686584472656 Q 445.5938659608364 197.89686584472656 453.5938659608364 197.89686584472656 L 1076.0220580995083 197.89686584472656 Q 1084.0220580995083 197.89686584472656 1084.0220580995083 189.89686584472656 L 1084.0220580995083 18.556243896484375 Q 1084.0220580995083 10.556243896484375 1076.0220580995083 10.556243896484375 L 453.5938659608364 10.556243896484375 Q 445.5938659608364 10.556243896484375 445.5938659608364 18.556243896484375" stroke-miterlimit="10" stroke-width="0.5" stroke-dasharray="0"/><path fill="#F0F0F0" stroke="#505050" paint-order="fill stroke markers" d=" M 968.0220580995083 18.556243896484375 L 1084.0220580995083 18.556243896484375 L 1084.0220580995083 58.556243896484375 L 968.0220580995083 58.556243896484375 L 968.0220580995083 18.556243896484375 Z" stroke-miterlimit="10" stroke-width="0.5" stroke-dasharray="0"/><path fill="none" stroke="#505050" paint-order="fill stroke markers" d=" M 968.0220580995083 22.556243896484375 L 992.0220580995083 22.556243896484375 L 992.0220580995083 38.556243896484375 L 968.0220580995083 38.556243896484375 L 968.0220580995083 22.556243896484375 Z" stroke-miterlimit="10" stroke-width="0.5" stroke-dasharray="0"/><path fill="none" stroke="#505050" paint-order="fill stroke markers" d=" M 968.0220580995083 26.556243896484375 L 976.0220580995083 26.556243896484375 L 976.0220580995083 34.556243896484375 L 968.0220580995083 34.556243896484375 L 968.0220580995083 26.556243896484375 Z" stroke-miterlimit="10" stroke-width="0.5" stroke-dasharray="0"/><path fill="none" stroke="#505050" paint-order="fill stroke markers" d=" M 984.0220580995083 26.556243896484375 L 992.0220580995083 26.556243896484375 L 992.0220580995083 34.556243896484375 L 984.0220580995083 34.556243896484375 L 984.0220580995083 26.556243896484375 Z" stroke-miterlimit="10" stroke-width="0.5" stroke-dasharray="0"/><text fill="#505050" stroke="none" font-family="monospace" font-size="14px" font-style="normal" font-weight="normal" text-decoration="normal" x="1000.0220580995083" y="39.556243896484375" text-anchor="start" dominant-baseline="text-after-edge">body</text><path fill="none" stroke="#505050" paint-order="fill stroke markers" d=" M 968.0220580995083 43.556243896484375 L 976.0220580995083 43.556243896484375 L 976.0220580995083 51.556243896484375 L 968.0220580995083 51.556243896484375 L 968.0220580995083 43.556243896484375 Z" stroke-miterlimit="10" stroke-width="0.5" stroke-dasharray="0"/><text fill="#505050" stroke="none" font-family="monospace" font-size="14px" font-style="normal" font-weight="normal" text-decoration="normal" x="984.0220580995083" y="56.556243896484375" text-anchor="start" dominant-baseline="text-after-edge">end</text><path fill="none" stroke="#505050" paint-order="fill stroke markers" d=" M 1042.0220580995083 22.556243896484375 L 1084.0220580995083 22.556243896484375 L 1084.0220580995083 54.556243896484375 L 1042.0220580995083 54.556243896484375 L 1042.0220580995083 22.556243896484375 Z" stroke-miterlimit="10" stroke-width="0.5" stroke-dasharray="0"/><text fill="#505050" stroke="none" font-family="monospace" font-size="14px" font-style="normal" font-weight="normal" text-decoration="normal" x="1063.0220580995083" y="40.556243896484375" text-anchor="middle" dominant-baseline="text-after-edge">iter</text><path fill="none" stroke="#505050" paint-order="fill stroke markers" d=" M 1042.0220580995083 41.556243896484375 L 1050.0220580995083 41.556243896484375 L 1050.0220580995083 49.556243896484375 L 1042.0220580995083 49.556243896484375 L 1042.0220580995083 41.556243896484375 Z" stroke-miterlimit="10" stroke-width="0.5" stroke-dasharray="0"/><text fill="#505050" stroke="none" font-family="monospace" font-size="14px" font-style="normal" font-weight="normal" text-decoration="normal" x="1058.0220580995083" y="54.556243896484375" text-anchor="start" dominant-baseline="text-after-edge">i</text><path fill="none" stroke="#505050" paint-order="fill stroke markers" d=" M 1076.0220580995083 40.556243896484375 L 1084.0220580995083 40.556243896484375 L 1084.0220580995083 48.556243896484375 L 1076.0220580995083 48.556243896484375 L 1076.0220580995083 40.556243896484375 Z" stroke-miterlimit="10" stroke-width="0.5" stroke-dasharray="0"/><path fill="white" stroke="#505050" paint-order="fill stroke markers" d=" M 529.3314147889614 30.603103637695312 L 529.3314147889614 173.89686584472656 Q 529.3314147889614 181.89686584472656 537.3314147889614 181.89686584472656 L 890.0187408328056 181.89686584472656 Q 898.0187408328056 181.89686584472656 898.0187408328056 173.89686584472656 L 898.0187408328056 30.603103637695312 Q 898.0187408328056 22.603103637695312 890.0187408328056 22.603103637695312 L 537.3314147889614 22.603103637695312 Q 529.3314147889614 22.603103637695312 529.3314147889614 30.603103637695312" stroke-miterlimit="10" stroke-width="0.5" stroke-dasharray="0"/><path fill="#F0F0F0" stroke="#505050" paint-order="fill stroke markers" d=" M 856.0187408328056 30.603103637695312 L 898.0187408328056 30.603103637695312 L 898.0187408328056 62.60310363769531 L 856.0187408328056 62.60310363769531 L 856.0187408328056 30.603103637695312 Z" stroke-miterlimit="10" stroke-width="0.5" stroke-dasharray="0"/><text fill="#505050" stroke="none" font-family="monospace" font-size="14px" font-style="normal" font-weight="normal" text-decoration="normal" x="877.0187408328056" y="48.60310363769531" text-anchor="middle" dominant-baseline="text-after-edge">iter</text><path fill="none" stroke="#505050" paint-order="fill stroke markers" d=" M 856.0187408328056 49.60310363769531 L 864.0187408328056 49.60310363769531 L 864.0187408328056 57.60310363769531 L 856.0187408328056 57.60310363769531 L 856.0187408328056 49.60310363769531 Z" stroke-miterlimit="10" stroke-width="0.5" stroke-dasharray="0"/><text fill="#505050" stroke="none" font-family="monospace" font-size="14px" font-style="normal" font-weight="normal" text-decoration="normal" x="872.0187408328056" y="62.60310363769531" text-anchor="start" dominant-baseline="text-after-edge">i</text><path fill="none" stroke="#505050" paint-order="fill stroke markers" d=" M 890.0187408328056 48.60310363769531 L 898.0187408328056 48.60310363769531 L 898.0187408328056 56.60310363769531 L 890.0187408328056 56.60310363769531 L 890.0187408328056 48.60310363769531 Z" stroke-miterlimit="10" stroke-width="0.5" stroke-dasharray="0"/><path fill="white" stroke="#505050" paint-order="fill stroke markers" d=" M 533.7689147889614 48.30310821533203 L 565.7689147889614 48.30310821533203 L 565.7689147889614 66.30310821533203 L 533.7689147889614 66.30310821533203 L 541.7689147889614 57.30310821533203 L 533.7689147889614 48.30310821533203" stroke-miterlimit="10" stroke-width="0.5" stroke-dasharray="0"/><path fill="none" stroke="#505050" paint-order="fill stroke markers" d=" M 557.7689147889614 53.30310821533203 L 565.7689147889614 53.30310821533203 L 565.7689147889614 61.30310821533203 L 557.7689147889614 61.30310821533203 L 557.7689147889614 53.30310821533203 Z" stroke-miterlimit="10" stroke-width="0.5" stroke-dasharray="0"/><text fill="#505050" stroke="none" font-family="monospace" font-size="14px" font-style="normal" font-weight="normal" text-decoration="normal" x="549.7689147889614" y="66.30310821533203" text-anchor="end" dominant-baseline="text-after-edge">i</text><path fill="white" stroke="#505050" paint-order="fill stroke markers" d=" M 684.3312560915947 118.72500610351562 L 726.3312560915947 118.72500610351562 L 726.3312560915947 150.72500610351562 L 684.3312560915947 150.72500610351562 L 684.3312560915947 118.72500610351562 Z" stroke-miterlimit="10" stroke-width="0.5" stroke-dasharray="0"/><path fill="#F0F0F0" stroke="none" paint-order="stroke fill markers" d=""/><text fill="#505050" stroke="none" font-family="monospace" font-size="14px" font-style="normal" font-weight="normal" text-decoration="normal" x="705.3312560915947" y="136.72500610351562" text-anchor="middle" dominant-baseline="text-after-edge">iter</text><path fill="none" stroke="#505050" paint-order="fill stroke markers" d=" M 684.3312560915947 137.72500610351562 L 692.3312560915947 137.72500610351562 L 692.3312560915947 145.72500610351562 L 684.3312560915947 145.72500610351562 L 684.3312560915947 137.72500610351562 Z" stroke-miterlimit="10" stroke-width="0.5" stroke-dasharray="0"/><text fill="#505050" stroke="none" font-family="monospace" font-size="14px" font-style="normal" font-weight="normal" text-decoration="normal" x="700.3312560915947" y="150.72500610351562" text-anchor="start" dominant-baseline="text-after-edge">i</text><path fill="none" stroke="#505050" paint-order="fill stroke markers" d=" M 718.3312560915947 136.72500610351562 L 726.3312560915947 136.72500610351562 L 726.3312560915947 144.72500610351562 L 718.3312560915947 144.72500610351562 L 718.3312560915947 136.72500610351562 Z" stroke-miterlimit="10" stroke-width="0.5" stroke-dasharray="0"/><path fill="#e0e0e0" stroke="none" paint-order="stroke fill markers" d=" M 906.0187408328056 46.60310363769531 L 898.0187408328056 30.603103637695312 L 898.0187408328056 62.60310363769531 Z M 676.3312560915947 134.72500610351562 L 684.3312560915947 118.72500610351562 L 684.3312560915947 150.72500610351562 Z"/><path fill="none" stroke="none"/><path fill="none" stroke="#e0e0e0" paint-order="fill stroke markers" d=" M 906.0187408328056 46.60310363769531 C 979.8222836385853 46.60310363769531 602.527713285815 134.72500610351562 676.3312560915947 134.72500610351562" stroke-miterlimit="10" stroke-width="2" stroke-dasharray="0"/><path fill="white" stroke="#505050" paint-order="fill stroke markers" d=" M 761.9126373231411 58.76249694824219 L 785.9126373231411 58.76249694824219 L 785.9126373231411 112.76249694824219 L 761.9126373231411 112.76249694824219 L 761.9126373231411 58.76249694824219 Z" stroke-miterlimit="10" stroke-width="0.5" stroke-dasharray="0"/><path fill="#F0F0F0" stroke="none" paint-order="stroke fill markers" d=""/><text fill="#505050" stroke="none" font-family="monospace" font-size="14px" font-style="normal" font-weight="normal" text-decoration="normal" x="773.9126373231411" y="76.76249694824219" text-anchor="middle" dominant-baseline="text-after-edge">?</text><path fill="none" stroke="#505050" paint-order="fill stroke markers" d=" M 761.9126373231411 76.76249694824219 L 769.9126373231411 76.76249694824219 L 769.9126373231411 84.76249694824219 L 761.9126373231411 84.76249694824219 L 761.9126373231411 76.76249694824219 Z" stroke-miterlimit="10" stroke-width="0.5" stroke-dasharray="0"/><path fill="none" stroke="#505050" paint-order="fill stroke markers" d=" M 761.9126373231411 88.76249694824219 L 769.9126373231411 88.76249694824219 L 769.9126373231411 96.76249694824219 L 761.9126373231411 96.76249694824219 L 761.9126373231411 88.76249694824219 Z" stroke-miterlimit="10" stroke-width="0.5" stroke-dasharray="0"/><path fill="none" stroke="#505050" paint-order="fill stroke markers" d=" M 761.9126373231411 100.76249694824219 L 769.9126373231411 100.76249694824219 L 769.9126373231411 108.76249694824219 L 761.9126373231411 108.76249694824219 L 761.9126373231411 100.76249694824219 Z" stroke-miterlimit="10" stroke-width="0.5" stroke-dasharray="0"/><path fill="none" stroke="#505050" paint-order="fill stroke markers" d=" M 777.9126373231411 76.76249694824219 L 785.9126373231411 76.76249694824219 L 785.9126373231411 84.76249694824219 L 777.9126373231411 84.76249694824219 L 777.9126373231411 76.76249694824219 Z" stroke-miterlimit="10" stroke-width="0.5" stroke-dasharray="0"/><path fill="white" stroke="#505050" paint-order="fill stroke markers" d=" M 799.6249420046806 72.62812662124634 L 807.6249420046806 72.62812662124634 L 815.6249420046806 80.62812662124634 L 807.6249420046806 88.62812662124634 L 799.6249420046806 88.62812662124634 L 799.6249420046806 72.62812662124634" stroke-miterlimit="10" stroke-width="0.5" stroke-dasharray="0"/><path fill="none" stroke="#505050" paint-order="fill stroke markers" d=" M 799.6249420046806 76.62812662124634 L 807.6249420046806 76.62812662124634 L 807.6249420046806 84.62812662124634 L 799.6249420046806 84.62812662124634 L 799.6249420046806 76.62812662124634 Z" stroke-miterlimit="10" stroke-width="0.5" stroke-dasharray="0"/><path fill="white" stroke="#505050" paint-order="fill stroke markers" d=" M 630.6437622010708 87.8843765258789 L 672.6437622010708 87.8843765258789 L 672.6437622010708 117.8843765258789 L 630.6437622010708 117.8843765258789 L 630.6437622010708 87.8843765258789 Z" stroke-miterlimit="10" stroke-width="0.5" stroke-dasharray="0"/><path fill="#F0F0F0" stroke="none" paint-order="stroke fill markers" d=""/><text fill="#505050" stroke="none" font-family="monospace" font-size="14px" font-style="normal" font-weight="normal" text-decoration="normal" x="651.6437622010708" y="105.8843765258789" text-anchor="middle" dominant-baseline="text-after-edge">body</text><path fill="none" stroke="#505050" paint-order="fill stroke markers" d=" M 630.6437622010708 105.8843765258789 L 638.6437622010708 105.8843765258789 L 638.6437622010708 113.8843765258789 L 630.6437622010708 113.8843765258789 L 630.6437622010708 105.8843765258789 Z" stroke-miterlimit="10" stroke-width="0.5" stroke-dasharray="0"/><path fill="none" stroke="#505050" paint-order="fill stroke markers" d=" M 664.6437622010708 105.8843765258789 L 672.6437622010708 105.8843765258789 L 672.6437622010708 113.8843765258789 L 664.6437622010708 113.8843765258789 L 664.6437622010708 105.8843765258789 Z" stroke-miterlimit="10" stroke-width="0.5" stroke-dasharray="0"/><path fill="#e0e0e0" stroke="none" paint-order="stroke fill markers" d=" M 522.6812805235386 78.98434448242188 L 514.6812805235386 63.984344482421875 L 514.6812805235386 93.98434448242188 Z M 622.6437622010708 102.8843765258789 L 630.6437622010708 87.8843765258789 L 630.6437622010708 117.8843765258789 Z"/><path fill="none" stroke="none"/><path fill="none" stroke="#e0e0e0" paint-order="fill stroke markers" d=" M 522.6812805235386 78.98434448242188 C 553.5152526116889 78.98434448242188 591.8097901129205 102.8843765258789 622.6437622010708 102.8843765258789" stroke-miterlimit="10" stroke-width="2" stroke-dasharray="0"/><path fill="white" stroke="#505050" paint-order="fill stroke markers" d=" M 718.7031646668911 44.05315399169922 L 743.7031646668911 44.05315399169922 L 743.7031646668911 86.05315399169922 L 718.7031646668911 86.05315399169922 L 718.7031646668911 44.05315399169922 Z" stroke-miterlimit="10" stroke-width="0.5" stroke-dasharray="0"/><path fill="#F0F0F0" stroke="none" paint-order="stroke fill markers" d=""/><text fill="#505050" stroke="none" font-family="monospace" font-size="14px" font-style="normal" font-weight="normal" text-decoration="normal" x="731.2031646668911" y="62.05315399169922" text-anchor="middle" dominant-baseline="text-after-edge">&amp;&amp;</text><path fill="none" stroke="#505050" paint-order="fill stroke markers" d=" M 718.7031646668911 62.05315399169922 L 726.7031646668911 62.05315399169922 L 726.7031646668911 70.05315399169922 L 718.7031646668911 70.05315399169922 L 718.7031646668911 62.05315399169922 Z" stroke-miterlimit="10" stroke-width="0.5" stroke-dasharray="0"/><path fill="none" stroke="#505050" paint-order="fill stroke markers" d=" M 718.7031646668911 74.05315399169922 L 726.7031646668911 74.05315399169922 L 726.7031646668911 82.05315399169922 L 718.7031646668911 82.05315399169922 L 718.7031646668911 74.05315399169922 Z" stroke-miterlimit="10" stroke-width="0.5" stroke-dasharray="0"/><path fill="none" stroke="#505050" paint-order="fill stroke markers" d=" M 735.7031646668911 62.05315399169922 L 743.7031646668911 62.05315399169922 L 743.7031646668911 70.05315399169922 L 735.7031646668911 70.05315399169922 L 735.7031646668911 62.05315399169922 Z" stroke-miterlimit="10" stroke-width="0.5" stroke-dasharray="0"/><path fill="white" stroke="#505050" paint-order="fill stroke markers" d=" M 645.6062988340855 27.06561279296875 L 669.6062988340855 27.06561279296875 L 669.6062988340855 69.06561279296875 L 645.6062988340855 69.06561279296875 L 645.6062988340855 27.06561279296875 Z" stroke-miterlimit="10" stroke-width="0.5" stroke-dasharray="0"/><path fill="#F0F0F0" stroke="none" paint-order="stroke fill markers" d=""/><text fill="#505050" stroke="none" font-family="monospace" font-size="14px" font-style="normal" font-weight="normal" text-decoration="normal" x="657.6062988340855" y="45.06561279296875" text-anchor="middle" dominant-baseline="text-after-edge">&lt;</text><path fill="none" stroke="#505050" paint-order="fill stroke markers" d=" M 645.6062988340855 45.06561279296875 L 653.6062988340855 45.06561279296875 L 653.6062988340855 53.06561279296875 L 645.6062988340855 53.06561279296875 L 645.6062988340855 45.06561279296875 Z" stroke-miterlimit="10" stroke-width="0.5" stroke-dasharray="0"/><path fill="none" stroke="#505050" paint-order="fill stroke markers" d=" M 645.6062988340855 57.06561279296875 L 653.6062988340855 57.06561279296875 L 653.6062988340855 65.06561279296875 L 645.6062988340855 65.06561279296875 L 645.6062988340855 57.06561279296875 Z" stroke-miterlimit="10" stroke-width="0.5" stroke-dasharray="0"/><path fill="none" stroke="#505050" paint-order="fill stroke markers" d=" M 661.6062988340855 45.06561279296875 L 669.6062988340855 45.06561279296875 L 669.6062988340855 53.06561279296875 L 661.6062988340855 53.06561279296875 L 661.6062988340855 45.06561279296875 Z" stroke-miterlimit="10" stroke-width="0.5" stroke-dasharray="0"/><path fill="white" stroke="#505050" paint-order="fill stroke markers" d=" M 617.831274420023 135.89686584472656 L 642.831274420023 135.89686584472656 L 642.831274420023 165.89686584472656 L 617.831274420023 165.89686584472656 L 617.831274420023 135.89686584472656 Z" stroke-miterlimit="10" stroke-width="0.5" stroke-dasharray="0"/><path fill="#F0F0F0" stroke="none" paint-order="stroke fill markers" d=""/><text fill="#505050" stroke="none" font-family="monospace" font-size="14px" font-style="normal" font-weight="normal" text-decoration="normal" x="630.331274420023" y="153.89686584472656" text-anchor="middle" dominant-baseline="text-after-edge">+1</text><path fill="none" stroke="#505050" paint-order="fill stroke markers" d=" M 617.831274420023 153.89686584472656 L 625.831274420023 153.89686584472656 L 625.831274420023 161.89686584472656 L 617.831274420023 161.89686584472656 L 617.831274420023 153.89686584472656 Z" stroke-miterlimit="10" stroke-width="0.5" stroke-dasharray="0"/><path fill="none" stroke="#505050" paint-order="fill stroke markers" d=" M 634.831274420023 153.89686584472656 L 642.831274420023 153.89686584472656 L 642.831274420023 161.89686584472656 L 634.831274420023 161.89686584472656 L 634.831274420023 153.89686584472656 Z" stroke-miterlimit="10" stroke-width="0.5" stroke-dasharray="0"/><path fill="white" stroke="#505050" paint-order="fill stroke markers" d=" M 921.5531188845634 38.15623092651367 L 929.5531188845634 38.15623092651367 L 937.5531188845634 46.15623092651367 L 929.5531188845634 54.15623092651367 L 921.5531188845634 54.15623092651367 L 921.5531188845634 38.15623092651367" stroke-miterlimit="10" stroke-width="0.5" stroke-dasharray="0"/><path fill="none" stroke="#505050" paint-order="fill stroke markers" d=" M 921.5531188845634 42.15623092651367 L 929.5531188845634 42.15623092651367 L 929.5531188845634 50.15623092651367 L 921.5531188845634 50.15623092651367 L 921.5531188845634 42.15623092651367 Z" stroke-miterlimit="10" stroke-width="0.5" stroke-dasharray="0"/><path fill="none" stroke="none"/><path fill="white" stroke="#505050" paint-order="fill stroke markers" d=" M 456.6812805235386 59.984344482421875 L 514.6812805235386 59.984344482421875 L 514.6812805235386 97.98434448242188 L 456.6812805235386 97.98434448242188 L 464.6812805235386 78.98434448242188 L 456.6812805235386 59.984344482421875" stroke-miterlimit="10" stroke-width="0.5" stroke-dasharray="6,3"/><path fill="#F0F0F0" stroke="none" paint-order="stroke fill markers" d=" M 472.6812805235386 63.984344482421875 L 514.6812805235386 63.984344482421875 L 514.6812805235386 93.98434448242188 L 472.6812805235386 93.98434448242188 L 472.6812805235386 63.984344482421875 Z"/><path fill="none" stroke="#505050" paint-order="fill stroke markers" d=" M 472.6812805235386 63.984344482421875 L 514.6812805235386 63.984344482421875 L 514.6812805235386 93.98434448242188 L 472.6812805235386 93.98434448242188 L 472.6812805235386 63.984344482421875 Z" stroke-miterlimit="10" stroke-width="0.5" stroke-dasharray="0"/><text fill="#505050" stroke="none" font-family="monospace" font-size="14px" font-style="normal" font-weight="normal" text-decoration="normal" x="493.6812805235386" y="81.98434448242188" text-anchor="middle" dominant-baseline="text-after-edge">body</text><path fill="none" stroke="#505050" paint-order="fill stroke markers" d=" M 472.6812805235386 81.98434448242188 L 480.6812805235386 81.98434448242188 L 480.6812805235386 89.98434448242188 L 472.6812805235386 89.98434448242188 L 472.6812805235386 81.98434448242188 Z" stroke-miterlimit="10" stroke-width="0.5" stroke-dasharray="0"/><path fill="none" stroke="#505050" paint-order="fill stroke markers" d=" M 506.6812805235386 81.98434448242188 L 514.6812805235386 81.98434448242188 L 514.6812805235386 89.98434448242188 L 506.6812805235386 89.98434448242188 L 506.6812805235386 81.98434448242188 Z" stroke-miterlimit="10" stroke-width="0.5" stroke-dasharray="0"/><path fill="white" stroke="#505050" paint-order="fill stroke markers" d=" M 472.6812805235386 63.984344482421875 L 514.6812805235386 63.984344482421875 L 514.6812805235386 93.98434448242188 L 472.6812805235386 93.98434448242188 L 472.6812805235386 63.984344482421875 Z" stroke-miterlimit="10" stroke-width="0.5" stroke-dasharray="6,3"/><path fill="#F0F0F0" stroke="none" paint-order="stroke fill markers" d=""/><text fill="#505050" stroke="none" font-family="monospace" font-size="14px" font-style="normal" font-weight="normal" text-decoration="normal" x="493.6812805235386" y="81.98434448242188" text-anchor="middle" dominant-baseline="text-after-edge">body</text><path fill="none" stroke="#505050" paint-order="fill stroke markers" d=" M 472.6812805235386 81.98434448242188 L 480.6812805235386 81.98434448242188 L 480.6812805235386 89.98434448242188 L 472.6812805235386 89.98434448242188 L 472.6812805235386 81.98434448242188 Z" stroke-miterlimit="10" stroke-width="0.5" stroke-dasharray="0"/><path fill="none" stroke="#505050" paint-order="fill stroke markers" d=" M 506.6812805235386 81.98434448242188 L 514.6812805235386 81.98434448242188 L 514.6812805235386 89.98434448242188 L 506.6812805235386 89.98434448242188 L 506.6812805235386 81.98434448242188 Z" stroke-miterlimit="10" stroke-width="0.5" stroke-dasharray="0"/><path fill="white" stroke="#505050" paint-order="fill stroke markers" d=" M 467.04058799147606 108.44064331054688 L 516.0405879914761 108.44064331054688 L 516.0405879914761 126.44064331054688 L 467.04058799147606 126.44064331054688 L 475.04058799147606 117.44064331054688 L 467.04058799147606 108.44064331054688" stroke-miterlimit="10" stroke-width="0.5" stroke-dasharray="0"/><path fill="none" stroke="#505050" paint-order="fill stroke markers" d=" M 508.04058799147606 113.44064331054688 L 516.0405879914761 113.44064331054688 L 516.0405879914761 121.44064331054688 L 508.04058799147606 121.44064331054688 L 508.04058799147606 113.44064331054688 Z" stroke-miterlimit="10" stroke-width="0.5" stroke-dasharray="0"/><text fill="#505050" stroke="none" font-family="monospace" font-size="14px" font-style="normal" font-weight="normal" text-decoration="normal" x="500.04058799147606" y="126.44064331054688" text-anchor="end" dominant-baseline="text-after-edge">end</text><path fill="white" stroke="#505050" paint-order="fill stroke markers" d=" M 506.5093871951103 374.3531684875488 L 506.5093871951103 491.75311279296875 Q 506.5093871951103 499.75311279296875 514.5093871951103 499.75311279296875 L 922.3499999046326 499.75311279296875 Q 930.3499999046326 499.75311279296875 930.3499999046326 491.75311279296875 L 930.3499999046326 374.3531684875488 Q 930.3499999046326 366.3531684875488 922.3499999046326 366.3531684875488 L 514.5093871951103 366.3531684875488 Q 506.5093871951103 366.3531684875488 506.5093871951103 374.3531684875488" stroke-miterlimit="10" stroke-width="0.5" stroke-dasharray="0"/><path fill="#F0F0F0" stroke="#505050" paint-order="fill stroke markers" d=" M 905.3499999046326 374.3531684875488 L 930.3499999046326 374.3531684875488 L 930.3499999046326 404.3531684875488 L 905.3499999046326 404.3531684875488 L 905.3499999046326 374.3531684875488 Z" stroke-miterlimit="10" stroke-width="0.5" stroke-dasharray="0"/><text fill="#505050" stroke="none" font-family="monospace" font-size="14px" font-style="normal" font-weight="normal" text-decoration="normal" x="917.8499999046326" y="392.3531684875488" text-anchor="middle" dominant-baseline="text-after-edge">n!</text><path fill="none" stroke="#505050" paint-order="fill stroke markers" d=" M 905.3499999046326 392.3531684875488 L 913.3499999046326 392.3531684875488 L 913.3499999046326 400.3531684875488 L 905.3499999046326 400.3531684875488 L 905.3499999046326 392.3531684875488 Z" stroke-miterlimit="10" stroke-width="0.5" stroke-dasharray="0"/><path fill="none" stroke="#505050" paint-order="fill stroke markers" d=" M 922.3499999046326 392.3531684875488 L 930.3499999046326 392.3531684875488 L 930.3499999046326 400.3531684875488 L 922.3499999046326 400.3531684875488 L 922.3499999046326 392.3531684875488 Z" stroke-miterlimit="10" stroke-width="0.5" stroke-dasharray="0"/><path fill="white" stroke="#505050" paint-order="fill stroke markers" d=" M 680.3718749880791 417.5031433105469 L 712.3718749880791 417.5031433105469 L 712.3718749880791 435.5031433105469 L 680.3718749880791 435.5031433105469 L 680.3718749880791 417.5031433105469 Z" stroke-miterlimit="10" stroke-width="0.5" stroke-dasharray="0"/><path fill="#F0F0F0" stroke="none" paint-order="stroke fill markers" d=""/><path fill="none" stroke="#505050" paint-order="fill stroke markers" d=" M 704.3718749880791 422.5031433105469 L 712.3718749880791 422.5031433105469 L 712.3718749880791 430.5031433105469 L 704.3718749880791 430.5031433105469 L 704.3718749880791 422.5031433105469 Z" stroke-miterlimit="10" stroke-width="0.5" stroke-dasharray="0"/><text fill="#505050" stroke="none" font-family="monospace" font-size="14px" font-style="normal" font-weight="normal" text-decoration="normal" x="696.3718749880791" y="435.5031433105469" text-anchor="end" dominant-baseline="text-after-edge">1</text><path fill="white" stroke="#505050" paint-order="fill stroke markers" d=" M 512.1063110232353 379.3999938964844 L 512.1063110232353 475.75311279296875 Q 512.1063110232353 483.75311279296875 520.1063110232353 483.75311279296875 L 662.6469146609306 483.75311279296875 Q 670.6469146609306 483.75311279296875 670.6469146609306 475.75311279296875 L 670.6469146609306 379.3999938964844 Q 670.6469146609306 371.3999938964844 662.6469146609306 371.3999938964844 L 520.1063110232353 371.3999938964844 Q 512.1063110232353 371.3999938964844 512.1063110232353 379.3999938964844" stroke-miterlimit="10" stroke-width="0.5" stroke-dasharray="0"/><path fill="#F0F0F0" stroke="#505050" paint-order="fill stroke markers" d=" M 646.6469146609306 379.3999938964844 L 670.6469146609306 379.3999938964844 L 670.6469146609306 395.3999938964844 L 646.6469146609306 395.3999938964844 L 646.6469146609306 379.3999938964844 Z" stroke-miterlimit="10" stroke-width="0.5" stroke-dasharray="0"/><path fill="none" stroke="#505050" paint-order="fill stroke markers" d=" M 646.6469146609306 383.3999938964844 L 654.6469146609306 383.3999938964844 L 654.6469146609306 391.3999938964844 L 646.6469146609306 391.3999938964844 L 646.6469146609306 383.3999938964844 Z" stroke-miterlimit="10" stroke-width="0.5" stroke-dasharray="0"/><path fill="none" stroke="#505050" paint-order="fill stroke markers" d=" M 662.6469146609306 383.3999938964844 L 670.6469146609306 383.3999938964844 L 670.6469146609306 391.3999938964844 L 662.6469146609306 391.3999938964844 L 662.6469146609306 383.3999938964844 Z" stroke-miterlimit="10" stroke-width="0.5" stroke-dasharray="0"/><path fill="white" stroke="#505050" paint-order="fill stroke markers" d=" M 595.1500579714775 440.33123779296875 L 619.1500579714775 440.33123779296875 L 619.1500579714775 456.33123779296875 L 595.1500579714775 456.33123779296875 L 595.1500579714775 440.33123779296875 Z" stroke-miterlimit="10" stroke-width="0.5" stroke-dasharray="0"/><path fill="#F0F0F0" stroke="none" paint-order="stroke fill markers" d=""/><path fill="none" stroke="#505050" paint-order="fill stroke markers" d=" M 595.1500579714775 444.33123779296875 L 603.1500579714775 444.33123779296875 L 603.1500579714775 452.33123779296875 L 595.1500579714775 452.33123779296875 L 595.1500579714775 444.33123779296875 Z" stroke-miterlimit="10" stroke-width="0.5" stroke-dasharray="0"/><path fill="none" stroke="#505050" paint-order="fill stroke markers" d=" M 611.1500579714775 444.33123779296875 L 619.1500579714775 444.33123779296875 L 619.1500579714775 452.33123779296875 L 611.1500579714775 452.33123779296875 L 611.1500579714775 444.33123779296875 Z" stroke-miterlimit="10" stroke-width="0.5" stroke-dasharray="0"/><path fill="white" stroke="#505050" paint-order="fill stroke markers" d=" M 565.7250701785088 383.11248779296875 L 589.7250701785088 383.11248779296875 L 589.7250701785088 425.11248779296875 L 565.7250701785088 425.11248779296875 L 565.7250701785088 383.11248779296875 Z" stroke-miterlimit="10" stroke-width="0.5" stroke-dasharray="0"/><path fill="#F0F0F0" stroke="none" paint-order="stroke fill markers" d=""/><text fill="#505050" stroke="none" font-family="monospace" font-size="14px" font-style="normal" font-weight="normal" text-decoration="normal" x="577.7250701785088" y="401.11248779296875" text-anchor="middle" dominant-baseline="text-after-edge">*</text><path fill="none" stroke="#505050" paint-order="fill stroke markers" d=" M 565.7250701785088 401.11248779296875 L 573.7250701785088 401.11248779296875 L 573.7250701785088 409.11248779296875 L 565.7250701785088 409.11248779296875 L 565.7250701785088 401.11248779296875 Z" stroke-miterlimit="10" stroke-width="0.5" stroke-dasharray="0"/><path fill="none" stroke="#505050" paint-order="fill stroke markers" d=" M 565.7250701785088 413.11248779296875 L 573.7250701785088 413.11248779296875 L 573.7250701785088 421.11248779296875 L 565.7250701785088 421.11248779296875 L 565.7250701785088 413.11248779296875 Z" stroke-miterlimit="10" stroke-width="0.5" stroke-dasharray="0"/><path fill="none" stroke="#505050" paint-order="fill stroke markers" d=" M 581.7250701785088 401.11248779296875 L 589.7250701785088 401.11248779296875 L 589.7250701785088 409.11248779296875 L 581.7250701785088 409.11248779296875 L 581.7250701785088 401.11248779296875 Z" stroke-miterlimit="10" stroke-width="0.5" stroke-dasharray="0"/><path fill="white" stroke="#505050" paint-order="fill stroke markers" d=" M 613.9937927126884 397.4281311035156 L 621.9937927126884 397.4281311035156 L 629.9937927126884 405.4281311035156 L 621.9937927126884 413.4281311035156 L 613.9937927126884 413.4281311035156 L 613.9937927126884 397.4281311035156" stroke-miterlimit="10" stroke-width="0.5" stroke-dasharray="0"/><path fill="none" stroke="#505050" paint-order="fill stroke markers" d=" M 613.9937927126884 401.4281311035156 L 621.9937927126884 401.4281311035156 L 621.9937927126884 409.4281311035156 L 613.9937927126884 409.4281311035156 L 613.9937927126884 401.4281311035156 Z" stroke-miterlimit="10" stroke-width="0.5" stroke-dasharray="0"/><path fill="white" stroke="#505050" paint-order="fill stroke markers" d=" M 520.1063110232353 408.0062255859375 L 553.1063110232353 408.0062255859375 L 553.1063110232353 458.0062255859375 L 520.1063110232353 458.0062255859375 L 520.1063110232353 408.0062255859375 Z" stroke-miterlimit="10" stroke-width="0.5" stroke-dasharray="0"/><path fill="#F0F0F0" stroke="none" paint-order="stroke fill markers" d=" M 529.1063110232353 438.0062255859375 L 553.1063110232353 438.0062255859375 L 553.1063110232353 454.0062255859375 L 529.1063110232353 454.0062255859375 L 529.1063110232353 438.0062255859375 Z"/><text fill="#505050" stroke="none" font-family="monospace" font-size="14px" font-style="normal" font-weight="normal" text-decoration="normal" x="536.6063110232353" y="426.0062255859375" text-anchor="middle" dominant-baseline="text-after-edge">var</text><path fill="none" stroke="#505050" paint-order="fill stroke markers" d=" M 545.1063110232353 426.0062255859375 L 553.1063110232353 426.0062255859375 L 553.1063110232353 434.0062255859375 L 545.1063110232353 434.0062255859375 L 545.1063110232353 426.0062255859375 Z" stroke-miterlimit="10" stroke-width="0.5" stroke-dasharray="0"/><path fill="none" stroke="#505050" paint-order="fill stroke markers" d=" M 529.1063110232353 438.0062255859375 L 553.1063110232353 438.0062255859375 L 553.1063110232353 454.0062255859375 L 529.1063110232353 454.0062255859375 L 529.1063110232353 438.0062255859375 Z" stroke-miterlimit="10" stroke-width="0.5" stroke-dasharray="0"/><path fill="none" stroke="#505050" paint-order="fill stroke markers" d=" M 529.1063110232353 442.0062255859375 L 537.1063110232353 442.0062255859375 L 537.1063110232353 450.0062255859375 L 529.1063110232353 450.0062255859375 L 529.1063110232353 442.0062255859375 Z" stroke-miterlimit="10" stroke-width="0.5" stroke-dasharray="0"/><path fill="none" stroke="#505050" paint-order="fill stroke markers" d=" M 545.1063110232353 442.0062255859375 L 553.1063110232353 442.0062255859375 L 553.1063110232353 450.0062255859375 L 545.1063110232353 450.0062255859375 L 545.1063110232353 442.0062255859375 Z" stroke-miterlimit="10" stroke-width="0.5" stroke-dasharray="0"/><path fill="white" stroke="#505050" paint-order="fill stroke markers" d=" M 520.1500427126884 378.125 L 536.1500427126884 378.125 L 536.1500427126884 394.125 L 520.1500427126884 394.125 L 528.1500427126884 386.125 L 520.1500427126884 378.125" stroke-miterlimit="10" stroke-width="0.5" stroke-dasharray="0"/><path fill="none" stroke="#505050" paint-order="fill stroke markers" d=" M 528.1500427126884 382.125 L 536.1500427126884 382.125 L 536.1500427126884 390.125 L 528.1500427126884 390.125 L 528.1500427126884 382.125 Z" stroke-miterlimit="10" stroke-width="0.5" stroke-dasharray="0"/><path fill="white" stroke="#505050" paint-order="fill stroke markers" d=" M 630.6469146609306 447.75311279296875 L 630.6469146609306 459.75311279296875 Q 630.6469146609306 467.75311279296875 638.6469146609306 467.75311279296875 L 646.6469146609306 467.75311279296875 Q 654.6469146609306 467.75311279296875 654.6469146609306 459.75311279296875 L 654.6469146609306 447.75311279296875 Q 654.6469146609306 439.75311279296875 646.6469146609306 439.75311279296875 L 638.6469146609306 439.75311279296875 Q 630.6469146609306 439.75311279296875 630.6469146609306 447.75311279296875" stroke-miterlimit="10" stroke-width="0.5" stroke-dasharray="0"/><path fill="none" stroke="#505050" paint-order="fill stroke markers" d=" M 630.6469146609306 443.75311279296875 L 638.6469146609306 443.75311279296875 L 638.6469146609306 451.75311279296875 L 630.6469146609306 451.75311279296875 L 630.6469146609306 443.75311279296875 Z" stroke-miterlimit="10" stroke-width="0.5" stroke-dasharray="0"/><path fill="none" stroke="#505050" paint-order="fill stroke markers" d=" M 630.6469146609306 455.75311279296875 L 638.6469146609306 455.75311279296875 L 638.6469146609306 463.75311279296875 L 630.6469146609306 463.75311279296875 L 630.6469146609306 455.75311279296875 Z" stroke-miterlimit="10" stroke-width="0.5" stroke-dasharray="0"/><path fill="none" stroke="#505050" paint-order="fill stroke markers" d=" M 646.6469146609306 443.75311279296875 L 654.6469146609306 443.75311279296875 L 654.6469146609306 451.75311279296875 L 646.6469146609306 451.75311279296875 L 646.6469146609306 443.75311279296875 Z" stroke-miterlimit="10" stroke-width="0.5" stroke-dasharray="0"/><path fill="white" stroke="#505050" paint-order="fill stroke markers" d=" M 737.6843504905701 389.6968688964844 L 853.6843504905701 389.6968688964844 L 853.6843504905701 429.6968688964844 L 737.6843504905701 429.6968688964844 L 737.6843504905701 389.6968688964844 Z" stroke-miterlimit="10" stroke-width="0.5" stroke-dasharray="0"/><path fill="#F0F0F0" stroke="none" paint-order="stroke fill markers" d=" M 811.6843504905701 393.6968688964844 L 853.6843504905701 393.6968688964844 L 853.6843504905701 425.6968688964844 L 811.6843504905701 425.6968688964844 L 811.6843504905701 393.6968688964844 Z"/><path fill="none" stroke="#505050" paint-order="fill stroke markers" d=" M 737.6843504905701 393.6968688964844 L 761.6843504905701 393.6968688964844 L 761.6843504905701 409.6968688964844 L 737.6843504905701 409.6968688964844 L 737.6843504905701 393.6968688964844 Z" stroke-miterlimit="10" stroke-width="0.5" stroke-dasharray="0"/><path fill="none" stroke="#505050" paint-order="fill stroke markers" d=" M 737.6843504905701 397.6968688964844 L 745.6843504905701 397.6968688964844 L 745.6843504905701 405.6968688964844 L 737.6843504905701 405.6968688964844 L 737.6843504905701 397.6968688964844 Z" stroke-miterlimit="10" stroke-width="0.5" stroke-dasharray="0"/><path fill="none" stroke="#505050" paint-order="fill stroke markers" d=" M 753.6843504905701 397.6968688964844 L 761.6843504905701 397.6968688964844 L 761.6843504905701 405.6968688964844 L 753.6843504905701 405.6968688964844 L 753.6843504905701 397.6968688964844 Z" stroke-miterlimit="10" stroke-width="0.5" stroke-dasharray="0"/><text fill="#505050" stroke="none" font-family="monospace" font-size="14px" font-style="normal" font-weight="normal" text-decoration="normal" x="769.6843504905701" y="410.6968688964844" text-anchor="start" dominant-baseline="text-after-edge">body</text><path fill="none" stroke="#505050" paint-order="fill stroke markers" d=" M 737.6843504905701 414.6968688964844 L 745.6843504905701 414.6968688964844 L 745.6843504905701 422.6968688964844 L 737.6843504905701 422.6968688964844 L 737.6843504905701 414.6968688964844 Z" stroke-miterlimit="10" stroke-width="0.5" stroke-dasharray="0"/><text fill="#505050" stroke="none" font-family="monospace" font-size="14px" font-style="normal" font-weight="normal" text-decoration="normal" x="753.6843504905701" y="427.6968688964844" text-anchor="start" dominant-baseline="text-after-edge">end</text><path fill="none" stroke="#505050" paint-order="fill stroke markers" d=" M 811.6843504905701 393.6968688964844 L 853.6843504905701 393.6968688964844 L 853.6843504905701 425.6968688964844 L 811.6843504905701 425.6968688964844 L 811.6843504905701 393.6968688964844 Z" stroke-miterlimit="10" stroke-width="0.5" stroke-dasharray="0"/><text fill="#505050" stroke="none" font-family="monospace" font-size="14px" font-style="normal" font-weight="normal" text-decoration="normal" x="832.6843504905701" y="411.6968688964844" text-anchor="middle" dominant-baseline="text-after-edge">iter</text><path fill="none" stroke="#505050" paint-order="fill stroke markers" d=" M 811.6843504905701 412.6968688964844 L 819.6843504905701 412.6968688964844 L 819.6843504905701 420.6968688964844 L 811.6843504905701 420.6968688964844 L 811.6843504905701 412.6968688964844 Z" stroke-miterlimit="10" stroke-width="0.5" stroke-dasharray="0"/><text fill="#505050" stroke="none" font-family="monospace" font-size="14px" font-style="normal" font-weight="normal" text-decoration="normal" x="827.6843504905701" y="425.6968688964844" text-anchor="start" dominant-baseline="text-after-edge">i</text><path fill="none" stroke="#505050" paint-order="fill stroke markers" d=" M 845.6843504905701 411.6968688964844 L 853.6843504905701 411.6968688964844 L 853.6843504905701 419.6968688964844 L 845.6843504905701 419.6968688964844 L 845.6843504905701 411.6968688964844 Z" stroke-miterlimit="10" stroke-width="0.5" stroke-dasharray="0"/><path fill="white" stroke="#505050" paint-order="fill stroke markers" d=" M 785.9187254905701 447.47186279296875 L 827.9187254905701 447.47186279296875 L 827.9187254905701 479.47186279296875 L 785.9187254905701 479.47186279296875 L 785.9187254905701 447.47186279296875 Z" stroke-miterlimit="10" stroke-width="0.5" stroke-dasharray="0"/><path fill="#F0F0F0" stroke="none" paint-order="stroke fill markers" d=""/><text fill="#505050" stroke="none" font-family="monospace" font-size="14px" font-style="normal" font-weight="normal" text-decoration="normal" x="806.9187254905701" y="465.47186279296875" text-anchor="middle" dominant-baseline="text-after-edge">iter</text><path fill="none" stroke="#505050" paint-order="fill stroke markers" d=" M 785.9187254905701 466.47186279296875 L 793.9187254905701 466.47186279296875 L 793.9187254905701 474.47186279296875 L 785.9187254905701 474.47186279296875 L 785.9187254905701 466.47186279296875 Z" stroke-miterlimit="10" stroke-width="0.5" stroke-dasharray="0"/><text fill="#505050" stroke="none" font-family="monospace" font-size="14px" font-style="normal" font-weight="normal" text-decoration="normal" x="801.9187254905701" y="479.47186279296875" text-anchor="start" dominant-baseline="text-after-edge">i</text><path fill="none" stroke="#505050" paint-order="fill stroke markers" d=" M 819.9187254905701 465.47186279296875 L 827.9187254905701 465.47186279296875 L 827.9187254905701 473.47186279296875 L 819.9187254905701 473.47186279296875 L 819.9187254905701 465.47186279296875 Z" stroke-miterlimit="10" stroke-width="0.5" stroke-dasharray="0"/><path fill="white" stroke="#505050" paint-order="fill stroke markers" d=" M 753.9187254905701 462.47186279296875 L 769.9187254905701 462.47186279296875 L 769.9187254905701 478.47186279296875 L 753.9187254905701 478.47186279296875 L 761.9187254905701 470.47186279296875 L 753.9187254905701 462.47186279296875" stroke-miterlimit="10" stroke-width="0.5" stroke-dasharray="0"/><path fill="none" stroke="#505050" paint-order="fill stroke markers" d=" M 761.9187254905701 466.47186279296875 L 769.9187254905701 466.47186279296875 L 769.9187254905701 474.47186279296875 L 761.9187254905701 474.47186279296875 L 761.9187254905701 466.47186279296875 Z" stroke-miterlimit="10" stroke-width="0.5" stroke-dasharray="0"/><path fill="white" stroke="#505050" paint-order="fill stroke markers" d=" M 875.9187254905701 461.47186279296875 L 883.9187254905701 461.47186279296875 L 891.9187254905701 469.47186279296875 L 883.9187254905701 477.47186279296875 L 875.9187254905701 477.47186279296875 L 875.9187254905701 461.47186279296875" stroke-miterlimit="10" stroke-width="0.5" stroke-dasharray="0"/><path fill="none" stroke="#505050" paint-order="fill stroke markers" d=" M 875.9187254905701 465.47186279296875 L 883.9187254905701 465.47186279296875 L 883.9187254905701 473.47186279296875 L 875.9187254905701 473.47186279296875 L 875.9187254905701 465.47186279296875 Z" stroke-miterlimit="10" stroke-width="0.5" stroke-dasharray="0"/><path fill="white" stroke="#505050" paint-order="fill stroke markers" d=" M 653.9907104372978 235.96563720703125 L 653.9907104372978 332.3187561035156 Q 653.9907104372978 340.3187561035156 661.9907104372978 340.3187561035156 L 804.5313140749931 340.3187561035156 Q 812.5313140749931 340.3187561035156 812.5313140749931 332.3187561035156 L 812.5313140749931 235.96563720703125 Q 812.5313140749931 227.96563720703125 804.5313140749931 227.96563720703125 L 661.9907104372978 227.96563720703125 Q 653.9907104372978 227.96563720703125 653.9907104372978 235.96563720703125" stroke-miterlimit="10" stroke-width="0.5" stroke-dasharray="0"/><path fill="#F0F0F0" stroke="#505050" paint-order="fill stroke markers" d=" M 788.5313140749931 235.96563720703125 L 812.5313140749931 235.96563720703125 L 812.5313140749931 251.96563720703125 L 788.5313140749931 251.96563720703125 L 788.5313140749931 235.96563720703125 Z" stroke-miterlimit="10" stroke-width="0.5" stroke-dasharray="0"/><path fill="none" stroke="#505050" paint-order="fill stroke markers" d=" M 788.5313140749931 239.96563720703125 L 796.5313140749931 239.96563720703125 L 796.5313140749931 247.96563720703125 L 788.5313140749931 247.96563720703125 L 788.5313140749931 239.96563720703125 Z" stroke-miterlimit="10" stroke-width="0.5" stroke-dasharray="0"/><path fill="none" stroke="#505050" paint-order="fill stroke markers" d=" M 804.5313140749931 239.96563720703125 L 812.5313140749931 239.96563720703125 L 812.5313140749931 247.96563720703125 L 804.5313140749931 247.96563720703125 L 804.5313140749931 239.96563720703125 Z" stroke-miterlimit="10" stroke-width="0.5" stroke-dasharray="0"/><path fill="white" stroke="#505050" paint-order="fill stroke markers" d=" M 737.03445738554 296.8968811035156 L 761.03445738554 296.8968811035156 L 761.03445738554 312.8968811035156 L 737.03445738554 312.8968811035156 L 737.03445738554 296.8968811035156 Z" stroke-miterlimit="10" stroke-width="0.5" stroke-dasharray="0"/><path fill="#F0F0F0" stroke="none" paint-order="stroke fill markers" d=""/><path fill="none" stroke="#505050" paint-order="fill stroke markers" d=" M 737.03445738554 300.8968811035156 L 745.03445738554 300.8968811035156 L 745.03445738554 308.8968811035156 L 737.03445738554 308.8968811035156 L 737.03445738554 300.8968811035156 Z" stroke-miterlimit="10" stroke-width="0.5" stroke-dasharray="0"/><path fill="none" stroke="#505050" paint-order="fill stroke markers" d=" M 753.03445738554 300.8968811035156 L 761.03445738554 300.8968811035156 L 761.03445738554 308.8968811035156 L 753.03445738554 308.8968811035156 L 753.03445738554 300.8968811035156 Z" stroke-miterlimit="10" stroke-width="0.5" stroke-dasharray="0"/><path fill="white" stroke="#505050" paint-order="fill stroke markers" d=" M 707.6094695925713 239.67813110351562 L 731.6094695925713 239.67813110351562 L 731.6094695925713 281.6781311035156 L 707.6094695925713 281.6781311035156 L 707.6094695925713 239.67813110351562 Z" stroke-miterlimit="10" stroke-width="0.5" stroke-dasharray="0"/><path fill="#F0F0F0" stroke="none" paint-order="stroke fill markers" d=""/><text fill="#505050" stroke="none" font-family="monospace" font-size="14px" font-style="normal" font-weight="normal" text-decoration="normal" x="719.6094695925713" y="257.6781311035156" text-anchor="middle" dominant-baseline="text-after-edge">*</text><path fill="none" stroke="#505050" paint-order="fill stroke markers" d=" M 707.6094695925713 257.6781311035156 L 715.6094695925713 257.6781311035156 L 715.6094695925713 265.6781311035156 L 707.6094695925713 265.6781311035156 L 707.6094695925713 257.6781311035156 Z" stroke-miterlimit="10" stroke-width="0.5" stroke-dasharray="0"/><path fill="none" stroke="#505050" paint-order="fill stroke markers" d=" M 707.6094695925713 269.6781311035156 L 715.6094695925713 269.6781311035156 L 715.6094695925713 277.6781311035156 L 707.6094695925713 277.6781311035156 L 707.6094695925713 269.6781311035156 Z" stroke-miterlimit="10" stroke-width="0.5" stroke-dasharray="0"/><path fill="none" stroke="#505050" paint-order="fill stroke markers" d=" M 723.6094695925713 257.6781311035156 L 731.6094695925713 257.6781311035156 L 731.6094695925713 265.6781311035156 L 723.6094695925713 265.6781311035156 L 723.6094695925713 257.6781311035156 Z" stroke-miterlimit="10" stroke-width="0.5" stroke-dasharray="0"/><path fill="white" stroke="#505050" paint-order="fill stroke markers" d=" M 755.878192126751 253.9937744140625 L 763.878192126751 253.9937744140625 L 771.878192126751 261.9937744140625 L 763.878192126751 269.9937744140625 L 755.878192126751 269.9937744140625 L 755.878192126751 253.9937744140625" stroke-miterlimit="10" stroke-width="0.5" stroke-dasharray="0"/><path fill="none" stroke="#505050" paint-order="fill stroke markers" d=" M 755.878192126751 257.9937744140625 L 763.878192126751 257.9937744140625 L 763.878192126751 265.9937744140625 L 755.878192126751 265.9937744140625 L 755.878192126751 257.9937744140625 Z" stroke-miterlimit="10" stroke-width="0.5" stroke-dasharray="0"/><path fill="white" stroke="#505050" paint-order="fill stroke markers" d=" M 661.9907104372978 264.5718688964844 L 694.9907104372978 264.5718688964844 L 694.9907104372978 314.5718688964844 L 661.9907104372978 314.5718688964844 L 661.9907104372978 264.5718688964844 Z" stroke-miterlimit="10" stroke-width="0.5" stroke-dasharray="0"/><path fill="#F0F0F0" stroke="none" paint-order="stroke fill markers" d=" M 670.9907104372978 294.5718688964844 L 694.9907104372978 294.5718688964844 L 694.9907104372978 310.5718688964844 L 670.9907104372978 310.5718688964844 L 670.9907104372978 294.5718688964844 Z"/><text fill="#505050" stroke="none" font-family="monospace" font-size="14px" font-style="normal" font-weight="normal" text-decoration="normal" x="678.4907104372978" y="282.5718688964844" text-anchor="middle" dominant-baseline="text-after-edge">var</text><path fill="none" stroke="#505050" paint-order="fill stroke markers" d=" M 686.9907104372978 282.5718688964844 L 694.9907104372978 282.5718688964844 L 694.9907104372978 290.5718688964844 L 686.9907104372978 290.5718688964844 L 686.9907104372978 282.5718688964844 Z" stroke-miterlimit="10" stroke-width="0.5" stroke-dasharray="0"/><path fill="none" stroke="#505050" paint-order="fill stroke markers" d=" M 670.9907104372978 294.5718688964844 L 694.9907104372978 294.5718688964844 L 694.9907104372978 310.5718688964844 L 670.9907104372978 310.5718688964844 L 670.9907104372978 294.5718688964844 Z" stroke-miterlimit="10" stroke-width="0.5" stroke-dasharray="0"/><path fill="none" stroke="#505050" paint-order="fill stroke markers" d=" M 670.9907104372978 298.5718688964844 L 678.9907104372978 298.5718688964844 L 678.9907104372978 306.5718688964844 L 670.9907104372978 306.5718688964844 L 670.9907104372978 298.5718688964844 Z" stroke-miterlimit="10" stroke-width="0.5" stroke-dasharray="0"/><path fill="none" stroke="#505050" paint-order="fill stroke markers" d=" M 686.9907104372978 298.5718688964844 L 694.9907104372978 298.5718688964844 L 694.9907104372978 306.5718688964844 L 686.9907104372978 306.5718688964844 L 686.9907104372978 298.5718688964844 Z" stroke-miterlimit="10" stroke-width="0.5" stroke-dasharray="0"/><path fill="white" stroke="#505050" paint-order="fill stroke markers" d=" M 662.034442126751 234.69064331054688 L 678.034442126751 234.69064331054688 L 678.034442126751 250.69064331054688 L 662.034442126751 250.69064331054688 L 670.034442126751 242.69064331054688 L 662.034442126751 234.69064331054688" stroke-miterlimit="10" stroke-width="0.5" stroke-dasharray="0"/><path fill="none" stroke="#505050" paint-order="fill stroke markers" d=" M 670.034442126751 238.69064331054688 L 678.034442126751 238.69064331054688 L 678.034442126751 246.69064331054688 L 670.034442126751 246.69064331054688 L 670.034442126751 238.69064331054688 Z" stroke-miterlimit="10" stroke-width="0.5" stroke-dasharray="0"/><path fill="white" stroke="#505050" paint-order="fill stroke markers" d=" M 772.5313140749931 304.3187561035156 L 772.5313140749931 316.3187561035156 Q 772.5313140749931 324.3187561035156 780.5313140749931 324.3187561035156 L 788.5313140749931 324.3187561035156 Q 796.5313140749931 324.3187561035156 796.5313140749931 316.3187561035156 L 796.5313140749931 304.3187561035156 Q 796.5313140749931 296.3187561035156 788.5313140749931 296.3187561035156 L 780.5313140749931 296.3187561035156 Q 772.5313140749931 296.3187561035156 772.5313140749931 304.3187561035156" stroke-miterlimit="10" stroke-width="0.5" stroke-dasharray="0"/><path fill="none" stroke="#505050" paint-order="fill stroke markers" d=" M 772.5313140749931 300.3187561035156 L 780.5313140749931 300.3187561035156 L 780.5313140749931 308.3187561035156 L 772.5313140749931 308.3187561035156 L 772.5313140749931 300.3187561035156 Z" stroke-miterlimit="10" stroke-width="0.5" stroke-dasharray="0"/><path fill="none" stroke="#505050" paint-order="fill stroke markers" d=" M 772.5313140749931 312.3187561035156 L 780.5313140749931 312.3187561035156 L 780.5313140749931 320.3187561035156 L 772.5313140749931 320.3187561035156 L 772.5313140749931 312.3187561035156 Z" stroke-miterlimit="10" stroke-width="0.5" stroke-dasharray="0"/><path fill="none" stroke="#505050" paint-order="fill stroke markers" d=" M 788.5313140749931 300.3187561035156 L 796.5313140749931 300.3187561035156 L 796.5313140749931 308.3187561035156 L 788.5313140749931 308.3187561035156 L 788.5313140749931 300.3187561035156 Z" stroke-miterlimit="10" stroke-width="0.5" stroke-dasharray="0"/><path fill="none" stroke="#505050" paint-order="fill stroke markers" d=" M 323.97501143813133 57.59372329711914 C 328.5243524166595 57.59372329711914 333.922523334359 53.143733978271484 338.4718643128872 53.143733978271484" stroke-miterlimit="10" stroke-dasharray="0"/><path fill="none" stroke="#505050" paint-order="fill stroke markers" d=" M 313.5437408387661 33.206233978271484 C 321.3921401760318 33.206233978271484 330.6234649756215 41.143733978271484 338.4718643128872 41.143733978271484" stroke-miterlimit="10" stroke-dasharray="0"/><path fill="none" stroke="#505050" paint-order="fill stroke markers" d=" M 362.4718643128872 41.143733978271484 C 366.35314433279353 41.143733978271484 371.5280995517699 41.19057846069336 375.40937957167625 41.19057846069336" stroke-miterlimit="10" stroke-dasharray="0"/><path fill="none" stroke="#505050" paint-order="fill stroke markers" d=" M 898.0187408328056 46.60310363769531 C 905.0803269220122 46.60310363769531 914.4915327953569 46.15623092651367 921.5531188845634 46.15623092651367" stroke-miterlimit="10" stroke-dasharray="0"/><path fill="none" stroke="#505050" paint-order="fill stroke markers" d=" M 516.0405879914761 117.44064331054688 C 558.4302987038739 117.44064331054688 603.2165881216877 61.06561279296875 645.6062988340855 61.06561279296875" stroke-miterlimit="10" stroke-dasharray="0"/><path fill="none" stroke="#505050" paint-order="fill stroke markers" d=" M 743.7031646668911 66.05315399169922 C 750.7256620728623 66.05315399169922 754.8901399171699 80.76249694824219 761.9126373231411 80.76249694824219" stroke-miterlimit="10" stroke-dasharray="0"/><path fill="none" stroke="#505050" paint-order="fill stroke markers" d=" M 565.7689147889614 57.30310821533203 C 589.8472822581273 57.30310821533203 621.5279313649196 49.06561279296875 645.6062988340855 49.06561279296875" stroke-miterlimit="10" stroke-dasharray="0"/><path fill="none" stroke="#505050" paint-order="fill stroke markers" d=" M 669.6062988340855 49.06561279296875 C 685.1920965728115 49.06561279296875 703.1173669281651 66.05315399169922 718.7031646668911 66.05315399169922" stroke-miterlimit="10" stroke-dasharray="0"/><path fill="none" stroke="#505050" paint-order="fill stroke markers" d=" M 565.7689147889614 57.30310821533203 C 599.7492532627315 57.30310821533203 583.8509359462529 157.89686584472656 617.831274420023 157.89686584472656" stroke-miterlimit="10" stroke-dasharray="0"/><path fill="none" stroke="#505050" paint-order="fill stroke markers" d=" M 642.831274420023 157.89686584472656 C 656.1931596672745 157.89686584472656 670.9693708443432 141.72500610351562 684.3312560915947 141.72500610351562" stroke-miterlimit="10" stroke-dasharray="0"/><path fill="none" stroke="#505050" paint-order="fill stroke markers" d=" M 726.3312560915947 140.72500610351562 C 744.2471520427686 140.72500610351562 743.9967413719672 92.76249694824219 761.9126373231411 92.76249694824219" stroke-miterlimit="10" stroke-dasharray="0"/><path fill="none" stroke="#505050" paint-order="fill stroke markers" d=" M 785.9126373231411 80.76249694824219 C 790.026526232163 80.76249694824219 795.5110530956588 80.62812662124634 799.6249420046806 80.62812662124634" stroke-miterlimit="10" stroke-dasharray="0"/><path fill="none" stroke="#505050" paint-order="fill stroke markers" d=" M 565.7689147889614 57.30310821533203 C 626.3100397550702 57.30310821533203 701.3715123570323 104.76249694824219 761.9126373231411 104.76249694824219" stroke-miterlimit="10" stroke-dasharray="0"/><path fill="none" stroke="#505050" paint-order="fill stroke markers" d=" M 672.6437622010708 109.8843765258789 C 689.4402670612374 109.8843765258789 701.9066598067245 78.05315399169922 718.7031646668911 78.05315399169922" stroke-miterlimit="10" stroke-dasharray="0"/><path fill="none" stroke="#505050" paint-order="fill stroke markers" d=" M 565.7689147889614 57.30310821533203 C 590.8212241505776 57.30310821533203 605.5914528394546 109.8843765258789 630.6437622010708 109.8843765258789" stroke-miterlimit="10" stroke-dasharray="0"/><path fill="none" stroke="#505050" paint-order="fill stroke markers" d=" M 670.6469146609306 387.3999938964844 C 691.2104177516999 387.3999938964844 717.1208473998008 401.6968688964844 737.6843504905701 401.6968688964844" stroke-miterlimit="10" stroke-dasharray="0"/><path fill="none" stroke="#505050" paint-order="fill stroke markers" d=" M 712.3718749880791 426.5031433105469 C 720.3185309052726 426.5031433105469 729.7376945733765 418.6968688964844 737.6843504905701 418.6968688964844" stroke-miterlimit="10" stroke-dasharray="0"/><path fill="none" stroke="#505050" paint-order="fill stroke markers" d=" M 769.9187254905701 470.47186279296875 C 774.71872549057 470.47186279296875 781.1187254905701 470.47186279296875 785.9187254905701 470.47186279296875" stroke-miterlimit="10" stroke-dasharray="0"/><path fill="none" stroke="#505050" paint-order="fill stroke markers" d=" M 827.9187254905701 469.47186279296875 C 842.31872549057 469.47186279296875 861.5187254905701 469.47186279296875 875.9187254905701 469.47186279296875" stroke-miterlimit="10" stroke-dasharray="0"/><path fill="none" stroke="#505050" paint-order="fill stroke markers" d=" M 589.7250701785088 405.11248779296875 C 597.0063027096566 405.11248779296875 606.7125601815407 405.4281311035156 613.9937927126884 405.4281311035156" stroke-miterlimit="10" stroke-dasharray="0"/><path fill="none" stroke="#505050" paint-order="fill stroke markers" d=" M 553.1063110232353 430.0062255859375 C 558.5186432488416 430.0062255859375 560.3127379529025 417.11248779296875 565.7250701785088 417.11248779296875" stroke-miterlimit="10" stroke-dasharray="0"/><path fill="none" stroke="#505050" paint-order="fill stroke markers" d=" M 536.1500427126884 386.125 C 546.693696007742 386.125 555.1814168834552 405.11248779296875 565.7250701785088 405.11248779296875" stroke-miterlimit="10" stroke-dasharray="0"/><path fill="none" stroke="#505050" paint-order="fill stroke markers" d=" M 589.7250701785088 405.11248779296875 C 602.7924408386864 405.11248779296875 582.0826873112999 448.33123779296875 595.1500579714775 448.33123779296875" stroke-miterlimit="10" stroke-dasharray="0"/><path fill="none" stroke="#505050" paint-order="fill stroke markers" d=" M 619.1500579714775 448.33123779296875 C 622.6034729194399 448.33123779296875 627.1934997129682 447.75311279296875 630.6469146609306 447.75311279296875" stroke-miterlimit="10" stroke-dasharray="0"/><path fill="none" stroke="#505050" paint-order="fill stroke markers" d=" M 731.6094695925713 261.6781311035156 C 738.890702123719 261.6781311035156 748.5969595956032 261.9937744140625 755.878192126751 261.9937744140625" stroke-miterlimit="10" stroke-dasharray="0"/><path fill="none" stroke="#505050" paint-order="fill stroke markers" d=" M 694.9907104372978 286.5718688964844 C 700.4030426629041 286.5718688964844 702.197137366965 273.6781311035156 707.6094695925713 273.6781311035156" stroke-miterlimit="10" stroke-dasharray="0"/><path fill="none" stroke="#505050" paint-order="fill stroke markers" d=" M 678.034442126751 242.69064331054688 C 688.5780954218045 242.69064331054688 697.0658162975177 261.6781311035156 707.6094695925713 261.6781311035156" stroke-miterlimit="10" stroke-dasharray="0"/><path fill="none" stroke="#505050" paint-order="fill stroke markers" d=" M 731.6094695925713 261.6781311035156 C 744.6768402527489 261.6781311035156 723.9670867253624 304.8968811035156 737.03445738554 304.8968811035156" stroke-miterlimit="10" stroke-dasharray="0"/><path fill="none" stroke="#505050" paint-order="fill stroke markers" d=" M 761.03445738554 304.8968811035156 C 764.4878723335024 304.8968811035156 769.0778991270307 304.3187561035156 772.5313140749931 304.3187561035156" stroke-miterlimit="10" stroke-dasharray="0"/></g></g></svg>