<svg version="1.1" xmlns="http://www.w3.org/2000/svg" xmlns:xlink="http://www.w3.org/1999/xlink" width="574.9404846131802" height="659.7314605712891"><defs/><g transform="translate(-422.99566039443016,-41.09827423095703)"><g><path fill="white" stroke="#505050" paint-order="fill stroke markers" d=" M 540.9281669557095 90.64017486572266 L 540.9281669557095 137.47723770141602 Q 540.9281669557095 145.47723770141602 548.9281669557095 145.47723770141602 L 644.4506088197231 145.47723770141602 Q 652.4506088197231 145.47723770141602 652.4506088197231 137.47723770141602 L 652.4506088197231 90.64017486572266 Q 652.4506088197231 82.64017486572266 644.4506088197231 82.64017486572266 L 548.9281669557095 82.64017486572266 Q 540.9281669557095 82.64017486572266 540.9281669557095 90.64017486572266" stroke-miterlimit="10" stroke-width="0.5" stroke-dasharray=""/><path fill="#F0F0F0" stroke="#505050" paint-order="fill stroke markers" d=" M 627.4506088197231 90.64017486572266 L 652.4506088197231 90.64017486572266 L 652.4506088197231 120.64017486572266 L 627.4506088197231 120.64017486572266 L 627.4506088197231 90.64017486572266 Z" stroke-miterlimit="10" stroke-width="0.5" stroke-dasharray=""/><text fill="#505050" stroke="none" font-family="monospace" font-size="14px" font-style="normal" font-weight="normal" text-decoration="normal" x="639.9506088197231" y="108.64017486572266" text-anchor="middle" dominant-baseline="text-after-edge">+1</text><path fill="none" stroke="#505050" paint-order="fill stroke markers" d=" M 627.4506088197231 108.64017486572266 L 635.4506088197231 108.64017486572266 L 635.4506088197231 116.64017486572266 L 627.4506088197231 116.64017486572266 L 627.4506088197231 108.64017486572266 Z" stroke-miterlimit="10" stroke-width="0.5" stroke-dasharray=""/><path fill="none" stroke="#505050" paint-order="fill stroke markers" d=" M 644.4506088197231 108.64017486572266 L 652.4506088197231 108.64017486572266 L 652.4506088197231 116.64017486572266 L 644.4506088197231 116.64017486572266 L 644.4506088197231 108.64017486572266 Z" stroke-miterlimit="10" stroke-width="0.5" stroke-dasharray=""/><path fill="white" stroke="#505050" paint-order="fill stroke markers" d=" M 588.8802810609341 85.66716384887695 L 612.8802810609341 85.66716384887695 L 612.8802810609341 127.66716384887695 L 588.8802810609341 127.66716384887695 L 588.8802810609341 85.66716384887695 Z" stroke-miterlimit="10" stroke-width="0.5" stroke-dasharray=""/><path fill="#F0F0F0" stroke="none" paint-order="stroke fill markers" d=""/><text fill="#505050" stroke="none" font-family="monospace" font-size="14px" font-style="normal" font-weight="normal" text-decoration="normal" x="600.8802810609341" y="103.66716384887695" text-anchor="middle" dominant-baseline="text-after-edge">+</text><path fill="none" stroke="#505050" paint-order="fill stroke markers" d=" M 588.8802810609341 103.66716384887695 L 596.8802810609341 103.66716384887695 L 596.8802810609341 111.66716384887695 L 588.8802810609341 111.66716384887695 L 588.8802810609341 103.66716384887695 Z" stroke-miterlimit="10" stroke-width="0.5" stroke-dasharray=""/><path fill="none" stroke="#505050" paint-order="fill stroke markers" d=" M 588.8802810609341 115.66716384887695 L 596.8802810609341 115.66716384887695 L 596.8802810609341 123.66716384887695 L 588.8802810609341 123.66716384887695 L 588.8802810609341 115.66716384887695 Z" stroke-miterlimit="10" stroke-width="0.5" stroke-dasharray=""/><path fill="none" stroke="#505050" paint-order="fill stroke markers" d=" M 604.8802810609341 103.66716384887695 L 612.8802810609341 103.66716384887695 L 612.8802810609341 111.66716384887695 L 604.8802810609341 111.66716384887695 L 604.8802810609341 103.66716384887695 Z" stroke-miterlimit="10" stroke-width="0.5" stroke-dasharray=""/><path fill="white" stroke="#505050" paint-order="fill stroke markers" d=" M 544.6952262818813 111.47723770141602 L 576.6952262818813 111.47723770141602 L 576.6952262818813 129.47723770141602 L 544.6952262818813 129.47723770141602 L 544.6952262818813 111.47723770141602 Z" stroke-miterlimit="10" stroke-width="0.5" stroke-dasharray=""/><path fill="#F0F0F0" stroke="none" paint-order="stroke fill markers" d=""/><path fill="none" stroke="#505050" paint-order="fill stroke markers" d=" M 568.6952262818813 115.47723770141602 L 576.6952262818813 115.47723770141602 L 576.6952262818813 123.47723770141602 L 568.6952262818813 123.47723770141602 L 568.6952262818813 115.47723770141602 Z" stroke-miterlimit="10" stroke-width="0.5" stroke-dasharray=""/><text fill="#505050" stroke="none" font-family="monospace" font-size="14px" font-style="normal" font-weight="normal" text-decoration="normal" x="560.6952262818813" y="129.47723770141602" text-anchor="end" dominant-baseline="text-after-edge">1</text><path fill="white" stroke="#505050" paint-order="fill stroke markers" d=" M 675.7239814698696 88.78523254394531 L 675.7239814698696 135.29772758483887 Q 675.7239814698696 143.29772758483887 683.7239814698696 143.29772758483887 L 762.1520896852016 143.29772758483887 Q 770.1520896852016 143.29772758483887 770.1520896852016 135.29772758483887 L 770.1520896852016 88.78523254394531 Q 770.1520896852016 80.78523254394531 762.1520896852016 80.78523254394531 L 683.7239814698696 80.78523254394531 Q 675.7239814698696 80.78523254394531 675.7239814698696 88.78523254394531" stroke-miterlimit="10" stroke-width="0.5" stroke-dasharray=""/><path fill="#F0F0F0" stroke="#505050" paint-order="fill stroke markers" d=" M 728.1520896852016 88.78523254394531 L 770.1520896852016 88.78523254394531 L 770.1520896852016 130.7852325439453 L 728.1520896852016 130.7852325439453 L 728.1520896852016 88.78523254394531 Z" stroke-miterlimit="10" stroke-width="0.5" stroke-dasharray="6,3"/><text fill="#505050" stroke="none" font-family="monospace" font-size="14px" font-style="normal" font-weight="normal" text-decoration="normal" x="749.1520896852016" y="106.78523254394531" text-anchor="middle" dominant-baseline="text-after-edge">body</text><path fill="none" stroke="#505050" paint-order="fill stroke markers" d=" M 728.1520896852016 106.78523254394531 L 736.1520896852016 106.78523254394531 L 736.1520896852016 114.78523254394531 L 728.1520896852016 114.78523254394531 L 728.1520896852016 106.78523254394531 Z" stroke-miterlimit="10" stroke-width="0.5" stroke-dasharray="0"/><path fill="none" stroke="#505050" paint-order="fill stroke markers" d=" M 728.1520896852016 118.78523254394531 L 736.1520896852016 118.78523254394531 L 736.1520896852016 126.78523254394531 L 728.1520896852016 126.78523254394531 L 728.1520896852016 118.78523254394531 Z" stroke-miterlimit="10" stroke-width="0.5" stroke-dasharray="0"/><path fill="none" stroke="#505050" paint-order="fill stroke markers" d=" M 762.1520896852016 106.78523254394531 L 770.1520896852016 106.78523254394531 L 770.1520896852016 114.78523254394531 L 762.1520896852016 114.78523254394531 L 762.1520896852016 106.78523254394531 Z" stroke-miterlimit="10" stroke-width="0.5" stroke-dasharray="0"/><path fill="none" stroke="#505050" paint-order="fill stroke markers" d=" M 762.1520896852016 118.78523254394531 L 770.1520896852016 118.78523254394531 L 770.1520896852016 126.78523254394531 L 762.1520896852016 126.78523254394531 L 762.1520896852016 118.78523254394531 Z" stroke-miterlimit="10" stroke-width="0.5" stroke-dasharray="0"/><path fill="white" stroke="#505050" paint-order="fill stroke markers" d=" M 706.4177299439907 87.74459266662598 L 714.4177299439907 87.74459266662598 L 722.4177299439907 95.74459266662598 L 714.4177299439907 103.74459266662598 L 706.4177299439907 103.74459266662598 L 706.4177299439907 87.74459266662598" stroke-miterlimit="10" stroke-width="0.5" stroke-dasharray="0"/><path fill="none" stroke="#505050" paint-order="fill stroke markers" d=" M 706.4177299439907 91.74459266662598 L 714.4177299439907 91.74459266662598 L 714.4177299439907 99.74459266662598 L 706.4177299439907 99.74459266662598 L 706.4177299439907 91.74459266662598 Z" stroke-miterlimit="10" stroke-width="0.5" stroke-dasharray="0"/><path fill="white" stroke="#505050" paint-order="fill stroke markers" d=" M 679.4302307069302 87.8039779663086 L 695.4302307069302 87.8039779663086 L 695.4302307069302 103.8039779663086 L 679.4302307069302 103.8039779663086 L 687.4302307069302 95.8039779663086 L 679.4302307069302 87.8039779663086" stroke-miterlimit="10" stroke-width="0.5" stroke-dasharray="0"/><path fill="none" stroke="#505050" paint-order="fill stroke markers" d=" M 687.4302307069302 91.8039779663086 L 695.4302307069302 91.8039779663086 L 695.4302307069302 99.8039779663086 L 687.4302307069302 99.8039779663086 L 687.4302307069302 91.8039779663086 Z" stroke-miterlimit="10" stroke-width="0.5" stroke-dasharray="0"/><path fill="white" stroke="#505050" paint-order="fill stroke markers" d=" M 679.711552798748 108.52896499633789 L 695.711552798748 108.52896499633789 L 695.711552798748 124.52896499633789 L 679.711552798748 124.52896499633789 L 687.711552798748 116.52896499633789 L 679.711552798748 108.52896499633789" stroke-miterlimit="10" stroke-width="0.5" stroke-dasharray="0"/><path fill="none" stroke="#505050" paint-order="fill stroke markers" d=" M 687.711552798748 112.52896499633789 L 695.711552798748 112.52896499633789 L 695.711552798748 120.52896499633789 L 687.711552798748 120.52896499633789 L 687.711552798748 112.52896499633789 Z" stroke-miterlimit="10" stroke-width="0.5" stroke-dasharray="0"/><path fill="white" stroke="#505050" paint-order="fill stroke markers" d=" M 705.5146781802177 111.29772758483887 L 713.5146781802177 111.29772758483887 L 721.5146781802177 119.29772758483887 L 713.5146781802177 127.29772758483887 L 705.5146781802177 127.29772758483887 L 705.5146781802177 111.29772758483887" stroke-miterlimit="10" stroke-width="0.5" stroke-dasharray="0"/><path fill="none" stroke="#505050" paint-order="fill stroke markers" d=" M 705.5146781802177 115.29772758483887 L 713.5146781802177 115.29772758483887 L 713.5146781802177 123.29772758483887 L 705.5146781802177 123.29772758483887 L 705.5146781802177 115.29772758483887 Z" stroke-miterlimit="10" stroke-width="0.5" stroke-dasharray="0"/><path fill="white" stroke="#505050" paint-order="fill stroke markers" d=" M 423.99566039443016 206.7390594482422 L 423.99566039443016 393.43907165527344 Q 423.99566039443016 401.43907165527344 431.99566039443016 401.43907165527344 L 967.2456909120083 401.43907165527344 Q 975.2456909120083 401.43907165527344 975.2456909120083 393.43907165527344 L 975.2456909120083 206.7390594482422 Q 975.2456909120083 198.7390594482422 967.2456909120083 198.7390594482422 L 431.99566039443016 198.7390594482422 Q 423.99566039443016 198.7390594482422 423.99566039443016 206.7390594482422" stroke-miterlimit="10" stroke-width="0.5" stroke-dasharray="0"/><path fill="#F0F0F0" stroke="#505050" paint-order="fill stroke markers" d=" M 859.2456909120083 206.7390594482422 L 975.2456909120083 206.7390594482422 L 975.2456909120083 274.7390594482422 L 859.2456909120083 274.7390594482422 L 859.2456909120083 206.7390594482422 Z" stroke-miterlimit="10" stroke-width="0.5" stroke-dasharray="0"/><text fill="#505050" stroke="none" font-family="monospace" font-size="14px" font-style="normal" font-weight="normal" text-decoration="normal" x="917.2456909120083" y="224.7390594482422" text-anchor="middle" dominant-baseline="text-after-edge">iterbase</text><path fill="none" stroke="#505050" paint-order="fill stroke markers" d=" M 859.2456909120083 224.7390594482422 L 883.2456909120083 224.7390594482422 L 883.2456909120083 252.7390594482422 L 859.2456909120083 252.7390594482422 L 859.2456909120083 224.7390594482422 Z" stroke-miterlimit="10" stroke-width="0.5" stroke-dasharray="0"/><path fill="none" stroke="#505050" paint-order="fill stroke markers" d=" M 859.2456909120083 228.7390594482422 L 867.2456909120083 228.7390594482422 L 867.2456909120083 236.7390594482422 L 859.2456909120083 236.7390594482422 L 859.2456909120083 228.7390594482422 Z" stroke-miterlimit="10" stroke-width="0.5" stroke-dasharray="0"/><path fill="none" stroke="#505050" paint-order="fill stroke markers" d=" M 859.2456909120083 240.7390594482422 L 867.2456909120083 240.7390594482422 L 867.2456909120083 248.7390594482422 L 859.2456909120083 248.7390594482422 L 859.2456909120083 240.7390594482422 Z" stroke-miterlimit="10" stroke-width="0.5" stroke-dasharray="0"/><path fill="none" stroke="#505050" paint-order="fill stroke markers" d=" M 875.2456909120083 228.7390594482422 L 883.2456909120083 228.7390594482422 L 883.2456909120083 236.7390594482422 L 875.2456909120083 236.7390594482422 L 875.2456909120083 228.7390594482422 Z" stroke-miterlimit="10" stroke-width="0.5" stroke-dasharray="0"/><path fill="none" stroke="#505050" paint-order="fill stroke markers" d=" M 875.2456909120083 240.7390594482422 L 883.2456909120083 240.7390594482422 L 883.2456909120083 248.7390594482422 L 875.2456909120083 248.7390594482422 L 875.2456909120083 240.7390594482422 Z" stroke-miterlimit="10" stroke-width="0.5" stroke-dasharray="0"/><text fill="#505050" stroke="none" font-family="monospace" font-size="14px" font-style="normal" font-weight="normal" text-decoration="normal" x="891.2456909120083" y="247.7390594482422" text-anchor="start" dominant-baseline="text-after-edge">body</text><path fill="none" stroke="#505050" paint-order="fill stroke markers" d=" M 859.2456909120083 256.7390594482422 L 867.2456909120083 256.7390594482422 L 867.2456909120083 264.7390594482422 L 859.2456909120083 264.7390594482422 L 859.2456909120083 256.7390594482422 Z" stroke-miterlimit="10" stroke-width="0.5" stroke-dasharray="0"/><text fill="#505050" stroke="none" font-family="monospace" font-size="14px" font-style="normal" font-weight="normal" text-decoration="normal" x="875.2456909120083" y="270.7390594482422" text-anchor="start" dominant-baseline="text-after-edge">end</text><path fill="none" stroke="#505050" paint-order="fill stroke markers" d=" M 933.2456909120083 224.7390594482422 L 975.2456909120083 224.7390594482422 L 975.2456909120083 270.7390594482422 L 933.2456909120083 270.7390594482422 L 933.2456909120083 224.7390594482422 Z" stroke-miterlimit="10" stroke-width="0.5" stroke-dasharray="0"/><text fill="#505050" stroke="none" font-family="monospace" font-size="14px" font-style="normal" font-weight="normal" text-decoration="normal" x="954.2456909120083" y="242.7390594482422" text-anchor="middle" dominant-baseline="text-after-edge">iter</text><path fill="none" stroke="#505050" paint-order="fill stroke markers" d=" M 933.2456909120083 242.7390594482422 L 941.2456909120083 242.7390594482422 L 941.2456909120083 250.7390594482422 L 933.2456909120083 250.7390594482422 L 933.2456909120083 242.7390594482422 Z" stroke-miterlimit="10" stroke-width="0.5" stroke-dasharray="0"/><text fill="#505050" stroke="none" font-family="monospace" font-size="14px" font-style="normal" font-weight="normal" text-decoration="normal" x="949.2456909120083" y="256.7390594482422" text-anchor="start" dominant-baseline="text-after-edge">i</text><path fill="none" stroke="#505050" paint-order="fill stroke markers" d=" M 933.2456909120083 256.7390594482422 L 941.2456909120083 256.7390594482422 L 941.2456909120083 264.7390594482422 L 933.2456909120083 264.7390594482422 L 933.2456909120083 256.7390594482422 Z" stroke-miterlimit="10" stroke-width="0.5" stroke-dasharray="0"/><text fill="#505050" stroke="none" font-family="monospace" font-size="14px" font-style="normal" font-weight="normal" text-decoration="normal" x="949.2456909120083" y="270.7390594482422" text-anchor="start" dominant-baseline="text-after-edge">p</text><path fill="none" stroke="#505050" paint-order="fill stroke markers" d=" M 967.2456909120083 242.7390594482422 L 975.2456909120083 242.7390594482422 L 975.2456909120083 250.7390594482422 L 967.2456909120083 250.7390594482422 L 967.2456909120083 242.7390594482422 Z" stroke-miterlimit="10" stroke-width="0.5" stroke-dasharray="0"/><path fill="none" stroke="#505050" paint-order="fill stroke markers" d=" M 967.2456909120083 254.7390594482422 L 975.2456909120083 254.7390594482422 L 975.2456909120083 262.7390594482422 L 967.2456909120083 262.7390594482422 L 967.2456909120083 254.7390594482422 Z" stroke-miterlimit="10" stroke-width="0.5" stroke-dasharray="0"/><path fill="white" stroke="#505050" paint-order="fill stroke markers" d=" M 507.73320922255516 218.78591918945312 L 507.73320922255516 377.43907165527344 Q 507.73320922255516 385.43907165527344 515.7332092225552 385.43907165527344 L 814.8735839724541 385.43907165527344 Q 822.8735839724541 385.43907165527344 822.8735839724541 377.43907165527344 L 822.8735839724541 218.78591918945312 Q 822.8735839724541 210.78591918945312 814.8735839724541 210.78591918945312 L 515.7332092225552 210.78591918945312 Q 507.73320922255516 210.78591918945312 507.73320922255516 218.78591918945312" stroke-miterlimit="10" stroke-width="0.5" stroke-dasharray="0"/><path fill="#F0F0F0" stroke="#505050" paint-order="fill stroke markers" d=" M 780.8735839724541 218.78591918945312 L 822.8735839724541 218.78591918945312 L 822.8735839724541 264.7859191894531 L 780.8735839724541 264.7859191894531 L 780.8735839724541 218.78591918945312 Z" stroke-miterlimit="10" stroke-width="0.5" stroke-dasharray="0"/><text fill="#505050" stroke="none" font-family="monospace" font-size="14px" font-style="normal" font-weight="normal" text-decoration="normal" x="801.8735839724541" y="236.78591918945312" text-anchor="middle" dominant-baseline="text-after-edge">iter</text><path fill="none" stroke="#505050" paint-order="fill stroke markers" d=" M 780.8735839724541 236.78591918945312 L 788.8735839724541 236.78591918945312 L 788.8735839724541 244.78591918945312 L 780.8735839724541 244.78591918945312 L 780.8735839724541 236.78591918945312 Z" stroke-miterlimit="10" stroke-width="0.5" stroke-dasharray="0"/><text fill="#505050" stroke="none" font-family="monospace" font-size="14px" font-style="normal" font-weight="normal" text-decoration="normal" x="796.8735839724541" y="250.78591918945312" text-anchor="start" dominant-baseline="text-after-edge">i</text><path fill="none" stroke="#505050" paint-order="fill stroke markers" d=" M 780.8735839724541 250.78591918945312 L 788.8735839724541 250.78591918945312 L 788.8735839724541 258.7859191894531 L 780.8735839724541 258.7859191894531 L 780.8735839724541 250.78591918945312 Z" stroke-miterlimit="10" stroke-width="0.5" stroke-dasharray="0"/><text fill="#505050" stroke="none" font-family="monospace" font-size="14px" font-style="normal" font-weight="normal" text-decoration="normal" x="796.8735839724541" y="264.7859191894531" text-anchor="start" dominant-baseline="text-after-edge">p</text><path fill="none" stroke="#505050" paint-order="fill stroke markers" d=" M 814.8735839724541 236.78591918945312 L 822.8735839724541 236.78591918945312 L 822.8735839724541 244.78591918945312 L 814.8735839724541 244.78591918945312 L 814.8735839724541 236.78591918945312 Z" stroke-miterlimit="10" stroke-width="0.5" stroke-dasharray="0"/><path fill="none" stroke="#505050" paint-order="fill stroke markers" d=" M 814.8735839724541 248.78591918945312 L 822.8735839724541 248.78591918945312 L 822.8735839724541 256.7859191894531 L 814.8735839724541 256.7859191894531 L 814.8735839724541 248.78591918945312 Z" stroke-miterlimit="10" stroke-width="0.5" stroke-dasharray="0"/><path fill="white" stroke="#505050" paint-order="fill stroke markers" d=" M 512.1707092225552 236.48592376708984 L 544.1707092225552 236.48592376708984 L 544.1707092225552 254.48592376708984 L 512.1707092225552 254.48592376708984 L 520.1707092225552 245.48592376708984 L 512.1707092225552 236.48592376708984" stroke-miterlimit="10" stroke-width="0.5" stroke-dasharray="0"/><path fill="none" stroke="#505050" paint-order="fill stroke markers" d=" M 536.1707092225552 240.48592376708984 L 544.1707092225552 240.48592376708984 L 544.1707092225552 248.48592376708984 L 536.1707092225552 248.48592376708984 L 536.1707092225552 240.48592376708984 Z" stroke-miterlimit="10" stroke-width="0.5" stroke-dasharray="0"/><text fill="#505050" stroke="none" font-family="monospace" font-size="14px" font-style="normal" font-weight="normal" text-decoration="normal" x="528.1707092225552" y="254.48592376708984" text-anchor="end" dominant-baseline="text-after-edge">i</text><path fill="white" stroke="#505050" paint-order="fill stroke markers" d=" M 674.6205016970634 286.3703384399414 L 716.6205016970634 286.3703384399414 L 716.6205016970634 332.3703384399414 L 674.6205016970634 332.3703384399414 L 674.6205016970634 286.3703384399414 Z" stroke-miterlimit="10" stroke-width="0.5" stroke-dasharray="0"/><path fill="#F0F0F0" stroke="none" paint-order="stroke fill markers" d=""/><text fill="#505050" stroke="none" font-family="monospace" font-size="14px" font-style="normal" font-weight="normal" text-decoration="normal" x="695.6205016970634" y="304.3703384399414" text-anchor="middle" dominant-baseline="text-after-edge">iter</text><path fill="none" stroke="#505050" paint-order="fill stroke markers" d=" M 674.6205016970634 304.3703384399414 L 682.6205016970634 304.3703384399414 L 682.6205016970634 312.3703384399414 L 674.6205016970634 312.3703384399414 L 674.6205016970634 304.3703384399414 Z" stroke-miterlimit="10" stroke-width="0.5" stroke-dasharray="0"/><text fill="#505050" stroke="none" font-family="monospace" font-size="14px" font-style="normal" font-weight="normal" text-decoration="normal" x="690.6205016970634" y="318.3703384399414" text-anchor="start" dominant-baseline="text-after-edge">i</text><path fill="none" stroke="#505050" paint-order="fill stroke markers" d=" M 674.6205016970634 318.3703384399414 L 682.6205016970634 318.3703384399414 L 682.6205016970634 326.3703384399414 L 674.6205016970634 326.3703384399414 L 674.6205016970634 318.3703384399414 Z" stroke-miterlimit="10" stroke-width="0.5" stroke-dasharray="0"/><text fill="#505050" stroke="none" font-family="monospace" font-size="14px" font-style="normal" font-weight="normal" text-decoration="normal" x="690.6205016970634" y="332.3703384399414" text-anchor="start" dominant-baseline="text-after-edge">p</text><path fill="none" stroke="#505050" paint-order="fill stroke markers" d=" M 708.6205016970634 304.3703384399414 L 716.6205016970634 304.3703384399414 L 716.6205016970634 312.3703384399414 L 708.6205016970634 312.3703384399414 L 708.6205016970634 304.3703384399414 Z" stroke-miterlimit="10" stroke-width="0.5" stroke-dasharray="0"/><path fill="none" stroke="#505050" paint-order="fill stroke markers" d=" M 708.6205016970634 316.3703384399414 L 716.6205016970634 316.3703384399414 L 716.6205016970634 324.3703384399414 L 708.6205016970634 324.3703384399414 L 708.6205016970634 316.3703384399414 Z" stroke-miterlimit="10" stroke-width="0.5" stroke-dasharray="0"/><path fill="#e0e0e0" stroke="none" paint-order="stroke fill markers" d=" M 830.8735839724541 241.78591918945312 L 822.8735839724541 218.78591918945312 L 822.8735839724541 264.7859191894531 Z M 666.6205016970634 309.3703384399414 L 674.6205016970634 286.3703384399414 L 674.6205016970634 332.3703384399414 Z"/><path fill="none" stroke="none"/><path fill="none" stroke="#e0e0e0" paint-order="fill stroke markers" d=" M 830.8735839724541 241.78591918945312 C 884.1577803970533 241.78591918945312 613.3363052724642 309.3703384399414 666.6205016970634 309.3703384399414" stroke-miterlimit="10" stroke-width="2" stroke-dasharray="0"/><path fill="white" stroke="#505050" paint-order="fill stroke markers" d=" M 781.5860626101494 270.75781869888306 L 789.5860626101494 270.75781869888306 L 797.5860626101494 278.75781869888306 L 789.5860626101494 286.75781869888306 L 781.5860626101494 286.75781869888306 L 781.5860626101494 270.75781869888306" stroke-miterlimit="10" stroke-width="0.5" stroke-dasharray="0"/><path fill="none" stroke="#505050" paint-order="fill stroke markers" d=" M 781.5860626101494 274.75781869888306 L 789.5860626101494 274.75781869888306 L 789.5860626101494 282.75781869888306 L 781.5860626101494 282.75781869888306 L 781.5860626101494 274.75781869888306 Z" stroke-miterlimit="10" stroke-width="0.5" stroke-dasharray="0"/><path fill="white" stroke="#505050" paint-order="fill stroke markers" d=" M 609.0455566346645 276.0671920776367 L 651.0455566346645 276.0671920776367 L 651.0455566346645 318.0671920776367 L 609.0455566346645 318.0671920776367 L 609.0455566346645 276.0671920776367 Z" stroke-miterlimit="10" stroke-width="0.5" stroke-dasharray="0"/><path fill="#F0F0F0" stroke="none" paint-order="stroke fill markers" d=""/><text fill="#505050" stroke="none" font-family="monospace" font-size="14px" font-style="normal" font-weight="normal" text-decoration="normal" x="630.0455566346645" y="294.0671920776367" text-anchor="middle" dominant-baseline="text-after-edge">body</text><path fill="none" stroke="#505050" paint-order="fill stroke markers" d=" M 609.0455566346645 294.0671920776367 L 617.0455566346645 294.0671920776367 L 617.0455566346645 302.0671920776367 L 609.0455566346645 302.0671920776367 L 609.0455566346645 294.0671920776367 Z" stroke-miterlimit="10" stroke-width="0.5" stroke-dasharray="0"/><path fill="none" stroke="#505050" paint-order="fill stroke markers" d=" M 609.0455566346645 306.0671920776367 L 617.0455566346645 306.0671920776367 L 617.0455566346645 314.0671920776367 L 609.0455566346645 314.0671920776367 L 609.0455566346645 306.0671920776367 Z" stroke-miterlimit="10" stroke-width="0.5" stroke-dasharray="0"/><path fill="none" stroke="#505050" paint-order="fill stroke markers" d=" M 643.0455566346645 294.0671920776367 L 651.0455566346645 294.0671920776367 L 651.0455566346645 302.0671920776367 L 643.0455566346645 302.0671920776367 L 643.0455566346645 294.0671920776367 Z" stroke-miterlimit="10" stroke-width="0.5" stroke-dasharray="0"/><path fill="none" stroke="#505050" paint-order="fill stroke markers" d=" M 643.0455566346645 306.0671920776367 L 651.0455566346645 306.0671920776367 L 651.0455566346645 314.0671920776367 L 643.0455566346645 314.0671920776367 L 643.0455566346645 306.0671920776367 Z" stroke-miterlimit="10" stroke-width="0.5" stroke-dasharray="0"/><path fill="#e0e0e0" stroke="none" paint-order="stroke fill markers" d=" M 501.08307495713234 273.1671600341797 L 493.08307495713234 252.1671600341797 L 493.08307495713234 294.1671600341797 Z M 601.0455566346645 297.0671920776367 L 609.0455566346645 276.0671920776367 L 609.0455566346645 318.0671920776367 Z"/><path fill="none" stroke="none"/><path fill="none" stroke="#e0e0e0" paint-order="fill stroke markers" d=" M 501.08307495713234 273.1671600341797 C 531.9170470452826 273.1671600341797 570.2115845465142 297.0671920776367 601.0455566346645 297.0671920776367" stroke-miterlimit="10" stroke-width="2" stroke-dasharray="0"/><path fill="white" stroke="#505050" paint-order="fill stroke markers" d=" M 697.1049591004848 232.23596954345703 L 722.1049591004848 232.23596954345703 L 722.1049591004848 274.23596954345703 L 697.1049591004848 274.23596954345703 L 697.1049591004848 232.23596954345703 Z" stroke-miterlimit="10" stroke-width="0.5" stroke-dasharray="0"/><path fill="#F0F0F0" stroke="none" paint-order="stroke fill markers" d=""/><text fill="#505050" stroke="none" font-family="monospace" font-size="14px" font-style="normal" font-weight="normal" text-decoration="normal" x="709.6049591004848" y="250.23596954345703" text-anchor="middle" dominant-baseline="text-after-edge">&amp;&amp;</text><path fill="none" stroke="#505050" paint-order="fill stroke markers" d=" M 697.1049591004848 250.23596954345703 L 705.1049591004848 250.23596954345703 L 705.1049591004848 258.23596954345703 L 697.1049591004848 258.23596954345703 L 697.1049591004848 250.23596954345703 Z" stroke-miterlimit="10" stroke-width="0.5" stroke-dasharray="0"/><path fill="none" stroke="#505050" paint-order="fill stroke markers" d=" M 697.1049591004848 262.23596954345703 L 705.1049591004848 262.23596954345703 L 705.1049591004848 270.23596954345703 L 697.1049591004848 270.23596954345703 L 697.1049591004848 262.23596954345703 Z" stroke-miterlimit="10" stroke-width="0.5" stroke-dasharray="0"/><path fill="none" stroke="#505050" paint-order="fill stroke markers" d=" M 714.1049591004848 250.23596954345703 L 722.1049591004848 250.23596954345703 L 722.1049591004848 258.23596954345703 L 714.1049591004848 258.23596954345703 L 714.1049591004848 250.23596954345703 Z" stroke-miterlimit="10" stroke-width="0.5" stroke-dasharray="0"/><path fill="white" stroke="#505050" paint-order="fill stroke markers" d=" M 624.0080932676792 215.24842834472656 L 648.0080932676792 215.24842834472656 L 648.0080932676792 257.24842834472656 L 624.0080932676792 257.24842834472656 L 624.0080932676792 215.24842834472656 Z" stroke-miterlimit="10" stroke-width="0.5" stroke-dasharray="0"/><path fill="#F0F0F0" stroke="none" paint-order="stroke fill markers" d=""/><text fill="#505050" stroke="none" font-family="monospace" font-size="14px" font-style="normal" font-weight="normal" text-decoration="normal" x="636.0080932676792" y="233.24842834472656" text-anchor="middle" dominant-baseline="text-after-edge">&lt;</text><path fill="none" stroke="#505050" paint-order="fill stroke markers" d=" M 624.0080932676792 233.24842834472656 L 632.0080932676792 233.24842834472656 L 632.0080932676792 241.24842834472656 L 624.0080932676792 241.24842834472656 L 624.0080932676792 233.24842834472656 Z" stroke-miterlimit="10" stroke-width="0.5" stroke-dasharray="0"/><path fill="none" stroke="#505050" paint-order="fill stroke markers" d=" M 624.0080932676792 245.24842834472656 L 632.0080932676792 245.24842834472656 L 632.0080932676792 253.24842834472656 L 624.0080932676792 253.24842834472656 L 624.0080932676792 245.24842834472656 Z" stroke-miterlimit="10" stroke-width="0.5" stroke-dasharray="0"/><path fill="none" stroke="#505050" paint-order="fill stroke markers" d=" M 640.0080932676792 233.24842834472656 L 648.0080932676792 233.24842834472656 L 648.0080932676792 241.24842834472656 L 640.0080932676792 241.24842834472656 L 640.0080932676792 233.24842834472656 Z" stroke-miterlimit="10" stroke-width="0.5" stroke-dasharray="0"/><path fill="white" stroke="#505050" paint-order="fill stroke markers" d=" M 583.6018432676792 320.9890594482422 L 608.6018432676792 320.9890594482422 L 608.6018432676792 350.9890594482422 L 583.6018432676792 350.9890594482422 L 583.6018432676792 320.9890594482422 Z" stroke-miterlimit="10" stroke-width="0.5" stroke-dasharray="0"/><path fill="#F0F0F0" stroke="none" paint-order="stroke fill markers" d=""/><text fill="#505050" stroke="none" font-family="monospace" font-size="14px" font-style="normal" font-weight="normal" text-decoration="normal" x="596.1018432676792" y="338.9890594482422" text-anchor="middle" dominant-baseline="text-after-edge">+1</text><path fill="none" stroke="#505050" paint-order="fill stroke markers" d=" M 583.6018432676792 338.9890594482422 L 591.6018432676792 338.9890594482422 L 591.6018432676792 346.9890594482422 L 583.6018432676792 346.9890594482422 L 583.6018432676792 338.9890594482422 Z" stroke-miterlimit="10" stroke-width="0.5" stroke-dasharray="0"/><path fill="none" stroke="#505050" paint-order="fill stroke markers" d=" M 600.6018432676792 338.9890594482422 L 608.6018432676792 338.9890594482422 L 608.6018432676792 346.9890594482422 L 600.6018432676792 346.9890594482422 L 600.6018432676792 338.9890594482422 Z" stroke-miterlimit="10" stroke-width="0.5" stroke-dasharray="0"/><path fill="white" stroke="#505050" paint-order="fill stroke markers" d=" M 519.4236938357353 351.43907165527344 L 551.4236938357353 351.43907165527344 L 551.4236938357353 369.43907165527344 L 519.4236938357353 369.43907165527344 L 527.4236938357353 360.43907165527344 L 519.4236938357353 351.43907165527344" stroke-miterlimit="10" stroke-width="0.5" stroke-dasharray="0"/><path fill="none" stroke="#505050" paint-order="fill stroke markers" d=" M 543.4236938357353 355.43907165527344 L 551.4236938357353 355.43907165527344 L 551.4236938357353 363.43907165527344 L 543.4236938357353 363.43907165527344 L 543.4236938357353 355.43907165527344 Z" stroke-miterlimit="10" stroke-width="0.5" stroke-dasharray="0"/><text fill="#505050" stroke="none" font-family="monospace" font-size="14px" font-style="normal" font-weight="normal" text-decoration="normal" x="535.4236938357353" y="369.43907165527344" text-anchor="end" dominant-baseline="text-after-edge">p</text><path fill="white" stroke="#505050" paint-order="fill stroke markers" d=" M 740.7081695497036 261.52655029296875 L 765.7081695497036 261.52655029296875 L 765.7081695497036 339.52655029296875 L 740.7081695497036 339.52655029296875 L 740.7081695497036 261.52655029296875 Z" stroke-miterlimit="10" stroke-width="0.5" stroke-dasharray="0"/><path fill="#F0F0F0" stroke="none" paint-order="stroke fill markers" d=""/><text fill="#505050" stroke="none" font-family="monospace" font-size="14px" font-style="normal" font-weight="normal" text-decoration="normal" x="753.2081695497036" y="279.52655029296875" text-anchor="middle" dominant-baseline="text-after-edge">??</text><path fill="none" stroke="#505050" paint-order="fill stroke markers" d=" M 740.7081695497036 279.52655029296875 L 748.7081695497036 279.52655029296875 L 748.7081695497036 287.52655029296875 L 740.7081695497036 287.52655029296875 L 740.7081695497036 279.52655029296875 Z" stroke-miterlimit="10" stroke-width="0.5" stroke-dasharray="0"/><path fill="none" stroke="#505050" paint-order="fill stroke markers" d=" M 740.7081695497036 291.52655029296875 L 748.7081695497036 291.52655029296875 L 748.7081695497036 299.52655029296875 L 740.7081695497036 299.52655029296875 L 740.7081695497036 291.52655029296875 Z" stroke-miterlimit="10" stroke-width="0.5" stroke-dasharray="0"/><path fill="none" stroke="#505050" paint-order="fill stroke markers" d=" M 740.7081695497036 303.52655029296875 L 748.7081695497036 303.52655029296875 L 748.7081695497036 311.52655029296875 L 740.7081695497036 311.52655029296875 L 740.7081695497036 303.52655029296875 Z" stroke-miterlimit="10" stroke-width="0.5" stroke-dasharray="0"/><path fill="none" stroke="#505050" paint-order="fill stroke markers" d=" M 740.7081695497036 315.52655029296875 L 748.7081695497036 315.52655029296875 L 748.7081695497036 323.52655029296875 L 740.7081695497036 323.52655029296875 L 740.7081695497036 315.52655029296875 Z" stroke-miterlimit="10" stroke-width="0.5" stroke-dasharray="0"/><path fill="none" stroke="#505050" paint-order="fill stroke markers" d=" M 740.7081695497036 327.52655029296875 L 748.7081695497036 327.52655029296875 L 748.7081695497036 335.52655029296875 L 740.7081695497036 335.52655029296875 L 740.7081695497036 327.52655029296875 Z" stroke-miterlimit="10" stroke-width="0.5" stroke-dasharray="0"/><path fill="none" stroke="#505050" paint-order="fill stroke markers" d=" M 757.7081695497036 279.52655029296875 L 765.7081695497036 279.52655029296875 L 765.7081695497036 287.52655029296875 L 757.7081695497036 287.52655029296875 L 757.7081695497036 279.52655029296875 Z" stroke-miterlimit="10" stroke-width="0.5" stroke-dasharray="0"/><path fill="none" stroke="#505050" paint-order="fill stroke markers" d=" M 757.7081695497036 291.52655029296875 L 765.7081695497036 291.52655029296875 L 765.7081695497036 299.52655029296875 L 757.7081695497036 299.52655029296875 L 757.7081695497036 291.52655029296875 Z" stroke-miterlimit="10" stroke-width="0.5" stroke-dasharray="0"/><path fill="white" stroke="#505050" paint-order="fill stroke markers" d=" M 782.1798583865166 292.9546890258789 L 790.1798583865166 292.9546890258789 L 798.1798583865166 300.9546890258789 L 790.1798583865166 308.9546890258789 L 782.1798583865166 308.9546890258789 L 782.1798583865166 292.9546890258789" stroke-miterlimit="10" stroke-width="0.5" stroke-dasharray="0"/><path fill="none" stroke="#505050" paint-order="fill stroke markers" d=" M 782.1798583865166 296.9546890258789 L 790.1798583865166 296.9546890258789 L 790.1798583865166 304.9546890258789 L 782.1798583865166 304.9546890258789 L 782.1798583865166 296.9546890258789 Z" stroke-miterlimit="10" stroke-width="0.5" stroke-dasharray="0"/><path fill="white" stroke="#505050" paint-order="fill stroke markers" d=" M 834.5330993533134 233.74841690063477 L 842.5330993533134 233.74841690063477 L 850.5330993533134 241.74841690063477 L 842.5330993533134 249.74841690063477 L 834.5330993533134 249.74841690063477 L 834.5330993533134 233.74841690063477" stroke-miterlimit="10" stroke-width="0.5" stroke-dasharray="0"/><path fill="none" stroke="#505050" paint-order="fill stroke markers" d=" M 834.5330993533134 237.74841690063477 L 842.5330993533134 237.74841690063477 L 842.5330993533134 245.74841690063477 L 834.5330993533134 245.74841690063477 L 834.5330993533134 237.74841690063477 Z" stroke-miterlimit="10" stroke-width="0.5" stroke-dasharray="0"/><path fill="none" stroke="none"/><path fill="white" stroke="#505050" paint-order="fill stroke markers" d=" M 435.08307495713234 248.1671600341797 L 493.08307495713234 248.1671600341797 L 493.08307495713234 298.1671600341797 L 435.08307495713234 298.1671600341797 L 443.08307495713234 273.1671600341797 L 435.08307495713234 248.1671600341797" stroke-miterlimit="10" stroke-width="0.5" stroke-dasharray="6,3"/><path fill="#F0F0F0" stroke="none" paint-order="stroke fill markers" d=" M 451.08307495713234 252.1671600341797 L 493.08307495713234 252.1671600341797 L 493.08307495713234 294.1671600341797 L 451.08307495713234 294.1671600341797 L 451.08307495713234 252.1671600341797 Z"/><path fill="none" stroke="#505050" paint-order="fill stroke markers" d=" M 451.08307495713234 252.1671600341797 L 493.08307495713234 252.1671600341797 L 493.08307495713234 294.1671600341797 L 451.08307495713234 294.1671600341797 L 451.08307495713234 252.1671600341797 Z" stroke-miterlimit="10" stroke-width="0.5" stroke-dasharray="0"/><text fill="#505050" stroke="none" font-family="monospace" font-size="14px" font-style="normal" font-weight="normal" text-decoration="normal" x="472.08307495713234" y="270.1671600341797" text-anchor="middle" dominant-baseline="text-after-edge">body</text><path fill="none" stroke="#505050" paint-order="fill stroke markers" d=" M 451.08307495713234 270.1671600341797 L 459.08307495713234 270.1671600341797 L 459.08307495713234 278.1671600341797 L 451.08307495713234 278.1671600341797 L 451.08307495713234 270.1671600341797 Z" stroke-miterlimit="10" stroke-width="0.5" stroke-dasharray="0"/><path fill="none" stroke="#505050" paint-order="fill stroke markers" d=" M 451.08307495713234 282.1671600341797 L 459.08307495713234 282.1671600341797 L 459.08307495713234 290.1671600341797 L 451.08307495713234 290.1671600341797 L 451.08307495713234 282.1671600341797 Z" stroke-miterlimit="10" stroke-width="0.5" stroke-dasharray="0"/><path fill="none" stroke="#505050" paint-order="fill stroke markers" d=" M 485.08307495713234 270.1671600341797 L 493.08307495713234 270.1671600341797 L 493.08307495713234 278.1671600341797 L 485.08307495713234 278.1671600341797 L 485.08307495713234 270.1671600341797 Z" stroke-miterlimit="10" stroke-width="0.5" stroke-dasharray="0"/><path fill="none" stroke="#505050" paint-order="fill stroke markers" d=" M 485.08307495713234 282.1671600341797 L 493.08307495713234 282.1671600341797 L 493.08307495713234 290.1671600341797 L 485.08307495713234 290.1671600341797 L 485.08307495713234 282.1671600341797 Z" stroke-miterlimit="10" stroke-width="0.5" stroke-dasharray="0"/><path fill="none" stroke="#505050" paint-order="fill stroke markers" d=" M 451.08307495713234 252.1671600341797 L 493.08307495713234 252.1671600341797 L 493.08307495713234 294.1671600341797 L 451.08307495713234 294.1671600341797 L 451.08307495713234 252.1671600341797 Z" stroke-miterlimit="10" stroke-width="0.5" stroke-dasharray="6,3"/><path fill="#F0F0F0" stroke="none" paint-order="stroke fill markers" d=""/><text fill="#505050" stroke="none" font-family="monospace" font-size="14px" font-style="normal" font-weight="normal" text-decoration="normal" x="472.08307495713234" y="270.1671600341797" text-anchor="middle" dominant-baseline="text-after-edge">body</text><path fill="none" stroke="#505050" paint-order="fill stroke markers" d=" M 451.08307495713234 270.1671600341797 L 459.08307495713234 270.1671600341797 L 459.08307495713234 278.1671600341797 L 451.08307495713234 278.1671600341797 L 451.08307495713234 270.1671600341797 Z" stroke-miterlimit="10" stroke-width="0.5" stroke-dasharray="0"/><path fill="none" stroke="#505050" paint-order="fill stroke markers" d=" M 451.08307495713234 282.1671600341797 L 459.08307495713234 282.1671600341797 L 459.08307495713234 290.1671600341797 L 451.08307495713234 290.1671600341797 L 451.08307495713234 282.1671600341797 Z" stroke-miterlimit="10" stroke-width="0.5" stroke-dasharray="0"/><path fill="none" stroke="#505050" paint-order="fill stroke markers" d=" M 485.08307495713234 270.1671600341797 L 493.08307495713234 270.1671600341797 L 493.08307495713234 278.1671600341797 L 485.08307495713234 278.1671600341797 L 485.08307495713234 270.1671600341797 Z" stroke-miterlimit="10" stroke-width="0.5" stroke-dasharray="0"/><path fill="none" stroke="#505050" paint-order="fill stroke markers" d=" M 485.08307495713234 282.1671600341797 L 493.08307495713234 282.1671600341797 L 493.08307495713234 290.1671600341797 L 485.08307495713234 290.1671600341797 L 485.08307495713234 282.1671600341797 Z" stroke-miterlimit="10" stroke-width="0.5" stroke-dasharray="0"/><path fill="white" stroke="#505050" paint-order="fill stroke markers" d=" M 445.4423824250698 305.97657775878906 L 494.4423824250698 305.97657775878906 L 494.4423824250698 323.97657775878906 L 445.4423824250698 323.97657775878906 L 453.4423824250698 314.97657775878906 L 445.4423824250698 305.97657775878906" stroke-miterlimit="10" stroke-width="0.5" stroke-dasharray="0"/><path fill="none" stroke="#505050" paint-order="fill stroke markers" d=" M 486.4423824250698 309.97657775878906 L 494.4423824250698 309.97657775878906 L 494.4423824250698 317.97657775878906 L 486.4423824250698 317.97657775878906 L 486.4423824250698 309.97657775878906 Z" stroke-miterlimit="10" stroke-width="0.5" stroke-dasharray="0"/><text fill="#505050" stroke="none" font-family="monospace" font-size="14px" font-style="normal" font-weight="normal" text-decoration="normal" x="478.4423824250698" y="323.97657775878906" text-anchor="end" dominant-baseline="text-after-edge">end</text><path fill="white" stroke="#505050" paint-order="fill stroke markers" d=" M 803.005877673626 50.09827423095703 L 803.005877673626 175.56842803955078 Q 803.005877673626 183.56842803955078 811.005877673626 183.56842803955078 L 903.3899322450161 183.56842803955078 Q 911.3899322450161 183.56842803955078 911.3899322450161 175.56842803955078 L 911.3899322450161 50.09827423095703 Q 911.3899322450161 42.09827423095703 903.3899322450161 42.09827423095703 L 811.005877673626 42.09827423095703 Q 803.005877673626 42.09827423095703 803.005877673626 50.09827423095703" stroke-miterlimit="10" stroke-width="0.5" stroke-dasharray="0"/><path fill="#F0F0F0" stroke="#505050" paint-order="fill stroke markers" d=" M 886.3899322450161 50.09827423095703 L 911.3899322450161 50.09827423095703 L 911.3899322450161 128.09827423095703 L 886.3899322450161 128.09827423095703 L 886.3899322450161 50.09827423095703 Z" stroke-miterlimit="10" stroke-width="0.5" stroke-dasharray="0"/><text fill="#505050" stroke="none" font-family="monospace" font-size="14px" font-style="normal" font-weight="normal" text-decoration="normal" x="898.8899322450161" y="68.09827423095703" text-anchor="middle" dominant-baseline="text-after-edge">??</text><path fill="none" stroke="#505050" paint-order="fill stroke markers" d=" M 886.3899322450161 68.09827423095703 L 894.3899322450161 68.09827423095703 L 894.3899322450161 76.09827423095703 L 886.3899322450161 76.09827423095703 L 886.3899322450161 68.09827423095703 Z" stroke-miterlimit="10" stroke-width="0.5" stroke-dasharray="0"/><path fill="none" stroke="#505050" paint-order="fill stroke markers" d=" M 886.3899322450161 80.09827423095703 L 894.3899322450161 80.09827423095703 L 894.3899322450161 88.09827423095703 L 886.3899322450161 88.09827423095703 L 886.3899322450161 80.09827423095703 Z" stroke-miterlimit="10" stroke-width="0.5" stroke-dasharray="0"/><path fill="none" stroke="#505050" paint-order="fill stroke markers" d=" M 886.3899322450161 92.09827423095703 L 894.3899322450161 92.09827423095703 L 894.3899322450161 100.09827423095703 L 886.3899322450161 100.09827423095703 L 886.3899322450161 92.09827423095703 Z" stroke-miterlimit="10" stroke-width="0.5" stroke-dasharray="0"/><path fill="none" stroke="#505050" paint-order="fill stroke markers" d=" M 886.3899322450161 104.09827423095703 L 894.3899322450161 104.09827423095703 L 894.3899322450161 112.09827423095703 L 886.3899322450161 112.09827423095703 L 886.3899322450161 104.09827423095703 Z" stroke-miterlimit="10" stroke-width="0.5" stroke-dasharray="0"/><path fill="none" stroke="#505050" paint-order="fill stroke markers" d=" M 886.3899322450161 116.09827423095703 L 894.3899322450161 116.09827423095703 L 894.3899322450161 124.09827423095703 L 886.3899322450161 124.09827423095703 L 886.3899322450161 116.09827423095703 Z" stroke-miterlimit="10" stroke-width="0.5" stroke-dasharray="0"/><path fill="none" stroke="#505050" paint-order="fill stroke markers" d=" M 903.3899322450161 68.09827423095703 L 911.3899322450161 68.09827423095703 L 911.3899322450161 76.09827423095703 L 903.3899322450161 76.09827423095703 L 903.3899322450161 68.09827423095703 Z" stroke-miterlimit="10" stroke-width="0.5" stroke-dasharray="0"/><path fill="none" stroke="#505050" paint-order="fill stroke markers" d=" M 903.3899322450161 80.09827423095703 L 911.3899322450161 80.09827423095703 L 911.3899322450161 88.09827423095703 L 903.3899322450161 88.09827423095703 L 903.3899322450161 80.09827423095703 Z" stroke-miterlimit="10" stroke-width="0.5" stroke-dasharray="0"/><path fill="white" stroke="#505050" paint-order="fill stroke markers" d=" M 811.005877673626 50.77638244628906 L 827.005877673626 50.77638244628906 L 827.005877673626 66.77638244628906 L 811.005877673626 66.77638244628906 L 819.005877673626 58.77638244628906 L 811.005877673626 50.77638244628906" stroke-miterlimit="10" stroke-width="0.5" stroke-dasharray="0"/><path fill="none" stroke="#505050" paint-order="fill stroke markers" d=" M 819.005877673626 54.77638244628906 L 827.005877673626 54.77638244628906 L 827.005877673626 62.77638244628906 L 819.005877673626 62.77638244628906 L 819.005877673626 54.77638244628906 Z" stroke-miterlimit="10" stroke-width="0.5" stroke-dasharray="0"/><path fill="white" stroke="#505050" paint-order="fill stroke markers" d=" M 821.4549652040005 113.56842803955078 L 845.4549652040005 113.56842803955078 L 845.4549652040005 167.56842803955078 L 821.4549652040005 167.56842803955078 L 821.4549652040005 113.56842803955078 Z" stroke-miterlimit="10" stroke-width="0.5" stroke-dasharray="0"/><path fill="#F0F0F0" stroke="none" paint-order="stroke fill markers" d=""/><text fill="#505050" stroke="none" font-family="monospace" font-size="14px" font-style="normal" font-weight="normal" text-decoration="normal" x="833.4549652040005" y="131.56842803955078" text-anchor="middle" dominant-baseline="text-after-edge">?</text><path fill="none" stroke="#505050" paint-order="fill stroke markers" d=" M 821.4549652040005 131.56842803955078 L 829.4549652040005 131.56842803955078 L 829.4549652040005 139.56842803955078 L 821.4549652040005 139.56842803955078 L 821.4549652040005 131.56842803955078 Z" stroke-miterlimit="10" stroke-width="0.5" stroke-dasharray="0"/><path fill="none" stroke="#505050" paint-order="fill stroke markers" d=" M 821.4549652040005 143.56842803955078 L 829.4549652040005 143.56842803955078 L 829.4549652040005 151.56842803955078 L 821.4549652040005 151.56842803955078 L 821.4549652040005 143.56842803955078 Z" stroke-miterlimit="10" stroke-width="0.5" stroke-dasharray="0"/><path fill="none" stroke="#505050" paint-order="fill stroke markers" d=" M 821.4549652040005 155.56842803955078 L 829.4549652040005 155.56842803955078 L 829.4549652040005 163.56842803955078 L 821.4549652040005 163.56842803955078 L 821.4549652040005 155.56842803955078 Z" stroke-miterlimit="10" stroke-width="0.5" stroke-dasharray="0"/><path fill="none" stroke="#505050" paint-order="fill stroke markers" d=" M 837.4549652040005 131.56842803955078 L 845.4549652040005 131.56842803955078 L 845.4549652040005 139.56842803955078 L 837.4549652040005 139.56842803955078 L 837.4549652040005 131.56842803955078 Z" stroke-miterlimit="10" stroke-width="0.5" stroke-dasharray="0"/><path fill="white" stroke="#505050" paint-order="fill stroke markers" d=" M 840.5424591004848 50.99968719482422 L 864.5424591004848 50.99968719482422 L 864.5424591004848 104.99968719482422 L 840.5424591004848 104.99968719482422 L 840.5424591004848 50.99968719482422 Z" stroke-miterlimit="10" stroke-width="0.5" stroke-dasharray="0"/><path fill="#F0F0F0" stroke="none" paint-order="stroke fill markers" d=""/><text fill="#505050" stroke="none" font-family="monospace" font-size="14px" font-style="normal" font-weight="normal" text-decoration="normal" x="852.5424591004848" y="68.99968719482422" text-anchor="middle" dominant-baseline="text-after-edge">?</text><path fill="none" stroke="#505050" paint-order="fill stroke markers" d=" M 840.5424591004848 68.99968719482422 L 848.5424591004848 68.99968719482422 L 848.5424591004848 76.99968719482422 L 840.5424591004848 76.99968719482422 L 840.5424591004848 68.99968719482422 Z" stroke-miterlimit="10" stroke-width="0.5" stroke-dasharray="0"/><path fill="none" stroke="#505050" paint-order="fill stroke markers" d=" M 840.5424591004848 80.99968719482422 L 848.5424591004848 80.99968719482422 L 848.5424591004848 88.99968719482422 L 840.5424591004848 88.99968719482422 L 840.5424591004848 80.99968719482422 Z" stroke-miterlimit="10" stroke-width="0.5" stroke-dasharray="0"/><path fill="none" stroke="#505050" paint-order="fill stroke markers" d=" M 840.5424591004848 92.99968719482422 L 848.5424591004848 92.99968719482422 L 848.5424591004848 100.99968719482422 L 840.5424591004848 100.99968719482422 L 840.5424591004848 92.99968719482422 Z" stroke-miterlimit="10" stroke-width="0.5" stroke-dasharray="0"/><path fill="none" stroke="#505050" paint-order="fill stroke markers" d=" M 856.5424591004848 68.99968719482422 L 864.5424591004848 68.99968719482422 L 864.5424591004848 76.99968719482422 L 856.5424591004848 76.99968719482422 L 856.5424591004848 68.99968719482422 Z" stroke-miterlimit="10" stroke-width="0.5" stroke-dasharray="0"/><path fill="white" stroke="#505050" paint-order="fill stroke markers" d=" M 443.7236892580986 422.8796730041504 L 443.7236892580986 556.1172218322754 Q 443.7236892580986 564.1172218322754 451.7236892580986 564.1172218322754 L 988.9361450076103 564.1172218322754 Q 996.9361450076103 564.1172218322754 996.9361450076103 556.1172218322754 L 996.9361450076103 422.8796730041504 Q 996.9361450076103 414.8796730041504 988.9361450076103 414.8796730041504 L 451.7236892580986 414.8796730041504 Q 443.7236892580986 414.8796730041504 443.7236892580986 422.8796730041504" stroke-miterlimit="10" stroke-width="0.5" stroke-dasharray="0"/><path fill="#F0F0F0" stroke="#505050" paint-order="fill stroke markers" d=" M 937.9361450076103 422.8796730041504 L 996.9361450076103 422.8796730041504 L 996.9361450076103 500.8796730041504 L 937.9361450076103 500.8796730041504 L 937.9361450076103 422.8796730041504 Z" stroke-miterlimit="10" stroke-width="0.5" stroke-dasharray="0"/><text fill="#505050" stroke="none" font-family="monospace" font-size="14px" font-style="normal" font-weight="normal" text-decoration="normal" x="967.4361450076103" y="440.8796730041504" text-anchor="middle" dominant-baseline="text-after-edge">reduce</text><path fill="none" stroke="#505050" paint-order="fill stroke markers" d=" M 937.9361450076103 440.8796730041504 L 961.9361450076103 440.8796730041504 L 961.9361450076103 468.8796730041504 L 937.9361450076103 468.8796730041504 L 937.9361450076103 440.8796730041504 Z" stroke-miterlimit="10" stroke-width="0.5" stroke-dasharray="0"/><path fill="none" stroke="#505050" paint-order="fill stroke markers" d=" M 937.9361450076103 444.8796730041504 L 945.9361450076103 444.8796730041504 L 945.9361450076103 452.8796730041504 L 937.9361450076103 452.8796730041504 L 937.9361450076103 444.8796730041504 Z" stroke-miterlimit="10" stroke-width="0.5" stroke-dasharray="0"/><path fill="none" stroke="#505050" paint-order="fill stroke markers" d=" M 937.9361450076103 456.8796730041504 L 945.9361450076103 456.8796730041504 L 945.9361450076103 464.8796730041504 L 937.9361450076103 464.8796730041504 L 937.9361450076103 456.8796730041504 Z" stroke-miterlimit="10" stroke-width="0.5" stroke-dasharray="0"/><path fill="none" stroke="#505050" paint-order="fill stroke markers" d=" M 953.9361450076103 444.8796730041504 L 961.9361450076103 444.8796730041504 L 961.9361450076103 452.8796730041504 L 953.9361450076103 452.8796730041504 L 953.9361450076103 444.8796730041504 Z" stroke-miterlimit="10" stroke-width="0.5" stroke-dasharray="0"/><path fill="none" stroke="#505050" paint-order="fill stroke markers" d=" M 937.9361450076103 472.8796730041504 L 945.9361450076103 472.8796730041504 L 945.9361450076103 480.8796730041504 L 937.9361450076103 480.8796730041504 L 937.9361450076103 472.8796730041504 Z" stroke-miterlimit="10" stroke-width="0.5" stroke-dasharray="0"/><text fill="#505050" stroke="none" font-family="monospace" font-size="14px" font-style="normal" font-weight="normal" text-decoration="normal" x="953.9361450076103" y="486.8796730041504" text-anchor="start" dominant-baseline="text-after-edge">n</text><path fill="none" stroke="#505050" paint-order="fill stroke markers" d=" M 937.9361450076103 486.8796730041504 L 945.9361450076103 486.8796730041504 L 945.9361450076103 494.8796730041504 L 937.9361450076103 494.8796730041504 L 937.9361450076103 486.8796730041504 Z" stroke-miterlimit="10" stroke-width="0.5" stroke-dasharray="0"/><text fill="#505050" stroke="none" font-family="monospace" font-size="14px" font-style="normal" font-weight="normal" text-decoration="normal" x="953.9361450076103" y="500.8796730041504" text-anchor="start" dominant-baseline="text-after-edge">acc</text><path fill="none" stroke="#505050" paint-order="fill stroke markers" d=" M 988.9361450076103 440.8796730041504 L 996.9361450076103 440.8796730041504 L 996.9361450076103 448.8796730041504 L 988.9361450076103 448.8796730041504 L 988.9361450076103 440.8796730041504 Z" stroke-miterlimit="10" stroke-width="0.5" stroke-dasharray="0"/><path fill="white" stroke="#505050" paint-order="fill stroke markers" d=" M 843.8893005251884 445.7296905517578 L 885.8893005251884 445.7296905517578 L 885.8893005251884 491.7296905517578 L 843.8893005251884 491.7296905517578 L 843.8893005251884 445.7296905517578 Z" stroke-miterlimit="10" stroke-width="0.5" stroke-dasharray="0"/><path fill="#F0F0F0" stroke="none" paint-order="stroke fill markers" d=""/><text fill="#505050" stroke="none" font-family="monospace" font-size="14px" font-style="normal" font-weight="normal" text-decoration="normal" x="864.8893005251884" y="463.7296905517578" text-anchor="middle" dominant-baseline="text-after-edge">iter</text><path fill="none" stroke="#505050" paint-order="fill stroke markers" d=" M 843.8893005251884 463.7296905517578 L 851.8893005251884 463.7296905517578 L 851.8893005251884 471.7296905517578 L 843.8893005251884 471.7296905517578 L 843.8893005251884 463.7296905517578 Z" stroke-miterlimit="10" stroke-width="0.5" stroke-dasharray="0"/><text fill="#505050" stroke="none" font-family="monospace" font-size="14px" font-style="normal" font-weight="normal" text-decoration="normal" x="859.8893005251884" y="477.7296905517578" text-anchor="start" dominant-baseline="text-after-edge">i</text><path fill="none" stroke="#505050" paint-order="fill stroke markers" d=" M 843.8893005251884 477.7296905517578 L 851.8893005251884 477.7296905517578 L 851.8893005251884 485.7296905517578 L 843.8893005251884 485.7296905517578 L 843.8893005251884 477.7296905517578 Z" stroke-miterlimit="10" stroke-width="0.5" stroke-dasharray="0"/><text fill="#505050" stroke="none" font-family="monospace" font-size="14px" font-style="normal" font-weight="normal" text-decoration="normal" x="859.8893005251884" y="491.7296905517578" text-anchor="start" dominant-baseline="text-after-edge">p</text><path fill="none" stroke="#505050" paint-order="fill stroke markers" d=" M 877.8893005251884 463.7296905517578 L 885.8893005251884 463.7296905517578 L 885.8893005251884 471.7296905517578 L 877.8893005251884 471.7296905517578 L 877.8893005251884 463.7296905517578 Z" stroke-miterlimit="10" stroke-width="0.5" stroke-dasharray="0"/><path fill="none" stroke="#505050" paint-order="fill stroke markers" d=" M 877.8893005251884 475.7296905517578 L 885.8893005251884 475.7296905517578 L 885.8893005251884 483.7296905517578 L 877.8893005251884 483.7296905517578 L 877.8893005251884 475.7296905517578 Z" stroke-miterlimit="10" stroke-width="0.5" stroke-dasharray="0"/><path fill="#e0e0e0" stroke="none" paint-order="stroke fill markers" d=" M 829.961199939251 468.2234344482422 L 821.961199939251 445.2234344482422 L 821.961199939251 491.2234344482422 Z M 835.8893005251884 468.7296905517578 L 843.8893005251884 445.7296905517578 L 843.8893005251884 491.7296905517578 Z"/><path fill="none" stroke="none"/><path fill="none" stroke="#e0e0e0" paint-order="fill stroke markers" d=" M 829.961199939251 468.2234344482422 C 831.7461034273815 468.2234344482422 834.1043970370579 468.7296905517578 835.8893005251884 468.7296905517578" stroke-miterlimit="10" stroke-width="2" stroke-dasharray="0"/><path fill="white" stroke="#505050" paint-order="fill stroke markers" d=" M 705.961199939251 427.2234344482422 L 821.961199939251 427.2234344482422 L 821.961199939251 495.2234344482422 L 705.961199939251 495.2234344482422 L 705.961199939251 427.2234344482422 Z" stroke-miterlimit="10" stroke-width="0.5" stroke-dasharray="0"/><path fill="#F0F0F0" stroke="none" paint-order="stroke fill markers" d=" M 779.961199939251 445.2234344482422 L 821.961199939251 445.2234344482422 L 821.961199939251 491.2234344482422 L 779.961199939251 491.2234344482422 L 779.961199939251 445.2234344482422 Z"/><text fill="#505050" stroke="none" font-family="monospace" font-size="14px" font-style="normal" font-weight="normal" text-decoration="normal" x="763.961199939251" y="445.2234344482422" text-anchor="middle" dominant-baseline="text-after-edge">iterbase</text><path fill="none" stroke="#505050" paint-order="fill stroke markers" d=" M 705.961199939251 445.2234344482422 L 729.961199939251 445.2234344482422 L 729.961199939251 473.2234344482422 L 705.961199939251 473.2234344482422 L 705.961199939251 445.2234344482422 Z" stroke-miterlimit="10" stroke-width="0.5" stroke-dasharray="0"/><path fill="none" stroke="#505050" paint-order="fill stroke markers" d=" M 705.961199939251 449.2234344482422 L 713.961199939251 449.2234344482422 L 713.961199939251 457.2234344482422 L 705.961199939251 457.2234344482422 L 705.961199939251 449.2234344482422 Z" stroke-miterlimit="10" stroke-width="0.5" stroke-dasharray="0"/><path fill="none" stroke="#505050" paint-order="fill stroke markers" d=" M 705.961199939251 461.2234344482422 L 713.961199939251 461.2234344482422 L 713.961199939251 469.2234344482422 L 705.961199939251 469.2234344482422 L 705.961199939251 461.2234344482422 Z" stroke-miterlimit="10" stroke-width="0.5" stroke-dasharray="0"/><path fill="none" stroke="#505050" paint-order="fill stroke markers" d=" M 721.961199939251 449.2234344482422 L 729.961199939251 449.2234344482422 L 729.961199939251 457.2234344482422 L 721.961199939251 457.2234344482422 L 721.961199939251 449.2234344482422 Z" stroke-miterlimit="10" stroke-width="0.5" stroke-dasharray="0"/><path fill="none" stroke="#505050" paint-order="fill stroke markers" d=" M 721.961199939251 461.2234344482422 L 729.961199939251 461.2234344482422 L 729.961199939251 469.2234344482422 L 721.961199939251 469.2234344482422 L 721.961199939251 461.2234344482422 Z" stroke-miterlimit="10" stroke-width="0.5" stroke-dasharray="0"/><text fill="#505050" stroke="none" font-family="monospace" font-size="14px" font-style="normal" font-weight="normal" text-decoration="normal" x="737.961199939251" y="468.2234344482422" text-anchor="start" dominant-baseline="text-after-edge">body</text><path fill="none" stroke="#505050" paint-order="fill stroke markers" d=" M 705.961199939251 477.2234344482422 L 713.961199939251 477.2234344482422 L 713.961199939251 485.2234344482422 L 705.961199939251 485.2234344482422 L 705.961199939251 477.2234344482422 Z" stroke-miterlimit="10" stroke-width="0.5" stroke-dasharray="0"/><text fill="#505050" stroke="none" font-family="monospace" font-size="14px" font-style="normal" font-weight="normal" text-decoration="normal" x="721.961199939251" y="491.2234344482422" text-anchor="start" dominant-baseline="text-after-edge">end</text><path fill="none" stroke="#505050" paint-order="fill stroke markers" d=" M 779.961199939251 445.2234344482422 L 821.961199939251 445.2234344482422 L 821.961199939251 491.2234344482422 L 779.961199939251 491.2234344482422 L 779.961199939251 445.2234344482422 Z" stroke-miterlimit="10" stroke-width="0.5" stroke-dasharray="0"/><text fill="#505050" stroke="none" font-family="monospace" font-size="14px" font-style="normal" font-weight="normal" text-decoration="normal" x="800.961199939251" y="463.2234344482422" text-anchor="middle" dominant-baseline="text-after-edge">iter</text><path fill="none" stroke="#505050" paint-order="fill stroke markers" d=" M 779.961199939251 463.2234344482422 L 787.961199939251 463.2234344482422 L 787.961199939251 471.2234344482422 L 779.961199939251 471.2234344482422 L 779.961199939251 463.2234344482422 Z" stroke-miterlimit="10" stroke-width="0.5" stroke-dasharray="0"/><text fill="#505050" stroke="none" font-family="monospace" font-size="14px" font-style="normal" font-weight="normal" text-decoration="normal" x="795.961199939251" y="477.2234344482422" text-anchor="start" dominant-baseline="text-after-edge">i</text><path fill="none" stroke="#505050" paint-order="fill stroke markers" d=" M 779.961199939251 477.2234344482422 L 787.961199939251 477.2234344482422 L 787.961199939251 485.2234344482422 L 779.961199939251 485.2234344482422 L 779.961199939251 477.2234344482422 Z" stroke-miterlimit="10" stroke-width="0.5" stroke-dasharray="0"/><text fill="#505050" stroke="none" font-family="monospace" font-size="14px" font-style="normal" font-weight="normal" text-decoration="normal" x="795.961199939251" y="491.2234344482422" text-anchor="start" dominant-baseline="text-after-edge">p</text><path fill="none" stroke="#505050" paint-order="fill stroke markers" d=" M 813.961199939251 463.2234344482422 L 821.961199939251 463.2234344482422 L 821.961199939251 471.2234344482422 L 813.961199939251 471.2234344482422 L 813.961199939251 463.2234344482422 Z" stroke-miterlimit="10" stroke-width="0.5" stroke-dasharray="0"/><path fill="none" stroke="#505050" paint-order="fill stroke markers" d=" M 813.961199939251 475.2234344482422 L 821.961199939251 475.2234344482422 L 821.961199939251 483.2234344482422 L 813.961199939251 483.2234344482422 L 813.961199939251 475.2234344482422 Z" stroke-miterlimit="10" stroke-width="0.5" stroke-dasharray="0"/><path fill="#e0e0e0" stroke="none" paint-order="stroke fill markers" d=" M 983.2456909120083 240.7390594482422 L 975.2456909120083 206.7390594482422 L 975.2456909120083 274.7390594482422 Z M 697.961199939251 461.2234344482422 L 705.961199939251 427.2234344482422 L 705.961199939251 495.2234344482422 Z"/><path fill="none" stroke="none"/><path fill="none" stroke="#e0e0e0" paint-order="fill stroke markers" d=" M 983.2456909120083 240.7390594482422 C 1091.412478960768 240.7390594482422 589.7944118904911 461.2234344482422 697.961199939251 461.2234344482422" stroke-miterlimit="10" stroke-width="2" stroke-dasharray="0"/><path fill="white" stroke="#505050" paint-order="fill stroke markers" d=" M 507.90490263700485 430.51404190063477 L 507.90490263700485 512.3046607971191 Q 507.90490263700485 520.3046607971191 515.9049026370049 520.3046607971191 L 658.0861770510674 520.3046607971191 Q 666.0861770510674 520.3046607971191 666.0861770510674 512.3046607971191 L 666.0861770510674 430.51404190063477 Q 666.0861770510674 422.51404190063477 658.0861770510674 422.51404190063477 L 515.9049026370049 422.51404190063477 Q 507.90490263700485 422.51404190063477 507.90490263700485 430.51404190063477" stroke-miterlimit="10" stroke-width="0.5" stroke-dasharray="0"/><path fill="#F0F0F0" stroke="#505050" paint-order="fill stroke markers" d=" M 599.0861770510674 430.51404190063477 L 666.0861770510674 430.51404190063477 L 666.0861770510674 472.51404190063477 L 599.0861770510674 472.51404190063477 L 599.0861770510674 430.51404190063477 Z" stroke-miterlimit="10" stroke-width="0.5" stroke-dasharray="0"/><text fill="#505050" stroke="none" font-family="monospace" font-size="14px" font-style="normal" font-weight="normal" text-decoration="normal" x="632.5861770510674" y="448.51404190063477" text-anchor="middle" dominant-baseline="text-after-edge">adapter</text><path fill="none" stroke="#505050" paint-order="fill stroke markers" d=" M 599.0861770510674 448.51404190063477 L 607.0861770510674 448.51404190063477 L 607.0861770510674 456.51404190063477 L 599.0861770510674 456.51404190063477 L 599.0861770510674 448.51404190063477 Z" stroke-miterlimit="10" stroke-width="0.5" stroke-dasharray="0"/><path fill="none" stroke="#505050" paint-order="fill stroke markers" d=" M 599.0861770510674 460.51404190063477 L 607.0861770510674 460.51404190063477 L 607.0861770510674 468.51404190063477 L 599.0861770510674 468.51404190063477 L 599.0861770510674 460.51404190063477 Z" stroke-miterlimit="10" stroke-width="0.5" stroke-dasharray="0"/><path fill="none" stroke="#505050" paint-order="fill stroke markers" d=" M 658.0861770510674 448.51404190063477 L 666.0861770510674 448.51404190063477 L 666.0861770510674 456.51404190063477 L 658.0861770510674 456.51404190063477 L 658.0861770510674 448.51404190063477 Z" stroke-miterlimit="10" stroke-width="0.5" stroke-dasharray="0"/><path fill="none" stroke="#505050" paint-order="fill stroke markers" d=" M 658.0861770510674 460.51404190063477 L 666.0861770510674 460.51404190063477 L 666.0861770510674 468.51404190063477 L 658.0861770510674 468.51404190063477 L 658.0861770510674 460.51404190063477 Z" stroke-miterlimit="10" stroke-width="0.5" stroke-dasharray="0"/><path fill="white" stroke="#505050" paint-order="fill stroke markers" d=" M 579.0361282229424 488.30466079711914 L 587.0361282229424 488.30466079711914 L 595.0361282229424 496.30466079711914 L 587.0361282229424 504.30466079711914 L 579.0361282229424 504.30466079711914 L 579.0361282229424 488.30466079711914" stroke-miterlimit="10" stroke-width="0.5" stroke-dasharray="0"/><path fill="none" stroke="#505050" paint-order="fill stroke markers" d=" M 579.0361282229424 492.30466079711914 L 587.0361282229424 492.30466079711914 L 587.0361282229424 500.30466079711914 L 579.0361282229424 500.30466079711914 L 579.0361282229424 492.30466079711914 Z" stroke-miterlimit="10" stroke-width="0.5" stroke-dasharray="0"/><path fill="white" stroke="#505050" paint-order="fill stroke markers" d=" M 578.7642776370049 443.63278579711914 L 586.7642776370049 443.63278579711914 L 594.7642776370049 451.63278579711914 L 586.7642776370049 459.63278579711914 L 578.7642776370049 459.63278579711914 L 578.7642776370049 443.63278579711914" stroke-miterlimit="10" stroke-width="0.5" stroke-dasharray="0"/><path fill="none" stroke="#505050" paint-order="fill stroke markers" d=" M 578.7642776370049 447.63278579711914 L 586.7642776370049 447.63278579711914 L 586.7642776370049 455.63278579711914 L 578.7642776370049 455.63278579711914 L 578.7642776370049 447.63278579711914 Z" stroke-miterlimit="10" stroke-width="0.5" stroke-dasharray="0"/><path fill="white" stroke="#505050" paint-order="fill stroke markers" d=" M 545.8080398440361 462.7046546936035 L 569.8080398440361 462.7046546936035 L 569.8080398440361 490.7046546936035 L 545.8080398440361 490.7046546936035 L 545.8080398440361 462.7046546936035 Z" stroke-miterlimit="10" stroke-width="0.5" stroke-dasharray="0"/><path fill="#F0F0F0" stroke="none" paint-order="stroke fill markers" d=""/><path fill="none" stroke="#505050" paint-order="fill stroke markers" d=" M 545.8080398440361 466.7046546936035 L 553.8080398440361 466.7046546936035 L 553.8080398440361 474.7046546936035 L 545.8080398440361 474.7046546936035 L 545.8080398440361 466.7046546936035 Z" stroke-miterlimit="10" stroke-width="0.5" stroke-dasharray="0"/><path fill="none" stroke="#505050" paint-order="fill stroke markers" d=" M 545.8080398440361 478.7046546936035 L 553.8080398440361 478.7046546936035 L 553.8080398440361 486.7046546936035 L 545.8080398440361 486.7046546936035 L 545.8080398440361 478.7046546936035 Z" stroke-miterlimit="10" stroke-width="0.5" stroke-dasharray="0"/><path fill="none" stroke="#505050" paint-order="fill stroke markers" d=" M 561.8080398440361 466.7046546936035 L 569.8080398440361 466.7046546936035 L 569.8080398440361 474.7046546936035 L 561.8080398440361 474.7046546936035 L 561.8080398440361 466.7046546936035 Z" stroke-miterlimit="10" stroke-width="0.5" stroke-dasharray="0"/><path fill="#e0e0e0" stroke="none" paint-order="stroke fill markers" d=" M 499.4236373901367 476.7140235900879 L 491.4236373901367 462.7140235900879 L 491.4236373901367 490.7140235900879 Z M 537.8080398440361 476.7046546936035 L 545.8080398440361 462.7046546936035 L 545.8080398440361 490.7046546936035 Z"/><path fill="none" stroke="none"/><path fill="none" stroke="#e0e0e0" paint-order="fill stroke markers" d=" M 499.4236373901367 476.7140235900879 C 510.93895846932173 476.7140235900879 526.2927187648511 476.7046546936035 537.8080398440361 476.7046546936035" stroke-miterlimit="10" stroke-width="2" stroke-dasharray="0"/><path fill="white" stroke="#505050" paint-order="fill stroke markers" d=" M 675.8017150759697 508.0015411376953 L 707.8017150759697 508.0015411376953 L 707.8017150759697 526.0015411376953 L 675.8017150759697 526.0015411376953 L 683.8017150759697 517.0015411376953 L 675.8017150759697 508.0015411376953" stroke-miterlimit="10" stroke-width="0.5" stroke-dasharray="0"/><path fill="none" stroke="#505050" paint-order="fill stroke markers" d=" M 699.8017150759697 512.0015411376953 L 707.8017150759697 512.0015411376953 L 707.8017150759697 520.0015411376953 L 699.8017150759697 520.0015411376953 L 699.8017150759697 512.0015411376953 Z" stroke-miterlimit="10" stroke-width="0.5" stroke-dasharray="0"/><text fill="#505050" stroke="none" font-family="monospace" font-size="14px" font-style="normal" font-weight="normal" text-decoration="normal" x="691.8017150759697" y="526.0015411376953" text-anchor="end" dominant-baseline="text-after-edge">n</text><path fill="white" stroke="#505050" paint-order="fill stroke markers" d=" M 677.623662173748 530.1172218322754 L 726.623662173748 530.1172218322754 L 726.623662173748 548.1172218322754 L 677.623662173748 548.1172218322754 L 685.623662173748 539.1172218322754 L 677.623662173748 530.1172218322754" stroke-miterlimit="10" stroke-width="0.5" stroke-dasharray="0"/><path fill="none" stroke="#505050" paint-order="fill stroke markers" d=" M 718.623662173748 534.1172218322754 L 726.623662173748 534.1172218322754 L 726.623662173748 542.1172218322754 L 718.623662173748 542.1172218322754 L 718.623662173748 534.1172218322754 Z" stroke-miterlimit="10" stroke-width="0.5" stroke-dasharray="0"/><text fill="#505050" stroke="none" font-family="monospace" font-size="14px" font-style="normal" font-weight="normal" text-decoration="normal" x="710.623662173748" y="548.1172218322754" text-anchor="end" dominant-baseline="text-after-edge">acc</text><path fill="none" stroke="none"/><path fill="white" stroke="#505050" paint-order="fill stroke markers" d=" M 451.4236373901367 458.7140235900879 L 491.4236373901367 458.7140235900879 L 491.4236373901367 494.7140235900879 L 451.4236373901367 494.7140235900879 L 459.4236373901367 476.7140235900879 L 451.4236373901367 458.7140235900879" stroke-miterlimit="10" stroke-width="0.5" stroke-dasharray="6,3"/><path fill="#F0F0F0" stroke="none" paint-order="stroke fill markers" d=" M 467.4236373901367 462.7140235900879 L 491.4236373901367 462.7140235900879 L 491.4236373901367 490.7140235900879 L 467.4236373901367 490.7140235900879 L 467.4236373901367 462.7140235900879 Z"/><path fill="none" stroke="#505050" paint-order="fill stroke markers" d=" M 467.4236373901367 462.7140235900879 L 491.4236373901367 462.7140235900879 L 491.4236373901367 490.7140235900879 L 467.4236373901367 490.7140235900879 L 467.4236373901367 462.7140235900879 Z" stroke-miterlimit="10" stroke-width="0.5" stroke-dasharray="0"/><path fill="none" stroke="#505050" paint-order="fill stroke markers" d=" M 467.4236373901367 466.7140235900879 L 475.4236373901367 466.7140235900879 L 475.4236373901367 474.7140235900879 L 467.4236373901367 474.7140235900879 L 467.4236373901367 466.7140235900879 Z" stroke-miterlimit="10" stroke-width="0.5" stroke-dasharray="0"/><path fill="none" stroke="#505050" paint-order="fill stroke markers" d=" M 467.4236373901367 478.7140235900879 L 475.4236373901367 478.7140235900879 L 475.4236373901367 486.7140235900879 L 467.4236373901367 486.7140235900879 L 467.4236373901367 478.7140235900879 Z" stroke-miterlimit="10" stroke-width="0.5" stroke-dasharray="0"/><path fill="none" stroke="#505050" paint-order="fill stroke markers" d=" M 483.4236373901367 466.7140235900879 L 491.4236373901367 466.7140235900879 L 491.4236373901367 474.7140235900879 L 483.4236373901367 474.7140235900879 L 483.4236373901367 466.7140235900879 Z" stroke-miterlimit="10" stroke-width="0.5" stroke-dasharray="0"/><path fill="none" stroke="#505050" paint-order="fill stroke markers" d=" M 467.4236373901367 462.7140235900879 L 491.4236373901367 462.7140235900879 L 491.4236373901367 490.7140235900879 L 467.4236373901367 490.7140235900879 L 467.4236373901367 462.7140235900879 Z" stroke-miterlimit="10" stroke-width="0.5" stroke-dasharray="6,3"/><path fill="#F0F0F0" stroke="none" paint-order="stroke fill markers" d=""/><path fill="none" stroke="#505050" paint-order="fill stroke markers" d=" M 467.4236373901367 466.7140235900879 L 475.4236373901367 466.7140235900879 L 475.4236373901367 474.7140235900879 L 467.4236373901367 474.7140235900879 L 467.4236373901367 466.7140235900879 Z" stroke-miterlimit="10" stroke-width="0.5" stroke-dasharray="0"/><path fill="none" stroke="#505050" paint-order="fill stroke markers" d=" M 467.4236373901367 478.7140235900879 L 475.4236373901367 478.7140235900879 L 475.4236373901367 486.7140235900879 L 467.4236373901367 486.7140235900879 L 467.4236373901367 478.7140235900879 Z" stroke-miterlimit="10" stroke-width="0.5" stroke-dasharray="0"/><path fill="none" stroke="#505050" paint-order="fill stroke markers" d=" M 483.4236373901367 466.7140235900879 L 491.4236373901367 466.7140235900879 L 491.4236373901367 474.7140235900879 L 483.4236373901367 474.7140235900879 L 483.4236373901367 466.7140235900879 Z" stroke-miterlimit="10" stroke-width="0.5" stroke-dasharray="0"/><path fill="white" stroke="#505050" paint-order="fill stroke markers" d=" M 898.7173843383789 471.7890625 L 906.7173843383789 471.7890625 L 914.7173843383789 479.7890625 L 906.7173843383789 487.7890625 L 898.7173843383789 487.7890625 L 898.7173843383789 471.7890625" stroke-miterlimit="10" stroke-width="0.5" stroke-dasharray="0"/><path fill="none" stroke="#505050" paint-order="fill stroke markers" d=" M 898.7173843383789 475.7890625 L 906.7173843383789 475.7890625 L 906.7173843383789 483.7890625 L 898.7173843383789 483.7890625 L 898.7173843383789 475.7890625 Z" stroke-miterlimit="10" stroke-width="0.5" stroke-dasharray="0"/><path fill="white" stroke="#505050" paint-order="fill stroke markers" d=" M 598.8955535888672 586.4297180175781 L 598.8955535888672 691.8297348022461 Q 598.8955535888672 699.8297348022461 606.8955535888672 699.8297348022461 L 782.6486587524414 699.8297348022461 Q 790.6486587524414 699.8297348022461 790.6486587524414 691.8297348022461 L 790.6486587524414 586.4297180175781 Q 790.6486587524414 578.4297180175781 782.6486587524414 578.4297180175781 L 606.8955535888672 578.4297180175781 Q 598.8955535888672 578.4297180175781 598.8955535888672 586.4297180175781" stroke-miterlimit="10" stroke-width="0.5" stroke-dasharray="0"/><path fill="#F0F0F0" stroke="#505050" paint-order="fill stroke markers" d=" M 750.6486587524414 586.4297180175781 L 790.6486587524414 586.4297180175781 L 790.6486587524414 618.4297180175781 L 750.6486587524414 618.4297180175781 L 750.6486587524414 586.4297180175781 Z" stroke-miterlimit="10" stroke-width="0.5" stroke-dasharray="0"/><text fill="#505050" stroke="none" font-family="monospace" font-size="14px" font-style="normal" font-weight="normal" text-decoration="normal" x="770.6486587524414" y="604.4297180175781" text-anchor="middle" dominant-baseline="text-after-edge">n!</text><path fill="none" stroke="#505050" paint-order="fill stroke markers" d=" M 750.6486587524414 604.4297180175781 L 758.6486587524414 604.4297180175781 L 758.6486587524414 612.4297180175781 L 750.6486587524414 612.4297180175781 L 750.6486587524414 604.4297180175781 Z" stroke-miterlimit="10" stroke-width="0.5" stroke-dasharray="0"/><text fill="#505050" stroke="none" font-family="monospace" font-size="14px" font-style="normal" font-weight="normal" text-decoration="normal" x="766.6486587524414" y="618.4297180175781" text-anchor="start" dominant-baseline="text-after-edge">n</text><path fill="none" stroke="#505050" paint-order="fill stroke markers" d=" M 782.6486587524414 604.4297180175781 L 790.6486587524414 604.4297180175781 L 790.6486587524414 612.4297180175781 L 782.6486587524414 612.4297180175781 L 782.6486587524414 604.4297180175781 Z" stroke-miterlimit="10" stroke-width="0.5" stroke-dasharray="0"/><path fill="white" stroke="#505050" paint-order="fill stroke markers" d=" M 684.0253677368164 592.3804321289062 L 743.0253677368164 592.3804321289062 L 743.0253677368164 670.3804321289062 L 684.0253677368164 670.3804321289062 L 684.0253677368164 592.3804321289062 Z" stroke-miterlimit="10" stroke-width="0.5" stroke-dasharray="0"/><path fill="#F0F0F0" stroke="none" paint-order="stroke fill markers" d=""/><text fill="#505050" stroke="none" font-family="monospace" font-size="14px" font-style="normal" font-weight="normal" text-decoration="normal" x="713.5253677368164" y="610.3804321289062" text-anchor="middle" dominant-baseline="text-after-edge">reduce</text><path fill="none" stroke="#505050" paint-order="fill stroke markers" d=" M 684.0253677368164 610.3804321289062 L 708.0253677368164 610.3804321289062 L 708.0253677368164 638.3804321289062 L 684.0253677368164 638.3804321289062 L 684.0253677368164 610.3804321289062 Z" stroke-miterlimit="10" stroke-width="0.5" stroke-dasharray="0"/><path fill="none" stroke="#505050" paint-order="fill stroke markers" d=" M 684.0253677368164 614.3804321289062 L 692.0253677368164 614.3804321289062 L 692.0253677368164 622.3804321289062 L 684.0253677368164 622.3804321289062 L 684.0253677368164 614.3804321289062 Z" stroke-miterlimit="10" stroke-width="0.5" stroke-dasharray="0"/><path fill="none" stroke="#505050" paint-order="fill stroke markers" d=" M 684.0253677368164 626.3804321289062 L 692.0253677368164 626.3804321289062 L 692.0253677368164 634.3804321289062 L 684.0253677368164 634.3804321289062 L 684.0253677368164 626.3804321289062 Z" stroke-miterlimit="10" stroke-width="0.5" stroke-dasharray="0"/><path fill="none" stroke="#505050" paint-order="fill stroke markers" d=" M 700.0253677368164 614.3804321289062 L 708.0253677368164 614.3804321289062 L 708.0253677368164 622.3804321289062 L 700.0253677368164 622.3804321289062 L 700.0253677368164 614.3804321289062 Z" stroke-miterlimit="10" stroke-width="0.5" stroke-dasharray="0"/><path fill="none" stroke="#505050" paint-order="fill stroke markers" d=" M 684.0253677368164 642.3804321289062 L 692.0253677368164 642.3804321289062 L 692.0253677368164 650.3804321289062 L 684.0253677368164 650.3804321289062 L 684.0253677368164 642.3804321289062 Z" stroke-miterlimit="10" stroke-width="0.5" stroke-dasharray="0"/><text fill="#505050" stroke="none" font-family="monospace" font-size="14px" font-style="normal" font-weight="normal" text-decoration="normal" x="700.0253677368164" y="656.3804321289062" text-anchor="start" dominant-baseline="text-after-edge">n</text><path fill="none" stroke="#505050" paint-order="fill stroke markers" d=" M 684.0253677368164 656.3804321289062 L 692.0253677368164 656.3804321289062 L 692.0253677368164 664.3804321289062 L 684.0253677368164 664.3804321289062 L 684.0253677368164 656.3804321289062 Z" stroke-miterlimit="10" stroke-width="0.5" stroke-dasharray="0"/><text fill="#505050" stroke="none" font-family="monospace" font-size="14px" font-style="normal" font-weight="normal" text-decoration="normal" x="700.0253677368164" y="670.3804321289062" text-anchor="start" dominant-baseline="text-after-edge">acc</text><path fill="none" stroke="#505050" paint-order="fill stroke markers" d=" M 735.0253677368164 610.3804321289062 L 743.0253677368164 610.3804321289062 L 743.0253677368164 618.3804321289062 L 735.0253677368164 618.3804321289062 L 735.0253677368164 610.3804321289062 Z" stroke-miterlimit="10" stroke-width="0.5" stroke-dasharray="0"/><path fill="#e0e0e0" stroke="none" paint-order="stroke fill markers" d=" M 1004.9361450076103 461.8796730041504 L 996.9361450076103 422.8796730041504 L 996.9361450076103 500.8796730041504 Z M 676.0253677368164 631.3804321289062 L 684.0253677368164 592.3804321289062 L 684.0253677368164 670.3804321289062 Z"/><path fill="none" stroke="none"/><path fill="none" stroke="#e0e0e0" paint-order="fill stroke markers" d=" M 1004.9361450076103 461.8796730041504 C 1115.9413368113596 461.8796730041504 565.0201759330671 631.3804321289062 676.0253677368164 631.3804321289062" stroke-miterlimit="10" stroke-width="2" stroke-dasharray="0"/><path fill="white" stroke="#505050" paint-order="fill stroke markers" d=" M 609.3330459594727 665.8297348022461 L 641.3330459594727 665.8297348022461 L 641.3330459594727 683.8297348022461 L 609.3330459594727 683.8297348022461 L 609.3330459594727 665.8297348022461 Z" stroke-miterlimit="10" stroke-width="0.5" stroke-dasharray="0"/><path fill="#F0F0F0" stroke="none" paint-order="stroke fill markers" d=""/><path fill="none" stroke="#505050" paint-order="fill stroke markers" d=" M 633.3330459594727 669.8297348022461 L 641.3330459594727 669.8297348022461 L 641.3330459594727 677.8297348022461 L 633.3330459594727 677.8297348022461 L 633.3330459594727 669.8297348022461 Z" stroke-miterlimit="10" stroke-width="0.5" stroke-dasharray="0"/><text fill="#505050" stroke="none" font-family="monospace" font-size="14px" font-style="normal" font-weight="normal" text-decoration="normal" x="625.3330459594727" y="683.8297348022461" text-anchor="end" dominant-baseline="text-after-edge">1</text><path fill="white" stroke="#505050" paint-order="fill stroke markers" d=" M 603.191746711731 590.6612224578857 L 603.191746711731 640.6612224578857 Q 603.191746711731 648.6612224578857 611.191746711731 648.6612224578857 L 657.4566698074341 648.6612224578857 Q 665.4566698074341 648.6612224578857 665.4566698074341 640.6612224578857 L 665.4566698074341 590.6612224578857 Q 665.4566698074341 582.6612224578857 657.4566698074341 582.6612224578857 L 611.191746711731 582.6612224578857 Q 603.191746711731 582.6612224578857 603.191746711731 590.6612224578857" stroke-miterlimit="10" stroke-width="0.5" stroke-dasharray="0"/><path fill="#F0F0F0" stroke="#505050" paint-order="fill stroke markers" d=" M 641.4566698074341 590.6612224578857 L 665.4566698074341 590.6612224578857 L 665.4566698074341 618.6612224578857 L 641.4566698074341 618.6612224578857 L 641.4566698074341 590.6612224578857 Z" stroke-miterlimit="10" stroke-width="0.5" stroke-dasharray="0"/><path fill="none" stroke="#505050" paint-order="fill stroke markers" d=" M 641.4566698074341 594.6612224578857 L 649.4566698074341 594.6612224578857 L 649.4566698074341 602.6612224578857 L 641.4566698074341 602.6612224578857 L 641.4566698074341 594.6612224578857 Z" stroke-miterlimit="10" stroke-width="0.5" stroke-dasharray="0"/><path fill="none" stroke="#505050" paint-order="fill stroke markers" d=" M 641.4566698074341 606.6612224578857 L 649.4566698074341 606.6612224578857 L 649.4566698074341 614.6612224578857 L 641.4566698074341 614.6612224578857 L 641.4566698074341 606.6612224578857 Z" stroke-miterlimit="10" stroke-width="0.5" stroke-dasharray="0"/><path fill="none" stroke="#505050" paint-order="fill stroke markers" d=" M 657.4566698074341 594.6612224578857 L 665.4566698074341 594.6612224578857 L 665.4566698074341 602.6612224578857 L 657.4566698074341 602.6612224578857 L 657.4566698074341 594.6612224578857 Z" stroke-miterlimit="10" stroke-width="0.5" stroke-dasharray="0"/><path fill="white" stroke="#505050" paint-order="fill stroke markers" d=" M 611.191746711731 590.6612224578857 L 635.191746711731 590.6612224578857 L 635.191746711731 632.6612224578857 L 611.191746711731 632.6612224578857 L 611.191746711731 590.6612224578857 Z" stroke-miterlimit="10" stroke-width="0.5" stroke-dasharray="0"/><path fill="#F0F0F0" stroke="none" paint-order="stroke fill markers" d=""/><text fill="#505050" stroke="none" font-family="monospace" font-size="14px" font-style="normal" font-weight="normal" text-decoration="normal" x="623.191746711731" y="608.6612224578857" text-anchor="middle" dominant-baseline="text-after-edge">*</text><path fill="none" stroke="#505050" paint-order="fill stroke markers" d=" M 611.191746711731 608.6612224578857 L 619.191746711731 608.6612224578857 L 619.191746711731 616.6612224578857 L 611.191746711731 616.6612224578857 L 611.191746711731 608.6612224578857 Z" stroke-miterlimit="10" stroke-width="0.5" stroke-dasharray="0"/><path fill="none" stroke="#505050" paint-order="fill stroke markers" d=" M 611.191746711731 620.6612224578857 L 619.191746711731 620.6612224578857 L 619.191746711731 628.6612224578857 L 611.191746711731 628.6612224578857 L 611.191746711731 620.6612224578857 Z" stroke-miterlimit="10" stroke-width="0.5" stroke-dasharray="0"/><path fill="none" stroke="#505050" paint-order="fill stroke markers" d=" M 627.191746711731 608.6612224578857 L 635.191746711731 608.6612224578857 L 635.191746711731 616.6612224578857 L 627.191746711731 616.6612224578857 L 627.191746711731 608.6612224578857 Z" stroke-miterlimit="10" stroke-width="0.5" stroke-dasharray="0"/><path fill="none" stroke="#505050" paint-order="fill stroke markers" d=" M 576.6952262818813 119.47723770141602 C 580.3511867400784 119.47723770141602 585.224320602737 119.66716384887695 588.8802810609341 119.66716384887695" stroke-miterlimit="10" stroke-dasharray="0"/><path fill="none" stroke="#505050" paint-order="fill stroke markers" d=" M 822.8735839724541 241.78591918945312 C 826.3714566803202 241.78591918945312 831.0352266454473 241.74841690063477 834.5330993533134 241.74841690063477" stroke-miterlimit="10" stroke-dasharray="0"/><path fill="none" stroke="#505050" paint-order="fill stroke markers" d=" M 494.4423824250698 313.97657775878906 C 537.892705873173 313.97657775878906 580.557769819576 249.24842834472656 624.0080932676792 249.24842834472656" stroke-miterlimit="10" stroke-dasharray="0"/><path fill="none" stroke="#505050" paint-order="fill stroke markers" d=" M 722.1049591004848 254.23596954345703 C 732.5146459531016 254.23596954345703 730.2984826970868 283.52655029296875 740.7081695497036 283.52655029296875" stroke-miterlimit="10" stroke-dasharray="0"/><path fill="none" stroke="#505050" paint-order="fill stroke markers" d=" M 544.1707092225552 244.48592376708984 C 568.220138130622 244.48592376708984 599.9586643596124 237.24842834472656 624.0080932676792 237.24842834472656" stroke-miterlimit="10" stroke-dasharray="0"/><path fill="none" stroke="#505050" paint-order="fill stroke markers" d=" M 648.0080932676792 237.24842834472656 C 663.5938910064052 237.24842834472656 681.5191613617588 254.23596954345703 697.1049591004848 254.23596954345703" stroke-miterlimit="10" stroke-dasharray="0"/><path fill="none" stroke="#505050" paint-order="fill stroke markers" d=" M 651.0455566346645 298.0671920776367 C 667.8420614948311 298.0671920776367 680.3084542403183 266.23596954345703 697.1049591004848 266.23596954345703" stroke-miterlimit="10" stroke-dasharray="0"/><path fill="none" stroke="#505050" paint-order="fill stroke markers" d=" M 544.1707092225552 244.48592376708984 C 569.4129918579671 244.48592376708984 583.8032739992526 298.0671920776367 609.0455566346645 298.0671920776367" stroke-miterlimit="10" stroke-dasharray="0"/><path fill="none" stroke="#505050" paint-order="fill stroke markers" d=" M 551.4236938357353 359.43907165527344 C 574.1878661442172 359.43907165527344 586.2813843261827 310.0671920776367 609.0455566346645 310.0671920776367" stroke-miterlimit="10" stroke-dasharray="0"/><path fill="none" stroke="#505050" paint-order="fill stroke markers" d=" M 651.0455566346645 310.0671920776367 C 659.0232185765914 310.0671920776367 666.6428397551366 322.3703384399414 674.6205016970634 322.3703384399414" stroke-miterlimit="10" stroke-dasharray="0"/><path fill="none" stroke="#505050" paint-order="fill stroke markers" d=" M 608.6018432676792 342.9890594482422 C 630.9652669647782 342.9890594482422 652.2570779999645 308.3703384399414 674.6205016970634 308.3703384399414" stroke-miterlimit="10" stroke-dasharray="0"/><path fill="none" stroke="#505050" paint-order="fill stroke markers" d=" M 544.1707092225552 244.48592376708984 C 576.0013766110873 244.48592376708984 551.7711758791471 342.9890594482422 583.6018432676792 342.9890594482422" stroke-miterlimit="10" stroke-dasharray="0"/><path fill="none" stroke="#505050" paint-order="fill stroke markers" d=" M 716.6205016970634 308.3703384399414 C 724.8098897870802 308.3703384399414 732.5187814596868 295.52655029296875 740.7081695497036 295.52655029296875" stroke-miterlimit="10" stroke-dasharray="0"/><path fill="none" stroke="#505050" paint-order="fill stroke markers" d=" M 716.6205016970634 320.3703384399414 C 724.8098897870802 320.3703384399414 732.5187814596868 307.52655029296875 740.7081695497036 307.52655029296875" stroke-miterlimit="10" stroke-dasharray="0"/><path fill="none" stroke="#505050" paint-order="fill stroke markers" d=" M 544.1707092225552 244.48592376708984 C 607.2835146166411 244.48592376708984 677.5953641556176 319.52655029296875 740.7081695497036 319.52655029296875" stroke-miterlimit="10" stroke-dasharray="0"/><path fill="none" stroke="#505050" paint-order="fill stroke markers" d=" M 551.4236938357353 359.43907165527344 C 608.8231271392111 359.43907165527344 683.3087362462278 331.52655029296875 740.7081695497036 331.52655029296875" stroke-miterlimit="10" stroke-dasharray="0"/><path fill="none" stroke="#505050" paint-order="fill stroke markers" d=" M 827.005877673626 58.77638244628906 C 850.1036000853243 58.77638244628906 798.3572427923021 135.56842803955078 821.4549652040005 135.56842803955078" stroke-miterlimit="10" stroke-dasharray="0"/><path fill="none" stroke="#505050" paint-order="fill stroke markers" d=" M 827.005877673626 58.77638244628906 C 832.8964403906006 58.77638244628906 834.6518963835102 72.99968719482422 840.5424591004848 72.99968719482422" stroke-miterlimit="10" stroke-dasharray="0"/><path fill="none" stroke="#505050" paint-order="fill stroke markers" d=" M 666.0861770510674 451.51404190063477 C 678.2702115446481 451.51404190063477 693.7771654456702 459.2234344482422 705.961199939251 459.2234344482422" stroke-miterlimit="10" stroke-dasharray="0"/><path fill="none" stroke="#505050" paint-order="fill stroke markers" d=" M 726.623662173748 538.1172218322754 C 765.6591655773086 538.1172218322754 804.8537971216278 481.7296905517578 843.8893005251884 481.7296905517578" stroke-miterlimit="10" stroke-dasharray="0"/><path fill="none" stroke="#505050" paint-order="fill stroke markers" d=" M 707.8017150759697 516.0015411376953 C 718.2497473346504 516.0015411376953 695.5131676805703 481.2234344482422 705.961199939251 481.2234344482422" stroke-miterlimit="10" stroke-dasharray="0"/><path fill="none" stroke="#505050" paint-order="fill stroke markers" d=" M 885.8893005251884 479.7296905517578 C 889.7377668874142 479.7296905517578 894.8689179761532 479.7890625 898.7173843383789 479.7890625" stroke-miterlimit="10" stroke-dasharray="0"/><path fill="none" stroke="#505050" paint-order="fill stroke markers" d=" M 569.8080398440361 470.7046546936035 C 576.1290788468267 470.7046546936035 572.4432386342143 451.63278579711914 578.7642776370049 451.63278579711914" stroke-miterlimit="10" stroke-dasharray="0"/><path fill="none" stroke="#505050" paint-order="fill stroke markers" d=" M 569.8080398440361 470.7046546936035 C 577.9717775594827 470.7046546936035 570.8723905074958 496.30466079711914 579.0361282229424 496.30466079711914" stroke-miterlimit="10" stroke-dasharray="0"/><path fill="none" stroke="#505050" paint-order="fill stroke markers" d=" M 641.3330459594727 673.8297348022461 C 654.7612486427264 673.8297348022461 670.5971650535627 660.3804321289062 684.0253677368164 660.3804321289062" stroke-miterlimit="10" stroke-dasharray="0"/><path fill="none" stroke="#505050" paint-order="fill stroke markers" d=" M 665.4566698074341 604.6612224578857 C 673.5824275909155 604.6612224578857 675.899609953335 624.3804321289062 684.0253677368164 624.3804321289062" stroke-miterlimit="10" stroke-dasharray="0"/></g></g></svg>