<svg version="1.1" xmlns="http://www.w3.org/2000/svg" xmlns:xlink="http://www.w3.org/1999/xlink" width="505.7415105700493" height="189.26207447052002"><defs/><g transform="translate(-444.14129638671875,-57.26846122741699)"><g><path fill="none" stroke="none"/><path fill="white" stroke="#505050" paint-order="fill stroke markers" d=" M 444.14129638671875 161.6676025390625 L 468.14129638671875 161.6676025390625 L 468.14129638671875 181.6676025390625 L 444.14129638671875 181.6676025390625 L 452.14129638671875 171.6676025390625 L 444.14129638671875 161.6676025390625" stroke-miterlimit="10" stroke-width="0.5" stroke-dasharray=""/><path fill="#F0F0F0" stroke="none" paint-order="stroke fill markers" d=" M 460.14129638671875 165.6676025390625 L 468.14129638671875 165.6676025390625 L 468.14129638671875 177.6676025390625 L 460.14129638671875 177.6676025390625 L 460.14129638671875 165.6676025390625 Z"/><path fill="none" stroke="none"/><path fill="none" stroke="#505050" paint-order="fill stroke markers" d=" M 460.14129638671875 165.6676025390625 L 468.14129638671875 165.6676025390625 L 468.14129638671875 177.6676025390625 L 460.14129638671875 177.6676025390625 L 460.14129638671875 165.6676025390625 Z" stroke-miterlimit="10" stroke-width="0.5" stroke-dasharray=""/><path fill="none" stroke="none"/><path fill="none" stroke="none"/><path fill="white" stroke="#505050" paint-order="fill stroke markers" d=" M 491.4857398867607 160.733660697937 L 507.4857398867607 160.733660697937 L 515.4857398867607 170.733660697937 L 507.4857398867607 180.733660697937 L 491.4857398867607 180.733660697937 L 491.4857398867607 160.733660697937" stroke-miterlimit="10" stroke-width="0.5" stroke-dasharray=""/><path fill="none" stroke="none"/><path fill="none" stroke="#505050" paint-order="fill stroke markers" d=" M 499.4857398867607 164.733660697937 L 507.4857398867607 164.733660697937 L 507.4857398867607 176.733660697937 L 499.4857398867607 176.733660697937 L 499.4857398867607 164.733660697937 Z" stroke-miterlimit="10" stroke-width="0.5" stroke-dasharray=""/><path fill="none" stroke="none"/><path fill="none" stroke="none"/><path fill="white" stroke="#505050" paint-order="fill stroke markers" d=" M 615.9707862734795 145.22940349578857 L 647.9707862734795 145.22940349578857 L 655.9707862734795 170.22940349578857 L 647.9707862734795 195.22940349578857 L 615.9707862734795 195.22940349578857 L 615.9707862734795 145.22940349578857" stroke-miterlimit="10" stroke-width="0.5" stroke-dasharray=""/><path fill="none" stroke="none"/><path fill="none" stroke="#505050" paint-order="fill stroke markers" d=" M 623.9707862734795 149.22940349578857 L 647.9707862734795 149.22940349578857 L 647.9707862734795 191.22940349578857 L 623.9707862734795 191.22940349578857 L 623.9707862734795 149.22940349578857 Z" stroke-miterlimit="10" stroke-width="0.5" stroke-dasharray=""/><path fill="none" stroke="none"/><text fill="#505050" stroke="none" font-family="monospace" font-size="14px" font-style="normal" font-weight="normal" text-decoration="normal" x="635.9707862734795" y="167.22940349578857" text-anchor="middle" dominant-baseline="text-after-edge">+</text><path fill="none" stroke="#505050" paint-order="fill stroke markers" d=" M 623.9707862734795 167.22940349578857 L 631.9707862734795 167.22940349578857 L 631.9707862734795 175.22940349578857 L 623.9707862734795 175.22940349578857 L 623.9707862734795 167.22940349578857 Z" stroke-miterlimit="10" stroke-width="0.5" stroke-dasharray=""/><path fill="none" stroke="#505050" paint-order="fill stroke markers" d=" M 623.9707862734795 179.22940349578857 L 631.9707862734795 179.22940349578857 L 631.9707862734795 187.22940349578857 L 623.9707862734795 187.22940349578857 L 623.9707862734795 179.22940349578857 Z" stroke-miterlimit="10" stroke-width="0.5" stroke-dasharray=""/><path fill="none" stroke="#505050" paint-order="fill stroke markers" d=" M 639.9707862734795 167.22940349578857 L 647.9707862734795 167.22940349578857 L 647.9707862734795 175.22940349578857 L 639.9707862734795 175.22940349578857 L 639.9707862734795 167.22940349578857 Z" stroke-miterlimit="10" stroke-width="0.5" stroke-dasharray=""/><path fill="none" stroke="#505050" paint-order="fill stroke markers" d=" M 623.9707862734795 149.22940349578857 L 647.9707862734795 149.22940349578857 L 647.9707862734795 191.22940349578857 L 623.9707862734795 191.22940349578857 L 623.9707862734795 149.22940349578857 Z" stroke-miterlimit="10" stroke-width="0.5" stroke-dasharray=""/><path fill="#F0F0F0" stroke="none" paint-order="stroke fill markers" d=""/><path fill="none" stroke="none"/><text fill="#505050" stroke="none" font-family="monospace" font-size="14px" font-style="normal" font-weight="normal" text-decoration="normal" x="635.9707862734795" y="167.22940349578857" text-anchor="middle" dominant-baseline="text-after-edge">+</text><path fill="none" stroke="#505050" paint-order="fill stroke markers" d=" M 623.9707862734795 167.22940349578857 L 631.9707862734795 167.22940349578857 L 631.9707862734795 175.22940349578857 L 623.9707862734795 175.22940349578857 L 623.9707862734795 167.22940349578857 Z" stroke-miterlimit="10" stroke-width="0.5" stroke-dasharray=""/><path fill="none" stroke="#505050" paint-order="fill stroke markers" d=" M 623.9707862734795 179.22940349578857 L 631.9707862734795 179.22940349578857 L 631.9707862734795 187.22940349578857 L 623.9707862734795 187.22940349578857 L 623.9707862734795 179.22940349578857 Z" stroke-miterlimit="10" stroke-width="0.5" stroke-dasharray=""/><path fill="none" stroke="#505050" paint-order="fill stroke markers" d=" M 639.9707862734795 167.22940349578857 L 647.9707862734795 167.22940349578857 L 647.9707862734795 175.22940349578857 L 639.9707862734795 175.22940349578857 L 639.9707862734795 167.22940349578857 Z" stroke-miterlimit="10" stroke-width="0.5" stroke-dasharray=""/><path fill="none" stroke="none"/><path fill="white" stroke="#505050" paint-order="fill stroke markers" d=" M 557.6569213867188 146.4722900390625 L 597.6569213867188 146.4722900390625 L 597.6569213867188 196.4722900390625 L 557.6569213867188 196.4722900390625 L 565.6569213867188 171.4722900390625 L 557.6569213867188 146.4722900390625" stroke-miterlimit="10" stroke-width="0.5" stroke-dasharray=""/><path fill="#F0F0F0" stroke="none" paint-order="stroke fill markers" d=" M 573.6569213867188 150.4722900390625 L 597.6569213867188 150.4722900390625 L 597.6569213867188 192.4722900390625 L 573.6569213867188 192.4722900390625 L 573.6569213867188 150.4722900390625 Z"/><path fill="none" stroke="none"/><path fill="none" stroke="#505050" paint-order="fill stroke markers" d=" M 573.6569213867188 150.4722900390625 L 597.6569213867188 150.4722900390625 L 597.6569213867188 192.4722900390625 L 573.6569213867188 192.4722900390625 L 573.6569213867188 150.4722900390625 Z" stroke-miterlimit="10" stroke-width="0.5" stroke-dasharray=""/><path fill="none" stroke="none"/><text fill="#505050" stroke="none" font-family="monospace" font-size="14px" font-style="normal" font-weight="normal" text-decoration="normal" x="585.6569213867188" y="168.4722900390625" text-anchor="middle" dominant-baseline="text-after-edge">+</text><path fill="none" stroke="#505050" paint-order="fill stroke markers" d=" M 573.6569213867188 168.4722900390625 L 581.6569213867188 168.4722900390625 L 581.6569213867188 176.4722900390625 L 573.6569213867188 176.4722900390625 L 573.6569213867188 168.4722900390625 Z" stroke-miterlimit="10" stroke-width="0.5" stroke-dasharray=""/><path fill="none" stroke="#505050" paint-order="fill stroke markers" d=" M 573.6569213867188 180.4722900390625 L 581.6569213867188 180.4722900390625 L 581.6569213867188 188.4722900390625 L 573.6569213867188 188.4722900390625 L 573.6569213867188 180.4722900390625 Z" stroke-miterlimit="10" stroke-width="0.5" stroke-dasharray=""/><path fill="none" stroke="#505050" paint-order="fill stroke markers" d=" M 589.6569213867188 168.4722900390625 L 597.6569213867188 168.4722900390625 L 597.6569213867188 176.4722900390625 L 589.6569213867188 176.4722900390625 L 589.6569213867188 168.4722900390625 Z" stroke-miterlimit="10" stroke-width="0.5" stroke-dasharray=""/><path fill="none" stroke="#505050" paint-order="fill stroke markers" d=" M 573.6569213867188 150.4722900390625 L 597.6569213867188 150.4722900390625 L 597.6569213867188 192.4722900390625 L 573.6569213867188 192.4722900390625 L 573.6569213867188 150.4722900390625 Z" stroke-miterlimit="10" stroke-width="0.5" stroke-dasharray=""/><path fill="#F0F0F0" stroke="none" paint-order="stroke fill markers" d=""/><path fill="none" stroke="none"/><text fill="#505050" stroke="none" font-family="monospace" font-size="14px" font-style="normal" font-weight="normal" text-decoration="normal" x="585.6569213867188" y="168.4722900390625" text-anchor="middle" dominant-baseline="text-after-edge">+</text><path fill="none" stroke="#505050" paint-order="fill stroke markers" d=" M 573.6569213867188 168.4722900390625 L 581.6569213867188 168.4722900390625 L 581.6569213867188 176.4722900390625 L 573.6569213867188 176.4722900390625 L 573.6569213867188 168.4722900390625 Z" stroke-miterlimit="10" stroke-width="0.5" stroke-dasharray=""/><path fill="none" stroke="#505050" paint-order="fill stroke markers" d=" M 573.6569213867188 180.4722900390625 L 581.6569213867188 180.4722900390625 L 581.6569213867188 188.4722900390625 L 573.6569213867188 188.4722900390625 L 573.6569213867188 180.4722900390625 Z" stroke-miterlimit="10" stroke-width="0.5" stroke-dasharray=""/><path fill="none" stroke="#505050" paint-order="fill stroke markers" d=" M 589.6569213867188 168.4722900390625 L 597.6569213867188 168.4722900390625 L 597.6569213867188 176.4722900390625 L 589.6569213867188 176.4722900390625 L 589.6569213867188 168.4722900390625 Z" stroke-miterlimit="10" stroke-width="0.5" stroke-dasharray=""/><path fill="white" stroke="#505050" paint-order="fill stroke markers" d=" M 687.7385864257812 73.26846122741699 L 687.7385864257812 230.530535697937 Q 687.7385864257812 238.530535697937 695.7385864257812 238.530535697937 L 933.882806956768 238.530535697937 Q 941.882806956768 238.530535697937 941.882806956768 230.530535697937 L 941.882806956768 73.26846122741699 Q 941.882806956768 65.26846122741699 933.882806956768 65.26846122741699 L 695.7385864257812 65.26846122741699 Q 687.7385864257812 65.26846122741699 687.7385864257812 73.26846122741699" stroke-miterlimit="10" stroke-width="0.5" stroke-dasharray=""/><path fill="#F0F0F0" stroke="#505050" paint-order="fill stroke markers" d=" M 869.882806956768 73.26846122741699 L 941.882806956768 73.26846122741699 L 941.882806956768 135.268461227417 L 869.882806956768 135.268461227417 L 869.882806956768 73.26846122741699 Z" stroke-miterlimit="10" stroke-width="0.5" stroke-dasharray=""/><path fill="none" stroke="none"/><path fill="none" stroke="#505050" paint-order="fill stroke markers" d=" M 869.882806956768 77.26846122741699 L 893.882806956768 77.26846122741699 L 893.882806956768 105.26846122741699 L 869.882806956768 105.26846122741699 L 869.882806956768 77.26846122741699 Z" stroke-miterlimit="10" stroke-width="0.5" stroke-dasharray=""/><path fill="none" stroke="none"/><path fill="none" stroke="#505050" paint-order="fill stroke markers" d=" M 869.882806956768 81.26846122741699 L 877.882806956768 81.26846122741699 L 877.882806956768 89.26846122741699 L 869.882806956768 89.26846122741699 L 869.882806956768 81.26846122741699 Z" stroke-miterlimit="10" stroke-width="0.5" stroke-dasharray=""/><path fill="none" stroke="#505050" paint-order="fill stroke markers" d=" M 869.882806956768 93.26846122741699 L 877.882806956768 93.26846122741699 L 877.882806956768 101.26846122741699 L 869.882806956768 101.26846122741699 L 869.882806956768 93.26846122741699 Z" stroke-miterlimit="10" stroke-width="0.5" stroke-dasharray=""/><path fill="none" stroke="#505050" paint-order="fill stroke markers" d=" M 885.882806956768 81.26846122741699 L 893.882806956768 81.26846122741699 L 893.882806956768 89.26846122741699 L 885.882806956768 89.26846122741699 L 885.882806956768 81.26846122741699 Z" stroke-miterlimit="10" stroke-width="0.5" stroke-dasharray=""/><text fill="#505050" stroke="none" font-family="monospace" font-size="14px" font-style="normal" font-weight="normal" text-decoration="normal" x="901.882806956768" y="100.26846122741699" text-anchor="start" dominant-baseline="text-after-edge">+</text><path fill="none" stroke="#505050" paint-order="fill stroke markers" d=" M 933.882806956768 77.26846122741699 L 941.882806956768 77.26846122741699 L 941.882806956768 85.26846122741699 L 933.882806956768 85.26846122741699 L 933.882806956768 77.26846122741699 Z" stroke-miterlimit="10" stroke-width="0.5" stroke-dasharray=""/><path fill="none" stroke="#505050" paint-order="fill stroke markers" d=" M 917.882806956768 89.26846122741699 L 941.882806956768 89.26846122741699 L 941.882806956768 131.268461227417 L 917.882806956768 131.268461227417 L 917.882806956768 89.26846122741699 Z" stroke-miterlimit="10" stroke-width="0.5" stroke-dasharray=""/><path fill="none" stroke="none"/><text fill="#505050" stroke="none" font-family="monospace" font-size="14px" font-style="normal" font-weight="normal" text-decoration="normal" x="929.882806956768" y="107.26846122741699" text-anchor="middle" dominant-baseline="text-after-edge">+</text><path fill="none" stroke="#505050" paint-order="fill stroke markers" d=" M 917.882806956768 107.26846122741699 L 925.882806956768 107.26846122741699 L 925.882806956768 115.26846122741699 L 917.882806956768 115.26846122741699 L 917.882806956768 107.26846122741699 Z" stroke-miterlimit="10" stroke-width="0.5" stroke-dasharray=""/><path fill="none" stroke="#505050" paint-order="fill stroke markers" d=" M 917.882806956768 119.26846122741699 L 925.882806956768 119.26846122741699 L 925.882806956768 127.26846122741699 L 917.882806956768 127.26846122741699 L 917.882806956768 119.26846122741699 Z" stroke-miterlimit="10" stroke-width="0.5" stroke-dasharray=""/><path fill="none" stroke="#505050" paint-order="fill stroke markers" d=" M 933.882806956768 107.26846122741699 L 941.882806956768 107.26846122741699 L 941.882806956768 115.26846122741699 L 933.882806956768 115.26846122741699 L 933.882806956768 107.26846122741699 Z" stroke-miterlimit="10" stroke-width="0.5" stroke-dasharray=""/><path fill="none" stroke="none"/><path fill="white" stroke="#505050" paint-order="fill stroke markers" d=" M 694.897705078125 87.77200317382812 L 734.897705078125 87.77200317382812 L 734.897705078125 137.77200317382812 L 694.897705078125 137.77200317382812 L 702.897705078125 112.77200317382812 L 694.897705078125 87.77200317382812" stroke-miterlimit="10" stroke-width="0.5" stroke-dasharray=""/><path fill="#F0F0F0" stroke="none" paint-order="stroke fill markers" d=" M 710.897705078125 91.77200317382812 L 734.897705078125 91.77200317382812 L 734.897705078125 133.77200317382812 L 710.897705078125 133.77200317382812 L 710.897705078125 91.77200317382812 Z"/><path fill="none" stroke="none"/><path fill="none" stroke="#505050" paint-order="fill stroke markers" d=" M 710.897705078125 91.77200317382812 L 734.897705078125 91.77200317382812 L 734.897705078125 133.77200317382812 L 710.897705078125 133.77200317382812 L 710.897705078125 91.77200317382812 Z" stroke-miterlimit="10" stroke-width="0.5" stroke-dasharray=""/><path fill="none" stroke="none"/><text fill="#505050" stroke="none" font-family="monospace" font-size="14px" font-style="normal" font-weight="normal" text-decoration="normal" x="722.897705078125" y="109.77200317382812" text-anchor="middle" dominant-baseline="text-after-edge">+</text><path fill="none" stroke="#505050" paint-order="fill stroke markers" d=" M 710.897705078125 109.77200317382812 L 718.897705078125 109.77200317382812 L 718.897705078125 117.77200317382812 L 710.897705078125 117.77200317382812 L 710.897705078125 109.77200317382812 Z" stroke-miterlimit="10" stroke-width="0.5" stroke-dasharray=""/><path fill="none" stroke="#505050" paint-order="fill stroke markers" d=" M 710.897705078125 121.77200317382812 L 718.897705078125 121.77200317382812 L 718.897705078125 129.77200317382812 L 710.897705078125 129.77200317382812 L 710.897705078125 121.77200317382812 Z" stroke-miterlimit="10" stroke-width="0.5" stroke-dasharray=""/><path fill="none" stroke="#505050" paint-order="fill stroke markers" d=" M 726.897705078125 109.77200317382812 L 734.897705078125 109.77200317382812 L 734.897705078125 117.77200317382812 L 726.897705078125 117.77200317382812 L 726.897705078125 109.77200317382812 Z" stroke-miterlimit="10" stroke-width="0.5" stroke-dasharray=""/><path fill="none" stroke="#505050" paint-order="fill stroke markers" d=" M 710.897705078125 91.77200317382812 L 734.897705078125 91.77200317382812 L 734.897705078125 133.77200317382812 L 710.897705078125 133.77200317382812 L 710.897705078125 91.77200317382812 Z" stroke-miterlimit="10" stroke-width="0.5" stroke-dasharray=""/><path fill="#F0F0F0" stroke="none" paint-order="stroke fill markers" d=""/><path fill="none" stroke="none"/><text fill="#505050" stroke="none" font-family="monospace" font-size="14px" font-style="normal" font-weight="normal" text-decoration="normal" x="722.897705078125" y="109.77200317382812" text-anchor="middle" dominant-baseline="text-after-edge">+</text><path fill="none" stroke="#505050" paint-order="fill stroke markers" d=" M 710.897705078125 109.77200317382812 L 718.897705078125 109.77200317382812 L 718.897705078125 117.77200317382812 L 710.897705078125 117.77200317382812 L 710.897705078125 109.77200317382812 Z" stroke-miterlimit="10" stroke-width="0.5" stroke-dasharray=""/><path fill="none" stroke="#505050" paint-order="fill stroke markers" d=" M 710.897705078125 121.77200317382812 L 718.897705078125 121.77200317382812 L 718.897705078125 129.77200317382812 L 710.897705078125 129.77200317382812 L 710.897705078125 121.77200317382812 Z" stroke-miterlimit="10" stroke-width="0.5" stroke-dasharray=""/><path fill="none" stroke="#505050" paint-order="fill stroke markers" d=" M 726.897705078125 109.77200317382812 L 734.897705078125 109.77200317382812 L 734.897705078125 117.77200317382812 L 726.897705078125 117.77200317382812 L 726.897705078125 109.77200317382812 Z" stroke-miterlimit="10" stroke-width="0.5" stroke-dasharray=""/><path fill="white" stroke="#505050" paint-order="fill stroke markers" d=" M 764.193842113018 83.01277732849121 L 788.193842113018 83.01277732849121 L 788.193842113018 125.01277732849121 L 764.193842113018 125.01277732849121 L 764.193842113018 83.01277732849121 Z" stroke-miterlimit="10" stroke-width="0.5" stroke-dasharray=""/><path fill="#F0F0F0" stroke="none" paint-order="stroke fill markers" d=""/><path fill="none" stroke="none"/><text fill="#505050" stroke="none" font-family="monospace" font-size="14px" font-style="normal" font-weight="normal" text-decoration="normal" x="776.193842113018" y="101.01277732849121" text-anchor="middle" dominant-baseline="text-after-edge">+</text><path fill="none" stroke="#505050" paint-order="fill stroke markers" d=" M 764.193842113018 101.01277732849121 L 772.193842113018 101.01277732849121 L 772.193842113018 109.01277732849121 L 764.193842113018 109.01277732849121 L 764.193842113018 101.01277732849121 Z" stroke-miterlimit="10" stroke-width="0.5" stroke-dasharray=""/><path fill="none" stroke="#505050" paint-order="fill stroke markers" d=" M 764.193842113018 113.01277732849121 L 772.193842113018 113.01277732849121 L 772.193842113018 121.01277732849121 L 764.193842113018 121.01277732849121 L 764.193842113018 113.01277732849121 Z" stroke-miterlimit="10" stroke-width="0.5" stroke-dasharray=""/><path fill="none" stroke="#505050" paint-order="fill stroke markers" d=" M 780.193842113018 101.01277732849121 L 788.193842113018 101.01277732849121 L 788.193842113018 109.01277732849121 L 780.193842113018 109.01277732849121 L 780.193842113018 101.01277732849121 Z" stroke-miterlimit="10" stroke-width="0.5" stroke-dasharray=""/><path fill="white" stroke="#505050" paint-order="fill stroke markers" d=" M 760.0638982653618 142.50140953063965 L 784.0638982653618 142.50140953063965 L 784.0638982653618 184.50140953063965 L 760.0638982653618 184.50140953063965 L 760.0638982653618 142.50140953063965 Z" stroke-miterlimit="10" stroke-width="0.5" stroke-dasharray=""/><path fill="#F0F0F0" stroke="none" paint-order="stroke fill markers" d=""/><path fill="none" stroke="none"/><text fill="#505050" stroke="none" font-family="monospace" font-size="14px" font-style="normal" font-weight="normal" text-decoration="normal" x="772.0638982653618" y="160.50140953063965" text-anchor="middle" dominant-baseline="text-after-edge">+</text><path fill="none" stroke="#505050" paint-order="fill stroke markers" d=" M 760.0638982653618 160.50140953063965 L 768.0638982653618 160.50140953063965 L 768.0638982653618 168.50140953063965 L 760.0638982653618 168.50140953063965 L 760.0638982653618 160.50140953063965 Z" stroke-miterlimit="10" stroke-width="0.5" stroke-dasharray=""/><path fill="none" stroke="#505050" paint-order="fill stroke markers" d=" M 760.0638982653618 172.50140953063965 L 768.0638982653618 172.50140953063965 L 768.0638982653618 180.50140953063965 L 760.0638982653618 180.50140953063965 L 760.0638982653618 172.50140953063965 Z" stroke-miterlimit="10" stroke-width="0.5" stroke-dasharray=""/><path fill="none" stroke="#505050" paint-order="fill stroke markers" d=" M 776.0638982653618 160.50140953063965 L 784.0638982653618 160.50140953063965 L 784.0638982653618 168.50140953063965 L 776.0638982653618 168.50140953063965 L 776.0638982653618 160.50140953063965 Z" stroke-miterlimit="10" stroke-width="0.5" stroke-dasharray=""/><path fill="none" stroke="none"/><path fill="white" stroke="#505050" paint-order="fill stroke markers" d=" M 828.037558734417 172.530535697937 L 860.037558734417 172.530535697937 L 868.037558734417 197.530535697937 L 860.037558734417 222.530535697937 L 828.037558734417 222.530535697937 L 828.037558734417 172.530535697937" stroke-miterlimit="10" stroke-width="0.5" stroke-dasharray=""/><path fill="none" stroke="none"/><path fill="none" stroke="#505050" paint-order="fill stroke markers" d=" M 836.037558734417 176.530535697937 L 860.037558734417 176.530535697937 L 860.037558734417 218.530535697937 L 836.037558734417 218.530535697937 L 836.037558734417 176.530535697937 Z" stroke-miterlimit="10" stroke-width="0.5" stroke-dasharray=""/><path fill="none" stroke="none"/><text fill="#505050" stroke="none" font-family="monospace" font-size="14px" font-style="normal" font-weight="normal" text-decoration="normal" x="848.037558734417" y="194.530535697937" text-anchor="middle" dominant-baseline="text-after-edge">+</text><path fill="none" stroke="#505050" paint-order="fill stroke markers" d=" M 836.037558734417 194.530535697937 L 844.037558734417 194.530535697937 L 844.037558734417 202.530535697937 L 836.037558734417 202.530535697937 L 836.037558734417 194.530535697937 Z" stroke-miterlimit="10" stroke-width="0.5" stroke-dasharray=""/><path fill="none" stroke="#505050" paint-order="fill stroke markers" d=" M 836.037558734417 206.530535697937 L 844.037558734417 206.530535697937 L 844.037558734417 214.530535697937 L 836.037558734417 214.530535697937 L 836.037558734417 206.530535697937 Z" stroke-miterlimit="10" stroke-width="0.5" stroke-dasharray=""/><path fill="none" stroke="#505050" paint-order="fill stroke markers" d=" M 852.037558734417 194.530535697937 L 860.037558734417 194.530535697937 L 860.037558734417 202.530535697937 L 852.037558734417 202.530535697937 L 852.037558734417 194.530535697937 Z" stroke-miterlimit="10" stroke-width="0.5" stroke-dasharray=""/><path fill="none" stroke="#505050" paint-order="fill stroke markers" d=" M 836.037558734417 176.530535697937 L 860.037558734417 176.530535697937 L 860.037558734417 218.530535697937 L 836.037558734417 218.530535697937 L 836.037558734417 176.530535697937 Z" stroke-miterlimit="10" stroke-width="0.5" stroke-dasharray=""/><path fill="#F0F0F0" stroke="none" paint-order="stroke fill markers" d=""/><path fill="none" stroke="none"/><text fill="#505050" stroke="none" font-family="monospace" font-size="14px" font-style="normal" font-weight="normal" text-decoration="normal" x="848.037558734417" y="194.530535697937" text-anchor="middle" dominant-baseline="text-after-edge">+</text><path fill="none" stroke="#505050" paint-order="fill stroke markers" d=" M 836.037558734417 194.530535697937 L 844.037558734417 194.530535697937 L 844.037558734417 202.530535697937 L 836.037558734417 202.530535697937 L 836.037558734417 194.530535697937 Z" stroke-miterlimit="10" stroke-width="0.5" stroke-dasharray=""/><path fill="none" stroke="#505050" paint-order="fill stroke markers" d=" M 836.037558734417 206.530535697937 L 844.037558734417 206.530535697937 L 844.037558734417 214.530535697937 L 836.037558734417 214.530535697937 L 836.037558734417 206.530535697937 Z" stroke-miterlimit="10" stroke-width="0.5" stroke-dasharray=""/><path fill="none" stroke="#505050" paint-order="fill stroke markers" d=" M 852.037558734417 194.530535697937 L 860.037558734417 194.530535697937 L 860.037558734417 202.530535697937 L 852.037558734417 202.530535697937 L 852.037558734417 194.530535697937 Z" stroke-miterlimit="10" stroke-width="0.5" stroke-dasharray=""/><path fill="white" stroke="#505050" paint-order="fill stroke markers" d=" M 881.477289378643 189.15907859802246 L 889.477289378643 189.15907859802246 L 897.477289378643 197.15907859802246 L 889.477289378643 205.15907859802246 L 881.477289378643 205.15907859802246 L 881.477289378643 189.15907859802246" stroke-miterlimit="10" stroke-width="0.5" stroke-dasharray=""/><path fill="none" stroke="none"/><path fill="none" stroke="#505050" paint-order="fill stroke markers" d=" M 881.477289378643 193.15907859802246 L 889.477289378643 193.15907859802246 L 889.477289378643 201.15907859802246 L 881.477289378643 201.15907859802246 L 881.477289378643 193.15907859802246 Z" stroke-miterlimit="10" stroke-width="0.5" stroke-dasharray=""/><path fill="white" stroke="#505050" paint-order="fill stroke markers" d=" M 793.1675969958305 157.0390682220459 L 801.1675969958305 157.0390682220459 L 809.1675969958305 165.0390682220459 L 801.1675969958305 173.0390682220459 L 793.1675969958305 173.0390682220459 L 793.1675969958305 157.0390682220459" stroke-miterlimit="10" stroke-width="0.5" stroke-dasharray=""/><path fill="none" stroke="none"/><path fill="none" stroke="#505050" paint-order="fill stroke markers" d=" M 793.1675969958305 161.0390682220459 L 801.1675969958305 161.0390682220459 L 801.1675969958305 169.0390682220459 L 793.1675969958305 169.0390682220459 L 793.1675969958305 161.0390682220459 Z" stroke-miterlimit="10" stroke-width="0.5" stroke-dasharray=""/><path fill="none" stroke="none"/><path fill="none" stroke="#e0e0e0" paint-order="fill stroke markers" d=" M 738.897705078125 112.77200317382812 C 745.8058491198825 112.77200317382812 753.2856980712605 104.01277732849121 760.193842113018 104.01277732849121" stroke-miterlimit="10" stroke-width="2" stroke-dasharray=""/><path fill="none" stroke="none"/><path fill="none" stroke="#e0e0e0" paint-order="fill stroke markers" d=" M 738.897705078125 112.77200317382812 C 754.9642410211043 112.77200317382812 739.9973623223825 163.50140953063965 756.0638982653618 163.50140953063965" stroke-miterlimit="10" stroke-width="2" stroke-dasharray=""/><path fill="none" stroke="#505050" paint-order="fill stroke markers" d=" M 860.037558734417 197.530535697937 C 866.4704432151661 197.530535697937 875.0444048978939 197.15907859802246 881.477289378643 197.15907859802246" stroke-miterlimit="10" stroke-dasharray=""/><path fill="none" stroke="#505050" paint-order="fill stroke markers" d=" M 788.193842113018 105.01277732849121 C 807.9350983849458 105.01277732849121 740.322641993434 164.50140953063965 760.0638982653618 164.50140953063965" stroke-miterlimit="10" stroke-dasharray=""/><path fill="none" stroke="#505050" paint-order="fill stroke markers" d=" M 784.0638982653618 164.50140953063965 C 786.7997668056836 164.50140953063965 790.4317284555087 165.0390682220459 793.1675969958305 165.0390682220459" stroke-miterlimit="10" stroke-dasharray=""/></g></g></svg>