<svg version="1.1" xmlns="http://www.w3.org/2000/svg" xmlns:xlink="http://www.w3.org/1999/xlink" width="183" height="108"><defs/><g transform="translate(-7,-7)"><g><path fill="#F0F0F0" stroke="#505050" paint-order="fill stroke markers" d=" M 8 8 L 32 8 L 32 28 L 8 28 L 16 18 L 8 8" stroke-miterlimit="10" stroke-width="0.5" stroke-dasharray=""/><path fill="none" stroke="#505050" paint-order="fill stroke markers" d=" M 32 20 A 4 4 0 1 0 31.99999800000017 20.003999999333335" stroke-miterlimit="10" stroke-width="0.5" stroke-dasharray=""/><path fill="#F0F0F0" stroke="#505050" paint-order="fill stroke markers" d=" M 40 8 L 56 8 L 64 18 L 56 28 L 40 28 L 40 8" stroke-miterlimit="10" stroke-width="0.5" stroke-dasharray=""/><path fill="none" stroke="#505050" paint-order="fill stroke markers" d=" M 48 20 A 4 4 0 1 0 47.99999800000017 20.003999999333335" stroke-miterlimit="10" stroke-width="0.5" stroke-dasharray=""/><path fill="#F0F0F0" stroke="#505050" paint-order="fill stroke markers" d=" M 68 8 L 92 8 L 92 28 L 68 28 L 68 8 Z" stroke-miterlimit="10" stroke-width="0.5" stroke-dasharray=""/><path fill="none" stroke="#505050" paint-order="fill stroke markers" d=" M 76 20 A 4 4 0 1 0 75.99999800000016 20.003999999333335" stroke-miterlimit="10" stroke-width="0.5" stroke-dasharray=""/><path fill="#F0F0F0" stroke="#505050" paint-order="fill stroke markers" d=" M 156 32 L 189 32 L 189 78 L 156 78 L 156 32 Z" stroke-miterlimit="10" stroke-width="0.5" stroke-dasharray=""/><text fill="#505050" stroke="none" font-family="monospace" font-size="14px" font-style="normal" font-weight="normal" text-decoration="normal" x="172.5" y="50" text-anchor="middle" dominant-baseline="text-after-edge">:=</text><path fill="none" stroke="#505050" paint-order="fill stroke markers" d=" M 156 54 L 164 54 L 164 62 L 156 62 L 156 54 Z" stroke-miterlimit="10" stroke-width="0.5" stroke-dasharray=""/><path fill="none" stroke="#505050" paint-order="fill stroke markers" d=" M 164 70 A 4 4 0 1 0 163.99999800000018 70.00399999933333" stroke-miterlimit="10" stroke-width="0.5" stroke-dasharray=""/><path fill="none" stroke="#505050" paint-order="fill stroke markers" d=" M 189 58 A 4 4 0 1 0 188.99999800000018 58.00399999933334" stroke-miterlimit="10" stroke-width="0.5" stroke-dasharray=""/><path fill="#F0F0F0" stroke="#505050" paint-order="fill stroke markers" d=" M 96 8 L 128 8 L 128 28 L 96 28 L 96 8 Z" stroke-miterlimit="10" stroke-width="0.5" stroke-dasharray=""/><path fill="none" stroke="#505050" paint-order="fill stroke markers" d=" M 104 20 A 4 4 0 1 0 103.99999800000016 20.003999999333335" stroke-miterlimit="10" stroke-width="0.5" stroke-dasharray=""/><path fill="none" stroke="#505050" paint-order="fill stroke markers" d=" M 128 20 A 4 4 0 1 0 127.99999800000016 20.003999999333335" stroke-miterlimit="10" stroke-width="0.5" stroke-dasharray=""/><path fill="#F0F0F0" stroke="#505050" paint-order="fill stroke markers" d=" M 8 32 L 32 32 L 32 52 L 8 52 L 8 32 Z" stroke-miterlimit="10" stroke-width="0.5" stroke-dasharray=""/><path fill="none" stroke="#505050" paint-order="fill stroke markers" d=" M 24 40 L 32 40 L 32 48 L 24 48 L 24 40 Z" stroke-miterlimit="10" stroke-width="0.5" stroke-dasharray=""/><path fill="#F0F0F0" stroke="#505050" paint-order="fill stroke markers" d=" M 40 32 L 72 32 L 72 78 L 40 78 L 40 32 Z" stroke-miterlimit="10" stroke-width="0.5" stroke-dasharray=""/><text fill="#505050" stroke="none" font-family="monospace" font-size="14px" font-style="normal" font-weight="normal" text-decoration="normal" x="56" y="50" text-anchor="middle" dominant-baseline="text-after-edge">+</text><path fill="none" stroke="#505050" paint-order="fill stroke markers" d=" M 40 54 L 48 54 L 48 62 L 40 62 L 40 54 Z" stroke-miterlimit="10" stroke-width="0.5" stroke-dasharray=""/><path fill="none" stroke="#505050" paint-order="fill stroke markers" d=" M 40 66 L 48 66 L 48 74 L 40 74 L 40 66 Z" stroke-miterlimit="10" stroke-width="0.5" stroke-dasharray=""/><path fill="none" stroke="#505050" paint-order="fill stroke markers" d=" M 64 54 L 72 54 L 72 62 L 64 62 L 64 54 Z" stroke-miterlimit="10" stroke-width="0.5" stroke-dasharray=""/><path fill="#F0F0F0" stroke="#505050" paint-order="fill stroke markers" d=" M 80 32 L 112 32 L 112 66 L 80 66 L 80 32 Z" stroke-miterlimit="10" stroke-width="0.5" stroke-dasharray=""/><text fill="#505050" stroke="none" font-family="monospace" font-size="14px" font-style="normal" font-weight="normal" text-decoration="normal" x="96" y="50" text-anchor="middle" dominant-baseline="text-after-edge">-</text><path fill="none" stroke="#505050" paint-order="fill stroke markers" d=" M 80 54 L 88 54 L 88 62 L 80 62 L 80 54 Z" stroke-miterlimit="10" stroke-width="0.5" stroke-dasharray=""/><path fill="none" stroke="#505050" paint-order="fill stroke markers" d=" M 104 54 L 112 54 L 112 62 L 104 62 L 104 54 Z" stroke-miterlimit="10" stroke-width="0.5" stroke-dasharray=""/><path fill="#F0F0F0" stroke="#505050" paint-order="fill stroke markers" d=" M 118 32 L 150 32 L 150 90 L 118 90 L 118 32 Z" stroke-miterlimit="10" stroke-width="0.5" stroke-dasharray=""/><text fill="#505050" stroke="none" font-family="monospace" font-size="14px" font-style="normal" font-weight="normal" text-decoration="normal" x="134" y="50" text-anchor="middle" dominant-baseline="text-after-edge">?</text><path fill="none" stroke="#505050" paint-order="fill stroke markers" d=" M 118 54 L 126 54 L 126 62 L 118 62 L 118 54 Z" stroke-miterlimit="10" stroke-width="0.5" stroke-dasharray=""/><path fill="none" stroke="#505050" paint-order="fill stroke markers" d=" M 126 70 A 4 4 0 1 0 125.99999800000016 70.00399999933333" stroke-miterlimit="10" stroke-width="0.5" stroke-dasharray=""/><path fill="none" stroke="#505050" paint-order="fill stroke markers" d=" M 126 82 A 4 4 0 1 0 125.99999800000016 82.00399999933333" stroke-miterlimit="10" stroke-width="0.5" stroke-dasharray=""/><path fill="none" stroke="#505050" paint-order="fill stroke markers" d=" M 150 58 A 4 4 0 1 0 149.99999800000018 58.00399999933334" stroke-miterlimit="10" stroke-width="0.5" stroke-dasharray=""/><path fill="#F0F0F0" stroke="#505050" paint-order="fill stroke markers" d=" M 8 90 L 8 106 Q 8 114 16 114 L 64 114 Q 72 114 72 106 L 72 90 Q 72 82 64 82 L 16 82 Q 8 82 8 90" stroke-miterlimit="10" stroke-width="0.5" stroke-dasharray=""/><path fill="#F0F0F0" stroke="#505050" paint-order="fill stroke markers" d=" M 48 94 L 64 94 L 64 106 L 48 106 L 48 94 Z" stroke-miterlimit="10" stroke-width="0.5" stroke-dasharray=""/></g></g></svg>