<svg version="1.1" xmlns="http://www.w3.org/2000/svg" xmlns:xlink="http://www.w3.org/1999/xlink" width="152" height="132"><defs/><g transform="translate(1,1)"><g><path fill="white" stroke="#505050" paint-order="fill stroke markers" d=" M 8 8 L 32 8 L 32 28 L 8 28 L 8 8 Z" stroke-miterlimit="10" stroke-width="0.5" stroke-dasharray=""/><path fill="none" stroke="#505050" paint-order="fill stroke markers" d=" M 24 16 L 32 16 L 32 24 L 24 24 L 24 16 Z" stroke-miterlimit="10" stroke-width="0.5" stroke-dasharray=""/><path fill="white" stroke="#505050" paint-order="fill stroke markers" d=" M 40 8 L 64 8 L 64 28 L 40 28 L 48 18 L 40 8" stroke-miterlimit="10" stroke-width="0.5" stroke-dasharray=""/><path fill="none" stroke="#505050" paint-order="fill stroke markers" d=" M 64 20 A 4 4 0 1 0 63.99999800000017 20.003999999333335" stroke-miterlimit="10" stroke-width="0.5" stroke-dasharray=""/><path fill="white" stroke="#505050" paint-order="fill stroke markers" d=" M 72 8 L 88 8 L 96 18 L 88 28 L 72 28 L 72 8" stroke-miterlimit="10" stroke-width="0.5" stroke-dasharray=""/><path fill="none" stroke="#505050" paint-order="fill stroke markers" d=" M 80 20 A 4 4 0 1 0 79.99999800000016 20.003999999333335" stroke-miterlimit="10" stroke-width="0.5" stroke-dasharray=""/><path fill="white" stroke="#505050" paint-order="fill stroke markers" d=" M 8 32 L 40 32 L 40 78 L 8 78 L 8 32 Z" stroke-miterlimit="10" stroke-width="0.5" stroke-dasharray=""/><text fill="#505050" stroke="none" font-family="monospace" font-size="14px" font-style="normal" font-weight="normal" text-decoration="normal" x="24" y="50" text-anchor="middle" dominant-baseline="text-after-edge">+</text><path fill="none" stroke="#505050" paint-order="fill stroke markers" d=" M 8 54 L 16 54 L 16 62 L 8 62 L 8 54 Z" stroke-miterlimit="10" stroke-width="0.5" stroke-dasharray=""/><path fill="none" stroke="#505050" paint-order="fill stroke markers" d=" M 8 66 L 16 66 L 16 74 L 8 74 L 8 66 Z" stroke-miterlimit="10" stroke-width="0.5" stroke-dasharray=""/><path fill="none" stroke="#505050" paint-order="fill stroke markers" d=" M 32 54 L 40 54 L 40 62 L 32 62 L 32 54 Z" stroke-miterlimit="10" stroke-width="0.5" stroke-dasharray=""/><path fill="white" stroke="#505050" paint-order="fill stroke markers" d=" M 48 32 L 80 32 L 80 66 L 48 66 L 48 32 Z" stroke-miterlimit="10" stroke-width="0.5" stroke-dasharray=""/><text fill="#505050" stroke="none" font-family="monospace" font-size="14px" font-style="normal" font-weight="normal" text-decoration="normal" x="64" y="50" text-anchor="middle" dominant-baseline="text-after-edge">-</text><path fill="none" stroke="#505050" paint-order="fill stroke markers" d=" M 48 54 L 56 54 L 56 62 L 48 62 L 48 54 Z" stroke-miterlimit="10" stroke-width="0.5" stroke-dasharray=""/><path fill="none" stroke="#505050" paint-order="fill stroke markers" d=" M 72 54 L 80 54 L 80 62 L 72 62 L 72 54 Z" stroke-miterlimit="10" stroke-width="0.5" stroke-dasharray=""/><path fill="white" stroke="#505050" paint-order="fill stroke markers" d=" M 86 32 L 118 32 L 118 76 L 86 76 L 86 32 Z" stroke-miterlimit="10" stroke-width="0.5" stroke-dasharray=""/><path fill="none" stroke="#505050" paint-order="fill stroke markers" d=" M 86 40 L 94 40 L 94 48 L 86 48 L 86 40 Z" stroke-miterlimit="10" stroke-width="0.5" stroke-dasharray=""/><path fill="none" stroke="#505050" paint-order="fill stroke markers" d=" M 94 56 A 4 4 0 1 0 93.99999800000016 56.00399999933334" stroke-miterlimit="10" stroke-width="0.5" stroke-dasharray=""/><path fill="none" stroke="#505050" paint-order="fill stroke markers" d=" M 94 68 A 4 4 0 1 0 93.99999800000016 68.00399999933333" stroke-miterlimit="10" stroke-width="0.5" stroke-dasharray=""/><path fill="none" stroke="#505050" paint-order="fill stroke markers" d=" M 118 44 A 4 4 0 1 0 117.99999800000016 44.00399999933334" stroke-miterlimit="10" stroke-width="0.5" stroke-dasharray=""/><path fill="white" stroke="#505050" paint-order="fill stroke markers" d=" M 8 90 L 8 106 Q 8 114 16 114 L 64 114 Q 72 114 72 106 L 72 90 Q 72 82 64 82 L 16 82 Q 8 82 8 90" stroke-miterlimit="10" stroke-width="0.5" stroke-dasharray=""/><path fill="none" stroke="#505050" paint-order="fill stroke markers" d=" M 8 102 L 72 102" stroke-miterlimit="10" stroke-width="0.5" stroke-dasharray=""/><path fill="#F0F0F0" stroke="#505050" paint-order="fill stroke markers" d=" M 48 94 L 64 94 L 64 106 L 48 106 L 48 94 Z" stroke-miterlimit="10" stroke-width="0.5" stroke-dasharray=""/></g></g></svg>