<svg version="1.1" xmlns="http://www.w3.org/2000/svg" xmlns:xlink="http://www.w3.org/1999/xlink" width="856.540843963623" height="856.540843963623"><defs/><g transform="translate(-156.98563307523727,-42.444882959127426)"><g><path fill="white" stroke="#505050" paint-order="fill stroke markers" d=" M 329.27128905057907 106.89077147841454 L 329.27128905057907 307.92329692840576 Q 329.27128905057907 315.92329692840576 337.27128905057907 315.92329692840576 L 652.3792297244072 315.92329692840576 Q 660.3792297244072 315.92329692840576 660.3792297244072 307.92329692840576 L 660.3792297244072 106.89077147841454 Q 660.3792297244072 98.89077147841454 652.3792297244072 98.89077147841454 L 337.27128905057907 98.89077147841454 Q 329.27128905057907 98.89077147841454 329.27128905057907 106.89077147841454" stroke-miterlimit="10" stroke-width="0.5" stroke-dasharray=""/><path fill="#F0F0F0" stroke="#505050" paint-order="fill stroke markers" d=" M 526.3792297244072 106.89077147841454 L 660.3792297244072 106.89077147841454 L 660.3792297244072 188.89077147841454 L 526.3792297244072 188.89077147841454 L 526.3792297244072 106.89077147841454 Z" stroke-miterlimit="10" stroke-width="0.5" stroke-dasharray=""/><text fill="#505050" stroke="none" font-family="monospace" font-size="14px" font-style="normal" font-weight="normal" text-decoration="normal" x="593.3792297244072" y="124.89077147841454" text-anchor="middle" dominant-baseline="text-after-edge">Point.construct</text><path fill="none" stroke="#505050" paint-order="fill stroke markers" d=" M 636.3792297244072 124.89077147841454 L 660.3792297244072 124.89077147841454 L 660.3792297244072 152.89077147841454 L 636.3792297244072 152.89077147841454 L 636.3792297244072 124.89077147841454 Z" stroke-miterlimit="10" stroke-width="0.5" stroke-dasharray=""/><path fill="none" stroke="#505050" paint-order="fill stroke markers" d=" M 652.3792297244072 128.89077147841454 L 660.3792297244072 128.89077147841454 L 660.3792297244072 136.89077147841454 L 652.3792297244072 136.89077147841454 L 652.3792297244072 128.89077147841454 Z" stroke-miterlimit="10" stroke-width="0.5" stroke-dasharray=""/><path fill="none" stroke="#505050" paint-order="fill stroke markers" d=" M 652.3792297244072 140.89077147841454 L 660.3792297244072 140.89077147841454 L 660.3792297244072 148.89077147841454 L 652.3792297244072 148.89077147841454 L 652.3792297244072 140.89077147841454 Z" stroke-miterlimit="10" stroke-width="0.5" stroke-dasharray=""/><path fill="none" stroke="#505050" paint-order="fill stroke markers" d=" M 628.3792297244072 156.89077147841454 L 660.3792297244072 156.89077147841454 L 660.3792297244072 184.89077147841454 L 628.3792297244072 184.89077147841454 L 628.3792297244072 156.89077147841454 Z" stroke-miterlimit="10" stroke-width="0.5" stroke-dasharray=""/><path fill="none" stroke="#505050" paint-order="fill stroke markers" d=" M 628.3792297244072 160.89077147841454 L 636.3792297244072 160.89077147841454 L 636.3792297244072 168.89077147841454 L 628.3792297244072 168.89077147841454 L 628.3792297244072 160.89077147841454 Z" stroke-miterlimit="10" stroke-width="0.5" stroke-dasharray=""/><path fill="none" stroke="#505050" paint-order="fill stroke markers" d=" M 628.3792297244072 172.89077147841454 L 636.3792297244072 172.89077147841454 L 636.3792297244072 180.89077147841454 L 628.3792297244072 180.89077147841454 L 628.3792297244072 172.89077147841454 Z" stroke-miterlimit="10" stroke-width="0.5" stroke-dasharray=""/><path fill="none" stroke="#505050" paint-order="fill stroke markers" d=" M 652.3792297244072 160.89077147841454 L 660.3792297244072 160.89077147841454 L 660.3792297244072 168.89077147841454 L 652.3792297244072 168.89077147841454 L 652.3792297244072 160.89077147841454 Z" stroke-miterlimit="10" stroke-width="0.5" stroke-dasharray=""/><path fill="none" stroke="#505050" paint-order="fill stroke markers" d=" M 652.3792297244072 172.89077147841454 L 660.3792297244072 172.89077147841454 L 660.3792297244072 180.89077147841454 L 652.3792297244072 180.89077147841454 L 652.3792297244072 172.89077147841454 Z" stroke-miterlimit="10" stroke-width="0.5" stroke-dasharray=""/><path fill="white" stroke="#505050" paint-order="fill stroke markers" d=" M 347.61502379179 116.08451613783836 L 395.61502379179 116.08451613783836 L 395.61502379179 166.08451613783836 L 347.61502379179 166.08451613783836 L 347.61502379179 116.08451613783836 Z" stroke-miterlimit="10" stroke-width="0.5" stroke-dasharray=""/><path fill="#F0F0F0" stroke="none" paint-order="stroke fill markers" d=" M 363.61502379179 146.08451613783836 L 395.61502379179 146.08451613783836 L 395.61502379179 162.08451613783836 L 363.61502379179 162.08451613783836 L 363.61502379179 146.08451613783836 Z"/><text fill="#505050" stroke="none" font-family="monospace" font-size="14px" font-style="normal" font-weight="normal" text-decoration="normal" x="371.61502379179" y="134.08451613783836" text-anchor="middle" dominant-baseline="text-after-edge">var</text><path fill="none" stroke="#505050" paint-order="fill stroke markers" d=" M 387.61502379179 134.08451613783836 L 395.61502379179 134.08451613783836 L 395.61502379179 142.08451613783836 L 387.61502379179 142.08451613783836 L 387.61502379179 134.08451613783836 Z" stroke-miterlimit="10" stroke-width="0.5" stroke-dasharray=""/><path fill="none" stroke="#505050" paint-order="fill stroke markers" d=" M 363.61502379179 146.08451613783836 L 395.61502379179 146.08451613783836 L 395.61502379179 162.08451613783836 L 363.61502379179 162.08451613783836 L 363.61502379179 146.08451613783836 Z" stroke-miterlimit="10" stroke-width="0.5" stroke-dasharray=""/><path fill="none" stroke="#505050" paint-order="fill stroke markers" d=" M 363.61502379179 150.08451613783836 L 371.61502379179 150.08451613783836 L 371.61502379179 158.08451613783836 L 363.61502379179 158.08451613783836 L 363.61502379179 150.08451613783836 Z" stroke-miterlimit="10" stroke-width="0.5" stroke-dasharray=""/><path fill="none" stroke="#505050" paint-order="fill stroke markers" d=" M 387.61502379179 150.08451613783836 L 395.61502379179 150.08451613783836 L 395.61502379179 158.08451613783836 L 387.61502379179 158.08451613783836 L 387.61502379179 150.08451613783836 Z" stroke-miterlimit="10" stroke-width="0.5" stroke-dasharray=""/><path fill="white" stroke="#505050" paint-order="fill stroke markers" d=" M 348.8212921023369 177.91888961195946 L 396.8212921023369 177.91888961195946 L 396.8212921023369 227.91888961195946 L 348.8212921023369 227.91888961195946 L 348.8212921023369 177.91888961195946 Z" stroke-miterlimit="10" stroke-width="0.5" stroke-dasharray=""/><path fill="#F0F0F0" stroke="none" paint-order="stroke fill markers" d=" M 364.8212921023369 207.91888961195946 L 396.8212921023369 207.91888961195946 L 396.8212921023369 223.91888961195946 L 364.8212921023369 223.91888961195946 L 364.8212921023369 207.91888961195946 Z"/><text fill="#505050" stroke="none" font-family="monospace" font-size="14px" font-style="normal" font-weight="normal" text-decoration="normal" x="372.8212921023369" y="195.91888961195946" text-anchor="middle" dominant-baseline="text-after-edge">var</text><path fill="none" stroke="#505050" paint-order="fill stroke markers" d=" M 388.8212921023369 195.91888961195946 L 396.8212921023369 195.91888961195946 L 396.8212921023369 203.91888961195946 L 388.8212921023369 203.91888961195946 L 388.8212921023369 195.91888961195946 Z" stroke-miterlimit="10" stroke-width="0.5" stroke-dasharray=""/><path fill="none" stroke="#505050" paint-order="fill stroke markers" d=" M 364.8212921023369 207.91888961195946 L 396.8212921023369 207.91888961195946 L 396.8212921023369 223.91888961195946 L 364.8212921023369 223.91888961195946 L 364.8212921023369 207.91888961195946 Z" stroke-miterlimit="10" stroke-width="0.5" stroke-dasharray=""/><path fill="none" stroke="#505050" paint-order="fill stroke markers" d=" M 364.8212921023369 211.91888961195946 L 372.8212921023369 211.91888961195946 L 372.8212921023369 219.91888961195946 L 364.8212921023369 219.91888961195946 L 364.8212921023369 211.91888961195946 Z" stroke-miterlimit="10" stroke-width="0.5" stroke-dasharray=""/><path fill="none" stroke="#505050" paint-order="fill stroke markers" d=" M 388.8212921023369 211.91888961195946 L 396.8212921023369 211.91888961195946 L 396.8212921023369 219.91888961195946 L 388.8212921023369 219.91888961195946 L 388.8212921023369 211.91888961195946 Z" stroke-miterlimit="10" stroke-width="0.5" stroke-dasharray=""/><path fill="white" stroke="#505050" paint-order="fill stroke markers" d=" M 423.1697799563408 123.28393706679344 L 423.1697799563408 170.14801940321922 Q 423.1697799563408 178.14801940321922 431.1697799563408 178.14801940321922 L 484.8523055911064 178.14801940321922 Q 492.8523055911064 178.14801940321922 492.8523055911064 170.14801940321922 L 492.8523055911064 123.28393706679344 Q 492.8523055911064 115.28393706679344 484.8523055911064 115.28393706679344 L 431.1697799563408 115.28393706679344 Q 423.1697799563408 115.28393706679344 423.1697799563408 123.28393706679344" stroke-miterlimit="10" stroke-width="0.5" stroke-dasharray=""/><path fill="#F0F0F0" stroke="#505050" paint-order="fill stroke markers" d=" M 468.8523055911064 123.28393706679344 L 492.8523055911064 123.28393706679344 L 492.8523055911064 151.28393706679344 L 468.8523055911064 151.28393706679344 L 468.8523055911064 123.28393706679344 Z" stroke-miterlimit="10" stroke-width="0.5" stroke-dasharray=""/><path fill="none" stroke="#505050" paint-order="fill stroke markers" d=" M 484.8523055911064 127.28393706679344 L 492.8523055911064 127.28393706679344 L 492.8523055911064 135.28393706679344 L 484.8523055911064 135.28393706679344 L 484.8523055911064 127.28393706679344 Z" stroke-miterlimit="10" stroke-width="0.5" stroke-dasharray=""/><path fill="none" stroke="#505050" paint-order="fill stroke markers" d=" M 484.8523055911064 139.28393706679344 L 492.8523055911064 139.28393706679344 L 492.8523055911064 147.28393706679344 L 484.8523055911064 147.28393706679344 L 484.8523055911064 139.28393706679344 Z" stroke-miterlimit="10" stroke-width="0.5" stroke-dasharray=""/><path fill="white" stroke="#505050" paint-order="fill stroke markers" d=" M 431.86354368925095 121.97142943739891 L 447.86354368925095 121.97142943739891 L 455.86354368925095 129.9714294373989 L 447.86354368925095 137.9714294373989 L 431.86354368925095 137.9714294373989 L 431.86354368925095 121.97142943739891" stroke-miterlimit="10" stroke-width="0.5" stroke-dasharray=""/><path fill="none" stroke="#505050" paint-order="fill stroke markers" d=" M 431.86354368925095 125.97142943739891 L 439.86354368925095 125.97142943739891 L 439.86354368925095 133.9714294373989 L 431.86354368925095 133.9714294373989 L 431.86354368925095 125.97142943739891 Z" stroke-miterlimit="10" stroke-width="0.5" stroke-dasharray=""/><path fill="white" stroke="#505050" paint-order="fill stroke markers" d=" M 431.6479064822197 139.46833190321922 L 447.6479064822197 139.46833190321922 L 455.6479064822197 147.46833190321922 L 447.6479064822197 155.46833190321922 L 431.6479064822197 155.46833190321922 L 431.6479064822197 139.46833190321922" stroke-miterlimit="10" stroke-width="0.5" stroke-dasharray=""/><path fill="none" stroke="#505050" paint-order="fill stroke markers" d=" M 431.6479064822197 143.46833190321922 L 439.6479064822197 143.46833190321922 L 439.6479064822197 151.46833190321922 L 431.6479064822197 151.46833190321922 L 431.6479064822197 143.46833190321922 Z" stroke-miterlimit="10" stroke-width="0.5" stroke-dasharray=""/><path fill="white" stroke="#505050" paint-order="fill stroke markers" d=" M 420.9715453982353 201.44776305556297 L 420.9715453982353 291.92329692840576 Q 420.9715453982353 299.92329692840576 428.9715453982353 299.92329692840576 L 574.3730956912041 299.92329692840576 Q 582.3730956912041 299.92329692840576 582.3730956912041 291.92329692840576 L 582.3730956912041 201.44776305556297 Q 582.3730956912041 193.44776305556297 574.3730956912041 193.44776305556297 L 428.9715453982353 193.44776305556297 Q 420.9715453982353 193.44776305556297 420.9715453982353 201.44776305556297" stroke-miterlimit="10" stroke-width="0.5" stroke-dasharray=""/><path fill="#F0F0F0" stroke="#505050" paint-order="fill stroke markers" d=" M 550.3730956912041 201.44776305556297 L 582.3730956912041 201.44776305556297 L 582.3730956912041 229.44776305556297 L 550.3730956912041 229.44776305556297 L 550.3730956912041 201.44776305556297 Z" stroke-miterlimit="10" stroke-width="0.5" stroke-dasharray=""/><path fill="none" stroke="#505050" paint-order="fill stroke markers" d=" M 550.3730956912041 205.44776305556297 L 558.3730956912041 205.44776305556297 L 558.3730956912041 213.44776305556297 L 550.3730956912041 213.44776305556297 L 550.3730956912041 205.44776305556297 Z" stroke-miterlimit="10" stroke-width="0.5" stroke-dasharray=""/><path fill="none" stroke="#505050" paint-order="fill stroke markers" d=" M 550.3730956912041 217.44776305556297 L 558.3730956912041 217.44776305556297 L 558.3730956912041 225.44776305556297 L 550.3730956912041 225.44776305556297 L 550.3730956912041 217.44776305556297 Z" stroke-miterlimit="10" stroke-width="0.5" stroke-dasharray=""/><path fill="none" stroke="#505050" paint-order="fill stroke markers" d=" M 574.3730956912041 205.44776305556297 L 582.3730956912041 205.44776305556297 L 582.3730956912041 213.44776305556297 L 574.3730956912041 213.44776305556297 L 574.3730956912041 205.44776305556297 Z" stroke-miterlimit="10" stroke-width="0.5" stroke-dasharray=""/><path fill="none" stroke="#505050" paint-order="fill stroke markers" d=" M 574.3730956912041 217.44776305556297 L 582.3730956912041 217.44776305556297 L 582.3730956912041 225.44776305556297 L 574.3730956912041 225.44776305556297 L 574.3730956912041 217.44776305556297 Z" stroke-miterlimit="10" stroke-width="0.5" stroke-dasharray=""/><path fill="white" stroke="#505050" paint-order="fill stroke markers" d=" M 433.23161619901657 202.93721923232079 L 457.23161619901657 202.93721923232079 L 457.23161619901657 218.93721923232079 L 433.23161619901657 218.93721923232079 L 441.23161619901657 210.93721923232079 L 433.23161619901657 202.93721923232079" stroke-miterlimit="10" stroke-width="0.5" stroke-dasharray=""/><path fill="none" stroke="#505050" paint-order="fill stroke markers" d=" M 449.23161619901657 206.93721923232079 L 457.23161619901657 206.93721923232079 L 457.23161619901657 214.93721923232079 L 449.23161619901657 214.93721923232079 L 449.23161619901657 206.93721923232079 Z" stroke-miterlimit="10" stroke-width="0.5" stroke-dasharray=""/><path fill="white" stroke="#505050" paint-order="fill stroke markers" d=" M 511.00490111112595 200.98552855849266 L 527.004901111126 200.98552855849266 L 535.004901111126 208.98552855849266 L 527.004901111126 216.98552855849266 L 511.00490111112595 216.98552855849266 L 511.00490111112595 200.98552855849266" stroke-miterlimit="10" stroke-width="0.5" stroke-dasharray=""/><path fill="none" stroke="#505050" paint-order="fill stroke markers" d=" M 511.00490111112595 204.98552855849266 L 519.004901111126 204.98552855849266 L 519.004901111126 212.98552855849266 L 511.00490111112595 212.98552855849266 L 511.00490111112595 204.98552855849266 Z" stroke-miterlimit="10" stroke-width="0.5" stroke-dasharray=""/><path fill="white" stroke="#505050" paint-order="fill stroke markers" d=" M 432.68959349393845 237.9999938905239 L 456.68959349393845 237.9999938905239 L 456.68959349393845 253.9999938905239 L 432.68959349393845 253.9999938905239 L 440.68959349393845 245.9999938905239 L 432.68959349393845 237.9999938905239" stroke-miterlimit="10" stroke-width="0.5" stroke-dasharray=""/><path fill="none" stroke="#505050" paint-order="fill stroke markers" d=" M 448.68959349393845 241.9999938905239 L 456.68959349393845 241.9999938905239 L 456.68959349393845 249.9999938905239 L 448.68959349393845 249.9999938905239 L 448.68959349393845 241.9999938905239 Z" stroke-miterlimit="10" stroke-width="0.5" stroke-dasharray=""/><path fill="white" stroke="#505050" paint-order="fill stroke markers" d=" M 512.1141235232353 236.26137694716454 L 528.1141235232353 236.26137694716454 L 536.1141235232353 244.26137694716454 L 528.1141235232353 252.26137694716454 L 512.1141235232353 252.26137694716454 L 512.1141235232353 236.26137694716454" stroke-miterlimit="10" stroke-width="0.5" stroke-dasharray=""/><path fill="none" stroke="#505050" paint-order="fill stroke markers" d=" M 512.1141235232353 240.26137694716454 L 520.1141235232353 240.26137694716454 L 520.1141235232353 248.26137694716454 L 512.1141235232353 248.26137694716454 L 512.1141235232353 240.26137694716454 Z" stroke-miterlimit="10" stroke-width="0.5" stroke-dasharray=""/><path fill="white" stroke="#505050" paint-order="fill stroke markers" d=" M 468.1427116394043 225.34872722625732 L 500.1427116394043 225.34872722625732 L 500.1427116394043 241.34872722625732 L 468.1427116394043 241.34872722625732 L 468.1427116394043 225.34872722625732 Z" stroke-miterlimit="10" stroke-width="0.5" stroke-dasharray=""/><path fill="none" stroke="#505050" paint-order="fill stroke markers" d=" M 468.1427116394043 229.34872722625732 L 476.1427116394043 229.34872722625732 L 476.1427116394043 237.34872722625732 L 468.1427116394043 237.34872722625732 L 468.1427116394043 229.34872722625732 Z" stroke-miterlimit="10" stroke-width="0.5" stroke-dasharray=""/><path fill="none" stroke="#505050" paint-order="fill stroke markers" d=" M 492.1427116394043 229.34872722625732 L 500.1427116394043 229.34872722625732 L 500.1427116394043 237.34872722625732 L 492.1427116394043 237.34872722625732 L 492.1427116394043 229.34872722625732 Z" stroke-miterlimit="10" stroke-width="0.5" stroke-dasharray=""/><path fill="white" stroke="#505050" paint-order="fill stroke markers" d=" M 466.9175834655762 267.92329692840576 L 498.9175834655762 267.92329692840576 L 498.9175834655762 283.92329692840576 L 466.9175834655762 283.92329692840576 L 466.9175834655762 267.92329692840576 Z" stroke-miterlimit="10" stroke-width="0.5" stroke-dasharray=""/><path fill="none" stroke="#505050" paint-order="fill stroke markers" d=" M 466.9175834655762 271.92329692840576 L 474.9175834655762 271.92329692840576 L 474.9175834655762 279.92329692840576 L 466.9175834655762 279.92329692840576 L 466.9175834655762 271.92329692840576 Z" stroke-miterlimit="10" stroke-width="0.5" stroke-dasharray=""/><path fill="none" stroke="#505050" paint-order="fill stroke markers" d=" M 490.9175834655762 271.92329692840576 L 498.9175834655762 271.92329692840576 L 498.9175834655762 279.92329692840576 L 490.9175834655762 279.92329692840576 L 490.9175834655762 271.92329692840576 Z" stroke-miterlimit="10" stroke-width="0.5" stroke-dasharray=""/><path fill="white" stroke="#505050" paint-order="fill stroke markers" d=" M 722.2364990115166 51.444882959127426 L 722.2364990115166 167.89712676405907 Q 722.2364990115166 175.89712676405907 730.2364990115166 175.89712676405907 L 975.9967529177666 175.89712676405907 Q 983.9967529177666 175.89712676405907 983.9967529177666 167.89712676405907 L 983.9967529177666 51.444882959127426 Q 983.9967529177666 43.444882959127426 975.9967529177666 43.444882959127426 L 730.2364990115166 43.444882959127426 Q 722.2364990115166 43.444882959127426 722.2364990115166 51.444882959127426" stroke-miterlimit="10" stroke-width="0.5" stroke-dasharray=""/><path fill="#F0F0F0" stroke="#505050" paint-order="fill stroke markers" d=" M 899.9967529177666 51.444882959127426 L 983.9967529177666 51.444882959127426 L 983.9967529177666 133.44488295912743 L 899.9967529177666 133.44488295912743 L 899.9967529177666 51.444882959127426 Z" stroke-miterlimit="10" stroke-width="0.5" stroke-dasharray=""/><text fill="#505050" stroke="none" font-family="monospace" font-size="14px" font-style="normal" font-weight="normal" text-decoration="normal" x="941.9967529177666" y="69.44488295912743" text-anchor="middle" dominant-baseline="text-after-edge">Point.dot</text><path fill="none" stroke="#505050" paint-order="fill stroke markers" d=" M 899.9967529177666 69.44488295912743 L 923.9967529177666 69.44488295912743 L 923.9967529177666 97.44488295912743 L 899.9967529177666 97.44488295912743 L 899.9967529177666 69.44488295912743 Z" stroke-miterlimit="10" stroke-width="0.5" stroke-dasharray=""/><path fill="none" stroke="#505050" paint-order="fill stroke markers" d=" M 915.9967529177666 73.44488295912743 L 923.9967529177666 73.44488295912743 L 923.9967529177666 81.44488295912743 L 915.9967529177666 81.44488295912743 L 915.9967529177666 73.44488295912743 Z" stroke-miterlimit="10" stroke-width="0.5" stroke-dasharray=""/><path fill="none" stroke="#505050" paint-order="fill stroke markers" d=" M 915.9967529177666 85.44488295912743 L 923.9967529177666 85.44488295912743 L 923.9967529177666 93.44488295912743 L 915.9967529177666 93.44488295912743 L 915.9967529177666 85.44488295912743 Z" stroke-miterlimit="10" stroke-width="0.5" stroke-dasharray=""/><text fill="#505050" stroke="none" font-family="monospace" font-size="14px" font-style="normal" font-weight="normal" text-decoration="normal" x="931.9967529177666" y="92.44488295912743" text-anchor="start" dominant-baseline="text-after-edge">P</text><path fill="none" stroke="#505050" paint-order="fill stroke markers" d=" M 899.9967529177666 101.44488295912743 L 923.9967529177666 101.44488295912743 L 923.9967529177666 129.44488295912743 L 899.9967529177666 129.44488295912743 L 899.9967529177666 101.44488295912743 Z" stroke-miterlimit="10" stroke-width="0.5" stroke-dasharray=""/><path fill="none" stroke="#505050" paint-order="fill stroke markers" d=" M 915.9967529177666 105.44488295912743 L 923.9967529177666 105.44488295912743 L 923.9967529177666 113.44488295912743 L 915.9967529177666 113.44488295912743 L 915.9967529177666 105.44488295912743 Z" stroke-miterlimit="10" stroke-width="0.5" stroke-dasharray=""/><path fill="none" stroke="#505050" paint-order="fill stroke markers" d=" M 915.9967529177666 117.44488295912743 L 923.9967529177666 117.44488295912743 L 923.9967529177666 125.44488295912743 L 915.9967529177666 125.44488295912743 L 915.9967529177666 117.44488295912743 Z" stroke-miterlimit="10" stroke-width="0.5" stroke-dasharray=""/><text fill="#505050" stroke="none" font-family="monospace" font-size="14px" font-style="normal" font-weight="normal" text-decoration="normal" x="931.9967529177666" y="124.44488295912743" text-anchor="start" dominant-baseline="text-after-edge">P</text><path fill="none" stroke="#505050" paint-order="fill stroke markers" d=" M 975.9967529177666 69.44488295912743 L 983.9967529177666 69.44488295912743 L 983.9967529177666 77.44488295912743 L 975.9967529177666 77.44488295912743 L 975.9967529177666 69.44488295912743 Z" stroke-miterlimit="10" stroke-width="0.5" stroke-dasharray=""/><path fill="white" stroke="#505050" paint-order="fill stroke markers" d=" M 791.7808944582939 99.44415816664696 L 823.7808944582939 99.44415816664696 L 823.7808944582939 141.44415816664696 L 791.7808944582939 141.44415816664696 L 791.7808944582939 99.44415816664696 Z" stroke-miterlimit="10" stroke-width="0.5" stroke-dasharray=""/><text fill="#505050" stroke="none" font-family="monospace" font-size="14px" font-style="normal" font-weight="normal" text-decoration="normal" x="807.7808944582939" y="117.44415816664696" text-anchor="middle" dominant-baseline="text-after-edge">*</text><path fill="none" stroke="#505050" paint-order="fill stroke markers" d=" M 791.7808944582939 117.44415816664696 L 799.7808944582939 117.44415816664696 L 799.7808944582939 125.44415816664696 L 791.7808944582939 125.44415816664696 L 791.7808944582939 117.44415816664696 Z" stroke-miterlimit="10" stroke-width="0.5" stroke-dasharray=""/><path fill="none" stroke="#505050" paint-order="fill stroke markers" d=" M 791.7808944582939 129.44415816664696 L 799.7808944582939 129.44415816664696 L 799.7808944582939 137.44415816664696 L 791.7808944582939 137.44415816664696 L 791.7808944582939 129.44415816664696 Z" stroke-miterlimit="10" stroke-width="0.5" stroke-dasharray=""/><path fill="none" stroke="#505050" paint-order="fill stroke markers" d=" M 815.7808944582939 117.44415816664696 L 823.7808944582939 117.44415816664696 L 823.7808944582939 125.44415816664696 L 815.7808944582939 125.44415816664696 L 815.7808944582939 117.44415816664696 Z" stroke-miterlimit="10" stroke-width="0.5" stroke-dasharray=""/><path fill="white" stroke="#505050" paint-order="fill stroke markers" d=" M 847.5371200442314 57.02542647719383 L 879.5371200442314 57.02542647719383 L 879.5371200442314 99.02542647719383 L 847.5371200442314 99.02542647719383 L 847.5371200442314 57.02542647719383 Z" stroke-miterlimit="10" stroke-width="0.5" stroke-dasharray=""/><text fill="#505050" stroke="none" font-family="monospace" font-size="14px" font-style="normal" font-weight="normal" text-decoration="normal" x="863.5371200442314" y="75.02542647719383" text-anchor="middle" dominant-baseline="text-after-edge">+</text><path fill="none" stroke="#505050" paint-order="fill stroke markers" d=" M 847.5371200442314 75.02542647719383 L 855.5371200442314 75.02542647719383 L 855.5371200442314 83.02542647719383 L 847.5371200442314 83.02542647719383 L 847.5371200442314 75.02542647719383 Z" stroke-miterlimit="10" stroke-width="0.5" stroke-dasharray=""/><path fill="none" stroke="#505050" paint-order="fill stroke markers" d=" M 847.5371200442314 87.02542647719383 L 855.5371200442314 87.02542647719383 L 855.5371200442314 95.02542647719383 L 847.5371200442314 95.02542647719383 L 847.5371200442314 87.02542647719383 Z" stroke-miterlimit="10" stroke-width="0.5" stroke-dasharray=""/><path fill="none" stroke="#505050" paint-order="fill stroke markers" d=" M 871.5371200442314 75.02542647719383 L 879.5371200442314 75.02542647719383 L 879.5371200442314 83.02542647719383 L 871.5371200442314 83.02542647719383 L 871.5371200442314 75.02542647719383 Z" stroke-miterlimit="10" stroke-width="0.5" stroke-dasharray=""/><path fill="white" stroke="#505050" paint-order="fill stroke markers" d=" M 790.0277816653252 46.91292342543602 L 822.0277816653252 46.91292342543602 L 822.0277816653252 88.91292342543602 L 790.0277816653252 88.91292342543602 L 790.0277816653252 46.91292342543602 Z" stroke-miterlimit="10" stroke-width="0.5" stroke-dasharray=""/><text fill="#505050" stroke="none" font-family="monospace" font-size="14px" font-style="normal" font-weight="normal" text-decoration="normal" x="806.0277816653252" y="64.91292342543602" text-anchor="middle" dominant-baseline="text-after-edge">*</text><path fill="none" stroke="#505050" paint-order="fill stroke markers" d=" M 790.0277816653252 64.91292342543602 L 798.0277816653252 64.91292342543602 L 798.0277816653252 72.91292342543602 L 790.0277816653252 72.91292342543602 L 790.0277816653252 64.91292342543602 Z" stroke-miterlimit="10" stroke-width="0.5" stroke-dasharray=""/><path fill="none" stroke="#505050" paint-order="fill stroke markers" d=" M 790.0277816653252 76.91292342543602 L 798.0277816653252 76.91292342543602 L 798.0277816653252 84.91292342543602 L 790.0277816653252 84.91292342543602 L 790.0277816653252 76.91292342543602 Z" stroke-miterlimit="10" stroke-width="0.5" stroke-dasharray=""/><path fill="none" stroke="#505050" paint-order="fill stroke markers" d=" M 814.0277816653252 64.91292342543602 L 822.0277816653252 64.91292342543602 L 822.0277816653252 72.91292342543602 L 814.0277816653252 72.91292342543602 L 814.0277816653252 64.91292342543602 Z" stroke-miterlimit="10" stroke-width="0.5" stroke-dasharray=""/><path fill="white" stroke="#505050" paint-order="fill stroke markers" d=" M 869.2829467654228 118.49417266249657 L 885.2829467654228 118.49417266249657 L 893.2829467654228 126.49417266249657 L 885.2829467654228 134.49417266249657 L 869.2829467654228 134.49417266249657 L 869.2829467654228 118.49417266249657" stroke-miterlimit="10" stroke-width="0.5" stroke-dasharray=""/><path fill="none" stroke="#505050" paint-order="fill stroke markers" d=" M 869.2829467654228 122.49417266249657 L 877.2829467654228 122.49417266249657 L 877.2829467654228 130.49417266249657 L 869.2829467654228 130.49417266249657 L 869.2829467654228 122.49417266249657 Z" stroke-miterlimit="10" stroke-width="0.5" stroke-dasharray=""/><path fill="none" stroke="none"/><path fill="white" stroke="#505050" paint-order="fill stroke markers" d=" M 722.9615356326103 46.72301635146141 L 754.9615356326103 46.72301635146141 L 754.9615356326103 88.72301635146141 L 722.9615356326103 88.72301635146141 L 730.9615356326103 67.72301635146141 L 722.9615356326103 46.72301635146141" stroke-miterlimit="10" stroke-width="0.5" stroke-dasharray=""/><text fill="#505050" stroke="none" font-family="monospace" font-size="14px" font-style="normal" font-weight="normal" text-decoration="normal" x="742.9615356326103" y="64.72301635146141" text-anchor="middle" dominant-baseline="text-after-edge">P</text><path fill="none" stroke="#505050" paint-order="fill stroke markers" d=" M 746.9615356326103 64.72301635146141 L 754.9615356326103 64.72301635146141 L 754.9615356326103 72.72301635146141 L 746.9615356326103 72.72301635146141 L 746.9615356326103 64.72301635146141 Z" stroke-miterlimit="10" stroke-width="0.5" stroke-dasharray=""/><path fill="none" stroke="#505050" paint-order="fill stroke markers" d=" M 746.9615356326103 76.72301635146141 L 754.9615356326103 76.72301635146141 L 754.9615356326103 84.72301635146141 L 746.9615356326103 84.72301635146141 L 746.9615356326103 76.72301635146141 Z" stroke-miterlimit="10" stroke-width="0.5" stroke-dasharray=""/><path fill="none" stroke="none"/><path fill="white" stroke="#505050" paint-order="fill stroke markers" d=" M 722.9615356326103 100.05424651503563 L 754.9615356326103 100.05424651503563 L 754.9615356326103 142.05424651503563 L 722.9615356326103 142.05424651503563 L 730.9615356326103 121.05424651503563 L 722.9615356326103 100.05424651503563" stroke-miterlimit="10" stroke-width="0.5" stroke-dasharray=""/><text fill="#505050" stroke="none" font-family="monospace" font-size="14px" font-style="normal" font-weight="normal" text-decoration="normal" x="742.9615356326103" y="118.05424651503563" text-anchor="middle" dominant-baseline="text-after-edge">P</text><path fill="none" stroke="#505050" paint-order="fill stroke markers" d=" M 746.9615356326103 118.05424651503563 L 754.9615356326103 118.05424651503563 L 754.9615356326103 126.05424651503563 L 746.9615356326103 126.05424651503563 L 746.9615356326103 118.05424651503563 Z" stroke-miterlimit="10" stroke-width="0.5" stroke-dasharray=""/><path fill="none" stroke="#505050" paint-order="fill stroke markers" d=" M 746.9615356326103 130.05424651503563 L 754.9615356326103 130.05424651503563 L 754.9615356326103 138.05424651503563 L 746.9615356326103 138.05424651503563 L 746.9615356326103 130.05424651503563 Z" stroke-miterlimit="10" stroke-width="0.5" stroke-dasharray=""/><path fill="white" stroke="#505050" paint-order="fill stroke markers" d=" M 157.98563307523727 191.6555343568325 L 157.98563307523727 241.55860862135887 Q 157.98563307523727 249.55860862135887 165.98563307523727 249.55860862135887 L 254.61687391996384 249.55860862135887 Q 262.61687391996384 249.55860862135887 262.61687391996384 241.55860862135887 L 262.61687391996384 191.6555343568325 Q 262.61687391996384 183.6555343568325 254.61687391996384 183.6555343568325 L 165.98563307523727 183.6555343568325 Q 157.98563307523727 183.6555343568325 157.98563307523727 191.6555343568325" stroke-miterlimit="10" stroke-width="0.5" stroke-dasharray=""/><path fill="#F0F0F0" stroke="#505050" paint-order="fill stroke markers" d=" M 238.61687391996384 191.6555343568325 L 262.61687391996384 191.6555343568325 L 262.61687391996384 233.6555343568325 L 238.61687391996384 233.6555343568325 L 238.61687391996384 191.6555343568325 Z" stroke-miterlimit="10" stroke-width="0.5" stroke-dasharray="6,3"/><text fill="#505050" stroke="none" font-family="monospace" font-size="14px" font-style="normal" font-weight="normal" text-decoration="normal" x="250.61687391996384" y="209.6555343568325" text-anchor="middle" dominant-baseline="text-after-edge">P</text><path fill="none" stroke="#505050" paint-order="fill stroke markers" d=" M 254.61687391996384 209.6555343568325 L 262.61687391996384 209.6555343568325 L 262.61687391996384 217.6555343568325 L 254.61687391996384 217.6555343568325 L 254.61687391996384 209.6555343568325 Z" stroke-miterlimit="10" stroke-width="0.5" stroke-dasharray="0"/><path fill="none" stroke="#505050" paint-order="fill stroke markers" d=" M 254.61687391996384 221.6555343568325 L 262.61687391996384 221.6555343568325 L 262.61687391996384 229.6555343568325 L 254.61687391996384 229.6555343568325 L 254.61687391996384 221.6555343568325 Z" stroke-miterlimit="10" stroke-width="0.5" stroke-dasharray="0"/><path fill="white" stroke="#505050" paint-order="fill stroke markers" d=" M 164.86062544584274 192.94300803542137 L 180.86062544584274 192.94300803542137 L 188.86062544584274 200.94300803542137 L 180.86062544584274 208.94300803542137 L 164.86062544584274 208.94300803542137 L 164.86062544584274 192.94300803542137" stroke-miterlimit="10" stroke-width="0.5" stroke-dasharray="0"/><path fill="none" stroke="#505050" paint-order="fill stroke markers" d=" M 164.86062544584274 196.94300803542137 L 172.86062544584274 196.94300803542137 L 172.86062544584274 204.94300803542137 L 164.86062544584274 204.94300803542137 L 164.86062544584274 196.94300803542137 Z" stroke-miterlimit="10" stroke-width="0.5" stroke-dasharray="0"/><path fill="white" stroke="#505050" paint-order="fill stroke markers" d=" M 165.4262382388115 214.64924582839012 L 181.4262382388115 214.64924582839012 L 189.4262382388115 222.64924582839012 L 181.4262382388115 230.64924582839012 L 165.4262382388115 230.64924582839012 L 165.4262382388115 214.64924582839012" stroke-miterlimit="10" stroke-width="0.5" stroke-dasharray="0"/><path fill="none" stroke="#505050" paint-order="fill stroke markers" d=" M 165.4262382388115 218.64924582839012 L 173.4262382388115 218.64924582839012 L 173.4262382388115 226.64924582839012 L 165.4262382388115 226.64924582839012 L 165.4262382388115 218.64924582839012 Z" stroke-miterlimit="10" stroke-width="0.5" stroke-dasharray="0"/><path fill="white" stroke="#505050" paint-order="fill stroke markers" d=" M 725.3671142458916 205.29247817397118 L 725.3671142458916 347.81433257460594 Q 725.3671142458916 355.81433257460594 733.3671142458916 355.81433257460594 L 1004.5264770388603 355.81433257460594 Q 1012.5264770388603 355.81433257460594 1012.5264770388603 347.81433257460594 L 1012.5264770388603 205.29247817397118 Q 1012.5264770388603 197.29247817397118 1004.5264770388603 197.29247817397118 L 733.3671142458916 197.29247817397118 Q 725.3671142458916 197.29247817397118 725.3671142458916 205.29247817397118" stroke-miterlimit="10" stroke-width="0.5" stroke-dasharray="0"/><path fill="#F0F0F0" stroke="#505050" paint-order="fill stroke markers" d=" M 903.5264770388603 205.29247817397118 L 1012.5264770388603 205.29247817397118 L 1012.5264770388603 255.29247817397118 L 903.5264770388603 255.29247817397118 L 903.5264770388603 205.29247817397118 Z" stroke-miterlimit="10" stroke-width="0.5" stroke-dasharray="0"/><text fill="#505050" stroke="none" font-family="monospace" font-size="14px" font-style="normal" font-weight="normal" text-decoration="normal" x="958.0264770388603" y="223.29247817397118" text-anchor="middle" dominant-baseline="text-after-edge">Point.length</text><path fill="none" stroke="#505050" paint-order="fill stroke markers" d=" M 903.5264770388603 223.29247817397118 L 927.5264770388603 223.29247817397118 L 927.5264770388603 251.29247817397118 L 903.5264770388603 251.29247817397118 L 903.5264770388603 223.29247817397118 Z" stroke-miterlimit="10" stroke-width="0.5" stroke-dasharray="0"/><path fill="none" stroke="#505050" paint-order="fill stroke markers" d=" M 919.5264770388603 227.29247817397118 L 927.5264770388603 227.29247817397118 L 927.5264770388603 235.29247817397118 L 919.5264770388603 235.29247817397118 L 919.5264770388603 227.29247817397118 Z" stroke-miterlimit="10" stroke-width="0.5" stroke-dasharray="0"/><path fill="none" stroke="#505050" paint-order="fill stroke markers" d=" M 919.5264770388603 239.29247817397118 L 927.5264770388603 239.29247817397118 L 927.5264770388603 247.29247817397118 L 919.5264770388603 247.29247817397118 L 919.5264770388603 239.29247817397118 Z" stroke-miterlimit="10" stroke-width="0.5" stroke-dasharray="0"/><text fill="#505050" stroke="none" font-family="monospace" font-size="14px" font-style="normal" font-weight="normal" text-decoration="normal" x="935.5264770388603" y="246.29247817397118" text-anchor="start" dominant-baseline="text-after-edge">P</text><path fill="none" stroke="#505050" paint-order="fill stroke markers" d=" M 1004.5264770388603 223.29247817397118 L 1012.5264770388603 223.29247817397118 L 1012.5264770388603 231.29247817397118 L 1004.5264770388603 231.29247817397118 L 1004.5264770388603 223.29247817397118 Z" stroke-miterlimit="10" stroke-width="0.5" stroke-dasharray="0"/><path fill="white" stroke="#505050" paint-order="fill stroke markers" d=" M 784.7712509036064 258.79090651869774 L 816.7712509036064 258.79090651869774 L 816.7712509036064 300.79090651869774 L 784.7712509036064 300.79090651869774 L 784.7712509036064 258.79090651869774 Z" stroke-miterlimit="10" stroke-width="0.5" stroke-dasharray="0"/><text fill="#505050" stroke="none" font-family="monospace" font-size="14px" font-style="normal" font-weight="normal" text-decoration="normal" x="800.7712509036064" y="276.79090651869774" text-anchor="middle" dominant-baseline="text-after-edge">*</text><path fill="none" stroke="#505050" paint-order="fill stroke markers" d=" M 784.7712509036064 276.79090651869774 L 792.7712509036064 276.79090651869774 L 792.7712509036064 284.79090651869774 L 784.7712509036064 284.79090651869774 L 784.7712509036064 276.79090651869774 Z" stroke-miterlimit="10" stroke-width="0.5" stroke-dasharray="0"/><path fill="none" stroke="#505050" paint-order="fill stroke markers" d=" M 784.7712509036064 288.79090651869774 L 792.7712509036064 288.79090651869774 L 792.7712509036064 296.79090651869774 L 784.7712509036064 296.79090651869774 L 784.7712509036064 288.79090651869774 Z" stroke-miterlimit="10" stroke-width="0.5" stroke-dasharray="0"/><path fill="none" stroke="#505050" paint-order="fill stroke markers" d=" M 808.7712509036064 276.79090651869774 L 816.7712509036064 276.79090651869774 L 816.7712509036064 284.79090651869774 L 808.7712509036064 284.79090651869774 L 808.7712509036064 276.79090651869774 Z" stroke-miterlimit="10" stroke-width="0.5" stroke-dasharray="0"/><path fill="white" stroke="#505050" paint-order="fill stroke markers" d=" M 829.2118026614189 219.7221504151821 L 861.2118026614189 219.7221504151821 L 861.2118026614189 261.7221504151821 L 829.2118026614189 261.7221504151821 L 829.2118026614189 219.7221504151821 Z" stroke-miterlimit="10" stroke-width="0.5" stroke-dasharray="0"/><text fill="#505050" stroke="none" font-family="monospace" font-size="14px" font-style="normal" font-weight="normal" text-decoration="normal" x="845.2118026614189" y="237.7221504151821" text-anchor="middle" dominant-baseline="text-after-edge">+</text><path fill="none" stroke="#505050" paint-order="fill stroke markers" d=" M 829.2118026614189 237.7221504151821 L 837.2118026614189 237.7221504151821 L 837.2118026614189 245.7221504151821 L 829.2118026614189 245.7221504151821 L 829.2118026614189 237.7221504151821 Z" stroke-miterlimit="10" stroke-width="0.5" stroke-dasharray="0"/><path fill="none" stroke="#505050" paint-order="fill stroke markers" d=" M 829.2118026614189 249.7221504151821 L 837.2118026614189 249.7221504151821 L 837.2118026614189 257.7221504151821 L 829.2118026614189 257.7221504151821 L 829.2118026614189 249.7221504151821 Z" stroke-miterlimit="10" stroke-width="0.5" stroke-dasharray="0"/><path fill="none" stroke="#505050" paint-order="fill stroke markers" d=" M 853.2118026614189 237.7221504151821 L 861.2118026614189 237.7221504151821 L 861.2118026614189 245.7221504151821 L 853.2118026614189 245.7221504151821 L 853.2118026614189 237.7221504151821 Z" stroke-miterlimit="10" stroke-width="0.5" stroke-dasharray="0"/><path fill="white" stroke="#505050" paint-order="fill stroke markers" d=" M 784.5399886965752 208.46905288100243 L 816.5399886965752 208.46905288100243 L 816.5399886965752 250.46905288100243 L 784.5399886965752 250.46905288100243 L 784.5399886965752 208.46905288100243 Z" stroke-miterlimit="10" stroke-width="0.5" stroke-dasharray="0"/><text fill="#505050" stroke="none" font-family="monospace" font-size="14px" font-style="normal" font-weight="normal" text-decoration="normal" x="800.5399886965752" y="226.46905288100243" text-anchor="middle" dominant-baseline="text-after-edge">*</text><path fill="none" stroke="#505050" paint-order="fill stroke markers" d=" M 784.5399886965752 226.46905288100243 L 792.5399886965752 226.46905288100243 L 792.5399886965752 234.46905288100243 L 784.5399886965752 234.46905288100243 L 784.5399886965752 226.46905288100243 Z" stroke-miterlimit="10" stroke-width="0.5" stroke-dasharray="0"/><path fill="none" stroke="#505050" paint-order="fill stroke markers" d=" M 784.5399886965752 238.46905288100243 L 792.5399886965752 238.46905288100243 L 792.5399886965752 246.46905288100243 L 784.5399886965752 246.46905288100243 L 784.5399886965752 238.46905288100243 Z" stroke-miterlimit="10" stroke-width="0.5" stroke-dasharray="0"/><path fill="none" stroke="#505050" paint-order="fill stroke markers" d=" M 808.5399886965752 226.46905288100243 L 816.5399886965752 226.46905288100243 L 816.5399886965752 234.46905288100243 L 808.5399886965752 234.46905288100243 L 808.5399886965752 226.46905288100243 Z" stroke-miterlimit="10" stroke-width="0.5" stroke-dasharray="0"/><path fill="white" stroke="#505050" paint-order="fill stroke markers" d=" M 950.7267944216728 302.9019866883755 L 966.7267944216728 302.9019866883755 L 974.7267944216728 310.9019866883755 L 966.7267944216728 318.9019866883755 L 950.7267944216728 318.9019866883755 L 950.7267944216728 302.9019866883755" stroke-miterlimit="10" stroke-width="0.5" stroke-dasharray="0"/><path fill="none" stroke="#505050" paint-order="fill stroke markers" d=" M 950.7267944216728 306.9019866883755 L 958.7267944216728 306.9019866883755 L 958.7267944216728 314.9019866883755 L 950.7267944216728 314.9019866883755 L 950.7267944216728 306.9019866883755 Z" stroke-miterlimit="10" stroke-width="0.5" stroke-dasharray="0"/><path fill="none" stroke="none"/><path fill="white" stroke="#505050" paint-order="fill stroke markers" d=" M 722.4920532107353 229.82685241103172 L 754.4920532107353 229.82685241103172 L 754.4920532107353 271.8268524110317 L 722.4920532107353 271.8268524110317 L 730.4920532107353 250.82685241103172 L 722.4920532107353 229.82685241103172" stroke-miterlimit="10" stroke-width="0.5" stroke-dasharray="0"/><text fill="#505050" stroke="none" font-family="monospace" font-size="14px" font-style="normal" font-weight="normal" text-decoration="normal" x="742.4920532107353" y="247.82685241103172" text-anchor="middle" dominant-baseline="text-after-edge">P</text><path fill="none" stroke="#505050" paint-order="fill stroke markers" d=" M 746.4920532107353 247.82685241103172 L 754.4920532107353 247.82685241103172 L 754.4920532107353 255.82685241103172 L 746.4920532107353 255.82685241103172 L 746.4920532107353 247.82685241103172 Z" stroke-miterlimit="10" stroke-width="0.5" stroke-dasharray="0"/><path fill="none" stroke="#505050" paint-order="fill stroke markers" d=" M 746.4920532107353 259.8268524110317 L 754.4920532107353 259.8268524110317 L 754.4920532107353 267.8268524110317 L 746.4920532107353 267.8268524110317 L 746.4920532107353 259.8268524110317 Z" stroke-miterlimit="10" stroke-width="0.5" stroke-dasharray="0"/><path fill="white" stroke="#505050" paint-order="fill stroke markers" d=" M 856.2476150393486 272.6703224182129 L 940.2476150393486 272.6703224182129 L 940.2476150393486 302.6703224182129 L 856.2476150393486 302.6703224182129 L 856.2476150393486 272.6703224182129 Z" stroke-miterlimit="10" stroke-width="0.5" stroke-dasharray="0"/><text fill="#505050" stroke="none" font-family="monospace" font-size="14px" font-style="normal" font-weight="normal" text-decoration="normal" x="898.2476150393486" y="290.6703224182129" text-anchor="middle" dominant-baseline="text-after-edge">Math.sqrt</text><path fill="none" stroke="#505050" paint-order="fill stroke markers" d=" M 856.2476150393486 290.6703224182129 L 864.2476150393486 290.6703224182129 L 864.2476150393486 298.6703224182129 L 856.2476150393486 298.6703224182129 L 856.2476150393486 290.6703224182129 Z" stroke-miterlimit="10" stroke-width="0.5" stroke-dasharray="0"/><path fill="none" stroke="#505050" paint-order="fill stroke markers" d=" M 932.2476150393486 290.6703224182129 L 940.2476150393486 290.6703224182129 L 940.2476150393486 298.6703224182129 L 932.2476150393486 298.6703224182129 L 932.2476150393486 290.6703224182129 Z" stroke-miterlimit="10" stroke-width="0.5" stroke-dasharray="0"/><path fill="white" stroke="#505050" paint-order="fill stroke markers" d=" M 424.7263061404228 393.4656501710415 L 424.7263061404228 531.8725833892822 Q 424.7263061404228 539.8725833892822 432.7263061404228 539.8725833892822 L 654.9402953982353 539.8725833892822 Q 662.9402953982353 539.8725833892822 662.9402953982353 531.8725833892822 L 662.9402953982353 393.4656501710415 Q 662.9402953982353 385.4656501710415 654.9402953982353 385.4656501710415 L 432.7263061404228 385.4656501710415 Q 424.7263061404228 385.4656501710415 424.7263061404228 393.4656501710415" stroke-miterlimit="10" stroke-width="0.5" stroke-dasharray="0"/><path fill="#F0F0F0" stroke="#505050" paint-order="fill stroke markers" d=" M 541.9402953982353 393.4656501710415 L 662.9402953982353 393.4656501710415 L 662.9402953982353 443.4656501710415 L 541.9402953982353 443.4656501710415 L 541.9402953982353 393.4656501710415 Z" stroke-miterlimit="10" stroke-width="0.5" stroke-dasharray="0"/><text fill="#505050" stroke="none" font-family="monospace" font-size="14px" font-style="normal" font-weight="normal" text-decoration="normal" x="602.4402953982353" y="411.4656501710415" text-anchor="middle" dominant-baseline="text-after-edge">Point.perp</text><path fill="none" stroke="#505050" paint-order="fill stroke markers" d=" M 541.9402953982353 411.4656501710415 L 565.9402953982353 411.4656501710415 L 565.9402953982353 439.4656501710415 L 541.9402953982353 439.4656501710415 L 541.9402953982353 411.4656501710415 Z" stroke-miterlimit="10" stroke-width="0.5" stroke-dasharray="0"/><path fill="none" stroke="#505050" paint-order="fill stroke markers" d=" M 557.9402953982353 415.4656501710415 L 565.9402953982353 415.4656501710415 L 565.9402953982353 423.4656501710415 L 557.9402953982353 423.4656501710415 L 557.9402953982353 415.4656501710415 Z" stroke-miterlimit="10" stroke-width="0.5" stroke-dasharray="0"/><path fill="none" stroke="#505050" paint-order="fill stroke markers" d=" M 557.9402953982353 427.4656501710415 L 565.9402953982353 427.4656501710415 L 565.9402953982353 435.4656501710415 L 557.9402953982353 435.4656501710415 L 557.9402953982353 427.4656501710415 Z" stroke-miterlimit="10" stroke-width="0.5" stroke-dasharray="0"/><text fill="#505050" stroke="none" font-family="monospace" font-size="14px" font-style="normal" font-weight="normal" text-decoration="normal" x="573.9402953982353" y="434.4656501710415" text-anchor="start" dominant-baseline="text-after-edge">P</text><path fill="none" stroke="#505050" paint-order="fill stroke markers" d=" M 638.9402953982353 411.4656501710415 L 662.9402953982353 411.4656501710415 L 662.9402953982353 439.4656501710415 L 638.9402953982353 439.4656501710415 L 638.9402953982353 411.4656501710415 Z" stroke-miterlimit="10" stroke-width="0.5" stroke-dasharray="0"/><path fill="none" stroke="#505050" paint-order="fill stroke markers" d=" M 654.9402953982353 415.4656501710415 L 662.9402953982353 415.4656501710415 L 662.9402953982353 423.4656501710415 L 654.9402953982353 423.4656501710415 L 654.9402953982353 415.4656501710415 Z" stroke-miterlimit="10" stroke-width="0.5" stroke-dasharray="0"/><path fill="none" stroke="#505050" paint-order="fill stroke markers" d=" M 654.9402953982353 427.4656501710415 L 662.9402953982353 427.4656501710415 L 662.9402953982353 435.4656501710415 L 654.9402953982353 435.4656501710415 L 654.9402953982353 427.4656501710415 Z" stroke-miterlimit="10" stroke-width="0.5" stroke-dasharray="0"/><text fill="#505050" stroke="none" font-family="monospace" font-size="14px" font-style="normal" font-weight="normal" text-decoration="normal" x="630.9402953982353" y="434.4656501710415" text-anchor="end" dominant-baseline="text-after-edge">P'</text><path fill="none" stroke="none"/><path fill="white" stroke="#505050" paint-order="fill stroke markers" d=" M 422.8065063357353 445.88710936903954 L 454.8065063357353 445.88710936903954 L 454.8065063357353 487.88710936903954 L 422.8065063357353 487.88710936903954 L 430.8065063357353 466.88710936903954 L 422.8065063357353 445.88710936903954" stroke-miterlimit="10" stroke-width="0.5" stroke-dasharray="0"/><text fill="#505050" stroke="none" font-family="monospace" font-size="14px" font-style="normal" font-weight="normal" text-decoration="normal" x="442.8065063357353" y="463.88710936903954" text-anchor="middle" dominant-baseline="text-after-edge">P</text><path fill="none" stroke="#505050" paint-order="fill stroke markers" d=" M 446.8065063357353 463.88710936903954 L 454.8065063357353 463.88710936903954 L 454.8065063357353 471.88710936903954 L 446.8065063357353 471.88710936903954 L 446.8065063357353 463.88710936903954 Z" stroke-miterlimit="10" stroke-width="0.5" stroke-dasharray="0"/><path fill="none" stroke="#505050" paint-order="fill stroke markers" d=" M 446.8065063357353 475.88710936903954 L 454.8065063357353 475.88710936903954 L 454.8065063357353 483.88710936903954 L 446.8065063357353 483.88710936903954 L 446.8065063357353 475.88710936903954 Z" stroke-miterlimit="10" stroke-width="0.5" stroke-dasharray="0"/><path fill="white" stroke="#505050" paint-order="fill stroke markers" d=" M 475.7402801513672 401.87756729125977 L 507.7402801513672 401.87756729125977 L 507.7402801513672 431.87756729125977 L 475.7402801513672 431.87756729125977 L 475.7402801513672 401.87756729125977 Z" stroke-miterlimit="10" stroke-width="0.5" stroke-dasharray="0"/><text fill="#505050" stroke="none" font-family="monospace" font-size="14px" font-style="normal" font-weight="normal" text-decoration="normal" x="491.7402801513672" y="419.87756729125977" text-anchor="middle" dominant-baseline="text-after-edge">-</text><path fill="none" stroke="#505050" paint-order="fill stroke markers" d=" M 475.7402801513672 419.87756729125977 L 483.7402801513672 419.87756729125977 L 483.7402801513672 427.87756729125977 L 475.7402801513672 427.87756729125977 L 475.7402801513672 419.87756729125977 Z" stroke-miterlimit="10" stroke-width="0.5" stroke-dasharray="0"/><path fill="none" stroke="#505050" paint-order="fill stroke markers" d=" M 499.7402801513672 419.87756729125977 L 507.7402801513672 419.87756729125977 L 507.7402801513672 427.87756729125977 L 499.7402801513672 427.87756729125977 L 499.7402801513672 419.87756729125977 Z" stroke-miterlimit="10" stroke-width="0.5" stroke-dasharray="0"/><path fill="white" stroke="#505050" paint-order="fill stroke markers" d=" M 521.9560165405273 460.26943358778954 L 521.9560165405273 515.8725833892822 Q 521.9560165405273 523.8725833892822 529.9560165405273 523.8725833892822 L 632.8060790896416 523.8725833892822 Q 640.8060790896416 523.8725833892822 640.8060790896416 515.8725833892822 L 640.8060790896416 460.26943358778954 Q 640.8060790896416 452.26943358778954 632.8060790896416 452.26943358778954 L 529.9560165405273 452.26943358778954 Q 521.9560165405273 452.26943358778954 521.9560165405273 460.26943358778954" stroke-miterlimit="10" stroke-width="0.5" stroke-dasharray="0"/><path fill="#F0F0F0" stroke="#505050" paint-order="fill stroke markers" d=" M 615.8060790896416 460.26943358778954 L 640.8060790896416 460.26943358778954 L 640.8060790896416 502.26943358778954 L 615.8060790896416 502.26943358778954 L 615.8060790896416 460.26943358778954 Z" stroke-miterlimit="10" stroke-width="0.5" stroke-dasharray="0"/><text fill="#505050" stroke="none" font-family="monospace" font-size="14px" font-style="normal" font-weight="normal" text-decoration="normal" x="628.3060790896416" y="478.26943358778954" text-anchor="middle" dominant-baseline="text-after-edge">P'</text><path fill="none" stroke="#505050" paint-order="fill stroke markers" d=" M 632.8060790896416 478.26943358778954 L 640.8060790896416 478.26943358778954 L 640.8060790896416 486.26943358778954 L 632.8060790896416 486.26943358778954 L 632.8060790896416 478.26943358778954 Z" stroke-miterlimit="10" stroke-width="0.5" stroke-dasharray="0"/><path fill="none" stroke="#505050" paint-order="fill stroke markers" d=" M 632.8060790896416 490.26943358778954 L 640.8060790896416 490.26943358778954 L 640.8060790896416 498.26943358778954 L 632.8060790896416 498.26943358778954 L 632.8060790896416 490.26943358778954 Z" stroke-miterlimit="10" stroke-width="0.5" stroke-dasharray="0"/><path fill="white" stroke="#505050" paint-order="fill stroke markers" d=" M 530.7090682983398 486.3288516998291 L 546.7090682983398 486.3288516998291 L 554.7090682983398 494.3288516998291 L 546.7090682983398 502.3288516998291 L 530.7090682983398 502.3288516998291 L 530.7090682983398 486.3288516998291" stroke-miterlimit="10" stroke-width="0.5" stroke-dasharray="0"/><path fill="none" stroke="#505050" paint-order="fill stroke markers" d=" M 530.7090682983398 490.3288516998291 L 538.7090682983398 490.3288516998291 L 538.7090682983398 498.3288516998291 L 530.7090682983398 498.3288516998291 L 530.7090682983398 490.3288516998291 Z" stroke-miterlimit="10" stroke-width="0.5" stroke-dasharray="0"/><path fill="white" stroke="#505050" paint-order="fill stroke markers" d=" M 531.1404296755791 463.4069305360317 L 547.1404296755791 463.4069305360317 L 555.1404296755791 471.4069305360317 L 547.1404296755791 479.4069305360317 L 531.1404296755791 479.4069305360317 L 531.1404296755791 463.4069305360317" stroke-miterlimit="10" stroke-width="0.5" stroke-dasharray="0"/><path fill="none" stroke="#505050" paint-order="fill stroke markers" d=" M 531.1404296755791 467.4069305360317 L 539.1404296755791 467.4069305360317 L 539.1404296755791 475.4069305360317 L 531.1404296755791 475.4069305360317 L 531.1404296755791 467.4069305360317 Z" stroke-miterlimit="10" stroke-width="0.5" stroke-dasharray="0"/><path fill="white" stroke="#505050" paint-order="fill stroke markers" d=" M 750.0310546755791 391.6209541261196 L 750.0310546755791 537.5416809022427 Q 750.0310546755791 545.5416809022427 758.0310546755791 545.5416809022427 L 974.3928100466728 545.5416809022427 Q 982.3928100466728 545.5416809022427 982.3928100466728 537.5416809022427 L 982.3928100466728 391.6209541261196 Q 982.3928100466728 383.6209541261196 974.3928100466728 383.6209541261196 L 758.0310546755791 383.6209541261196 Q 750.0310546755791 383.6209541261196 750.0310546755791 391.6209541261196" stroke-miterlimit="10" stroke-width="0.5" stroke-dasharray="0"/><path fill="#F0F0F0" stroke="#505050" paint-order="fill stroke markers" d=" M 861.3928100466728 391.6209541261196 L 982.3928100466728 391.6209541261196 L 982.3928100466728 441.6209541261196 L 861.3928100466728 441.6209541261196 L 861.3928100466728 391.6209541261196 Z" stroke-miterlimit="10" stroke-width="0.5" stroke-dasharray="0"/><text fill="#505050" stroke="none" font-family="monospace" font-size="14px" font-style="normal" font-weight="normal" text-decoration="normal" x="921.8928100466728" y="409.6209541261196" text-anchor="middle" dominant-baseline="text-after-edge">Point.conj</text><path fill="none" stroke="#505050" paint-order="fill stroke markers" d=" M 861.3928100466728 409.6209541261196 L 885.3928100466728 409.6209541261196 L 885.3928100466728 437.6209541261196 L 861.3928100466728 437.6209541261196 L 861.3928100466728 409.6209541261196 Z" stroke-miterlimit="10" stroke-width="0.5" stroke-dasharray="0"/><path fill="none" stroke="#505050" paint-order="fill stroke markers" d=" M 877.3928100466728 413.6209541261196 L 885.3928100466728 413.6209541261196 L 885.3928100466728 421.6209541261196 L 877.3928100466728 421.6209541261196 L 877.3928100466728 413.6209541261196 Z" stroke-miterlimit="10" stroke-width="0.5" stroke-dasharray="0"/><path fill="none" stroke="#505050" paint-order="fill stroke markers" d=" M 877.3928100466728 425.6209541261196 L 885.3928100466728 425.6209541261196 L 885.3928100466728 433.6209541261196 L 877.3928100466728 433.6209541261196 L 877.3928100466728 425.6209541261196 Z" stroke-miterlimit="10" stroke-width="0.5" stroke-dasharray="0"/><text fill="#505050" stroke="none" font-family="monospace" font-size="14px" font-style="normal" font-weight="normal" text-decoration="normal" x="893.3928100466728" y="432.6209541261196" text-anchor="start" dominant-baseline="text-after-edge">P</text><path fill="none" stroke="#505050" paint-order="fill stroke markers" d=" M 958.3928100466728 409.6209541261196 L 982.3928100466728 409.6209541261196 L 982.3928100466728 437.6209541261196 L 958.3928100466728 437.6209541261196 L 958.3928100466728 409.6209541261196 Z" stroke-miterlimit="10" stroke-width="0.5" stroke-dasharray="0"/><path fill="none" stroke="#505050" paint-order="fill stroke markers" d=" M 974.3928100466728 413.6209541261196 L 982.3928100466728 413.6209541261196 L 982.3928100466728 421.6209541261196 L 974.3928100466728 421.6209541261196 L 974.3928100466728 413.6209541261196 Z" stroke-miterlimit="10" stroke-width="0.5" stroke-dasharray="0"/><path fill="none" stroke="#505050" paint-order="fill stroke markers" d=" M 974.3928100466728 425.6209541261196 L 982.3928100466728 425.6209541261196 L 982.3928100466728 433.6209541261196 L 974.3928100466728 433.6209541261196 L 974.3928100466728 425.6209541261196 Z" stroke-miterlimit="10" stroke-width="0.5" stroke-dasharray="0"/><text fill="#505050" stroke="none" font-family="monospace" font-size="14px" font-style="normal" font-weight="normal" text-decoration="normal" x="950.3928100466728" y="432.6209541261196" text-anchor="end" dominant-baseline="text-after-edge">P'</text><path fill="none" stroke="none"/><path fill="white" stroke="#505050" paint-order="fill stroke markers" d=" M 749.9401122927666 447.24199828505516 L 781.9401122927666 447.24199828505516 L 781.9401122927666 489.24199828505516 L 749.9401122927666 489.24199828505516 L 757.9401122927666 468.24199828505516 L 749.9401122927666 447.24199828505516" stroke-miterlimit="10" stroke-width="0.5" stroke-dasharray="0"/><text fill="#505050" stroke="none" font-family="monospace" font-size="14px" font-style="normal" font-weight="normal" text-decoration="normal" x="769.9401122927666" y="465.24199828505516" text-anchor="middle" dominant-baseline="text-after-edge">P</text><path fill="none" stroke="#505050" paint-order="fill stroke markers" d=" M 773.9401122927666 465.24199828505516 L 781.9401122927666 465.24199828505516 L 781.9401122927666 473.24199828505516 L 773.9401122927666 473.24199828505516 L 773.9401122927666 465.24199828505516 Z" stroke-miterlimit="10" stroke-width="0.5" stroke-dasharray="0"/><path fill="none" stroke="#505050" paint-order="fill stroke markers" d=" M 773.9401122927666 477.24199828505516 L 781.9401122927666 477.24199828505516 L 781.9401122927666 485.24199828505516 L 773.9401122927666 485.24199828505516 L 773.9401122927666 477.24199828505516 Z" stroke-miterlimit="10" stroke-width="0.5" stroke-dasharray="0"/><path fill="white" stroke="#505050" paint-order="fill stroke markers" d=" M 820.8115386962891 481.2229652404785 L 852.8115386962891 481.2229652404785 L 852.8115386962891 511.2229652404785 L 820.8115386962891 511.2229652404785 L 820.8115386962891 481.2229652404785 Z" stroke-miterlimit="10" stroke-width="0.5" stroke-dasharray="0"/><text fill="#505050" stroke="none" font-family="monospace" font-size="14px" font-style="normal" font-weight="normal" text-decoration="normal" x="836.8115386962891" y="499.2229652404785" text-anchor="middle" dominant-baseline="text-after-edge">-</text><path fill="none" stroke="#505050" paint-order="fill stroke markers" d=" M 820.8115386962891 499.2229652404785 L 828.8115386962891 499.2229652404785 L 828.8115386962891 507.2229652404785 L 820.8115386962891 507.2229652404785 L 820.8115386962891 499.2229652404785 Z" stroke-miterlimit="10" stroke-width="0.5" stroke-dasharray="0"/><path fill="none" stroke="#505050" paint-order="fill stroke markers" d=" M 844.8115386962891 499.2229652404785 L 852.8115386962891 499.2229652404785 L 852.8115386962891 507.2229652404785 L 844.8115386962891 507.2229652404785 L 844.8115386962891 499.2229652404785 Z" stroke-miterlimit="10" stroke-width="0.5" stroke-dasharray="0"/><path fill="white" stroke="#505050" paint-order="fill stroke markers" d=" M 881.4300765991211 463.36980590224266 L 881.4300765991211 521.5416809022427 Q 881.4300765991211 529.5416809022427 889.4300765991211 529.5416809022427 L 951.3270141482353 529.5416809022427 Q 959.3270141482353 529.5416809022427 959.3270141482353 521.5416809022427 L 959.3270141482353 463.36980590224266 Q 959.3270141482353 455.36980590224266 951.3270141482353 455.36980590224266 L 889.4300765991211 455.36980590224266 Q 881.4300765991211 455.36980590224266 881.4300765991211 463.36980590224266" stroke-miterlimit="10" stroke-width="0.5" stroke-dasharray="0"/><path fill="#F0F0F0" stroke="#505050" paint-order="fill stroke markers" d=" M 934.3270141482353 463.36980590224266 L 959.3270141482353 463.36980590224266 L 959.3270141482353 505.36980590224266 L 934.3270141482353 505.36980590224266 L 934.3270141482353 463.36980590224266 Z" stroke-miterlimit="10" stroke-width="0.5" stroke-dasharray="0"/><text fill="#505050" stroke="none" font-family="monospace" font-size="14px" font-style="normal" font-weight="normal" text-decoration="normal" x="946.8270141482353" y="481.36980590224266" text-anchor="middle" dominant-baseline="text-after-edge">P'</text><path fill="none" stroke="#505050" paint-order="fill stroke markers" d=" M 951.3270141482353 481.36980590224266 L 959.3270141482353 481.36980590224266 L 959.3270141482353 489.36980590224266 L 951.3270141482353 489.36980590224266 L 951.3270141482353 481.36980590224266 Z" stroke-miterlimit="10" stroke-width="0.5" stroke-dasharray="0"/><path fill="none" stroke="#505050" paint-order="fill stroke markers" d=" M 951.3270141482353 493.36980590224266 L 959.3270141482353 493.36980590224266 L 959.3270141482353 501.36980590224266 L 951.3270141482353 501.36980590224266 L 951.3270141482353 493.36980590224266 Z" stroke-miterlimit="10" stroke-width="0.5" stroke-dasharray="0"/><path fill="white" stroke="#505050" paint-order="fill stroke markers" d=" M 887.3831405639648 471.0403079986572 L 903.3831405639648 471.0403079986572 L 911.3831405639648 479.0403079986572 L 903.3831405639648 487.0403079986572 L 887.3831405639648 487.0403079986572 L 887.3831405639648 471.0403079986572" stroke-miterlimit="10" stroke-width="0.5" stroke-dasharray="0"/><path fill="none" stroke="#505050" paint-order="fill stroke markers" d=" M 887.3831405639648 475.0403079986572 L 895.3831405639648 475.0403079986572 L 895.3831405639648 483.0403079986572 L 887.3831405639648 483.0403079986572 L 887.3831405639648 475.0403079986572 Z" stroke-miterlimit="10" stroke-width="0.5" stroke-dasharray="0"/><path fill="white" stroke="#505050" paint-order="fill stroke markers" d=" M 888.2863647341728 495.0161071717739 L 904.2863647341728 495.0161071717739 L 912.2863647341728 503.0161071717739 L 904.2863647341728 511.0161071717739 L 888.2863647341728 511.0161071717739 L 888.2863647341728 495.0161071717739" stroke-miterlimit="10" stroke-width="0.5" stroke-dasharray="0"/><path fill="none" stroke="#505050" paint-order="fill stroke markers" d=" M 888.2863647341728 499.0161071717739 L 896.2863647341728 499.0161071717739 L 896.2863647341728 507.0161071717739 L 888.2863647341728 507.0161071717739 L 888.2863647341728 499.0161071717739 Z" stroke-miterlimit="10" stroke-width="0.5" stroke-dasharray="0"/><path fill="white" stroke="#505050" paint-order="fill stroke markers" d=" M 818.3021697998047 433.42920303344727 L 850.3021697998047 433.42920303344727 L 850.3021697998047 463.42920303344727 L 818.3021697998047 463.42920303344727 L 818.3021697998047 433.42920303344727 Z" stroke-miterlimit="10" stroke-width="0.5" stroke-dasharray="0"/><text fill="#505050" stroke="none" font-family="monospace" font-size="14px" font-style="normal" font-weight="normal" text-decoration="normal" x="834.3021697998047" y="451.42920303344727" text-anchor="middle" dominant-baseline="text-after-edge">-</text><path fill="none" stroke="#505050" paint-order="fill stroke markers" d=" M 818.3021697998047 451.42920303344727 L 826.3021697998047 451.42920303344727 L 826.3021697998047 459.42920303344727 L 818.3021697998047 459.42920303344727 L 818.3021697998047 451.42920303344727 Z" stroke-miterlimit="10" stroke-width="0.5" stroke-dasharray="0"/><path fill="none" stroke="#505050" paint-order="fill stroke markers" d=" M 842.3021697998047 451.42920303344727 L 850.3021697998047 451.42920303344727 L 850.3021697998047 459.42920303344727 L 842.3021697998047 459.42920303344727 L 842.3021697998047 451.42920303344727 Z" stroke-miterlimit="10" stroke-width="0.5" stroke-dasharray="0"/><path fill="white" stroke="#505050" paint-order="fill stroke markers" d=" M 279.34302043914795 348.02696228027344 L 319.34302043914795 348.02696228027344 L 319.34302043914795 398.02696228027344 L 279.34302043914795 398.02696228027344 L 279.34302043914795 348.02696228027344 Z" stroke-miterlimit="10" stroke-width="0.5" stroke-dasharray="0"/><path fill="#F0F0F0" stroke="none" paint-order="stroke fill markers" d=" M 295.34302043914795 352.02696228027344 L 319.34302043914795 352.02696228027344 L 319.34302043914795 394.02696228027344 L 295.34302043914795 394.02696228027344 L 295.34302043914795 352.02696228027344 Z"/><path fill="none" stroke="#505050" paint-order="fill stroke markers" d=" M 295.34302043914795 352.02696228027344 L 319.34302043914795 352.02696228027344 L 319.34302043914795 394.02696228027344 L 295.34302043914795 394.02696228027344 L 295.34302043914795 352.02696228027344 Z" stroke-miterlimit="10" stroke-width="0.5" stroke-dasharray="0"/><text fill="#505050" stroke="none" font-family="monospace" font-size="14px" font-style="normal" font-weight="normal" text-decoration="normal" x="307.34302043914795" y="370.02696228027344" text-anchor="middle" dominant-baseline="text-after-edge">P</text><path fill="none" stroke="#505050" paint-order="fill stroke markers" d=" M 311.34302043914795 370.02696228027344 L 319.34302043914795 370.02696228027344 L 319.34302043914795 378.02696228027344 L 311.34302043914795 378.02696228027344 L 311.34302043914795 370.02696228027344 Z" stroke-miterlimit="10" stroke-width="0.5" stroke-dasharray="0"/><path fill="none" stroke="#505050" paint-order="fill stroke markers" d=" M 311.34302043914795 382.02696228027344 L 319.34302043914795 382.02696228027344 L 319.34302043914795 390.02696228027344 L 311.34302043914795 390.02696228027344 L 311.34302043914795 382.02696228027344 Z" stroke-miterlimit="10" stroke-width="0.5" stroke-dasharray="0"/><path fill="white" stroke="#505050" paint-order="fill stroke markers" d=" M 317.8231534957886 446.8693084716797 L 341.8231534957886 446.8693084716797 L 341.8231534957886 488.8693084716797 L 317.8231534957886 488.8693084716797 L 317.8231534957886 446.8693084716797 Z" stroke-miterlimit="10" stroke-width="0.5" stroke-dasharray="0"/><text fill="#505050" stroke="none" font-family="monospace" font-size="14px" font-style="normal" font-weight="normal" text-decoration="normal" x="329.8231534957886" y="464.8693084716797" text-anchor="middle" dominant-baseline="text-after-edge">P</text><path fill="none" stroke="#505050" paint-order="fill stroke markers" d=" M 333.8231534957886 464.8693084716797 L 341.8231534957886 464.8693084716797 L 341.8231534957886 472.8693084716797 L 333.8231534957886 472.8693084716797 L 333.8231534957886 464.8693084716797 Z" stroke-miterlimit="10" stroke-width="0.5" stroke-dasharray="0"/><path fill="none" stroke="#505050" paint-order="fill stroke markers" d=" M 333.8231534957886 476.8693084716797 L 341.8231534957886 476.8693084716797 L 341.8231534957886 484.8693084716797 L 333.8231534957886 484.8693084716797 L 333.8231534957886 476.8693084716797 Z" stroke-miterlimit="10" stroke-width="0.5" stroke-dasharray="0"/><path fill="white" stroke="#505050" paint-order="fill stroke markers" d=" M 341.6690397262573 349.2556610107422 L 365.6690397262573 349.2556610107422 L 365.6690397262573 391.2556610107422 L 341.6690397262573 391.2556610107422 L 341.6690397262573 349.2556610107422 Z" stroke-miterlimit="10" stroke-width="0.5" stroke-dasharray="0"/><text fill="#505050" stroke="none" font-family="monospace" font-size="14px" font-style="normal" font-weight="normal" text-decoration="normal" x="353.6690397262573" y="367.2556610107422" text-anchor="middle" dominant-baseline="text-after-edge">P</text><path fill="none" stroke="#505050" paint-order="fill stroke markers" d=" M 357.6690397262573 367.2556610107422 L 365.6690397262573 367.2556610107422 L 365.6690397262573 375.2556610107422 L 357.6690397262573 375.2556610107422 L 357.6690397262573 367.2556610107422 Z" stroke-miterlimit="10" stroke-width="0.5" stroke-dasharray="0"/><path fill="none" stroke="#505050" paint-order="fill stroke markers" d=" M 357.6690397262573 379.2556610107422 L 365.6690397262573 379.2556610107422 L 365.6690397262573 387.2556610107422 L 357.6690397262573 387.2556610107422 L 357.6690397262573 379.2556610107422 Z" stroke-miterlimit="10" stroke-width="0.5" stroke-dasharray="0"/><path fill="white" stroke="#505050" paint-order="fill stroke markers" d=" M 364.7798185348511 413.65196228027344 L 388.7798185348511 413.65196228027344 L 388.7798185348511 455.65196228027344 L 364.7798185348511 455.65196228027344 L 364.7798185348511 413.65196228027344 Z" stroke-miterlimit="10" stroke-width="0.5" stroke-dasharray="0"/><text fill="#505050" stroke="none" font-family="monospace" font-size="14px" font-style="normal" font-weight="normal" text-decoration="normal" x="376.7798185348511" y="431.65196228027344" text-anchor="middle" dominant-baseline="text-after-edge">P</text><path fill="none" stroke="#505050" paint-order="fill stroke markers" d=" M 380.7798185348511 431.65196228027344 L 388.7798185348511 431.65196228027344 L 388.7798185348511 439.65196228027344 L 380.7798185348511 439.65196228027344 L 380.7798185348511 431.65196228027344 Z" stroke-miterlimit="10" stroke-width="0.5" stroke-dasharray="0"/><path fill="none" stroke="#505050" paint-order="fill stroke markers" d=" M 380.7798185348511 443.65196228027344 L 388.7798185348511 443.65196228027344 L 388.7798185348511 451.65196228027344 L 380.7798185348511 451.65196228027344 L 380.7798185348511 443.65196228027344 Z" stroke-miterlimit="10" stroke-width="0.5" stroke-dasharray="0"/><path fill="none" stroke="#505050" paint-order="fill stroke markers" d=" M 395.61502379179 138.08451613783836 C 419.61502379179 138.08451613783836 407.86354368925095 129.9714294373989 431.86354368925095 129.9714294373989" stroke-miterlimit="10" stroke-dasharray="0"/><path fill="none" stroke="#505050" paint-order="fill stroke markers" d=" M 396.8212921023369 199.91888961195946 C 420.8212921023369 199.91888961195946 407.6479064822197 147.46833190321922 431.6479064822197 147.46833190321922" stroke-miterlimit="10" stroke-dasharray="0"/><path fill="none" stroke="#505050" paint-order="fill stroke markers" d=" M 457.23161619901657 210.93721923232079 C 481.23161619901657 210.93721923232079 444.1427116394043 233.34872722625732 468.1427116394043 233.34872722625732" stroke-miterlimit="10" stroke-dasharray="0"/><path fill="none" stroke="#505050" paint-order="fill stroke markers" d=" M 500.1427116394043 233.34872722625732 C 524.1427116394043 233.34872722625732 487.00490111112595 208.98552855849266 511.00490111112595 208.98552855849266" stroke-miterlimit="10" stroke-dasharray="0"/><path fill="none" stroke="#505050" paint-order="fill stroke markers" d=" M 498.9175834655762 275.92329692840576 C 522.9175834655762 275.92329692840576 488.1141235232353 244.26137694716454 512.1141235232353 244.26137694716454" stroke-miterlimit="10" stroke-dasharray="0"/><path fill="none" stroke="#505050" paint-order="fill stroke markers" d=" M 456.68959349393845 245.9999938905239 C 480.68959349393845 245.9999938905239 442.9175834655762 275.92329692840576 466.9175834655762 275.92329692840576" stroke-miterlimit="10" stroke-dasharray="0"/><path fill="none" stroke="#505050" paint-order="fill stroke markers" d=" M 822.0277816653252 68.91292342543602 C 846.0277816653252 68.91292342543602 823.5371200442314 79.02542647719383 847.5371200442314 79.02542647719383" stroke-miterlimit="10" stroke-dasharray="0"/><path fill="none" stroke="#505050" paint-order="fill stroke markers" d=" M 823.7808944582939 121.44415816664696 C 847.7808944582939 121.44415816664696 823.5371200442314 91.02542647719383 847.5371200442314 91.02542647719383" stroke-miterlimit="10" stroke-dasharray="0"/><path fill="none" stroke="#505050" paint-order="fill stroke markers" d=" M 879.5371200442314 79.02542647719383 C 903.5371200442314 79.02542647719383 845.2829467654228 126.49417266249657 869.2829467654228 126.49417266249657" stroke-miterlimit="10" stroke-dasharray="0"/><path fill="none" stroke="#505050" paint-order="fill stroke markers" d=" M 754.9615356326103 68.72301635146141 C 778.9615356326103 68.72301635146141 766.0277816653252 68.91292342543602 790.0277816653252 68.91292342543602" stroke-miterlimit="10" stroke-dasharray="0"/><path fill="none" stroke="#505050" paint-order="fill stroke markers" d=" M 754.9615356326103 122.05424651503563 C 778.9615356326103 122.05424651503563 766.0277816653252 80.91292342543602 790.0277816653252 80.91292342543602" stroke-miterlimit="10" stroke-dasharray="0"/><path fill="none" stroke="#505050" paint-order="fill stroke markers" d=" M 754.9615356326103 80.72301635146141 C 778.9615356326103 80.72301635146141 767.7808944582939 121.44415816664696 791.7808944582939 121.44415816664696" stroke-miterlimit="10" stroke-dasharray="0"/><path fill="none" stroke="#505050" paint-order="fill stroke markers" d=" M 754.9615356326103 134.05424651503563 C 778.9615356326103 134.05424651503563 767.7808944582939 133.44415816664696 791.7808944582939 133.44415816664696" stroke-miterlimit="10" stroke-dasharray="0"/><path fill="none" stroke="#505050" paint-order="fill stroke markers" d=" M 816.5399886965752 230.46905288100243 C 840.5399886965752 230.46905288100243 805.2118026614189 241.7221504151821 829.2118026614189 241.7221504151821" stroke-miterlimit="10" stroke-dasharray="0"/><path fill="none" stroke="#505050" paint-order="fill stroke markers" d=" M 816.7712509036064 280.79090651869774 C 840.7712509036064 280.79090651869774 805.2118026614189 253.7221504151821 829.2118026614189 253.7221504151821" stroke-miterlimit="10" stroke-dasharray="0"/><path fill="none" stroke="#505050" paint-order="fill stroke markers" d=" M 861.2118026614189 241.7221504151821 C 885.2118026614189 241.7221504151821 832.2476150393486 294.6703224182129 856.2476150393486 294.6703224182129" stroke-miterlimit="10" stroke-dasharray="0"/><path fill="none" stroke="#505050" paint-order="fill stroke markers" d=" M 754.4920532107353 251.82685241103172 C 778.4920532107353 251.82685241103172 760.5399886965752 230.46905288100243 784.5399886965752 230.46905288100243" stroke-miterlimit="10" stroke-dasharray="0"/><path fill="none" stroke="#505050" paint-order="fill stroke markers" d=" M 754.4920532107353 263.8268524110317 C 778.4920532107353 263.8268524110317 760.7712509036064 280.79090651869774 784.7712509036064 280.79090651869774" stroke-miterlimit="10" stroke-dasharray="0"/><path fill="none" stroke="#505050" paint-order="fill stroke markers" d=" M 754.4920532107353 251.82685241103172 C 778.4920532107353 251.82685241103172 760.5399886965752 242.46905288100243 784.5399886965752 242.46905288100243" stroke-miterlimit="10" stroke-dasharray="0"/><path fill="none" stroke="#505050" paint-order="fill stroke markers" d=" M 754.4920532107353 263.8268524110317 C 778.4920532107353 263.8268524110317 760.7712509036064 292.79090651869774 784.7712509036064 292.79090651869774" stroke-miterlimit="10" stroke-dasharray="0"/><path fill="none" stroke="#505050" paint-order="fill stroke markers" d=" M 940.2476150393486 294.6703224182129 C 964.2476150393486 294.6703224182129 926.7267944216728 310.9019866883755 950.7267944216728 310.9019866883755" stroke-miterlimit="10" stroke-dasharray="0"/><path fill="none" stroke="#505050" paint-order="fill stroke markers" d=" M 454.8065063357353 467.88710936903954 C 478.8065063357353 467.88710936903954 506.70906829833984 494.3288516998291 530.7090682983398 494.3288516998291" stroke-miterlimit="10" stroke-dasharray="0"/><path fill="none" stroke="#505050" paint-order="fill stroke markers" d=" M 454.8065063357353 479.88710936903954 C 478.8065063357353 479.88710936903954 451.7402801513672 423.87756729125977 475.7402801513672 423.87756729125977" stroke-miterlimit="10" stroke-dasharray="0"/><path fill="none" stroke="#505050" paint-order="fill stroke markers" d=" M 507.7402801513672 423.87756729125977 C 531.7402801513672 423.87756729125977 507.14042967557907 471.4069305360317 531.1404296755791 471.4069305360317" stroke-miterlimit="10" stroke-dasharray="0"/><path fill="none" stroke="#505050" paint-order="fill stroke markers" d=" M 781.9401122927666 469.24199828505516 C 805.9401122927666 469.24199828505516 794.3021697998047 455.42920303344727 818.3021697998047 455.42920303344727" stroke-miterlimit="10" stroke-dasharray="0"/><path fill="none" stroke="#505050" paint-order="fill stroke markers" d=" M 781.9401122927666 481.24199828505516 C 805.9401122927666 481.24199828505516 796.8115386962891 503.2229652404785 820.8115386962891 503.2229652404785" stroke-miterlimit="10" stroke-dasharray="0"/><path fill="none" stroke="#505050" paint-order="fill stroke markers" d=" M 852.8115386962891 503.2229652404785 C 876.8115386962891 503.2229652404785 864.2863647341728 503.0161071717739 888.2863647341728 503.0161071717739" stroke-miterlimit="10" stroke-dasharray="0"/><path fill="none" stroke="#505050" paint-order="fill stroke markers" d=" M 850.3021697998047 455.42920303344727 C 874.3021697998047 455.42920303344727 863.3831405639648 479.0403079986572 887.3831405639648 479.0403079986572" stroke-miterlimit="10" stroke-dasharray="0"/><path fill="none" stroke="none"/><path fill="none" stroke="#FCF0AD" paint-order="fill stroke markers" d=" M 319.34302043914795 373.02696228027344 C 343.34302043914795 373.02696228027344 317.6690397262573 370.2556610107422 341.6690397262573 370.2556610107422" stroke-miterlimit="10" stroke-width="3" stroke-dasharray="0"/></g></g></svg>