<svg version="1.1" xmlns="http://www.w3.org/2000/svg" xmlns:xlink="http://www.w3.org/1999/xlink" width="435.59375" height="412.234375"><defs/><g transform="translate(-552.99609375,-14.90234375)"><g><path fill="white" stroke="#505050" paint-order="fill stroke markers" d=" M 560.99609375 161.2578125 L 560.99609375 411.13671875 Q 560.99609375 419.13671875 568.99609375 419.13671875 L 972.58984375 419.13671875 Q 980.58984375 419.13671875 980.58984375 411.13671875 L 980.58984375 161.2578125 Q 980.58984375 153.2578125 972.58984375 153.2578125 L 568.99609375 153.2578125 Q 560.99609375 153.2578125 560.99609375 161.2578125" stroke-miterlimit="10" stroke-width="0.5" stroke-dasharray=""/><path fill="#F0F0F0" stroke="#505050" paint-order="fill stroke markers" d=" M 898.58984375 161.2578125 L 980.58984375 161.2578125 L 980.58984375 323.2578125 L 898.58984375 323.2578125 L 898.58984375 161.2578125 Z" stroke-miterlimit="10" stroke-width="0.5" stroke-dasharray=""/><path fill="none" stroke="none"/><text fill="#505050" stroke="none" font-family="monospace" font-size="14px" font-style="normal" font-weight="normal" text-decoration="normal" x="939.58984375" y="179.2578125" text-anchor="middle" dominant-baseline="text-after-edge">Rect2</text><path fill="none" stroke="#505050" paint-order="fill stroke markers" d=" M 898.58984375 179.2578125 L 914.58984375 179.2578125 L 914.58984375 207.2578125 L 898.58984375 207.2578125 L 898.58984375 179.2578125 Z" stroke-miterlimit="10" stroke-width="0.5" stroke-dasharray=""/><path fill="none" stroke="none"/><path fill="none" stroke="#505050" paint-order="fill stroke markers" d=" M 906.58984375 183.2578125 L 914.58984375 183.2578125 L 914.58984375 191.2578125 L 906.58984375 191.2578125 L 906.58984375 183.2578125 Z" stroke-miterlimit="10" stroke-width="0.5" stroke-dasharray=""/><path fill="none" stroke="#505050" paint-order="fill stroke markers" d=" M 906.58984375 195.2578125 L 914.58984375 195.2578125 L 914.58984375 203.2578125 L 906.58984375 203.2578125 L 906.58984375 195.2578125 Z" stroke-miterlimit="10" stroke-width="0.5" stroke-dasharray=""/><path fill="none" stroke="#505050" paint-order="fill stroke markers" d=" M 898.58984375 211.2578125 L 914.58984375 211.2578125 L 914.58984375 239.2578125 L 898.58984375 239.2578125 L 898.58984375 211.2578125 Z" stroke-miterlimit="10" stroke-width="0.5" stroke-dasharray=""/><path fill="none" stroke="none"/><path fill="none" stroke="#505050" paint-order="fill stroke markers" d=" M 906.58984375 215.2578125 L 914.58984375 215.2578125 L 914.58984375 223.2578125 L 906.58984375 223.2578125 L 906.58984375 215.2578125 Z" stroke-miterlimit="10" stroke-width="0.5" stroke-dasharray=""/><path fill="none" stroke="#505050" paint-order="fill stroke markers" d=" M 906.58984375 227.2578125 L 914.58984375 227.2578125 L 914.58984375 235.2578125 L 906.58984375 235.2578125 L 906.58984375 227.2578125 Z" stroke-miterlimit="10" stroke-width="0.5" stroke-dasharray=""/><path fill="none" stroke="#505050" paint-order="fill stroke markers" d=" M 964.58984375 179.2578125 L 980.58984375 179.2578125 L 980.58984375 207.2578125 L 964.58984375 207.2578125 L 964.58984375 179.2578125 Z" stroke-miterlimit="10" stroke-width="0.5" stroke-dasharray=""/><path fill="none" stroke="none"/><path fill="none" stroke="#505050" paint-order="fill stroke markers" d=" M 972.58984375 183.2578125 L 980.58984375 183.2578125 L 980.58984375 191.2578125 L 972.58984375 191.2578125 L 972.58984375 183.2578125 Z" stroke-miterlimit="10" stroke-width="0.5" stroke-dasharray=""/><path fill="none" stroke="#505050" paint-order="fill stroke markers" d=" M 972.58984375 195.2578125 L 980.58984375 195.2578125 L 980.58984375 203.2578125 L 972.58984375 203.2578125 L 972.58984375 195.2578125 Z" stroke-miterlimit="10" stroke-width="0.5" stroke-dasharray=""/><text fill="#505050" stroke="none" font-family="monospace" font-size="14px" font-style="normal" font-weight="normal" text-decoration="normal" x="956.58984375" y="202.2578125" text-anchor="end" dominant-baseline="text-after-edge">pos</text><path fill="none" stroke="#505050" paint-order="fill stroke markers" d=" M 940.58984375 211.2578125 L 980.58984375 211.2578125 L 980.58984375 247.2578125 L 940.58984375 247.2578125 L 940.58984375 211.2578125 Z" stroke-miterlimit="10" stroke-width="0.5" stroke-dasharray=""/><path fill="none" stroke="none"/><path fill="none" stroke="#505050" paint-order="fill stroke markers" d=" M 940.58984375 215.2578125 L 956.58984375 215.2578125 L 956.58984375 243.2578125 L 940.58984375 243.2578125 L 940.58984375 215.2578125 Z" stroke-miterlimit="10" stroke-width="0.5" stroke-dasharray=""/><path fill="none" stroke="none"/><path fill="none" stroke="#505050" paint-order="fill stroke markers" d=" M 948.58984375 219.2578125 L 956.58984375 219.2578125 L 956.58984375 227.2578125 L 948.58984375 227.2578125 L 948.58984375 219.2578125 Z" stroke-miterlimit="10" stroke-width="0.5" stroke-dasharray=""/><path fill="none" stroke="#505050" paint-order="fill stroke markers" d=" M 948.58984375 231.2578125 L 956.58984375 231.2578125 L 956.58984375 239.2578125 L 948.58984375 239.2578125 L 948.58984375 231.2578125 Z" stroke-miterlimit="10" stroke-width="0.5" stroke-dasharray=""/><path fill="none" stroke="#505050" paint-order="fill stroke markers" d=" M 964.58984375 215.2578125 L 980.58984375 215.2578125 L 980.58984375 243.2578125 L 964.58984375 243.2578125 L 964.58984375 215.2578125 Z" stroke-miterlimit="10" stroke-width="0.5" stroke-dasharray=""/><path fill="none" stroke="none"/><path fill="none" stroke="#505050" paint-order="fill stroke markers" d=" M 972.58984375 219.2578125 L 980.58984375 219.2578125 L 980.58984375 227.2578125 L 972.58984375 227.2578125 L 972.58984375 219.2578125 Z" stroke-miterlimit="10" stroke-width="0.5" stroke-dasharray=""/><path fill="none" stroke="#505050" paint-order="fill stroke markers" d=" M 972.58984375 231.2578125 L 980.58984375 231.2578125 L 980.58984375 239.2578125 L 972.58984375 239.2578125 L 972.58984375 231.2578125 Z" stroke-miterlimit="10" stroke-width="0.5" stroke-dasharray=""/><path fill="none" stroke="#505050" paint-order="fill stroke markers" d=" M 964.58984375 251.2578125 L 980.58984375 251.2578125 L 980.58984375 279.2578125 L 964.58984375 279.2578125 L 964.58984375 251.2578125 Z" stroke-miterlimit="10" stroke-width="0.5" stroke-dasharray=""/><path fill="none" stroke="none"/><path fill="none" stroke="#505050" paint-order="fill stroke markers" d=" M 972.58984375 255.2578125 L 980.58984375 255.2578125 L 980.58984375 263.2578125 L 972.58984375 263.2578125 L 972.58984375 255.2578125 Z" stroke-miterlimit="10" stroke-width="0.5" stroke-dasharray=""/><path fill="none" stroke="#505050" paint-order="fill stroke markers" d=" M 972.58984375 267.2578125 L 980.58984375 267.2578125 L 980.58984375 275.2578125 L 972.58984375 275.2578125 L 972.58984375 267.2578125 Z" stroke-miterlimit="10" stroke-width="0.5" stroke-dasharray=""/><text fill="#505050" stroke="none" font-family="monospace" font-size="14px" font-style="normal" font-weight="normal" text-decoration="normal" x="956.58984375" y="274.2578125" text-anchor="end" dominant-baseline="text-after-edge">size</text><path fill="none" stroke="#505050" paint-order="fill stroke markers" d=" M 940.58984375 283.2578125 L 980.58984375 283.2578125 L 980.58984375 319.2578125 L 940.58984375 319.2578125 L 940.58984375 283.2578125 Z" stroke-miterlimit="10" stroke-width="0.5" stroke-dasharray=""/><path fill="none" stroke="none"/><path fill="none" stroke="#505050" paint-order="fill stroke markers" d=" M 940.58984375 287.2578125 L 956.58984375 287.2578125 L 956.58984375 315.2578125 L 940.58984375 315.2578125 L 940.58984375 287.2578125 Z" stroke-miterlimit="10" stroke-width="0.5" stroke-dasharray=""/><path fill="none" stroke="none"/><path fill="none" stroke="#505050" paint-order="fill stroke markers" d=" M 948.58984375 291.2578125 L 956.58984375 291.2578125 L 956.58984375 299.2578125 L 948.58984375 299.2578125 L 948.58984375 291.2578125 Z" stroke-miterlimit="10" stroke-width="0.5" stroke-dasharray=""/><path fill="none" stroke="#505050" paint-order="fill stroke markers" d=" M 948.58984375 303.2578125 L 956.58984375 303.2578125 L 956.58984375 311.2578125 L 948.58984375 311.2578125 L 948.58984375 303.2578125 Z" stroke-miterlimit="10" stroke-width="0.5" stroke-dasharray=""/><path fill="none" stroke="#505050" paint-order="fill stroke markers" d=" M 964.58984375 287.2578125 L 980.58984375 287.2578125 L 980.58984375 315.2578125 L 964.58984375 315.2578125 L 964.58984375 287.2578125 Z" stroke-miterlimit="10" stroke-width="0.5" stroke-dasharray=""/><path fill="none" stroke="none"/><path fill="none" stroke="#505050" paint-order="fill stroke markers" d=" M 972.58984375 291.2578125 L 980.58984375 291.2578125 L 980.58984375 299.2578125 L 972.58984375 299.2578125 L 972.58984375 291.2578125 Z" stroke-miterlimit="10" stroke-width="0.5" stroke-dasharray=""/><path fill="none" stroke="#505050" paint-order="fill stroke markers" d=" M 972.58984375 303.2578125 L 980.58984375 303.2578125 L 980.58984375 311.2578125 L 972.58984375 311.2578125 L 972.58984375 303.2578125 Z" stroke-miterlimit="10" stroke-width="0.5" stroke-dasharray=""/><path fill="white" stroke="#505050" paint-order="fill stroke markers" d=" M 568.5740596652031 164.7657585144043 L 676.5740596652031 164.7657585144043 L 676.5740596652031 182.7657585144043 L 568.5740596652031 182.7657585144043 L 568.5740596652031 164.7657585144043 Z" stroke-miterlimit="10" stroke-width="0.5" stroke-dasharray=""/><path fill="#F0F0F0" stroke="none" paint-order="stroke fill markers" d=""/><path fill="none" stroke="none"/><path fill="none" stroke="#505050" paint-order="fill stroke markers" d=" M 668.5740596652031 168.7657585144043 L 676.5740596652031 168.7657585144043 L 676.5740596652031 176.7657585144043 L 668.5740596652031 176.7657585144043 L 668.5740596652031 168.7657585144043 Z" stroke-miterlimit="10" stroke-width="0.5" stroke-dasharray=""/><text fill="#505050" stroke="none" font-family="monospace" font-size="14px" font-style="normal" font-weight="normal" text-decoration="normal" x="660.5740596652031" y="182.7657585144043" text-anchor="end" dominant-baseline="text-after-edge">'position'</text><path fill="white" stroke="#505050" paint-order="fill stroke markers" d=" M 568.4412471652031 299.0313835144043 L 643.4412471652031 299.0313835144043 L 643.4412471652031 317.0313835144043 L 568.4412471652031 317.0313835144043 L 568.4412471652031 299.0313835144043 Z" stroke-miterlimit="10" stroke-width="0.5" stroke-dasharray=""/><path fill="#F0F0F0" stroke="none" paint-order="stroke fill markers" d=""/><path fill="none" stroke="none"/><path fill="none" stroke="#505050" paint-order="fill stroke markers" d=" M 635.4412471652031 303.0313835144043 L 643.4412471652031 303.0313835144043 L 643.4412471652031 311.0313835144043 L 635.4412471652031 311.0313835144043 L 635.4412471652031 303.0313835144043 Z" stroke-miterlimit="10" stroke-width="0.5" stroke-dasharray=""/><text fill="#505050" stroke="none" font-family="monospace" font-size="14px" font-style="normal" font-weight="normal" text-decoration="normal" x="627.4412471652031" y="317.0313835144043" text-anchor="end" dominant-baseline="text-after-edge">'size'</text><path fill="white" stroke="#505050" paint-order="fill stroke markers" d=" M 702.85546875 165.5859375 L 744.85546875 165.5859375 L 744.85546875 215.5859375 L 702.85546875 215.5859375 L 702.85546875 165.5859375 Z" stroke-miterlimit="10" stroke-width="0.5" stroke-dasharray=""/><path fill="#F0F0F0" stroke="none" paint-order="stroke fill markers" d=" M 720.85546875 195.5859375 L 744.85546875 195.5859375 L 744.85546875 211.5859375 L 720.85546875 211.5859375 L 720.85546875 195.5859375 Z"/><path fill="none" stroke="none"/><text fill="#505050" stroke="none" font-family="monospace" font-size="14px" font-style="normal" font-weight="normal" text-decoration="normal" x="723.85546875" y="183.5859375" text-anchor="middle" dominant-baseline="text-after-edge">this</text><path fill="none" stroke="#505050" paint-order="fill stroke markers" d=" M 702.85546875 183.5859375 L 710.85546875 183.5859375 L 710.85546875 191.5859375 L 702.85546875 191.5859375 L 702.85546875 183.5859375 Z" stroke-miterlimit="10" stroke-width="0.5" stroke-dasharray=""/><path fill="none" stroke="#505050" paint-order="fill stroke markers" d=" M 702.85546875 195.5859375 L 710.85546875 195.5859375 L 710.85546875 203.5859375 L 702.85546875 203.5859375 L 702.85546875 195.5859375 Z" stroke-miterlimit="10" stroke-width="0.5" stroke-dasharray=""/><path fill="none" stroke="#505050" paint-order="fill stroke markers" d=" M 736.85546875 183.5859375 L 744.85546875 183.5859375 L 744.85546875 191.5859375 L 736.85546875 191.5859375 L 736.85546875 183.5859375 Z" stroke-miterlimit="10" stroke-width="0.5" stroke-dasharray=""/><path fill="none" stroke="#505050" paint-order="fill stroke markers" d=" M 720.85546875 195.5859375 L 744.85546875 195.5859375 L 744.85546875 211.5859375 L 720.85546875 211.5859375 L 720.85546875 195.5859375 Z" stroke-miterlimit="10" stroke-width="0.5" stroke-dasharray=""/><path fill="none" stroke="none"/><path fill="none" stroke="#505050" paint-order="fill stroke markers" d=" M 720.85546875 199.5859375 L 728.85546875 199.5859375 L 728.85546875 207.5859375 L 720.85546875 207.5859375 L 720.85546875 199.5859375 Z" stroke-miterlimit="10" stroke-width="0.5" stroke-dasharray=""/><path fill="none" stroke="#505050" paint-order="fill stroke markers" d=" M 736.85546875 199.5859375 L 744.85546875 199.5859375 L 744.85546875 207.5859375 L 736.85546875 207.5859375 L 736.85546875 199.5859375 Z" stroke-miterlimit="10" stroke-width="0.5" stroke-dasharray=""/><path fill="white" stroke="#505050" paint-order="fill stroke markers" d=" M 698.81640625 301.2890625 L 740.81640625 301.2890625 L 740.81640625 351.2890625 L 698.81640625 351.2890625 L 698.81640625 301.2890625 Z" stroke-miterlimit="10" stroke-width="0.5" stroke-dasharray=""/><path fill="#F0F0F0" stroke="none" paint-order="stroke fill markers" d=" M 716.81640625 331.2890625 L 740.81640625 331.2890625 L 740.81640625 347.2890625 L 716.81640625 347.2890625 L 716.81640625 331.2890625 Z"/><path fill="none" stroke="none"/><text fill="#505050" stroke="none" font-family="monospace" font-size="14px" font-style="normal" font-weight="normal" text-decoration="normal" x="719.81640625" y="319.2890625" text-anchor="middle" dominant-baseline="text-after-edge">this</text><path fill="none" stroke="#505050" paint-order="fill stroke markers" d=" M 698.81640625 319.2890625 L 706.81640625 319.2890625 L 706.81640625 327.2890625 L 698.81640625 327.2890625 L 698.81640625 319.2890625 Z" stroke-miterlimit="10" stroke-width="0.5" stroke-dasharray=""/><path fill="none" stroke="#505050" paint-order="fill stroke markers" d=" M 698.81640625 331.2890625 L 706.81640625 331.2890625 L 706.81640625 339.2890625 L 698.81640625 339.2890625 L 698.81640625 331.2890625 Z" stroke-miterlimit="10" stroke-width="0.5" stroke-dasharray=""/><path fill="none" stroke="#505050" paint-order="fill stroke markers" d=" M 732.81640625 319.2890625 L 740.81640625 319.2890625 L 740.81640625 327.2890625 L 732.81640625 327.2890625 L 732.81640625 319.2890625 Z" stroke-miterlimit="10" stroke-width="0.5" stroke-dasharray=""/><path fill="none" stroke="#505050" paint-order="fill stroke markers" d=" M 716.81640625 331.2890625 L 740.81640625 331.2890625 L 740.81640625 347.2890625 L 716.81640625 347.2890625 L 716.81640625 331.2890625 Z" stroke-miterlimit="10" stroke-width="0.5" stroke-dasharray=""/><path fill="none" stroke="none"/><path fill="none" stroke="#505050" paint-order="fill stroke markers" d=" M 716.81640625 335.2890625 L 724.81640625 335.2890625 L 724.81640625 343.2890625 L 716.81640625 343.2890625 L 716.81640625 335.2890625 Z" stroke-miterlimit="10" stroke-width="0.5" stroke-dasharray=""/><path fill="none" stroke="#505050" paint-order="fill stroke markers" d=" M 732.81640625 335.2890625 L 740.81640625 335.2890625 L 740.81640625 343.2890625 L 732.81640625 343.2890625 L 732.81640625 335.2890625 Z" stroke-miterlimit="10" stroke-width="0.5" stroke-dasharray=""/><path fill="white" stroke="#505050" paint-order="fill stroke markers" d=" M 837.42578125 201.22265625 L 878.42578125 201.22265625 L 886.42578125 210.22265625 L 878.42578125 219.22265625 L 837.42578125 219.22265625 L 837.42578125 201.22265625" stroke-miterlimit="10" stroke-width="0.5" stroke-dasharray=""/><path fill="none" stroke="none"/><path fill="none" stroke="#505050" paint-order="fill stroke markers" d=" M 837.42578125 205.22265625 L 845.42578125 205.22265625 L 845.42578125 213.22265625 L 837.42578125 213.22265625 L 837.42578125 205.22265625 Z" stroke-miterlimit="10" stroke-width="0.5" stroke-dasharray=""/><text fill="#505050" stroke="none" font-family="monospace" font-size="14px" font-style="normal" font-weight="normal" text-decoration="normal" x="853.42578125" y="219.22265625" text-anchor="start" dominant-baseline="text-after-edge">pos</text><path fill="white" stroke="#505050" paint-order="fill stroke markers" d=" M 836.12890625 337.13671875 L 886.12890625 337.13671875 L 894.12890625 346.13671875 L 886.12890625 355.13671875 L 836.12890625 355.13671875 L 836.12890625 337.13671875" stroke-miterlimit="10" stroke-width="0.5" stroke-dasharray=""/><path fill="none" stroke="none"/><path fill="none" stroke="#505050" paint-order="fill stroke markers" d=" M 836.12890625 341.13671875 L 844.12890625 341.13671875 L 844.12890625 349.13671875 L 836.12890625 349.13671875 L 836.12890625 341.13671875 Z" stroke-miterlimit="10" stroke-width="0.5" stroke-dasharray=""/><text fill="#505050" stroke="none" font-family="monospace" font-size="14px" font-style="normal" font-weight="normal" text-decoration="normal" x="852.12890625" y="355.13671875" text-anchor="start" dominant-baseline="text-after-edge">size</text><path fill="white" stroke="#505050" paint-order="fill stroke markers" d=" M 846.22265625 236.89453125 L 854.22265625 236.89453125 L 862.22265625 244.89453125 L 854.22265625 252.89453125 L 846.22265625 252.89453125 L 846.22265625 236.89453125" stroke-miterlimit="10" stroke-width="0.5" stroke-dasharray=""/><path fill="none" stroke="none"/><path fill="none" stroke="#505050" paint-order="fill stroke markers" d=" M 846.22265625 240.89453125 L 854.22265625 240.89453125 L 854.22265625 248.89453125 L 846.22265625 248.89453125 L 846.22265625 240.89453125 Z" stroke-miterlimit="10" stroke-width="0.5" stroke-dasharray=""/><path fill="white" stroke="#505050" paint-order="fill stroke markers" d=" M 849.9609375 373.9453125 L 857.9609375 373.9453125 L 865.9609375 381.9453125 L 857.9609375 389.9453125 L 849.9609375 389.9453125 L 849.9609375 373.9453125" stroke-miterlimit="10" stroke-width="0.5" stroke-dasharray=""/><path fill="none" stroke="none"/><path fill="none" stroke="#505050" paint-order="fill stroke markers" d=" M 849.9609375 377.9453125 L 857.9609375 377.9453125 L 857.9609375 385.9453125 L 849.9609375 385.9453125 L 849.9609375 377.9453125 Z" stroke-miterlimit="10" stroke-width="0.5" stroke-dasharray=""/><path fill="white" stroke="#505050" paint-order="fill stroke markers" d=" M 574.70703125 218.57421875 L 590.70703125 218.57421875 L 590.70703125 234.57421875 L 574.70703125 234.57421875 L 582.70703125 226.57421875 L 574.70703125 218.57421875" stroke-miterlimit="10" stroke-width="0.5" stroke-dasharray=""/><path fill="none" stroke="none"/><path fill="none" stroke="#505050" paint-order="fill stroke markers" d=" M 582.70703125 222.57421875 L 590.70703125 222.57421875 L 590.70703125 230.57421875 L 582.70703125 230.57421875 L 582.70703125 222.57421875 Z" stroke-miterlimit="10" stroke-width="0.5" stroke-dasharray=""/><path fill="white" stroke="#505050" paint-order="fill stroke markers" d=" M 574.37109375 357.671875 L 590.37109375 357.671875 L 590.37109375 373.671875 L 574.37109375 373.671875 L 582.37109375 365.671875 L 574.37109375 357.671875" stroke-miterlimit="10" stroke-width="0.5" stroke-dasharray=""/><path fill="none" stroke="none"/><path fill="none" stroke="#505050" paint-order="fill stroke markers" d=" M 582.37109375 361.671875 L 590.37109375 361.671875 L 590.37109375 369.671875 L 582.37109375 369.671875 L 582.37109375 361.671875 Z" stroke-miterlimit="10" stroke-width="0.5" stroke-dasharray=""/><path fill="none" stroke="none"/><path fill="white" stroke="#505050" paint-order="fill stroke markers" d=" M 602.34375 194.2421875 L 657.34375 194.2421875 L 661.34375 198.2421875 L 661.34375 244.2421875 L 602.34375 244.2421875 L 602.34375 194.2421875" stroke-miterlimit="10" stroke-width="0.5" stroke-dasharray=""/><path fill="#F0F0F0" stroke="none" paint-order="stroke fill markers" d=""/><path fill="none" stroke="none"/><text fill="#505050" stroke="none" font-family="monospace" font-size="14px" font-style="normal" font-weight="normal" text-decoration="normal" x="631.84375" y="212.2421875" text-anchor="middle" dominant-baseline="text-after-edge">new V2</text><path fill="none" stroke="#505050" paint-order="fill stroke markers" d=" M 602.34375 212.2421875 L 618.34375 212.2421875 L 618.34375 240.2421875 L 602.34375 240.2421875 L 602.34375 212.2421875 Z" stroke-miterlimit="10" stroke-width="0.5" stroke-dasharray=""/><path fill="none" stroke="none"/><path fill="none" stroke="#505050" paint-order="fill stroke markers" d=" M 610.34375 216.2421875 L 618.34375 216.2421875 L 618.34375 224.2421875 L 610.34375 224.2421875 L 610.34375 216.2421875 Z" stroke-miterlimit="10" stroke-width="0.5" stroke-dasharray=""/><path fill="none" stroke="#505050" paint-order="fill stroke markers" d=" M 610.34375 228.2421875 L 618.34375 228.2421875 L 618.34375 236.2421875 L 610.34375 236.2421875 L 610.34375 228.2421875 Z" stroke-miterlimit="10" stroke-width="0.5" stroke-dasharray=""/><path fill="none" stroke="#505050" paint-order="fill stroke markers" d=" M 653.34375 212.2421875 L 661.34375 212.2421875 L 661.34375 220.2421875 L 653.34375 220.2421875 L 653.34375 212.2421875 Z" stroke-miterlimit="10" stroke-width="0.5" stroke-dasharray=""/><path fill="none" stroke="none"/><path fill="white" stroke="#505050" paint-order="fill stroke markers" d=" M 603.3359375 333.37109375 L 658.3359375 333.37109375 L 662.3359375 337.37109375 L 662.3359375 383.37109375 L 603.3359375 383.37109375 L 603.3359375 333.37109375" stroke-miterlimit="10" stroke-width="0.5" stroke-dasharray=""/><path fill="#F0F0F0" stroke="none" paint-order="stroke fill markers" d=""/><path fill="none" stroke="none"/><text fill="#505050" stroke="none" font-family="monospace" font-size="14px" font-style="normal" font-weight="normal" text-decoration="normal" x="632.8359375" y="351.37109375" text-anchor="middle" dominant-baseline="text-after-edge">new V2</text><path fill="none" stroke="#505050" paint-order="fill stroke markers" d=" M 603.3359375 351.37109375 L 619.3359375 351.37109375 L 619.3359375 379.37109375 L 603.3359375 379.37109375 L 603.3359375 351.37109375 Z" stroke-miterlimit="10" stroke-width="0.5" stroke-dasharray=""/><path fill="none" stroke="none"/><path fill="none" stroke="#505050" paint-order="fill stroke markers" d=" M 611.3359375 355.37109375 L 619.3359375 355.37109375 L 619.3359375 363.37109375 L 611.3359375 363.37109375 L 611.3359375 355.37109375 Z" stroke-miterlimit="10" stroke-width="0.5" stroke-dasharray=""/><path fill="none" stroke="#505050" paint-order="fill stroke markers" d=" M 611.3359375 367.37109375 L 619.3359375 367.37109375 L 619.3359375 375.37109375 L 611.3359375 375.37109375 L 611.3359375 367.37109375 Z" stroke-miterlimit="10" stroke-width="0.5" stroke-dasharray=""/><path fill="none" stroke="#505050" paint-order="fill stroke markers" d=" M 654.3359375 351.37109375 L 662.3359375 351.37109375 L 662.3359375 359.37109375 L 654.3359375 359.37109375 L 654.3359375 351.37109375 Z" stroke-miterlimit="10" stroke-width="0.5" stroke-dasharray=""/><path fill="white" stroke="#505050" paint-order="fill stroke markers" d=" M 765.42578125 165.22265625 L 821.42578125 165.22265625 L 821.42578125 267.22265625 L 765.42578125 267.22265625 L 765.42578125 165.22265625 Z" stroke-miterlimit="10" stroke-width="0.5" stroke-dasharray=""/><path fill="#F0F0F0" stroke="none" paint-order="stroke fill markers" d=" M 805.42578125 195.22265625 L 821.42578125 195.22265625 L 821.42578125 223.22265625 L 805.42578125 223.22265625 L 805.42578125 195.22265625 Z M 781.42578125 227.22265625 L 821.42578125 227.22265625 L 821.42578125 263.22265625 L 781.42578125 263.22265625 L 781.42578125 227.22265625 Z"/><path fill="none" stroke="none"/><text fill="#505050" stroke="none" font-family="monospace" font-size="14px" font-style="normal" font-weight="normal" text-decoration="normal" x="793.42578125" y="183.22265625" text-anchor="middle" dominant-baseline="text-after-edge">to V2</text><path fill="none" stroke="#505050" paint-order="fill stroke markers" d=" M 765.42578125 183.22265625 L 773.42578125 183.22265625 L 773.42578125 191.22265625 L 765.42578125 191.22265625 L 765.42578125 183.22265625 Z" stroke-miterlimit="10" stroke-width="0.5" stroke-dasharray=""/><path fill="none" stroke="#505050" paint-order="fill stroke markers" d=" M 813.42578125 183.22265625 L 821.42578125 183.22265625 L 821.42578125 191.22265625 L 813.42578125 191.22265625 L 813.42578125 183.22265625 Z" stroke-miterlimit="10" stroke-width="0.5" stroke-dasharray=""/><path fill="none" stroke="#505050" paint-order="fill stroke markers" d=" M 805.42578125 195.22265625 L 821.42578125 195.22265625 L 821.42578125 223.22265625 L 805.42578125 223.22265625 L 805.42578125 195.22265625 Z" stroke-miterlimit="10" stroke-width="0.5" stroke-dasharray=""/><path fill="none" stroke="none"/><path fill="none" stroke="#505050" paint-order="fill stroke markers" d=" M 813.42578125 199.22265625 L 821.42578125 199.22265625 L 821.42578125 207.22265625 L 813.42578125 207.22265625 L 813.42578125 199.22265625 Z" stroke-miterlimit="10" stroke-width="0.5" stroke-dasharray=""/><path fill="none" stroke="#505050" paint-order="fill stroke markers" d=" M 813.42578125 211.22265625 L 821.42578125 211.22265625 L 821.42578125 219.22265625 L 813.42578125 219.22265625 L 813.42578125 211.22265625 Z" stroke-miterlimit="10" stroke-width="0.5" stroke-dasharray=""/><path fill="none" stroke="#505050" paint-order="fill stroke markers" d=" M 781.42578125 227.22265625 L 821.42578125 227.22265625 L 821.42578125 263.22265625 L 781.42578125 263.22265625 L 781.42578125 227.22265625 Z" stroke-miterlimit="10" stroke-width="0.5" stroke-dasharray=""/><path fill="none" stroke="none"/><path fill="none" stroke="#505050" paint-order="fill stroke markers" d=" M 781.42578125 231.22265625 L 797.42578125 231.22265625 L 797.42578125 259.22265625 L 781.42578125 259.22265625 L 781.42578125 231.22265625 Z" stroke-miterlimit="10" stroke-width="0.5" stroke-dasharray=""/><path fill="none" stroke="none"/><path fill="none" stroke="#505050" paint-order="fill stroke markers" d=" M 789.42578125 235.22265625 L 797.42578125 235.22265625 L 797.42578125 243.22265625 L 789.42578125 243.22265625 L 789.42578125 235.22265625 Z" stroke-miterlimit="10" stroke-width="0.5" stroke-dasharray=""/><path fill="none" stroke="#505050" paint-order="fill stroke markers" d=" M 789.42578125 247.22265625 L 797.42578125 247.22265625 L 797.42578125 255.22265625 L 789.42578125 255.22265625 L 789.42578125 247.22265625 Z" stroke-miterlimit="10" stroke-width="0.5" stroke-dasharray=""/><path fill="none" stroke="#505050" paint-order="fill stroke markers" d=" M 805.42578125 231.22265625 L 821.42578125 231.22265625 L 821.42578125 259.22265625 L 805.42578125 259.22265625 L 805.42578125 231.22265625 Z" stroke-miterlimit="10" stroke-width="0.5" stroke-dasharray=""/><path fill="none" stroke="none"/><path fill="none" stroke="#505050" paint-order="fill stroke markers" d=" M 813.42578125 235.22265625 L 821.42578125 235.22265625 L 821.42578125 243.22265625 L 813.42578125 243.22265625 L 813.42578125 235.22265625 Z" stroke-miterlimit="10" stroke-width="0.5" stroke-dasharray=""/><path fill="none" stroke="#505050" paint-order="fill stroke markers" d=" M 813.42578125 247.22265625 L 821.42578125 247.22265625 L 821.42578125 255.22265625 L 813.42578125 255.22265625 L 813.42578125 247.22265625 Z" stroke-miterlimit="10" stroke-width="0.5" stroke-dasharray=""/><path fill="white" stroke="#505050" paint-order="fill stroke markers" d=" M 764.12890625 301.13671875 L 820.12890625 301.13671875 L 820.12890625 403.13671875 L 764.12890625 403.13671875 L 764.12890625 301.13671875 Z" stroke-miterlimit="10" stroke-width="0.5" stroke-dasharray=""/><path fill="#F0F0F0" stroke="none" paint-order="stroke fill markers" d=" M 804.12890625 331.13671875 L 820.12890625 331.13671875 L 820.12890625 359.13671875 L 804.12890625 359.13671875 L 804.12890625 331.13671875 Z M 780.12890625 363.13671875 L 820.12890625 363.13671875 L 820.12890625 399.13671875 L 780.12890625 399.13671875 L 780.12890625 363.13671875 Z"/><path fill="none" stroke="none"/><text fill="#505050" stroke="none" font-family="monospace" font-size="14px" font-style="normal" font-weight="normal" text-decoration="normal" x="792.12890625" y="319.13671875" text-anchor="middle" dominant-baseline="text-after-edge">to V2</text><path fill="none" stroke="#505050" paint-order="fill stroke markers" d=" M 764.12890625 319.13671875 L 772.12890625 319.13671875 L 772.12890625 327.13671875 L 764.12890625 327.13671875 L 764.12890625 319.13671875 Z" stroke-miterlimit="10" stroke-width="0.5" stroke-dasharray=""/><path fill="none" stroke="#505050" paint-order="fill stroke markers" d=" M 812.12890625 319.13671875 L 820.12890625 319.13671875 L 820.12890625 327.13671875 L 812.12890625 327.13671875 L 812.12890625 319.13671875 Z" stroke-miterlimit="10" stroke-width="0.5" stroke-dasharray=""/><path fill="none" stroke="#505050" paint-order="fill stroke markers" d=" M 804.12890625 331.13671875 L 820.12890625 331.13671875 L 820.12890625 359.13671875 L 804.12890625 359.13671875 L 804.12890625 331.13671875 Z" stroke-miterlimit="10" stroke-width="0.5" stroke-dasharray=""/><path fill="none" stroke="none"/><path fill="none" stroke="#505050" paint-order="fill stroke markers" d=" M 812.12890625 335.13671875 L 820.12890625 335.13671875 L 820.12890625 343.13671875 L 812.12890625 343.13671875 L 812.12890625 335.13671875 Z" stroke-miterlimit="10" stroke-width="0.5" stroke-dasharray=""/><path fill="none" stroke="#505050" paint-order="fill stroke markers" d=" M 812.12890625 347.13671875 L 820.12890625 347.13671875 L 820.12890625 355.13671875 L 812.12890625 355.13671875 L 812.12890625 347.13671875 Z" stroke-miterlimit="10" stroke-width="0.5" stroke-dasharray=""/><path fill="none" stroke="#505050" paint-order="fill stroke markers" d=" M 780.12890625 363.13671875 L 820.12890625 363.13671875 L 820.12890625 399.13671875 L 780.12890625 399.13671875 L 780.12890625 363.13671875 Z" stroke-miterlimit="10" stroke-width="0.5" stroke-dasharray=""/><path fill="none" stroke="none"/><path fill="none" stroke="#505050" paint-order="fill stroke markers" d=" M 780.12890625 367.13671875 L 796.12890625 367.13671875 L 796.12890625 395.13671875 L 780.12890625 395.13671875 L 780.12890625 367.13671875 Z" stroke-miterlimit="10" stroke-width="0.5" stroke-dasharray=""/><path fill="none" stroke="none"/><path fill="none" stroke="#505050" paint-order="fill stroke markers" d=" M 788.12890625 371.13671875 L 796.12890625 371.13671875 L 796.12890625 379.13671875 L 788.12890625 379.13671875 L 788.12890625 371.13671875 Z" stroke-miterlimit="10" stroke-width="0.5" stroke-dasharray=""/><path fill="none" stroke="#505050" paint-order="fill stroke markers" d=" M 788.12890625 383.13671875 L 796.12890625 383.13671875 L 796.12890625 391.13671875 L 788.12890625 391.13671875 L 788.12890625 383.13671875 Z" stroke-miterlimit="10" stroke-width="0.5" stroke-dasharray=""/><path fill="none" stroke="#505050" paint-order="fill stroke markers" d=" M 804.12890625 367.13671875 L 820.12890625 367.13671875 L 820.12890625 395.13671875 L 804.12890625 395.13671875 L 804.12890625 367.13671875 Z" stroke-miterlimit="10" stroke-width="0.5" stroke-dasharray=""/><path fill="none" stroke="none"/><path fill="none" stroke="#505050" paint-order="fill stroke markers" d=" M 812.12890625 371.13671875 L 820.12890625 371.13671875 L 820.12890625 379.13671875 L 812.12890625 379.13671875 L 812.12890625 371.13671875 Z" stroke-miterlimit="10" stroke-width="0.5" stroke-dasharray=""/><path fill="none" stroke="#505050" paint-order="fill stroke markers" d=" M 812.12890625 383.13671875 L 820.12890625 383.13671875 L 820.12890625 391.13671875 L 812.12890625 391.13671875 L 812.12890625 383.13671875 Z" stroke-miterlimit="10" stroke-width="0.5" stroke-dasharray=""/><path fill="none" stroke="none"/><path fill="white" stroke="#505050" paint-order="fill stroke markers" d=" M 709.91796875 44.44921875 L 764.91796875 44.44921875 L 768.91796875 48.44921875 L 768.91796875 94.44921875 L 709.91796875 94.44921875 L 709.91796875 44.44921875" stroke-miterlimit="10" stroke-width="0.5" stroke-dasharray=""/><path fill="#F0F0F0" stroke="none" paint-order="stroke fill markers" d=""/><path fill="none" stroke="none"/><text fill="#505050" stroke="none" font-family="monospace" font-size="14px" font-style="normal" font-weight="normal" text-decoration="normal" x="739.41796875" y="62.44921875" text-anchor="middle" dominant-baseline="text-after-edge">new V2</text><path fill="none" stroke="#505050" paint-order="fill stroke markers" d=" M 709.91796875 62.44921875 L 725.91796875 62.44921875 L 725.91796875 90.44921875 L 709.91796875 90.44921875 L 709.91796875 62.44921875 Z" stroke-miterlimit="10" stroke-width="0.5" stroke-dasharray=""/><path fill="none" stroke="none"/><path fill="none" stroke="#505050" paint-order="fill stroke markers" d=" M 717.91796875 66.44921875 L 725.91796875 66.44921875 L 725.91796875 74.44921875 L 717.91796875 74.44921875 L 717.91796875 66.44921875 Z" stroke-miterlimit="10" stroke-width="0.5" stroke-dasharray=""/><path fill="none" stroke="#505050" paint-order="fill stroke markers" d=" M 717.91796875 78.44921875 L 725.91796875 78.44921875 L 725.91796875 86.44921875 L 717.91796875 86.44921875 L 717.91796875 78.44921875 Z" stroke-miterlimit="10" stroke-width="0.5" stroke-dasharray=""/><path fill="none" stroke="#505050" paint-order="fill stroke markers" d=" M 760.91796875 62.44921875 L 768.91796875 62.44921875 L 768.91796875 70.44921875 L 760.91796875 70.44921875 L 760.91796875 62.44921875 Z" stroke-miterlimit="10" stroke-width="0.5" stroke-dasharray=""/><path fill="white" stroke="#505050" paint-order="fill stroke markers" d=" M 816.73046875 22.90234375 L 872.73046875 22.90234375 L 872.73046875 124.90234375 L 816.73046875 124.90234375 L 816.73046875 22.90234375 Z" stroke-miterlimit="10" stroke-width="0.5" stroke-dasharray=""/><path fill="#F0F0F0" stroke="none" paint-order="stroke fill markers" d=" M 856.73046875 52.90234375 L 872.73046875 52.90234375 L 872.73046875 80.90234375 L 856.73046875 80.90234375 L 856.73046875 52.90234375 Z M 832.73046875 84.90234375 L 872.73046875 84.90234375 L 872.73046875 120.90234375 L 832.73046875 120.90234375 L 832.73046875 84.90234375 Z"/><path fill="none" stroke="none"/><text fill="#505050" stroke="none" font-family="monospace" font-size="14px" font-style="normal" font-weight="normal" text-decoration="normal" x="844.73046875" y="40.90234375" text-anchor="middle" dominant-baseline="text-after-edge">to V2</text><path fill="none" stroke="#505050" paint-order="fill stroke markers" d=" M 816.73046875 40.90234375 L 824.73046875 40.90234375 L 824.73046875 48.90234375 L 816.73046875 48.90234375 L 816.73046875 40.90234375 Z" stroke-miterlimit="10" stroke-width="0.5" stroke-dasharray=""/><path fill="none" stroke="#505050" paint-order="fill stroke markers" d=" M 864.73046875 40.90234375 L 872.73046875 40.90234375 L 872.73046875 48.90234375 L 864.73046875 48.90234375 L 864.73046875 40.90234375 Z" stroke-miterlimit="10" stroke-width="0.5" stroke-dasharray=""/><path fill="none" stroke="#505050" paint-order="fill stroke markers" d=" M 856.73046875 52.90234375 L 872.73046875 52.90234375 L 872.73046875 80.90234375 L 856.73046875 80.90234375 L 856.73046875 52.90234375 Z" stroke-miterlimit="10" stroke-width="0.5" stroke-dasharray=""/><path fill="none" stroke="none"/><path fill="none" stroke="#505050" paint-order="fill stroke markers" d=" M 864.73046875 56.90234375 L 872.73046875 56.90234375 L 872.73046875 64.90234375 L 864.73046875 64.90234375 L 864.73046875 56.90234375 Z" stroke-miterlimit="10" stroke-width="0.5" stroke-dasharray=""/><path fill="none" stroke="#505050" paint-order="fill stroke markers" d=" M 864.73046875 68.90234375 L 872.73046875 68.90234375 L 872.73046875 76.90234375 L 864.73046875 76.90234375 L 864.73046875 68.90234375 Z" stroke-miterlimit="10" stroke-width="0.5" stroke-dasharray=""/><path fill="none" stroke="#505050" paint-order="fill stroke markers" d=" M 832.73046875 84.90234375 L 872.73046875 84.90234375 L 872.73046875 120.90234375 L 832.73046875 120.90234375 L 832.73046875 84.90234375 Z" stroke-miterlimit="10" stroke-width="0.5" stroke-dasharray=""/><path fill="none" stroke="none"/><path fill="none" stroke="#505050" paint-order="fill stroke markers" d=" M 832.73046875 88.90234375 L 848.73046875 88.90234375 L 848.73046875 116.90234375 L 832.73046875 116.90234375 L 832.73046875 88.90234375 Z" stroke-miterlimit="10" stroke-width="0.5" stroke-dasharray=""/><path fill="none" stroke="none"/><path fill="none" stroke="#505050" paint-order="fill stroke markers" d=" M 840.73046875 92.90234375 L 848.73046875 92.90234375 L 848.73046875 100.90234375 L 840.73046875 100.90234375 L 840.73046875 92.90234375 Z" stroke-miterlimit="10" stroke-width="0.5" stroke-dasharray=""/><path fill="none" stroke="#505050" paint-order="fill stroke markers" d=" M 840.73046875 104.90234375 L 848.73046875 104.90234375 L 848.73046875 112.90234375 L 840.73046875 112.90234375 L 840.73046875 104.90234375 Z" stroke-miterlimit="10" stroke-width="0.5" stroke-dasharray=""/><path fill="none" stroke="#505050" paint-order="fill stroke markers" d=" M 856.73046875 88.90234375 L 872.73046875 88.90234375 L 872.73046875 116.90234375 L 856.73046875 116.90234375 L 856.73046875 88.90234375 Z" stroke-miterlimit="10" stroke-width="0.5" stroke-dasharray=""/><path fill="none" stroke="none"/><path fill="none" stroke="#505050" paint-order="fill stroke markers" d=" M 864.73046875 92.90234375 L 872.73046875 92.90234375 L 872.73046875 100.90234375 L 864.73046875 100.90234375 L 864.73046875 92.90234375 Z" stroke-miterlimit="10" stroke-width="0.5" stroke-dasharray=""/><path fill="none" stroke="#505050" paint-order="fill stroke markers" d=" M 864.73046875 104.90234375 L 872.73046875 104.90234375 L 872.73046875 112.90234375 L 864.73046875 112.90234375 L 864.73046875 104.90234375 Z" stroke-miterlimit="10" stroke-width="0.5" stroke-dasharray=""/><path fill="white" stroke="#505050" paint-order="fill stroke markers" d=" M 588.8828125 23.53125 L 652.8828125 23.53125 L 652.8828125 113.53125 L 588.8828125 113.53125 L 588.8828125 23.53125 Z" stroke-miterlimit="10" stroke-width="0.5" stroke-dasharray=""/><path fill="#F0F0F0" stroke="none" paint-order="stroke fill markers" d=" M 636.8828125 41.53125 L 652.8828125 41.53125 L 652.8828125 69.53125 L 636.8828125 69.53125 L 636.8828125 41.53125 Z M 612.8828125 73.53125 L 652.8828125 73.53125 L 652.8828125 109.53125 L 612.8828125 109.53125 L 612.8828125 73.53125 Z"/><path fill="none" stroke="none"/><text fill="#505050" stroke="none" font-family="monospace" font-size="14px" font-style="normal" font-weight="normal" text-decoration="normal" x="620.8828125" y="41.53125" text-anchor="middle" dominant-baseline="text-after-edge">V2</text><path fill="none" stroke="#505050" paint-order="fill stroke markers" d=" M 588.8828125 41.53125 L 604.8828125 41.53125 L 604.8828125 69.53125 L 588.8828125 69.53125 L 588.8828125 41.53125 Z" stroke-miterlimit="10" stroke-width="0.5" stroke-dasharray=""/><path fill="none" stroke="none"/><path fill="none" stroke="#505050" paint-order="fill stroke markers" d=" M 596.8828125 45.53125 L 604.8828125 45.53125 L 604.8828125 53.53125 L 596.8828125 53.53125 L 596.8828125 45.53125 Z" stroke-miterlimit="10" stroke-width="0.5" stroke-dasharray=""/><path fill="none" stroke="#505050" paint-order="fill stroke markers" d=" M 596.8828125 57.53125 L 604.8828125 57.53125 L 604.8828125 65.53125 L 596.8828125 65.53125 L 596.8828125 57.53125 Z" stroke-miterlimit="10" stroke-width="0.5" stroke-dasharray=""/><path fill="none" stroke="#505050" paint-order="fill stroke markers" d=" M 636.8828125 41.53125 L 652.8828125 41.53125 L 652.8828125 69.53125 L 636.8828125 69.53125 L 636.8828125 41.53125 Z" stroke-miterlimit="10" stroke-width="0.5" stroke-dasharray=""/><path fill="none" stroke="none"/><path fill="none" stroke="#505050" paint-order="fill stroke markers" d=" M 644.8828125 45.53125 L 652.8828125 45.53125 L 652.8828125 53.53125 L 644.8828125 53.53125 L 644.8828125 45.53125 Z" stroke-miterlimit="10" stroke-width="0.5" stroke-dasharray=""/><path fill="none" stroke="#505050" paint-order="fill stroke markers" d=" M 644.8828125 57.53125 L 652.8828125 57.53125 L 652.8828125 65.53125 L 644.8828125 65.53125 L 644.8828125 57.53125 Z" stroke-miterlimit="10" stroke-width="0.5" stroke-dasharray=""/><path fill="none" stroke="#505050" paint-order="fill stroke markers" d=" M 612.8828125 73.53125 L 652.8828125 73.53125 L 652.8828125 109.53125 L 612.8828125 109.53125 L 612.8828125 73.53125 Z" stroke-miterlimit="10" stroke-width="0.5" stroke-dasharray=""/><path fill="none" stroke="none"/><path fill="none" stroke="#505050" paint-order="fill stroke markers" d=" M 612.8828125 77.53125 L 628.8828125 77.53125 L 628.8828125 105.53125 L 612.8828125 105.53125 L 612.8828125 77.53125 Z" stroke-miterlimit="10" stroke-width="0.5" stroke-dasharray=""/><path fill="none" stroke="none"/><path fill="none" stroke="#505050" paint-order="fill stroke markers" d=" M 620.8828125 81.53125 L 628.8828125 81.53125 L 628.8828125 89.53125 L 620.8828125 89.53125 L 620.8828125 81.53125 Z" stroke-miterlimit="10" stroke-width="0.5" stroke-dasharray=""/><path fill="none" stroke="#505050" paint-order="fill stroke markers" d=" M 620.8828125 93.53125 L 628.8828125 93.53125 L 628.8828125 101.53125 L 620.8828125 101.53125 L 620.8828125 93.53125 Z" stroke-miterlimit="10" stroke-width="0.5" stroke-dasharray=""/><path fill="none" stroke="#505050" paint-order="fill stroke markers" d=" M 636.8828125 77.53125 L 652.8828125 77.53125 L 652.8828125 105.53125 L 636.8828125 105.53125 L 636.8828125 77.53125 Z" stroke-miterlimit="10" stroke-width="0.5" stroke-dasharray=""/><path fill="none" stroke="none"/><path fill="none" stroke="#505050" paint-order="fill stroke markers" d=" M 644.8828125 81.53125 L 652.8828125 81.53125 L 652.8828125 89.53125 L 644.8828125 89.53125 L 644.8828125 81.53125 Z" stroke-miterlimit="10" stroke-width="0.5" stroke-dasharray=""/><path fill="none" stroke="#505050" paint-order="fill stroke markers" d=" M 644.8828125 93.53125 L 652.8828125 93.53125 L 652.8828125 101.53125 L 644.8828125 101.53125 L 644.8828125 93.53125 Z" stroke-miterlimit="10" stroke-width="0.5" stroke-dasharray=""/><path fill="none" stroke="#505050" paint-order="fill stroke markers" d=" M 676.5740596652031 172.7657585144043 C 685.6256625717759 172.7657585144043 693.8038658434272 187.5859375 702.85546875 187.5859375" stroke-miterlimit="10" stroke-dasharray=""/><path fill="none" stroke="#505050" paint-order="fill stroke markers" d=" M 643.4412471652031 307.0313835144043 C 660.7549652312301 307.0313835144043 681.502688183973 323.2890625 698.81640625 323.2890625" stroke-miterlimit="10" stroke-dasharray=""/><path fill="none" stroke="#505050" paint-order="fill stroke markers" d=" M 744.85546875 187.5859375 C 751.027524782254 187.5859375 759.253725217746 187.22265625 765.42578125 187.22265625" stroke-miterlimit="10" stroke-dasharray=""/><path fill="none" stroke="#505050" paint-order="fill stroke markers" d=" M 740.81640625 323.2890625 C 747.8103055799971 323.2890625 757.1350069200029 323.13671875 764.12890625 323.13671875" stroke-miterlimit="10" stroke-dasharray=""/><path fill="none" stroke="#505050" paint-order="fill stroke markers" d=" M 821.42578125 209.22265625 C 826.22578125 209.22265625 832.62578125 209.22265625 837.42578125 209.22265625" stroke-miterlimit="10" stroke-dasharray=""/><path fill="none" stroke="#505050" paint-order="fill stroke markers" d=" M 820.12890625 345.13671875 C 824.92890625 345.13671875 831.32890625 345.13671875 836.12890625 345.13671875" stroke-miterlimit="10" stroke-dasharray=""/><path fill="none" stroke="#505050" paint-order="fill stroke markers" d=" M 820.12890625 381.13671875 C 829.0818025473898 381.13671875 841.0080412026102 381.9453125 849.9609375 381.9453125" stroke-miterlimit="10" stroke-dasharray=""/><path fill="none" stroke="#505050" paint-order="fill stroke markers" d=" M 821.42578125 245.22265625 C 828.8654950092996 245.22265625 838.7829424907004 244.89453125 846.22265625 244.89453125" stroke-miterlimit="10" stroke-dasharray=""/><path fill="none" stroke="#505050" paint-order="fill stroke markers" d=" M 661.34375 216.2421875 C 674.7623494495605 216.2421875 689.4368693004395 199.5859375 702.85546875 199.5859375" stroke-miterlimit="10" stroke-dasharray=""/><path fill="none" stroke="#505050" paint-order="fill stroke markers" d=" M 662.3359375 355.37109375 C 674.8287407138953 355.37109375 686.3236030361047 335.2890625 698.81640625 335.2890625" stroke-miterlimit="10" stroke-dasharray=""/><path fill="none" stroke="#505050" paint-order="fill stroke markers" d=" M 590.70703125 226.57421875 C 594.1994676662547 226.57421875 598.8513135837453 226.2421875 602.34375 226.2421875" stroke-miterlimit="10" stroke-dasharray=""/><path fill="none" stroke="#505050" paint-order="fill stroke markers" d=" M 590.37109375 365.671875 C 594.2615934420709 365.671875 599.4454378079291 365.37109375 603.3359375 365.37109375" stroke-miterlimit="10" stroke-dasharray=""/></g></g></svg>