<svg version="1.1" xmlns="http://www.w3.org/2000/svg" xmlns:xlink="http://www.w3.org/1999/xlink" width="822.7874229550362" height="573.1844053268433"><defs/><g transform="translate(-306.38763350248337,-12.134346008300781)"><g><path fill="white" stroke="#505050" paint-order="fill stroke markers" d=" M 442.2436687350273 21.13434600830078 L 442.2436687350273 133.13434600830078 Q 442.2436687350273 141.13434600830078 450.2436687350273 141.13434600830078 L 608.6967994570732 141.13434600830078 Q 616.6967994570732 141.13434600830078 616.6967994570732 133.13434600830078 L 616.6967994570732 21.13434600830078 Q 616.6967994570732 13.134346008300781 608.6967994570732 13.134346008300781 L 450.2436687350273 13.134346008300781 Q 442.2436687350273 13.134346008300781 442.2436687350273 21.13434600830078" stroke-miterlimit="10" stroke-width="0.5" stroke-dasharray=""/><path fill="#F0F0F0" stroke="#505050" paint-order="fill stroke markers" d=" M 541.6967994570732 21.13434600830078 L 616.6967994570732 21.13434600830078 L 616.6967994570732 133.13434600830078 L 541.6967994570732 133.13434600830078 L 541.6967994570732 21.13434600830078 Z" stroke-miterlimit="10" stroke-width="0.5" stroke-dasharray=""/><text fill="#505050" stroke="none" font-family="monospace" font-size="14px" font-style="normal" font-weight="normal" text-decoration="normal" x="579.1967994570732" y="39.13434600830078" text-anchor="middle" dominant-baseline="text-after-edge">Array</text><path fill="none" stroke="#505050" paint-order="fill stroke markers" d=" M 608.6967994570732 40.13434600830078 L 616.6967994570732 40.13434600830078 L 616.6967994570732 48.13434600830078 L 608.6967994570732 48.13434600830078 L 608.6967994570732 40.13434600830078 Z" stroke-miterlimit="10" stroke-width="0.5" stroke-dasharray=""/><text fill="#505050" stroke="none" font-family="monospace" font-size="14px" font-style="normal" font-weight="normal" text-decoration="normal" x="600.6967994570732" y="53.13434600830078" text-anchor="end" dominant-baseline="text-after-edge">length</text><path fill="none" stroke="#505050" paint-order="fill stroke markers" d=" M 583.6967994570732 53.13434600830078 L 616.6967994570732 53.13434600830078 L 616.6967994570732 83.13434600830078 L 583.6967994570732 83.13434600830078 L 583.6967994570732 53.13434600830078 Z" stroke-miterlimit="10" stroke-width="0.5" stroke-dasharray=""/><text fill="#505050" stroke="none" font-family="monospace" font-size="14px" font-style="normal" font-weight="normal" text-decoration="normal" x="600.1967994570732" y="71.13434600830078" text-anchor="middle" dominant-baseline="text-after-edge">get</text><path fill="none" stroke="#505050" paint-order="fill stroke markers" d=" M 583.6967994570732 71.13434600830078 L 591.6967994570732 71.13434600830078 L 591.6967994570732 79.13434600830078 L 583.6967994570732 79.13434600830078 L 583.6967994570732 71.13434600830078 Z" stroke-miterlimit="10" stroke-width="0.5" stroke-dasharray=""/><path fill="none" stroke="#505050" paint-order="fill stroke markers" d=" M 608.6967994570732 71.13434600830078 L 616.6967994570732 71.13434600830078 L 616.6967994570732 79.13434600830078 L 608.6967994570732 79.13434600830078 L 608.6967994570732 71.13434600830078 Z" stroke-miterlimit="10" stroke-width="0.5" stroke-dasharray=""/><path fill="none" stroke="#505050" paint-order="fill stroke markers" d=" M 574.6967994570732 87.13434600830078 L 616.6967994570732 87.13434600830078 L 616.6967994570732 129.13434600830078 L 574.6967994570732 129.13434600830078 L 574.6967994570732 87.13434600830078 Z" stroke-miterlimit="10" stroke-width="0.5" stroke-dasharray=""/><text fill="#505050" stroke="none" font-family="monospace" font-size="14px" font-style="normal" font-weight="normal" text-decoration="normal" x="595.6967994570732" y="105.13434600830078" text-anchor="middle" dominant-baseline="text-after-edge">swap</text><path fill="none" stroke="#505050" paint-order="fill stroke markers" d=" M 574.6967994570732 105.13434600830078 L 582.6967994570732 105.13434600830078 L 582.6967994570732 113.13434600830078 L 574.6967994570732 113.13434600830078 L 574.6967994570732 105.13434600830078 Z" stroke-miterlimit="10" stroke-width="0.5" stroke-dasharray=""/><path fill="none" stroke="#505050" paint-order="fill stroke markers" d=" M 574.6967994570732 117.13434600830078 L 582.6967994570732 117.13434600830078 L 582.6967994570732 125.13434600830078 L 574.6967994570732 125.13434600830078 L 574.6967994570732 117.13434600830078 Z" stroke-miterlimit="10" stroke-width="0.5" stroke-dasharray=""/><path fill="none" stroke="#505050" paint-order="fill stroke markers" d=" M 608.6967994570732 105.13434600830078 L 616.6967994570732 105.13434600830078 L 616.6967994570732 113.13434600830078 L 608.6967994570732 113.13434600830078 L 608.6967994570732 105.13434600830078 Z" stroke-miterlimit="10" stroke-width="0.5" stroke-dasharray=""/><path fill="none" stroke="#505050" paint-order="fill stroke markers" d=" M 608.6967994570732 117.13434600830078 L 616.6967994570732 117.13434600830078 L 616.6967994570732 125.13434600830078 L 608.6967994570732 125.13434600830078 L 608.6967994570732 117.13434600830078 Z" stroke-miterlimit="10" stroke-width="0.5" stroke-dasharray=""/><path fill="white" stroke="#505050" paint-order="fill stroke markers" d=" M 458.7061416506767 91.13752365112305 L 466.7061416506767 91.13752365112305 L 474.7061416506767 99.13752365112305 L 466.7061416506767 107.13752365112305 L 458.7061416506767 107.13752365112305 L 458.7061416506767 91.13752365112305" stroke-miterlimit="10" stroke-width="0.5" stroke-dasharray=""/><path fill="none" stroke="#505050" paint-order="fill stroke markers" d=" M 458.7061416506767 95.13752365112305 L 466.7061416506767 95.13752365112305 L 466.7061416506767 103.13752365112305 L 458.7061416506767 103.13752365112305 L 458.7061416506767 95.13752365112305 Z" stroke-miterlimit="10" stroke-width="0.5" stroke-dasharray=""/><path fill="white" stroke="#505050" paint-order="fill stroke markers" d=" M 457.4842559695244 63.718727111816406 L 465.4842559695244 63.718727111816406 L 473.4842559695244 71.7187271118164 L 465.4842559695244 79.7187271118164 L 457.4842559695244 79.7187271118164 L 457.4842559695244 63.718727111816406" stroke-miterlimit="10" stroke-width="0.5" stroke-dasharray=""/><path fill="none" stroke="#505050" paint-order="fill stroke markers" d=" M 457.4842559695244 67.7187271118164 L 465.4842559695244 67.7187271118164 L 465.4842559695244 75.7187271118164 L 457.4842559695244 75.7187271118164 L 457.4842559695244 67.7187271118164 Z" stroke-miterlimit="10" stroke-width="0.5" stroke-dasharray=""/><path fill="white" stroke="#505050" paint-order="fill stroke markers" d=" M 456.71553725004196 27.040618896484375 L 523.715537250042 27.040618896484375 L 531.715537250042 36.040618896484375 L 523.715537250042 45.040618896484375 L 456.71553725004196 45.040618896484375 L 456.71553725004196 27.040618896484375" stroke-miterlimit="10" stroke-width="0.5" stroke-dasharray=""/><path fill="none" stroke="#505050" paint-order="fill stroke markers" d=" M 456.71553725004196 32.040618896484375 L 464.71553725004196 32.040618896484375 L 464.71553725004196 40.040618896484375 L 456.71553725004196 40.040618896484375 L 456.71553725004196 32.040618896484375 Z" stroke-miterlimit="10" stroke-width="0.5" stroke-dasharray=""/><text fill="#505050" stroke="none" font-family="monospace" font-size="14px" font-style="normal" font-weight="normal" text-decoration="normal" x="472.71553725004196" y="45.040618896484375" text-anchor="start" dominant-baseline="text-after-edge">length</text><path fill="white" stroke="#505050" paint-order="fill stroke markers" d=" M 325.20623129606247 39.303096771240234 L 325.20623129606247 69.30309677124023 Q 325.20623129606247 77.30309677124023 333.20623129606247 77.30309677124023 L 415.05621641874313 77.30309677124023 Q 423.05621641874313 77.30309677124023 423.05621641874313 69.30309677124023 L 423.05621641874313 39.303096771240234 Q 423.05621641874313 31.303096771240234 415.05621641874313 31.303096771240234 L 333.20623129606247 31.303096771240234 Q 325.20623129606247 31.303096771240234 325.20623129606247 39.303096771240234" stroke-miterlimit="10" stroke-width="0.5" stroke-dasharray=""/><path fill="#F0F0F0" stroke="#505050" paint-order="fill stroke markers" d=" M 390.05621641874313 39.303096771240234 L 423.05621641874313 39.303096771240234 L 423.05621641874313 69.30309677124023 L 390.05621641874313 69.30309677124023 L 390.05621641874313 39.303096771240234 Z" stroke-miterlimit="10" stroke-width="0.5" stroke-dasharray="6,3"/><text fill="#505050" stroke="none" font-family="monospace" font-size="14px" font-style="normal" font-weight="normal" text-decoration="normal" x="406.55621641874313" y="57.303096771240234" text-anchor="middle" dominant-baseline="text-after-edge">get</text><path fill="none" stroke="#505050" paint-order="fill stroke markers" d=" M 390.05621641874313 57.303096771240234 L 398.05621641874313 57.303096771240234 L 398.05621641874313 65.30309677124023 L 390.05621641874313 65.30309677124023 L 390.05621641874313 57.303096771240234 Z" stroke-miterlimit="10" stroke-width="0.5" stroke-dasharray="0"/><path fill="none" stroke="#505050" paint-order="fill stroke markers" d=" M 415.05621641874313 57.303096771240234 L 423.05621641874313 57.303096771240234 L 423.05621641874313 65.30309677124023 L 415.05621641874313 65.30309677124023 L 415.05621641874313 57.303096771240234 Z" stroke-miterlimit="10" stroke-width="0.5" stroke-dasharray="0"/><path fill="white" stroke="#505050" paint-order="fill stroke markers" d=" M 359.4749786257744 39.4593391418457 L 367.4749786257744 39.4593391418457 L 375.4749786257744 47.4593391418457 L 367.4749786257744 55.4593391418457 L 359.4749786257744 55.4593391418457 L 359.4749786257744 39.4593391418457" stroke-miterlimit="10" stroke-width="0.5" stroke-dasharray="0"/><path fill="none" stroke="#505050" paint-order="fill stroke markers" d=" M 359.4749786257744 43.4593391418457 L 367.4749786257744 43.4593391418457 L 367.4749786257744 51.4593391418457 L 359.4749786257744 51.4593391418457 L 359.4749786257744 43.4593391418457 Z" stroke-miterlimit="10" stroke-width="0.5" stroke-dasharray="0"/><path fill="white" stroke="#505050" paint-order="fill stroke markers" d=" M 333.20623129606247 40.5218563079834 L 349.20623129606247 40.5218563079834 L 349.20623129606247 56.5218563079834 L 333.20623129606247 56.5218563079834 L 341.20623129606247 48.5218563079834 L 333.20623129606247 40.5218563079834" stroke-miterlimit="10" stroke-width="0.5" stroke-dasharray="0"/><path fill="none" stroke="#505050" paint-order="fill stroke markers" d=" M 341.20623129606247 44.5218563079834 L 349.20623129606247 44.5218563079834 L 349.20623129606247 52.5218563079834 L 341.20623129606247 52.5218563079834 L 341.20623129606247 44.5218563079834 Z" stroke-miterlimit="10" stroke-width="0.5" stroke-dasharray="0"/><path fill="white" stroke="#505050" paint-order="fill stroke markers" d=" M 324.06245535612106 100.04065322875977 L 324.06245535612106 148.40000915527344 Q 324.06245535612106 156.40000915527344 332.06245535612106 156.40000915527344 L 417.8062087893486 156.40000915527344 Q 425.8062087893486 156.40000915527344 425.8062087893486 148.40000915527344 L 425.8062087893486 100.04065322875977 Q 425.8062087893486 92.04065322875977 417.8062087893486 92.04065322875977 L 332.06245535612106 92.04065322875977 Q 324.06245535612106 92.04065322875977 324.06245535612106 100.04065322875977" stroke-miterlimit="10" stroke-width="0.5" stroke-dasharray="0"/><path fill="#F0F0F0" stroke="#505050" paint-order="fill stroke markers" d=" M 383.8062087893486 100.04065322875977 L 425.8062087893486 100.04065322875977 L 425.8062087893486 142.04065322875977 L 383.8062087893486 142.04065322875977 L 383.8062087893486 100.04065322875977 Z" stroke-miterlimit="10" stroke-width="0.5" stroke-dasharray="6,3"/><text fill="#505050" stroke="none" font-family="monospace" font-size="14px" font-style="normal" font-weight="normal" text-decoration="normal" x="404.8062087893486" y="118.04065322875977" text-anchor="middle" dominant-baseline="text-after-edge">swap</text><path fill="none" stroke="#505050" paint-order="fill stroke markers" d=" M 383.8062087893486 118.04065322875977 L 391.8062087893486 118.04065322875977 L 391.8062087893486 126.04065322875977 L 383.8062087893486 126.04065322875977 L 383.8062087893486 118.04065322875977 Z" stroke-miterlimit="10" stroke-width="0.5" stroke-dasharray="0"/><path fill="none" stroke="#505050" paint-order="fill stroke markers" d=" M 383.8062087893486 130.04065322875977 L 391.8062087893486 130.04065322875977 L 391.8062087893486 138.04065322875977 L 383.8062087893486 138.04065322875977 L 383.8062087893486 130.04065322875977 Z" stroke-miterlimit="10" stroke-width="0.5" stroke-dasharray="0"/><path fill="none" stroke="#505050" paint-order="fill stroke markers" d=" M 417.8062087893486 118.04065322875977 L 425.8062087893486 118.04065322875977 L 425.8062087893486 126.04065322875977 L 417.8062087893486 126.04065322875977 L 417.8062087893486 118.04065322875977 Z" stroke-miterlimit="10" stroke-width="0.5" stroke-dasharray="0"/><path fill="none" stroke="#505050" paint-order="fill stroke markers" d=" M 417.8062087893486 130.04065322875977 L 425.8062087893486 130.04065322875977 L 425.8062087893486 138.04065322875977 L 417.8062087893486 138.04065322875977 L 417.8062087893486 130.04065322875977 Z" stroke-miterlimit="10" stroke-width="0.5" stroke-dasharray="0"/><path fill="white" stroke="#505050" paint-order="fill stroke markers" d=" M 332.93119925260544 124.40000915527344 L 348.93119925260544 124.40000915527344 L 348.93119925260544 140.40000915527344 L 332.93119925260544 140.40000915527344 L 340.93119925260544 132.40000915527344 L 332.93119925260544 124.40000915527344" stroke-miterlimit="10" stroke-width="0.5" stroke-dasharray="0"/><path fill="none" stroke="#505050" paint-order="fill stroke markers" d=" M 340.93119925260544 128.40000915527344 L 348.93119925260544 128.40000915527344 L 348.93119925260544 136.40000915527344 L 340.93119925260544 136.40000915527344 L 340.93119925260544 128.40000915527344 Z" stroke-miterlimit="10" stroke-width="0.5" stroke-dasharray="0"/><path fill="white" stroke="#505050" paint-order="fill stroke markers" d=" M 361.03119963407516 123.1187629699707 L 369.03119963407516 123.1187629699707 L 377.03119963407516 131.1187629699707 L 369.03119963407516 139.1187629699707 L 361.03119963407516 139.1187629699707 L 361.03119963407516 123.1187629699707" stroke-miterlimit="10" stroke-width="0.5" stroke-dasharray="0"/><path fill="none" stroke="#505050" paint-order="fill stroke markers" d=" M 361.03119963407516 127.1187629699707 L 369.03119963407516 127.1187629699707 L 369.03119963407516 135.1187629699707 L 361.03119963407516 135.1187629699707 L 361.03119963407516 127.1187629699707 Z" stroke-miterlimit="10" stroke-width="0.5" stroke-dasharray="0"/><path fill="white" stroke="#505050" paint-order="fill stroke markers" d=" M 332.06245535612106 100.24064636230469 L 348.06245535612106 100.24064636230469 L 348.06245535612106 116.24064636230469 L 332.06245535612106 116.24064636230469 L 340.06245535612106 108.24064636230469 L 332.06245535612106 100.24064636230469" stroke-miterlimit="10" stroke-width="0.5" stroke-dasharray="0"/><path fill="none" stroke="#505050" paint-order="fill stroke markers" d=" M 340.06245535612106 104.24064636230469 L 348.06245535612106 104.24064636230469 L 348.06245535612106 112.24064636230469 L 340.06245535612106 112.24064636230469 L 340.06245535612106 104.24064636230469 Z" stroke-miterlimit="10" stroke-width="0.5" stroke-dasharray="0"/><path fill="white" stroke="#505050" paint-order="fill stroke markers" d=" M 361.7874557375908 100.04065322875977 L 369.7874557375908 100.04065322875977 L 377.7874557375908 108.04065322875977 L 369.7874557375908 116.04065322875977 L 361.7874557375908 116.04065322875977 L 361.7874557375908 100.04065322875977" stroke-miterlimit="10" stroke-width="0.5" stroke-dasharray="0"/><path fill="none" stroke="#505050" paint-order="fill stroke markers" d=" M 361.7874557375908 104.04065322875977 L 369.7874557375908 104.04065322875977 L 369.7874557375908 112.04065322875977 L 361.7874557375908 112.04065322875977 L 361.7874557375908 104.04065322875977 Z" stroke-miterlimit="10" stroke-width="0.5" stroke-dasharray="0"/><path fill="white" stroke="#505050" paint-order="fill stroke markers" d=" M 675.9594039916992 51.56248760223389 L 675.9594039916992 102.69685363769531 Q 675.9594039916992 110.69685363769531 683.9594039916992 110.69685363769531 L 771.1999732851982 110.69685363769531 Q 779.1999732851982 110.69685363769531 779.1999732851982 102.69685363769531 L 779.1999732851982 51.56248760223389 Q 779.1999732851982 43.56248760223389 771.1999732851982 43.56248760223389 L 683.9594039916992 43.56248760223389 Q 675.9594039916992 43.56248760223389 675.9594039916992 51.56248760223389" stroke-miterlimit="10" stroke-width="0.5" stroke-dasharray="0"/><path fill="#F0F0F0" stroke="#505050" paint-order="fill stroke markers" d=" M 737.1999732851982 51.56248760223389 L 779.1999732851982 51.56248760223389 L 779.1999732851982 93.56248760223389 L 737.1999732851982 93.56248760223389 L 737.1999732851982 51.56248760223389 Z" stroke-miterlimit="10" stroke-width="0.5" stroke-dasharray="6,3"/><text fill="#505050" stroke="none" font-family="monospace" font-size="14px" font-style="normal" font-weight="normal" text-decoration="normal" x="758.1999732851982" y="69.56248760223389" text-anchor="middle" dominant-baseline="text-after-edge">cond</text><path fill="none" stroke="#505050" paint-order="fill stroke markers" d=" M 737.1999732851982 69.56248760223389 L 745.1999732851982 69.56248760223389 L 745.1999732851982 77.56248760223389 L 737.1999732851982 77.56248760223389 L 737.1999732851982 69.56248760223389 Z" stroke-miterlimit="10" stroke-width="0.5" stroke-dasharray="0"/><path fill="none" stroke="#505050" paint-order="fill stroke markers" d=" M 737.1999732851982 81.56248760223389 L 745.1999732851982 81.56248760223389 L 745.1999732851982 89.56248760223389 L 737.1999732851982 89.56248760223389 L 737.1999732851982 81.56248760223389 Z" stroke-miterlimit="10" stroke-width="0.5" stroke-dasharray="0"/><path fill="none" stroke="#505050" paint-order="fill stroke markers" d=" M 771.1999732851982 69.56248760223389 L 779.1999732851982 69.56248760223389 L 779.1999732851982 77.56248760223389 L 771.1999732851982 77.56248760223389 L 771.1999732851982 69.56248760223389 Z" stroke-miterlimit="10" stroke-width="0.5" stroke-dasharray="0"/><path fill="white" stroke="#505050" paint-order="fill stroke markers" d=" M 714.4343482851982 54.33749771118164 L 722.4343482851982 54.33749771118164 L 730.4343482851982 62.33749771118164 L 722.4343482851982 70.33749771118164 L 714.4343482851982 70.33749771118164 L 714.4343482851982 54.33749771118164" stroke-miterlimit="10" stroke-width="0.5" stroke-dasharray="0"/><path fill="none" stroke="#505050" paint-order="fill stroke markers" d=" M 714.4343482851982 58.33749771118164 L 722.4343482851982 58.33749771118164 L 722.4343482851982 66.33749771118164 L 714.4343482851982 66.33749771118164 L 714.4343482851982 58.33749771118164 Z" stroke-miterlimit="10" stroke-width="0.5" stroke-dasharray="0"/><path fill="white" stroke="#505050" paint-order="fill stroke markers" d=" M 685.5780918002129 78.69685363769531 L 701.5780918002129 78.69685363769531 L 701.5780918002129 94.69685363769531 L 685.5780918002129 94.69685363769531 L 693.5780918002129 86.69685363769531 L 685.5780918002129 78.69685363769531" stroke-miterlimit="10" stroke-width="0.5" stroke-dasharray="0"/><path fill="none" stroke="#505050" paint-order="fill stroke markers" d=" M 693.5780918002129 82.69685363769531 L 701.5780918002129 82.69685363769531 L 701.5780918002129 90.69685363769531 L 693.5780918002129 90.69685363769531 L 693.5780918002129 82.69685363769531 Z" stroke-miterlimit="10" stroke-width="0.5" stroke-dasharray="0"/><path fill="white" stroke="#505050" paint-order="fill stroke markers" d=" M 684.7093479037285 54.53749084472656 L 700.7093479037285 54.53749084472656 L 700.7093479037285 70.53749084472656 L 684.7093479037285 70.53749084472656 L 692.7093479037285 62.53749084472656 L 684.7093479037285 54.53749084472656" stroke-miterlimit="10" stroke-width="0.5" stroke-dasharray="0"/><path fill="none" stroke="#505050" paint-order="fill stroke markers" d=" M 692.7093479037285 58.53749084472656 L 700.7093479037285 58.53749084472656 L 700.7093479037285 66.53749084472656 L 692.7093479037285 66.53749084472656 L 692.7093479037285 58.53749084472656 Z" stroke-miterlimit="10" stroke-width="0.5" stroke-dasharray="0"/><path fill="white" stroke="#505050" paint-order="fill stroke markers" d=" M 823.0500335693359 59.218749046325684 L 823.0500335693359 110.14686107635498 Q 823.0500335693359 118.14686107635498 831.0500335693359 118.14686107635498 L 955.9656753540039 118.14686107635498 Q 963.9656753540039 118.14686107635498 963.9656753540039 110.14686107635498 L 963.9656753540039 59.218749046325684 Q 963.9656753540039 51.218749046325684 955.9656753540039 51.218749046325684 L 831.0500335693359 51.218749046325684 Q 823.0500335693359 51.218749046325684 823.0500335693359 59.218749046325684" stroke-miterlimit="10" stroke-width="0.5" stroke-dasharray="0"/><path fill="#F0F0F0" stroke="#505050" paint-order="fill stroke markers" d=" M 938.9656753540039 59.218749046325684 L 963.9656753540039 59.218749046325684 L 963.9656753540039 89.21874904632568 L 938.9656753540039 89.21874904632568 L 938.9656753540039 59.218749046325684 Z" stroke-miterlimit="10" stroke-width="0.5" stroke-dasharray="0"/><text fill="#505050" stroke="none" font-family="monospace" font-size="14px" font-style="normal" font-weight="normal" text-decoration="normal" x="951.4656753540039" y="77.21874904632568" text-anchor="middle" dominant-baseline="text-after-edge">+1</text><path fill="none" stroke="#505050" paint-order="fill stroke markers" d=" M 938.9656753540039 77.21874904632568 L 946.9656753540039 77.21874904632568 L 946.9656753540039 85.21874904632568 L 938.9656753540039 85.21874904632568 L 938.9656753540039 77.21874904632568 Z" stroke-miterlimit="10" stroke-width="0.5" stroke-dasharray="0"/><path fill="none" stroke="#505050" paint-order="fill stroke markers" d=" M 955.9656753540039 77.21874904632568 L 963.9656753540039 77.21874904632568 L 963.9656753540039 85.21874904632568 L 955.9656753540039 85.21874904632568 L 955.9656753540039 77.21874904632568 Z" stroke-miterlimit="10" stroke-width="0.5" stroke-dasharray="0"/><path fill="white" stroke="#505050" paint-order="fill stroke markers" d=" M 834.321907043457 63.828124046325684 L 850.321907043457 63.828124046325684 L 850.321907043457 79.82812404632568 L 834.321907043457 79.82812404632568 L 842.321907043457 71.82812404632568 L 834.321907043457 63.828124046325684" stroke-miterlimit="10" stroke-width="0.5" stroke-dasharray="0"/><path fill="none" stroke="#505050" paint-order="fill stroke markers" d=" M 842.321907043457 67.82812404632568 L 850.321907043457 67.82812404632568 L 850.321907043457 75.82812404632568 L 842.321907043457 75.82812404632568 L 842.321907043457 67.82812404632568 Z" stroke-miterlimit="10" stroke-width="0.5" stroke-dasharray="0"/><path fill="white" stroke="#505050" paint-order="fill stroke markers" d=" M 874.0312881469727 59.218749046325684 L 898.0312881469727 59.218749046325684 L 898.0312881469727 101.21874904632568 L 874.0312881469727 101.21874904632568 L 874.0312881469727 59.218749046325684 Z" stroke-miterlimit="10" stroke-width="0.5" stroke-dasharray="0"/><path fill="#F0F0F0" stroke="none" paint-order="stroke fill markers" d=""/><text fill="#505050" stroke="none" font-family="monospace" font-size="14px" font-style="normal" font-weight="normal" text-decoration="normal" x="886.0312881469727" y="77.21874904632568" text-anchor="middle" dominant-baseline="text-after-edge">+</text><path fill="none" stroke="#505050" paint-order="fill stroke markers" d=" M 874.0312881469727 77.21874904632568 L 882.0312881469727 77.21874904632568 L 882.0312881469727 85.21874904632568 L 874.0312881469727 85.21874904632568 L 874.0312881469727 77.21874904632568 Z" stroke-miterlimit="10" stroke-width="0.5" stroke-dasharray="0"/><path fill="none" stroke="#505050" paint-order="fill stroke markers" d=" M 874.0312881469727 89.21874904632568 L 882.0312881469727 89.21874904632568 L 882.0312881469727 97.21874904632568 L 874.0312881469727 97.21874904632568 L 874.0312881469727 89.21874904632568 Z" stroke-miterlimit="10" stroke-width="0.5" stroke-dasharray="0"/><path fill="none" stroke="#505050" paint-order="fill stroke markers" d=" M 890.0312881469727 77.21874904632568 L 898.0312881469727 77.21874904632568 L 898.0312881469727 85.21874904632568 L 890.0312881469727 85.21874904632568 L 890.0312881469727 77.21874904632568 Z" stroke-miterlimit="10" stroke-width="0.5" stroke-dasharray="0"/><path fill="white" stroke="#505050" paint-order="fill stroke markers" d=" M 914.0312881469727 73.21874904632568 L 922.0312881469727 73.21874904632568 L 930.0312881469727 81.21874904632568 L 922.0312881469727 89.21874904632568 L 914.0312881469727 89.21874904632568 L 914.0312881469727 73.21874904632568" stroke-miterlimit="10" stroke-width="0.5" stroke-dasharray="0"/><path fill="none" stroke="#505050" paint-order="fill stroke markers" d=" M 914.0312881469727 77.21874904632568 L 922.0312881469727 77.21874904632568 L 922.0312881469727 85.21874904632568 L 914.0312881469727 85.21874904632568 L 914.0312881469727 77.21874904632568 Z" stroke-miterlimit="10" stroke-width="0.5" stroke-dasharray="0"/><path fill="white" stroke="#505050" paint-order="fill stroke markers" d=" M 831.0500335693359 84.14686107635498 L 863.0500335693359 84.14686107635498 L 863.0500335693359 102.14686107635498 L 831.0500335693359 102.14686107635498 L 831.0500335693359 84.14686107635498 Z" stroke-miterlimit="10" stroke-width="0.5" stroke-dasharray="0"/><path fill="#F0F0F0" stroke="none" paint-order="stroke fill markers" d=""/><path fill="none" stroke="#505050" paint-order="fill stroke markers" d=" M 855.0500335693359 89.14686107635498 L 863.0500335693359 89.14686107635498 L 863.0500335693359 97.14686107635498 L 855.0500335693359 97.14686107635498 L 855.0500335693359 89.14686107635498 Z" stroke-miterlimit="10" stroke-width="0.5" stroke-dasharray="0"/><text fill="#505050" stroke="none" font-family="monospace" font-size="14px" font-style="normal" font-weight="normal" text-decoration="normal" x="847.0500335693359" y="102.14686107635498" text-anchor="end" dominant-baseline="text-after-edge">1</text><path fill="white" stroke="#505050" paint-order="fill stroke markers" d=" M 987.2594146728516 59.878111839294434 L 987.2594146728516 110.80622386932373 Q 987.2594146728516 118.80622386932373 995.2594146728516 118.80622386932373 L 1120.1750564575195 118.80622386932373 Q 1128.1750564575195 118.80622386932373 1128.1750564575195 110.80622386932373 L 1128.1750564575195 59.878111839294434 Q 1128.1750564575195 51.878111839294434 1120.1750564575195 51.878111839294434 L 995.2594146728516 51.878111839294434 Q 987.2594146728516 51.878111839294434 987.2594146728516 59.878111839294434" stroke-miterlimit="10" stroke-width="0.5" stroke-dasharray="0"/><path fill="#F0F0F0" stroke="#505050" paint-order="fill stroke markers" d=" M 1103.1750564575195 59.878111839294434 L 1128.1750564575195 59.878111839294434 L 1128.1750564575195 89.87811183929443 L 1103.1750564575195 89.87811183929443 L 1103.1750564575195 59.878111839294434 Z" stroke-miterlimit="10" stroke-width="0.5" stroke-dasharray="0"/><text fill="#505050" stroke="none" font-family="monospace" font-size="14px" font-style="normal" font-weight="normal" text-decoration="normal" x="1115.6750564575195" y="77.87811183929443" text-anchor="middle" dominant-baseline="text-after-edge">-1</text><path fill="none" stroke="#505050" paint-order="fill stroke markers" d=" M 1103.1750564575195 77.87811183929443 L 1111.1750564575195 77.87811183929443 L 1111.1750564575195 85.87811183929443 L 1103.1750564575195 85.87811183929443 L 1103.1750564575195 77.87811183929443 Z" stroke-miterlimit="10" stroke-width="0.5" stroke-dasharray="0"/><path fill="none" stroke="#505050" paint-order="fill stroke markers" d=" M 1120.1750564575195 77.87811183929443 L 1128.1750564575195 77.87811183929443 L 1128.1750564575195 85.87811183929443 L 1120.1750564575195 85.87811183929443 L 1120.1750564575195 77.87811183929443 Z" stroke-miterlimit="10" stroke-width="0.5" stroke-dasharray="0"/><path fill="white" stroke="#505050" paint-order="fill stroke markers" d=" M 998.5312881469727 64.48748683929443 L 1014.5312881469727 64.48748683929443 L 1014.5312881469727 80.48748683929443 L 998.5312881469727 80.48748683929443 L 1006.5312881469727 72.48748683929443 L 998.5312881469727 64.48748683929443" stroke-miterlimit="10" stroke-width="0.5" stroke-dasharray="0"/><path fill="none" stroke="#505050" paint-order="fill stroke markers" d=" M 1006.5312881469727 68.48748683929443 L 1014.5312881469727 68.48748683929443 L 1014.5312881469727 76.48748683929443 L 1006.5312881469727 76.48748683929443 L 1006.5312881469727 68.48748683929443 Z" stroke-miterlimit="10" stroke-width="0.5" stroke-dasharray="0"/><path fill="white" stroke="#505050" paint-order="fill stroke markers" d=" M 1038.2406692504883 59.878111839294434 L 1062.2406692504883 59.878111839294434 L 1062.2406692504883 101.87811183929443 L 1038.2406692504883 101.87811183929443 L 1038.2406692504883 59.878111839294434 Z" stroke-miterlimit="10" stroke-width="0.5" stroke-dasharray="0"/><path fill="#F0F0F0" stroke="none" paint-order="stroke fill markers" d=""/><text fill="#505050" stroke="none" font-family="monospace" font-size="14px" font-style="normal" font-weight="normal" text-decoration="normal" x="1050.2406692504883" y="77.87811183929443" text-anchor="middle" dominant-baseline="text-after-edge">-</text><path fill="none" stroke="#505050" paint-order="fill stroke markers" d=" M 1038.2406692504883 77.87811183929443 L 1046.2406692504883 77.87811183929443 L 1046.2406692504883 85.87811183929443 L 1038.2406692504883 85.87811183929443 L 1038.2406692504883 77.87811183929443 Z" stroke-miterlimit="10" stroke-width="0.5" stroke-dasharray="0"/><path fill="none" stroke="#505050" paint-order="fill stroke markers" d=" M 1038.2406692504883 89.87811183929443 L 1046.2406692504883 89.87811183929443 L 1046.2406692504883 97.87811183929443 L 1038.2406692504883 97.87811183929443 L 1038.2406692504883 89.87811183929443 Z" stroke-miterlimit="10" stroke-width="0.5" stroke-dasharray="0"/><path fill="none" stroke="#505050" paint-order="fill stroke markers" d=" M 1054.2406692504883 77.87811183929443 L 1062.2406692504883 77.87811183929443 L 1062.2406692504883 85.87811183929443 L 1054.2406692504883 85.87811183929443 L 1054.2406692504883 77.87811183929443 Z" stroke-miterlimit="10" stroke-width="0.5" stroke-dasharray="0"/><path fill="white" stroke="#505050" paint-order="fill stroke markers" d=" M 1078.2406692504883 73.87811183929443 L 1086.2406692504883 73.87811183929443 L 1094.2406692504883 81.87811183929443 L 1086.2406692504883 89.87811183929443 L 1078.2406692504883 89.87811183929443 L 1078.2406692504883 73.87811183929443" stroke-miterlimit="10" stroke-width="0.5" stroke-dasharray="0"/><path fill="none" stroke="#505050" paint-order="fill stroke markers" d=" M 1078.2406692504883 77.87811183929443 L 1086.2406692504883 77.87811183929443 L 1086.2406692504883 85.87811183929443 L 1078.2406692504883 85.87811183929443 L 1078.2406692504883 77.87811183929443 Z" stroke-miterlimit="10" stroke-width="0.5" stroke-dasharray="0"/><path fill="white" stroke="#505050" paint-order="fill stroke markers" d=" M 995.2594146728516 84.80622386932373 L 1027.2594146728516 84.80622386932373 L 1027.2594146728516 102.80622386932373 L 995.2594146728516 102.80622386932373 L 995.2594146728516 84.80622386932373 Z" stroke-miterlimit="10" stroke-width="0.5" stroke-dasharray="0"/><path fill="#F0F0F0" stroke="none" paint-order="stroke fill markers" d=""/><path fill="none" stroke="#505050" paint-order="fill stroke markers" d=" M 1019.2594146728516 89.80622386932373 L 1027.2594146728516 89.80622386932373 L 1027.2594146728516 97.80622386932373 L 1019.2594146728516 97.80622386932373 L 1019.2594146728516 89.80622386932373 Z" stroke-miterlimit="10" stroke-width="0.5" stroke-dasharray="0"/><text fill="#505050" stroke="none" font-family="monospace" font-size="14px" font-style="normal" font-weight="normal" text-decoration="normal" x="1011.2594146728516" y="102.80622386932373" text-anchor="end" dominant-baseline="text-after-edge">1</text><path fill="white" stroke="#505050" paint-order="fill stroke markers" d=" M 307.38763350248337 180.13127899169922 L 307.38763350248337 576.318751335144 Q 307.38763350248337 584.318751335144 315.38763350248337 584.318751335144 L 1106.1468629837036 584.318751335144 Q 1114.1468629837036 584.318751335144 1114.1468629837036 576.318751335144 L 1114.1468629837036 180.13127899169922 Q 1114.1468629837036 172.13127899169922 1106.1468629837036 172.13127899169922 L 315.38763350248337 172.13127899169922 Q 307.38763350248337 172.13127899169922 307.38763350248337 180.13127899169922" stroke-miterlimit="10" stroke-width="0.5" stroke-dasharray="0"/><path fill="#F0F0F0" stroke="#505050" paint-order="fill stroke markers" d=" M 1030.1468629837036 180.13127899169922 L 1114.1468629837036 180.13127899169922 L 1114.1468629837036 260.1312789916992 L 1030.1468629837036 260.1312789916992 L 1030.1468629837036 180.13127899169922 Z" stroke-miterlimit="10" stroke-width="0.5" stroke-dasharray="0"/><text fill="#505050" stroke="none" font-family="monospace" font-size="14px" font-style="normal" font-weight="normal" text-decoration="normal" x="1072.1468629837036" y="198.13127899169922" text-anchor="middle" dominant-baseline="text-after-edge">partition</text><path fill="none" stroke="#505050" paint-order="fill stroke markers" d=" M 1030.1468629837036 198.13127899169922 L 1054.1468629837036 198.13127899169922 L 1054.1468629837036 214.13127899169922 L 1030.1468629837036 214.13127899169922 L 1030.1468629837036 198.13127899169922 Z" stroke-miterlimit="10" stroke-width="0.5" stroke-dasharray="0"/><path fill="none" stroke="#505050" paint-order="fill stroke markers" d=" M 1030.1468629837036 202.13127899169922 L 1038.1468629837036 202.13127899169922 L 1038.1468629837036 210.13127899169922 L 1030.1468629837036 210.13127899169922 L 1030.1468629837036 202.13127899169922 Z" stroke-miterlimit="10" stroke-width="0.5" stroke-dasharray="0"/><path fill="none" stroke="#505050" paint-order="fill stroke markers" d=" M 1046.1468629837036 202.13127899169922 L 1054.1468629837036 202.13127899169922 L 1054.1468629837036 210.13127899169922 L 1046.1468629837036 210.13127899169922 L 1046.1468629837036 202.13127899169922 Z" stroke-miterlimit="10" stroke-width="0.5" stroke-dasharray="0"/><text fill="#505050" stroke="none" font-family="monospace" font-size="14px" font-style="normal" font-weight="normal" text-decoration="normal" x="1062.1468629837036" y="215.13127899169922" text-anchor="start" dominant-baseline="text-after-edge">get</text><path fill="none" stroke="#505050" paint-order="fill stroke markers" d=" M 1030.1468629837036 219.13127899169922 L 1038.1468629837036 219.13127899169922 L 1038.1468629837036 227.13127899169922 L 1030.1468629837036 227.13127899169922 L 1030.1468629837036 219.13127899169922 Z" stroke-miterlimit="10" stroke-width="0.5" stroke-dasharray="0"/><text fill="#505050" stroke="none" font-family="monospace" font-size="14px" font-style="normal" font-weight="normal" text-decoration="normal" x="1046.1468629837036" y="232.13127899169922" text-anchor="start" dominant-baseline="text-after-edge">pivot</text><path fill="none" stroke="#505050" paint-order="fill stroke markers" d=" M 1030.1468629837036 233.13127899169922 L 1038.1468629837036 233.13127899169922 L 1038.1468629837036 241.13127899169922 L 1030.1468629837036 241.13127899169922 L 1030.1468629837036 233.13127899169922 Z" stroke-miterlimit="10" stroke-width="0.5" stroke-dasharray="0"/><text fill="#505050" stroke="none" font-family="monospace" font-size="14px" font-style="normal" font-weight="normal" text-decoration="normal" x="1046.1468629837036" y="246.13127899169922" text-anchor="start" dominant-baseline="text-after-edge">i</text><path fill="none" stroke="#505050" paint-order="fill stroke markers" d=" M 1030.1468629837036 247.13127899169922 L 1038.1468629837036 247.13127899169922 L 1038.1468629837036 255.13127899169922 L 1030.1468629837036 255.13127899169922 L 1030.1468629837036 247.13127899169922 Z" stroke-miterlimit="10" stroke-width="0.5" stroke-dasharray="0"/><text fill="#505050" stroke="none" font-family="monospace" font-size="14px" font-style="normal" font-weight="normal" text-decoration="normal" x="1046.1468629837036" y="260.1312789916992" text-anchor="start" dominant-baseline="text-after-edge">j</text><path fill="none" stroke="#505050" paint-order="fill stroke markers" d=" M 1106.1468629837036 198.13127899169922 L 1114.1468629837036 198.13127899169922 L 1114.1468629837036 206.13127899169922 L 1106.1468629837036 206.13127899169922 L 1106.1468629837036 198.13127899169922 Z" stroke-miterlimit="10" stroke-width="0.5" stroke-dasharray="0"/><path fill="none" stroke="#505050" paint-order="fill stroke markers" d=" M 1106.1468629837036 210.13127899169922 L 1114.1468629837036 210.13127899169922 L 1114.1468629837036 218.13127899169922 L 1106.1468629837036 218.13127899169922 L 1106.1468629837036 210.13127899169922 Z" stroke-miterlimit="10" stroke-width="0.5" stroke-dasharray="0"/><path fill="white" stroke="#505050" paint-order="fill stroke markers" d=" M 799.0687744021416 478.5718803405762 L 900.0687744021416 478.5718803405762 L 900.0687744021416 544.5718803405762 L 799.0687744021416 544.5718803405762 L 799.0687744021416 478.5718803405762 Z" stroke-miterlimit="10" stroke-width="0.5" stroke-dasharray="0"/><path fill="#F0F0F0" stroke="none" paint-order="stroke fill markers" d=" M 884.0687744021416 496.5718803405762 L 900.0687744021416 496.5718803405762 L 900.0687744021416 512.5718803405762 L 884.0687744021416 512.5718803405762 L 884.0687744021416 496.5718803405762 Z"/><text fill="#505050" stroke="none" font-family="monospace" font-size="14px" font-style="normal" font-weight="normal" text-decoration="normal" x="849.5687744021416" y="496.5718803405762" text-anchor="middle" dominant-baseline="text-after-edge">iter[n..i]-</text><path fill="none" stroke="#505050" paint-order="fill stroke markers" d=" M 799.0687744021416 496.5718803405762 L 823.0687744021416 496.5718803405762 L 823.0687744021416 512.5718803405762 L 799.0687744021416 512.5718803405762 L 799.0687744021416 496.5718803405762 Z" stroke-miterlimit="10" stroke-width="0.5" stroke-dasharray="0"/><path fill="none" stroke="#505050" paint-order="fill stroke markers" d=" M 799.0687744021416 500.5718803405762 L 807.0687744021416 500.5718803405762 L 807.0687744021416 508.5718803405762 L 799.0687744021416 508.5718803405762 L 799.0687744021416 500.5718803405762 Z" stroke-miterlimit="10" stroke-width="0.5" stroke-dasharray="0"/><path fill="none" stroke="#505050" paint-order="fill stroke markers" d=" M 815.0687744021416 500.5718803405762 L 823.0687744021416 500.5718803405762 L 823.0687744021416 508.5718803405762 L 815.0687744021416 508.5718803405762 L 815.0687744021416 500.5718803405762 Z" stroke-miterlimit="10" stroke-width="0.5" stroke-dasharray="0"/><path fill="none" stroke="#505050" paint-order="fill stroke markers" d=" M 799.0687744021416 517.5718803405762 L 807.0687744021416 517.5718803405762 L 807.0687744021416 525.5718803405762 L 799.0687744021416 525.5718803405762 L 799.0687744021416 517.5718803405762 Z" stroke-miterlimit="10" stroke-width="0.5" stroke-dasharray="0"/><text fill="#505050" stroke="none" font-family="monospace" font-size="14px" font-style="normal" font-weight="normal" text-decoration="normal" x="815.0687744021416" y="530.5718803405762" text-anchor="start" dominant-baseline="text-after-edge">n</text><path fill="none" stroke="#505050" paint-order="fill stroke markers" d=" M 799.0687744021416 531.5718803405762 L 807.0687744021416 531.5718803405762 L 807.0687744021416 539.5718803405762 L 799.0687744021416 539.5718803405762 L 799.0687744021416 531.5718803405762 Z" stroke-miterlimit="10" stroke-width="0.5" stroke-dasharray="0"/><text fill="#505050" stroke="none" font-family="monospace" font-size="14px" font-style="normal" font-weight="normal" text-decoration="normal" x="815.0687744021416" y="544.5718803405762" text-anchor="start" dominant-baseline="text-after-edge">i</text><path fill="none" stroke="#505050" paint-order="fill stroke markers" d=" M 884.0687744021416 496.5718803405762 L 900.0687744021416 496.5718803405762 L 900.0687744021416 512.5718803405762 L 884.0687744021416 512.5718803405762 L 884.0687744021416 496.5718803405762 Z" stroke-miterlimit="10" stroke-width="0.5" stroke-dasharray="0"/><path fill="none" stroke="#505050" paint-order="fill stroke markers" d=" M 892.0687744021416 500.5718803405762 L 900.0687744021416 500.5718803405762 L 900.0687744021416 508.5718803405762 L 892.0687744021416 508.5718803405762 L 892.0687744021416 500.5718803405762 Z" stroke-miterlimit="10" stroke-width="0.5" stroke-dasharray="0"/><path fill="white" stroke="#505050" paint-order="fill stroke markers" d=" M 393.6562015414238 188.86251068115234 L 393.6562015414238 306.6031379699707 Q 393.6562015414238 314.6031379699707 401.6562015414238 314.6031379699707 L 665.5001346468925 314.6031379699707 Q 673.5001346468925 314.6031379699707 673.5001346468925 306.6031379699707 L 673.5001346468925 188.86251068115234 Q 673.5001346468925 180.86251068115234 665.5001346468925 180.86251068115234 L 401.6562015414238 180.86251068115234 Q 393.6562015414238 180.86251068115234 393.6562015414238 188.86251068115234" stroke-miterlimit="10" stroke-width="0.5" stroke-dasharray="0"/><path fill="#F0F0F0" stroke="#505050" paint-order="fill stroke markers" d=" M 591.5001346468925 188.86251068115234 L 673.5001346468925 188.86251068115234 L 673.5001346468925 252.86251068115234 L 591.5001346468925 252.86251068115234 L 591.5001346468925 188.86251068115234 Z" stroke-miterlimit="10" stroke-width="0.5" stroke-dasharray="0"/><text fill="#505050" stroke="none" font-family="monospace" font-size="14px" font-style="normal" font-weight="normal" text-decoration="normal" x="632.5001346468925" y="206.86251068115234" text-anchor="middle" dominant-baseline="text-after-edge">advance</text><path fill="none" stroke="#505050" paint-order="fill stroke markers" d=" M 591.5001346468925 207.86251068115234 L 599.5001346468925 207.86251068115234 L 599.5001346468925 215.86251068115234 L 591.5001346468925 215.86251068115234 L 591.5001346468925 207.86251068115234 Z" stroke-miterlimit="10" stroke-width="0.5" stroke-dasharray="0"/><text fill="#505050" stroke="none" font-family="monospace" font-size="14px" font-style="normal" font-weight="normal" text-decoration="normal" x="607.5001346468925" y="220.86251068115234" text-anchor="start" dominant-baseline="text-after-edge">i</text><path fill="none" stroke="#505050" paint-order="fill stroke markers" d=" M 591.5001346468925 220.86251068115234 L 615.5001346468925 220.86251068115234 L 615.5001346468925 248.86251068115234 L 591.5001346468925 248.86251068115234 L 591.5001346468925 220.86251068115234 Z" stroke-miterlimit="10" stroke-width="0.5" stroke-dasharray="0"/><path fill="none" stroke="#505050" paint-order="fill stroke markers" d=" M 591.5001346468925 224.86251068115234 L 599.5001346468925 224.86251068115234 L 599.5001346468925 232.86251068115234 L 591.5001346468925 232.86251068115234 L 591.5001346468925 224.86251068115234 Z" stroke-miterlimit="10" stroke-width="0.5" stroke-dasharray="0"/><path fill="none" stroke="#505050" paint-order="fill stroke markers" d=" M 591.5001346468925 236.86251068115234 L 599.5001346468925 236.86251068115234 L 599.5001346468925 244.86251068115234 L 591.5001346468925 244.86251068115234 L 591.5001346468925 236.86251068115234 Z" stroke-miterlimit="10" stroke-width="0.5" stroke-dasharray="0"/><path fill="none" stroke="#505050" paint-order="fill stroke markers" d=" M 607.5001346468925 224.86251068115234 L 615.5001346468925 224.86251068115234 L 615.5001346468925 232.86251068115234 L 607.5001346468925 232.86251068115234 L 607.5001346468925 224.86251068115234 Z" stroke-miterlimit="10" stroke-width="0.5" stroke-dasharray="0"/><text fill="#505050" stroke="none" font-family="monospace" font-size="14px" font-style="normal" font-weight="normal" text-decoration="normal" x="623.5001346468925" y="243.86251068115234" text-anchor="start" dominant-baseline="text-after-edge">cond</text><path fill="none" stroke="#505050" paint-order="fill stroke markers" d=" M 665.5001346468925 206.86251068115234 L 673.5001346468925 206.86251068115234 L 673.5001346468925 214.86251068115234 L 665.5001346468925 214.86251068115234 L 665.5001346468925 206.86251068115234 Z" stroke-miterlimit="10" stroke-width="0.5" stroke-dasharray="0"/><path fill="white" stroke="#505050" paint-order="fill stroke markers" d=" M 404.8937675356865 215.6656608581543 L 436.8937675356865 215.6656608581543 L 436.8937675356865 233.6656608581543 L 404.8937675356865 233.6656608581543 L 412.8937675356865 224.6656608581543 L 404.8937675356865 215.6656608581543" stroke-miterlimit="10" stroke-width="0.5" stroke-dasharray="0"/><path fill="none" stroke="#505050" paint-order="fill stroke markers" d=" M 428.8937675356865 220.6656608581543 L 436.8937675356865 220.6656608581543 L 436.8937675356865 228.6656608581543 L 428.8937675356865 228.6656608581543 L 428.8937675356865 220.6656608581543 Z" stroke-miterlimit="10" stroke-width="0.5" stroke-dasharray="0"/><text fill="#505050" stroke="none" font-family="monospace" font-size="14px" font-style="normal" font-weight="normal" text-decoration="normal" x="420.8937675356865" y="233.6656608581543" text-anchor="end" dominant-baseline="text-after-edge">i</text><path fill="white" stroke="#505050" paint-order="fill stroke markers" d=" M 467.5749389529228 202.57501983642578 L 500.5749389529228 202.57501983642578 L 500.5749389529228 232.57501983642578 L 467.5749389529228 232.57501983642578 L 467.5749389529228 202.57501983642578 Z" stroke-miterlimit="10" stroke-width="0.5" stroke-dasharray="0"/><path fill="#F0F0F0" stroke="none" paint-order="stroke fill markers" d=""/><text fill="#505050" stroke="none" font-family="monospace" font-size="14px" font-style="normal" font-weight="normal" text-decoration="normal" x="484.0749389529228" y="220.57501983642578" text-anchor="middle" dominant-baseline="text-after-edge">get</text><path fill="none" stroke="#505050" paint-order="fill stroke markers" d=" M 467.5749389529228 220.57501983642578 L 475.5749389529228 220.57501983642578 L 475.5749389529228 228.57501983642578 L 467.5749389529228 228.57501983642578 L 467.5749389529228 220.57501983642578 Z" stroke-miterlimit="10" stroke-width="0.5" stroke-dasharray="0"/><path fill="none" stroke="#505050" paint-order="fill stroke markers" d=" M 492.5749389529228 220.57501983642578 L 500.5749389529228 220.57501983642578 L 500.5749389529228 228.57501983642578 L 492.5749389529228 228.57501983642578 L 492.5749389529228 220.57501983642578 Z" stroke-miterlimit="10" stroke-width="0.5" stroke-dasharray="0"/><path fill="#e0e0e0" stroke="none" paint-order="stroke fill markers" d=" M 381.4124328494072 199.13127899169922 L 373.4124328494072 184.13127899169922 L 373.4124328494072 214.13127899169922 Z M 459.5749389529228 217.57501983642578 L 467.5749389529228 202.57501983642578 L 467.5749389529228 232.57501983642578 Z"/><path fill="none" stroke="none"/><path fill="none" stroke="#e0e0e0" paint-order="fill stroke markers" d=" M 381.4124328494072 199.13127899169922 C 405.50515798181306 199.13127899169922 435.48221382051696 217.57501983642578 459.5749389529228 217.57501983642578" stroke-miterlimit="10" stroke-width="2" stroke-dasharray="0"/><path fill="white" stroke="#505050" paint-order="fill stroke markers" d=" M 567.9092285037041 221.4968719482422 L 575.9092285037041 221.4968719482422 L 583.9092285037041 229.4968719482422 L 575.9092285037041 237.4968719482422 L 567.9092285037041 237.4968719482422 L 567.9092285037041 221.4968719482422" stroke-miterlimit="10" stroke-width="0.5" stroke-dasharray="0"/><path fill="none" stroke="#505050" paint-order="fill stroke markers" d=" M 567.9092285037041 225.4968719482422 L 575.9092285037041 225.4968719482422 L 575.9092285037041 233.4968719482422 L 567.9092285037041 233.4968719482422 L 567.9092285037041 225.4968719482422 Z" stroke-miterlimit="10" stroke-width="0.5" stroke-dasharray="0"/><path fill="none" stroke="none"/><path fill="white" stroke="#505050" paint-order="fill stroke markers" d=" M 400.0313064455986 248.6031379699707 L 458.0313064455986 248.6031379699707 L 458.0313064455986 298.6031379699707 L 400.0313064455986 298.6031379699707 L 408.0313064455986 273.6031379699707 L 400.0313064455986 248.6031379699707" stroke-miterlimit="10" stroke-width="0.5" stroke-dasharray="6,3"/><path fill="#F0F0F0" stroke="none" paint-order="stroke fill markers" d=" M 416.0313064455986 252.6031379699707 L 458.0313064455986 252.6031379699707 L 458.0313064455986 294.6031379699707 L 416.0313064455986 294.6031379699707 L 416.0313064455986 252.6031379699707 Z"/><path fill="none" stroke="#505050" paint-order="fill stroke markers" d=" M 416.0313064455986 252.6031379699707 L 458.0313064455986 252.6031379699707 L 458.0313064455986 294.6031379699707 L 416.0313064455986 294.6031379699707 L 416.0313064455986 252.6031379699707 Z" stroke-miterlimit="10" stroke-width="0.5" stroke-dasharray="0"/><text fill="#505050" stroke="none" font-family="monospace" font-size="14px" font-style="normal" font-weight="normal" text-decoration="normal" x="437.0313064455986" y="270.6031379699707" text-anchor="middle" dominant-baseline="text-after-edge">cond</text><path fill="none" stroke="#505050" paint-order="fill stroke markers" d=" M 416.0313064455986 270.6031379699707 L 424.0313064455986 270.6031379699707 L 424.0313064455986 278.6031379699707 L 416.0313064455986 278.6031379699707 L 416.0313064455986 270.6031379699707 Z" stroke-miterlimit="10" stroke-width="0.5" stroke-dasharray="0"/><path fill="none" stroke="#505050" paint-order="fill stroke markers" d=" M 416.0313064455986 282.6031379699707 L 424.0313064455986 282.6031379699707 L 424.0313064455986 290.6031379699707 L 416.0313064455986 290.6031379699707 L 416.0313064455986 282.6031379699707 Z" stroke-miterlimit="10" stroke-width="0.5" stroke-dasharray="0"/><path fill="none" stroke="#505050" paint-order="fill stroke markers" d=" M 450.0313064455986 270.6031379699707 L 458.0313064455986 270.6031379699707 L 458.0313064455986 278.6031379699707 L 450.0313064455986 278.6031379699707 L 450.0313064455986 270.6031379699707 Z" stroke-miterlimit="10" stroke-width="0.5" stroke-dasharray="0"/><path fill="white" stroke="#505050" paint-order="fill stroke markers" d=" M 416.0313064455986 252.6031379699707 L 458.0313064455986 252.6031379699707 L 458.0313064455986 294.6031379699707 L 416.0313064455986 294.6031379699707 L 416.0313064455986 252.6031379699707 Z" stroke-miterlimit="10" stroke-width="0.5" stroke-dasharray="6,3"/><path fill="#F0F0F0" stroke="none" paint-order="stroke fill markers" d=""/><text fill="#505050" stroke="none" font-family="monospace" font-size="14px" font-style="normal" font-weight="normal" text-decoration="normal" x="437.0313064455986" y="270.6031379699707" text-anchor="middle" dominant-baseline="text-after-edge">cond</text><path fill="none" stroke="#505050" paint-order="fill stroke markers" d=" M 416.0313064455986 270.6031379699707 L 424.0313064455986 270.6031379699707 L 424.0313064455986 278.6031379699707 L 416.0313064455986 278.6031379699707 L 416.0313064455986 270.6031379699707 Z" stroke-miterlimit="10" stroke-width="0.5" stroke-dasharray="0"/><path fill="none" stroke="#505050" paint-order="fill stroke markers" d=" M 416.0313064455986 282.6031379699707 L 424.0313064455986 282.6031379699707 L 424.0313064455986 290.6031379699707 L 416.0313064455986 290.6031379699707 L 416.0313064455986 282.6031379699707 Z" stroke-miterlimit="10" stroke-width="0.5" stroke-dasharray="0"/><path fill="none" stroke="#505050" paint-order="fill stroke markers" d=" M 450.0313064455986 270.6031379699707 L 458.0313064455986 270.6031379699707 L 458.0313064455986 278.6031379699707 L 450.0313064455986 278.6031379699707 L 450.0313064455986 270.6031379699707 Z" stroke-miterlimit="10" stroke-width="0.5" stroke-dasharray="0"/><path fill="white" stroke="#505050" paint-order="fill stroke markers" d=" M 513.0843505859375 206.87501049041748 L 555.0843505859375 206.87501049041748 L 555.0843505859375 248.87501049041748 L 513.0843505859375 248.87501049041748 L 513.0843505859375 206.87501049041748 Z" stroke-miterlimit="10" stroke-width="0.5" stroke-dasharray="0"/><path fill="#F0F0F0" stroke="none" paint-order="stroke fill markers" d=""/><text fill="#505050" stroke="none" font-family="monospace" font-size="14px" font-style="normal" font-weight="normal" text-decoration="normal" x="534.0843505859375" y="224.87501049041748" text-anchor="middle" dominant-baseline="text-after-edge">cond</text><path fill="none" stroke="#505050" paint-order="fill stroke markers" d=" M 513.0843505859375 224.87501049041748 L 521.0843505859375 224.87501049041748 L 521.0843505859375 232.87501049041748 L 513.0843505859375 232.87501049041748 L 513.0843505859375 224.87501049041748 Z" stroke-miterlimit="10" stroke-width="0.5" stroke-dasharray="0"/><path fill="none" stroke="#505050" paint-order="fill stroke markers" d=" M 513.0843505859375 236.87501049041748 L 521.0843505859375 236.87501049041748 L 521.0843505859375 244.87501049041748 L 513.0843505859375 244.87501049041748 L 513.0843505859375 236.87501049041748 Z" stroke-miterlimit="10" stroke-width="0.5" stroke-dasharray="0"/><path fill="none" stroke="#505050" paint-order="fill stroke markers" d=" M 547.0843505859375 224.87501049041748 L 555.0843505859375 224.87501049041748 L 555.0843505859375 232.87501049041748 L 547.0843505859375 232.87501049041748 L 547.0843505859375 224.87501049041748 Z" stroke-miterlimit="10" stroke-width="0.5" stroke-dasharray="0"/><path fill="white" stroke="#505050" paint-order="fill stroke markers" d=" M 315.38763350248337 231.08439254760742 L 381.38763350248337 231.08439254760742 L 381.38763350248337 249.08439254760742 L 315.38763350248337 249.08439254760742 L 323.38763350248337 240.08439254760742 L 315.38763350248337 231.08439254760742" stroke-miterlimit="10" stroke-width="0.5" stroke-dasharray="0"/><path fill="none" stroke="#505050" paint-order="fill stroke markers" d=" M 373.38763350248337 236.08439254760742 L 381.38763350248337 236.08439254760742 L 381.38763350248337 244.08439254760742 L 373.38763350248337 244.08439254760742 L 373.38763350248337 236.08439254760742 Z" stroke-miterlimit="10" stroke-width="0.5" stroke-dasharray="0"/><text fill="#505050" stroke="none" font-family="monospace" font-size="14px" font-style="normal" font-weight="normal" text-decoration="normal" x="365.38763350248337" y="249.08439254760742" text-anchor="end" dominant-baseline="text-after-edge">pivot</text><path fill="none" stroke="none"/><path fill="white" stroke="#505050" paint-order="fill stroke markers" d=" M 324.4124328494072 180.13127899169922 L 373.4124328494072 180.13127899169922 L 373.4124328494072 218.13127899169922 L 324.4124328494072 218.13127899169922 L 332.4124328494072 199.13127899169922 L 324.4124328494072 180.13127899169922" stroke-miterlimit="10" stroke-width="0.5" stroke-dasharray="6,3"/><path fill="#F0F0F0" stroke="none" paint-order="stroke fill markers" d=" M 340.4124328494072 184.13127899169922 L 373.4124328494072 184.13127899169922 L 373.4124328494072 214.13127899169922 L 340.4124328494072 214.13127899169922 L 340.4124328494072 184.13127899169922 Z"/><path fill="none" stroke="#505050" paint-order="fill stroke markers" d=" M 340.4124328494072 184.13127899169922 L 373.4124328494072 184.13127899169922 L 373.4124328494072 214.13127899169922 L 340.4124328494072 214.13127899169922 L 340.4124328494072 184.13127899169922 Z" stroke-miterlimit="10" stroke-width="0.5" stroke-dasharray="0"/><text fill="#505050" stroke="none" font-family="monospace" font-size="14px" font-style="normal" font-weight="normal" text-decoration="normal" x="356.9124328494072" y="202.13127899169922" text-anchor="middle" dominant-baseline="text-after-edge">get</text><path fill="none" stroke="#505050" paint-order="fill stroke markers" d=" M 340.4124328494072 202.13127899169922 L 348.4124328494072 202.13127899169922 L 348.4124328494072 210.13127899169922 L 340.4124328494072 210.13127899169922 L 340.4124328494072 202.13127899169922 Z" stroke-miterlimit="10" stroke-width="0.5" stroke-dasharray="0"/><path fill="none" stroke="#505050" paint-order="fill stroke markers" d=" M 365.4124328494072 202.13127899169922 L 373.4124328494072 202.13127899169922 L 373.4124328494072 210.13127899169922 L 365.4124328494072 210.13127899169922 L 365.4124328494072 202.13127899169922 Z" stroke-miterlimit="10" stroke-width="0.5" stroke-dasharray="0"/><path fill="white" stroke="#505050" paint-order="fill stroke markers" d=" M 340.4124328494072 184.13127899169922 L 373.4124328494072 184.13127899169922 L 373.4124328494072 214.13127899169922 L 340.4124328494072 214.13127899169922 L 340.4124328494072 184.13127899169922 Z" stroke-miterlimit="10" stroke-width="0.5" stroke-dasharray="6,3"/><path fill="#F0F0F0" stroke="none" paint-order="stroke fill markers" d=""/><text fill="#505050" stroke="none" font-family="monospace" font-size="14px" font-style="normal" font-weight="normal" text-decoration="normal" x="356.9124328494072" y="202.13127899169922" text-anchor="middle" dominant-baseline="text-after-edge">get</text><path fill="none" stroke="#505050" paint-order="fill stroke markers" d=" M 340.4124328494072 202.13127899169922 L 348.4124328494072 202.13127899169922 L 348.4124328494072 210.13127899169922 L 340.4124328494072 210.13127899169922 L 340.4124328494072 202.13127899169922 Z" stroke-miterlimit="10" stroke-width="0.5" stroke-dasharray="0"/><path fill="none" stroke="#505050" paint-order="fill stroke markers" d=" M 365.4124328494072 202.13127899169922 L 373.4124328494072 202.13127899169922 L 373.4124328494072 210.13127899169922 L 365.4124328494072 210.13127899169922 L 365.4124328494072 202.13127899169922 Z" stroke-miterlimit="10" stroke-width="0.5" stroke-dasharray="0"/><path fill="white" stroke="#505050" paint-order="fill stroke markers" d=" M 702.5437135696411 426.8656520843506 L 734.5437135696411 426.8656520843506 L 734.5437135696411 444.8656520843506 L 702.5437135696411 444.8656520843506 L 710.5437135696411 435.8656520843506 L 702.5437135696411 426.8656520843506" stroke-miterlimit="10" stroke-width="0.5" stroke-dasharray="0"/><path fill="none" stroke="#505050" paint-order="fill stroke markers" d=" M 726.5437135696411 431.8656520843506 L 734.5437135696411 431.8656520843506 L 734.5437135696411 439.8656520843506 L 726.5437135696411 439.8656520843506 L 726.5437135696411 431.8656520843506 Z" stroke-miterlimit="10" stroke-width="0.5" stroke-dasharray="0"/><text fill="#505050" stroke="none" font-family="monospace" font-size="14px" font-style="normal" font-weight="normal" text-decoration="normal" x="718.5437135696411" y="444.8656520843506" text-anchor="end" dominant-baseline="text-after-edge">i</text><path fill="white" stroke="#505050" paint-order="fill stroke markers" d=" M 702.2592897415161 452.75316429138184 L 734.2592897415161 452.75316429138184 L 734.2592897415161 470.75316429138184 L 702.2592897415161 470.75316429138184 L 710.2592897415161 461.75316429138184 L 702.2592897415161 452.75316429138184" stroke-miterlimit="10" stroke-width="0.5" stroke-dasharray="0"/><path fill="none" stroke="#505050" paint-order="fill stroke markers" d=" M 726.2592897415161 457.75316429138184 L 734.2592897415161 457.75316429138184 L 734.2592897415161 465.75316429138184 L 726.2592897415161 465.75316429138184 L 726.2592897415161 457.75316429138184 Z" stroke-miterlimit="10" stroke-width="0.5" stroke-dasharray="0"/><text fill="#505050" stroke="none" font-family="monospace" font-size="14px" font-style="normal" font-weight="normal" text-decoration="normal" x="718.2592897415161" y="470.75316429138184" text-anchor="end" dominant-baseline="text-after-edge">j</text><path fill="white" stroke="#505050" paint-order="fill stroke markers" d=" M 942.5843629837036 362.3375301361084 L 950.5843629837036 362.3375301361084 L 958.5843629837036 370.3375301361084 L 950.5843629837036 378.3375301361084 L 942.5843629837036 378.3375301361084 L 942.5843629837036 362.3375301361084" stroke-miterlimit="10" stroke-width="0.5" stroke-dasharray="0"/><path fill="none" stroke="#505050" paint-order="fill stroke markers" d=" M 942.5843629837036 366.3375301361084 L 950.5843629837036 366.3375301361084 L 950.5843629837036 374.3375301361084 L 942.5843629837036 374.3375301361084 L 942.5843629837036 366.3375301361084 Z" stroke-miterlimit="10" stroke-width="0.5" stroke-dasharray="0"/><path fill="white" stroke="#505050" paint-order="fill stroke markers" d=" M 913.2061891555786 377.15314292907715 L 929.2061891555786 377.15314292907715 L 929.2061891555786 393.15314292907715 L 913.2061891555786 393.15314292907715 L 913.2061891555786 377.15314292907715 Z" stroke-miterlimit="10" stroke-width="0.5" stroke-dasharray="0"/><path fill="#F0F0F0" stroke="none" paint-order="stroke fill markers" d=""/><path fill="none" stroke="#505050" paint-order="fill stroke markers" d=" M 921.2061891555786 381.15314292907715 L 929.2061891555786 381.15314292907715 L 929.2061891555786 389.15314292907715 L 921.2061891555786 389.15314292907715 L 921.2061891555786 381.15314292907715 Z" stroke-miterlimit="10" stroke-width="0.5" stroke-dasharray="0"/><path fill="white" stroke="#505050" paint-order="fill stroke markers" d=" M 786.0966674685478 352.68132400512695 L 887.0966674685478 352.68132400512695 L 887.0966674685478 418.68132400512695 L 786.0966674685478 418.68132400512695 L 786.0966674685478 352.68132400512695 Z" stroke-miterlimit="10" stroke-width="0.5" stroke-dasharray="0"/><path fill="#F0F0F0" stroke="none" paint-order="stroke fill markers" d=" M 871.0966674685478 370.68132400512695 L 887.0966674685478 370.68132400512695 L 887.0966674685478 386.68132400512695 L 871.0966674685478 386.68132400512695 L 871.0966674685478 370.68132400512695 Z"/><text fill="#505050" stroke="none" font-family="monospace" font-size="14px" font-style="normal" font-weight="normal" text-decoration="normal" x="836.5966674685478" y="370.68132400512695" text-anchor="middle" dominant-baseline="text-after-edge">iter[i..n[+</text><path fill="none" stroke="#505050" paint-order="fill stroke markers" d=" M 786.0966674685478 370.68132400512695 L 810.0966674685478 370.68132400512695 L 810.0966674685478 386.68132400512695 L 786.0966674685478 386.68132400512695 L 786.0966674685478 370.68132400512695 Z" stroke-miterlimit="10" stroke-width="0.5" stroke-dasharray="0"/><path fill="none" stroke="#505050" paint-order="fill stroke markers" d=" M 786.0966674685478 374.68132400512695 L 794.0966674685478 374.68132400512695 L 794.0966674685478 382.68132400512695 L 786.0966674685478 382.68132400512695 L 786.0966674685478 374.68132400512695 Z" stroke-miterlimit="10" stroke-width="0.5" stroke-dasharray="0"/><path fill="none" stroke="#505050" paint-order="fill stroke markers" d=" M 802.0966674685478 374.68132400512695 L 810.0966674685478 374.68132400512695 L 810.0966674685478 382.68132400512695 L 802.0966674685478 382.68132400512695 L 802.0966674685478 374.68132400512695 Z" stroke-miterlimit="10" stroke-width="0.5" stroke-dasharray="0"/><path fill="none" stroke="#505050" paint-order="fill stroke markers" d=" M 786.0966674685478 391.68132400512695 L 794.0966674685478 391.68132400512695 L 794.0966674685478 399.68132400512695 L 786.0966674685478 399.68132400512695 L 786.0966674685478 391.68132400512695 Z" stroke-miterlimit="10" stroke-width="0.5" stroke-dasharray="0"/><text fill="#505050" stroke="none" font-family="monospace" font-size="14px" font-style="normal" font-weight="normal" text-decoration="normal" x="802.0966674685478" y="404.68132400512695" text-anchor="start" dominant-baseline="text-after-edge">i</text><path fill="none" stroke="#505050" paint-order="fill stroke markers" d=" M 786.0966674685478 405.68132400512695 L 794.0966674685478 405.68132400512695 L 794.0966674685478 413.68132400512695 L 786.0966674685478 413.68132400512695 L 786.0966674685478 405.68132400512695 Z" stroke-miterlimit="10" stroke-width="0.5" stroke-dasharray="0"/><text fill="#505050" stroke="none" font-family="monospace" font-size="14px" font-style="normal" font-weight="normal" text-decoration="normal" x="802.0966674685478" y="418.68132400512695" text-anchor="start" dominant-baseline="text-after-edge">n</text><path fill="none" stroke="#505050" paint-order="fill stroke markers" d=" M 871.0966674685478 370.68132400512695 L 887.0966674685478 370.68132400512695 L 887.0966674685478 386.68132400512695 L 871.0966674685478 386.68132400512695 L 871.0966674685478 370.68132400512695 Z" stroke-miterlimit="10" stroke-width="0.5" stroke-dasharray="0"/><path fill="none" stroke="#505050" paint-order="fill stroke markers" d=" M 879.0966674685478 374.68132400512695 L 887.0966674685478 374.68132400512695 L 887.0966674685478 382.68132400512695 L 879.0966674685478 382.68132400512695 L 879.0966674685478 374.68132400512695 Z" stroke-miterlimit="10" stroke-width="0.5" stroke-dasharray="0"/><path fill="white" stroke="#505050" paint-order="fill stroke markers" d=" M 947.3125123977661 515.9250392913818 L 955.3125123977661 515.9250392913818 L 963.3125123977661 523.9250392913818 L 955.3125123977661 531.9250392913818 L 947.3125123977661 531.9250392913818 L 947.3125123977661 515.9250392913818" stroke-miterlimit="10" stroke-width="0.5" stroke-dasharray="0"/><path fill="none" stroke="#505050" paint-order="fill stroke markers" d=" M 947.3125123977661 519.9250392913818 L 955.3125123977661 519.9250392913818 L 955.3125123977661 527.9250392913818 L 947.3125123977661 527.9250392913818 L 947.3125123977661 519.9250392913818 Z" stroke-miterlimit="10" stroke-width="0.5" stroke-dasharray="0"/><path fill="white" stroke="#505050" paint-order="fill stroke markers" d=" M 915.0468263626099 495.0594081878662 L 931.0468263626099 495.0594081878662 L 931.0468263626099 511.0594081878662 L 915.0468263626099 511.0594081878662 L 915.0468263626099 495.0594081878662 Z" stroke-miterlimit="10" stroke-width="0.5" stroke-dasharray="0"/><path fill="#F0F0F0" stroke="none" paint-order="stroke fill markers" d=""/><path fill="none" stroke="#505050" paint-order="fill stroke markers" d=" M 923.0468263626099 499.0594081878662 L 931.0468263626099 499.0594081878662 L 931.0468263626099 507.0594081878662 L 923.0468263626099 507.0594081878662 L 923.0468263626099 499.0594081878662 Z" stroke-miterlimit="10" stroke-width="0.5" stroke-dasharray="0"/><path fill="white" stroke="#505050" paint-order="fill stroke markers" d=" M 451.9656386375427 344.91876220703125 L 451.9656386375427 434.1437530517578 Q 451.9656386375427 442.1437530517578 459.9656386375427 442.1437530517578 L 683.8094115257263 442.1437530517578 Q 691.8094115257263 442.1437530517578 691.8094115257263 434.1437530517578 L 691.8094115257263 344.91876220703125 Q 691.8094115257263 336.91876220703125 683.8094115257263 336.91876220703125 L 459.9656386375427 336.91876220703125 Q 451.9656386375427 336.91876220703125 451.9656386375427 344.91876220703125" stroke-miterlimit="10" stroke-width="0.5" stroke-dasharray="0"/><path fill="#F0F0F0" stroke="#505050" paint-order="fill stroke markers" d=" M 632.8094115257263 344.91876220703125 L 691.8094115257263 344.91876220703125 L 691.8094115257263 374.91876220703125 L 632.8094115257263 374.91876220703125 L 632.8094115257263 344.91876220703125 Z" stroke-miterlimit="10" stroke-width="0.5" stroke-dasharray="0"/><text fill="#505050" stroke="none" font-family="monospace" font-size="14px" font-style="normal" font-weight="normal" text-decoration="normal" x="662.3094115257263" y="362.91876220703125" text-anchor="middle" dominant-baseline="text-after-edge">advLow</text><path fill="none" stroke="#505050" paint-order="fill stroke markers" d=" M 632.8094115257263 362.91876220703125 L 640.8094115257263 362.91876220703125 L 640.8094115257263 370.91876220703125 L 632.8094115257263 370.91876220703125 L 632.8094115257263 362.91876220703125 Z" stroke-miterlimit="10" stroke-width="0.5" stroke-dasharray="0"/><path fill="none" stroke="#505050" paint-order="fill stroke markers" d=" M 683.8094115257263 362.91876220703125 L 691.8094115257263 362.91876220703125 L 691.8094115257263 370.91876220703125 L 683.8094115257263 370.91876220703125 L 683.8094115257263 362.91876220703125 Z" stroke-miterlimit="10" stroke-width="0.5" stroke-dasharray="0"/><path fill="none" stroke="none"/><path fill="white" stroke="#505050" paint-order="fill stroke markers" d=" M 459.9656386375427 376.1437530517578 L 492.9656386375427 376.1437530517578 L 500.9656386375427 401.1437530517578 L 492.9656386375427 426.1437530517578 L 459.9656386375427 426.1437530517578 L 459.9656386375427 376.1437530517578" stroke-miterlimit="10" stroke-width="0.5" stroke-dasharray="0"/><path fill="white" stroke="#505050" paint-order="fill stroke markers" d=" M 467.9656386375427 380.1437530517578 L 492.9656386375427 380.1437530517578 L 492.9656386375427 422.1437530517578 L 467.9656386375427 422.1437530517578 L 467.9656386375427 380.1437530517578 Z" stroke-miterlimit="10" stroke-width="0.5" stroke-dasharray="0"/><path fill="#F0F0F0" stroke="none" paint-order="stroke fill markers" d=""/><text fill="#505050" stroke="none" font-family="monospace" font-size="14px" font-style="normal" font-weight="normal" text-decoration="normal" x="480.4656386375427" y="398.1437530517578" text-anchor="middle" dominant-baseline="text-after-edge">&lt;=</text><path fill="none" stroke="#505050" paint-order="fill stroke markers" d=" M 467.9656386375427 398.1437530517578 L 475.9656386375427 398.1437530517578 L 475.9656386375427 406.1437530517578 L 467.9656386375427 406.1437530517578 L 467.9656386375427 398.1437530517578 Z" stroke-miterlimit="10" stroke-width="0.5" stroke-dasharray="0"/><path fill="none" stroke="#505050" paint-order="fill stroke markers" d=" M 467.9656386375427 410.1437530517578 L 475.9656386375427 410.1437530517578 L 475.9656386375427 418.1437530517578 L 467.9656386375427 418.1437530517578 L 467.9656386375427 410.1437530517578 Z" stroke-miterlimit="10" stroke-width="0.5" stroke-dasharray="0"/><path fill="none" stroke="#505050" paint-order="fill stroke markers" d=" M 484.9656386375427 398.1437530517578 L 492.9656386375427 398.1437530517578 L 492.9656386375427 406.1437530517578 L 484.9656386375427 406.1437530517578 L 484.9656386375427 398.1437530517578 Z" stroke-miterlimit="10" stroke-width="0.5" stroke-dasharray="0"/><path fill="white" stroke="#505050" paint-order="fill stroke markers" d=" M 511.9187865257263 344.91876220703125 L 593.9187865257263 344.91876220703125 L 593.9187865257263 408.91876220703125 L 511.9187865257263 408.91876220703125 L 511.9187865257263 344.91876220703125 Z" stroke-miterlimit="10" stroke-width="0.5" stroke-dasharray="0"/><path fill="#F0F0F0" stroke="none" paint-order="stroke fill markers" d=""/><text fill="#505050" stroke="none" font-family="monospace" font-size="14px" font-style="normal" font-weight="normal" text-decoration="normal" x="552.9187865257263" y="362.91876220703125" text-anchor="middle" dominant-baseline="text-after-edge">advance</text><path fill="none" stroke="#505050" paint-order="fill stroke markers" d=" M 511.9187865257263 363.91876220703125 L 519.9187865257263 363.91876220703125 L 519.9187865257263 371.91876220703125 L 511.9187865257263 371.91876220703125 L 511.9187865257263 363.91876220703125 Z" stroke-miterlimit="10" stroke-width="0.5" stroke-dasharray="0"/><text fill="#505050" stroke="none" font-family="monospace" font-size="14px" font-style="normal" font-weight="normal" text-decoration="normal" x="527.9187865257263" y="376.91876220703125" text-anchor="start" dominant-baseline="text-after-edge">i</text><path fill="none" stroke="#505050" paint-order="fill stroke markers" d=" M 511.9187865257263 376.91876220703125 L 535.9187865257263 376.91876220703125 L 535.9187865257263 404.91876220703125 L 511.9187865257263 404.91876220703125 L 511.9187865257263 376.91876220703125 Z" stroke-miterlimit="10" stroke-width="0.5" stroke-dasharray="0"/><path fill="none" stroke="#505050" paint-order="fill stroke markers" d=" M 511.9187865257263 380.91876220703125 L 519.9187865257263 380.91876220703125 L 519.9187865257263 388.91876220703125 L 511.9187865257263 388.91876220703125 L 511.9187865257263 380.91876220703125 Z" stroke-miterlimit="10" stroke-width="0.5" stroke-dasharray="0"/><path fill="none" stroke="#505050" paint-order="fill stroke markers" d=" M 511.9187865257263 392.91876220703125 L 519.9187865257263 392.91876220703125 L 519.9187865257263 400.91876220703125 L 511.9187865257263 400.91876220703125 L 511.9187865257263 392.91876220703125 Z" stroke-miterlimit="10" stroke-width="0.5" stroke-dasharray="0"/><path fill="none" stroke="#505050" paint-order="fill stroke markers" d=" M 527.9187865257263 380.91876220703125 L 535.9187865257263 380.91876220703125 L 535.9187865257263 388.91876220703125 L 527.9187865257263 388.91876220703125 L 527.9187865257263 380.91876220703125 Z" stroke-miterlimit="10" stroke-width="0.5" stroke-dasharray="0"/><text fill="#505050" stroke="none" font-family="monospace" font-size="14px" font-style="normal" font-weight="normal" text-decoration="normal" x="543.9187865257263" y="399.91876220703125" text-anchor="start" dominant-baseline="text-after-edge">cond</text><path fill="none" stroke="#505050" paint-order="fill stroke markers" d=" M 585.9187865257263 362.91876220703125 L 593.9187865257263 362.91876220703125 L 593.9187865257263 370.91876220703125 L 585.9187865257263 370.91876220703125 L 585.9187865257263 362.91876220703125 Z" stroke-miterlimit="10" stroke-width="0.5" stroke-dasharray="0"/><path fill="#e0e0e0" stroke="none" paint-order="stroke fill markers" d=" M 681.5001346468925 220.86251068115234 L 673.5001346468925 188.86251068115234 L 673.5001346468925 252.86251068115234 Z M 503.9187865257263 376.91876220703125 L 511.9187865257263 344.91876220703125 L 511.9187865257263 408.91876220703125 Z"/><path fill="none" stroke="none"/><path fill="none" stroke="#e0e0e0" paint-order="fill stroke markers" d=" M 681.5001346468925 220.86251068115234 C 752.4225006231876 220.86251068115234 432.9964205494313 376.91876220703125 503.9187865257263 376.91876220703125" stroke-miterlimit="10" stroke-width="2" stroke-dasharray="0"/><path fill="white" stroke="#505050" paint-order="fill stroke markers" d=" M 609.9187865257263 358.91876220703125 L 617.9187865257263 358.91876220703125 L 625.9187865257263 366.91876220703125 L 617.9187865257263 374.91876220703125 L 609.9187865257263 374.91876220703125 L 609.9187865257263 358.91876220703125" stroke-miterlimit="10" stroke-width="0.5" stroke-dasharray="0"/><path fill="none" stroke="#505050" paint-order="fill stroke markers" d=" M 609.9187865257263 362.91876220703125 L 617.9187865257263 362.91876220703125 L 617.9187865257263 370.91876220703125 L 609.9187865257263 370.91876220703125 L 609.9187865257263 362.91876220703125 Z" stroke-miterlimit="10" stroke-width="0.5" stroke-dasharray="0"/><path fill="white" stroke="#505050" paint-order="fill stroke markers" d=" M 478.77501821517944 347.9906311035156 L 494.77501821517944 347.9906311035156 L 494.77501821517944 363.9906311035156 L 478.77501821517944 363.9906311035156 L 486.77501821517944 355.9906311035156 L 478.77501821517944 347.9906311035156" stroke-miterlimit="10" stroke-width="0.5" stroke-dasharray="0"/><path fill="none" stroke="#505050" paint-order="fill stroke markers" d=" M 486.77501821517944 351.9906311035156 L 494.77501821517944 351.9906311035156 L 494.77501821517944 359.9906311035156 L 486.77501821517944 359.9906311035156 L 486.77501821517944 351.9906311035156 Z" stroke-miterlimit="10" stroke-width="0.5" stroke-dasharray="0"/><path fill="white" stroke="#505050" paint-order="fill stroke markers" d=" M 453.38437032699585 462.8468933105469 L 453.38437032699585 556.3625259399414 Q 453.38437032699585 564.3625259399414 461.38437032699585 564.3625259399414 L 680.7968993186951 564.3625259399414 Q 688.7968993186951 564.3625259399414 688.7968993186951 556.3625259399414 L 688.7968993186951 462.8468933105469 Q 688.7968993186951 454.8468933105469 680.7968993186951 454.8468933105469 L 461.38437032699585 454.8468933105469 Q 453.38437032699585 454.8468933105469 453.38437032699585 462.8468933105469" stroke-miterlimit="10" stroke-width="0.5" stroke-dasharray="0"/><path fill="#F0F0F0" stroke="#505050" paint-order="fill stroke markers" d=" M 621.7968993186951 462.8468933105469 L 688.7968993186951 462.8468933105469 L 688.7968993186951 492.8468933105469 L 621.7968993186951 492.8468933105469 L 621.7968993186951 462.8468933105469 Z" stroke-miterlimit="10" stroke-width="0.5" stroke-dasharray="0"/><text fill="#505050" stroke="none" font-family="monospace" font-size="14px" font-style="normal" font-weight="normal" text-decoration="normal" x="655.2968993186951" y="480.8468933105469" text-anchor="middle" dominant-baseline="text-after-edge">advHigh</text><path fill="none" stroke="#505050" paint-order="fill stroke markers" d=" M 621.7968993186951 480.8468933105469 L 629.7968993186951 480.8468933105469 L 629.7968993186951 488.8468933105469 L 621.7968993186951 488.8468933105469 L 621.7968993186951 480.8468933105469 Z" stroke-miterlimit="10" stroke-width="0.5" stroke-dasharray="0"/><path fill="none" stroke="#505050" paint-order="fill stroke markers" d=" M 680.7968993186951 480.8468933105469 L 688.7968993186951 480.8468933105469 L 688.7968993186951 488.8468933105469 L 680.7968993186951 488.8468933105469 L 680.7968993186951 480.8468933105469 Z" stroke-miterlimit="10" stroke-width="0.5" stroke-dasharray="0"/><path fill="white" stroke="#505050" paint-order="fill stroke markers" d=" M 484.1499876976013 477.8468933105469 L 500.1499876976013 477.8468933105469 L 500.1499876976013 493.8468933105469 L 484.1499876976013 493.8468933105469 L 492.1499876976013 485.8468933105469 L 484.1499876976013 477.8468933105469" stroke-miterlimit="10" stroke-width="0.5" stroke-dasharray="0"/><path fill="none" stroke="#505050" paint-order="fill stroke markers" d=" M 492.1499876976013 481.8468933105469 L 500.1499876976013 481.8468933105469 L 500.1499876976013 489.8468933105469 L 492.1499876976013 489.8468933105469 L 492.1499876976013 481.8468933105469 Z" stroke-miterlimit="10" stroke-width="0.5" stroke-dasharray="0"/><path fill="white" stroke="#505050" paint-order="fill stroke markers" d=" M 516.1499876976013 462.8468933105469 L 598.1499876976013 462.8468933105469 L 598.1499876976013 526.8468933105469 L 516.1499876976013 526.8468933105469 L 516.1499876976013 462.8468933105469 Z" stroke-miterlimit="10" stroke-width="0.5" stroke-dasharray="0"/><path fill="#F0F0F0" stroke="none" paint-order="stroke fill markers" d=""/><text fill="#505050" stroke="none" font-family="monospace" font-size="14px" font-style="normal" font-weight="normal" text-decoration="normal" x="557.1499876976013" y="480.8468933105469" text-anchor="middle" dominant-baseline="text-after-edge">advance</text><path fill="none" stroke="#505050" paint-order="fill stroke markers" d=" M 516.1499876976013 481.8468933105469 L 524.1499876976013 481.8468933105469 L 524.1499876976013 489.8468933105469 L 516.1499876976013 489.8468933105469 L 516.1499876976013 481.8468933105469 Z" stroke-miterlimit="10" stroke-width="0.5" stroke-dasharray="0"/><text fill="#505050" stroke="none" font-family="monospace" font-size="14px" font-style="normal" font-weight="normal" text-decoration="normal" x="532.1499876976013" y="494.8468933105469" text-anchor="start" dominant-baseline="text-after-edge">i</text><path fill="none" stroke="#505050" paint-order="fill stroke markers" d=" M 516.1499876976013 494.8468933105469 L 540.1499876976013 494.8468933105469 L 540.1499876976013 522.8468933105469 L 516.1499876976013 522.8468933105469 L 516.1499876976013 494.8468933105469 Z" stroke-miterlimit="10" stroke-width="0.5" stroke-dasharray="0"/><path fill="none" stroke="#505050" paint-order="fill stroke markers" d=" M 516.1499876976013 498.8468933105469 L 524.1499876976013 498.8468933105469 L 524.1499876976013 506.8468933105469 L 516.1499876976013 506.8468933105469 L 516.1499876976013 498.8468933105469 Z" stroke-miterlimit="10" stroke-width="0.5" stroke-dasharray="0"/><path fill="none" stroke="#505050" paint-order="fill stroke markers" d=" M 516.1499876976013 510.8468933105469 L 524.1499876976013 510.8468933105469 L 524.1499876976013 518.8468933105469 L 516.1499876976013 518.8468933105469 L 516.1499876976013 510.8468933105469 Z" stroke-miterlimit="10" stroke-width="0.5" stroke-dasharray="0"/><path fill="none" stroke="#505050" paint-order="fill stroke markers" d=" M 532.1499876976013 498.8468933105469 L 540.1499876976013 498.8468933105469 L 540.1499876976013 506.8468933105469 L 532.1499876976013 506.8468933105469 L 532.1499876976013 498.8468933105469 Z" stroke-miterlimit="10" stroke-width="0.5" stroke-dasharray="0"/><text fill="#505050" stroke="none" font-family="monospace" font-size="14px" font-style="normal" font-weight="normal" text-decoration="normal" x="548.1499876976013" y="517.8468933105469" text-anchor="start" dominant-baseline="text-after-edge">cond</text><path fill="none" stroke="#505050" paint-order="fill stroke markers" d=" M 590.1499876976013 480.8468933105469 L 598.1499876976013 480.8468933105469 L 598.1499876976013 488.8468933105469 L 590.1499876976013 488.8468933105469 L 590.1499876976013 480.8468933105469 Z" stroke-miterlimit="10" stroke-width="0.5" stroke-dasharray="0"/><path fill="#e0e0e0" stroke="none" paint-order="stroke fill markers" d=" M 681.5001346468925 220.86251068115234 L 673.5001346468925 188.86251068115234 L 673.5001346468925 252.86251068115234 Z M 508.1499876976013 494.8468933105469 L 516.1499876976013 462.8468933105469 L 516.1499876976013 526.8468933105469 Z"/><path fill="none" stroke="none"/><path fill="none" stroke="#e0e0e0" paint-order="fill stroke markers" d=" M 681.5001346468925 220.86251068115234 C 778.7657214877358 220.86251068115234 410.8844008567581 494.8468933105469 508.1499876976013 494.8468933105469" stroke-miterlimit="10" stroke-width="2" stroke-dasharray="0"/><path fill="white" stroke="#505050" paint-order="fill stroke markers" d=" M 614.1499876976013 476.8468933105469 L 622.1499876976013 476.8468933105469 L 630.1499876976013 484.8468933105469 L 622.1499876976013 492.8468933105469 L 614.1499876976013 492.8468933105469 L 614.1499876976013 476.8468933105469" stroke-miterlimit="10" stroke-width="0.5" stroke-dasharray="0"/><path fill="none" stroke="#505050" paint-order="fill stroke markers" d=" M 614.1499876976013 480.8468933105469 L 622.1499876976013 480.8468933105469 L 622.1499876976013 488.8468933105469 L 614.1499876976013 488.8468933105469 L 614.1499876976013 480.8468933105469 Z" stroke-miterlimit="10" stroke-width="0.5" stroke-dasharray="0"/><path fill="none" stroke="none"/><path fill="white" stroke="#505050" paint-order="fill stroke markers" d=" M 461.38437032699585 498.3625259399414 L 494.38437032699585 498.3625259399414 L 502.38437032699585 523.3625259399414 L 494.38437032699585 548.3625259399414 L 461.38437032699585 548.3625259399414 L 461.38437032699585 498.3625259399414" stroke-miterlimit="10" stroke-width="0.5" stroke-dasharray="0"/><path fill="white" stroke="#505050" paint-order="fill stroke markers" d=" M 469.38437032699585 502.3625259399414 L 494.38437032699585 502.3625259399414 L 494.38437032699585 544.3625259399414 L 469.38437032699585 544.3625259399414 L 469.38437032699585 502.3625259399414 Z" stroke-miterlimit="10" stroke-width="0.5" stroke-dasharray="0"/><path fill="#F0F0F0" stroke="none" paint-order="stroke fill markers" d=""/><text fill="#505050" stroke="none" font-family="monospace" font-size="14px" font-style="normal" font-weight="normal" text-decoration="normal" x="481.88437032699585" y="520.3625259399414" text-anchor="middle" dominant-baseline="text-after-edge">&gt;=</text><path fill="none" stroke="#505050" paint-order="fill stroke markers" d=" M 469.38437032699585 520.3625259399414 L 477.38437032699585 520.3625259399414 L 477.38437032699585 528.3625259399414 L 469.38437032699585 528.3625259399414 L 469.38437032699585 520.3625259399414 Z" stroke-miterlimit="10" stroke-width="0.5" stroke-dasharray="0"/><path fill="none" stroke="#505050" paint-order="fill stroke markers" d=" M 469.38437032699585 532.3625259399414 L 477.38437032699585 532.3625259399414 L 477.38437032699585 540.3625259399414 L 469.38437032699585 540.3625259399414 L 469.38437032699585 532.3625259399414 Z" stroke-miterlimit="10" stroke-width="0.5" stroke-dasharray="0"/><path fill="none" stroke="#505050" paint-order="fill stroke markers" d=" M 486.38437032699585 520.3625259399414 L 494.38437032699585 520.3625259399414 L 494.38437032699585 528.3625259399414 L 486.38437032699585 528.3625259399414 L 486.38437032699585 520.3625259399414 Z" stroke-miterlimit="10" stroke-width="0.5" stroke-dasharray="0"/><path fill="white" stroke="#505050" paint-order="fill stroke markers" d=" M 988.8968825340271 387.9562683105469 L 1012.8968825340271 387.9562683105469 L 1012.8968825340271 429.9562683105469 L 988.8968825340271 429.9562683105469 L 988.8968825340271 387.9562683105469 Z" stroke-miterlimit="10" stroke-width="0.5" stroke-dasharray="0"/><path fill="#F0F0F0" stroke="none" paint-order="stroke fill markers" d=""/><text fill="#505050" stroke="none" font-family="monospace" font-size="14px" font-style="normal" font-weight="normal" text-decoration="normal" x="1000.8968825340271" y="405.9562683105469" text-anchor="middle" dominant-baseline="text-after-edge">&lt;</text><path fill="none" stroke="#505050" paint-order="fill stroke markers" d=" M 988.8968825340271 405.9562683105469 L 996.8968825340271 405.9562683105469 L 996.8968825340271 413.9562683105469 L 988.8968825340271 413.9562683105469 L 988.8968825340271 405.9562683105469 Z" stroke-miterlimit="10" stroke-width="0.5" stroke-dasharray="0"/><path fill="none" stroke="#505050" paint-order="fill stroke markers" d=" M 988.8968825340271 417.9562683105469 L 996.8968825340271 417.9562683105469 L 996.8968825340271 425.9562683105469 L 988.8968825340271 425.9562683105469 L 988.8968825340271 417.9562683105469 Z" stroke-miterlimit="10" stroke-width="0.5" stroke-dasharray="0"/><path fill="none" stroke="#505050" paint-order="fill stroke markers" d=" M 1004.8968825340271 405.9562683105469 L 1012.8968825340271 405.9562683105469 L 1012.8968825340271 413.9562683105469 L 1004.8968825340271 413.9562683105469 L 1004.8968825340271 405.9562683105469 Z" stroke-miterlimit="10" stroke-width="0.5" stroke-dasharray="0"/><path fill="white" stroke="#505050" paint-order="fill stroke markers" d=" M 1042.6875395774841 411.80311584472656 L 1066.6875395774841 411.80311584472656 L 1066.6875395774841 465.80311584472656 L 1042.6875395774841 465.80311584472656 L 1042.6875395774841 411.80311584472656 Z" stroke-miterlimit="10" stroke-width="0.5" stroke-dasharray="0"/><path fill="#F0F0F0" stroke="none" paint-order="stroke fill markers" d=""/><text fill="#505050" stroke="none" font-family="monospace" font-size="14px" font-style="normal" font-weight="normal" text-decoration="normal" x="1054.6875395774841" y="429.80311584472656" text-anchor="middle" dominant-baseline="text-after-edge">?</text><path fill="none" stroke="#505050" paint-order="fill stroke markers" d=" M 1042.6875395774841 429.80311584472656 L 1050.6875395774841 429.80311584472656 L 1050.6875395774841 437.80311584472656 L 1042.6875395774841 437.80311584472656 L 1042.6875395774841 429.80311584472656 Z" stroke-miterlimit="10" stroke-width="0.5" stroke-dasharray="0"/><path fill="none" stroke="#505050" paint-order="fill stroke markers" d=" M 1042.6875395774841 441.80311584472656 L 1050.6875395774841 441.80311584472656 L 1050.6875395774841 449.80311584472656 L 1042.6875395774841 449.80311584472656 L 1042.6875395774841 441.80311584472656 Z" stroke-miterlimit="10" stroke-width="0.5" stroke-dasharray="0"/><path fill="none" stroke="#505050" paint-order="fill stroke markers" d=" M 1042.6875395774841 453.80311584472656 L 1050.6875395774841 453.80311584472656 L 1050.6875395774841 461.80311584472656 L 1042.6875395774841 461.80311584472656 L 1042.6875395774841 453.80311584472656 Z" stroke-miterlimit="10" stroke-width="0.5" stroke-dasharray="0"/><path fill="none" stroke="#505050" paint-order="fill stroke markers" d=" M 1058.6875395774841 429.80311584472656 L 1066.6875395774841 429.80311584472656 L 1066.6875395774841 437.80311584472656 L 1058.6875395774841 437.80311584472656 L 1058.6875395774841 429.80311584472656 Z" stroke-miterlimit="10" stroke-width="0.5" stroke-dasharray="0"/><path fill="none" stroke="#505050" paint-order="fill stroke markers" d=" M 423.05621641874313 54.303096771240234 C 434.6309072514297 54.303096771240234 445.90956513683784 71.7187271118164 457.4842559695244 71.7187271118164" stroke-miterlimit="10" stroke-dasharray="0"/><path fill="none" stroke="#505050" paint-order="fill stroke markers" d=" M 425.8062087893486 121.04065322875977 C 437.6634319078413 121.04065322875977 446.84891853218403 99.13752365112305 458.7061416506767 99.13752365112305" stroke-miterlimit="10" stroke-dasharray="0"/><path fill="none" stroke="#505050" paint-order="fill stroke markers" d=" M 898.0312881469727 81.21874904632568 C 902.8312881469726 81.21874904632568 909.2312881469727 81.21874904632568 914.0312881469727 81.21874904632568" stroke-miterlimit="10" stroke-dasharray="0"/><path fill="none" stroke="#505050" paint-order="fill stroke markers" d=" M 863.0500335693359 93.14686107635498 C 866.3444805332615 93.14686107635498 870.7368411830471 93.21874904632568 874.0312881469727 93.21874904632568" stroke-miterlimit="10" stroke-dasharray="0"/><path fill="none" stroke="#505050" paint-order="fill stroke markers" d=" M 850.321907043457 71.82812404632568 C 857.9723105045964 71.82812404632568 866.3808846858333 81.21874904632568 874.0312881469727 81.21874904632568" stroke-miterlimit="10" stroke-dasharray="0"/><path fill="none" stroke="#505050" paint-order="fill stroke markers" d=" M 1062.2406692504883 81.87811183929443 C 1067.0406692504882 81.87811183929443 1073.4406692504883 81.87811183929443 1078.2406692504883 81.87811183929443" stroke-miterlimit="10" stroke-dasharray="0"/><path fill="none" stroke="#505050" paint-order="fill stroke markers" d=" M 1027.2594146728516 93.80622386932373 C 1030.5538616367771 93.80622386932373 1034.9462222865627 93.87811183929443 1038.2406692504883 93.87811183929443" stroke-miterlimit="10" stroke-dasharray="0"/><path fill="none" stroke="#505050" paint-order="fill stroke markers" d=" M 1014.5312881469727 72.48748683929443 C 1022.181691608112 72.48748683929443 1030.590265789349 81.87811183929443 1038.2406692504883 81.87811183929443" stroke-miterlimit="10" stroke-dasharray="0"/><path fill="none" stroke="#505050" paint-order="fill stroke markers" d=" M 931.0468263626099 503.0594081878662 C 938.9837803954114 503.0594081878662 939.3755583649646 523.9250392913818 947.3125123977661 523.9250392913818" stroke-miterlimit="10" stroke-dasharray="0"/><path fill="none" stroke="#505050" paint-order="fill stroke markers" d=" M 929.2061891555786 385.15314292907715 C 935.1947626557206 385.15314292907715 936.5957894835616 370.3375301361084 942.5843629837036 370.3375301361084" stroke-miterlimit="10" stroke-dasharray="0"/><path fill="none" stroke="#505050" paint-order="fill stroke markers" d=" M 734.2592897415161 461.75316429138184 C 756.3018196606769 461.75316429138184 764.0541375493871 409.68132400512695 786.0966674685478 409.68132400512695" stroke-miterlimit="10" stroke-dasharray="0"/><path fill="none" stroke="#505050" paint-order="fill stroke markers" d=" M 734.5437135696411 435.8656520843506 C 754.152993390668 435.8656520843506 766.4873876475209 395.68132400512695 786.0966674685478 395.68132400512695" stroke-miterlimit="10" stroke-dasharray="0"/><path fill="none" stroke="#505050" paint-order="fill stroke markers" d=" M 734.5437135696411 435.8656520843506 C 770.1728222950477 435.8656520843506 763.439665676735 535.5718803405762 799.0687744021416 535.5718803405762" stroke-miterlimit="10" stroke-dasharray="0"/><path fill="none" stroke="#505050" paint-order="fill stroke markers" d=" M 734.2592897415161 461.75316429138184 C 760.7181130006389 461.75316429138184 772.6099511430187 521.5718803405762 799.0687744021416 521.5718803405762" stroke-miterlimit="10" stroke-dasharray="0"/><path fill="none" stroke="#505050" paint-order="fill stroke markers" d=" M 381.38763350248337 240.08439254760742 C 420.89736057134803 240.08439254760742 473.57462351707284 240.87501049041748 513.0843505859375 240.87501049041748" stroke-miterlimit="10" stroke-dasharray="0"/><path fill="none" stroke="#505050" paint-order="fill stroke markers" d=" M 691.8094115257263 359.91876220703125 C 720.6501957082153 359.91876220703125 757.2558832860589 378.68132400512695 786.0966674685478 378.68132400512695" stroke-miterlimit="10" stroke-dasharray="0"/><path fill="none" stroke="#505050" paint-order="fill stroke markers" d=" M 688.7968993186951 477.8468933105469 C 722.8361417156066 477.8468933105469 765.0295320052301 504.5718803405762 799.0687744021416 504.5718803405762" stroke-miterlimit="10" stroke-dasharray="0"/><path fill="none" stroke="#505050" paint-order="fill stroke markers" d=" M 929.2061891555786 385.15314292907715 C 948.5978278543064 385.15314292907715 969.5052438352993 409.9562683105469 988.8968825340271 409.9562683105469" stroke-miterlimit="10" stroke-dasharray="0"/><path fill="none" stroke="#505050" paint-order="fill stroke markers" d=" M 931.0468263626099 503.0594081878662 C 960.9331333731733 503.0594081878662 959.0105755234637 421.9562683105469 988.8968825340271 421.9562683105469" stroke-miterlimit="10" stroke-dasharray="0"/><path fill="none" stroke="#505050" paint-order="fill stroke markers" d=" M 1012.8968825340271 409.9562683105469 C 1024.3447637613956 409.9562683105469 1031.2396583501156 433.80311584472656 1042.6875395774841 433.80311584472656" stroke-miterlimit="10" stroke-dasharray="0"/><path fill="none" stroke="#505050" paint-order="fill stroke markers" d=" M 436.8937675356865 224.6656608581543 C 446.09815912772444 224.6656608581543 458.37054736088487 224.57501983642578 467.5749389529228 224.57501983642578" stroke-miterlimit="10" stroke-dasharray="0"/><path fill="none" stroke="#505050" paint-order="fill stroke markers" d=" M 500.5749389529228 224.57501983642578 C 504.54328582694677 224.57501983642578 509.11600371191355 228.87501049041748 513.0843505859375 228.87501049041748" stroke-miterlimit="10" stroke-dasharray="0"/><path fill="none" stroke="#505050" paint-order="fill stroke markers" d=" M 555.0843505859375 228.87501049041748 C 558.9363342924257 228.87501049041748 564.0572447972158 229.4968719482422 567.9092285037041 229.4968719482422" stroke-miterlimit="10" stroke-dasharray="0"/><path fill="none" stroke="#505050" paint-order="fill stroke markers" d=" M 593.9187865257263 366.91876220703125 C 598.7187865257263 366.91876220703125 605.1187865257264 366.91876220703125 609.9187865257263 366.91876220703125" stroke-miterlimit="10" stroke-dasharray="0"/><path fill="none" stroke="#505050" paint-order="fill stroke markers" d=" M 494.77501821517944 355.9906311035156 C 501.04056043559046 355.9906311035156 505.6532443053153 367.91876220703125 511.9187865257263 367.91876220703125" stroke-miterlimit="10" stroke-dasharray="0"/><path fill="none" stroke="#505050" paint-order="fill stroke markers" d=" M 492.9656386375427 401.1437530517578 C 499.4262502756269 401.1437530517578 505.45817488764214 390.91876220703125 511.9187865257263 390.91876220703125" stroke-miterlimit="10" stroke-dasharray="0"/><path fill="none" stroke="#505050" paint-order="fill stroke markers" d=" M 598.1499876976013 484.8468933105469 C 602.9499876976013 484.8468933105469 609.3499876976014 484.8468933105469 614.1499876976013 484.8468933105469" stroke-miterlimit="10" stroke-dasharray="0"/><path fill="none" stroke="#505050" paint-order="fill stroke markers" d=" M 494.38437032699585 523.3625259399414 C 502.2329442174528 523.3625259399414 508.30141380714434 508.8468933105469 516.1499876976013 508.8468933105469" stroke-miterlimit="10" stroke-dasharray="0"/><path fill="none" stroke="#505050" paint-order="fill stroke markers" d=" M 500.1499876976013 485.8468933105469 C 504.94998769760133 485.8468933105469 511.3499876976013 485.8468933105469 516.1499876976013 485.8468933105469" stroke-miterlimit="10" stroke-dasharray="0"/></g></g></svg>