<svg version="1.1" xmlns="http://www.w3.org/2000/svg" xmlns:xlink="http://www.w3.org/1999/xlink" width="822.7874229550362" height="573.1844053268433"><defs/><g transform="translate(-306.38763350248337,-12.134346008300781)"><g><path fill="white" stroke="#505050" paint-order="fill stroke markers" d=" M 442.2436687350273 21.13434600830078 L 442.2436687350273 133.13434600830078 Q 442.2436687350273 141.13434600830078 450.2436687350273 141.13434600830078 L 608.6967994570732 141.13434600830078 Q 616.6967994570732 141.13434600830078 616.6967994570732 133.13434600830078 L 616.6967994570732 21.13434600830078 Q 616.6967994570732 13.134346008300781 608.6967994570732 13.134346008300781 L 450.2436687350273 13.134346008300781 Q 442.2436687350273 13.134346008300781 442.2436687350273 21.13434600830078" stroke-miterlimit="10" stroke-width="0.5" stroke-dasharray=""/><path fill="#F0F0F0" stroke="#505050" paint-order="fill stroke markers" d=" M 541.6967994570732 21.13434600830078 L 616.6967994570732 21.13434600830078 L 616.6967994570732 133.13434600830078 L 541.6967994570732 133.13434600830078 L 541.6967994570732 21.13434600830078 Z" stroke-miterlimit="10" stroke-width="0.5" stroke-dasharray=""/><text fill="#505050" stroke="none" font-family="monospace" font-size="14px" font-style="normal" font-weight="normal" text-decoration="normal" x="579.1967994570732" y="39.13434600830078" text-anchor="middle" dominant-baseline="text-after-edge">Array</text><path fill="none" stroke="#505050" paint-order="fill stroke markers" d=" M 608.6967994570732 40.13434600830078 L 616.6967994570732 40.13434600830078 L 616.6967994570732 48.13434600830078 L 608.6967994570732 48.13434600830078 L 608.6967994570732 40.13434600830078 Z" stroke-miterlimit="10" stroke-width="0.5" stroke-dasharray=""/><text fill="#505050" stroke="none" font-family="monospace" font-size="14px" font-style="normal" font-weight="normal" text-decoration="normal" x="600.6967994570732" y="53.13434600830078" text-anchor="end" dominant-baseline="text-after-edge">length</text><path fill="none" stroke="#505050" paint-order="fill stroke markers" d=" M 583.6967994570732 53.13434600830078 L 616.6967994570732 53.13434600830078 L 616.6967994570732 83.13434600830078 L 583.6967994570732 83.13434600830078 L 583.6967994570732 53.13434600830078 Z" stroke-miterlimit="10" stroke-width="0.5" stroke-dasharray=""/><text fill="#505050" stroke="none" font-family="monospace" font-size="14px" font-style="normal" font-weight="normal" text-decoration="normal" x="600.1967994570732" y="71.13434600830078" text-anchor="middle" dominant-baseline="text-after-edge">get</text><path fill="none" stroke="#505050" paint-order="fill stroke markers" d=" M 583.6967994570732 71.13434600830078 L 591.6967994570732 71.13434600830078 L 591.6967994570732 79.13434600830078 L 583.6967994570732 79.13434600830078 L 583.6967994570732 71.13434600830078 Z" stroke-miterlimit="10" stroke-width="0.5" stroke-dasharray=""/><path fill="none" stroke="#505050" paint-order="fill stroke markers" d=" M 608.6967994570732 71.13434600830078 L 616.6967994570732 71.13434600830078 L 616.6967994570732 79.13434600830078 L 608.6967994570732 79.13434600830078 L 608.6967994570732 71.13434600830078 Z" stroke-miterlimit="10" stroke-width="0.5" stroke-dasharray=""/><path fill="none" stroke="#505050" paint-order="fill stroke markers" d=" M 574.6967994570732 87.13434600830078 L 616.6967994570732 87.13434600830078 L 616.6967994570732 129.13434600830078 L 574.6967994570732 129.13434600830078 L 574.6967994570732 87.13434600830078 Z" stroke-miterlimit="10" stroke-width="0.5" stroke-dasharray=""/><text fill="#505050" stroke="none" font-family="monospace" font-size="14px" font-style="normal" font-weight="normal" text-decoration="normal" x="595.6967994570732" y="105.13434600830078" text-anchor="middle" dominant-baseline="text-after-edge">swap</text><path fill="none" stroke="#505050" paint-order="fill stroke markers" d=" M 574.6967994570732 105.13434600830078 L 582.6967994570732 105.13434600830078 L 582.6967994570732 113.13434600830078 L 574.6967994570732 113.13434600830078 L 574.6967994570732 105.13434600830078 Z" stroke-miterlimit="10" stroke-width="0.5" stroke-dasharray=""/><path fill="none" stroke="#505050" paint-order="fill stroke markers" d=" M 574.6967994570732 117.13434600830078 L 582.6967994570732 117.13434600830078 L 582.6967994570732 125.13434600830078 L 574.6967994570732 125.13434600830078 L 574.6967994570732 117.13434600830078 Z" stroke-miterlimit="10" stroke-width="0.5" stroke-dasharray=""/><path fill="none" stroke="#505050" paint-order="fill stroke markers" d=" M 608.6967994570732 105.13434600830078 L 616.6967994570732 105.13434600830078 L 616.6967994570732 113.13434600830078 L 608.6967994570732 113.13434600830078 L 608.6967994570732 105.13434600830078 Z" stroke-miterlimit="10" stroke-width="0.5" stroke-dasharray=""/><path fill="none" stroke="#505050" paint-order="fill stroke markers" d=" M 608.6967994570732 117.13434600830078 L 616.6967994570732 117.13434600830078 L 616.6967994570732 125.13434600830078 L 608.6967994570732 125.13434600830078 L 608.6967994570732 117.13434600830078 Z" stroke-miterlimit="10" stroke-width="0.5" stroke-dasharray=""/><path fill="white" stroke="#505050" paint-order="fill stroke markers" d=" M 458.7061416506767 91.13752365112305 L 466.7061416506767 91.13752365112305 L 474.7061416506767 99.13752365112305 L 466.7061416506767 107.13752365112305 L 458.7061416506767 107.13752365112305 L 458.7061416506767 91.13752365112305" stroke-miterlimit="10" stroke-width="0.5" stroke-dasharray=""/><path fill="none" stroke="#505050" paint-order="fill stroke markers" d=" M 458.7061416506767 95.13752365112305 L 466.7061416506767 95.13752365112305 L 466.7061416506767 103.13752365112305 L 458.7061416506767 103.13752365112305 L 458.7061416506767 95.13752365112305 Z" stroke-miterlimit="10" stroke-width="0.5" stroke-dasharray=""/><path fill="white" stroke="#505050" paint-order="fill stroke markers" d=" M 457.4842559695244 63.718727111816406 L 465.4842559695244 63.718727111816406 L 473.4842559695244 71.7187271118164 L 465.4842559695244 79.7187271118164 L 457.4842559695244 79.7187271118164 L 457.4842559695244 63.718727111816406" stroke-miterlimit="10" stroke-width="0.5" stroke-dasharray=""/><path fill="none" stroke="#505050" paint-order="fill stroke markers" d=" M 457.4842559695244 67.7187271118164 L 465.4842559695244 67.7187271118164 L 465.4842559695244 75.7187271118164 L 457.4842559695244 75.7187271118164 L 457.4842559695244 67.7187271118164 Z" stroke-miterlimit="10" stroke-width="0.5" stroke-dasharray=""/><path fill="white" stroke="#505050" paint-order="fill stroke markers" d=" M 456.71553725004196 27.040618896484375 L 523.715537250042 27.040618896484375 L 531.715537250042 36.040618896484375 L 523.715537250042 45.040618896484375 L 456.71553725004196 45.040618896484375 L 456.71553725004196 27.040618896484375" stroke-miterlimit="10" stroke-width="0.5" stroke-dasharray=""/><path fill="none" stroke="#505050" paint-order="fill stroke markers" d=" M 456.71553725004196 32.040618896484375 L 464.71553725004196 32.040618896484375 L 464.71553725004196 40.040618896484375 L 456.71553725004196 40.040618896484375 L 456.71553725004196 32.040618896484375 Z" stroke-miterlimit="10" stroke-width="0.5" stroke-dasharray=""/><text fill="#505050" stroke="none" font-family="monospace" font-size="14px" font-style="normal" font-weight="normal" text-decoration="normal" x="472.71553725004196" y="45.040618896484375" text-anchor="start" dominant-baseline="text-after-edge">length</text><path fill="white" stroke="#505050" paint-order="fill stroke markers" d=" M 325.20623129606247 39.303096771240234 L 325.20623129606247 69.30309677124023 Q 325.20623129606247 77.30309677124023 333.20623129606247 77.30309677124023 L 415.05621641874313 77.30309677124023 Q 423.05621641874313 77.30309677124023 423.05621641874313 69.30309677124023 L 423.05621641874313 39.303096771240234 Q 423.05621641874313 31.303096771240234 415.05621641874313 31.303096771240234 L 333.20623129606247 31.303096771240234 Q 325.20623129606247 31.303096771240234 325.20623129606247 39.303096771240234" stroke-miterlimit="10" stroke-width="0.5" stroke-dasharray=""/><path fill="#F0F0F0" stroke="#505050" paint-order="fill stroke markers" d=" M 390.05621641874313 39.303096771240234 L 423.05621641874313 39.303096771240234 L 423.05621641874313 69.30309677124023 L 390.05621641874313 69.30309677124023 L 390.05621641874313 39.303096771240234 Z" stroke-miterlimit="10" stroke-width="0.5" stroke-dasharray="6,3"/><text fill="#505050" stroke="none" font-family="monospace" font-size="14px" font-style="normal" font-weight="normal" text-decoration="normal" x="406.55621641874313" y="57.303096771240234" text-anchor="middle" dominant-baseline="text-after-edge">get</text><path fill="none" stroke="#505050" paint-order="fill stroke markers" d=" M 390.05621641874313 57.303096771240234 L 398.05621641874313 57.303096771240234 L 398.05621641874313 65.30309677124023 L 390.05621641874313 65.30309677124023 L 390.05621641874313 57.303096771240234 Z" stroke-miterlimit="10" stroke-width="0.5" stroke-dasharray="0"/><path fill="none" stroke="#505050" paint-order="fill stroke markers" d=" M 415.05621641874313 57.303096771240234 L 423.05621641874313 57.303096771240234 L 423.05621641874313 65.30309677124023 L 415.05621641874313 65.30309677124023 L 415.05621641874313 57.303096771240234 Z" stroke-miterlimit="10" stroke-width="0.5" stroke-dasharray="0"/><path fill="white" stroke="#505050" paint-order="fill stroke markers" d=" M 359.4749786257744 39.4593391418457 L 367.4749786257744 39.4593391418457 L 375.4749786257744 47.4593391418457 L 367.4749786257744 55.4593391418457 L 359.4749786257744 55.4593391418457 L 359.4749786257744 39.4593391418457" stroke-miterlimit="10" stroke-width="0.5" stroke-dasharray="0"/><path fill="none" stroke="#505050" paint-order="fill stroke markers" d=" M 359.4749786257744 43.4593391418457 L 367.4749786257744 43.4593391418457 L 367.4749786257744 51.4593391418457 L 359.4749786257744 51.4593391418457 L 359.4749786257744 43.4593391418457 Z" stroke-miterlimit="10" stroke-width="0.5" stroke-dasharray="0"/><path fill="white" stroke="#505050" paint-order="fill stroke markers" d=" M 333.20623129606247 40.5218563079834 L 349.20623129606247 40.5218563079834 L 349.20623129606247 56.5218563079834 L 333.20623129606247 56.5218563079834 L 341.20623129606247 48.5218563079834 L 333.20623129606247 40.5218563079834" stroke-miterlimit="10" stroke-width="0.5" stroke-dasharray="0"/><path fill="none" stroke="#505050" paint-order="fill stroke markers" d=" M 341.20623129606247 44.5218563079834 L 349.20623129606247 44.5218563079834 L 349.20623129606247 52.5218563079834 L 341.20623129606247 52.5218563079834 L 341.20623129606247 44.5218563079834 Z" stroke-miterlimit="10" stroke-width="0.5" stroke-dasharray="0"/><path fill="white" stroke="#505050" paint-order="fill stroke markers" d=" M 324.06245535612106 100.04065322875977 L 324.06245535612106 148.40000915527344 Q 324.06245535612106 156.40000915527344 332.06245535612106 156.40000915527344 L 417.8062087893486 156.40000915527344 Q 425.8062087893486 156.40000915527344 425.8062087893486 148.40000915527344 L 425.8062087893486 100.04065322875977 Q 425.8062087893486 92.04065322875977 417.8062087893486 92.04065322875977 L 332.06245535612106 92.04065322875977 Q 324.06245535612106 92.04065322875977 324.06245535612106 100.04065322875977" stroke-miterlimit="10" stroke-width="0.5" stroke-dasharray="0"/><path fill="#F0F0F0" stroke="#505050" paint-order="fill stroke markers" d=" M 383.8062087893486 100.04065322875977 L 425.8062087893486 100.04065322875977 L 425.8062087893486 142.04065322875977 L 383.8062087893486 142.04065322875977 L 383.8062087893486 100.04065322875977 Z" stroke-miterlimit="10" stroke-width="0.5" stroke-dasharray="6,3"/><text fill="#505050" stroke="none" font-family="monospace" font-size="14px" font-style="normal" font-weight="normal" text-decoration="normal" x="404.8062087893486" y="118.04065322875977" text-anchor="middle" dominant-baseline="text-after-edge">swap</text><path fill="none" stroke="#505050" paint-order="fill stroke markers" d=" M 383.8062087893486 118.04065322875977 L 391.8062087893486 118.04065322875977 L 391.8062087893486 126.04065322875977 L 383.8062087893486 126.04065322875977 L 383.8062087893486 118.04065322875977 Z" stroke-miterlimit="10" stroke-width="0.5" stroke-dasharray="0"/><path fill="none" stroke="#505050" paint-order="fill stroke markers" d=" M 383.8062087893486 130.04065322875977 L 391.8062087893486 130.04065322875977 L 391.8062087893486 138.04065322875977 L 383.8062087893486 138.04065322875977 L 383.8062087893486 130.04065322875977 Z" stroke-miterlimit="10" stroke-width="0.5" stroke-dasharray="0"/><path fill="none" stroke="#505050" paint-order="fill stroke markers" d=" M 417.8062087893486 118.04065322875977 L 425.8062087893486 118.04065322875977 L 425.8062087893486 126.04065322875977 L 417.8062087893486 126.04065322875977 L 417.8062087893486 118.04065322875977 Z" stroke-miterlimit="10" stroke-width="0.5" stroke-dasharray="0"/><path fill="none" stroke="#505050" paint-order="fill stroke markers" d=" M 417.8062087893486 130.04065322875977 L 425.8062087893486 130.04065322875977 L 425.8062087893486 138.04065322875977 L 417.8062087893486 138.04065322875977 L 417.8062087893486 130.04065322875977 Z" stroke-miterlimit="10" stroke-width="0.5" stroke-dasharray="0"/><path fill="white" stroke="#505050" paint-order="fill stroke markers" d=" M 332.93119925260544 124.40000915527344 L 348.93119925260544 124.40000915527344 L 348.93119925260544 140.40000915527344 L 332.93119925260544 140.40000915527344 L 340.93119925260544 132.40000915527344 L 332.93119925260544 124.40000915527344" stroke-miterlimit="10" stroke-width="0.5" stroke-dasharray="0"/><path fill="none" stroke="#505050" paint-order="fill stroke markers" d=" M 340.93119925260544 128.40000915527344 L 348.93119925260544 128.40000915527344 L 348.93119925260544 136.40000915527344 L 340.93119925260544 136.40000915527344 L 340.93119925260544 128.40000915527344 Z" stroke-miterlimit="10" stroke-width="0.5" stroke-dasharray="0"/><path fill="white" stroke="#505050" paint-order="fill stroke markers" d=" M 361.03119963407516 123.1187629699707 L 369.03119963407516 123.1187629699707 L 377.03119963407516 131.1187629699707 L 369.03119963407516 139.1187629699707 L 361.03119963407516 139.1187629699707 L 361.03119963407516 123.1187629699707" stroke-miterlimit="10" stroke-width="0.5" stroke-dasharray="0"/><path fill="none" stroke="#505050" paint-order="fill stroke markers" d=" M 361.03119963407516 127.1187629699707 L 369.03119963407516 127.1187629699707 L 369.03119963407516 135.1187629699707 L 361.03119963407516 135.1187629699707 L 361.03119963407516 127.1187629699707 Z" stroke-miterlimit="10" stroke-width="0.5" stroke-dasharray="0"/><path fill="white" stroke="#505050" paint-order="fill stroke markers" d=" M 332.06245535612106 100.24064636230469 L 348.06245535612106 100.24064636230469 L 348.06245535612106 116.24064636230469 L 332.06245535612106 116.24064636230469 L 340.06245535612106 108.24064636230469 L 332.06245535612106 100.24064636230469" stroke-miterlimit="10" stroke-width="0.5" stroke-dasharray="0"/><path fill="none" stroke="#505050" paint-order="fill stroke markers" d=" M 340.06245535612106 104.24064636230469 L 348.06245535612106 104.24064636230469 L 348.06245535612106 112.24064636230469 L 340.06245535612106 112.24064636230469 L 340.06245535612106 104.24064636230469 Z" stroke-miterlimit="10" stroke-width="0.5" stroke-dasharray="0"/><path fill="white" stroke="#505050" paint-order="fill stroke markers" d=" M 361.7874557375908 100.04065322875977 L 369.7874557375908 100.04065322875977 L 377.7874557375908 108.04065322875977 L 369.7874557375908 116.04065322875977 L 361.7874557375908 116.04065322875977 L 361.7874557375908 100.04065322875977" stroke-miterlimit="10" stroke-width="0.5" stroke-dasharray="0"/><path fill="none" stroke="#505050" paint-order="fill stroke markers" d=" M 361.7874557375908 104.04065322875977 L 369.7874557375908 104.04065322875977 L 369.7874557375908 112.04065322875977 L 361.7874557375908 112.04065322875977 L 361.7874557375908 104.04065322875977 Z" stroke-miterlimit="10" stroke-width="0.5" stroke-dasharray="0"/><path fill="white" stroke="#505050" paint-order="fill stroke markers" d=" M 675.9594039916992 51.56248760223389 L 675.9594039916992 102.69685363769531 Q 675.9594039916992 110.69685363769531 683.9594039916992 110.69685363769531 L 771.1999732851982 110.69685363769531 Q 779.1999732851982 110.69685363769531 779.1999732851982 102.69685363769531 L 779.1999732851982 51.56248760223389 Q 779.1999732851982 43.56248760223389 771.1999732851982 43.56248760223389 L 683.9594039916992 43.56248760223389 Q 675.9594039916992 43.56248760223389 675.9594039916992 51.56248760223389" stroke-miterlimit="10" stroke-width="0.5" stroke-dasharray="0"/><path fill="#F0F0F0" stroke="#505050" paint-order="fill stroke markers" d=" M 737.1999732851982 51.56248760223389 L 779.1999732851982 51.56248760223389 L 779.1999732851982 93.56248760223389 L 737.1999732851982 93.56248760223389 L 737.1999732851982 51.56248760223389 Z" stroke-miterlimit="10" stroke-width="0.5" stroke-dasharray="6,3"/><text fill="#505050" stroke="none" font-family="monospace" font-size="14px" font-style="normal" font-weight="normal" text-decoration="normal" x="758.1999732851982" y="69.56248760223389" text-anchor="middle" dominant-baseline="text-after-edge">cond</text><path fill="none" stroke="#505050" paint-order="fill stroke markers" d=" M 737.1999732851982 69.56248760223389 L 745.1999732851982 69.56248760223389 L 745.1999732851982 77.56248760223389 L 737.1999732851982 77.56248760223389 L 737.1999732851982 69.56248760223389 Z" stroke-miterlimit="10" stroke-width="0.5" stroke-dasharray="0"/><path fill="none" stroke="#505050" paint-order="fill stroke markers" d=" M 737.1999732851982 81.56248760223389 L 745.1999732851982 81.56248760223389 L 745.1999732851982 89.56248760223389 L 737.1999732851982 89.56248760223389 L 737.1999732851982 81.56248760223389 Z" stroke-miterlimit="10" stroke-width="0.5" stroke-dasharray="0"/><path fill="none" stroke="#505050" paint-order="fill stroke markers" d=" M 771.1999732851982 69.56248760223389 L 779.1999732851982 69.56248760223389 L 779.1999732851982 77.56248760223389 L 771.1999732851982 77.56248760223389 L 771.1999732851982 69.56248760223389 Z" stroke-miterlimit="10" stroke-width="0.5" stroke-dasharray="0"/><path fill="white" stroke="#505050" paint-order="fill stroke markers" d=" M 714.4343482851982 54.33749771118164 L 722.4343482851982 54.33749771118164 L 730.4343482851982 62.33749771118164 L 722.4343482851982 70.33749771118164 L 714.4343482851982 70.33749771118164 L 714.4343482851982 54.33749771118164" stroke-miterlimit="10" stroke-width="0.5" stroke-dasharray="0"/><path fill="none" stroke="#505050" paint-order="fill stroke markers" d=" M 714.4343482851982 58.33749771118164 L 722.4343482851982 58.33749771118164 L 722.4343482851982 66.33749771118164 L 714.4343482851982 66.33749771118164 L 714.4343482851982 58.33749771118164 Z" stroke-miterlimit="10" stroke-width="0.5" stroke-dasharray="0"/><path fill="white" stroke="#505050" paint-order="fill stroke markers" d=" M 685.5780918002129 78.69685363769531 L 701.5780918002129 78.69685363769531 L 701.5780918002129 94.69685363769531 L 685.5780918002129 94.69685363769531 L 693.5780918002129 86.69685363769531 L 685.5780918002129 78.69685363769531" stroke-miterlimit="10" stroke-width="0.5" stroke-dasharray="0"/><path fill="none" stroke="#505050" paint-order="fill stroke markers" d=" M 693.5780918002129 82.69685363769531 L 701.5780918002129 82.69685363769531 L 701.5780918002129 90.69685363769531 L 693.5780918002129 90.69685363769531 L 693.5780918002129 82.69685363769531 Z" stroke-miterlimit="10" stroke-width="0.5" stroke-dasharray="0"/><path fill="white" stroke="#505050" paint-order="fill stroke markers" d=" M 684.7093479037285 54.53749084472656 L 700.7093479037285 54.53749084472656 L 700.7093479037285 70.53749084472656 L 684.7093479037285 70.53749084472656 L 692.7093479037285 62.53749084472656 L 684.7093479037285 54.53749084472656" stroke-miterlimit="10" stroke-width="0.5" stroke-dasharray="0"/><path fill="none" stroke="#505050" paint-order="fill stroke markers" d=" M 692.7093479037285 58.53749084472656 L 700.7093479037285 58.53749084472656 L 700.7093479037285 66.53749084472656 L 692.7093479037285 66.53749084472656 L 692.7093479037285 58.53749084472656 Z" stroke-miterlimit="10" stroke-width="0.5" stroke-dasharray="0"/><path fill="white" stroke="#505050" paint-order="fill stroke markers" d=" M 823.0500335693359 59.218749046325684 L 823.0500335693359 110.14686107635498 Q 823.0500335693359 118.14686107635498 831.0500335693359 118.14686107635498 L 955.9656753540039 118.14686107635498 Q 963.9656753540039 118.14686107635498 963.9656753540039 110.14686107635498 L 963.9656753540039 59.218749046325684 Q 963.9656753540039 51.218749046325684 955.9656753540039 51.218749046325684 L 831.0500335693359 51.218749046325684 Q 823.0500335693359 51.218749046325684 823.0500335693359 59.218749046325684" stroke-miterlimit="10" stroke-width="0.5" stroke-dasharray="0"/><path fill="#F0F0F0" stroke="#505050" paint-order="fill stroke markers" d=" M 938.9656753540039 59.218749046325684 L 963.9656753540039 59.218749046325684 L 963.9656753540039 89.21874904632568 L 938.9656753540039 89.21874904632568 L 938.9656753540039 59.218749046325684 Z" stroke-miterlimit="10" stroke-width="0.5" stroke-dasharray="0"/><text fill="#505050" stroke="none" font-family="monospace" font-size="14px" font-style="normal" font-weight="normal" text-decoration="normal" x="951.4656753540039" y="77.21874904632568" text-anchor="middle" dominant-baseline="text-after-edge">+1</text><path fill="none" stroke="#505050" paint-order="fill stroke markers" d=" M 938.9656753540039 77.21874904632568 L 946.9656753540039 77.21874904632568 L 946.9656753540039 85.21874904632568 L 938.9656753540039 85.21874904632568 L 938.9656753540039 77.21874904632568 Z" stroke-miterlimit="10" stroke-width="0.5" stroke-dasharray="0"/><path fill="none" stroke="#505050" paint-order="fill stroke markers" d=" M 955.9656753540039 77.21874904632568 L 963.9656753540039 77.21874904632568 L 963.9656753540039 85.21874904632568 L 955.9656753540039 85.21874904632568 L 955.9656753540039 77.21874904632568 Z" stroke-miterlimit="10" stroke-width="0.5" stroke-dasharray="0"/><path fill="white" stroke="#505050" paint-order="fill stroke markers" d=" M 834.321907043457 63.828124046325684 L 850.321907043457 63.828124046325684 L 850.321907043457 79.82812404632568 L 834.321907043457 79.82812404632568 L 842.321907043457 71.82812404632568 L 834.321907043457 63.828124046325684" stroke-miterlimit="10" stroke-width="0.5" stroke-dasharray="0"/><path fill="none" stroke="#505050" paint-order="fill stroke markers" d=" M 842.321907043457 67.82812404632568 L 850.321907043457 67.82812404632568 L 850.321907043457 75.82812404632568 L 842.321907043457 75.82812404632568 L 842.321907043457 67.82812404632568 Z" stroke-miterlimit="10" stroke-width="0.5" stroke-dasharray="0"/><path fill="white" stroke="#505050" paint-order="fill stroke markers" d=" M 874.0312881469727 59.218749046325684 L 898.0312881469727 59.218749046325684 L 898.0312881469727 101.21874904632568 L 874.0312881469727 101.21874904632568 L 874.0312881469727 59.218749046325684 Z" stroke-miterlimit="10" stroke-width="0.5" stroke-dasharray="0"/><path fill="#F0F0F0" stroke="none" paint-order="stroke fill markers" d=""/><text fill="#505050" stroke="none" font-family="monospace" font-size="14px" font-style="normal" font-weight="normal" text-decoration="normal" x="886.0312881469727" y="77.21874904632568" text-anchor="middle" dominant-baseline="text-after-edge">+</text><path fill="none" stroke="#505050" paint-order="fill stroke markers" d=" M 874.0312881469727 77.21874904632568 L 882.0312881469727 77.21874904632568 L 882.0312881469727 85.21874904632568 L 874.0312881469727 85.21874904632568 L 874.0312881469727 77.21874904632568 Z" stroke-miterlimit="10" stroke-width="0.5" stroke-dasharray="0"/><path fill="none" stroke="#505050" paint-order="fill stroke markers" d=" M 874.0312881469727 89.21874904632568 L 882.0312881469727 89.21874904632568 L 882.0312881469727 97.21874904632568 L 874.0312881469727 97.21874904632568 L 874.0312881469727 89.21874904632568 Z" stroke-miterlimit="10" stroke-width="0.5" stroke-dasharray="0"/><path fill="none" stroke="#505050" paint-order="fill stroke markers" d=" M 890.0312881469727 77.21874904632568 L 898.0312881469727 77.21874904632568 L 898.0312881469727 85.21874904632568 L 890.0312881469727 85.21874904632568 L 890.0312881469727 77.21874904632568 Z" stroke-miterlimit="10" stroke-width="0.5" stroke-dasharray="0"/><path fill="white" stroke="#505050" paint-order="fill stroke markers" d=" M 914.0312881469727 73.21874904632568 L 922.0312881469727 73.21874904632568 L 930.0312881469727 81.21874904632568 L 922.0312881469727 89.21874904632568 L 914.0312881469727 89.21874904632568 L 914.0312881469727 73.21874904632568" stroke-miterlimit="10" stroke-width="0.5" stroke-dasharray="0"/><path fill="none" stroke="#505050" paint-order="fill stroke markers" d=" M 914.0312881469727 77.21874904632568 L 922.0312881469727 77.21874904632568 L 922.0312881469727 85.21874904632568 L 914.0312881469727 85.21874904632568 L 914.0312881469727 77.21874904632568 Z" stroke-miterlimit="10" stroke-width="0.5" stroke-dasharray="0"/><path fill="white" stroke="#505050" paint-order="fill stroke markers" d=" M 831.0500335693359 84.14686107635498 L 863.0500335693359 84.14686107635498 L 863.0500335693359 102.14686107635498 L 831.0500335693359 102.14686107635498 L 831.0500335693359 84.14686107635498 Z" stroke-miterlimit="10" stroke-width="0.5" stroke-dasharray="0"/><path fill="#F0F0F0" stroke="none" paint-order="stroke fill markers" d=""/><path fill="none" stroke="#505050" paint-order="fill stroke markers" d=" M 855.0500335693359 89.14686107635498 L 863.0500335693359 89.14686107635498 L 863.0500335693359 97.14686107635498 L 855.0500335693359 97.14686107635498 L 855.0500335693359 89.14686107635498 Z" stroke-miterlimit="10" stroke-width="0.5" stroke-dasharray="0"/><text fill="#505050" stroke="none" font-family="monospace" font-size="14px" font-style="normal" font-weight="normal" text-decoration="normal" x="847.0500335693359" y="102.14686107635498" text-anchor="end" dominant-baseline="text-after-edge">1</text><path fill="white" stroke="#505050" paint-order="fill stroke markers" d=" M 987.2594146728516 59.878111839294434 L 987.2594146728516 110.80622386932373 Q 987.2594146728516 118.80622386932373 995.2594146728516 118.80622386932373 L 1120.1750564575195 118.80622386932373 Q 1128.1750564575195 118.80622386932373 1128.1750564575195 110.80622386932373 L 1128.1750564575195 59.878111839294434 Q 1128.1750564575195 51.878111839294434 1120.1750564575195 51.878111839294434 L 995.2594146728516 51.878111839294434 Q 987.2594146728516 51.878111839294434 987.2594146728516 59.878111839294434" stroke-miterlimit="10" stroke-width="0.5" stroke-dasharray="0"/><path fill="#F0F0F0" stroke="#505050" paint-order="fill stroke markers" d=" M 1103.1750564575195 59.878111839294434 L 1128.1750564575195 59.878111839294434 L 1128.1750564575195 89.87811183929443 L 1103.1750564575195 89.87811183929443 L 1103.1750564575195 59.878111839294434 Z" stroke-miterlimit="10" stroke-width="0.5" stroke-dasharray="0"/><text fill="#505050" stroke="none" font-family="monospace" font-size="14px" font-style="normal" font-weight="normal" text-decoration="normal" x="1115.6750564575195" y="77.87811183929443" text-anchor="middle" dominant-baseline="text-after-edge">-1</text><path fill="none" stroke="#505050" paint-order="fill stroke markers" d=" M 1103.1750564575195 77.87811183929443 L 1111.1750564575195 77.87811183929443 L 1111.1750564575195 85.87811183929443 L 1103.1750564575195 85.87811183929443 L 1103.1750564575195 77.87811183929443 Z" stroke-miterlimit="10" stroke-width="0.5" stroke-dasharray="0"/><path fill="none" stroke="#505050" paint-order="fill stroke markers" d=" M 1120.1750564575195 77.87811183929443 L 1128.1750564575195 77.87811183929443 L 1128.1750564575195 85.87811183929443 L 1120.1750564575195 85.87811183929443 L 1120.1750564575195 77.87811183929443 Z" stroke-miterlimit="10" stroke-width="0.5" stroke-dasharray="0"/><path fill="white" stroke="#505050" paint-order="fill stroke markers" d=" M 998.5312881469727 64.48748683929443 L 1014.5312881469727 64.48748683929443 L 1014.5312881469727 80.48748683929443 L 998.5312881469727 80.48748683929443 L 1006.5312881469727 72.48748683929443 L 998.5312881469727 64.48748683929443" stroke-miterlimit="10" stroke-width="0.5" stroke-dasharray="0"/><path fill="none" stroke="#505050" paint-order="fill stroke markers" d=" M 1006.5312881469727 68.48748683929443 L 1014.5312881469727 68.48748683929443 L 1014.5312881469727 76.48748683929443 L 1006.5312881469727 76.48748683929443 L 1006.5312881469727 68.48748683929443 Z" stroke-miterlimit="10" stroke-width="0.5" stroke-dasharray="0"/><path fill="white" stroke="#505050" paint-order="fill stroke markers" d=" M 1038.2406692504883 59.878111839294434 L 1062.2406692504883 59.878111839294434 L 1062.2406692504883 101.87811183929443 L 1038.2406692504883 101.87811183929443 L 1038.2406692504883 59.878111839294434 Z" stroke-miterlimit="10" stroke-width="0.5" stroke-dasharray="0"/><path fill="#F0F0F0" stroke="none" paint-order="stroke fill markers" d=""/><text fill="#505050" stroke="none" font-family="monospace" font-size="14px" font-style="normal" font-weight="normal" text-decoration="normal" x="1050.2406692504883" y="77.87811183929443" text-anchor="middle" dominant-baseline="text-after-edge">-</text><path fill="none" stroke="#505050" paint-order="fill stroke markers" d=" M 1038.2406692504883 77.87811183929443 L 1046.2406692504883 77.87811183929443 L 1046.2406692504883 85.87811183929443 L 1038.2406692504883 85.87811183929443 L 1038.2406692504883 77.87811183929443 Z" stroke-miterlimit="10" stroke-width="0.5" stroke-dasharray="0"/><path fill="none" stroke="#505050" paint-order="fill stroke markers" d=" M 1038.2406692504883 89.87811183929443 L 1046.2406692504883 89.87811183929443 L 1046.2406692504883 97.87811183929443 L 1038.2406692504883 97.87811183929443 L 1038.2406692504883 89.87811183929443 Z" stroke-miterlimit="10" stroke-width="0.5" stroke-dasharray="0"/><path fill="none" stroke="#505050" paint-order="fill stroke markers" d=" M 1054.2406692504883 77.87811183929443 L 1062.2406692504883 77.87811183929443 L 1062.2406692504883 85.87811183929443 L 1054.2406692504883 85.87811183929443 L 1054.2406692504883 77.87811183929443 Z" stroke-miterlimit="10" stroke-width="0.5" stroke-dasharray="0"/><path fill="white" stroke="#505050" paint-order="fill stroke markers" d=" M 1078.2406692504883 73.87811183929443 L 1086.2406692504883 73.87811183929443 L 1094.2406692504883 81.87811183929443 L 1086.2406692504883 89.87811183929443 L 1078.2406692504883 89.87811183929443 L 1078.2406692504883 73.87811183929443" stroke-miterlimit="10" stroke-width="0.5" stroke-dasharray="0"/><path fill="none" stroke="#505050" paint-order="fill stroke markers" d=" M 1078.2406692504883 77.87811183929443 L 1086.2406692504883 77.87811183929443 L 1086.2406692504883 85.87811183929443 L 1078.2406692504883 85.87811183929443 L 1078.2406692504883 77.87811183929443 Z" stroke-miterlimit="10" stroke-width="0.5" stroke-dasharray="0"/><path fill="white" stroke="#505050" paint-order="fill stroke markers" d=" M 995.2594146728516 84.80622386932373 L 1027.2594146728516 84.80622386932373 L 1027.2594146728516 102.80622386932373 L 995.2594146728516 102.80622386932373 L 995.2594146728516 84.80622386932373 Z" stroke-miterlimit="10" stroke-width="0.5" stroke-dasharray="0"/><path fill="#F0F0F0" stroke="none" paint-order="stroke fill markers" d=""/><path fill="none" stroke="#505050" paint-order="fill stroke markers" d=" M 1019.2594146728516 89.80622386932373 L 1027.2594146728516 89.80622386932373 L 1027.2594146728516 97.80622386932373 L 1019.2594146728516 97.80622386932373 L 1019.2594146728516 89.80622386932373 Z" stroke-miterlimit="10" stroke-width="0.5" stroke-dasharray="0"/><text fill="#505050" stroke="none" font-family="monospace" font-size="14px" font-style="normal" font-weight="normal" text-decoration="normal" x="1011.2594146728516" y="102.80622386932373" text-anchor="end" dominant-baseline="text-after-edge">1</text><path fill="white" stroke="#505050" paint-order="fill stroke markers" d=" M 307.38763350248337 180.13127899169922 L 307.38763350248337 576.318751335144 Q 307.38763350248337 584.318751335144 315.38763350248337 584.318751335144 L 1106.1468629837036 584.318751335144 Q 1114.1468629837036 584.318751335144 1114.1468629837036 576.318751335144 L 1114.1468629837036 180.13127899169922 Q 1114.1468629837036 172.13127899169922 1106.1468629837036 172.13127899169922 L 315.38763350248337 172.13127899169922 Q 307.38763350248337 172.13127899169922 307.38763350248337 180.13127899169922" stroke-miterlimit="10" stroke-width="0.5" stroke-dasharray="0"/><path fill="#F0F0F0" stroke="#505050" paint-order="fill stroke markers" d=" M 1040.1468629837036 180.13127899169922 L 1114.1468629837036 180.13127899169922 L 1114.1468629837036 246.13127899169922 L 1040.1468629837036 246.13127899169922 L 1040.1468629837036 180.13127899169922 Z" stroke-miterlimit="10" stroke-width="0.5" stroke-dasharray="0"/><path fill="none" stroke="#505050" paint-order="fill stroke markers" d=" M 1040.1468629837036 184.13127899169922 L 1064.1468629837036 184.13127899169922 L 1064.1468629837036 200.13127899169922 L 1040.1468629837036 200.13127899169922 L 1040.1468629837036 184.13127899169922 Z" stroke-miterlimit="10" stroke-width="0.5" stroke-dasharray="0"/><path fill="none" stroke="#505050" paint-order="fill stroke markers" d=" M 1040.1468629837036 188.13127899169922 L 1048.1468629837036 188.13127899169922 L 1048.1468629837036 196.13127899169922 L 1040.1468629837036 196.13127899169922 L 1040.1468629837036 188.13127899169922 Z" stroke-miterlimit="10" stroke-width="0.5" stroke-dasharray="0"/><path fill="none" stroke="#505050" paint-order="fill stroke markers" d=" M 1056.1468629837036 188.13127899169922 L 1064.1468629837036 188.13127899169922 L 1064.1468629837036 196.13127899169922 L 1056.1468629837036 196.13127899169922 L 1056.1468629837036 188.13127899169922 Z" stroke-miterlimit="10" stroke-width="0.5" stroke-dasharray="0"/><text fill="#505050" stroke="none" font-family="monospace" font-size="14px" font-style="normal" font-weight="normal" text-decoration="normal" x="1072.1468629837036" y="201.13127899169922" text-anchor="start" dominant-baseline="text-after-edge">get</text><path fill="none" stroke="#505050" paint-order="fill stroke markers" d=" M 1040.1468629837036 205.13127899169922 L 1048.1468629837036 205.13127899169922 L 1048.1468629837036 213.13127899169922 L 1040.1468629837036 213.13127899169922 L 1040.1468629837036 205.13127899169922 Z" stroke-miterlimit="10" stroke-width="0.5" stroke-dasharray="0"/><text fill="#505050" stroke="none" font-family="monospace" font-size="14px" font-style="normal" font-weight="normal" text-decoration="normal" x="1056.1468629837036" y="218.13127899169922" text-anchor="start" dominant-baseline="text-after-edge">pivot</text><path fill="none" stroke="#505050" paint-order="fill stroke markers" d=" M 1040.1468629837036 219.13127899169922 L 1048.1468629837036 219.13127899169922 L 1048.1468629837036 227.13127899169922 L 1040.1468629837036 227.13127899169922 L 1040.1468629837036 219.13127899169922 Z" stroke-miterlimit="10" stroke-width="0.5" stroke-dasharray="0"/><text fill="#505050" stroke="none" font-family="monospace" font-size="14px" font-style="normal" font-weight="normal" text-decoration="normal" x="1056.1468629837036" y="232.13127899169922" text-anchor="start" dominant-baseline="text-after-edge">i</text><path fill="none" stroke="#505050" paint-order="fill stroke markers" d=" M 1040.1468629837036 233.13127899169922 L 1048.1468629837036 233.13127899169922 L 1048.1468629837036 241.13127899169922 L 1040.1468629837036 241.13127899169922 L 1040.1468629837036 233.13127899169922 Z" stroke-miterlimit="10" stroke-width="0.5" stroke-dasharray="0"/><text fill="#505050" stroke="none" font-family="monospace" font-size="14px" font-style="normal" font-weight="normal" text-decoration="normal" x="1056.1468629837036" y="246.13127899169922" text-anchor="start" dominant-baseline="text-after-edge">j</text><path fill="none" stroke="#505050" paint-order="fill stroke markers" d=" M 1106.1468629837036 184.13127899169922 L 1114.1468629837036 184.13127899169922 L 1114.1468629837036 192.13127899169922 L 1106.1468629837036 192.13127899169922 L 1106.1468629837036 184.13127899169922 Z" stroke-miterlimit="10" stroke-width="0.5" stroke-dasharray="0"/><path fill="none" stroke="#505050" paint-order="fill stroke markers" d=" M 1106.1468629837036 196.13127899169922 L 1114.1468629837036 196.13127899169922 L 1114.1468629837036 204.13127899169922 L 1106.1468629837036 204.13127899169922 L 1106.1468629837036 196.13127899169922 Z" stroke-miterlimit="10" stroke-width="0.5" stroke-dasharray="0"/><path fill="white" stroke="#505050" paint-order="fill stroke markers" d=" M 924.6343871951103 437.1843681335449 L 1025.6343871951103 437.1843681335449 L 1025.6343871951103 529.1843681335449 L 924.6343871951103 529.1843681335449 L 924.6343871951103 437.1843681335449 Z" stroke-miterlimit="10" stroke-width="0.5" stroke-dasharray="0"/><path fill="#F0F0F0" stroke="none" paint-order="stroke fill markers" d=" M 1009.6343871951103 455.1843681335449 L 1025.6343871951103 455.1843681335449 L 1025.6343871951103 471.1843681335449 L 1009.6343871951103 471.1843681335449 L 1009.6343871951103 455.1843681335449 Z"/><text fill="#505050" stroke="none" font-family="monospace" font-size="14px" font-style="normal" font-weight="normal" text-decoration="normal" x="975.1343871951103" y="455.1843681335449" text-anchor="middle" dominant-baseline="text-after-edge">iter[n..i]-</text><path fill="none" stroke="#505050" paint-order="fill stroke markers" d=" M 924.6343871951103 455.1843681335449 L 948.6343871951103 455.1843681335449 L 948.6343871951103 483.1843681335449 L 924.6343871951103 483.1843681335449 L 924.6343871951103 455.1843681335449 Z" stroke-miterlimit="10" stroke-width="0.5" stroke-dasharray="0"/><path fill="none" stroke="#505050" paint-order="fill stroke markers" d=" M 924.6343871951103 459.1843681335449 L 932.6343871951103 459.1843681335449 L 932.6343871951103 467.1843681335449 L 924.6343871951103 467.1843681335449 L 924.6343871951103 459.1843681335449 Z" stroke-miterlimit="10" stroke-width="0.5" stroke-dasharray="0"/><path fill="none" stroke="#505050" paint-order="fill stroke markers" d=" M 924.6343871951103 471.1843681335449 L 932.6343871951103 471.1843681335449 L 932.6343871951103 479.1843681335449 L 924.6343871951103 479.1843681335449 L 924.6343871951103 471.1843681335449 Z" stroke-miterlimit="10" stroke-width="0.5" stroke-dasharray="0"/><path fill="none" stroke="#505050" paint-order="fill stroke markers" d=" M 940.6343871951103 459.1843681335449 L 948.6343871951103 459.1843681335449 L 948.6343871951103 467.1843681335449 L 940.6343871951103 467.1843681335449 L 940.6343871951103 459.1843681335449 Z" stroke-miterlimit="10" stroke-width="0.5" stroke-dasharray="0"/><path fill="none" stroke="#505050" paint-order="fill stroke markers" d=" M 924.6343871951103 488.1843681335449 L 932.6343871951103 488.1843681335449 L 932.6343871951103 496.1843681335449 L 924.6343871951103 496.1843681335449 L 924.6343871951103 488.1843681335449 Z" stroke-miterlimit="10" stroke-width="0.5" stroke-dasharray="0"/><text fill="#505050" stroke="none" font-family="monospace" font-size="14px" font-style="normal" font-weight="normal" text-decoration="normal" x="940.6343871951103" y="501.1843681335449" text-anchor="start" dominant-baseline="text-after-edge">n</text><path fill="none" stroke="#505050" paint-order="fill stroke markers" d=" M 924.6343871951103 502.1843681335449 L 932.6343871951103 502.1843681335449 L 932.6343871951103 510.1843681335449 L 924.6343871951103 510.1843681335449 L 924.6343871951103 502.1843681335449 Z" stroke-miterlimit="10" stroke-width="0.5" stroke-dasharray="0"/><text fill="#505050" stroke="none" font-family="monospace" font-size="14px" font-style="normal" font-weight="normal" text-decoration="normal" x="940.6343871951103" y="515.1843681335449" text-anchor="start" dominant-baseline="text-after-edge">i</text><path fill="none" stroke="#505050" paint-order="fill stroke markers" d=" M 924.6343871951103 516.1843681335449 L 932.6343871951103 516.1843681335449 L 932.6343871951103 524.1843681335449 L 924.6343871951103 524.1843681335449 L 924.6343871951103 516.1843681335449 Z" stroke-miterlimit="10" stroke-width="0.5" stroke-dasharray="0"/><text fill="#505050" stroke="none" font-family="monospace" font-size="14px" font-style="normal" font-weight="normal" text-decoration="normal" x="940.6343871951103" y="529.1843681335449" text-anchor="start" dominant-baseline="text-after-edge">aux</text><path fill="none" stroke="#505050" paint-order="fill stroke markers" d=" M 1009.6343871951103 455.1843681335449 L 1025.6343871951103 455.1843681335449 L 1025.6343871951103 471.1843681335449 L 1009.6343871951103 471.1843681335449 L 1009.6343871951103 455.1843681335449 Z" stroke-miterlimit="10" stroke-width="0.5" stroke-dasharray="0"/><path fill="none" stroke="#505050" paint-order="fill stroke markers" d=" M 1017.6343871951103 459.1843681335449 L 1025.6343871951103 459.1843681335449 L 1025.6343871951103 467.1843681335449 L 1017.6343871951103 467.1843681335449 L 1017.6343871951103 459.1843681335449 Z" stroke-miterlimit="10" stroke-width="0.5" stroke-dasharray="0"/><path fill="white" stroke="#505050" paint-order="fill stroke markers" d=" M 438.5217971801758 469.3968839645386 L 438.5217971801758 560.318751335144 Q 438.5217971801758 568.318751335144 446.5217971801758 568.318751335144 L 724.1718139648438 568.318751335144 Q 732.1718139648438 568.318751335144 732.1718139648438 560.318751335144 L 732.1718139648438 469.3968839645386 Q 732.1718139648438 461.3968839645386 724.1718139648438 461.3968839645386 L 446.5217971801758 461.3968839645386 Q 438.5217971801758 461.3968839645386 438.5217971801758 469.3968839645386" stroke-miterlimit="10" stroke-width="0.5" stroke-dasharray="0"/><path fill="#F0F0F0" stroke="#505050" paint-order="fill stroke markers" d=" M 631.1718139648438 469.3968839645386 L 732.1718139648438 469.3968839645386 L 732.1718139648438 499.3968839645386 L 631.1718139648438 499.3968839645386 L 631.1718139648438 469.3968839645386 Z" stroke-miterlimit="10" stroke-width="0.5" stroke-dasharray="0"/><text fill="#505050" stroke="none" font-family="monospace" font-size="14px" font-style="normal" font-weight="normal" text-decoration="normal" x="681.6718139648438" y="487.3968839645386" text-anchor="middle" dominant-baseline="text-after-edge">advanceHigh</text><path fill="none" stroke="#505050" paint-order="fill stroke markers" d=" M 631.1718139648438 487.3968839645386 L 639.1718139648438 487.3968839645386 L 639.1718139648438 495.3968839645386 L 631.1718139648438 495.3968839645386 L 631.1718139648438 487.3968839645386 Z" stroke-miterlimit="10" stroke-width="0.5" stroke-dasharray="0"/><path fill="none" stroke="#505050" paint-order="fill stroke markers" d=" M 724.1718139648438 487.3968839645386 L 732.1718139648438 487.3968839645386 L 732.1718139648438 495.3968839645386 L 724.1718139648438 495.3968839645386 L 724.1718139648438 487.3968839645386 Z" stroke-miterlimit="10" stroke-width="0.5" stroke-dasharray="0"/><path fill="white" stroke="#505050" paint-order="fill stroke markers" d=" M 606.5936889648438 483.1468839645386 L 614.5936889648438 483.1468839645386 L 622.5936889648438 491.1468839645386 L 614.5936889648438 499.1468839645386 L 606.5936889648438 499.1468839645386 L 606.5936889648438 483.1468839645386" stroke-miterlimit="10" stroke-width="0.5" stroke-dasharray="0"/><path fill="none" stroke="#505050" paint-order="fill stroke markers" d=" M 606.5936889648438 487.1468839645386 L 614.5936889648438 487.1468839645386 L 614.5936889648438 495.1468839645386 L 606.5936889648438 495.1468839645386 L 606.5936889648438 487.1468839645386 Z" stroke-miterlimit="10" stroke-width="0.5" stroke-dasharray="0"/><path fill="white" stroke="#505050" paint-order="fill stroke markers" d=" M 509.26556396484375 469.3968839645386 L 591.2655639648438 469.3968839645386 L 591.2655639648438 533.3968839645386 L 509.26556396484375 533.3968839645386 L 509.26556396484375 469.3968839645386 Z" stroke-miterlimit="10" stroke-width="0.5" stroke-dasharray="0"/><path fill="#F0F0F0" stroke="none" paint-order="stroke fill markers" d=""/><text fill="#505050" stroke="none" font-family="monospace" font-size="14px" font-style="normal" font-weight="normal" text-decoration="normal" x="550.2655639648438" y="487.3968839645386" text-anchor="middle" dominant-baseline="text-after-edge">advance</text><path fill="none" stroke="#505050" paint-order="fill stroke markers" d=" M 509.26556396484375 488.3968839645386 L 517.2655639648438 488.3968839645386 L 517.2655639648438 496.3968839645386 L 509.26556396484375 496.3968839645386 L 509.26556396484375 488.3968839645386 Z" stroke-miterlimit="10" stroke-width="0.5" stroke-dasharray="0"/><text fill="#505050" stroke="none" font-family="monospace" font-size="14px" font-style="normal" font-weight="normal" text-decoration="normal" x="525.2655639648438" y="501.3968839645386" text-anchor="start" dominant-baseline="text-after-edge">i</text><path fill="none" stroke="#505050" paint-order="fill stroke markers" d=" M 509.26556396484375 501.3968839645386 L 533.2655639648438 501.3968839645386 L 533.2655639648438 529.3968839645386 L 509.26556396484375 529.3968839645386 L 509.26556396484375 501.3968839645386 Z" stroke-miterlimit="10" stroke-width="0.5" stroke-dasharray="0"/><path fill="none" stroke="#505050" paint-order="fill stroke markers" d=" M 509.26556396484375 505.3968839645386 L 517.2655639648438 505.3968839645386 L 517.2655639648438 513.3968839645386 L 509.26556396484375 513.3968839645386 L 509.26556396484375 505.3968839645386 Z" stroke-miterlimit="10" stroke-width="0.5" stroke-dasharray="0"/><path fill="none" stroke="#505050" paint-order="fill stroke markers" d=" M 509.26556396484375 517.3968839645386 L 517.2655639648438 517.3968839645386 L 517.2655639648438 525.3968839645386 L 509.26556396484375 525.3968839645386 L 509.26556396484375 517.3968839645386 Z" stroke-miterlimit="10" stroke-width="0.5" stroke-dasharray="0"/><path fill="none" stroke="#505050" paint-order="fill stroke markers" d=" M 525.2655639648438 505.3968839645386 L 533.2655639648438 505.3968839645386 L 533.2655639648438 513.3968839645386 L 525.2655639648438 513.3968839645386 L 525.2655639648438 505.3968839645386 Z" stroke-miterlimit="10" stroke-width="0.5" stroke-dasharray="0"/><text fill="#505050" stroke="none" font-family="monospace" font-size="14px" font-style="normal" font-weight="normal" text-decoration="normal" x="541.2655639648438" y="524.3968839645386" text-anchor="start" dominant-baseline="text-after-edge">cond</text><path fill="none" stroke="#505050" paint-order="fill stroke markers" d=" M 583.2655639648438 487.3968839645386 L 591.2655639648438 487.3968839645386 L 591.2655639648438 495.3968839645386 L 583.2655639648438 495.3968839645386 L 583.2655639648438 487.3968839645386 Z" stroke-miterlimit="10" stroke-width="0.5" stroke-dasharray="0"/><path fill="#e0e0e0" stroke="none" paint-order="stroke fill markers" d=" M 719.2844974398613 220.86251068115234 L 711.2844974398613 188.86251068115234 L 711.2844974398613 252.86251068115234 Z M 501.26556396484375 501.3968839645386 L 509.26556396484375 469.3968839645386 L 509.26556396484375 533.3968839645386 Z"/><path fill="none" stroke="none"/><path fill="none" stroke="#e0e0e0" paint-order="fill stroke markers" d=" M 719.2844974398613 220.86251068115234 C 825.8718376601603 220.86251068115234 394.6782237445447 501.3968839645386 501.26556396484375 501.3968839645386" stroke-miterlimit="10" stroke-width="2" stroke-dasharray="0"/><path fill="white" stroke="#505050" paint-order="fill stroke markers" d=" M 469.69989013671875 479.4031400680542 L 485.69989013671875 479.4031400680542 L 485.69989013671875 495.4031400680542 L 469.69989013671875 495.4031400680542 L 477.69989013671875 487.4031400680542 L 469.69989013671875 479.4031400680542" stroke-miterlimit="10" stroke-width="0.5" stroke-dasharray="0"/><path fill="none" stroke="#505050" paint-order="fill stroke markers" d=" M 477.69989013671875 483.4031400680542 L 485.69989013671875 483.4031400680542 L 485.69989013671875 491.4031400680542 L 477.69989013671875 491.4031400680542 L 477.69989013671875 483.4031400680542 Z" stroke-miterlimit="10" stroke-width="0.5" stroke-dasharray="0"/><path fill="none" stroke="none"/><path fill="white" stroke="#505050" paint-order="fill stroke markers" d=" M 446.5217971801758 502.31875133514404 L 479.5217971801758 502.31875133514404 L 487.5217971801758 527.318751335144 L 479.5217971801758 552.318751335144 L 446.5217971801758 552.318751335144 L 446.5217971801758 502.31875133514404" stroke-miterlimit="10" stroke-width="0.5" stroke-dasharray="0"/><path fill="white" stroke="#505050" paint-order="fill stroke markers" d=" M 454.5217971801758 506.31875133514404 L 479.5217971801758 506.31875133514404 L 479.5217971801758 548.318751335144 L 454.5217971801758 548.318751335144 L 454.5217971801758 506.31875133514404 Z" stroke-miterlimit="10" stroke-width="0.5" stroke-dasharray="0"/><path fill="#F0F0F0" stroke="none" paint-order="stroke fill markers" d=""/><text fill="#505050" stroke="none" font-family="monospace" font-size="14px" font-style="normal" font-weight="normal" text-decoration="normal" x="467.0217971801758" y="524.318751335144" text-anchor="middle" dominant-baseline="text-after-edge">&gt;=</text><path fill="none" stroke="#505050" paint-order="fill stroke markers" d=" M 454.5217971801758 524.318751335144 L 462.5217971801758 524.318751335144 L 462.5217971801758 532.318751335144 L 454.5217971801758 532.318751335144 L 454.5217971801758 524.318751335144 Z" stroke-miterlimit="10" stroke-width="0.5" stroke-dasharray="0"/><path fill="none" stroke="#505050" paint-order="fill stroke markers" d=" M 454.5217971801758 536.318751335144 L 462.5217971801758 536.318751335144 L 462.5217971801758 544.318751335144 L 454.5217971801758 544.318751335144 L 454.5217971801758 536.318751335144 Z" stroke-miterlimit="10" stroke-width="0.5" stroke-dasharray="0"/><path fill="none" stroke="#505050" paint-order="fill stroke markers" d=" M 471.5217971801758 524.318751335144 L 479.5217971801758 524.318751335144 L 479.5217971801758 532.318751335144 L 471.5217971801758 532.318751335144 L 471.5217971801758 524.318751335144 Z" stroke-miterlimit="10" stroke-width="0.5" stroke-dasharray="0"/><path fill="white" stroke="#505050" paint-order="fill stroke markers" d=" M 424.59363555908203 343.4437894821167 L 424.59363555908203 434.36565685272217 Q 424.59363555908203 442.36565685272217 432.59363555908203 442.36565685272217 L 701.3873901367188 442.36565685272217 Q 709.3873901367188 442.36565685272217 709.3873901367188 434.36565685272217 L 709.3873901367188 343.4437894821167 Q 709.3873901367188 335.4437894821167 701.3873901367188 335.4437894821167 L 432.59363555908203 335.4437894821167 Q 424.59363555908203 335.4437894821167 424.59363555908203 343.4437894821167" stroke-miterlimit="10" stroke-width="0.5" stroke-dasharray="0"/><path fill="#F0F0F0" stroke="#505050" paint-order="fill stroke markers" d=" M 617.3873901367188 343.4437894821167 L 709.3873901367188 343.4437894821167 L 709.3873901367188 373.4437894821167 L 617.3873901367188 373.4437894821167 L 617.3873901367188 343.4437894821167 Z" stroke-miterlimit="10" stroke-width="0.5" stroke-dasharray="0"/><text fill="#505050" stroke="none" font-family="monospace" font-size="14px" font-style="normal" font-weight="normal" text-decoration="normal" x="663.3873901367188" y="361.4437894821167" text-anchor="middle" dominant-baseline="text-after-edge">advanceLow</text><path fill="none" stroke="#505050" paint-order="fill stroke markers" d=" M 617.3873901367188 361.4437894821167 L 625.3873901367188 361.4437894821167 L 625.3873901367188 369.4437894821167 L 617.3873901367188 369.4437894821167 L 617.3873901367188 361.4437894821167 Z" stroke-miterlimit="10" stroke-width="0.5" stroke-dasharray="0"/><path fill="none" stroke="#505050" paint-order="fill stroke markers" d=" M 701.3873901367188 361.4437894821167 L 709.3873901367188 361.4437894821167 L 709.3873901367188 369.4437894821167 L 701.3873901367188 369.4437894821167 L 701.3873901367188 361.4437894821167 Z" stroke-miterlimit="10" stroke-width="0.5" stroke-dasharray="0"/><path fill="white" stroke="#505050" paint-order="fill stroke markers" d=" M 592.66552734375 357.1937894821167 L 600.66552734375 357.1937894821167 L 608.66552734375 365.1937894821167 L 600.66552734375 373.1937894821167 L 592.66552734375 373.1937894821167 L 592.66552734375 357.1937894821167" stroke-miterlimit="10" stroke-width="0.5" stroke-dasharray="0"/><path fill="none" stroke="#505050" paint-order="fill stroke markers" d=" M 592.66552734375 361.1937894821167 L 600.66552734375 361.1937894821167 L 600.66552734375 369.1937894821167 L 592.66552734375 369.1937894821167 L 592.66552734375 361.1937894821167 Z" stroke-miterlimit="10" stroke-width="0.5" stroke-dasharray="0"/><path fill="white" stroke="#505050" paint-order="fill stroke markers" d=" M 495.33740234375 343.4437894821167 L 577.33740234375 343.4437894821167 L 577.33740234375 407.4437894821167 L 495.33740234375 407.4437894821167 L 495.33740234375 343.4437894821167 Z" stroke-miterlimit="10" stroke-width="0.5" stroke-dasharray="0"/><path fill="#F0F0F0" stroke="none" paint-order="stroke fill markers" d=""/><text fill="#505050" stroke="none" font-family="monospace" font-size="14px" font-style="normal" font-weight="normal" text-decoration="normal" x="536.33740234375" y="361.4437894821167" text-anchor="middle" dominant-baseline="text-after-edge">advance</text><path fill="none" stroke="#505050" paint-order="fill stroke markers" d=" M 495.33740234375 362.4437894821167 L 503.33740234375 362.4437894821167 L 503.33740234375 370.4437894821167 L 495.33740234375 370.4437894821167 L 495.33740234375 362.4437894821167 Z" stroke-miterlimit="10" stroke-width="0.5" stroke-dasharray="0"/><text fill="#505050" stroke="none" font-family="monospace" font-size="14px" font-style="normal" font-weight="normal" text-decoration="normal" x="511.33740234375" y="375.4437894821167" text-anchor="start" dominant-baseline="text-after-edge">i</text><path fill="none" stroke="#505050" paint-order="fill stroke markers" d=" M 495.33740234375 375.4437894821167 L 519.33740234375 375.4437894821167 L 519.33740234375 403.4437894821167 L 495.33740234375 403.4437894821167 L 495.33740234375 375.4437894821167 Z" stroke-miterlimit="10" stroke-width="0.5" stroke-dasharray="0"/><path fill="none" stroke="#505050" paint-order="fill stroke markers" d=" M 495.33740234375 379.4437894821167 L 503.33740234375 379.4437894821167 L 503.33740234375 387.4437894821167 L 495.33740234375 387.4437894821167 L 495.33740234375 379.4437894821167 Z" stroke-miterlimit="10" stroke-width="0.5" stroke-dasharray="0"/><path fill="none" stroke="#505050" paint-order="fill stroke markers" d=" M 495.33740234375 391.4437894821167 L 503.33740234375 391.4437894821167 L 503.33740234375 399.4437894821167 L 495.33740234375 399.4437894821167 L 495.33740234375 391.4437894821167 Z" stroke-miterlimit="10" stroke-width="0.5" stroke-dasharray="0"/><path fill="none" stroke="#505050" paint-order="fill stroke markers" d=" M 511.33740234375 379.4437894821167 L 519.33740234375 379.4437894821167 L 519.33740234375 387.4437894821167 L 511.33740234375 387.4437894821167 L 511.33740234375 379.4437894821167 Z" stroke-miterlimit="10" stroke-width="0.5" stroke-dasharray="0"/><text fill="#505050" stroke="none" font-family="monospace" font-size="14px" font-style="normal" font-weight="normal" text-decoration="normal" x="527.33740234375" y="398.4437894821167" text-anchor="start" dominant-baseline="text-after-edge">cond</text><path fill="none" stroke="#505050" paint-order="fill stroke markers" d=" M 569.33740234375 361.4437894821167 L 577.33740234375 361.4437894821167 L 577.33740234375 369.4437894821167 L 569.33740234375 369.4437894821167 L 569.33740234375 361.4437894821167 Z" stroke-miterlimit="10" stroke-width="0.5" stroke-dasharray="0"/><path fill="#e0e0e0" stroke="none" paint-order="stroke fill markers" d=" M 719.2844974398613 220.86251068115234 L 711.2844974398613 188.86251068115234 L 711.2844974398613 252.86251068115234 Z M 487.33740234375 375.4437894821167 L 495.33740234375 343.4437894821167 L 495.33740234375 407.4437894821167 Z"/><path fill="none" stroke="none"/><path fill="none" stroke="#e0e0e0" paint-order="fill stroke markers" d=" M 719.2844974398613 220.86251068115234 C 802.9058727044068 220.86251068115234 403.71602707920454 375.4437894821167 487.33740234375 375.4437894821167" stroke-miterlimit="10" stroke-width="2" stroke-dasharray="0"/><path fill="none" stroke="none"/><path fill="white" stroke="#505050" paint-order="fill stroke markers" d=" M 432.59363555908203 376.36565685272217 L 465.59363555908203 376.36565685272217 L 473.59363555908203 401.36565685272217 L 465.59363555908203 426.36565685272217 L 432.59363555908203 426.36565685272217 L 432.59363555908203 376.36565685272217" stroke-miterlimit="10" stroke-width="0.5" stroke-dasharray="0"/><path fill="white" stroke="#505050" paint-order="fill stroke markers" d=" M 440.59363555908203 380.36565685272217 L 465.59363555908203 380.36565685272217 L 465.59363555908203 422.36565685272217 L 440.59363555908203 422.36565685272217 L 440.59363555908203 380.36565685272217 Z" stroke-miterlimit="10" stroke-width="0.5" stroke-dasharray="0"/><path fill="#F0F0F0" stroke="none" paint-order="stroke fill markers" d=""/><text fill="#505050" stroke="none" font-family="monospace" font-size="14px" font-style="normal" font-weight="normal" text-decoration="normal" x="453.09363555908203" y="398.36565685272217" text-anchor="middle" dominant-baseline="text-after-edge">&lt;=</text><path fill="none" stroke="#505050" paint-order="fill stroke markers" d=" M 440.59363555908203 398.36565685272217 L 448.59363555908203 398.36565685272217 L 448.59363555908203 406.36565685272217 L 440.59363555908203 406.36565685272217 L 440.59363555908203 398.36565685272217 Z" stroke-miterlimit="10" stroke-width="0.5" stroke-dasharray="0"/><path fill="none" stroke="#505050" paint-order="fill stroke markers" d=" M 440.59363555908203 410.36565685272217 L 448.59363555908203 410.36565685272217 L 448.59363555908203 418.36565685272217 L 440.59363555908203 418.36565685272217 L 440.59363555908203 410.36565685272217 Z" stroke-miterlimit="10" stroke-width="0.5" stroke-dasharray="0"/><path fill="none" stroke="#505050" paint-order="fill stroke markers" d=" M 457.59363555908203 398.36565685272217 L 465.59363555908203 398.36565685272217 L 465.59363555908203 406.36565685272217 L 457.59363555908203 406.36565685272217 L 457.59363555908203 398.36565685272217 Z" stroke-miterlimit="10" stroke-width="0.5" stroke-dasharray="0"/><path fill="white" stroke="#505050" paint-order="fill stroke markers" d=" M 455.771728515625 353.4500455856323 L 471.771728515625 353.4500455856323 L 471.771728515625 369.4500455856323 L 455.771728515625 369.4500455856323 L 463.771728515625 361.4500455856323 L 455.771728515625 353.4500455856323" stroke-miterlimit="10" stroke-width="0.5" stroke-dasharray="0"/><path fill="none" stroke="#505050" paint-order="fill stroke markers" d=" M 463.771728515625 357.4500455856323 L 471.771728515625 357.4500455856323 L 471.771728515625 365.4500455856323 L 463.771728515625 365.4500455856323 L 463.771728515625 357.4500455856323 Z" stroke-miterlimit="10" stroke-width="0.5" stroke-dasharray="0"/><path fill="white" stroke="#505050" paint-order="fill stroke markers" d=" M 393.6562015414238 188.86251068115234 L 393.6562015414238 306.6031379699707 Q 393.6562015414238 314.6031379699707 401.6562015414238 314.6031379699707 L 703.2844974398613 314.6031379699707 Q 711.2844974398613 314.6031379699707 711.2844974398613 306.6031379699707 L 711.2844974398613 188.86251068115234 Q 711.2844974398613 180.86251068115234 703.2844974398613 180.86251068115234 L 401.6562015414238 180.86251068115234 Q 393.6562015414238 180.86251068115234 393.6562015414238 188.86251068115234" stroke-miterlimit="10" stroke-width="0.5" stroke-dasharray="0"/><path fill="#F0F0F0" stroke="#505050" paint-order="fill stroke markers" d=" M 629.2844974398613 188.86251068115234 L 711.2844974398613 188.86251068115234 L 711.2844974398613 252.86251068115234 L 629.2844974398613 252.86251068115234 L 629.2844974398613 188.86251068115234 Z" stroke-miterlimit="10" stroke-width="0.5" stroke-dasharray="0"/><text fill="#505050" stroke="none" font-family="monospace" font-size="14px" font-style="normal" font-weight="normal" text-decoration="normal" x="670.2844974398613" y="206.86251068115234" text-anchor="middle" dominant-baseline="text-after-edge">advance</text><path fill="none" stroke="#505050" paint-order="fill stroke markers" d=" M 629.2844974398613 207.86251068115234 L 637.2844974398613 207.86251068115234 L 637.2844974398613 215.86251068115234 L 629.2844974398613 215.86251068115234 L 629.2844974398613 207.86251068115234 Z" stroke-miterlimit="10" stroke-width="0.5" stroke-dasharray="0"/><text fill="#505050" stroke="none" font-family="monospace" font-size="14px" font-style="normal" font-weight="normal" text-decoration="normal" x="645.2844974398613" y="220.86251068115234" text-anchor="start" dominant-baseline="text-after-edge">i</text><path fill="none" stroke="#505050" paint-order="fill stroke markers" d=" M 629.2844974398613 220.86251068115234 L 653.2844974398613 220.86251068115234 L 653.2844974398613 248.86251068115234 L 629.2844974398613 248.86251068115234 L 629.2844974398613 220.86251068115234 Z" stroke-miterlimit="10" stroke-width="0.5" stroke-dasharray="0"/><path fill="none" stroke="#505050" paint-order="fill stroke markers" d=" M 629.2844974398613 224.86251068115234 L 637.2844974398613 224.86251068115234 L 637.2844974398613 232.86251068115234 L 629.2844974398613 232.86251068115234 L 629.2844974398613 224.86251068115234 Z" stroke-miterlimit="10" stroke-width="0.5" stroke-dasharray="0"/><path fill="none" stroke="#505050" paint-order="fill stroke markers" d=" M 629.2844974398613 236.86251068115234 L 637.2844974398613 236.86251068115234 L 637.2844974398613 244.86251068115234 L 629.2844974398613 244.86251068115234 L 629.2844974398613 236.86251068115234 Z" stroke-miterlimit="10" stroke-width="0.5" stroke-dasharray="0"/><path fill="none" stroke="#505050" paint-order="fill stroke markers" d=" M 645.2844974398613 224.86251068115234 L 653.2844974398613 224.86251068115234 L 653.2844974398613 232.86251068115234 L 645.2844974398613 232.86251068115234 L 645.2844974398613 224.86251068115234 Z" stroke-miterlimit="10" stroke-width="0.5" stroke-dasharray="0"/><text fill="#505050" stroke="none" font-family="monospace" font-size="14px" font-style="normal" font-weight="normal" text-decoration="normal" x="661.2844974398613" y="243.86251068115234" text-anchor="start" dominant-baseline="text-after-edge">cond</text><path fill="none" stroke="#505050" paint-order="fill stroke markers" d=" M 703.2844974398613 206.86251068115234 L 711.2844974398613 206.86251068115234 L 711.2844974398613 214.86251068115234 L 703.2844974398613 214.86251068115234 L 703.2844974398613 206.86251068115234 Z" stroke-miterlimit="10" stroke-width="0.5" stroke-dasharray="0"/><path fill="white" stroke="#505050" paint-order="fill stroke markers" d=" M 404.8937675356865 215.6656608581543 L 436.8937675356865 215.6656608581543 L 436.8937675356865 233.6656608581543 L 404.8937675356865 233.6656608581543 L 412.8937675356865 224.6656608581543 L 404.8937675356865 215.6656608581543" stroke-miterlimit="10" stroke-width="0.5" stroke-dasharray="0"/><path fill="none" stroke="#505050" paint-order="fill stroke markers" d=" M 428.8937675356865 220.6656608581543 L 436.8937675356865 220.6656608581543 L 436.8937675356865 228.6656608581543 L 428.8937675356865 228.6656608581543 L 428.8937675356865 220.6656608581543 Z" stroke-miterlimit="10" stroke-width="0.5" stroke-dasharray="0"/><text fill="#505050" stroke="none" font-family="monospace" font-size="14px" font-style="normal" font-weight="normal" text-decoration="normal" x="420.8937675356865" y="233.6656608581543" text-anchor="end" dominant-baseline="text-after-edge">i</text><path fill="white" stroke="#505050" paint-order="fill stroke markers" d=" M 467.5749389529228 202.57501983642578 L 500.5749389529228 202.57501983642578 L 500.5749389529228 232.57501983642578 L 467.5749389529228 232.57501983642578 L 467.5749389529228 202.57501983642578 Z" stroke-miterlimit="10" stroke-width="0.5" stroke-dasharray="0"/><path fill="#F0F0F0" stroke="none" paint-order="stroke fill markers" d=""/><text fill="#505050" stroke="none" font-family="monospace" font-size="14px" font-style="normal" font-weight="normal" text-decoration="normal" x="484.0749389529228" y="220.57501983642578" text-anchor="middle" dominant-baseline="text-after-edge">get</text><path fill="none" stroke="#505050" paint-order="fill stroke markers" d=" M 467.5749389529228 220.57501983642578 L 475.5749389529228 220.57501983642578 L 475.5749389529228 228.57501983642578 L 467.5749389529228 228.57501983642578 L 467.5749389529228 220.57501983642578 Z" stroke-miterlimit="10" stroke-width="0.5" stroke-dasharray="0"/><path fill="none" stroke="#505050" paint-order="fill stroke markers" d=" M 492.5749389529228 220.57501983642578 L 500.5749389529228 220.57501983642578 L 500.5749389529228 228.57501983642578 L 492.5749389529228 228.57501983642578 L 492.5749389529228 220.57501983642578 Z" stroke-miterlimit="10" stroke-width="0.5" stroke-dasharray="0"/><path fill="#e0e0e0" stroke="none" paint-order="stroke fill markers" d=" M 381.4124328494072 199.13127899169922 L 373.4124328494072 184.13127899169922 L 373.4124328494072 214.13127899169922 Z M 459.5749389529228 217.57501983642578 L 467.5749389529228 202.57501983642578 L 467.5749389529228 232.57501983642578 Z"/><path fill="none" stroke="none"/><path fill="none" stroke="#e0e0e0" paint-order="fill stroke markers" d=" M 381.4124328494072 199.13127899169922 C 405.50515798181306 199.13127899169922 435.48221382051696 217.57501983642578 459.5749389529228 217.57501983642578" stroke-miterlimit="10" stroke-width="2" stroke-dasharray="0"/><path fill="white" stroke="#505050" paint-order="fill stroke markers" d=" M 603.6467162966728 212.109375 L 611.6467162966728 212.109375 L 619.6467162966728 220.109375 L 611.6467162966728 228.109375 L 603.6467162966728 228.109375 L 603.6467162966728 212.109375" stroke-miterlimit="10" stroke-width="0.5" stroke-dasharray="0"/><path fill="none" stroke="#505050" paint-order="fill stroke markers" d=" M 603.6467162966728 216.109375 L 611.6467162966728 216.109375 L 611.6467162966728 224.109375 L 603.6467162966728 224.109375 L 603.6467162966728 216.109375 Z" stroke-miterlimit="10" stroke-width="0.5" stroke-dasharray="0"/><path fill="white" stroke="#505050" paint-order="fill stroke markers" d=" M 569.7187530994415 198.43439173698425 L 593.7187530994415 198.43439173698425 L 593.7187530994415 252.43439173698425 L 569.7187530994415 252.43439173698425 L 569.7187530994415 198.43439173698425 Z" stroke-miterlimit="10" stroke-width="0.5" stroke-dasharray="0"/><path fill="#F0F0F0" stroke="none" paint-order="stroke fill markers" d=""/><text fill="#505050" stroke="none" font-family="monospace" font-size="14px" font-style="normal" font-weight="normal" text-decoration="normal" x="581.7187530994415" y="216.43439173698425" text-anchor="middle" dominant-baseline="text-after-edge">?</text><path fill="none" stroke="#505050" paint-order="fill stroke markers" d=" M 569.7187530994415 216.43439173698425 L 577.7187530994415 216.43439173698425 L 577.7187530994415 224.43439173698425 L 569.7187530994415 224.43439173698425 L 569.7187530994415 216.43439173698425 Z" stroke-miterlimit="10" stroke-width="0.5" stroke-dasharray="0"/><path fill="none" stroke="#505050" paint-order="fill stroke markers" d=" M 569.7187530994415 228.43439173698425 L 577.7187530994415 228.43439173698425 L 577.7187530994415 236.43439173698425 L 569.7187530994415 236.43439173698425 L 569.7187530994415 228.43439173698425 Z" stroke-miterlimit="10" stroke-width="0.5" stroke-dasharray="0"/><path fill="none" stroke="#505050" paint-order="fill stroke markers" d=" M 569.7187530994415 240.43439173698425 L 577.7187530994415 240.43439173698425 L 577.7187530994415 248.43439173698425 L 569.7187530994415 248.43439173698425 L 569.7187530994415 240.43439173698425 Z" stroke-miterlimit="10" stroke-width="0.5" stroke-dasharray="0"/><path fill="none" stroke="#505050" paint-order="fill stroke markers" d=" M 585.7187530994415 216.43439173698425 L 593.7187530994415 216.43439173698425 L 593.7187530994415 224.43439173698425 L 585.7187530994415 224.43439173698425 L 585.7187530994415 216.43439173698425 Z" stroke-miterlimit="10" stroke-width="0.5" stroke-dasharray="0"/><path fill="none" stroke="none"/><path fill="white" stroke="#505050" paint-order="fill stroke markers" d=" M 400.0313064455986 248.6031379699707 L 458.0313064455986 248.6031379699707 L 458.0313064455986 298.6031379699707 L 400.0313064455986 298.6031379699707 L 408.0313064455986 273.6031379699707 L 400.0313064455986 248.6031379699707" stroke-miterlimit="10" stroke-width="0.5" stroke-dasharray="6,3"/><path fill="#F0F0F0" stroke="none" paint-order="stroke fill markers" d=" M 416.0313064455986 252.6031379699707 L 458.0313064455986 252.6031379699707 L 458.0313064455986 294.6031379699707 L 416.0313064455986 294.6031379699707 L 416.0313064455986 252.6031379699707 Z"/><path fill="none" stroke="#505050" paint-order="fill stroke markers" d=" M 416.0313064455986 252.6031379699707 L 458.0313064455986 252.6031379699707 L 458.0313064455986 294.6031379699707 L 416.0313064455986 294.6031379699707 L 416.0313064455986 252.6031379699707 Z" stroke-miterlimit="10" stroke-width="0.5" stroke-dasharray="0"/><text fill="#505050" stroke="none" font-family="monospace" font-size="14px" font-style="normal" font-weight="normal" text-decoration="normal" x="437.0313064455986" y="270.6031379699707" text-anchor="middle" dominant-baseline="text-after-edge">cond</text><path fill="none" stroke="#505050" paint-order="fill stroke markers" d=" M 416.0313064455986 270.6031379699707 L 424.0313064455986 270.6031379699707 L 424.0313064455986 278.6031379699707 L 416.0313064455986 278.6031379699707 L 416.0313064455986 270.6031379699707 Z" stroke-miterlimit="10" stroke-width="0.5" stroke-dasharray="0"/><path fill="none" stroke="#505050" paint-order="fill stroke markers" d=" M 416.0313064455986 282.6031379699707 L 424.0313064455986 282.6031379699707 L 424.0313064455986 290.6031379699707 L 416.0313064455986 290.6031379699707 L 416.0313064455986 282.6031379699707 Z" stroke-miterlimit="10" stroke-width="0.5" stroke-dasharray="0"/><path fill="none" stroke="#505050" paint-order="fill stroke markers" d=" M 450.0313064455986 270.6031379699707 L 458.0313064455986 270.6031379699707 L 458.0313064455986 278.6031379699707 L 450.0313064455986 278.6031379699707 L 450.0313064455986 270.6031379699707 Z" stroke-miterlimit="10" stroke-width="0.5" stroke-dasharray="0"/><path fill="white" stroke="#505050" paint-order="fill stroke markers" d=" M 416.0313064455986 252.6031379699707 L 458.0313064455986 252.6031379699707 L 458.0313064455986 294.6031379699707 L 416.0313064455986 294.6031379699707 L 416.0313064455986 252.6031379699707 Z" stroke-miterlimit="10" stroke-width="0.5" stroke-dasharray="6,3"/><path fill="#F0F0F0" stroke="none" paint-order="stroke fill markers" d=""/><text fill="#505050" stroke="none" font-family="monospace" font-size="14px" font-style="normal" font-weight="normal" text-decoration="normal" x="437.0313064455986" y="270.6031379699707" text-anchor="middle" dominant-baseline="text-after-edge">cond</text><path fill="none" stroke="#505050" paint-order="fill stroke markers" d=" M 416.0313064455986 270.6031379699707 L 424.0313064455986 270.6031379699707 L 424.0313064455986 278.6031379699707 L 416.0313064455986 278.6031379699707 L 416.0313064455986 270.6031379699707 Z" stroke-miterlimit="10" stroke-width="0.5" stroke-dasharray="0"/><path fill="none" stroke="#505050" paint-order="fill stroke markers" d=" M 416.0313064455986 282.6031379699707 L 424.0313064455986 282.6031379699707 L 424.0313064455986 290.6031379699707 L 416.0313064455986 290.6031379699707 L 416.0313064455986 282.6031379699707 Z" stroke-miterlimit="10" stroke-width="0.5" stroke-dasharray="0"/><path fill="none" stroke="#505050" paint-order="fill stroke markers" d=" M 450.0313064455986 270.6031379699707 L 458.0313064455986 270.6031379699707 L 458.0313064455986 278.6031379699707 L 450.0313064455986 278.6031379699707 L 450.0313064455986 270.6031379699707 Z" stroke-miterlimit="10" stroke-width="0.5" stroke-dasharray="0"/><path fill="white" stroke="#505050" paint-order="fill stroke markers" d=" M 513.0843505859375 206.87501049041748 L 555.0843505859375 206.87501049041748 L 555.0843505859375 248.87501049041748 L 513.0843505859375 248.87501049041748 L 513.0843505859375 206.87501049041748 Z" stroke-miterlimit="10" stroke-width="0.5" stroke-dasharray="0"/><path fill="#F0F0F0" stroke="none" paint-order="stroke fill markers" d=""/><text fill="#505050" stroke="none" font-family="monospace" font-size="14px" font-style="normal" font-weight="normal" text-decoration="normal" x="534.0843505859375" y="224.87501049041748" text-anchor="middle" dominant-baseline="text-after-edge">cond</text><path fill="none" stroke="#505050" paint-order="fill stroke markers" d=" M 513.0843505859375 224.87501049041748 L 521.0843505859375 224.87501049041748 L 521.0843505859375 232.87501049041748 L 513.0843505859375 232.87501049041748 L 513.0843505859375 224.87501049041748 Z" stroke-miterlimit="10" stroke-width="0.5" stroke-dasharray="0"/><path fill="none" stroke="#505050" paint-order="fill stroke markers" d=" M 513.0843505859375 236.87501049041748 L 521.0843505859375 236.87501049041748 L 521.0843505859375 244.87501049041748 L 513.0843505859375 244.87501049041748 L 513.0843505859375 236.87501049041748 Z" stroke-miterlimit="10" stroke-width="0.5" stroke-dasharray="0"/><path fill="none" stroke="#505050" paint-order="fill stroke markers" d=" M 547.0843505859375 224.87501049041748 L 555.0843505859375 224.87501049041748 L 555.0843505859375 232.87501049041748 L 547.0843505859375 232.87501049041748 L 547.0843505859375 224.87501049041748 Z" stroke-miterlimit="10" stroke-width="0.5" stroke-dasharray="0"/><path fill="white" stroke="#505050" paint-order="fill stroke markers" d=" M 315.38763350248337 231.08439254760742 L 381.38763350248337 231.08439254760742 L 381.38763350248337 249.08439254760742 L 315.38763350248337 249.08439254760742 L 323.38763350248337 240.08439254760742 L 315.38763350248337 231.08439254760742" stroke-miterlimit="10" stroke-width="0.5" stroke-dasharray="0"/><path fill="none" stroke="#505050" paint-order="fill stroke markers" d=" M 373.38763350248337 236.08439254760742 L 381.38763350248337 236.08439254760742 L 381.38763350248337 244.08439254760742 L 373.38763350248337 244.08439254760742 L 373.38763350248337 236.08439254760742 Z" stroke-miterlimit="10" stroke-width="0.5" stroke-dasharray="0"/><text fill="#505050" stroke="none" font-family="monospace" font-size="14px" font-style="normal" font-weight="normal" text-decoration="normal" x="365.38763350248337" y="249.08439254760742" text-anchor="end" dominant-baseline="text-after-edge">pivot</text><path fill="none" stroke="none"/><path fill="white" stroke="#505050" paint-order="fill stroke markers" d=" M 324.4124328494072 180.13127899169922 L 373.4124328494072 180.13127899169922 L 373.4124328494072 218.13127899169922 L 324.4124328494072 218.13127899169922 L 332.4124328494072 199.13127899169922 L 324.4124328494072 180.13127899169922" stroke-miterlimit="10" stroke-width="0.5" stroke-dasharray="6,3"/><path fill="#F0F0F0" stroke="none" paint-order="stroke fill markers" d=" M 340.4124328494072 184.13127899169922 L 373.4124328494072 184.13127899169922 L 373.4124328494072 214.13127899169922 L 340.4124328494072 214.13127899169922 L 340.4124328494072 184.13127899169922 Z"/><path fill="none" stroke="#505050" paint-order="fill stroke markers" d=" M 340.4124328494072 184.13127899169922 L 373.4124328494072 184.13127899169922 L 373.4124328494072 214.13127899169922 L 340.4124328494072 214.13127899169922 L 340.4124328494072 184.13127899169922 Z" stroke-miterlimit="10" stroke-width="0.5" stroke-dasharray="0"/><text fill="#505050" stroke="none" font-family="monospace" font-size="14px" font-style="normal" font-weight="normal" text-decoration="normal" x="356.9124328494072" y="202.13127899169922" text-anchor="middle" dominant-baseline="text-after-edge">get</text><path fill="none" stroke="#505050" paint-order="fill stroke markers" d=" M 340.4124328494072 202.13127899169922 L 348.4124328494072 202.13127899169922 L 348.4124328494072 210.13127899169922 L 340.4124328494072 210.13127899169922 L 340.4124328494072 202.13127899169922 Z" stroke-miterlimit="10" stroke-width="0.5" stroke-dasharray="0"/><path fill="none" stroke="#505050" paint-order="fill stroke markers" d=" M 365.4124328494072 202.13127899169922 L 373.4124328494072 202.13127899169922 L 373.4124328494072 210.13127899169922 L 365.4124328494072 210.13127899169922 L 365.4124328494072 202.13127899169922 Z" stroke-miterlimit="10" stroke-width="0.5" stroke-dasharray="0"/><path fill="white" stroke="#505050" paint-order="fill stroke markers" d=" M 340.4124328494072 184.13127899169922 L 373.4124328494072 184.13127899169922 L 373.4124328494072 214.13127899169922 L 340.4124328494072 214.13127899169922 L 340.4124328494072 184.13127899169922 Z" stroke-miterlimit="10" stroke-width="0.5" stroke-dasharray="6,3"/><path fill="#F0F0F0" stroke="none" paint-order="stroke fill markers" d=""/><text fill="#505050" stroke="none" font-family="monospace" font-size="14px" font-style="normal" font-weight="normal" text-decoration="normal" x="356.9124328494072" y="202.13127899169922" text-anchor="middle" dominant-baseline="text-after-edge">get</text><path fill="none" stroke="#505050" paint-order="fill stroke markers" d=" M 340.4124328494072 202.13127899169922 L 348.4124328494072 202.13127899169922 L 348.4124328494072 210.13127899169922 L 340.4124328494072 210.13127899169922 L 340.4124328494072 202.13127899169922 Z" stroke-miterlimit="10" stroke-width="0.5" stroke-dasharray="0"/><path fill="none" stroke="#505050" paint-order="fill stroke markers" d=" M 365.4124328494072 202.13127899169922 L 373.4124328494072 202.13127899169922 L 373.4124328494072 210.13127899169922 L 365.4124328494072 210.13127899169922 L 365.4124328494072 202.13127899169922 Z" stroke-miterlimit="10" stroke-width="0.5" stroke-dasharray="0"/><path fill="none" stroke="none"/><path fill="white" stroke="#505050" paint-order="fill stroke markers" d=" M 766.4281005859375 359.27817821502686 L 866.4281005859375 359.27817821502686 L 874.4281005859375 378.27817821502686 L 866.4281005859375 397.27817821502686 L 766.4281005859375 397.27817821502686 L 766.4281005859375 359.27817821502686" stroke-miterlimit="10" stroke-width="0.5" stroke-dasharray="0"/><path fill="white" stroke="#505050" paint-order="fill stroke markers" d=" M 774.4281005859375 363.27817821502686 L 866.4281005859375 363.27817821502686 L 866.4281005859375 393.27817821502686 L 774.4281005859375 393.27817821502686 L 774.4281005859375 363.27817821502686 Z" stroke-miterlimit="10" stroke-width="0.5" stroke-dasharray="0"/><path fill="#F0F0F0" stroke="none" paint-order="stroke fill markers" d=""/><text fill="#505050" stroke="none" font-family="monospace" font-size="14px" font-style="normal" font-weight="normal" text-decoration="normal" x="820.4281005859375" y="381.27817821502686" text-anchor="middle" dominant-baseline="text-after-edge">advanceLow</text><path fill="none" stroke="#505050" paint-order="fill stroke markers" d=" M 774.4281005859375 381.27817821502686 L 782.4281005859375 381.27817821502686 L 782.4281005859375 389.27817821502686 L 774.4281005859375 389.27817821502686 L 774.4281005859375 381.27817821502686 Z" stroke-miterlimit="10" stroke-width="0.5" stroke-dasharray="0"/><path fill="none" stroke="#505050" paint-order="fill stroke markers" d=" M 858.4281005859375 381.27817821502686 L 866.4281005859375 381.27817821502686 L 866.4281005859375 389.27817821502686 L 858.4281005859375 389.27817821502686 L 858.4281005859375 381.27817821502686 Z" stroke-miterlimit="10" stroke-width="0.5" stroke-dasharray="0"/><path fill="white" stroke="#505050" paint-order="fill stroke markers" d=" M 759.3531007766724 403.34377098083496 L 791.3531007766724 403.34377098083496 L 791.3531007766724 421.34377098083496 L 759.3531007766724 421.34377098083496 L 767.3531007766724 412.34377098083496 L 759.3531007766724 403.34377098083496" stroke-miterlimit="10" stroke-width="0.5" stroke-dasharray="0"/><path fill="none" stroke="#505050" paint-order="fill stroke markers" d=" M 783.3531007766724 408.34377098083496 L 791.3531007766724 408.34377098083496 L 791.3531007766724 416.34377098083496 L 783.3531007766724 416.34377098083496 L 783.3531007766724 408.34377098083496 Z" stroke-miterlimit="10" stroke-width="0.5" stroke-dasharray="0"/><text fill="#505050" stroke="none" font-family="monospace" font-size="14px" font-style="normal" font-weight="normal" text-decoration="normal" x="775.3531007766724" y="421.34377098083496" text-anchor="end" dominant-baseline="text-after-edge">i</text><path fill="white" stroke="#505050" paint-order="fill stroke markers" d=" M 761.1905641555786 428.3187770843506 L 793.1905641555786 428.3187770843506 L 793.1905641555786 446.3187770843506 L 761.1905641555786 446.3187770843506 L 769.1905641555786 437.3187770843506 L 761.1905641555786 428.3187770843506" stroke-miterlimit="10" stroke-width="0.5" stroke-dasharray="0"/><path fill="none" stroke="#505050" paint-order="fill stroke markers" d=" M 785.1905641555786 433.3187770843506 L 793.1905641555786 433.3187770843506 L 793.1905641555786 441.3187770843506 L 785.1905641555786 441.3187770843506 L 785.1905641555786 433.3187770843506 Z" stroke-miterlimit="10" stroke-width="0.5" stroke-dasharray="0"/><text fill="#505050" stroke="none" font-family="monospace" font-size="14px" font-style="normal" font-weight="normal" text-decoration="normal" x="777.1905641555786" y="446.3187770843506" text-anchor="end" dominant-baseline="text-after-edge">j</text><path fill="white" stroke="#505050" paint-order="fill stroke markers" d=" M 1081.3187379837036 349.5500240325928 L 1089.3187379837036 349.5500240325928 L 1097.3187379837036 357.5500240325928 L 1089.3187379837036 365.5500240325928 L 1081.3187379837036 365.5500240325928 L 1081.3187379837036 349.5500240325928" stroke-miterlimit="10" stroke-width="0.5" stroke-dasharray="0"/><path fill="none" stroke="#505050" paint-order="fill stroke markers" d=" M 1081.3187379837036 353.5500240325928 L 1089.3187379837036 353.5500240325928 L 1089.3187379837036 361.5500240325928 L 1081.3187379837036 361.5500240325928 L 1081.3187379837036 353.5500240325928 Z" stroke-miterlimit="10" stroke-width="0.5" stroke-dasharray="0"/><path fill="white" stroke="#505050" paint-order="fill stroke markers" d=" M 1051.5655641555786 350.38751792907715 L 1067.5655641555786 350.38751792907715 L 1067.5655641555786 366.38751792907715 L 1051.5655641555786 366.38751792907715 L 1051.5655641555786 350.38751792907715 Z" stroke-miterlimit="10" stroke-width="0.5" stroke-dasharray="0"/><path fill="#F0F0F0" stroke="none" paint-order="stroke fill markers" d=""/><path fill="none" stroke="#505050" paint-order="fill stroke markers" d=" M 1059.5655641555786 354.38751792907715 L 1067.5655641555786 354.38751792907715 L 1067.5655641555786 362.38751792907715 L 1059.5655641555786 362.38751792907715 L 1059.5655641555786 354.38751792907715 Z" stroke-miterlimit="10" stroke-width="0.5" stroke-dasharray="0"/><path fill="white" stroke="#505050" paint-order="fill stroke markers" d=" M 926.9153930544853 333.6938056945801 L 1027.9153930544853 333.6938056945801 L 1027.9153930544853 425.6938056945801 L 926.9153930544853 425.6938056945801 L 926.9153930544853 333.6938056945801 Z" stroke-miterlimit="10" stroke-width="0.5" stroke-dasharray="0"/><path fill="#F0F0F0" stroke="none" paint-order="stroke fill markers" d=" M 1011.9153930544853 351.6938056945801 L 1027.9153930544853 351.6938056945801 L 1027.9153930544853 367.6938056945801 L 1011.9153930544853 367.6938056945801 L 1011.9153930544853 351.6938056945801 Z"/><text fill="#505050" stroke="none" font-family="monospace" font-size="14px" font-style="normal" font-weight="normal" text-decoration="normal" x="977.4153930544853" y="351.6938056945801" text-anchor="middle" dominant-baseline="text-after-edge">iter[i..n[+</text><path fill="none" stroke="#505050" paint-order="fill stroke markers" d=" M 926.9153930544853 351.6938056945801 L 950.9153930544853 351.6938056945801 L 950.9153930544853 379.6938056945801 L 926.9153930544853 379.6938056945801 L 926.9153930544853 351.6938056945801 Z" stroke-miterlimit="10" stroke-width="0.5" stroke-dasharray="0"/><path fill="none" stroke="#505050" paint-order="fill stroke markers" d=" M 926.9153930544853 355.6938056945801 L 934.9153930544853 355.6938056945801 L 934.9153930544853 363.6938056945801 L 926.9153930544853 363.6938056945801 L 926.9153930544853 355.6938056945801 Z" stroke-miterlimit="10" stroke-width="0.5" stroke-dasharray="0"/><path fill="none" stroke="#505050" paint-order="fill stroke markers" d=" M 926.9153930544853 367.6938056945801 L 934.9153930544853 367.6938056945801 L 934.9153930544853 375.6938056945801 L 926.9153930544853 375.6938056945801 L 926.9153930544853 367.6938056945801 Z" stroke-miterlimit="10" stroke-width="0.5" stroke-dasharray="0"/><path fill="none" stroke="#505050" paint-order="fill stroke markers" d=" M 942.9153930544853 355.6938056945801 L 950.9153930544853 355.6938056945801 L 950.9153930544853 363.6938056945801 L 942.9153930544853 363.6938056945801 L 942.9153930544853 355.6938056945801 Z" stroke-miterlimit="10" stroke-width="0.5" stroke-dasharray="0"/><path fill="none" stroke="#505050" paint-order="fill stroke markers" d=" M 926.9153930544853 384.6938056945801 L 934.9153930544853 384.6938056945801 L 934.9153930544853 392.6938056945801 L 926.9153930544853 392.6938056945801 L 926.9153930544853 384.6938056945801 Z" stroke-miterlimit="10" stroke-width="0.5" stroke-dasharray="0"/><text fill="#505050" stroke="none" font-family="monospace" font-size="14px" font-style="normal" font-weight="normal" text-decoration="normal" x="942.9153930544853" y="397.6938056945801" text-anchor="start" dominant-baseline="text-after-edge">i</text><path fill="none" stroke="#505050" paint-order="fill stroke markers" d=" M 926.9153930544853 398.6938056945801 L 934.9153930544853 398.6938056945801 L 934.9153930544853 406.6938056945801 L 926.9153930544853 406.6938056945801 L 926.9153930544853 398.6938056945801 Z" stroke-miterlimit="10" stroke-width="0.5" stroke-dasharray="0"/><text fill="#505050" stroke="none" font-family="monospace" font-size="14px" font-style="normal" font-weight="normal" text-decoration="normal" x="942.9153930544853" y="411.6938056945801" text-anchor="start" dominant-baseline="text-after-edge">n</text><path fill="none" stroke="#505050" paint-order="fill stroke markers" d=" M 926.9153930544853 412.6938056945801 L 934.9153930544853 412.6938056945801 L 934.9153930544853 420.6938056945801 L 926.9153930544853 420.6938056945801 L 926.9153930544853 412.6938056945801 Z" stroke-miterlimit="10" stroke-width="0.5" stroke-dasharray="0"/><text fill="#505050" stroke="none" font-family="monospace" font-size="14px" font-style="normal" font-weight="normal" text-decoration="normal" x="942.9153930544853" y="425.6938056945801" text-anchor="start" dominant-baseline="text-after-edge">aux</text><path fill="none" stroke="#505050" paint-order="fill stroke markers" d=" M 1011.9153930544853 351.6938056945801 L 1027.9153930544853 351.6938056945801 L 1027.9153930544853 367.6938056945801 L 1011.9153930544853 367.6938056945801 L 1011.9153930544853 351.6938056945801 Z" stroke-miterlimit="10" stroke-width="0.5" stroke-dasharray="0"/><path fill="none" stroke="#505050" paint-order="fill stroke markers" d=" M 1019.9153930544853 355.6938056945801 L 1027.9153930544853 355.6938056945801 L 1027.9153930544853 363.6938056945801 L 1019.9153930544853 363.6938056945801 L 1019.9153930544853 355.6938056945801 Z" stroke-miterlimit="10" stroke-width="0.5" stroke-dasharray="0"/><path fill="white" stroke="#505050" paint-order="fill stroke markers" d=" M 1082.1468629837036 454.0594081878662 L 1090.1468629837036 454.0594081878662 L 1098.1468629837036 462.0594081878662 L 1090.1468629837036 470.0594081878662 L 1082.1468629837036 470.0594081878662 L 1082.1468629837036 454.0594081878662" stroke-miterlimit="10" stroke-width="0.5" stroke-dasharray="0"/><path fill="none" stroke="#505050" paint-order="fill stroke markers" d=" M 1082.1468629837036 458.0594081878662 L 1090.1468629837036 458.0594081878662 L 1090.1468629837036 466.0594081878662 L 1082.1468629837036 466.0594081878662 L 1082.1468629837036 458.0594081878662 Z" stroke-miterlimit="10" stroke-width="0.5" stroke-dasharray="0"/><path fill="white" stroke="#505050" paint-order="fill stroke markers" d=" M 1050.4718141555786 454.0750331878662 L 1066.4718141555786 454.0750331878662 L 1066.4718141555786 470.0750331878662 L 1050.4718141555786 470.0750331878662 L 1050.4718141555786 454.0750331878662 Z" stroke-miterlimit="10" stroke-width="0.5" stroke-dasharray="0"/><path fill="#F0F0F0" stroke="none" paint-order="stroke fill markers" d=""/><path fill="none" stroke="#505050" paint-order="fill stroke markers" d=" M 1058.4718141555786 458.0750331878662 L 1066.4718141555786 458.0750331878662 L 1066.4718141555786 466.0750331878662 L 1058.4718141555786 466.0750331878662 L 1058.4718141555786 458.0750331878662 Z" stroke-miterlimit="10" stroke-width="0.5" stroke-dasharray="0"/><path fill="none" stroke="none"/><path fill="white" stroke="#505050" paint-order="fill stroke markers" d=" M 762.7655639648438 490.5250120162964 L 871.7655639648438 490.5250120162964 L 879.7655639648438 509.5250120162964 L 871.7655639648438 528.5250120162964 L 762.7655639648438 528.5250120162964 L 762.7655639648438 490.5250120162964" stroke-miterlimit="10" stroke-width="0.5" stroke-dasharray="0"/><path fill="white" stroke="#505050" paint-order="fill stroke markers" d=" M 770.7655639648438 494.5250120162964 L 871.7655639648438 494.5250120162964 L 871.7655639648438 524.5250120162964 L 770.7655639648438 524.5250120162964 L 770.7655639648438 494.5250120162964 Z" stroke-miterlimit="10" stroke-width="0.5" stroke-dasharray="0"/><path fill="#F0F0F0" stroke="none" paint-order="stroke fill markers" d=""/><text fill="#505050" stroke="none" font-family="monospace" font-size="14px" font-style="normal" font-weight="normal" text-decoration="normal" x="821.2655639648438" y="512.5250120162964" text-anchor="middle" dominant-baseline="text-after-edge">advanceHigh</text><path fill="none" stroke="#505050" paint-order="fill stroke markers" d=" M 770.7655639648438 512.5250120162964 L 778.7655639648438 512.5250120162964 L 778.7655639648438 520.5250120162964 L 770.7655639648438 520.5250120162964 L 770.7655639648438 512.5250120162964 Z" stroke-miterlimit="10" stroke-width="0.5" stroke-dasharray="0"/><path fill="none" stroke="#505050" paint-order="fill stroke markers" d=" M 863.7655639648438 512.5250120162964 L 871.7655639648438 512.5250120162964 L 871.7655639648438 520.5250120162964 L 863.7655639648438 520.5250120162964 L 863.7655639648438 512.5250120162964 Z" stroke-miterlimit="10" stroke-width="0.5" stroke-dasharray="0"/><path fill="none" stroke="#505050" paint-order="fill stroke markers" d=" M 423.05621641874313 54.303096771240234 C 434.6309072514297 54.303096771240234 445.90956513683784 71.7187271118164 457.4842559695244 71.7187271118164" stroke-miterlimit="10" stroke-dasharray="0"/><path fill="none" stroke="#505050" paint-order="fill stroke markers" d=" M 425.8062087893486 121.04065322875977 C 437.6634319078413 121.04065322875977 446.84891853218403 99.13752365112305 458.7061416506767 99.13752365112305" stroke-miterlimit="10" stroke-dasharray="0"/><path fill="none" stroke="#505050" paint-order="fill stroke markers" d=" M 898.0312881469727 81.21874904632568 C 902.8312881469726 81.21874904632568 909.2312881469727 81.21874904632568 914.0312881469727 81.21874904632568" stroke-miterlimit="10" stroke-dasharray="0"/><path fill="none" stroke="#505050" paint-order="fill stroke markers" d=" M 863.0500335693359 93.14686107635498 C 866.3444805332615 93.14686107635498 870.7368411830471 93.21874904632568 874.0312881469727 93.21874904632568" stroke-miterlimit="10" stroke-dasharray="0"/><path fill="none" stroke="#505050" paint-order="fill stroke markers" d=" M 850.321907043457 71.82812404632568 C 857.9723105045964 71.82812404632568 866.3808846858333 81.21874904632568 874.0312881469727 81.21874904632568" stroke-miterlimit="10" stroke-dasharray="0"/><path fill="none" stroke="#505050" paint-order="fill stroke markers" d=" M 1062.2406692504883 81.87811183929443 C 1067.0406692504882 81.87811183929443 1073.4406692504883 81.87811183929443 1078.2406692504883 81.87811183929443" stroke-miterlimit="10" stroke-dasharray="0"/><path fill="none" stroke="#505050" paint-order="fill stroke markers" d=" M 1027.2594146728516 93.80622386932373 C 1030.5538616367771 93.80622386932373 1034.9462222865627 93.87811183929443 1038.2406692504883 93.87811183929443" stroke-miterlimit="10" stroke-dasharray="0"/><path fill="none" stroke="#505050" paint-order="fill stroke markers" d=" M 1014.5312881469727 72.48748683929443 C 1022.181691608112 72.48748683929443 1030.590265789349 81.87811183929443 1038.2406692504883 81.87811183929443" stroke-miterlimit="10" stroke-dasharray="0"/><path fill="none" stroke="#505050" paint-order="fill stroke markers" d=" M 1066.4718141555786 462.0750331878662 C 1071.1743311402822 462.0750331878662 1077.444345999 462.0594081878662 1082.1468629837036 462.0594081878662" stroke-miterlimit="10" stroke-dasharray="0"/><path fill="none" stroke="#505050" paint-order="fill stroke markers" d=" M 1067.5655641555786 358.38751792907715 C 1071.6991590527105 358.38751792907715 1077.1851430865718 357.5500240325928 1081.3187379837036 357.5500240325928" stroke-miterlimit="10" stroke-dasharray="0"/><path fill="none" stroke="#505050" paint-order="fill stroke markers" d=" M 793.1905641555786 437.3187770843506 C 834.6309993089477 437.3187770843506 885.4749579011162 402.6938056945801 926.9153930544853 402.6938056945801" stroke-miterlimit="10" stroke-dasharray="0"/><path fill="none" stroke="#505050" paint-order="fill stroke markers" d=" M 791.3531007766724 412.34377098083496 C 832.6360395663112 412.34377098083496 885.6324542648465 388.6938056945801 926.9153930544853 388.6938056945801" stroke-miterlimit="10" stroke-dasharray="0"/><path fill="none" stroke="#505050" paint-order="fill stroke markers" d=" M 866.4281005859375 378.27817821502686 C 884.9628546542226 378.27817821502686 908.3806389862002 365.6938056945801 926.9153930544853 365.6938056945801" stroke-miterlimit="10" stroke-dasharray="0"/><path fill="none" stroke="#505050" paint-order="fill stroke markers" d=" M 791.3531007766724 412.34377098083496 C 840.253983268707 412.34377098083496 875.7335047030757 506.1843681335449 924.6343871951103 506.1843681335449" stroke-miterlimit="10" stroke-dasharray="0"/><path fill="none" stroke="#505050" paint-order="fill stroke markers" d=" M 793.1905641555786 437.3187770843506 C 835.921045696023 437.3187770843506 881.9039056546659 492.1843681335449 924.6343871951103 492.1843681335449" stroke-miterlimit="10" stroke-dasharray="0"/><path fill="none" stroke="#505050" paint-order="fill stroke markers" d=" M 871.7655639648438 509.5250120162964 C 891.716082797108 509.5250120162964 904.683868362846 469.1843681335449 924.6343871951103 469.1843681335449" stroke-miterlimit="10" stroke-dasharray="0"/><path fill="none" stroke="#505050" paint-order="fill stroke markers" d=" M 381.38763350248337 240.08439254760742 C 420.89736057134803 240.08439254760742 473.57462351707284 240.87501049041748 513.0843505859375 240.87501049041748" stroke-miterlimit="10" stroke-dasharray="0"/><path fill="none" stroke="#505050" paint-order="fill stroke markers" d=" M 479.5217971801758 527.318751335144 C 489.135018938404 527.318751335144 499.6523422066155 515.3968839645386 509.26556396484375 515.3968839645386" stroke-miterlimit="10" stroke-dasharray="0"/><path fill="none" stroke="#505050" paint-order="fill stroke markers" d=" M 485.69989013671875 487.4031400680542 C 492.9265810459076 487.4031400680542 502.0388730556549 492.3968839645386 509.26556396484375 492.3968839645386" stroke-miterlimit="10" stroke-dasharray="0"/><path fill="none" stroke="#505050" paint-order="fill stroke markers" d=" M 591.2655639648438 491.3968839645386 C 595.8646130449696 491.3968839645386 601.9946398847179 491.1468839645386 606.5936889648438 491.1468839645386" stroke-miterlimit="10" stroke-dasharray="0"/><path fill="none" stroke="#505050" paint-order="fill stroke markers" d=" M 465.59363555908203 401.36565685272217 C 475.20685731731027 401.36565685272217 485.72418058552176 389.4437894821167 495.33740234375 389.4437894821167" stroke-miterlimit="10" stroke-dasharray="0"/><path fill="none" stroke="#505050" paint-order="fill stroke markers" d=" M 471.771728515625 361.4500455856323 C 478.99841942481385 361.4500455856323 488.11071143456115 366.4437894821167 495.33740234375 366.4437894821167" stroke-miterlimit="10" stroke-dasharray="0"/><path fill="none" stroke="#505050" paint-order="fill stroke markers" d=" M 577.33740234375 365.4437894821167 C 581.9364514238758 365.4437894821167 588.0664782636242 365.1937894821167 592.66552734375 365.1937894821167" stroke-miterlimit="10" stroke-dasharray="0"/><path fill="none" stroke="#505050" paint-order="fill stroke markers" d=" M 436.8937675356865 224.6656608581543 C 446.09815912772444 224.6656608581543 458.37054736088487 224.57501983642578 467.5749389529228 224.57501983642578" stroke-miterlimit="10" stroke-dasharray="0"/><path fill="none" stroke="#505050" paint-order="fill stroke markers" d=" M 593.7187530994415 220.43439173698425 C 596.6987376667239 220.43439173698425 600.6667317293904 220.109375 603.6467162966728 220.109375" stroke-miterlimit="10" stroke-dasharray="0"/><path fill="none" stroke="#505050" paint-order="fill stroke markers" d=" M 500.5749389529228 224.57501983642578 C 504.54328582694677 224.57501983642578 509.11600371191355 228.87501049041748 513.0843505859375 228.87501049041748" stroke-miterlimit="10" stroke-dasharray="0"/><path fill="none" stroke="#505050" paint-order="fill stroke markers" d=" M 555.0843505859375 228.87501049041748 C 560.1525731903745 228.87501049041748 564.6505304950045 220.43439173698425 569.7187530994415 220.43439173698425" stroke-miterlimit="10" stroke-dasharray="0"/><path fill="none" stroke="#505050" paint-order="fill stroke markers" d=" M 555.0843505859375 228.87501049041748 C 559.6026626447389 228.87501049041748 565.2004410406402 232.43439173698425 569.7187530994415 232.43439173698425" stroke-miterlimit="10" stroke-dasharray="0"/></g></g></svg>