<svg version="1.1" xmlns="http://www.w3.org/2000/svg" xmlns:xlink="http://www.w3.org/1999/xlink" width="739.8515625" height="346.8984375"><defs/><g transform="translate(-298.75390625,-109.859375)"><g><path fill="white" stroke="#505050" paint-order="fill stroke markers" d=" M 299.75390625 189.9375 L 299.75390625 244.69921875 Q 299.75390625 252.69921875 307.75390625 252.69921875 L 464.94140625 252.69921875 Q 472.94140625 252.69921875 472.94140625 244.69921875 L 472.94140625 189.9375 Q 472.94140625 181.9375 464.94140625 181.9375 L 307.75390625 181.9375 Q 299.75390625 181.9375 299.75390625 189.9375" stroke-miterlimit="10" stroke-width="0.5" stroke-dasharray=""/><path fill="#F0F0F0" stroke="#505050" paint-order="fill stroke markers" d=" M 431.94140625 210.69921875 L 464.94140625 210.69921875 L 464.94140625 244.69921875 L 431.94140625 244.69921875 L 431.94140625 210.69921875 Z" stroke-miterlimit="10" stroke-width="0.5" stroke-dasharray=""/><text fill="#505050" stroke="none" font-family="monospace" font-size="14px" font-style="normal" font-weight="normal" text-decoration="normal" x="448.44140625" y="228.69921875" text-anchor="middle" dominant-baseline="text-after-edge">&lt;0</text><path fill="none" stroke="#505050" paint-order="fill stroke markers" d=" M 431.94140625 232.69921875 L 439.94140625 232.69921875 L 439.94140625 240.69921875 L 431.94140625 240.69921875 L 431.94140625 232.69921875 Z" stroke-miterlimit="10" stroke-width="0.5" stroke-dasharray=""/><path fill="none" stroke="#505050" paint-order="fill stroke markers" d=" M 456.94140625 232.69921875 L 464.94140625 232.69921875 L 464.94140625 240.69921875 L 456.94140625 240.69921875 L 456.94140625 232.69921875 Z" stroke-miterlimit="10" stroke-width="0.5" stroke-dasharray=""/><path fill="white" stroke="#505050" paint-order="fill stroke markers" d=" M 391.94140625 189.9375 L 423.94140625 189.9375 L 423.94140625 235.9375 L 391.94140625 235.9375 L 391.94140625 189.9375 Z" stroke-miterlimit="10" stroke-width="0.5" stroke-dasharray=""/><text fill="#505050" stroke="none" font-family="monospace" font-size="14px" font-style="normal" font-weight="normal" text-decoration="normal" x="407.94140625" y="207.9375" text-anchor="middle" dominant-baseline="text-after-edge">&lt;</text><path fill="none" stroke="#505050" paint-order="fill stroke markers" d=" M 391.94140625 211.9375 L 399.94140625 211.9375 L 399.94140625 219.9375 L 391.94140625 219.9375 L 391.94140625 211.9375 Z" stroke-miterlimit="10" stroke-width="0.5" stroke-dasharray=""/><path fill="none" stroke="#505050" paint-order="fill stroke markers" d=" M 391.94140625 223.9375 L 399.94140625 223.9375 L 399.94140625 231.9375 L 391.94140625 231.9375 L 391.94140625 223.9375 Z" stroke-miterlimit="10" stroke-width="0.5" stroke-dasharray=""/><path fill="none" stroke="#505050" paint-order="fill stroke markers" d=" M 415.94140625 211.9375 L 423.94140625 211.9375 L 423.94140625 219.9375 L 415.94140625 219.9375 L 415.94140625 211.9375 Z" stroke-miterlimit="10" stroke-width="0.5" stroke-dasharray=""/><path fill="white" stroke="#505050" paint-order="fill stroke markers" d=" M 309.4375 214.69921875 L 357.4375 214.69921875 L 357.4375 236.69921875 L 309.4375 236.69921875 L 309.4375 214.69921875 Z" stroke-miterlimit="10" stroke-width="0.5" stroke-dasharray=""/><path fill="none" stroke="#505050" paint-order="fill stroke markers" d=" M 349.4375 223.69921875 L 357.4375 223.69921875 L 357.4375 231.69921875 L 349.4375 231.69921875 L 349.4375 223.69921875 Z" stroke-miterlimit="10" stroke-width="0.5" stroke-dasharray=""/><text fill="#505050" stroke="none" font-family="monospace" font-size="14px" font-style="normal" font-weight="normal" text-decoration="normal" x="341.4375" y="232.69921875" text-anchor="end" dominant-baseline="text-after-edge">0</text><path fill="white" stroke="#505050" paint-order="fill stroke markers" d=" M 302.2890625 278.12890625 L 302.2890625 334.09375 Q 302.2890625 342.09375 310.2890625 342.09375 L 466.921875 342.09375 Q 474.921875 342.09375 474.921875 334.09375 L 474.921875 278.12890625 Q 474.921875 270.12890625 466.921875 270.12890625 L 310.2890625 270.12890625 Q 302.2890625 270.12890625 302.2890625 278.12890625" stroke-miterlimit="10" stroke-width="0.5" stroke-dasharray=""/><path fill="#F0F0F0" stroke="#505050" paint-order="fill stroke markers" d=" M 433.921875 300.09375 L 466.921875 300.09375 L 466.921875 334.09375 L 433.921875 334.09375 L 433.921875 300.09375 Z" stroke-miterlimit="10" stroke-width="0.5" stroke-dasharray=""/><text fill="#505050" stroke="none" font-family="monospace" font-size="14px" font-style="normal" font-weight="normal" text-decoration="normal" x="450.421875" y="318.09375" text-anchor="middle" dominant-baseline="text-after-edge">&gt;0</text><path fill="none" stroke="#505050" paint-order="fill stroke markers" d=" M 433.921875 322.09375 L 441.921875 322.09375 L 441.921875 330.09375 L 433.921875 330.09375 L 433.921875 322.09375 Z" stroke-miterlimit="10" stroke-width="0.5" stroke-dasharray=""/><path fill="none" stroke="#505050" paint-order="fill stroke markers" d=" M 458.921875 322.09375 L 466.921875 322.09375 L 466.921875 330.09375 L 458.921875 330.09375 L 458.921875 322.09375 Z" stroke-miterlimit="10" stroke-width="0.5" stroke-dasharray=""/><path fill="white" stroke="#505050" paint-order="fill stroke markers" d=" M 393.921875 279.08984375 L 425.921875 279.08984375 L 425.921875 325.08984375 L 393.921875 325.08984375 L 393.921875 279.08984375 Z" stroke-miterlimit="10" stroke-width="0.5" stroke-dasharray=""/><text fill="#505050" stroke="none" font-family="monospace" font-size="14px" font-style="normal" font-weight="normal" text-decoration="normal" x="409.921875" y="297.08984375" text-anchor="middle" dominant-baseline="text-after-edge">&gt;</text><path fill="none" stroke="#505050" paint-order="fill stroke markers" d=" M 393.921875 301.08984375 L 401.921875 301.08984375 L 401.921875 309.08984375 L 393.921875 309.08984375 L 393.921875 301.08984375 Z" stroke-miterlimit="10" stroke-width="0.5" stroke-dasharray=""/><path fill="none" stroke="#505050" paint-order="fill stroke markers" d=" M 393.921875 313.08984375 L 401.921875 313.08984375 L 401.921875 321.08984375 L 393.921875 321.08984375 L 393.921875 313.08984375 Z" stroke-miterlimit="10" stroke-width="0.5" stroke-dasharray=""/><path fill="none" stroke="#505050" paint-order="fill stroke markers" d=" M 417.921875 301.08984375 L 425.921875 301.08984375 L 425.921875 309.08984375 L 417.921875 309.08984375 L 417.921875 301.08984375 Z" stroke-miterlimit="10" stroke-width="0.5" stroke-dasharray=""/><path fill="white" stroke="#505050" paint-order="fill stroke markers" d=" M 310.2890625 304.09375 L 358.2890625 304.09375 L 358.2890625 326.09375 L 310.2890625 326.09375 L 310.2890625 304.09375 Z" stroke-miterlimit="10" stroke-width="0.5" stroke-dasharray=""/><path fill="none" stroke="#505050" paint-order="fill stroke markers" d=" M 350.2890625 313.09375 L 358.2890625 313.09375 L 358.2890625 321.09375 L 350.2890625 321.09375 L 350.2890625 313.09375 Z" stroke-miterlimit="10" stroke-width="0.5" stroke-dasharray=""/><text fill="#505050" stroke="none" font-family="monospace" font-size="14px" font-style="normal" font-weight="normal" text-decoration="normal" x="342.2890625" y="322.09375" text-anchor="end" dominant-baseline="text-after-edge">0</text><path fill="white" stroke="#505050" paint-order="fill stroke markers" d=" M 500.12109375 350.55859375 L 500.12109375 447.7578125 Q 500.12109375 455.7578125 508.12109375 455.7578125 L 631.51953125 455.7578125 Q 639.51953125 455.7578125 639.51953125 447.7578125 L 639.51953125 350.55859375 Q 639.51953125 342.55859375 631.51953125 342.55859375 L 508.12109375 342.55859375 Q 500.12109375 342.55859375 500.12109375 350.55859375" stroke-miterlimit="10" stroke-width="0.5" stroke-dasharray=""/><path fill="#F0F0F0" stroke="#505050" paint-order="fill stroke markers" d=" M 599.51953125 365.7578125 L 631.51953125 365.7578125 L 631.51953125 447.7578125 L 599.51953125 447.7578125 L 599.51953125 365.7578125 Z" stroke-miterlimit="10" stroke-width="0.5" stroke-dasharray=""/><text fill="#505050" stroke="none" font-family="monospace" font-size="14px" font-style="normal" font-weight="normal" text-decoration="normal" x="615.51953125" y="383.7578125" text-anchor="middle" dominant-baseline="text-after-edge">?</text><path fill="none" stroke="#505050" paint-order="fill stroke markers" d=" M 599.51953125 387.7578125 L 607.51953125 387.7578125 L 607.51953125 395.7578125 L 599.51953125 395.7578125 L 599.51953125 387.7578125 Z" stroke-miterlimit="10" stroke-width="0.5" stroke-dasharray=""/><path fill="none" stroke="#505050" paint-order="fill stroke markers" d=" M 607.51953125 403.7578125 A 4 4 0 1 0 607.5195292500001 403.76181249933336" stroke-miterlimit="10" stroke-width="0.5" stroke-dasharray=""/><path fill="none" stroke="#505050" paint-order="fill stroke markers" d=" M 599.51953125 411.7578125 L 607.51953125 411.7578125 L 607.51953125 419.7578125 L 599.51953125 419.7578125 L 599.51953125 411.7578125 Z" stroke-miterlimit="10" stroke-width="0.5" stroke-dasharray=""/><path fill="none" stroke="#505050" paint-order="fill stroke markers" d=" M 607.51953125 427.7578125 A 4 4 0 1 0 607.5195292500001 427.76181249933336" stroke-miterlimit="10" stroke-width="0.5" stroke-dasharray=""/><path fill="none" stroke="#505050" paint-order="fill stroke markers" d=" M 607.51953125 439.7578125 A 4 4 0 1 0 607.5195292500001 439.76181249933336" stroke-miterlimit="10" stroke-width="0.5" stroke-dasharray=""/><path fill="none" stroke="#505050" paint-order="fill stroke markers" d=" M 631.51953125 391.7578125 A 4 4 0 1 0 631.5195292500001 391.76181249933336" stroke-miterlimit="10" stroke-width="0.5" stroke-dasharray=""/><path fill="white" stroke="#505050" paint-order="fill stroke markers" d=" M 508.12109375 381.7578125 L 540.12109375 381.7578125 L 540.12109375 439.7578125 L 508.12109375 439.7578125 L 508.12109375 381.7578125 Z" stroke-miterlimit="10" stroke-width="0.5" stroke-dasharray=""/><text fill="#505050" stroke="none" font-family="monospace" font-size="14px" font-style="normal" font-weight="normal" text-decoration="normal" x="524.12109375" y="399.7578125" text-anchor="middle" dominant-baseline="text-after-edge">?</text><path fill="none" stroke="#505050" paint-order="fill stroke markers" d=" M 508.12109375 403.7578125 L 516.12109375 403.7578125 L 516.12109375 411.7578125 L 508.12109375 411.7578125 L 508.12109375 403.7578125 Z" stroke-miterlimit="10" stroke-width="0.5" stroke-dasharray=""/><path fill="none" stroke="#505050" paint-order="fill stroke markers" d=" M 516.12109375 419.7578125 A 4 4 0 1 0 516.1210917500001 419.76181249933336" stroke-miterlimit="10" stroke-width="0.5" stroke-dasharray=""/><path fill="none" stroke="#505050" paint-order="fill stroke markers" d=" M 516.12109375 431.7578125 A 4 4 0 1 0 516.1210917500001 431.76181249933336" stroke-miterlimit="10" stroke-width="0.5" stroke-dasharray=""/><path fill="none" stroke="#505050" paint-order="fill stroke markers" d=" M 540.12109375 407.7578125 A 4 4 0 1 0 540.1210917500001 407.76181249933336" stroke-miterlimit="10" stroke-width="0.5" stroke-dasharray=""/><path fill="white" stroke="#505050" paint-order="fill stroke markers" d=" M 559.51953125 350.55859375 L 591.51953125 350.55859375 L 591.51953125 408.55859375 L 559.51953125 408.55859375 L 559.51953125 350.55859375 Z" stroke-miterlimit="10" stroke-width="0.5" stroke-dasharray=""/><text fill="#505050" stroke="none" font-family="monospace" font-size="14px" font-style="normal" font-weight="normal" text-decoration="normal" x="575.51953125" y="368.55859375" text-anchor="middle" dominant-baseline="text-after-edge">?</text><path fill="none" stroke="#505050" paint-order="fill stroke markers" d=" M 559.51953125 372.55859375 L 567.51953125 372.55859375 L 567.51953125 380.55859375 L 559.51953125 380.55859375 L 559.51953125 372.55859375 Z" stroke-miterlimit="10" stroke-width="0.5" stroke-dasharray=""/><path fill="none" stroke="#505050" paint-order="fill stroke markers" d=" M 567.51953125 388.55859375 A 4 4 0 1 0 567.5195292500001 388.56259374933336" stroke-miterlimit="10" stroke-width="0.5" stroke-dasharray=""/><path fill="none" stroke="#505050" paint-order="fill stroke markers" d=" M 567.51953125 400.55859375 A 4 4 0 1 0 567.5195292500001 400.56259374933336" stroke-miterlimit="10" stroke-width="0.5" stroke-dasharray=""/><path fill="none" stroke="#505050" paint-order="fill stroke markers" d=" M 591.51953125 376.55859375 A 4 4 0 1 0 591.5195292500001 376.56259374933336" stroke-miterlimit="10" stroke-width="0.5" stroke-dasharray=""/><path fill="white" stroke="#505050" paint-order="fill stroke markers" d=" M 682.33984375 118.859375 L 682.33984375 303.80859375 Q 682.33984375 311.80859375 690.33984375 311.80859375 L 1029.60546875 311.80859375 Q 1037.60546875 311.80859375 1037.60546875 303.80859375 L 1037.60546875 118.859375 Q 1037.60546875 110.859375 1029.60546875 110.859375 L 690.33984375 110.859375 Q 682.33984375 110.859375 682.33984375 118.859375" stroke-miterlimit="10" stroke-width="0.5" stroke-dasharray=""/><path fill="#F0F0F0" stroke="#505050" paint-order="fill stroke markers" d=" M 973.60546875 267.80859375 L 1029.60546875 267.80859375 L 1029.60546875 303.80859375 L 973.60546875 303.80859375 L 973.60546875 267.80859375 Z" stroke-miterlimit="10" stroke-width="0.5" stroke-dasharray=""/><text fill="#505050" stroke="none" font-family="monospace" font-size="14px" font-style="normal" font-weight="normal" text-decoration="normal" x="1001.60546875" y="285.80859375" text-anchor="middle" dominant-baseline="text-after-edge">sgn</text><path fill="none" stroke="#505050" paint-order="fill stroke markers" d=" M 973.60546875 290.80859375 L 981.60546875 290.80859375 L 981.60546875 298.80859375 L 973.60546875 298.80859375 L 973.60546875 290.80859375 Z" stroke-miterlimit="10" stroke-width="0.5" stroke-dasharray=""/><text fill="#505050" stroke="none" font-family="monospace" font-size="14px" font-style="normal" font-weight="normal" text-decoration="normal" x="989.60546875" y="299.80859375" text-anchor="start" dominant-baseline="text-after-edge">x</text><path fill="none" stroke="#505050" paint-order="fill stroke markers" d=" M 1021.60546875 289.80859375 L 1029.60546875 289.80859375 L 1029.60546875 297.80859375 L 1021.60546875 297.80859375 L 1021.60546875 289.80859375 Z" stroke-miterlimit="10" stroke-width="0.5" stroke-dasharray=""/><path fill="white" stroke="#505050" paint-order="fill stroke markers" d=" M 941.60546875 179.671875 L 957.60546875 179.671875 L 965.60546875 189.671875 L 957.60546875 199.671875 L 941.60546875 199.671875 L 941.60546875 179.671875" stroke-miterlimit="10" stroke-width="0.5" stroke-dasharray=""/><path fill="none" stroke="#505050" paint-order="fill stroke markers" d=" M 949.60546875 191.671875 A 4 4 0 1 0 949.6054667500001 191.67587499933333" stroke-miterlimit="10" stroke-width="0.5" stroke-dasharray=""/><path fill="white" stroke="#505050" paint-order="fill stroke markers" d=" M 883.796875 166.2421875 L 915.796875 166.2421875 L 915.796875 248.2421875 L 883.796875 248.2421875 L 883.796875 166.2421875 Z" stroke-miterlimit="10" stroke-width="0.5" stroke-dasharray=""/><text fill="#505050" stroke="none" font-family="monospace" font-size="14px" font-style="normal" font-weight="normal" text-decoration="normal" x="899.796875" y="184.2421875" text-anchor="middle" dominant-baseline="text-after-edge">?</text><path fill="none" stroke="#505050" paint-order="fill stroke markers" d=" M 883.796875 188.2421875 L 891.796875 188.2421875 L 891.796875 196.2421875 L 883.796875 196.2421875 L 883.796875 188.2421875 Z" stroke-miterlimit="10" stroke-width="0.5" stroke-dasharray=""/><path fill="none" stroke="#505050" paint-order="fill stroke markers" d=" M 891.796875 204.2421875 A 4 4 0 1 0 891.7968730000001 204.24618749933333" stroke-miterlimit="10" stroke-width="0.5" stroke-dasharray=""/><path fill="none" stroke="#505050" paint-order="fill stroke markers" d=" M 883.796875 212.2421875 L 891.796875 212.2421875 L 891.796875 220.2421875 L 883.796875 220.2421875 L 883.796875 212.2421875 Z" stroke-miterlimit="10" stroke-width="0.5" stroke-dasharray=""/><path fill="none" stroke="#505050" paint-order="fill stroke markers" d=" M 891.796875 228.2421875 A 4 4 0 1 0 891.7968730000001 228.24618749933333" stroke-miterlimit="10" stroke-width="0.5" stroke-dasharray=""/><path fill="none" stroke="#505050" paint-order="fill stroke markers" d=" M 891.796875 240.2421875 A 4 4 0 1 0 891.7968730000001 240.24618749933333" stroke-miterlimit="10" stroke-width="0.5" stroke-dasharray=""/><path fill="none" stroke="#505050" paint-order="fill stroke markers" d=" M 915.796875 192.2421875 A 4 4 0 1 0 915.7968730000001 192.24618749933333" stroke-miterlimit="10" stroke-width="0.5" stroke-dasharray=""/><path fill="white" stroke="#505050" paint-order="fill stroke markers" d=" M 801.7109375 273.80859375 L 849.7109375 273.80859375 L 849.7109375 295.80859375 L 801.7109375 295.80859375 L 801.7109375 273.80859375 Z" stroke-miterlimit="10" stroke-width="0.5" stroke-dasharray=""/><path fill="none" stroke="#505050" paint-order="fill stroke markers" d=" M 841.7109375 282.80859375 L 849.7109375 282.80859375 L 849.7109375 290.80859375 L 841.7109375 290.80859375 L 841.7109375 282.80859375 Z" stroke-miterlimit="10" stroke-width="0.5" stroke-dasharray=""/><text fill="#505050" stroke="none" font-family="monospace" font-size="14px" font-style="normal" font-weight="normal" text-decoration="normal" x="833.7109375" y="291.80859375" text-anchor="end" dominant-baseline="text-after-edge">0</text><path fill="white" stroke="#505050" paint-order="fill stroke markers" d=" M 798.62890625 238.34765625 L 846.62890625 238.34765625 L 846.62890625 260.34765625 L 798.62890625 260.34765625 L 798.62890625 238.34765625 Z" stroke-miterlimit="10" stroke-width="0.5" stroke-dasharray=""/><path fill="none" stroke="#505050" paint-order="fill stroke markers" d=" M 838.62890625 247.34765625 L 846.62890625 247.34765625 L 846.62890625 255.34765625 L 838.62890625 255.34765625 L 838.62890625 247.34765625 Z" stroke-miterlimit="10" stroke-width="0.5" stroke-dasharray=""/><text fill="#505050" stroke="none" font-family="monospace" font-size="14px" font-style="normal" font-weight="normal" text-decoration="normal" x="830.62890625" y="256.34765625" text-anchor="end" dominant-baseline="text-after-edge">1</text><path fill="white" stroke="#505050" paint-order="fill stroke markers" d=" M 810.53515625 190.09375 L 843.53515625 190.09375 L 843.53515625 224.09375 L 810.53515625 224.09375 L 810.53515625 190.09375 Z" stroke-miterlimit="10" stroke-width="0.5" stroke-dasharray=""/><text fill="#505050" stroke="none" font-family="monospace" font-size="14px" font-style="normal" font-weight="normal" text-decoration="normal" x="827.03515625" y="208.09375" text-anchor="middle" dominant-baseline="text-after-edge">&gt;0</text><path fill="none" stroke="#505050" paint-order="fill stroke markers" d=" M 810.53515625 212.09375 L 818.53515625 212.09375 L 818.53515625 220.09375 L 810.53515625 220.09375 L 810.53515625 212.09375 Z" stroke-miterlimit="10" stroke-width="0.5" stroke-dasharray=""/><path fill="none" stroke="#505050" paint-order="fill stroke markers" d=" M 835.53515625 212.09375 L 843.53515625 212.09375 L 843.53515625 220.09375 L 835.53515625 220.09375 L 835.53515625 212.09375 Z" stroke-miterlimit="10" stroke-width="0.5" stroke-dasharray=""/><path fill="white" stroke="#505050" paint-order="fill stroke markers" d=" M 690.33984375 165.4765625 L 738.33984375 165.4765625 L 738.33984375 187.4765625 L 690.33984375 187.4765625 L 698.33984375 176.4765625 L 690.33984375 165.4765625" stroke-miterlimit="10" stroke-width="0.5" stroke-dasharray=""/><path fill="none" stroke="#505050" paint-order="fill stroke markers" d=" M 738.33984375 178.4765625 A 4 4 0 1 0 738.3398417500001 178.48056249933333" stroke-miterlimit="10" stroke-width="0.5" stroke-dasharray=""/><text fill="#505050" stroke="none" font-family="monospace" font-size="14px" font-style="normal" font-weight="normal" text-decoration="normal" x="722.33984375" y="183.4765625" text-anchor="end" dominant-baseline="text-after-edge">x</text><path fill="white" stroke="#505050" paint-order="fill stroke markers" d=" M 806.7109375 118.859375 L 839.7109375 118.859375 L 839.7109375 152.859375 L 806.7109375 152.859375 L 806.7109375 118.859375 Z" stroke-miterlimit="10" stroke-width="0.5" stroke-dasharray=""/><text fill="#505050" stroke="none" font-family="monospace" font-size="14px" font-style="normal" font-weight="normal" text-decoration="normal" x="823.2109375" y="136.859375" text-anchor="middle" dominant-baseline="text-after-edge">&lt;0</text><path fill="none" stroke="#505050" paint-order="fill stroke markers" d=" M 806.7109375 140.859375 L 814.7109375 140.859375 L 814.7109375 148.859375 L 806.7109375 148.859375 L 806.7109375 140.859375 Z" stroke-miterlimit="10" stroke-width="0.5" stroke-dasharray=""/><path fill="none" stroke="#505050" paint-order="fill stroke markers" d=" M 831.7109375 140.859375 L 839.7109375 140.859375 L 839.7109375 148.859375 L 831.7109375 148.859375 L 831.7109375 140.859375 Z" stroke-miterlimit="10" stroke-width="0.5" stroke-dasharray=""/><path fill="white" stroke="#505050" paint-order="fill stroke markers" d=" M 782.62109375 160.20703125 L 839.62109375 160.20703125 L 839.62109375 182.20703125 L 782.62109375 182.20703125 L 782.62109375 160.20703125 Z" stroke-miterlimit="10" stroke-width="0.5" stroke-dasharray=""/><path fill="none" stroke="#505050" paint-order="fill stroke markers" d=" M 831.62109375 169.20703125 L 839.62109375 169.20703125 L 839.62109375 177.20703125 L 831.62109375 177.20703125 L 831.62109375 169.20703125 Z" stroke-miterlimit="10" stroke-width="0.5" stroke-dasharray=""/><text fill="#505050" stroke="none" font-family="monospace" font-size="14px" font-style="normal" font-weight="normal" text-decoration="normal" x="823.62109375" y="178.20703125" text-anchor="end" dominant-baseline="text-after-edge">-1</text><path fill="none" stroke="#505050" paint-order="fill stroke markers" d=" M 357.4375 227.69921875 C 381.4375 227.69921875 367.94140625 227.9375 391.94140625 227.9375" stroke-miterlimit="10" stroke-dasharray=""/><path fill="none" stroke="#505050" paint-order="fill stroke markers" d=" M 358.2890625 317.09375 C 382.2890625 317.09375 369.921875 317.08984375 393.921875 317.08984375" stroke-miterlimit="10" stroke-dasharray=""/><path fill="none" stroke="#505050" paint-order="fill stroke markers" d=" M 540.12109375 407.7578125 C 564.12109375 407.7578125 535.51953125 400.55859375 559.51953125 400.55859375" stroke-miterlimit="10" stroke-dasharray=""/><path fill="none" stroke="#505050" paint-order="fill stroke markers" d=" M 738.33984375 178.4765625 C 762.33984375 178.4765625 782.7109375 144.859375 806.7109375 144.859375" stroke-miterlimit="10" stroke-dasharray=""/><path fill="none" stroke="#505050" paint-order="fill stroke markers" d=" M 738.33984375 178.4765625 C 762.33984375 178.4765625 786.53515625 216.09375 810.53515625 216.09375" stroke-miterlimit="10" stroke-dasharray=""/><path fill="none" stroke="#505050" paint-order="fill stroke markers" d=" M 849.7109375 286.80859375 C 873.7109375 286.80859375 859.796875 240.2421875 883.796875 240.2421875" stroke-miterlimit="10" stroke-dasharray=""/><path fill="none" stroke="#505050" paint-order="fill stroke markers" d=" M 846.62890625 251.34765625 C 870.62890625 251.34765625 859.796875 228.2421875 883.796875 228.2421875" stroke-miterlimit="10" stroke-dasharray=""/><path fill="none" stroke="#505050" paint-order="fill stroke markers" d=" M 843.53515625 216.09375 C 867.53515625 216.09375 859.796875 216.2421875 883.796875 216.2421875" stroke-miterlimit="10" stroke-dasharray=""/><path fill="none" stroke="#505050" paint-order="fill stroke markers" d=" M 839.62109375 173.20703125 C 863.62109375 173.20703125 859.796875 204.2421875 883.796875 204.2421875" stroke-miterlimit="10" stroke-dasharray=""/><path fill="none" stroke="#505050" paint-order="fill stroke markers" d=" M 839.7109375 144.859375 C 863.7109375 144.859375 859.796875 192.2421875 883.796875 192.2421875" stroke-miterlimit="10" stroke-dasharray=""/><path fill="none" stroke="#505050" paint-order="fill stroke markers" d=" M 915.796875 192.2421875 C 939.796875 192.2421875 917.60546875 191.671875 941.60546875 191.671875" stroke-miterlimit="10" stroke-dasharray=""/></g></g></svg>