<svg version="1.1" xmlns="http://www.w3.org/2000/svg" xmlns:xlink="http://www.w3.org/1999/xlink" width="346.55078125" height="178.25"><defs/><g transform="translate(-336.5703125,-159.25390625)"><g><path fill="white" stroke="#505050" paint-order="fill stroke markers" d=" M 337.5703125 168.25390625 L 337.5703125 328.50390625 Q 337.5703125 336.50390625 345.5703125 336.50390625 L 674.12109375 336.50390625 Q 682.12109375 336.50390625 682.12109375 328.50390625 L 682.12109375 168.25390625 Q 682.12109375 160.25390625 674.12109375 160.25390625 L 345.5703125 160.25390625 Q 337.5703125 160.25390625 337.5703125 168.25390625" stroke-miterlimit="10" stroke-width="0.5" stroke-dasharray=""/><path fill="#F0F0F0" stroke="#505050" paint-order="fill stroke markers" d=" M 641.12109375 298.50390625 L 674.12109375 298.50390625 L 674.12109375 328.50390625 L 641.12109375 328.50390625 L 641.12109375 298.50390625 Z" stroke-miterlimit="10" stroke-width="0.5" stroke-dasharray=""/><text fill="#505050" stroke="none" font-family="monospace" font-size="14px" font-style="normal" font-weight="normal" text-decoration="normal" x="657.62109375" y="316.50390625" text-anchor="middle" dominant-baseline="text-after-edge">sgn</text><path fill="none" stroke="#505050" paint-order="fill stroke markers" d=" M 641.12109375 316.50390625 L 649.12109375 316.50390625 L 649.12109375 324.50390625 L 641.12109375 324.50390625 L 641.12109375 316.50390625 Z" stroke-miterlimit="10" stroke-width="0.5" stroke-dasharray=""/><path fill="none" stroke="#505050" paint-order="fill stroke markers" d=" M 666.12109375 316.50390625 L 674.12109375 316.50390625 L 674.12109375 324.50390625 L 666.12109375 324.50390625 L 666.12109375 316.50390625 Z" stroke-miterlimit="10" stroke-width="0.5" stroke-dasharray=""/><path fill="white" stroke="#505050" paint-order="fill stroke markers" d=" M 568.375 169.16015625 L 600.375 169.16015625 L 600.375 223.16015625 L 568.375 223.16015625 L 568.375 169.16015625 Z" stroke-miterlimit="10" stroke-width="0.5" stroke-dasharray=""/><text fill="#505050" stroke="none" font-family="monospace" font-size="14px" font-style="normal" font-weight="normal" text-decoration="normal" x="584.375" y="187.16015625" text-anchor="middle" dominant-baseline="text-after-edge">?</text><path fill="none" stroke="#505050" paint-order="fill stroke markers" d=" M 568.375 187.16015625 L 576.375 187.16015625 L 576.375 195.16015625 L 568.375 195.16015625 L 568.375 187.16015625 Z" stroke-miterlimit="10" stroke-width="0.5" stroke-dasharray=""/><path fill="none" stroke="#505050" paint-order="fill stroke markers" d=" M 568.375 199.16015625 L 576.375 199.16015625 L 576.375 207.16015625 L 568.375 207.16015625 L 568.375 199.16015625 Z" stroke-miterlimit="10" stroke-width="0.5" stroke-dasharray=""/><path fill="none" stroke="#505050" paint-order="fill stroke markers" d=" M 568.375 211.16015625 L 576.375 211.16015625 L 576.375 219.16015625 L 568.375 219.16015625 L 568.375 211.16015625 Z" stroke-miterlimit="10" stroke-width="0.5" stroke-dasharray=""/><path fill="none" stroke="#505050" paint-order="fill stroke markers" d=" M 592.375 187.16015625 L 600.375 187.16015625 L 600.375 195.16015625 L 592.375 195.16015625 L 592.375 187.16015625 Z" stroke-miterlimit="10" stroke-width="0.5" stroke-dasharray=""/><path fill="none" stroke="#505050" paint-order="fill stroke markers" d=" M 617.12109375 209.015625 L 625.12109375 209.015625 L 633.12109375 217.015625 L 625.12109375 225.015625 L 617.12109375 225.015625 L 617.12109375 209.015625" stroke-miterlimit="10" stroke-width="0.5" stroke-dasharray=""/><path fill="none" stroke="#505050" paint-order="fill stroke markers" d=" M 617.12109375 213.015625 L 625.12109375 213.015625 L 625.12109375 221.015625 L 617.12109375 221.015625 L 617.12109375 213.015625 Z" stroke-miterlimit="10" stroke-width="0.5" stroke-dasharray=""/><path fill="white" stroke="#505050" paint-order="fill stroke markers" d=" M 525.5859375 240.25390625 L 557.5859375 240.25390625 L 557.5859375 294.25390625 L 525.5859375 294.25390625 L 525.5859375 240.25390625 Z" stroke-miterlimit="10" stroke-width="0.5" stroke-dasharray=""/><text fill="#505050" stroke="none" font-family="monospace" font-size="14px" font-style="normal" font-weight="normal" text-decoration="normal" x="541.5859375" y="258.25390625" text-anchor="middle" dominant-baseline="text-after-edge">?</text><path fill="none" stroke="#505050" paint-order="fill stroke markers" d=" M 525.5859375 258.25390625 L 533.5859375 258.25390625 L 533.5859375 266.25390625 L 525.5859375 266.25390625 L 525.5859375 258.25390625 Z" stroke-miterlimit="10" stroke-width="0.5" stroke-dasharray=""/><path fill="none" stroke="#505050" paint-order="fill stroke markers" d=" M 525.5859375 270.25390625 L 533.5859375 270.25390625 L 533.5859375 278.25390625 L 525.5859375 278.25390625 L 525.5859375 270.25390625 Z" stroke-miterlimit="10" stroke-width="0.5" stroke-dasharray=""/><path fill="none" stroke="#505050" paint-order="fill stroke markers" d=" M 525.5859375 282.25390625 L 533.5859375 282.25390625 L 533.5859375 290.25390625 L 525.5859375 290.25390625 L 525.5859375 282.25390625 Z" stroke-miterlimit="10" stroke-width="0.5" stroke-dasharray=""/><path fill="none" stroke="#505050" paint-order="fill stroke markers" d=" M 549.5859375 258.25390625 L 557.5859375 258.25390625 L 557.5859375 266.25390625 L 549.5859375 266.25390625 L 549.5859375 258.25390625 Z" stroke-miterlimit="10" stroke-width="0.5" stroke-dasharray=""/><path fill="white" stroke="#505050" paint-order="fill stroke markers" d=" M 346.9296875 249.046875 L 386.9296875 249.046875 L 386.9296875 267.046875 L 346.9296875 267.046875 L 346.9296875 249.046875 Z" stroke-miterlimit="10" stroke-width="0.5" stroke-dasharray=""/><path fill="none" stroke="#505050" paint-order="fill stroke markers" d=" M 378.9296875 254.046875 L 386.9296875 254.046875 L 386.9296875 262.046875 L 378.9296875 262.046875 L 378.9296875 254.046875 Z" stroke-miterlimit="10" stroke-width="0.5" stroke-dasharray=""/><text fill="#505050" stroke="none" font-family="monospace" font-size="14px" font-style="normal" font-weight="normal" text-decoration="normal" x="370.9296875" y="267.046875" text-anchor="end" dominant-baseline="text-after-edge">0</text><path fill="white" stroke="#505050" paint-order="fill stroke markers" d=" M 440.73828125 278.50390625 L 472.73828125 278.50390625 L 472.73828125 320.50390625 L 440.73828125 320.50390625 L 440.73828125 278.50390625 Z" stroke-miterlimit="10" stroke-width="0.5" stroke-dasharray=""/><text fill="#505050" stroke="none" font-family="monospace" font-size="14px" font-style="normal" font-weight="normal" text-decoration="normal" x="456.73828125" y="296.50390625" text-anchor="middle" dominant-baseline="text-after-edge">&gt;</text><path fill="none" stroke="#505050" paint-order="fill stroke markers" d=" M 440.73828125 296.50390625 L 448.73828125 296.50390625 L 448.73828125 304.50390625 L 440.73828125 304.50390625 L 440.73828125 296.50390625 Z" stroke-miterlimit="10" stroke-width="0.5" stroke-dasharray=""/><path fill="none" stroke="#505050" paint-order="fill stroke markers" d=" M 440.73828125 308.50390625 L 448.73828125 308.50390625 L 448.73828125 316.50390625 L 440.73828125 316.50390625 L 440.73828125 308.50390625 Z" stroke-miterlimit="10" stroke-width="0.5" stroke-dasharray=""/><path fill="none" stroke="#505050" paint-order="fill stroke markers" d=" M 464.73828125 296.50390625 L 472.73828125 296.50390625 L 472.73828125 304.50390625 L 464.73828125 304.50390625 L 464.73828125 296.50390625 Z" stroke-miterlimit="10" stroke-width="0.5" stroke-dasharray=""/><path fill="none" stroke="#505050" paint-order="fill stroke markers" d=" M 351.41796875 182.41796875 L 367.41796875 182.41796875 L 367.41796875 198.41796875 L 351.41796875 198.41796875 L 359.41796875 190.41796875 L 351.41796875 182.41796875" stroke-miterlimit="10" stroke-width="0.5" stroke-dasharray=""/><path fill="none" stroke="#505050" paint-order="fill stroke markers" d=" M 359.41796875 186.41796875 L 367.41796875 186.41796875 L 367.41796875 194.41796875 L 359.41796875 194.41796875 L 359.41796875 186.41796875 Z" stroke-miterlimit="10" stroke-width="0.5" stroke-dasharray=""/><path fill="white" stroke="#505050" paint-order="fill stroke markers" d=" M 439.74609375 168.515625 L 471.74609375 168.515625 L 471.74609375 210.515625 L 439.74609375 210.515625 L 439.74609375 168.515625 Z" stroke-miterlimit="10" stroke-width="0.5" stroke-dasharray=""/><text fill="#505050" stroke="none" font-family="monospace" font-size="14px" font-style="normal" font-weight="normal" text-decoration="normal" x="455.74609375" y="186.515625" text-anchor="middle" dominant-baseline="text-after-edge">&lt;</text><path fill="none" stroke="#505050" paint-order="fill stroke markers" d=" M 439.74609375 186.515625 L 447.74609375 186.515625 L 447.74609375 194.515625 L 439.74609375 194.515625 L 439.74609375 186.515625 Z" stroke-miterlimit="10" stroke-width="0.5" stroke-dasharray=""/><path fill="none" stroke="#505050" paint-order="fill stroke markers" d=" M 439.74609375 198.515625 L 447.74609375 198.515625 L 447.74609375 206.515625 L 439.74609375 206.515625 L 439.74609375 198.515625 Z" stroke-miterlimit="10" stroke-width="0.5" stroke-dasharray=""/><path fill="none" stroke="#505050" paint-order="fill stroke markers" d=" M 463.74609375 186.515625 L 471.74609375 186.515625 L 471.74609375 194.515625 L 463.74609375 194.515625 L 463.74609375 186.515625 Z" stroke-miterlimit="10" stroke-width="0.5" stroke-dasharray=""/><path fill="white" stroke="#505050" paint-order="fill stroke markers" d=" M 424.546875 237.5234375 L 464.546875 237.5234375 L 464.546875 255.5234375 L 424.546875 255.5234375 L 424.546875 237.5234375 Z" stroke-miterlimit="10" stroke-width="0.5" stroke-dasharray=""/><path fill="none" stroke="#505050" paint-order="fill stroke markers" d=" M 456.546875 242.5234375 L 464.546875 242.5234375 L 464.546875 250.5234375 L 456.546875 250.5234375 L 456.546875 242.5234375 Z" stroke-miterlimit="10" stroke-width="0.5" stroke-dasharray=""/><text fill="#505050" stroke="none" font-family="monospace" font-size="14px" font-style="normal" font-weight="normal" text-decoration="normal" x="448.546875" y="255.5234375" text-anchor="end" dominant-baseline="text-after-edge">1</text><path fill="white" stroke="#505050" paint-order="fill stroke markers" d=" M 483.72265625 208.64453125 L 532.72265625 208.64453125 L 532.72265625 226.64453125 L 483.72265625 226.64453125 L 483.72265625 208.64453125 Z" stroke-miterlimit="10" stroke-width="0.5" stroke-dasharray=""/><path fill="none" stroke="#505050" paint-order="fill stroke markers" d=" M 524.72265625 213.64453125 L 532.72265625 213.64453125 L 532.72265625 221.64453125 L 524.72265625 221.64453125 L 524.72265625 213.64453125 Z" stroke-miterlimit="10" stroke-width="0.5" stroke-dasharray=""/><text fill="#505050" stroke="none" font-family="monospace" font-size="14px" font-style="normal" font-weight="normal" text-decoration="normal" x="516.72265625" y="226.64453125" text-anchor="end" dominant-baseline="text-after-edge">-1</text><path fill="none" stroke="#505050" paint-order="fill stroke markers" d=" M 367.41796875 190.41796875 C 391.41796875 190.41796875 415.74609375 190.515625 439.74609375 190.515625" stroke-miterlimit="10" stroke-dasharray=""/><path fill="none" stroke="#505050" paint-order="fill stroke markers" d=" M 367.41796875 190.41796875 C 391.41796875 190.41796875 416.73828125 300.50390625 440.73828125 300.50390625" stroke-miterlimit="10" stroke-dasharray=""/><path fill="none" stroke="#505050" paint-order="fill stroke markers" d=" M 386.9296875 258.046875 C 410.9296875 258.046875 416.73828125 312.50390625 440.73828125 312.50390625" stroke-miterlimit="10" stroke-dasharray=""/><path fill="none" stroke="#505050" paint-order="fill stroke markers" d=" M 386.9296875 258.046875 C 410.9296875 258.046875 415.74609375 202.515625 439.74609375 202.515625" stroke-miterlimit="10" stroke-dasharray=""/><path fill="none" stroke="#505050" paint-order="fill stroke markers" d=" M 386.9296875 258.046875 C 410.9296875 258.046875 501.5859375 286.25390625 525.5859375 286.25390625" stroke-miterlimit="10" stroke-dasharray=""/><path fill="none" stroke="#505050" paint-order="fill stroke markers" d=" M 464.546875 246.5234375 C 488.546875 246.5234375 501.5859375 274.25390625 525.5859375 274.25390625" stroke-miterlimit="10" stroke-dasharray=""/><path fill="none" stroke="#505050" paint-order="fill stroke markers" d=" M 472.73828125 300.50390625 C 496.73828125 300.50390625 501.5859375 262.25390625 525.5859375 262.25390625" stroke-miterlimit="10" stroke-dasharray=""/><path fill="none" stroke="#505050" paint-order="fill stroke markers" d=" M 600.375 191.16015625 C 624.375 191.16015625 593.12109375 217.015625 617.12109375 217.015625" stroke-miterlimit="10" stroke-dasharray=""/><path fill="none" stroke="#505050" paint-order="fill stroke markers" d=" M 557.5859375 262.25390625 C 581.5859375 262.25390625 544.375 215.16015625 568.375 215.16015625" stroke-miterlimit="10" stroke-dasharray=""/><path fill="none" stroke="#505050" paint-order="fill stroke markers" d=" M 532.72265625 217.64453125 C 556.72265625 217.64453125 544.375 203.16015625 568.375 203.16015625" stroke-miterlimit="10" stroke-dasharray=""/><path fill="none" stroke="#505050" paint-order="fill stroke markers" d=" M 471.74609375 190.515625 C 495.74609375 190.515625 544.375 191.16015625 568.375 191.16015625" stroke-miterlimit="10" stroke-dasharray=""/></g></g></svg>