<svg version="1.1" xmlns="http://www.w3.org/2000/svg" xmlns:xlink="http://www.w3.org/1999/xlink" width="762.1640625" height="477.0859375"><defs/><g transform="translate(-300.11328125,-54.49609375)"><g><path fill="white" stroke="#505050" paint-order="fill stroke markers" d=" M 302.96875 321.4609375 L 302.96875 402.71875 Q 302.96875 410.71875 310.96875 410.71875 L 540.97265625 410.71875 Q 548.97265625 410.71875 548.97265625 402.71875 L 548.97265625 321.4609375 Q 548.97265625 313.4609375 540.97265625 313.4609375 L 310.96875 313.4609375 Q 302.96875 313.4609375 302.96875 321.4609375" stroke-miterlimit="10" stroke-width="0.5" stroke-dasharray=""/><path fill="#F0F0F0" stroke="#505050" paint-order="fill stroke markers" d=" M 475.97265625 380.71875 L 540.97265625 380.71875 L 540.97265625 402.71875 L 475.97265625 402.71875 L 475.97265625 380.71875 Z" stroke-miterlimit="10" stroke-width="0.5" stroke-dasharray=""/><path fill="none" stroke="#505050" paint-order="fill stroke markers" d=" M 475.97265625 388.71875 L 483.97265625 388.71875 L 483.97265625 396.71875 L 475.97265625 396.71875 L 475.97265625 388.71875 Z" stroke-miterlimit="10" stroke-width="0.5" stroke-dasharray=""/><path fill="none" stroke="#505050" paint-order="fill stroke markers" d=" M 532.97265625 389.71875 L 540.97265625 389.71875 L 540.97265625 397.71875 L 532.97265625 397.71875 L 532.97265625 389.71875 Z" stroke-miterlimit="10" stroke-width="0.5" stroke-dasharray=""/><text fill="#505050" stroke="none" font-family="monospace" font-size="14px" font-style="normal" font-weight="normal" text-decoration="normal" x="524.97265625" y="398.71875" text-anchor="end" dominant-baseline="text-after-edge">+1</text><path fill="white" stroke="#505050" paint-order="fill stroke markers" d=" M 388.76171875 321.4609375 L 420.76171875 321.4609375 L 420.76171875 367.4609375 L 388.76171875 367.4609375 L 388.76171875 321.4609375 Z" stroke-miterlimit="10" stroke-width="0.5" stroke-dasharray=""/><text fill="#505050" stroke="none" font-family="monospace" font-size="14px" font-style="normal" font-weight="normal" text-decoration="normal" x="404.76171875" y="339.4609375" text-anchor="middle" dominant-baseline="text-after-edge">+</text><path fill="none" stroke="#505050" paint-order="fill stroke markers" d=" M 388.76171875 343.4609375 L 396.76171875 343.4609375 L 396.76171875 351.4609375 L 388.76171875 351.4609375 L 388.76171875 343.4609375 Z" stroke-miterlimit="10" stroke-width="0.5" stroke-dasharray=""/><path fill="none" stroke="#505050" paint-order="fill stroke markers" d=" M 388.76171875 355.4609375 L 396.76171875 355.4609375 L 396.76171875 363.4609375 L 388.76171875 363.4609375 L 388.76171875 355.4609375 Z" stroke-miterlimit="10" stroke-width="0.5" stroke-dasharray=""/><path fill="none" stroke="#505050" paint-order="fill stroke markers" d=" M 412.76171875 343.4609375 L 420.76171875 343.4609375 L 420.76171875 351.4609375 L 412.76171875 351.4609375 L 412.76171875 343.4609375 Z" stroke-miterlimit="10" stroke-width="0.5" stroke-dasharray=""/><path fill="white" stroke="#505050" paint-order="fill stroke markers" d=" M 410.97265625 372.71875 L 459.97265625 372.71875 L 467.97265625 383.71875 L 459.97265625 394.71875 L 410.97265625 394.71875 L 410.97265625 372.71875" stroke-miterlimit="10" stroke-width="0.5" stroke-dasharray=""/><path fill="none" stroke="#505050" paint-order="fill stroke markers" d=" M 418.97265625 385.71875 A 4 4 0 1 0 418.9726542500002 385.72274999933336" stroke-miterlimit="10" stroke-width="0.5" stroke-dasharray=""/><text fill="#505050" stroke="none" font-family="monospace" font-size="14px" font-style="normal" font-weight="normal" text-decoration="normal" x="426.97265625" y="390.71875" text-anchor="start" dominant-baseline="text-after-edge">+1</text><path fill="white" stroke="#505050" paint-order="fill stroke markers" d=" M 325.73046875 362.671875 L 373.73046875 362.671875 L 373.73046875 384.671875 L 325.73046875 384.671875 L 325.73046875 362.671875 Z" stroke-miterlimit="10" stroke-width="0.5" stroke-dasharray=""/><path fill="none" stroke="#505050" paint-order="fill stroke markers" d=" M 365.73046875 371.671875 L 373.73046875 371.671875 L 373.73046875 379.671875 L 365.73046875 379.671875 L 365.73046875 371.671875 Z" stroke-miterlimit="10" stroke-width="0.5" stroke-dasharray=""/><text fill="#505050" stroke="none" font-family="monospace" font-size="14px" font-style="normal" font-weight="normal" text-decoration="normal" x="357.73046875" y="380.671875" text-anchor="end" dominant-baseline="text-after-edge">1</text><path fill="white" stroke="#505050" paint-order="fill stroke markers" d=" M 347.984375 322.85546875 L 371.984375 322.85546875 L 371.984375 342.85546875 L 347.984375 342.85546875 L 355.984375 332.85546875 L 347.984375 322.85546875" stroke-miterlimit="10" stroke-width="0.5" stroke-dasharray=""/><path fill="none" stroke="#505050" paint-order="fill stroke markers" d=" M 371.984375 334.85546875 A 4 4 0 1 0 371.9843730000002 334.85946874933336" stroke-miterlimit="10" stroke-width="0.5" stroke-dasharray=""/><path fill="white" stroke="#505050" paint-order="fill stroke markers" d=" M 302.11328125 73.5 L 302.11328125 154.7578125 Q 302.11328125 162.7578125 310.11328125 162.7578125 L 556.1171875 162.7578125 Q 564.1171875 162.7578125 564.1171875 154.7578125 L 564.1171875 73.5 Q 564.1171875 65.5 556.1171875 65.5 L 310.11328125 65.5 Q 302.11328125 65.5 302.11328125 73.5" stroke-miterlimit="10" stroke-width="0.5" stroke-dasharray=""/><path fill="#F0F0F0" stroke="#505050" paint-order="fill stroke markers" d=" M 483.1171875 132.7578125 L 556.1171875 132.7578125 L 556.1171875 154.7578125 L 483.1171875 154.7578125 L 483.1171875 132.7578125 Z" stroke-miterlimit="10" stroke-width="0.5" stroke-dasharray=""/><path fill="none" stroke="#505050" paint-order="fill stroke markers" d=" M 483.1171875 140.7578125 L 491.1171875 140.7578125 L 491.1171875 148.7578125 L 483.1171875 148.7578125 L 483.1171875 140.7578125 Z" stroke-miterlimit="10" stroke-width="0.5" stroke-dasharray=""/><path fill="none" stroke="#505050" paint-order="fill stroke markers" d=" M 548.1171875 141.7578125 L 556.1171875 141.7578125 L 556.1171875 149.7578125 L 548.1171875 149.7578125 L 548.1171875 141.7578125 Z" stroke-miterlimit="10" stroke-width="0.5" stroke-dasharray=""/><text fill="#505050" stroke="none" font-family="monospace" font-size="14px" font-style="normal" font-weight="normal" text-decoration="normal" x="540.1171875" y="150.7578125" text-anchor="end" dominant-baseline="text-after-edge">&lt; 0</text><path fill="white" stroke="#505050" paint-order="fill stroke markers" d=" M 387.90625 73.5 L 419.90625 73.5 L 419.90625 119.5 L 387.90625 119.5 L 387.90625 73.5 Z" stroke-miterlimit="10" stroke-width="0.5" stroke-dasharray=""/><text fill="#505050" stroke="none" font-family="monospace" font-size="14px" font-style="normal" font-weight="normal" text-decoration="normal" x="403.90625" y="91.5" text-anchor="middle" dominant-baseline="text-after-edge">&lt;</text><path fill="none" stroke="#505050" paint-order="fill stroke markers" d=" M 387.90625 95.5 L 395.90625 95.5 L 395.90625 103.5 L 387.90625 103.5 L 387.90625 95.5 Z" stroke-miterlimit="10" stroke-width="0.5" stroke-dasharray=""/><path fill="none" stroke="#505050" paint-order="fill stroke markers" d=" M 387.90625 107.5 L 395.90625 107.5 L 395.90625 115.5 L 387.90625 115.5 L 387.90625 107.5 Z" stroke-miterlimit="10" stroke-width="0.5" stroke-dasharray=""/><path fill="none" stroke="#505050" paint-order="fill stroke markers" d=" M 411.90625 95.5 L 419.90625 95.5 L 419.90625 103.5 L 411.90625 103.5 L 411.90625 95.5 Z" stroke-miterlimit="10" stroke-width="0.5" stroke-dasharray=""/><path fill="white" stroke="#505050" paint-order="fill stroke markers" d=" M 410.1171875 124.7578125 L 467.1171875 124.7578125 L 475.1171875 135.7578125 L 467.1171875 146.7578125 L 410.1171875 146.7578125 L 410.1171875 124.7578125" stroke-miterlimit="10" stroke-width="0.5" stroke-dasharray=""/><path fill="none" stroke="#505050" paint-order="fill stroke markers" d=" M 418.1171875 137.7578125 A 4 4 0 1 0 418.1171855000002 137.76181249933333" stroke-miterlimit="10" stroke-width="0.5" stroke-dasharray=""/><text fill="#505050" stroke="none" font-family="monospace" font-size="14px" font-style="normal" font-weight="normal" text-decoration="normal" x="426.1171875" y="142.7578125" text-anchor="start" dominant-baseline="text-after-edge">&lt; 0</text><path fill="white" stroke="#505050" paint-order="fill stroke markers" d=" M 324.875 114.7109375 L 372.875 114.7109375 L 372.875 136.7109375 L 324.875 136.7109375 L 324.875 114.7109375 Z" stroke-miterlimit="10" stroke-width="0.5" stroke-dasharray=""/><path fill="none" stroke="#505050" paint-order="fill stroke markers" d=" M 364.875 123.7109375 L 372.875 123.7109375 L 372.875 131.7109375 L 364.875 131.7109375 L 364.875 123.7109375 Z" stroke-miterlimit="10" stroke-width="0.5" stroke-dasharray=""/><text fill="#505050" stroke="none" font-family="monospace" font-size="14px" font-style="normal" font-weight="normal" text-decoration="normal" x="356.875" y="132.7109375" text-anchor="end" dominant-baseline="text-after-edge">0</text><path fill="white" stroke="#505050" paint-order="fill stroke markers" d=" M 347.12890625 74.89453125 L 371.12890625 74.89453125 L 371.12890625 94.89453125 L 347.12890625 94.89453125 L 355.12890625 84.89453125 L 347.12890625 74.89453125" stroke-miterlimit="10" stroke-width="0.5" stroke-dasharray=""/><path fill="none" stroke="#505050" paint-order="fill stroke markers" d=" M 371.12890625 86.89453125 A 4 4 0 1 0 371.1289042500002 86.89853124933333" stroke-miterlimit="10" stroke-width="0.5" stroke-dasharray=""/><path fill="white" stroke="#505050" paint-order="fill stroke markers" d=" M 301.11328125 199.953125 L 301.11328125 281.2109375 Q 301.11328125 289.2109375 309.11328125 289.2109375 L 555.1171875 289.2109375 Q 563.1171875 289.2109375 563.1171875 281.2109375 L 563.1171875 199.953125 Q 563.1171875 191.953125 555.1171875 191.953125 L 309.11328125 191.953125 Q 301.11328125 191.953125 301.11328125 199.953125" stroke-miterlimit="10" stroke-width="0.5" stroke-dasharray=""/><path fill="#F0F0F0" stroke="#505050" paint-order="fill stroke markers" d=" M 482.1171875 259.2109375 L 555.1171875 259.2109375 L 555.1171875 281.2109375 L 482.1171875 281.2109375 L 482.1171875 259.2109375 Z" stroke-miterlimit="10" stroke-width="0.5" stroke-dasharray=""/><path fill="none" stroke="#505050" paint-order="fill stroke markers" d=" M 482.1171875 267.2109375 L 490.1171875 267.2109375 L 490.1171875 275.2109375 L 482.1171875 275.2109375 L 482.1171875 267.2109375 Z" stroke-miterlimit="10" stroke-width="0.5" stroke-dasharray=""/><path fill="none" stroke="#505050" paint-order="fill stroke markers" d=" M 547.1171875 268.2109375 L 555.1171875 268.2109375 L 555.1171875 276.2109375 L 547.1171875 276.2109375 L 547.1171875 268.2109375 Z" stroke-miterlimit="10" stroke-width="0.5" stroke-dasharray=""/><text fill="#505050" stroke="none" font-family="monospace" font-size="14px" font-style="normal" font-weight="normal" text-decoration="normal" x="539.1171875" y="277.2109375" text-anchor="end" dominant-baseline="text-after-edge">&gt; 0</text><path fill="white" stroke="#505050" paint-order="fill stroke markers" d=" M 386.90625 199.953125 L 418.90625 199.953125 L 418.90625 245.953125 L 386.90625 245.953125 L 386.90625 199.953125 Z" stroke-miterlimit="10" stroke-width="0.5" stroke-dasharray=""/><text fill="#505050" stroke="none" font-family="monospace" font-size="14px" font-style="normal" font-weight="normal" text-decoration="normal" x="402.90625" y="217.953125" text-anchor="middle" dominant-baseline="text-after-edge">&gt;</text><path fill="none" stroke="#505050" paint-order="fill stroke markers" d=" M 386.90625 221.953125 L 394.90625 221.953125 L 394.90625 229.953125 L 386.90625 229.953125 L 386.90625 221.953125 Z" stroke-miterlimit="10" stroke-width="0.5" stroke-dasharray=""/><path fill="none" stroke="#505050" paint-order="fill stroke markers" d=" M 386.90625 233.953125 L 394.90625 233.953125 L 394.90625 241.953125 L 386.90625 241.953125 L 386.90625 233.953125 Z" stroke-miterlimit="10" stroke-width="0.5" stroke-dasharray=""/><path fill="none" stroke="#505050" paint-order="fill stroke markers" d=" M 410.90625 221.953125 L 418.90625 221.953125 L 418.90625 229.953125 L 410.90625 229.953125 L 410.90625 221.953125 Z" stroke-miterlimit="10" stroke-width="0.5" stroke-dasharray=""/><path fill="white" stroke="#505050" paint-order="fill stroke markers" d=" M 409.1171875 251.2109375 L 466.1171875 251.2109375 L 474.1171875 262.2109375 L 466.1171875 273.2109375 L 409.1171875 273.2109375 L 409.1171875 251.2109375" stroke-miterlimit="10" stroke-width="0.5" stroke-dasharray=""/><path fill="none" stroke="#505050" paint-order="fill stroke markers" d=" M 417.1171875 264.2109375 A 4 4 0 1 0 417.1171855000002 264.21493749933336" stroke-miterlimit="10" stroke-width="0.5" stroke-dasharray=""/><text fill="#505050" stroke="none" font-family="monospace" font-size="14px" font-style="normal" font-weight="normal" text-decoration="normal" x="425.1171875" y="269.2109375" text-anchor="start" dominant-baseline="text-after-edge">&gt; 0</text><path fill="white" stroke="#505050" paint-order="fill stroke markers" d=" M 323.875 241.1640625 L 371.875 241.1640625 L 371.875 263.1640625 L 323.875 263.1640625 L 323.875 241.1640625 Z" stroke-miterlimit="10" stroke-width="0.5" stroke-dasharray=""/><path fill="none" stroke="#505050" paint-order="fill stroke markers" d=" M 363.875 250.1640625 L 371.875 250.1640625 L 371.875 258.1640625 L 363.875 258.1640625 L 363.875 250.1640625 Z" stroke-miterlimit="10" stroke-width="0.5" stroke-dasharray=""/><text fill="#505050" stroke="none" font-family="monospace" font-size="14px" font-style="normal" font-weight="normal" text-decoration="normal" x="355.875" y="259.1640625" text-anchor="end" dominant-baseline="text-after-edge">0</text><path fill="white" stroke="#505050" paint-order="fill stroke markers" d=" M 346.12890625 201.34765625 L 370.12890625 201.34765625 L 370.12890625 221.34765625 L 346.12890625 221.34765625 L 354.12890625 211.34765625 L 346.12890625 201.34765625" stroke-miterlimit="10" stroke-width="0.5" stroke-dasharray=""/><path fill="none" stroke="#505050" paint-order="fill stroke markers" d=" M 370.12890625 213.34765625 A 4 4 0 1 0 370.1289042500002 213.35165624933333" stroke-miterlimit="10" stroke-width="0.5" stroke-dasharray=""/><path fill="white" stroke="#505050" paint-order="fill stroke markers" d=" M 306.0859375 441.32421875 L 306.0859375 522.58203125 Q 306.0859375 530.58203125 314.0859375 530.58203125 L 544.08984375 530.58203125 Q 552.08984375 530.58203125 552.08984375 522.58203125 L 552.08984375 441.32421875 Q 552.08984375 433.32421875 544.08984375 433.32421875 L 314.0859375 433.32421875 Q 306.0859375 433.32421875 306.0859375 441.32421875" stroke-miterlimit="10" stroke-width="0.5" stroke-dasharray=""/><path fill="#F0F0F0" stroke="#505050" paint-order="fill stroke markers" d=" M 479.08984375 500.58203125 L 544.08984375 500.58203125 L 544.08984375 522.58203125 L 479.08984375 522.58203125 L 479.08984375 500.58203125 Z" stroke-miterlimit="10" stroke-width="0.5" stroke-dasharray=""/><path fill="none" stroke="#505050" paint-order="fill stroke markers" d=" M 479.08984375 508.58203125 L 487.08984375 508.58203125 L 487.08984375 516.58203125 L 479.08984375 516.58203125 L 479.08984375 508.58203125 Z" stroke-miterlimit="10" stroke-width="0.5" stroke-dasharray=""/><path fill="none" stroke="#505050" paint-order="fill stroke markers" d=" M 536.08984375 509.58203125 L 544.08984375 509.58203125 L 544.08984375 517.58203125 L 536.08984375 517.58203125 L 536.08984375 509.58203125 Z" stroke-miterlimit="10" stroke-width="0.5" stroke-dasharray=""/><text fill="#505050" stroke="none" font-family="monospace" font-size="14px" font-style="normal" font-weight="normal" text-decoration="normal" x="528.08984375" y="518.58203125" text-anchor="end" dominant-baseline="text-after-edge">-1</text><path fill="white" stroke="#505050" paint-order="fill stroke markers" d=" M 391.87890625 441.32421875 L 423.87890625 441.32421875 L 423.87890625 487.32421875 L 391.87890625 487.32421875 L 391.87890625 441.32421875 Z" stroke-miterlimit="10" stroke-width="0.5" stroke-dasharray=""/><text fill="#505050" stroke="none" font-family="monospace" font-size="14px" font-style="normal" font-weight="normal" text-decoration="normal" x="407.87890625" y="459.32421875" text-anchor="middle" dominant-baseline="text-after-edge">-</text><path fill="none" stroke="#505050" paint-order="fill stroke markers" d=" M 391.87890625 463.32421875 L 399.87890625 463.32421875 L 399.87890625 471.32421875 L 391.87890625 471.32421875 L 391.87890625 463.32421875 Z" stroke-miterlimit="10" stroke-width="0.5" stroke-dasharray=""/><path fill="none" stroke="#505050" paint-order="fill stroke markers" d=" M 391.87890625 475.32421875 L 399.87890625 475.32421875 L 399.87890625 483.32421875 L 391.87890625 483.32421875 L 391.87890625 475.32421875 Z" stroke-miterlimit="10" stroke-width="0.5" stroke-dasharray=""/><path fill="none" stroke="#505050" paint-order="fill stroke markers" d=" M 415.87890625 463.32421875 L 423.87890625 463.32421875 L 423.87890625 471.32421875 L 415.87890625 471.32421875 L 415.87890625 463.32421875 Z" stroke-miterlimit="10" stroke-width="0.5" stroke-dasharray=""/><path fill="white" stroke="#505050" paint-order="fill stroke markers" d=" M 414.08984375 492.58203125 L 463.08984375 492.58203125 L 471.08984375 503.58203125 L 463.08984375 514.58203125 L 414.08984375 514.58203125 L 414.08984375 492.58203125" stroke-miterlimit="10" stroke-width="0.5" stroke-dasharray=""/><path fill="none" stroke="#505050" paint-order="fill stroke markers" d=" M 422.08984375 505.58203125 A 4 4 0 1 0 422.0898417500002 505.58603124933336" stroke-miterlimit="10" stroke-width="0.5" stroke-dasharray=""/><text fill="#505050" stroke="none" font-family="monospace" font-size="14px" font-style="normal" font-weight="normal" text-decoration="normal" x="430.08984375" y="510.58203125" text-anchor="start" dominant-baseline="text-after-edge">-1</text><path fill="white" stroke="#505050" paint-order="fill stroke markers" d=" M 328.84765625 482.53515625 L 376.84765625 482.53515625 L 376.84765625 504.53515625 L 328.84765625 504.53515625 L 328.84765625 482.53515625 Z" stroke-miterlimit="10" stroke-width="0.5" stroke-dasharray=""/><path fill="none" stroke="#505050" paint-order="fill stroke markers" d=" M 368.84765625 491.53515625 L 376.84765625 491.53515625 L 376.84765625 499.53515625 L 368.84765625 499.53515625 L 368.84765625 491.53515625 Z" stroke-miterlimit="10" stroke-width="0.5" stroke-dasharray=""/><text fill="#505050" stroke="none" font-family="monospace" font-size="14px" font-style="normal" font-weight="normal" text-decoration="normal" x="360.84765625" y="500.53515625" text-anchor="end" dominant-baseline="text-after-edge">1</text><path fill="white" stroke="#505050" paint-order="fill stroke markers" d=" M 351.1015625 442.71875 L 375.1015625 442.71875 L 375.1015625 462.71875 L 351.1015625 462.71875 L 359.1015625 452.71875 L 351.1015625 442.71875" stroke-miterlimit="10" stroke-width="0.5" stroke-dasharray=""/><path fill="none" stroke="#505050" paint-order="fill stroke markers" d=" M 375.1015625 454.71875 A 4 4 0 1 0 375.1015605000002 454.72274999933336" stroke-miterlimit="10" stroke-width="0.5" stroke-dasharray=""/><path fill="white" stroke="#505050" paint-order="fill stroke markers" d=" M 667.5546875 63.49609375 L 667.5546875 196.31640625 Q 667.5546875 204.31640625 675.5546875 204.31640625 L 910.7421875 204.31640625 Q 918.7421875 204.31640625 918.7421875 196.31640625 L 918.7421875 63.49609375 Q 918.7421875 55.49609375 910.7421875 55.49609375 L 675.5546875 55.49609375 Q 667.5546875 55.49609375 667.5546875 63.49609375" stroke-miterlimit="10" stroke-width="0.5" stroke-dasharray=""/><path fill="#F0F0F0" stroke="#505050" paint-order="fill stroke markers" d=" M 878.7421875 128.31640625 L 910.7421875 128.31640625 L 910.7421875 196.31640625 L 878.7421875 196.31640625 L 878.7421875 128.31640625 Z" stroke-miterlimit="10" stroke-width="0.5" stroke-dasharray=""/><path fill="none" stroke="#505050" paint-order="fill stroke markers" d=" M 878.7421875 136.31640625 L 886.7421875 136.31640625 L 886.7421875 144.31640625 L 878.7421875 144.31640625 L 878.7421875 136.31640625 Z" stroke-miterlimit="10" stroke-width="0.5" stroke-dasharray=""/><path fill="none" stroke="#505050" paint-order="fill stroke markers" d=" M 886.7421875 152.31640625 A 4 4 0 1 0 886.7421855000001 152.32040624933333" stroke-miterlimit="10" stroke-width="0.5" stroke-dasharray=""/><path fill="none" stroke="#505050" paint-order="fill stroke markers" d=" M 878.7421875 160.31640625 L 886.7421875 160.31640625 L 886.7421875 168.31640625 L 878.7421875 168.31640625 L 878.7421875 160.31640625 Z" stroke-miterlimit="10" stroke-width="0.5" stroke-dasharray=""/><path fill="none" stroke="#505050" paint-order="fill stroke markers" d=" M 886.7421875 176.31640625 A 4 4 0 1 0 886.7421855000001 176.32040624933333" stroke-miterlimit="10" stroke-width="0.5" stroke-dasharray=""/><path fill="none" stroke="#505050" paint-order="fill stroke markers" d=" M 886.7421875 188.31640625 A 4 4 0 1 0 886.7421855000001 188.32040624933333" stroke-miterlimit="10" stroke-width="0.5" stroke-dasharray=""/><path fill="none" stroke="#505050" paint-order="fill stroke markers" d=" M 910.7421875 140.31640625 A 4 4 0 1 0 910.7421855000001 140.32040624933333" stroke-miterlimit="10" stroke-width="0.5" stroke-dasharray=""/><path fill="white" stroke="#505050" paint-order="fill stroke markers" d=" M 846.7421875 77.046875 L 862.7421875 77.046875 L 870.7421875 87.046875 L 862.7421875 97.046875 L 846.7421875 97.046875 L 846.7421875 77.046875" stroke-miterlimit="10" stroke-width="0.5" stroke-dasharray=""/><path fill="none" stroke="#505050" paint-order="fill stroke markers" d=" M 854.7421875 89.046875 A 4 4 0 1 0 854.7421855000001 89.05087499933333" stroke-miterlimit="10" stroke-width="0.5" stroke-dasharray=""/><path fill="white" stroke="#505050" paint-order="fill stroke markers" d=" M 789.7109375 63.49609375 L 821.7109375 63.49609375 L 821.7109375 121.49609375 L 789.7109375 121.49609375 L 789.7109375 63.49609375 Z" stroke-miterlimit="10" stroke-width="0.5" stroke-dasharray=""/><text fill="#505050" stroke="none" font-family="monospace" font-size="14px" font-style="normal" font-weight="normal" text-decoration="normal" x="805.7109375" y="81.49609375" text-anchor="middle" dominant-baseline="text-after-edge">?</text><path fill="none" stroke="#505050" paint-order="fill stroke markers" d=" M 789.7109375 85.49609375 L 797.7109375 85.49609375 L 797.7109375 93.49609375 L 789.7109375 93.49609375 L 789.7109375 85.49609375 Z" stroke-miterlimit="10" stroke-width="0.5" stroke-dasharray=""/><path fill="none" stroke="#505050" paint-order="fill stroke markers" d=" M 797.7109375 101.49609375 A 4 4 0 1 0 797.7109355000001 101.50009374933333" stroke-miterlimit="10" stroke-width="0.5" stroke-dasharray=""/><path fill="none" stroke="#505050" paint-order="fill stroke markers" d=" M 797.7109375 113.49609375 A 4 4 0 1 0 797.7109355000001 113.50009374933333" stroke-miterlimit="10" stroke-width="0.5" stroke-dasharray=""/><path fill="none" stroke="#505050" paint-order="fill stroke markers" d=" M 821.7109375 89.49609375 A 4 4 0 1 0 821.7109355000001 89.50009374933333" stroke-miterlimit="10" stroke-width="0.5" stroke-dasharray=""/><path fill="white" stroke="#505050" paint-order="fill stroke markers" d=" M 695.9921875 83.62109375 L 719.9921875 83.62109375 L 719.9921875 103.62109375 L 695.9921875 103.62109375 L 703.9921875 93.62109375 L 695.9921875 83.62109375" stroke-miterlimit="10" stroke-width="0.5" stroke-dasharray=""/><path fill="none" stroke="#505050" paint-order="fill stroke markers" d=" M 719.9921875 95.62109375 A 4 4 0 1 0 719.9921855000001 95.62509374933333" stroke-miterlimit="10" stroke-width="0.5" stroke-dasharray=""/><path fill="white" stroke="#505050" paint-order="fill stroke markers" d=" M 720.6171875 107.1640625 L 752.6171875 107.1640625 L 752.6171875 165.1640625 L 720.6171875 165.1640625 L 720.6171875 107.1640625 Z" stroke-miterlimit="10" stroke-width="0.5" stroke-dasharray=""/><text fill="#505050" stroke="none" font-family="monospace" font-size="14px" font-style="normal" font-weight="normal" text-decoration="normal" x="736.6171875" y="125.1640625" text-anchor="middle" dominant-baseline="text-after-edge">?</text><path fill="none" stroke="#505050" paint-order="fill stroke markers" d=" M 720.6171875 129.1640625 L 728.6171875 129.1640625 L 728.6171875 137.1640625 L 720.6171875 137.1640625 L 720.6171875 129.1640625 Z" stroke-miterlimit="10" stroke-width="0.5" stroke-dasharray=""/><path fill="none" stroke="#505050" paint-order="fill stroke markers" d=" M 728.6171875 145.1640625 A 4 4 0 1 0 728.6171855000001 145.16806249933333" stroke-miterlimit="10" stroke-width="0.5" stroke-dasharray=""/><path fill="none" stroke="#505050" paint-order="fill stroke markers" d=" M 728.6171875 157.1640625 A 4 4 0 1 0 728.6171855000001 157.16806249933333" stroke-miterlimit="10" stroke-width="0.5" stroke-dasharray=""/><path fill="none" stroke="#505050" paint-order="fill stroke markers" d=" M 752.6171875 133.1640625 A 4 4 0 1 0 752.6171855000001 133.16806249933333" stroke-miterlimit="10" stroke-width="0.5" stroke-dasharray=""/><path fill="white" stroke="#505050" paint-order="fill stroke markers" d=" M 675.87109375 168.31640625 L 699.87109375 168.31640625 L 699.87109375 188.31640625 L 675.87109375 188.31640625 L 683.87109375 178.31640625 L 675.87109375 168.31640625" stroke-miterlimit="10" stroke-width="0.5" stroke-dasharray=""/><path fill="none" stroke="#505050" paint-order="fill stroke markers" d=" M 699.87109375 180.31640625 A 4 4 0 1 0 699.8710917500001 180.32040624933333" stroke-miterlimit="10" stroke-width="0.5" stroke-dasharray=""/><path fill="white" stroke="#505050" paint-order="fill stroke markers" d=" M 675.984375 142.10546875 L 699.984375 142.10546875 L 699.984375 162.10546875 L 675.984375 162.10546875 L 683.984375 152.10546875 L 675.984375 142.10546875" stroke-miterlimit="10" stroke-width="0.5" stroke-dasharray=""/><path fill="none" stroke="#505050" paint-order="fill stroke markers" d=" M 699.984375 154.10546875 A 4 4 0 1 0 699.9843730000001 154.10946874933333" stroke-miterlimit="10" stroke-width="0.5" stroke-dasharray=""/><path fill="white" stroke="#505050" paint-order="fill stroke markers" d=" M 672.63671875 116.3046875 L 696.63671875 116.3046875 L 696.63671875 136.3046875 L 672.63671875 136.3046875 L 680.63671875 126.3046875 L 672.63671875 116.3046875" stroke-miterlimit="10" stroke-width="0.5" stroke-dasharray=""/><path fill="none" stroke="#505050" paint-order="fill stroke markers" d=" M 696.63671875 128.3046875 A 4 4 0 1 0 696.6367167500001 128.30868749933333" stroke-miterlimit="10" stroke-width="0.5" stroke-dasharray=""/><path fill="white" stroke="#505050" paint-order="fill stroke markers" d=" M 726.24609375 63.0546875 L 750.24609375 63.0546875 L 750.24609375 83.0546875 L 726.24609375 83.0546875 L 734.24609375 73.0546875 L 726.24609375 63.0546875" stroke-miterlimit="10" stroke-width="0.5" stroke-dasharray=""/><path fill="none" stroke="#505050" paint-order="fill stroke markers" d=" M 750.24609375 75.0546875 A 4 4 0 1 0 750.2460917500001 75.05868749933333" stroke-miterlimit="10" stroke-width="0.5" stroke-dasharray=""/><path fill="white" stroke="#505050" paint-order="fill stroke markers" d=" M 663.8984375 243.53125 L 663.8984375 399.54296875 Q 663.8984375 407.54296875 671.8984375 407.54296875 L 1053.27734375 407.54296875 Q 1061.27734375 407.54296875 1061.27734375 399.54296875 L 1061.27734375 243.53125 Q 1061.27734375 235.53125 1053.27734375 235.53125 L 671.8984375 235.53125 Q 663.8984375 235.53125 663.8984375 243.53125" stroke-miterlimit="10" stroke-width="0.5" stroke-dasharray=""/><path fill="#F0F0F0" stroke="#505050" paint-order="fill stroke markers" d=" M 987.27734375 365.54296875 L 1053.27734375 365.54296875 L 1053.27734375 399.54296875 L 987.27734375 399.54296875 L 987.27734375 365.54296875 Z" stroke-miterlimit="10" stroke-width="0.5" stroke-dasharray=""/><text fill="#505050" stroke="none" font-family="monospace" font-size="14px" font-style="normal" font-weight="normal" text-decoration="normal" x="1020.27734375" y="383.54296875" text-anchor="middle" dominant-baseline="text-after-edge">signum</text><path fill="none" stroke="#505050" paint-order="fill stroke markers" d=" M 987.27734375 387.54296875 L 995.27734375 387.54296875 L 995.27734375 395.54296875 L 987.27734375 395.54296875 L 987.27734375 387.54296875 Z" stroke-miterlimit="10" stroke-width="0.5" stroke-dasharray=""/><path fill="none" stroke="#505050" paint-order="fill stroke markers" d=" M 1045.27734375 387.54296875 L 1053.27734375 387.54296875 L 1053.27734375 395.54296875 L 1045.27734375 395.54296875 L 1045.27734375 387.54296875 Z" stroke-miterlimit="10" stroke-width="0.5" stroke-dasharray=""/><path fill="white" stroke="#505050" paint-order="fill stroke markers" d=" M 671.8984375 281.8203125 L 695.8984375 281.8203125 L 695.8984375 301.8203125 L 671.8984375 301.8203125 L 679.8984375 291.8203125 L 671.8984375 281.8203125" stroke-miterlimit="10" stroke-width="0.5" stroke-dasharray=""/><path fill="none" stroke="#505050" paint-order="fill stroke markers" d=" M 695.8984375 293.8203125 A 4 4 0 1 0 695.8984355000001 293.82431249933336" stroke-miterlimit="10" stroke-width="0.5" stroke-dasharray=""/><path fill="white" stroke="#505050" paint-order="fill stroke markers" d=" M 763.96484375 303.8046875 L 836.96484375 303.8046875 L 836.96484375 325.8046875 L 763.96484375 325.8046875 L 763.96484375 303.8046875 Z" stroke-miterlimit="10" stroke-width="0.5" stroke-dasharray=""/><path fill="none" stroke="#505050" paint-order="fill stroke markers" d=" M 763.96484375 311.8046875 L 771.96484375 311.8046875 L 771.96484375 319.8046875 L 763.96484375 319.8046875 L 763.96484375 311.8046875 Z" stroke-miterlimit="10" stroke-width="0.5" stroke-dasharray=""/><path fill="none" stroke="#505050" paint-order="fill stroke markers" d=" M 828.96484375 312.8046875 L 836.96484375 312.8046875 L 836.96484375 320.8046875 L 828.96484375 320.8046875 L 828.96484375 312.8046875 Z" stroke-miterlimit="10" stroke-width="0.5" stroke-dasharray=""/><text fill="#505050" stroke="none" font-family="monospace" font-size="14px" font-style="normal" font-weight="normal" text-decoration="normal" x="820.96484375" y="321.8046875" text-anchor="end" dominant-baseline="text-after-edge">&gt; 0</text><path fill="white" stroke="#505050" paint-order="fill stroke markers" d=" M 891.27734375 274.0625 L 923.27734375 274.0625 L 923.27734375 342.0625 L 891.27734375 342.0625 L 891.27734375 274.0625 Z" stroke-miterlimit="10" stroke-width="0.5" stroke-dasharray=""/><path fill="none" stroke="#505050" paint-order="fill stroke markers" d=" M 891.27734375 282.0625 L 899.27734375 282.0625 L 899.27734375 290.0625 L 891.27734375 290.0625 L 891.27734375 282.0625 Z" stroke-miterlimit="10" stroke-width="0.5" stroke-dasharray=""/><path fill="none" stroke="#505050" paint-order="fill stroke markers" d=" M 899.27734375 298.0625 A 4 4 0 1 0 899.2773417500001 298.06649999933336" stroke-miterlimit="10" stroke-width="0.5" stroke-dasharray=""/><path fill="none" stroke="#505050" paint-order="fill stroke markers" d=" M 891.27734375 306.0625 L 899.27734375 306.0625 L 899.27734375 314.0625 L 891.27734375 314.0625 L 891.27734375 306.0625 Z" stroke-miterlimit="10" stroke-width="0.5" stroke-dasharray=""/><path fill="none" stroke="#505050" paint-order="fill stroke markers" d=" M 899.27734375 322.0625 A 4 4 0 1 0 899.2773417500001 322.06649999933336" stroke-miterlimit="10" stroke-width="0.5" stroke-dasharray=""/><path fill="none" stroke="#505050" paint-order="fill stroke markers" d=" M 899.27734375 334.0625 A 4 4 0 1 0 899.2773417500001 334.06649999933336" stroke-miterlimit="10" stroke-width="0.5" stroke-dasharray=""/><path fill="none" stroke="#505050" paint-order="fill stroke markers" d=" M 923.27734375 286.0625 A 4 4 0 1 0 923.2773417500001 286.06649999933336" stroke-miterlimit="10" stroke-width="0.5" stroke-dasharray=""/><path fill="white" stroke="#505050" paint-order="fill stroke markers" d=" M 955.27734375 286.0625 L 971.27734375 286.0625 L 979.27734375 296.0625 L 971.27734375 306.0625 L 955.27734375 306.0625 L 955.27734375 286.0625" stroke-miterlimit="10" stroke-width="0.5" stroke-dasharray=""/><path fill="none" stroke="#505050" paint-order="fill stroke markers" d=" M 963.27734375 298.0625 A 4 4 0 1 0 963.2773417500001 298.06649999933336" stroke-miterlimit="10" stroke-width="0.5" stroke-dasharray=""/><path fill="white" stroke="#505050" paint-order="fill stroke markers" d=" M 784.78125 369.54296875 L 832.78125 369.54296875 L 832.78125 391.54296875 L 784.78125 391.54296875 L 784.78125 369.54296875 Z" stroke-miterlimit="10" stroke-width="0.5" stroke-dasharray=""/><path fill="none" stroke="#505050" paint-order="fill stroke markers" d=" M 824.78125 378.54296875 L 832.78125 378.54296875 L 832.78125 386.54296875 L 824.78125 386.54296875 L 824.78125 378.54296875 Z" stroke-miterlimit="10" stroke-width="0.5" stroke-dasharray=""/><text fill="#505050" stroke="none" font-family="monospace" font-size="14px" font-style="normal" font-weight="normal" text-decoration="normal" x="816.78125" y="387.54296875" text-anchor="end" dominant-baseline="text-after-edge">0</text><path fill="white" stroke="#505050" paint-order="fill stroke markers" d=" M 787.8125 335.4375 L 835.8125 335.4375 L 835.8125 357.4375 L 787.8125 357.4375 L 787.8125 335.4375 Z" stroke-miterlimit="10" stroke-width="0.5" stroke-dasharray=""/><path fill="none" stroke="#505050" paint-order="fill stroke markers" d=" M 827.8125 344.4375 L 835.8125 344.4375 L 835.8125 352.4375 L 827.8125 352.4375 L 827.8125 344.4375 Z" stroke-miterlimit="10" stroke-width="0.5" stroke-dasharray=""/><text fill="#505050" stroke="none" font-family="monospace" font-size="14px" font-style="normal" font-weight="normal" text-decoration="normal" x="819.8125" y="353.4375" text-anchor="end" dominant-baseline="text-after-edge">1</text><path fill="white" stroke="#505050" paint-order="fill stroke markers" d=" M 782.03125 273.89453125 L 839.03125 273.89453125 L 839.03125 295.89453125 L 782.03125 295.89453125 L 782.03125 273.89453125 Z" stroke-miterlimit="10" stroke-width="0.5" stroke-dasharray=""/><path fill="none" stroke="#505050" paint-order="fill stroke markers" d=" M 831.03125 282.89453125 L 839.03125 282.89453125 L 839.03125 290.89453125 L 831.03125 290.89453125 L 831.03125 282.89453125 Z" stroke-miterlimit="10" stroke-width="0.5" stroke-dasharray=""/><text fill="#505050" stroke="none" font-family="monospace" font-size="14px" font-style="normal" font-weight="normal" text-decoration="normal" x="823.03125" y="291.89453125" text-anchor="end" dominant-baseline="text-after-edge">-1</text><path fill="white" stroke="#505050" paint-order="fill stroke markers" d=" M 763.91015625 243.53125 L 836.91015625 243.53125 L 836.91015625 265.53125 L 763.91015625 265.53125 L 763.91015625 243.53125 Z" stroke-miterlimit="10" stroke-width="0.5" stroke-dasharray=""/><path fill="none" stroke="#505050" paint-order="fill stroke markers" d=" M 763.91015625 251.53125 L 771.91015625 251.53125 L 771.91015625 259.53125 L 763.91015625 259.53125 L 763.91015625 251.53125 Z" stroke-miterlimit="10" stroke-width="0.5" stroke-dasharray=""/><path fill="none" stroke="#505050" paint-order="fill stroke markers" d=" M 828.91015625 252.53125 L 836.91015625 252.53125 L 836.91015625 260.53125 L 828.91015625 260.53125 L 828.91015625 252.53125 Z" stroke-miterlimit="10" stroke-width="0.5" stroke-dasharray=""/><text fill="#505050" stroke="none" font-family="monospace" font-size="14px" font-style="normal" font-weight="normal" text-decoration="normal" x="820.91015625" y="261.53125" text-anchor="end" dominant-baseline="text-after-edge">&lt; 0</text><path fill="none" stroke="#505050" paint-order="fill stroke markers" d=" M 420.76171875 347.4609375 C 444.76171875 347.4609375 386.97265625 385.71875 410.97265625 385.71875" stroke-miterlimit="10" stroke-dasharray=""/><path fill="none" stroke="#505050" paint-order="fill stroke markers" d=" M 373.73046875 375.671875 C 397.73046875 375.671875 364.76171875 359.4609375 388.76171875 359.4609375" stroke-miterlimit="10" stroke-dasharray=""/><path fill="none" stroke="#505050" paint-order="fill stroke markers" d=" M 371.984375 334.85546875 C 395.984375 334.85546875 364.76171875 347.4609375 388.76171875 347.4609375" stroke-miterlimit="10" stroke-dasharray=""/><path fill="none" stroke="#505050" paint-order="fill stroke markers" d=" M 419.90625 99.5 C 443.90625 99.5 386.1171875 137.7578125 410.1171875 137.7578125" stroke-miterlimit="10" stroke-dasharray=""/><path fill="none" stroke="#505050" paint-order="fill stroke markers" d=" M 372.875 127.7109375 C 396.875 127.7109375 363.90625 111.5 387.90625 111.5" stroke-miterlimit="10" stroke-dasharray=""/><path fill="none" stroke="#505050" paint-order="fill stroke markers" d=" M 371.12890625 86.89453125 C 395.12890625 86.89453125 363.90625 99.5 387.90625 99.5" stroke-miterlimit="10" stroke-dasharray=""/><path fill="none" stroke="#505050" paint-order="fill stroke markers" d=" M 418.90625 225.953125 C 442.90625 225.953125 385.1171875 264.2109375 409.1171875 264.2109375" stroke-miterlimit="10" stroke-dasharray=""/><path fill="none" stroke="#505050" paint-order="fill stroke markers" d=" M 371.875 254.1640625 C 395.875 254.1640625 362.90625 237.953125 386.90625 237.953125" stroke-miterlimit="10" stroke-dasharray=""/><path fill="none" stroke="#505050" paint-order="fill stroke markers" d=" M 370.12890625 213.34765625 C 394.12890625 213.34765625 362.90625 225.953125 386.90625 225.953125" stroke-miterlimit="10" stroke-dasharray=""/><path fill="none" stroke="#505050" paint-order="fill stroke markers" d=" M 423.87890625 467.32421875 C 447.87890625 467.32421875 390.08984375 505.58203125 414.08984375 505.58203125" stroke-miterlimit="10" stroke-dasharray=""/><path fill="none" stroke="#505050" paint-order="fill stroke markers" d=" M 376.84765625 495.53515625 C 400.84765625 495.53515625 367.87890625 479.32421875 391.87890625 479.32421875" stroke-miterlimit="10" stroke-dasharray=""/><path fill="none" stroke="#505050" paint-order="fill stroke markers" d=" M 375.1015625 454.71875 C 399.1015625 454.71875 367.87890625 467.32421875 391.87890625 467.32421875" stroke-miterlimit="10" stroke-dasharray=""/><path fill="none" stroke="#505050" paint-order="fill stroke markers" d=" M 699.87109375 180.31640625 C 723.87109375 180.31640625 696.6171875 157.1640625 720.6171875 157.1640625" stroke-miterlimit="10" stroke-dasharray=""/><path fill="none" stroke="#505050" paint-order="fill stroke markers" d=" M 699.984375 154.10546875 C 723.984375 154.10546875 696.6171875 145.1640625 720.6171875 145.1640625" stroke-miterlimit="10" stroke-dasharray=""/><path fill="none" stroke="#505050" paint-order="fill stroke markers" d=" M 696.63671875 128.3046875 C 720.63671875 128.3046875 696.6171875 133.1640625 720.6171875 133.1640625" stroke-miterlimit="10" stroke-dasharray=""/><path fill="none" stroke="#505050" paint-order="fill stroke markers" d=" M 752.6171875 133.1640625 C 776.6171875 133.1640625 765.7109375 113.49609375 789.7109375 113.49609375" stroke-miterlimit="10" stroke-dasharray=""/><path fill="none" stroke="#505050" paint-order="fill stroke markers" d=" M 750.24609375 75.0546875 C 774.24609375 75.0546875 765.7109375 89.49609375 789.7109375 89.49609375" stroke-miterlimit="10" stroke-dasharray=""/><path fill="none" stroke="#505050" paint-order="fill stroke markers" d=" M 821.7109375 89.49609375 C 845.7109375 89.49609375 822.7421875 89.046875 846.7421875 89.046875" stroke-miterlimit="10" stroke-dasharray=""/><path fill="none" stroke="#505050" paint-order="fill stroke markers" d=" M 719.9921875 95.62109375 C 743.9921875 95.62109375 765.7109375 101.49609375 789.7109375 101.49609375" stroke-miterlimit="10" stroke-dasharray=""/><path fill="none" stroke="#505050" paint-order="fill stroke markers" d=" M 923.27734375 286.0625 C 947.27734375 286.0625 931.27734375 298.0625 955.27734375 298.0625" stroke-miterlimit="10" stroke-dasharray=""/><path fill="none" stroke="#505050" paint-order="fill stroke markers" d=" M 832.78125 382.54296875 C 856.78125 382.54296875 867.27734375 334.0625 891.27734375 334.0625" stroke-miterlimit="10" stroke-dasharray=""/><path fill="none" stroke="#505050" paint-order="fill stroke markers" d=" M 835.8125 348.4375 C 859.8125 348.4375 867.27734375 322.0625 891.27734375 322.0625" stroke-miterlimit="10" stroke-dasharray=""/><path fill="none" stroke="#505050" paint-order="fill stroke markers" d=" M 839.03125 286.89453125 C 863.03125 286.89453125 867.27734375 298.0625 891.27734375 298.0625" stroke-miterlimit="10" stroke-dasharray=""/><path fill="none" stroke="#505050" paint-order="fill stroke markers" d=" M 836.91015625 256.53125 C 860.91015625 256.53125 867.27734375 286.0625 891.27734375 286.0625" stroke-miterlimit="10" stroke-dasharray=""/><path fill="none" stroke="#505050" paint-order="fill stroke markers" d=" M 836.96484375 316.8046875 C 860.96484375 316.8046875 867.27734375 310.0625 891.27734375 310.0625" stroke-miterlimit="10" stroke-dasharray=""/><path fill="none" stroke="#505050" paint-order="fill stroke markers" d=" M 695.8984375 293.8203125 C 719.8984375 293.8203125 739.96484375 315.8046875 763.96484375 315.8046875" stroke-miterlimit="10" stroke-dasharray=""/><path fill="none" stroke="#505050" paint-order="fill stroke markers" d=" M 695.8984375 293.8203125 C 719.8984375 293.8203125 739.91015625 255.53125 763.91015625 255.53125" stroke-miterlimit="10" stroke-dasharray=""/></g></g></svg>