<svg version="1.1" xmlns="http://www.w3.org/2000/svg" xmlns:xlink="http://www.w3.org/1999/xlink" width="387.17889404296875" height="178.26014709472656"><defs/><g transform="translate(-341.3577880859375,-86.19139099121094)"><g><path fill="white" stroke="#505050" paint-order="fill stroke markers" d=" M 349.3577880859375 102.19139099121094 L 349.3577880859375 248.4515380859375 Q 349.3577880859375 256.4515380859375 357.3577880859375 256.4515380859375 L 712.5366821289062 256.4515380859375 Q 720.5366821289062 256.4515380859375 720.5366821289062 248.4515380859375 L 720.5366821289062 102.19139099121094 Q 720.5366821289062 94.19139099121094 712.5366821289062 94.19139099121094 L 357.3577880859375 94.19139099121094 Q 349.3577880859375 94.19139099121094 349.3577880859375 102.19139099121094" stroke-miterlimit="10" stroke-width="0.5" stroke-dasharray=""/><path fill="#F0F0F0" stroke="#505050" paint-order="fill stroke markers" d=" M 661.5366821289062 102.19139099121094 L 720.5366821289062 102.19139099121094 L 720.5366821289062 132.19139099121094 L 661.5366821289062 132.19139099121094 L 661.5366821289062 102.19139099121094 Z" stroke-miterlimit="10" stroke-width="0.5" stroke-dasharray=""/><path fill="none" stroke="none"/><text fill="#505050" stroke="none" font-family="monospace" font-size="14px" font-style="normal" font-weight="normal" text-decoration="normal" x="691.0366821289062" y="120.19139099121094" text-anchor="middle" dominant-baseline="text-after-edge">signum</text><path fill="none" stroke="#505050" paint-order="fill stroke markers" d=" M 661.5366821289062 120.19139099121094 L 669.5366821289062 120.19139099121094 L 669.5366821289062 128.19139099121094 L 661.5366821289062 128.19139099121094 L 661.5366821289062 120.19139099121094 Z" stroke-miterlimit="10" stroke-width="0.5" stroke-dasharray=""/><path fill="none" stroke="#505050" paint-order="fill stroke markers" d=" M 712.5366821289062 120.19139099121094 L 720.5366821289062 120.19139099121094 L 720.5366821289062 128.19139099121094 L 712.5366821289062 128.19139099121094 L 712.5366821289062 120.19139099121094 Z" stroke-miterlimit="10" stroke-width="0.5" stroke-dasharray=""/><path fill="white" stroke="#505050" paint-order="fill stroke markers" d=" M 580.1624755859375 111.90077209472656 L 604.1624755859375 111.90077209472656 L 604.1624755859375 165.90077209472656 L 580.1624755859375 165.90077209472656 L 580.1624755859375 111.90077209472656 Z" stroke-miterlimit="10" stroke-width="0.5" stroke-dasharray=""/><path fill="#F0F0F0" stroke="none" paint-order="stroke fill markers" d=""/><path fill="none" stroke="none"/><text fill="#505050" stroke="none" font-family="monospace" font-size="14px" font-style="normal" font-weight="normal" text-decoration="normal" x="592.1624755859375" y="129.90077209472656" text-anchor="middle" dominant-baseline="text-after-edge">?</text><path fill="none" stroke="#505050" paint-order="fill stroke markers" d=" M 580.1624755859375 129.90077209472656 L 588.1624755859375 129.90077209472656 L 588.1624755859375 137.90077209472656 L 580.1624755859375 137.90077209472656 L 580.1624755859375 129.90077209472656 Z" stroke-miterlimit="10" stroke-width="0.5" stroke-dasharray=""/><path fill="none" stroke="#505050" paint-order="fill stroke markers" d=" M 588.1624755859375 145.90077209472656 A 4 4 0 1 0 588.1624735859376 145.9047720940599" stroke-miterlimit="10" stroke-width="0.5" stroke-dasharray=""/><path fill="none" stroke="#505050" paint-order="fill stroke markers" d=" M 588.1624755859375 157.90077209472656 A 4 4 0 1 0 588.1624735859376 157.9047720940599" stroke-miterlimit="10" stroke-width="0.5" stroke-dasharray=""/><path fill="none" stroke="#505050" paint-order="fill stroke markers" d=" M 604.1624755859375 133.90077209472656 A 4 4 0 1 0 604.1624735859376 133.9047720940599" stroke-miterlimit="10" stroke-width="0.5" stroke-dasharray=""/><path fill="white" stroke="#505050" paint-order="fill stroke markers" d=" M 622.3179321289062 124.7718505859375 L 630.3179321289062 124.7718505859375 L 638.3179321289062 132.7718505859375 L 630.3179321289062 140.7718505859375 L 622.3179321289062 140.7718505859375 L 622.3179321289062 124.7718505859375" stroke-miterlimit="10" stroke-width="0.5" stroke-dasharray=""/><path fill="none" stroke="none"/><path fill="none" stroke="#505050" paint-order="fill stroke markers" d=" M 630.3179321289062 132.7718505859375 A 4 4 0 1 0 630.3179301289064 132.77585058527083" stroke-miterlimit="10" stroke-width="0.5" stroke-dasharray=""/><path fill="white" stroke="#505050" paint-order="fill stroke markers" d=" M 537.3734130859375 174.19139099121094 L 561.3734130859375 174.19139099121094 L 561.3734130859375 228.19139099121094 L 537.3734130859375 228.19139099121094 L 537.3734130859375 174.19139099121094 Z" stroke-miterlimit="10" stroke-width="0.5" stroke-dasharray=""/><path fill="#F0F0F0" stroke="none" paint-order="stroke fill markers" d=""/><path fill="none" stroke="none"/><text fill="#505050" stroke="none" font-family="monospace" font-size="14px" font-style="normal" font-weight="normal" text-decoration="normal" x="549.3734130859375" y="192.19139099121094" text-anchor="middle" dominant-baseline="text-after-edge">?</text><path fill="none" stroke="#505050" paint-order="fill stroke markers" d=" M 537.3734130859375 192.19139099121094 L 545.3734130859375 192.19139099121094 L 545.3734130859375 200.19139099121094 L 537.3734130859375 200.19139099121094 L 537.3734130859375 192.19139099121094 Z" stroke-miterlimit="10" stroke-width="0.5" stroke-dasharray=""/><path fill="none" stroke="#505050" paint-order="fill stroke markers" d=" M 545.3734130859375 208.19139099121094 A 4 4 0 1 0 545.3734110859376 208.19539099054427" stroke-miterlimit="10" stroke-width="0.5" stroke-dasharray=""/><path fill="none" stroke="#505050" paint-order="fill stroke markers" d=" M 545.3734130859375 220.19139099121094 A 4 4 0 1 0 545.3734110859376 220.19539099054427" stroke-miterlimit="10" stroke-width="0.5" stroke-dasharray=""/><path fill="none" stroke="#505050" paint-order="fill stroke markers" d=" M 561.3734130859375 196.19139099121094 A 4 4 0 1 0 561.3734110859376 196.19539099054427" stroke-miterlimit="10" stroke-width="0.5" stroke-dasharray=""/><path fill="white" stroke="#505050" paint-order="fill stroke markers" d=" M 363.1077880859375 189.5687255859375 L 395.1077880859375 189.5687255859375 L 395.1077880859375 207.5687255859375 L 363.1077880859375 207.5687255859375 L 363.1077880859375 189.5687255859375 Z" stroke-miterlimit="10" stroke-width="0.5" stroke-dasharray=""/><path fill="#F0F0F0" stroke="none" paint-order="stroke fill markers" d=""/><path fill="none" stroke="none"/><path fill="none" stroke="#505050" paint-order="fill stroke markers" d=" M 387.1077880859375 193.5687255859375 L 395.1077880859375 193.5687255859375 L 395.1077880859375 201.5687255859375 L 387.1077880859375 201.5687255859375 L 387.1077880859375 193.5687255859375 Z" stroke-miterlimit="10" stroke-width="0.5" stroke-dasharray=""/><text fill="#505050" stroke="none" font-family="monospace" font-size="14px" font-style="normal" font-weight="normal" text-decoration="normal" x="379.1077880859375" y="207.5687255859375" text-anchor="end" dominant-baseline="text-after-edge">0</text><path fill="white" stroke="#505050" paint-order="fill stroke markers" d=" M 454.0163879394531 159.4976348876953 L 478.0163879394531 159.4976348876953 L 478.0163879394531 201.4976348876953 L 454.0163879394531 201.4976348876953 L 454.0163879394531 159.4976348876953 Z" stroke-miterlimit="10" stroke-width="0.5" stroke-dasharray=""/><path fill="#F0F0F0" stroke="none" paint-order="stroke fill markers" d=""/><path fill="none" stroke="none"/><text fill="#505050" stroke="none" font-family="monospace" font-size="14px" font-style="normal" font-weight="normal" text-decoration="normal" x="466.0163879394531" y="177.4976348876953" text-anchor="middle" dominant-baseline="text-after-edge">&gt;</text><path fill="none" stroke="#505050" paint-order="fill stroke markers" d=" M 454.0163879394531 177.4976348876953 L 462.0163879394531 177.4976348876953 L 462.0163879394531 185.4976348876953 L 454.0163879394531 185.4976348876953 L 454.0163879394531 177.4976348876953 Z" stroke-miterlimit="10" stroke-width="0.5" stroke-dasharray=""/><path fill="none" stroke="#505050" paint-order="fill stroke markers" d=" M 454.0163879394531 189.4976348876953 L 462.0163879394531 189.4976348876953 L 462.0163879394531 197.4976348876953 L 454.0163879394531 197.4976348876953 L 454.0163879394531 189.4976348876953 Z" stroke-miterlimit="10" stroke-width="0.5" stroke-dasharray=""/><path fill="none" stroke="#505050" paint-order="fill stroke markers" d=" M 470.0163879394531 177.4976348876953 L 478.0163879394531 177.4976348876953 L 478.0163879394531 185.4976348876953 L 470.0163879394531 185.4976348876953 L 470.0163879394531 177.4976348876953 Z" stroke-miterlimit="10" stroke-width="0.5" stroke-dasharray=""/><path fill="white" stroke="#505050" paint-order="fill stroke markers" d=" M 363.2054443359375 116.35545349121094 L 379.2054443359375 116.35545349121094 L 379.2054443359375 132.35545349121094 L 363.2054443359375 132.35545349121094 L 371.2054443359375 124.35545349121094 L 363.2054443359375 116.35545349121094" stroke-miterlimit="10" stroke-width="0.5" stroke-dasharray=""/><path fill="none" stroke="none"/><path fill="none" stroke="#505050" paint-order="fill stroke markers" d=" M 379.2054443359375 124.35545349121094 A 4 4 0 1 0 379.2054423359377 124.35945349054427" stroke-miterlimit="10" stroke-width="0.5" stroke-dasharray=""/><path fill="white" stroke="#505050" paint-order="fill stroke markers" d=" M 451.5335693359375 102.45310974121094 L 475.5335693359375 102.45310974121094 L 475.5335693359375 144.45310974121094 L 451.5335693359375 144.45310974121094 L 451.5335693359375 102.45310974121094 Z" stroke-miterlimit="10" stroke-width="0.5" stroke-dasharray=""/><path fill="#F0F0F0" stroke="none" paint-order="stroke fill markers" d=""/><path fill="none" stroke="none"/><text fill="#505050" stroke="none" font-family="monospace" font-size="14px" font-style="normal" font-weight="normal" text-decoration="normal" x="463.5335693359375" y="120.45310974121094" text-anchor="middle" dominant-baseline="text-after-edge">&lt;</text><path fill="none" stroke="#505050" paint-order="fill stroke markers" d=" M 451.5335693359375 120.45310974121094 L 459.5335693359375 120.45310974121094 L 459.5335693359375 128.45310974121094 L 451.5335693359375 128.45310974121094 L 451.5335693359375 120.45310974121094 Z" stroke-miterlimit="10" stroke-width="0.5" stroke-dasharray=""/><path fill="none" stroke="#505050" paint-order="fill stroke markers" d=" M 451.5335693359375 132.45310974121094 L 459.5335693359375 132.45310974121094 L 459.5335693359375 140.45310974121094 L 451.5335693359375 140.45310974121094 L 451.5335693359375 132.45310974121094 Z" stroke-miterlimit="10" stroke-width="0.5" stroke-dasharray=""/><path fill="none" stroke="#505050" paint-order="fill stroke markers" d=" M 467.5335693359375 120.45310974121094 L 475.5335693359375 120.45310974121094 L 475.5335693359375 128.45310974121094 L 467.5335693359375 128.45310974121094 L 467.5335693359375 120.45310974121094 Z" stroke-miterlimit="10" stroke-width="0.5" stroke-dasharray=""/><path fill="white" stroke="#505050" paint-order="fill stroke markers" d=" M 479.4718322753906 222.4515380859375 L 511.4718322753906 222.4515380859375 L 511.4718322753906 240.4515380859375 L 479.4718322753906 240.4515380859375 L 479.4718322753906 222.4515380859375 Z" stroke-miterlimit="10" stroke-width="0.5" stroke-dasharray=""/><path fill="#F0F0F0" stroke="none" paint-order="stroke fill markers" d=""/><path fill="none" stroke="none"/><path fill="none" stroke="#505050" paint-order="fill stroke markers" d=" M 503.4718322753906 226.4515380859375 L 511.4718322753906 226.4515380859375 L 511.4718322753906 234.4515380859375 L 503.4718322753906 234.4515380859375 L 503.4718322753906 226.4515380859375 Z" stroke-miterlimit="10" stroke-width="0.5" stroke-dasharray=""/><text fill="#505050" stroke="none" font-family="monospace" font-size="14px" font-style="normal" font-weight="normal" text-decoration="normal" x="495.4718322753906" y="240.4515380859375" text-anchor="end" dominant-baseline="text-after-edge">1</text><path fill="white" stroke="#505050" paint-order="fill stroke markers" d=" M 495.5101318359375 142.58201599121094 L 536.5101318359375 142.58201599121094 L 536.5101318359375 160.58201599121094 L 495.5101318359375 160.58201599121094 L 495.5101318359375 142.58201599121094 Z" stroke-miterlimit="10" stroke-width="0.5" stroke-dasharray=""/><path fill="#F0F0F0" stroke="none" paint-order="stroke fill markers" d=""/><path fill="none" stroke="none"/><path fill="none" stroke="#505050" paint-order="fill stroke markers" d=" M 528.5101318359375 146.58201599121094 L 536.5101318359375 146.58201599121094 L 536.5101318359375 154.58201599121094 L 528.5101318359375 154.58201599121094 L 528.5101318359375 146.58201599121094 Z" stroke-miterlimit="10" stroke-width="0.5" stroke-dasharray=""/><text fill="#505050" stroke="none" font-family="monospace" font-size="14px" font-style="normal" font-weight="normal" text-decoration="normal" x="520.5101318359375" y="160.58201599121094" text-anchor="end" dominant-baseline="text-after-edge">-1</text><path fill="none" stroke="#505050" paint-order="fill stroke markers" d=" M 379.2054443359375 124.35545349121094 C 400.90390161400893 124.35545349121094 429.83511205786607 124.45310974121094 451.5335693359375 124.45310974121094" stroke-miterlimit="10" stroke-dasharray=""/><path fill="none" stroke="#505050" paint-order="fill stroke markers" d=" M 379.2054443359375 124.35545349121094 C 407.4467537245572 124.35545349121094 425.7750785508334 181.4976348876953 454.0163879394531 181.4976348876953" stroke-miterlimit="10" stroke-dasharray=""/><path fill="none" stroke="#505050" paint-order="fill stroke markers" d=" M 395.1077880859375 197.5687255859375 C 412.8225198777469 197.5687255859375 436.3016561476437 193.4976348876953 454.0163879394531 193.4976348876953" stroke-miterlimit="10" stroke-dasharray=""/><path fill="none" stroke="#505050" paint-order="fill stroke markers" d=" M 395.1077880859375 197.5687255859375 C 420.0619231356196 197.5687255859375 426.5794342862554 136.45310974121094 451.5335693359375 136.45310974121094" stroke-miterlimit="10" stroke-dasharray=""/><path fill="none" stroke="#505050" paint-order="fill stroke markers" d=" M 395.1077880859375 197.5687255859375 C 438.3237154067895 197.5687255859375 494.1574857650855 220.19139099121094 537.3734130859375 220.19139099121094" stroke-miterlimit="10" stroke-dasharray=""/><path fill="none" stroke="#505050" paint-order="fill stroke markers" d=" M 511.4718322753906 230.4515380859375 C 521.7176384098426 230.4515380859375 527.1276069514855 208.19139099121094 537.3734130859375 208.19139099121094" stroke-miterlimit="10" stroke-dasharray=""/><path fill="none" stroke="#505050" paint-order="fill stroke markers" d=" M 478.0163879394531 181.4976348876953 C 496.36099644550467 181.4976348876953 519.028804579886 196.19139099121094 537.3734130859375 196.19139099121094" stroke-miterlimit="10" stroke-dasharray=""/><path fill="none" stroke="#505050" paint-order="fill stroke markers" d=" M 604.1624755859375 133.90077209472656 C 609.6196319832837 133.90077209472656 616.86077573156 132.7718505859375 622.3179321289062 132.7718505859375" stroke-miterlimit="10" stroke-dasharray=""/><path fill="none" stroke="#505050" paint-order="fill stroke markers" d=" M 561.3734130859375 196.19139099121094 C 574.1690386220113 196.19139099121094 567.3668500498637 157.90077209472656 580.1624755859375 157.90077209472656" stroke-miterlimit="10" stroke-dasharray=""/><path fill="none" stroke="#505050" paint-order="fill stroke markers" d=" M 536.5101318359375 150.58201599121094 C 549.6809216503635 150.58201599121094 566.9916857715115 145.90077209472656 580.1624755859375 145.90077209472656" stroke-miterlimit="10" stroke-dasharray=""/><path fill="none" stroke="#505050" paint-order="fill stroke markers" d=" M 475.5335693359375 124.45310974121094 C 507.04994557483207 124.45310974121094 548.6460993470429 133.90077209472656 580.1624755859375 133.90077209472656" stroke-miterlimit="10" stroke-dasharray=""/></g></g></svg>