<svg version="1.1" xmlns="http://www.w3.org/2000/svg" xmlns:xlink="http://www.w3.org/1999/xlink" width="409.2336130142212" height="288.2528381347656"><defs/><g transform="translate(-354.9978656768799,-49.8607964515686)"><g><path fill="white" stroke="#505050" paint-order="fill stroke markers" d=" M 363.75929260253906 243.69388055801392 L 363.75929260253906 329.11363458633423 Q 363.75929260253906 337.11363458633423 371.75929260253906 337.11363458633423 L 461.7919464111328 337.11363458633423 Q 469.7919464111328 337.11363458633423 469.7919464111328 329.11363458633423 L 469.7919464111328 243.69388055801392 Q 469.7919464111328 235.69388055801392 461.7919464111328 235.69388055801392 L 371.75929260253906 235.69388055801392 Q 363.75929260253906 235.69388055801392 363.75929260253906 243.69388055801392" stroke-miterlimit="10" stroke-width="0.5" stroke-dasharray=""/><path fill="#F0F0F0" stroke="#505050" paint-order="fill stroke markers" d=" M 445.7919464111328 243.69388055801392 L 469.7919464111328 243.69388055801392 L 469.7919464111328 321.6938805580139 L 445.7919464111328 321.6938805580139 L 445.7919464111328 243.69388055801392 Z" stroke-miterlimit="10" stroke-width="0.5" stroke-dasharray=""/><text fill="#505050" stroke="none" font-family="monospace" font-size="14px" font-style="normal" font-weight="normal" text-decoration="normal" x="457.7919464111328" y="261.6938805580139" text-anchor="middle" dominant-baseline="text-after-edge">?</text><path fill="none" stroke="#505050" paint-order="fill stroke markers" d=" M 445.7919464111328 261.6938805580139 L 453.7919464111328 261.6938805580139 L 453.7919464111328 269.6938805580139 L 445.7919464111328 269.6938805580139 L 445.7919464111328 261.6938805580139 Z" stroke-miterlimit="10" stroke-width="0.5" stroke-dasharray=""/><path fill="none" stroke="#505050" paint-order="fill stroke markers" d=" M 445.7919464111328 273.6938805580139 L 453.7919464111328 273.6938805580139 L 453.7919464111328 281.6938805580139 L 445.7919464111328 281.6938805580139 L 445.7919464111328 273.6938805580139 Z" stroke-miterlimit="10" stroke-width="0.5" stroke-dasharray=""/><path fill="none" stroke="#505050" paint-order="fill stroke markers" d=" M 445.7919464111328 285.6938805580139 L 453.7919464111328 285.6938805580139 L 453.7919464111328 293.6938805580139 L 445.7919464111328 293.6938805580139 L 445.7919464111328 285.6938805580139 Z" stroke-miterlimit="10" stroke-width="0.5" stroke-dasharray=""/><path fill="none" stroke="#505050" paint-order="fill stroke markers" d=" M 445.7919464111328 297.6938805580139 L 453.7919464111328 297.6938805580139 L 453.7919464111328 305.6938805580139 L 445.7919464111328 305.6938805580139 L 445.7919464111328 297.6938805580139 Z" stroke-miterlimit="10" stroke-width="0.5" stroke-dasharray=""/><path fill="none" stroke="#505050" paint-order="fill stroke markers" d=" M 445.7919464111328 309.6938805580139 L 453.7919464111328 309.6938805580139 L 453.7919464111328 317.6938805580139 L 445.7919464111328 317.6938805580139 L 445.7919464111328 309.6938805580139 Z" stroke-miterlimit="10" stroke-width="0.5" stroke-dasharray=""/><path fill="none" stroke="#505050" paint-order="fill stroke markers" d=" M 461.7919464111328 261.6938805580139 L 469.7919464111328 261.6938805580139 L 469.7919464111328 269.6938805580139 L 461.7919464111328 269.6938805580139 L 461.7919464111328 261.6938805580139 Z" stroke-miterlimit="10" stroke-width="0.5" stroke-dasharray=""/><path fill="white" stroke="#505050" paint-order="fill stroke markers" d=" M 371.75929260253906 267.11363458633423 L 395.75929260253906 267.11363458633423 L 395.75929260253906 321.11363458633423 L 371.75929260253906 321.11363458633423 L 371.75929260253906 267.11363458633423 Z" stroke-miterlimit="10" stroke-width="0.5" stroke-dasharray=""/><path fill="#F0F0F0" stroke="none" paint-order="stroke fill markers" d=""/><text fill="#505050" stroke="none" font-family="monospace" font-size="14px" font-style="normal" font-weight="normal" text-decoration="normal" x="383.75929260253906" y="285.11363458633423" text-anchor="middle" dominant-baseline="text-after-edge">?</text><path fill="none" stroke="#505050" paint-order="fill stroke markers" d=" M 371.75929260253906 285.11363458633423 L 379.75929260253906 285.11363458633423 L 379.75929260253906 293.11363458633423 L 371.75929260253906 293.11363458633423 L 371.75929260253906 285.11363458633423 Z" stroke-miterlimit="10" stroke-width="0.5" stroke-dasharray=""/><path fill="none" stroke="#505050" paint-order="fill stroke markers" d=" M 371.75929260253906 297.11363458633423 L 379.75929260253906 297.11363458633423 L 379.75929260253906 305.11363458633423 L 371.75929260253906 305.11363458633423 L 371.75929260253906 297.11363458633423 Z" stroke-miterlimit="10" stroke-width="0.5" stroke-dasharray=""/><path fill="none" stroke="#505050" paint-order="fill stroke markers" d=" M 371.75929260253906 309.11363458633423 L 379.75929260253906 309.11363458633423 L 379.75929260253906 317.11363458633423 L 371.75929260253906 317.11363458633423 L 371.75929260253906 309.11363458633423 Z" stroke-miterlimit="10" stroke-width="0.5" stroke-dasharray=""/><path fill="none" stroke="#505050" paint-order="fill stroke markers" d=" M 387.75929260253906 285.11363458633423 L 395.75929260253906 285.11363458633423 L 395.75929260253906 293.11363458633423 L 387.75929260253906 293.11363458633423 L 387.75929260253906 285.11363458633423 Z" stroke-miterlimit="10" stroke-width="0.5" stroke-dasharray=""/><path fill="white" stroke="#505050" paint-order="fill stroke markers" d=" M 405.36366271972656 243.69388055801392 L 429.36366271972656 243.69388055801392 L 429.36366271972656 297.6938805580139 L 405.36366271972656 297.6938805580139 L 405.36366271972656 243.69388055801392 Z" stroke-miterlimit="10" stroke-width="0.5" stroke-dasharray=""/><path fill="#F0F0F0" stroke="none" paint-order="stroke fill markers" d=""/><text fill="#505050" stroke="none" font-family="monospace" font-size="14px" font-style="normal" font-weight="normal" text-decoration="normal" x="417.36366271972656" y="261.6938805580139" text-anchor="middle" dominant-baseline="text-after-edge">?</text><path fill="none" stroke="#505050" paint-order="fill stroke markers" d=" M 405.36366271972656 261.6938805580139 L 413.36366271972656 261.6938805580139 L 413.36366271972656 269.6938805580139 L 405.36366271972656 269.6938805580139 L 405.36366271972656 261.6938805580139 Z" stroke-miterlimit="10" stroke-width="0.5" stroke-dasharray=""/><path fill="none" stroke="#505050" paint-order="fill stroke markers" d=" M 405.36366271972656 273.6938805580139 L 413.36366271972656 273.6938805580139 L 413.36366271972656 281.6938805580139 L 405.36366271972656 281.6938805580139 L 405.36366271972656 273.6938805580139 Z" stroke-miterlimit="10" stroke-width="0.5" stroke-dasharray=""/><path fill="none" stroke="#505050" paint-order="fill stroke markers" d=" M 405.36366271972656 285.6938805580139 L 413.36366271972656 285.6938805580139 L 413.36366271972656 293.6938805580139 L 405.36366271972656 293.6938805580139 L 405.36366271972656 285.6938805580139 Z" stroke-miterlimit="10" stroke-width="0.5" stroke-dasharray=""/><path fill="none" stroke="#505050" paint-order="fill stroke markers" d=" M 421.36366271972656 261.6938805580139 L 429.36366271972656 261.6938805580139 L 429.36366271972656 269.6938805580139 L 421.36366271972656 269.6938805580139 L 421.36366271972656 261.6938805580139 Z" stroke-miterlimit="10" stroke-width="0.5" stroke-dasharray=""/><path fill="white" stroke="#505050" paint-order="fill stroke markers" d=" M 355.9978656768799 58.8607964515686 L 355.9978656768799 110.75923013687134 Q 355.9978656768799 118.75923013687134 363.9978656768799 118.75923013687134 L 461.5475540161133 118.75923013687134 Q 469.5475540161133 118.75923013687134 469.5475540161133 110.75923013687134 L 469.5475540161133 58.8607964515686 Q 469.5475540161133 50.8607964515686 461.5475540161133 50.8607964515686 L 363.9978656768799 50.8607964515686 Q 355.9978656768799 50.8607964515686 355.9978656768799 58.8607964515686" stroke-miterlimit="10" stroke-width="0.5" stroke-dasharray=""/><path fill="#F0F0F0" stroke="#505050" paint-order="fill stroke markers" d=" M 444.5475540161133 58.8607964515686 L 469.5475540161133 58.8607964515686 L 469.5475540161133 88.8607964515686 L 444.5475540161133 88.8607964515686 L 444.5475540161133 58.8607964515686 Z" stroke-miterlimit="10" stroke-width="0.5" stroke-dasharray=""/><text fill="#505050" stroke="none" font-family="monospace" font-size="14px" font-style="normal" font-weight="normal" text-decoration="normal" x="457.0475540161133" y="76.8607964515686" text-anchor="middle" dominant-baseline="text-after-edge">&lt;0</text><path fill="none" stroke="#505050" paint-order="fill stroke markers" d=" M 444.5475540161133 76.8607964515686 L 452.5475540161133 76.8607964515686 L 452.5475540161133 84.8607964515686 L 444.5475540161133 84.8607964515686 L 444.5475540161133 76.8607964515686 Z" stroke-miterlimit="10" stroke-width="0.5" stroke-dasharray=""/><path fill="none" stroke="#505050" paint-order="fill stroke markers" d=" M 461.5475540161133 76.8607964515686 L 469.5475540161133 76.8607964515686 L 469.5475540161133 84.8607964515686 L 461.5475540161133 84.8607964515686 L 461.5475540161133 76.8607964515686 Z" stroke-miterlimit="10" stroke-width="0.5" stroke-dasharray=""/><path fill="white" stroke="#505050" paint-order="fill stroke markers" d=" M 409.3522415161133 58.8607964515686 L 433.3522415161133 58.8607964515686 L 433.3522415161133 100.8607964515686 L 409.3522415161133 100.8607964515686 L 409.3522415161133 58.8607964515686 Z" stroke-miterlimit="10" stroke-width="0.5" stroke-dasharray=""/><path fill="#F0F0F0" stroke="none" paint-order="stroke fill markers" d=""/><text fill="#505050" stroke="none" font-family="monospace" font-size="14px" font-style="normal" font-weight="normal" text-decoration="normal" x="421.3522415161133" y="76.8607964515686" text-anchor="middle" dominant-baseline="text-after-edge">&lt;</text><path fill="none" stroke="#505050" paint-order="fill stroke markers" d=" M 409.3522415161133 76.8607964515686 L 417.3522415161133 76.8607964515686 L 417.3522415161133 84.8607964515686 L 409.3522415161133 84.8607964515686 L 409.3522415161133 76.8607964515686 Z" stroke-miterlimit="10" stroke-width="0.5" stroke-dasharray=""/><path fill="none" stroke="#505050" paint-order="fill stroke markers" d=" M 409.3522415161133 88.8607964515686 L 417.3522415161133 88.8607964515686 L 417.3522415161133 96.8607964515686 L 409.3522415161133 96.8607964515686 L 409.3522415161133 88.8607964515686 Z" stroke-miterlimit="10" stroke-width="0.5" stroke-dasharray=""/><path fill="none" stroke="#505050" paint-order="fill stroke markers" d=" M 425.3522415161133 76.8607964515686 L 433.3522415161133 76.8607964515686 L 433.3522415161133 84.8607964515686 L 425.3522415161133 84.8607964515686 L 425.3522415161133 76.8607964515686 Z" stroke-miterlimit="10" stroke-width="0.5" stroke-dasharray=""/><path fill="white" stroke="#505050" paint-order="fill stroke markers" d=" M 363.9978656768799 84.75923013687134 L 395.9978656768799 84.75923013687134 L 395.9978656768799 102.75923013687134 L 363.9978656768799 102.75923013687134 L 363.9978656768799 84.75923013687134 Z" stroke-miterlimit="10" stroke-width="0.5" stroke-dasharray=""/><path fill="#F0F0F0" stroke="none" paint-order="stroke fill markers" d=""/><path fill="none" stroke="#505050" paint-order="fill stroke markers" d=" M 387.9978656768799 88.75923013687134 L 395.9978656768799 88.75923013687134 L 395.9978656768799 96.75923013687134 L 387.9978656768799 96.75923013687134 L 387.9978656768799 88.75923013687134 Z" stroke-miterlimit="10" stroke-width="0.5" stroke-dasharray=""/><text fill="#505050" stroke="none" font-family="monospace" font-size="14px" font-style="normal" font-weight="normal" text-decoration="normal" x="379.9978656768799" y="102.75923013687134" text-anchor="end" dominant-baseline="text-after-edge">0</text><path fill="white" stroke="#505050" paint-order="fill stroke markers" d=" M 366.1505756378174 150.99148035049438 L 366.1505756378174 202.88991403579712 Q 366.1505756378174 210.88991403579712 374.1505756378174 210.88991403579712 L 471.7002639770508 210.88991403579712 Q 479.7002639770508 210.88991403579712 479.7002639770508 202.88991403579712 L 479.7002639770508 150.99148035049438 Q 479.7002639770508 142.99148035049438 471.7002639770508 142.99148035049438 L 374.1505756378174 142.99148035049438 Q 366.1505756378174 142.99148035049438 366.1505756378174 150.99148035049438" stroke-miterlimit="10" stroke-width="0.5" stroke-dasharray=""/><path fill="#F0F0F0" stroke="#505050" paint-order="fill stroke markers" d=" M 454.7002639770508 150.99148035049438 L 479.7002639770508 150.99148035049438 L 479.7002639770508 180.99148035049438 L 454.7002639770508 180.99148035049438 L 454.7002639770508 150.99148035049438 Z" stroke-miterlimit="10" stroke-width="0.5" stroke-dasharray=""/><text fill="#505050" stroke="none" font-family="monospace" font-size="14px" font-style="normal" font-weight="normal" text-decoration="normal" x="467.2002639770508" y="168.99148035049438" text-anchor="middle" dominant-baseline="text-after-edge">&gt;0</text><path fill="none" stroke="#505050" paint-order="fill stroke markers" d=" M 454.7002639770508 168.99148035049438 L 462.7002639770508 168.99148035049438 L 462.7002639770508 176.99148035049438 L 454.7002639770508 176.99148035049438 L 454.7002639770508 168.99148035049438 Z" stroke-miterlimit="10" stroke-width="0.5" stroke-dasharray=""/><path fill="none" stroke="#505050" paint-order="fill stroke markers" d=" M 471.7002639770508 168.99148035049438 L 479.7002639770508 168.99148035049438 L 479.7002639770508 176.99148035049438 L 471.7002639770508 176.99148035049438 L 471.7002639770508 168.99148035049438 Z" stroke-miterlimit="10" stroke-width="0.5" stroke-dasharray=""/><path fill="white" stroke="#505050" paint-order="fill stroke markers" d=" M 374.1505756378174 176.88991403579712 L 406.1505756378174 176.88991403579712 L 406.1505756378174 194.88991403579712 L 374.1505756378174 194.88991403579712 L 374.1505756378174 176.88991403579712 Z" stroke-miterlimit="10" stroke-width="0.5" stroke-dasharray=""/><path fill="#F0F0F0" stroke="none" paint-order="stroke fill markers" d=""/><path fill="none" stroke="#505050" paint-order="fill stroke markers" d=" M 398.1505756378174 180.88991403579712 L 406.1505756378174 180.88991403579712 L 406.1505756378174 188.88991403579712 L 398.1505756378174 188.88991403579712 L 398.1505756378174 180.88991403579712 Z" stroke-miterlimit="10" stroke-width="0.5" stroke-dasharray=""/><text fill="#505050" stroke="none" font-family="monospace" font-size="14px" font-style="normal" font-weight="normal" text-decoration="normal" x="390.1505756378174" y="194.88991403579712" text-anchor="end" dominant-baseline="text-after-edge">0</text><path fill="white" stroke="#505050" paint-order="fill stroke markers" d=" M 419.5049514770508 150.99148035049438 L 443.5049514770508 150.99148035049438 L 443.5049514770508 192.99148035049438 L 419.5049514770508 192.99148035049438 L 419.5049514770508 150.99148035049438 Z" stroke-miterlimit="10" stroke-width="0.5" stroke-dasharray=""/><path fill="#F0F0F0" stroke="none" paint-order="stroke fill markers" d=""/><text fill="#505050" stroke="none" font-family="monospace" font-size="14px" font-style="normal" font-weight="normal" text-decoration="normal" x="431.5049514770508" y="168.99148035049438" text-anchor="middle" dominant-baseline="text-after-edge">&gt;</text><path fill="none" stroke="#505050" paint-order="fill stroke markers" d=" M 419.5049514770508 168.99148035049438 L 427.5049514770508 168.99148035049438 L 427.5049514770508 176.99148035049438 L 419.5049514770508 176.99148035049438 L 419.5049514770508 168.99148035049438 Z" stroke-miterlimit="10" stroke-width="0.5" stroke-dasharray=""/><path fill="none" stroke="#505050" paint-order="fill stroke markers" d=" M 419.5049514770508 180.99148035049438 L 427.5049514770508 180.99148035049438 L 427.5049514770508 188.99148035049438 L 419.5049514770508 188.99148035049438 L 419.5049514770508 180.99148035049438 Z" stroke-miterlimit="10" stroke-width="0.5" stroke-dasharray=""/><path fill="none" stroke="#505050" paint-order="fill stroke markers" d=" M 435.5049514770508 168.99148035049438 L 443.5049514770508 168.99148035049438 L 443.5049514770508 176.99148035049438 L 435.5049514770508 176.99148035049438 L 435.5049514770508 168.99148035049438 Z" stroke-miterlimit="10" stroke-width="0.5" stroke-dasharray=""/><path fill="white" stroke="#505050" paint-order="fill stroke markers" d=" M 541.8785133361816 125.73862218856812 L 541.8785133361816 249.48081064224243 Q 541.8785133361816 257.48081064224243 549.8785133361816 257.48081064224243 L 755.2314786911011 257.48081064224243 Q 763.2314786911011 257.48081064224243 763.2314786911011 249.48081064224243 L 763.2314786911011 125.73862218856812 Q 763.2314786911011 117.73862218856812 755.2314786911011 117.73862218856812 L 549.8785133361816 117.73862218856812 Q 541.8785133361816 117.73862218856812 541.8785133361816 125.73862218856812" stroke-miterlimit="10" stroke-width="0.5" stroke-dasharray=""/><path fill="#F0F0F0" stroke="#505050" paint-order="fill stroke markers" d=" M 704.2314786911011 125.73862218856812 L 763.2314786911011 125.73862218856812 L 763.2314786911011 155.73862218856812 L 704.2314786911011 155.73862218856812 L 704.2314786911011 125.73862218856812 Z" stroke-miterlimit="10" stroke-width="0.5" stroke-dasharray=""/><text fill="#505050" stroke="none" font-family="monospace" font-size="14px" font-style="normal" font-weight="normal" text-decoration="normal" x="733.7314786911011" y="143.73862218856812" text-anchor="middle" dominant-baseline="text-after-edge">signum</text><path fill="none" stroke="#505050" paint-order="fill stroke markers" d=" M 704.2314786911011 143.73862218856812 L 712.2314786911011 143.73862218856812 L 712.2314786911011 151.73862218856812 L 704.2314786911011 151.73862218856812 L 704.2314786911011 143.73862218856812 Z" stroke-miterlimit="10" stroke-width="0.5" stroke-dasharray=""/><path fill="none" stroke="#505050" paint-order="fill stroke markers" d=" M 755.2314786911011 143.73862218856812 L 763.2314786911011 143.73862218856812 L 763.2314786911011 151.73862218856812 L 755.2314786911011 151.73862218856812 L 755.2314786911011 143.73862218856812 Z" stroke-miterlimit="10" stroke-width="0.5" stroke-dasharray=""/><path fill="white" stroke="#505050" paint-order="fill stroke markers" d=" M 675.0780973434448 133.9474310874939 L 699.0780973434448 133.9474310874939 L 699.0780973434448 211.9474310874939 L 675.0780973434448 211.9474310874939 L 675.0780973434448 133.9474310874939 Z" stroke-miterlimit="10" stroke-width="0.5" stroke-dasharray=""/><path fill="#F0F0F0" stroke="none" paint-order="stroke fill markers" d=""/><text fill="#505050" stroke="none" font-family="monospace" font-size="14px" font-style="normal" font-weight="normal" text-decoration="normal" x="687.0780973434448" y="151.9474310874939" text-anchor="middle" dominant-baseline="text-after-edge">?</text><path fill="none" stroke="#505050" paint-order="fill stroke markers" d=" M 675.0780973434448 151.9474310874939 L 683.0780973434448 151.9474310874939 L 683.0780973434448 159.9474310874939 L 675.0780973434448 159.9474310874939 L 675.0780973434448 151.9474310874939 Z" stroke-miterlimit="10" stroke-width="0.5" stroke-dasharray=""/><path fill="none" stroke="#505050" paint-order="fill stroke markers" d=" M 675.0780973434448 163.9474310874939 L 683.0780973434448 163.9474310874939 L 683.0780973434448 171.9474310874939 L 675.0780973434448 171.9474310874939 L 675.0780973434448 163.9474310874939 Z" stroke-miterlimit="10" stroke-width="0.5" stroke-dasharray=""/><path fill="none" stroke="#505050" paint-order="fill stroke markers" d=" M 675.0780973434448 175.9474310874939 L 683.0780973434448 175.9474310874939 L 683.0780973434448 183.9474310874939 L 675.0780973434448 183.9474310874939 L 675.0780973434448 175.9474310874939 Z" stroke-miterlimit="10" stroke-width="0.5" stroke-dasharray=""/><path fill="none" stroke="#505050" paint-order="fill stroke markers" d=" M 675.0780973434448 187.9474310874939 L 683.0780973434448 187.9474310874939 L 683.0780973434448 195.9474310874939 L 675.0780973434448 195.9474310874939 L 675.0780973434448 187.9474310874939 Z" stroke-miterlimit="10" stroke-width="0.5" stroke-dasharray=""/><path fill="none" stroke="#505050" paint-order="fill stroke markers" d=" M 675.0780973434448 199.9474310874939 L 683.0780973434448 199.9474310874939 L 683.0780973434448 207.9474310874939 L 675.0780973434448 207.9474310874939 L 675.0780973434448 199.9474310874939 Z" stroke-miterlimit="10" stroke-width="0.5" stroke-dasharray=""/><path fill="none" stroke="#505050" paint-order="fill stroke markers" d=" M 691.0780973434448 151.9474310874939 L 699.0780973434448 151.9474310874939 L 699.0780973434448 159.9474310874939 L 691.0780973434448 159.9474310874939 L 691.0780973434448 151.9474310874939 Z" stroke-miterlimit="10" stroke-width="0.5" stroke-dasharray=""/><path fill="#e0e0e0" stroke="none" paint-order="stroke fill markers" d=" M 477.7919464111328 282.6938805580139 L 469.7919464111328 243.69388055801392 L 469.7919464111328 321.6938805580139 Z M 667.0780973434448 172.9474310874939 L 675.0780973434448 133.9474310874939 L 675.0780973434448 211.9474310874939 Z"/><path fill="none" stroke="none"/><path fill="none" stroke="#e0e0e0" paint-order="fill stroke markers" d=" M 477.7919464111328 282.6938805580139 C 543.4320081840622 282.6938805580139 601.4380355705155 172.9474310874939 667.0780973434448 172.9474310874939" stroke-miterlimit="10" stroke-width="2" stroke-dasharray=""/><path fill="white" stroke="#505050" paint-order="fill stroke markers" d=" M 618.340913772583 223.48081064224243 L 650.340913772583 223.48081064224243 L 650.340913772583 241.48081064224243 L 618.340913772583 241.48081064224243 L 618.340913772583 223.48081064224243 Z" stroke-miterlimit="10" stroke-width="0.5" stroke-dasharray=""/><path fill="#F0F0F0" stroke="none" paint-order="stroke fill markers" d=""/><path fill="none" stroke="#505050" paint-order="fill stroke markers" d=" M 642.340913772583 227.48081064224243 L 650.340913772583 227.48081064224243 L 650.340913772583 235.48081064224243 L 642.340913772583 235.48081064224243 L 642.340913772583 227.48081064224243 Z" stroke-miterlimit="10" stroke-width="0.5" stroke-dasharray=""/><text fill="#505050" stroke="none" font-family="monospace" font-size="14px" font-style="normal" font-weight="normal" text-decoration="normal" x="634.340913772583" y="241.48081064224243" text-anchor="end" dominant-baseline="text-after-edge">0</text><path fill="white" stroke="#505050" paint-order="fill stroke markers" d=" M 618.5610675811768 200.40907907485962 L 650.5610675811768 200.40907907485962 L 650.5610675811768 218.40907907485962 L 618.5610675811768 218.40907907485962 L 618.5610675811768 200.40907907485962 Z" stroke-miterlimit="10" stroke-width="0.5" stroke-dasharray=""/><path fill="#F0F0F0" stroke="none" paint-order="stroke fill markers" d=""/><path fill="none" stroke="#505050" paint-order="fill stroke markers" d=" M 642.5610675811768 204.40907907485962 L 650.5610675811768 204.40907907485962 L 650.5610675811768 212.40907907485962 L 642.5610675811768 212.40907907485962 L 642.5610675811768 204.40907907485962 Z" stroke-miterlimit="10" stroke-width="0.5" stroke-dasharray=""/><text fill="#505050" stroke="none" font-family="monospace" font-size="14px" font-style="normal" font-weight="normal" text-decoration="normal" x="634.5610675811768" y="218.40907907485962" text-anchor="end" dominant-baseline="text-after-edge">1</text><path fill="white" stroke="#505050" paint-order="fill stroke markers" d=" M 585.3906583786011 170.2591986656189 L 610.3906583786011 170.2591986656189 L 610.3906583786011 200.2591986656189 L 585.3906583786011 200.2591986656189 L 585.3906583786011 170.2591986656189 Z" stroke-miterlimit="10" stroke-width="0.5" stroke-dasharray=""/><path fill="#F0F0F0" stroke="none" paint-order="stroke fill markers" d=""/><text fill="#505050" stroke="none" font-family="monospace" font-size="14px" font-style="normal" font-weight="normal" text-decoration="normal" x="597.8906583786011" y="188.2591986656189" text-anchor="middle" dominant-baseline="text-after-edge">&gt;0</text><path fill="none" stroke="#505050" paint-order="fill stroke markers" d=" M 585.3906583786011 188.2591986656189 L 593.3906583786011 188.2591986656189 L 593.3906583786011 196.2591986656189 L 585.3906583786011 196.2591986656189 L 585.3906583786011 188.2591986656189 Z" stroke-miterlimit="10" stroke-width="0.5" stroke-dasharray=""/><path fill="none" stroke="#505050" paint-order="fill stroke markers" d=" M 602.3906583786011 188.2591986656189 L 610.3906583786011 188.2591986656189 L 610.3906583786011 196.2591986656189 L 602.3906583786011 196.2591986656189 L 602.3906583786011 188.2591986656189 Z" stroke-miterlimit="10" stroke-width="0.5" stroke-dasharray=""/><path fill="#e0e0e0" stroke="none" paint-order="stroke fill markers" d=" M 487.7002639770508 165.99148035049438 L 479.7002639770508 150.99148035049438 L 479.7002639770508 180.99148035049438 Z M 577.3906583786011 185.2591986656189 L 585.3906583786011 170.2591986656189 L 585.3906583786011 200.2591986656189 Z"/><path fill="none" stroke="none"/><path fill="none" stroke="#e0e0e0" paint-order="fill stroke markers" d=" M 487.7002639770508 165.99148035049438 C 515.2212571191577 165.99148035049438 549.8696652364941 185.2591986656189 577.3906583786011 185.2591986656189" stroke-miterlimit="10" stroke-width="2" stroke-dasharray=""/><path fill="white" stroke="#505050" paint-order="fill stroke markers" d=" M 550.0099220275879 154.00851488113403 L 566.0099220275879 154.00851488113403 L 566.0099220275879 170.00851488113403 L 550.0099220275879 170.00851488113403 L 558.0099220275879 162.00851488113403 L 550.0099220275879 154.00851488113403" stroke-miterlimit="10" stroke-width="0.5" stroke-dasharray=""/><path fill="none" stroke="#505050" paint-order="fill stroke markers" d=" M 558.0099220275879 158.00851488113403 L 566.0099220275879 158.00851488113403 L 566.0099220275879 166.00851488113403 L 558.0099220275879 166.00851488113403 L 558.0099220275879 158.00851488113403 Z" stroke-miterlimit="10" stroke-width="0.5" stroke-dasharray=""/><path fill="white" stroke="#505050" paint-order="fill stroke markers" d=" M 588.7997159957886 121.28903722763062 L 613.7997159957886 121.28903722763062 L 613.7997159957886 151.28903722763062 L 588.7997159957886 151.28903722763062 L 588.7997159957886 121.28903722763062 Z" stroke-miterlimit="10" stroke-width="0.5" stroke-dasharray=""/><path fill="#F0F0F0" stroke="none" paint-order="stroke fill markers" d=""/><text fill="#505050" stroke="none" font-family="monospace" font-size="14px" font-style="normal" font-weight="normal" text-decoration="normal" x="601.2997159957886" y="139.28903722763062" text-anchor="middle" dominant-baseline="text-after-edge">&lt;0</text><path fill="none" stroke="#505050" paint-order="fill stroke markers" d=" M 588.7997159957886 139.28903722763062 L 596.7997159957886 139.28903722763062 L 596.7997159957886 147.28903722763062 L 588.7997159957886 147.28903722763062 L 588.7997159957886 139.28903722763062 Z" stroke-miterlimit="10" stroke-width="0.5" stroke-dasharray=""/><path fill="none" stroke="#505050" paint-order="fill stroke markers" d=" M 605.7997159957886 139.28903722763062 L 613.7997159957886 139.28903722763062 L 613.7997159957886 147.28903722763062 L 605.7997159957886 147.28903722763062 L 605.7997159957886 139.28903722763062 Z" stroke-miterlimit="10" stroke-width="0.5" stroke-dasharray=""/><path fill="#e0e0e0" stroke="none" paint-order="stroke fill markers" d=" M 477.5475540161133 73.8607964515686 L 469.5475540161133 58.8607964515686 L 469.5475540161133 88.8607964515686 Z M 580.7997159957886 136.28903722763062 L 588.7997159957886 121.28903722763062 L 588.7997159957886 151.28903722763062 Z"/><path fill="none" stroke="none"/><path fill="none" stroke="#e0e0e0" paint-order="fill stroke markers" d=" M 477.5475540161133 73.8607964515686 C 513.744880961461 73.8607964515686 544.6023890504408 136.28903722763062 580.7997159957886 136.28903722763062" stroke-miterlimit="10" stroke-width="2" stroke-dasharray=""/><path fill="white" stroke="#505050" paint-order="fill stroke markers" d=" M 619.3280963897705 158.43465280532837 L 660.3280963897705 158.43465280532837 L 660.3280963897705 176.43465280532837 L 619.3280963897705 176.43465280532837 L 619.3280963897705 158.43465280532837 Z" stroke-miterlimit="10" stroke-width="0.5" stroke-dasharray=""/><path fill="#F0F0F0" stroke="none" paint-order="stroke fill markers" d=""/><path fill="none" stroke="#505050" paint-order="fill stroke markers" d=" M 652.3280963897705 162.43465280532837 L 660.3280963897705 162.43465280532837 L 660.3280963897705 170.43465280532837 L 652.3280963897705 170.43465280532837 L 652.3280963897705 162.43465280532837 Z" stroke-miterlimit="10" stroke-width="0.5" stroke-dasharray=""/><text fill="#505050" stroke="none" font-family="monospace" font-size="14px" font-style="normal" font-weight="normal" text-decoration="normal" x="644.3280963897705" y="176.43465280532837" text-anchor="end" dominant-baseline="text-after-edge">-1</text><path fill="none" stroke="#505050" paint-order="fill stroke markers" d=" M 395.75929260253906 289.11363458633423 C 398.6458571637782 289.11363458633423 402.4770981584874 289.6938805580139 405.36366271972656 289.6938805580139" stroke-miterlimit="10" stroke-dasharray=""/><path fill="none" stroke="#505050" paint-order="fill stroke markers" d=" M 395.9978656768799 92.75923013687134 C 400.0042942959196 92.75923013687134 405.3458128970736 92.8607964515686 409.3522415161133 92.8607964515686" stroke-miterlimit="10" stroke-dasharray=""/><path fill="none" stroke="#505050" paint-order="fill stroke markers" d=" M 406.1505756378174 184.88991403579712 C 410.1570042568571 184.88991403579712 415.4985228580111 184.99148035049438 419.5049514770508 184.99148035049438" stroke-miterlimit="10" stroke-dasharray=""/><path fill="none" stroke="#505050" paint-order="fill stroke markers" d=" M 566.0099220275879 162.00851488113403 C 574.8576008048703 162.00851488113403 579.9520372185061 143.28903722763062 588.7997159957886 143.28903722763062" stroke-miterlimit="10" stroke-dasharray=""/><path fill="none" stroke="#505050" paint-order="fill stroke markers" d=" M 566.0099220275879 162.00851488113403 C 576.7878862594953 162.00851488113403 574.6126941466937 192.2591986656189 585.3906583786011 192.2591986656189" stroke-miterlimit="10" stroke-dasharray=""/><path fill="none" stroke="#505050" paint-order="fill stroke markers" d=" M 650.340913772583 231.48081064224243 C 661.4450288505707 231.48081064224243 663.9739822654572 203.9474310874939 675.0780973434448 203.9474310874939" stroke-miterlimit="10" stroke-dasharray=""/><path fill="none" stroke="#505050" paint-order="fill stroke markers" d=" M 650.5610675811768 208.40907907485962 C 659.4203200470538 208.40907907485962 666.2188448775678 191.9474310874939 675.0780973434448 191.9474310874939" stroke-miterlimit="10" stroke-dasharray=""/><path fill="none" stroke="#505050" paint-order="fill stroke markers" d=" M 610.3906583786011 192.2591986656189 C 630.1452526357741 192.2591986656189 655.3235030862718 179.9474310874939 675.0780973434448 179.9474310874939" stroke-miterlimit="10" stroke-dasharray=""/><path fill="none" stroke="#505050" paint-order="fill stroke markers" d=" M 660.3280963897705 166.43465280532837 C 664.7763086558157 166.43465280532837 670.6298850773996 167.9474310874939 675.0780973434448 167.9474310874939" stroke-miterlimit="10" stroke-dasharray=""/><path fill="none" stroke="#505050" paint-order="fill stroke markers" d=" M 613.7997159957886 143.28903722763062 C 632.5713633932073 143.28903722763062 656.3064499460261 155.9474310874939 675.0780973434448 155.9474310874939" stroke-miterlimit="10" stroke-dasharray=""/></g></g></svg>