<svg version="1.1" xmlns="http://www.w3.org/2000/svg" xmlns:xlink="http://www.w3.org/1999/xlink" width="1444.84375" height="538.0859375"><defs/><g transform="translate(1,1)"><g><path fill="white" stroke="#505050" paint-order="fill stroke markers" d=" M 377.5 88.30859375 L 409.5 88.30859375 L 409.5 134.30859375 L 377.5 134.30859375 L 377.5 88.30859375 Z" stroke-miterlimit="10" stroke-width="0.5" stroke-dasharray=""/><text fill="#505050" stroke="none" font-family="monospace" font-size="14px" font-style="normal" font-weight="normal" text-decoration="normal" x="393.5" y="106.30859375" text-anchor="middle" dominant-baseline="text-after-edge">&lt;</text><path fill="none" stroke="#505050" paint-order="fill stroke markers" d=" M 377.5 110.30859375 L 385.5 110.30859375 L 385.5 118.30859375 L 377.5 118.30859375 L 377.5 110.30859375 Z" stroke-miterlimit="10" stroke-width="0.5" stroke-dasharray=""/><path fill="none" stroke="#505050" paint-order="fill stroke markers" d=" M 377.5 122.30859375 L 385.5 122.30859375 L 385.5 130.30859375 L 377.5 130.30859375 L 377.5 122.30859375 Z" stroke-miterlimit="10" stroke-width="0.5" stroke-dasharray=""/><path fill="none" stroke="#505050" paint-order="fill stroke markers" d=" M 401.5 110.30859375 L 409.5 110.30859375 L 409.5 118.30859375 L 401.5 118.30859375 L 401.5 110.30859375 Z" stroke-miterlimit="10" stroke-width="0.5" stroke-dasharray=""/><path fill="white" stroke="#505050" paint-order="fill stroke markers" d=" M 382.8046875 157.73828125 L 414.8046875 157.73828125 L 414.8046875 203.73828125 L 382.8046875 203.73828125 L 382.8046875 157.73828125 Z" stroke-miterlimit="10" stroke-width="0.5" stroke-dasharray=""/><text fill="#505050" stroke="none" font-family="monospace" font-size="14px" font-style="normal" font-weight="normal" text-decoration="normal" x="398.8046875" y="175.73828125" text-anchor="middle" dominant-baseline="text-after-edge">&gt;</text><path fill="none" stroke="#505050" paint-order="fill stroke markers" d=" M 382.8046875 179.73828125 L 390.8046875 179.73828125 L 390.8046875 187.73828125 L 382.8046875 187.73828125 L 382.8046875 179.73828125 Z" stroke-miterlimit="10" stroke-width="0.5" stroke-dasharray=""/><path fill="none" stroke="#505050" paint-order="fill stroke markers" d=" M 382.8046875 191.73828125 L 390.8046875 191.73828125 L 390.8046875 199.73828125 L 382.8046875 199.73828125 L 382.8046875 191.73828125 Z" stroke-miterlimit="10" stroke-width="0.5" stroke-dasharray=""/><path fill="none" stroke="#505050" paint-order="fill stroke markers" d=" M 406.8046875 179.73828125 L 414.8046875 179.73828125 L 414.8046875 187.73828125 L 406.8046875 187.73828125 L 406.8046875 179.73828125 Z" stroke-miterlimit="10" stroke-width="0.5" stroke-dasharray=""/><path fill="white" stroke="#505050" paint-order="fill stroke markers" d=" M 292.8203125 234.484375 L 340.8203125 234.484375 L 340.8203125 256.484375 L 292.8203125 256.484375 L 292.8203125 234.484375 Z" stroke-miterlimit="10" stroke-width="0.5" stroke-dasharray=""/><path fill="none" stroke="#505050" paint-order="fill stroke markers" d=" M 332.8203125 243.484375 L 340.8203125 243.484375 L 340.8203125 251.484375 L 332.8203125 251.484375 L 332.8203125 243.484375 Z" stroke-miterlimit="10" stroke-width="0.5" stroke-dasharray=""/><text fill="#505050" stroke="none" font-family="monospace" font-size="14px" font-style="normal" font-weight="normal" text-decoration="normal" x="324.8203125" y="252.484375" text-anchor="end" dominant-baseline="text-after-edge">0</text><path fill="white" stroke="#505050" paint-order="fill stroke markers" d=" M 479.96875 148.4609375 L 536.96875 148.4609375 L 536.96875 170.4609375 L 479.96875 170.4609375 L 479.96875 148.4609375 Z" stroke-miterlimit="10" stroke-width="0.5" stroke-dasharray=""/><path fill="none" stroke="#505050" paint-order="fill stroke markers" d=" M 528.96875 157.4609375 L 536.96875 157.4609375 L 536.96875 165.4609375 L 528.96875 165.4609375 L 528.96875 157.4609375 Z" stroke-miterlimit="10" stroke-width="0.5" stroke-dasharray=""/><text fill="#505050" stroke="none" font-family="monospace" font-size="14px" font-style="normal" font-weight="normal" text-decoration="normal" x="520.96875" y="166.4609375" text-anchor="end" dominant-baseline="text-after-edge">-1</text><path fill="white" stroke="#505050" paint-order="fill stroke markers" d=" M 444.29296875 210.03515625 L 492.29296875 210.03515625 L 492.29296875 232.03515625 L 444.29296875 232.03515625 L 444.29296875 210.03515625 Z" stroke-miterlimit="10" stroke-width="0.5" stroke-dasharray=""/><path fill="none" stroke="#505050" paint-order="fill stroke markers" d=" M 484.29296875 219.03515625 L 492.29296875 219.03515625 L 492.29296875 227.03515625 L 484.29296875 227.03515625 L 484.29296875 219.03515625 Z" stroke-miterlimit="10" stroke-width="0.5" stroke-dasharray=""/><text fill="#505050" stroke="none" font-family="monospace" font-size="14px" font-style="normal" font-weight="normal" text-decoration="normal" x="476.29296875" y="228.03515625" text-anchor="end" dominant-baseline="text-after-edge">1</text><path fill="white" stroke="#505050" paint-order="fill stroke markers" d=" M 582.296875 113.66015625 L 614.296875 113.66015625 L 614.296875 171.66015625 L 582.296875 171.66015625 L 582.296875 113.66015625 Z" stroke-miterlimit="10" stroke-width="0.5" stroke-dasharray=""/><text fill="#505050" stroke="none" font-family="monospace" font-size="14px" font-style="normal" font-weight="normal" text-decoration="normal" x="598.296875" y="131.66015625" text-anchor="middle" dominant-baseline="text-after-edge">?</text><path fill="none" stroke="#505050" paint-order="fill stroke markers" d=" M 582.296875 135.66015625 L 590.296875 135.66015625 L 590.296875 143.66015625 L 582.296875 143.66015625 L 582.296875 135.66015625 Z" stroke-miterlimit="10" stroke-width="0.5" stroke-dasharray=""/><path fill="none" stroke="#505050" paint-order="fill stroke markers" d=" M 582.296875 147.66015625 L 590.296875 147.66015625 L 590.296875 155.66015625 L 582.296875 155.66015625 L 582.296875 147.66015625 Z" stroke-miterlimit="10" stroke-width="0.5" stroke-dasharray=""/><path fill="none" stroke="#505050" paint-order="fill stroke markers" d=" M 582.296875 159.66015625 L 590.296875 159.66015625 L 590.296875 167.66015625 L 582.296875 167.66015625 L 582.296875 159.66015625 Z" stroke-miterlimit="10" stroke-width="0.5" stroke-dasharray=""/><path fill="none" stroke="#505050" paint-order="fill stroke markers" d=" M 606.296875 135.66015625 L 614.296875 135.66015625 L 614.296875 143.66015625 L 606.296875 143.66015625 L 606.296875 135.66015625 Z" stroke-miterlimit="10" stroke-width="0.5" stroke-dasharray=""/><path fill="white" stroke="#505050" paint-order="fill stroke markers" d=" M 536.8359375 184.46875 L 568.8359375 184.46875 L 568.8359375 242.46875 L 536.8359375 242.46875 L 536.8359375 184.46875 Z" stroke-miterlimit="10" stroke-width="0.5" stroke-dasharray=""/><text fill="#505050" stroke="none" font-family="monospace" font-size="14px" font-style="normal" font-weight="normal" text-decoration="normal" x="552.8359375" y="202.46875" text-anchor="middle" dominant-baseline="text-after-edge">?</text><path fill="none" stroke="#505050" paint-order="fill stroke markers" d=" M 536.8359375 206.46875 L 544.8359375 206.46875 L 544.8359375 214.46875 L 536.8359375 214.46875 L 536.8359375 206.46875 Z" stroke-miterlimit="10" stroke-width="0.5" stroke-dasharray=""/><path fill="none" stroke="#505050" paint-order="fill stroke markers" d=" M 536.8359375 218.46875 L 544.8359375 218.46875 L 544.8359375 226.46875 L 536.8359375 226.46875 L 536.8359375 218.46875 Z" stroke-miterlimit="10" stroke-width="0.5" stroke-dasharray=""/><path fill="none" stroke="#505050" paint-order="fill stroke markers" d=" M 536.8359375 230.46875 L 544.8359375 230.46875 L 544.8359375 238.46875 L 536.8359375 238.46875 L 536.8359375 230.46875 Z" stroke-miterlimit="10" stroke-width="0.5" stroke-dasharray=""/><path fill="none" stroke="#505050" paint-order="fill stroke markers" d=" M 560.8359375 206.46875 L 568.8359375 206.46875 L 568.8359375 214.46875 L 560.8359375 214.46875 L 560.8359375 206.46875 Z" stroke-miterlimit="10" stroke-width="0.5" stroke-dasharray=""/><path fill="white" stroke="#505050" paint-order="fill stroke markers" d=" M 636 126.24609375 L 693 126.24609375 L 701 137.24609375 L 693 148.24609375 L 636 148.24609375 L 636 126.24609375" stroke-miterlimit="10" stroke-width="0.5" stroke-dasharray=""/><path fill="none" stroke="#505050" paint-order="fill stroke markers" d=" M 636 135.24609375 L 644 135.24609375 L 644 143.24609375 L 636 143.24609375 L 636 135.24609375 Z" stroke-miterlimit="10" stroke-width="0.5" stroke-dasharray=""/><text fill="#505050" stroke="none" font-family="monospace" font-size="14px" font-style="normal" font-weight="normal" text-decoration="normal" x="652" y="144.24609375" text-anchor="start" dominant-baseline="text-after-edge">sgn</text><path fill="white" stroke="#505050" paint-order="fill stroke markers" d=" M 248.1796875 122.30859375 L 296.1796875 122.30859375 L 296.1796875 144.30859375 L 248.1796875 144.30859375 L 256.1796875 133.30859375 L 248.1796875 122.30859375" stroke-miterlimit="10" stroke-width="0.5" stroke-dasharray=""/><path fill="none" stroke="#505050" paint-order="fill stroke markers" d=" M 288.1796875 131.30859375 L 296.1796875 131.30859375 L 296.1796875 139.30859375 L 288.1796875 139.30859375 L 288.1796875 131.30859375 Z" stroke-miterlimit="10" stroke-width="0.5" stroke-dasharray=""/><text fill="#505050" stroke="none" font-family="monospace" font-size="14px" font-style="normal" font-weight="normal" text-decoration="normal" x="280.1796875" y="140.30859375" text-anchor="end" dominant-baseline="text-after-edge">x</text><path fill="white" stroke="#505050" paint-order="fill stroke markers" d=" M 732.0390625 45.5234375 L 732.0390625 121.1796875 Q 732.0390625 129.1796875 740.0390625 129.1796875 L 1054.1015625 129.1796875 Q 1062.1015625 129.1796875 1062.1015625 121.1796875 L 1062.1015625 45.5234375 Q 1062.1015625 37.5234375 1054.1015625 37.5234375 L 740.0390625 37.5234375 Q 732.0390625 37.5234375 732.0390625 45.5234375" stroke-miterlimit="10" stroke-width="0.5" stroke-dasharray=""/><path fill="none" stroke="#505050" paint-order="fill stroke markers" d=" M 732.0390625 57.5234375 L 1062.1015625 57.5234375" stroke-miterlimit="10" stroke-width="0.5" stroke-dasharray=""/><path fill="#F0F0F0" stroke="#505050" paint-order="fill stroke markers" d=" M 956.1015625 99.1796875 L 1054.1015625 99.1796875 L 1054.1015625 121.1796875 L 956.1015625 121.1796875 L 956.1015625 99.1796875 Z" stroke-miterlimit="10" stroke-width="0.5" stroke-dasharray=""/><path fill="none" stroke="#505050" paint-order="fill stroke markers" d=" M 956.1015625 108.1796875 L 964.1015625 108.1796875 L 964.1015625 116.1796875 L 956.1015625 116.1796875 L 956.1015625 108.1796875 Z" stroke-miterlimit="10" stroke-width="0.5" stroke-dasharray=""/><text fill="#505050" stroke="none" font-family="monospace" font-size="14px" font-style="normal" font-weight="normal" text-decoration="normal" x="972.1015625" y="117.1796875" text-anchor="start" dominant-baseline="text-after-edge">x</text><path fill="none" stroke="#505050" paint-order="fill stroke markers" d=" M 1046.1015625 108.1796875 L 1054.1015625 108.1796875 L 1054.1015625 116.1796875 L 1046.1015625 116.1796875 L 1046.1015625 108.1796875 Z" stroke-miterlimit="10" stroke-width="0.5" stroke-dasharray=""/><text fill="#505050" stroke="none" font-family="monospace" font-size="14px" font-style="normal" font-weight="normal" text-decoration="normal" x="1038.1015625" y="117.1796875" text-anchor="end" dominant-baseline="text-after-edge">x&lt;0</text><path fill="white" stroke="#505050" paint-order="fill stroke markers" d=" M 740.0390625 53.78515625 L 788.0390625 53.78515625 L 788.0390625 75.78515625 L 740.0390625 75.78515625 L 748.0390625 64.78515625 L 740.0390625 53.78515625" stroke-miterlimit="10" stroke-width="0.5" stroke-dasharray=""/><path fill="none" stroke="#505050" paint-order="fill stroke markers" d=" M 780.0390625 62.78515625 L 788.0390625 62.78515625 L 788.0390625 70.78515625 L 780.0390625 70.78515625 L 780.0390625 62.78515625 Z" stroke-miterlimit="10" stroke-width="0.5" stroke-dasharray=""/><text fill="#505050" stroke="none" font-family="monospace" font-size="14px" font-style="normal" font-weight="normal" text-decoration="normal" x="772.0390625" y="71.78515625" text-anchor="end" dominant-baseline="text-after-edge">x</text><path fill="white" stroke="#505050" paint-order="fill stroke markers" d=" M 822.01171875 45.5234375 L 854.01171875 45.5234375 L 854.01171875 91.5234375 L 822.01171875 91.5234375 L 822.01171875 45.5234375 Z" stroke-miterlimit="10" stroke-width="0.5" stroke-dasharray=""/><text fill="#505050" stroke="none" font-family="monospace" font-size="14px" font-style="normal" font-weight="normal" text-decoration="normal" x="838.01171875" y="63.5234375" text-anchor="middle" dominant-baseline="text-after-edge">&lt;</text><path fill="none" stroke="#505050" paint-order="fill stroke markers" d=" M 822.01171875 67.5234375 L 830.01171875 67.5234375 L 830.01171875 75.5234375 L 822.01171875 75.5234375 L 822.01171875 67.5234375 Z" stroke-miterlimit="10" stroke-width="0.5" stroke-dasharray=""/><path fill="none" stroke="#505050" paint-order="fill stroke markers" d=" M 822.01171875 79.5234375 L 830.01171875 79.5234375 L 830.01171875 87.5234375 L 822.01171875 87.5234375 L 822.01171875 79.5234375 Z" stroke-miterlimit="10" stroke-width="0.5" stroke-dasharray=""/><path fill="none" stroke="#505050" paint-order="fill stroke markers" d=" M 846.01171875 67.5234375 L 854.01171875 67.5234375 L 854.01171875 75.5234375 L 846.01171875 75.5234375 L 846.01171875 67.5234375 Z" stroke-miterlimit="10" stroke-width="0.5" stroke-dasharray=""/><path fill="white" stroke="#505050" paint-order="fill stroke markers" d=" M 883.1015625 73.26953125 L 940.1015625 73.26953125 L 948.1015625 84.26953125 L 940.1015625 95.26953125 L 883.1015625 95.26953125 L 883.1015625 73.26953125" stroke-miterlimit="10" stroke-width="0.5" stroke-dasharray=""/><path fill="none" stroke="#505050" paint-order="fill stroke markers" d=" M 883.1015625 82.26953125 L 891.1015625 82.26953125 L 891.1015625 90.26953125 L 883.1015625 90.26953125 L 883.1015625 82.26953125 Z" stroke-miterlimit="10" stroke-width="0.5" stroke-dasharray=""/><text fill="#505050" stroke="none" font-family="monospace" font-size="14px" font-style="normal" font-weight="normal" text-decoration="normal" x="899.1015625" y="91.26953125" text-anchor="start" dominant-baseline="text-after-edge">x&lt;0</text><path fill="white" stroke="#505050" paint-order="fill stroke markers" d=" M 741.7578125 91.1796875 L 789.7578125 91.1796875 L 789.7578125 113.1796875 L 741.7578125 113.1796875 L 741.7578125 91.1796875 Z" stroke-miterlimit="10" stroke-width="0.5" stroke-dasharray=""/><path fill="none" stroke="#505050" paint-order="fill stroke markers" d=" M 781.7578125 100.1796875 L 789.7578125 100.1796875 L 789.7578125 108.1796875 L 781.7578125 108.1796875 L 781.7578125 100.1796875 Z" stroke-miterlimit="10" stroke-width="0.5" stroke-dasharray=""/><text fill="#505050" stroke="none" font-family="monospace" font-size="14px" font-style="normal" font-weight="normal" text-decoration="normal" x="773.7578125" y="109.1796875" text-anchor="end" dominant-baseline="text-after-edge">0</text><path fill="white" stroke="#505050" paint-order="fill stroke markers" d=" M 731.04296875 155.21875 L 731.04296875 230.875 Q 731.04296875 238.875 739.04296875 238.875 L 1053.10546875 238.875 Q 1061.10546875 238.875 1061.10546875 230.875 L 1061.10546875 155.21875 Q 1061.10546875 147.21875 1053.10546875 147.21875 L 739.04296875 147.21875 Q 731.04296875 147.21875 731.04296875 155.21875" stroke-miterlimit="10" stroke-width="0.5" stroke-dasharray=""/><path fill="none" stroke="#505050" paint-order="fill stroke markers" d=" M 731.04296875 167.21875 L 1061.10546875 167.21875" stroke-miterlimit="10" stroke-width="0.5" stroke-dasharray=""/><path fill="#F0F0F0" stroke="#505050" paint-order="fill stroke markers" d=" M 955.10546875 208.875 L 1053.10546875 208.875 L 1053.10546875 230.875 L 955.10546875 230.875 L 955.10546875 208.875 Z" stroke-miterlimit="10" stroke-width="0.5" stroke-dasharray=""/><path fill="none" stroke="#505050" paint-order="fill stroke markers" d=" M 955.10546875 217.875 L 963.10546875 217.875 L 963.10546875 225.875 L 955.10546875 225.875 L 955.10546875 217.875 Z" stroke-miterlimit="10" stroke-width="0.5" stroke-dasharray=""/><text fill="#505050" stroke="none" font-family="monospace" font-size="14px" font-style="normal" font-weight="normal" text-decoration="normal" x="971.10546875" y="226.875" text-anchor="start" dominant-baseline="text-after-edge">x</text><path fill="none" stroke="#505050" paint-order="fill stroke markers" d=" M 1045.10546875 217.875 L 1053.10546875 217.875 L 1053.10546875 225.875 L 1045.10546875 225.875 L 1045.10546875 217.875 Z" stroke-miterlimit="10" stroke-width="0.5" stroke-dasharray=""/><text fill="#505050" stroke="none" font-family="monospace" font-size="14px" font-style="normal" font-weight="normal" text-decoration="normal" x="1037.10546875" y="226.875" text-anchor="end" dominant-baseline="text-after-edge">x&gt;0</text><path fill="white" stroke="#505050" paint-order="fill stroke markers" d=" M 739.04296875 163.48046875 L 787.04296875 163.48046875 L 787.04296875 185.48046875 L 739.04296875 185.48046875 L 747.04296875 174.48046875 L 739.04296875 163.48046875" stroke-miterlimit="10" stroke-width="0.5" stroke-dasharray=""/><path fill="none" stroke="#505050" paint-order="fill stroke markers" d=" M 779.04296875 172.48046875 L 787.04296875 172.48046875 L 787.04296875 180.48046875 L 779.04296875 180.48046875 L 779.04296875 172.48046875 Z" stroke-miterlimit="10" stroke-width="0.5" stroke-dasharray=""/><text fill="#505050" stroke="none" font-family="monospace" font-size="14px" font-style="normal" font-weight="normal" text-decoration="normal" x="771.04296875" y="181.48046875" text-anchor="end" dominant-baseline="text-after-edge">x</text><path fill="white" stroke="#505050" paint-order="fill stroke markers" d=" M 882.10546875 182.96484375 L 939.10546875 182.96484375 L 947.10546875 193.96484375 L 939.10546875 204.96484375 L 882.10546875 204.96484375 L 882.10546875 182.96484375" stroke-miterlimit="10" stroke-width="0.5" stroke-dasharray=""/><path fill="none" stroke="#505050" paint-order="fill stroke markers" d=" M 882.10546875 191.96484375 L 890.10546875 191.96484375 L 890.10546875 199.96484375 L 882.10546875 199.96484375 L 882.10546875 191.96484375 Z" stroke-miterlimit="10" stroke-width="0.5" stroke-dasharray=""/><text fill="#505050" stroke="none" font-family="monospace" font-size="14px" font-style="normal" font-weight="normal" text-decoration="normal" x="898.10546875" y="200.96484375" text-anchor="start" dominant-baseline="text-after-edge">x&gt;0</text><path fill="white" stroke="#505050" paint-order="fill stroke markers" d=" M 740.76171875 200.875 L 788.76171875 200.875 L 788.76171875 222.875 L 740.76171875 222.875 L 740.76171875 200.875 Z" stroke-miterlimit="10" stroke-width="0.5" stroke-dasharray=""/><path fill="none" stroke="#505050" paint-order="fill stroke markers" d=" M 780.76171875 209.875 L 788.76171875 209.875 L 788.76171875 217.875 L 780.76171875 217.875 L 780.76171875 209.875 Z" stroke-miterlimit="10" stroke-width="0.5" stroke-dasharray=""/><text fill="#505050" stroke="none" font-family="monospace" font-size="14px" font-style="normal" font-weight="normal" text-decoration="normal" x="772.76171875" y="218.875" text-anchor="end" dominant-baseline="text-after-edge">0</text><path fill="white" stroke="#505050" paint-order="fill stroke markers" d=" M 821.015625 155.21875 L 853.015625 155.21875 L 853.015625 201.21875 L 821.015625 201.21875 L 821.015625 155.21875 Z" stroke-miterlimit="10" stroke-width="0.5" stroke-dasharray=""/><text fill="#505050" stroke="none" font-family="monospace" font-size="14px" font-style="normal" font-weight="normal" text-decoration="normal" x="837.015625" y="173.21875" text-anchor="middle" dominant-baseline="text-after-edge">&gt;</text><path fill="none" stroke="#505050" paint-order="fill stroke markers" d=" M 821.015625 177.21875 L 829.015625 177.21875 L 829.015625 185.21875 L 821.015625 185.21875 L 821.015625 177.21875 Z" stroke-miterlimit="10" stroke-width="0.5" stroke-dasharray=""/><path fill="none" stroke="#505050" paint-order="fill stroke markers" d=" M 821.015625 189.21875 L 829.015625 189.21875 L 829.015625 197.21875 L 821.015625 197.21875 L 821.015625 189.21875 Z" stroke-miterlimit="10" stroke-width="0.5" stroke-dasharray=""/><path fill="none" stroke="#505050" paint-order="fill stroke markers" d=" M 845.015625 177.21875 L 853.015625 177.21875 L 853.015625 185.21875 L 845.015625 185.21875 L 845.015625 177.21875 Z" stroke-miterlimit="10" stroke-width="0.5" stroke-dasharray=""/><path fill="white" stroke="#505050" paint-order="fill stroke markers" d=" M 724.4921875 268.8515625 L 724.4921875 377.390625 Q 724.4921875 385.390625 732.4921875 385.390625 L 955.0703125 385.390625 Q 963.0703125 385.390625 963.0703125 377.390625 L 963.0703125 268.8515625 Q 963.0703125 260.8515625 955.0703125 260.8515625 L 732.4921875 260.8515625 Q 724.4921875 260.8515625 724.4921875 268.8515625" stroke-miterlimit="10" stroke-width="0.5" stroke-dasharray=""/><path fill="none" stroke="#505050" paint-order="fill stroke markers" d=" M 724.4921875 280.8515625 L 963.0703125 280.8515625" stroke-miterlimit="10" stroke-width="0.5" stroke-dasharray=""/><path fill="#F0F0F0" stroke="#505050" paint-order="fill stroke markers" d=" M 923.0703125 295.390625 L 955.0703125 295.390625 L 955.0703125 377.390625 L 923.0703125 377.390625 L 923.0703125 295.390625 Z" stroke-miterlimit="10" stroke-width="0.5" stroke-dasharray=""/><text fill="#505050" stroke="none" font-family="monospace" font-size="14px" font-style="normal" font-weight="normal" text-decoration="normal" x="939.0703125" y="313.390625" text-anchor="middle" dominant-baseline="text-after-edge">?</text><path fill="none" stroke="#505050" paint-order="fill stroke markers" d=" M 923.0703125 317.390625 L 931.0703125 317.390625 L 931.0703125 325.390625 L 923.0703125 325.390625 L 923.0703125 317.390625 Z" stroke-miterlimit="10" stroke-width="0.5" stroke-dasharray=""/><path fill="none" stroke="#505050" paint-order="fill stroke markers" d=" M 931.0703125 333.390625 A 4 4 0 1 0 931.0703105000001 333.39462499933336" stroke-miterlimit="10" stroke-width="0.5" stroke-dasharray=""/><path fill="none" stroke="#505050" paint-order="fill stroke markers" d=" M 923.0703125 341.390625 L 931.0703125 341.390625 L 931.0703125 349.390625 L 923.0703125 349.390625 L 923.0703125 341.390625 Z" stroke-miterlimit="10" stroke-width="0.5" stroke-dasharray=""/><path fill="none" stroke="#505050" paint-order="fill stroke markers" d=" M 931.0703125 357.390625 A 4 4 0 1 0 931.0703105000001 357.39462499933336" stroke-miterlimit="10" stroke-width="0.5" stroke-dasharray=""/><path fill="none" stroke="#505050" paint-order="fill stroke markers" d=" M 931.0703125 369.390625 A 4 4 0 1 0 931.0703105000001 369.39462499933336" stroke-miterlimit="10" stroke-width="0.5" stroke-dasharray=""/><path fill="none" stroke="#505050" paint-order="fill stroke markers" d=" M 955.0703125 321.390625 A 4 4 0 1 0 955.0703105000001 321.39462499933336" stroke-miterlimit="10" stroke-width="0.5" stroke-dasharray=""/><path fill="white" stroke="#505050" paint-order="fill stroke markers" d=" M 771.6640625 277.1953125 L 803.6640625 277.1953125 L 803.6640625 335.1953125 L 771.6640625 335.1953125 L 771.6640625 277.1953125 Z" stroke-miterlimit="10" stroke-width="0.5" stroke-dasharray=""/><text fill="#505050" stroke="none" font-family="monospace" font-size="14px" font-style="normal" font-weight="normal" text-decoration="normal" x="787.6640625" y="295.1953125" text-anchor="middle" dominant-baseline="text-after-edge">?</text><path fill="none" stroke="#505050" paint-order="fill stroke markers" d=" M 771.6640625 299.1953125 L 779.6640625 299.1953125 L 779.6640625 307.1953125 L 771.6640625 307.1953125 L 771.6640625 299.1953125 Z" stroke-miterlimit="10" stroke-width="0.5" stroke-dasharray=""/><path fill="none" stroke="#505050" paint-order="fill stroke markers" d=" M 779.6640625 315.1953125 A 4 4 0 1 0 779.6640605000001 315.19931249933336" stroke-miterlimit="10" stroke-width="0.5" stroke-dasharray=""/><path fill="none" stroke="#505050" paint-order="fill stroke markers" d=" M 779.6640625 327.1953125 A 4 4 0 1 0 779.6640605000001 327.19931249933336" stroke-miterlimit="10" stroke-width="0.5" stroke-dasharray=""/><path fill="none" stroke="#505050" paint-order="fill stroke markers" d=" M 803.6640625 303.1953125 A 4 4 0 1 0 803.6640605000001 303.19931249933336" stroke-miterlimit="10" stroke-width="0.5" stroke-dasharray=""/><path fill="white" stroke="#505050" paint-order="fill stroke markers" d=" M 795.0703125 325.390625 L 819.0703125 325.390625 L 819.0703125 345.390625 L 795.0703125 345.390625 L 803.0703125 335.390625 L 795.0703125 325.390625" stroke-miterlimit="10" stroke-width="0.5" stroke-dasharray=""/><path fill="none" stroke="#505050" paint-order="fill stroke markers" d=" M 811.0703125 333.390625 L 819.0703125 333.390625 L 819.0703125 341.390625 L 811.0703125 341.390625 L 811.0703125 333.390625 Z" stroke-miterlimit="10" stroke-width="0.5" stroke-dasharray=""/><path fill="white" stroke="#505050" paint-order="fill stroke markers" d=" M 739.6640625 303.1953125 L 763.6640625 303.1953125 L 763.6640625 323.1953125 L 739.6640625 323.1953125 L 747.6640625 313.1953125 L 739.6640625 303.1953125" stroke-miterlimit="10" stroke-width="0.5" stroke-dasharray=""/><path fill="none" stroke="#505050" paint-order="fill stroke markers" d=" M 755.6640625 311.1953125 L 763.6640625 311.1953125 L 763.6640625 319.1953125 L 755.6640625 319.1953125 L 755.6640625 311.1953125 Z" stroke-miterlimit="10" stroke-width="0.5" stroke-dasharray=""/><path fill="white" stroke="#505050" paint-order="fill stroke markers" d=" M 739.6640625 315.1953125 L 763.6640625 315.1953125 L 763.6640625 335.1953125 L 739.6640625 335.1953125 L 747.6640625 325.1953125 L 739.6640625 315.1953125" stroke-miterlimit="10" stroke-width="0.5" stroke-dasharray=""/><path fill="none" stroke="#505050" paint-order="fill stroke markers" d=" M 763.6640625 327.1953125 A 4 4 0 1 0 763.6640605000001 327.19931249933336" stroke-miterlimit="10" stroke-width="0.5" stroke-dasharray=""/><path fill="white" stroke="#505050" paint-order="fill stroke markers" d=" M 739.6640625 327.1953125 L 763.6640625 327.1953125 L 763.6640625 347.1953125 L 739.6640625 347.1953125 L 747.6640625 337.1953125 L 739.6640625 327.1953125" stroke-miterlimit="10" stroke-width="0.5" stroke-dasharray=""/><path fill="none" stroke="#505050" paint-order="fill stroke markers" d=" M 763.6640625 339.1953125 A 4 4 0 1 0 763.6640605000001 339.19931249933336" stroke-miterlimit="10" stroke-width="0.5" stroke-dasharray=""/><path fill="white" stroke="#505050" paint-order="fill stroke markers" d=" M 795.0703125 349.390625 L 819.0703125 349.390625 L 819.0703125 369.390625 L 795.0703125 369.390625 L 803.0703125 359.390625 L 795.0703125 349.390625" stroke-miterlimit="10" stroke-width="0.5" stroke-dasharray=""/><path fill="none" stroke="#505050" paint-order="fill stroke markers" d=" M 819.0703125 361.390625 A 4 4 0 1 0 819.0703105000001 361.39462499933336" stroke-miterlimit="10" stroke-width="0.5" stroke-dasharray=""/><path fill="white" stroke="#505050" paint-order="fill stroke markers" d=" M 891.0703125 325.390625 L 907.0703125 325.390625 L 915.0703125 335.390625 L 907.0703125 345.390625 L 891.0703125 345.390625 L 891.0703125 325.390625" stroke-miterlimit="10" stroke-width="0.5" stroke-dasharray=""/><path fill="none" stroke="#505050" paint-order="fill stroke markers" d=" M 899.0703125 337.390625 A 4 4 0 1 0 899.0703105000001 337.39462499933336" stroke-miterlimit="10" stroke-width="0.5" stroke-dasharray=""/><path fill="white" stroke="#505050" paint-order="fill stroke markers" d=" M 827.0703125 299.390625 L 859.0703125 299.390625 L 859.0703125 357.390625 L 827.0703125 357.390625 L 827.0703125 299.390625 Z" stroke-miterlimit="10" stroke-width="0.5" stroke-dasharray=""/><text fill="#505050" stroke="none" font-family="monospace" font-size="14px" font-style="normal" font-weight="normal" text-decoration="normal" x="843.0703125" y="317.390625" text-anchor="middle" dominant-baseline="text-after-edge">?</text><path fill="none" stroke="#505050" paint-order="fill stroke markers" d=" M 827.0703125 321.390625 L 835.0703125 321.390625 L 835.0703125 329.390625 L 827.0703125 329.390625 L 827.0703125 321.390625 Z" stroke-miterlimit="10" stroke-width="0.5" stroke-dasharray=""/><path fill="none" stroke="#505050" paint-order="fill stroke markers" d=" M 835.0703125 337.390625 A 4 4 0 1 0 835.0703105000001 337.39462499933336" stroke-miterlimit="10" stroke-width="0.5" stroke-dasharray=""/><path fill="none" stroke="#505050" paint-order="fill stroke markers" d=" M 835.0703125 349.390625 A 4 4 0 1 0 835.0703105000001 349.39462499933336" stroke-miterlimit="10" stroke-width="0.5" stroke-dasharray=""/><path fill="none" stroke="#505050" paint-order="fill stroke markers" d=" M 859.0703125 325.390625 A 4 4 0 1 0 859.0703105000001 325.39462499933336" stroke-miterlimit="10" stroke-width="0.5" stroke-dasharray=""/><path fill="white" stroke="#505050" paint-order="fill stroke markers" d=" M 1277.8515625 184.34375 L 1309.8515625 184.34375 L 1309.8515625 266.34375 L 1277.8515625 266.34375 L 1277.8515625 184.34375 Z" stroke-miterlimit="10" stroke-width="0.5" stroke-dasharray=""/><text fill="#505050" stroke="none" font-family="monospace" font-size="14px" font-style="normal" font-weight="normal" text-decoration="normal" x="1293.8515625" y="202.34375" text-anchor="middle" dominant-baseline="text-after-edge">?</text><path fill="none" stroke="#505050" paint-order="fill stroke markers" d=" M 1277.8515625 206.34375 L 1285.8515625 206.34375 L 1285.8515625 214.34375 L 1277.8515625 214.34375 L 1277.8515625 206.34375 Z" stroke-miterlimit="10" stroke-width="0.5" stroke-dasharray=""/><path fill="none" stroke="#505050" paint-order="fill stroke markers" d=" M 1285.8515625 222.34375 A 4 4 0 1 0 1285.8515605000002 222.34774999933333" stroke-miterlimit="10" stroke-width="0.5" stroke-dasharray=""/><path fill="none" stroke="#505050" paint-order="fill stroke markers" d=" M 1277.8515625 230.34375 L 1285.8515625 230.34375 L 1285.8515625 238.34375 L 1277.8515625 238.34375 L 1277.8515625 230.34375 Z" stroke-miterlimit="10" stroke-width="0.5" stroke-dasharray=""/><path fill="none" stroke="#505050" paint-order="fill stroke markers" d=" M 1285.8515625 246.34375 A 4 4 0 1 0 1285.8515605000002 246.34774999933333" stroke-miterlimit="10" stroke-width="0.5" stroke-dasharray=""/><path fill="none" stroke="#505050" paint-order="fill stroke markers" d=" M 1285.8515625 258.34375 A 4 4 0 1 0 1285.8515605000002 258.34774999933336" stroke-miterlimit="10" stroke-width="0.5" stroke-dasharray=""/><path fill="none" stroke="#505050" paint-order="fill stroke markers" d=" M 1309.8515625 210.34375 A 4 4 0 1 0 1309.8515605000002 210.34774999933333" stroke-miterlimit="10" stroke-width="0.5" stroke-dasharray=""/><path fill="white" stroke="#505050" paint-order="fill stroke markers" d=" M 1143.75 145.0078125 L 1241.75 145.0078125 L 1241.75 167.0078125 L 1143.75 167.0078125 L 1143.75 145.0078125 Z" stroke-miterlimit="10" stroke-width="0.5" stroke-dasharray=""/><path fill="none" stroke="#505050" paint-order="fill stroke markers" d=" M 1143.75 154.0078125 L 1151.75 154.0078125 L 1151.75 162.0078125 L 1143.75 162.0078125 L 1143.75 154.0078125 Z" stroke-miterlimit="10" stroke-width="0.5" stroke-dasharray=""/><text fill="#505050" stroke="none" font-family="monospace" font-size="14px" font-style="normal" font-weight="normal" text-decoration="normal" x="1159.75" y="163.0078125" text-anchor="start" dominant-baseline="text-after-edge">x</text><path fill="none" stroke="#505050" paint-order="fill stroke markers" d=" M 1233.75 154.0078125 L 1241.75 154.0078125 L 1241.75 162.0078125 L 1233.75 162.0078125 L 1233.75 154.0078125 Z" stroke-miterlimit="10" stroke-width="0.5" stroke-dasharray=""/><text fill="#505050" stroke="none" font-family="monospace" font-size="14px" font-style="normal" font-weight="normal" text-decoration="normal" x="1225.75" y="163.0078125" text-anchor="end" dominant-baseline="text-after-edge">x&lt;0</text><path fill="white" stroke="#505050" paint-order="fill stroke markers" d=" M 1173.78125 178.421875 L 1230.78125 178.421875 L 1230.78125 200.421875 L 1173.78125 200.421875 L 1173.78125 178.421875 Z" stroke-miterlimit="10" stroke-width="0.5" stroke-dasharray=""/><path fill="none" stroke="#505050" paint-order="fill stroke markers" d=" M 1230.78125 191.421875 A 4 4 0 1 0 1230.7812480000002 191.42587499933333" stroke-miterlimit="10" stroke-width="0.5" stroke-dasharray=""/><text fill="#505050" stroke="none" font-family="monospace" font-size="14px" font-style="normal" font-weight="normal" text-decoration="normal" x="1214.78125" y="196.421875" text-anchor="end" dominant-baseline="text-after-edge">-1</text><path fill="white" stroke="#505050" paint-order="fill stroke markers" d=" M 1124.87890625 213.2421875 L 1222.87890625 213.2421875 L 1222.87890625 235.2421875 L 1124.87890625 235.2421875 L 1124.87890625 213.2421875 Z" stroke-miterlimit="10" stroke-width="0.5" stroke-dasharray=""/><path fill="none" stroke="#505050" paint-order="fill stroke markers" d=" M 1124.87890625 222.2421875 L 1132.87890625 222.2421875 L 1132.87890625 230.2421875 L 1124.87890625 230.2421875 L 1124.87890625 222.2421875 Z" stroke-miterlimit="10" stroke-width="0.5" stroke-dasharray=""/><text fill="#505050" stroke="none" font-family="monospace" font-size="14px" font-style="normal" font-weight="normal" text-decoration="normal" x="1140.87890625" y="231.2421875" text-anchor="start" dominant-baseline="text-after-edge">x</text><path fill="none" stroke="#505050" paint-order="fill stroke markers" d=" M 1214.87890625 222.2421875 L 1222.87890625 222.2421875 L 1222.87890625 230.2421875 L 1214.87890625 230.2421875 L 1214.87890625 222.2421875 Z" stroke-miterlimit="10" stroke-width="0.5" stroke-dasharray=""/><text fill="#505050" stroke="none" font-family="monospace" font-size="14px" font-style="normal" font-weight="normal" text-decoration="normal" x="1206.87890625" y="231.2421875" text-anchor="end" dominant-baseline="text-after-edge">x&gt;0</text><path fill="white" stroke="#505050" paint-order="fill stroke markers" d=" M 1181.7734375 244.94140625 L 1229.7734375 244.94140625 L 1229.7734375 266.94140625 L 1181.7734375 266.94140625 L 1181.7734375 244.94140625 Z" stroke-miterlimit="10" stroke-width="0.5" stroke-dasharray=""/><path fill="none" stroke="#505050" paint-order="fill stroke markers" d=" M 1229.7734375 257.94140625 A 4 4 0 1 0 1229.7734355000002 257.94540624933336" stroke-miterlimit="10" stroke-width="0.5" stroke-dasharray=""/><text fill="#505050" stroke="none" font-family="monospace" font-size="14px" font-style="normal" font-weight="normal" text-decoration="normal" x="1213.7734375" y="262.94140625" text-anchor="end" dominant-baseline="text-after-edge">1</text><path fill="white" stroke="#505050" paint-order="fill stroke markers" d=" M 1186.4765625 277.26953125 L 1234.4765625 277.26953125 L 1234.4765625 299.26953125 L 1186.4765625 299.26953125 L 1186.4765625 277.26953125 Z" stroke-miterlimit="10" stroke-width="0.5" stroke-dasharray=""/><path fill="none" stroke="#505050" paint-order="fill stroke markers" d=" M 1234.4765625 290.26953125 A 4 4 0 1 0 1234.4765605000002 290.27353124933336" stroke-miterlimit="10" stroke-width="0.5" stroke-dasharray=""/><text fill="#505050" stroke="none" font-family="monospace" font-size="14px" font-style="normal" font-weight="normal" text-decoration="normal" x="1218.4765625" y="295.26953125" text-anchor="end" dominant-baseline="text-after-edge">0</text><path fill="none" stroke="#505050" paint-order="fill stroke markers" d=" M 340.8203125 247.484375 C 364.8203125 247.484375 353.5 126.30859375 377.5 126.30859375" stroke-miterlimit="10" stroke-dasharray=""/><path fill="none" stroke="#505050" paint-order="fill stroke markers" d=" M 340.8203125 247.484375 C 364.8203125 247.484375 358.8046875 195.73828125 382.8046875 195.73828125" stroke-miterlimit="10" stroke-dasharray=""/><path fill="none" stroke="#505050" paint-order="fill stroke markers" d=" M 536.96875 161.4609375 C 560.96875 161.4609375 558.296875 151.66015625 582.296875 151.66015625" stroke-miterlimit="10" stroke-dasharray=""/><path fill="none" stroke="#505050" paint-order="fill stroke markers" d=" M 409.5 114.30859375 C 433.5 114.30859375 558.296875 139.66015625 582.296875 139.66015625" stroke-miterlimit="10" stroke-dasharray=""/><path fill="none" stroke="#505050" paint-order="fill stroke markers" d=" M 568.8359375 210.46875 C 592.8359375 210.46875 558.296875 163.66015625 582.296875 163.66015625" stroke-miterlimit="10" stroke-dasharray=""/><path fill="none" stroke="#505050" paint-order="fill stroke markers" d=" M 492.29296875 223.03515625 C 516.29296875 223.03515625 512.8359375 222.46875 536.8359375 222.46875" stroke-miterlimit="10" stroke-dasharray=""/><path fill="none" stroke="#505050" paint-order="fill stroke markers" d=" M 414.8046875 183.73828125 C 438.8046875 183.73828125 512.8359375 210.46875 536.8359375 210.46875" stroke-miterlimit="10" stroke-dasharray=""/><path fill="none" stroke="#505050" paint-order="fill stroke markers" d=" M 340.8203125 247.484375 C 364.8203125 247.484375 512.8359375 234.46875 536.8359375 234.46875" stroke-miterlimit="10" stroke-dasharray=""/><path fill="none" stroke="#505050" paint-order="fill stroke markers" d=" M 614.296875 139.66015625 C 638.296875 139.66015625 612 139.24609375 636 139.24609375" stroke-miterlimit="10" stroke-dasharray=""/><path fill="none" stroke="#505050" paint-order="fill stroke markers" d=" M 296.1796875 135.30859375 C 320.1796875 135.30859375 353.5 114.30859375 377.5 114.30859375" stroke-miterlimit="10" stroke-dasharray=""/><path fill="none" stroke="#505050" paint-order="fill stroke markers" d=" M 296.1796875 135.30859375 C 320.1796875 135.30859375 358.8046875 183.73828125 382.8046875 183.73828125" stroke-miterlimit="10" stroke-dasharray=""/><path fill="none" stroke="#505050" paint-order="fill stroke markers" d=" M 1241.75 158.0078125 C 1265.75 158.0078125 1253.8515625 210.34375 1277.8515625 210.34375" stroke-miterlimit="10" stroke-dasharray=""/><path fill="none" stroke="#505050" paint-order="fill stroke markers" d=" M 1230.78125 191.421875 C 1254.78125 191.421875 1253.8515625 222.34375 1277.8515625 222.34375" stroke-miterlimit="10" stroke-dasharray=""/><path fill="none" stroke="#505050" paint-order="fill stroke markers" d=" M 1222.87890625 226.2421875 C 1246.87890625 226.2421875 1253.8515625 234.34375 1277.8515625 234.34375" stroke-miterlimit="10" stroke-dasharray=""/><path fill="none" stroke="#505050" paint-order="fill stroke markers" d=" M 1229.7734375 257.94140625 C 1253.7734375 257.94140625 1253.8515625 246.34375 1277.8515625 246.34375" stroke-miterlimit="10" stroke-dasharray=""/><path fill="none" stroke="#505050" paint-order="fill stroke markers" d=" M 1234.4765625 290.26953125 C 1258.4765625 290.26953125 1253.8515625 258.34375 1277.8515625 258.34375" stroke-miterlimit="10" stroke-dasharray=""/><path fill="none" stroke="#505050" paint-order="fill stroke markers" d=" M 854.01171875 71.5234375 C 878.01171875 71.5234375 859.1015625 86.26953125 883.1015625 86.26953125" stroke-miterlimit="10" stroke-dasharray=""/><path fill="none" stroke="#505050" paint-order="fill stroke markers" d=" M 789.7578125 104.1796875 C 813.7578125 104.1796875 798.01171875 83.5234375 822.01171875 83.5234375" stroke-miterlimit="10" stroke-dasharray=""/><path fill="none" stroke="#505050" paint-order="fill stroke markers" d=" M 788.0390625 66.78515625 C 812.0390625 66.78515625 798.01171875 71.5234375 822.01171875 71.5234375" stroke-miterlimit="10" stroke-dasharray=""/><path fill="none" stroke="#505050" paint-order="fill stroke markers" d=" M 853.015625 181.21875 C 877.015625 181.21875 858.10546875 195.96484375 882.10546875 195.96484375" stroke-miterlimit="10" stroke-dasharray=""/><path fill="none" stroke="#505050" paint-order="fill stroke markers" d=" M 788.76171875 213.875 C 812.76171875 213.875 797.015625 193.21875 821.015625 193.21875" stroke-miterlimit="10" stroke-dasharray=""/><path fill="none" stroke="#505050" paint-order="fill stroke markers" d=" M 787.04296875 176.48046875 C 811.04296875 176.48046875 797.015625 181.21875 821.015625 181.21875" stroke-miterlimit="10" stroke-dasharray=""/><path fill="none" stroke="#505050" paint-order="fill stroke markers" d=" M 859.0703125 325.390625 C 883.0703125 325.390625 867.0703125 337.390625 891.0703125 337.390625" stroke-miterlimit="10" stroke-dasharray=""/><path fill="none" stroke="#505050" paint-order="fill stroke markers" d=" M 819.0703125 361.390625 C 843.0703125 361.390625 803.0703125 349.390625 827.0703125 349.390625" stroke-miterlimit="10" stroke-dasharray=""/><path fill="none" stroke="#505050" paint-order="fill stroke markers" d=" M 819.0703125 337.390625 C 843.0703125 337.390625 803.0703125 325.390625 827.0703125 325.390625" stroke-miterlimit="10" stroke-dasharray=""/><path fill="none" stroke="#505050" paint-order="fill stroke markers" d=" M 803.6640625 303.1953125 C 827.6640625 303.1953125 803.0703125 337.390625 827.0703125 337.390625" stroke-miterlimit="10" stroke-dasharray=""/><path fill="none" stroke="#505050" paint-order="fill stroke markers" d=" M 763.6640625 339.1953125 C 787.6640625 339.1953125 747.6640625 327.1953125 771.6640625 327.1953125" stroke-miterlimit="10" stroke-dasharray=""/><path fill="none" stroke="#505050" paint-order="fill stroke markers" d=" M 763.6640625 327.1953125 C 787.6640625 327.1953125 747.6640625 315.1953125 771.6640625 315.1953125" stroke-miterlimit="10" stroke-dasharray=""/><path fill="none" stroke="#505050" paint-order="fill stroke markers" d=" M 763.6640625 315.1953125 C 787.6640625 315.1953125 747.6640625 303.1953125 771.6640625 303.1953125" stroke-miterlimit="10" stroke-dasharray=""/></g></g></svg>