<svg version="1.1" xmlns="http://www.w3.org/2000/svg" xmlns:xlink="http://www.w3.org/1999/xlink" width="691.9289245605469" height="400.41326904296875"><defs/><g transform="translate(-255.16720581054688,-64.5)"><g><path fill="white" stroke="#505050" paint-order="fill stroke markers" d=" M 302.11328125 73.5 L 302.11328125 154.7578125 Q 302.11328125 162.7578125 310.11328125 162.7578125 L 467.1171875 162.7578125 Q 475.1171875 162.7578125 475.1171875 154.7578125 L 475.1171875 73.5 Q 475.1171875 65.5 467.1171875 65.5 L 310.11328125 65.5 Q 302.11328125 65.5 302.11328125 73.5" stroke-miterlimit="10" stroke-width="0.5" stroke-dasharray=""/><path fill="#F0F0F0" stroke="#505050" paint-order="fill stroke markers" d=" M 434.1171875 124.7578125 L 467.1171875 124.7578125 L 467.1171875 154.7578125 L 434.1171875 154.7578125 L 434.1171875 124.7578125 Z" stroke-miterlimit="10" stroke-width="0.5" stroke-dasharray=""/><text fill="#505050" stroke="none" font-family="monospace" font-size="14px" font-style="normal" font-weight="normal" text-decoration="normal" x="450.6171875" y="142.7578125" text-anchor="middle" dominant-baseline="text-after-edge">&lt; 0</text><path fill="none" stroke="#505050" paint-order="fill stroke markers" d=" M 434.1171875 142.7578125 L 442.1171875 142.7578125 L 442.1171875 150.7578125 L 434.1171875 150.7578125 L 434.1171875 142.7578125 Z" stroke-miterlimit="10" stroke-width="0.5" stroke-dasharray=""/><path fill="none" stroke="#505050" paint-order="fill stroke markers" d=" M 459.1171875 142.7578125 L 467.1171875 142.7578125 L 467.1171875 150.7578125 L 459.1171875 150.7578125 L 459.1171875 142.7578125 Z" stroke-miterlimit="10" stroke-width="0.5" stroke-dasharray=""/><path fill="white" stroke="#505050" paint-order="fill stroke markers" d=" M 387.90625 73.5 L 419.90625 73.5 L 419.90625 115.5 L 387.90625 115.5 L 387.90625 73.5 Z" stroke-miterlimit="10" stroke-width="0.5" stroke-dasharray=""/><text fill="#505050" stroke="none" font-family="monospace" font-size="14px" font-style="normal" font-weight="normal" text-decoration="normal" x="403.90625" y="91.5" text-anchor="middle" dominant-baseline="text-after-edge">&lt;</text><path fill="none" stroke="#505050" paint-order="fill stroke markers" d=" M 387.90625 91.5 L 395.90625 91.5 L 395.90625 99.5 L 387.90625 99.5 L 387.90625 91.5 Z" stroke-miterlimit="10" stroke-width="0.5" stroke-dasharray=""/><path fill="none" stroke="#505050" paint-order="fill stroke markers" d=" M 387.90625 103.5 L 395.90625 103.5 L 395.90625 111.5 L 387.90625 111.5 L 387.90625 103.5 Z" stroke-miterlimit="10" stroke-width="0.5" stroke-dasharray=""/><path fill="none" stroke="#505050" paint-order="fill stroke markers" d=" M 411.90625 91.5 L 419.90625 91.5 L 419.90625 99.5 L 411.90625 99.5 L 411.90625 91.5 Z" stroke-miterlimit="10" stroke-width="0.5" stroke-dasharray=""/><path fill="white" stroke="#505050" paint-order="fill stroke markers" d=" M 410.1171875 124.7578125 L 418.1171875 124.7578125 L 426.1171875 132.7578125 L 418.1171875 140.7578125 L 410.1171875 140.7578125 L 410.1171875 124.7578125" stroke-miterlimit="10" stroke-width="0.5" stroke-dasharray=""/><path fill="none" stroke="#505050" paint-order="fill stroke markers" d=" M 410.1171875 128.7578125 L 418.1171875 128.7578125 L 418.1171875 136.7578125 L 410.1171875 136.7578125 L 410.1171875 128.7578125 Z" stroke-miterlimit="10" stroke-width="0.5" stroke-dasharray=""/><path fill="white" stroke="#505050" paint-order="fill stroke markers" d=" M 324.875 114.7109375 L 364.875 114.7109375 L 364.875 132.7109375 L 324.875 132.7109375 L 324.875 114.7109375 Z" stroke-miterlimit="10" stroke-width="0.5" stroke-dasharray=""/><path fill="none" stroke="#505050" paint-order="fill stroke markers" d=" M 356.875 119.7109375 L 364.875 119.7109375 L 364.875 127.7109375 L 356.875 127.7109375 L 356.875 119.7109375 Z" stroke-miterlimit="10" stroke-width="0.5" stroke-dasharray=""/><text fill="#505050" stroke="none" font-family="monospace" font-size="14px" font-style="normal" font-weight="normal" text-decoration="normal" x="348.875" y="132.7109375" text-anchor="end" dominant-baseline="text-after-edge">0</text><path fill="white" stroke="#505050" paint-order="fill stroke markers" d=" M 347.12890625 74.89453125 L 363.12890625 74.89453125 L 363.12890625 90.89453125 L 347.12890625 90.89453125 L 355.12890625 82.89453125 L 347.12890625 74.89453125" stroke-miterlimit="10" stroke-width="0.5" stroke-dasharray=""/><path fill="none" stroke="#505050" paint-order="fill stroke markers" d=" M 355.12890625 78.89453125 L 363.12890625 78.89453125 L 363.12890625 86.89453125 L 355.12890625 86.89453125 L 355.12890625 78.89453125 Z" stroke-miterlimit="10" stroke-width="0.5" stroke-dasharray=""/><path fill="white" stroke="#505050" paint-order="fill stroke markers" d=" M 301.11328125 199.953125 L 301.11328125 281.2109375 Q 301.11328125 289.2109375 309.11328125 289.2109375 L 470.2359619140625 289.2109375 Q 478.2359619140625 289.2109375 478.2359619140625 281.2109375 L 478.2359619140625 199.953125 Q 478.2359619140625 191.953125 470.2359619140625 191.953125 L 309.11328125 191.953125 Q 301.11328125 191.953125 301.11328125 199.953125" stroke-miterlimit="10" stroke-width="0.5" stroke-dasharray=""/><path fill="#F0F0F0" stroke="#505050" paint-order="fill stroke markers" d=" M 437.2359619140625 251.2109375 L 470.2359619140625 251.2109375 L 470.2359619140625 281.2109375 L 437.2359619140625 281.2109375 L 437.2359619140625 251.2109375 Z" stroke-miterlimit="10" stroke-width="0.5" stroke-dasharray=""/><text fill="#505050" stroke="none" font-family="monospace" font-size="14px" font-style="normal" font-weight="normal" text-decoration="normal" x="453.7359619140625" y="269.2109375" text-anchor="middle" dominant-baseline="text-after-edge">&gt; 0</text><path fill="none" stroke="#505050" paint-order="fill stroke markers" d=" M 437.2359619140625 269.2109375 L 445.2359619140625 269.2109375 L 445.2359619140625 277.2109375 L 437.2359619140625 277.2109375 L 437.2359619140625 269.2109375 Z" stroke-miterlimit="10" stroke-width="0.5" stroke-dasharray=""/><path fill="none" stroke="#505050" paint-order="fill stroke markers" d=" M 462.2359619140625 269.2109375 L 470.2359619140625 269.2109375 L 470.2359619140625 277.2109375 L 462.2359619140625 277.2109375 L 462.2359619140625 269.2109375 Z" stroke-miterlimit="10" stroke-width="0.5" stroke-dasharray=""/><path fill="white" stroke="#505050" paint-order="fill stroke markers" d=" M 386.90625 199.953125 L 418.90625 199.953125 L 418.90625 241.953125 L 386.90625 241.953125 L 386.90625 199.953125 Z" stroke-miterlimit="10" stroke-width="0.5" stroke-dasharray=""/><text fill="#505050" stroke="none" font-family="monospace" font-size="14px" font-style="normal" font-weight="normal" text-decoration="normal" x="402.90625" y="217.953125" text-anchor="middle" dominant-baseline="text-after-edge">&gt;</text><path fill="none" stroke="#505050" paint-order="fill stroke markers" d=" M 386.90625 217.953125 L 394.90625 217.953125 L 394.90625 225.953125 L 386.90625 225.953125 L 386.90625 217.953125 Z" stroke-miterlimit="10" stroke-width="0.5" stroke-dasharray=""/><path fill="none" stroke="#505050" paint-order="fill stroke markers" d=" M 386.90625 229.953125 L 394.90625 229.953125 L 394.90625 237.953125 L 386.90625 237.953125 L 386.90625 229.953125 Z" stroke-miterlimit="10" stroke-width="0.5" stroke-dasharray=""/><path fill="none" stroke="#505050" paint-order="fill stroke markers" d=" M 410.90625 217.953125 L 418.90625 217.953125 L 418.90625 225.953125 L 410.90625 225.953125 L 410.90625 217.953125 Z" stroke-miterlimit="10" stroke-width="0.5" stroke-dasharray=""/><path fill="white" stroke="#505050" paint-order="fill stroke markers" d=" M 409.1171875 251.2109375 L 417.1171875 251.2109375 L 425.1171875 259.2109375 L 417.1171875 267.2109375 L 409.1171875 267.2109375 L 409.1171875 251.2109375" stroke-miterlimit="10" stroke-width="0.5" stroke-dasharray=""/><path fill="none" stroke="#505050" paint-order="fill stroke markers" d=" M 409.1171875 255.2109375 L 417.1171875 255.2109375 L 417.1171875 263.2109375 L 409.1171875 263.2109375 L 409.1171875 255.2109375 Z" stroke-miterlimit="10" stroke-width="0.5" stroke-dasharray=""/><path fill="white" stroke="#505050" paint-order="fill stroke markers" d=" M 323.875 241.1640625 L 363.875 241.1640625 L 363.875 259.1640625 L 323.875 259.1640625 L 323.875 241.1640625 Z" stroke-miterlimit="10" stroke-width="0.5" stroke-dasharray=""/><path fill="none" stroke="#505050" paint-order="fill stroke markers" d=" M 355.875 246.1640625 L 363.875 246.1640625 L 363.875 254.1640625 L 355.875 254.1640625 L 355.875 246.1640625 Z" stroke-miterlimit="10" stroke-width="0.5" stroke-dasharray=""/><text fill="#505050" stroke="none" font-family="monospace" font-size="14px" font-style="normal" font-weight="normal" text-decoration="normal" x="347.875" y="259.1640625" text-anchor="end" dominant-baseline="text-after-edge">0</text><path fill="white" stroke="#505050" paint-order="fill stroke markers" d=" M 346.12890625 201.34765625 L 362.12890625 201.34765625 L 362.12890625 217.34765625 L 346.12890625 217.34765625 L 354.12890625 209.34765625 L 346.12890625 201.34765625" stroke-miterlimit="10" stroke-width="0.5" stroke-dasharray=""/><path fill="none" stroke="#505050" paint-order="fill stroke markers" d=" M 354.12890625 205.34765625 L 362.12890625 205.34765625 L 362.12890625 213.34765625 L 354.12890625 213.34765625 L 354.12890625 205.34765625 Z" stroke-miterlimit="10" stroke-width="0.5" stroke-dasharray=""/><path fill="white" stroke="#505050" paint-order="fill stroke markers" d=" M 256.1672058105469 323.09295654296875 L 256.1672058105469 455.91326904296875 Q 256.1672058105469 463.91326904296875 264.1672058105469 463.91326904296875 L 499.3547058105469 463.91326904296875 Q 507.3547058105469 463.91326904296875 507.3547058105469 455.91326904296875 L 507.3547058105469 323.09295654296875 Q 507.3547058105469 315.09295654296875 499.3547058105469 315.09295654296875 L 264.1672058105469 315.09295654296875 Q 256.1672058105469 315.09295654296875 256.1672058105469 323.09295654296875" stroke-miterlimit="10" stroke-width="0.5" stroke-dasharray=""/><path fill="#F0F0F0" stroke="#505050" paint-order="fill stroke markers" d=" M 467.3547058105469 377.91326904296875 L 499.3547058105469 377.91326904296875 L 499.3547058105469 455.91326904296875 L 467.3547058105469 455.91326904296875 L 467.3547058105469 377.91326904296875 Z" stroke-miterlimit="10" stroke-width="0.5" stroke-dasharray=""/><text fill="#505050" stroke="none" font-family="monospace" font-size="14px" font-style="normal" font-weight="normal" text-decoration="normal" x="483.3547058105469" y="395.91326904296875" text-anchor="middle" dominant-baseline="text-after-edge">?</text><path fill="none" stroke="#505050" paint-order="fill stroke markers" d=" M 467.3547058105469 395.91326904296875 L 475.3547058105469 395.91326904296875 L 475.3547058105469 403.91326904296875 L 467.3547058105469 403.91326904296875 L 467.3547058105469 395.91326904296875 Z" stroke-miterlimit="10" stroke-width="0.5" stroke-dasharray=""/><path fill="none" stroke="#505050" paint-order="fill stroke markers" d=" M 467.3547058105469 407.91326904296875 L 475.3547058105469 407.91326904296875 L 475.3547058105469 415.91326904296875 L 467.3547058105469 415.91326904296875 L 467.3547058105469 407.91326904296875 Z" stroke-miterlimit="10" stroke-width="0.5" stroke-dasharray=""/><path fill="none" stroke="#505050" paint-order="fill stroke markers" d=" M 467.3547058105469 419.91326904296875 L 475.3547058105469 419.91326904296875 L 475.3547058105469 427.91326904296875 L 467.3547058105469 427.91326904296875 L 467.3547058105469 419.91326904296875 Z" stroke-miterlimit="10" stroke-width="0.5" stroke-dasharray=""/><path fill="none" stroke="#505050" paint-order="fill stroke markers" d=" M 467.3547058105469 431.91326904296875 L 475.3547058105469 431.91326904296875 L 475.3547058105469 439.91326904296875 L 467.3547058105469 439.91326904296875 L 467.3547058105469 431.91326904296875 Z" stroke-miterlimit="10" stroke-width="0.5" stroke-dasharray=""/><path fill="none" stroke="#505050" paint-order="fill stroke markers" d=" M 467.3547058105469 443.91326904296875 L 475.3547058105469 443.91326904296875 L 475.3547058105469 451.91326904296875 L 467.3547058105469 451.91326904296875 L 467.3547058105469 443.91326904296875 Z" stroke-miterlimit="10" stroke-width="0.5" stroke-dasharray=""/><path fill="none" stroke="#505050" paint-order="fill stroke markers" d=" M 491.3547058105469 395.91326904296875 L 499.3547058105469 395.91326904296875 L 499.3547058105469 403.91326904296875 L 491.3547058105469 403.91326904296875 L 491.3547058105469 395.91326904296875 Z" stroke-miterlimit="10" stroke-width="0.5" stroke-dasharray=""/><path fill="white" stroke="#505050" paint-order="fill stroke markers" d=" M 435.3547058105469 336.64373779296875 L 443.3547058105469 336.64373779296875 L 451.3547058105469 344.64373779296875 L 443.3547058105469 352.64373779296875 L 435.3547058105469 352.64373779296875 L 435.3547058105469 336.64373779296875" stroke-miterlimit="10" stroke-width="0.5" stroke-dasharray=""/><path fill="none" stroke="#505050" paint-order="fill stroke markers" d=" M 435.3547058105469 340.64373779296875 L 443.3547058105469 340.64373779296875 L 443.3547058105469 348.64373779296875 L 435.3547058105469 348.64373779296875 L 435.3547058105469 340.64373779296875 Z" stroke-miterlimit="10" stroke-width="0.5" stroke-dasharray=""/><path fill="white" stroke="#505050" paint-order="fill stroke markers" d=" M 378.3234558105469 323.09295654296875 L 410.3234558105469 323.09295654296875 L 410.3234558105469 377.09295654296875 L 378.3234558105469 377.09295654296875 L 378.3234558105469 323.09295654296875 Z" stroke-miterlimit="10" stroke-width="0.5" stroke-dasharray=""/><text fill="#505050" stroke="none" font-family="monospace" font-size="14px" font-style="normal" font-weight="normal" text-decoration="normal" x="394.3234558105469" y="341.09295654296875" text-anchor="middle" dominant-baseline="text-after-edge">?</text><path fill="none" stroke="#505050" paint-order="fill stroke markers" d=" M 378.3234558105469 341.09295654296875 L 386.3234558105469 341.09295654296875 L 386.3234558105469 349.09295654296875 L 378.3234558105469 349.09295654296875 L 378.3234558105469 341.09295654296875 Z" stroke-miterlimit="10" stroke-width="0.5" stroke-dasharray=""/><path fill="none" stroke="#505050" paint-order="fill stroke markers" d=" M 378.3234558105469 353.09295654296875 L 386.3234558105469 353.09295654296875 L 386.3234558105469 361.09295654296875 L 378.3234558105469 361.09295654296875 L 378.3234558105469 353.09295654296875 Z" stroke-miterlimit="10" stroke-width="0.5" stroke-dasharray=""/><path fill="none" stroke="#505050" paint-order="fill stroke markers" d=" M 378.3234558105469 365.09295654296875 L 386.3234558105469 365.09295654296875 L 386.3234558105469 373.09295654296875 L 378.3234558105469 373.09295654296875 L 378.3234558105469 365.09295654296875 Z" stroke-miterlimit="10" stroke-width="0.5" stroke-dasharray=""/><path fill="none" stroke="#505050" paint-order="fill stroke markers" d=" M 402.3234558105469 341.09295654296875 L 410.3234558105469 341.09295654296875 L 410.3234558105469 349.09295654296875 L 402.3234558105469 349.09295654296875 L 402.3234558105469 341.09295654296875 Z" stroke-miterlimit="10" stroke-width="0.5" stroke-dasharray=""/><path fill="white" stroke="#505050" paint-order="fill stroke markers" d=" M 284.6047058105469 343.21795654296875 L 300.6047058105469 343.21795654296875 L 300.6047058105469 359.21795654296875 L 284.6047058105469 359.21795654296875 L 292.6047058105469 351.21795654296875 L 284.6047058105469 343.21795654296875" stroke-miterlimit="10" stroke-width="0.5" stroke-dasharray=""/><path fill="none" stroke="#505050" paint-order="fill stroke markers" d=" M 292.6047058105469 347.21795654296875 L 300.6047058105469 347.21795654296875 L 300.6047058105469 355.21795654296875 L 292.6047058105469 355.21795654296875 L 292.6047058105469 347.21795654296875 Z" stroke-miterlimit="10" stroke-width="0.5" stroke-dasharray=""/><path fill="white" stroke="#505050" paint-order="fill stroke markers" d=" M 309.2297058105469 366.76092529296875 L 341.2297058105469 366.76092529296875 L 341.2297058105469 420.76092529296875 L 309.2297058105469 420.76092529296875 L 309.2297058105469 366.76092529296875 Z" stroke-miterlimit="10" stroke-width="0.5" stroke-dasharray=""/><text fill="#505050" stroke="none" font-family="monospace" font-size="14px" font-style="normal" font-weight="normal" text-decoration="normal" x="325.2297058105469" y="384.76092529296875" text-anchor="middle" dominant-baseline="text-after-edge">?</text><path fill="none" stroke="#505050" paint-order="fill stroke markers" d=" M 309.2297058105469 384.76092529296875 L 317.2297058105469 384.76092529296875 L 317.2297058105469 392.76092529296875 L 309.2297058105469 392.76092529296875 L 309.2297058105469 384.76092529296875 Z" stroke-miterlimit="10" stroke-width="0.5" stroke-dasharray=""/><path fill="none" stroke="#505050" paint-order="fill stroke markers" d=" M 309.2297058105469 396.76092529296875 L 317.2297058105469 396.76092529296875 L 317.2297058105469 404.76092529296875 L 309.2297058105469 404.76092529296875 L 309.2297058105469 396.76092529296875 Z" stroke-miterlimit="10" stroke-width="0.5" stroke-dasharray=""/><path fill="none" stroke="#505050" paint-order="fill stroke markers" d=" M 309.2297058105469 408.76092529296875 L 317.2297058105469 408.76092529296875 L 317.2297058105469 416.76092529296875 L 309.2297058105469 416.76092529296875 L 309.2297058105469 408.76092529296875 Z" stroke-miterlimit="10" stroke-width="0.5" stroke-dasharray=""/><path fill="none" stroke="#505050" paint-order="fill stroke markers" d=" M 333.2297058105469 384.76092529296875 L 341.2297058105469 384.76092529296875 L 341.2297058105469 392.76092529296875 L 333.2297058105469 392.76092529296875 L 333.2297058105469 384.76092529296875 Z" stroke-miterlimit="10" stroke-width="0.5" stroke-dasharray=""/><path fill="white" stroke="#505050" paint-order="fill stroke markers" d=" M 264.4836120605469 427.91326904296875 L 280.4836120605469 427.91326904296875 L 280.4836120605469 443.91326904296875 L 264.4836120605469 443.91326904296875 L 272.4836120605469 435.91326904296875 L 264.4836120605469 427.91326904296875" stroke-miterlimit="10" stroke-width="0.5" stroke-dasharray=""/><path fill="none" stroke="#505050" paint-order="fill stroke markers" d=" M 272.4836120605469 431.91326904296875 L 280.4836120605469 431.91326904296875 L 280.4836120605469 439.91326904296875 L 272.4836120605469 439.91326904296875 L 272.4836120605469 431.91326904296875 Z" stroke-miterlimit="10" stroke-width="0.5" stroke-dasharray=""/><path fill="white" stroke="#505050" paint-order="fill stroke markers" d=" M 264.5968933105469 401.70233154296875 L 280.5968933105469 401.70233154296875 L 280.5968933105469 417.70233154296875 L 264.5968933105469 417.70233154296875 L 272.5968933105469 409.70233154296875 L 264.5968933105469 401.70233154296875" stroke-miterlimit="10" stroke-width="0.5" stroke-dasharray=""/><path fill="none" stroke="#505050" paint-order="fill stroke markers" d=" M 272.5968933105469 405.70233154296875 L 280.5968933105469 405.70233154296875 L 280.5968933105469 413.70233154296875 L 272.5968933105469 413.70233154296875 L 272.5968933105469 405.70233154296875 Z" stroke-miterlimit="10" stroke-width="0.5" stroke-dasharray=""/><path fill="white" stroke="#505050" paint-order="fill stroke markers" d=" M 261.2492370605469 375.90155029296875 L 277.2492370605469 375.90155029296875 L 277.2492370605469 391.90155029296875 L 261.2492370605469 391.90155029296875 L 269.2492370605469 383.90155029296875 L 261.2492370605469 375.90155029296875" stroke-miterlimit="10" stroke-width="0.5" stroke-dasharray=""/><path fill="none" stroke="#505050" paint-order="fill stroke markers" d=" M 269.2492370605469 379.90155029296875 L 277.2492370605469 379.90155029296875 L 277.2492370605469 387.90155029296875 L 269.2492370605469 387.90155029296875 L 269.2492370605469 379.90155029296875 Z" stroke-miterlimit="10" stroke-width="0.5" stroke-dasharray=""/><path fill="white" stroke="#505050" paint-order="fill stroke markers" d=" M 314.8586120605469 322.65155029296875 L 330.8586120605469 322.65155029296875 L 330.8586120605469 338.65155029296875 L 314.8586120605469 338.65155029296875 L 322.8586120605469 330.65155029296875 L 314.8586120605469 322.65155029296875" stroke-miterlimit="10" stroke-width="0.5" stroke-dasharray=""/><path fill="none" stroke="#505050" paint-order="fill stroke markers" d=" M 322.8586120605469 326.65155029296875 L 330.8586120605469 326.65155029296875 L 330.8586120605469 334.65155029296875 L 322.8586120605469 334.65155029296875 L 322.8586120605469 326.65155029296875 Z" stroke-miterlimit="10" stroke-width="0.5" stroke-dasharray=""/><path fill="white" stroke="#505050" paint-order="fill stroke markers" d=" M 548.7172241210938 180.48748779296875 L 548.7172241210938 336.49920654296875 Q 548.7172241210938 344.49920654296875 556.7172241210938 344.49920654296875 L 938.0961303710938 344.49920654296875 Q 946.0961303710938 344.49920654296875 946.0961303710938 336.49920654296875 L 946.0961303710938 180.48748779296875 Q 946.0961303710938 172.48748779296875 938.0961303710938 172.48748779296875 L 556.7172241210938 172.48748779296875 Q 548.7172241210938 172.48748779296875 548.7172241210938 180.48748779296875" stroke-miterlimit="10" stroke-width="0.5" stroke-dasharray=""/><path fill="#F0F0F0" stroke="#505050" paint-order="fill stroke markers" d=" M 905.0961303710938 306.49920654296875 L 938.0961303710938 306.49920654296875 L 938.0961303710938 336.49920654296875 L 905.0961303710938 336.49920654296875 L 905.0961303710938 306.49920654296875 Z" stroke-miterlimit="10" stroke-width="0.5" stroke-dasharray=""/><text fill="#505050" stroke="none" font-family="monospace" font-size="14px" font-style="normal" font-weight="normal" text-decoration="normal" x="921.5961303710938" y="324.49920654296875" text-anchor="middle" dominant-baseline="text-after-edge">sgn</text><path fill="none" stroke="#505050" paint-order="fill stroke markers" d=" M 905.0961303710938 324.49920654296875 L 913.0961303710938 324.49920654296875 L 913.0961303710938 332.49920654296875 L 905.0961303710938 332.49920654296875 L 905.0961303710938 324.49920654296875 Z" stroke-miterlimit="10" stroke-width="0.5" stroke-dasharray=""/><path fill="none" stroke="#505050" paint-order="fill stroke markers" d=" M 930.0961303710938 324.49920654296875 L 938.0961303710938 324.49920654296875 L 938.0961303710938 332.49920654296875 L 930.0961303710938 332.49920654296875 L 930.0961303710938 324.49920654296875 Z" stroke-miterlimit="10" stroke-width="0.5" stroke-dasharray=""/><path fill="white" stroke="#505050" paint-order="fill stroke markers" d=" M 556.7172241210938 218.77655029296875 L 572.7172241210938 218.77655029296875 L 572.7172241210938 234.77655029296875 L 556.7172241210938 234.77655029296875 L 564.7172241210938 226.77655029296875 L 556.7172241210938 218.77655029296875" stroke-miterlimit="10" stroke-width="0.5" stroke-dasharray=""/><path fill="none" stroke="#505050" paint-order="fill stroke markers" d=" M 564.7172241210938 222.77655029296875 L 572.7172241210938 222.77655029296875 L 572.7172241210938 230.77655029296875 L 564.7172241210938 230.77655029296875 L 564.7172241210938 222.77655029296875 Z" stroke-miterlimit="10" stroke-width="0.5" stroke-dasharray=""/><path fill="white" stroke="#505050" paint-order="fill stroke markers" d=" M 648.7836303710938 240.76092529296875 L 681.7836303710938 240.76092529296875 L 681.7836303710938 270.76092529296875 L 648.7836303710938 270.76092529296875 L 648.7836303710938 240.76092529296875 Z" stroke-miterlimit="10" stroke-width="0.5" stroke-dasharray=""/><text fill="#505050" stroke="none" font-family="monospace" font-size="14px" font-style="normal" font-weight="normal" text-decoration="normal" x="665.2836303710938" y="258.76092529296875" text-anchor="middle" dominant-baseline="text-after-edge">&gt; 0</text><path fill="none" stroke="#505050" paint-order="fill stroke markers" d=" M 648.7836303710938 258.76092529296875 L 656.7836303710938 258.76092529296875 L 656.7836303710938 266.76092529296875 L 648.7836303710938 266.76092529296875 L 648.7836303710938 258.76092529296875 Z" stroke-miterlimit="10" stroke-width="0.5" stroke-dasharray=""/><path fill="none" stroke="#505050" paint-order="fill stroke markers" d=" M 673.7836303710938 258.76092529296875 L 681.7836303710938 258.76092529296875 L 681.7836303710938 266.76092529296875 L 673.7836303710938 266.76092529296875 L 673.7836303710938 258.76092529296875 Z" stroke-miterlimit="10" stroke-width="0.5" stroke-dasharray=""/><path fill="white" stroke="#505050" paint-order="fill stroke markers" d=" M 776.0961303710938 211.01873779296875 L 808.0961303710938 211.01873779296875 L 808.0961303710938 289.01873779296875 L 776.0961303710938 289.01873779296875 L 776.0961303710938 211.01873779296875 Z" stroke-miterlimit="10" stroke-width="0.5" stroke-dasharray=""/><text fill="#505050" stroke="none" font-family="monospace" font-size="14px" font-style="normal" font-weight="normal" text-decoration="normal" x="792.0961303710938" y="229.01873779296875" text-anchor="middle" dominant-baseline="text-after-edge">?</text><path fill="none" stroke="#505050" paint-order="fill stroke markers" d=" M 776.0961303710938 229.01873779296875 L 784.0961303710938 229.01873779296875 L 784.0961303710938 237.01873779296875 L 776.0961303710938 237.01873779296875 L 776.0961303710938 229.01873779296875 Z" stroke-miterlimit="10" stroke-width="0.5" stroke-dasharray=""/><path fill="none" stroke="#505050" paint-order="fill stroke markers" d=" M 776.0961303710938 241.01873779296875 L 784.0961303710938 241.01873779296875 L 784.0961303710938 249.01873779296875 L 776.0961303710938 249.01873779296875 L 776.0961303710938 241.01873779296875 Z" stroke-miterlimit="10" stroke-width="0.5" stroke-dasharray=""/><path fill="none" stroke="#505050" paint-order="fill stroke markers" d=" M 776.0961303710938 253.01873779296875 L 784.0961303710938 253.01873779296875 L 784.0961303710938 261.01873779296875 L 776.0961303710938 261.01873779296875 L 776.0961303710938 253.01873779296875 Z" stroke-miterlimit="10" stroke-width="0.5" stroke-dasharray=""/><path fill="none" stroke="#505050" paint-order="fill stroke markers" d=" M 776.0961303710938 265.01873779296875 L 784.0961303710938 265.01873779296875 L 784.0961303710938 273.01873779296875 L 776.0961303710938 273.01873779296875 L 776.0961303710938 265.01873779296875 Z" stroke-miterlimit="10" stroke-width="0.5" stroke-dasharray=""/><path fill="none" stroke="#505050" paint-order="fill stroke markers" d=" M 776.0961303710938 277.01873779296875 L 784.0961303710938 277.01873779296875 L 784.0961303710938 285.01873779296875 L 776.0961303710938 285.01873779296875 L 776.0961303710938 277.01873779296875 Z" stroke-miterlimit="10" stroke-width="0.5" stroke-dasharray=""/><path fill="none" stroke="#505050" paint-order="fill stroke markers" d=" M 800.0961303710938 229.01873779296875 L 808.0961303710938 229.01873779296875 L 808.0961303710938 237.01873779296875 L 800.0961303710938 237.01873779296875 L 800.0961303710938 229.01873779296875 Z" stroke-miterlimit="10" stroke-width="0.5" stroke-dasharray=""/><path fill="white" stroke="#505050" paint-order="fill stroke markers" d=" M 840.0961303710938 223.01873779296875 L 848.0961303710938 223.01873779296875 L 856.0961303710938 231.01873779296875 L 848.0961303710938 239.01873779296875 L 840.0961303710938 239.01873779296875 L 840.0961303710938 223.01873779296875" stroke-miterlimit="10" stroke-width="0.5" stroke-dasharray=""/><path fill="none" stroke="#505050" paint-order="fill stroke markers" d=" M 840.0961303710938 227.01873779296875 L 848.0961303710938 227.01873779296875 L 848.0961303710938 235.01873779296875 L 840.0961303710938 235.01873779296875 L 840.0961303710938 227.01873779296875 Z" stroke-miterlimit="10" stroke-width="0.5" stroke-dasharray=""/><path fill="white" stroke="#505050" paint-order="fill stroke markers" d=" M 669.6000366210938 306.49920654296875 L 709.6000366210938 306.49920654296875 L 709.6000366210938 324.49920654296875 L 669.6000366210938 324.49920654296875 L 669.6000366210938 306.49920654296875 Z" stroke-miterlimit="10" stroke-width="0.5" stroke-dasharray=""/><path fill="none" stroke="#505050" paint-order="fill stroke markers" d=" M 701.6000366210938 311.49920654296875 L 709.6000366210938 311.49920654296875 L 709.6000366210938 319.49920654296875 L 701.6000366210938 319.49920654296875 L 701.6000366210938 311.49920654296875 Z" stroke-miterlimit="10" stroke-width="0.5" stroke-dasharray=""/><text fill="#505050" stroke="none" font-family="monospace" font-size="14px" font-style="normal" font-weight="normal" text-decoration="normal" x="693.6000366210938" y="324.49920654296875" text-anchor="end" dominant-baseline="text-after-edge">0</text><path fill="white" stroke="#505050" paint-order="fill stroke markers" d=" M 672.8375244140625 279.08123779296875 L 712.8375244140625 279.08123779296875 L 712.8375244140625 297.08123779296875 L 672.8375244140625 297.08123779296875 L 672.8375244140625 279.08123779296875 Z" stroke-miterlimit="10" stroke-width="0.5" stroke-dasharray=""/><path fill="none" stroke="#505050" paint-order="fill stroke markers" d=" M 704.8375244140625 284.08123779296875 L 712.8375244140625 284.08123779296875 L 712.8375244140625 292.08123779296875 L 704.8375244140625 292.08123779296875 L 704.8375244140625 284.08123779296875 Z" stroke-miterlimit="10" stroke-width="0.5" stroke-dasharray=""/><text fill="#505050" stroke="none" font-family="monospace" font-size="14px" font-style="normal" font-weight="normal" text-decoration="normal" x="696.8375244140625" y="297.08123779296875" text-anchor="end" dominant-baseline="text-after-edge">1</text><path fill="white" stroke="#505050" paint-order="fill stroke markers" d=" M 660.393798828125 214.03201293945312 L 709.393798828125 214.03201293945312 L 709.393798828125 232.03201293945312 L 660.393798828125 232.03201293945312 L 660.393798828125 214.03201293945312 Z" stroke-miterlimit="10" stroke-width="0.5" stroke-dasharray=""/><path fill="none" stroke="#505050" paint-order="fill stroke markers" d=" M 701.393798828125 219.03201293945312 L 709.393798828125 219.03201293945312 L 709.393798828125 227.03201293945312 L 701.393798828125 227.03201293945312 L 701.393798828125 219.03201293945312 Z" stroke-miterlimit="10" stroke-width="0.5" stroke-dasharray=""/><text fill="#505050" stroke="none" font-family="monospace" font-size="14px" font-style="normal" font-weight="normal" text-decoration="normal" x="693.393798828125" y="232.03201293945312" text-anchor="end" dominant-baseline="text-after-edge">-1</text><path fill="white" stroke="#505050" paint-order="fill stroke markers" d=" M 644.4570922851562 176.77499389648438 L 677.4570922851562 176.77499389648438 L 677.4570922851562 206.77499389648438 L 644.4570922851562 206.77499389648438 L 644.4570922851562 176.77499389648438 Z" stroke-miterlimit="10" stroke-width="0.5" stroke-dasharray=""/><text fill="#505050" stroke="none" font-family="monospace" font-size="14px" font-style="normal" font-weight="normal" text-decoration="normal" x="660.9570922851562" y="194.77499389648438" text-anchor="middle" dominant-baseline="text-after-edge">&lt; 0</text><path fill="none" stroke="#505050" paint-order="fill stroke markers" d=" M 644.4570922851562 194.77499389648438 L 652.4570922851562 194.77499389648438 L 652.4570922851562 202.77499389648438 L 644.4570922851562 202.77499389648438 L 644.4570922851562 194.77499389648438 Z" stroke-miterlimit="10" stroke-width="0.5" stroke-dasharray=""/><path fill="none" stroke="#505050" paint-order="fill stroke markers" d=" M 669.4570922851562 194.77499389648438 L 677.4570922851562 194.77499389648438 L 677.4570922851562 202.77499389648438 L 669.4570922851562 202.77499389648438 L 669.4570922851562 194.77499389648438 Z" stroke-miterlimit="10" stroke-width="0.5" stroke-dasharray=""/><path fill="none" stroke="#505050" paint-order="fill stroke markers" d=" M 419.90625 95.5 C 443.90625 95.5 386.1171875 132.7578125 410.1171875 132.7578125" stroke-miterlimit="10" stroke-dasharray=""/><path fill="none" stroke="#505050" paint-order="fill stroke markers" d=" M 364.875 123.7109375 C 388.875 123.7109375 363.90625 107.5 387.90625 107.5" stroke-miterlimit="10" stroke-dasharray=""/><path fill="none" stroke="#505050" paint-order="fill stroke markers" d=" M 363.12890625 82.89453125 C 387.12890625 82.89453125 363.90625 95.5 387.90625 95.5" stroke-miterlimit="10" stroke-dasharray=""/><path fill="none" stroke="#505050" paint-order="fill stroke markers" d=" M 418.90625 221.953125 C 442.90625 221.953125 385.1171875 259.2109375 409.1171875 259.2109375" stroke-miterlimit="10" stroke-dasharray=""/><path fill="none" stroke="#505050" paint-order="fill stroke markers" d=" M 363.875 250.1640625 C 387.875 250.1640625 362.90625 233.953125 386.90625 233.953125" stroke-miterlimit="10" stroke-dasharray=""/><path fill="none" stroke="#505050" paint-order="fill stroke markers" d=" M 362.12890625 209.34765625 C 386.12890625 209.34765625 362.90625 221.953125 386.90625 221.953125" stroke-miterlimit="10" stroke-dasharray=""/><path fill="none" stroke="#505050" paint-order="fill stroke markers" d=" M 280.4836120605469 435.91326904296875 C 304.4836120605469 435.91326904296875 285.2297058105469 412.76092529296875 309.2297058105469 412.76092529296875" stroke-miterlimit="10" stroke-dasharray=""/><path fill="none" stroke="#505050" paint-order="fill stroke markers" d=" M 280.5968933105469 409.70233154296875 C 304.5968933105469 409.70233154296875 285.2297058105469 400.76092529296875 309.2297058105469 400.76092529296875" stroke-miterlimit="10" stroke-dasharray=""/><path fill="none" stroke="#505050" paint-order="fill stroke markers" d=" M 277.2492370605469 383.90155029296875 C 301.2492370605469 383.90155029296875 285.2297058105469 388.76092529296875 309.2297058105469 388.76092529296875" stroke-miterlimit="10" stroke-dasharray=""/><path fill="none" stroke="#505050" paint-order="fill stroke markers" d=" M 341.2297058105469 388.76092529296875 C 365.2297058105469 388.76092529296875 354.3234558105469 369.09295654296875 378.3234558105469 369.09295654296875" stroke-miterlimit="10" stroke-dasharray=""/><path fill="none" stroke="#505050" paint-order="fill stroke markers" d=" M 330.8586120605469 330.65155029296875 C 354.8586120605469 330.65155029296875 354.3234558105469 345.09295654296875 378.3234558105469 345.09295654296875" stroke-miterlimit="10" stroke-dasharray=""/><path fill="none" stroke="#505050" paint-order="fill stroke markers" d=" M 410.3234558105469 345.09295654296875 C 434.3234558105469 345.09295654296875 411.3547058105469 344.64373779296875 435.3547058105469 344.64373779296875" stroke-miterlimit="10" stroke-dasharray=""/><path fill="none" stroke="#505050" paint-order="fill stroke markers" d=" M 300.6047058105469 351.21795654296875 C 324.6047058105469 351.21795654296875 354.3234558105469 357.09295654296875 378.3234558105469 357.09295654296875" stroke-miterlimit="10" stroke-dasharray=""/><path fill="none" stroke="#505050" paint-order="fill stroke markers" d=" M 808.0961303710938 233.01873779296875 C 832.0961303710938 233.01873779296875 816.0961303710938 231.01873779296875 840.0961303710938 231.01873779296875" stroke-miterlimit="10" stroke-dasharray=""/><path fill="none" stroke="#505050" paint-order="fill stroke markers" d=" M 709.6000366210938 315.49920654296875 C 733.6000366210938 315.49920654296875 752.0961303710938 281.01873779296875 776.0961303710938 281.01873779296875" stroke-miterlimit="10" stroke-dasharray=""/><path fill="none" stroke="#505050" paint-order="fill stroke markers" d=" M 712.8375244140625 288.08123779296875 C 736.8375244140625 288.08123779296875 752.0961303710938 269.01873779296875 776.0961303710938 269.01873779296875" stroke-miterlimit="10" stroke-dasharray=""/><path fill="none" stroke="#505050" paint-order="fill stroke markers" d=" M 709.393798828125 223.03201293945312 C 733.393798828125 223.03201293945312 752.0961303710938 245.01873779296875 776.0961303710938 245.01873779296875" stroke-miterlimit="10" stroke-dasharray=""/><path fill="none" stroke="#505050" paint-order="fill stroke markers" d=" M 677.4570922851562 198.77499389648438 C 701.4570922851562 198.77499389648438 752.0961303710938 233.01873779296875 776.0961303710938 233.01873779296875" stroke-miterlimit="10" stroke-dasharray=""/><path fill="none" stroke="#505050" paint-order="fill stroke markers" d=" M 681.7836303710938 262.76092529296875 C 705.7836303710938 262.76092529296875 752.0961303710938 257.01873779296875 776.0961303710938 257.01873779296875" stroke-miterlimit="10" stroke-dasharray=""/><path fill="none" stroke="#505050" paint-order="fill stroke markers" d=" M 572.7172241210938 226.77655029296875 C 596.7172241210938 226.77655029296875 624.7836303710938 262.76092529296875 648.7836303710938 262.76092529296875" stroke-miterlimit="10" stroke-dasharray=""/><path fill="none" stroke="#505050" paint-order="fill stroke markers" d=" M 572.7172241210938 226.77655029296875 C 596.7172241210938 226.77655029296875 620.4570922851562 198.77499389648438 644.4570922851562 198.77499389648438" stroke-miterlimit="10" stroke-dasharray=""/></g></g></svg>