<svg version="1.1" xmlns="http://www.w3.org/2000/svg" xmlns:xlink="http://www.w3.org/1999/xlink" width="602.0563049316406" height="296.3687438964844"><defs/><g transform="translate(-333.0312530398369,-88.79062041640282)"><g><path fill="white" stroke="#505050" paint-order="fill stroke markers" d=" M 334.0312530398369 101.18437346816063 L 334.0312530398369 160.40312346816063 Q 334.0312530398369 168.40312346816063 342.0312530398369 168.40312346816063 L 461.56564635038376 168.40312346816063 Q 469.56564635038376 168.40312346816063 469.56564635038376 160.40312346816063 L 469.56564635038376 101.18437346816063 Q 469.56564635038376 93.18437346816063 461.56564635038376 93.18437346816063 L 342.0312530398369 93.18437346816063 Q 334.0312530398369 93.18437346816063 334.0312530398369 101.18437346816063" stroke-miterlimit="10" stroke-width="0.5" stroke-dasharray=""/><path fill="#F0F0F0" stroke="#505050" paint-order="fill stroke markers" d=" M 444.56564635038376 101.18437346816063 L 469.56564635038376 101.18437346816063 L 469.56564635038376 131.18437346816063 L 444.56564635038376 131.18437346816063 L 444.56564635038376 101.18437346816063 Z" stroke-miterlimit="10" stroke-width="0.5" stroke-dasharray=""/><text fill="#505050" stroke="none" font-family="monospace" font-size="14px" font-style="normal" font-weight="normal" text-decoration="normal" x="457.06564635038376" y="119.18437346816063" text-anchor="middle" dominant-baseline="text-after-edge">+1</text><path fill="none" stroke="#505050" paint-order="fill stroke markers" d=" M 444.56564635038376 119.18437346816063 L 452.56564635038376 119.18437346816063 L 452.56564635038376 127.18437346816063 L 444.56564635038376 127.18437346816063 L 444.56564635038376 119.18437346816063 Z" stroke-miterlimit="10" stroke-width="0.5" stroke-dasharray=""/><path fill="none" stroke="#505050" paint-order="fill stroke markers" d=" M 461.56564635038376 119.18437346816063 L 469.56564635038376 119.18437346816063 L 469.56564635038376 127.18437346816063 L 461.56564635038376 127.18437346816063 L 461.56564635038376 119.18437346816063 Z" stroke-miterlimit="10" stroke-width="0.5" stroke-dasharray=""/><path fill="white" stroke="#505050" paint-order="fill stroke markers" d=" M 385.5375091433525 97.95623931288719 L 409.5375091433525 97.95623931288719 L 409.5375091433525 139.9562393128872 L 385.5375091433525 139.9562393128872 L 385.5375091433525 97.95623931288719 Z" stroke-miterlimit="10" stroke-width="0.5" stroke-dasharray=""/><path fill="#F0F0F0" stroke="none" paint-order="stroke fill markers" d=""/><text fill="#505050" stroke="none" font-family="monospace" font-size="14px" font-style="normal" font-weight="normal" text-decoration="normal" x="397.5375091433525" y="115.95623931288719" text-anchor="middle" dominant-baseline="text-after-edge">+</text><path fill="none" stroke="#505050" paint-order="fill stroke markers" d=" M 385.5375091433525 115.95623931288719 L 393.5375091433525 115.95623931288719 L 393.5375091433525 123.95623931288719 L 385.5375091433525 123.95623931288719 L 385.5375091433525 115.95623931288719 Z" stroke-miterlimit="10" stroke-width="0.5" stroke-dasharray=""/><path fill="none" stroke="#505050" paint-order="fill stroke markers" d=" M 385.5375091433525 127.95623931288719 L 393.5375091433525 127.95623931288719 L 393.5375091433525 135.9562393128872 L 385.5375091433525 135.9562393128872 L 385.5375091433525 127.95623931288719 Z" stroke-miterlimit="10" stroke-width="0.5" stroke-dasharray=""/><path fill="none" stroke="#505050" paint-order="fill stroke markers" d=" M 401.5375091433525 115.95623931288719 L 409.5375091433525 115.95623931288719 L 409.5375091433525 123.95623931288719 L 401.5375091433525 123.95623931288719 L 401.5375091433525 115.95623931288719 Z" stroke-miterlimit="10" stroke-width="0.5" stroke-dasharray=""/><path fill="white" stroke="#505050" paint-order="fill stroke markers" d=" M 422.93435972929 112.48751220107079 L 430.93435972929 112.48751220107079 L 438.93435972929 120.48751220107079 L 430.93435972929 128.48751220107079 L 422.93435972929 128.48751220107079 L 422.93435972929 112.48751220107079" stroke-miterlimit="10" stroke-width="0.5" stroke-dasharray=""/><path fill="none" stroke="#505050" paint-order="fill stroke markers" d=" M 422.93435972929 116.48751220107079 L 430.93435972929 116.48751220107079 L 430.93435972929 124.48751220107079 L 422.93435972929 124.48751220107079 L 422.93435972929 116.48751220107079 Z" stroke-miterlimit="10" stroke-width="0.5" stroke-dasharray=""/><path fill="white" stroke="#505050" paint-order="fill stroke markers" d=" M 342.0312530398369 134.40312346816063 L 374.0312530398369 134.40312346816063 L 374.0312530398369 152.40312346816063 L 342.0312530398369 152.40312346816063 L 342.0312530398369 134.40312346816063 Z" stroke-miterlimit="10" stroke-width="0.5" stroke-dasharray=""/><path fill="#F0F0F0" stroke="none" paint-order="stroke fill markers" d=""/><path fill="none" stroke="#505050" paint-order="fill stroke markers" d=" M 366.0312530398369 139.40312346816063 L 374.0312530398369 139.40312346816063 L 374.0312530398369 147.40312346816063 L 366.0312530398369 147.40312346816063 L 366.0312530398369 139.40312346816063 Z" stroke-miterlimit="10" stroke-width="0.5" stroke-dasharray=""/><text fill="#505050" stroke="none" font-family="monospace" font-size="14px" font-style="normal" font-weight="normal" text-decoration="normal" x="358.0312530398369" y="152.40312346816063" text-anchor="end" dominant-baseline="text-after-edge">1</text><path fill="white" stroke="#505050" paint-order="fill stroke markers" d=" M 341.2875091433525 103.13437041640282 L 357.2875091433525 103.13437041640282 L 357.2875091433525 119.13437041640282 L 341.2875091433525 119.13437041640282 L 349.2875091433525 111.13437041640282 L 341.2875091433525 103.13437041640282" stroke-miterlimit="10" stroke-width="0.5" stroke-dasharray=""/><path fill="none" stroke="#505050" paint-order="fill stroke markers" d=" M 349.2875091433525 107.13437041640282 L 357.2875091433525 107.13437041640282 L 357.2875091433525 115.13437041640282 L 349.2875091433525 115.13437041640282 L 349.2875091433525 107.13437041640282 Z" stroke-miterlimit="10" stroke-width="0.5" stroke-dasharray=""/><path fill="white" stroke="#505050" paint-order="fill stroke markers" d=" M 494.2594329714775 97.79062041640282 L 494.2594329714775 157.00937041640282 Q 494.2594329714775 165.00937041640282 502.2594329714775 165.00937041640282 L 624.6438018679619 165.00937041640282 Q 632.6438018679619 165.00937041640282 632.6438018679619 157.00937041640282 L 632.6438018679619 97.79062041640282 Q 632.6438018679619 89.79062041640282 624.6438018679619 89.79062041640282 L 502.2594329714775 89.79062041640282 Q 494.2594329714775 89.79062041640282 494.2594329714775 97.79062041640282" stroke-miterlimit="10" stroke-width="0.5" stroke-dasharray=""/><path fill="#F0F0F0" stroke="#505050" paint-order="fill stroke markers" d=" M 607.6438018679619 97.79062041640282 L 632.6438018679619 97.79062041640282 L 632.6438018679619 127.79062041640282 L 607.6438018679619 127.79062041640282 L 607.6438018679619 97.79062041640282 Z" stroke-miterlimit="10" stroke-width="0.5" stroke-dasharray=""/><text fill="#505050" stroke="none" font-family="monospace" font-size="14px" font-style="normal" font-weight="normal" text-decoration="normal" x="620.1438018679619" y="115.79062041640282" text-anchor="middle" dominant-baseline="text-after-edge">-1</text><path fill="none" stroke="#505050" paint-order="fill stroke markers" d=" M 607.6438018679619 115.79062041640282 L 615.6438018679619 115.79062041640282 L 615.6438018679619 123.79062041640282 L 607.6438018679619 123.79062041640282 L 607.6438018679619 115.79062041640282 Z" stroke-miterlimit="10" stroke-width="0.5" stroke-dasharray=""/><path fill="none" stroke="#505050" paint-order="fill stroke markers" d=" M 624.6438018679619 115.79062041640282 L 632.6438018679619 115.79062041640282 L 632.6438018679619 123.79062041640282 L 624.6438018679619 123.79062041640282 L 624.6438018679619 115.79062041640282 Z" stroke-miterlimit="10" stroke-width="0.5" stroke-dasharray=""/><path fill="white" stroke="#505050" paint-order="fill stroke markers" d=" M 547.5563384890556 95.16874846816063 L 571.5563384890556 95.16874846816063 L 571.5563384890556 137.16874846816063 L 547.5563384890556 137.16874846816063 L 547.5563384890556 95.16874846816063 Z" stroke-miterlimit="10" stroke-width="0.5" stroke-dasharray=""/><path fill="#F0F0F0" stroke="none" paint-order="stroke fill markers" d=""/><text fill="#505050" stroke="none" font-family="monospace" font-size="14px" font-style="normal" font-weight="normal" text-decoration="normal" x="559.5563384890556" y="113.16874846816063" text-anchor="middle" dominant-baseline="text-after-edge">-</text><path fill="none" stroke="#505050" paint-order="fill stroke markers" d=" M 547.5563384890556 113.16874846816063 L 555.5563384890556 113.16874846816063 L 555.5563384890556 121.16874846816063 L 547.5563384890556 121.16874846816063 L 547.5563384890556 113.16874846816063 Z" stroke-miterlimit="10" stroke-width="0.5" stroke-dasharray=""/><path fill="none" stroke="#505050" paint-order="fill stroke markers" d=" M 547.5563384890556 125.16874846816063 L 555.5563384890556 125.16874846816063 L 555.5563384890556 133.16874846816063 L 547.5563384890556 133.16874846816063 L 547.5563384890556 125.16874846816063 Z" stroke-miterlimit="10" stroke-width="0.5" stroke-dasharray=""/><path fill="none" stroke="#505050" paint-order="fill stroke markers" d=" M 563.5563384890556 113.16874846816063 L 571.5563384890556 113.16874846816063 L 571.5563384890556 121.16874846816063 L 563.5563384890556 121.16874846816063 L 563.5563384890556 113.16874846816063 Z" stroke-miterlimit="10" stroke-width="0.5" stroke-dasharray=""/><path fill="white" stroke="#505050" paint-order="fill stroke markers" d=" M 582.9469024538994 109.15000304579735 L 590.9469024538994 109.15000304579735 L 598.9469024538994 117.15000304579735 L 590.9469024538994 125.15000304579735 L 582.9469024538994 125.15000304579735 L 582.9469024538994 109.15000304579735" stroke-miterlimit="10" stroke-width="0.5" stroke-dasharray=""/><path fill="none" stroke="#505050" paint-order="fill stroke markers" d=" M 582.9469024538994 113.15000304579735 L 590.9469024538994 113.15000304579735 L 590.9469024538994 121.15000304579735 L 582.9469024538994 121.15000304579735 L 582.9469024538994 113.15000304579735 Z" stroke-miterlimit="10" stroke-width="0.5" stroke-dasharray=""/><path fill="white" stroke="#505050" paint-order="fill stroke markers" d=" M 502.2594329714775 131.00937041640282 L 534.2594329714775 131.00937041640282 L 534.2594329714775 149.00937041640282 L 502.2594329714775 149.00937041640282 L 502.2594329714775 131.00937041640282 Z" stroke-miterlimit="10" stroke-width="0.5" stroke-dasharray=""/><path fill="#F0F0F0" stroke="none" paint-order="stroke fill markers" d=""/><path fill="none" stroke="#505050" paint-order="fill stroke markers" d=" M 526.2594329714775 136.00937041640282 L 534.2594329714775 136.00937041640282 L 534.2594329714775 144.00937041640282 L 526.2594329714775 144.00937041640282 L 526.2594329714775 136.00937041640282 Z" stroke-miterlimit="10" stroke-width="0.5" stroke-dasharray=""/><text fill="#505050" stroke="none" font-family="monospace" font-size="14px" font-style="normal" font-weight="normal" text-decoration="normal" x="518.2594329714775" y="149.00937041640282" text-anchor="end" dominant-baseline="text-after-edge">1</text><path fill="white" stroke="#505050" paint-order="fill stroke markers" d=" M 501.92816466093063 100.28437194228172 L 517.9281646609306 100.28437194228172 L 517.9281646609306 116.28437194228172 L 501.92816466093063 116.28437194228172 L 509.92816466093063 108.28437194228172 L 501.92816466093063 100.28437194228172" stroke-miterlimit="10" stroke-width="0.5" stroke-dasharray=""/><path fill="none" stroke="#505050" paint-order="fill stroke markers" d=" M 509.92816466093063 104.28437194228172 L 517.9281646609306 104.28437194228172 L 517.9281646609306 112.28437194228172 L 509.92816466093063 112.28437194228172 L 509.92816466093063 104.28437194228172 Z" stroke-miterlimit="10" stroke-width="0.5" stroke-dasharray=""/><path fill="white" stroke="#505050" paint-order="fill stroke markers" d=" M 341.08749693632126 195.18124541640282 L 341.08749693632126 254.39999541640282 Q 341.08749693632126 262.3999954164028 349.08749693632126 262.3999954164028 L 467.9218780398369 262.3999954164028 Q 475.9218780398369 262.3999954164028 475.9218780398369 254.39999541640282 L 475.9218780398369 195.18124541640282 Q 475.9218780398369 187.18124541640282 467.9218780398369 187.18124541640282 L 349.08749693632126 187.18124541640282 Q 341.08749693632126 187.18124541640282 341.08749693632126 195.18124541640282" stroke-miterlimit="10" stroke-width="0.5" stroke-dasharray=""/><path fill="#F0F0F0" stroke="#505050" paint-order="fill stroke markers" d=" M 450.9218780398369 195.18124541640282 L 475.9218780398369 195.18124541640282 L 475.9218780398369 225.18124541640282 L 450.9218780398369 225.18124541640282 L 450.9218780398369 195.18124541640282 Z" stroke-miterlimit="10" stroke-width="0.5" stroke-dasharray=""/><text fill="#505050" stroke="none" font-family="monospace" font-size="14px" font-style="normal" font-weight="normal" text-decoration="normal" x="463.4218780398369" y="213.18124541640282" text-anchor="middle" dominant-baseline="text-after-edge">&lt;0</text><path fill="none" stroke="#505050" paint-order="fill stroke markers" d=" M 450.9218780398369 213.18124541640282 L 458.9218780398369 213.18124541640282 L 458.9218780398369 221.18124541640282 L 450.9218780398369 221.18124541640282 L 450.9218780398369 213.18124541640282 Z" stroke-miterlimit="10" stroke-width="0.5" stroke-dasharray=""/><path fill="none" stroke="#505050" paint-order="fill stroke markers" d=" M 467.9218780398369 213.18124541640282 L 475.9218780398369 213.18124541640282 L 475.9218780398369 221.18124541640282 L 467.9218780398369 221.18124541640282 L 467.9218780398369 213.18124541640282 Z" stroke-miterlimit="10" stroke-width="0.5" stroke-dasharray=""/><path fill="white" stroke="#505050" paint-order="fill stroke markers" d=" M 391.69687193632126 191.38437041640282 L 415.69687193632126 191.38437041640282 L 415.69687193632126 233.38437041640282 L 391.69687193632126 233.38437041640282 L 391.69687193632126 191.38437041640282 Z" stroke-miterlimit="10" stroke-width="0.5" stroke-dasharray=""/><path fill="#F0F0F0" stroke="none" paint-order="stroke fill markers" d=""/><text fill="#505050" stroke="none" font-family="monospace" font-size="14px" font-style="normal" font-weight="normal" text-decoration="normal" x="403.69687193632126" y="209.38437041640282" text-anchor="middle" dominant-baseline="text-after-edge">&lt;</text><path fill="none" stroke="#505050" paint-order="fill stroke markers" d=" M 391.69687193632126 209.38437041640282 L 399.69687193632126 209.38437041640282 L 399.69687193632126 217.38437041640282 L 391.69687193632126 217.38437041640282 L 391.69687193632126 209.38437041640282 Z" stroke-miterlimit="10" stroke-width="0.5" stroke-dasharray=""/><path fill="none" stroke="#505050" paint-order="fill stroke markers" d=" M 391.69687193632126 221.38437041640282 L 399.69687193632126 221.38437041640282 L 399.69687193632126 229.38437041640282 L 391.69687193632126 229.38437041640282 L 391.69687193632126 221.38437041640282 Z" stroke-miterlimit="10" stroke-width="0.5" stroke-dasharray=""/><path fill="none" stroke="#505050" paint-order="fill stroke markers" d=" M 407.69687193632126 209.38437041640282 L 415.69687193632126 209.38437041640282 L 415.69687193632126 217.38437041640282 L 407.69687193632126 217.38437041640282 L 407.69687193632126 209.38437041640282 Z" stroke-miterlimit="10" stroke-width="0.5" stroke-dasharray=""/><path fill="white" stroke="#505050" paint-order="fill stroke markers" d=" M 426.8031341433525 204.97187957167625 L 434.8031341433525 204.97187957167625 L 442.8031341433525 212.97187957167625 L 434.8031341433525 220.97187957167625 L 426.8031341433525 220.97187957167625 L 426.8031341433525 204.97187957167625" stroke-miterlimit="10" stroke-width="0.5" stroke-dasharray=""/><path fill="none" stroke="#505050" paint-order="fill stroke markers" d=" M 426.8031341433525 208.97187957167625 L 434.8031341433525 208.97187957167625 L 434.8031341433525 216.97187957167625 L 426.8031341433525 216.97187957167625 L 426.8031341433525 208.97187957167625 Z" stroke-miterlimit="10" stroke-width="0.5" stroke-dasharray=""/><path fill="white" stroke="#505050" paint-order="fill stroke markers" d=" M 349.3499786257744 196.26874694228172 L 365.3499786257744 196.26874694228172 L 365.3499786257744 212.26874694228172 L 349.3499786257744 212.26874694228172 L 357.3499786257744 204.26874694228172 L 349.3499786257744 196.26874694228172" stroke-miterlimit="10" stroke-width="0.5" stroke-dasharray=""/><path fill="none" stroke="#505050" paint-order="fill stroke markers" d=" M 357.3499786257744 200.26874694228172 L 365.3499786257744 200.26874694228172 L 365.3499786257744 208.26874694228172 L 357.3499786257744 208.26874694228172 L 357.3499786257744 200.26874694228172 Z" stroke-miterlimit="10" stroke-width="0.5" stroke-dasharray=""/><path fill="white" stroke="#505050" paint-order="fill stroke markers" d=" M 349.08749693632126 228.39999541640282 L 381.08749693632126 228.39999541640282 L 381.08749693632126 246.39999541640282 L 349.08749693632126 246.39999541640282 L 349.08749693632126 228.39999541640282 Z" stroke-miterlimit="10" stroke-width="0.5" stroke-dasharray=""/><path fill="#F0F0F0" stroke="none" paint-order="stroke fill markers" d=""/><path fill="none" stroke="#505050" paint-order="fill stroke markers" d=" M 373.08749693632126 233.39999541640282 L 381.08749693632126 233.39999541640282 L 381.08749693632126 241.39999541640282 L 373.08749693632126 241.39999541640282 L 373.08749693632126 233.39999541640282 Z" stroke-miterlimit="10" stroke-width="0.5" stroke-dasharray=""/><text fill="#505050" stroke="none" font-family="monospace" font-size="14px" font-style="normal" font-weight="normal" text-decoration="normal" x="365.08749693632126" y="246.39999541640282" text-anchor="end" dominant-baseline="text-after-edge">0</text><path fill="white" stroke="#505050" paint-order="fill stroke markers" d=" M 494.6530792117119 191.89685210585594 L 494.6530792117119 251.11560210585594 Q 494.6530792117119 259.11560210585594 502.6530792117119 259.11560210585594 L 624.1780731081963 259.11560210585594 Q 632.1780731081963 259.11560210585594 632.1780731081963 251.11560210585594 L 632.1780731081963 191.89685210585594 Q 632.1780731081963 183.89685210585594 624.1780731081963 183.89685210585594 L 502.6530792117119 183.89685210585594 Q 494.6530792117119 183.89685210585594 494.6530792117119 191.89685210585594" stroke-miterlimit="10" stroke-width="0.5" stroke-dasharray=""/><path fill="#F0F0F0" stroke="#505050" paint-order="fill stroke markers" d=" M 607.1780731081963 191.89685210585594 L 632.1780731081963 191.89685210585594 L 632.1780731081963 221.89685210585594 L 607.1780731081963 221.89685210585594 L 607.1780731081963 191.89685210585594 Z" stroke-miterlimit="10" stroke-width="0.5" stroke-dasharray=""/><text fill="#505050" stroke="none" font-family="monospace" font-size="14px" font-style="normal" font-weight="normal" text-decoration="normal" x="619.6780731081963" y="209.89685210585594" text-anchor="middle" dominant-baseline="text-after-edge">&gt;0</text><path fill="none" stroke="#505050" paint-order="fill stroke markers" d=" M 607.1780731081963 209.89685210585594 L 615.1780731081963 209.89685210585594 L 615.1780731081963 217.89685210585594 L 607.1780731081963 217.89685210585594 L 607.1780731081963 209.89685210585594 Z" stroke-miterlimit="10" stroke-width="0.5" stroke-dasharray=""/><path fill="none" stroke="#505050" paint-order="fill stroke markers" d=" M 624.1780731081963 209.89685210585594 L 632.1780731081963 209.89685210585594 L 632.1780731081963 217.89685210585594 L 624.1780731081963 217.89685210585594 L 624.1780731081963 209.89685210585594 Z" stroke-miterlimit="10" stroke-width="0.5" stroke-dasharray=""/><path fill="white" stroke="#505050" paint-order="fill stroke markers" d=" M 545.0499603152275 189.98747405409813 L 569.0499603152275 189.98747405409813 L 569.0499603152275 231.98747405409813 L 545.0499603152275 231.98747405409813 L 545.0499603152275 189.98747405409813 Z" stroke-miterlimit="10" stroke-width="0.5" stroke-dasharray=""/><path fill="#F0F0F0" stroke="none" paint-order="stroke fill markers" d=""/><text fill="#505050" stroke="none" font-family="monospace" font-size="14px" font-style="normal" font-weight="normal" text-decoration="normal" x="557.0499603152275" y="207.98747405409813" text-anchor="middle" dominant-baseline="text-after-edge">&gt;</text><path fill="none" stroke="#505050" paint-order="fill stroke markers" d=" M 545.0499603152275 207.98747405409813 L 553.0499603152275 207.98747405409813 L 553.0499603152275 215.98747405409813 L 545.0499603152275 215.98747405409813 L 545.0499603152275 207.98747405409813 Z" stroke-miterlimit="10" stroke-width="0.5" stroke-dasharray=""/><path fill="none" stroke="#505050" paint-order="fill stroke markers" d=" M 545.0499603152275 219.98747405409813 L 553.0499603152275 219.98747405409813 L 553.0499603152275 227.98747405409813 L 545.0499603152275 227.98747405409813 L 545.0499603152275 219.98747405409813 Z" stroke-miterlimit="10" stroke-width="0.5" stroke-dasharray=""/><path fill="none" stroke="#505050" paint-order="fill stroke markers" d=" M 561.0499603152275 207.98747405409813 L 569.0499603152275 207.98747405409813 L 569.0499603152275 215.98747405409813 L 561.0499603152275 215.98747405409813 L 561.0499603152275 207.98747405409813 Z" stroke-miterlimit="10" stroke-width="0.5" stroke-dasharray=""/><path fill="white" stroke="#505050" paint-order="fill stroke markers" d=" M 581.4374725222588 204.06872710585594 L 589.4374725222588 204.06872710585594 L 597.4374725222588 212.06872710585594 L 589.4374725222588 220.06872710585594 L 581.4374725222588 220.06872710585594 L 581.4374725222588 204.06872710585594" stroke-miterlimit="10" stroke-width="0.5" stroke-dasharray=""/><path fill="none" stroke="#505050" paint-order="fill stroke markers" d=" M 581.4374725222588 208.06872710585594 L 589.4374725222588 208.06872710585594 L 589.4374725222588 216.06872710585594 L 581.4374725222588 216.06872710585594 L 581.4374725222588 208.06872710585594 Z" stroke-miterlimit="10" stroke-width="0.5" stroke-dasharray=""/><path fill="white" stroke="#505050" paint-order="fill stroke markers" d=" M 506.95932310819626 197.13434752821922 L 522.9593231081963 197.13434752821922 L 522.9593231081963 213.13434752821922 L 506.95932310819626 213.13434752821922 L 514.9593231081963 205.13434752821922 L 506.95932310819626 197.13434752821922" stroke-miterlimit="10" stroke-width="0.5" stroke-dasharray=""/><path fill="none" stroke="#505050" paint-order="fill stroke markers" d=" M 514.9593231081963 201.13434752821922 L 522.9593231081963 201.13434752821922 L 522.9593231081963 209.13434752821922 L 514.9593231081963 209.13434752821922 L 514.9593231081963 201.13434752821922 Z" stroke-miterlimit="10" stroke-width="0.5" stroke-dasharray=""/><path fill="white" stroke="#505050" paint-order="fill stroke markers" d=" M 502.6530792117119 225.11560210585594 L 534.6530792117119 225.11560210585594 L 534.6530792117119 243.11560210585594 L 502.6530792117119 243.11560210585594 L 502.6530792117119 225.11560210585594 Z" stroke-miterlimit="10" stroke-width="0.5" stroke-dasharray=""/><path fill="#F0F0F0" stroke="none" paint-order="stroke fill markers" d=""/><path fill="none" stroke="#505050" paint-order="fill stroke markers" d=" M 526.6530792117119 230.11560210585594 L 534.6530792117119 230.11560210585594 L 534.6530792117119 238.11560210585594 L 526.6530792117119 238.11560210585594 L 526.6530792117119 230.11560210585594 Z" stroke-miterlimit="10" stroke-width="0.5" stroke-dasharray=""/><text fill="#505050" stroke="none" font-family="monospace" font-size="14px" font-style="normal" font-weight="normal" text-decoration="normal" x="518.6530792117119" y="243.11560210585594" text-anchor="end" dominant-baseline="text-after-edge">0</text><path fill="white" stroke="#505050" paint-order="fill stroke markers" d=" M 339.60312193632126 291.94998320937157 L 339.60312193632126 376.1593643128872 Q 339.60312193632126 384.1593643128872 347.60312193632126 384.1593643128872 L 503.03757017850876 384.1593643128872 Q 511.03757017850876 384.1593643128872 511.03757017850876 376.1593643128872 L 511.03757017850876 291.94998320937157 Q 511.03757017850876 283.94998320937157 503.03757017850876 283.94998320937157 L 347.60312193632126 283.94998320937157 Q 339.60312193632126 283.94998320937157 339.60312193632126 291.94998320937157" stroke-miterlimit="10" stroke-width="0.5" stroke-dasharray=""/><path fill="#F0F0F0" stroke="#505050" paint-order="fill stroke markers" d=" M 478.03757017850876 291.94998320937157 L 511.03757017850876 291.94998320937157 L 511.03757017850876 333.94998320937157 L 478.03757017850876 333.94998320937157 L 478.03757017850876 291.94998320937157 Z" stroke-miterlimit="10" stroke-width="0.5" stroke-dasharray=""/><text fill="#505050" stroke="none" font-family="monospace" font-size="14px" font-style="normal" font-weight="normal" text-decoration="normal" x="494.53757017850876" y="309.94998320937157" text-anchor="middle" dominant-baseline="text-after-edge">min</text><path fill="none" stroke="#505050" paint-order="fill stroke markers" d=" M 478.03757017850876 309.94998320937157 L 486.03757017850876 309.94998320937157 L 486.03757017850876 317.94998320937157 L 478.03757017850876 317.94998320937157 L 478.03757017850876 309.94998320937157 Z" stroke-miterlimit="10" stroke-width="0.5" stroke-dasharray=""/><path fill="none" stroke="#505050" paint-order="fill stroke markers" d=" M 478.03757017850876 321.94998320937157 L 486.03757017850876 321.94998320937157 L 486.03757017850876 329.94998320937157 L 478.03757017850876 329.94998320937157 L 478.03757017850876 321.94998320937157 Z" stroke-miterlimit="10" stroke-width="0.5" stroke-dasharray=""/><path fill="none" stroke="#505050" paint-order="fill stroke markers" d=" M 503.03757017850876 309.94998320937157 L 511.03757017850876 309.94998320937157 L 511.03757017850876 317.94998320937157 L 503.03757017850876 317.94998320937157 L 503.03757017850876 309.94998320937157 Z" stroke-miterlimit="10" stroke-width="0.5" stroke-dasharray=""/><path fill="white" stroke="#505050" paint-order="fill stroke markers" d=" M 378.97812193632126 294.3156448304653 L 402.97812193632126 294.3156448304653 L 402.97812193632126 336.3156448304653 L 378.97812193632126 336.3156448304653 L 378.97812193632126 294.3156448304653 Z" stroke-miterlimit="10" stroke-width="0.5" stroke-dasharray=""/><path fill="#F0F0F0" stroke="none" paint-order="stroke fill markers" d=""/><text fill="#505050" stroke="none" font-family="monospace" font-size="14px" font-style="normal" font-weight="normal" text-decoration="normal" x="390.97812193632126" y="312.3156448304653" text-anchor="middle" dominant-baseline="text-after-edge">&lt;</text><path fill="none" stroke="#505050" paint-order="fill stroke markers" d=" M 378.97812193632126 312.3156448304653 L 386.97812193632126 312.3156448304653 L 386.97812193632126 320.3156448304653 L 378.97812193632126 320.3156448304653 L 378.97812193632126 312.3156448304653 Z" stroke-miterlimit="10" stroke-width="0.5" stroke-dasharray=""/><path fill="none" stroke="#505050" paint-order="fill stroke markers" d=" M 378.97812193632126 324.3156448304653 L 386.97812193632126 324.3156448304653 L 386.97812193632126 332.3156448304653 L 378.97812193632126 332.3156448304653 L 378.97812193632126 324.3156448304653 Z" stroke-miterlimit="10" stroke-width="0.5" stroke-dasharray=""/><path fill="none" stroke="#505050" paint-order="fill stroke markers" d=" M 394.97812193632126 312.3156448304653 L 402.97812193632126 312.3156448304653 L 402.97812193632126 320.3156448304653 L 394.97812193632126 320.3156448304653 L 394.97812193632126 312.3156448304653 Z" stroke-miterlimit="10" stroke-width="0.5" stroke-dasharray=""/><path fill="white" stroke="#505050" paint-order="fill stroke markers" d=" M 454.49692076444626 325.0031448304653 L 462.49692076444626 325.0031448304653 L 470.49692076444626 333.0031448304653 L 462.49692076444626 341.0031448304653 L 454.49692076444626 341.0031448304653 L 454.49692076444626 325.0031448304653" stroke-miterlimit="10" stroke-width="0.5" stroke-dasharray=""/><path fill="none" stroke="#505050" paint-order="fill stroke markers" d=" M 454.49692076444626 329.0031448304653 L 462.49692076444626 329.0031448304653 L 462.49692076444626 337.0031448304653 L 454.49692076444626 337.0031448304653 L 454.49692076444626 329.0031448304653 Z" stroke-miterlimit="10" stroke-width="0.5" stroke-dasharray=""/><path fill="white" stroke="#505050" paint-order="fill stroke markers" d=" M 343.7406341433525 329.421884149313 L 359.7406341433525 329.421884149313 L 359.7406341433525 345.421884149313 L 343.7406341433525 345.421884149313 L 351.7406341433525 337.421884149313 L 343.7406341433525 329.421884149313" stroke-miterlimit="10" stroke-width="0.5" stroke-dasharray=""/><path fill="none" stroke="#505050" paint-order="fill stroke markers" d=" M 351.7406341433525 333.421884149313 L 359.7406341433525 333.421884149313 L 359.7406341433525 341.421884149313 L 351.7406341433525 341.421884149313 L 351.7406341433525 333.421884149313 Z" stroke-miterlimit="10" stroke-width="0.5" stroke-dasharray=""/><path fill="white" stroke="#505050" paint-order="fill stroke markers" d=" M 344.20627135038376 352.1593643128872 L 360.20627135038376 352.1593643128872 L 360.20627135038376 368.1593643128872 L 344.20627135038376 368.1593643128872 L 352.20627135038376 360.1593643128872 L 344.20627135038376 352.1593643128872" stroke-miterlimit="10" stroke-width="0.5" stroke-dasharray=""/><path fill="none" stroke="#505050" paint-order="fill stroke markers" d=" M 352.20627135038376 356.1593643128872 L 360.20627135038376 356.1593643128872 L 360.20627135038376 364.1593643128872 L 352.20627135038376 364.1593643128872 L 352.20627135038376 356.1593643128872 Z" stroke-miterlimit="10" stroke-width="0.5" stroke-dasharray=""/><path fill="white" stroke="#505050" paint-order="fill stroke markers" d=" M 418.1500121951103 310.28130492568016 L 442.1500121951103 310.28130492568016 L 442.1500121951103 364.28130492568016 L 418.1500121951103 364.28130492568016 L 418.1500121951103 310.28130492568016 Z" stroke-miterlimit="10" stroke-width="0.5" stroke-dasharray=""/><path fill="#F0F0F0" stroke="none" paint-order="stroke fill markers" d=""/><text fill="#505050" stroke="none" font-family="monospace" font-size="14px" font-style="normal" font-weight="normal" text-decoration="normal" x="430.1500121951103" y="328.28130492568016" text-anchor="middle" dominant-baseline="text-after-edge">?</text><path fill="none" stroke="#505050" paint-order="fill stroke markers" d=" M 418.1500121951103 328.28130492568016 L 426.1500121951103 328.28130492568016 L 426.1500121951103 336.28130492568016 L 418.1500121951103 336.28130492568016 L 418.1500121951103 328.28130492568016 Z" stroke-miterlimit="10" stroke-width="0.5" stroke-dasharray=""/><path fill="none" stroke="#505050" paint-order="fill stroke markers" d=" M 418.1500121951103 340.28130492568016 L 426.1500121951103 340.28130492568016 L 426.1500121951103 348.28130492568016 L 418.1500121951103 348.28130492568016 L 418.1500121951103 340.28130492568016 Z" stroke-miterlimit="10" stroke-width="0.5" stroke-dasharray=""/><path fill="none" stroke="#505050" paint-order="fill stroke markers" d=" M 418.1500121951103 352.28130492568016 L 426.1500121951103 352.28130492568016 L 426.1500121951103 360.28130492568016 L 418.1500121951103 360.28130492568016 L 418.1500121951103 352.28130492568016 Z" stroke-miterlimit="10" stroke-width="0.5" stroke-dasharray=""/><path fill="none" stroke="#505050" paint-order="fill stroke markers" d=" M 434.1500121951103 328.28130492568016 L 442.1500121951103 328.28130492568016 L 442.1500121951103 336.28130492568016 L 434.1500121951103 336.28130492568016 L 434.1500121951103 328.28130492568016 Z" stroke-miterlimit="10" stroke-width="0.5" stroke-dasharray=""/><path fill="white" stroke="#505050" paint-order="fill stroke markers" d=" M 562.8375274538994 289.78747710585594 L 562.8375274538994 373.99685820937157 Q 562.8375274538994 381.99685820937157 570.8375274538994 381.99685820937157 L 727.4813262820244 381.99685820937157 Q 735.4813262820244 381.99685820937157 735.4813262820244 373.99685820937157 L 735.4813262820244 289.78747710585594 Q 735.4813262820244 281.78747710585594 727.4813262820244 281.78747710585594 L 570.8375274538994 281.78747710585594 Q 562.8375274538994 281.78747710585594 562.8375274538994 289.78747710585594" stroke-miterlimit="10" stroke-width="0.5" stroke-dasharray=""/><path fill="#F0F0F0" stroke="#505050" paint-order="fill stroke markers" d=" M 702.4813262820244 289.78747710585594 L 735.4813262820244 289.78747710585594 L 735.4813262820244 331.78747710585594 L 702.4813262820244 331.78747710585594 L 702.4813262820244 289.78747710585594 Z" stroke-miterlimit="10" stroke-width="0.5" stroke-dasharray=""/><text fill="#505050" stroke="none" font-family="monospace" font-size="14px" font-style="normal" font-weight="normal" text-decoration="normal" x="718.9813262820244" y="307.78747710585594" text-anchor="middle" dominant-baseline="text-after-edge">max</text><path fill="none" stroke="#505050" paint-order="fill stroke markers" d=" M 702.4813262820244 307.78747710585594 L 710.4813262820244 307.78747710585594 L 710.4813262820244 315.78747710585594 L 702.4813262820244 315.78747710585594 L 702.4813262820244 307.78747710585594 Z" stroke-miterlimit="10" stroke-width="0.5" stroke-dasharray=""/><path fill="none" stroke="#505050" paint-order="fill stroke markers" d=" M 702.4813262820244 319.78747710585594 L 710.4813262820244 319.78747710585594 L 710.4813262820244 327.78747710585594 L 702.4813262820244 327.78747710585594 L 702.4813262820244 319.78747710585594 Z" stroke-miterlimit="10" stroke-width="0.5" stroke-dasharray=""/><path fill="none" stroke="#505050" paint-order="fill stroke markers" d=" M 727.4813262820244 307.78747710585594 L 735.4813262820244 307.78747710585594 L 735.4813262820244 315.78747710585594 L 727.4813262820244 315.78747710585594 L 727.4813262820244 307.78747710585594 Z" stroke-miterlimit="10" stroke-width="0.5" stroke-dasharray=""/><path fill="white" stroke="#505050" paint-order="fill stroke markers" d=" M 601.9750701785088 291.4187637269497 L 625.9750701785088 291.4187637269497 L 625.9750701785088 333.4187637269497 L 601.9750701785088 333.4187637269497 L 601.9750701785088 291.4187637269497 Z" stroke-miterlimit="10" stroke-width="0.5" stroke-dasharray=""/><path fill="#F0F0F0" stroke="none" paint-order="stroke fill markers" d=""/><text fill="#505050" stroke="none" font-family="monospace" font-size="14px" font-style="normal" font-weight="normal" text-decoration="normal" x="613.9750701785088" y="309.4187637269497" text-anchor="middle" dominant-baseline="text-after-edge">&lt;</text><path fill="none" stroke="#505050" paint-order="fill stroke markers" d=" M 601.9750701785088 309.4187637269497 L 609.9750701785088 309.4187637269497 L 609.9750701785088 317.4187637269497 L 601.9750701785088 317.4187637269497 L 601.9750701785088 309.4187637269497 Z" stroke-miterlimit="10" stroke-width="0.5" stroke-dasharray=""/><path fill="none" stroke="#505050" paint-order="fill stroke markers" d=" M 601.9750701785088 321.4187637269497 L 609.9750701785088 321.4187637269497 L 609.9750701785088 329.4187637269497 L 601.9750701785088 329.4187637269497 L 601.9750701785088 321.4187637269497 Z" stroke-miterlimit="10" stroke-width="0.5" stroke-dasharray=""/><path fill="none" stroke="#505050" paint-order="fill stroke markers" d=" M 617.9750701785088 309.4187637269497 L 625.9750701785088 309.4187637269497 L 625.9750701785088 317.4187637269497 L 617.9750701785088 317.4187637269497 L 617.9750701785088 309.4187637269497 Z" stroke-miterlimit="10" stroke-width="0.5" stroke-dasharray=""/><path fill="white" stroke="#505050" paint-order="fill stroke markers" d=" M 677.8812896609306 323.2375198304653 L 685.8812896609306 323.2375198304653 L 693.8812896609306 331.2375198304653 L 685.8812896609306 339.2375198304653 L 677.8812896609306 339.2375198304653 L 677.8812896609306 323.2375198304653" stroke-miterlimit="10" stroke-width="0.5" stroke-dasharray=""/><path fill="none" stroke="#505050" paint-order="fill stroke markers" d=" M 677.8812896609306 327.2375198304653 L 685.8812896609306 327.2375198304653 L 685.8812896609306 335.2375198304653 L 677.8812896609306 335.2375198304653 L 677.8812896609306 327.2375198304653 Z" stroke-miterlimit="10" stroke-width="0.5" stroke-dasharray=""/><path fill="white" stroke="#505050" paint-order="fill stroke markers" d=" M 566.9750396609306 327.25937804579735 L 582.9750396609306 327.25937804579735 L 582.9750396609306 343.25937804579735 L 566.9750396609306 343.25937804579735 L 574.9750396609306 335.25937804579735 L 566.9750396609306 327.25937804579735" stroke-miterlimit="10" stroke-width="0.5" stroke-dasharray=""/><path fill="none" stroke="#505050" paint-order="fill stroke markers" d=" M 574.9750396609306 331.25937804579735 L 582.9750396609306 331.25937804579735 L 582.9750396609306 339.25937804579735 L 574.9750396609306 339.25937804579735 L 574.9750396609306 331.25937804579735 Z" stroke-miterlimit="10" stroke-width="0.5" stroke-dasharray=""/><path fill="white" stroke="#505050" paint-order="fill stroke markers" d=" M 567.4406768679619 349.99685820937157 L 583.4406768679619 349.99685820937157 L 583.4406768679619 365.99685820937157 L 567.4406768679619 365.99685820937157 L 575.4406768679619 357.99685820937157 L 567.4406768679619 349.99685820937157" stroke-miterlimit="10" stroke-width="0.5" stroke-dasharray=""/><path fill="none" stroke="#505050" paint-order="fill stroke markers" d=" M 575.4406768679619 353.99685820937157 L 583.4406768679619 353.99685820937157 L 583.4406768679619 361.99685820937157 L 575.4406768679619 361.99685820937157 L 575.4406768679619 353.99685820937157 Z" stroke-miterlimit="10" stroke-width="0.5" stroke-dasharray=""/><path fill="white" stroke="#505050" paint-order="fill stroke markers" d=" M 642.7250549197197 310.04689940810204 L 666.7250549197197 310.04689940810204 L 666.7250549197197 364.04689940810204 L 642.7250549197197 364.04689940810204 L 642.7250549197197 310.04689940810204 Z" stroke-miterlimit="10" stroke-width="0.5" stroke-dasharray=""/><path fill="#F0F0F0" stroke="none" paint-order="stroke fill markers" d=""/><text fill="#505050" stroke="none" font-family="monospace" font-size="14px" font-style="normal" font-weight="normal" text-decoration="normal" x="654.7250549197197" y="328.04689940810204" text-anchor="middle" dominant-baseline="text-after-edge">?</text><path fill="none" stroke="#505050" paint-order="fill stroke markers" d=" M 642.7250549197197 328.04689940810204 L 650.7250549197197 328.04689940810204 L 650.7250549197197 336.04689940810204 L 642.7250549197197 336.04689940810204 L 642.7250549197197 328.04689940810204 Z" stroke-miterlimit="10" stroke-width="0.5" stroke-dasharray=""/><path fill="none" stroke="#505050" paint-order="fill stroke markers" d=" M 642.7250549197197 340.04689940810204 L 650.7250549197197 340.04689940810204 L 650.7250549197197 348.04689940810204 L 642.7250549197197 348.04689940810204 L 642.7250549197197 340.04689940810204 Z" stroke-miterlimit="10" stroke-width="0.5" stroke-dasharray=""/><path fill="none" stroke="#505050" paint-order="fill stroke markers" d=" M 642.7250549197197 352.04689940810204 L 650.7250549197197 352.04689940810204 L 650.7250549197197 360.04689940810204 L 642.7250549197197 360.04689940810204 L 642.7250549197197 352.04689940810204 Z" stroke-miterlimit="10" stroke-width="0.5" stroke-dasharray=""/><path fill="none" stroke="#505050" paint-order="fill stroke markers" d=" M 658.7250549197197 328.04689940810204 L 666.7250549197197 328.04689940810204 L 666.7250549197197 336.04689940810204 L 658.7250549197197 336.04689940810204 L 658.7250549197197 328.04689940810204 Z" stroke-miterlimit="10" stroke-width="0.5" stroke-dasharray=""/><path fill="white" stroke="#505050" paint-order="fill stroke markers" d=" M 760.4843780398369 240.91873320937157 L 760.4843780398369 338.9781060218811 Q 760.4843780398369 346.9781060218811 768.4843780398369 346.9781060218811 L 926.0875579714775 346.9781060218811 Q 934.0875579714775 346.9781060218811 934.0875579714775 338.9781060218811 L 934.0875579714775 240.91873320937157 Q 934.0875579714775 232.91873320937157 926.0875579714775 232.91873320937157 L 768.4843780398369 232.91873320937157 Q 760.4843780398369 232.91873320937157 760.4843780398369 240.91873320937157" stroke-miterlimit="10" stroke-width="0.5" stroke-dasharray=""/><path fill="#F0F0F0" stroke="#505050" paint-order="fill stroke markers" d=" M 901.0875579714775 240.91873320937157 L 934.0875579714775 240.91873320937157 L 934.0875579714775 270.91873320937157 L 901.0875579714775 270.91873320937157 L 901.0875579714775 240.91873320937157 Z" stroke-miterlimit="10" stroke-width="0.5" stroke-dasharray=""/><text fill="#505050" stroke="none" font-family="monospace" font-size="14px" font-style="normal" font-weight="normal" text-decoration="normal" x="917.5875579714775" y="258.91873320937157" text-anchor="middle" dominant-baseline="text-after-edge">abs</text><path fill="none" stroke="#505050" paint-order="fill stroke markers" d=" M 901.0875579714775 258.91873320937157 L 909.0875579714775 258.91873320937157 L 909.0875579714775 266.91873320937157 L 901.0875579714775 266.91873320937157 L 901.0875579714775 258.91873320937157 Z" stroke-miterlimit="10" stroke-width="0.5" stroke-dasharray=""/><path fill="none" stroke="#505050" paint-order="fill stroke markers" d=" M 926.0875579714775 258.91873320937157 L 934.0875579714775 258.91873320937157 L 934.0875579714775 266.91873320937157 L 926.0875579714775 266.91873320937157 L 926.0875579714775 258.91873320937157 Z" stroke-miterlimit="10" stroke-width="0.5" stroke-dasharray=""/><path fill="white" stroke="#505050" paint-order="fill stroke markers" d=" M 890.5250579714775 275.12185820937157 L 898.5250579714775 275.12185820937157 L 906.5250579714775 283.12185820937157 L 898.5250579714775 291.12185820937157 L 890.5250579714775 291.12185820937157 L 890.5250579714775 275.12185820937157" stroke-miterlimit="10" stroke-width="0.5" stroke-dasharray=""/><path fill="none" stroke="#505050" paint-order="fill stroke markers" d=" M 890.5250579714775 279.12185820937157 L 898.5250579714775 279.12185820937157 L 898.5250579714775 287.12185820937157 L 890.5250579714775 287.12185820937157 L 890.5250579714775 279.12185820937157 Z" stroke-miterlimit="10" stroke-width="0.5" stroke-dasharray=""/><path fill="white" stroke="#505050" paint-order="fill stroke markers" d=" M 766.91873472929 275.3812194764614 L 782.91873472929 275.3812194764614 L 782.91873472929 291.3812194764614 L 766.91873472929 291.3812194764614 L 774.91873472929 283.3812194764614 L 766.91873472929 275.3812194764614" stroke-miterlimit="10" stroke-width="0.5" stroke-dasharray=""/><path fill="none" stroke="#505050" paint-order="fill stroke markers" d=" M 774.91873472929 279.3812194764614 L 782.91873472929 279.3812194764614 L 782.91873472929 287.3812194764614 L 774.91873472929 287.3812194764614 L 774.91873472929 279.3812194764614 Z" stroke-miterlimit="10" stroke-width="0.5" stroke-dasharray=""/><path fill="white" stroke="#505050" paint-order="fill stroke markers" d=" M 853.524935901165 260.8687195777893 L 877.524935901165 260.8687195777893 L 877.524935901165 314.8687195777893 L 853.524935901165 314.8687195777893 L 853.524935901165 260.8687195777893 Z" stroke-miterlimit="10" stroke-width="0.5" stroke-dasharray=""/><path fill="#F0F0F0" stroke="none" paint-order="stroke fill markers" d=""/><text fill="#505050" stroke="none" font-family="monospace" font-size="14px" font-style="normal" font-weight="normal" text-decoration="normal" x="865.524935901165" y="278.8687195777893" text-anchor="middle" dominant-baseline="text-after-edge">?</text><path fill="none" stroke="#505050" paint-order="fill stroke markers" d=" M 853.524935901165 278.8687195777893 L 861.524935901165 278.8687195777893 L 861.524935901165 286.8687195777893 L 853.524935901165 286.8687195777893 L 853.524935901165 278.8687195777893 Z" stroke-miterlimit="10" stroke-width="0.5" stroke-dasharray=""/><path fill="none" stroke="#505050" paint-order="fill stroke markers" d=" M 853.524935901165 290.8687195777893 L 861.524935901165 290.8687195777893 L 861.524935901165 298.8687195777893 L 853.524935901165 298.8687195777893 L 853.524935901165 290.8687195777893 Z" stroke-miterlimit="10" stroke-width="0.5" stroke-dasharray=""/><path fill="none" stroke="#505050" paint-order="fill stroke markers" d=" M 853.524935901165 302.8687195777893 L 861.524935901165 302.8687195777893 L 861.524935901165 310.8687195777893 L 853.524935901165 310.8687195777893 L 853.524935901165 302.8687195777893 Z" stroke-miterlimit="10" stroke-width="0.5" stroke-dasharray=""/><path fill="none" stroke="#505050" paint-order="fill stroke markers" d=" M 869.524935901165 278.8687195777893 L 877.524935901165 278.8687195777893 L 877.524935901165 286.8687195777893 L 869.524935901165 286.8687195777893 L 869.524935901165 278.8687195777893 Z" stroke-miterlimit="10" stroke-width="0.5" stroke-dasharray=""/><path fill="white" stroke="#505050" paint-order="fill stroke markers" d=" M 805.5781356692314 300.9781060218811 L 829.5781356692314 300.9781060218811 L 829.5781356692314 330.9781060218811 L 805.5781356692314 330.9781060218811 L 805.5781356692314 300.9781060218811 Z" stroke-miterlimit="10" stroke-width="0.5" stroke-dasharray=""/><path fill="#F0F0F0" stroke="none" paint-order="stroke fill markers" d=""/><text fill="#505050" stroke="none" font-family="monospace" font-size="14px" font-style="normal" font-weight="normal" text-decoration="normal" x="817.5781356692314" y="318.9781060218811" text-anchor="middle" dominant-baseline="text-after-edge">-</text><path fill="none" stroke="#505050" paint-order="fill stroke markers" d=" M 805.5781356692314 318.9781060218811 L 813.5781356692314 318.9781060218811 L 813.5781356692314 326.9781060218811 L 805.5781356692314 326.9781060218811 L 805.5781356692314 318.9781060218811 Z" stroke-miterlimit="10" stroke-width="0.5" stroke-dasharray=""/><path fill="none" stroke="#505050" paint-order="fill stroke markers" d=" M 821.5781356692314 318.9781060218811 L 829.5781356692314 318.9781060218811 L 829.5781356692314 326.9781060218811 L 821.5781356692314 326.9781060218811 L 821.5781356692314 318.9781060218811 Z" stroke-miterlimit="10" stroke-width="0.5" stroke-dasharray=""/><path fill="white" stroke="#505050" paint-order="fill stroke markers" d=" M 804.1156951785088 239.74685820937157 L 829.1156951785088 239.74685820937157 L 829.1156951785088 269.74685820937157 L 804.1156951785088 269.74685820937157 L 804.1156951785088 239.74685820937157 Z" stroke-miterlimit="10" stroke-width="0.5" stroke-dasharray=""/><path fill="#F0F0F0" stroke="none" paint-order="stroke fill markers" d=""/><text fill="#505050" stroke="none" font-family="monospace" font-size="14px" font-style="normal" font-weight="normal" text-decoration="normal" x="816.6156951785088" y="257.74685820937157" text-anchor="middle" dominant-baseline="text-after-edge">&gt;0</text><path fill="none" stroke="#505050" paint-order="fill stroke markers" d=" M 804.1156951785088 257.74685820937157 L 812.1156951785088 257.74685820937157 L 812.1156951785088 265.74685820937157 L 804.1156951785088 265.74685820937157 L 804.1156951785088 257.74685820937157 Z" stroke-miterlimit="10" stroke-width="0.5" stroke-dasharray=""/><path fill="none" stroke="#505050" paint-order="fill stroke markers" d=" M 821.1156951785088 257.74685820937157 L 829.1156951785088 257.74685820937157 L 829.1156951785088 265.74685820937157 L 821.1156951785088 265.74685820937157 L 821.1156951785088 257.74685820937157 Z" stroke-miterlimit="10" stroke-width="0.5" stroke-dasharray=""/><path fill="#e0e0e0" stroke="none" paint-order="stroke fill markers" d=" M 640.1780731081963 206.89685210585594 L 632.1780731081963 191.89685210585594 L 632.1780731081963 221.89685210585594 Z M 796.1156951785088 254.74685820937157 L 804.1156951785088 239.74685820937157 L 804.1156951785088 269.74685820937157 Z"/><path fill="none" stroke="none"/><path fill="none" stroke="#e0e0e0" paint-order="fill stroke markers" d=" M 640.1780731081963 206.89685210585594 C 689.1122621327884 206.89685210585594 747.1815061539166 254.74685820937157 796.1156951785088 254.74685820937157" stroke-miterlimit="10" stroke-width="2" stroke-dasharray=""/><path fill="none" stroke="#505050" paint-order="fill stroke markers" d=" M 409.5375091433525 119.95623931288719 C 413.55972334517327 119.95623931288719 418.91214552746925 120.48751220107079 422.93435972929 120.48751220107079" stroke-miterlimit="10" stroke-dasharray=""/><path fill="none" stroke="#505050" paint-order="fill stroke markers" d=" M 374.0312530398369 143.40312346816063 C 378.90036566685166 143.40312346816063 380.66839651633774 131.9562393128872 385.5375091433525 131.9562393128872" stroke-miterlimit="10" stroke-dasharray=""/><path fill="none" stroke="#505050" paint-order="fill stroke markers" d=" M 357.2875091433525 111.13437041640282 C 366.16613000328385 111.13437041640282 376.65888828342116 119.95623931288719 385.5375091433525 119.95623931288719" stroke-miterlimit="10" stroke-dasharray=""/><path fill="none" stroke="#505050" paint-order="fill stroke markers" d=" M 571.5563384890556 117.16874846816063 C 574.9735123058998 117.16874846816063 579.5297286370552 117.15000304579735 582.9469024538994 117.15000304579735" stroke-miterlimit="10" stroke-dasharray=""/><path fill="none" stroke="#505050" paint-order="fill stroke markers" d=" M 534.2594329714775 140.00937041640282 C 539.4062193718569 140.00937041640282 542.4095520886763 129.16874846816063 547.5563384890556 129.16874846816063" stroke-miterlimit="10" stroke-dasharray=""/><path fill="none" stroke="#505050" paint-order="fill stroke markers" d=" M 517.9281646609306 108.28437194228172 C 527.2076298803215 108.28437194228172 538.2768732696647 117.16874846816063 547.5563384890556 117.16874846816063" stroke-miterlimit="10" stroke-dasharray=""/><path fill="none" stroke="#505050" paint-order="fill stroke markers" d=" M 415.69687193632126 213.38437041640282 C 419.03104781676734 213.38437041640282 423.4689582629064 212.97187957167625 426.8031341433525 212.97187957167625" stroke-miterlimit="10" stroke-dasharray=""/><path fill="none" stroke="#505050" paint-order="fill stroke markers" d=" M 381.08749693632126 237.39999541640282 C 385.89624598184366 237.39999541640282 386.88812289079885 225.38437041640282 391.69687193632126 225.38437041640282" stroke-miterlimit="10" stroke-dasharray=""/><path fill="none" stroke="#505050" paint-order="fill stroke markers" d=" M 365.3499786257744 204.26874694228172 C 373.71375791862613 204.26874694228172 383.3330926434695 213.38437041640282 391.69687193632126 213.38437041640282" stroke-miterlimit="10" stroke-dasharray=""/><path fill="none" stroke="#505050" paint-order="fill stroke markers" d=" M 569.0499603152275 211.98747405409813 C 572.766293920597 211.98747405409813 577.7211389168892 212.06872710585594 581.4374725222588 212.06872710585594" stroke-miterlimit="10" stroke-dasharray=""/><path fill="none" stroke="#505050" paint-order="fill stroke markers" d=" M 534.6530792117119 234.11560210585594 C 539.0074643929069 234.11560210585594 540.6955751340325 223.98747405409813 545.0499603152275 223.98747405409813" stroke-miterlimit="10" stroke-dasharray=""/><path fill="none" stroke="#505050" paint-order="fill stroke markers" d=" M 522.9593231081963 205.13434752821922 C 529.8980941510622 205.13434752821922 538.1111892723616 211.98747405409813 545.0499603152275 211.98747405409813" stroke-miterlimit="10" stroke-dasharray=""/><path fill="none" stroke="#505050" paint-order="fill stroke markers" d=" M 360.20627135038376 360.1593643128872 C 371.2957454605765 360.1593643128872 367.88864782612853 328.3156448304653 378.97812193632126 328.3156448304653" stroke-miterlimit="10" stroke-dasharray=""/><path fill="none" stroke="#505050" paint-order="fill stroke markers" d=" M 359.7406341433525 337.421884149313 C 368.30800741228495 337.421884149313 370.4107486673888 316.3156448304653 378.97812193632126 316.3156448304653" stroke-miterlimit="10" stroke-dasharray=""/><path fill="none" stroke="#505050" paint-order="fill stroke markers" d=" M 442.1500121951103 332.28130492568016 C 445.86040952775426 332.28130492568016 450.7865234318023 333.0031448304653 454.49692076444626 333.0031448304653" stroke-miterlimit="10" stroke-dasharray=""/><path fill="none" stroke="#505050" paint-order="fill stroke markers" d=" M 402.97812193632126 316.3156448304653 C 409.5855397426251 316.3156448304653 411.5425943888065 332.28130492568016 418.1500121951103 332.28130492568016" stroke-miterlimit="10" stroke-dasharray=""/><path fill="none" stroke="#505050" paint-order="fill stroke markers" d=" M 359.7406341433525 337.421884149313 C 377.3838662395484 337.421884149313 400.5067800989144 344.28130492568016 418.1500121951103 344.28130492568016" stroke-miterlimit="10" stroke-dasharray=""/><path fill="none" stroke="#505050" paint-order="fill stroke markers" d=" M 360.20627135038376 360.1593643128872 C 377.62828272370797 360.1593643128872 400.7280008217861 356.28130492568016 418.1500121951103 356.28130492568016" stroke-miterlimit="10" stroke-dasharray=""/><path fill="none" stroke="#505050" paint-order="fill stroke markers" d=" M 583.4406768679619 357.99685820937157 C 594.6850993873538 357.99685820937157 590.7306476591168 325.4187637269497 601.9750701785088 325.4187637269497" stroke-miterlimit="10" stroke-dasharray=""/><path fill="none" stroke="#505050" paint-order="fill stroke markers" d=" M 582.9750396609306 335.25937804579735 C 591.6595789932395 335.25937804579735 593.2905308461999 313.4187637269497 601.9750701785088 313.4187637269497" stroke-miterlimit="10" stroke-dasharray=""/><path fill="none" stroke="#505050" paint-order="fill stroke markers" d=" M 666.7250549197197 332.04689940810204 C 670.0807217984716 332.04689940810204 674.5256227821787 331.2375198304653 677.8812896609306 331.2375198304653" stroke-miterlimit="10" stroke-dasharray=""/><path fill="none" stroke="#505050" paint-order="fill stroke markers" d=" M 625.9750701785088 313.4187637269497 C 633.4904709330101 313.4187637269497 635.2096541652184 332.04689940810204 642.7250549197197 332.04689940810204" stroke-miterlimit="10" stroke-dasharray=""/><path fill="none" stroke="#505050" paint-order="fill stroke markers" d=" M 582.9750396609306 335.25937804579735 C 601.0928661575241 335.25937804579735 624.6072284231262 344.04689940810204 642.7250549197197 344.04689940810204" stroke-miterlimit="10" stroke-dasharray=""/><path fill="none" stroke="#505050" paint-order="fill stroke markers" d=" M 583.4406768679619 357.99685820937157 C 601.2356082763134 357.99685820937157 624.9301235113682 356.04689940810204 642.7250549197197 356.04689940810204" stroke-miterlimit="10" stroke-dasharray=""/><path fill="none" stroke="#505050" paint-order="fill stroke markers" d=" M 829.1156951785088 261.74685820937157 C 838.799442667425 261.74685820937157 843.8411884122488 282.8687195777893 853.524935901165 282.8687195777893" stroke-miterlimit="10" stroke-dasharray=""/><path fill="none" stroke="#505050" paint-order="fill stroke markers" d=" M 782.91873472929 283.3812194764614 C 792.0051039037658 283.3812194764614 795.029326004033 261.74685820937157 804.1156951785088 261.74685820937157" stroke-miterlimit="10" stroke-dasharray=""/><path fill="none" stroke="#505050" paint-order="fill stroke markers" d=" M 877.524935901165 282.8687195777893 C 881.4257118202463 282.8687195777893 886.6242820523962 283.12185820937157 890.5250579714775 283.12185820937157" stroke-miterlimit="10" stroke-dasharray=""/><path fill="none" stroke="#505050" paint-order="fill stroke markers" d=" M 829.5781356692314 322.9781060218811 C 838.2364577679865 322.9781060218811 844.8666138024099 306.8687195777893 853.524935901165 306.8687195777893" stroke-miterlimit="10" stroke-dasharray=""/><path fill="none" stroke="#505050" paint-order="fill stroke markers" d=" M 782.91873472929 283.3812194764614 C 796.6053182604094 283.3812194764614 791.891552138112 322.9781060218811 805.5781356692314 322.9781060218811" stroke-miterlimit="10" stroke-dasharray=""/><path fill="none" stroke="#505050" paint-order="fill stroke markers" d=" M 782.91873472929 283.3812194764614 C 804.3791132726689 283.3812194764614 832.0645573577862 294.8687195777893 853.524935901165 294.8687195777893" stroke-miterlimit="10" stroke-dasharray=""/></g></g></svg>