<svg version="1.1" xmlns="http://www.w3.org/2000/svg" xmlns:xlink="http://www.w3.org/1999/xlink" width="699.078125" height="312.83984375"><defs/><g transform="translate(-363.49609375,-71.58203125)"><g><path fill="white" stroke="#505050" paint-order="fill stroke markers" d=" M 364.49609375 123.171875 L 364.49609375 178.3046875 Q 364.49609375 186.3046875 372.49609375 186.3046875 L 522.25 186.3046875 Q 530.25 186.3046875 530.25 178.3046875 L 530.25 123.171875 Q 530.25 115.171875 522.25 115.171875 L 372.49609375 115.171875 Q 364.49609375 115.171875 364.49609375 123.171875" stroke-miterlimit="10" stroke-width="0.5" stroke-dasharray=""/><path fill="#F0F0F0" stroke="#505050" paint-order="fill stroke markers" d=" M 489.25 144.3046875 L 522.25 144.3046875 L 522.25 178.3046875 L 489.25 178.3046875 L 489.25 144.3046875 Z" stroke-miterlimit="10" stroke-width="0.5" stroke-dasharray=""/><text fill="#505050" stroke="none" font-family="monospace" font-size="14px" font-style="normal" font-weight="normal" text-decoration="normal" x="505.75" y="162.3046875" text-anchor="middle" dominant-baseline="text-after-edge">&lt;0</text><path fill="none" stroke="#505050" paint-order="fill stroke markers" d=" M 489.25 166.3046875 L 497.25 166.3046875 L 497.25 174.3046875 L 489.25 174.3046875 L 489.25 166.3046875 Z" stroke-miterlimit="10" stroke-width="0.5" stroke-dasharray=""/><path fill="none" stroke="#505050" paint-order="fill stroke markers" d=" M 514.25 166.3046875 L 522.25 166.3046875 L 522.25 174.3046875 L 514.25 174.3046875 L 514.25 166.3046875 Z" stroke-miterlimit="10" stroke-width="0.5" stroke-dasharray=""/><path fill="white" stroke="#505050" paint-order="fill stroke markers" d=" M 372.49609375 148.3046875 L 420.49609375 148.3046875 L 420.49609375 170.3046875 L 372.49609375 170.3046875 L 372.49609375 148.3046875 Z" stroke-miterlimit="10" stroke-width="0.5" stroke-dasharray=""/><path fill="none" stroke="#505050" paint-order="fill stroke markers" d=" M 412.49609375 157.3046875 L 420.49609375 157.3046875 L 420.49609375 165.3046875 L 412.49609375 165.3046875 L 412.49609375 157.3046875 Z" stroke-miterlimit="10" stroke-width="0.5" stroke-dasharray=""/><text fill="#505050" stroke="none" font-family="monospace" font-size="14px" font-style="normal" font-weight="normal" text-decoration="normal" x="404.49609375" y="166.3046875" text-anchor="end" dominant-baseline="text-after-edge">0</text><path fill="white" stroke="#505050" paint-order="fill stroke markers" d=" M 449.25 123.171875 L 481.25 123.171875 L 481.25 169.171875 L 449.25 169.171875 L 449.25 123.171875 Z" stroke-miterlimit="10" stroke-width="0.5" stroke-dasharray=""/><text fill="#505050" stroke="none" font-family="monospace" font-size="14px" font-style="normal" font-weight="normal" text-decoration="normal" x="465.25" y="141.171875" text-anchor="middle" dominant-baseline="text-after-edge">&lt;</text><path fill="none" stroke="#505050" paint-order="fill stroke markers" d=" M 449.25 145.171875 L 457.25 145.171875 L 457.25 153.171875 L 449.25 153.171875 L 449.25 145.171875 Z" stroke-miterlimit="10" stroke-width="0.5" stroke-dasharray=""/><path fill="none" stroke="#505050" paint-order="fill stroke markers" d=" M 449.25 157.171875 L 457.25 157.171875 L 457.25 165.171875 L 449.25 165.171875 L 449.25 157.171875 Z" stroke-miterlimit="10" stroke-width="0.5" stroke-dasharray=""/><path fill="none" stroke="#505050" paint-order="fill stroke markers" d=" M 473.25 145.171875 L 481.25 145.171875 L 481.25 153.171875 L 473.25 153.171875 L 473.25 145.171875 Z" stroke-miterlimit="10" stroke-width="0.5" stroke-dasharray=""/><path fill="white" stroke="#505050" paint-order="fill stroke markers" d=" M 370.078125 222.9453125 L 370.078125 278.078125 Q 370.078125 286.078125 378.078125 286.078125 L 527.83203125 286.078125 Q 535.83203125 286.078125 535.83203125 278.078125 L 535.83203125 222.9453125 Q 535.83203125 214.9453125 527.83203125 214.9453125 L 378.078125 214.9453125 Q 370.078125 214.9453125 370.078125 222.9453125" stroke-miterlimit="10" stroke-width="0.5" stroke-dasharray=""/><path fill="#F0F0F0" stroke="#505050" paint-order="fill stroke markers" d=" M 494.83203125 244.078125 L 527.83203125 244.078125 L 527.83203125 278.078125 L 494.83203125 278.078125 L 494.83203125 244.078125 Z" stroke-miterlimit="10" stroke-width="0.5" stroke-dasharray=""/><text fill="#505050" stroke="none" font-family="monospace" font-size="14px" font-style="normal" font-weight="normal" text-decoration="normal" x="511.33203125" y="262.078125" text-anchor="middle" dominant-baseline="text-after-edge">&gt;0</text><path fill="none" stroke="#505050" paint-order="fill stroke markers" d=" M 494.83203125 266.078125 L 502.83203125 266.078125 L 502.83203125 274.078125 L 494.83203125 274.078125 L 494.83203125 266.078125 Z" stroke-miterlimit="10" stroke-width="0.5" stroke-dasharray=""/><path fill="none" stroke="#505050" paint-order="fill stroke markers" d=" M 519.83203125 266.078125 L 527.83203125 266.078125 L 527.83203125 274.078125 L 519.83203125 274.078125 L 519.83203125 266.078125 Z" stroke-miterlimit="10" stroke-width="0.5" stroke-dasharray=""/><path fill="white" stroke="#505050" paint-order="fill stroke markers" d=" M 378.078125 248.078125 L 426.078125 248.078125 L 426.078125 270.078125 L 378.078125 270.078125 L 378.078125 248.078125 Z" stroke-miterlimit="10" stroke-width="0.5" stroke-dasharray=""/><path fill="none" stroke="#505050" paint-order="fill stroke markers" d=" M 418.078125 257.078125 L 426.078125 257.078125 L 426.078125 265.078125 L 418.078125 265.078125 L 418.078125 257.078125 Z" stroke-miterlimit="10" stroke-width="0.5" stroke-dasharray=""/><text fill="#505050" stroke="none" font-family="monospace" font-size="14px" font-style="normal" font-weight="normal" text-decoration="normal" x="410.078125" y="266.078125" text-anchor="end" dominant-baseline="text-after-edge">0</text><path fill="white" stroke="#505050" paint-order="fill stroke markers" d=" M 454.83203125 222.9453125 L 486.83203125 222.9453125 L 486.83203125 268.9453125 L 454.83203125 268.9453125 L 454.83203125 222.9453125 Z" stroke-miterlimit="10" stroke-width="0.5" stroke-dasharray=""/><text fill="#505050" stroke="none" font-family="monospace" font-size="14px" font-style="normal" font-weight="normal" text-decoration="normal" x="470.83203125" y="240.9453125" text-anchor="middle" dominant-baseline="text-after-edge">&gt;</text><path fill="none" stroke="#505050" paint-order="fill stroke markers" d=" M 454.83203125 244.9453125 L 462.83203125 244.9453125 L 462.83203125 252.9453125 L 454.83203125 252.9453125 L 454.83203125 244.9453125 Z" stroke-miterlimit="10" stroke-width="0.5" stroke-dasharray=""/><path fill="none" stroke="#505050" paint-order="fill stroke markers" d=" M 454.83203125 256.9453125 L 462.83203125 256.9453125 L 462.83203125 264.9453125 L 454.83203125 264.9453125 L 454.83203125 256.9453125 Z" stroke-miterlimit="10" stroke-width="0.5" stroke-dasharray=""/><path fill="none" stroke="#505050" paint-order="fill stroke markers" d=" M 478.83203125 244.9453125 L 486.83203125 244.9453125 L 486.83203125 252.9453125 L 478.83203125 252.9453125 L 478.83203125 244.9453125 Z" stroke-miterlimit="10" stroke-width="0.5" stroke-dasharray=""/><path fill="white" stroke="#505050" paint-order="fill stroke markers" d=" M 568.55078125 289.40234375 L 568.55078125 375.421875 Q 568.55078125 383.421875 576.55078125 383.421875 L 767.17578125 383.421875 Q 775.17578125 383.421875 775.17578125 375.421875 L 775.17578125 289.40234375 Q 775.17578125 281.40234375 767.17578125 281.40234375 L 576.55078125 281.40234375 Q 568.55078125 281.40234375 568.55078125 289.40234375" stroke-miterlimit="10" stroke-width="0.5" stroke-dasharray=""/><path fill="#F0F0F0" stroke="#505050" paint-order="fill stroke markers" d=" M 726.17578125 341.421875 L 767.17578125 341.421875 L 767.17578125 375.421875 L 726.17578125 375.421875 L 726.17578125 341.421875 Z" stroke-miterlimit="10" stroke-width="0.5" stroke-dasharray=""/><text fill="#505050" stroke="none" font-family="monospace" font-size="14px" font-style="normal" font-weight="normal" text-decoration="normal" x="746.67578125" y="359.421875" text-anchor="middle" dominant-baseline="text-after-edge">abs</text><path fill="none" stroke="#505050" paint-order="fill stroke markers" d=" M 726.17578125 363.421875 L 734.17578125 363.421875 L 734.17578125 371.421875 L 726.17578125 371.421875 L 726.17578125 363.421875 Z" stroke-miterlimit="10" stroke-width="0.5" stroke-dasharray=""/><path fill="none" stroke="#505050" paint-order="fill stroke markers" d=" M 759.17578125 363.421875 L 767.17578125 363.421875 L 767.17578125 371.421875 L 759.17578125 371.421875 L 759.17578125 363.421875 Z" stroke-miterlimit="10" stroke-width="0.5" stroke-dasharray=""/><path fill="white" stroke="#505050" paint-order="fill stroke markers" d=" M 583.25390625 318.16796875 L 607.25390625 318.16796875 L 607.25390625 338.16796875 L 583.25390625 338.16796875 L 591.25390625 328.16796875 L 583.25390625 318.16796875" stroke-miterlimit="10" stroke-width="0.5" stroke-dasharray=""/><path fill="none" stroke="#505050" paint-order="fill stroke markers" d=" M 607.25390625 330.16796875 A 4 4 0 1 0 607.2539042500001 330.17196874933336" stroke-miterlimit="10" stroke-width="0.5" stroke-dasharray=""/><path fill="white" stroke="#505050" paint-order="fill stroke markers" d=" M 686.17578125 285.6640625 L 718.17578125 285.6640625 L 718.17578125 343.6640625 L 686.17578125 343.6640625 L 686.17578125 285.6640625 Z" stroke-miterlimit="10" stroke-width="0.5" stroke-dasharray=""/><text fill="#505050" stroke="none" font-family="monospace" font-size="14px" font-style="normal" font-weight="normal" text-decoration="normal" x="702.17578125" y="303.6640625" text-anchor="middle" dominant-baseline="text-after-edge">?</text><path fill="none" stroke="#505050" paint-order="fill stroke markers" d=" M 686.17578125 307.6640625 L 694.17578125 307.6640625 L 694.17578125 315.6640625 L 686.17578125 315.6640625 L 686.17578125 307.6640625 Z" stroke-miterlimit="10" stroke-width="0.5" stroke-dasharray=""/><path fill="none" stroke="#505050" paint-order="fill stroke markers" d=" M 694.17578125 323.6640625 A 4 4 0 1 0 694.1757792500001 323.66806249933336" stroke-miterlimit="10" stroke-width="0.5" stroke-dasharray=""/><path fill="none" stroke="#505050" paint-order="fill stroke markers" d=" M 694.17578125 335.6640625 A 4 4 0 1 0 694.1757792500001 335.66806249933336" stroke-miterlimit="10" stroke-width="0.5" stroke-dasharray=""/><path fill="none" stroke="#505050" paint-order="fill stroke markers" d=" M 718.17578125 311.6640625 A 4 4 0 1 0 718.1757792500001 311.66806249933336" stroke-miterlimit="10" stroke-width="0.5" stroke-dasharray=""/><path fill="white" stroke="#505050" paint-order="fill stroke markers" d=" M 627.38671875 285.21875 L 660.38671875 285.21875 L 660.38671875 319.21875 L 627.38671875 319.21875 L 627.38671875 285.21875 Z" stroke-miterlimit="10" stroke-width="0.5" stroke-dasharray=""/><text fill="#505050" stroke="none" font-family="monospace" font-size="14px" font-style="normal" font-weight="normal" text-decoration="normal" x="643.88671875" y="303.21875" text-anchor="middle" dominant-baseline="text-after-edge">&gt;0</text><path fill="none" stroke="#505050" paint-order="fill stroke markers" d=" M 627.38671875 307.21875 L 635.38671875 307.21875 L 635.38671875 315.21875 L 627.38671875 315.21875 L 627.38671875 307.21875 Z" stroke-miterlimit="10" stroke-width="0.5" stroke-dasharray=""/><path fill="none" stroke="#505050" paint-order="fill stroke markers" d=" M 652.38671875 307.21875 L 660.38671875 307.21875 L 660.38671875 315.21875 L 652.38671875 315.21875 L 652.38671875 307.21875 Z" stroke-miterlimit="10" stroke-width="0.5" stroke-dasharray=""/><path fill="white" stroke="#505050" paint-order="fill stroke markers" d=" M 637.23828125 333.421875 L 669.23828125 333.421875 L 669.23828125 367.421875 L 637.23828125 367.421875 L 637.23828125 333.421875 Z" stroke-miterlimit="10" stroke-width="0.5" stroke-dasharray=""/><text fill="#505050" stroke="none" font-family="monospace" font-size="14px" font-style="normal" font-weight="normal" text-decoration="normal" x="653.23828125" y="351.421875" text-anchor="middle" dominant-baseline="text-after-edge">-</text><path fill="none" stroke="#505050" paint-order="fill stroke markers" d=" M 637.23828125 355.421875 L 645.23828125 355.421875 L 645.23828125 363.421875 L 637.23828125 363.421875 L 637.23828125 355.421875 Z" stroke-miterlimit="10" stroke-width="0.5" stroke-dasharray=""/><path fill="none" stroke="#505050" paint-order="fill stroke markers" d=" M 661.23828125 355.421875 L 669.23828125 355.421875 L 669.23828125 363.421875 L 661.23828125 363.421875 L 661.23828125 355.421875 Z" stroke-miterlimit="10" stroke-width="0.5" stroke-dasharray=""/><path fill="white" stroke="#505050" paint-order="fill stroke markers" d=" M 834.96484375 99.24609375 L 834.96484375 193.0625 Q 834.96484375 201.0625 842.96484375 201.0625 L 1053.57421875 201.0625 Q 1061.57421875 201.0625 1061.57421875 193.0625 L 1061.57421875 99.24609375 Q 1061.57421875 91.24609375 1053.57421875 91.24609375 L 842.96484375 91.24609375 Q 834.96484375 91.24609375 834.96484375 99.24609375" stroke-miterlimit="10" stroke-width="0.5" stroke-dasharray=""/><path fill="#F0F0F0" stroke="#505050" paint-order="fill stroke markers" d=" M 1012.57421875 147.0625 L 1053.57421875 147.0625 L 1053.57421875 193.0625 L 1012.57421875 193.0625 L 1012.57421875 147.0625 Z" stroke-miterlimit="10" stroke-width="0.5" stroke-dasharray=""/><text fill="#505050" stroke="none" font-family="monospace" font-size="14px" font-style="normal" font-weight="normal" text-decoration="normal" x="1033.07421875" y="165.0625" text-anchor="middle" dominant-baseline="text-after-edge">min</text><path fill="none" stroke="#505050" paint-order="fill stroke markers" d=" M 1012.57421875 169.0625 L 1020.57421875 169.0625 L 1020.57421875 177.0625 L 1012.57421875 177.0625 L 1012.57421875 169.0625 Z" stroke-miterlimit="10" stroke-width="0.5" stroke-dasharray=""/><path fill="none" stroke="#505050" paint-order="fill stroke markers" d=" M 1012.57421875 181.0625 L 1020.57421875 181.0625 L 1020.57421875 189.0625 L 1012.57421875 189.0625 L 1012.57421875 181.0625 Z" stroke-miterlimit="10" stroke-width="0.5" stroke-dasharray=""/><path fill="none" stroke="#505050" paint-order="fill stroke markers" d=" M 1045.57421875 169.0625 L 1053.57421875 169.0625 L 1053.57421875 177.0625 L 1045.57421875 177.0625 L 1045.57421875 169.0625 Z" stroke-miterlimit="10" stroke-width="0.5" stroke-dasharray=""/><path fill="white" stroke="#505050" paint-order="fill stroke markers" d=" M 843.125 164.38671875 L 867.125 164.38671875 L 867.125 184.38671875 L 843.125 184.38671875 L 851.125 174.38671875 L 843.125 164.38671875" stroke-miterlimit="10" stroke-width="0.5" stroke-dasharray=""/><path fill="none" stroke="#505050" paint-order="fill stroke markers" d=" M 867.125 176.38671875 A 4 4 0 1 0 867.1249980000001 176.39071874933333" stroke-miterlimit="10" stroke-width="0.5" stroke-dasharray=""/><path fill="white" stroke="#505050" paint-order="fill stroke markers" d=" M 972.57421875 127.0625 L 1004.57421875 127.0625 L 1004.57421875 185.0625 L 972.57421875 185.0625 L 972.57421875 127.0625 Z" stroke-miterlimit="10" stroke-width="0.5" stroke-dasharray=""/><text fill="#505050" stroke="none" font-family="monospace" font-size="14px" font-style="normal" font-weight="normal" text-decoration="normal" x="988.57421875" y="145.0625" text-anchor="middle" dominant-baseline="text-after-edge">?</text><path fill="none" stroke="#505050" paint-order="fill stroke markers" d=" M 972.57421875 149.0625 L 980.57421875 149.0625 L 980.57421875 157.0625 L 972.57421875 157.0625 L 972.57421875 149.0625 Z" stroke-miterlimit="10" stroke-width="0.5" stroke-dasharray=""/><path fill="none" stroke="#505050" paint-order="fill stroke markers" d=" M 980.57421875 165.0625 A 4 4 0 1 0 980.5742167500001 165.06649999933333" stroke-miterlimit="10" stroke-width="0.5" stroke-dasharray=""/><path fill="none" stroke="#505050" paint-order="fill stroke markers" d=" M 980.57421875 177.0625 A 4 4 0 1 0 980.5742167500001 177.06649999933333" stroke-miterlimit="10" stroke-width="0.5" stroke-dasharray=""/><path fill="none" stroke="#505050" paint-order="fill stroke markers" d=" M 1004.57421875 153.0625 A 4 4 0 1 0 1004.5742167500001 153.06649999933333" stroke-miterlimit="10" stroke-width="0.5" stroke-dasharray=""/><path fill="white" stroke="#505050" paint-order="fill stroke markers" d=" M 842.96484375 129.24609375 L 866.96484375 129.24609375 L 866.96484375 149.24609375 L 842.96484375 149.24609375 L 850.96484375 139.24609375 L 842.96484375 129.24609375" stroke-miterlimit="10" stroke-width="0.5" stroke-dasharray=""/><path fill="none" stroke="#505050" paint-order="fill stroke markers" d=" M 866.96484375 141.24609375 A 4 4 0 1 0 866.9648417500001 141.25009374933333" stroke-miterlimit="10" stroke-width="0.5" stroke-dasharray=""/><path fill="white" stroke="#505050" paint-order="fill stroke markers" d=" M 911.28125 99.24609375 L 943.28125 99.24609375 L 943.28125 145.24609375 L 911.28125 145.24609375 L 911.28125 99.24609375 Z" stroke-miterlimit="10" stroke-width="0.5" stroke-dasharray=""/><text fill="#505050" stroke="none" font-family="monospace" font-size="14px" font-style="normal" font-weight="normal" text-decoration="normal" x="927.28125" y="117.24609375" text-anchor="middle" dominant-baseline="text-after-edge">&lt;</text><path fill="none" stroke="#505050" paint-order="fill stroke markers" d=" M 911.28125 121.24609375 L 919.28125 121.24609375 L 919.28125 129.24609375 L 911.28125 129.24609375 L 911.28125 121.24609375 Z" stroke-miterlimit="10" stroke-width="0.5" stroke-dasharray=""/><path fill="none" stroke="#505050" paint-order="fill stroke markers" d=" M 911.28125 133.24609375 L 919.28125 133.24609375 L 919.28125 141.24609375 L 911.28125 141.24609375 L 911.28125 133.24609375 Z" stroke-miterlimit="10" stroke-width="0.5" stroke-dasharray=""/><path fill="none" stroke="#505050" paint-order="fill stroke markers" d=" M 935.28125 121.24609375 L 943.28125 121.24609375 L 943.28125 129.24609375 L 935.28125 129.24609375 L 935.28125 121.24609375 Z" stroke-miterlimit="10" stroke-width="0.5" stroke-dasharray=""/><path fill="white" stroke="#505050" paint-order="fill stroke markers" d=" M 832.5390625 241.09765625 L 832.5390625 334.9140625 Q 832.5390625 342.9140625 840.5390625 342.9140625 L 1051.1484375 342.9140625 Q 1059.1484375 342.9140625 1059.1484375 334.9140625 L 1059.1484375 241.09765625 Q 1059.1484375 233.09765625 1051.1484375 233.09765625 L 840.5390625 233.09765625 Q 832.5390625 233.09765625 832.5390625 241.09765625" stroke-miterlimit="10" stroke-width="0.5" stroke-dasharray=""/><path fill="#F0F0F0" stroke="#505050" paint-order="fill stroke markers" d=" M 1010.1484375 288.9140625 L 1051.1484375 288.9140625 L 1051.1484375 334.9140625 L 1010.1484375 334.9140625 L 1010.1484375 288.9140625 Z" stroke-miterlimit="10" stroke-width="0.5" stroke-dasharray=""/><text fill="#505050" stroke="none" font-family="monospace" font-size="14px" font-style="normal" font-weight="normal" text-decoration="normal" x="1030.6484375" y="306.9140625" text-anchor="middle" dominant-baseline="text-after-edge">max</text><path fill="none" stroke="#505050" paint-order="fill stroke markers" d=" M 1010.1484375 310.9140625 L 1018.1484375 310.9140625 L 1018.1484375 318.9140625 L 1010.1484375 318.9140625 L 1010.1484375 310.9140625 Z" stroke-miterlimit="10" stroke-width="0.5" stroke-dasharray=""/><path fill="none" stroke="#505050" paint-order="fill stroke markers" d=" M 1010.1484375 322.9140625 L 1018.1484375 322.9140625 L 1018.1484375 330.9140625 L 1010.1484375 330.9140625 L 1010.1484375 322.9140625 Z" stroke-miterlimit="10" stroke-width="0.5" stroke-dasharray=""/><path fill="none" stroke="#505050" paint-order="fill stroke markers" d=" M 1043.1484375 310.9140625 L 1051.1484375 310.9140625 L 1051.1484375 318.9140625 L 1043.1484375 318.9140625 L 1043.1484375 310.9140625 Z" stroke-miterlimit="10" stroke-width="0.5" stroke-dasharray=""/><path fill="white" stroke="#505050" paint-order="fill stroke markers" d=" M 840.69921875 306.23828125 L 864.69921875 306.23828125 L 864.69921875 326.23828125 L 840.69921875 326.23828125 L 848.69921875 316.23828125 L 840.69921875 306.23828125" stroke-miterlimit="10" stroke-width="0.5" stroke-dasharray=""/><path fill="none" stroke="#505050" paint-order="fill stroke markers" d=" M 864.69921875 318.23828125 A 4 4 0 1 0 864.6992167500001 318.24228124933336" stroke-miterlimit="10" stroke-width="0.5" stroke-dasharray=""/><path fill="white" stroke="#505050" paint-order="fill stroke markers" d=" M 970.1484375 268.9140625 L 1002.1484375 268.9140625 L 1002.1484375 326.9140625 L 970.1484375 326.9140625 L 970.1484375 268.9140625 Z" stroke-miterlimit="10" stroke-width="0.5" stroke-dasharray=""/><text fill="#505050" stroke="none" font-family="monospace" font-size="14px" font-style="normal" font-weight="normal" text-decoration="normal" x="986.1484375" y="286.9140625" text-anchor="middle" dominant-baseline="text-after-edge">?</text><path fill="none" stroke="#505050" paint-order="fill stroke markers" d=" M 970.1484375 290.9140625 L 978.1484375 290.9140625 L 978.1484375 298.9140625 L 970.1484375 298.9140625 L 970.1484375 290.9140625 Z" stroke-miterlimit="10" stroke-width="0.5" stroke-dasharray=""/><path fill="none" stroke="#505050" paint-order="fill stroke markers" d=" M 978.1484375 306.9140625 A 4 4 0 1 0 978.1484355000001 306.91806249933336" stroke-miterlimit="10" stroke-width="0.5" stroke-dasharray=""/><path fill="none" stroke="#505050" paint-order="fill stroke markers" d=" M 978.1484375 318.9140625 A 4 4 0 1 0 978.1484355000001 318.91806249933336" stroke-miterlimit="10" stroke-width="0.5" stroke-dasharray=""/><path fill="none" stroke="#505050" paint-order="fill stroke markers" d=" M 1002.1484375 294.9140625 A 4 4 0 1 0 1002.1484355000001 294.91806249933336" stroke-miterlimit="10" stroke-width="0.5" stroke-dasharray=""/><path fill="white" stroke="#505050" paint-order="fill stroke markers" d=" M 840.5390625 271.09765625 L 864.5390625 271.09765625 L 864.5390625 291.09765625 L 840.5390625 291.09765625 L 848.5390625 281.09765625 L 840.5390625 271.09765625" stroke-miterlimit="10" stroke-width="0.5" stroke-dasharray=""/><path fill="none" stroke="#505050" paint-order="fill stroke markers" d=" M 864.5390625 283.09765625 A 4 4 0 1 0 864.5390605000001 283.10165624933336" stroke-miterlimit="10" stroke-width="0.5" stroke-dasharray=""/><path fill="white" stroke="#505050" paint-order="fill stroke markers" d=" M 908.85546875 241.09765625 L 940.85546875 241.09765625 L 940.85546875 287.09765625 L 908.85546875 287.09765625 L 908.85546875 241.09765625 Z" stroke-miterlimit="10" stroke-width="0.5" stroke-dasharray=""/><text fill="#505050" stroke="none" font-family="monospace" font-size="14px" font-style="normal" font-weight="normal" text-decoration="normal" x="924.85546875" y="259.09765625" text-anchor="middle" dominant-baseline="text-after-edge">&gt;</text><path fill="none" stroke="#505050" paint-order="fill stroke markers" d=" M 908.85546875 263.09765625 L 916.85546875 263.09765625 L 916.85546875 271.09765625 L 908.85546875 271.09765625 L 908.85546875 263.09765625 Z" stroke-miterlimit="10" stroke-width="0.5" stroke-dasharray=""/><path fill="none" stroke="#505050" paint-order="fill stroke markers" d=" M 908.85546875 275.09765625 L 916.85546875 275.09765625 L 916.85546875 283.09765625 L 908.85546875 283.09765625 L 908.85546875 275.09765625 Z" stroke-miterlimit="10" stroke-width="0.5" stroke-dasharray=""/><path fill="none" stroke="#505050" paint-order="fill stroke markers" d=" M 932.85546875 263.09765625 L 940.85546875 263.09765625 L 940.85546875 271.09765625 L 932.85546875 271.09765625 L 932.85546875 263.09765625 Z" stroke-miterlimit="10" stroke-width="0.5" stroke-dasharray=""/><path fill="white" stroke="#505050" paint-order="fill stroke markers" d=" M 574.6015625 80.58203125 L 574.6015625 135.71484375 Q 574.6015625 143.71484375 582.6015625 143.71484375 L 755.35546875 143.71484375 Q 763.35546875 143.71484375 763.35546875 135.71484375 L 763.35546875 80.58203125 Q 763.35546875 72.58203125 755.35546875 72.58203125 L 582.6015625 72.58203125 Q 574.6015625 72.58203125 574.6015625 80.58203125" stroke-miterlimit="10" stroke-width="0.5" stroke-dasharray=""/><path fill="#F0F0F0" stroke="#505050" paint-order="fill stroke markers" d=" M 722.35546875 101.71484375 L 755.35546875 101.71484375 L 755.35546875 135.71484375 L 722.35546875 135.71484375 L 722.35546875 101.71484375 Z" stroke-miterlimit="10" stroke-width="0.5" stroke-dasharray=""/><text fill="#505050" stroke="none" font-family="monospace" font-size="14px" font-style="normal" font-weight="normal" text-decoration="normal" x="738.85546875" y="119.71484375" text-anchor="middle" dominant-baseline="text-after-edge">+1</text><path fill="none" stroke="#505050" paint-order="fill stroke markers" d=" M 722.35546875 123.71484375 L 730.35546875 123.71484375 L 730.35546875 131.71484375 L 722.35546875 131.71484375 L 722.35546875 123.71484375 Z" stroke-miterlimit="10" stroke-width="0.5" stroke-dasharray=""/><path fill="none" stroke="#505050" paint-order="fill stroke markers" d=" M 747.35546875 123.71484375 L 755.35546875 123.71484375 L 755.35546875 131.71484375 L 747.35546875 131.71484375 L 747.35546875 123.71484375 Z" stroke-miterlimit="10" stroke-width="0.5" stroke-dasharray=""/><path fill="white" stroke="#505050" paint-order="fill stroke markers" d=" M 582.6015625 105.71484375 L 630.6015625 105.71484375 L 630.6015625 127.71484375 L 582.6015625 127.71484375 L 582.6015625 105.71484375 Z" stroke-miterlimit="10" stroke-width="0.5" stroke-dasharray=""/><path fill="none" stroke="#505050" paint-order="fill stroke markers" d=" M 622.6015625 114.71484375 L 630.6015625 114.71484375 L 630.6015625 122.71484375 L 622.6015625 122.71484375 L 622.6015625 114.71484375 Z" stroke-miterlimit="10" stroke-width="0.5" stroke-dasharray=""/><text fill="#505050" stroke="none" font-family="monospace" font-size="14px" font-style="normal" font-weight="normal" text-decoration="normal" x="614.6015625" y="123.71484375" text-anchor="end" dominant-baseline="text-after-edge">1</text><path fill="white" stroke="#505050" paint-order="fill stroke markers" d=" M 659.35546875 80.58203125 L 691.35546875 80.58203125 L 691.35546875 126.58203125 L 659.35546875 126.58203125 L 659.35546875 80.58203125 Z" stroke-miterlimit="10" stroke-width="0.5" stroke-dasharray=""/><text fill="#505050" stroke="none" font-family="monospace" font-size="14px" font-style="normal" font-weight="normal" text-decoration="normal" x="675.35546875" y="98.58203125" text-anchor="middle" dominant-baseline="text-after-edge">+</text><path fill="none" stroke="#505050" paint-order="fill stroke markers" d=" M 659.35546875 102.58203125 L 667.35546875 102.58203125 L 667.35546875 110.58203125 L 659.35546875 110.58203125 L 659.35546875 102.58203125 Z" stroke-miterlimit="10" stroke-width="0.5" stroke-dasharray=""/><path fill="none" stroke="#505050" paint-order="fill stroke markers" d=" M 659.35546875 114.58203125 L 667.35546875 114.58203125 L 667.35546875 122.58203125 L 659.35546875 122.58203125 L 659.35546875 114.58203125 Z" stroke-miterlimit="10" stroke-width="0.5" stroke-dasharray=""/><path fill="none" stroke="#505050" paint-order="fill stroke markers" d=" M 683.35546875 102.58203125 L 691.35546875 102.58203125 L 691.35546875 110.58203125 L 683.35546875 110.58203125 L 683.35546875 102.58203125 Z" stroke-miterlimit="10" stroke-width="0.5" stroke-dasharray=""/><path fill="white" stroke="#505050" paint-order="fill stroke markers" d=" M 572.2734375 183.26953125 L 572.2734375 238.40234375 Q 572.2734375 246.40234375 580.2734375 246.40234375 L 753.02734375 246.40234375 Q 761.02734375 246.40234375 761.02734375 238.40234375 L 761.02734375 183.26953125 Q 761.02734375 175.26953125 753.02734375 175.26953125 L 580.2734375 175.26953125 Q 572.2734375 175.26953125 572.2734375 183.26953125" stroke-miterlimit="10" stroke-width="0.5" stroke-dasharray=""/><path fill="#F0F0F0" stroke="#505050" paint-order="fill stroke markers" d=" M 720.02734375 204.40234375 L 753.02734375 204.40234375 L 753.02734375 238.40234375 L 720.02734375 238.40234375 L 720.02734375 204.40234375 Z" stroke-miterlimit="10" stroke-width="0.5" stroke-dasharray=""/><text fill="#505050" stroke="none" font-family="monospace" font-size="14px" font-style="normal" font-weight="normal" text-decoration="normal" x="736.52734375" y="222.40234375" text-anchor="middle" dominant-baseline="text-after-edge">-1</text><path fill="none" stroke="#505050" paint-order="fill stroke markers" d=" M 720.02734375 226.40234375 L 728.02734375 226.40234375 L 728.02734375 234.40234375 L 720.02734375 234.40234375 L 720.02734375 226.40234375 Z" stroke-miterlimit="10" stroke-width="0.5" stroke-dasharray=""/><path fill="none" stroke="#505050" paint-order="fill stroke markers" d=" M 745.02734375 226.40234375 L 753.02734375 226.40234375 L 753.02734375 234.40234375 L 745.02734375 234.40234375 L 745.02734375 226.40234375 Z" stroke-miterlimit="10" stroke-width="0.5" stroke-dasharray=""/><path fill="white" stroke="#505050" paint-order="fill stroke markers" d=" M 580.2734375 208.40234375 L 628.2734375 208.40234375 L 628.2734375 230.40234375 L 580.2734375 230.40234375 L 580.2734375 208.40234375 Z" stroke-miterlimit="10" stroke-width="0.5" stroke-dasharray=""/><path fill="none" stroke="#505050" paint-order="fill stroke markers" d=" M 620.2734375 217.40234375 L 628.2734375 217.40234375 L 628.2734375 225.40234375 L 620.2734375 225.40234375 L 620.2734375 217.40234375 Z" stroke-miterlimit="10" stroke-width="0.5" stroke-dasharray=""/><text fill="#505050" stroke="none" font-family="monospace" font-size="14px" font-style="normal" font-weight="normal" text-decoration="normal" x="612.2734375" y="226.40234375" text-anchor="end" dominant-baseline="text-after-edge">1</text><path fill="white" stroke="#505050" paint-order="fill stroke markers" d=" M 657.02734375 183.26953125 L 689.02734375 183.26953125 L 689.02734375 229.26953125 L 657.02734375 229.26953125 L 657.02734375 183.26953125 Z" stroke-miterlimit="10" stroke-width="0.5" stroke-dasharray=""/><text fill="#505050" stroke="none" font-family="monospace" font-size="14px" font-style="normal" font-weight="normal" text-decoration="normal" x="673.02734375" y="201.26953125" text-anchor="middle" dominant-baseline="text-after-edge">-</text><path fill="none" stroke="#505050" paint-order="fill stroke markers" d=" M 657.02734375 205.26953125 L 665.02734375 205.26953125 L 665.02734375 213.26953125 L 657.02734375 213.26953125 L 657.02734375 205.26953125 Z" stroke-miterlimit="10" stroke-width="0.5" stroke-dasharray=""/><path fill="none" stroke="#505050" paint-order="fill stroke markers" d=" M 657.02734375 217.26953125 L 665.02734375 217.26953125 L 665.02734375 225.26953125 L 657.02734375 225.26953125 L 657.02734375 217.26953125 Z" stroke-miterlimit="10" stroke-width="0.5" stroke-dasharray=""/><path fill="none" stroke="#505050" paint-order="fill stroke markers" d=" M 681.02734375 205.26953125 L 689.02734375 205.26953125 L 689.02734375 213.26953125 L 681.02734375 213.26953125 L 681.02734375 205.26953125 Z" stroke-miterlimit="10" stroke-width="0.5" stroke-dasharray=""/><path fill="none" stroke="#505050" paint-order="fill stroke markers" d=" M 420.49609375 161.3046875 C 444.49609375 161.3046875 425.25 161.171875 449.25 161.171875" stroke-miterlimit="10" stroke-dasharray=""/><path fill="none" stroke="#505050" paint-order="fill stroke markers" d=" M 426.078125 261.078125 C 450.078125 261.078125 430.83203125 260.9453125 454.83203125 260.9453125" stroke-miterlimit="10" stroke-dasharray=""/><path fill="none" stroke="#505050" paint-order="fill stroke markers" d=" M 607.25390625 330.16796875 C 631.25390625 330.16796875 603.38671875 311.21875 627.38671875 311.21875" stroke-miterlimit="10" stroke-dasharray=""/><path fill="none" stroke="#505050" paint-order="fill stroke markers" d=" M 660.38671875 311.21875 C 684.38671875 311.21875 662.17578125 311.6640625 686.17578125 311.6640625" stroke-miterlimit="10" stroke-dasharray=""/><path fill="none" stroke="#505050" paint-order="fill stroke markers" d=" M 607.25390625 330.16796875 C 631.25390625 330.16796875 662.17578125 323.6640625 686.17578125 323.6640625" stroke-miterlimit="10" stroke-dasharray=""/><path fill="none" stroke="#505050" paint-order="fill stroke markers" d=" M 669.23828125 359.421875 C 693.23828125 359.421875 662.17578125 335.6640625 686.17578125 335.6640625" stroke-miterlimit="10" stroke-dasharray=""/><path fill="none" stroke="#505050" paint-order="fill stroke markers" d=" M 607.25390625 330.16796875 C 631.25390625 330.16796875 613.23828125 359.421875 637.23828125 359.421875" stroke-miterlimit="10" stroke-dasharray=""/><path fill="none" stroke="#505050" paint-order="fill stroke markers" d=" M 866.96484375 141.24609375 C 890.96484375 141.24609375 887.28125 125.24609375 911.28125 125.24609375" stroke-miterlimit="10" stroke-dasharray=""/><path fill="none" stroke="#505050" paint-order="fill stroke markers" d=" M 866.96484375 141.24609375 C 890.96484375 141.24609375 948.57421875 165.0625 972.57421875 165.0625" stroke-miterlimit="10" stroke-dasharray=""/><path fill="none" stroke="#505050" paint-order="fill stroke markers" d=" M 943.28125 125.24609375 C 967.28125 125.24609375 948.57421875 153.0625 972.57421875 153.0625" stroke-miterlimit="10" stroke-dasharray=""/><path fill="none" stroke="#505050" paint-order="fill stroke markers" d=" M 867.125 176.38671875 C 891.125 176.38671875 948.57421875 177.0625 972.57421875 177.0625" stroke-miterlimit="10" stroke-dasharray=""/><path fill="none" stroke="#505050" paint-order="fill stroke markers" d=" M 867.125 176.38671875 C 891.125 176.38671875 887.28125 137.24609375 911.28125 137.24609375" stroke-miterlimit="10" stroke-dasharray=""/><path fill="none" stroke="#505050" paint-order="fill stroke markers" d=" M 864.5390625 283.09765625 C 888.5390625 283.09765625 946.1484375 306.9140625 970.1484375 306.9140625" stroke-miterlimit="10" stroke-dasharray=""/><path fill="none" stroke="#505050" paint-order="fill stroke markers" d=" M 864.69921875 318.23828125 C 888.69921875 318.23828125 946.1484375 318.9140625 970.1484375 318.9140625" stroke-miterlimit="10" stroke-dasharray=""/><path fill="none" stroke="#505050" paint-order="fill stroke markers" d=" M 864.5390625 283.09765625 C 888.5390625 283.09765625 884.85546875 267.09765625 908.85546875 267.09765625" stroke-miterlimit="10" stroke-dasharray=""/><path fill="none" stroke="#505050" paint-order="fill stroke markers" d=" M 864.69921875 318.23828125 C 888.69921875 318.23828125 884.85546875 279.09765625 908.85546875 279.09765625" stroke-miterlimit="10" stroke-dasharray=""/><path fill="none" stroke="#505050" paint-order="fill stroke markers" d=" M 940.85546875 267.09765625 C 964.85546875 267.09765625 946.1484375 294.9140625 970.1484375 294.9140625" stroke-miterlimit="10" stroke-dasharray=""/><path fill="none" stroke="#505050" paint-order="fill stroke markers" d=" M 630.6015625 118.71484375 C 654.6015625 118.71484375 635.35546875 118.58203125 659.35546875 118.58203125" stroke-miterlimit="10" stroke-dasharray=""/><path fill="none" stroke="#505050" paint-order="fill stroke markers" d=" M 628.2734375 221.40234375 C 652.2734375 221.40234375 633.02734375 221.26953125 657.02734375 221.26953125" stroke-miterlimit="10" stroke-dasharray=""/></g></g></svg>