<svg version="1.1" xmlns="http://www.w3.org/2000/svg" xmlns:xlink="http://www.w3.org/1999/xlink" width="499.88671875" height="557.88671875"><defs/><g transform="translate(-262.89453125,-54.95703125)"><g><path fill="white" stroke="#505050" paint-order="fill stroke markers" d=" M 290.34765625 63.95703125 L 290.34765625 139.21484375 Q 290.34765625 147.21484375 298.34765625 147.21484375 L 463.3515625 147.21484375 Q 471.3515625 147.21484375 471.3515625 139.21484375 L 471.3515625 63.95703125 Q 471.3515625 55.95703125 463.3515625 55.95703125 L 298.34765625 55.95703125 Q 290.34765625 55.95703125 290.34765625 63.95703125" stroke-miterlimit="10" stroke-width="0.5" stroke-dasharray=""/><path fill="#F0F0F0" stroke="#505050" paint-order="fill stroke markers" d=" M 431.3515625 109.21484375 L 463.3515625 109.21484375 L 463.3515625 139.21484375 L 431.3515625 139.21484375 L 431.3515625 109.21484375 Z" stroke-miterlimit="10" stroke-width="0.5" stroke-dasharray=""/><text fill="#505050" stroke="none" font-family="monospace" font-size="14px" font-style="normal" font-weight="normal" text-decoration="normal" x="447.3515625" y="127.21484375" text-anchor="middle" dominant-baseline="text-after-edge">+1</text><path fill="none" stroke="#505050" paint-order="fill stroke markers" d=" M 431.3515625 127.21484375 L 439.3515625 127.21484375 L 439.3515625 135.21484375 L 431.3515625 135.21484375 L 431.3515625 127.21484375 Z" stroke-miterlimit="10" stroke-width="0.5" stroke-dasharray=""/><path fill="none" stroke="#505050" paint-order="fill stroke markers" d=" M 455.3515625 127.21484375 L 463.3515625 127.21484375 L 463.3515625 135.21484375 L 455.3515625 135.21484375 L 455.3515625 127.21484375 Z" stroke-miterlimit="10" stroke-width="0.5" stroke-dasharray=""/><path fill="white" stroke="#505050" paint-order="fill stroke markers" d=" M 376.140625 63.95703125 L 408.140625 63.95703125 L 408.140625 105.95703125 L 376.140625 105.95703125 L 376.140625 63.95703125 Z" stroke-miterlimit="10" stroke-width="0.5" stroke-dasharray=""/><text fill="#505050" stroke="none" font-family="monospace" font-size="14px" font-style="normal" font-weight="normal" text-decoration="normal" x="392.140625" y="81.95703125" text-anchor="middle" dominant-baseline="text-after-edge">+</text><path fill="none" stroke="#505050" paint-order="fill stroke markers" d=" M 376.140625 81.95703125 L 384.140625 81.95703125 L 384.140625 89.95703125 L 376.140625 89.95703125 L 376.140625 81.95703125 Z" stroke-miterlimit="10" stroke-width="0.5" stroke-dasharray=""/><path fill="none" stroke="#505050" paint-order="fill stroke markers" d=" M 376.140625 93.95703125 L 384.140625 93.95703125 L 384.140625 101.95703125 L 376.140625 101.95703125 L 376.140625 93.95703125 Z" stroke-miterlimit="10" stroke-width="0.5" stroke-dasharray=""/><path fill="none" stroke="#505050" paint-order="fill stroke markers" d=" M 400.140625 81.95703125 L 408.140625 81.95703125 L 408.140625 89.95703125 L 400.140625 89.95703125 L 400.140625 81.95703125 Z" stroke-miterlimit="10" stroke-width="0.5" stroke-dasharray=""/><path fill="white" stroke="#505050" paint-order="fill stroke markers" d=" M 398.3515625 115.21484375 L 406.3515625 115.21484375 L 414.3515625 123.21484375 L 406.3515625 131.21484375 L 398.3515625 131.21484375 L 398.3515625 115.21484375" stroke-miterlimit="10" stroke-width="0.5" stroke-dasharray=""/><path fill="none" stroke="#505050" paint-order="fill stroke markers" d=" M 398.3515625 119.21484375 L 406.3515625 119.21484375 L 406.3515625 127.21484375 L 398.3515625 127.21484375 L 398.3515625 119.21484375 Z" stroke-miterlimit="10" stroke-width="0.5" stroke-dasharray=""/><path fill="white" stroke="#505050" paint-order="fill stroke markers" d=" M 313.109375 105.16796875 L 353.109375 105.16796875 L 353.109375 123.16796875 L 313.109375 123.16796875 L 313.109375 105.16796875 Z" stroke-miterlimit="10" stroke-width="0.5" stroke-dasharray=""/><path fill="none" stroke="#505050" paint-order="fill stroke markers" d=" M 345.109375 110.16796875 L 353.109375 110.16796875 L 353.109375 118.16796875 L 345.109375 118.16796875 L 345.109375 110.16796875 Z" stroke-miterlimit="10" stroke-width="0.5" stroke-dasharray=""/><text fill="#505050" stroke="none" font-family="monospace" font-size="14px" font-style="normal" font-weight="normal" text-decoration="normal" x="337.109375" y="123.16796875" text-anchor="end" dominant-baseline="text-after-edge">1</text><path fill="white" stroke="#505050" paint-order="fill stroke markers" d=" M 335.36328125 65.3515625 L 351.36328125 65.3515625 L 351.36328125 81.3515625 L 335.36328125 81.3515625 L 343.36328125 73.3515625 L 335.36328125 65.3515625" stroke-miterlimit="10" stroke-width="0.5" stroke-dasharray=""/><path fill="none" stroke="#505050" paint-order="fill stroke markers" d=" M 343.36328125 69.3515625 L 351.36328125 69.3515625 L 351.36328125 77.3515625 L 343.36328125 77.3515625 L 343.36328125 69.3515625 Z" stroke-miterlimit="10" stroke-width="0.5" stroke-dasharray=""/><path fill="white" stroke="#505050" paint-order="fill stroke markers" d=" M 282.28515625 202.76953125 L 282.28515625 278.02734375 Q 282.28515625 286.02734375 290.28515625 286.02734375 L 463.2890625 286.02734375 Q 471.2890625 286.02734375 471.2890625 278.02734375 L 471.2890625 202.76953125 Q 471.2890625 194.76953125 463.2890625 194.76953125 L 290.28515625 194.76953125 Q 282.28515625 194.76953125 282.28515625 202.76953125" stroke-miterlimit="10" stroke-width="0.5" stroke-dasharray=""/><path fill="#F0F0F0" stroke="#505050" paint-order="fill stroke markers" d=" M 430.2890625 248.02734375 L 463.2890625 248.02734375 L 463.2890625 278.02734375 L 430.2890625 278.02734375 L 430.2890625 248.02734375 Z" stroke-miterlimit="10" stroke-width="0.5" stroke-dasharray=""/><text fill="#505050" stroke="none" font-family="monospace" font-size="14px" font-style="normal" font-weight="normal" text-decoration="normal" x="446.7890625" y="266.02734375" text-anchor="middle" dominant-baseline="text-after-edge">&gt; 0</text><path fill="none" stroke="#505050" paint-order="fill stroke markers" d=" M 430.2890625 266.02734375 L 438.2890625 266.02734375 L 438.2890625 274.02734375 L 430.2890625 274.02734375 L 430.2890625 266.02734375 Z" stroke-miterlimit="10" stroke-width="0.5" stroke-dasharray=""/><path fill="none" stroke="#505050" paint-order="fill stroke markers" d=" M 455.2890625 266.02734375 L 463.2890625 266.02734375 L 463.2890625 274.02734375 L 455.2890625 274.02734375 L 455.2890625 266.02734375 Z" stroke-miterlimit="10" stroke-width="0.5" stroke-dasharray=""/><path fill="white" stroke="#505050" paint-order="fill stroke markers" d=" M 368.078125 202.76953125 L 400.078125 202.76953125 L 400.078125 244.76953125 L 368.078125 244.76953125 L 368.078125 202.76953125 Z" stroke-miterlimit="10" stroke-width="0.5" stroke-dasharray=""/><text fill="#505050" stroke="none" font-family="monospace" font-size="14px" font-style="normal" font-weight="normal" text-decoration="normal" x="384.078125" y="220.76953125" text-anchor="middle" dominant-baseline="text-after-edge">&gt;</text><path fill="none" stroke="#505050" paint-order="fill stroke markers" d=" M 368.078125 220.76953125 L 376.078125 220.76953125 L 376.078125 228.76953125 L 368.078125 228.76953125 L 368.078125 220.76953125 Z" stroke-miterlimit="10" stroke-width="0.5" stroke-dasharray=""/><path fill="none" stroke="#505050" paint-order="fill stroke markers" d=" M 368.078125 232.76953125 L 376.078125 232.76953125 L 376.078125 240.76953125 L 368.078125 240.76953125 L 368.078125 232.76953125 Z" stroke-miterlimit="10" stroke-width="0.5" stroke-dasharray=""/><path fill="none" stroke="#505050" paint-order="fill stroke markers" d=" M 392.078125 220.76953125 L 400.078125 220.76953125 L 400.078125 228.76953125 L 392.078125 228.76953125 L 392.078125 220.76953125 Z" stroke-miterlimit="10" stroke-width="0.5" stroke-dasharray=""/><path fill="white" stroke="#505050" paint-order="fill stroke markers" d=" M 390.2890625 254.02734375 L 398.2890625 254.02734375 L 406.2890625 262.02734375 L 398.2890625 270.02734375 L 390.2890625 270.02734375 L 390.2890625 254.02734375" stroke-miterlimit="10" stroke-width="0.5" stroke-dasharray=""/><path fill="none" stroke="#505050" paint-order="fill stroke markers" d=" M 390.2890625 258.02734375 L 398.2890625 258.02734375 L 398.2890625 266.02734375 L 390.2890625 266.02734375 L 390.2890625 258.02734375 Z" stroke-miterlimit="10" stroke-width="0.5" stroke-dasharray=""/><path fill="white" stroke="#505050" paint-order="fill stroke markers" d=" M 305.046875 243.98046875 L 345.046875 243.98046875 L 345.046875 261.98046875 L 305.046875 261.98046875 L 305.046875 243.98046875 Z" stroke-miterlimit="10" stroke-width="0.5" stroke-dasharray=""/><path fill="none" stroke="#505050" paint-order="fill stroke markers" d=" M 337.046875 248.98046875 L 345.046875 248.98046875 L 345.046875 256.98046875 L 337.046875 256.98046875 L 337.046875 248.98046875 Z" stroke-miterlimit="10" stroke-width="0.5" stroke-dasharray=""/><text fill="#505050" stroke="none" font-family="monospace" font-size="14px" font-style="normal" font-weight="normal" text-decoration="normal" x="329.046875" y="261.98046875" text-anchor="end" dominant-baseline="text-after-edge">0</text><path fill="white" stroke="#505050" paint-order="fill stroke markers" d=" M 327.30078125 204.1640625 L 343.30078125 204.1640625 L 343.30078125 220.1640625 L 327.30078125 220.1640625 L 335.30078125 212.1640625 L 327.30078125 204.1640625" stroke-miterlimit="10" stroke-width="0.5" stroke-dasharray=""/><path fill="none" stroke="#505050" paint-order="fill stroke markers" d=" M 335.30078125 208.1640625 L 343.30078125 208.1640625 L 343.30078125 216.1640625 L 335.30078125 216.1640625 L 335.30078125 208.1640625 Z" stroke-miterlimit="10" stroke-width="0.5" stroke-dasharray=""/><path fill="white" stroke="#505050" paint-order="fill stroke markers" d=" M 263.89453125 363.80078125 L 263.89453125 453.66796875 Q 263.89453125 461.66796875 271.89453125 461.66796875 L 483.15234375 461.66796875 Q 491.15234375 461.66796875 491.15234375 453.66796875 L 491.15234375 363.80078125 Q 491.15234375 355.80078125 483.15234375 355.80078125 L 271.89453125 355.80078125 Q 263.89453125 355.80078125 263.89453125 363.80078125" stroke-miterlimit="10" stroke-width="0.5" stroke-dasharray=""/><path fill="#F0F0F0" stroke="#505050" paint-order="fill stroke markers" d=" M 450.15234375 411.66796875 L 483.15234375 411.66796875 L 483.15234375 453.66796875 L 450.15234375 453.66796875 L 450.15234375 411.66796875 Z" stroke-miterlimit="10" stroke-width="0.5" stroke-dasharray=""/><text fill="#505050" stroke="none" font-family="monospace" font-size="14px" font-style="normal" font-weight="normal" text-decoration="normal" x="466.65234375" y="429.66796875" text-anchor="middle" dominant-baseline="text-after-edge">max</text><path fill="none" stroke="#505050" paint-order="fill stroke markers" d=" M 450.15234375 429.66796875 L 458.15234375 429.66796875 L 458.15234375 437.66796875 L 450.15234375 437.66796875 L 450.15234375 429.66796875 Z" stroke-miterlimit="10" stroke-width="0.5" stroke-dasharray=""/><path fill="none" stroke="#505050" paint-order="fill stroke markers" d=" M 450.15234375 441.66796875 L 458.15234375 441.66796875 L 458.15234375 449.66796875 L 450.15234375 449.66796875 L 450.15234375 441.66796875 Z" stroke-miterlimit="10" stroke-width="0.5" stroke-dasharray=""/><path fill="none" stroke="#505050" paint-order="fill stroke markers" d=" M 475.15234375 429.66796875 L 483.15234375 429.66796875 L 483.15234375 437.66796875 L 475.15234375 437.66796875 L 475.15234375 429.66796875 Z" stroke-miterlimit="10" stroke-width="0.5" stroke-dasharray=""/><path fill="white" stroke="#505050" paint-order="fill stroke markers" d=" M 333 361.01171875 L 365 361.01171875 L 365 403.01171875 L 333 403.01171875 L 333 361.01171875 Z" stroke-miterlimit="10" stroke-width="0.5" stroke-dasharray=""/><text fill="#505050" stroke="none" font-family="monospace" font-size="14px" font-style="normal" font-weight="normal" text-decoration="normal" x="349" y="379.01171875" text-anchor="middle" dominant-baseline="text-after-edge">&gt;</text><path fill="none" stroke="#505050" paint-order="fill stroke markers" d=" M 333 379.01171875 L 341 379.01171875 L 341 387.01171875 L 333 387.01171875 L 333 379.01171875 Z" stroke-miterlimit="10" stroke-width="0.5" stroke-dasharray=""/><path fill="none" stroke="#505050" paint-order="fill stroke markers" d=" M 333 391.01171875 L 341 391.01171875 L 341 399.01171875 L 333 399.01171875 L 333 391.01171875 Z" stroke-miterlimit="10" stroke-width="0.5" stroke-dasharray=""/><path fill="none" stroke="#505050" paint-order="fill stroke markers" d=" M 357 379.01171875 L 365 379.01171875 L 365 387.01171875 L 357 387.01171875 L 357 379.01171875 Z" stroke-miterlimit="10" stroke-width="0.5" stroke-dasharray=""/><path fill="white" stroke="#505050" paint-order="fill stroke markers" d=" M 276.453125 392.33984375 L 292.453125 392.33984375 L 292.453125 408.33984375 L 276.453125 408.33984375 L 284.453125 400.33984375 L 276.453125 392.33984375" stroke-miterlimit="10" stroke-width="0.5" stroke-dasharray=""/><path fill="none" stroke="#505050" paint-order="fill stroke markers" d=" M 284.453125 396.33984375 L 292.453125 396.33984375 L 292.453125 404.33984375 L 284.453125 404.33984375 L 284.453125 396.33984375 Z" stroke-miterlimit="10" stroke-width="0.5" stroke-dasharray=""/><path fill="white" stroke="#505050" paint-order="fill stroke markers" d=" M 280.44921875 422.328125 L 296.44921875 422.328125 L 296.44921875 438.328125 L 280.44921875 438.328125 L 288.44921875 430.328125 L 280.44921875 422.328125" stroke-miterlimit="10" stroke-width="0.5" stroke-dasharray=""/><path fill="none" stroke="#505050" paint-order="fill stroke markers" d=" M 288.44921875 426.328125 L 296.44921875 426.328125 L 296.44921875 434.328125 L 288.44921875 434.328125 L 288.44921875 426.328125 Z" stroke-miterlimit="10" stroke-width="0.5" stroke-dasharray=""/><path fill="white" stroke="#505050" paint-order="fill stroke markers" d=" M 379.859375 391.66796875 L 411.859375 391.66796875 L 411.859375 445.66796875 L 379.859375 445.66796875 L 379.859375 391.66796875 Z" stroke-miterlimit="10" stroke-width="0.5" stroke-dasharray=""/><text fill="#505050" stroke="none" font-family="monospace" font-size="14px" font-style="normal" font-weight="normal" text-decoration="normal" x="395.859375" y="409.66796875" text-anchor="middle" dominant-baseline="text-after-edge">?</text><path fill="none" stroke="#505050" paint-order="fill stroke markers" d=" M 379.859375 409.66796875 L 387.859375 409.66796875 L 387.859375 417.66796875 L 379.859375 417.66796875 L 379.859375 409.66796875 Z" stroke-miterlimit="10" stroke-width="0.5" stroke-dasharray=""/><path fill="none" stroke="#505050" paint-order="fill stroke markers" d=" M 379.859375 421.66796875 L 387.859375 421.66796875 L 387.859375 429.66796875 L 379.859375 429.66796875 L 379.859375 421.66796875 Z" stroke-miterlimit="10" stroke-width="0.5" stroke-dasharray=""/><path fill="none" stroke="#505050" paint-order="fill stroke markers" d=" M 379.859375 433.66796875 L 387.859375 433.66796875 L 387.859375 441.66796875 L 379.859375 441.66796875 L 379.859375 433.66796875 Z" stroke-miterlimit="10" stroke-width="0.5" stroke-dasharray=""/><path fill="none" stroke="#505050" paint-order="fill stroke markers" d=" M 403.859375 409.66796875 L 411.859375 409.66796875 L 411.859375 417.66796875 L 403.859375 417.66796875 L 403.859375 409.66796875 Z" stroke-miterlimit="10" stroke-width="0.5" stroke-dasharray=""/><path fill="white" stroke="#505050" paint-order="fill stroke markers" d=" M 410.15234375 364.91015625 L 418.15234375 364.91015625 L 426.15234375 372.91015625 L 418.15234375 380.91015625 L 410.15234375 380.91015625 L 410.15234375 364.91015625" stroke-miterlimit="10" stroke-width="0.5" stroke-dasharray=""/><path fill="none" stroke="#505050" paint-order="fill stroke markers" d=" M 410.15234375 368.91015625 L 418.15234375 368.91015625 L 418.15234375 376.91015625 L 410.15234375 376.91015625 L 410.15234375 368.91015625 Z" stroke-miterlimit="10" stroke-width="0.5" stroke-dasharray=""/><path fill="white" stroke="#505050" paint-order="fill stroke markers" d=" M 275.8828125 496.38671875 L 275.8828125 603.84375 Q 275.8828125 611.84375 283.8828125 611.84375 L 559.75 611.84375 Q 567.75 611.84375 567.75 603.84375 L 567.75 496.38671875 Q 567.75 488.38671875 559.75 488.38671875 L 283.8828125 488.38671875 Q 275.8828125 488.38671875 275.8828125 496.38671875" stroke-miterlimit="10" stroke-width="0.5" stroke-dasharray=""/><path fill="#F0F0F0" stroke="#505050" paint-order="fill stroke markers" d=" M 503.75 571.84375 L 559.75 571.84375 L 559.75 603.84375 L 503.75 603.84375 L 503.75 571.84375 Z" stroke-miterlimit="10" stroke-width="0.5" stroke-dasharray=""/><text fill="#505050" stroke="none" font-family="monospace" font-size="14px" font-style="normal" font-weight="normal" text-decoration="normal" x="531.75" y="589.84375" text-anchor="middle" dominant-baseline="text-after-edge">abs</text><path fill="none" stroke="#505050" paint-order="fill stroke markers" d=" M 503.75 590.84375 L 511.75 590.84375 L 511.75 598.84375 L 503.75 598.84375 L 503.75 590.84375 Z" stroke-miterlimit="10" stroke-width="0.5" stroke-dasharray=""/><text fill="#505050" stroke="none" font-family="monospace" font-size="14px" font-style="normal" font-weight="normal" text-decoration="normal" x="519.75" y="603.84375" text-anchor="start" dominant-baseline="text-after-edge">x</text><path fill="none" stroke="#505050" paint-order="fill stroke markers" d=" M 551.75 589.84375 L 559.75 589.84375 L 559.75 597.84375 L 551.75 597.84375 L 551.75 589.84375 Z" stroke-miterlimit="10" stroke-width="0.5" stroke-dasharray=""/><path fill="white" stroke="#505050" paint-order="fill stroke markers" d=" M 284.71484375 536.5234375 L 324.71484375 536.5234375 L 324.71484375 554.5234375 L 284.71484375 554.5234375 L 292.71484375 545.5234375 L 284.71484375 536.5234375" stroke-miterlimit="10" stroke-width="0.5" stroke-dasharray=""/><path fill="none" stroke="#505050" paint-order="fill stroke markers" d=" M 316.71484375 541.5234375 L 324.71484375 541.5234375 L 324.71484375 549.5234375 L 316.71484375 549.5234375 L 316.71484375 541.5234375 Z" stroke-miterlimit="10" stroke-width="0.5" stroke-dasharray=""/><text fill="#505050" stroke="none" font-family="monospace" font-size="14px" font-style="normal" font-weight="normal" text-decoration="normal" x="308.71484375" y="554.5234375" text-anchor="end" dominant-baseline="text-after-edge">x</text><path fill="white" stroke="#505050" paint-order="fill stroke markers" d=" M 422.67578125 519.3828125 L 454.67578125 519.3828125 L 454.67578125 573.3828125 L 422.67578125 573.3828125 L 422.67578125 519.3828125 Z" stroke-miterlimit="10" stroke-width="0.5" stroke-dasharray=""/><text fill="#505050" stroke="none" font-family="monospace" font-size="14px" font-style="normal" font-weight="normal" text-decoration="normal" x="438.67578125" y="537.3828125" text-anchor="middle" dominant-baseline="text-after-edge">?</text><path fill="none" stroke="#505050" paint-order="fill stroke markers" d=" M 422.67578125 537.3828125 L 430.67578125 537.3828125 L 430.67578125 545.3828125 L 422.67578125 545.3828125 L 422.67578125 537.3828125 Z" stroke-miterlimit="10" stroke-width="0.5" stroke-dasharray=""/><path fill="none" stroke="#505050" paint-order="fill stroke markers" d=" M 422.67578125 549.3828125 L 430.67578125 549.3828125 L 430.67578125 557.3828125 L 422.67578125 557.3828125 L 422.67578125 549.3828125 Z" stroke-miterlimit="10" stroke-width="0.5" stroke-dasharray=""/><path fill="none" stroke="#505050" paint-order="fill stroke markers" d=" M 422.67578125 561.3828125 L 430.67578125 561.3828125 L 430.67578125 569.3828125 L 422.67578125 569.3828125 L 422.67578125 561.3828125 Z" stroke-miterlimit="10" stroke-width="0.5" stroke-dasharray=""/><path fill="none" stroke="#505050" paint-order="fill stroke markers" d=" M 446.67578125 537.3828125 L 454.67578125 537.3828125 L 454.67578125 545.3828125 L 446.67578125 545.3828125 L 446.67578125 537.3828125 Z" stroke-miterlimit="10" stroke-width="0.5" stroke-dasharray=""/><path fill="white" stroke="#505050" paint-order="fill stroke markers" d=" M 471.75 507.73046875 L 479.75 507.73046875 L 487.75 515.73046875 L 479.75 523.73046875 L 471.75 523.73046875 L 471.75 507.73046875" stroke-miterlimit="10" stroke-width="0.5" stroke-dasharray=""/><path fill="none" stroke="#505050" paint-order="fill stroke markers" d=" M 471.75 511.73046875 L 479.75 511.73046875 L 479.75 519.73046875 L 471.75 519.73046875 L 471.75 511.73046875 Z" stroke-miterlimit="10" stroke-width="0.5" stroke-dasharray=""/><path fill="white" stroke="#505050" paint-order="fill stroke markers" d=" M 342.4375 503.546875 L 375.4375 503.546875 L 375.4375 533.546875 L 342.4375 533.546875 L 342.4375 503.546875 Z" stroke-miterlimit="10" stroke-width="0.5" stroke-dasharray=""/><text fill="#505050" stroke="none" font-family="monospace" font-size="14px" font-style="normal" font-weight="normal" text-decoration="normal" x="358.9375" y="521.546875" text-anchor="middle" dominant-baseline="text-after-edge">&gt; 0</text><path fill="none" stroke="#505050" paint-order="fill stroke markers" d=" M 342.4375 521.546875 L 350.4375 521.546875 L 350.4375 529.546875 L 342.4375 529.546875 L 342.4375 521.546875 Z" stroke-miterlimit="10" stroke-width="0.5" stroke-dasharray=""/><path fill="none" stroke="#505050" paint-order="fill stroke markers" d=" M 367.4375 521.546875 L 375.4375 521.546875 L 375.4375 529.546875 L 367.4375 529.546875 L 367.4375 521.546875 Z" stroke-miterlimit="10" stroke-width="0.5" stroke-dasharray=""/><path fill="white" stroke="#505050" paint-order="fill stroke markers" d=" M 350.1328125 561.84375 L 382.1328125 561.84375 L 382.1328125 591.84375 L 350.1328125 591.84375 L 350.1328125 561.84375 Z" stroke-miterlimit="10" stroke-width="0.5" stroke-dasharray=""/><text fill="#505050" stroke="none" font-family="monospace" font-size="14px" font-style="normal" font-weight="normal" text-decoration="normal" x="366.1328125" y="579.84375" text-anchor="middle" dominant-baseline="text-after-edge">-</text><path fill="none" stroke="#505050" paint-order="fill stroke markers" d=" M 350.1328125 579.84375 L 358.1328125 579.84375 L 358.1328125 587.84375 L 350.1328125 587.84375 L 350.1328125 579.84375 Z" stroke-miterlimit="10" stroke-width="0.5" stroke-dasharray=""/><path fill="none" stroke="#505050" paint-order="fill stroke markers" d=" M 374.1328125 579.84375 L 382.1328125 579.84375 L 382.1328125 587.84375 L 374.1328125 587.84375 L 374.1328125 579.84375 Z" stroke-miterlimit="10" stroke-width="0.5" stroke-dasharray=""/><path fill="white" stroke="#505050" paint-order="fill stroke markers" d=" M 502.89453125 64.07421875 L 502.89453125 136.82421875 Q 502.89453125 144.82421875 510.89453125 144.82421875 L 673.09375 144.82421875 Q 681.09375 144.82421875 681.09375 136.82421875 L 681.09375 64.07421875 Q 681.09375 56.07421875 673.09375 56.07421875 L 510.89453125 56.07421875 Q 502.89453125 56.07421875 502.89453125 64.07421875" stroke-miterlimit="10" stroke-width="0.5" stroke-dasharray=""/><path fill="#F0F0F0" stroke="#505050" paint-order="fill stroke markers" d=" M 641.09375 106.82421875 L 673.09375 106.82421875 L 673.09375 136.82421875 L 641.09375 136.82421875 L 641.09375 106.82421875 Z" stroke-miterlimit="10" stroke-width="0.5" stroke-dasharray=""/><text fill="#505050" stroke="none" font-family="monospace" font-size="14px" font-style="normal" font-weight="normal" text-decoration="normal" x="657.09375" y="124.82421875" text-anchor="middle" dominant-baseline="text-after-edge">-1</text><path fill="none" stroke="#505050" paint-order="fill stroke markers" d=" M 641.09375 124.82421875 L 649.09375 124.82421875 L 649.09375 132.82421875 L 641.09375 132.82421875 L 641.09375 124.82421875 Z" stroke-miterlimit="10" stroke-width="0.5" stroke-dasharray=""/><path fill="none" stroke="#505050" paint-order="fill stroke markers" d=" M 665.09375 124.82421875 L 673.09375 124.82421875 L 673.09375 132.82421875 L 665.09375 132.82421875 L 665.09375 124.82421875 Z" stroke-miterlimit="10" stroke-width="0.5" stroke-dasharray=""/><path fill="white" stroke="#505050" paint-order="fill stroke markers" d=" M 588.6875 64.07421875 L 620.6875 64.07421875 L 620.6875 106.07421875 L 588.6875 106.07421875 L 588.6875 64.07421875 Z" stroke-miterlimit="10" stroke-width="0.5" stroke-dasharray=""/><text fill="#505050" stroke="none" font-family="monospace" font-size="14px" font-style="normal" font-weight="normal" text-decoration="normal" x="604.6875" y="82.07421875" text-anchor="middle" dominant-baseline="text-after-edge">-</text><path fill="none" stroke="#505050" paint-order="fill stroke markers" d=" M 588.6875 82.07421875 L 596.6875 82.07421875 L 596.6875 90.07421875 L 588.6875 90.07421875 L 588.6875 82.07421875 Z" stroke-miterlimit="10" stroke-width="0.5" stroke-dasharray=""/><path fill="none" stroke="#505050" paint-order="fill stroke markers" d=" M 588.6875 94.07421875 L 596.6875 94.07421875 L 596.6875 102.07421875 L 588.6875 102.07421875 L 588.6875 94.07421875 Z" stroke-miterlimit="10" stroke-width="0.5" stroke-dasharray=""/><path fill="none" stroke="#505050" paint-order="fill stroke markers" d=" M 612.6875 82.07421875 L 620.6875 82.07421875 L 620.6875 90.07421875 L 612.6875 90.07421875 L 612.6875 82.07421875 Z" stroke-miterlimit="10" stroke-width="0.5" stroke-dasharray=""/><path fill="white" stroke="#505050" paint-order="fill stroke markers" d=" M 608.09375 112.82421875 L 616.09375 112.82421875 L 624.09375 120.82421875 L 616.09375 128.82421875 L 608.09375 128.82421875 L 608.09375 112.82421875" stroke-miterlimit="10" stroke-width="0.5" stroke-dasharray=""/><path fill="none" stroke="#505050" paint-order="fill stroke markers" d=" M 608.09375 116.82421875 L 616.09375 116.82421875 L 616.09375 124.82421875 L 608.09375 124.82421875 L 608.09375 116.82421875 Z" stroke-miterlimit="10" stroke-width="0.5" stroke-dasharray=""/><path fill="white" stroke="#505050" paint-order="fill stroke markers" d=" M 525.65625 105.28515625 L 565.65625 105.28515625 L 565.65625 123.28515625 L 525.65625 123.28515625 L 525.65625 105.28515625 Z" stroke-miterlimit="10" stroke-width="0.5" stroke-dasharray=""/><path fill="none" stroke="#505050" paint-order="fill stroke markers" d=" M 557.65625 110.28515625 L 565.65625 110.28515625 L 565.65625 118.28515625 L 557.65625 118.28515625 L 557.65625 110.28515625 Z" stroke-miterlimit="10" stroke-width="0.5" stroke-dasharray=""/><text fill="#505050" stroke="none" font-family="monospace" font-size="14px" font-style="normal" font-weight="normal" text-decoration="normal" x="549.65625" y="123.28515625" text-anchor="end" dominant-baseline="text-after-edge">1</text><path fill="white" stroke="#505050" paint-order="fill stroke markers" d=" M 547.91015625 65.46875 L 563.91015625 65.46875 L 563.91015625 81.46875 L 547.91015625 81.46875 L 555.91015625 73.46875 L 547.91015625 65.46875" stroke-miterlimit="10" stroke-width="0.5" stroke-dasharray=""/><path fill="none" stroke="#505050" paint-order="fill stroke markers" d=" M 555.91015625 69.46875 L 563.91015625 69.46875 L 563.91015625 77.46875 L 555.91015625 77.46875 L 555.91015625 69.46875 Z" stroke-miterlimit="10" stroke-width="0.5" stroke-dasharray=""/><path fill="white" stroke="#505050" paint-order="fill stroke markers" d=" M 534.5234375 362.10546875 L 534.5234375 451.97265625 Q 534.5234375 459.97265625 542.5234375 459.97265625 L 753.78125 459.97265625 Q 761.78125 459.97265625 761.78125 451.97265625 L 761.78125 362.10546875 Q 761.78125 354.10546875 753.78125 354.10546875 L 542.5234375 354.10546875 Q 534.5234375 354.10546875 534.5234375 362.10546875" stroke-miterlimit="10" stroke-width="0.5" stroke-dasharray=""/><path fill="#F0F0F0" stroke="#505050" paint-order="fill stroke markers" d=" M 720.78125 409.97265625 L 753.78125 409.97265625 L 753.78125 451.97265625 L 720.78125 451.97265625 L 720.78125 409.97265625 Z" stroke-miterlimit="10" stroke-width="0.5" stroke-dasharray=""/><text fill="#505050" stroke="none" font-family="monospace" font-size="14px" font-style="normal" font-weight="normal" text-decoration="normal" x="737.28125" y="427.97265625" text-anchor="middle" dominant-baseline="text-after-edge">min</text><path fill="none" stroke="#505050" paint-order="fill stroke markers" d=" M 720.78125 427.97265625 L 728.78125 427.97265625 L 728.78125 435.97265625 L 720.78125 435.97265625 L 720.78125 427.97265625 Z" stroke-miterlimit="10" stroke-width="0.5" stroke-dasharray=""/><path fill="none" stroke="#505050" paint-order="fill stroke markers" d=" M 720.78125 439.97265625 L 728.78125 439.97265625 L 728.78125 447.97265625 L 720.78125 447.97265625 L 720.78125 439.97265625 Z" stroke-miterlimit="10" stroke-width="0.5" stroke-dasharray=""/><path fill="none" stroke="#505050" paint-order="fill stroke markers" d=" M 745.78125 427.97265625 L 753.78125 427.97265625 L 753.78125 435.97265625 L 745.78125 435.97265625 L 745.78125 427.97265625 Z" stroke-miterlimit="10" stroke-width="0.5" stroke-dasharray=""/><path fill="white" stroke="#505050" paint-order="fill stroke markers" d=" M 547.08203125 390.64453125 L 563.08203125 390.64453125 L 563.08203125 406.64453125 L 547.08203125 406.64453125 L 555.08203125 398.64453125 L 547.08203125 390.64453125" stroke-miterlimit="10" stroke-width="0.5" stroke-dasharray=""/><path fill="none" stroke="#505050" paint-order="fill stroke markers" d=" M 555.08203125 394.64453125 L 563.08203125 394.64453125 L 563.08203125 402.64453125 L 555.08203125 402.64453125 L 555.08203125 394.64453125 Z" stroke-miterlimit="10" stroke-width="0.5" stroke-dasharray=""/><path fill="white" stroke="#505050" paint-order="fill stroke markers" d=" M 551.078125 420.6328125 L 567.078125 420.6328125 L 567.078125 436.6328125 L 551.078125 436.6328125 L 559.078125 428.6328125 L 551.078125 420.6328125" stroke-miterlimit="10" stroke-width="0.5" stroke-dasharray=""/><path fill="none" stroke="#505050" paint-order="fill stroke markers" d=" M 559.078125 424.6328125 L 567.078125 424.6328125 L 567.078125 432.6328125 L 559.078125 432.6328125 L 559.078125 424.6328125 Z" stroke-miterlimit="10" stroke-width="0.5" stroke-dasharray=""/><path fill="white" stroke="#505050" paint-order="fill stroke markers" d=" M 650.48828125 389.97265625 L 682.48828125 389.97265625 L 682.48828125 443.97265625 L 650.48828125 443.97265625 L 650.48828125 389.97265625 Z" stroke-miterlimit="10" stroke-width="0.5" stroke-dasharray=""/><text fill="#505050" stroke="none" font-family="monospace" font-size="14px" font-style="normal" font-weight="normal" text-decoration="normal" x="666.48828125" y="407.97265625" text-anchor="middle" dominant-baseline="text-after-edge">?</text><path fill="none" stroke="#505050" paint-order="fill stroke markers" d=" M 650.48828125 407.97265625 L 658.48828125 407.97265625 L 658.48828125 415.97265625 L 650.48828125 415.97265625 L 650.48828125 407.97265625 Z" stroke-miterlimit="10" stroke-width="0.5" stroke-dasharray=""/><path fill="none" stroke="#505050" paint-order="fill stroke markers" d=" M 650.48828125 419.97265625 L 658.48828125 419.97265625 L 658.48828125 427.97265625 L 650.48828125 427.97265625 L 650.48828125 419.97265625 Z" stroke-miterlimit="10" stroke-width="0.5" stroke-dasharray=""/><path fill="none" stroke="#505050" paint-order="fill stroke markers" d=" M 650.48828125 431.97265625 L 658.48828125 431.97265625 L 658.48828125 439.97265625 L 650.48828125 439.97265625 L 650.48828125 431.97265625 Z" stroke-miterlimit="10" stroke-width="0.5" stroke-dasharray=""/><path fill="none" stroke="#505050" paint-order="fill stroke markers" d=" M 674.48828125 407.97265625 L 682.48828125 407.97265625 L 682.48828125 415.97265625 L 674.48828125 415.97265625 L 674.48828125 407.97265625 Z" stroke-miterlimit="10" stroke-width="0.5" stroke-dasharray=""/><path fill="white" stroke="#505050" paint-order="fill stroke markers" d=" M 680.78125 363.21484375 L 688.78125 363.21484375 L 696.78125 371.21484375 L 688.78125 379.21484375 L 680.78125 379.21484375 L 680.78125 363.21484375" stroke-miterlimit="10" stroke-width="0.5" stroke-dasharray=""/><path fill="none" stroke="#505050" paint-order="fill stroke markers" d=" M 680.78125 367.21484375 L 688.78125 367.21484375 L 688.78125 375.21484375 L 680.78125 375.21484375 L 680.78125 367.21484375 Z" stroke-miterlimit="10" stroke-width="0.5" stroke-dasharray=""/><path fill="white" stroke="#505050" paint-order="fill stroke markers" d=" M 603.62890625 359.31640625 L 635.62890625 359.31640625 L 635.62890625 401.31640625 L 603.62890625 401.31640625 L 603.62890625 359.31640625 Z" stroke-miterlimit="10" stroke-width="0.5" stroke-dasharray=""/><text fill="#505050" stroke="none" font-family="monospace" font-size="14px" font-style="normal" font-weight="normal" text-decoration="normal" x="619.62890625" y="377.31640625" text-anchor="middle" dominant-baseline="text-after-edge">&lt;</text><path fill="none" stroke="#505050" paint-order="fill stroke markers" d=" M 603.62890625 377.31640625 L 611.62890625 377.31640625 L 611.62890625 385.31640625 L 603.62890625 385.31640625 L 603.62890625 377.31640625 Z" stroke-miterlimit="10" stroke-width="0.5" stroke-dasharray=""/><path fill="none" stroke="#505050" paint-order="fill stroke markers" d=" M 603.62890625 389.31640625 L 611.62890625 389.31640625 L 611.62890625 397.31640625 L 603.62890625 397.31640625 L 603.62890625 389.31640625 Z" stroke-miterlimit="10" stroke-width="0.5" stroke-dasharray=""/><path fill="none" stroke="#505050" paint-order="fill stroke markers" d=" M 627.62890625 377.31640625 L 635.62890625 377.31640625 L 635.62890625 385.31640625 L 627.62890625 385.31640625 L 627.62890625 377.31640625 Z" stroke-miterlimit="10" stroke-width="0.5" stroke-dasharray=""/><path fill="white" stroke="#505050" paint-order="fill stroke markers" d=" M 519.390625 202.71484375 L 519.390625 277.97265625 Q 519.390625 285.97265625 527.390625 285.97265625 L 700.39453125 285.97265625 Q 708.39453125 285.97265625 708.39453125 277.97265625 L 708.39453125 202.71484375 Q 708.39453125 194.71484375 700.39453125 194.71484375 L 527.390625 194.71484375 Q 519.390625 194.71484375 519.390625 202.71484375" stroke-miterlimit="10" stroke-width="0.5" stroke-dasharray=""/><path fill="#F0F0F0" stroke="#505050" paint-order="fill stroke markers" d=" M 667.39453125 247.97265625 L 700.39453125 247.97265625 L 700.39453125 277.97265625 L 667.39453125 277.97265625 L 667.39453125 247.97265625 Z" stroke-miterlimit="10" stroke-width="0.5" stroke-dasharray=""/><text fill="#505050" stroke="none" font-family="monospace" font-size="14px" font-style="normal" font-weight="normal" text-decoration="normal" x="683.89453125" y="265.97265625" text-anchor="middle" dominant-baseline="text-after-edge">&lt; 0</text><path fill="none" stroke="#505050" paint-order="fill stroke markers" d=" M 667.39453125 265.97265625 L 675.39453125 265.97265625 L 675.39453125 273.97265625 L 667.39453125 273.97265625 L 667.39453125 265.97265625 Z" stroke-miterlimit="10" stroke-width="0.5" stroke-dasharray=""/><path fill="none" stroke="#505050" paint-order="fill stroke markers" d=" M 692.39453125 265.97265625 L 700.39453125 265.97265625 L 700.39453125 273.97265625 L 692.39453125 273.97265625 L 692.39453125 265.97265625 Z" stroke-miterlimit="10" stroke-width="0.5" stroke-dasharray=""/><path fill="white" stroke="#505050" paint-order="fill stroke markers" d=" M 627.39453125 253.97265625 L 635.39453125 253.97265625 L 643.39453125 261.97265625 L 635.39453125 269.97265625 L 627.39453125 269.97265625 L 627.39453125 253.97265625" stroke-miterlimit="10" stroke-width="0.5" stroke-dasharray=""/><path fill="none" stroke="#505050" paint-order="fill stroke markers" d=" M 627.39453125 257.97265625 L 635.39453125 257.97265625 L 635.39453125 265.97265625 L 627.39453125 265.97265625 L 627.39453125 257.97265625 Z" stroke-miterlimit="10" stroke-width="0.5" stroke-dasharray=""/><path fill="white" stroke="#505050" paint-order="fill stroke markers" d=" M 542.15234375 243.92578125 L 582.15234375 243.92578125 L 582.15234375 261.92578125 L 542.15234375 261.92578125 L 542.15234375 243.92578125 Z" stroke-miterlimit="10" stroke-width="0.5" stroke-dasharray=""/><path fill="none" stroke="#505050" paint-order="fill stroke markers" d=" M 574.15234375 248.92578125 L 582.15234375 248.92578125 L 582.15234375 256.92578125 L 574.15234375 256.92578125 L 574.15234375 248.92578125 Z" stroke-miterlimit="10" stroke-width="0.5" stroke-dasharray=""/><text fill="#505050" stroke="none" font-family="monospace" font-size="14px" font-style="normal" font-weight="normal" text-decoration="normal" x="566.15234375" y="261.92578125" text-anchor="end" dominant-baseline="text-after-edge">0</text><path fill="white" stroke="#505050" paint-order="fill stroke markers" d=" M 564.40625 204.109375 L 580.40625 204.109375 L 580.40625 220.109375 L 564.40625 220.109375 L 572.40625 212.109375 L 564.40625 204.109375" stroke-miterlimit="10" stroke-width="0.5" stroke-dasharray=""/><path fill="none" stroke="#505050" paint-order="fill stroke markers" d=" M 572.40625 208.109375 L 580.40625 208.109375 L 580.40625 216.109375 L 572.40625 216.109375 L 572.40625 208.109375 Z" stroke-miterlimit="10" stroke-width="0.5" stroke-dasharray=""/><path fill="white" stroke="#505050" paint-order="fill stroke markers" d=" M 605.18359375 202.71484375 L 637.18359375 202.71484375 L 637.18359375 244.71484375 L 605.18359375 244.71484375 L 605.18359375 202.71484375 Z" stroke-miterlimit="10" stroke-width="0.5" stroke-dasharray=""/><text fill="#505050" stroke="none" font-family="monospace" font-size="14px" font-style="normal" font-weight="normal" text-decoration="normal" x="621.18359375" y="220.71484375" text-anchor="middle" dominant-baseline="text-after-edge">&lt;</text><path fill="none" stroke="#505050" paint-order="fill stroke markers" d=" M 605.18359375 220.71484375 L 613.18359375 220.71484375 L 613.18359375 228.71484375 L 605.18359375 228.71484375 L 605.18359375 220.71484375 Z" stroke-miterlimit="10" stroke-width="0.5" stroke-dasharray=""/><path fill="none" stroke="#505050" paint-order="fill stroke markers" d=" M 605.18359375 232.71484375 L 613.18359375 232.71484375 L 613.18359375 240.71484375 L 605.18359375 240.71484375 L 605.18359375 232.71484375 Z" stroke-miterlimit="10" stroke-width="0.5" stroke-dasharray=""/><path fill="none" stroke="#505050" paint-order="fill stroke markers" d=" M 629.18359375 220.71484375 L 637.18359375 220.71484375 L 637.18359375 228.71484375 L 629.18359375 228.71484375 L 629.18359375 220.71484375 Z" stroke-miterlimit="10" stroke-width="0.5" stroke-dasharray=""/><path fill="none" stroke="#505050" paint-order="fill stroke markers" d=" M 408.140625 85.95703125 C 432.140625 85.95703125 374.3515625 123.21484375 398.3515625 123.21484375" stroke-miterlimit="10" stroke-dasharray=""/><path fill="none" stroke="#505050" paint-order="fill stroke markers" d=" M 353.109375 114.16796875 C 377.109375 114.16796875 352.140625 97.95703125 376.140625 97.95703125" stroke-miterlimit="10" stroke-dasharray=""/><path fill="none" stroke="#505050" paint-order="fill stroke markers" d=" M 351.36328125 73.3515625 C 375.36328125 73.3515625 352.140625 85.95703125 376.140625 85.95703125" stroke-miterlimit="10" stroke-dasharray=""/><path fill="none" stroke="#505050" paint-order="fill stroke markers" d=" M 400.078125 224.76953125 C 424.078125 224.76953125 366.2890625 262.02734375 390.2890625 262.02734375" stroke-miterlimit="10" stroke-dasharray=""/><path fill="none" stroke="#505050" paint-order="fill stroke markers" d=" M 345.046875 252.98046875 C 369.046875 252.98046875 344.078125 236.76953125 368.078125 236.76953125" stroke-miterlimit="10" stroke-dasharray=""/><path fill="none" stroke="#505050" paint-order="fill stroke markers" d=" M 343.30078125 212.1640625 C 367.30078125 212.1640625 344.078125 224.76953125 368.078125 224.76953125" stroke-miterlimit="10" stroke-dasharray=""/><path fill="none" stroke="#505050" paint-order="fill stroke markers" d=" M 296.44921875 430.328125 C 320.44921875 430.328125 309 395.01171875 333 395.01171875" stroke-miterlimit="10" stroke-dasharray=""/><path fill="none" stroke="#505050" paint-order="fill stroke markers" d=" M 292.453125 400.33984375 C 316.453125 400.33984375 309 383.01171875 333 383.01171875" stroke-miterlimit="10" stroke-dasharray=""/><path fill="none" stroke="#505050" paint-order="fill stroke markers" d=" M 365 383.01171875 C 389 383.01171875 355.859375 413.66796875 379.859375 413.66796875" stroke-miterlimit="10" stroke-dasharray=""/><path fill="none" stroke="#505050" paint-order="fill stroke markers" d=" M 292.453125 400.33984375 C 316.453125 400.33984375 355.859375 425.66796875 379.859375 425.66796875" stroke-miterlimit="10" stroke-dasharray=""/><path fill="none" stroke="#505050" paint-order="fill stroke markers" d=" M 296.44921875 430.328125 C 320.44921875 430.328125 355.859375 437.66796875 379.859375 437.66796875" stroke-miterlimit="10" stroke-dasharray=""/><path fill="none" stroke="#505050" paint-order="fill stroke markers" d=" M 411.859375 413.66796875 C 435.859375 413.66796875 386.15234375 372.91015625 410.15234375 372.91015625" stroke-miterlimit="10" stroke-dasharray=""/><path fill="none" stroke="#505050" paint-order="fill stroke markers" d=" M 324.71484375 545.5234375 C 348.71484375 545.5234375 398.67578125 553.3828125 422.67578125 553.3828125" stroke-miterlimit="10" stroke-dasharray=""/><path fill="none" stroke="#505050" paint-order="fill stroke markers" d=" M 454.67578125 541.3828125 C 478.67578125 541.3828125 447.75 515.73046875 471.75 515.73046875" stroke-miterlimit="10" stroke-dasharray=""/><path fill="none" stroke="#505050" paint-order="fill stroke markers" d=" M 324.71484375 545.5234375 C 348.71484375 545.5234375 318.4375 525.546875 342.4375 525.546875" stroke-miterlimit="10" stroke-dasharray=""/><path fill="none" stroke="#505050" paint-order="fill stroke markers" d=" M 375.4375 525.546875 C 399.4375 525.546875 398.67578125 541.3828125 422.67578125 541.3828125" stroke-miterlimit="10" stroke-dasharray=""/><path fill="none" stroke="#505050" paint-order="fill stroke markers" d=" M 382.1328125 583.84375 C 406.1328125 583.84375 398.67578125 565.3828125 422.67578125 565.3828125" stroke-miterlimit="10" stroke-dasharray=""/><path fill="none" stroke="#505050" paint-order="fill stroke markers" d=" M 324.71484375 545.5234375 C 348.71484375 545.5234375 326.1328125 583.84375 350.1328125 583.84375" stroke-miterlimit="10" stroke-dasharray=""/><path fill="none" stroke="#505050" paint-order="fill stroke markers" d=" M 620.6875 86.07421875 C 644.6875 86.07421875 584.09375 120.82421875 608.09375 120.82421875" stroke-miterlimit="10" stroke-dasharray=""/><path fill="none" stroke="#505050" paint-order="fill stroke markers" d=" M 565.65625 114.28515625 C 589.65625 114.28515625 564.6875 98.07421875 588.6875 98.07421875" stroke-miterlimit="10" stroke-dasharray=""/><path fill="none" stroke="#505050" paint-order="fill stroke markers" d=" M 563.91015625 73.46875 C 587.91015625 73.46875 564.6875 86.07421875 588.6875 86.07421875" stroke-miterlimit="10" stroke-dasharray=""/><path fill="none" stroke="#505050" paint-order="fill stroke markers" d=" M 567.078125 428.6328125 C 591.078125 428.6328125 579.62890625 393.31640625 603.62890625 393.31640625" stroke-miterlimit="10" stroke-dasharray=""/><path fill="none" stroke="#505050" paint-order="fill stroke markers" d=" M 563.08203125 398.64453125 C 587.08203125 398.64453125 579.62890625 381.31640625 603.62890625 381.31640625" stroke-miterlimit="10" stroke-dasharray=""/><path fill="none" stroke="#505050" paint-order="fill stroke markers" d=" M 635.62890625 381.31640625 C 659.62890625 381.31640625 626.48828125 411.97265625 650.48828125 411.97265625" stroke-miterlimit="10" stroke-dasharray=""/><path fill="none" stroke="#505050" paint-order="fill stroke markers" d=" M 563.08203125 398.64453125 C 587.08203125 398.64453125 626.48828125 423.97265625 650.48828125 423.97265625" stroke-miterlimit="10" stroke-dasharray=""/><path fill="none" stroke="#505050" paint-order="fill stroke markers" d=" M 567.078125 428.6328125 C 591.078125 428.6328125 626.48828125 435.97265625 650.48828125 435.97265625" stroke-miterlimit="10" stroke-dasharray=""/><path fill="none" stroke="#505050" paint-order="fill stroke markers" d=" M 682.48828125 411.97265625 C 706.48828125 411.97265625 656.78125 371.21484375 680.78125 371.21484375" stroke-miterlimit="10" stroke-dasharray=""/><path fill="none" stroke="#505050" paint-order="fill stroke markers" d=" M 637.18359375 224.71484375 C 661.18359375 224.71484375 603.39453125 261.97265625 627.39453125 261.97265625" stroke-miterlimit="10" stroke-dasharray=""/><path fill="none" stroke="#505050" paint-order="fill stroke markers" d=" M 582.15234375 252.92578125 C 606.15234375 252.92578125 581.18359375 236.71484375 605.18359375 236.71484375" stroke-miterlimit="10" stroke-dasharray=""/><path fill="none" stroke="#505050" paint-order="fill stroke markers" d=" M 580.40625 212.109375 C 604.40625 212.109375 581.18359375 224.71484375 605.18359375 224.71484375" stroke-miterlimit="10" stroke-dasharray=""/></g></g></svg>