<svg version="1.1" xmlns="http://www.w3.org/2000/svg" xmlns:xlink="http://www.w3.org/1999/xlink" width="606.6875" height="560.90234375"><defs/><g transform="translate(-262.89453125,-51.94140625)"><g><path fill="white" stroke="#505050" paint-order="fill stroke markers" d=" M 290.34765625 63.95703125 L 290.34765625 145.21484375 Q 290.34765625 153.21484375 298.34765625 153.21484375 L 528.3515625 153.21484375 Q 536.3515625 153.21484375 536.3515625 145.21484375 L 536.3515625 63.95703125 Q 536.3515625 55.95703125 528.3515625 55.95703125 L 298.34765625 55.95703125 Q 290.34765625 55.95703125 290.34765625 63.95703125" stroke-miterlimit="10" stroke-width="0.5" stroke-dasharray=""/><path fill="#F0F0F0" stroke="#505050" paint-order="fill stroke markers" d=" M 463.3515625 123.21484375 L 528.3515625 123.21484375 L 528.3515625 145.21484375 L 463.3515625 145.21484375 L 463.3515625 123.21484375 Z" stroke-miterlimit="10" stroke-width="0.5" stroke-dasharray=""/><path fill="none" stroke="#505050" paint-order="fill stroke markers" d=" M 463.3515625 131.21484375 L 471.3515625 131.21484375 L 471.3515625 139.21484375 L 463.3515625 139.21484375 L 463.3515625 131.21484375 Z" stroke-miterlimit="10" stroke-width="0.5" stroke-dasharray=""/><path fill="none" stroke="#505050" paint-order="fill stroke markers" d=" M 520.3515625 132.21484375 L 528.3515625 132.21484375 L 528.3515625 140.21484375 L 520.3515625 140.21484375 L 520.3515625 132.21484375 Z" stroke-miterlimit="10" stroke-width="0.5" stroke-dasharray=""/><text fill="#505050" stroke="none" font-family="monospace" font-size="14px" font-style="normal" font-weight="normal" text-decoration="normal" x="512.3515625" y="141.21484375" text-anchor="end" dominant-baseline="text-after-edge">+1</text><path fill="white" stroke="#505050" paint-order="fill stroke markers" d=" M 376.140625 63.95703125 L 408.140625 63.95703125 L 408.140625 109.95703125 L 376.140625 109.95703125 L 376.140625 63.95703125 Z" stroke-miterlimit="10" stroke-width="0.5" stroke-dasharray=""/><text fill="#505050" stroke="none" font-family="monospace" font-size="14px" font-style="normal" font-weight="normal" text-decoration="normal" x="392.140625" y="81.95703125" text-anchor="middle" dominant-baseline="text-after-edge">+</text><path fill="none" stroke="#505050" paint-order="fill stroke markers" d=" M 376.140625 85.95703125 L 384.140625 85.95703125 L 384.140625 93.95703125 L 376.140625 93.95703125 L 376.140625 85.95703125 Z" stroke-miterlimit="10" stroke-width="0.5" stroke-dasharray=""/><path fill="none" stroke="#505050" paint-order="fill stroke markers" d=" M 376.140625 97.95703125 L 384.140625 97.95703125 L 384.140625 105.95703125 L 376.140625 105.95703125 L 376.140625 97.95703125 Z" stroke-miterlimit="10" stroke-width="0.5" stroke-dasharray=""/><path fill="none" stroke="#505050" paint-order="fill stroke markers" d=" M 400.140625 85.95703125 L 408.140625 85.95703125 L 408.140625 93.95703125 L 400.140625 93.95703125 L 400.140625 85.95703125 Z" stroke-miterlimit="10" stroke-width="0.5" stroke-dasharray=""/><path fill="white" stroke="#505050" paint-order="fill stroke markers" d=" M 398.3515625 115.21484375 L 447.3515625 115.21484375 L 455.3515625 126.21484375 L 447.3515625 137.21484375 L 398.3515625 137.21484375 L 398.3515625 115.21484375" stroke-miterlimit="10" stroke-width="0.5" stroke-dasharray=""/><path fill="none" stroke="#505050" paint-order="fill stroke markers" d=" M 406.3515625 128.21484375 A 4 4 0 1 0 406.3515605000002 128.21884374933333" stroke-miterlimit="10" stroke-width="0.5" stroke-dasharray=""/><text fill="#505050" stroke="none" font-family="monospace" font-size="14px" font-style="normal" font-weight="normal" text-decoration="normal" x="414.3515625" y="133.21484375" text-anchor="start" dominant-baseline="text-after-edge">+1</text><path fill="white" stroke="#505050" paint-order="fill stroke markers" d=" M 313.109375 105.16796875 L 361.109375 105.16796875 L 361.109375 127.16796875 L 313.109375 127.16796875 L 313.109375 105.16796875 Z" stroke-miterlimit="10" stroke-width="0.5" stroke-dasharray=""/><path fill="none" stroke="#505050" paint-order="fill stroke markers" d=" M 353.109375 114.16796875 L 361.109375 114.16796875 L 361.109375 122.16796875 L 353.109375 122.16796875 L 353.109375 114.16796875 Z" stroke-miterlimit="10" stroke-width="0.5" stroke-dasharray=""/><text fill="#505050" stroke="none" font-family="monospace" font-size="14px" font-style="normal" font-weight="normal" text-decoration="normal" x="345.109375" y="123.16796875" text-anchor="end" dominant-baseline="text-after-edge">1</text><path fill="white" stroke="#505050" paint-order="fill stroke markers" d=" M 335.36328125 65.3515625 L 359.36328125 65.3515625 L 359.36328125 85.3515625 L 335.36328125 85.3515625 L 343.36328125 75.3515625 L 335.36328125 65.3515625" stroke-miterlimit="10" stroke-width="0.5" stroke-dasharray=""/><path fill="none" stroke="#505050" paint-order="fill stroke markers" d=" M 359.36328125 77.3515625 A 4 4 0 1 0 359.3632792500002 77.35556249933333" stroke-miterlimit="10" stroke-width="0.5" stroke-dasharray=""/><path fill="white" stroke="#505050" paint-order="fill stroke markers" d=" M 584.32421875 205.69921875 L 584.32421875 286.95703125 Q 584.32421875 294.95703125 592.32421875 294.95703125 L 838.328125 294.95703125 Q 846.328125 294.95703125 846.328125 286.95703125 L 846.328125 205.69921875 Q 846.328125 197.69921875 838.328125 197.69921875 L 592.32421875 197.69921875 Q 584.32421875 197.69921875 584.32421875 205.69921875" stroke-miterlimit="10" stroke-width="0.5" stroke-dasharray=""/><path fill="#F0F0F0" stroke="#505050" paint-order="fill stroke markers" d=" M 765.328125 264.95703125 L 838.328125 264.95703125 L 838.328125 286.95703125 L 765.328125 286.95703125 L 765.328125 264.95703125 Z" stroke-miterlimit="10" stroke-width="0.5" stroke-dasharray=""/><path fill="none" stroke="#505050" paint-order="fill stroke markers" d=" M 765.328125 272.95703125 L 773.328125 272.95703125 L 773.328125 280.95703125 L 765.328125 280.95703125 L 765.328125 272.95703125 Z" stroke-miterlimit="10" stroke-width="0.5" stroke-dasharray=""/><path fill="none" stroke="#505050" paint-order="fill stroke markers" d=" M 830.328125 273.95703125 L 838.328125 273.95703125 L 838.328125 281.95703125 L 830.328125 281.95703125 L 830.328125 273.95703125 Z" stroke-miterlimit="10" stroke-width="0.5" stroke-dasharray=""/><text fill="#505050" stroke="none" font-family="monospace" font-size="14px" font-style="normal" font-weight="normal" text-decoration="normal" x="822.328125" y="282.95703125" text-anchor="end" dominant-baseline="text-after-edge">&lt; 0</text><path fill="white" stroke="#505050" paint-order="fill stroke markers" d=" M 670.1171875 205.69921875 L 702.1171875 205.69921875 L 702.1171875 251.69921875 L 670.1171875 251.69921875 L 670.1171875 205.69921875 Z" stroke-miterlimit="10" stroke-width="0.5" stroke-dasharray=""/><text fill="#505050" stroke="none" font-family="monospace" font-size="14px" font-style="normal" font-weight="normal" text-decoration="normal" x="686.1171875" y="223.69921875" text-anchor="middle" dominant-baseline="text-after-edge">&lt;</text><path fill="none" stroke="#505050" paint-order="fill stroke markers" d=" M 670.1171875 227.69921875 L 678.1171875 227.69921875 L 678.1171875 235.69921875 L 670.1171875 235.69921875 L 670.1171875 227.69921875 Z" stroke-miterlimit="10" stroke-width="0.5" stroke-dasharray=""/><path fill="none" stroke="#505050" paint-order="fill stroke markers" d=" M 670.1171875 239.69921875 L 678.1171875 239.69921875 L 678.1171875 247.69921875 L 670.1171875 247.69921875 L 670.1171875 239.69921875 Z" stroke-miterlimit="10" stroke-width="0.5" stroke-dasharray=""/><path fill="none" stroke="#505050" paint-order="fill stroke markers" d=" M 694.1171875 227.69921875 L 702.1171875 227.69921875 L 702.1171875 235.69921875 L 694.1171875 235.69921875 L 694.1171875 227.69921875 Z" stroke-miterlimit="10" stroke-width="0.5" stroke-dasharray=""/><path fill="white" stroke="#505050" paint-order="fill stroke markers" d=" M 692.328125 256.95703125 L 749.328125 256.95703125 L 757.328125 267.95703125 L 749.328125 278.95703125 L 692.328125 278.95703125 L 692.328125 256.95703125" stroke-miterlimit="10" stroke-width="0.5" stroke-dasharray=""/><path fill="none" stroke="#505050" paint-order="fill stroke markers" d=" M 700.328125 269.95703125 A 4 4 0 1 0 700.3281230000001 269.96103124933336" stroke-miterlimit="10" stroke-width="0.5" stroke-dasharray=""/><text fill="#505050" stroke="none" font-family="monospace" font-size="14px" font-style="normal" font-weight="normal" text-decoration="normal" x="708.328125" y="274.95703125" text-anchor="start" dominant-baseline="text-after-edge">&lt; 0</text><path fill="white" stroke="#505050" paint-order="fill stroke markers" d=" M 607.0859375 246.91015625 L 655.0859375 246.91015625 L 655.0859375 268.91015625 L 607.0859375 268.91015625 L 607.0859375 246.91015625 Z" stroke-miterlimit="10" stroke-width="0.5" stroke-dasharray=""/><path fill="none" stroke="#505050" paint-order="fill stroke markers" d=" M 647.0859375 255.91015625 L 655.0859375 255.91015625 L 655.0859375 263.91015625 L 647.0859375 263.91015625 L 647.0859375 255.91015625 Z" stroke-miterlimit="10" stroke-width="0.5" stroke-dasharray=""/><text fill="#505050" stroke="none" font-family="monospace" font-size="14px" font-style="normal" font-weight="normal" text-decoration="normal" x="639.0859375" y="264.91015625" text-anchor="end" dominant-baseline="text-after-edge">0</text><path fill="white" stroke="#505050" paint-order="fill stroke markers" d=" M 629.33984375 207.09375 L 653.33984375 207.09375 L 653.33984375 227.09375 L 629.33984375 227.09375 L 637.33984375 217.09375 L 629.33984375 207.09375" stroke-miterlimit="10" stroke-width="0.5" stroke-dasharray=""/><path fill="none" stroke="#505050" paint-order="fill stroke markers" d=" M 653.33984375 219.09375 A 4 4 0 1 0 653.3398417500001 219.09774999933333" stroke-miterlimit="10" stroke-width="0.5" stroke-dasharray=""/><path fill="white" stroke="#505050" paint-order="fill stroke markers" d=" M 282.28515625 202.76953125 L 282.28515625 284.02734375 Q 282.28515625 292.02734375 290.28515625 292.02734375 L 536.2890625 292.02734375 Q 544.2890625 292.02734375 544.2890625 284.02734375 L 544.2890625 202.76953125 Q 544.2890625 194.76953125 536.2890625 194.76953125 L 290.28515625 194.76953125 Q 282.28515625 194.76953125 282.28515625 202.76953125" stroke-miterlimit="10" stroke-width="0.5" stroke-dasharray=""/><path fill="#F0F0F0" stroke="#505050" paint-order="fill stroke markers" d=" M 463.2890625 262.02734375 L 536.2890625 262.02734375 L 536.2890625 284.02734375 L 463.2890625 284.02734375 L 463.2890625 262.02734375 Z" stroke-miterlimit="10" stroke-width="0.5" stroke-dasharray=""/><path fill="none" stroke="#505050" paint-order="fill stroke markers" d=" M 463.2890625 270.02734375 L 471.2890625 270.02734375 L 471.2890625 278.02734375 L 463.2890625 278.02734375 L 463.2890625 270.02734375 Z" stroke-miterlimit="10" stroke-width="0.5" stroke-dasharray=""/><path fill="none" stroke="#505050" paint-order="fill stroke markers" d=" M 528.2890625 271.02734375 L 536.2890625 271.02734375 L 536.2890625 279.02734375 L 528.2890625 279.02734375 L 528.2890625 271.02734375 Z" stroke-miterlimit="10" stroke-width="0.5" stroke-dasharray=""/><text fill="#505050" stroke="none" font-family="monospace" font-size="14px" font-style="normal" font-weight="normal" text-decoration="normal" x="520.2890625" y="280.02734375" text-anchor="end" dominant-baseline="text-after-edge">&gt; 0</text><path fill="white" stroke="#505050" paint-order="fill stroke markers" d=" M 368.078125 202.76953125 L 400.078125 202.76953125 L 400.078125 248.76953125 L 368.078125 248.76953125 L 368.078125 202.76953125 Z" stroke-miterlimit="10" stroke-width="0.5" stroke-dasharray=""/><text fill="#505050" stroke="none" font-family="monospace" font-size="14px" font-style="normal" font-weight="normal" text-decoration="normal" x="384.078125" y="220.76953125" text-anchor="middle" dominant-baseline="text-after-edge">&gt;</text><path fill="none" stroke="#505050" paint-order="fill stroke markers" d=" M 368.078125 224.76953125 L 376.078125 224.76953125 L 376.078125 232.76953125 L 368.078125 232.76953125 L 368.078125 224.76953125 Z" stroke-miterlimit="10" stroke-width="0.5" stroke-dasharray=""/><path fill="none" stroke="#505050" paint-order="fill stroke markers" d=" M 368.078125 236.76953125 L 376.078125 236.76953125 L 376.078125 244.76953125 L 368.078125 244.76953125 L 368.078125 236.76953125 Z" stroke-miterlimit="10" stroke-width="0.5" stroke-dasharray=""/><path fill="none" stroke="#505050" paint-order="fill stroke markers" d=" M 392.078125 224.76953125 L 400.078125 224.76953125 L 400.078125 232.76953125 L 392.078125 232.76953125 L 392.078125 224.76953125 Z" stroke-miterlimit="10" stroke-width="0.5" stroke-dasharray=""/><path fill="white" stroke="#505050" paint-order="fill stroke markers" d=" M 390.2890625 254.02734375 L 447.2890625 254.02734375 L 455.2890625 265.02734375 L 447.2890625 276.02734375 L 390.2890625 276.02734375 L 390.2890625 254.02734375" stroke-miterlimit="10" stroke-width="0.5" stroke-dasharray=""/><path fill="none" stroke="#505050" paint-order="fill stroke markers" d=" M 398.2890625 267.02734375 A 4 4 0 1 0 398.2890605000002 267.03134374933336" stroke-miterlimit="10" stroke-width="0.5" stroke-dasharray=""/><text fill="#505050" stroke="none" font-family="monospace" font-size="14px" font-style="normal" font-weight="normal" text-decoration="normal" x="406.2890625" y="272.02734375" text-anchor="start" dominant-baseline="text-after-edge">&gt; 0</text><path fill="white" stroke="#505050" paint-order="fill stroke markers" d=" M 305.046875 243.98046875 L 353.046875 243.98046875 L 353.046875 265.98046875 L 305.046875 265.98046875 L 305.046875 243.98046875 Z" stroke-miterlimit="10" stroke-width="0.5" stroke-dasharray=""/><path fill="none" stroke="#505050" paint-order="fill stroke markers" d=" M 345.046875 252.98046875 L 353.046875 252.98046875 L 353.046875 260.98046875 L 345.046875 260.98046875 L 345.046875 252.98046875 Z" stroke-miterlimit="10" stroke-width="0.5" stroke-dasharray=""/><text fill="#505050" stroke="none" font-family="monospace" font-size="14px" font-style="normal" font-weight="normal" text-decoration="normal" x="337.046875" y="261.98046875" text-anchor="end" dominant-baseline="text-after-edge">0</text><path fill="white" stroke="#505050" paint-order="fill stroke markers" d=" M 327.30078125 204.1640625 L 351.30078125 204.1640625 L 351.30078125 224.1640625 L 327.30078125 224.1640625 L 335.30078125 214.1640625 L 327.30078125 204.1640625" stroke-miterlimit="10" stroke-width="0.5" stroke-dasharray=""/><path fill="none" stroke="#505050" paint-order="fill stroke markers" d=" M 351.30078125 216.1640625 A 4 4 0 1 0 351.3007792500002 216.16806249933333" stroke-miterlimit="10" stroke-width="0.5" stroke-dasharray=""/><path fill="white" stroke="#505050" paint-order="fill stroke markers" d=" M 263.89453125 363.80078125 L 263.89453125 452.796875 Q 263.89453125 460.796875 271.89453125 460.796875 L 547.76171875 460.796875 Q 555.76171875 460.796875 555.76171875 452.796875 L 555.76171875 363.80078125 Q 555.76171875 355.80078125 547.76171875 355.80078125 L 271.89453125 355.80078125 Q 263.89453125 355.80078125 263.89453125 363.80078125" stroke-miterlimit="10" stroke-width="0.5" stroke-dasharray=""/><path fill="#F0F0F0" stroke="#505050" paint-order="fill stroke markers" d=" M 491.76171875 402.796875 L 547.76171875 402.796875 L 547.76171875 452.796875 L 491.76171875 452.796875 L 491.76171875 402.796875 Z" stroke-miterlimit="10" stroke-width="0.5" stroke-dasharray=""/><text fill="#505050" stroke="none" font-family="monospace" font-size="14px" font-style="normal" font-weight="normal" text-decoration="normal" x="519.76171875" y="420.796875" text-anchor="middle" dominant-baseline="text-after-edge">max</text><path fill="none" stroke="#505050" paint-order="fill stroke markers" d=" M 491.76171875 425.796875 L 499.76171875 425.796875 L 499.76171875 433.796875 L 491.76171875 433.796875 L 491.76171875 425.796875 Z" stroke-miterlimit="10" stroke-width="0.5" stroke-dasharray=""/><text fill="#505050" stroke="none" font-family="monospace" font-size="14px" font-style="normal" font-weight="normal" text-decoration="normal" x="507.76171875" y="434.796875" text-anchor="start" dominant-baseline="text-after-edge">x</text><path fill="none" stroke="#505050" paint-order="fill stroke markers" d=" M 491.76171875 439.796875 L 499.76171875 439.796875 L 499.76171875 447.796875 L 491.76171875 447.796875 L 491.76171875 439.796875 Z" stroke-miterlimit="10" stroke-width="0.5" stroke-dasharray=""/><text fill="#505050" stroke="none" font-family="monospace" font-size="14px" font-style="normal" font-weight="normal" text-decoration="normal" x="507.76171875" y="448.796875" text-anchor="start" dominant-baseline="text-after-edge">y</text><path fill="none" stroke="#505050" paint-order="fill stroke markers" d=" M 539.76171875 424.796875 L 547.76171875 424.796875 L 547.76171875 432.796875 L 539.76171875 432.796875 L 539.76171875 424.796875 Z" stroke-miterlimit="10" stroke-width="0.5" stroke-dasharray=""/><path fill="white" stroke="#505050" paint-order="fill stroke markers" d=" M 349.6875 363.80078125 L 381.6875 363.80078125 L 381.6875 409.80078125 L 349.6875 409.80078125 L 349.6875 363.80078125 Z" stroke-miterlimit="10" stroke-width="0.5" stroke-dasharray=""/><text fill="#505050" stroke="none" font-family="monospace" font-size="14px" font-style="normal" font-weight="normal" text-decoration="normal" x="365.6875" y="381.80078125" text-anchor="middle" dominant-baseline="text-after-edge">&gt;</text><path fill="none" stroke="#505050" paint-order="fill stroke markers" d=" M 349.6875 385.80078125 L 357.6875 385.80078125 L 357.6875 393.80078125 L 349.6875 393.80078125 L 349.6875 385.80078125 Z" stroke-miterlimit="10" stroke-width="0.5" stroke-dasharray=""/><path fill="none" stroke="#505050" paint-order="fill stroke markers" d=" M 349.6875 397.80078125 L 357.6875 397.80078125 L 357.6875 405.80078125 L 349.6875 405.80078125 L 349.6875 397.80078125 Z" stroke-miterlimit="10" stroke-width="0.5" stroke-dasharray=""/><path fill="none" stroke="#505050" paint-order="fill stroke markers" d=" M 373.6875 385.80078125 L 381.6875 385.80078125 L 381.6875 393.80078125 L 373.6875 393.80078125 L 373.6875 385.80078125 Z" stroke-miterlimit="10" stroke-width="0.5" stroke-dasharray=""/><path fill="white" stroke="#505050" paint-order="fill stroke markers" d=" M 276.453125 392.33984375 L 324.453125 392.33984375 L 324.453125 414.33984375 L 276.453125 414.33984375 L 284.453125 403.33984375 L 276.453125 392.33984375" stroke-miterlimit="10" stroke-width="0.5" stroke-dasharray=""/><path fill="none" stroke="#505050" paint-order="fill stroke markers" d=" M 324.453125 405.33984375 A 4 4 0 1 0 324.4531230000002 405.34384374933336" stroke-miterlimit="10" stroke-width="0.5" stroke-dasharray=""/><text fill="#505050" stroke="none" font-family="monospace" font-size="14px" font-style="normal" font-weight="normal" text-decoration="normal" x="308.453125" y="410.33984375" text-anchor="end" dominant-baseline="text-after-edge">x</text><path fill="white" stroke="#505050" paint-order="fill stroke markers" d=" M 280.44921875 422.328125 L 328.44921875 422.328125 L 328.44921875 444.328125 L 280.44921875 444.328125 L 288.44921875 433.328125 L 280.44921875 422.328125" stroke-miterlimit="10" stroke-width="0.5" stroke-dasharray=""/><path fill="none" stroke="#505050" paint-order="fill stroke markers" d=" M 328.44921875 435.328125 A 4 4 0 1 0 328.4492167500002 435.33212499933336" stroke-miterlimit="10" stroke-width="0.5" stroke-dasharray=""/><text fill="#505050" stroke="none" font-family="monospace" font-size="14px" font-style="normal" font-weight="normal" text-decoration="normal" x="312.44921875" y="440.328125" text-anchor="end" dominant-baseline="text-after-edge">y</text><path fill="white" stroke="#505050" paint-order="fill stroke markers" d=" M 410.6875 386.796875 L 442.6875 386.796875 L 442.6875 444.796875 L 410.6875 444.796875 L 410.6875 386.796875 Z" stroke-miterlimit="10" stroke-width="0.5" stroke-dasharray=""/><text fill="#505050" stroke="none" font-family="monospace" font-size="14px" font-style="normal" font-weight="normal" text-decoration="normal" x="426.6875" y="404.796875" text-anchor="middle" dominant-baseline="text-after-edge">?</text><path fill="none" stroke="#505050" paint-order="fill stroke markers" d=" M 410.6875 408.796875 L 418.6875 408.796875 L 418.6875 416.796875 L 410.6875 416.796875 L 410.6875 408.796875 Z" stroke-miterlimit="10" stroke-width="0.5" stroke-dasharray=""/><path fill="none" stroke="#505050" paint-order="fill stroke markers" d=" M 418.6875 424.796875 A 4 4 0 1 0 418.6874980000002 424.80087499933336" stroke-miterlimit="10" stroke-width="0.5" stroke-dasharray=""/><path fill="none" stroke="#505050" paint-order="fill stroke markers" d=" M 418.6875 436.796875 A 4 4 0 1 0 418.6874980000002 436.80087499933336" stroke-miterlimit="10" stroke-width="0.5" stroke-dasharray=""/><path fill="none" stroke="#505050" paint-order="fill stroke markers" d=" M 442.6875 412.796875 A 4 4 0 1 0 442.6874980000002 412.80087499933336" stroke-miterlimit="10" stroke-width="0.5" stroke-dasharray=""/><path fill="white" stroke="#505050" paint-order="fill stroke markers" d=" M 459.76171875 375.14453125 L 475.76171875 375.14453125 L 483.76171875 385.14453125 L 475.76171875 395.14453125 L 459.76171875 395.14453125 L 459.76171875 375.14453125" stroke-miterlimit="10" stroke-width="0.5" stroke-dasharray=""/><path fill="none" stroke="#505050" paint-order="fill stroke markers" d=" M 467.76171875 387.14453125 A 4 4 0 1 0 467.7617167500002 387.14853124933336" stroke-miterlimit="10" stroke-width="0.5" stroke-dasharray=""/><path fill="white" stroke="#505050" paint-order="fill stroke markers" d=" M 576.71484375 360.65625 L 576.71484375 449.65234375 Q 576.71484375 457.65234375 584.71484375 457.65234375 L 860.58203125 457.65234375 Q 868.58203125 457.65234375 868.58203125 449.65234375 L 868.58203125 360.65625 Q 868.58203125 352.65625 860.58203125 352.65625 L 584.71484375 352.65625 Q 576.71484375 352.65625 576.71484375 360.65625" stroke-miterlimit="10" stroke-width="0.5" stroke-dasharray=""/><path fill="#F0F0F0" stroke="#505050" paint-order="fill stroke markers" d=" M 804.58203125 399.65234375 L 860.58203125 399.65234375 L 860.58203125 449.65234375 L 804.58203125 449.65234375 L 804.58203125 399.65234375 Z" stroke-miterlimit="10" stroke-width="0.5" stroke-dasharray=""/><text fill="#505050" stroke="none" font-family="monospace" font-size="14px" font-style="normal" font-weight="normal" text-decoration="normal" x="832.58203125" y="417.65234375" text-anchor="middle" dominant-baseline="text-after-edge">min</text><path fill="none" stroke="#505050" paint-order="fill stroke markers" d=" M 804.58203125 422.65234375 L 812.58203125 422.65234375 L 812.58203125 430.65234375 L 804.58203125 430.65234375 L 804.58203125 422.65234375 Z" stroke-miterlimit="10" stroke-width="0.5" stroke-dasharray=""/><text fill="#505050" stroke="none" font-family="monospace" font-size="14px" font-style="normal" font-weight="normal" text-decoration="normal" x="820.58203125" y="431.65234375" text-anchor="start" dominant-baseline="text-after-edge">x</text><path fill="none" stroke="#505050" paint-order="fill stroke markers" d=" M 804.58203125 436.65234375 L 812.58203125 436.65234375 L 812.58203125 444.65234375 L 804.58203125 444.65234375 L 804.58203125 436.65234375 Z" stroke-miterlimit="10" stroke-width="0.5" stroke-dasharray=""/><text fill="#505050" stroke="none" font-family="monospace" font-size="14px" font-style="normal" font-weight="normal" text-decoration="normal" x="820.58203125" y="445.65234375" text-anchor="start" dominant-baseline="text-after-edge">y</text><path fill="none" stroke="#505050" paint-order="fill stroke markers" d=" M 852.58203125 421.65234375 L 860.58203125 421.65234375 L 860.58203125 429.65234375 L 852.58203125 429.65234375 L 852.58203125 421.65234375 Z" stroke-miterlimit="10" stroke-width="0.5" stroke-dasharray=""/><path fill="white" stroke="#505050" paint-order="fill stroke markers" d=" M 662.5078125 360.65625 L 694.5078125 360.65625 L 694.5078125 406.65625 L 662.5078125 406.65625 L 662.5078125 360.65625 Z" stroke-miterlimit="10" stroke-width="0.5" stroke-dasharray=""/><text fill="#505050" stroke="none" font-family="monospace" font-size="14px" font-style="normal" font-weight="normal" text-decoration="normal" x="678.5078125" y="378.65625" text-anchor="middle" dominant-baseline="text-after-edge">&lt;</text><path fill="none" stroke="#505050" paint-order="fill stroke markers" d=" M 662.5078125 382.65625 L 670.5078125 382.65625 L 670.5078125 390.65625 L 662.5078125 390.65625 L 662.5078125 382.65625 Z" stroke-miterlimit="10" stroke-width="0.5" stroke-dasharray=""/><path fill="none" stroke="#505050" paint-order="fill stroke markers" d=" M 662.5078125 394.65625 L 670.5078125 394.65625 L 670.5078125 402.65625 L 662.5078125 402.65625 L 662.5078125 394.65625 Z" stroke-miterlimit="10" stroke-width="0.5" stroke-dasharray=""/><path fill="none" stroke="#505050" paint-order="fill stroke markers" d=" M 686.5078125 382.65625 L 694.5078125 382.65625 L 694.5078125 390.65625 L 686.5078125 390.65625 L 686.5078125 382.65625 Z" stroke-miterlimit="10" stroke-width="0.5" stroke-dasharray=""/><path fill="white" stroke="#505050" paint-order="fill stroke markers" d=" M 589.2734375 389.1953125 L 637.2734375 389.1953125 L 637.2734375 411.1953125 L 589.2734375 411.1953125 L 597.2734375 400.1953125 L 589.2734375 389.1953125" stroke-miterlimit="10" stroke-width="0.5" stroke-dasharray=""/><path fill="none" stroke="#505050" paint-order="fill stroke markers" d=" M 637.2734375 402.1953125 A 4 4 0 1 0 637.2734355000001 402.19931249933336" stroke-miterlimit="10" stroke-width="0.5" stroke-dasharray=""/><text fill="#505050" stroke="none" font-family="monospace" font-size="14px" font-style="normal" font-weight="normal" text-decoration="normal" x="621.2734375" y="407.1953125" text-anchor="end" dominant-baseline="text-after-edge">x</text><path fill="white" stroke="#505050" paint-order="fill stroke markers" d=" M 593.26953125 419.18359375 L 641.26953125 419.18359375 L 641.26953125 441.18359375 L 593.26953125 441.18359375 L 601.26953125 430.18359375 L 593.26953125 419.18359375" stroke-miterlimit="10" stroke-width="0.5" stroke-dasharray=""/><path fill="none" stroke="#505050" paint-order="fill stroke markers" d=" M 641.26953125 432.18359375 A 4 4 0 1 0 641.2695292500001 432.18759374933336" stroke-miterlimit="10" stroke-width="0.5" stroke-dasharray=""/><text fill="#505050" stroke="none" font-family="monospace" font-size="14px" font-style="normal" font-weight="normal" text-decoration="normal" x="625.26953125" y="437.18359375" text-anchor="end" dominant-baseline="text-after-edge">y</text><path fill="white" stroke="#505050" paint-order="fill stroke markers" d=" M 723.5078125 383.65234375 L 755.5078125 383.65234375 L 755.5078125 441.65234375 L 723.5078125 441.65234375 L 723.5078125 383.65234375 Z" stroke-miterlimit="10" stroke-width="0.5" stroke-dasharray=""/><text fill="#505050" stroke="none" font-family="monospace" font-size="14px" font-style="normal" font-weight="normal" text-decoration="normal" x="739.5078125" y="401.65234375" text-anchor="middle" dominant-baseline="text-after-edge">?</text><path fill="none" stroke="#505050" paint-order="fill stroke markers" d=" M 723.5078125 405.65234375 L 731.5078125 405.65234375 L 731.5078125 413.65234375 L 723.5078125 413.65234375 L 723.5078125 405.65234375 Z" stroke-miterlimit="10" stroke-width="0.5" stroke-dasharray=""/><path fill="none" stroke="#505050" paint-order="fill stroke markers" d=" M 731.5078125 421.65234375 A 4 4 0 1 0 731.5078105000001 421.65634374933336" stroke-miterlimit="10" stroke-width="0.5" stroke-dasharray=""/><path fill="none" stroke="#505050" paint-order="fill stroke markers" d=" M 731.5078125 433.65234375 A 4 4 0 1 0 731.5078105000001 433.65634374933336" stroke-miterlimit="10" stroke-width="0.5" stroke-dasharray=""/><path fill="none" stroke="#505050" paint-order="fill stroke markers" d=" M 755.5078125 409.65234375 A 4 4 0 1 0 755.5078105000001 409.65634374933336" stroke-miterlimit="10" stroke-width="0.5" stroke-dasharray=""/><path fill="white" stroke="#505050" paint-order="fill stroke markers" d=" M 772.58203125 372 L 788.58203125 372 L 796.58203125 382 L 788.58203125 392 L 772.58203125 392 L 772.58203125 372" stroke-miterlimit="10" stroke-width="0.5" stroke-dasharray=""/><path fill="none" stroke="#505050" paint-order="fill stroke markers" d=" M 780.58203125 384 A 4 4 0 1 0 780.5820292500001 384.00399999933336" stroke-miterlimit="10" stroke-width="0.5" stroke-dasharray=""/><path fill="white" stroke="#505050" paint-order="fill stroke markers" d=" M 275.8828125 496.38671875 L 275.8828125 603.84375 Q 275.8828125 611.84375 283.8828125 611.84375 L 559.75 611.84375 Q 567.75 611.84375 567.75 603.84375 L 567.75 496.38671875 Q 567.75 488.38671875 559.75 488.38671875 L 283.8828125 488.38671875 Q 275.8828125 488.38671875 275.8828125 496.38671875" stroke-miterlimit="10" stroke-width="0.5" stroke-dasharray=""/><path fill="#F0F0F0" stroke="#505050" paint-order="fill stroke markers" d=" M 503.75 567.84375 L 559.75 567.84375 L 559.75 603.84375 L 503.75 603.84375 L 503.75 567.84375 Z" stroke-miterlimit="10" stroke-width="0.5" stroke-dasharray=""/><text fill="#505050" stroke="none" font-family="monospace" font-size="14px" font-style="normal" font-weight="normal" text-decoration="normal" x="531.75" y="585.84375" text-anchor="middle" dominant-baseline="text-after-edge">abs</text><path fill="none" stroke="#505050" paint-order="fill stroke markers" d=" M 503.75 590.84375 L 511.75 590.84375 L 511.75 598.84375 L 503.75 598.84375 L 503.75 590.84375 Z" stroke-miterlimit="10" stroke-width="0.5" stroke-dasharray=""/><text fill="#505050" stroke="none" font-family="monospace" font-size="14px" font-style="normal" font-weight="normal" text-decoration="normal" x="519.75" y="599.84375" text-anchor="start" dominant-baseline="text-after-edge">x</text><path fill="none" stroke="#505050" paint-order="fill stroke markers" d=" M 551.75 589.84375 L 559.75 589.84375 L 559.75 597.84375 L 551.75 597.84375 L 551.75 589.84375 Z" stroke-miterlimit="10" stroke-width="0.5" stroke-dasharray=""/><path fill="white" stroke="#505050" paint-order="fill stroke markers" d=" M 284.71484375 536.5234375 L 332.71484375 536.5234375 L 332.71484375 558.5234375 L 284.71484375 558.5234375 L 292.71484375 547.5234375 L 284.71484375 536.5234375" stroke-miterlimit="10" stroke-width="0.5" stroke-dasharray=""/><path fill="none" stroke="#505050" paint-order="fill stroke markers" d=" M 332.71484375 549.5234375 A 4 4 0 1 0 332.7148417500002 549.5274374993334" stroke-miterlimit="10" stroke-width="0.5" stroke-dasharray=""/><text fill="#505050" stroke="none" font-family="monospace" font-size="14px" font-style="normal" font-weight="normal" text-decoration="normal" x="316.71484375" y="554.5234375" text-anchor="end" dominant-baseline="text-after-edge">x</text><path fill="white" stroke="#505050" paint-order="fill stroke markers" d=" M 422.67578125 519.3828125 L 454.67578125 519.3828125 L 454.67578125 577.3828125 L 422.67578125 577.3828125 L 422.67578125 519.3828125 Z" stroke-miterlimit="10" stroke-width="0.5" stroke-dasharray=""/><text fill="#505050" stroke="none" font-family="monospace" font-size="14px" font-style="normal" font-weight="normal" text-decoration="normal" x="438.67578125" y="537.3828125" text-anchor="middle" dominant-baseline="text-after-edge">?</text><path fill="none" stroke="#505050" paint-order="fill stroke markers" d=" M 422.67578125 541.3828125 L 430.67578125 541.3828125 L 430.67578125 549.3828125 L 422.67578125 549.3828125 L 422.67578125 541.3828125 Z" stroke-miterlimit="10" stroke-width="0.5" stroke-dasharray=""/><path fill="none" stroke="#505050" paint-order="fill stroke markers" d=" M 430.67578125 557.3828125 A 4 4 0 1 0 430.6757792500002 557.3868124993334" stroke-miterlimit="10" stroke-width="0.5" stroke-dasharray=""/><path fill="none" stroke="#505050" paint-order="fill stroke markers" d=" M 430.67578125 569.3828125 A 4 4 0 1 0 430.6757792500002 569.3868124993334" stroke-miterlimit="10" stroke-width="0.5" stroke-dasharray=""/><path fill="none" stroke="#505050" paint-order="fill stroke markers" d=" M 454.67578125 545.3828125 A 4 4 0 1 0 454.6757792500002 545.3868124993334" stroke-miterlimit="10" stroke-width="0.5" stroke-dasharray=""/><path fill="white" stroke="#505050" paint-order="fill stroke markers" d=" M 471.75 507.73046875 L 487.75 507.73046875 L 495.75 517.73046875 L 487.75 527.73046875 L 471.75 527.73046875 L 471.75 507.73046875" stroke-miterlimit="10" stroke-width="0.5" stroke-dasharray=""/><path fill="none" stroke="#505050" paint-order="fill stroke markers" d=" M 479.75 519.73046875 A 4 4 0 1 0 479.7499980000002 519.7344687493334" stroke-miterlimit="10" stroke-width="0.5" stroke-dasharray=""/><path fill="white" stroke="#505050" paint-order="fill stroke markers" d=" M 342.4375 503.546875 L 415.4375 503.546875 L 415.4375 525.546875 L 342.4375 525.546875 L 342.4375 503.546875 Z" stroke-miterlimit="10" stroke-width="0.5" stroke-dasharray=""/><path fill="none" stroke="#505050" paint-order="fill stroke markers" d=" M 342.4375 511.546875 L 350.4375 511.546875 L 350.4375 519.546875 L 342.4375 519.546875 L 342.4375 511.546875 Z" stroke-miterlimit="10" stroke-width="0.5" stroke-dasharray=""/><path fill="none" stroke="#505050" paint-order="fill stroke markers" d=" M 407.4375 512.546875 L 415.4375 512.546875 L 415.4375 520.546875 L 407.4375 520.546875 L 407.4375 512.546875 Z" stroke-miterlimit="10" stroke-width="0.5" stroke-dasharray=""/><text fill="#505050" stroke="none" font-family="monospace" font-size="14px" font-style="normal" font-weight="normal" text-decoration="normal" x="399.4375" y="521.546875" text-anchor="end" dominant-baseline="text-after-edge">&gt; 0</text><path fill="white" stroke="#505050" paint-order="fill stroke markers" d=" M 350.1328125 561.84375 L 382.1328125 561.84375 L 382.1328125 595.84375 L 350.1328125 595.84375 L 350.1328125 561.84375 Z" stroke-miterlimit="10" stroke-width="0.5" stroke-dasharray=""/><text fill="#505050" stroke="none" font-family="monospace" font-size="14px" font-style="normal" font-weight="normal" text-decoration="normal" x="366.1328125" y="579.84375" text-anchor="middle" dominant-baseline="text-after-edge">-</text><path fill="none" stroke="#505050" paint-order="fill stroke markers" d=" M 350.1328125 583.84375 L 358.1328125 583.84375 L 358.1328125 591.84375 L 350.1328125 591.84375 L 350.1328125 583.84375 Z" stroke-miterlimit="10" stroke-width="0.5" stroke-dasharray=""/><path fill="none" stroke="#505050" paint-order="fill stroke markers" d=" M 374.1328125 583.84375 L 382.1328125 583.84375 L 382.1328125 591.84375 L 374.1328125 591.84375 L 374.1328125 583.84375 Z" stroke-miterlimit="10" stroke-width="0.5" stroke-dasharray=""/><path fill="white" stroke="#505050" paint-order="fill stroke markers" d=" M 566.98046875 60.94140625 L 566.98046875 142.19921875 Q 566.98046875 150.19921875 574.98046875 150.19921875 L 804.984375 150.19921875 Q 812.984375 150.19921875 812.984375 142.19921875 L 812.984375 60.94140625 Q 812.984375 52.94140625 804.984375 52.94140625 L 574.98046875 52.94140625 Q 566.98046875 52.94140625 566.98046875 60.94140625" stroke-miterlimit="10" stroke-width="0.5" stroke-dasharray=""/><path fill="#F0F0F0" stroke="#505050" paint-order="fill stroke markers" d=" M 739.984375 120.19921875 L 804.984375 120.19921875 L 804.984375 142.19921875 L 739.984375 142.19921875 L 739.984375 120.19921875 Z" stroke-miterlimit="10" stroke-width="0.5" stroke-dasharray=""/><path fill="none" stroke="#505050" paint-order="fill stroke markers" d=" M 739.984375 128.19921875 L 747.984375 128.19921875 L 747.984375 136.19921875 L 739.984375 136.19921875 L 739.984375 128.19921875 Z" stroke-miterlimit="10" stroke-width="0.5" stroke-dasharray=""/><path fill="none" stroke="#505050" paint-order="fill stroke markers" d=" M 796.984375 129.19921875 L 804.984375 129.19921875 L 804.984375 137.19921875 L 796.984375 137.19921875 L 796.984375 129.19921875 Z" stroke-miterlimit="10" stroke-width="0.5" stroke-dasharray=""/><text fill="#505050" stroke="none" font-family="monospace" font-size="14px" font-style="normal" font-weight="normal" text-decoration="normal" x="788.984375" y="138.19921875" text-anchor="end" dominant-baseline="text-after-edge">-1</text><path fill="white" stroke="#505050" paint-order="fill stroke markers" d=" M 652.7734375 60.94140625 L 684.7734375 60.94140625 L 684.7734375 106.94140625 L 652.7734375 106.94140625 L 652.7734375 60.94140625 Z" stroke-miterlimit="10" stroke-width="0.5" stroke-dasharray=""/><text fill="#505050" stroke="none" font-family="monospace" font-size="14px" font-style="normal" font-weight="normal" text-decoration="normal" x="668.7734375" y="78.94140625" text-anchor="middle" dominant-baseline="text-after-edge">-</text><path fill="none" stroke="#505050" paint-order="fill stroke markers" d=" M 652.7734375 82.94140625 L 660.7734375 82.94140625 L 660.7734375 90.94140625 L 652.7734375 90.94140625 L 652.7734375 82.94140625 Z" stroke-miterlimit="10" stroke-width="0.5" stroke-dasharray=""/><path fill="none" stroke="#505050" paint-order="fill stroke markers" d=" M 652.7734375 94.94140625 L 660.7734375 94.94140625 L 660.7734375 102.94140625 L 652.7734375 102.94140625 L 652.7734375 94.94140625 Z" stroke-miterlimit="10" stroke-width="0.5" stroke-dasharray=""/><path fill="none" stroke="#505050" paint-order="fill stroke markers" d=" M 676.7734375 82.94140625 L 684.7734375 82.94140625 L 684.7734375 90.94140625 L 676.7734375 90.94140625 L 676.7734375 82.94140625 Z" stroke-miterlimit="10" stroke-width="0.5" stroke-dasharray=""/><path fill="white" stroke="#505050" paint-order="fill stroke markers" d=" M 674.984375 112.19921875 L 723.984375 112.19921875 L 731.984375 123.19921875 L 723.984375 134.19921875 L 674.984375 134.19921875 L 674.984375 112.19921875" stroke-miterlimit="10" stroke-width="0.5" stroke-dasharray=""/><path fill="none" stroke="#505050" paint-order="fill stroke markers" d=" M 682.984375 125.19921875 A 4 4 0 1 0 682.9843730000001 125.20321874933333" stroke-miterlimit="10" stroke-width="0.5" stroke-dasharray=""/><text fill="#505050" stroke="none" font-family="monospace" font-size="14px" font-style="normal" font-weight="normal" text-decoration="normal" x="690.984375" y="130.19921875" text-anchor="start" dominant-baseline="text-after-edge">-1</text><path fill="white" stroke="#505050" paint-order="fill stroke markers" d=" M 589.7421875 102.15234375 L 637.7421875 102.15234375 L 637.7421875 124.15234375 L 589.7421875 124.15234375 L 589.7421875 102.15234375 Z" stroke-miterlimit="10" stroke-width="0.5" stroke-dasharray=""/><path fill="none" stroke="#505050" paint-order="fill stroke markers" d=" M 629.7421875 111.15234375 L 637.7421875 111.15234375 L 637.7421875 119.15234375 L 629.7421875 119.15234375 L 629.7421875 111.15234375 Z" stroke-miterlimit="10" stroke-width="0.5" stroke-dasharray=""/><text fill="#505050" stroke="none" font-family="monospace" font-size="14px" font-style="normal" font-weight="normal" text-decoration="normal" x="621.7421875" y="120.15234375" text-anchor="end" dominant-baseline="text-after-edge">1</text><path fill="white" stroke="#505050" paint-order="fill stroke markers" d=" M 611.99609375 62.3359375 L 635.99609375 62.3359375 L 635.99609375 82.3359375 L 611.99609375 82.3359375 L 619.99609375 72.3359375 L 611.99609375 62.3359375" stroke-miterlimit="10" stroke-width="0.5" stroke-dasharray=""/><path fill="none" stroke="#505050" paint-order="fill stroke markers" d=" M 635.99609375 74.3359375 A 4 4 0 1 0 635.9960917500001 74.33993749933333" stroke-miterlimit="10" stroke-width="0.5" stroke-dasharray=""/><path fill="none" stroke="#505050" paint-order="fill stroke markers" d=" M 408.140625 89.95703125 C 432.140625 89.95703125 374.3515625 128.21484375 398.3515625 128.21484375" stroke-miterlimit="10" stroke-dasharray=""/><path fill="none" stroke="#505050" paint-order="fill stroke markers" d=" M 361.109375 118.16796875 C 385.109375 118.16796875 352.140625 101.95703125 376.140625 101.95703125" stroke-miterlimit="10" stroke-dasharray=""/><path fill="none" stroke="#505050" paint-order="fill stroke markers" d=" M 359.36328125 77.3515625 C 383.36328125 77.3515625 352.140625 89.95703125 376.140625 89.95703125" stroke-miterlimit="10" stroke-dasharray=""/><path fill="none" stroke="#505050" paint-order="fill stroke markers" d=" M 702.1171875 231.69921875 C 726.1171875 231.69921875 668.328125 269.95703125 692.328125 269.95703125" stroke-miterlimit="10" stroke-dasharray=""/><path fill="none" stroke="#505050" paint-order="fill stroke markers" d=" M 655.0859375 259.91015625 C 679.0859375 259.91015625 646.1171875 243.69921875 670.1171875 243.69921875" stroke-miterlimit="10" stroke-dasharray=""/><path fill="none" stroke="#505050" paint-order="fill stroke markers" d=" M 653.33984375 219.09375 C 677.33984375 219.09375 646.1171875 231.69921875 670.1171875 231.69921875" stroke-miterlimit="10" stroke-dasharray=""/><path fill="none" stroke="#505050" paint-order="fill stroke markers" d=" M 400.078125 228.76953125 C 424.078125 228.76953125 366.2890625 267.02734375 390.2890625 267.02734375" stroke-miterlimit="10" stroke-dasharray=""/><path fill="none" stroke="#505050" paint-order="fill stroke markers" d=" M 353.046875 256.98046875 C 377.046875 256.98046875 344.078125 240.76953125 368.078125 240.76953125" stroke-miterlimit="10" stroke-dasharray=""/><path fill="none" stroke="#505050" paint-order="fill stroke markers" d=" M 351.30078125 216.1640625 C 375.30078125 216.1640625 344.078125 228.76953125 368.078125 228.76953125" stroke-miterlimit="10" stroke-dasharray=""/><path fill="none" stroke="#505050" paint-order="fill stroke markers" d=" M 328.44921875 435.328125 C 352.44921875 435.328125 325.6875 401.80078125 349.6875 401.80078125" stroke-miterlimit="10" stroke-dasharray=""/><path fill="none" stroke="#505050" paint-order="fill stroke markers" d=" M 324.453125 405.33984375 C 348.453125 405.33984375 325.6875 389.80078125 349.6875 389.80078125" stroke-miterlimit="10" stroke-dasharray=""/><path fill="none" stroke="#505050" paint-order="fill stroke markers" d=" M 381.6875 389.80078125 C 405.6875 389.80078125 386.6875 412.796875 410.6875 412.796875" stroke-miterlimit="10" stroke-dasharray=""/><path fill="none" stroke="#505050" paint-order="fill stroke markers" d=" M 324.453125 405.33984375 C 348.453125 405.33984375 386.6875 424.796875 410.6875 424.796875" stroke-miterlimit="10" stroke-dasharray=""/><path fill="none" stroke="#505050" paint-order="fill stroke markers" d=" M 328.44921875 435.328125 C 352.44921875 435.328125 386.6875 436.796875 410.6875 436.796875" stroke-miterlimit="10" stroke-dasharray=""/><path fill="none" stroke="#505050" paint-order="fill stroke markers" d=" M 442.6875 412.796875 C 466.6875 412.796875 435.76171875 387.14453125 459.76171875 387.14453125" stroke-miterlimit="10" stroke-dasharray=""/><path fill="none" stroke="#505050" paint-order="fill stroke markers" d=" M 641.26953125 432.18359375 C 665.26953125 432.18359375 638.5078125 398.65625 662.5078125 398.65625" stroke-miterlimit="10" stroke-dasharray=""/><path fill="none" stroke="#505050" paint-order="fill stroke markers" d=" M 637.2734375 402.1953125 C 661.2734375 402.1953125 638.5078125 386.65625 662.5078125 386.65625" stroke-miterlimit="10" stroke-dasharray=""/><path fill="none" stroke="#505050" paint-order="fill stroke markers" d=" M 694.5078125 386.65625 C 718.5078125 386.65625 699.5078125 409.65234375 723.5078125 409.65234375" stroke-miterlimit="10" stroke-dasharray=""/><path fill="none" stroke="#505050" paint-order="fill stroke markers" d=" M 637.2734375 402.1953125 C 661.2734375 402.1953125 699.5078125 421.65234375 723.5078125 421.65234375" stroke-miterlimit="10" stroke-dasharray=""/><path fill="none" stroke="#505050" paint-order="fill stroke markers" d=" M 641.26953125 432.18359375 C 665.26953125 432.18359375 699.5078125 433.65234375 723.5078125 433.65234375" stroke-miterlimit="10" stroke-dasharray=""/><path fill="none" stroke="#505050" paint-order="fill stroke markers" d=" M 755.5078125 409.65234375 C 779.5078125 409.65234375 748.58203125 384 772.58203125 384" stroke-miterlimit="10" stroke-dasharray=""/><path fill="none" stroke="#505050" paint-order="fill stroke markers" d=" M 332.71484375 549.5234375 C 356.71484375 549.5234375 398.67578125 557.3828125 422.67578125 557.3828125" stroke-miterlimit="10" stroke-dasharray=""/><path fill="none" stroke="#505050" paint-order="fill stroke markers" d=" M 454.67578125 545.3828125 C 478.67578125 545.3828125 447.75 519.73046875 471.75 519.73046875" stroke-miterlimit="10" stroke-dasharray=""/><path fill="none" stroke="#505050" paint-order="fill stroke markers" d=" M 332.71484375 549.5234375 C 356.71484375 549.5234375 318.4375 515.546875 342.4375 515.546875" stroke-miterlimit="10" stroke-dasharray=""/><path fill="none" stroke="#505050" paint-order="fill stroke markers" d=" M 415.4375 516.546875 C 439.4375 516.546875 398.67578125 545.3828125 422.67578125 545.3828125" stroke-miterlimit="10" stroke-dasharray=""/><path fill="none" stroke="#505050" paint-order="fill stroke markers" d=" M 382.1328125 587.84375 C 406.1328125 587.84375 398.67578125 569.3828125 422.67578125 569.3828125" stroke-miterlimit="10" stroke-dasharray=""/><path fill="none" stroke="#505050" paint-order="fill stroke markers" d=" M 332.71484375 549.5234375 C 356.71484375 549.5234375 326.1328125 587.84375 350.1328125 587.84375" stroke-miterlimit="10" stroke-dasharray=""/><path fill="none" stroke="#505050" paint-order="fill stroke markers" d=" M 684.7734375 86.94140625 C 708.7734375 86.94140625 650.984375 125.19921875 674.984375 125.19921875" stroke-miterlimit="10" stroke-dasharray=""/><path fill="none" stroke="#505050" paint-order="fill stroke markers" d=" M 637.7421875 115.15234375 C 661.7421875 115.15234375 628.7734375 98.94140625 652.7734375 98.94140625" stroke-miterlimit="10" stroke-dasharray=""/><path fill="none" stroke="#505050" paint-order="fill stroke markers" d=" M 635.99609375 74.3359375 C 659.99609375 74.3359375 628.7734375 86.94140625 652.7734375 86.94140625" stroke-miterlimit="10" stroke-dasharray=""/></g></g></svg>