<svg version="1.1" xmlns="http://www.w3.org/2000/svg" xmlns:xlink="http://www.w3.org/1999/xlink" width="699.078125" height="253.66796875"><defs/><g transform="translate(-363.49609375,-90.24609375)"><g><path fill="white" stroke="#505050" paint-order="fill stroke markers" d=" M 364.49609375 123.171875 L 364.49609375 178.3046875 Q 364.49609375 186.3046875 372.49609375 186.3046875 L 522.25 186.3046875 Q 530.25 186.3046875 530.25 178.3046875 L 530.25 123.171875 Q 530.25 115.171875 522.25 115.171875 L 372.49609375 115.171875 Q 364.49609375 115.171875 364.49609375 123.171875" stroke-miterlimit="10" stroke-width="0.5" stroke-dasharray=""/><path fill="#F0F0F0" stroke="#505050" paint-order="fill stroke markers" d=" M 489.25 144.3046875 L 522.25 144.3046875 L 522.25 178.3046875 L 489.25 178.3046875 L 489.25 144.3046875 Z" stroke-miterlimit="10" stroke-width="0.5" stroke-dasharray=""/><text fill="#505050" stroke="none" font-family="monospace" font-size="14px" font-style="normal" font-weight="normal" text-decoration="normal" x="505.75" y="162.3046875" text-anchor="middle" dominant-baseline="text-after-edge">&lt;0</text><path fill="none" stroke="#505050" paint-order="fill stroke markers" d=" M 489.25 166.3046875 L 497.25 166.3046875 L 497.25 174.3046875 L 489.25 174.3046875 L 489.25 166.3046875 Z" stroke-miterlimit="10" stroke-width="0.5" stroke-dasharray=""/><path fill="none" stroke="#505050" paint-order="fill stroke markers" d=" M 514.25 166.3046875 L 522.25 166.3046875 L 522.25 174.3046875 L 514.25 174.3046875 L 514.25 166.3046875 Z" stroke-miterlimit="10" stroke-width="0.5" stroke-dasharray=""/><path fill="white" stroke="#505050" paint-order="fill stroke markers" d=" M 372.49609375 148.3046875 L 420.49609375 148.3046875 L 420.49609375 170.3046875 L 372.49609375 170.3046875 L 372.49609375 148.3046875 Z" stroke-miterlimit="10" stroke-width="0.5" stroke-dasharray=""/><path fill="none" stroke="#505050" paint-order="fill stroke markers" d=" M 412.49609375 157.3046875 L 420.49609375 157.3046875 L 420.49609375 165.3046875 L 412.49609375 165.3046875 L 412.49609375 157.3046875 Z" stroke-miterlimit="10" stroke-width="0.5" stroke-dasharray=""/><text fill="#505050" stroke="none" font-family="monospace" font-size="14px" font-style="normal" font-weight="normal" text-decoration="normal" x="404.49609375" y="166.3046875" text-anchor="end" dominant-baseline="text-after-edge">0</text><path fill="white" stroke="#505050" paint-order="fill stroke markers" d=" M 449.25 123.171875 L 481.25 123.171875 L 481.25 169.171875 L 449.25 169.171875 L 449.25 123.171875 Z" stroke-miterlimit="10" stroke-width="0.5" stroke-dasharray=""/><text fill="#505050" stroke="none" font-family="monospace" font-size="14px" font-style="normal" font-weight="normal" text-decoration="normal" x="465.25" y="141.171875" text-anchor="middle" dominant-baseline="text-after-edge">&lt;</text><path fill="none" stroke="#505050" paint-order="fill stroke markers" d=" M 449.25 145.171875 L 457.25 145.171875 L 457.25 153.171875 L 449.25 153.171875 L 449.25 145.171875 Z" stroke-miterlimit="10" stroke-width="0.5" stroke-dasharray=""/><path fill="none" stroke="#505050" paint-order="fill stroke markers" d=" M 449.25 157.171875 L 457.25 157.171875 L 457.25 165.171875 L 449.25 165.171875 L 449.25 157.171875 Z" stroke-miterlimit="10" stroke-width="0.5" stroke-dasharray=""/><path fill="none" stroke="#505050" paint-order="fill stroke markers" d=" M 473.25 145.171875 L 481.25 145.171875 L 481.25 153.171875 L 473.25 153.171875 L 473.25 145.171875 Z" stroke-miterlimit="10" stroke-width="0.5" stroke-dasharray=""/><path fill="white" stroke="#505050" paint-order="fill stroke markers" d=" M 370.078125 222.9453125 L 370.078125 278.078125 Q 370.078125 286.078125 378.078125 286.078125 L 527.83203125 286.078125 Q 535.83203125 286.078125 535.83203125 278.078125 L 535.83203125 222.9453125 Q 535.83203125 214.9453125 527.83203125 214.9453125 L 378.078125 214.9453125 Q 370.078125 214.9453125 370.078125 222.9453125" stroke-miterlimit="10" stroke-width="0.5" stroke-dasharray=""/><path fill="#F0F0F0" stroke="#505050" paint-order="fill stroke markers" d=" M 494.83203125 244.078125 L 527.83203125 244.078125 L 527.83203125 278.078125 L 494.83203125 278.078125 L 494.83203125 244.078125 Z" stroke-miterlimit="10" stroke-width="0.5" stroke-dasharray=""/><text fill="#505050" stroke="none" font-family="monospace" font-size="14px" font-style="normal" font-weight="normal" text-decoration="normal" x="511.33203125" y="262.078125" text-anchor="middle" dominant-baseline="text-after-edge">&gt;0</text><path fill="none" stroke="#505050" paint-order="fill stroke markers" d=" M 494.83203125 266.078125 L 502.83203125 266.078125 L 502.83203125 274.078125 L 494.83203125 274.078125 L 494.83203125 266.078125 Z" stroke-miterlimit="10" stroke-width="0.5" stroke-dasharray=""/><path fill="none" stroke="#505050" paint-order="fill stroke markers" d=" M 519.83203125 266.078125 L 527.83203125 266.078125 L 527.83203125 274.078125 L 519.83203125 274.078125 L 519.83203125 266.078125 Z" stroke-miterlimit="10" stroke-width="0.5" stroke-dasharray=""/><path fill="white" stroke="#505050" paint-order="fill stroke markers" d=" M 378.078125 248.078125 L 426.078125 248.078125 L 426.078125 270.078125 L 378.078125 270.078125 L 378.078125 248.078125 Z" stroke-miterlimit="10" stroke-width="0.5" stroke-dasharray=""/><path fill="none" stroke="#505050" paint-order="fill stroke markers" d=" M 418.078125 257.078125 L 426.078125 257.078125 L 426.078125 265.078125 L 418.078125 265.078125 L 418.078125 257.078125 Z" stroke-miterlimit="10" stroke-width="0.5" stroke-dasharray=""/><text fill="#505050" stroke="none" font-family="monospace" font-size="14px" font-style="normal" font-weight="normal" text-decoration="normal" x="410.078125" y="266.078125" text-anchor="end" dominant-baseline="text-after-edge">0</text><path fill="white" stroke="#505050" paint-order="fill stroke markers" d=" M 454.83203125 222.9453125 L 486.83203125 222.9453125 L 486.83203125 268.9453125 L 454.83203125 268.9453125 L 454.83203125 222.9453125 Z" stroke-miterlimit="10" stroke-width="0.5" stroke-dasharray=""/><text fill="#505050" stroke="none" font-family="monospace" font-size="14px" font-style="normal" font-weight="normal" text-decoration="normal" x="470.83203125" y="240.9453125" text-anchor="middle" dominant-baseline="text-after-edge">&gt;</text><path fill="none" stroke="#505050" paint-order="fill stroke markers" d=" M 454.83203125 244.9453125 L 462.83203125 244.9453125 L 462.83203125 252.9453125 L 454.83203125 252.9453125 L 454.83203125 244.9453125 Z" stroke-miterlimit="10" stroke-width="0.5" stroke-dasharray=""/><path fill="none" stroke="#505050" paint-order="fill stroke markers" d=" M 454.83203125 256.9453125 L 462.83203125 256.9453125 L 462.83203125 264.9453125 L 454.83203125 264.9453125 L 454.83203125 256.9453125 Z" stroke-miterlimit="10" stroke-width="0.5" stroke-dasharray=""/><path fill="none" stroke="#505050" paint-order="fill stroke markers" d=" M 478.83203125 244.9453125 L 486.83203125 244.9453125 L 486.83203125 252.9453125 L 478.83203125 252.9453125 L 478.83203125 244.9453125 Z" stroke-miterlimit="10" stroke-width="0.5" stroke-dasharray=""/><path fill="white" stroke="#505050" paint-order="fill stroke markers" d=" M 570.58984375 162.19921875 L 570.58984375 248.21875 Q 570.58984375 256.21875 578.58984375 256.21875 L 769.21484375 256.21875 Q 777.21484375 256.21875 777.21484375 248.21875 L 777.21484375 162.19921875 Q 777.21484375 154.19921875 769.21484375 154.19921875 L 578.58984375 154.19921875 Q 570.58984375 154.19921875 570.58984375 162.19921875" stroke-miterlimit="10" stroke-width="0.5" stroke-dasharray=""/><path fill="#F0F0F0" stroke="#505050" paint-order="fill stroke markers" d=" M 728.21484375 214.21875 L 769.21484375 214.21875 L 769.21484375 248.21875 L 728.21484375 248.21875 L 728.21484375 214.21875 Z" stroke-miterlimit="10" stroke-width="0.5" stroke-dasharray=""/><text fill="#505050" stroke="none" font-family="monospace" font-size="14px" font-style="normal" font-weight="normal" text-decoration="normal" x="748.71484375" y="232.21875" text-anchor="middle" dominant-baseline="text-after-edge">abs</text><path fill="none" stroke="#505050" paint-order="fill stroke markers" d=" M 728.21484375 236.21875 L 736.21484375 236.21875 L 736.21484375 244.21875 L 728.21484375 244.21875 L 728.21484375 236.21875 Z" stroke-miterlimit="10" stroke-width="0.5" stroke-dasharray=""/><path fill="none" stroke="#505050" paint-order="fill stroke markers" d=" M 761.21484375 236.21875 L 769.21484375 236.21875 L 769.21484375 244.21875 L 761.21484375 244.21875 L 761.21484375 236.21875 Z" stroke-miterlimit="10" stroke-width="0.5" stroke-dasharray=""/><path fill="white" stroke="#505050" paint-order="fill stroke markers" d=" M 585.29296875 190.96484375 L 609.29296875 190.96484375 L 609.29296875 210.96484375 L 585.29296875 210.96484375 L 593.29296875 200.96484375 L 585.29296875 190.96484375" stroke-miterlimit="10" stroke-width="0.5" stroke-dasharray=""/><path fill="none" stroke="#505050" paint-order="fill stroke markers" d=" M 609.29296875 202.96484375 A 4 4 0 1 0 609.2929667500001 202.96884374933333" stroke-miterlimit="10" stroke-width="0.5" stroke-dasharray=""/><path fill="white" stroke="#505050" paint-order="fill stroke markers" d=" M 688.21484375 158.4609375 L 720.21484375 158.4609375 L 720.21484375 216.4609375 L 688.21484375 216.4609375 L 688.21484375 158.4609375 Z" stroke-miterlimit="10" stroke-width="0.5" stroke-dasharray=""/><text fill="#505050" stroke="none" font-family="monospace" font-size="14px" font-style="normal" font-weight="normal" text-decoration="normal" x="704.21484375" y="176.4609375" text-anchor="middle" dominant-baseline="text-after-edge">?</text><path fill="none" stroke="#505050" paint-order="fill stroke markers" d=" M 688.21484375 180.4609375 L 696.21484375 180.4609375 L 696.21484375 188.4609375 L 688.21484375 188.4609375 L 688.21484375 180.4609375 Z" stroke-miterlimit="10" stroke-width="0.5" stroke-dasharray=""/><path fill="none" stroke="#505050" paint-order="fill stroke markers" d=" M 696.21484375 196.4609375 A 4 4 0 1 0 696.2148417500001 196.46493749933333" stroke-miterlimit="10" stroke-width="0.5" stroke-dasharray=""/><path fill="none" stroke="#505050" paint-order="fill stroke markers" d=" M 696.21484375 208.4609375 A 4 4 0 1 0 696.2148417500001 208.46493749933333" stroke-miterlimit="10" stroke-width="0.5" stroke-dasharray=""/><path fill="none" stroke="#505050" paint-order="fill stroke markers" d=" M 720.21484375 184.4609375 A 4 4 0 1 0 720.2148417500001 184.46493749933333" stroke-miterlimit="10" stroke-width="0.5" stroke-dasharray=""/><path fill="white" stroke="#505050" paint-order="fill stroke markers" d=" M 629.42578125 158.015625 L 662.42578125 158.015625 L 662.42578125 192.015625 L 629.42578125 192.015625 L 629.42578125 158.015625 Z" stroke-miterlimit="10" stroke-width="0.5" stroke-dasharray=""/><text fill="#505050" stroke="none" font-family="monospace" font-size="14px" font-style="normal" font-weight="normal" text-decoration="normal" x="645.92578125" y="176.015625" text-anchor="middle" dominant-baseline="text-after-edge">&gt;0</text><path fill="none" stroke="#505050" paint-order="fill stroke markers" d=" M 629.42578125 180.015625 L 637.42578125 180.015625 L 637.42578125 188.015625 L 629.42578125 188.015625 L 629.42578125 180.015625 Z" stroke-miterlimit="10" stroke-width="0.5" stroke-dasharray=""/><path fill="none" stroke="#505050" paint-order="fill stroke markers" d=" M 654.42578125 180.015625 L 662.42578125 180.015625 L 662.42578125 188.015625 L 654.42578125 188.015625 L 654.42578125 180.015625 Z" stroke-miterlimit="10" stroke-width="0.5" stroke-dasharray=""/><path fill="white" stroke="#505050" paint-order="fill stroke markers" d=" M 639.27734375 206.21875 L 671.27734375 206.21875 L 671.27734375 240.21875 L 639.27734375 240.21875 L 639.27734375 206.21875 Z" stroke-miterlimit="10" stroke-width="0.5" stroke-dasharray=""/><text fill="#505050" stroke="none" font-family="monospace" font-size="14px" font-style="normal" font-weight="normal" text-decoration="normal" x="655.27734375" y="224.21875" text-anchor="middle" dominant-baseline="text-after-edge">-</text><path fill="none" stroke="#505050" paint-order="fill stroke markers" d=" M 639.27734375 228.21875 L 647.27734375 228.21875 L 647.27734375 236.21875 L 639.27734375 236.21875 L 639.27734375 228.21875 Z" stroke-miterlimit="10" stroke-width="0.5" stroke-dasharray=""/><path fill="none" stroke="#505050" paint-order="fill stroke markers" d=" M 663.27734375 228.21875 L 671.27734375 228.21875 L 671.27734375 236.21875 L 663.27734375 236.21875 L 663.27734375 228.21875 Z" stroke-miterlimit="10" stroke-width="0.5" stroke-dasharray=""/><path fill="white" stroke="#505050" paint-order="fill stroke markers" d=" M 834.96484375 99.24609375 L 834.96484375 193.0625 Q 834.96484375 201.0625 842.96484375 201.0625 L 1053.57421875 201.0625 Q 1061.57421875 201.0625 1061.57421875 193.0625 L 1061.57421875 99.24609375 Q 1061.57421875 91.24609375 1053.57421875 91.24609375 L 842.96484375 91.24609375 Q 834.96484375 91.24609375 834.96484375 99.24609375" stroke-miterlimit="10" stroke-width="0.5" stroke-dasharray=""/><path fill="#F0F0F0" stroke="#505050" paint-order="fill stroke markers" d=" M 1012.57421875 147.0625 L 1053.57421875 147.0625 L 1053.57421875 193.0625 L 1012.57421875 193.0625 L 1012.57421875 147.0625 Z" stroke-miterlimit="10" stroke-width="0.5" stroke-dasharray=""/><text fill="#505050" stroke="none" font-family="monospace" font-size="14px" font-style="normal" font-weight="normal" text-decoration="normal" x="1033.07421875" y="165.0625" text-anchor="middle" dominant-baseline="text-after-edge">min</text><path fill="none" stroke="#505050" paint-order="fill stroke markers" d=" M 1012.57421875 169.0625 L 1020.57421875 169.0625 L 1020.57421875 177.0625 L 1012.57421875 177.0625 L 1012.57421875 169.0625 Z" stroke-miterlimit="10" stroke-width="0.5" stroke-dasharray=""/><path fill="none" stroke="#505050" paint-order="fill stroke markers" d=" M 1012.57421875 181.0625 L 1020.57421875 181.0625 L 1020.57421875 189.0625 L 1012.57421875 189.0625 L 1012.57421875 181.0625 Z" stroke-miterlimit="10" stroke-width="0.5" stroke-dasharray=""/><path fill="none" stroke="#505050" paint-order="fill stroke markers" d=" M 1045.57421875 169.0625 L 1053.57421875 169.0625 L 1053.57421875 177.0625 L 1045.57421875 177.0625 L 1045.57421875 169.0625 Z" stroke-miterlimit="10" stroke-width="0.5" stroke-dasharray=""/><path fill="white" stroke="#505050" paint-order="fill stroke markers" d=" M 843.125 164.38671875 L 867.125 164.38671875 L 867.125 184.38671875 L 843.125 184.38671875 L 851.125 174.38671875 L 843.125 164.38671875" stroke-miterlimit="10" stroke-width="0.5" stroke-dasharray=""/><path fill="none" stroke="#505050" paint-order="fill stroke markers" d=" M 867.125 176.38671875 A 4 4 0 1 0 867.1249980000001 176.39071874933333" stroke-miterlimit="10" stroke-width="0.5" stroke-dasharray=""/><path fill="white" stroke="#505050" paint-order="fill stroke markers" d=" M 972.57421875 127.0625 L 1004.57421875 127.0625 L 1004.57421875 185.0625 L 972.57421875 185.0625 L 972.57421875 127.0625 Z" stroke-miterlimit="10" stroke-width="0.5" stroke-dasharray=""/><text fill="#505050" stroke="none" font-family="monospace" font-size="14px" font-style="normal" font-weight="normal" text-decoration="normal" x="988.57421875" y="145.0625" text-anchor="middle" dominant-baseline="text-after-edge">?</text><path fill="none" stroke="#505050" paint-order="fill stroke markers" d=" M 972.57421875 149.0625 L 980.57421875 149.0625 L 980.57421875 157.0625 L 972.57421875 157.0625 L 972.57421875 149.0625 Z" stroke-miterlimit="10" stroke-width="0.5" stroke-dasharray=""/><path fill="none" stroke="#505050" paint-order="fill stroke markers" d=" M 980.57421875 165.0625 A 4 4 0 1 0 980.5742167500001 165.06649999933333" stroke-miterlimit="10" stroke-width="0.5" stroke-dasharray=""/><path fill="none" stroke="#505050" paint-order="fill stroke markers" d=" M 980.57421875 177.0625 A 4 4 0 1 0 980.5742167500001 177.06649999933333" stroke-miterlimit="10" stroke-width="0.5" stroke-dasharray=""/><path fill="none" stroke="#505050" paint-order="fill stroke markers" d=" M 1004.57421875 153.0625 A 4 4 0 1 0 1004.5742167500001 153.06649999933333" stroke-miterlimit="10" stroke-width="0.5" stroke-dasharray=""/><path fill="white" stroke="#505050" paint-order="fill stroke markers" d=" M 842.96484375 129.24609375 L 866.96484375 129.24609375 L 866.96484375 149.24609375 L 842.96484375 149.24609375 L 850.96484375 139.24609375 L 842.96484375 129.24609375" stroke-miterlimit="10" stroke-width="0.5" stroke-dasharray=""/><path fill="none" stroke="#505050" paint-order="fill stroke markers" d=" M 866.96484375 141.24609375 A 4 4 0 1 0 866.9648417500001 141.25009374933333" stroke-miterlimit="10" stroke-width="0.5" stroke-dasharray=""/><path fill="white" stroke="#505050" paint-order="fill stroke markers" d=" M 911.28125 99.24609375 L 943.28125 99.24609375 L 943.28125 145.24609375 L 911.28125 145.24609375 L 911.28125 99.24609375 Z" stroke-miterlimit="10" stroke-width="0.5" stroke-dasharray=""/><text fill="#505050" stroke="none" font-family="monospace" font-size="14px" font-style="normal" font-weight="normal" text-decoration="normal" x="927.28125" y="117.24609375" text-anchor="middle" dominant-baseline="text-after-edge">&lt;</text><path fill="none" stroke="#505050" paint-order="fill stroke markers" d=" M 911.28125 121.24609375 L 919.28125 121.24609375 L 919.28125 129.24609375 L 911.28125 129.24609375 L 911.28125 121.24609375 Z" stroke-miterlimit="10" stroke-width="0.5" stroke-dasharray=""/><path fill="none" stroke="#505050" paint-order="fill stroke markers" d=" M 911.28125 133.24609375 L 919.28125 133.24609375 L 919.28125 141.24609375 L 911.28125 141.24609375 L 911.28125 133.24609375 Z" stroke-miterlimit="10" stroke-width="0.5" stroke-dasharray=""/><path fill="none" stroke="#505050" paint-order="fill stroke markers" d=" M 935.28125 121.24609375 L 943.28125 121.24609375 L 943.28125 129.24609375 L 935.28125 129.24609375 L 935.28125 121.24609375 Z" stroke-miterlimit="10" stroke-width="0.5" stroke-dasharray=""/><path fill="white" stroke="#505050" paint-order="fill stroke markers" d=" M 832.5390625 241.09765625 L 832.5390625 334.9140625 Q 832.5390625 342.9140625 840.5390625 342.9140625 L 1051.1484375 342.9140625 Q 1059.1484375 342.9140625 1059.1484375 334.9140625 L 1059.1484375 241.09765625 Q 1059.1484375 233.09765625 1051.1484375 233.09765625 L 840.5390625 233.09765625 Q 832.5390625 233.09765625 832.5390625 241.09765625" stroke-miterlimit="10" stroke-width="0.5" stroke-dasharray=""/><path fill="#F0F0F0" stroke="#505050" paint-order="fill stroke markers" d=" M 1010.1484375 288.9140625 L 1051.1484375 288.9140625 L 1051.1484375 334.9140625 L 1010.1484375 334.9140625 L 1010.1484375 288.9140625 Z" stroke-miterlimit="10" stroke-width="0.5" stroke-dasharray=""/><text fill="#505050" stroke="none" font-family="monospace" font-size="14px" font-style="normal" font-weight="normal" text-decoration="normal" x="1030.6484375" y="306.9140625" text-anchor="middle" dominant-baseline="text-after-edge">max</text><path fill="none" stroke="#505050" paint-order="fill stroke markers" d=" M 1010.1484375 310.9140625 L 1018.1484375 310.9140625 L 1018.1484375 318.9140625 L 1010.1484375 318.9140625 L 1010.1484375 310.9140625 Z" stroke-miterlimit="10" stroke-width="0.5" stroke-dasharray=""/><path fill="none" stroke="#505050" paint-order="fill stroke markers" d=" M 1010.1484375 322.9140625 L 1018.1484375 322.9140625 L 1018.1484375 330.9140625 L 1010.1484375 330.9140625 L 1010.1484375 322.9140625 Z" stroke-miterlimit="10" stroke-width="0.5" stroke-dasharray=""/><path fill="none" stroke="#505050" paint-order="fill stroke markers" d=" M 1043.1484375 310.9140625 L 1051.1484375 310.9140625 L 1051.1484375 318.9140625 L 1043.1484375 318.9140625 L 1043.1484375 310.9140625 Z" stroke-miterlimit="10" stroke-width="0.5" stroke-dasharray=""/><path fill="white" stroke="#505050" paint-order="fill stroke markers" d=" M 840.69921875 306.23828125 L 864.69921875 306.23828125 L 864.69921875 326.23828125 L 840.69921875 326.23828125 L 848.69921875 316.23828125 L 840.69921875 306.23828125" stroke-miterlimit="10" stroke-width="0.5" stroke-dasharray=""/><path fill="none" stroke="#505050" paint-order="fill stroke markers" d=" M 864.69921875 318.23828125 A 4 4 0 1 0 864.6992167500001 318.24228124933336" stroke-miterlimit="10" stroke-width="0.5" stroke-dasharray=""/><path fill="white" stroke="#505050" paint-order="fill stroke markers" d=" M 970.1484375 268.9140625 L 1002.1484375 268.9140625 L 1002.1484375 326.9140625 L 970.1484375 326.9140625 L 970.1484375 268.9140625 Z" stroke-miterlimit="10" stroke-width="0.5" stroke-dasharray=""/><text fill="#505050" stroke="none" font-family="monospace" font-size="14px" font-style="normal" font-weight="normal" text-decoration="normal" x="986.1484375" y="286.9140625" text-anchor="middle" dominant-baseline="text-after-edge">?</text><path fill="none" stroke="#505050" paint-order="fill stroke markers" d=" M 970.1484375 290.9140625 L 978.1484375 290.9140625 L 978.1484375 298.9140625 L 970.1484375 298.9140625 L 970.1484375 290.9140625 Z" stroke-miterlimit="10" stroke-width="0.5" stroke-dasharray=""/><path fill="none" stroke="#505050" paint-order="fill stroke markers" d=" M 978.1484375 306.9140625 A 4 4 0 1 0 978.1484355000001 306.91806249933336" stroke-miterlimit="10" stroke-width="0.5" stroke-dasharray=""/><path fill="none" stroke="#505050" paint-order="fill stroke markers" d=" M 978.1484375 318.9140625 A 4 4 0 1 0 978.1484355000001 318.91806249933336" stroke-miterlimit="10" stroke-width="0.5" stroke-dasharray=""/><path fill="none" stroke="#505050" paint-order="fill stroke markers" d=" M 1002.1484375 294.9140625 A 4 4 0 1 0 1002.1484355000001 294.91806249933336" stroke-miterlimit="10" stroke-width="0.5" stroke-dasharray=""/><path fill="white" stroke="#505050" paint-order="fill stroke markers" d=" M 840.5390625 271.09765625 L 864.5390625 271.09765625 L 864.5390625 291.09765625 L 840.5390625 291.09765625 L 848.5390625 281.09765625 L 840.5390625 271.09765625" stroke-miterlimit="10" stroke-width="0.5" stroke-dasharray=""/><path fill="none" stroke="#505050" paint-order="fill stroke markers" d=" M 864.5390625 283.09765625 A 4 4 0 1 0 864.5390605000001 283.10165624933336" stroke-miterlimit="10" stroke-width="0.5" stroke-dasharray=""/><path fill="white" stroke="#505050" paint-order="fill stroke markers" d=" M 908.85546875 241.09765625 L 940.85546875 241.09765625 L 940.85546875 287.09765625 L 908.85546875 287.09765625 L 908.85546875 241.09765625 Z" stroke-miterlimit="10" stroke-width="0.5" stroke-dasharray=""/><text fill="#505050" stroke="none" font-family="monospace" font-size="14px" font-style="normal" font-weight="normal" text-decoration="normal" x="924.85546875" y="259.09765625" text-anchor="middle" dominant-baseline="text-after-edge">&gt;</text><path fill="none" stroke="#505050" paint-order="fill stroke markers" d=" M 908.85546875 263.09765625 L 916.85546875 263.09765625 L 916.85546875 271.09765625 L 908.85546875 271.09765625 L 908.85546875 263.09765625 Z" stroke-miterlimit="10" stroke-width="0.5" stroke-dasharray=""/><path fill="none" stroke="#505050" paint-order="fill stroke markers" d=" M 908.85546875 275.09765625 L 916.85546875 275.09765625 L 916.85546875 283.09765625 L 908.85546875 283.09765625 L 908.85546875 275.09765625 Z" stroke-miterlimit="10" stroke-width="0.5" stroke-dasharray=""/><path fill="none" stroke="#505050" paint-order="fill stroke markers" d=" M 932.85546875 263.09765625 L 940.85546875 263.09765625 L 940.85546875 271.09765625 L 932.85546875 271.09765625 L 932.85546875 263.09765625 Z" stroke-miterlimit="10" stroke-width="0.5" stroke-dasharray=""/><path fill="none" stroke="#505050" paint-order="fill stroke markers" d=" M 420.49609375 161.3046875 C 444.49609375 161.3046875 425.25 161.171875 449.25 161.171875" stroke-miterlimit="10" stroke-dasharray=""/><path fill="none" stroke="#505050" paint-order="fill stroke markers" d=" M 426.078125 261.078125 C 450.078125 261.078125 430.83203125 260.9453125 454.83203125 260.9453125" stroke-miterlimit="10" stroke-dasharray=""/><path fill="none" stroke="#505050" paint-order="fill stroke markers" d=" M 609.29296875 202.96484375 C 633.29296875 202.96484375 605.42578125 184.015625 629.42578125 184.015625" stroke-miterlimit="10" stroke-dasharray=""/><path fill="none" stroke="#505050" paint-order="fill stroke markers" d=" M 662.42578125 184.015625 C 686.42578125 184.015625 664.21484375 184.4609375 688.21484375 184.4609375" stroke-miterlimit="10" stroke-dasharray=""/><path fill="none" stroke="#505050" paint-order="fill stroke markers" d=" M 609.29296875 202.96484375 C 633.29296875 202.96484375 664.21484375 196.4609375 688.21484375 196.4609375" stroke-miterlimit="10" stroke-dasharray=""/><path fill="none" stroke="#505050" paint-order="fill stroke markers" d=" M 671.27734375 232.21875 C 695.27734375 232.21875 664.21484375 208.4609375 688.21484375 208.4609375" stroke-miterlimit="10" stroke-dasharray=""/><path fill="none" stroke="#505050" paint-order="fill stroke markers" d=" M 609.29296875 202.96484375 C 633.29296875 202.96484375 615.27734375 232.21875 639.27734375 232.21875" stroke-miterlimit="10" stroke-dasharray=""/><path fill="none" stroke="#505050" paint-order="fill stroke markers" d=" M 866.96484375 141.24609375 C 890.96484375 141.24609375 887.28125 125.24609375 911.28125 125.24609375" stroke-miterlimit="10" stroke-dasharray=""/><path fill="none" stroke="#505050" paint-order="fill stroke markers" d=" M 866.96484375 141.24609375 C 890.96484375 141.24609375 948.57421875 165.0625 972.57421875 165.0625" stroke-miterlimit="10" stroke-dasharray=""/><path fill="none" stroke="#505050" paint-order="fill stroke markers" d=" M 943.28125 125.24609375 C 967.28125 125.24609375 948.57421875 153.0625 972.57421875 153.0625" stroke-miterlimit="10" stroke-dasharray=""/><path fill="none" stroke="#505050" paint-order="fill stroke markers" d=" M 867.125 176.38671875 C 891.125 176.38671875 948.57421875 177.0625 972.57421875 177.0625" stroke-miterlimit="10" stroke-dasharray=""/><path fill="none" stroke="#505050" paint-order="fill stroke markers" d=" M 867.125 176.38671875 C 891.125 176.38671875 887.28125 137.24609375 911.28125 137.24609375" stroke-miterlimit="10" stroke-dasharray=""/><path fill="none" stroke="#505050" paint-order="fill stroke markers" d=" M 864.5390625 283.09765625 C 888.5390625 283.09765625 946.1484375 306.9140625 970.1484375 306.9140625" stroke-miterlimit="10" stroke-dasharray=""/><path fill="none" stroke="#505050" paint-order="fill stroke markers" d=" M 864.69921875 318.23828125 C 888.69921875 318.23828125 946.1484375 318.9140625 970.1484375 318.9140625" stroke-miterlimit="10" stroke-dasharray=""/><path fill="none" stroke="#505050" paint-order="fill stroke markers" d=" M 864.5390625 283.09765625 C 888.5390625 283.09765625 884.85546875 267.09765625 908.85546875 267.09765625" stroke-miterlimit="10" stroke-dasharray=""/><path fill="none" stroke="#505050" paint-order="fill stroke markers" d=" M 864.69921875 318.23828125 C 888.69921875 318.23828125 884.85546875 279.09765625 908.85546875 279.09765625" stroke-miterlimit="10" stroke-dasharray=""/><path fill="none" stroke="#505050" paint-order="fill stroke markers" d=" M 940.85546875 267.09765625 C 964.85546875 267.09765625 946.1484375 294.9140625 970.1484375 294.9140625" stroke-miterlimit="10" stroke-dasharray=""/></g></g></svg>