<svg version="1.1" xmlns="http://www.w3.org/2000/svg" xmlns:xlink="http://www.w3.org/1999/xlink" width="523.606201171875" height="291.1461486816406"><defs/><g transform="translate(-345.01291197538376,-87.66021880507469)"><g><path fill="white" stroke="#505050" paint-order="fill stroke markers" d=" M 360.647006213665 96.66021880507469 L 360.647006213665 145.42442473769188 Q 360.647006213665 153.42442473769188 368.647006213665 153.42442473769188 L 468.43341368436813 153.42442473769188 Q 476.43341368436813 153.42442473769188 476.43341368436813 145.42442473769188 L 476.43341368436813 96.66021880507469 Q 476.43341368436813 88.66021880507469 468.43341368436813 88.66021880507469 L 368.647006213665 88.66021880507469 Q 360.647006213665 88.66021880507469 360.647006213665 96.66021880507469" stroke-miterlimit="10" stroke-width="0.5" stroke-dasharray=""/><path fill="#F0F0F0" stroke="#505050" paint-order="fill stroke markers" d=" M 451.43341368436813 96.66021880507469 L 476.43341368436813 96.66021880507469 L 476.43341368436813 126.66021880507469 L 451.43341368436813 126.66021880507469 L 451.43341368436813 96.66021880507469 Z" stroke-miterlimit="10" stroke-width="0.5" stroke-dasharray=""/><path fill="none" stroke="none"/><text fill="#505050" stroke="none" font-family="monospace" font-size="14px" font-style="normal" font-weight="normal" text-decoration="normal" x="463.93341368436813" y="114.66021880507469" text-anchor="middle" dominant-baseline="text-after-edge">+1</text><path fill="none" stroke="#505050" paint-order="fill stroke markers" d=" M 451.43341368436813 114.66021880507469 L 459.43341368436813 114.66021880507469 L 459.43341368436813 122.66021880507469 L 451.43341368436813 122.66021880507469 L 451.43341368436813 114.66021880507469 Z" stroke-miterlimit="10" stroke-width="0.5" stroke-dasharray=""/><path fill="none" stroke="#505050" paint-order="fill stroke markers" d=" M 468.43341368436813 114.66021880507469 L 476.43341368436813 114.66021880507469 L 476.43341368436813 122.66021880507469 L 468.43341368436813 122.66021880507469 L 468.43341368436813 114.66021880507469 Z" stroke-miterlimit="10" stroke-width="0.5" stroke-dasharray=""/><path fill="none" stroke="#505050" paint-order="fill stroke markers" d=" M 412.15326231718063 115.43208464980125 L 404.15326231718063 115.43208464980125 M 436.15326231718063 115.43208464980125 L 444.15326231718063 115.43208464980125" stroke-miterlimit="10" stroke-dasharray=""/><path fill="white" stroke="#505050" paint-order="fill stroke markers" d=" M 412.15326231718063 93.43208464980125 L 436.15326231718063 93.43208464980125 L 436.15326231718063 135.43208464980125 L 412.15326231718063 135.43208464980125 L 412.15326231718063 93.43208464980125 Z" stroke-miterlimit="10" stroke-width="0.5" stroke-dasharray=""/><path fill="#F0F0F0" stroke="none" paint-order="stroke fill markers" d=""/><path fill="none" stroke="none"/><text fill="#505050" stroke="none" font-family="monospace" font-size="14px" font-style="normal" font-weight="normal" text-decoration="normal" x="424.15326231718063" y="111.43208464980125" text-anchor="middle" dominant-baseline="text-after-edge">+</text><path fill="none" stroke="#505050" paint-order="fill stroke markers" d=" M 412.15326231718063 111.43208464980125 L 420.15326231718063 111.43208464980125 L 420.15326231718063 119.43208464980125 L 412.15326231718063 119.43208464980125 L 412.15326231718063 111.43208464980125 Z" stroke-miterlimit="10" stroke-width="0.5" stroke-dasharray=""/><path fill="none" stroke="#505050" paint-order="fill stroke markers" d=" M 412.15326231718063 123.43208464980125 L 420.15326231718063 123.43208464980125 L 420.15326231718063 131.43208464980125 L 412.15326231718063 131.43208464980125 L 412.15326231718063 123.43208464980125 Z" stroke-miterlimit="10" stroke-width="0.5" stroke-dasharray=""/><path fill="none" stroke="#505050" paint-order="fill stroke markers" d=" M 428.15326231718063 111.43208464980125 L 436.15326231718063 111.43208464980125 L 436.15326231718063 119.43208464980125 L 428.15326231718063 119.43208464980125 L 428.15326231718063 111.43208464980125 Z" stroke-miterlimit="10" stroke-width="0.5" stroke-dasharray=""/><path fill="white" stroke="#505050" paint-order="fill stroke markers" d=" M 369.311068713665 119.42442473769188 L 401.311068713665 119.42442473769188 L 401.311068713665 137.42442473769188 L 369.311068713665 137.42442473769188 L 369.311068713665 119.42442473769188 Z" stroke-miterlimit="10" stroke-width="0.5" stroke-dasharray=""/><path fill="#F0F0F0" stroke="none" paint-order="stroke fill markers" d=""/><path fill="none" stroke="none"/><path fill="none" stroke="#505050" paint-order="fill stroke markers" d=" M 393.311068713665 123.42442473769188 L 401.311068713665 123.42442473769188 L 401.311068713665 131.42442473769188 L 393.311068713665 131.42442473769188 L 393.311068713665 123.42442473769188 Z" stroke-miterlimit="10" stroke-width="0.5" stroke-dasharray=""/><text fill="#505050" stroke="none" font-family="monospace" font-size="14px" font-style="normal" font-weight="normal" text-decoration="normal" x="385.311068713665" y="137.42442473769188" text-anchor="end" dominant-baseline="text-after-edge">1</text><path fill="white" stroke="#505050" paint-order="fill stroke markers" d=" M 494.2594329714775 97.79062041640282 L 494.2594329714775 147.2366348206997 Q 494.2594329714775 155.2366348206997 502.2594329714775 155.2366348206997 L 606.7981597781181 155.2366348206997 Q 614.7981597781181 155.2366348206997 614.7981597781181 147.2366348206997 L 614.7981597781181 97.79062041640282 Q 614.7981597781181 89.79062041640282 606.7981597781181 89.79062041640282 L 502.2594329714775 89.79062041640282 Q 494.2594329714775 89.79062041640282 494.2594329714775 97.79062041640282" stroke-miterlimit="10" stroke-width="0.5" stroke-dasharray=""/><path fill="#F0F0F0" stroke="#505050" paint-order="fill stroke markers" d=" M 589.7981597781181 97.79062041640282 L 614.7981597781181 97.79062041640282 L 614.7981597781181 127.79062041640282 L 589.7981597781181 127.79062041640282 L 589.7981597781181 97.79062041640282 Z" stroke-miterlimit="10" stroke-width="0.5" stroke-dasharray=""/><path fill="none" stroke="none"/><text fill="#505050" stroke="none" font-family="monospace" font-size="14px" font-style="normal" font-weight="normal" text-decoration="normal" x="602.2981597781181" y="115.79062041640282" text-anchor="middle" dominant-baseline="text-after-edge">-1</text><path fill="none" stroke="#505050" paint-order="fill stroke markers" d=" M 589.7981597781181 115.79062041640282 L 597.7981597781181 115.79062041640282 L 597.7981597781181 123.79062041640282 L 589.7981597781181 123.79062041640282 L 589.7981597781181 115.79062041640282 Z" stroke-miterlimit="10" stroke-width="0.5" stroke-dasharray=""/><path fill="none" stroke="#505050" paint-order="fill stroke markers" d=" M 606.7981597781181 115.79062041640282 L 614.7981597781181 115.79062041640282 L 614.7981597781181 123.79062041640282 L 606.7981597781181 123.79062041640282 L 606.7981597781181 115.79062041640282 Z" stroke-miterlimit="10" stroke-width="0.5" stroke-dasharray=""/><path fill="none" stroke="#505050" paint-order="fill stroke markers" d=" M 547.5563384890556 117.16874846816063 L 539.5563384890556 117.16874846816063 M 571.5563384890556 117.16874846816063 L 579.5563384890556 117.16874846816063" stroke-miterlimit="10" stroke-dasharray=""/><path fill="white" stroke="#505050" paint-order="fill stroke markers" d=" M 547.5563384890556 95.16874846816063 L 571.5563384890556 95.16874846816063 L 571.5563384890556 137.16874846816063 L 547.5563384890556 137.16874846816063 L 547.5563384890556 95.16874846816063 Z" stroke-miterlimit="10" stroke-width="0.5" stroke-dasharray=""/><path fill="#F0F0F0" stroke="none" paint-order="stroke fill markers" d=""/><path fill="none" stroke="none"/><text fill="#505050" stroke="none" font-family="monospace" font-size="14px" font-style="normal" font-weight="normal" text-decoration="normal" x="559.5563384890556" y="113.16874846816063" text-anchor="middle" dominant-baseline="text-after-edge">-</text><path fill="none" stroke="#505050" paint-order="fill stroke markers" d=" M 547.5563384890556 113.16874846816063 L 555.5563384890556 113.16874846816063 L 555.5563384890556 121.16874846816063 L 547.5563384890556 121.16874846816063 L 547.5563384890556 113.16874846816063 Z" stroke-miterlimit="10" stroke-width="0.5" stroke-dasharray=""/><path fill="none" stroke="#505050" paint-order="fill stroke markers" d=" M 547.5563384890556 125.16874846816063 L 555.5563384890556 125.16874846816063 L 555.5563384890556 133.16874846816063 L 547.5563384890556 133.16874846816063 L 547.5563384890556 125.16874846816063 Z" stroke-miterlimit="10" stroke-width="0.5" stroke-dasharray=""/><path fill="none" stroke="#505050" paint-order="fill stroke markers" d=" M 563.5563384890556 113.16874846816063 L 571.5563384890556 113.16874846816063 L 571.5563384890556 121.16874846816063 L 563.5563384890556 121.16874846816063 L 563.5563384890556 113.16874846816063 Z" stroke-miterlimit="10" stroke-width="0.5" stroke-dasharray=""/><path fill="white" stroke="#505050" paint-order="fill stroke markers" d=" M 503.78293150663376 121.23663482069969 L 535.7829315066338 121.23663482069969 L 535.7829315066338 139.2366348206997 L 503.78293150663376 139.2366348206997 L 503.78293150663376 121.23663482069969 Z" stroke-miterlimit="10" stroke-width="0.5" stroke-dasharray=""/><path fill="#F0F0F0" stroke="none" paint-order="stroke fill markers" d=""/><path fill="none" stroke="none"/><path fill="none" stroke="#505050" paint-order="fill stroke markers" d=" M 527.7829315066338 125.23663482069969 L 535.7829315066338 125.23663482069969 L 535.7829315066338 133.2366348206997 L 527.7829315066338 133.2366348206997 L 527.7829315066338 125.23663482069969 Z" stroke-miterlimit="10" stroke-width="0.5" stroke-dasharray=""/><text fill="#505050" stroke="none" font-family="monospace" font-size="14px" font-style="normal" font-weight="normal" text-decoration="normal" x="519.7829315066338" y="139.2366348206997" text-anchor="end" dominant-baseline="text-after-edge">1</text><path fill="white" stroke="#505050" paint-order="fill stroke markers" d=" M 347.5860931277275 192.3190322816372 L 347.5860931277275 239.76576384902 Q 347.5860931277275 247.76576384902 355.5860931277275 247.76576384902 L 457.16110533475876 247.76576384902 Q 465.16110533475876 247.76576384902 465.16110533475876 239.76576384902 L 465.16110533475876 192.3190322816372 Q 465.16110533475876 184.3190322816372 457.16110533475876 184.3190322816372 L 355.5860931277275 184.3190322816372 Q 347.5860931277275 184.3190322816372 347.5860931277275 192.3190322816372" stroke-miterlimit="10" stroke-width="0.5" stroke-dasharray=""/><path fill="#F0F0F0" stroke="#505050" paint-order="fill stroke markers" d=" M 440.16110533475876 192.3190322816372 L 465.16110533475876 192.3190322816372 L 465.16110533475876 222.3190322816372 L 440.16110533475876 222.3190322816372 L 440.16110533475876 192.3190322816372 Z" stroke-miterlimit="10" stroke-width="0.5" stroke-dasharray=""/><path fill="none" stroke="none"/><text fill="#505050" stroke="none" font-family="monospace" font-size="14px" font-style="normal" font-weight="normal" text-decoration="normal" x="452.66110533475876" y="210.3190322816372" text-anchor="middle" dominant-baseline="text-after-edge">&lt;0</text><path fill="none" stroke="#505050" paint-order="fill stroke markers" d=" M 440.16110533475876 210.3190322816372 L 448.16110533475876 210.3190322816372 L 448.16110533475876 218.3190322816372 L 440.16110533475876 218.3190322816372 L 440.16110533475876 210.3190322816372 Z" stroke-miterlimit="10" stroke-width="0.5" stroke-dasharray=""/><path fill="none" stroke="#505050" paint-order="fill stroke markers" d=" M 457.16110533475876 210.3190322816372 L 465.16110533475876 210.3190322816372 L 465.16110533475876 218.3190322816372 L 457.16110533475876 218.3190322816372 L 457.16110533475876 210.3190322816372 Z" stroke-miterlimit="10" stroke-width="0.5" stroke-dasharray=""/><path fill="none" stroke="#505050" paint-order="fill stroke markers" d=" M 398.1954681277275 210.5221572816372 L 390.1954681277275 210.5221572816372 M 422.1954681277275 210.5221572816372 L 430.1954681277275 210.5221572816372" stroke-miterlimit="10" stroke-dasharray=""/><path fill="white" stroke="#505050" paint-order="fill stroke markers" d=" M 398.1954681277275 188.5221572816372 L 422.1954681277275 188.5221572816372 L 422.1954681277275 230.5221572816372 L 398.1954681277275 230.5221572816372 L 398.1954681277275 188.5221572816372 Z" stroke-miterlimit="10" stroke-width="0.5" stroke-dasharray=""/><path fill="#F0F0F0" stroke="none" paint-order="stroke fill markers" d=""/><path fill="none" stroke="none"/><text fill="#505050" stroke="none" font-family="monospace" font-size="14px" font-style="normal" font-weight="normal" text-decoration="normal" x="410.1954681277275" y="206.5221572816372" text-anchor="middle" dominant-baseline="text-after-edge">&lt;</text><path fill="none" stroke="#505050" paint-order="fill stroke markers" d=" M 398.1954681277275 206.5221572816372 L 406.1954681277275 206.5221572816372 L 406.1954681277275 214.5221572816372 L 398.1954681277275 214.5221572816372 L 398.1954681277275 206.5221572816372 Z" stroke-miterlimit="10" stroke-width="0.5" stroke-dasharray=""/><path fill="none" stroke="#505050" paint-order="fill stroke markers" d=" M 398.1954681277275 218.5221572816372 L 406.1954681277275 218.5221572816372 L 406.1954681277275 226.5221572816372 L 398.1954681277275 226.5221572816372 L 398.1954681277275 218.5221572816372 Z" stroke-miterlimit="10" stroke-width="0.5" stroke-dasharray=""/><path fill="none" stroke="#505050" paint-order="fill stroke markers" d=" M 414.1954681277275 206.5221572816372 L 422.1954681277275 206.5221572816372 L 422.1954681277275 214.5221572816372 L 414.1954681277275 214.5221572816372 L 414.1954681277275 206.5221572816372 Z" stroke-miterlimit="10" stroke-width="0.5" stroke-dasharray=""/><path fill="white" stroke="#505050" paint-order="fill stroke markers" d=" M 355.816928088665 213.76576384902 L 387.816928088665 213.76576384902 L 387.816928088665 231.76576384902 L 355.816928088665 231.76576384902 L 355.816928088665 213.76576384902 Z" stroke-miterlimit="10" stroke-width="0.5" stroke-dasharray=""/><path fill="#F0F0F0" stroke="none" paint-order="stroke fill markers" d=""/><path fill="none" stroke="none"/><path fill="none" stroke="#505050" paint-order="fill stroke markers" d=" M 379.816928088665 217.76576384902 L 387.816928088665 217.76576384902 L 387.816928088665 225.76576384902 L 379.816928088665 225.76576384902 L 379.816928088665 217.76576384902 Z" stroke-miterlimit="10" stroke-width="0.5" stroke-dasharray=""/><text fill="#505050" stroke="none" font-family="monospace" font-size="14px" font-style="normal" font-weight="normal" text-decoration="normal" x="371.816928088665" y="231.76576384902" text-anchor="end" dominant-baseline="text-after-edge">0</text><path fill="white" stroke="#505050" paint-order="fill stroke markers" d=" M 509.97272032499313 191.02682647109032 L 509.97272032499313 241.33223113417625 Q 509.97272032499313 249.33223113417625 517.9727203249931 249.33223113417625 L 619.2008392214775 249.33223113417625 Q 627.2008392214775 249.33223113417625 627.2008392214775 241.33223113417625 L 627.2008392214775 191.02682647109032 Q 627.2008392214775 183.02682647109032 619.2008392214775 183.02682647109032 L 517.9727203249931 183.02682647109032 Q 509.97272032499313 183.02682647109032 509.97272032499313 191.02682647109032" stroke-miterlimit="10" stroke-width="0.5" stroke-dasharray=""/><path fill="#F0F0F0" stroke="#505050" paint-order="fill stroke markers" d=" M 602.2008392214775 191.02682647109032 L 627.2008392214775 191.02682647109032 L 627.2008392214775 221.02682647109032 L 602.2008392214775 221.02682647109032 L 602.2008392214775 191.02682647109032 Z" stroke-miterlimit="10" stroke-width="0.5" stroke-dasharray=""/><path fill="none" stroke="none"/><text fill="#505050" stroke="none" font-family="monospace" font-size="14px" font-style="normal" font-weight="normal" text-decoration="normal" x="614.7008392214775" y="209.02682647109032" text-anchor="middle" dominant-baseline="text-after-edge">&gt;0</text><path fill="none" stroke="#505050" paint-order="fill stroke markers" d=" M 602.2008392214775 209.02682647109032 L 610.2008392214775 209.02682647109032 L 610.2008392214775 217.02682647109032 L 602.2008392214775 217.02682647109032 L 602.2008392214775 209.02682647109032 Z" stroke-miterlimit="10" stroke-width="0.5" stroke-dasharray=""/><path fill="none" stroke="#505050" paint-order="fill stroke markers" d=" M 619.2008392214775 209.02682647109032 L 627.2008392214775 209.02682647109032 L 627.2008392214775 217.02682647109032 L 619.2008392214775 217.02682647109032 L 619.2008392214775 209.02682647109032 Z" stroke-miterlimit="10" stroke-width="0.5" stroke-dasharray=""/><path fill="none" stroke="#505050" paint-order="fill stroke markers" d=" M 560.3696014285088 211.1174484193325 L 552.3696014285088 211.1174484193325 M 584.3696014285088 211.1174484193325 L 592.3696014285088 211.1174484193325" stroke-miterlimit="10" stroke-dasharray=""/><path fill="white" stroke="#505050" paint-order="fill stroke markers" d=" M 560.3696014285088 189.1174484193325 L 584.3696014285088 189.1174484193325 L 584.3696014285088 231.1174484193325 L 560.3696014285088 231.1174484193325 L 560.3696014285088 189.1174484193325 Z" stroke-miterlimit="10" stroke-width="0.5" stroke-dasharray=""/><path fill="#F0F0F0" stroke="none" paint-order="stroke fill markers" d=""/><path fill="none" stroke="none"/><text fill="#505050" stroke="none" font-family="monospace" font-size="14px" font-style="normal" font-weight="normal" text-decoration="normal" x="572.3696014285088" y="207.1174484193325" text-anchor="middle" dominant-baseline="text-after-edge">&gt;</text><path fill="none" stroke="#505050" paint-order="fill stroke markers" d=" M 560.3696014285088 207.1174484193325 L 568.3696014285088 207.1174484193325 L 568.3696014285088 215.1174484193325 L 560.3696014285088 215.1174484193325 L 560.3696014285088 207.1174484193325 Z" stroke-miterlimit="10" stroke-width="0.5" stroke-dasharray=""/><path fill="none" stroke="#505050" paint-order="fill stroke markers" d=" M 560.3696014285088 219.1174484193325 L 568.3696014285088 219.1174484193325 L 568.3696014285088 227.1174484193325 L 560.3696014285088 227.1174484193325 L 560.3696014285088 219.1174484193325 Z" stroke-miterlimit="10" stroke-width="0.5" stroke-dasharray=""/><path fill="none" stroke="#505050" paint-order="fill stroke markers" d=" M 576.3696014285088 207.1174484193325 L 584.3696014285088 207.1174484193325 L 584.3696014285088 215.1174484193325 L 576.3696014285088 215.1174484193325 L 576.3696014285088 207.1174484193325 Z" stroke-miterlimit="10" stroke-width="0.5" stroke-dasharray=""/><path fill="white" stroke="#505050" paint-order="fill stroke markers" d=" M 518.0685455203056 215.33223113417625 L 550.0685455203056 215.33223113417625 L 550.0685455203056 233.33223113417625 L 518.0685455203056 233.33223113417625 L 518.0685455203056 215.33223113417625 Z" stroke-miterlimit="10" stroke-width="0.5" stroke-dasharray=""/><path fill="#F0F0F0" stroke="none" paint-order="stroke fill markers" d=""/><path fill="none" stroke="none"/><path fill="none" stroke="#505050" paint-order="fill stroke markers" d=" M 542.0685455203056 219.33223113417625 L 550.0685455203056 219.33223113417625 L 550.0685455203056 227.33223113417625 L 542.0685455203056 227.33223113417625 L 542.0685455203056 219.33223113417625 Z" stroke-miterlimit="10" stroke-width="0.5" stroke-dasharray=""/><text fill="#505050" stroke="none" font-family="monospace" font-size="14px" font-style="normal" font-weight="normal" text-decoration="normal" x="534.0685455203056" y="233.33223113417625" text-anchor="end" dominant-baseline="text-after-edge">0</text><path fill="white" stroke="#505050" paint-order="fill stroke markers" d=" M 346.01291197538376 285.37683257460594 L 346.01291197538376 369.8063674867153 Q 346.01291197538376 377.8063674867153 354.01291197538376 377.8063674867153 L 487.43341368436813 377.8063674867153 Q 495.43341368436813 377.8063674867153 495.43341368436813 369.8063674867153 L 495.43341368436813 285.37683257460594 Q 495.43341368436813 277.37683257460594 487.43341368436813 277.37683257460594 L 354.01291197538376 277.37683257460594 Q 346.01291197538376 277.37683257460594 346.01291197538376 285.37683257460594" stroke-miterlimit="10" stroke-width="0.5" stroke-dasharray=""/><path fill="#F0F0F0" stroke="#505050" paint-order="fill stroke markers" d=" M 462.43341368436813 285.37683257460594 L 495.43341368436813 285.37683257460594 L 495.43341368436813 327.37683257460594 L 462.43341368436813 327.37683257460594 L 462.43341368436813 285.37683257460594 Z" stroke-miterlimit="10" stroke-width="0.5" stroke-dasharray=""/><path fill="none" stroke="none"/><text fill="#505050" stroke="none" font-family="monospace" font-size="14px" font-style="normal" font-weight="normal" text-decoration="normal" x="478.93341368436813" y="303.37683257460594" text-anchor="middle" dominant-baseline="text-after-edge">min</text><path fill="none" stroke="#505050" paint-order="fill stroke markers" d=" M 462.43341368436813 303.37683257460594 L 470.43341368436813 303.37683257460594 L 470.43341368436813 311.37683257460594 L 462.43341368436813 311.37683257460594 L 462.43341368436813 303.37683257460594 Z" stroke-miterlimit="10" stroke-width="0.5" stroke-dasharray=""/><path fill="none" stroke="#505050" paint-order="fill stroke markers" d=" M 462.43341368436813 315.37683257460594 L 470.43341368436813 315.37683257460594 L 470.43341368436813 323.37683257460594 L 462.43341368436813 323.37683257460594 L 462.43341368436813 315.37683257460594 Z" stroke-miterlimit="10" stroke-width="0.5" stroke-dasharray=""/><path fill="none" stroke="#505050" paint-order="fill stroke markers" d=" M 487.43341368436813 303.37683257460594 L 495.43341368436813 303.37683257460594 L 495.43341368436813 311.37683257460594 L 487.43341368436813 311.37683257460594 L 487.43341368436813 303.37683257460594 Z" stroke-miterlimit="10" stroke-width="0.5" stroke-dasharray=""/><path fill="none" stroke="#505050" paint-order="fill stroke markers" d=" M 448.80839842557907 318.75856932997704 L 456.80839842557907 318.75856932997704" stroke-miterlimit="10" stroke-dasharray=""/><path fill="white" stroke="#505050" paint-order="fill stroke markers" d=" M 385.63650816679 280.7929092347622 L 409.63650816679 280.7929092347622 L 409.63650816679 322.7929092347622 L 385.63650816679 322.7929092347622 L 385.63650816679 280.7929092347622 Z" stroke-miterlimit="10" stroke-width="0.5" stroke-dasharray=""/><path fill="#F0F0F0" stroke="none" paint-order="stroke fill markers" d=""/><path fill="none" stroke="none"/><text fill="#505050" stroke="none" font-family="monospace" font-size="14px" font-style="normal" font-weight="normal" text-decoration="normal" x="397.63650816679" y="298.7929092347622" text-anchor="middle" dominant-baseline="text-after-edge">&lt;</text><path fill="none" stroke="#505050" paint-order="fill stroke markers" d=" M 385.63650816679 298.7929092347622 L 393.63650816679 298.7929092347622 L 393.63650816679 306.7929092347622 L 385.63650816679 306.7929092347622 L 385.63650816679 298.7929092347622 Z" stroke-miterlimit="10" stroke-width="0.5" stroke-dasharray=""/><path fill="none" stroke="#505050" paint-order="fill stroke markers" d=" M 385.63650816679 310.7929092347622 L 393.63650816679 310.7929092347622 L 393.63650816679 318.7929092347622 L 385.63650816679 318.7929092347622 L 385.63650816679 310.7929092347622 Z" stroke-miterlimit="10" stroke-width="0.5" stroke-dasharray=""/><path fill="none" stroke="#505050" paint-order="fill stroke markers" d=" M 401.63650816679 298.7929092347622 L 409.63650816679 298.7929092347622 L 409.63650816679 306.7929092347622 L 401.63650816679 306.7929092347622 L 401.63650816679 298.7929092347622 Z" stroke-miterlimit="10" stroke-width="0.5" stroke-dasharray=""/><path fill="white" stroke="#505050" paint-order="fill stroke markers" d=" M 350.39902037382126 315.89914855360985 L 366.39902037382126 315.89914855360985 L 366.39902037382126 331.89914855360985 L 350.39902037382126 331.89914855360985 L 358.39902037382126 323.89914855360985 L 350.39902037382126 315.89914855360985" stroke-miterlimit="10" stroke-width="0.5" stroke-dasharray=""/><path fill="none" stroke="none"/><path fill="none" stroke="#505050" paint-order="fill stroke markers" d=" M 358.39902037382126 319.89914855360985 L 366.39902037382126 319.89914855360985 L 366.39902037382126 327.89914855360985 L 358.39902037382126 327.89914855360985 L 358.39902037382126 319.89914855360985 Z" stroke-miterlimit="10" stroke-width="0.5" stroke-dasharray=""/><path fill="white" stroke="#505050" paint-order="fill stroke markers" d=" M 350.8646575808525 338.63662871718407 L 366.8646575808525 338.63662871718407 L 366.8646575808525 354.63662871718407 L 350.8646575808525 354.63662871718407 L 358.8646575808525 346.63662871718407 L 350.8646575808525 338.63662871718407" stroke-miterlimit="10" stroke-width="0.5" stroke-dasharray=""/><path fill="none" stroke="none"/><path fill="none" stroke="#505050" paint-order="fill stroke markers" d=" M 358.8646575808525 342.63662871718407 L 366.8646575808525 342.63662871718407 L 366.8646575808525 350.63662871718407 L 358.8646575808525 350.63662871718407 L 358.8646575808525 342.63662871718407 Z" stroke-miterlimit="10" stroke-width="0.5" stroke-dasharray=""/><path fill="white" stroke="#505050" paint-order="fill stroke markers" d=" M 424.80839842557907 296.75856932997704 L 448.80839842557907 296.75856932997704 L 448.80839842557907 350.75856932997704 L 424.80839842557907 350.75856932997704 L 424.80839842557907 296.75856932997704 Z" stroke-miterlimit="10" stroke-width="0.5" stroke-dasharray=""/><path fill="#F0F0F0" stroke="none" paint-order="stroke fill markers" d=""/><path fill="none" stroke="none"/><text fill="#505050" stroke="none" font-family="monospace" font-size="14px" font-style="normal" font-weight="normal" text-decoration="normal" x="436.80839842557907" y="314.75856932997704" text-anchor="middle" dominant-baseline="text-after-edge">?</text><path fill="none" stroke="#505050" paint-order="fill stroke markers" d=" M 424.80839842557907 314.75856932997704 L 432.80839842557907 314.75856932997704 L 432.80839842557907 322.75856932997704 L 424.80839842557907 322.75856932997704 L 424.80839842557907 314.75856932997704 Z" stroke-miterlimit="10" stroke-width="0.5" stroke-dasharray=""/><path fill="none" stroke="#505050" paint-order="fill stroke markers" d=" M 424.80839842557907 326.75856932997704 L 432.80839842557907 326.75856932997704 L 432.80839842557907 334.75856932997704 L 424.80839842557907 334.75856932997704 L 424.80839842557907 326.75856932997704 Z" stroke-miterlimit="10" stroke-width="0.5" stroke-dasharray=""/><path fill="none" stroke="#505050" paint-order="fill stroke markers" d=" M 424.80839842557907 338.75856932997704 L 432.80839842557907 338.75856932997704 L 432.80839842557907 346.75856932997704 L 424.80839842557907 346.75856932997704 L 424.80839842557907 338.75856932997704 Z" stroke-miterlimit="10" stroke-width="0.5" stroke-dasharray=""/><path fill="none" stroke="#505050" paint-order="fill stroke markers" d=" M 440.80839842557907 314.75856932997704 L 448.80839842557907 314.75856932997704 L 448.80839842557907 322.75856932997704 L 440.80839842557907 322.75856932997704 L 440.80839842557907 314.75856932997704 Z" stroke-miterlimit="10" stroke-width="0.5" stroke-dasharray=""/><path fill="white" stroke="#505050" paint-order="fill stroke markers" d=" M 506.2430450320244 283.42028960585594 L 506.2430450320244 366.72058257460594 Q 506.2430450320244 374.72058257460594 514.2430450320244 374.72058257460594 L 650.7144195437431 374.72058257460594 Q 658.7144195437431 374.72058257460594 658.7144195437431 366.72058257460594 L 658.7144195437431 283.42028960585594 Q 658.7144195437431 275.42028960585594 650.7144195437431 275.42028960585594 L 514.2430450320244 275.42028960585594 Q 506.2430450320244 275.42028960585594 506.2430450320244 283.42028960585594" stroke-miterlimit="10" stroke-width="0.5" stroke-dasharray=""/><path fill="#F0F0F0" stroke="#505050" paint-order="fill stroke markers" d=" M 625.7144195437431 283.42028960585594 L 658.7144195437431 283.42028960585594 L 658.7144195437431 325.42028960585594 L 625.7144195437431 325.42028960585594 L 625.7144195437431 283.42028960585594 Z" stroke-miterlimit="10" stroke-width="0.5" stroke-dasharray=""/><path fill="none" stroke="none"/><text fill="#505050" stroke="none" font-family="monospace" font-size="14px" font-style="normal" font-weight="normal" text-decoration="normal" x="642.2144195437431" y="301.42028960585594" text-anchor="middle" dominant-baseline="text-after-edge">max</text><path fill="none" stroke="#505050" paint-order="fill stroke markers" d=" M 625.7144195437431 301.42028960585594 L 633.7144195437431 301.42028960585594 L 633.7144195437431 309.42028960585594 L 625.7144195437431 309.42028960585594 L 625.7144195437431 301.42028960585594 Z" stroke-miterlimit="10" stroke-width="0.5" stroke-dasharray=""/><path fill="none" stroke="#505050" paint-order="fill stroke markers" d=" M 625.7144195437431 313.42028960585594 L 633.7144195437431 313.42028960585594 L 633.7144195437431 321.42028960585594 L 625.7144195437431 321.42028960585594 L 625.7144195437431 313.42028960585594 Z" stroke-miterlimit="10" stroke-width="0.5" stroke-dasharray=""/><path fill="none" stroke="#505050" paint-order="fill stroke markers" d=" M 650.7144195437431 301.42028960585594 L 658.7144195437431 301.42028960585594 L 658.7144195437431 309.42028960585594 L 650.7144195437431 309.42028960585594 L 650.7144195437431 301.42028960585594 Z" stroke-miterlimit="10" stroke-width="0.5" stroke-dasharray=""/><path fill="none" stroke="#505050" paint-order="fill stroke markers" d=" M 611.1852599978447 321.1413513123989 L 619.1852599978447 321.1413513123989" stroke-miterlimit="10" stroke-dasharray=""/><path fill="white" stroke="#505050" paint-order="fill stroke markers" d=" M 546.4352752566338 280.51321563124657 L 570.4352752566338 280.51321563124657 L 570.4352752566338 322.51321563124657 L 546.4352752566338 322.51321563124657 L 546.4352752566338 280.51321563124657 Z" stroke-miterlimit="10" stroke-width="0.5" stroke-dasharray=""/><path fill="#F0F0F0" stroke="none" paint-order="stroke fill markers" d=""/><path fill="none" stroke="none"/><text fill="#505050" stroke="none" font-family="monospace" font-size="14px" font-style="normal" font-weight="normal" text-decoration="normal" x="558.4352752566338" y="298.51321563124657" text-anchor="middle" dominant-baseline="text-after-edge">&lt;</text><path fill="none" stroke="#505050" paint-order="fill stroke markers" d=" M 546.4352752566338 298.51321563124657 L 554.4352752566338 298.51321563124657 L 554.4352752566338 306.51321563124657 L 546.4352752566338 306.51321563124657 L 546.4352752566338 298.51321563124657 Z" stroke-miterlimit="10" stroke-width="0.5" stroke-dasharray=""/><path fill="none" stroke="#505050" paint-order="fill stroke markers" d=" M 546.4352752566338 310.51321563124657 L 554.4352752566338 310.51321563124657 L 554.4352752566338 318.51321563124657 L 546.4352752566338 318.51321563124657 L 546.4352752566338 310.51321563124657 Z" stroke-miterlimit="10" stroke-width="0.5" stroke-dasharray=""/><path fill="none" stroke="#505050" paint-order="fill stroke markers" d=" M 562.4352752566338 298.51321563124657 L 570.4352752566338 298.51321563124657 L 570.4352752566338 306.51321563124657 L 562.4352752566338 306.51321563124657 L 562.4352752566338 298.51321563124657 Z" stroke-miterlimit="10" stroke-width="0.5" stroke-dasharray=""/><path fill="white" stroke="#505050" paint-order="fill stroke markers" d=" M 511.43524473905563 316.3538299500942 L 527.4352447390556 316.3538299500942 L 527.4352447390556 332.3538299500942 L 511.43524473905563 332.3538299500942 L 519.4352447390556 324.3538299500942 L 511.43524473905563 316.3538299500942" stroke-miterlimit="10" stroke-width="0.5" stroke-dasharray=""/><path fill="none" stroke="none"/><path fill="none" stroke="#505050" paint-order="fill stroke markers" d=" M 519.4352447390556 320.3538299500942 L 527.4352447390556 320.3538299500942 L 527.4352447390556 328.3538299500942 L 519.4352447390556 328.3538299500942 L 519.4352447390556 320.3538299500942 Z" stroke-miterlimit="10" stroke-width="0.5" stroke-dasharray=""/><path fill="white" stroke="#505050" paint-order="fill stroke markers" d=" M 511.9008819460869 339.09131011366844 L 527.9008819460869 339.09131011366844 L 527.9008819460869 355.09131011366844 L 511.9008819460869 355.09131011366844 L 519.9008819460869 347.09131011366844 L 511.9008819460869 339.09131011366844" stroke-miterlimit="10" stroke-width="0.5" stroke-dasharray=""/><path fill="none" stroke="none"/><path fill="none" stroke="#505050" paint-order="fill stroke markers" d=" M 519.9008819460869 343.09131011366844 L 527.9008819460869 343.09131011366844 L 527.9008819460869 351.09131011366844 L 519.9008819460869 351.09131011366844 L 519.9008819460869 343.09131011366844 Z" stroke-miterlimit="10" stroke-width="0.5" stroke-dasharray=""/><path fill="white" stroke="#505050" paint-order="fill stroke markers" d=" M 587.1852599978447 299.1413513123989 L 611.1852599978447 299.1413513123989 L 611.1852599978447 353.1413513123989 L 587.1852599978447 353.1413513123989 L 587.1852599978447 299.1413513123989 Z" stroke-miterlimit="10" stroke-width="0.5" stroke-dasharray=""/><path fill="#F0F0F0" stroke="none" paint-order="stroke fill markers" d=""/><path fill="none" stroke="none"/><text fill="#505050" stroke="none" font-family="monospace" font-size="14px" font-style="normal" font-weight="normal" text-decoration="normal" x="599.1852599978447" y="317.1413513123989" text-anchor="middle" dominant-baseline="text-after-edge">?</text><path fill="none" stroke="#505050" paint-order="fill stroke markers" d=" M 587.1852599978447 317.1413513123989 L 595.1852599978447 317.1413513123989 L 595.1852599978447 325.1413513123989 L 587.1852599978447 325.1413513123989 L 587.1852599978447 317.1413513123989 Z" stroke-miterlimit="10" stroke-width="0.5" stroke-dasharray=""/><path fill="none" stroke="#505050" paint-order="fill stroke markers" d=" M 587.1852599978447 329.1413513123989 L 595.1852599978447 329.1413513123989 L 595.1852599978447 337.1413513123989 L 587.1852599978447 337.1413513123989 L 587.1852599978447 329.1413513123989 Z" stroke-miterlimit="10" stroke-width="0.5" stroke-dasharray=""/><path fill="none" stroke="#505050" paint-order="fill stroke markers" d=" M 587.1852599978447 341.1413513123989 L 595.1852599978447 341.1413513123989 L 595.1852599978447 349.1413513123989 L 587.1852599978447 349.1413513123989 L 587.1852599978447 341.1413513123989 Z" stroke-miterlimit="10" stroke-width="0.5" stroke-dasharray=""/><path fill="none" stroke="#505050" paint-order="fill stroke markers" d=" M 603.1852599978447 317.1413513123989 L 611.1852599978447 317.1413513123989 L 611.1852599978447 325.1413513123989 L 603.1852599978447 325.1413513123989 L 603.1852599978447 317.1413513123989 Z" stroke-miterlimit="10" stroke-width="0.5" stroke-dasharray=""/><path fill="white" stroke="#505050" paint-order="fill stroke markers" d=" M 704.2628204226494 165.14102324843407 L 704.2628204226494 263.2003960609436 Q 704.2628204226494 271.2003960609436 712.2628204226494 271.2003960609436 L 859.6191131472588 271.2003960609436 Q 867.6191131472588 271.2003960609436 867.6191131472588 263.2003960609436 L 867.6191131472588 165.14102324843407 Q 867.6191131472588 157.14102324843407 859.6191131472588 157.14102324843407 L 712.2628204226494 157.14102324843407 Q 704.2628204226494 157.14102324843407 704.2628204226494 165.14102324843407" stroke-miterlimit="10" stroke-width="0.5" stroke-dasharray=""/><path fill="#F0F0F0" stroke="#505050" paint-order="fill stroke markers" d=" M 834.6191131472588 165.14102324843407 L 867.6191131472588 165.14102324843407 L 867.6191131472588 195.14102324843407 L 834.6191131472588 195.14102324843407 L 834.6191131472588 165.14102324843407 Z" stroke-miterlimit="10" stroke-width="0.5" stroke-dasharray=""/><path fill="none" stroke="none"/><text fill="#505050" stroke="none" font-family="monospace" font-size="14px" font-style="normal" font-weight="normal" text-decoration="normal" x="851.1191131472588" y="183.14102324843407" text-anchor="middle" dominant-baseline="text-after-edge">abs</text><path fill="none" stroke="#505050" paint-order="fill stroke markers" d=" M 834.6191131472588 183.14102324843407 L 842.6191131472588 183.14102324843407 L 842.6191131472588 191.14102324843407 L 834.6191131472588 191.14102324843407 L 834.6191131472588 183.14102324843407 Z" stroke-miterlimit="10" stroke-width="0.5" stroke-dasharray=""/><path fill="none" stroke="#505050" paint-order="fill stroke markers" d=" M 859.6191131472588 183.14102324843407 L 867.6191131472588 183.14102324843407 L 867.6191131472588 191.14102324843407 L 859.6191131472588 191.14102324843407 L 859.6191131472588 183.14102324843407 Z" stroke-miterlimit="10" stroke-width="0.5" stroke-dasharray=""/><path fill="none" stroke="#505050" paint-order="fill stroke markers" d=" M 821.3033782839775 207.0910096168518 L 829.3033782839775 207.0910096168518" stroke-miterlimit="10" stroke-dasharray=""/><path fill="white" stroke="#505050" paint-order="fill stroke markers" d=" M 710.6971771121025 199.6035095155239 L 726.6971771121025 199.6035095155239 L 726.6971771121025 215.6035095155239 L 710.6971771121025 215.6035095155239 L 718.6971771121025 207.6035095155239 L 710.6971771121025 199.6035095155239" stroke-miterlimit="10" stroke-width="0.5" stroke-dasharray=""/><path fill="none" stroke="none"/><path fill="none" stroke="#505050" paint-order="fill stroke markers" d=" M 718.6971771121025 203.6035095155239 L 726.6971771121025 203.6035095155239 L 726.6971771121025 211.6035095155239 L 718.6971771121025 211.6035095155239 L 718.6971771121025 203.6035095155239 Z" stroke-miterlimit="10" stroke-width="0.5" stroke-dasharray=""/><path fill="white" stroke="#505050" paint-order="fill stroke markers" d=" M 797.3033782839775 185.0910096168518 L 821.3033782839775 185.0910096168518 L 821.3033782839775 239.0910096168518 L 797.3033782839775 239.0910096168518 L 797.3033782839775 185.0910096168518 Z" stroke-miterlimit="10" stroke-width="0.5" stroke-dasharray=""/><path fill="#F0F0F0" stroke="none" paint-order="stroke fill markers" d=""/><path fill="none" stroke="none"/><text fill="#505050" stroke="none" font-family="monospace" font-size="14px" font-style="normal" font-weight="normal" text-decoration="normal" x="809.3033782839775" y="203.0910096168518" text-anchor="middle" dominant-baseline="text-after-edge">?</text><path fill="none" stroke="#505050" paint-order="fill stroke markers" d=" M 797.3033782839775 203.0910096168518 L 805.3033782839775 203.0910096168518 L 805.3033782839775 211.0910096168518 L 797.3033782839775 211.0910096168518 L 797.3033782839775 203.0910096168518 Z" stroke-miterlimit="10" stroke-width="0.5" stroke-dasharray=""/><path fill="none" stroke="#505050" paint-order="fill stroke markers" d=" M 797.3033782839775 215.0910096168518 L 805.3033782839775 215.0910096168518 L 805.3033782839775 223.0910096168518 L 797.3033782839775 223.0910096168518 L 797.3033782839775 215.0910096168518 Z" stroke-miterlimit="10" stroke-width="0.5" stroke-dasharray=""/><path fill="none" stroke="#505050" paint-order="fill stroke markers" d=" M 797.3033782839775 227.0910096168518 L 805.3033782839775 227.0910096168518 L 805.3033782839775 235.0910096168518 L 797.3033782839775 235.0910096168518 L 797.3033782839775 227.0910096168518 Z" stroke-miterlimit="10" stroke-width="0.5" stroke-dasharray=""/><path fill="none" stroke="#505050" paint-order="fill stroke markers" d=" M 813.3033782839775 203.0910096168518 L 821.3033782839775 203.0910096168518 L 821.3033782839775 211.0910096168518 L 813.3033782839775 211.0910096168518 L 813.3033782839775 203.0910096168518 Z" stroke-miterlimit="10" stroke-width="0.5" stroke-dasharray=""/><path fill="white" stroke="#505050" paint-order="fill stroke markers" d=" M 749.3565780520439 225.2003960609436 L 773.3565780520439 225.2003960609436 L 773.3565780520439 255.2003960609436 L 749.3565780520439 255.2003960609436 L 749.3565780520439 225.2003960609436 Z" stroke-miterlimit="10" stroke-width="0.5" stroke-dasharray=""/><path fill="#F0F0F0" stroke="none" paint-order="stroke fill markers" d=""/><path fill="none" stroke="none"/><text fill="#505050" stroke="none" font-family="monospace" font-size="14px" font-style="normal" font-weight="normal" text-decoration="normal" x="761.3565780520439" y="243.2003960609436" text-anchor="middle" dominant-baseline="text-after-edge">-</text><path fill="none" stroke="#505050" paint-order="fill stroke markers" d=" M 749.3565780520439 243.2003960609436 L 757.3565780520439 243.2003960609436 L 757.3565780520439 251.2003960609436 L 749.3565780520439 251.2003960609436 L 749.3565780520439 243.2003960609436 Z" stroke-miterlimit="10" stroke-width="0.5" stroke-dasharray=""/><path fill="none" stroke="#505050" paint-order="fill stroke markers" d=" M 765.3565780520439 243.2003960609436 L 773.3565780520439 243.2003960609436 L 773.3565780520439 251.2003960609436 L 765.3565780520439 251.2003960609436 L 765.3565780520439 243.2003960609436 Z" stroke-miterlimit="10" stroke-width="0.5" stroke-dasharray=""/><path fill="white" stroke="#505050" paint-order="fill stroke markers" d=" M 747.8941375613213 163.96914824843407 L 772.8941375613213 163.96914824843407 L 772.8941375613213 193.96914824843407 L 747.8941375613213 193.96914824843407 L 747.8941375613213 163.96914824843407 Z" stroke-miterlimit="10" stroke-width="0.5" stroke-dasharray=""/><path fill="#F0F0F0" stroke="none" paint-order="stroke fill markers" d=""/><path fill="none" stroke="none"/><text fill="#505050" stroke="none" font-family="monospace" font-size="14px" font-style="normal" font-weight="normal" text-decoration="normal" x="760.3941375613213" y="181.96914824843407" text-anchor="middle" dominant-baseline="text-after-edge">&gt;0</text><path fill="none" stroke="#505050" paint-order="fill stroke markers" d=" M 747.8941375613213 181.96914824843407 L 755.8941375613213 181.96914824843407 L 755.8941375613213 189.96914824843407 L 747.8941375613213 189.96914824843407 L 747.8941375613213 181.96914824843407 Z" stroke-miterlimit="10" stroke-width="0.5" stroke-dasharray=""/><path fill="none" stroke="#505050" paint-order="fill stroke markers" d=" M 764.8941375613213 181.96914824843407 L 772.8941375613213 181.96914824843407 L 772.8941375613213 189.96914824843407 L 764.8941375613213 189.96914824843407 L 764.8941375613213 181.96914824843407 Z" stroke-miterlimit="10" stroke-width="0.5" stroke-dasharray=""/><path fill="#e0e0e0" stroke="none" paint-order="stroke fill markers" d=" M 635.2008392214775 206.02682647109032 L 627.2008392214775 191.02682647109032 L 627.2008392214775 221.02682647109032 Z M 739.8941375613213 178.96914824843407 L 747.8941375613213 163.96914824843407 L 747.8941375613213 193.96914824843407 Z"/><path fill="none" stroke="none"/><path fill="none" stroke="#e0e0e0" paint-order="fill stroke markers" d=" M 635.2008392214775 206.02682647109032 C 667.6408210360049 206.02682647109032 707.4541557467938 178.96914824843407 739.8941375613213 178.96914824843407" stroke-miterlimit="10" stroke-width="2" stroke-dasharray=""/><path fill="none" stroke="#505050" paint-order="fill stroke markers" d=" M 401.311068713665 127.42442473769188 C 404.56372760646843 127.42442473769188 408.9006034243772 127.43208464980125 412.15326231718063 127.43208464980125" stroke-miterlimit="10" stroke-dasharray=""/><path fill="none" stroke="#505050" paint-order="fill stroke markers" d=" M 535.7829315066338 129.2366348206997 C 539.3150123165466 129.2366348206997 544.0242576791428 129.16874846816063 547.5563384890556 129.16874846816063" stroke-miterlimit="10" stroke-dasharray=""/><path fill="none" stroke="#505050" paint-order="fill stroke markers" d=" M 387.816928088665 221.76576384902 C 390.9387481015837 221.76576384902 395.0736481148088 222.5221572816372 398.1954681277275 222.5221572816372" stroke-miterlimit="10" stroke-dasharray=""/><path fill="none" stroke="#505050" paint-order="fill stroke markers" d=" M 550.0685455203056 223.33223113417625 C 553.1595339705375 223.33223113417625 557.2786129782769 223.1174484193325 560.3696014285088 223.1174484193325" stroke-miterlimit="10" stroke-dasharray=""/><path fill="none" stroke="#505050" paint-order="fill stroke markers" d=" M 366.8646575808525 346.63662871718407 C 377.95413169104523 346.63662871718407 374.5470340565973 314.7929092347622 385.63650816679 314.7929092347622" stroke-miterlimit="10" stroke-dasharray=""/><path fill="none" stroke="#505050" paint-order="fill stroke markers" d=" M 366.39902037382126 323.89914855360985 C 374.9663936427537 323.89914855360985 377.06913489785757 302.7929092347622 385.63650816679 302.7929092347622" stroke-miterlimit="10" stroke-dasharray=""/><path fill="none" stroke="#505050" paint-order="fill stroke markers" d=" M 409.63650816679 302.7929092347622 C 416.24392597309384 302.7929092347622 418.20098061927524 318.75856932997704 424.80839842557907 318.75856932997704" stroke-miterlimit="10" stroke-dasharray=""/><path fill="none" stroke="#505050" paint-order="fill stroke markers" d=" M 366.39902037382126 323.89914855360985 C 384.04225247001716 323.89914855360985 407.16516632938317 330.75856932997704 424.80839842557907 330.75856932997704" stroke-miterlimit="10" stroke-dasharray=""/><path fill="none" stroke="#505050" paint-order="fill stroke markers" d=" M 366.8646575808525 346.63662871718407 C 384.2866689541767 346.63662871718407 407.38638705225486 342.75856932997704 424.80839842557907 342.75856932997704" stroke-miterlimit="10" stroke-dasharray=""/><path fill="none" stroke="#505050" paint-order="fill stroke markers" d=" M 527.9008819460869 347.09131011366844 C 539.1453044654788 347.09131011366844 535.1908527372418 314.51321563124657 546.4352752566338 314.51321563124657" stroke-miterlimit="10" stroke-dasharray=""/><path fill="none" stroke="#505050" paint-order="fill stroke markers" d=" M 527.4352447390556 324.3538299500942 C 536.1197840713645 324.3538299500942 537.7507359243249 302.51321563124657 546.4352752566338 302.51321563124657" stroke-miterlimit="10" stroke-dasharray=""/><path fill="none" stroke="#505050" paint-order="fill stroke markers" d=" M 570.4352752566338 302.51321563124657 C 577.9506760111351 302.51321563124657 579.6698592433434 321.1413513123989 587.1852599978447 321.1413513123989" stroke-miterlimit="10" stroke-dasharray=""/><path fill="none" stroke="#505050" paint-order="fill stroke markers" d=" M 527.4352447390556 324.3538299500942 C 545.5530712356491 324.3538299500942 569.0674335012512 333.1413513123989 587.1852599978447 333.1413513123989" stroke-miterlimit="10" stroke-dasharray=""/><path fill="none" stroke="#505050" paint-order="fill stroke markers" d=" M 527.9008819460869 347.09131011366844 C 545.6958133544384 347.09131011366844 569.3903285894932 345.1413513123989 587.1852599978447 345.1413513123989" stroke-miterlimit="10" stroke-dasharray=""/><path fill="none" stroke="#505050" paint-order="fill stroke markers" d=" M 773.3565780520439 247.2003960609436 C 782.014900150799 247.2003960609436 788.6450561852224 231.0910096168518 797.3033782839775 231.0910096168518" stroke-miterlimit="10" stroke-dasharray=""/><path fill="none" stroke="#505050" paint-order="fill stroke markers" d=" M 726.6971771121025 207.6035095155239 C 740.3837606432219 207.6035095155239 735.6699945209245 247.2003960609436 749.3565780520439 247.2003960609436" stroke-miterlimit="10" stroke-dasharray=""/><path fill="none" stroke="#505050" paint-order="fill stroke markers" d=" M 726.6971771121025 207.6035095155239 C 748.1575556554814 207.6035095155239 775.8429997405987 219.0910096168518 797.3033782839775 219.0910096168518" stroke-miterlimit="10" stroke-dasharray=""/><path fill="none" stroke="#505050" paint-order="fill stroke markers" d=" M 726.6971771121025 207.6035095155239 C 735.7835462865783 207.6035095155239 738.8077683868455 185.96914824843407 747.8941375613213 185.96914824843407" stroke-miterlimit="10" stroke-dasharray=""/><path fill="none" stroke="#505050" paint-order="fill stroke markers" d=" M 772.8941375613213 185.96914824843407 C 782.5778850502375 185.96914824843407 787.6196307950613 207.0910096168518 797.3033782839775 207.0910096168518" stroke-miterlimit="10" stroke-dasharray=""/></g></g></svg>