<svg version="1.1" xmlns="http://www.w3.org/2000/svg" xmlns:xlink="http://www.w3.org/1999/xlink" width="510.67180785536766" height="286.16253089904785"><defs/><g transform="translate(-249.77188110351562,-62.59687805175781)"><g><path fill="white" stroke="#505050" paint-order="fill stroke markers" d=" M 524.2249999940395 71.59687805175781 L 524.2249999940395 240.76564979553223 Q 524.2249999940395 248.76564979553223 532.2249999940395 248.76564979553223 L 751.4436889588833 248.76564979553223 Q 759.4436889588833 248.76564979553223 759.4436889588833 240.76564979553223 L 759.4436889588833 71.59687805175781 Q 759.4436889588833 63.59687805175781 751.4436889588833 63.59687805175781 L 532.2249999940395 63.59687805175781 Q 524.2249999940395 63.59687805175781 524.2249999940395 71.59687805175781" stroke-miterlimit="10" stroke-width="0.5" stroke-dasharray=""/><path fill="#F0F0F0" stroke="#505050" paint-order="fill stroke markers" d=" M 711.4436889588833 71.59687805175781 L 759.4436889588833 71.59687805175781 L 759.4436889588833 169.5968780517578 L 711.4436889588833 169.5968780517578 L 711.4436889588833 71.59687805175781 Z" stroke-miterlimit="10" stroke-width="0.5" stroke-dasharray=""/><text fill="#505050" stroke="none" font-family="monospace" font-size="14px" font-style="normal" font-weight="normal" text-decoration="normal" x="735.4436889588833" y="89.59687805175781" text-anchor="middle" dominant-baseline="text-after-edge">swap</text><path fill="none" stroke="#505050" paint-order="fill stroke markers" d=" M 711.4436889588833 89.59687805175781 L 743.4436889588833 89.59687805175781 L 743.4436889588833 125.59687805175781 L 711.4436889588833 125.59687805175781 L 711.4436889588833 89.59687805175781 Z" stroke-miterlimit="10" stroke-width="0.5" stroke-dasharray=""/><path fill="none" stroke="#505050" paint-order="fill stroke markers" d=" M 735.4436889588833 93.59687805175781 L 743.4436889588833 93.59687805175781 L 743.4436889588833 101.59687805175781 L 735.4436889588833 101.59687805175781 L 735.4436889588833 93.59687805175781 Z" stroke-miterlimit="10" stroke-width="0.5" stroke-dasharray=""/><path fill="none" stroke="#505050" paint-order="fill stroke markers" d=" M 719.4436889588833 105.59687805175781 L 743.4436889588833 105.59687805175781 L 743.4436889588833 121.59687805175781 L 719.4436889588833 121.59687805175781 L 719.4436889588833 105.59687805175781 Z" stroke-miterlimit="10" stroke-width="0.5" stroke-dasharray=""/><path fill="none" stroke="#505050" paint-order="fill stroke markers" d=" M 719.4436889588833 109.59687805175781 L 727.4436889588833 109.59687805175781 L 727.4436889588833 117.59687805175781 L 719.4436889588833 117.59687805175781 L 719.4436889588833 109.59687805175781 Z" stroke-miterlimit="10" stroke-width="0.5" stroke-dasharray=""/><path fill="none" stroke="#505050" paint-order="fill stroke markers" d=" M 735.4436889588833 109.59687805175781 L 743.4436889588833 109.59687805175781 L 743.4436889588833 117.59687805175781 L 735.4436889588833 117.59687805175781 L 735.4436889588833 109.59687805175781 Z" stroke-miterlimit="10" stroke-width="0.5" stroke-dasharray=""/><path fill="none" stroke="#505050" paint-order="fill stroke markers" d=" M 711.4436889588833 129.5968780517578 L 743.4436889588833 129.5968780517578 L 743.4436889588833 165.5968780517578 L 711.4436889588833 165.5968780517578 L 711.4436889588833 129.5968780517578 Z" stroke-miterlimit="10" stroke-width="0.5" stroke-dasharray=""/><path fill="none" stroke="#505050" paint-order="fill stroke markers" d=" M 735.4436889588833 133.5968780517578 L 743.4436889588833 133.5968780517578 L 743.4436889588833 141.5968780517578 L 735.4436889588833 141.5968780517578 L 735.4436889588833 133.5968780517578 Z" stroke-miterlimit="10" stroke-width="0.5" stroke-dasharray=""/><path fill="none" stroke="#505050" paint-order="fill stroke markers" d=" M 719.4436889588833 145.5968780517578 L 743.4436889588833 145.5968780517578 L 743.4436889588833 161.5968780517578 L 719.4436889588833 161.5968780517578 L 719.4436889588833 145.5968780517578 Z" stroke-miterlimit="10" stroke-width="0.5" stroke-dasharray=""/><path fill="none" stroke="#505050" paint-order="fill stroke markers" d=" M 719.4436889588833 149.5968780517578 L 727.4436889588833 149.5968780517578 L 727.4436889588833 157.5968780517578 L 719.4436889588833 157.5968780517578 L 719.4436889588833 149.5968780517578 Z" stroke-miterlimit="10" stroke-width="0.5" stroke-dasharray=""/><path fill="none" stroke="#505050" paint-order="fill stroke markers" d=" M 735.4436889588833 149.5968780517578 L 743.4436889588833 149.5968780517578 L 743.4436889588833 157.5968780517578 L 735.4436889588833 157.5968780517578 L 735.4436889588833 149.5968780517578 Z" stroke-miterlimit="10" stroke-width="0.5" stroke-dasharray=""/><path fill="none" stroke="#505050" paint-order="fill stroke markers" d=" M 751.4436889588833 89.59687805175781 L 759.4436889588833 89.59687805175781 L 759.4436889588833 97.59687805175781 L 751.4436889588833 97.59687805175781 L 751.4436889588833 89.59687805175781 Z" stroke-miterlimit="10" stroke-width="0.5" stroke-dasharray=""/><path fill="white" stroke="#505050" paint-order="fill stroke markers" d=" M 680.6813125610352 188.76564979553223 L 680.6813125610352 224.76564979553223 Q 680.6813125610352 232.76564979553223 688.6813125610352 232.76564979553223 L 696.6813125610352 232.76564979553223 Q 704.6813125610352 232.76564979553223 704.6813125610352 224.76564979553223 L 704.6813125610352 188.76564979553223 Q 704.6813125610352 180.76564979553223 696.6813125610352 180.76564979553223 L 688.6813125610352 180.76564979553223 Q 680.6813125610352 180.76564979553223 680.6813125610352 188.76564979553223" stroke-miterlimit="10" stroke-width="0.5" stroke-dasharray=""/><path fill="none" stroke="#505050" paint-order="fill stroke markers" d=" M 680.6813125610352 184.76564979553223 L 688.6813125610352 184.76564979553223 L 688.6813125610352 192.76564979553223 L 680.6813125610352 192.76564979553223 L 680.6813125610352 184.76564979553223 Z" stroke-miterlimit="10" stroke-width="0.5" stroke-dasharray=""/><path fill="none" stroke="#505050" paint-order="fill stroke markers" d=" M 680.6813125610352 196.76564979553223 L 688.6813125610352 196.76564979553223 L 688.6813125610352 204.76564979553223 L 680.6813125610352 204.76564979553223 L 680.6813125610352 196.76564979553223 Z" stroke-miterlimit="10" stroke-width="0.5" stroke-dasharray=""/><path fill="none" stroke="#505050" paint-order="fill stroke markers" d=" M 680.6813125610352 208.76564979553223 L 688.6813125610352 208.76564979553223 L 688.6813125610352 216.76564979553223 L 680.6813125610352 216.76564979553223 L 680.6813125610352 208.76564979553223 Z" stroke-miterlimit="10" stroke-width="0.5" stroke-dasharray=""/><path fill="none" stroke="#505050" paint-order="fill stroke markers" d=" M 680.6813125610352 220.76564979553223 L 688.6813125610352 220.76564979553223 L 688.6813125610352 228.76564979553223 L 680.6813125610352 228.76564979553223 L 680.6813125610352 220.76564979553223 Z" stroke-miterlimit="10" stroke-width="0.5" stroke-dasharray=""/><path fill="none" stroke="#505050" paint-order="fill stroke markers" d=" M 696.6813125610352 184.76564979553223 L 704.6813125610352 184.76564979553223 L 704.6813125610352 192.76564979553223 L 696.6813125610352 192.76564979553223 L 696.6813125610352 184.76564979553223 Z" stroke-miterlimit="10" stroke-width="0.5" stroke-dasharray=""/><path fill="white" stroke="#505050" paint-order="fill stroke markers" d=" M 715.6625137329102 181.07500648498535 L 723.6625137329102 181.07500648498535 L 731.6625137329102 189.07500648498535 L 723.6625137329102 197.07500648498535 L 715.6625137329102 197.07500648498535 L 715.6625137329102 181.07500648498535" stroke-miterlimit="10" stroke-width="0.5" stroke-dasharray=""/><path fill="none" stroke="#505050" paint-order="fill stroke markers" d=" M 715.6625137329102 185.07500648498535 L 723.6625137329102 185.07500648498535 L 723.6625137329102 193.07500648498535 L 715.6625137329102 193.07500648498535 L 715.6625137329102 185.07500648498535 Z" stroke-miterlimit="10" stroke-width="0.5" stroke-dasharray=""/><path fill="white" stroke="#505050" paint-order="fill stroke markers" d=" M 533.1936950683594 80.45625686645508 L 573.1936950683594 80.45625686645508 L 573.1936950683594 130.45625686645508 L 533.1936950683594 130.45625686645508 L 533.1936950683594 80.45625686645508 Z" stroke-miterlimit="10" stroke-width="0.5" stroke-dasharray=""/><path fill="#F0F0F0" stroke="none" paint-order="stroke fill markers" d=" M 549.1936950683594 110.45625686645508 L 573.1936950683594 110.45625686645508 L 573.1936950683594 126.45625686645508 L 549.1936950683594 126.45625686645508 L 549.1936950683594 110.45625686645508 Z"/><text fill="#505050" stroke="none" font-family="monospace" font-size="14px" font-style="normal" font-weight="normal" text-decoration="normal" x="553.1936950683594" y="98.45625686645508" text-anchor="middle" dominant-baseline="text-after-edge">let</text><path fill="none" stroke="#505050" paint-order="fill stroke markers" d=" M 533.1936950683594 98.45625686645508 L 541.1936950683594 98.45625686645508 L 541.1936950683594 106.45625686645508 L 533.1936950683594 106.45625686645508 L 533.1936950683594 98.45625686645508 Z" stroke-miterlimit="10" stroke-width="0.5" stroke-dasharray=""/><path fill="none" stroke="#505050" paint-order="fill stroke markers" d=" M 565.1936950683594 98.45625686645508 L 573.1936950683594 98.45625686645508 L 573.1936950683594 106.45625686645508 L 565.1936950683594 106.45625686645508 L 565.1936950683594 98.45625686645508 Z" stroke-miterlimit="10" stroke-width="0.5" stroke-dasharray=""/><path fill="none" stroke="#505050" paint-order="fill stroke markers" d=" M 549.1936950683594 110.45625686645508 L 573.1936950683594 110.45625686645508 L 573.1936950683594 126.45625686645508 L 549.1936950683594 126.45625686645508 L 549.1936950683594 110.45625686645508 Z" stroke-miterlimit="10" stroke-width="0.5" stroke-dasharray=""/><path fill="none" stroke="#505050" paint-order="fill stroke markers" d=" M 549.1936950683594 114.45625686645508 L 557.1936950683594 114.45625686645508 L 557.1936950683594 122.45625686645508 L 549.1936950683594 122.45625686645508 L 549.1936950683594 114.45625686645508 Z" stroke-miterlimit="10" stroke-width="0.5" stroke-dasharray=""/><path fill="none" stroke="#505050" paint-order="fill stroke markers" d=" M 565.1936950683594 114.45625686645508 L 573.1936950683594 114.45625686645508 L 573.1936950683594 122.45625686645508 L 565.1936950683594 122.45625686645508 L 565.1936950683594 114.45625686645508 Z" stroke-miterlimit="10" stroke-width="0.5" stroke-dasharray=""/><path fill="white" stroke="#505050" paint-order="fill stroke markers" d=" M 603.1156616210938 109.8499984741211 L 627.1156616210938 109.8499984741211 L 627.1156616210938 125.8499984741211 L 603.1156616210938 125.8499984741211 L 603.1156616210938 109.8499984741211 Z" stroke-miterlimit="10" stroke-width="0.5" stroke-dasharray=""/><path fill="#F0F0F0" stroke="none" paint-order="stroke fill markers" d=""/><path fill="none" stroke="#505050" paint-order="fill stroke markers" d=" M 603.1156616210938 113.8499984741211 L 611.1156616210938 113.8499984741211 L 611.1156616210938 121.8499984741211 L 603.1156616210938 121.8499984741211 L 603.1156616210938 113.8499984741211 Z" stroke-miterlimit="10" stroke-width="0.5" stroke-dasharray=""/><path fill="none" stroke="#505050" paint-order="fill stroke markers" d=" M 619.1156616210938 113.8499984741211 L 627.1156616210938 113.8499984741211 L 627.1156616210938 121.8499984741211 L 619.1156616210938 121.8499984741211 L 619.1156616210938 113.8499984741211 Z" stroke-miterlimit="10" stroke-width="0.5" stroke-dasharray=""/><path fill="#e0e0e0" stroke="none" paint-order="stroke fill markers" d=" M 581.1936950683594 118.45625686645508 L 573.1936950683594 110.45625686645508 L 573.1936950683594 126.45625686645508 Z M 595.1156616210938 117.8499984741211 L 603.1156616210938 109.8499984741211 L 603.1156616210938 125.8499984741211 Z"/><path fill="none" stroke="none"/><path fill="none" stroke="#e0e0e0" paint-order="fill stroke markers" d=" M 581.1936950683594 118.45625686645508 C 585.3742432589721 118.45625686645508 590.935113430481 117.8499984741211 595.1156616210938 117.8499984741211" stroke-miterlimit="10" stroke-width="2" stroke-dasharray=""/><path fill="white" stroke="#505050" paint-order="fill stroke markers" d=" M 533.8749633729458 140.65000915527344 L 565.8749633729458 140.65000915527344 L 565.8749633729458 176.65000915527344 L 533.8749633729458 176.65000915527344 L 533.8749633729458 140.65000915527344 Z" stroke-miterlimit="10" stroke-width="0.5" stroke-dasharray="6,3"/><path fill="#F0F0F0" stroke="none" paint-order="stroke fill markers" d=" M 541.8749633729458 156.65000915527344 L 565.8749633729458 156.65000915527344 L 565.8749633729458 172.65000915527344 L 541.8749633729458 172.65000915527344 L 541.8749633729458 156.65000915527344 Z"/><path fill="none" stroke="#505050" paint-order="fill stroke markers" d=" M 557.8749633729458 144.65000915527344 L 565.8749633729458 144.65000915527344 L 565.8749633729458 152.65000915527344 L 557.8749633729458 152.65000915527344 L 557.8749633729458 144.65000915527344 Z" stroke-miterlimit="10" stroke-width="0.5" stroke-dasharray="0"/><path fill="none" stroke="#505050" paint-order="fill stroke markers" d=" M 541.8749633729458 156.65000915527344 L 565.8749633729458 156.65000915527344 L 565.8749633729458 172.65000915527344 L 541.8749633729458 172.65000915527344 L 541.8749633729458 156.65000915527344 Z" stroke-miterlimit="10" stroke-width="0.5" stroke-dasharray="0"/><path fill="none" stroke="#505050" paint-order="fill stroke markers" d=" M 541.8749633729458 160.65000915527344 L 549.8749633729458 160.65000915527344 L 549.8749633729458 168.65000915527344 L 541.8749633729458 168.65000915527344 L 541.8749633729458 160.65000915527344 Z" stroke-miterlimit="10" stroke-width="0.5" stroke-dasharray="0"/><path fill="none" stroke="#505050" paint-order="fill stroke markers" d=" M 557.8749633729458 160.65000915527344 L 565.8749633729458 160.65000915527344 L 565.8749633729458 168.65000915527344 L 557.8749633729458 168.65000915527344 L 557.8749633729458 160.65000915527344 Z" stroke-miterlimit="10" stroke-width="0.5" stroke-dasharray="0"/><path fill="white" stroke="#505050" paint-order="fill stroke markers" d=" M 616.8812866210938 159.9968719482422 L 640.8812866210938 159.9968719482422 L 640.8812866210938 175.9968719482422 L 616.8812866210938 175.9968719482422 L 616.8812866210938 159.9968719482422 Z" stroke-miterlimit="10" stroke-width="0.5" stroke-dasharray="0"/><path fill="#F0F0F0" stroke="none" paint-order="stroke fill markers" d=""/><path fill="none" stroke="#505050" paint-order="fill stroke markers" d=" M 616.8812866210938 163.9968719482422 L 624.8812866210938 163.9968719482422 L 624.8812866210938 171.9968719482422 L 616.8812866210938 171.9968719482422 L 616.8812866210938 163.9968719482422 Z" stroke-miterlimit="10" stroke-width="0.5" stroke-dasharray="0"/><path fill="none" stroke="#505050" paint-order="fill stroke markers" d=" M 632.8812866210938 163.9968719482422 L 640.8812866210938 163.9968719482422 L 640.8812866210938 171.9968719482422 L 632.8812866210938 171.9968719482422 L 632.8812866210938 163.9968719482422 Z" stroke-miterlimit="10" stroke-width="0.5" stroke-dasharray="0"/><path fill="#e0e0e0" stroke="none" paint-order="stroke fill markers" d=" M 573.8749633729458 164.65000915527344 L 565.8749633729458 156.65000915527344 L 565.8749633729458 172.65000915527344 Z M 608.8812866210938 167.9968719482422 L 616.8812866210938 159.9968719482422 L 616.8812866210938 175.9968719482422 Z"/><path fill="none" stroke="none"/><path fill="none" stroke="#e0e0e0" paint-order="fill stroke markers" d=" M 573.8749633729458 164.65000915527344 C 584.4247488784331 164.65000915527344 598.3315011156064 167.9968719482422 608.8812866210938 167.9968719482422" stroke-miterlimit="10" stroke-width="2" stroke-dasharray="0"/><path fill="white" stroke="#505050" paint-order="fill stroke markers" d=" M 534.7936645448208 188.6593780517578 L 566.7936645448208 188.6593780517578 L 566.7936645448208 224.6593780517578 L 534.7936645448208 224.6593780517578 L 534.7936645448208 188.6593780517578 Z" stroke-miterlimit="10" stroke-width="0.5" stroke-dasharray="6,3"/><path fill="#F0F0F0" stroke="none" paint-order="stroke fill markers" d=" M 542.7936645448208 204.6593780517578 L 566.7936645448208 204.6593780517578 L 566.7936645448208 220.6593780517578 L 542.7936645448208 220.6593780517578 L 542.7936645448208 204.6593780517578 Z"/><path fill="none" stroke="#505050" paint-order="fill stroke markers" d=" M 558.7936645448208 192.6593780517578 L 566.7936645448208 192.6593780517578 L 566.7936645448208 200.6593780517578 L 558.7936645448208 200.6593780517578 L 558.7936645448208 192.6593780517578 Z" stroke-miterlimit="10" stroke-width="0.5" stroke-dasharray="0"/><path fill="none" stroke="#505050" paint-order="fill stroke markers" d=" M 542.7936645448208 204.6593780517578 L 566.7936645448208 204.6593780517578 L 566.7936645448208 220.6593780517578 L 542.7936645448208 220.6593780517578 L 542.7936645448208 204.6593780517578 Z" stroke-miterlimit="10" stroke-width="0.5" stroke-dasharray="0"/><path fill="none" stroke="#505050" paint-order="fill stroke markers" d=" M 542.7936645448208 208.6593780517578 L 550.7936645448208 208.6593780517578 L 550.7936645448208 216.6593780517578 L 542.7936645448208 216.6593780517578 L 542.7936645448208 208.6593780517578 Z" stroke-miterlimit="10" stroke-width="0.5" stroke-dasharray="0"/><path fill="none" stroke="#505050" paint-order="fill stroke markers" d=" M 558.7936645448208 208.6593780517578 L 566.7936645448208 208.6593780517578 L 566.7936645448208 216.6593780517578 L 558.7936645448208 216.6593780517578 L 558.7936645448208 208.6593780517578 Z" stroke-miterlimit="10" stroke-width="0.5" stroke-dasharray="0"/><path fill="white" stroke="#505050" paint-order="fill stroke markers" d=" M 630.40625 204.60000610351562 L 654.40625 204.60000610351562 L 654.40625 220.60000610351562 L 630.40625 220.60000610351562 L 630.40625 204.60000610351562 Z" stroke-miterlimit="10" stroke-width="0.5" stroke-dasharray="0"/><path fill="#F0F0F0" stroke="none" paint-order="stroke fill markers" d=""/><path fill="none" stroke="#505050" paint-order="fill stroke markers" d=" M 630.40625 208.60000610351562 L 638.40625 208.60000610351562 L 638.40625 216.60000610351562 L 630.40625 216.60000610351562 L 630.40625 208.60000610351562 Z" stroke-miterlimit="10" stroke-width="0.5" stroke-dasharray="0"/><path fill="none" stroke="#505050" paint-order="fill stroke markers" d=" M 646.40625 208.60000610351562 L 654.40625 208.60000610351562 L 654.40625 216.60000610351562 L 646.40625 216.60000610351562 L 646.40625 208.60000610351562 Z" stroke-miterlimit="10" stroke-width="0.5" stroke-dasharray="0"/><path fill="#e0e0e0" stroke="none" paint-order="stroke fill markers" d=" M 574.7936645448208 212.6593780517578 L 566.7936645448208 204.6593780517578 L 566.7936645448208 220.6593780517578 Z M 622.40625 212.60000610351562 L 630.40625 204.60000610351562 L 630.40625 220.60000610351562 Z"/><path fill="none" stroke="none"/><path fill="none" stroke="#e0e0e0" paint-order="fill stroke markers" d=" M 574.7936645448208 212.6593780517578 C 589.0774512867163 212.6593780517578 608.1224632581045 212.60000610351562 622.40625 212.60000610351562" stroke-miterlimit="10" stroke-width="2" stroke-dasharray="0"/><path fill="white" stroke="#505050" paint-order="fill stroke markers" d=" M 351.7281303405762 79.80623626708984 L 351.7281303405762 217.2562484741211 Q 351.7281303405762 225.2562484741211 359.7281303405762 225.2562484741211 L 439.296875 225.2562484741211 Q 447.296875 225.2562484741211 447.296875 217.2562484741211 L 447.296875 79.80623626708984 Q 447.296875 71.80623626708984 439.296875 71.80623626708984 L 359.7281303405762 71.80623626708984 Q 351.7281303405762 71.80623626708984 351.7281303405762 79.80623626708984" stroke-miterlimit="10" stroke-width="0.5" stroke-dasharray="0"/><path fill="#F0F0F0" stroke="#505050" paint-order="fill stroke markers" d=" M 415.296875 79.80623626708984 L 447.296875 79.80623626708984 L 447.296875 115.80623626708984 L 415.296875 115.80623626708984 L 415.296875 79.80623626708984 Z" stroke-miterlimit="10" stroke-width="0.5" stroke-dasharray="6,3"/><path fill="none" stroke="#505050" paint-order="fill stroke markers" d=" M 439.296875 83.80623626708984 L 447.296875 83.80623626708984 L 447.296875 91.80623626708984 L 439.296875 91.80623626708984 L 439.296875 83.80623626708984 Z" stroke-miterlimit="10" stroke-width="0.5" stroke-dasharray="0"/><path fill="none" stroke="#505050" paint-order="fill stroke markers" d=" M 423.296875 95.80623626708984 L 447.296875 95.80623626708984 L 447.296875 111.80623626708984 L 423.296875 111.80623626708984 L 423.296875 95.80623626708984 Z" stroke-miterlimit="10" stroke-width="0.5" stroke-dasharray="0"/><path fill="none" stroke="#505050" paint-order="fill stroke markers" d=" M 423.296875 99.80623626708984 L 431.296875 99.80623626708984 L 431.296875 107.80623626708984 L 423.296875 107.80623626708984 L 423.296875 99.80623626708984 Z" stroke-miterlimit="10" stroke-width="0.5" stroke-dasharray="0"/><path fill="none" stroke="#505050" paint-order="fill stroke markers" d=" M 439.296875 99.80623626708984 L 447.296875 99.80623626708984 L 447.296875 107.80623626708984 L 439.296875 107.80623626708984 L 439.296875 99.80623626708984 Z" stroke-miterlimit="10" stroke-width="0.5" stroke-dasharray="0"/><path fill="white" stroke="#505050" paint-order="fill stroke markers" d=" M 402.06869888305664 164.7594223022461 L 410.06869888305664 164.7594223022461 L 418.06869888305664 172.7594223022461 L 410.06869888305664 180.7594223022461 L 402.06869888305664 180.7594223022461 L 402.06869888305664 164.7594223022461" stroke-miterlimit="10" stroke-width="0.5" stroke-dasharray="0"/><path fill="none" stroke="#505050" paint-order="fill stroke markers" d=" M 402.06869888305664 168.7594223022461 L 410.06869888305664 168.7594223022461 L 410.06869888305664 176.7594223022461 L 402.06869888305664 176.7594223022461 L 402.06869888305664 168.7594223022461 Z" stroke-miterlimit="10" stroke-width="0.5" stroke-dasharray="0"/><path fill="none" stroke="none"/><path fill="white" stroke="#505050" paint-order="fill stroke markers" d=" M 379.5875053405762 185.2562484741211 L 411.5875053405762 185.2562484741211 L 419.5875053405762 197.2562484741211 L 411.5875053405762 209.2562484741211 L 379.5875053405762 209.2562484741211 L 379.5875053405762 185.2562484741211" stroke-miterlimit="10" stroke-width="0.5" stroke-dasharray="6,3"/><path fill="none" stroke="#505050" paint-order="fill stroke markers" d=" M 387.5875053405762 189.2562484741211 L 411.5875053405762 189.2562484741211 L 411.5875053405762 205.2562484741211 L 387.5875053405762 205.2562484741211 L 387.5875053405762 189.2562484741211 Z" stroke-miterlimit="10" stroke-width="0.5" stroke-dasharray="0"/><path fill="none" stroke="#505050" paint-order="fill stroke markers" d=" M 387.5875053405762 193.2562484741211 L 395.5875053405762 193.2562484741211 L 395.5875053405762 201.2562484741211 L 387.5875053405762 201.2562484741211 L 387.5875053405762 193.2562484741211 Z" stroke-miterlimit="10" stroke-width="0.5" stroke-dasharray="0"/><path fill="none" stroke="#505050" paint-order="fill stroke markers" d=" M 403.5875053405762 193.2562484741211 L 411.5875053405762 193.2562484741211 L 411.5875053405762 201.2562484741211 L 403.5875053405762 201.2562484741211 L 403.5875053405762 193.2562484741211 Z" stroke-miterlimit="10" stroke-width="0.5" stroke-dasharray="0"/><path fill="none" stroke="#505050" paint-order="fill stroke markers" d=" M 387.5875053405762 189.2562484741211 L 411.5875053405762 189.2562484741211 L 411.5875053405762 205.2562484741211 L 387.5875053405762 205.2562484741211 L 387.5875053405762 189.2562484741211 Z" stroke-miterlimit="10" stroke-width="0.5" stroke-dasharray="6,3"/><path fill="#F0F0F0" stroke="none" paint-order="stroke fill markers" d=""/><path fill="none" stroke="#505050" paint-order="fill stroke markers" d=" M 387.5875053405762 193.2562484741211 L 395.5875053405762 193.2562484741211 L 395.5875053405762 201.2562484741211 L 387.5875053405762 201.2562484741211 L 387.5875053405762 193.2562484741211 Z" stroke-miterlimit="10" stroke-width="0.5" stroke-dasharray="0"/><path fill="none" stroke="#505050" paint-order="fill stroke markers" d=" M 403.5875053405762 193.2562484741211 L 411.5875053405762 193.2562484741211 L 411.5875053405762 201.2562484741211 L 403.5875053405762 201.2562484741211 L 403.5875053405762 193.2562484741211 Z" stroke-miterlimit="10" stroke-width="0.5" stroke-dasharray="0"/><path fill="white" stroke="#505050" paint-order="fill stroke markers" d=" M 358.0968780517578 127.70942687988281 L 358.0968780517578 152.40317726135254 Q 358.0968780517578 160.40317726135254 366.0968780517578 160.40317726135254 L 423.296875 160.40317726135254 Q 431.296875 160.40317726135254 431.296875 152.40317726135254 L 431.296875 127.70942687988281 Q 431.296875 119.70942687988281 423.296875 119.70942687988281 L 366.0968780517578 119.70942687988281 Q 358.0968780517578 119.70942687988281 358.0968780517578 127.70942687988281" stroke-miterlimit="10" stroke-width="0.5" stroke-dasharray="0"/><path fill="#F0F0F0" stroke="#505050" paint-order="fill stroke markers" d=" M 407.296875 127.70942687988281 L 431.296875 127.70942687988281 L 431.296875 143.7094268798828 L 407.296875 143.7094268798828 L 407.296875 127.70942687988281 Z" stroke-miterlimit="10" stroke-width="0.5" stroke-dasharray="6,3"/><path fill="none" stroke="#505050" paint-order="fill stroke markers" d=" M 407.296875 131.7094268798828 L 415.296875 131.7094268798828 L 415.296875 139.7094268798828 L 407.296875 139.7094268798828 L 407.296875 131.7094268798828 Z" stroke-miterlimit="10" stroke-width="0.5" stroke-dasharray="0"/><path fill="none" stroke="#505050" paint-order="fill stroke markers" d=" M 423.296875 131.7094268798828 L 431.296875 131.7094268798828 L 431.296875 139.7094268798828 L 423.296875 139.7094268798828 L 423.296875 131.7094268798828 Z" stroke-miterlimit="10" stroke-width="0.5" stroke-dasharray="0"/><path fill="white" stroke="#505050" paint-order="fill stroke markers" d=" M 361.0562496185303 126.93754768371582 L 377.0562496185303 126.93754768371582 L 377.0562496185303 142.93754768371582 L 361.0562496185303 142.93754768371582 L 369.0562496185303 134.93754768371582 L 361.0562496185303 126.93754768371582" stroke-miterlimit="10" stroke-width="0.5" stroke-dasharray="0"/><path fill="none" stroke="#505050" paint-order="fill stroke markers" d=" M 369.0562496185303 130.93754768371582 L 377.0562496185303 130.93754768371582 L 377.0562496185303 138.93754768371582 L 369.0562496185303 138.93754768371582 L 369.0562496185303 130.93754768371582 Z" stroke-miterlimit="10" stroke-width="0.5" stroke-dasharray="0"/><path fill="white" stroke="#505050" paint-order="fill stroke markers" d=" M 385.0406188964844 128.40317726135254 L 393.0406188964844 128.40317726135254 L 401.0406188964844 136.40317726135254 L 393.0406188964844 144.40317726135254 L 385.0406188964844 144.40317726135254 L 385.0406188964844 128.40317726135254" stroke-miterlimit="10" stroke-width="0.5" stroke-dasharray="0"/><path fill="none" stroke="#505050" paint-order="fill stroke markers" d=" M 385.0406188964844 132.40317726135254 L 393.0406188964844 132.40317726135254 L 393.0406188964844 140.40317726135254 L 385.0406188964844 140.40317726135254 L 385.0406188964844 132.40317726135254 Z" stroke-miterlimit="10" stroke-width="0.5" stroke-dasharray="0"/><path fill="white" stroke="#505050" paint-order="fill stroke markers" d=" M 250.77188110351562 216.32500839233398 L 290.7718811035156 216.32500839233398 L 290.7718811035156 266.325008392334 L 250.77188110351562 266.325008392334 L 250.77188110351562 216.32500839233398 Z" stroke-miterlimit="10" stroke-width="0.5" stroke-dasharray="0"/><path fill="#F0F0F0" stroke="none" paint-order="stroke fill markers" d=" M 266.7718811035156 246.32500839233398 L 290.7718811035156 246.32500839233398 L 290.7718811035156 262.325008392334 L 266.7718811035156 262.325008392334 L 266.7718811035156 246.32500839233398 Z"/><text fill="#505050" stroke="none" font-family="monospace" font-size="14px" font-style="normal" font-weight="normal" text-decoration="normal" x="270.7718811035156" y="234.32500839233398" text-anchor="middle" dominant-baseline="text-after-edge">let</text><path fill="none" stroke="#505050" paint-order="fill stroke markers" d=" M 250.77188110351562 234.32500839233398 L 258.7718811035156 234.32500839233398 L 258.7718811035156 242.32500839233398 L 250.77188110351562 242.32500839233398 L 250.77188110351562 234.32500839233398 Z" stroke-miterlimit="10" stroke-width="0.5" stroke-dasharray="0"/><path fill="none" stroke="#505050" paint-order="fill stroke markers" d=" M 282.7718811035156 234.32500839233398 L 290.7718811035156 234.32500839233398 L 290.7718811035156 242.32500839233398 L 282.7718811035156 242.32500839233398 L 282.7718811035156 234.32500839233398 Z" stroke-miterlimit="10" stroke-width="0.5" stroke-dasharray="0"/><path fill="none" stroke="#505050" paint-order="fill stroke markers" d=" M 266.7718811035156 246.32500839233398 L 290.7718811035156 246.32500839233398 L 290.7718811035156 262.325008392334 L 266.7718811035156 262.325008392334 L 266.7718811035156 246.32500839233398 Z" stroke-miterlimit="10" stroke-width="0.5" stroke-dasharray="0"/><path fill="none" stroke="#505050" paint-order="fill stroke markers" d=" M 266.7718811035156 250.32500839233398 L 274.7718811035156 250.32500839233398 L 274.7718811035156 258.325008392334 L 266.7718811035156 258.325008392334 L 266.7718811035156 250.32500839233398 Z" stroke-miterlimit="10" stroke-width="0.5" stroke-dasharray="0"/><path fill="none" stroke="#505050" paint-order="fill stroke markers" d=" M 282.7718811035156 250.32500839233398 L 290.7718811035156 250.32500839233398 L 290.7718811035156 258.325008392334 L 282.7718811035156 258.325008392334 L 282.7718811035156 250.32500839233398 Z" stroke-miterlimit="10" stroke-width="0.5" stroke-dasharray="0"/><path fill="white" stroke="#505050" paint-order="fill stroke markers" d=" M 332.0280876159668 260.74059295654297 L 332.0280876159668 339.75940895080566 Q 332.0280876159668 347.75940895080566 340.0280876159668 347.75940895080566 L 450.590576171875 347.75940895080566 Q 458.590576171875 347.75940895080566 458.590576171875 339.75940895080566 L 458.590576171875 260.74059295654297 Q 458.590576171875 252.74059295654297 450.590576171875 252.74059295654297 L 340.0280876159668 252.74059295654297 Q 332.0280876159668 252.74059295654297 332.0280876159668 260.74059295654297" stroke-miterlimit="10" stroke-width="0.5" stroke-dasharray="0"/><path fill="#F0F0F0" stroke="#505050" paint-order="fill stroke markers" d=" M 426.590576171875 260.74059295654297 L 458.590576171875 260.74059295654297 L 458.590576171875 296.74059295654297 L 426.590576171875 296.74059295654297 L 426.590576171875 260.74059295654297 Z" stroke-miterlimit="10" stroke-width="0.5" stroke-dasharray="6,3"/><path fill="none" stroke="#505050" paint-order="fill stroke markers" d=" M 450.590576171875 264.74059295654297 L 458.590576171875 264.74059295654297 L 458.590576171875 272.74059295654297 L 450.590576171875 272.74059295654297 L 450.590576171875 264.74059295654297 Z" stroke-miterlimit="10" stroke-width="0.5" stroke-dasharray="0"/><path fill="none" stroke="#505050" paint-order="fill stroke markers" d=" M 434.590576171875 276.74059295654297 L 458.590576171875 276.74059295654297 L 458.590576171875 292.74059295654297 L 434.590576171875 292.74059295654297 L 434.590576171875 276.74059295654297 Z" stroke-miterlimit="10" stroke-width="0.5" stroke-dasharray="0"/><path fill="none" stroke="#505050" paint-order="fill stroke markers" d=" M 434.590576171875 280.74059295654297 L 442.590576171875 280.74059295654297 L 442.590576171875 288.74059295654297 L 434.590576171875 288.74059295654297 L 434.590576171875 280.74059295654297 Z" stroke-miterlimit="10" stroke-width="0.5" stroke-dasharray="0"/><path fill="none" stroke="#505050" paint-order="fill stroke markers" d=" M 450.590576171875 280.74059295654297 L 458.590576171875 280.74059295654297 L 458.590576171875 288.74059295654297 L 450.590576171875 288.74059295654297 L 450.590576171875 280.74059295654297 Z" stroke-miterlimit="10" stroke-width="0.5" stroke-dasharray="0"/><path fill="white" stroke="#505050" paint-order="fill stroke markers" d=" M 390.99988174438477 260.0437545776367 L 398.99988174438477 260.0437545776367 L 406.99988174438477 268.0437545776367 L 398.99988174438477 276.0437545776367 L 390.99988174438477 276.0437545776367 L 390.99988174438477 260.0437545776367" stroke-miterlimit="10" stroke-width="0.5" stroke-dasharray="0"/><path fill="none" stroke="#505050" paint-order="fill stroke markers" d=" M 390.99988174438477 264.0437545776367 L 398.99988174438477 264.0437545776367 L 398.99988174438477 272.0437545776367 L 390.99988174438477 272.0437545776367 L 390.99988174438477 264.0437545776367 Z" stroke-miterlimit="10" stroke-width="0.5" stroke-dasharray="0"/><path fill="white" stroke="#505050" paint-order="fill stroke markers" d=" M 338.7124481201172 299.06565856933594 L 338.7124481201172 323.75940895080566 Q 338.7124481201172 331.75940895080566 346.7124481201172 331.75940895080566 L 403.9124450683594 331.75940895080566 Q 411.9124450683594 331.75940895080566 411.9124450683594 323.75940895080566 L 411.9124450683594 299.06565856933594 Q 411.9124450683594 291.06565856933594 403.9124450683594 291.06565856933594 L 346.7124481201172 291.06565856933594 Q 338.7124481201172 291.06565856933594 338.7124481201172 299.06565856933594" stroke-miterlimit="10" stroke-width="0.5" stroke-dasharray="0"/><path fill="#F0F0F0" stroke="#505050" paint-order="fill stroke markers" d=" M 387.9124450683594 299.06565856933594 L 411.9124450683594 299.06565856933594 L 411.9124450683594 315.06565856933594 L 387.9124450683594 315.06565856933594 L 387.9124450683594 299.06565856933594 Z" stroke-miterlimit="10" stroke-width="0.5" stroke-dasharray="6,3"/><path fill="none" stroke="#505050" paint-order="fill stroke markers" d=" M 387.9124450683594 303.06565856933594 L 395.9124450683594 303.06565856933594 L 395.9124450683594 311.06565856933594 L 387.9124450683594 311.06565856933594 L 387.9124450683594 303.06565856933594 Z" stroke-miterlimit="10" stroke-width="0.5" stroke-dasharray="0"/><path fill="none" stroke="#505050" paint-order="fill stroke markers" d=" M 403.9124450683594 303.06565856933594 L 411.9124450683594 303.06565856933594 L 411.9124450683594 311.06565856933594 L 403.9124450683594 311.06565856933594 L 403.9124450683594 303.06565856933594 Z" stroke-miterlimit="10" stroke-width="0.5" stroke-dasharray="0"/><path fill="white" stroke="#505050" paint-order="fill stroke markers" d=" M 343.6030788421631 297.0781726837158 L 359.6030788421631 297.0781726837158 L 359.6030788421631 313.0781726837158 L 343.6030788421631 313.0781726837158 L 351.6030788421631 305.0781726837158 L 343.6030788421631 297.0781726837158" stroke-miterlimit="10" stroke-width="0.5" stroke-dasharray="0"/><path fill="none" stroke="#505050" paint-order="fill stroke markers" d=" M 351.6030788421631 301.0781726837158 L 359.6030788421631 301.0781726837158 L 359.6030788421631 309.0781726837158 L 351.6030788421631 309.0781726837158 L 351.6030788421631 301.0781726837158 Z" stroke-miterlimit="10" stroke-width="0.5" stroke-dasharray="0"/><path fill="white" stroke="#505050" paint-order="fill stroke markers" d=" M 366.2061767578125 296.2719211578369 L 374.2061767578125 296.2719211578369 L 382.2061767578125 304.2719211578369 L 374.2061767578125 312.2719211578369 L 366.2061767578125 312.2719211578369 L 366.2061767578125 296.2719211578369" stroke-miterlimit="10" stroke-width="0.5" stroke-dasharray="0"/><path fill="none" stroke="#505050" paint-order="fill stroke markers" d=" M 366.2061767578125 300.2719211578369 L 374.2061767578125 300.2719211578369 L 374.2061767578125 308.2719211578369 L 366.2061767578125 308.2719211578369 L 366.2061767578125 300.2719211578369 Z" stroke-miterlimit="10" stroke-width="0.5" stroke-dasharray="0"/><path fill="white" stroke="#505050" paint-order="fill stroke markers" d=" M 426.08746337890625 299.2406768798828 L 434.08746337890625 299.2406768798828 L 442.08746337890625 307.2406768798828 L 434.08746337890625 315.2406768798828 L 426.08746337890625 315.2406768798828 L 426.08746337890625 299.2406768798828" stroke-miterlimit="10" stroke-width="0.5" stroke-dasharray="0"/><path fill="none" stroke="#505050" paint-order="fill stroke markers" d=" M 426.08746337890625 303.2406768798828 L 434.08746337890625 303.2406768798828 L 434.08746337890625 311.2406768798828 L 426.08746337890625 311.2406768798828 L 426.08746337890625 303.2406768798828 Z" stroke-miterlimit="10" stroke-width="0.5" stroke-dasharray="0"/><path fill="none" stroke="#505050" paint-order="fill stroke markers" d=" M 704.6813125610352 188.76564979553223 C 707.9769799087001 188.76564979553223 712.3668463852453 189.07500648498535 715.6625137329102 189.07500648498535" stroke-miterlimit="10" stroke-dasharray="0"/><path fill="none" stroke="#505050" paint-order="fill stroke markers" d=" M 565.8749633729458 148.65000915527344 C 580.3730985550022 148.65000915527344 588.6175264390373 117.8499984741211 603.1156616210938 117.8499984741211" stroke-miterlimit="10" stroke-dasharray="0"/><path fill="none" stroke="#505050" paint-order="fill stroke markers" d=" M 566.7936645448208 196.6593780517578 C 584.106313756454 196.6593780517578 599.5686374094605 167.9968719482422 616.8812866210938 167.9968719482422" stroke-miterlimit="10" stroke-dasharray="0"/><path fill="none" stroke="#505050" paint-order="fill stroke markers" d=" M 627.1156616210938 117.8499984741211 C 655.5578006508587 117.8499984741211 601.9641109702351 212.60000610351562 630.40625 212.60000610351562" stroke-miterlimit="10" stroke-dasharray="0"/><path fill="none" stroke="#505050" paint-order="fill stroke markers" d=" M 627.1156616210938 117.8499984741211 C 653.7773901972075 117.8499984741211 654.0195839849214 188.76564979553223 680.6813125610352 188.76564979553223" stroke-miterlimit="10" stroke-dasharray="0"/><path fill="none" stroke="#505050" paint-order="fill stroke markers" d=" M 640.8812866210938 167.9968719482422 C 656.347544668154 167.9968719482422 665.2150545139749 200.76564979553223 680.6813125610352 200.76564979553223" stroke-miterlimit="10" stroke-dasharray="0"/><path fill="none" stroke="#505050" paint-order="fill stroke markers" d=" M 654.40625 212.60000610351562 C 662.2889254048173 212.60000610351562 672.7986371562179 212.76564979553223 680.6813125610352 212.76564979553223" stroke-miterlimit="10" stroke-dasharray="0"/><path fill="none" stroke="#505050" paint-order="fill stroke markers" d=" M 411.9124450683594 307.06565856933594 C 416.1652746906465 307.06565856933594 421.8346337566191 307.2406768798828 426.08746337890625 307.2406768798828" stroke-miterlimit="10" stroke-dasharray="0"/></g></g></svg>