<svg version="1.1" xmlns="http://www.w3.org/2000/svg" xmlns:xlink="http://www.w3.org/1999/xlink" width="514.7124328613281" height="145.884370803833"><defs/><g transform="translate(-388.27190551161766,-109.75625610351562)"><g><path fill="white" stroke="#505050" paint-order="fill stroke markers" d=" M 389.27190551161766 203.20624542236328 L 389.27190551161766 233.20624542236328 Q 389.27190551161766 241.20624542236328 397.27190551161766 241.20624542236328 L 467.64998015761375 241.20624542236328 Q 475.64998015761375 241.20624542236328 475.64998015761375 233.20624542236328 L 475.64998015761375 203.20624542236328 Q 475.64998015761375 195.20624542236328 467.64998015761375 195.20624542236328 L 397.27190551161766 195.20624542236328 Q 389.27190551161766 195.20624542236328 389.27190551161766 203.20624542236328" stroke-miterlimit="10" stroke-width="0.5" stroke-dasharray=""/><path fill="#F0F0F0" stroke="#505050" paint-order="fill stroke markers" d=" M 442.64998015761375 203.20624542236328 L 475.64998015761375 203.20624542236328 L 475.64998015761375 233.20624542236328 L 442.64998015761375 233.20624542236328 L 442.64998015761375 203.20624542236328 Z" stroke-miterlimit="10" stroke-width="0.5" stroke-dasharray="6,3"/><text fill="#505050" stroke="none" font-family="monospace" font-size="14px" font-style="normal" font-weight="normal" text-decoration="normal" x="459.14998015761375" y="221.20624542236328" text-anchor="middle" dominant-baseline="text-after-edge">get</text><path fill="none" stroke="#505050" paint-order="fill stroke markers" d=" M 442.64998015761375 221.20624542236328 L 450.64998015761375 221.20624542236328 L 450.64998015761375 229.20624542236328 L 442.64998015761375 229.20624542236328 L 442.64998015761375 221.20624542236328 Z" stroke-miterlimit="10" stroke-width="0.5" stroke-dasharray="0"/><path fill="none" stroke="#505050" paint-order="fill stroke markers" d=" M 467.64998015761375 221.20624542236328 L 475.64998015761375 221.20624542236328 L 475.64998015761375 229.20624542236328 L 467.64998015761375 229.20624542236328 L 467.64998015761375 221.20624542236328 Z" stroke-miterlimit="10" stroke-width="0.5" stroke-dasharray="0"/><path fill="white" stroke="#505050" paint-order="fill stroke markers" d=" M 395.18753013014793 202.24375343322754 L 411.18753013014793 202.24375343322754 L 411.18753013014793 218.24375343322754 L 395.18753013014793 218.24375343322754 L 403.18753013014793 210.24375343322754 L 395.18753013014793 202.24375343322754" stroke-miterlimit="10" stroke-width="0.5" stroke-dasharray="0"/><path fill="none" stroke="#505050" paint-order="fill stroke markers" d=" M 403.18753013014793 206.24375343322754 L 411.18753013014793 206.24375343322754 L 411.18753013014793 214.24375343322754 L 403.18753013014793 214.24375343322754 L 403.18753013014793 206.24375343322754 Z" stroke-miterlimit="10" stroke-width="0.5" stroke-dasharray="0"/><path fill="white" stroke="#505050" paint-order="fill stroke markers" d=" M 420.0625167787075 202.29062461853027 L 428.0625167787075 202.29062461853027 L 436.0625167787075 210.29062461853027 L 428.0625167787075 218.29062461853027 L 420.0625167787075 218.29062461853027 L 420.0625167787075 202.29062461853027" stroke-miterlimit="10" stroke-width="0.5" stroke-dasharray="0"/><path fill="none" stroke="#505050" paint-order="fill stroke markers" d=" M 420.0625167787075 206.29062461853027 L 428.0625167787075 206.29062461853027 L 428.0625167787075 214.29062461853027 L 420.0625167787075 214.29062461853027 L 420.0625167787075 206.29062461853027 Z" stroke-miterlimit="10" stroke-width="0.5" stroke-dasharray="0"/><path fill="white" stroke="#505050" paint-order="fill stroke markers" d=" M 503.8094116151333 184.04687118530273 L 503.8094116151333 245.91563415527344 Q 503.8094116151333 253.91563415527344 511.8094116151333 253.91563415527344 L 610.9438110291958 253.91563415527344 Q 618.9438110291958 253.91563415527344 618.9438110291958 245.91563415527344 L 618.9438110291958 184.04687118530273 Q 618.9438110291958 176.04687118530273 610.9438110291958 176.04687118530273 L 511.8094116151333 176.04687118530273 Q 503.8094116151333 176.04687118530273 503.8094116151333 184.04687118530273" stroke-miterlimit="10" stroke-width="0.5" stroke-dasharray="0"/><path fill="#F0F0F0" stroke="#505050" paint-order="fill stroke markers" d=" M 585.9438110291958 184.04687118530273 L 618.9438110291958 184.04687118530273 L 618.9438110291958 234.04687118530273 L 585.9438110291958 234.04687118530273 L 585.9438110291958 184.04687118530273 Z" stroke-miterlimit="10" stroke-width="0.5" stroke-dasharray="6,3"/><text fill="#505050" stroke="none" font-family="monospace" font-size="14px" font-style="normal" font-weight="normal" text-decoration="normal" x="602.4438110291958" y="202.04687118530273" text-anchor="middle" dominant-baseline="text-after-edge">var</text><path fill="none" stroke="#505050" paint-order="fill stroke markers" d=" M 610.9438110291958 202.04687118530273 L 618.9438110291958 202.04687118530273 L 618.9438110291958 210.04687118530273 L 610.9438110291958 210.04687118530273 L 610.9438110291958 202.04687118530273 Z" stroke-miterlimit="10" stroke-width="0.5" stroke-dasharray="0"/><path fill="none" stroke="#505050" paint-order="fill stroke markers" d=" M 594.9438110291958 214.04687118530273 L 618.9438110291958 214.04687118530273 L 618.9438110291958 230.04687118530273 L 594.9438110291958 230.04687118530273 L 594.9438110291958 214.04687118530273 Z" stroke-miterlimit="10" stroke-width="0.5" stroke-dasharray="0"/><path fill="none" stroke="#505050" paint-order="fill stroke markers" d=" M 594.9438110291958 218.04687118530273 L 602.9438110291958 218.04687118530273 L 602.9438110291958 226.04687118530273 L 594.9438110291958 226.04687118530273 L 594.9438110291958 218.04687118530273 Z" stroke-miterlimit="10" stroke-width="0.5" stroke-dasharray="0"/><path fill="none" stroke="#505050" paint-order="fill stroke markers" d=" M 610.9438110291958 218.04687118530273 L 618.9438110291958 218.04687118530273 L 618.9438110291958 226.04687118530273 L 610.9438110291958 226.04687118530273 L 610.9438110291958 218.04687118530273 Z" stroke-miterlimit="10" stroke-width="0.5" stroke-dasharray="0"/><path fill="white" stroke="#505050" paint-order="fill stroke markers" d=" M 530.2437568604946 179.2249870300293 L 538.2437568604946 179.2249870300293 L 546.2437568604946 187.2249870300293 L 538.2437568604946 195.2249870300293 L 530.2437568604946 195.2249870300293 L 530.2437568604946 179.2249870300293" stroke-miterlimit="10" stroke-width="0.5" stroke-dasharray="0"/><path fill="none" stroke="#505050" paint-order="fill stroke markers" d=" M 530.2437568604946 183.2249870300293 L 538.2437568604946 183.2249870300293 L 538.2437568604946 191.2249870300293 L 530.2437568604946 191.2249870300293 L 530.2437568604946 183.2249870300293 Z" stroke-miterlimit="10" stroke-width="0.5" stroke-dasharray="0"/><path fill="none" stroke="none"/><path fill="white" stroke="#505050" paint-order="fill stroke markers" d=" M 509.6437927186489 199.91563415527344 L 550.6437927186489 199.91563415527344 L 558.6437927186489 218.91563415527344 L 550.6437927186489 237.91563415527344 L 509.6437927186489 237.91563415527344 L 509.6437927186489 199.91563415527344" stroke-miterlimit="10" stroke-width="0.5" stroke-dasharray="6,3"/><path fill="white" stroke="#505050" paint-order="fill stroke markers" d=" M 517.6437927186489 203.91563415527344 L 550.6437927186489 203.91563415527344 L 550.6437927186489 233.91563415527344 L 517.6437927186489 233.91563415527344 L 517.6437927186489 203.91563415527344 Z" stroke-miterlimit="10" stroke-width="0.5" stroke-dasharray="6,3"/><path fill="#F0F0F0" stroke="none" paint-order="stroke fill markers" d=""/><text fill="#505050" stroke="none" font-family="monospace" font-size="14px" font-style="normal" font-weight="normal" text-decoration="normal" x="534.1437927186489" y="221.91563415527344" text-anchor="middle" dominant-baseline="text-after-edge">get</text><path fill="none" stroke="#505050" paint-order="fill stroke markers" d=" M 517.6437927186489 221.91563415527344 L 525.6437927186489 221.91563415527344 L 525.6437927186489 229.91563415527344 L 517.6437927186489 229.91563415527344 L 517.6437927186489 221.91563415527344 Z" stroke-miterlimit="10" stroke-width="0.5" stroke-dasharray="0"/><path fill="none" stroke="#505050" paint-order="fill stroke markers" d=" M 542.6437927186489 221.91563415527344 L 550.6437927186489 221.91563415527344 L 550.6437927186489 229.91563415527344 L 542.6437927186489 229.91563415527344 L 542.6437927186489 221.91563415527344 Z" stroke-miterlimit="10" stroke-width="0.5" stroke-dasharray="0"/><path fill="#e0e0e0" stroke="none" paint-order="stroke fill markers" d=" M 483.64998015761375 218.20624542236328 L 475.64998015761375 203.20624542236328 L 475.64998015761375 233.20624542236328 Z M 509.6437927186489 218.91563415527344 L 517.6437927186489 203.91563415527344 L 517.6437927186489 233.91563415527344 Z"/><path fill="none" stroke="none"/><path fill="none" stroke="#e0e0e0" paint-order="fill stroke markers" d=" M 483.64998015761375 218.20624542236328 C 491.45102734019986 218.20624542236328 501.8427455360628 218.91563415527344 509.6437927186489 218.91563415527344" stroke-miterlimit="10" stroke-width="2" stroke-dasharray="0"/><path fill="white" stroke="#505050" paint-order="fill stroke markers" d=" M 663.6281372010708 118.75625610351562 L 663.6281372010708 246.64062690734863 Q 663.6281372010708 254.64062690734863 671.6281372010708 254.64062690734863 L 893.9843383729458 254.64062690734863 Q 901.9843383729458 254.64062690734863 901.9843383729458 246.64062690734863 L 901.9843383729458 118.75625610351562 Q 901.9843383729458 110.75625610351562 893.9843383729458 110.75625610351562 L 671.6281372010708 110.75625610351562 Q 663.6281372010708 110.75625610351562 663.6281372010708 118.75625610351562" stroke-miterlimit="10" stroke-width="0.5" stroke-dasharray="0"/><path fill="#F0F0F0" stroke="#505050" paint-order="fill stroke markers" d=" M 859.9843383729458 118.75625610351562 L 901.9843383729458 118.75625610351562 L 901.9843383729458 148.75625610351562 L 859.9843383729458 148.75625610351562 L 859.9843383729458 118.75625610351562 Z" stroke-miterlimit="10" stroke-width="0.5" stroke-dasharray="0"/><text fill="#505050" stroke="none" font-family="monospace" font-size="14px" font-style="normal" font-weight="normal" text-decoration="normal" x="880.9843383729458" y="136.75625610351562" text-anchor="middle" dominant-baseline="text-after-edge">swap</text><path fill="none" stroke="#505050" paint-order="fill stroke markers" d=" M 893.9843383729458 136.75625610351562 L 901.9843383729458 136.75625610351562 L 901.9843383729458 144.75625610351562 L 893.9843383729458 144.75625610351562 L 893.9843383729458 136.75625610351562 Z" stroke-miterlimit="10" stroke-width="0.5" stroke-dasharray="0"/><path fill="white" stroke="#505050" paint-order="fill stroke markers" d=" M 672.668725579977 176.55938720703125 L 705.668725579977 176.55938720703125 L 705.668725579977 226.55938720703125 L 672.668725579977 226.55938720703125 L 672.668725579977 176.55938720703125 Z" stroke-miterlimit="10" stroke-width="0.5" stroke-dasharray="6,3"/><path fill="#F0F0F0" stroke="none" paint-order="stroke fill markers" d=" M 681.668725579977 206.55938720703125 L 705.668725579977 206.55938720703125 L 705.668725579977 222.55938720703125 L 681.668725579977 222.55938720703125 L 681.668725579977 206.55938720703125 Z"/><text fill="#505050" stroke="none" font-family="monospace" font-size="14px" font-style="normal" font-weight="normal" text-decoration="normal" x="689.168725579977" y="194.55938720703125" text-anchor="middle" dominant-baseline="text-after-edge">var</text><path fill="none" stroke="#505050" paint-order="fill stroke markers" d=" M 697.668725579977 194.55938720703125 L 705.668725579977 194.55938720703125 L 705.668725579977 202.55938720703125 L 697.668725579977 202.55938720703125 L 697.668725579977 194.55938720703125 Z" stroke-miterlimit="10" stroke-width="0.5" stroke-dasharray="0"/><path fill="none" stroke="#505050" paint-order="fill stroke markers" d=" M 681.668725579977 206.55938720703125 L 705.668725579977 206.55938720703125 L 705.668725579977 222.55938720703125 L 681.668725579977 222.55938720703125 L 681.668725579977 206.55938720703125 Z" stroke-miterlimit="10" stroke-width="0.5" stroke-dasharray="0"/><path fill="none" stroke="#505050" paint-order="fill stroke markers" d=" M 681.668725579977 210.55938720703125 L 689.668725579977 210.55938720703125 L 689.668725579977 218.55938720703125 L 681.668725579977 218.55938720703125 L 681.668725579977 210.55938720703125 Z" stroke-miterlimit="10" stroke-width="0.5" stroke-dasharray="0"/><path fill="none" stroke="#505050" paint-order="fill stroke markers" d=" M 697.668725579977 210.55938720703125 L 705.668725579977 210.55938720703125 L 705.668725579977 218.55938720703125 L 697.668725579977 218.55938720703125 L 697.668725579977 210.55938720703125 Z" stroke-miterlimit="10" stroke-width="0.5" stroke-dasharray="0"/><path fill="#e0e0e0" stroke="none" paint-order="stroke fill markers" d=" M 626.9438110291958 209.04687118530273 L 618.9438110291958 184.04687118530273 L 618.9438110291958 234.04687118530273 Z M 664.668725579977 201.55938720703125 L 672.668725579977 176.55938720703125 L 672.668725579977 226.55938720703125 Z"/><path fill="none" stroke="none"/><path fill="none" stroke="#e0e0e0" paint-order="fill stroke markers" d=" M 626.9438110291958 209.04687118530273 C 638.4820450135184 209.04687118530273 653.1304915956545 201.55938720703125 664.668725579977 201.55938720703125" stroke-miterlimit="10" stroke-width="2" stroke-dasharray="0"/><path fill="white" stroke="#505050" paint-order="fill stroke markers" d=" M 672.2562499940395 119.91250610351562 L 705.2562499940395 119.91250610351562 L 705.2562499940395 169.91250610351562 L 672.2562499940395 169.91250610351562 L 672.2562499940395 119.91250610351562 Z" stroke-miterlimit="10" stroke-width="0.5" stroke-dasharray="6,3"/><path fill="#F0F0F0" stroke="none" paint-order="stroke fill markers" d=" M 681.2562499940395 149.91250610351562 L 705.2562499940395 149.91250610351562 L 705.2562499940395 165.91250610351562 L 681.2562499940395 165.91250610351562 L 681.2562499940395 149.91250610351562 Z"/><text fill="#505050" stroke="none" font-family="monospace" font-size="14px" font-style="normal" font-weight="normal" text-decoration="normal" x="688.7562499940395" y="137.91250610351562" text-anchor="middle" dominant-baseline="text-after-edge">var</text><path fill="none" stroke="#505050" paint-order="fill stroke markers" d=" M 697.2562499940395 137.91250610351562 L 705.2562499940395 137.91250610351562 L 705.2562499940395 145.91250610351562 L 697.2562499940395 145.91250610351562 L 697.2562499940395 137.91250610351562 Z" stroke-miterlimit="10" stroke-width="0.5" stroke-dasharray="0"/><path fill="none" stroke="#505050" paint-order="fill stroke markers" d=" M 681.2562499940395 149.91250610351562 L 705.2562499940395 149.91250610351562 L 705.2562499940395 165.91250610351562 L 681.2562499940395 165.91250610351562 L 681.2562499940395 149.91250610351562 Z" stroke-miterlimit="10" stroke-width="0.5" stroke-dasharray="0"/><path fill="none" stroke="#505050" paint-order="fill stroke markers" d=" M 681.2562499940395 153.91250610351562 L 689.2562499940395 153.91250610351562 L 689.2562499940395 161.91250610351562 L 681.2562499940395 161.91250610351562 L 681.2562499940395 153.91250610351562 Z" stroke-miterlimit="10" stroke-width="0.5" stroke-dasharray="0"/><path fill="none" stroke="#505050" paint-order="fill stroke markers" d=" M 697.2562499940395 153.91250610351562 L 705.2562499940395 153.91250610351562 L 705.2562499940395 161.91250610351562 L 697.2562499940395 161.91250610351562 L 697.2562499940395 153.91250610351562 Z" stroke-miterlimit="10" stroke-width="0.5" stroke-dasharray="0"/><path fill="#e0e0e0" stroke="none" paint-order="stroke fill markers" d=" M 626.9438110291958 209.04687118530273 L 618.9438110291958 184.04687118530273 L 618.9438110291958 234.04687118530273 Z M 664.2562499940395 144.91250610351562 L 672.2562499940395 119.91250610351562 L 672.2562499940395 169.91250610351562 Z"/><path fill="none" stroke="none"/><path fill="none" stroke="#e0e0e0" paint-order="fill stroke markers" d=" M 626.9438110291958 209.04687118530273 C 649.2033963742875 209.04687118530273 641.9966646489478 144.91250610351562 664.2562499940395 144.91250610351562" stroke-miterlimit="10" stroke-width="2" stroke-dasharray="0"/><path fill="white" stroke="#505050" paint-order="fill stroke markers" d=" M 741.5782104432583 162.25 L 765.5782104432583 162.25 L 765.5782104432583 178.25 L 741.5782104432583 178.25 L 741.5782104432583 162.25 Z" stroke-miterlimit="10" stroke-width="0.5" stroke-dasharray="0"/><path fill="#F0F0F0" stroke="none" paint-order="stroke fill markers" d=""/><path fill="none" stroke="#505050" paint-order="fill stroke markers" d=" M 741.5782104432583 166.25 L 749.5782104432583 166.25 L 749.5782104432583 174.25 L 741.5782104432583 174.25 L 741.5782104432583 166.25 Z" stroke-miterlimit="10" stroke-width="0.5" stroke-dasharray="0"/><path fill="none" stroke="#505050" paint-order="fill stroke markers" d=" M 757.5782104432583 166.25 L 765.5782104432583 166.25 L 765.5782104432583 174.25 L 757.5782104432583 174.25 L 757.5782104432583 166.25 Z" stroke-miterlimit="10" stroke-width="0.5" stroke-dasharray="0"/><path fill="#e0e0e0" stroke="none" paint-order="stroke fill markers" d=" M 713.2562499940395 157.91250610351562 L 705.2562499940395 149.91250610351562 L 705.2562499940395 165.91250610351562 Z M 733.5782104432583 170.25 L 741.5782104432583 162.25 L 741.5782104432583 178.25 Z"/><path fill="none" stroke="none"/><path fill="none" stroke="#e0e0e0" paint-order="fill stroke markers" d=" M 713.2562499940395 157.91250610351562 C 720.3884042894181 157.91250610351562 726.4460561478797 170.25 733.5782104432583 170.25" stroke-miterlimit="10" stroke-width="2" stroke-dasharray="0"/><path fill="white" stroke="#505050" paint-order="fill stroke markers" d=" M 740.3968749940395 198.86563110351562 L 764.3968749940395 198.86563110351562 L 764.3968749940395 214.86563110351562 L 740.3968749940395 214.86563110351562 L 740.3968749940395 198.86563110351562 Z" stroke-miterlimit="10" stroke-width="0.5" stroke-dasharray="0"/><path fill="#F0F0F0" stroke="none" paint-order="stroke fill markers" d=""/><path fill="none" stroke="#505050" paint-order="fill stroke markers" d=" M 740.3968749940395 202.86563110351562 L 748.3968749940395 202.86563110351562 L 748.3968749940395 210.86563110351562 L 740.3968749940395 210.86563110351562 L 740.3968749940395 202.86563110351562 Z" stroke-miterlimit="10" stroke-width="0.5" stroke-dasharray="0"/><path fill="none" stroke="#505050" paint-order="fill stroke markers" d=" M 756.3968749940395 202.86563110351562 L 764.3968749940395 202.86563110351562 L 764.3968749940395 210.86563110351562 L 756.3968749940395 210.86563110351562 L 756.3968749940395 202.86563110351562 Z" stroke-miterlimit="10" stroke-width="0.5" stroke-dasharray="0"/><path fill="#e0e0e0" stroke="none" paint-order="stroke fill markers" d=" M 713.668725579977 214.55938720703125 L 705.668725579977 206.55938720703125 L 705.668725579977 222.55938720703125 Z M 732.3968749940395 206.86563110351562 L 740.3968749940395 198.86563110351562 L 740.3968749940395 214.86563110351562 Z"/><path fill="none" stroke="none"/><path fill="none" stroke="#e0e0e0" paint-order="fill stroke markers" d=" M 713.668725579977 214.55938720703125 C 719.7427993127387 214.55938720703125 726.3228012612778 206.86563110351562 732.3968749940395 206.86563110351562" stroke-miterlimit="10" stroke-width="2" stroke-dasharray="0"/><path fill="white" stroke="#505050" paint-order="fill stroke markers" d=" M 775.6875015199184 218.64062690734863 L 775.6875015199184 230.64062690734863 Q 775.6875015199184 238.64062690734863 783.6875015199184 238.64062690734863 L 791.6875015199184 238.64062690734863 Q 799.6875015199184 238.64062690734863 799.6875015199184 230.64062690734863 L 799.6875015199184 218.64062690734863 Q 799.6875015199184 210.64062690734863 791.6875015199184 210.64062690734863 L 783.6875015199184 210.64062690734863 Q 775.6875015199184 210.64062690734863 775.6875015199184 218.64062690734863" stroke-miterlimit="10" stroke-width="0.5" stroke-dasharray="0"/><path fill="none" stroke="#505050" paint-order="fill stroke markers" d=" M 775.6875015199184 214.64062690734863 L 783.6875015199184 214.64062690734863 L 783.6875015199184 222.64062690734863 L 775.6875015199184 222.64062690734863 L 775.6875015199184 214.64062690734863 Z" stroke-miterlimit="10" stroke-width="0.5" stroke-dasharray="0"/><path fill="none" stroke="#505050" paint-order="fill stroke markers" d=" M 775.6875015199184 226.64062690734863 L 783.6875015199184 226.64062690734863 L 783.6875015199184 234.64062690734863 L 775.6875015199184 234.64062690734863 L 775.6875015199184 226.64062690734863 Z" stroke-miterlimit="10" stroke-width="0.5" stroke-dasharray="0"/><path fill="none" stroke="#505050" paint-order="fill stroke markers" d=" M 791.6875015199184 214.64062690734863 L 799.6875015199184 214.64062690734863 L 799.6875015199184 222.64062690734863 L 791.6875015199184 222.64062690734863 L 791.6875015199184 214.64062690734863 Z" stroke-miterlimit="10" stroke-width="0.5" stroke-dasharray="0"/><path fill="white" stroke="#505050" paint-order="fill stroke markers" d=" M 822.9781127870083 222.25936889648438 L 830.9781127870083 222.25936889648438 L 838.9781127870083 230.25936889648438 L 830.9781127870083 238.25936889648438 L 822.9781127870083 238.25936889648438 L 822.9781127870083 222.25936889648438" stroke-miterlimit="10" stroke-width="0.5" stroke-dasharray="0"/><path fill="none" stroke="#505050" paint-order="fill stroke markers" d=" M 822.9781127870083 226.25936889648438 L 830.9781127870083 226.25936889648438 L 830.9781127870083 234.25936889648438 L 822.9781127870083 234.25936889648438 L 822.9781127870083 226.25936889648438 Z" stroke-miterlimit="10" stroke-width="0.5" stroke-dasharray="0"/><path fill="none" stroke="#505050" paint-order="fill stroke markers" d=" M 705.668725579977 198.55938720703125 C 719.3866746120498 198.55938720703125 727.8602614111855 170.25 741.5782104432583 170.25" stroke-miterlimit="10" stroke-dasharray="0"/><path fill="none" stroke="#505050" paint-order="fill stroke markers" d=" M 765.5782104432583 170.25 C 778.9098408255609 170.25 727.065244611737 206.86563110351562 740.3968749940395 206.86563110351562" stroke-miterlimit="10" stroke-dasharray="0"/><path fill="none" stroke="#505050" paint-order="fill stroke markers" d=" M 764.3968749940395 206.86563110351562 C 769.2909111215569 206.86563110351562 770.7934653924011 218.64062690734863 775.6875015199184 218.64062690734863" stroke-miterlimit="10" stroke-dasharray="0"/><path fill="none" stroke="#505050" paint-order="fill stroke markers" d=" M 799.6875015199184 218.64062690734863 C 807.4958493909108 218.64062690734863 815.1697649160159 230.25936889648438 822.9781127870083 230.25936889648438" stroke-miterlimit="10" stroke-dasharray="0"/></g></g></svg>