<svg version="1.1" xmlns="http://www.w3.org/2000/svg" xmlns:xlink="http://www.w3.org/1999/xlink" width="434.0921287536621" height="201.63184356689453"><defs/><g transform="translate(-357.5863151550293,-58.948692321777344)"><g><path fill="white" stroke="#505050" paint-order="fill stroke markers" d=" M 519.7150512635708 85.5208740234375 L 519.7150512635708 244.58053588867188 Q 519.7150512635708 252.58053588867188 527.7150512635708 252.58053588867188 L 775.6784439086914 252.58053588867188 Q 783.6784439086914 252.58053588867188 783.6784439086914 244.58053588867188 L 783.6784439086914 85.5208740234375 Q 783.6784439086914 77.5208740234375 775.6784439086914 77.5208740234375 L 527.7150512635708 77.5208740234375 Q 519.7150512635708 77.5208740234375 519.7150512635708 85.5208740234375" stroke-miterlimit="10" stroke-width="0.5" stroke-dasharray=""/><path fill="#F0F0F0" stroke="#505050" paint-order="fill stroke markers" d=" M 735.6784439086914 85.5208740234375 L 781.0117772420248 85.5208740234375 L 783.6784439086914 88.18754069010417 L 783.6784439086914 195.5208740234375 L 735.6784439086914 195.5208740234375 L 735.6784439086914 85.5208740234375" stroke-miterlimit="10" stroke-width="0.5" stroke-dasharray=""/><path fill="none" stroke="none"/><text fill="#505050" stroke="none" font-family="monospace" font-size="14px" font-style="normal" font-weight="normal" text-decoration="normal" x="759.6784439086914" y="103.5208740234375" text-anchor="middle" dominant-baseline="text-after-edge">swap</text><path fill="none" stroke="#505050" paint-order="fill stroke markers" d=" M 735.6784439086914 103.5208740234375 L 743.6784439086914 103.5208740234375 L 743.6784439086914 111.5208740234375 L 735.6784439086914 111.5208740234375 L 735.6784439086914 103.5208740234375 Z" stroke-miterlimit="10" stroke-width="0.5" stroke-dasharray=""/><path fill="none" stroke="#505050" paint-order="fill stroke markers" d=" M 735.6784439086914 115.5208740234375 L 767.6784439086914 115.5208740234375 L 767.6784439086914 151.5208740234375 L 735.6784439086914 151.5208740234375 L 735.6784439086914 115.5208740234375 Z" stroke-miterlimit="10" stroke-width="0.5" stroke-dasharray=""/><path fill="none" stroke="none"/><path fill="none" stroke="#505050" paint-order="fill stroke markers" d=" M 759.6784439086914 119.5208740234375 L 767.6784439086914 119.5208740234375 L 767.6784439086914 127.5208740234375 L 759.6784439086914 127.5208740234375 L 759.6784439086914 119.5208740234375 Z" stroke-miterlimit="10" stroke-width="0.5" stroke-dasharray=""/><path fill="none" stroke="#505050" paint-order="fill stroke markers" d=" M 743.6784439086914 131.5208740234375 L 767.6784439086914 131.5208740234375 L 767.6784439086914 147.5208740234375 L 743.6784439086914 147.5208740234375 L 743.6784439086914 131.5208740234375 Z" stroke-miterlimit="10" stroke-width="0.5" stroke-dasharray=""/><path fill="none" stroke="none"/><path fill="none" stroke="#505050" paint-order="fill stroke markers" d=" M 743.6784439086914 135.5208740234375 L 751.6784439086914 135.5208740234375 L 751.6784439086914 143.5208740234375 L 743.6784439086914 143.5208740234375 L 743.6784439086914 135.5208740234375 Z" stroke-miterlimit="10" stroke-width="0.5" stroke-dasharray=""/><path fill="none" stroke="#505050" paint-order="fill stroke markers" d=" M 759.6784439086914 135.5208740234375 L 767.6784439086914 135.5208740234375 L 767.6784439086914 143.5208740234375 L 759.6784439086914 143.5208740234375 L 759.6784439086914 135.5208740234375 Z" stroke-miterlimit="10" stroke-width="0.5" stroke-dasharray=""/><path fill="none" stroke="#505050" paint-order="fill stroke markers" d=" M 735.6784439086914 155.5208740234375 L 767.6784439086914 155.5208740234375 L 767.6784439086914 191.5208740234375 L 735.6784439086914 191.5208740234375 L 735.6784439086914 155.5208740234375 Z" stroke-miterlimit="10" stroke-width="0.5" stroke-dasharray=""/><path fill="none" stroke="none"/><path fill="none" stroke="#505050" paint-order="fill stroke markers" d=" M 759.6784439086914 159.5208740234375 L 767.6784439086914 159.5208740234375 L 767.6784439086914 167.5208740234375 L 759.6784439086914 167.5208740234375 L 759.6784439086914 159.5208740234375 Z" stroke-miterlimit="10" stroke-width="0.5" stroke-dasharray=""/><path fill="none" stroke="#505050" paint-order="fill stroke markers" d=" M 743.6784439086914 171.5208740234375 L 767.6784439086914 171.5208740234375 L 767.6784439086914 187.5208740234375 L 743.6784439086914 187.5208740234375 L 743.6784439086914 171.5208740234375 Z" stroke-miterlimit="10" stroke-width="0.5" stroke-dasharray=""/><path fill="none" stroke="none"/><path fill="none" stroke="#505050" paint-order="fill stroke markers" d=" M 743.6784439086914 175.5208740234375 L 751.6784439086914 175.5208740234375 L 751.6784439086914 183.5208740234375 L 743.6784439086914 183.5208740234375 L 743.6784439086914 175.5208740234375 Z" stroke-miterlimit="10" stroke-width="0.5" stroke-dasharray=""/><path fill="none" stroke="#505050" paint-order="fill stroke markers" d=" M 759.6784439086914 175.5208740234375 L 767.6784439086914 175.5208740234375 L 767.6784439086914 183.5208740234375 L 759.6784439086914 183.5208740234375 L 759.6784439086914 175.5208740234375 Z" stroke-miterlimit="10" stroke-width="0.5" stroke-dasharray=""/><path fill="none" stroke="#505050" paint-order="fill stroke markers" d=" M 775.6784439086914 103.5208740234375 L 783.6784439086914 103.5208740234375 L 783.6784439086914 111.5208740234375 L 775.6784439086914 111.5208740234375 L 775.6784439086914 103.5208740234375 Z" stroke-miterlimit="10" stroke-width="0.5" stroke-dasharray=""/><path fill="none" stroke="#505050" paint-order="fill stroke markers" d=" M 528.5310363769531 118.63877487182617 L 520.5310363769531 118.63877487182617" stroke-miterlimit="10" stroke-dasharray=""/><path fill="white" stroke="#505050" paint-order="fill stroke markers" d=" M 659.3034439086914 139.72799110412598 L 659.3034439086914 175.72799110412598 Q 659.3034439086914 183.72799110412598 667.3034439086914 183.72799110412598 L 675.3034439086914 183.72799110412598 Q 683.3034439086914 183.72799110412598 683.3034439086914 175.72799110412598 L 683.3034439086914 139.72799110412598 Q 683.3034439086914 131.72799110412598 675.3034439086914 131.72799110412598 L 667.3034439086914 131.72799110412598 Q 659.3034439086914 131.72799110412598 659.3034439086914 139.72799110412598" stroke-miterlimit="10" stroke-width="0.5" stroke-dasharray=""/><path fill="none" stroke="none"/><path fill="none" stroke="#505050" paint-order="fill stroke markers" d=" M 659.3034439086914 135.72799110412598 L 667.3034439086914 135.72799110412598 L 667.3034439086914 143.72799110412598 L 659.3034439086914 143.72799110412598 L 659.3034439086914 135.72799110412598 Z" stroke-miterlimit="10" stroke-width="0.5" stroke-dasharray=""/><path fill="none" stroke="#505050" paint-order="fill stroke markers" d=" M 659.3034439086914 147.72799110412598 L 667.3034439086914 147.72799110412598 L 667.3034439086914 155.72799110412598 L 659.3034439086914 155.72799110412598 L 659.3034439086914 147.72799110412598 Z" stroke-miterlimit="10" stroke-width="0.5" stroke-dasharray=""/><path fill="none" stroke="#505050" paint-order="fill stroke markers" d=" M 659.3034439086914 159.72799110412598 L 667.3034439086914 159.72799110412598 L 667.3034439086914 167.72799110412598 L 659.3034439086914 167.72799110412598 L 659.3034439086914 159.72799110412598 Z" stroke-miterlimit="10" stroke-width="0.5" stroke-dasharray=""/><path fill="none" stroke="#505050" paint-order="fill stroke markers" d=" M 659.3034439086914 171.72799110412598 L 667.3034439086914 171.72799110412598 L 667.3034439086914 179.72799110412598 L 659.3034439086914 179.72799110412598 L 659.3034439086914 171.72799110412598 Z" stroke-miterlimit="10" stroke-width="0.5" stroke-dasharray=""/><path fill="none" stroke="#505050" paint-order="fill stroke markers" d=" M 675.3034439086914 135.72799110412598 L 683.3034439086914 135.72799110412598 L 683.3034439086914 143.72799110412598 L 675.3034439086914 143.72799110412598 L 675.3034439086914 135.72799110412598 Z" stroke-miterlimit="10" stroke-width="0.5" stroke-dasharray=""/><path fill="white" stroke="#505050" paint-order="fill stroke markers" d=" M 528.5310363769531 96.63877487182617 L 568.5310363769531 96.63877487182617 L 568.5310363769531 146.63877487182617 L 528.5310363769531 146.63877487182617 L 528.5310363769531 96.63877487182617 Z" stroke-miterlimit="10" stroke-width="0.5" stroke-dasharray=""/><path fill="#F0F0F0" stroke="none" paint-order="stroke fill markers" d=" M 544.5310363769531 126.63877487182617 L 568.5310363769531 126.63877487182617 L 568.5310363769531 142.63877487182617 L 544.5310363769531 142.63877487182617 L 544.5310363769531 126.63877487182617 Z"/><path fill="none" stroke="none"/><text fill="#505050" stroke="none" font-family="monospace" font-size="14px" font-style="normal" font-weight="normal" text-decoration="normal" x="548.5310363769531" y="114.63877487182617" text-anchor="middle" dominant-baseline="text-after-edge">let</text><path fill="none" stroke="#505050" paint-order="fill stroke markers" d=" M 528.5310363769531 114.63877487182617 L 536.5310363769531 114.63877487182617 L 536.5310363769531 122.63877487182617 L 528.5310363769531 122.63877487182617 L 528.5310363769531 114.63877487182617 Z" stroke-miterlimit="10" stroke-width="0.5" stroke-dasharray=""/><path fill="none" stroke="#505050" paint-order="fill stroke markers" d=" M 560.5310363769531 114.63877487182617 L 568.5310363769531 114.63877487182617 L 568.5310363769531 122.63877487182617 L 560.5310363769531 122.63877487182617 L 560.5310363769531 114.63877487182617 Z" stroke-miterlimit="10" stroke-width="0.5" stroke-dasharray=""/><path fill="none" stroke="#505050" paint-order="fill stroke markers" d=" M 544.5310363769531 126.63877487182617 L 568.5310363769531 126.63877487182617 L 568.5310363769531 142.63877487182617 L 544.5310363769531 142.63877487182617 L 544.5310363769531 126.63877487182617 Z" stroke-miterlimit="10" stroke-width="0.5" stroke-dasharray=""/><path fill="none" stroke="none"/><path fill="none" stroke="#505050" paint-order="fill stroke markers" d=" M 544.5310363769531 130.63877487182617 L 552.5310363769531 130.63877487182617 L 552.5310363769531 138.63877487182617 L 544.5310363769531 138.63877487182617 L 544.5310363769531 130.63877487182617 Z" stroke-miterlimit="10" stroke-width="0.5" stroke-dasharray=""/><path fill="none" stroke="#505050" paint-order="fill stroke markers" d=" M 560.5310363769531 130.63877487182617 L 568.5310363769531 130.63877487182617 L 568.5310363769531 138.63877487182617 L 560.5310363769531 138.63877487182617 L 560.5310363769531 130.63877487182617 Z" stroke-miterlimit="10" stroke-width="0.5" stroke-dasharray=""/><path fill="none" stroke="none"/><path fill="white" stroke="#505050" paint-order="fill stroke markers" d=" M 606.7733154296875 122.70154571533203 L 628.1066487630209 122.70154571533203 L 630.7733154296875 125.3682123819987 L 630.7733154296875 138.70154571533203 L 606.7733154296875 138.70154571533203 L 606.7733154296875 122.70154571533203" stroke-miterlimit="10" stroke-width="0.5" stroke-dasharray=""/><path fill="#F0F0F0" stroke="none" paint-order="stroke fill markers" d=""/><path fill="none" stroke="none"/><path fill="none" stroke="#505050" paint-order="fill stroke markers" d=" M 606.7733154296875 126.70154571533203 L 614.7733154296875 126.70154571533203 L 614.7733154296875 134.70154571533203 L 606.7733154296875 134.70154571533203 L 606.7733154296875 126.70154571533203 Z" stroke-miterlimit="10" stroke-width="0.5" stroke-dasharray=""/><path fill="none" stroke="#505050" paint-order="fill stroke markers" d=" M 622.7733154296875 126.70154571533203 L 630.7733154296875 126.70154571533203 L 630.7733154296875 134.70154571533203 L 622.7733154296875 134.70154571533203 L 622.7733154296875 126.70154571533203 Z" stroke-miterlimit="10" stroke-width="0.5" stroke-dasharray=""/><path fill="white" stroke="#505050" paint-order="fill stroke markers" d=" M 529.4847045838833 200.58053588867188 L 561.4847045838833 200.58053588867188 L 561.4847045838833 236.58053588867188 L 529.4847045838833 236.58053588867188 L 529.4847045838833 200.58053588867188 Z" stroke-miterlimit="10" stroke-width="0.5" stroke-dasharray="6,3"/><path fill="#F0F0F0" stroke="none" paint-order="stroke fill markers" d=" M 537.4847045838833 216.58053588867188 L 561.4847045838833 216.58053588867188 L 561.4847045838833 232.58053588867188 L 537.4847045838833 232.58053588867188 L 537.4847045838833 216.58053588867188 Z"/><path fill="none" stroke="none"/><path fill="none" stroke="#505050" paint-order="fill stroke markers" d=" M 553.4847045838833 204.58053588867188 L 561.4847045838833 204.58053588867188 L 561.4847045838833 212.58053588867188 L 553.4847045838833 212.58053588867188 L 553.4847045838833 204.58053588867188 Z" stroke-miterlimit="10" stroke-width="0.5" stroke-dasharray="0"/><path fill="none" stroke="#505050" paint-order="fill stroke markers" d=" M 537.4847045838833 216.58053588867188 L 561.4847045838833 216.58053588867188 L 561.4847045838833 232.58053588867188 L 537.4847045838833 232.58053588867188 L 537.4847045838833 216.58053588867188 Z" stroke-miterlimit="10" stroke-width="0.5" stroke-dasharray="0"/><path fill="none" stroke="none"/><path fill="none" stroke="#505050" paint-order="fill stroke markers" d=" M 537.4847045838833 220.58053588867188 L 545.4847045838833 220.58053588867188 L 545.4847045838833 228.58053588867188 L 537.4847045838833 228.58053588867188 L 537.4847045838833 220.58053588867188 Z" stroke-miterlimit="10" stroke-width="0.5" stroke-dasharray="0"/><path fill="none" stroke="#505050" paint-order="fill stroke markers" d=" M 553.4847045838833 220.58053588867188 L 561.4847045838833 220.58053588867188 L 561.4847045838833 228.58053588867188 L 553.4847045838833 228.58053588867188 L 553.4847045838833 220.58053588867188 Z" stroke-miterlimit="10" stroke-width="0.5" stroke-dasharray="0"/><path fill="white" stroke="#505050" paint-order="fill stroke markers" d=" M 611.8359098434448 173.2109251022339 L 635.8359098434448 173.2109251022339 L 635.8359098434448 189.2109251022339 L 611.8359098434448 189.2109251022339 L 611.8359098434448 173.2109251022339 Z" stroke-miterlimit="10" stroke-width="0.5" stroke-dasharray="0"/><path fill="#F0F0F0" stroke="none" paint-order="stroke fill markers" d=""/><path fill="none" stroke="none"/><path fill="none" stroke="#505050" paint-order="fill stroke markers" d=" M 611.8359098434448 177.2109251022339 L 619.8359098434448 177.2109251022339 L 619.8359098434448 185.2109251022339 L 611.8359098434448 185.2109251022339 L 611.8359098434448 177.2109251022339 Z" stroke-miterlimit="10" stroke-width="0.5" stroke-dasharray="0"/><path fill="none" stroke="#505050" paint-order="fill stroke markers" d=" M 627.8359098434448 177.2109251022339 L 635.8359098434448 177.2109251022339 L 635.8359098434448 185.2109251022339 L 627.8359098434448 185.2109251022339 L 627.8359098434448 177.2109251022339 Z" stroke-miterlimit="10" stroke-width="0.5" stroke-dasharray="0"/><path fill="white" stroke="#505050" paint-order="fill stroke markers" d=" M 529.365014642477 154.57400512695312 L 561.365014642477 154.57400512695312 L 561.365014642477 190.57400512695312 L 529.365014642477 190.57400512695312 L 529.365014642477 154.57400512695312 Z" stroke-miterlimit="10" stroke-width="0.5" stroke-dasharray="6,3"/><path fill="#F0F0F0" stroke="none" paint-order="stroke fill markers" d=" M 537.365014642477 170.57400512695312 L 561.365014642477 170.57400512695312 L 561.365014642477 186.57400512695312 L 537.365014642477 186.57400512695312 L 537.365014642477 170.57400512695312 Z"/><path fill="none" stroke="none"/><path fill="none" stroke="#505050" paint-order="fill stroke markers" d=" M 553.365014642477 158.57400512695312 L 561.365014642477 158.57400512695312 L 561.365014642477 166.57400512695312 L 553.365014642477 166.57400512695312 L 553.365014642477 158.57400512695312 Z" stroke-miterlimit="10" stroke-width="0.5" stroke-dasharray="0"/><path fill="none" stroke="#505050" paint-order="fill stroke markers" d=" M 537.365014642477 170.57400512695312 L 561.365014642477 170.57400512695312 L 561.365014642477 186.57400512695312 L 537.365014642477 186.57400512695312 L 537.365014642477 170.57400512695312 Z" stroke-miterlimit="10" stroke-width="0.5" stroke-dasharray="0"/><path fill="none" stroke="none"/><path fill="none" stroke="#505050" paint-order="fill stroke markers" d=" M 537.365014642477 174.57400512695312 L 545.365014642477 174.57400512695312 L 545.365014642477 182.57400512695312 L 537.365014642477 182.57400512695312 L 537.365014642477 174.57400512695312 Z" stroke-miterlimit="10" stroke-width="0.5" stroke-dasharray="0"/><path fill="none" stroke="#505050" paint-order="fill stroke markers" d=" M 553.365014642477 174.57400512695312 L 561.365014642477 174.57400512695312 L 561.365014642477 182.57400512695312 L 553.365014642477 182.57400512695312 L 553.365014642477 174.57400512695312 Z" stroke-miterlimit="10" stroke-width="0.5" stroke-dasharray="0"/><path fill="white" stroke="#505050" paint-order="fill stroke markers" d=" M 610.6320524215698 148.39914226531982 L 634.6320524215698 148.39914226531982 L 634.6320524215698 164.39914226531982 L 610.6320524215698 164.39914226531982 L 610.6320524215698 148.39914226531982 Z" stroke-miterlimit="10" stroke-width="0.5" stroke-dasharray="0"/><path fill="#F0F0F0" stroke="none" paint-order="stroke fill markers" d=""/><path fill="none" stroke="none"/><path fill="none" stroke="#505050" paint-order="fill stroke markers" d=" M 610.6320524215698 152.39914226531982 L 618.6320524215698 152.39914226531982 L 618.6320524215698 160.39914226531982 L 610.6320524215698 160.39914226531982 L 610.6320524215698 152.39914226531982 Z" stroke-miterlimit="10" stroke-width="0.5" stroke-dasharray="0"/><path fill="none" stroke="#505050" paint-order="fill stroke markers" d=" M 626.6320524215698 152.39914226531982 L 634.6320524215698 152.39914226531982 L 634.6320524215698 160.39914226531982 L 626.6320524215698 160.39914226531982 L 626.6320524215698 152.39914226531982 Z" stroke-miterlimit="10" stroke-width="0.5" stroke-dasharray="0"/><path fill="white" stroke="#505050" paint-order="fill stroke markers" d=" M 696.5447111129761 131.48507976531982 L 704.5447111129761 131.48507976531982 L 712.5447111129761 139.48507976531982 L 704.5447111129761 147.48507976531982 L 696.5447111129761 147.48507976531982 L 696.5447111129761 131.48507976531982" stroke-miterlimit="10" stroke-width="0.5" stroke-dasharray="0"/><path fill="none" stroke="none"/><path fill="none" stroke="#505050" paint-order="fill stroke markers" d=" M 696.5447111129761 135.48507976531982 L 704.5447111129761 135.48507976531982 L 704.5447111129761 143.48507976531982 L 696.5447111129761 143.48507976531982 L 696.5447111129761 135.48507976531982 Z" stroke-miterlimit="10" stroke-width="0.5" stroke-dasharray="0"/><path fill="white" stroke="#505050" paint-order="fill stroke markers" d=" M 365.5863151550293 74.94869232177734 L 365.5863151550293 142.92702674865723 Q 365.5863151550293 150.92702674865723 373.5863151550293 150.92702674865723 L 476.567138671875 150.92702674865723 Q 484.567138671875 150.92702674865723 484.567138671875 142.92702674865723 L 484.567138671875 74.94869232177734 Q 484.567138671875 66.94869232177734 476.567138671875 66.94869232177734 L 373.5863151550293 66.94869232177734 Q 365.5863151550293 66.94869232177734 365.5863151550293 74.94869232177734" stroke-miterlimit="10" stroke-width="0.5" stroke-dasharray="0"/><path fill="#F0F0F0" stroke="#505050" paint-order="fill stroke markers" d=" M 452.567138671875 74.94869232177734 L 484.567138671875 74.94869232177734 L 484.567138671875 110.94869232177734 L 452.567138671875 110.94869232177734 L 452.567138671875 74.94869232177734 Z" stroke-miterlimit="10" stroke-width="0.5" stroke-dasharray="6,3"/><path fill="none" stroke="none"/><path fill="none" stroke="#505050" paint-order="fill stroke markers" d=" M 476.567138671875 78.94869232177734 L 484.567138671875 78.94869232177734 L 484.567138671875 86.94869232177734 L 476.567138671875 86.94869232177734 L 476.567138671875 78.94869232177734 Z" stroke-miterlimit="10" stroke-width="0.5" stroke-dasharray="0"/><path fill="none" stroke="#505050" paint-order="fill stroke markers" d=" M 460.567138671875 90.94869232177734 L 484.567138671875 90.94869232177734 L 484.567138671875 106.94869232177734 L 460.567138671875 106.94869232177734 L 460.567138671875 90.94869232177734 Z" stroke-miterlimit="10" stroke-width="0.5" stroke-dasharray="0"/><path fill="none" stroke="none"/><path fill="none" stroke="#505050" paint-order="fill stroke markers" d=" M 460.567138671875 94.94869232177734 L 468.567138671875 94.94869232177734 L 468.567138671875 102.94869232177734 L 460.567138671875 102.94869232177734 L 460.567138671875 94.94869232177734 Z" stroke-miterlimit="10" stroke-width="0.5" stroke-dasharray="0"/><path fill="none" stroke="#505050" paint-order="fill stroke markers" d=" M 476.567138671875 94.94869232177734 L 484.567138671875 94.94869232177734 L 484.567138671875 102.94869232177734 L 476.567138671875 102.94869232177734 L 476.567138671875 94.94869232177734 Z" stroke-miterlimit="10" stroke-width="0.5" stroke-dasharray="0"/><path fill="none" stroke="#505050" paint-order="fill stroke markers" d=" M 444.7214050292969 110.2332763671875 L 452.7214050292969 110.2332763671875" stroke-miterlimit="10" stroke-dasharray="0"/><path fill="white" stroke="#505050" paint-order="fill stroke markers" d=" M 427.661808013916 72.25967407226562 L 435.661808013916 72.25967407226562 L 443.661808013916 80.25967407226562 L 435.661808013916 88.25967407226562 L 427.661808013916 88.25967407226562 L 427.661808013916 72.25967407226562" stroke-miterlimit="10" stroke-width="0.5" stroke-dasharray="0"/><path fill="none" stroke="none"/><path fill="none" stroke="#505050" paint-order="fill stroke markers" d=" M 427.661808013916 76.25967407226562 L 435.661808013916 76.25967407226562 L 435.661808013916 84.25967407226562 L 427.661808013916 84.25967407226562 L 427.661808013916 76.25967407226562 Z" stroke-miterlimit="10" stroke-width="0.5" stroke-dasharray="0"/><path fill="white" stroke="#505050" paint-order="fill stroke markers" d=" M 365.87864685058594 102.2332763671875 L 365.87864685058594 126.92702674865723 Q 365.87864685058594 134.92702674865723 373.87864685058594 134.92702674865723 L 436.7214050292969 134.92702674865723 Q 444.7214050292969 134.92702674865723 444.7214050292969 126.92702674865723 L 444.7214050292969 102.2332763671875 Q 444.7214050292969 94.2332763671875 436.7214050292969 94.2332763671875 L 373.87864685058594 94.2332763671875 Q 365.87864685058594 94.2332763671875 365.87864685058594 102.2332763671875" stroke-miterlimit="10" stroke-width="0.5" stroke-dasharray="0"/><path fill="#F0F0F0" stroke="#505050" paint-order="fill stroke markers" d=" M 420.7214050292969 102.2332763671875 L 444.7214050292969 102.2332763671875 L 444.7214050292969 118.2332763671875 L 420.7214050292969 118.2332763671875 L 420.7214050292969 102.2332763671875 Z" stroke-miterlimit="10" stroke-width="0.5" stroke-dasharray="6,3"/><path fill="none" stroke="none"/><path fill="none" stroke="#505050" paint-order="fill stroke markers" d=" M 420.7214050292969 106.2332763671875 L 428.7214050292969 106.2332763671875 L 428.7214050292969 114.2332763671875 L 420.7214050292969 114.2332763671875 L 420.7214050292969 106.2332763671875 Z" stroke-miterlimit="10" stroke-width="0.5" stroke-dasharray="0"/><path fill="none" stroke="#505050" paint-order="fill stroke markers" d=" M 436.7214050292969 106.2332763671875 L 444.7214050292969 106.2332763671875 L 444.7214050292969 114.2332763671875 L 436.7214050292969 114.2332763671875 L 436.7214050292969 106.2332763671875 Z" stroke-miterlimit="10" stroke-width="0.5" stroke-dasharray="0"/><path fill="white" stroke="#505050" paint-order="fill stroke markers" d=" M 370.76927757263184 100.24579048156738 L 386.76927757263184 100.24579048156738 L 386.76927757263184 116.24579048156738 L 370.76927757263184 116.24579048156738 L 378.76927757263184 108.24579048156738 L 370.76927757263184 100.24579048156738" stroke-miterlimit="10" stroke-width="0.5" stroke-dasharray="0"/><path fill="none" stroke="none"/><path fill="none" stroke="#505050" paint-order="fill stroke markers" d=" M 378.76927757263184 104.24579048156738 L 386.76927757263184 104.24579048156738 L 386.76927757263184 112.24579048156738 L 378.76927757263184 112.24579048156738 L 378.76927757263184 104.24579048156738 Z" stroke-miterlimit="10" stroke-width="0.5" stroke-dasharray="0"/><path fill="white" stroke="#505050" paint-order="fill stroke markers" d=" M 393.006591796875 100.05742835998535 L 401.006591796875 100.05742835998535 L 409.006591796875 108.05742835998535 L 401.006591796875 116.05742835998535 L 393.006591796875 116.05742835998535 L 393.006591796875 100.05742835998535" stroke-miterlimit="10" stroke-width="0.5" stroke-dasharray="0"/><path fill="none" stroke="none"/><path fill="none" stroke="#505050" paint-order="fill stroke markers" d=" M 393.006591796875 104.05742835998535 L 401.006591796875 104.05742835998535 L 401.006591796875 112.05742835998535 L 393.006591796875 112.05742835998535 L 393.006591796875 104.05742835998535 Z" stroke-miterlimit="10" stroke-width="0.5" stroke-dasharray="0"/><path fill="none" stroke="none"/><path fill="none" stroke="#e0e0e0" paint-order="fill stroke markers" d=" M 572.5310363769531 134.63877487182617 C 581.6802849480697 134.63877487182617 593.6240668585709 130.70154571533203 602.7733154296875 130.70154571533203" stroke-miterlimit="10" stroke-width="2" stroke-dasharray="0"/><path fill="none" stroke="none"/><path fill="none" stroke="#e0e0e0" paint-order="fill stroke markers" d=" M 565.4847045838833 224.58053588867188 C 583.6701189427429 224.58053588867188 589.6504954845852 181.2109251022339 607.8359098434448 181.2109251022339" stroke-miterlimit="10" stroke-width="2" stroke-dasharray="0"/><path fill="none" stroke="none"/><path fill="none" stroke="#e0e0e0" paint-order="fill stroke markers" d=" M 565.365014642477 178.57400512695312 C 579.4192796712645 178.57400512695312 592.5777873927824 156.39914226531982 606.6320524215698 156.39914226531982" stroke-miterlimit="10" stroke-width="2" stroke-dasharray="0"/><path fill="none" stroke="#505050" paint-order="fill stroke markers" d=" M 561.365014642477 162.57400512695312 C 578.0083036936066 162.57400512695312 590.1300263785579 130.70154571533203 606.7733154296875 130.70154571533203" stroke-miterlimit="10" stroke-dasharray="0"/><path fill="none" stroke="#505050" paint-order="fill stroke markers" d=" M 630.7733154296875 130.70154571533203 C 639.7505112760908 130.70154571533203 650.3262480622881 139.72799110412598 659.3034439086914 139.72799110412598" stroke-miterlimit="10" stroke-dasharray="0"/><path fill="none" stroke="#505050" paint-order="fill stroke markers" d=" M 568.5310363769531 118.63877487182617 C 591.3598064826006 118.63877487182617 589.0071397377974 181.2109251022339 611.8359098434448 181.2109251022339" stroke-miterlimit="10" stroke-dasharray="0"/><path fill="none" stroke="#505050" paint-order="fill stroke markers" d=" M 561.4847045838833 208.58053588867188 C 582.9894102920728 208.58053588867188 589.1273467133803 156.39914226531982 610.6320524215698 156.39914226531982" stroke-miterlimit="10" stroke-dasharray="0"/><path fill="none" stroke="#505050" paint-order="fill stroke markers" d=" M 634.6320524215698 156.39914226531982 C 642.1649634788795 156.39914226531982 651.7705328513817 151.72799110412598 659.3034439086914 151.72799110412598" stroke-miterlimit="10" stroke-dasharray="0"/><path fill="none" stroke="#505050" paint-order="fill stroke markers" d=" M 635.8359098434448 181.2109251022339 C 644.615091597214 181.2109251022339 650.5242621549222 163.72799110412598 659.3034439086914 163.72799110412598" stroke-miterlimit="10" stroke-dasharray="0"/><path fill="none" stroke="#505050" paint-order="fill stroke markers" d=" M 683.3034439086914 139.72799110412598 C 687.2764924458277 139.72799110412598 692.5716625758398 139.48507976531982 696.5447111129761 139.48507976531982" stroke-miterlimit="10" stroke-dasharray="0"/></g></g></svg>