<svg version="1.1" xmlns="http://www.w3.org/2000/svg" xmlns:xlink="http://www.w3.org/1999/xlink" width="628.3187866210938" height="267.79998207092285"><defs/><g transform="translate(-316.546875,-62.59687805175781)"><g><path fill="white" stroke="#505050" paint-order="fill stroke markers" d=" M 524.2249999940395 71.59687805175781 L 524.2249999940395 173.40000915527344 Q 524.2249999940395 181.40000915527344 532.2249999940395 181.40000915527344 L 754.5812011659145 181.40000915527344 Q 762.5812011659145 181.40000915527344 762.5812011659145 173.40000915527344 L 762.5812011659145 71.59687805175781 Q 762.5812011659145 63.59687805175781 754.5812011659145 63.59687805175781 L 532.2249999940395 63.59687805175781 Q 524.2249999940395 63.59687805175781 524.2249999940395 71.59687805175781" stroke-miterlimit="10" stroke-width="0.5" stroke-dasharray=""/><path fill="#F0F0F0" stroke="#505050" paint-order="fill stroke markers" d=" M 714.5812011659145 71.59687805175781 L 762.5812011659145 71.59687805175781 L 762.5812011659145 169.5968780517578 L 714.5812011659145 169.5968780517578 L 714.5812011659145 71.59687805175781 Z" stroke-miterlimit="10" stroke-width="0.5" stroke-dasharray=""/><text fill="#505050" stroke="none" font-family="monospace" font-size="14px" font-style="normal" font-weight="normal" text-decoration="normal" x="738.5812011659145" y="89.59687805175781" text-anchor="middle" dominant-baseline="text-after-edge">swap</text><path fill="none" stroke="#505050" paint-order="fill stroke markers" d=" M 714.5812011659145 89.59687805175781 L 746.5812011659145 89.59687805175781 L 746.5812011659145 125.59687805175781 L 714.5812011659145 125.59687805175781 L 714.5812011659145 89.59687805175781 Z" stroke-miterlimit="10" stroke-width="0.5" stroke-dasharray=""/><path fill="none" stroke="#505050" paint-order="fill stroke markers" d=" M 738.5812011659145 93.59687805175781 L 746.5812011659145 93.59687805175781 L 746.5812011659145 101.59687805175781 L 738.5812011659145 101.59687805175781 L 738.5812011659145 93.59687805175781 Z" stroke-miterlimit="10" stroke-width="0.5" stroke-dasharray=""/><path fill="none" stroke="#505050" paint-order="fill stroke markers" d=" M 722.5812011659145 105.59687805175781 L 746.5812011659145 105.59687805175781 L 746.5812011659145 121.59687805175781 L 722.5812011659145 121.59687805175781 L 722.5812011659145 105.59687805175781 Z" stroke-miterlimit="10" stroke-width="0.5" stroke-dasharray=""/><path fill="none" stroke="#505050" paint-order="fill stroke markers" d=" M 722.5812011659145 109.59687805175781 L 730.5812011659145 109.59687805175781 L 730.5812011659145 117.59687805175781 L 722.5812011659145 117.59687805175781 L 722.5812011659145 109.59687805175781 Z" stroke-miterlimit="10" stroke-width="0.5" stroke-dasharray=""/><path fill="none" stroke="#505050" paint-order="fill stroke markers" d=" M 738.5812011659145 109.59687805175781 L 746.5812011659145 109.59687805175781 L 746.5812011659145 117.59687805175781 L 738.5812011659145 117.59687805175781 L 738.5812011659145 109.59687805175781 Z" stroke-miterlimit="10" stroke-width="0.5" stroke-dasharray=""/><path fill="none" stroke="#505050" paint-order="fill stroke markers" d=" M 714.5812011659145 129.5968780517578 L 746.5812011659145 129.5968780517578 L 746.5812011659145 165.5968780517578 L 714.5812011659145 165.5968780517578 L 714.5812011659145 129.5968780517578 Z" stroke-miterlimit="10" stroke-width="0.5" stroke-dasharray=""/><path fill="none" stroke="#505050" paint-order="fill stroke markers" d=" M 738.5812011659145 133.5968780517578 L 746.5812011659145 133.5968780517578 L 746.5812011659145 141.5968780517578 L 738.5812011659145 141.5968780517578 L 738.5812011659145 133.5968780517578 Z" stroke-miterlimit="10" stroke-width="0.5" stroke-dasharray=""/><path fill="none" stroke="#505050" paint-order="fill stroke markers" d=" M 722.5812011659145 145.5968780517578 L 746.5812011659145 145.5968780517578 L 746.5812011659145 161.5968780517578 L 722.5812011659145 161.5968780517578 L 722.5812011659145 145.5968780517578 Z" stroke-miterlimit="10" stroke-width="0.5" stroke-dasharray=""/><path fill="none" stroke="#505050" paint-order="fill stroke markers" d=" M 722.5812011659145 149.5968780517578 L 730.5812011659145 149.5968780517578 L 730.5812011659145 157.5968780517578 L 722.5812011659145 157.5968780517578 L 722.5812011659145 149.5968780517578 Z" stroke-miterlimit="10" stroke-width="0.5" stroke-dasharray=""/><path fill="none" stroke="#505050" paint-order="fill stroke markers" d=" M 738.5812011659145 149.5968780517578 L 746.5812011659145 149.5968780517578 L 746.5812011659145 157.5968780517578 L 738.5812011659145 157.5968780517578 L 738.5812011659145 149.5968780517578 Z" stroke-miterlimit="10" stroke-width="0.5" stroke-dasharray=""/><path fill="none" stroke="#505050" paint-order="fill stroke markers" d=" M 754.5812011659145 89.59687805175781 L 762.5812011659145 89.59687805175781 L 762.5812011659145 97.59687805175781 L 754.5812011659145 97.59687805175781 L 754.5812011659145 89.59687805175781 Z" stroke-miterlimit="10" stroke-width="0.5" stroke-dasharray=""/><path fill="none" stroke="#505050" paint-order="fill stroke markers" d=" M 754.5812011659145 101.59687805175781 L 762.5812011659145 101.59687805175781 L 762.5812011659145 109.59687805175781 L 754.5812011659145 109.59687805175781 L 754.5812011659145 101.59687805175781 Z" stroke-miterlimit="10" stroke-width="0.5" stroke-dasharray=""/><path fill="white" stroke="#505050" paint-order="fill stroke markers" d=" M 642.7843261659145 144.9499969482422 L 650.7843261659145 144.9499969482422 L 658.7843261659145 152.9499969482422 L 650.7843261659145 160.9499969482422 L 642.7843261659145 160.9499969482422 L 642.7843261659145 144.9499969482422" stroke-miterlimit="10" stroke-width="0.5" stroke-dasharray=""/><path fill="none" stroke="#505050" paint-order="fill stroke markers" d=" M 642.7843261659145 148.9499969482422 L 650.7843261659145 148.9499969482422 L 650.7843261659145 156.9499969482422 L 642.7843261659145 156.9499969482422 L 642.7843261659145 148.9499969482422 Z" stroke-miterlimit="10" stroke-width="0.5" stroke-dasharray=""/><path fill="white" stroke="#505050" paint-order="fill stroke markers" d=" M 641.4125366210938 89.15000304579735 L 649.4125366210938 89.15000304579735 L 657.4125366210938 97.15000304579735 L 649.4125366210938 105.15000304579735 L 641.4125366210938 105.15000304579735 L 641.4125366210938 89.15000304579735" stroke-miterlimit="10" stroke-width="0.5" stroke-dasharray=""/><path fill="none" stroke="#505050" paint-order="fill stroke markers" d=" M 641.4125366210938 93.15000304579735 L 649.4125366210938 93.15000304579735 L 649.4125366210938 101.15000304579735 L 641.4125366210938 101.15000304579735 L 641.4125366210938 93.15000304579735 Z" stroke-miterlimit="10" stroke-width="0.5" stroke-dasharray=""/><path fill="white" stroke="#505050" paint-order="fill stroke markers" d=" M 532.8531127870083 72.75312805175781 L 564.8531127870083 72.75312805175781 L 564.8531127870083 108.75312805175781 L 532.8531127870083 108.75312805175781 L 532.8531127870083 72.75312805175781 Z" stroke-miterlimit="10" stroke-width="0.5" stroke-dasharray="6,3"/><path fill="#F0F0F0" stroke="none" paint-order="stroke fill markers" d=" M 540.8531127870083 88.75312805175781 L 564.8531127870083 88.75312805175781 L 564.8531127870083 104.75312805175781 L 540.8531127870083 104.75312805175781 L 540.8531127870083 88.75312805175781 Z"/><path fill="none" stroke="#505050" paint-order="fill stroke markers" d=" M 556.8531127870083 76.75312805175781 L 564.8531127870083 76.75312805175781 L 564.8531127870083 84.75312805175781 L 556.8531127870083 84.75312805175781 L 556.8531127870083 76.75312805175781 Z" stroke-miterlimit="10" stroke-width="0.5" stroke-dasharray="0"/><path fill="none" stroke="#505050" paint-order="fill stroke markers" d=" M 540.8531127870083 88.75312805175781 L 564.8531127870083 88.75312805175781 L 564.8531127870083 104.75312805175781 L 540.8531127870083 104.75312805175781 L 540.8531127870083 88.75312805175781 Z" stroke-miterlimit="10" stroke-width="0.5" stroke-dasharray="0"/><path fill="none" stroke="#505050" paint-order="fill stroke markers" d=" M 540.8531127870083 92.75312805175781 L 548.8531127870083 92.75312805175781 L 548.8531127870083 100.75312805175781 L 540.8531127870083 100.75312805175781 L 540.8531127870083 92.75312805175781 Z" stroke-miterlimit="10" stroke-width="0.5" stroke-dasharray="0"/><path fill="none" stroke="#505050" paint-order="fill stroke markers" d=" M 556.8531127870083 92.75312805175781 L 564.8531127870083 92.75312805175781 L 564.8531127870083 100.75312805175781 L 556.8531127870083 100.75312805175781 L 556.8531127870083 92.75312805175781 Z" stroke-miterlimit="10" stroke-width="0.5" stroke-dasharray="0"/><path fill="#e0e0e0" stroke="none" paint-order="stroke fill markers" d=" M 445.546875 158.20937117934227 L 437.546875 140.20937117934227 L 437.546875 176.20937117934227 Z M 524.8531127870083 90.75312805175781 L 532.8531127870083 72.75312805175781 L 532.8531127870083 108.75312805175781 Z"/><path fill="none" stroke="none"/><path fill="none" stroke="#e0e0e0" paint-order="fill stroke markers" d=" M 445.546875 158.20937117934227 C 476.781217765513 158.20937117934227 493.61877002149527 90.75312805175781 524.8531127870083 90.75312805175781" stroke-miterlimit="10" stroke-width="2" stroke-dasharray="0"/><path fill="white" stroke="#505050" paint-order="fill stroke markers" d=" M 533.2655883729458 129.40000915527344 L 565.2655883729458 129.40000915527344 L 565.2655883729458 165.40000915527344 L 533.2655883729458 165.40000915527344 L 533.2655883729458 129.40000915527344 Z" stroke-miterlimit="10" stroke-width="0.5" stroke-dasharray="6,3"/><path fill="#F0F0F0" stroke="none" paint-order="stroke fill markers" d=" M 541.2655883729458 145.40000915527344 L 565.2655883729458 145.40000915527344 L 565.2655883729458 161.40000915527344 L 541.2655883729458 161.40000915527344 L 541.2655883729458 145.40000915527344 Z"/><path fill="none" stroke="#505050" paint-order="fill stroke markers" d=" M 557.2655883729458 133.40000915527344 L 565.2655883729458 133.40000915527344 L 565.2655883729458 141.40000915527344 L 557.2655883729458 141.40000915527344 L 557.2655883729458 133.40000915527344 Z" stroke-miterlimit="10" stroke-width="0.5" stroke-dasharray="0"/><path fill="none" stroke="#505050" paint-order="fill stroke markers" d=" M 541.2655883729458 145.40000915527344 L 565.2655883729458 145.40000915527344 L 565.2655883729458 161.40000915527344 L 541.2655883729458 161.40000915527344 L 541.2655883729458 145.40000915527344 Z" stroke-miterlimit="10" stroke-width="0.5" stroke-dasharray="0"/><path fill="none" stroke="#505050" paint-order="fill stroke markers" d=" M 541.2655883729458 149.40000915527344 L 549.2655883729458 149.40000915527344 L 549.2655883729458 157.40000915527344 L 541.2655883729458 157.40000915527344 L 541.2655883729458 149.40000915527344 Z" stroke-miterlimit="10" stroke-width="0.5" stroke-dasharray="0"/><path fill="none" stroke="#505050" paint-order="fill stroke markers" d=" M 557.2655883729458 149.40000915527344 L 565.2655883729458 149.40000915527344 L 565.2655883729458 157.40000915527344 L 557.2655883729458 157.40000915527344 L 557.2655883729458 149.40000915527344 Z" stroke-miterlimit="10" stroke-width="0.5" stroke-dasharray="0"/><path fill="#e0e0e0" stroke="none" paint-order="stroke fill markers" d=" M 445.546875 158.20937117934227 L 437.546875 140.20937117934227 L 437.546875 176.20937117934227 Z M 525.2655883729458 147.40000915527344 L 533.2655883729458 129.40000915527344 L 533.2655883729458 165.40000915527344 Z"/><path fill="none" stroke="none"/><path fill="none" stroke="#e0e0e0" paint-order="fill stroke markers" d=" M 445.546875 158.20937117934227 C 469.6813400081263 158.20937117934227 501.1311233648195 147.40000915527344 525.2655883729458 147.40000915527344" stroke-miterlimit="10" stroke-width="2" stroke-dasharray="0"/><path fill="white" stroke="#505050" paint-order="fill stroke markers" d=" M 589.6437377929688 88.90937194228172 L 613.6437377929688 88.90937194228172 L 613.6437377929688 104.90937194228172 L 589.6437377929688 104.90937194228172 L 589.6437377929688 88.90937194228172 Z" stroke-miterlimit="10" stroke-width="0.5" stroke-dasharray="0"/><path fill="#F0F0F0" stroke="none" paint-order="stroke fill markers" d=""/><path fill="none" stroke="#505050" paint-order="fill stroke markers" d=" M 589.6437377929688 92.90937194228172 L 597.6437377929688 92.90937194228172 L 597.6437377929688 100.90937194228172 L 589.6437377929688 100.90937194228172 L 589.6437377929688 92.90937194228172 Z" stroke-miterlimit="10" stroke-width="0.5" stroke-dasharray="0"/><path fill="none" stroke="#505050" paint-order="fill stroke markers" d=" M 605.6437377929688 92.90937194228172 L 613.6437377929688 92.90937194228172 L 613.6437377929688 100.90937194228172 L 605.6437377929688 100.90937194228172 L 605.6437377929688 92.90937194228172 Z" stroke-miterlimit="10" stroke-width="0.5" stroke-dasharray="0"/><path fill="#e0e0e0" stroke="none" paint-order="stroke fill markers" d=" M 572.8531127870083 96.75312805175781 L 564.8531127870083 88.75312805175781 L 564.8531127870083 104.75312805175781 Z M 581.6437377929688 96.90937194228172 L 589.6437377929688 88.90937194228172 L 589.6437377929688 104.90937194228172 Z"/><path fill="none" stroke="none"/><path fill="none" stroke="#e0e0e0" paint-order="fill stroke markers" d=" M 572.8531127870083 96.75312805175781 C 575.4907168159306 96.75312805175781 579.0061337640465 96.90937194228172 581.6437377929688 96.90937194228172" stroke-miterlimit="10" stroke-width="2" stroke-dasharray="0"/><path fill="white" stroke="#505050" paint-order="fill stroke markers" d=" M 590.9906005859375 145.2812438905239 L 614.9906005859375 145.2812438905239 L 614.9906005859375 161.2812438905239 L 590.9906005859375 161.2812438905239 L 590.9906005859375 145.2812438905239 Z" stroke-miterlimit="10" stroke-width="0.5" stroke-dasharray="0"/><path fill="#F0F0F0" stroke="none" paint-order="stroke fill markers" d=""/><path fill="none" stroke="#505050" paint-order="fill stroke markers" d=" M 590.9906005859375 149.2812438905239 L 598.9906005859375 149.2812438905239 L 598.9906005859375 157.2812438905239 L 590.9906005859375 157.2812438905239 L 590.9906005859375 149.2812438905239 Z" stroke-miterlimit="10" stroke-width="0.5" stroke-dasharray="0"/><path fill="none" stroke="#505050" paint-order="fill stroke markers" d=" M 606.9906005859375 149.2812438905239 L 614.9906005859375 149.2812438905239 L 614.9906005859375 157.2812438905239 L 606.9906005859375 157.2812438905239 L 606.9906005859375 149.2812438905239 Z" stroke-miterlimit="10" stroke-width="0.5" stroke-dasharray="0"/><path fill="#e0e0e0" stroke="none" paint-order="stroke fill markers" d=" M 573.2655883729458 153.40000915527344 L 565.2655883729458 145.40000915527344 L 565.2655883729458 161.40000915527344 Z M 582.9906005859375 153.2812438905239 L 590.9906005859375 145.2812438905239 L 590.9906005859375 161.2812438905239 Z"/><path fill="none" stroke="none"/><path fill="none" stroke="#e0e0e0" paint-order="fill stroke markers" d=" M 573.2655883729458 153.40000915527344 C 576.1833095892009 153.40000915527344 580.0728793696824 153.2812438905239 582.9906005859375 153.2812438905239" stroke-miterlimit="10" stroke-width="2" stroke-dasharray="0"/><path fill="white" stroke="#505050" paint-order="fill stroke markers" d=" M 895.8656616210938 69.42186889052391 L 943.8656616210938 69.42186889052391 L 943.8656616210938 167.4218688905239 L 895.8656616210938 167.4218688905239 L 895.8656616210938 69.42186889052391 Z" stroke-miterlimit="10" stroke-width="0.5" stroke-dasharray="0"/><path fill="#F0F0F0" stroke="none" paint-order="stroke fill markers" d=""/><text fill="#505050" stroke="none" font-family="monospace" font-size="14px" font-style="normal" font-weight="normal" text-decoration="normal" x="919.8656616210938" y="87.42186889052391" text-anchor="middle" dominant-baseline="text-after-edge">swap</text><path fill="none" stroke="#505050" paint-order="fill stroke markers" d=" M 895.8656616210938 87.42186889052391 L 927.8656616210938 87.42186889052391 L 927.8656616210938 123.42186889052391 L 895.8656616210938 123.42186889052391 L 895.8656616210938 87.42186889052391 Z" stroke-miterlimit="10" stroke-width="0.5" stroke-dasharray="0"/><path fill="none" stroke="#505050" paint-order="fill stroke markers" d=" M 919.8656616210938 91.42186889052391 L 927.8656616210938 91.42186889052391 L 927.8656616210938 99.42186889052391 L 919.8656616210938 99.42186889052391 L 919.8656616210938 91.42186889052391 Z" stroke-miterlimit="10" stroke-width="0.5" stroke-dasharray="0"/><path fill="none" stroke="#505050" paint-order="fill stroke markers" d=" M 903.8656616210938 103.42186889052391 L 927.8656616210938 103.42186889052391 L 927.8656616210938 119.42186889052391 L 903.8656616210938 119.42186889052391 L 903.8656616210938 103.42186889052391 Z" stroke-miterlimit="10" stroke-width="0.5" stroke-dasharray="0"/><path fill="none" stroke="#505050" paint-order="fill stroke markers" d=" M 903.8656616210938 107.42186889052391 L 911.8656616210938 107.42186889052391 L 911.8656616210938 115.42186889052391 L 903.8656616210938 115.42186889052391 L 903.8656616210938 107.42186889052391 Z" stroke-miterlimit="10" stroke-width="0.5" stroke-dasharray="0"/><path fill="none" stroke="#505050" paint-order="fill stroke markers" d=" M 919.8656616210938 107.42186889052391 L 927.8656616210938 107.42186889052391 L 927.8656616210938 115.42186889052391 L 919.8656616210938 115.42186889052391 L 919.8656616210938 107.42186889052391 Z" stroke-miterlimit="10" stroke-width="0.5" stroke-dasharray="0"/><path fill="none" stroke="#505050" paint-order="fill stroke markers" d=" M 895.8656616210938 127.42186889052391 L 927.8656616210938 127.42186889052391 L 927.8656616210938 163.4218688905239 L 895.8656616210938 163.4218688905239 L 895.8656616210938 127.42186889052391 Z" stroke-miterlimit="10" stroke-width="0.5" stroke-dasharray="0"/><path fill="none" stroke="#505050" paint-order="fill stroke markers" d=" M 919.8656616210938 131.4218688905239 L 927.8656616210938 131.4218688905239 L 927.8656616210938 139.4218688905239 L 919.8656616210938 139.4218688905239 L 919.8656616210938 131.4218688905239 Z" stroke-miterlimit="10" stroke-width="0.5" stroke-dasharray="0"/><path fill="none" stroke="#505050" paint-order="fill stroke markers" d=" M 903.8656616210938 143.4218688905239 L 927.8656616210938 143.4218688905239 L 927.8656616210938 159.4218688905239 L 903.8656616210938 159.4218688905239 L 903.8656616210938 143.4218688905239 Z" stroke-miterlimit="10" stroke-width="0.5" stroke-dasharray="0"/><path fill="none" stroke="#505050" paint-order="fill stroke markers" d=" M 903.8656616210938 147.4218688905239 L 911.8656616210938 147.4218688905239 L 911.8656616210938 155.4218688905239 L 903.8656616210938 155.4218688905239 L 903.8656616210938 147.4218688905239 Z" stroke-miterlimit="10" stroke-width="0.5" stroke-dasharray="0"/><path fill="none" stroke="#505050" paint-order="fill stroke markers" d=" M 919.8656616210938 147.4218688905239 L 927.8656616210938 147.4218688905239 L 927.8656616210938 155.4218688905239 L 919.8656616210938 155.4218688905239 L 919.8656616210938 147.4218688905239 Z" stroke-miterlimit="10" stroke-width="0.5" stroke-dasharray="0"/><path fill="none" stroke="#505050" paint-order="fill stroke markers" d=" M 935.8656616210938 87.42186889052391 L 943.8656616210938 87.42186889052391 L 943.8656616210938 95.42186889052391 L 935.8656616210938 95.42186889052391 L 935.8656616210938 87.42186889052391 Z" stroke-miterlimit="10" stroke-width="0.5" stroke-dasharray="0"/><path fill="none" stroke="#505050" paint-order="fill stroke markers" d=" M 935.8656616210938 99.42186889052391 L 943.8656616210938 99.42186889052391 L 943.8656616210938 107.42186889052391 L 935.8656616210938 107.42186889052391 L 935.8656616210938 99.42186889052391 Z" stroke-miterlimit="10" stroke-width="0.5" stroke-dasharray="0"/><path fill="#e0e0e0" stroke="none" paint-order="stroke fill markers" d=" M 770.5812011659145 120.59687805175781 L 762.5812011659145 71.59687805175781 L 762.5812011659145 169.5968780517578 Z M 887.8656616210938 118.42186889052391 L 895.8656616210938 69.42186889052391 L 895.8656616210938 167.4218688905239 Z"/><path fill="none" stroke="none"/><path fill="none" stroke="#e0e0e0" paint-order="fill stroke markers" d=" M 770.5812011659145 120.59687805175781 C 805.772589027439 120.59687805175781 852.6742737595692 118.42186889052391 887.8656616210938 118.42186889052391" stroke-miterlimit="10" stroke-width="2" stroke-dasharray="0"/><path fill="white" stroke="#505050" paint-order="fill stroke markers" d=" M 317.546875 140.20937117934227 L 317.546875 252.20937117934227 Q 317.546875 260.20937117934227 325.546875 260.20937117934227 L 429.546875 260.20937117934227 Q 437.546875 260.20937117934227 437.546875 252.20937117934227 L 437.546875 140.20937117934227 Q 437.546875 132.20937117934227 429.546875 132.20937117934227 L 325.546875 132.20937117934227 Q 317.546875 132.20937117934227 317.546875 140.20937117934227" stroke-miterlimit="10" stroke-width="0.5" stroke-dasharray="0"/><path fill="#F0F0F0" stroke="#505050" paint-order="fill stroke markers" d=" M 405.546875 140.20937117934227 L 437.546875 140.20937117934227 L 437.546875 176.20937117934227 L 405.546875 176.20937117934227 L 405.546875 140.20937117934227 Z" stroke-miterlimit="10" stroke-width="0.5" stroke-dasharray="6,3"/><path fill="none" stroke="#505050" paint-order="fill stroke markers" d=" M 429.546875 144.20937117934227 L 437.546875 144.20937117934227 L 437.546875 152.20937117934227 L 429.546875 152.20937117934227 L 429.546875 144.20937117934227 Z" stroke-miterlimit="10" stroke-width="0.5" stroke-dasharray="0"/><path fill="none" stroke="#505050" paint-order="fill stroke markers" d=" M 413.546875 156.20937117934227 L 437.546875 156.20937117934227 L 437.546875 172.20937117934227 L 413.546875 172.20937117934227 L 413.546875 156.20937117934227 Z" stroke-miterlimit="10" stroke-width="0.5" stroke-dasharray="0"/><path fill="none" stroke="#505050" paint-order="fill stroke markers" d=" M 413.546875 160.20937117934227 L 421.546875 160.20937117934227 L 421.546875 168.20937117934227 L 413.546875 168.20937117934227 L 413.546875 160.20937117934227 Z" stroke-miterlimit="10" stroke-width="0.5" stroke-dasharray="0"/><path fill="none" stroke="#505050" paint-order="fill stroke markers" d=" M 429.546875 160.20937117934227 L 437.546875 160.20937117934227 L 437.546875 168.20937117934227 L 429.546875 168.20937117934227 L 429.546875 160.20937117934227 Z" stroke-miterlimit="10" stroke-width="0.5" stroke-dasharray="0"/><path fill="white" stroke="#505050" paint-order="fill stroke markers" d=" M 357.546875 140.20937117934227 L 365.546875 140.20937117934227 L 373.546875 148.20937117934227 L 365.546875 156.20937117934227 L 357.546875 156.20937117934227 L 357.546875 140.20937117934227" stroke-miterlimit="10" stroke-width="0.5" stroke-dasharray="0"/><path fill="none" stroke="#505050" paint-order="fill stroke markers" d=" M 357.546875 144.20937117934227 L 365.546875 144.20937117934227 L 365.546875 152.20937117934227 L 357.546875 152.20937117934227 L 357.546875 144.20937117934227 Z" stroke-miterlimit="10" stroke-width="0.5" stroke-dasharray="0"/><path fill="none" stroke="none"/><path fill="white" stroke="#505050" paint-order="fill stroke markers" d=" M 357.546875 164.20937117934227 L 389.546875 164.20937117934227 L 397.546875 176.20937117934227 L 389.546875 188.20937117934227 L 357.546875 188.20937117934227 L 357.546875 164.20937117934227" stroke-miterlimit="10" stroke-width="0.5" stroke-dasharray="6,3"/><path fill="white" stroke="#505050" paint-order="fill stroke markers" d=" M 365.546875 168.20937117934227 L 389.546875 168.20937117934227 L 389.546875 184.20937117934227 L 365.546875 184.20937117934227 L 365.546875 168.20937117934227 Z" stroke-miterlimit="10" stroke-width="0.5" stroke-dasharray="6,3"/><path fill="#F0F0F0" stroke="none" paint-order="stroke fill markers" d=""/><path fill="none" stroke="#505050" paint-order="fill stroke markers" d=" M 365.546875 172.20937117934227 L 373.546875 172.20937117934227 L 373.546875 180.20937117934227 L 365.546875 180.20937117934227 L 365.546875 172.20937117934227 Z" stroke-miterlimit="10" stroke-width="0.5" stroke-dasharray="0"/><path fill="none" stroke="#505050" paint-order="fill stroke markers" d=" M 381.546875 172.20937117934227 L 389.546875 172.20937117934227 L 389.546875 180.20937117934227 L 381.546875 180.20937117934227 L 381.546875 172.20937117934227 Z" stroke-miterlimit="10" stroke-width="0.5" stroke-dasharray="0"/><path fill="#e0e0e0" stroke="none" paint-order="stroke fill markers" d=" M 420.59063720703125 220.20937117934227 L 412.59063720703125 212.20937117934227 L 412.59063720703125 228.20937117934227 Z M 357.546875 176.20937117934227 L 365.546875 168.20937117934227 L 365.546875 184.20937117934227 Z"/><path fill="none" stroke="none"/><path fill="none" stroke="#e0e0e0" paint-order="fill stroke markers" d=" M 420.59063720703125 220.20937117934227 C 443.6546012156206 220.20937117934227 334.4829109914107 176.20937117934227 357.546875 176.20937117934227" stroke-miterlimit="10" stroke-width="2" stroke-dasharray="0"/><path fill="white" stroke="#505050" paint-order="fill stroke markers" d=" M 325.546875 212.20937117934227 L 325.546875 236.20937117934227 Q 325.546875 244.20937117934227 333.546875 244.20937117934227 L 404.59063720703125 244.20937117934227 Q 412.59063720703125 244.20937117934227 412.59063720703125 236.20937117934227 L 412.59063720703125 212.20937117934227 Q 412.59063720703125 204.20937117934227 404.59063720703125 204.20937117934227 L 333.546875 204.20937117934227 Q 325.546875 204.20937117934227 325.546875 212.20937117934227" stroke-miterlimit="10" stroke-width="0.5" stroke-dasharray="0"/><path fill="#F0F0F0" stroke="#505050" paint-order="fill stroke markers" d=" M 388.59063720703125 212.20937117934227 L 412.59063720703125 212.20937117934227 L 412.59063720703125 228.20937117934227 L 388.59063720703125 228.20937117934227 L 388.59063720703125 212.20937117934227 Z" stroke-miterlimit="10" stroke-width="0.5" stroke-dasharray="6,3"/><path fill="none" stroke="#505050" paint-order="fill stroke markers" d=" M 388.59063720703125 216.20937117934227 L 396.59063720703125 216.20937117934227 L 396.59063720703125 224.20937117934227 L 388.59063720703125 224.20937117934227 L 388.59063720703125 216.20937117934227 Z" stroke-miterlimit="10" stroke-width="0.5" stroke-dasharray="0"/><path fill="none" stroke="#505050" paint-order="fill stroke markers" d=" M 404.59063720703125 216.20937117934227 L 412.59063720703125 216.20937117934227 L 412.59063720703125 224.20937117934227 L 404.59063720703125 224.20937117934227 L 404.59063720703125 216.20937117934227 Z" stroke-miterlimit="10" stroke-width="0.5" stroke-dasharray="0"/><path fill="white" stroke="#505050" paint-order="fill stroke markers" d=" M 333.546875 212.20937117934227 L 349.546875 212.20937117934227 L 349.546875 228.20937117934227 L 333.546875 228.20937117934227 L 341.546875 220.20937117934227 L 333.546875 212.20937117934227" stroke-miterlimit="10" stroke-width="0.5" stroke-dasharray="0"/><path fill="none" stroke="#505050" paint-order="fill stroke markers" d=" M 341.546875 216.20937117934227 L 349.546875 216.20937117934227 L 349.546875 224.20937117934227 L 341.546875 224.20937117934227 L 341.546875 216.20937117934227 Z" stroke-miterlimit="10" stroke-width="0.5" stroke-dasharray="0"/><path fill="white" stroke="#505050" paint-order="fill stroke markers" d=" M 365.546875 212.20937117934227 L 373.546875 212.20937117934227 L 381.546875 220.20937117934227 L 373.546875 228.20937117934227 L 365.546875 228.20937117934227 L 365.546875 212.20937117934227" stroke-miterlimit="10" stroke-width="0.5" stroke-dasharray="0"/><path fill="none" stroke="#505050" paint-order="fill stroke markers" d=" M 365.546875 216.20937117934227 L 373.546875 216.20937117934227 L 373.546875 224.20937117934227 L 365.546875 224.20937117934227 L 365.546875 216.20937117934227 Z" stroke-miterlimit="10" stroke-width="0.5" stroke-dasharray="0"/><path fill="white" stroke="#505050" paint-order="fill stroke markers" d=" M 537.5406490266323 237.27186012268066 L 537.5406490266323 321.39686012268066 Q 537.5406490266323 329.39686012268066 545.5406490266323 329.39686012268066 L 701.5874801576138 329.39686012268066 Q 709.5874801576138 329.39686012268066 709.5874801576138 321.39686012268066 L 709.5874801576138 237.27186012268066 Q 709.5874801576138 229.27186012268066 701.5874801576138 229.27186012268066 L 545.5406490266323 229.27186012268066 Q 537.5406490266323 229.27186012268066 537.5406490266323 237.27186012268066" stroke-miterlimit="10" stroke-width="0.5" stroke-dasharray="0"/><path fill="#F0F0F0" stroke="#505050" paint-order="fill stroke markers" d=" M 667.5874801576138 237.27186012268066 L 709.5874801576138 237.27186012268066 L 709.5874801576138 319.27186012268066 L 667.5874801576138 319.27186012268066 L 667.5874801576138 237.27186012268066 Z" stroke-miterlimit="10" stroke-width="0.5" stroke-dasharray="0"/><text fill="#505050" stroke="none" font-family="monospace" font-size="14px" font-style="normal" font-weight="normal" text-decoration="normal" x="688.5874801576138" y="255.27186012268066" text-anchor="middle" dominant-baseline="text-after-edge">swap</text><path fill="none" stroke="#505050" paint-order="fill stroke markers" d=" M 667.5874801576138 255.27186012268066 L 675.5874801576138 255.27186012268066 L 675.5874801576138 263.27186012268066 L 667.5874801576138 263.27186012268066 L 667.5874801576138 255.27186012268066 Z" stroke-miterlimit="10" stroke-width="0.5" stroke-dasharray="0"/><path fill="none" stroke="#505050" paint-order="fill stroke markers" d=" M 667.5874801576138 267.27186012268066 L 691.5874801576138 267.27186012268066 L 691.5874801576138 283.27186012268066 L 667.5874801576138 283.27186012268066 L 667.5874801576138 267.27186012268066 Z" stroke-miterlimit="10" stroke-width="0.5" stroke-dasharray="0"/><path fill="none" stroke="#505050" paint-order="fill stroke markers" d=" M 667.5874801576138 271.27186012268066 L 675.5874801576138 271.27186012268066 L 675.5874801576138 279.27186012268066 L 667.5874801576138 279.27186012268066 L 667.5874801576138 271.27186012268066 Z" stroke-miterlimit="10" stroke-width="0.5" stroke-dasharray="0"/><path fill="none" stroke="#505050" paint-order="fill stroke markers" d=" M 683.5874801576138 271.27186012268066 L 691.5874801576138 271.27186012268066 L 691.5874801576138 279.27186012268066 L 683.5874801576138 279.27186012268066 L 683.5874801576138 271.27186012268066 Z" stroke-miterlimit="10" stroke-width="0.5" stroke-dasharray="0"/><path fill="none" stroke="#505050" paint-order="fill stroke markers" d=" M 667.5874801576138 287.27186012268066 L 675.5874801576138 287.27186012268066 L 675.5874801576138 295.27186012268066 L 667.5874801576138 295.27186012268066 L 667.5874801576138 287.27186012268066 Z" stroke-miterlimit="10" stroke-width="0.5" stroke-dasharray="0"/><path fill="none" stroke="#505050" paint-order="fill stroke markers" d=" M 667.5874801576138 299.27186012268066 L 691.5874801576138 299.27186012268066 L 691.5874801576138 315.27186012268066 L 667.5874801576138 315.27186012268066 L 667.5874801576138 299.27186012268066 Z" stroke-miterlimit="10" stroke-width="0.5" stroke-dasharray="0"/><path fill="none" stroke="#505050" paint-order="fill stroke markers" d=" M 667.5874801576138 303.27186012268066 L 675.5874801576138 303.27186012268066 L 675.5874801576138 311.27186012268066 L 667.5874801576138 311.27186012268066 L 667.5874801576138 303.27186012268066 Z" stroke-miterlimit="10" stroke-width="0.5" stroke-dasharray="0"/><path fill="none" stroke="#505050" paint-order="fill stroke markers" d=" M 683.5874801576138 303.27186012268066 L 691.5874801576138 303.27186012268066 L 691.5874801576138 311.27186012268066 L 683.5874801576138 311.27186012268066 L 683.5874801576138 303.27186012268066 Z" stroke-miterlimit="10" stroke-width="0.5" stroke-dasharray="0"/><path fill="none" stroke="#505050" paint-order="fill stroke markers" d=" M 701.5874801576138 255.27186012268066 L 709.5874801576138 255.27186012268066 L 709.5874801576138 263.27186012268066 L 701.5874801576138 263.27186012268066 L 701.5874801576138 255.27186012268066 Z" stroke-miterlimit="10" stroke-width="0.5" stroke-dasharray="0"/><path fill="none" stroke="#505050" paint-order="fill stroke markers" d=" M 701.5874801576138 267.27186012268066 L 709.5874801576138 267.27186012268066 L 709.5874801576138 275.27186012268066 L 701.5874801576138 275.27186012268066 L 701.5874801576138 267.27186012268066 Z" stroke-miterlimit="10" stroke-width="0.5" stroke-dasharray="0"/><path fill="white" stroke="#505050" paint-order="fill stroke markers" d=" M 545.1781612336636 274.0749912261963 L 561.1781612336636 274.0749912261963 L 561.1781612336636 290.0749912261963 L 545.1781612336636 290.0749912261963 L 553.1781612336636 282.0749912261963 L 545.1781612336636 274.0749912261963" stroke-miterlimit="10" stroke-width="0.5" stroke-dasharray="0"/><path fill="none" stroke="#505050" paint-order="fill stroke markers" d=" M 553.1781612336636 278.0749912261963 L 561.1781612336636 278.0749912261963 L 561.1781612336636 286.0749912261963 L 553.1781612336636 286.0749912261963 L 553.1781612336636 278.0749912261963 Z" stroke-miterlimit="10" stroke-width="0.5" stroke-dasharray="0"/><path fill="white" stroke="#505050" paint-order="fill stroke markers" d=" M 545.5406490266323 237.27186012268066 L 561.5406490266323 237.27186012268066 L 561.5406490266323 253.27186012268066 L 545.5406490266323 253.27186012268066 L 553.5406490266323 245.27186012268066 L 545.5406490266323 237.27186012268066" stroke-miterlimit="10" stroke-width="0.5" stroke-dasharray="0"/><path fill="none" stroke="#505050" paint-order="fill stroke markers" d=" M 553.5406490266323 241.27186012268066 L 561.5406490266323 241.27186012268066 L 561.5406490266323 249.27186012268066 L 553.5406490266323 249.27186012268066 L 553.5406490266323 241.27186012268066 Z" stroke-miterlimit="10" stroke-width="0.5" stroke-dasharray="0"/><path fill="white" stroke="#505050" paint-order="fill stroke markers" d=" M 631.5500045716763 258.83746910095215 L 639.5500045716763 258.83746910095215 L 647.5500045716763 266.83746910095215 L 639.5500045716763 274.83746910095215 L 631.5500045716763 274.83746910095215 L 631.5500045716763 258.83746910095215" stroke-miterlimit="10" stroke-width="0.5" stroke-dasharray="0"/><path fill="none" stroke="#505050" paint-order="fill stroke markers" d=" M 631.5500045716763 262.83746910095215 L 639.5500045716763 262.83746910095215 L 639.5500045716763 270.83746910095215 L 631.5500045716763 270.83746910095215 L 631.5500045716763 262.83746910095215 Z" stroke-miterlimit="10" stroke-width="0.5" stroke-dasharray="0"/><path fill="white" stroke="#505050" paint-order="fill stroke markers" d=" M 576.3218383789062 258.6187225282192 L 600.3218383789062 258.6187225282192 L 600.3218383789062 274.6187225282192 L 576.3218383789062 274.6187225282192 L 576.3218383789062 258.6187225282192 Z" stroke-miterlimit="10" stroke-width="0.5" stroke-dasharray="6,3"/><path fill="#F0F0F0" stroke="none" paint-order="stroke fill markers" d=""/><path fill="none" stroke="#505050" paint-order="fill stroke markers" d=" M 576.3218383789062 262.6187225282192 L 584.3218383789062 262.6187225282192 L 584.3218383789062 270.6187225282192 L 576.3218383789062 270.6187225282192 L 576.3218383789062 262.6187225282192 Z" stroke-miterlimit="10" stroke-width="0.5" stroke-dasharray="0"/><path fill="none" stroke="#505050" paint-order="fill stroke markers" d=" M 592.3218383789062 262.6187225282192 L 600.3218383789062 262.6187225282192 L 600.3218383789062 270.6187225282192 L 592.3218383789062 270.6187225282192 L 592.3218383789062 262.6187225282192 Z" stroke-miterlimit="10" stroke-width="0.5" stroke-dasharray="0"/><path fill="#e0e0e0" stroke="none" paint-order="stroke fill markers" d=" M 420.59063720703125 220.20937117934227 L 412.59063720703125 212.20937117934227 L 412.59063720703125 228.20937117934227 Z M 568.3218383789062 266.6187225282192 L 576.3218383789062 258.6187225282192 L 576.3218383789062 274.6187225282192 Z"/><path fill="none" stroke="none"/><path fill="none" stroke="#e0e0e0" paint-order="fill stroke markers" d=" M 420.59063720703125 220.20937117934227 C 467.04545624992244 220.20937117934227 521.8670193360151 266.6187225282192 568.3218383789062 266.6187225282192" stroke-miterlimit="10" stroke-width="2" stroke-dasharray="0"/><path fill="white" stroke="#505050" paint-order="fill stroke markers" d=" M 587.403076171875 287.9656158387661 L 611.403076171875 287.9656158387661 L 611.403076171875 303.9656158387661 L 587.403076171875 303.9656158387661 L 587.403076171875 287.9656158387661 Z" stroke-miterlimit="10" stroke-width="0.5" stroke-dasharray="6,3"/><path fill="#F0F0F0" stroke="none" paint-order="stroke fill markers" d=""/><path fill="none" stroke="#505050" paint-order="fill stroke markers" d=" M 587.403076171875 291.9656158387661 L 595.403076171875 291.9656158387661 L 595.403076171875 299.9656158387661 L 587.403076171875 299.9656158387661 L 587.403076171875 291.9656158387661 Z" stroke-miterlimit="10" stroke-width="0.5" stroke-dasharray="0"/><path fill="none" stroke="#505050" paint-order="fill stroke markers" d=" M 603.403076171875 291.9656158387661 L 611.403076171875 291.9656158387661 L 611.403076171875 299.9656158387661 L 603.403076171875 299.9656158387661 L 603.403076171875 291.9656158387661 Z" stroke-miterlimit="10" stroke-width="0.5" stroke-dasharray="0"/><path fill="#e0e0e0" stroke="none" paint-order="stroke fill markers" d=" M 420.59063720703125 220.20937117934227 L 412.59063720703125 212.20937117934227 L 412.59063720703125 228.20937117934227 Z M 579.403076171875 295.9656158387661 L 587.403076171875 287.9656158387661 L 587.403076171875 303.9656158387661 Z"/><path fill="none" stroke="none"/><path fill="none" stroke="#e0e0e0" paint-order="fill stroke markers" d=" M 420.59063720703125 220.20937117934227 C 473.37733954519086 220.20937117934227 526.6163738337154 295.9656158387661 579.403076171875 295.9656158387661" stroke-miterlimit="10" stroke-width="2" stroke-dasharray="0"/><path fill="white" stroke="#505050" paint-order="fill stroke markers" d=" M 632.3092895448208 288.074951171875 L 640.3092895448208 288.074951171875 L 648.3092895448208 296.074951171875 L 640.3092895448208 304.074951171875 L 632.3092895448208 304.074951171875 L 632.3092895448208 288.074951171875" stroke-miterlimit="10" stroke-width="0.5" stroke-dasharray="0"/><path fill="none" stroke="#505050" paint-order="fill stroke markers" d=" M 632.3092895448208 292.074951171875 L 640.3092895448208 292.074951171875 L 640.3092895448208 300.074951171875 L 632.3092895448208 300.074951171875 L 632.3092895448208 292.074951171875 Z" stroke-miterlimit="10" stroke-width="0.5" stroke-dasharray="0"/><path fill="none" stroke="#505050" paint-order="fill stroke markers" d=" M 565.2655883729458 137.40000915527344 C 579.4444715587018 137.40000915527344 575.4648546072127 96.90937194228172 589.6437377929688 96.90937194228172" stroke-miterlimit="10" stroke-dasharray="0"/><path fill="none" stroke="#505050" paint-order="fill stroke markers" d=" M 613.6437377929688 96.90937194228172 C 631.8697009089268 96.90937194228172 572.7646374699794 153.2812438905239 590.9906005859375 153.2812438905239" stroke-miterlimit="10" stroke-dasharray="0"/><path fill="none" stroke="#505050" paint-order="fill stroke markers" d=" M 613.6437377929688 96.90937194228172 C 621.9746902146092 96.90937194228172 633.0815841994533 97.15000304579735 641.4125366210938 97.15000304579735" stroke-miterlimit="10" stroke-dasharray="0"/><path fill="none" stroke="#505050" paint-order="fill stroke markers" d=" M 614.9906005859375 153.2812438905239 C 623.329310411424 153.2812438905239 634.445616340428 152.9499969482422 642.7843261659145 152.9499969482422" stroke-miterlimit="10" stroke-dasharray="0"/><path fill="none" stroke="#505050" paint-order="fill stroke markers" d=" M 611.403076171875 295.9656158387661 C 617.6750259534755 295.9656158387661 626.0373397632203 296.074951171875 632.3092895448208 296.074951171875" stroke-miterlimit="10" stroke-dasharray="0"/><path fill="none" stroke="#505050" paint-order="fill stroke markers" d=" M 600.3218383789062 266.6187225282192 C 609.941199623543 266.6187225282192 577.7837149272383 295.9656158387661 587.403076171875 295.9656158387661" stroke-miterlimit="10" stroke-dasharray="0"/><path fill="none" stroke="#505050" paint-order="fill stroke markers" d=" M 600.3218383789062 266.6187225282192 C 609.6905180748064 266.6187225282192 622.1813248757761 266.83746910095215 631.5500045716763 266.83746910095215" stroke-miterlimit="10" stroke-dasharray="0"/><path fill="none" stroke="#505050" paint-order="fill stroke markers" d=" M 561.1781612336636 282.0749912261963 C 567.6697286837411 282.0749912261963 569.8302709288287 266.6187225282192 576.3218383789062 266.6187225282192" stroke-miterlimit="10" stroke-dasharray="0"/></g></g></svg>